  0
SECTION
  2
HEADER
  9
$ACADVER
  1
AC1024
  9
$ACADMAINTVER
 70
6
  9
$DWGCODEPAGE
  3
ANSI_1252
  9
$LASTSAVEDBY
  1
ezdxf
  9
$INSBASE
 10
0.0
 20
0.0
 30
0.0
  9
$EXTMIN
 10
1e+20
 20
1e+20
 30
1e+20
  9
$EXTMAX
 10
-1e+20
 20
-1e+20
 30
-1e+20
  9
$LIMMIN
 10
0.0
 20
0.0
  9
$LIMMAX
 10
420.0
 20
297.0
  9
$ORTHOMODE
 70
0
  9
$REGENMODE
 70
1
  9
$FILLMODE
 70
1
  9
$QTEXTMODE
 70
0
  9
$MIRRTEXT
 70
1
  9
$LTSCALE
 40
1.0
  9
$ATTMODE
 70
1
  9
$TEXTSIZE
 40
2.5
  9
$TRACEWID
 40
1.0
  9
$TEXTSTYLE
  7
Standard
  9
$CLAYER
  8
0
  9
$CELTYPE
  6
ByLayer
  9
$CECOLOR
 62
256
  9
$CELTSCALE
 40
1.0
  9
$DISPSILH
 70
0
  9
$DIMSCALE
 40
1.0
  9
$DIMASZ
 40
2.5
  9
$DIMEXO
 40
0.625
  9
$DIMDLI
 40
3.75
  9
$DIMRND
 40
0.0
  9
$DIMDLE
 40
0.0
  9
$DIMEXE
 40
1.25
  9
$DIMTP
 40
0.0
  9
$DIMTM
 40
0.0
  9
$DIMTXT
 40
2.5
  9
$DIMCEN
 40
2.5
  9
$DIMTSZ
 40
0.0
  9
$DIMTOL
 70
0
  9
$DIMLIM
 70
0
  9
$DIMTIH
 70
0
  9
$DIMTOH
 70
0
  9
$DIMSE1
 70
0
  9
$DIMSE2
 70
0
  9
$DIMTAD
 70
1
  9
$DIMZIN
 70
8
  9
$DIMBLK
  1

  9
$DIMASO
 70
1
  9
$DIMSHO
 70
1
  9
$DIMPOST
  1

  9
$DIMAPOST
  1

  9
$DIMALT
 70
0
  9
$DIMALTD
 70
3
  9
$DIMALTF
 40
0.03937007874
  9
$DIMLFAC
 40
1.0
  9
$DIMTOFL
 70
1
  9
$DIMTVP
 40
0.0
  9
$DIMTIX
 70
0
  9
$DIMSOXD
 70
0
  9
$DIMSAH
 70
0
  9
$DIMBLK1
  1

  9
$DIMBLK2
  1

  9
$DIMSTYLE
  2
ISO-25
  9
$DIMCLRD
 70
0
  9
$DIMCLRE
 70
0
  9
$DIMCLRT
 70
0
  9
$DIMTFAC
 40
1.0
  9
$DIMGAP
 40
0.625
  9
$DIMJUST
 70
0
  9
$DIMSD1
 70
0
  9
$DIMSD2
 70
0
  9
$DIMTOLJ
 70
0
  9
$DIMTZIN
 70
8
  9
$DIMALTZ
 70
0
  9
$DIMALTTZ
 70
0
  9
$DIMUPT
 70
0
  9
$DIMDEC
 70
2
  9
$DIMTDEC
 70
2
  9
$DIMALTU
 70
2
  9
$DIMALTTD
 70
3
  9
$DIMTXSTY
  7
Standard
  9
$DIMAUNIT
 70
0
  9
$DIMADEC
 70
0
  9
$DIMALTRND
 40
0.0
  9
$DIMAZIN
 70
0
  9
$DIMDSEP
 70
44
  9
$DIMATFIT
 70
3
  9
$DIMFRAC
 70
0
  9
$DIMLDRBLK
  1

  9
$DIMLUNIT
 70
2
  9
$DIMLWD
 70
-2
  9
$DIMLWE
 70
-2
  9
$DIMTMOVE
 70
0
  9
$DIMFXL
 40
1.0
  9
$DIMFXLON
 70
0
  9
$DIMJOGANG
 40
0.785398163397
  9
$DIMTFILL
 70
0
  9
$DIMTFILLCLR
 70
0
  9
$DIMARCSYM
 70
0
  9
$DIMLTYPE
  6

  9
$DIMLTEX1
  6

  9
$DIMLTEX2
  6

  9
$DIMTXTDIRECTION
 70
0
  9
$LUNITS
 70
2
  9
$LUPREC
 70
4
  9
$SKETCHINC
 40
1.0
  9
$FILLETRAD
 40
10.0
  9
$AUNITS
 70
0
  9
$AUPREC
 70
2
  9
$MENU
  1
.
  9
$ELEVATION
 40
0.0
  9
$PELEVATION
 40
0.0
  9
$THICKNESS
 40
0.0
  9
$LIMCHECK
 70
0
  9
$CHAMFERA
 40
0.0
  9
$CHAMFERB
 40
0.0
  9
$CHAMFERC
 40
0.0
  9
$CHAMFERD
 40
0.0
  9
$SKPOLY
 70
0
  9
$TDCREATE
 40
2461289.9234953704
  9
$TDUCREATE
 40
2458532.153996898
  9
$TDUPDATE
 40
2461289.9234953704
  9
$TDUUPDATE
 40
2458532.1544311
  9
$TDINDWG
 40
0.0
  9
$TDUSRTIMER
 40
0.0
  9
$USRTIMER
 70
1
  9
$ANGBASE
 50
0.0
  9
$ANGDIR
 70
0
  9
$PDMODE
 70
0
  9
$PDSIZE
 40
0.0
  9
$PLINEWID
 40
0.0
  9
$SPLFRAME
 70
0
  9
$SPLINETYPE
 70
6
  9
$SPLINESEGS
 70
8
  9
$HANDSEED
  5
62
  9
$SURFTAB1
 70
6
  9
$SURFTAB2
 70
6
  9
$SURFTYPE
 70
6
  9
$SURFU
 70
6
  9
$SURFV
 70
6
  9
$UCSBASE
  2

  9
$UCSNAME
  2

  9
$UCSORG
 10
0.0
 20
0.0
 30
0.0
  9
$UCSXDIR
 10
1.0
 20
0.0
 30
0.0
  9
$UCSYDIR
 10
0.0
 20
1.0
 30
0.0
  9
$UCSORTHOREF
  2

  9
$UCSORTHOVIEW
 70
0
  9
$UCSORGTOP
 10
0.0
 20
0.0
 30
0.0
  9
$UCSORGBOTTOM
 10
0.0
 20
0.0
 30
0.0
  9
$UCSORGLEFT
 10
0.0
 20
0.0
 30
0.0
  9
$UCSORGRIGHT
 10
0.0
 20
0.0
 30
0.0
  9
$UCSORGFRONT
 10
0.0
 20
0.0
 30
0.0
  9
$UCSORGBACK
 10
0.0
 20
0.0
 30
0.0
  9
$PUCSBASE
  2

  9
$PUCSNAME
  2

  9
$PUCSORG
 10
0.0
 20
0.0
 30
0.0
  9
$PUCSXDIR
 10
1.0
 20
0.0
 30
0.0
  9
$PUCSYDIR
 10
0.0
 20
1.0
 30
0.0
  9
$PUCSORTHOREF
  2

  9
$PUCSORTHOVIEW
 70
0
  9
$PUCSORGTOP
 10
0.0
 20
0.0
 30
0.0
  9
$PUCSORGBOTTOM
 10
0.0
 20
0.0
 30
0.0
  9
$PUCSORGLEFT
 10
0.0
 20
0.0
 30
0.0
  9
$PUCSORGRIGHT
 10
0.0
 20
0.0
 30
0.0
  9
$PUCSORGFRONT
 10
0.0
 20
0.0
 30
0.0
  9
$PUCSORGBACK
 10
0.0
 20
0.0
 30
0.0
  9
$USERI1
 70
0
  9
$USERI2
 70
0
  9
$USERI3
 70
0
  9
$USERI4
 70
0
  9
$USERI5
 70
0
  9
$USERR1
 40
0.0
  9
$USERR2
 40
0.0
  9
$USERR3
 40
0.0
  9
$USERR4
 40
0.0
  9
$USERR5
 40
0.0
  9
$WORLDVIEW
 70
1
  9
$SHADEDGE
 70
3
  9
$SHADEDIF
 70
70
  9
$TILEMODE
 70
1
  9
$MAXACTVP
 70
64
  9
$PINSBASE
 10
0.0
 20
0.0
 30
0.0
  9
$PLIMCHECK
 70
0
  9
$PEXTMIN
 10
1e+20
 20
1e+20
 30
1e+20
  9
$PEXTMAX
 10
-1e+20
 20
-1e+20
 30
-1e+20
  9
$PLIMMIN
 10
0.0
 20
0.0
  9
$PLIMMAX
 10
420.0
 20
297.0
  9
$UNITMODE
 70
0
  9
$VISRETAIN
 70
1
  9
$PLINEGEN
 70
0
  9
$PSLTSCALE
 70
1
  9
$TREEDEPTH
 70
3020
  9
$CMLSTYLE
  2
Standard
  9
$CMLJUST
 70
0
  9
$CMLSCALE
 40
20.0
  9
$PROXYGRAPHICS
 70
1
  9
$MEASUREMENT
 70
1
  9
$CELWEIGHT
370
-1
  9
$ENDCAPS
280
0
  9
$JOINSTYLE
280
0
  9
$LWDISPLAY
290
0
  9
$INSUNITS
 70
4
  9
$HYPERLINKBASE
  1

  9
$STYLESHEET
  1

  9
$XEDIT
290
1
  9
$CEPSNTYPE
380
0
  9
$PSTYLEMODE
290
1
  9
$FINGERPRINTGUID
  2
{A07199DA-CFB9-4FD4-97B9-BC7C1EB8A35D}
  9
$VERSIONGUID
  2
{D28067A8-F5C6-44AB-804E-C26785BE4277}
  9
$EXTNAMES
290
1
  9
$PSVPSCALE
 40
0.0
  9
$OLESTARTUP
290
0
  9
$SORTENTS
280
127
  9
$INDEXCTL
280
0
  9
$HIDETEXT
280
1
  9
$XCLIPFRAME
280
1
  9
$HALOGAP
280
0
  9
$OBSCOLOR
 70
257
  9
$OBSLTYPE
280
0
  9
$INTERSECTIONDISPLAY
280
0
  9
$INTERSECTIONCOLOR
 70
257
  9
$DIMASSOC
280
2
  9
$PROJECTNAME
  1

  9
$CAMERADISPLAY
290
0
  9
$LENSLENGTH
 40
50.0
  9
$CAMERAHEIGHT
 40
0.0
  9
$STEPSPERSEC
 40
24.0
  9
$STEPSIZE
 40
100.0
  9
$3DDWFPREC
 40
2.0
  9
$PSOLWIDTH
 40
0.005
  9
$PSOLHEIGHT
 40
0.08
  9
$LOFTANG1
 40
1.570796326795
  9
$LOFTANG2
 40
1.570796326795
  9
$LOFTMAG1
 40
0.0
  9
$LOFTMAG2
 40
0.0
  9
$LOFTPARAM
 70
7
  9
$LOFTNORMALS
280
1
  9
$LATITUDE
 40
37.795
  9
$LONGITUDE
 40
-122.394
  9
$NORTHDIRECTION
 40
0.0
  9
$TIMEZONE
 70
-8000
  9
$LIGHTGLYPHDISPLAY
280
1
  9
$TILEMODELIGHTSYNCH
280
1
  9
$CMATERIAL
347
20
  9
$SOLIDHIST
280
0
  9
$SHOWHIST
280
1
  9
$DWFFRAME
280
2
  9
$DGNFRAME
280
2
  9
$REALWORLDSCALE
290
1
  9
$INTERFERECOLOR
 62
256
  9
$CSHADOW
280
0
  9
$SHADOWPLANELOCATION
 40
0.0
  0
ENDSEC
  0
SECTION
  2
CLASSES
  0
CLASS
  1
ACDBDICTIONARYWDFLT
  2
AcDbDictionaryWithDefault
  3
ObjectDBX Classes
 90
0
 91
0
280
0
281
0
  0
CLASS
  1
SUN
  2
AcDbSun
  3
SCENEOE
 90
1153
 91
0
280
0
281
0
  0
CLASS
  1
VISUALSTYLE
  2
AcDbVisualStyle
  3
ObjectDBX Classes
 90
4095
 91
0
280
0
281
0
  0
CLASS
  1
MATERIAL
  2
AcDbMaterial
  3
ObjectDBX Classes
 90
1153
 91
0
280
0
281
0
  0
CLASS
  1
SCALE
  2
AcDbScale
  3
ObjectDBX Classes
 90
1153
 91
0
280
0
281
0
  0
CLASS
  1
TABLESTYLE
  2
AcDbTableStyle
  3
ObjectDBX Classes
 90
4095
 91
0
280
0
281
0
  0
CLASS
  1
MLEADERSTYLE
  2
AcDbMLeaderStyle
  3
ACDB_MLEADERSTYLE_CLASS
 90
4095
 91
0
280
0
281
0
  0
CLASS
  1
DICTIONARYVAR
  2
AcDbDictionaryVar
  3
ObjectDBX Classes
 90
0
 91
0
280
0
281
0
  0
CLASS
  1
CELLSTYLEMAP
  2
AcDbCellStyleMap
  3
ObjectDBX Classes
 90
1152
 91
0
280
0
281
0
  0
CLASS
  1
MENTALRAYRENDERSETTINGS
  2
AcDbMentalRayRenderSettings
  3
SCENEOE
 90
1024
 91
0
280
0
281
0
  0
CLASS
  1
ACDBDETAILVIEWSTYLE
  2
AcDbDetailViewStyle
  3
ObjectDBX Classes
 90
1025
 91
0
280
0
281
0
  0
CLASS
  1
ACDBSECTIONVIEWSTYLE
  2
AcDbSectionViewStyle
  3
ObjectDBX Classes
 90
1025
 91
0
280
0
281
0
  0
CLASS
  1
RASTERVARIABLES
  2
AcDbRasterVariables
  3
ISM
 90
0
 91
0
280
0
281
0
  0
CLASS
  1
ACDBPLACEHOLDER
  2
AcDbPlaceHolder
  3
ObjectDBX Classes
 90
0
 91
0
280
0
281
0
  0
CLASS
  1
LAYOUT
  2
AcDbLayout
  3
ObjectDBX Classes
 90
0
 91
0
280
0
281
0
  0
ENDSEC
  0
SECTION
  2
TABLES
  0
TABLE
  2
VPORT
  5
8
330
0
100
AcDbSymbolTable
 70
1
  0
VPORT
  5
23
330
8
100
AcDbSymbolTableRecord
100
AcDbViewportTableRecord
  2
*Active
 70
0
 10
0.0
 20
0.0
 11
1.0
 21
1.0
 12
0.0
 22
0.0
 13
0.0
 23
0.0
 14
0.5
 24
0.5
 15
0.5
 25
0.5
 16
0.0
 26
0.0
 36
1.0
 17
0.0
 27
0.0
 37
0.0
 40
1000.0
 41
1.34
 42
50.0
 43
0.0
 44
0.0
 50
0.0
 51
0.0
 71
0
 72
1000
 73
1
 74
3
 75
0
 76
0
 77
0
 78
0
281
0
 65
0
146
0.0
  0
ENDTAB
  0
TABLE
  2
LTYPE
  5
2
330
0
100
AcDbSymbolTable
 70
3
  0
LTYPE
  5
24
330
2
100
AcDbSymbolTableRecord
100
AcDbLinetypeTableRecord
  2
ByBlock
 70
0
  3

 72
65
 73
0
 40
0.0
  0
LTYPE
  5
25
330
2
100
AcDbSymbolTableRecord
100
AcDbLinetypeTableRecord
  2
ByLayer
 70
0
  3

 72
65
 73
0
 40
0.0
  0
LTYPE
  5
26
330
2
100
AcDbSymbolTableRecord
100
AcDbLinetypeTableRecord
  2
Continuous
 70
0
  3

 72
65
 73
0
 40
0.0
  0
ENDTAB
  0
TABLE
  2
LAYER
  5
1
330
0
100
AcDbSymbolTable
 70
9
  0
LAYER
  5
27
330
1
100
AcDbSymbolTableRecord
100
AcDbLayerTableRecord
  2
0
 70
0
 62
7
  6
Continuous
370
-3
390
13
347
21
  0
LAYER
  5
28
330
1
100
AcDbSymbolTableRecord
100
AcDbLayerTableRecord
  2
Defpoints
 70
0
 62
7
  6
Continuous
290
0
370
-3
390
13
347
21
  0
LAYER
  5
2F
330
1
100
AcDbSymbolTableRecord
100
AcDbLayerTableRecord
  2
ARKA_OUTLINE
 70
0
 62
7
  6
Continuous
370
-3
390
13
347
21
  0
LAYER
  5
30
330
1
100
AcDbSymbolTableRecord
100
AcDbLayerTableRecord
  2
ARKA_PANE
 70
0
 62
3
  6
Continuous
370
-3
390
13
347
21
  0
LAYER
  5
31
330
1
100
AcDbSymbolTableRecord
100
AcDbLayerTableRecord
  2
ARKA_PANE_ZEWN_REF
 70
0
 62
3
  6
Continuous
370
-3
390
13
347
21
  0
LAYER
  5
32
330
1
100
AcDbSymbolTableRecord
100
AcDbLayerTableRecord
  2
ARKA_FRONT_HINGES_3MM
 70
0
 62
50
  6
Continuous
370
-3
390
13
347
21
  0
LAYER
  5
33
330
1
100
AcDbSymbolTableRecord
100
AcDbLayerTableRecord
  2
ARKA_MITRE
 70
0
 62
1
  6
Continuous
370
-3
390
13
347
21
  0
LAYER
  5
34
330
1
100
AcDbSymbolTableRecord
100
AcDbLayerTableRecord
  2
ARKA_SECTION
 70
0
 62
5
  6
Continuous
370
-3
390
13
347
21
  0
LAYER
  5
35
330
1
100
AcDbSymbolTableRecord
100
AcDbLayerTableRecord
  2
ARKA_INFO_NO_CUT
 70
0
 62
8
  6
Continuous
290
0
370
-3
390
13
347
21
  0
ENDTAB
  0
TABLE
  2
STYLE
  5
5
330
0
100
AcDbSymbolTable
 70
1
  0
STYLE
  5
29
330
5
100
AcDbSymbolTableRecord
100
AcDbTextStyleTableRecord
  2
Standard
 70
0
 40
0.0
 41
1.0
 50
0.0
 71
0
 42
2.5
  3
txt
  4

  0
ENDTAB
  0
TABLE
  2
VIEW
  5
7
330
0
100
AcDbSymbolTable
 70
0
  0
ENDTAB
  0
TABLE
  2
UCS
  5
6
330
0
100
AcDbSymbolTable
 70
0
  0
ENDTAB
  0
TABLE
  2
APPID
  5
3
330
0
100
AcDbSymbolTable
 70
3
  0
APPID
  5
2A
330
3
100
AcDbSymbolTableRecord
100
AcDbRegAppTableRecord
  2
ACAD
 70
0
  0
APPID
  5
5F
330
3
100
AcDbSymbolTableRecord
100
AcDbRegAppTableRecord
  2
HATCHBACKGROUNDCOLOR
 70
0
  0
APPID
  5
60
330
3
100
AcDbSymbolTableRecord
100
AcDbRegAppTableRecord
  2
EZDXF
 70
0
  0
ENDTAB
  0
TABLE
  2
DIMSTYLE
  5
4
330
0
100
AcDbSymbolTable
 70
1
100
AcDbDimStyleTable
  0
DIMSTYLE
105
2B
330
4
100
AcDbSymbolTableRecord
100
AcDbDimStyleTableRecord
  2
Standard
 70
0
 40
1.0
 41
2.5
 42
0.625
 43
3.75
 44
1.25
 45
0.0
 46
0.0
 47
0.0
 48
0.0
 49
2.5
140
2.5
141
2.5
142
0.0
143
0.03937007874
144
1.0
145
0.0
146
1.0
147
0.625
148
0.0
 69
0
 70
0
 71
0
 72
0
 73
0
 74
0
 75
0
 76
0
 77
1
 78
8
 79
3
170
0
171
3
172
1
173
0
174
0
175
0
176
0
177
0
178
0
179
2
271
2
272
2
273
2
274
3
275
0
276
0
277
2
278
44
279
0
280
0
281
0
282
0
283
0
284
8
285
0
286
0
288
0
289
3
290
0
371
-2
372
-2
  0
ENDTAB
  0
TABLE
  2
BLOCK_RECORD
  5
9
330
0
100
AcDbSymbolTable
 70
2
  0
BLOCK_RECORD
  5
17
330
9
100
AcDbSymbolTableRecord
100
AcDbBlockTableRecord
  2
*Model_Space
340
1A
 70
0
280
1
281
0
  0
BLOCK_RECORD
  5
1B
330
9
100
AcDbSymbolTableRecord
100
AcDbBlockTableRecord
  2
*Paper_Space
340
1E
 70
0
280
1
281
0
  0
ENDTAB
  0
ENDSEC
  0
SECTION
  2
BLOCKS
  0
BLOCK
  5
18
330
17
100
AcDbEntity
  8
0
100
AcDbBlockBegin
  2
*Model_Space
 70
0
 10
0.0
 20
0.0
 30
0.0
  3
*Model_Space
  1

  0
ENDBLK
  5
19
330
17
100
AcDbEntity
  8
0
100
AcDbBlockEnd
  0
BLOCK
  5
1C
330
1B
100
AcDbEntity
  8
0
100
AcDbBlockBegin
  2
*Paper_Space
 70
0
 10
0.0
 20
0.0
 30
0.0
  3
*Paper_Space
  1

  0
ENDBLK
  5
1D
330
1B
100
AcDbEntity
  8
0
100
AcDbBlockEnd
  0
ENDSEC
  0
SECTION
  2
ENTITIES
  0
LWPOLYLINE
  5
36
330
17
100
AcDbEntity
  8
ARKA_OUTLINE
100
AcDbPolyline
 90
4
 70
1
 10
607.0
 20
599.999166666089
 42
0.4175881057710703
 10
0.0
 20
0.0
 10
601.0
 20
0.0
 10
607.0
 20
0.0
  0
LWPOLYLINE
  5
37
330
17
100
AcDbEntity
  8
ARKA_PANE_ZEWN_REF
100
AcDbPolyline
 90
4
 70
1
 10
605.0
 20
598.0188742899743
 42
0.4156370807835289
 10
2.003437042709544
 20
2.0
 10
601.0
 20
2.0
 10
605.0
 20
2.0
  0
LWPOLYLINE
  5
38
330
17
100
AcDbEntity
  8
ARKA_OUTLINE
100
AcDbPolyline
 90
4
 70
1
 10
589.0
 20
581.896038824807
 42
0.1891058468419544
 10
196.3155395944409
 20
419.24080959166304
 10
317.2613936663729
 20
298.29495551973105
 42
-0.1850353514337643
 10
589.0
 20
410.852771683484
  0
LWPOLYLINE
  5
39
330
17
100
AcDbEntity
  8
ARKA_PANE
100
AcDbPolyline
 90
4
 70
1
 10
591.0
 20
583.9306465668687
 42
0.19091379651884613
 10
193.46264110060133
 20
419.2652809607564
 10
317.22731513465965
 20
295.5006069266981
 42
-0.18749819649672314
 10
591.0
 20
408.90096600521866
  0
LWPOLYLINE
  5
3A
330
17
100
AcDbEntity
  8
ARKA_FRONT_HINGES_3MM
100
AcDbPolyline
 90
4
 70
1
 10
599.0
 20
591.999155404804
 42
0.1980345023010126
 10
182.10048953774125
 20
419.3137240246317
 10
317.15816920603
 20
284.256044356343
 42
-0.1976164696544122
 10
599.0
 20
400.9987531152696
  0
LWPOLYLINE
  5
3B
330
17
100
AcDbEntity
  8
ARKA_MITRE
100
AcDbPolyline
 90
3
 70
0
 10
599.0
 20
576.999155404804
 10
599.0
 20
591.999155404804
 42
0.006334544185009857
 10
584.0019473473111
 20
591.7837969320578
  0
LWPOLYLINE
  5
3C
330
17
100
AcDbEntity
  8
ARKA_MITRE
100
AcDbPolyline
 90
3
 70
0
 10
192.85799570951525
 20
429.76666732347616
 42
0.006334544185009857
 10
182.10048953774125
 20
419.3137240246317
 10
192.70709125553947
 20
408.7071223068335
  0
LWPOLYLINE
  5
3D
330
17
100
AcDbEntity
  8
ARKA_MITRE
100
AcDbPolyline
 90
3
 70
0
 10
306.55156748823174
 20
294.86264607414125
 10
317.15816920603
 20
284.256044356343
 42
-0.009351893565690935
 10
327.9865682354049
 20
294.63484678436794
  0
LWPOLYLINE
  5
3E
330
17
100
AcDbEntity
  8
ARKA_MITRE
100
AcDbPolyline
 90
3
 70
0
 10
584.0042440394834
 20
400.68084030965656
 42
-0.009351893565690935
 10
599.0
 20
400.9987531152696
 10
599.0
 20
415.9987531152696
  0
LWPOLYLINE
  5
3F
330
17
100
AcDbEntity
  8
ARKA_OUTLINE
100
AcDbPolyline
 90
4
 70
1
 10
180.75919040833696
 20
403.6844604055591
 42
0.1859922209295381
 10
18.27841711004112
 20
18.00000000000091
 10
189.39434977097608
 20
18.00000000000091
 42
-0.1806323092173921
 10
301.70504448026804
 20
282.7386063336271
  0
LWPOLYLINE
  5
40
330
17
100
AcDbEntity
  8
ARKA_PANE
100
AcDbPolyline
 90
4
 70
1
 10
180.7347190392437
 20
406.53735889939855
 42
0.18780903876555258
 10
16.219219226943654
 20
16.00000000000091
 10
191.3130782616118
 20
16.00000000000091
 42
-0.18307044928951957
 10
304.49939307330095
 20
282.7726848653404
  0
LWPOLYLINE
  5
41
330
17
100
AcDbEntity
  8
ARKA_FRONT_HINGES_3MM
100
AcDbPolyline
 90
4
 70
1
 10
180.68627597536837
 20
417.8995104622587
 42
0.19496417247680758
 10
8.054056522050937
 20
8.00000000000091
 10
199.0798084406331
 20
8.00000000000091
 42
-0.1930854882320887
 10
315.74395564365597
 20
282.8418307939701
  0
LWPOLYLINE
  5
42
330
17
100
AcDbEntity
  8
ARKA_MITRE
100
AcDbPolyline
 90
3
 70
0
 10
191.29287769316653
 20
407.2929087444605
 10
180.68627597536837
 20
417.8995104622587
 42
0.006334544185009883
 10
170.23333267652401
 20
407.1420042904847
  0
LWPOLYLINE
  5
43
330
17
100
AcDbEntity
  8
ARKA_MITRE
100
AcDbPolyline
 90
3
 70
0
 10
8.446743801777416
 20
22.99445762090058
 42
0.006334544185009883
 10
8.054056522050937
 20
8.00000000000091
 10
23.054056522050935
 20
8.00000000000091
  0
LWPOLYLINE
  5
44
330
17
100
AcDbEntity
  8
ARKA_MITRE
100
AcDbPolyline
 90
3
 70
0
 10
184.0798084406331
 20
8.00000000000091
 10
199.0798084406331
 20
8.00000000000091
 42
-0.009351893565690987
 10
199.65945061571784
 20
22.98792114765201
  0
LWPOLYLINE
  5
45
330
17
100
AcDbEntity
  8
ARKA_MITRE
100
AcDbPolyline
 90
3
 70
0
 10
305.36515321563104
 20
272.01343176459505
 42
-0.009351893565690987
 10
315.74395564365597
 20
282.8418307939701
 10
305.1373539258578
 20
293.4484325117683
  0
LWPOLYLINE
  5
46
330
17
100
AcDbEntity
  8
ARKA_OUTLINE
100
AcDbPolyline
 90
4
 70
1
 10
589.0
 20
388.844441904472
 42
0.1842524298101621
 10
332.82363289570185
 20
282.732716290403
 10
458.7815303355378
 20
156.774818850565
 42
-0.171936199755949
 10
589.0
 20
210.713075057055
  0
LWPOLYLINE
  5
47
330
17
100
AcDbEntity
  8
ARKA_PANE
100
AcDbPolyline
 90
4
 70
1
 10
591.0
 20
390.89640571384166
 42
0.1869738003990924
 10
329.95846180897405
 20
282.7694602523846
 10
458.7157304283441
 20
154.0121916330125
 42
-0.17661452003436137
 10
591.0
 20
208.80613017821125
  0
LWPOLYLINE
  5
48
330
17
100
AcDbEntity
  8
ARKA_FRONT_HINGES_3MM
100
AcDbPolyline
 90
4
 70
1
 10
599.0
 20
398.9987468652005
 42
0.1976099755248685
 10
318.57238718786914
 20
282.8418263745049
 10
458.5804027456667
 20
142.83381081670504
 42
-0.19632764492609592
 10
599.0
 20
200.99751242241805
  0
LWPOLYLINE
  5
49
330
17
100
AcDbEntity
  8
ARKA_MITRE
100
AcDbPolyline
 90
3
 70
0
 10
599.0
 20
383.9987468652005
 10
599.0
 20
398.9987468652005
 42
0.009398772978861833
 10
584.0042866894566
 20
398.6792409389875
  0
LWPOLYLINE
  5
4A
330
17
100
AcDbEntity
  8
ARKA_MITRE
100
AcDbPolyline
 90
3
 70
0
 10
329.4018825655382
 20
293.219472138065
 42
0.009398772978861833
 10
318.57238718786914
 20
282.8418263745049
 10
329.17898890566727
 20
272.2352246567066
  0
LWPOLYLINE
  5
4B
330
17
100
AcDbEntity
  8
ARKA_MITRE
100
AcDbPolyline
 90
3
 70
0
 10
447.97380102786855
 20
153.44041253450334
 10
458.5804027456667
 20
142.83381081670504
 42
-0.01865888135283737
 10
469.6233633611628
 20
152.98017067170738
  0
LWPOLYLINE
  5
4C
330
17
100
AcDbEntity
  8
ARKA_MITRE
100
AcDbPolyline
 90
3
 70
0
 10
584.0168878065756
 20
200.3635199446558
 42
-0.01865888135283737
 10
599.0
 20
200.99751242241805
 10
599.0
 20
215.99751242241805
  0
LWPOLYLINE
  5
4D
330
17
100
AcDbEntity
  8
ARKA_OUTLINE
100
AcDbPolyline
 90
4
 70
1
 10
317.267283709597
 20
267.17636710429906
 42
0.1796015169806891
 10
211.41667560225915
 20
18.00000000000091
 10
389.76917447719416
 20
18.00000000000091
 42
-0.1633885650317073
 10
443.22518114943523
 20
141.21846966446196
  0
LWPOLYLINE
  5
4E
330
17
100
AcDbEntity
  8
ARKA_PANE
100
AcDbPolyline
 90
4
 70
1
 10
317.2305397476154
 20
270.04153819102686
 42
0.18234304524715877
 10
209.32750288764888
 20
16.00000000000091
 10
391.6133401582518
 20
16.00000000000091
 42
-0.16797683143480838
 10
445.9878083669877
 20
141.2842695716557
  0
LWPOLYLINE
  5
4F
330
17
100
AcDbEntity
  8
ARKA_FRONT_HINGES_3MM
100
AcDbPolyline
 90
4
 70
1
 10
317.1581736254951
 20
281.4276128121318
 42
0.19305630945361382
 10
201.08020856317506
 20
8.00000000000091
 10
399.1592670796073
 20
8.00000000000091
 42
-0.18729807627960893
 10
457.1661891832952
 20
141.41959725433296
  0
LWPOLYLINE
  5
50
330
17
100
AcDbEntity
  8
ARKA_MITRE
100
AcDbPolyline
 90
3
 70
0
 10
327.7647753432934
 20
270.8210110943337
 10
317.1581736254951
 20
281.4276128121318
 42
0.009398772978861838
 10
306.78052786193507
 20
270.5981174344628
  0
LWPOLYLINE
  5
51
330
17
100
AcDbEntity
  8
ARKA_MITRE
100
AcDbPolyline
 90
3
 70
0
 10
201.66275461373823
 20
22.987799766072843
 42
0.009398772978861838
 10
201.08020856317506
 20
8.00000000000091
 10
216.08020856317506
 20
8.00000000000091
  0
LWPOLYLINE
  5
52
330
17
100
AcDbEntity
  8
ARKA_MITRE
100
AcDbPolyline
 90
3
 70
0
 10
384.1592670796073
 20
8.00000000000091
 10
399.1592670796073
 20
8.00000000000091
 42
-0.01865888135283742
 10
400.31472651096055
 20
22.951940040179554
  0
LWPOLYLINE
  5
53
330
17
100
AcDbEntity
  8
ARKA_MITRE
100
AcDbPolyline
 90
3
 70
0
 10
447.01982932829276
 20
130.37663663883703
 42
-0.01865888135283742
 10
457.1661891832952
 20
141.41959725433296
 10
446.559587465497
 20
152.0261989721311
  0
LWPOLYLINE
  5
54
330
17
100
AcDbEntity
  8
ARKA_OUTLINE
100
AcDbPolyline
 90
3
 70
1
 10
589.0
 20
188.99735447883995
 42
0.3685778242545117
 10
411.85909535669816
 20
18.00000000000091
 10
589.0
 20
18.00000000000091
  0
LWPOLYLINE
  5
55
330
17
100
AcDbEntity
  8
ARKA_PANE
100
AcDbPolyline
 90
3
 70
1
 10
591.0
 20
191.11247531520826
 42
0.375003697278261
 10
409.6682233554485
 20
16.00000000000091
 10
591.0
 20
16.00000000000091
  0
LWPOLYLINE
  5
56
330
17
100
AcDbEntity
  8
ARKA_FRONT_HINGES_3MM
100
AcDbPolyline
 90
3
 70
1
 10
599.0
 20
199.34903830231227
 42
0.39963461456560245
 10
401.1451729199312
 20
8.00000000000091
 10
599.0
 20
8.00000000000091
  0
LWPOLYLINE
  5
57
330
17
100
AcDbEntity
  8
ARKA_MITRE
100
AcDbPolyline
 90
3
 70
0
 10
599.0
 20
184.34903830231227
 10
599.0
 20
199.34903830231227
 42
0.018781661769728467
 10
584.0192937081019
 20
198.66153664553454
  0
LWPOLYLINE
  5
58
330
17
100
AcDbEntity
  8
ARKA_MITRE
100
AcDbPolyline
 90
3
 70
0
 10
402.3329745554304
 20
22.94935941125639
 42
0.018781661769728467
 10
401.1451729199312
 20
8.00000000000091
 10
416.1451729199312
 20
8.00000000000091
  0
LWPOLYLINE
  5
59
330
17
100
AcDbEntity
  8
ARKA_MITRE
100
AcDbPolyline
 90
3
 70
0
 10
584.0
 20
8.00000000000091
 10
599.0
 20
8.00000000000091
 10
599.0
 20
23.00000000000091
  0
LWPOLYLINE
  5
5A
330
17
100
AcDbEntity
  8
ARKA_SECTION
100
AcDbPolyline
 90
3
 70
0
 10
667.0
 20
45.0
 42
-0.41421356237309503
 10
675.0
 20
53.0
 10
675.0
 20
59.0
  0
TEXT
  5
5B
330
17
100
AcDbEntity
  8
ARKA_INFO_NO_CUT
100
AcDbText
 10
0.0
 20
625.0
 30
0.0
 40
4.0
  1
ARKA - SOURCE OUTLINES / RECOMPUTED OFFSETS
100
AcDbText
  0
TEXT
  5
5C
330
17
100
AcDbEntity
  8
ARKA_INFO_NO_CUT
100
AcDbText
 10
0.0
 20
616.0
 30
0.0
 40
3.0
  1
PANE 2 mm | PROFILE WIDTH R8 | OUTER LIMIT 10 mm | MITRE 15 mm
100
AcDbText
  0
TEXT
  5
5D
330
17
100
AcDbEntity
  8
ARKA_INFO_NO_CUT
100
AcDbText
 10
667.0
 20
69.0
 30
0.0
 40
2.5
  1
SECTION: ONE OPEN POLYLINE, R8 + VERTICAL 6; ENVELOPE 8 x 14 mm
100
AcDbText
  0
TEXT
  5
5E
330
17
100
AcDbEntity
  8
ARKA_INFO_NO_CUT
100
AcDbText
 10
667.0
 20
30.0
 30
0.0
 40
2.5
  1
2D GEOMETRY ONLY - NOT CNC TOOLPATHS
100
AcDbText
  0
ENDSEC
  0
SECTION
  2
OBJECTS
  0
DICTIONARY
  5
A
330
0
100
AcDbDictionary
281
1
  3
ACAD_COLOR
350
B
  3
ACAD_GROUP
350
C
  3
ACAD_LAYOUT
350
D
  3
ACAD_MATERIAL
350
E
  3
ACAD_MLEADERSTYLE
350
F
  3
ACAD_MLINESTYLE
350
10
  3
ACAD_PLOTSETTINGS
350
11
  3
ACAD_PLOTSTYLENAME
350
12
  3
ACAD_SCALELIST
350
14
  3
ACAD_TABLESTYLE
350
15
  3
ACAD_VISUALSTYLE
350
16
  3
EZDXF_META
350
2D
  0
DICTIONARY
  5
B
330
A
100
AcDbDictionary
281
1
  0
DICTIONARY
  5
C
330
A
100
AcDbDictionary
281
1
  0
DICTIONARY
  5
D
330
A
100
AcDbDictionary
281
1
  3
Model
350
1A
  3
Layout1
350
1E
  0
DICTIONARY
  5
E
330
A
100
AcDbDictionary
281
1
  3
ByBlock
350
1F
  3
ByLayer
350
20
  3
Global
350
21
  0
DICTIONARY
  5
F
330
A
100
AcDbDictionary
281
1
  3
Standard
350
2C
  0
DICTIONARY
  5
10
330
A
100
AcDbDictionary
281
1
  3
Standard
350
22
  0
DICTIONARY
  5
11
330
A
100
AcDbDictionary
281
1
  0
ACDBDICTIONARYWDFLT
  5
12
330
A
100
AcDbDictionary
281
1
  3
Normal
350
13
100
AcDbDictionaryWithDefault
340
13
  0
ACDBPLACEHOLDER
  5
13
330
12
  0
DICTIONARY
  5
14
330
A
100
AcDbDictionary
281
1
  0
DICTIONARY
  5
15
330
A
100
AcDbDictionary
281
1
  0
DICTIONARY
  5
16
330
A
100
AcDbDictionary
281
1
  0
LAYOUT
  5
1A
330
D
100
AcDbPlotSettings
  1

  4
A3
  6

 40
7.5
 41
20.0
 42
7.5
 43
20.0
 44
420.0
 45
297.0
 46
0.0
 47
0.0
 48
0.0
 49
0.0
140
0.0
141
0.0
142
1.0
143
1.0
 70
1024
 72
1
 73
0
 74
5
  7

 75
16
 76
0
 77
2
 78
300
147
1.0
148
0.0
149
0.0
100
AcDbLayout
  1
Model
 70
1
 71
0
 10
0.0
 20
0.0
 11
420.0
 21
297.0
 12
0.0
 22
0.0
 32
0.0
 14
1e+20
 24
1e+20
 34
1e+20
 15
-1e+20
 25
-1e+20
 35
-1e+20
146
0.0
 13
0.0
 23
0.0
 33
0.0
 16
1.0
 26
0.0
 36
0.0
 17
0.0
 27
1.0
 37
0.0
 76
1
330
17
  0
LAYOUT
  5
1E
330
D
100
AcDbPlotSettings
  1

  4
A3
  6

 40
7.5
 41
20.0
 42
7.5
 43
20.0
 44
420.0
 45
297.0
 46
0.0
 47
0.0
 48
0.0
 49
0.0
140
0.0
141
0.0
142
1.0
143
1.0
 70
0
 72
1
 73
0
 74
5
  7

 75
16
 76
0
 77
2
 78
300
147
1.0
148
0.0
149
0.0
100
AcDbLayout
  1
Layout1
 70
1
 71
1
 10
0.0
 20
0.0
 11
420.0
 21
297.0
 12
0.0
 22
0.0
 32
0.0
 14
1e+20
 24
1e+20
 34
1e+20
 15
-1e+20
 25
-1e+20
 35
-1e+20
146
0.0
 13
0.0
 23
0.0
 33
0.0
 16
1.0
 26
0.0
 36
0.0
 17
0.0
 27
1.0
 37
0.0
 76
1
330
1B
  0
MATERIAL
  5
1F
102
{ACAD_REACTORS
330
E
102
}
330
E
100
AcDbMaterial
  1
ByBlock
  2

 70
0
 40
1.0
 71
1
 41
1.0
 91
-1023410177
 42
1.0
 72
1
  3

 73
1
 74
1
 75
1
 44
0.5
 73
0
 45
1.0
 46
1.0
 77
1
  4

 78
1
 79
1
170
1
 48
1.0
171
1
  6

172
1
173
1
174
1
140
1.0
141
1.0
175
1
  7

176
1
177
1
178
1
143
1.0
179
1
  8

270
1
271
1
272
1
145
1.0
146
1.0
273
1
  9

274
1
275
1
276
1
 42
1.0
 72
1
  3

 73
1
 74
1
 75
1
 94
63
  0
MATERIAL
  5
20
102
{ACAD_REACTORS
330
E
102
}
330
E
100
AcDbMaterial
  1
ByLayer
  2

 70
0
 40
1.0
 71
1
 41
1.0
 91
-1023410177
 42
1.0
 72
1
  3

 73
1
 74
1
 75
1
 44
0.5
 73
0
 45
1.0
 46
1.0
 77
1
  4

 78
1
 79
1
170
1
 48
1.0
171
1
  6

172
1
173
1
174
1
140
1.0
141
1.0
175
1
  7

176
1
177
1
178
1
143
1.0
179
1
  8

270
1
271
1
272
1
145
1.0
146
1.0
273
1
  9

274
1
275
1
276
1
 42
1.0
 72
1
  3

 73
1
 74
1
 75
1
 94
63
  0
MATERIAL
  5
21
102
{ACAD_REACTORS
330
E
102
}
330
E
100
AcDbMaterial
  1
Global
  2

 70
0
 40
1.0
 71
1
 41
1.0
 91
-1023410177
 42
1.0
 72
1
  3

 73
1
 74
1
 75
1
 44
0.5
 73
0
 45
1.0
 46
1.0
 77
1
  4

 78
1
 79
1
170
1
 48
1.0
171
1
  6

172
1
173
1
174
1
140
1.0
141
1.0
175
1
  7

176
1
177
1
178
1
143
1.0
179
1
  8

270
1
271
1
272
1
145
1.0
146
1.0
273
1
  9

274
1
275
1
276
1
 42
1.0
 72
1
  3

 73
1
 74
1
 75
1
 94
63
  0
MLINESTYLE
  5
22
102
{ACAD_REACTORS
330
10
102
}
330
10
100
AcDbMlineStyle
  2
Standard
 70
0
  3

 62
256
 51
90.0
 52
90.0
 71
2
 49
0.5
 62
256
  6
BYLAYER
 49
-0.5
 62
256
  6
BYLAYER
  0
MLEADERSTYLE
  5
2C
102
{ACAD_REACTORS
330
F
102
}
330
F
100
AcDbMLeaderStyle
179
2
170
2
171
1
172
0
 90
2
 40
0.0
 41
0.0
173
1
 91
-1056964608
 92
-2
290
1
 42
2.0
291
1
 43
8.0
  3
Standard
 44
4.0
300

342
29
174
1
175
1
176
0
178
1
 93
-1056964608
 45
4.0
292
0
297
0
 46
4.0
 94
-1056964608
 47
1.0
 49
1.0
140
1.0
294
1
141
0.0
177
0
142
1.0
295
0
296
0
143
3.75
271
0
272
9
273
9
  0
DICTIONARY
  5
2D
330
A
100
AcDbDictionary
280
1
281
1
  3
CREATED_BY_EZDXF
350
2E
  3
WRITTEN_BY_EZDXF
350
61
  0
DICTIONARYVAR
  5
2E
330
2D
100
DictionaryVariables
280
0
  1
1.4.4 @ 2026-09-05T22:09:50.518062+00:00
  0
DICTIONARYVAR
  5
61
330
2D
100
DictionaryVariables
280
0
  1
1.4.4 @ 2026-09-05T22:09:50.522123+00:00
  0
ENDSEC
  0
EOF
