0
SECTION
2
HEADER
9
$ACADVER
1
AC1009
0
ENDSEC
0
SECTION
2
TABLES
0
TABLE
2
LAYER
70
8
0
LAYER
2
0
70
0
62
7
6
CONTINUOUS
0
LAYER
2
FIT
70
0
62
4
6
CONTINUOUS
0
LAYER
2
CONTOUR
70
0
62
7
6
CONTINUOUS
0
LAYER
2
ASSEMBLY
70
0
62
8
6
CONTINUOUS
0
LAYER
2
PIECES
70
0
62
5
6
CONTINUOUS
0
LAYER
2
FINGER
70
0
62
1
6
CONTINUOUS
0
LAYER
2
CLAMPS
70
0
62
3
6
CONTINUOUS
0
LAYER
2
TEXT
70
0
62
94
6
CONTINUOUS
0
ENDTAB
0
ENDSEC
0
SECTION
2
ENTITIES
0
POLYLINE
8
PIECES
66
1
70
1
10
0
20
0
30
0
0
VERTEX
8
PIECES
10
549.59576
20
0
30
0
0
VERTEX
8
PIECES
10
66.481069
20
0
30
0
0
VERTEX
8
PIECES
10
0
20
150
30
0
0
VERTEX
8
PIECES
10
549.59576
20
150
30
0
0
SEQEND
8
PIECES
0
POLYLINE
8
CLAMPS
66
1
70
1
10
0
20
0
30
0
0
VERTEX
8
CLAMPS
10
97.048998
20
10
30
0
0
VERTEX
8
CLAMPS
10
227.048998
20
10
30
0
0
VERTEX
8
CLAMPS
10
227.048998
20
140
30
0
0
VERTEX
8
CLAMPS
10
97.048998
20
140
30
0
0
SEQEND
8
CLAMPS
0
POLYLINE
8
CLAMPS
66
1
70
1
10
0
20
0
30
0
0
VERTEX
8
CLAMPS
10
399.59576
20
10
30
0
0
VERTEX
8
CLAMPS
10
529.59576
20
10
30
0
0
VERTEX
8
CLAMPS
10
529.59576
20
140
30
0
0
VERTEX
8
CLAMPS
10
399.59576
20
140
30
0
0
SEQEND
8
CLAMPS
0
TEXT
8
TEXT
10
274.79788
20
-25
30
0
40
15
1
C5 - LEAF TOP P1 L549.6 x150
72
1
11
274.79788
21
-25
31
0
73
2
0
TEXT
8
TEXT
10
274.79788
20
-50
30
0
40
10
1
OUT 534.6 IN 468.1 CUT J23.9/Q FINGER ONE END
72
1
11
274.79788
21
-50
31
0
73
2
0
POLYLINE
8
PIECES
66
1
70
1
10
0
20
0
30
0
0
VERTEX
8
PIECES
10
1232.710451
20
0
30
0
0
VERTEX
8
PIECES
10
749.59576
20
0
30
0
0
VERTEX
8
PIECES
10
749.59576
20
150
30
0
0
VERTEX
8
PIECES
10
1299.19152
20
150
30
0
0
SEQEND
8
PIECES
0
POLYLINE
8
CLAMPS
66
1
70
1
10
0
20
0
30
0
0
VERTEX
8
CLAMPS
10
769.59576
20
10
30
0
0
VERTEX
8
CLAMPS
10
899.59576
20
10
30
0
0
VERTEX
8
CLAMPS
10
899.59576
20
140
30
0
0
VERTEX
8
CLAMPS
10
769.59576
20
140
30
0
0
SEQEND
8
CLAMPS
0
POLYLINE
8
CLAMPS
66
1
70
1
10
0
20
0
30
0
0
VERTEX
8
CLAMPS
10
1072.142522
20
10
30
0
0
VERTEX
8
CLAMPS
10
1202.142522
20
10
30
0
0
VERTEX
8
CLAMPS
10
1202.142522
20
140
30
0
0
VERTEX
8
CLAMPS
10
1072.142522
20
140
30
0
0
SEQEND
8
CLAMPS
0
TEXT
8
TEXT
10
1024.39364
20
-25
30
0
40
15
1
C5 - LEAF TOP P2 L549.6 x150
72
1
11
1024.39364
21
-25
31
0
73
2
0
TEXT
8
TEXT
10
1024.39364
20
-50
30
0
40
10
1
OUT 534.6 IN 468.1 CUT Q/J23.9 FINGER ONE END
72
1
11
1024.39364
21
-50
31
0
73
2
0
POLYLINE
8
CONTOUR
66
1
70
1
10
0
20
0
30
0
0
VERTEX
8
CONTOUR
10
937.743955
20
420.023901
30
0
42
0.259126
0
VERTEX
8
CONTOUR
10
891.045841
20
504.080505
30
0
42
0.285714
0
VERTEX
8
CONTOUR
10
86.442068
20
504.080505
30
0
42
0.259126
0
VERTEX
8
CONTOUR
10
39.743955
20
420.023901
30
0
0
VERTEX
8
CONTOUR
10
106.743955
20
420.023901
30
0
42
-0.259126
0
VERTEX
8
CONTOUR
10
121.838294
20
447.193712
30
0
42
-0.285714
0
VERTEX
8
CONTOUR
10
855.649615
20
447.193712
30
0
42
-0.259126
0
VERTEX
8
CONTOUR
10
870.743955
20
420.023901
30
0
0
SEQEND
8
CONTOUR
0
POLYLINE
8
ASSEMBLY
66
1
70
1
10
0
20
0
30
0
0
VERTEX
8
ASSEMBLY
10
916.708863
20
350
30
0
0
VERTEX
8
ASSEMBLY
10
488.743955
20
539.677097
30
0
0
VERTEX
8
ASSEMBLY
10
488.743955
20
703.749437
30
0
0
VERTEX
8
ASSEMBLY
10
977.487909
20
487.134633
30
0
0
SEQEND
8
ASSEMBLY
0
POLYLINE
8
FINGER
66
1
70
0
10
0
20
0
30
0
0
VERTEX
8
FINGER
10
488.743955
20
552.023901
30
0
0
VERTEX
8
FINGER
10
488.743955
20
619.023901
30
0
0
SEQEND
8
FINGER
0
POLYLINE
8
ASSEMBLY
66
1
70
1
10
0
20
0
30
0
0
VERTEX
8
ASSEMBLY
10
488.743955
20
539.677097
30
0
0
VERTEX
8
ASSEMBLY
10
60.779047
20
350
30
0
0
VERTEX
8
ASSEMBLY
10
0
20
487.134633
30
0
0
VERTEX
8
ASSEMBLY
10
488.743955
20
703.749437
30
0
0
SEQEND
8
ASSEMBLY
0
TEXT
8
TEXT
10
1077.487909
20
685.249437
30
0
40
15
1
C5 - LEAF TOP
72
0
11
1077.487909
21
685.249437
31
0
73
0
0
TEXT
8
TEXT
10
1077.487909
20
663.249437
30
0
40
15
1
THREE-CENTRE W1000 RISE250 H1800 HINGE L
72
0
11
1077.487909
21
663.249437
31
0
73
0
0
TEXT
8
TEXT
10
1077.487909
20
641.249437
30
0
40
15
1
FACE 67 OFFSET 51 OUTER L1048.5 INNER L838
72
0
11
1077.487909
21
641.249437
31
0
73
0
0
TEXT
8
TEXT
10
1077.487909
20
619.249437
30
0
40
15
1
CHAIN R99/761.5/99 L1048.5 180DEG: FEWEST 2 x board 150 L534.6 ROUGH 549.6 WASTE 50%
72
0
11
1077.487909
21
619.249437
31
0
73
0
0
TEXT
8
TEXT
10
1077.487909
20
597.249437
30
0
40
15
1
  NO ECONOMY ALT WITHIN 5 PIECES -> DEFAULT FEWEST
72
0
11
1077.487909
21
597.249437
31
0
73
0
0
TEXT
8
TEXT
10
1077.487909
20
575.249437
30
0
40
15
1
FINGER 15/16/3.8
72
0
11
1077.487909
21
575.249437
31
0
73
0
0
TEXT
8
TEXT
10
1077.487909
20
553.249437
30
0
40
15
1
ALLOWANCE 10 PER SIDE  LIMITS: OVERALL >= 450 (CLAMP)  SHORTER EDGE >= 400  STOCK MAX 200
72
0
11
1077.487909
21
553.249437
31
0
73
0
0
TEXT
8
TEXT
10
1077.487909
20
531.249437
30
0
40
15
1
CLAMPS (SUGGESTION): UNICLAMP 130 x 130, CLEARANCE 20 FROM THE END CUTS, JAWS 40-98, PIECE THICKNESS 57
72
0
11
1077.487909
21
531.249437
31
0
73
0
0
TEXT
8
TEXT
10
1077.487909
20
509.249437
30
0
40
15
1
CUT CODES: J = JOINT FROM SQUARE  Q = SQUARE (SPRINGING FACE ROUTED WITH THE CONTOUR)  A = APEX FROM SQUARE
72
0
11
1077.487909
21
509.249437
31
0
73
0
0
POLYLINE
8
PIECES
66
1
70
1
10
0
20
0
30
0
0
VERTEX
8
PIECES
10
634.464413
20
903.749437
30
0
0
VERTEX
8
PIECES
10
90
20
903.749437
30
0
0
VERTEX
8
PIECES
10
0
20
1083.749437
30
0
0
VERTEX
8
PIECES
10
634.464413
20
1083.749437
30
0
0
SEQEND
8
PIECES
0
POLYLINE
8
CLAMPS
66
1
70
1
10
0
20
0
30
0
0
VERTEX
8
CLAMPS
10
112.5
20
928.749437
30
0
0
VERTEX
8
CLAMPS
10
242.5
20
928.749437
30
0
0
VERTEX
8
CLAMPS
10
242.5
20
1058.749437
30
0
0
VERTEX
8
CLAMPS
10
112.5
20
1058.749437
30
0
0
SEQEND
8
CLAMPS
0
POLYLINE
8
CLAMPS
66
1
70
1
10
0
20
0
30
0
0
VERTEX
8
CLAMPS
10
484.464413
20
928.749437
30
0
0
VERTEX
8
CLAMPS
10
614.464413
20
928.749437
30
0
0
VERTEX
8
CLAMPS
10
614.464413
20
1058.749437
30
0
0
VERTEX
8
CLAMPS
10
484.464413
20
1058.749437
30
0
0
SEQEND
8
CLAMPS
0
TEXT
8
TEXT
10
317.232206
20
878.749437
30
0
40
15
1
C5 - FRAME HEAD P1 L634.5 x180
72
1
11
317.232206
21
878.749437
31
0
73
2
0
TEXT
8
TEXT
10
317.232206
20
853.749437
30
0
40
10
1
OUT 619.5 IN 529.5 CUT J26.6/Q FINGER ONE END
72
1
11
317.232206
21
853.749437
31
0
73
2
0
POLYLINE
8
PIECES
66
1
70
1
10
0
20
0
30
0
0
VERTEX
8
PIECES
10
1378.928826
20
903.749437
30
0
0
VERTEX
8
PIECES
10
834.464413
20
903.749437
30
0
0
VERTEX
8
PIECES
10
834.464413
20
1083.749437
30
0
0
VERTEX
8
PIECES
10
1468.928826
20
1083.749437
30
0
0
SEQEND
8
PIECES
0
POLYLINE
8
CLAMPS
66
1
70
1
10
0
20
0
30
0
0
VERTEX
8
CLAMPS
10
854.464413
20
928.749437
30
0
0
VERTEX
8
CLAMPS
10
984.464413
20
928.749437
30
0
0
VERTEX
8
CLAMPS
10
984.464413
20
1058.749437
30
0
0
VERTEX
8
CLAMPS
10
854.464413
20
1058.749437
30
0
0
SEQEND
8
CLAMPS
0
POLYLINE
8
CLAMPS
66
1
70
1
10
0
20
0
30
0
0
VERTEX
8
CLAMPS
10
1226.428826
20
928.749437
30
0
0
VERTEX
8
CLAMPS
10
1356.428826
20
928.749437
30
0
0
VERTEX
8
CLAMPS
10
1356.428826
20
1058.749437
30
0
0
VERTEX
8
CLAMPS
10
1226.428826
20
1058.749437
30
0
0
SEQEND
8
CLAMPS
0
TEXT
8
TEXT
10
1151.696619
20
878.749437
30
0
40
15
1
C5 - FRAME HEAD P2 L634.5 x180
72
1
11
1151.696619
21
878.749437
31
0
73
2
0
TEXT
8
TEXT
10
1151.696619
20
853.749437
30
0
40
10
1
OUT 619.5 IN 529.5 CUT Q/J26.6 FINGER ONE END
72
1
11
1151.696619
21
853.749437
31
0
73
2
0
POLYLINE
8
CONTOUR
66
1
70
1
10
0
20
0
30
0
0
VERTEX
8
CONTOUR
10
1054.065815
20
1356.614702
30
0
42
0.259126
0
VERTEX
8
CONTOUR
10
983.311098
20
1483.973192
30
0
42
0.285714
0
VERTEX
8
CONTOUR
10
124.820532
20
1483.973192
30
0
42
0.259126
0
VERTEX
8
CONTOUR
10
54.065815
20
1356.614702
30
0
0
VERTEX
8
CONTOUR
10
122.065815
20
1356.614702
30
0
42
-0.259126
0
VERTEX
8
CONTOUR
10
160.74506
20
1426.237343
30
0
42
-0.285714
0
VERTEX
8
CONTOUR
10
947.386569
20
1426.237343
30
0
42
-0.259126
0
VERTEX
8
CONTOUR
10
986.065815
20
1356.614702
30
0
0
SEQEND
8
CONTOUR
0
POLYLINE
8
ASSEMBLY
66
1
70
1
10
0
20
0
30
0
0
VERTEX
8
ASSEMBLY
10
1027.633182
20
1283.749437
30
0
0
VERTEX
8
ASSEMBLY
10
554.065815
20
1520.53312
30
0
0
VERTEX
8
ASSEMBLY
10
554.065815
20
1721.779238
30
0
0
VERTEX
8
ASSEMBLY
10
1108.131629
20
1444.746331
30
0
0
SEQEND
8
ASSEMBLY
0
POLYLINE
8
FINGER
66
1
70
0
10
0
20
0
30
0
0
VERTEX
8
FINGER
10
554.065815
20
1538.614702
30
0
0
VERTEX
8
FINGER
10
554.065815
20
1606.614702
30
0
0
SEQEND
8
FINGER
0
POLYLINE
8
ASSEMBLY
66
1
70
1
10
0
20
0
30
0
0
VERTEX
8
ASSEMBLY
10
554.065815
20
1520.53312
30
0
0
VERTEX
8
ASSEMBLY
10
80.498447
20
1283.749437
30
0
0
VERTEX
8
ASSEMBLY
10
0
20
1444.746331
30
0
0
VERTEX
8
ASSEMBLY
10
554.065815
20
1721.779238
30
0
0
SEQEND
8
ASSEMBLY
0
TEXT
8
TEXT
10
1208.131629
20
1703.279238
30
0
40
15
1
C5 - FRAME HEAD
72
0
11
1208.131629
21
1703.279238
31
0
73
0
0
TEXT
8
TEXT
10
1208.131629
20
1681.279238
30
0
40
15
1
THREE-CENTRE W1000 RISE250 H1800 HINGE L
72
0
11
1208.131629
21
1681.279238
31
0
73
0
0
TEXT
8
TEXT
10
1208.131629
20
1659.279238
30
0
40
15
1
FACE 68 OFFSET 0 OUTER L1208.7 INNER L995.1
72
0
11
1208.131629
21
1659.279238
31
0
73
0
0
TEXT
8
TEXT
10
1208.131629
20
1637.279238
30
0
40
15
1
CHAIN R150/812.5/150 L1208.7 180DEG: FEWEST 2 x board 180 L619.5 ROUGH 634.5 WASTE 58%
72
0
11
1208.131629
21
1637.279238
31
0
73
0
0
TEXT
8
TEXT
10
1208.131629
20
1615.279238
30
0
40
15
1
  NO ECONOMY ALT WITHIN 5 PIECES -> DEFAULT FEWEST
72
0
11
1208.131629
21
1615.279238
31
0
73
0
0
TEXT
8
TEXT
10
1208.131629
20
1593.279238
30
0
40
15
1
FINGER 15/16/3.8
72
0
11
1208.131629
21
1593.279238
31
0
73
0
0
TEXT
8
TEXT
10
1208.131629
20
1571.279238
30
0
40
15
1
ALLOWANCE 10 PER SIDE  LIMITS: OVERALL >= 450 (CLAMP)  SHORTER EDGE >= 400  STOCK MAX 200
72
0
11
1208.131629
21
1571.279238
31
0
73
0
0
TEXT
8
TEXT
10
1208.131629
20
1549.279238
30
0
40
15
1
CLAMPS (SUGGESTION): UNICLAMP 130 x 130, CLEARANCE 20 FROM THE END CUTS, JAWS 40-98, PIECE THICKNESS 93
72
0
11
1208.131629
21
1549.279238
31
0
73
0
0
TEXT
8
TEXT
10
1208.131629
20
1527.279238
30
0
40
15
1
CUT CODES: J = JOINT FROM SQUARE  Q = SQUARE (SPRINGING FACE ROUTED WITH THE CONTOUR)  A = APEX FROM SQUARE
72
0
11
1208.131629
21
1527.279238
31
0
73
0
0
POLYLINE
8
FIT
66
1
70
1
10
0
20
0
30
0
0
VERTEX
8
FIT
10
1000
20
1921.779238
30
0
42
0.259126
0
VERTEX
8
FIT
10
929.245283
20
2049.137729
30
0
42
0.285714
0
VERTEX
8
FIT
10
70.754717
20
2049.137729
30
0
42
0.259126
0
VERTEX
8
FIT
10
0
20
1921.779238
30
0
0
VERTEX
8
FIT
10
68
20
1921.779238
30
0
42
-0.259126
0
VERTEX
8
FIT
10
106.679245
20
1991.40188
30
0
42
-0.285714
0
VERTEX
8
FIT
10
893.320755
20
1991.40188
30
0
42
-0.259126
0
VERTEX
8
FIT
10
932
20
1921.779238
30
0
0
SEQEND
8
FIT
0
POLYLINE
8
FIT
66
1
70
1
10
0
20
0
30
0
0
VERTEX
8
FIT
10
949
20
1921.779238
30
0
42
0.259126
0
VERTEX
8
FIT
10
902.301887
20
2005.835842
30
0
42
0.285714
0
VERTEX
8
FIT
10
97.698113
20
2005.835842
30
0
42
0.259126
0
VERTEX
8
FIT
10
51
20
1921.779238
30
0
0
VERTEX
8
FIT
10
118
20
1921.779238
30
0
42
-0.259126
0
VERTEX
8
FIT
10
133.09434
20
1948.94905
30
0
42
-0.285714
0
VERTEX
8
FIT
10
866.90566
20
1948.94905
30
0
42
-0.259126
0
VERTEX
8
FIT
10
882
20
1921.779238
30
0
0
SEQEND
8
FIT
0
POLYLINE
8
FIT
66
1
70
1
10
0
20
0
30
0
0
VERTEX
8
FIT
10
894.5
20
1921.779238
30
0
42
0.259126
0
VERTEX
8
FIT
10
873.509434
20
1959.562257
30
0
42
0.285714
0
VERTEX
8
FIT
10
126.490566
20
1959.562257
30
0
42
0.259126
0
VERTEX
8
FIT
10
105.5
20
1921.779238
30
0
0
SEQEND
8
FIT
0
POLYLINE
8
FIT
66
1
70
0
10
0
20
0
30
0
0
VERTEX
8
FIT
10
953
20
1921.779238
30
0
42
0.048582
0
VERTEX
8
FIT
10
951.064346
20
1941.653796
30
0
0
SEQEND
8
FIT
0
POLYLINE
8
FIT
66
1
70
0
10
0
20
0
30
0
0
VERTEX
8
FIT
10
948.661867
20
1951.356866
30
0
42
0.048582
0
VERTEX
8
FIT
10
941.100532
20
1969.838505
30
0
0
SEQEND
8
FIT
0
POLYLINE
8
FIT
66
1
70
0
10
0
20
0
30
0
0
VERTEX
8
FIT
10
936.012892
20
1978.443004
30
0
42
0.048582
0
VERTEX
8
FIT
10
923.46281
20
1993.974914
30
0
0
SEQEND
8
FIT
0
POLYLINE
8
FIT
66
1
70
0
10
0
20
0
30
0
0
VERTEX
8
FIT
10
916.118571
20
2000.756036
30
0
42
0.035117
0
VERTEX
8
FIT
10
904.415094
20
2009.232069
30
0
0
SEQEND
8
FIT
0
POLYLINE
8
FIT
66
1
70
0
10
0
20
0
30
0
0
VERTEX
8
FIT
10
904.415094
20
2009.232069
30
0
42
0.006532
0
VERTEX
8
FIT
10
887.297874
20
2019.575086
30
0
0
SEQEND
8
FIT
0
POLYLINE
8
FIT
66
1
70
0
10
0
20
0
30
0
0
VERTEX
8
FIT
10
878.639393
20
2024.578014
30
0
42
0.006532
0
VERTEX
8
FIT
10
861.130076
20
2034.242436
30
0
0
SEQEND
8
FIT
0
POLYLINE
8
FIT
66
1
70
0
10
0
20
0
30
0
0
VERTEX
8
FIT
10
852.282228
20
2038.902282
30
0
42
0.006532
0
VERTEX
8
FIT
10
834.407703
20
2047.873269
30
0
0
SEQEND
8
FIT
0
POLYLINE
8
FIT
66
1
70
0
10
0
20
0
30
0
0
VERTEX
8
FIT
10
825.384076
20
2052.182878
30
0
42
0.006532
0
VERTEX
8
FIT
10
807.171791
20
2060.446651
30
0
0
SEQEND
8
FIT
0
POLYLINE
8
FIT
66
1
70
0
10
0
20
0
30
0
0
VERTEX
8
FIT
10
797.986242
20
2064.399405
30
0
42
0.006532
0
VERTEX
8
FIT
10
779.464167
20
2071.943275
30
0
0
SEQEND
8
FIT
0
POLYLINE
8
FIT
66
1
70
0
10
0
20
0
30
0
0
VERTEX
8
FIT
10
770.130802
20
2075.533104
30
0
42
0.006532
0
VERTEX
8
FIT
10
751.327379
20
2082.345486
30
0
0
SEQEND
8
FIT
0
POLYLINE
8
FIT
66
1
70
0
10
0
20
0
30
0
0
VERTEX
8
FIT
10
741.860531
20
2085.566877
30
0
42
0.006532
0
VERTEX
8
FIT
10
722.804637
20
2091.637309
30
0
0
SEQEND
8
FIT
0
POLYLINE
8
FIT
66
1
70
0
10
0
20
0
30
0
0
VERTEX
8
FIT
10
713.218843
20
2094.485315
30
0
42
0.006532
0
VERTEX
8
FIT
10
693.939741
20
2099.804476
30
0
0
SEQEND
8
FIT
0
POLYLINE
8
FIT
66
1
70
0
10
0
20
0
30
0
0
VERTEX
8
FIT
10
684.249722
20
2102.274723
30
0
42
0.006532
0
VERTEX
8
FIT
10
664.777019
20
2106.834443
30
0
0
SEQEND
8
FIT
0
POLYLINE
8
FIT
66
1
70
0
10
0
20
0
30
0
0
VERTEX
8
FIT
10
654.997656
20
2108.923138
30
0
42
0.006532
0
VERTEX
8
FIT
10
635.361254
20
2112.716416
30
0
0
SEQEND
8
FIT
0
POLYLINE
8
FIT
66
1
70
0
10
0
20
0
30
0
0
VERTEX
8
FIT
10
625.507565
20
2114.420352
30
0
42
0.006532
0
VERTEX
8
FIT
10
605.73762
20
2117.441362
30
0
0
SEQEND
8
FIT
0
POLYLINE
8
FIT
66
1
70
0
10
0
20
0
30
0
0
VERTEX
8
FIT
10
595.824737
20
2118.757921
30
0
42
0.006532
0
VERTEX
8
FIT
10
575.951608
20
2121.002025
30
0
0
SEQEND
8
FIT
0
POLYLINE
8
FIT
66
1
70
0
10
0
20
0
30
0
0
VERTEX
8
FIT
10
565.994754
20
2121.929186
30
0
42
0.006532
0
VERTEX
8
FIT
10
546.04896
20
2123.392936
30
0
0
SEQEND
8
FIT
0
POLYLINE
8
FIT
66
1
70
0
10
0
20
0
30
0
0
VERTEX
8
FIT
10
536.063424
20
2123.929276
30
0
42
0.006532
0
VERTEX
8
FIT
10
516.075596
20
2124.610425
30
0
0
SEQEND
8
FIT
0
POLYLINE
8
FIT
66
1
70
0
10
0
20
0
30
0
0
VERTEX
8
FIT
10
506.076714
20
2124.755119
30
0
42
0.006532
0
VERTEX
8
FIT
10
486.077546
20
2124.652621
30
0
0
SEQEND
8
FIT
0
POLYLINE
8
FIT
66
1
70
0
10
0
20
0
30
0
0
VERTEX
8
FIT
10
476.080672
20
2124.405447
30
0
42
0.006532
0
VERTEX
8
FIT
10
456.100875
20
2123.51946
30
0
0
SEQEND
8
FIT
0
POLYLINE
8
FIT
66
1
70
0
10
0
20
0
30
0
0
VERTEX
8
FIT
10
446.121362
20
2122.880798
30
0
42
0.006532
0
VERTEX
8
FIT
10
426.191619
20
2121.212682
30
0
0
SEQEND
8
FIT
0
POLYLINE
8
FIT
66
1
70
0
10
0
20
0
30
0
0
VERTEX
8
FIT
10
416.244791
20
2120.183513
30
0
42
0.006532
0
VERTEX
8
FIT
10
396.395708
20
2117.73583
30
0
0
SEQEND
8
FIT
0
POLYLINE
8
FIT
66
1
70
0
10
0
20
0
30
0
0
VERTEX
8
FIT
10
386.496841
20
2116.317733
30
0
42
0.006532
0
VERTEX
8
FIT
10
366.758899
20
2113.094242
30
0
0
SEQEND
8
FIT
0
POLYLINE
8
FIT
66
1
70
0
10
0
20
0
30
0
0
VERTEX
8
FIT
10
356.923193
20
2111.289396
30
0
42
0.006532
0
VERTEX
8
FIT
10
337.326703
20
2107.295046
30
0
0
SEQEND
8
FIT
0
POLYLINE
8
FIT
66
1
70
0
10
0
20
0
30
0
0
VERTEX
8
FIT
10
327.569263
20
2105.106223
30
0
42
0.006532
0
VERTEX
8
FIT
10
308.144319
20
2100.347149
30
0
0
SEQEND
8
FIT
0
POLYLINE
8
FIT
66
1
70
0
10
0
20
0
30
0
0
VERTEX
8
FIT
10
298.480129
20
2097.77771
30
0
42
0.006532
0
VERTEX
8
FIT
10
279.256561
20
2092.261219
30
0
0
SEQEND
8
FIT
0
POLYLINE
8
FIT
66
1
70
0
10
0
20
0
30
0
0
VERTEX
8
FIT
10
269.700463
20
2089.31511
30
0
42
0.006532
0
VERTEX
8
FIT
10
250.707791
20
2083.049675
30
0
0
SEQEND
8
FIT
0
POLYLINE
8
FIT
66
1
70
0
10
0
20
0
30
0
0
VERTEX
8
FIT
10
241.274459
20
2079.731419
30
0
42
0.006532
0
VERTEX
8
FIT
10
222.541851
20
2072.726661
30
0
0
SEQEND
8
FIT
0
POLYLINE
8
FIT
66
1
70
0
10
0
20
0
30
0
0
VERTEX
8
FIT
10
213.245771
20
2069.041355
30
0
42
0.006532
0
VERTEX
8
FIT
10
194.801993
20
2061.308032
30
0
0
SEQEND
8
FIT
0
POLYLINE
8
FIT
66
1
70
0
10
0
20
0
30
0
0
VERTEX
8
FIT
10
185.657442
20
2057.261334
30
0
42
0.006532
0
VERTEX
8
FIT
10
167.530817
20
2048.811321
30
0
0
SEQEND
8
FIT
0
POLYLINE
8
FIT
66
1
70
0
10
0
20
0
30
0
0
VERTEX
8
FIT
10
158.551837
20
2044.409446
30
0
42
0.006532
0
VERTEX
8
FIT
10
140.770202
20
2035.255719
30
0
0
SEQEND
8
FIT
0
POLYLINE
8
FIT
66
1
70
0
10
0
20
0
30
0
0
VERTEX
8
FIT
10
131.970582
20
2030.505428
30
0
42
0.006532
0
VERTEX
8
FIT
10
114.561245
20
2020.662044
30
0
0
SEQEND
8
FIT
0
POLYLINE
8
FIT
66
1
70
0
10
0
20
0
30
0
0
VERTEX
8
FIT
10
105.954498
20
2015.570631
30
0
42
0.003969
0
VERTEX
8
FIT
10
95.584906
20
2009.232069
30
0
0
SEQEND
8
FIT
0
POLYLINE
8
FIT
66
1
70
0
10
0
20
0
30
0
0
VERTEX
8
FIT
10
95.584906
20
2009.232069
30
0
42
0.048582
0
VERTEX
8
FIT
10
79.732891
20
1997.088822
30
0
0
SEQEND
8
FIT
0
POLYLINE
8
FIT
66
1
70
0
10
0
20
0
30
0
0
VERTEX
8
FIT
10
72.76367
20
1989.922832
30
0
42
0.048582
0
VERTEX
8
FIT
10
61.066379
20
1973.738945
30
0
0
SEQEND
8
FIT
0
POLYLINE
8
FIT
66
1
70
0
10
0
20
0
30
0
0
VERTEX
8
FIT
10
56.448482
20
1964.873478
30
0
42
0.048582
0
VERTEX
8
FIT
10
49.891244
20
1946.012211
30
0
0
SEQEND
8
FIT
0
POLYLINE
8
FIT
66
1
70
0
10
0
20
0
30
0
0
VERTEX
8
FIT
10
48.013663
20
1936.194056
30
0
42
0.035117
0
VERTEX
8
FIT
10
47
20
1921.779238
30
0
0
SEQEND
8
FIT
0
TEXT
8
TEXT
10
1100
20
2106.255119
30
0
40
15
1
C5 - FIT (ASSEMBLY, NOT A TOOLPATH)
72
0
11
1100
21
2106.255119
31
0
73
0
0
TEXT
8
TEXT
10
1100
20
2084.255119
30
0
40
15
1
GAP 4 LAP 17 (REBATE)
72
0
11
1100
21
2084.255119
31
0
73
0
0
TEXT
8
TEXT
10
1100
20
2062.255119
30
0
40
15
1
FRAME R150/812.5/150 / 82/744.5/82  REBATE WALL R103/765.5/103 (LAND 47, DASHED)
72
0
11
1100
21
2062.255119
31
0
73
0
0
TEXT
8
TEXT
10
1100
20
2040.255119
30
0
40
15
1
LEAF R99/761.5/99 / 32/694.5/32  GLASS R44.5/707/44.5
72
0
11
1100
21
2040.255119
31
0
73
0
0
ENDSEC
0
EOF
