0
SECTION
2
HEADER
9
$ACADVER
1
AC1009
0
ENDSEC
0
SECTION
2
TABLES
0
TABLE
2
LAYER
70
6
0
LAYER
2
0
70
0
62
7
6
CONTINUOUS
0
LAYER
2
GLASS_CONTOUR
70
0
62
7
6
CONTINUOUS
0
LAYER
2
GLASS_EDGE
70
0
62
8
6
CONTINUOUS
0
LAYER
2
GLASS_BARS
70
0
62
3
6
CONTINUOUS
0
LAYER
2
GLASS_BAR_AXES
70
0
62
4
6
CONTINUOUS
0
LAYER
2
GLASS_TEXT
70
0
62
2
6
CONTINUOUS
0
ENDTAB
0
ENDSEC
0
SECTION
2
ENTITIES
0
POLYLINE
8
GLASS_CONTOUR
66
1
70
1
10
0
20
0
30
0
0
VERTEX
8
GLASS_CONTOUR
10
0
20
-1304
30
0
0
VERTEX
8
GLASS_CONTOUR
10
811
20
-1304
30
0
0
VERTEX
8
GLASS_CONTOUR
10
811
20
-105.5
30
0
42
0.333333
0
VERTEX
8
GLASS_CONTOUR
10
771.04
20
-52.22
30
0
42
0.142857
0
VERTEX
8
GLASS_CONTOUR
10
39.96
20
-52.22
30
0
42
0.333333
0
VERTEX
8
GLASS_CONTOUR
10
0
20
-105.5
30
0
0
SEQEND
8
GLASS_CONTOUR
0
POLYLINE
8
GLASS_EDGE
66
1
70
1
10
0
20
0
30
0
0
VERTEX
8
GLASS_EDGE
10
11
20
-1293
30
0
0
VERTEX
8
GLASS_EDGE
10
800
20
-1293
30
0
0
VERTEX
8
GLASS_EDGE
10
800
20
-105.5
30
0
42
0.333333
0
VERTEX
8
GLASS_EDGE
10
767.96
20
-62.78
30
0
42
0.142857
0
VERTEX
8
GLASS_EDGE
10
43.04
20
-62.78
30
0
42
0.333333
0
VERTEX
8
GLASS_EDGE
10
11
20
-105.5
30
0
0
SEQEND
8
GLASS_EDGE
0
POLYLINE
8
GLASS_BAR_AXES
66
1
70
0
10
0
20
0
30
0
0
VERTEX
8
GLASS_BAR_AXES
10
0
20
-704.75
30
0
0
VERTEX
8
GLASS_BAR_AXES
10
811
20
-704.75
30
0
0
SEQEND
8
GLASS_BAR_AXES
0
POLYLINE
8
GLASS_BARS
66
1
70
0
10
0
20
0
30
0
0
VERTEX
8
GLASS_BARS
10
0
20
-695.75
30
0
0
VERTEX
8
GLASS_BARS
10
811
20
-695.75
30
0
0
SEQEND
8
GLASS_BARS
0
POLYLINE
8
GLASS_BARS
66
1
70
0
10
0
20
0
30
0
0
VERTEX
8
GLASS_BARS
10
0
20
-713.75
30
0
0
VERTEX
8
GLASS_BARS
10
811
20
-713.75
30
0
0
SEQEND
8
GLASS_BARS
0
POLYLINE
8
GLASS_BAR_AXES
66
1
70
0
10
0
20
0
30
0
0
VERTEX
8
GLASS_BAR_AXES
10
270.333333
20
-1304
30
0
0
VERTEX
8
GLASS_BAR_AXES
10
270.333333
20
-7.016183
30
0
0
SEQEND
8
GLASS_BAR_AXES
0
POLYLINE
8
GLASS_BARS
66
1
70
0
10
0
20
0
30
0
0
VERTEX
8
GLASS_BARS
10
261.333333
20
-1304
30
0
0
VERTEX
8
GLASS_BARS
10
261.333333
20
-7.016183
30
0
0
SEQEND
8
GLASS_BARS
0
POLYLINE
8
GLASS_BARS
66
1
70
0
10
0
20
0
30
0
0
VERTEX
8
GLASS_BARS
10
279.333333
20
-1304
30
0
0
VERTEX
8
GLASS_BARS
10
279.333333
20
-7.016183
30
0
0
SEQEND
8
GLASS_BARS
0
POLYLINE
8
GLASS_BAR_AXES
66
1
70
0
10
0
20
0
30
0
0
VERTEX
8
GLASS_BAR_AXES
10
540.666667
20
-1304
30
0
0
VERTEX
8
GLASS_BAR_AXES
10
540.666667
20
-7.016183
30
0
0
SEQEND
8
GLASS_BAR_AXES
0
POLYLINE
8
GLASS_BARS
66
1
70
0
10
0
20
0
30
0
0
VERTEX
8
GLASS_BARS
10
531.666667
20
-1304
30
0
0
VERTEX
8
GLASS_BARS
10
531.666667
20
-7.016183
30
0
0
SEQEND
8
GLASS_BARS
0
POLYLINE
8
GLASS_BARS
66
1
70
0
10
0
20
0
30
0
0
VERTEX
8
GLASS_BARS
10
549.666667
20
-1304
30
0
0
VERTEX
8
GLASS_BARS
10
549.666667
20
-7.016183
30
0
0
SEQEND
8
GLASS_BARS
0
TEXT
8
GLASS_TEXT
10
911
20
-18.5
30
0
40
15
1
TC1 - G1 GLASS THREE-CENTRE
72
0
11
911
21
-18.5
31
0
73
0
0
TEXT
8
GLASS_TEXT
10
911
20
-40.5
30
0
40
15
1
W811 x H1304 RISE 105.5 SPRINGING 1198.5 R 55.5/1305.5/55.5
72
0
11
911
21
-40.5
31
0
73
0
0
TEXT
8
GLASS_TEXT
10
911
20
-62.5
30
0
40
15
1
DOUBLE 4X16X4 TOUGHENED ARGON CLEAR SPACER SILVER
72
0
11
911
21
-62.5
31
0
73
0
0
TEXT
8
GLASS_TEXT
10
911
20
-84.5
30
0
40
15
1
BARS 3 TOTAL L=3405
72
0
11
911
21
-84.5
31
0
73
0
0
TEXT
8
GLASS_TEXT
10
911
20
-106.5
30
0
40
15
1
H1 H Y=599.3 X=0-811 L=811
72
0
11
911
21
-106.5
31
0
73
0
0
TEXT
8
GLASS_TEXT
10
911
20
-128.5
30
0
40
15
1
V1 V X=270.3 Y=0-1297 L=1297
72
0
11
911
21
-128.5
31
0
73
0
0
TEXT
8
GLASS_TEXT
10
911
20
-150.5
30
0
40
15
1
V2 V X=540.7 Y=0-1297 L=1297
72
0
11
911
21
-150.5
31
0
73
0
0
TEXT
8
GLASS_TEXT
10
911
20
-172.5
30
0
40
15
1
BAR ENDS: ID  S FROM APEX / POSITION  L  ANGLE / R
72
0
11
911
21
-172.5
31
0
73
0
0
TEXT
8
GLASS_TEXT
10
911
20
-194.5
30
0
40
15
1
H1  Y 599.3  L=811  0DEG
72
0
11
911
21
-194.5
31
0
73
0
0
TEXT
8
GLASS_TEXT
10
911
20
-216.5
30
0
40
15
1
V1  135.4 FROM APEX L  L=1297  90DEG
72
0
11
911
21
-216.5
31
0
73
0
0
TEXT
8
GLASS_TEXT
10
911
20
-238.5
30
0
40
15
1
V2  135.4 FROM APEX R  L=1297  90DEG
72
0
11
911
21
-238.5
31
0
73
0
0
POLYLINE
8
GLASS_CONTOUR
66
1
70
1
10
0
20
0
30
0
0
VERTEX
8
GLASS_CONTOUR
10
0
20
-2908
30
0
0
VERTEX
8
GLASS_CONTOUR
10
811
20
-2908
30
0
0
VERTEX
8
GLASS_CONTOUR
10
811
20
-2009.5
30
0
42
1
0
VERTEX
8
GLASS_CONTOUR
10
0
20
-2009.5
30
0
0
SEQEND
8
GLASS_CONTOUR
0
POLYLINE
8
GLASS_EDGE
66
1
70
1
10
0
20
0
30
0
0
VERTEX
8
GLASS_EDGE
10
11
20
-2897
30
0
0
VERTEX
8
GLASS_EDGE
10
800
20
-2897
30
0
0
VERTEX
8
GLASS_EDGE
10
800
20
-2009.5
30
0
42
1
0
VERTEX
8
GLASS_EDGE
10
11
20
-2009.5
30
0
0
SEQEND
8
GLASS_EDGE
0
POLYLINE
8
GLASS_BAR_AXES
66
1
70
0
10
0
20
0
30
0
0
VERTEX
8
GLASS_BAR_AXES
10
527.15
20
-2009.5
30
0
42
1
0
VERTEX
8
GLASS_BAR_AXES
10
283.85
20
-2009.5
30
0
0
SEQEND
8
GLASS_BAR_AXES
0
POLYLINE
8
GLASS_BARS
66
1
70
0
10
0
20
0
30
0
0
VERTEX
8
GLASS_BARS
10
536.15
20
-2009.5
30
0
42
1
0
VERTEX
8
GLASS_BARS
10
274.85
20
-2009.5
30
0
0
SEQEND
8
GLASS_BARS
0
POLYLINE
8
GLASS_BARS
66
1
70
0
10
0
20
0
30
0
0
VERTEX
8
GLASS_BARS
10
518.15
20
-2009.5
30
0
42
1
0
VERTEX
8
GLASS_BARS
10
292.85
20
-2009.5
30
0
0
SEQEND
8
GLASS_BARS
0
POLYLINE
8
GLASS_BAR_AXES
66
1
70
0
10
0
20
0
30
0
0
VERTEX
8
GLASS_BAR_AXES
10
527.15
20
-2009.5
30
0
0
VERTEX
8
GLASS_BAR_AXES
10
811
20
-2009.5
30
0
0
SEQEND
8
GLASS_BAR_AXES
0
POLYLINE
8
GLASS_BARS
66
1
70
0
10
0
20
0
30
0
0
VERTEX
8
GLASS_BARS
10
527.15
20
-2000.5
30
0
0
VERTEX
8
GLASS_BARS
10
811
20
-2000.5
30
0
0
SEQEND
8
GLASS_BARS
0
POLYLINE
8
GLASS_BARS
66
1
70
0
10
0
20
0
30
0
0
VERTEX
8
GLASS_BARS
10
527.15
20
-2018.5
30
0
0
VERTEX
8
GLASS_BARS
10
811
20
-2018.5
30
0
0
SEQEND
8
GLASS_BARS
0
POLYLINE
8
GLASS_BAR_AXES
66
1
70
0
10
0
20
0
30
0
0
VERTEX
8
GLASS_BAR_AXES
10
466.325
20
-1904.14801
30
0
0
VERTEX
8
GLASS_BAR_AXES
10
608.25
20
-1658.326699
30
0
0
SEQEND
8
GLASS_BAR_AXES
0
POLYLINE
8
GLASS_BARS
66
1
70
0
10
0
20
0
30
0
0
VERTEX
8
GLASS_BARS
10
458.530771
20
-1899.64801
30
0
0
VERTEX
8
GLASS_BARS
10
600.455771
20
-1653.826699
30
0
0
SEQEND
8
GLASS_BARS
0
POLYLINE
8
GLASS_BARS
66
1
70
0
10
0
20
0
30
0
0
VERTEX
8
GLASS_BARS
10
474.119229
20
-1908.64801
30
0
0
VERTEX
8
GLASS_BARS
10
616.044229
20
-1662.826699
30
0
0
SEQEND
8
GLASS_BARS
0
POLYLINE
8
GLASS_BAR_AXES
66
1
70
0
10
0
20
0
30
0
0
VERTEX
8
GLASS_BAR_AXES
10
344.675
20
-1904.14801
30
0
0
VERTEX
8
GLASS_BAR_AXES
10
202.75
20
-1658.326699
30
0
0
SEQEND
8
GLASS_BAR_AXES
0
POLYLINE
8
GLASS_BARS
66
1
70
0
10
0
20
0
30
0
0
VERTEX
8
GLASS_BARS
10
336.880771
20
-1908.64801
30
0
0
VERTEX
8
GLASS_BARS
10
194.955771
20
-1662.826699
30
0
0
SEQEND
8
GLASS_BARS
0
POLYLINE
8
GLASS_BARS
66
1
70
0
10
0
20
0
30
0
0
VERTEX
8
GLASS_BARS
10
352.469229
20
-1899.64801
30
0
0
VERTEX
8
GLASS_BARS
10
210.544229
20
-1653.826699
30
0
0
SEQEND
8
GLASS_BARS
0
POLYLINE
8
GLASS_BAR_AXES
66
1
70
0
10
0
20
0
30
0
0
VERTEX
8
GLASS_BAR_AXES
10
283.85
20
-2009.5
30
0
0
VERTEX
8
GLASS_BAR_AXES
10
0
20
-2009.5
30
0
0
SEQEND
8
GLASS_BAR_AXES
0
POLYLINE
8
GLASS_BARS
66
1
70
0
10
0
20
0
30
0
0
VERTEX
8
GLASS_BARS
10
283.85
20
-2018.5
30
0
0
VERTEX
8
GLASS_BARS
10
0
20
-2018.5
30
0
0
SEQEND
8
GLASS_BARS
0
POLYLINE
8
GLASS_BARS
66
1
70
0
10
0
20
0
30
0
0
VERTEX
8
GLASS_BARS
10
283.85
20
-2000.5
30
0
0
VERTEX
8
GLASS_BARS
10
0
20
-2000.5
30
0
0
SEQEND
8
GLASS_BARS
0
POLYLINE
8
GLASS_BAR_AXES
66
1
70
0
10
0
20
0
30
0
0
VERTEX
8
GLASS_BAR_AXES
10
283.85
20
-2908
30
0
0
VERTEX
8
GLASS_BAR_AXES
10
283.85
20
-2009.5
30
0
0
SEQEND
8
GLASS_BAR_AXES
0
POLYLINE
8
GLASS_BARS
66
1
70
0
10
0
20
0
30
0
0
VERTEX
8
GLASS_BARS
10
274.85
20
-2908
30
0
0
VERTEX
8
GLASS_BARS
10
274.85
20
-2009.5
30
0
0
SEQEND
8
GLASS_BARS
0
POLYLINE
8
GLASS_BARS
66
1
70
0
10
0
20
0
30
0
0
VERTEX
8
GLASS_BARS
10
292.85
20
-2908
30
0
0
VERTEX
8
GLASS_BARS
10
292.85
20
-2009.5
30
0
0
SEQEND
8
GLASS_BARS
0
POLYLINE
8
GLASS_BAR_AXES
66
1
70
0
10
0
20
0
30
0
0
VERTEX
8
GLASS_BAR_AXES
10
527.15
20
-2908
30
0
0
VERTEX
8
GLASS_BAR_AXES
10
527.15
20
-2009.5
30
0
0
SEQEND
8
GLASS_BAR_AXES
0
POLYLINE
8
GLASS_BARS
66
1
70
0
10
0
20
0
30
0
0
VERTEX
8
GLASS_BARS
10
518.15
20
-2908
30
0
0
VERTEX
8
GLASS_BARS
10
518.15
20
-2009.5
30
0
0
SEQEND
8
GLASS_BARS
0
POLYLINE
8
GLASS_BARS
66
1
70
0
10
0
20
0
30
0
0
VERTEX
8
GLASS_BARS
10
536.15
20
-2908
30
0
0
VERTEX
8
GLASS_BARS
10
536.15
20
-2009.5
30
0
0
SEQEND
8
GLASS_BARS
0
TEXT
8
GLASS_TEXT
10
911
20
-1622.5
30
0
40
15
1
SC1 - G1 GLASS SEMI-CIRCLE
72
0
11
911
21
-1622.5
31
0
73
0
0
TEXT
8
GLASS_TEXT
10
911
20
-1644.5
30
0
40
15
1
W811 x H1304 RISE 405.5 SPRINGING 898.5 R 405.5
72
0
11
911
21
-1644.5
31
0
73
0
0
TEXT
8
GLASS_TEXT
10
911
20
-1666.5
30
0
40
15
1
DOUBLE 4X16X4 TOUGHENED ARGON CLEAR SPACER SILVER
72
0
11
911
21
-1666.5
31
0
73
0
0
TEXT
8
GLASS_TEXT
10
911
20
-1688.5
30
0
40
15
1
BARS 7 PATTERN HUB-SPOKE TOTAL L=3315
72
0
11
911
21
-1688.5
31
0
73
0
0
TEXT
8
GLASS_TEXT
10
911
20
-1710.5
30
0
40
15
1
R1 RING C=(405.5,898.5) R=121.7 0-180DEG L=382
72
0
11
911
21
-1710.5
31
0
73
0
0
TEXT
8
GLASS_TEXT
10
911
20
-1732.5
30
0
40
15
1
S1 SPRINGING Y=898.5 X=527.2-811 L=284
72
0
11
911
21
-1732.5
31
0
73
0
0
TEXT
8
GLASS_TEXT
10
911
20
-1754.5
30
0
40
15
1
K1 SPOKE (466.3,1003.9)-(608.3,1249.7) L=284
72
0
11
911
21
-1754.5
31
0
73
0
0
TEXT
8
GLASS_TEXT
10
911
20
-1776.5
30
0
40
15
1
K2 SPOKE (344.7,1003.9)-(202.8,1249.7) L=284
72
0
11
911
21
-1776.5
31
0
73
0
0
TEXT
8
GLASS_TEXT
10
911
20
-1798.5
30
0
40
15
1
S2 SPRINGING Y=898.5 X=0-283.9 L=284
72
0
11
911
21
-1798.5
31
0
73
0
0
TEXT
8
GLASS_TEXT
10
911
20
-1820.5
30
0
40
15
1
V1 V X=283.9 Y=0-898.5 L=898.5
72
0
11
911
21
-1820.5
31
0
73
0
0
TEXT
8
GLASS_TEXT
10
911
20
-1842.5
30
0
40
15
1
V2 V X=527.2 Y=0-898.5 L=898.5
72
0
11
911
21
-1842.5
31
0
73
0
0
TEXT
8
GLASS_TEXT
10
911
20
-1864.5
30
0
40
15
1
BAR ENDS (TABLE, 7 BARS): ID  S FROM APEX / POSITION  L  ANGLE / R
72
0
11
911
21
-1864.5
31
0
73
0
0
TEXT
8
GLASS_TEXT
10
911
20
-1886.5
30
0
40
15
1
R1  R 121.7  L=382  C 405.5 / 898.5
72
0
11
911
21
-1886.5
31
0
73
0
0
TEXT
8
GLASS_TEXT
10
911
20
-1908.5
30
0
40
15
1
S1  Y 898.5  L=284  0DEG
72
0
11
911
21
-1908.5
31
0
73
0
0
TEXT
8
GLASS_TEXT
10
911
20
-1930.5
30
0
40
15
1
K1  212.3 FROM APEX R  L=284  60DEG
72
0
11
911
21
-1930.5
31
0
73
0
0
TEXT
8
GLASS_TEXT
10
911
20
-1952.5
30
0
40
15
1
K2  212.3 FROM APEX L  L=284  120DEG
72
0
11
911
21
-1952.5
31
0
73
0
0
TEXT
8
GLASS_TEXT
10
911
20
-1974.5
30
0
40
15
1
S2  Y 898.5  L=284  0DEG
72
0
11
911
21
-1974.5
31
0
73
0
0
TEXT
8
GLASS_TEXT
10
911
20
-1996.5
30
0
40
15
1
V1  X 283.9  L=898.5  90DEG
72
0
11
911
21
-1996.5
31
0
73
0
0
TEXT
8
GLASS_TEXT
10
911
20
-2018.5
30
0
40
15
1
V2  X 527.2  L=898.5  90DEG
72
0
11
911
21
-2018.5
31
0
73
0
0
POLYLINE
8
GLASS_CONTOUR
66
1
70
1
10
0
20
0
30
0
0
VERTEX
8
GLASS_CONTOUR
10
0
20
-4795.411845
30
0
0
VERTEX
8
GLASS_CONTOUR
10
811
20
-4795.411845
30
0
0
VERTEX
8
GLASS_CONTOUR
10
811
20
-3962.937249
30
0
42
0.251569
0
VERTEX
8
GLASS_CONTOUR
10
405.5
20
-3208
30
0
42
0.251569
0
VERTEX
8
GLASS_CONTOUR
10
0
20
-3962.937249
30
0
0
SEQEND
8
GLASS_CONTOUR
0
POLYLINE
8
GLASS_EDGE
66
1
70
1
10
0
20
0
30
0
0
VERTEX
8
GLASS_EDGE
10
11
20
-4784.411845
30
0
0
VERTEX
8
GLASS_EDGE
10
800
20
-4784.411845
30
0
0
VERTEX
8
GLASS_EDGE
10
800
20
-3962.937249
30
0
42
0.249399
0
VERTEX
8
GLASS_EDGE
10
405.5
20
-3221.229591
30
0
42
0.249399
0
VERTEX
8
GLASS_EDGE
10
11
20
-3962.937249
30
0
0
SEQEND
8
GLASS_EDGE
0
POLYLINE
8
GLASS_BAR_AXES
66
1
70
0
10
0
20
0
30
0
0
VERTEX
8
GLASS_BAR_AXES
10
0
20
-4379.174547
30
0
0
VERTEX
8
GLASS_BAR_AXES
10
811
20
-4379.174547
30
0
0
SEQEND
8
GLASS_BAR_AXES
0
POLYLINE
8
GLASS_BARS
66
1
70
0
10
0
20
0
30
0
0
VERTEX
8
GLASS_BARS
10
0
20
-4370.174547
30
0
0
VERTEX
8
GLASS_BARS
10
811
20
-4370.174547
30
0
0
SEQEND
8
GLASS_BARS
0
POLYLINE
8
GLASS_BARS
66
1
70
0
10
0
20
0
30
0
0
VERTEX
8
GLASS_BARS
10
0
20
-4388.174547
30
0
0
VERTEX
8
GLASS_BARS
10
811
20
-4388.174547
30
0
0
SEQEND
8
GLASS_BARS
0
POLYLINE
8
GLASS_BAR_AXES
66
1
70
0
10
0
20
0
30
0
0
VERTEX
8
GLASS_BAR_AXES
10
202.75
20
-4795.411845
30
0
0
VERTEX
8
GLASS_BAR_AXES
10
202.75
20
-3962.937249
30
0
0
SEQEND
8
GLASS_BAR_AXES
0
POLYLINE
8
GLASS_BARS
66
1
70
0
10
0
20
0
30
0
0
VERTEX
8
GLASS_BARS
10
193.75
20
-4795.411845
30
0
0
VERTEX
8
GLASS_BARS
10
193.75
20
-3962.937249
30
0
0
SEQEND
8
GLASS_BARS
0
POLYLINE
8
GLASS_BARS
66
1
70
0
10
0
20
0
30
0
0
VERTEX
8
GLASS_BARS
10
211.75
20
-4795.411845
30
0
0
VERTEX
8
GLASS_BARS
10
211.75
20
-3962.937249
30
0
0
SEQEND
8
GLASS_BARS
0
POLYLINE
8
GLASS_BAR_AXES
66
1
70
0
10
0
20
0
30
0
0
VERTEX
8
GLASS_BAR_AXES
10
202.75
20
-3962.937249
30
0
42
0.120001
0
VERTEX
8
GLASS_BAR_AXES
10
101.375
20
-3546.628188
30
0
0
SEQEND
8
GLASS_BAR_AXES
0
POLYLINE
8
GLASS_BARS
66
1
70
0
10
0
20
0
30
0
0
VERTEX
8
GLASS_BARS
10
211.75
20
-3962.937249
30
0
42
0.120001
0
VERTEX
8
GLASS_BARS
10
109.367408
20
-3542.490384
30
0
0
SEQEND
8
GLASS_BARS
0
POLYLINE
8
GLASS_BARS
66
1
70
0
10
0
20
0
30
0
0
VERTEX
8
GLASS_BARS
10
193.75
20
-3962.937249
30
0
42
0.120001
0
VERTEX
8
GLASS_BARS
10
93.382592
20
-3550.765992
30
0
0
SEQEND
8
GLASS_BARS
0
POLYLINE
8
GLASS_BAR_AXES
66
1
70
0
10
0
20
0
30
0
0
VERTEX
8
GLASS_BAR_AXES
10
506.875
20
-3285.974651
30
0
42
0.214308
0
VERTEX
8
GLASS_BAR_AXES
10
202.75
20
-3962.937249
30
0
0
SEQEND
8
GLASS_BAR_AXES
0
POLYLINE
8
GLASS_BARS
66
1
70
0
10
0
20
0
30
0
0
VERTEX
8
GLASS_BARS
10
500.897777
20
-3279.246144
30
0
42
0.214308
0
VERTEX
8
GLASS_BARS
10
193.75
20
-3962.937249
30
0
0
SEQEND
8
GLASS_BARS
0
POLYLINE
8
GLASS_BARS
66
1
70
0
10
0
20
0
30
0
0
VERTEX
8
GLASS_BARS
10
512.852223
20
-3292.703158
30
0
42
0.214308
0
VERTEX
8
GLASS_BARS
10
211.75
20
-3962.937249
30
0
0
SEQEND
8
GLASS_BARS
0
POLYLINE
8
GLASS_BAR_AXES
66
1
70
0
10
0
20
0
30
0
0
VERTEX
8
GLASS_BAR_AXES
10
608.25
20
-4795.411845
30
0
0
VERTEX
8
GLASS_BAR_AXES
10
608.25
20
-3962.937249
30
0
0
SEQEND
8
GLASS_BAR_AXES
0
POLYLINE
8
GLASS_BARS
66
1
70
0
10
0
20
0
30
0
0
VERTEX
8
GLASS_BARS
10
599.25
20
-4795.411845
30
0
0
VERTEX
8
GLASS_BARS
10
599.25
20
-3962.937249
30
0
0
SEQEND
8
GLASS_BARS
0
POLYLINE
8
GLASS_BARS
66
1
70
0
10
0
20
0
30
0
0
VERTEX
8
GLASS_BARS
10
617.25
20
-4795.411845
30
0
0
VERTEX
8
GLASS_BARS
10
617.25
20
-3962.937249
30
0
0
SEQEND
8
GLASS_BARS
0
POLYLINE
8
GLASS_BAR_AXES
66
1
70
0
10
0
20
0
30
0
0
VERTEX
8
GLASS_BAR_AXES
10
608.25
20
-3962.937249
30
0
42
0.214308
0
VERTEX
8
GLASS_BAR_AXES
10
304.125
20
-3285.974651
30
0
0
SEQEND
8
GLASS_BAR_AXES
0
POLYLINE
8
GLASS_BARS
66
1
70
0
10
0
20
0
30
0
0
VERTEX
8
GLASS_BARS
10
617.25
20
-3962.937249
30
0
42
0.214308
0
VERTEX
8
GLASS_BARS
10
310.102223
20
-3279.246144
30
0
0
SEQEND
8
GLASS_BARS
0
POLYLINE
8
GLASS_BARS
66
1
70
0
10
0
20
0
30
0
0
VERTEX
8
GLASS_BARS
10
599.25
20
-3962.937249
30
0
42
0.214308
0
VERTEX
8
GLASS_BARS
10
298.147777
20
-3292.703158
30
0
0
SEQEND
8
GLASS_BARS
0
POLYLINE
8
GLASS_BAR_AXES
66
1
70
0
10
0
20
0
30
0
0
VERTEX
8
GLASS_BAR_AXES
10
709.625
20
-3546.628188
30
0
42
0.120001
0
VERTEX
8
GLASS_BAR_AXES
10
608.25
20
-3962.937249
30
0
0
SEQEND
8
GLASS_BAR_AXES
0
POLYLINE
8
GLASS_BARS
66
1
70
0
10
0
20
0
30
0
0
VERTEX
8
GLASS_BARS
10
701.632592
20
-3542.490384
30
0
42
0.120001
0
VERTEX
8
GLASS_BARS
10
599.25
20
-3962.937249
30
0
0
SEQEND
8
GLASS_BARS
0
POLYLINE
8
GLASS_BARS
66
1
70
0
10
0
20
0
30
0
0
VERTEX
8
GLASS_BARS
10
717.617408
20
-3550.765992
30
0
42
0.120001
0
VERTEX
8
GLASS_BARS
10
617.25
20
-3962.937249
30
0
0
SEQEND
8
GLASS_BARS
0
TEXT
8
GLASS_TEXT
10
911
20
-3226.5
30
0
40
15
1
GO1 - G1 GLASS GOTHIC-EQUILATERAL
72
0
11
911
21
-3226.5
31
0
73
0
0
TEXT
8
GLASS_TEXT
10
911
20
-3248.5
30
0
40
15
1
W811 x H1587.4 RISE 754.9 SPRINGING 832.5 R 905.5/905.5
72
0
11
911
21
-3248.5
31
0
73
0
0
TEXT
8
GLASS_TEXT
10
911
20
-3270.5
30
0
40
15
1
DOUBLE 4X16X4 TOUGHENED ARGON CLEAR SPACER SILVER
72
0
11
911
21
-3270.5
31
0
73
0
0
TEXT
8
GLASS_TEXT
10
911
20
-3292.5
30
0
40
15
1
BARS 7 PATTERN INTERSECTING TOTAL L=4870
72
0
11
911
21
-3292.5
31
0
73
0
0
TEXT
8
GLASS_TEXT
10
911
20
-3314.5
30
0
40
15
1
H1 H Y=416.2 X=0-811 L=811
72
0
11
911
21
-3314.5
31
0
73
0
0
TEXT
8
GLASS_TEXT
10
911
20
-3336.5
30
0
40
15
1
V1 V X=202.8 Y=0-832.5 L=832.5
72
0
11
911
21
-3336.5
31
0
73
0
0
TEXT
8
GLASS_TEXT
10
911
20
-3358.5
30
0
40
15
1
T1 TRACERY C=(-702.7,832.5) R=905.5 0-27.4DEG L=432.5
72
0
11
911
21
-3358.5
31
0
73
0
0
TEXT
8
GLASS_TEXT
10
911
20
-3380.5
30
0
40
15
1
T2 TRACERY C=(1108.3,832.5) R=905.5 131.6-180DEG L=764.5
72
0
11
911
21
-3380.5
31
0
73
0
0
TEXT
8
GLASS_TEXT
10
911
20
-3402.5
30
0
40
15
1
V2 V X=608.3 Y=0-832.5 L=832.5
72
0
11
911
21
-3402.5
31
0
73
0
0
TEXT
8
GLASS_TEXT
10
911
20
-3424.5
30
0
40
15
1
T3 TRACERY C=(-297.2,832.5) R=905.5 0-48.4DEG L=764.5
72
0
11
911
21
-3424.5
31
0
73
0
0
TEXT
8
GLASS_TEXT
10
911
20
-3446.5
30
0
40
15
1
T4 TRACERY C=(1513.8,832.5) R=905.5 152.6-180DEG L=432.5
72
0
11
911
21
-3446.5
31
0
73
0
0
TEXT
8
GLASS_TEXT
10
911
20
-3468.5
30
0
40
15
1
BAR ENDS (TABLE, 7 BARS): ID  S FROM APEX / POSITION  L  ANGLE / R
72
0
11
911
21
-3468.5
31
0
73
0
0
TEXT
8
GLASS_TEXT
10
911
20
-3490.5
30
0
40
15
1
H1  Y 416.2  L=811  0DEG
72
0
11
911
21
-3490.5
31
0
73
0
0
TEXT
8
GLASS_TEXT
10
911
20
-3512.5
30
0
40
15
1
V1  X 202.8  L=832.5  90DEG
72
0
11
911
21
-3512.5
31
0
73
0
0
TEXT
8
GLASS_TEXT
10
911
20
-3534.5
30
0
40
15
1
T1  460.1 FROM APEX L  L=432.5  R 905.5
72
0
11
911
21
-3534.5
31
0
73
0
0
TEXT
8
GLASS_TEXT
10
911
20
-3556.5
30
0
40
15
1
T2  128 FROM APEX R  L=764.5  R 905.5
72
0
11
911
21
-3556.5
31
0
73
0
0
TEXT
8
GLASS_TEXT
10
911
20
-3578.5
30
0
40
15
1
V2  X 608.3  L=832.5  90DEG
72
0
11
911
21
-3578.5
31
0
73
0
0
TEXT
8
GLASS_TEXT
10
911
20
-3600.5
30
0
40
15
1
T3  128 FROM APEX L  L=764.5  R 905.5
72
0
11
911
21
-3600.5
31
0
73
0
0
TEXT
8
GLASS_TEXT
10
911
20
-3622.5
30
0
40
15
1
T4  460.1 FROM APEX R  L=432.5  R 905.5
72
0
11
911
21
-3622.5
31
0
73
0
0
ENDSEC
0
EOF
