0
SECTION
2
HEADER
9
$ACADVER
1
AC1009
0
ENDSEC
0
SECTION
2
TABLES
0
TABLE
2
LAYER
70
8
0
LAYER
2
0
70
0
62
7
6
CONTINUOUS
0
LAYER
2
FIT
70
0
62
4
6
CONTINUOUS
0
LAYER
2
CONTOUR
70
0
62
7
6
CONTINUOUS
0
LAYER
2
ASSEMBLY
70
0
62
8
6
CONTINUOUS
0
LAYER
2
PIECES
70
0
62
5
6
CONTINUOUS
0
LAYER
2
FINGER
70
0
62
1
6
CONTINUOUS
0
LAYER
2
CLAMPS
70
0
62
3
6
CONTINUOUS
0
LAYER
2
TEXT
70
0
62
94
6
CONTINUOUS
0
ENDTAB
0
ENDSEC
0
SECTION
2
ENTITIES
0
POLYLINE
8
PIECES
66
1
70
1
10
0
20
0
30
0
0
VERTEX
8
PIECES
10
591.834277
20
0
30
0
0
VERTEX
8
PIECES
10
62.132034
20
0
30
0
0
VERTEX
8
PIECES
10
0
20
150
30
0
0
VERTEX
8
PIECES
10
591.834277
20
150
30
0
0
SEQEND
8
PIECES
0
POLYLINE
8
CLAMPS
66
1
70
1
10
0
20
0
30
0
0
VERTEX
8
CLAMPS
10
92.989899
20
10
30
0
0
VERTEX
8
CLAMPS
10
222.989899
20
10
30
0
0
VERTEX
8
CLAMPS
10
222.989899
20
140
30
0
0
VERTEX
8
CLAMPS
10
92.989899
20
140
30
0
0
SEQEND
8
CLAMPS
0
POLYLINE
8
CLAMPS
66
1
70
1
10
0
20
0
30
0
0
VERTEX
8
CLAMPS
10
441.834277
20
10
30
0
0
VERTEX
8
CLAMPS
10
571.834277
20
10
30
0
0
VERTEX
8
CLAMPS
10
571.834277
20
140
30
0
0
VERTEX
8
CLAMPS
10
441.834277
20
140
30
0
0
SEQEND
8
CLAMPS
0
TEXT
8
TEXT
10
295.917139
20
85
30
0
40
15
1
C5 - LEAF TOP P1 L591.8 x150
72
1
11
295.917139
21
85
31
0
73
2
0
TEXT
8
TEXT
10
295.917139
20
10
30
0
40
10
1
OUT 576.8 IN 514.7 CUT J22.5/Q FINGER ONE END
72
1
11
295.917139
21
10
31
0
73
2
0
POLYLINE
8
PIECES
66
1
70
1
10
0
20
0
30
0
0
VERTEX
8
PIECES
10
1362.306655
20
0
30
0
0
VERTEX
8
PIECES
10
853.966312
20
0
30
0
0
VERTEX
8
PIECES
10
791.834277
20
150
30
0
0
VERTEX
8
PIECES
10
1424.438689
20
150
30
0
0
SEQEND
8
PIECES
0
POLYLINE
8
CLAMPS
66
1
70
1
10
0
20
0
30
0
0
VERTEX
8
CLAMPS
10
884.824176
20
10
30
0
0
VERTEX
8
CLAMPS
10
1014.824176
20
10
30
0
0
VERTEX
8
CLAMPS
10
1014.824176
20
140
30
0
0
VERTEX
8
CLAMPS
10
884.824176
20
140
30
0
0
SEQEND
8
CLAMPS
0
POLYLINE
8
CLAMPS
66
1
70
1
10
0
20
0
30
0
0
VERTEX
8
CLAMPS
10
1201.44879
20
10
30
0
0
VERTEX
8
CLAMPS
10
1331.44879
20
10
30
0
0
VERTEX
8
CLAMPS
10
1331.44879
20
140
30
0
0
VERTEX
8
CLAMPS
10
1201.44879
20
140
30
0
0
SEQEND
8
CLAMPS
0
TEXT
8
TEXT
10
1108.136483
20
85
30
0
40
15
1
C5 - LEAF TOP P2 L632.6 x150
72
1
11
1108.136483
21
85
31
0
73
2
0
TEXT
8
TEXT
10
1108.136483
20
10
30
0
40
10
1
OUT 602.6 IN 478.3 CUT J22.5/J22.5 FINGER BOTH ENDS
72
1
11
1108.136483
21
10
31
0
73
2
0
POLYLINE
8
PIECES
66
1
70
1
10
0
20
0
30
0
0
VERTEX
8
PIECES
10
2194.911067
20
0
30
0
0
VERTEX
8
PIECES
10
1686.570724
20
0
30
0
0
VERTEX
8
PIECES
10
1624.438689
20
150
30
0
0
VERTEX
8
PIECES
10
2257.043101
20
150
30
0
0
SEQEND
8
PIECES
0
POLYLINE
8
CLAMPS
66
1
70
1
10
0
20
0
30
0
0
VERTEX
8
CLAMPS
10
1717.428588
20
10
30
0
0
VERTEX
8
CLAMPS
10
1847.428588
20
10
30
0
0
VERTEX
8
CLAMPS
10
1847.428588
20
140
30
0
0
VERTEX
8
CLAMPS
10
1717.428588
20
140
30
0
0
SEQEND
8
CLAMPS
0
POLYLINE
8
CLAMPS
66
1
70
1
10
0
20
0
30
0
0
VERTEX
8
CLAMPS
10
2034.053202
20
10
30
0
0
VERTEX
8
CLAMPS
10
2164.053202
20
10
30
0
0
VERTEX
8
CLAMPS
10
2164.053202
20
140
30
0
0
VERTEX
8
CLAMPS
10
2034.053202
20
140
30
0
0
SEQEND
8
CLAMPS
0
TEXT
8
TEXT
10
1940.740895
20
85
30
0
40
15
1
C5 - LEAF TOP P3 L632.6 x150
72
1
11
1940.740895
21
85
31
0
73
2
0
TEXT
8
TEXT
10
1940.740895
20
10
30
0
40
10
1
OUT 602.6 IN 478.3 CUT J22.5/J22.5 FINGER BOTH ENDS
72
1
11
1940.740895
21
10
31
0
73
2
0
POLYLINE
8
PIECES
66
1
70
1
10
0
20
0
30
0
0
VERTEX
8
PIECES
10
2986.745344
20
0
30
0
0
VERTEX
8
PIECES
10
2457.043101
20
0
30
0
0
VERTEX
8
PIECES
10
2457.043101
20
150
30
0
0
VERTEX
8
PIECES
10
3048.877378
20
150
30
0
0
SEQEND
8
PIECES
0
POLYLINE
8
CLAMPS
66
1
70
1
10
0
20
0
30
0
0
VERTEX
8
CLAMPS
10
2477.043101
20
10
30
0
0
VERTEX
8
CLAMPS
10
2607.043101
20
10
30
0
0
VERTEX
8
CLAMPS
10
2607.043101
20
140
30
0
0
VERTEX
8
CLAMPS
10
2477.043101
20
140
30
0
0
SEQEND
8
CLAMPS
0
POLYLINE
8
CLAMPS
66
1
70
1
10
0
20
0
30
0
0
VERTEX
8
CLAMPS
10
2825.88748
20
10
30
0
0
VERTEX
8
CLAMPS
10
2955.88748
20
10
30
0
0
VERTEX
8
CLAMPS
10
2955.88748
20
140
30
0
0
VERTEX
8
CLAMPS
10
2825.88748
20
140
30
0
0
SEQEND
8
CLAMPS
0
TEXT
8
TEXT
10
2752.96024
20
85
30
0
40
15
1
C5 - LEAF TOP P4 L591.8 x150
72
1
11
2752.96024
21
85
31
0
73
2
0
TEXT
8
TEXT
10
2752.96024
20
10
30
0
40
10
1
OUT 576.8 IN 514.7 CUT Q/J22.5 FINGER ONE END
72
1
11
2752.96024
21
10
31
0
73
2
0
POLYLINE
8
CONTOUR
66
1
70
1
10
0
20
0
30
0
0
VERTEX
8
CONTOUR
10
1487.478804
20
383.594015
30
0
42
1
0
VERTEX
8
CONTOUR
10
67.478804
20
383.594015
30
0
0
VERTEX
8
CONTOUR
10
134.478804
20
383.594015
30
0
42
-1
0
VERTEX
8
CONTOUR
10
1420.478804
20
383.594015
30
0
0
SEQEND
8
CONTOUR
0
POLYLINE
8
ASSEMBLY
66
1
70
1
10
0
20
0
30
0
0
VERTEX
8
ASSEMBLY
10
1416.375677
20
350
30
0
0
VERTEX
8
ASSEMBLY
10
1219.407656
20
825.522868
30
0
0
VERTEX
8
ASSEMBLY
10
1334.212686
20
940.327897
30
0
0
VERTEX
8
ASSEMBLY
10
1554.957607
20
407.402515
30
0
0
SEQEND
8
ASSEMBLY
0
POLYLINE
8
FINGER
66
1
70
0
10
0
20
0
30
0
0
VERTEX
8
FINGER
10
1232.148464
20
838.263675
30
0
0
VERTEX
8
FINGER
10
1279.524618
20
885.63983
30
0
0
SEQEND
8
FINGER
0
POLYLINE
8
ASSEMBLY
66
1
70
1
10
0
20
0
30
0
0
VERTEX
8
ASSEMBLY
10
1219.407656
20
825.522868
30
0
0
VERTEX
8
ASSEMBLY
10
777.478804
20
1008.575792
30
0
0
VERTEX
8
ASSEMBLY
10
777.478804
20
1170.934622
30
0
0
VERTEX
8
ASSEMBLY
10
1334.212686
20
940.327897
30
0
0
SEQEND
8
ASSEMBLY
0
POLYLINE
8
FINGER
66
1
70
0
10
0
20
0
30
0
0
VERTEX
8
FINGER
10
777.478804
20
1026.594015
30
0
0
VERTEX
8
FINGER
10
777.478804
20
1093.594015
30
0
0
SEQEND
8
FINGER
0
POLYLINE
8
ASSEMBLY
66
1
70
1
10
0
20
0
30
0
0
VERTEX
8
ASSEMBLY
10
777.478804
20
1008.575792
30
0
0
VERTEX
8
ASSEMBLY
10
335.549951
20
825.522868
30
0
0
VERTEX
8
ASSEMBLY
10
220.744921
20
940.327897
30
0
0
VERTEX
8
ASSEMBLY
10
777.478804
20
1170.934622
30
0
0
SEQEND
8
ASSEMBLY
0
POLYLINE
8
FINGER
66
1
70
0
10
0
20
0
30
0
0
VERTEX
8
FINGER
10
322.809143
20
838.263675
30
0
0
VERTEX
8
FINGER
10
275.432989
20
885.63983
30
0
0
SEQEND
8
FINGER
0
POLYLINE
8
ASSEMBLY
66
1
70
1
10
0
20
0
30
0
0
VERTEX
8
ASSEMBLY
10
335.549951
20
825.522868
30
0
0
VERTEX
8
ASSEMBLY
10
138.58193
20
350
30
0
0
VERTEX
8
ASSEMBLY
10
0
20
407.402515
30
0
0
VERTEX
8
ASSEMBLY
10
220.744921
20
940.327897
30
0
0
SEQEND
8
ASSEMBLY
0
TEXT
8
TEXT
10
1654.957607
20
1152.434622
30
0
40
15
1
C5 - LEAF TOP
72
0
11
1654.957607
21
1152.434622
31
0
73
0
0
TEXT
8
TEXT
10
1654.957607
20
1130.434622
30
0
40
15
1
SEMI-CIRCLE W1500 RISE750 H2400 HINGE L
72
0
11
1654.957607
21
1130.434622
31
0
73
0
0
TEXT
8
TEXT
10
1654.957607
20
1108.434622
30
0
40
15
1
FACE 67 OFFSET 40 OUTER L2230.5 INNER L2020
72
0
11
1654.957607
21
1108.434622
31
0
73
0
0
TEXT
8
TEXT
10
1654.957607
20
1086.434622
30
0
40
15
1
CHAIN R710 L2230.5 180DEG: FEWEST 3 x board 180 L836.1 ROUGH 866.1 WASTE 58%
72
0
11
1654.957607
21
1086.434622
31
0
73
0
0
TEXT
8
TEXT
10
1654.957607
20
1064.434622
30
0
40
15
1
  ECONOMY ALT 4 x board 150 L602.6 ROUGH 632.6 WASTE 50% -> DEFAULT ECONOMY (THRESHOLD 45%)
72
0
11
1654.957607
21
1064.434622
31
0
73
0
0
TEXT
8
TEXT
10
1654.957607
20
1042.434622
30
0
40
15
1
FINGER 15/16/3.8
72
0
11
1654.957607
21
1042.434622
31
0
73
0
0
TEXT
8
TEXT
10
1654.957607
20
1020.434622
30
0
40
15
1
ALLOWANCE 10 PER SIDE  LIMITS: OVERALL >= 450 (CLAMP)  SHORTER EDGE >= 400  STOCK MAX 200
72
0
11
1654.957607
21
1020.434622
31
0
73
0
0
TEXT
8
TEXT
10
1654.957607
20
998.434622
30
0
40
15
1
CLAMPS (SUGGESTION): UNICLAMP 130 x 130, CLEARANCE 20 FROM THE END CUTS, JAWS 40-98, PIECE THICKNESS 57
72
0
11
1654.957607
21
998.434622
31
0
73
0
0
TEXT
8
TEXT
10
1654.957607
20
976.434622
30
0
40
15
1
CUT CODES: J = JOINT FROM SQUARE  Q = SQUARE (SPRINGING FACE ROUTED WITH THE CONTOUR)  A = APEX FROM SQUARE
72
0
11
1654.957607
21
976.434622
31
0
73
0
0
POLYLINE
8
PIECES
66
1
70
1
10
0
20
0
30
0
0
VERTEX
8
PIECES
10
624.992972
20
1370.934622
30
0
0
VERTEX
8
PIECES
10
62.132034
20
1370.934622
30
0
0
VERTEX
8
PIECES
10
0
20
1520.934622
30
0
0
VERTEX
8
PIECES
10
624.992972
20
1520.934622
30
0
0
SEQEND
8
PIECES
0
POLYLINE
8
CLAMPS
66
1
70
1
10
0
20
0
30
0
0
VERTEX
8
CLAMPS
10
92.989899
20
1380.934622
30
0
0
VERTEX
8
CLAMPS
10
222.989899
20
1380.934622
30
0
0
VERTEX
8
CLAMPS
10
222.989899
20
1510.934622
30
0
0
VERTEX
8
CLAMPS
10
92.989899
20
1510.934622
30
0
0
SEQEND
8
CLAMPS
0
POLYLINE
8
CLAMPS
66
1
70
1
10
0
20
0
30
0
0
VERTEX
8
CLAMPS
10
474.992972
20
1380.934622
30
0
0
VERTEX
8
CLAMPS
10
604.992972
20
1380.934622
30
0
0
VERTEX
8
CLAMPS
10
604.992972
20
1510.934622
30
0
0
VERTEX
8
CLAMPS
10
474.992972
20
1510.934622
30
0
0
SEQEND
8
CLAMPS
0
TEXT
8
TEXT
10
312.496486
20
1455.934622
30
0
40
15
1
C5 - FRAME HEAD P1 L625 x150
72
1
11
312.496486
21
1455.934622
31
0
73
2
0
TEXT
8
TEXT
10
312.496486
20
1380.934622
30
0
40
10
1
OUT 610 IN 547.9 CUT J22.5/Q FINGER ONE END
72
1
11
312.496486
21
1380.934622
31
0
73
2
0
POLYLINE
8
PIECES
66
1
70
1
10
0
20
0
30
0
0
VERTEX
8
PIECES
10
1431.168063
20
1370.934622
30
0
0
VERTEX
8
PIECES
10
887.125006
20
1370.934622
30
0
0
VERTEX
8
PIECES
10
824.992972
20
1520.934622
30
0
0
VERTEX
8
PIECES
10
1493.300098
20
1520.934622
30
0
0
SEQEND
8
PIECES
0
POLYLINE
8
CLAMPS
66
1
70
1
10
0
20
0
30
0
0
VERTEX
8
CLAMPS
10
917.98287
20
1380.934622
30
0
0
VERTEX
8
CLAMPS
10
1047.98287
20
1380.934622
30
0
0
VERTEX
8
CLAMPS
10
1047.98287
20
1510.934622
30
0
0
VERTEX
8
CLAMPS
10
917.98287
20
1510.934622
30
0
0
SEQEND
8
CLAMPS
0
POLYLINE
8
CLAMPS
66
1
70
1
10
0
20
0
30
0
0
VERTEX
8
CLAMPS
10
1270.310199
20
1380.934622
30
0
0
VERTEX
8
CLAMPS
10
1400.310199
20
1380.934622
30
0
0
VERTEX
8
CLAMPS
10
1400.310199
20
1510.934622
30
0
0
VERTEX
8
CLAMPS
10
1270.310199
20
1510.934622
30
0
0
SEQEND
8
CLAMPS
0
TEXT
8
TEXT
10
1159.146535
20
1455.934622
30
0
40
15
1
C5 - FRAME HEAD P2 L668.3 x150
72
1
11
1159.146535
21
1455.934622
31
0
73
2
0
TEXT
8
TEXT
10
1159.146535
20
1380.934622
30
0
40
10
1
OUT 638.3 IN 514 CUT J22.5/J22.5 FINGER BOTH ENDS
72
1
11
1159.146535
21
1380.934622
31
0
73
2
0
POLYLINE
8
PIECES
66
1
70
1
10
0
20
0
30
0
0
VERTEX
8
PIECES
10
2299.475189
20
1370.934622
30
0
0
VERTEX
8
PIECES
10
1755.432132
20
1370.934622
30
0
0
VERTEX
8
PIECES
10
1693.300098
20
1520.934622
30
0
0
VERTEX
8
PIECES
10
2361.607224
20
1520.934622
30
0
0
SEQEND
8
PIECES
0
POLYLINE
8
CLAMPS
66
1
70
1
10
0
20
0
30
0
0
VERTEX
8
CLAMPS
10
1786.289996
20
1380.934622
30
0
0
VERTEX
8
CLAMPS
10
1916.289996
20
1380.934622
30
0
0
VERTEX
8
CLAMPS
10
1916.289996
20
1510.934622
30
0
0
VERTEX
8
CLAMPS
10
1786.289996
20
1510.934622
30
0
0
SEQEND
8
CLAMPS
0
POLYLINE
8
CLAMPS
66
1
70
1
10
0
20
0
30
0
0
VERTEX
8
CLAMPS
10
2138.617325
20
1380.934622
30
0
0
VERTEX
8
CLAMPS
10
2268.617325
20
1380.934622
30
0
0
VERTEX
8
CLAMPS
10
2268.617325
20
1510.934622
30
0
0
VERTEX
8
CLAMPS
10
2138.617325
20
1510.934622
30
0
0
SEQEND
8
CLAMPS
0
TEXT
8
TEXT
10
2027.453661
20
1455.934622
30
0
40
15
1
C5 - FRAME HEAD P3 L668.3 x150
72
1
11
2027.453661
21
1455.934622
31
0
73
2
0
TEXT
8
TEXT
10
2027.453661
20
1380.934622
30
0
40
10
1
OUT 638.3 IN 514 CUT J22.5/J22.5 FINGER BOTH ENDS
72
1
11
2027.453661
21
1380.934622
31
0
73
2
0
POLYLINE
8
PIECES
66
1
70
1
10
0
20
0
30
0
0
VERTEX
8
PIECES
10
3124.468161
20
1370.934622
30
0
0
VERTEX
8
PIECES
10
2561.607224
20
1370.934622
30
0
0
VERTEX
8
PIECES
10
2561.607224
20
1520.934622
30
0
0
VERTEX
8
PIECES
10
3186.600195
20
1520.934622
30
0
0
SEQEND
8
PIECES
0
POLYLINE
8
CLAMPS
66
1
70
1
10
0
20
0
30
0
0
VERTEX
8
CLAMPS
10
2581.607224
20
1380.934622
30
0
0
VERTEX
8
CLAMPS
10
2711.607224
20
1380.934622
30
0
0
VERTEX
8
CLAMPS
10
2711.607224
20
1510.934622
30
0
0
VERTEX
8
CLAMPS
10
2581.607224
20
1510.934622
30
0
0
SEQEND
8
CLAMPS
0
POLYLINE
8
CLAMPS
66
1
70
1
10
0
20
0
30
0
0
VERTEX
8
CLAMPS
10
2963.610297
20
1380.934622
30
0
0
VERTEX
8
CLAMPS
10
3093.610297
20
1380.934622
30
0
0
VERTEX
8
CLAMPS
10
3093.610297
20
1510.934622
30
0
0
VERTEX
8
CLAMPS
10
2963.610297
20
1510.934622
30
0
0
SEQEND
8
CLAMPS
0
TEXT
8
TEXT
10
2874.10371
20
1455.934622
30
0
40
15
1
C5 - FRAME HEAD P4 L625 x150
72
1
11
2874.10371
21
1455.934622
31
0
73
2
0
TEXT
8
TEXT
10
2874.10371
20
1380.934622
30
0
40
10
1
OUT 610 IN 547.9 CUT Q/J22.5 FINGER ONE END
72
1
11
2874.10371
21
1380.934622
31
0
73
2
0
POLYLINE
8
CONTOUR
66
1
70
1
10
0
20
0
30
0
0
VERTEX
8
CONTOUR
10
1573.153093
20
1752.178269
30
0
42
1
0
VERTEX
8
CONTOUR
10
73.153093
20
1752.178269
30
0
0
VERTEX
8
CONTOUR
10
130.153093
20
1752.178269
30
0
42
-1
0
VERTEX
8
CONTOUR
10
1516.153093
20
1752.178269
30
0
0
SEQEND
8
CONTOUR
0
POLYLINE
8
ASSEMBLY
66
1
70
1
10
0
20
0
30
0
0
VERTEX
8
ASSEMBLY
10
1507.724257
20
1720.934622
30
0
0
VERTEX
8
ASSEMBLY
10
1298.066953
20
2227.092129
30
0
0
VERTEX
8
ASSEMBLY
10
1412.871983
20
2341.897158
30
0
0
VERTEX
8
ASSEMBLY
10
1646.306187
20
1778.337137
30
0
0
SEQEND
8
ASSEMBLY
0
POLYLINE
8
FINGER
66
1
70
0
10
0
20
0
30
0
0
VERTEX
8
FINGER
10
1313.178093
20
2242.203268
30
0
0
VERTEX
8
FINGER
10
1353.483179
20
2282.508355
30
0
0
SEQEND
8
FINGER
0
POLYLINE
8
ASSEMBLY
66
1
70
1
10
0
20
0
30
0
0
VERTEX
8
ASSEMBLY
10
1298.066953
20
2227.092129
30
0
0
VERTEX
8
ASSEMBLY
10
823.153093
20
2423.80789
30
0
0
VERTEX
8
ASSEMBLY
10
823.153093
20
2586.16672
30
0
0
VERTEX
8
ASSEMBLY
10
1412.871983
20
2341.897158
30
0
0
SEQEND
8
ASSEMBLY
0
POLYLINE
8
FINGER
66
1
70
0
10
0
20
0
30
0
0
VERTEX
8
FINGER
10
823.153093
20
2445.178269
30
0
0
VERTEX
8
FINGER
10
823.153093
20
2502.178269
30
0
0
SEQEND
8
FINGER
0
POLYLINE
8
ASSEMBLY
66
1
70
1
10
0
20
0
30
0
0
VERTEX
8
ASSEMBLY
10
823.153093
20
2423.80789
30
0
0
VERTEX
8
ASSEMBLY
10
348.239234
20
2227.092129
30
0
0
VERTEX
8
ASSEMBLY
10
233.434204
20
2341.897158
30
0
0
VERTEX
8
ASSEMBLY
10
823.153093
20
2586.16672
30
0
0
SEQEND
8
ASSEMBLY
0
POLYLINE
8
FINGER
66
1
70
0
10
0
20
0
30
0
0
VERTEX
8
FINGER
10
333.128094
20
2242.203268
30
0
0
VERTEX
8
FINGER
10
292.823007
20
2282.508355
30
0
0
SEQEND
8
FINGER
0
POLYLINE
8
ASSEMBLY
66
1
70
1
10
0
20
0
30
0
0
VERTEX
8
ASSEMBLY
10
348.239234
20
2227.092129
30
0
0
VERTEX
8
ASSEMBLY
10
138.58193
20
1720.934622
30
0
0
VERTEX
8
ASSEMBLY
10
0
20
1778.337137
30
0
0
VERTEX
8
ASSEMBLY
10
233.434204
20
2341.897158
30
0
0
SEQEND
8
ASSEMBLY
0
TEXT
8
TEXT
10
1746.306187
20
2567.66672
30
0
40
15
1
C5 - FRAME HEAD
72
0
11
1746.306187
21
2567.66672
31
0
73
0
0
TEXT
8
TEXT
10
1746.306187
20
2545.66672
30
0
40
15
1
SEMI-CIRCLE W1500 RISE750 H2400 HINGE L
72
0
11
1746.306187
21
2545.66672
31
0
73
0
0
TEXT
8
TEXT
10
1746.306187
20
2523.66672
30
0
40
15
1
FACE 57 OFFSET 0 OUTER L2356.2 INNER L2177.1
72
0
11
1746.306187
21
2523.66672
31
0
73
0
0
TEXT
8
TEXT
10
1746.306187
20
2501.66672
30
0
40
15
1
CHAIN R750 L2356.2 180DEG: FEWEST 3 x board 180 L884.2 ROUGH 914.2 WASTE 63%
72
0
11
1746.306187
21
2501.66672
31
0
73
0
0
TEXT
8
TEXT
10
1746.306187
20
2479.66672
30
0
40
15
1
  ECONOMY ALT 4 x board 150 L638.3 ROUGH 668.3 WASTE 55% -> DEFAULT ECONOMY (THRESHOLD 45%)
72
0
11
1746.306187
21
2479.66672
31
0
73
0
0
TEXT
8
TEXT
10
1746.306187
20
2457.66672
30
0
40
15
1
FINGER 15/16/3.8
72
0
11
1746.306187
21
2457.66672
31
0
73
0
0
TEXT
8
TEXT
10
1746.306187
20
2435.66672
30
0
40
15
1
ALLOWANCE 10 PER SIDE  LIMITS: OVERALL >= 450 (CLAMP)  SHORTER EDGE >= 400  STOCK MAX 200
72
0
11
1746.306187
21
2435.66672
31
0
73
0
0
TEXT
8
TEXT
10
1746.306187
20
2413.66672
30
0
40
15
1
CLAMPS (SUGGESTION): UNICLAMP 130 x 130, CLEARANCE 20 FROM THE END CUTS, JAWS 40-98, PIECE THICKNESS 93
72
0
11
1746.306187
21
2413.66672
31
0
73
0
0
TEXT
8
TEXT
10
1746.306187
20
2391.66672
30
0
40
15
1
CUT CODES: J = JOINT FROM SQUARE  Q = SQUARE (SPRINGING FACE ROUTED WITH THE CONTOUR)  A = APEX FROM SQUARE
72
0
11
1746.306187
21
2391.66672
31
0
73
0
0
POLYLINE
8
FIT
66
1
70
1
10
0
20
0
30
0
0
VERTEX
8
FIT
10
1500
20
2786.16672
30
0
42
1
0
VERTEX
8
FIT
10
0
20
2786.16672
30
0
0
VERTEX
8
FIT
10
57
20
2786.16672
30
0
42
-1
0
VERTEX
8
FIT
10
1443
20
2786.16672
30
0
0
SEQEND
8
FIT
0
POLYLINE
8
FIT
66
1
70
1
10
0
20
0
30
0
0
VERTEX
8
FIT
10
1460
20
2786.16672
30
0
42
1
0
VERTEX
8
FIT
10
40
20
2786.16672
30
0
0
VERTEX
8
FIT
10
107
20
2786.16672
30
0
42
-1
0
VERTEX
8
FIT
10
1393
20
2786.16672
30
0
0
SEQEND
8
FIT
0
POLYLINE
8
FIT
66
1
70
1
10
0
20
0
30
0
0
VERTEX
8
FIT
10
1405.5
20
2786.16672
30
0
42
1
0
VERTEX
8
FIT
10
94.5
20
2786.16672
30
0
0
SEQEND
8
FIT
0
POLYLINE
8
FIT
66
1
70
0
10
0
20
0
30
0
0
VERTEX
8
FIT
10
1464
20
2786.16672
30
0
42
0.007003
0
VERTEX
8
FIT
10
1463.719906
20
2806.164105
30
0
0
SEQEND
8
FIT
0
POLYLINE
8
FIT
66
1
70
0
10
0
20
0
30
0
0
VERTEX
8
FIT
10
1463.369841
20
2816.157894
30
0
42
0.007003
0
VERTEX
8
FIT
10
1462.250015
20
2836.125864
30
0
0
SEQEND
8
FIT
0
POLYLINE
8
FIT
66
1
70
0
10
0
20
0
30
0
0
VERTEX
8
FIT
10
1461.480475
20
2846.096129
30
0
42
0.007003
0
VERTEX
8
FIT
10
1459.522894
20
2865.999438
30
0
0
SEQEND
8
FIT
0
POLYLINE
8
FIT
66
1
70
0
10
0
20
0
30
0
0
VERTEX
8
FIT
10
1458.335238
20
2875.928579
30
0
42
0.007003
0
VERTEX
8
FIT
10
1455.543357
20
2895.732095
30
0
0
SEQEND
8
FIT
0
POLYLINE
8
FIT
66
1
70
0
10
0
20
0
30
0
0
VERTEX
8
FIT
10
1453.939681
20
2905.602586
30
0
42
0.007003
0
VERTEX
8
FIT
10
1450.318429
20
2925.271352
30
0
0
SEQEND
8
FIT
0
POLYLINE
8
FIT
66
1
70
0
10
0
20
0
30
0
0
VERTEX
8
FIT
10
1448.301563
20
2935.06577
30
0
42
0.007003
0
VERTEX
8
FIT
10
1443.857331
20
2954.565069
30
0
0
SEQEND
8
FIT
0
POLYLINE
8
FIT
66
1
70
0
10
0
20
0
30
0
0
VERTEX
8
FIT
10
1441.430837
20
2964.266125
30
0
42
0.007003
0
VERTEX
8
FIT
10
1436.17147
20
2983.561537
30
0
0
SEQEND
8
FIT
0
POLYLINE
8
FIT
66
1
70
0
10
0
20
0
30
0
0
VERTEX
8
FIT
10
1433.33963
20
2993.152107
30
0
42
0.007003
0
VERTEX
8
FIT
10
1427.274412
20
3012.209572
30
0
0
SEQEND
8
FIT
0
POLYLINE
8
FIT
66
1
70
0
10
0
20
0
30
0
0
VERTEX
8
FIT
10
1424.042224
20
3021.672729
30
0
42
0.007003
0
VERTEX
8
FIT
10
1417.181861
20
3040.458608
30
0
0
SEQEND
8
FIT
0
POLYLINE
8
FIT
66
1
70
0
10
0
20
0
30
0
0
VERTEX
8
FIT
10
1413.555031
20
3049.777646
30
0
42
0.007003
0
VERTEX
8
FIT
10
1405.911633
20
3068.25878
30
0
0
SEQEND
8
FIT
0
POLYLINE
8
FIT
66
1
70
0
10
0
20
0
30
0
0
VERTEX
8
FIT
10
1401.896563
20
3077.41725
30
0
42
0.007003
0
VERTEX
8
FIT
10
1393.48362
20
3095.561016
30
0
0
SEQEND
8
FIT
0
POLYLINE
8
FIT
66
1
70
0
10
0
20
0
30
0
0
VERTEX
8
FIT
10
1389.087398
20
3104.542753
30
0
42
0.007003
0
VERTEX
8
FIT
10
1379.919761
20
3122.317125
30
0
0
SEQEND
8
FIT
0
POLYLINE
8
FIT
66
1
70
0
10
0
20
0
30
0
0
VERTEX
8
FIT
10
1375.150146
20
3131.106273
30
0
42
0.007003
0
VERTEX
8
FIT
10
1365.243998
20
3148.479876
30
0
0
SEQEND
8
FIT
0
POLYLINE
8
FIT
66
1
70
0
10
0
20
0
30
0
0
VERTEX
8
FIT
10
1360.109409
20
3157.060923
30
0
42
0.007003
0
VERTEX
8
FIT
10
1349.482235
20
3174.00309
30
0
0
SEQEND
8
FIT
0
POLYLINE
8
FIT
66
1
70
0
10
0
20
0
30
0
0
VERTEX
8
FIT
10
1343.991736
20
3182.360887
30
0
42
0.007003
0
VERTEX
8
FIT
10
1332.662295
20
3198.841713
30
0
0
SEQEND
8
FIT
0
POLYLINE
8
FIT
66
1
70
0
10
0
20
0
30
0
0
VERTEX
8
FIT
10
1326.825577
20
3206.961509
30
0
42
0.007003
0
VERTEX
8
FIT
10
1314.813867
20
3222.951902
30
0
0
SEQEND
8
FIT
0
POLYLINE
8
FIT
66
1
70
0
10
0
20
0
30
0
0
VERTEX
8
FIT
10
1308.641232
20
3230.819364
30
0
42
0.007003
0
VERTEX
8
FIT
10
1295.968457
20
3246.291099
30
0
0
SEQEND
8
FIT
0
POLYLINE
8
FIT
66
1
70
0
10
0
20
0
30
0
0
VERTEX
8
FIT
10
1289.470802
20
3253.892339
30
0
42
0.007003
0
VERTEX
8
FIT
10
1276.159329
20
3268.818107
30
0
0
SEQEND
8
FIT
0
POLYLINE
8
FIT
66
1
70
0
10
0
20
0
30
0
0
VERTEX
8
FIT
10
1269.348122
20
3276.139707
30
0
42
0.007003
0
VERTEX
8
FIT
10
1255.42145
20
3290.49316
30
0
0
SEQEND
8
FIT
0
POLYLINE
8
FIT
66
1
70
0
10
0
20
0
30
0
0
VERTEX
8
FIT
10
1248.308715
20
3297.522198
30
0
42
0.007003
0
VERTEX
8
FIT
10
1233.791424
20
3311.278001
30
0
0
SEQEND
8
FIT
0
POLYLINE
8
FIT
66
1
70
0
10
0
20
0
30
0
0
VERTEX
8
FIT
10
1226.389716
20
3318.002069
30
0
42
0.007003
0
VERTEX
8
FIT
10
1211.307434
20
3331.135941
30
0
0
SEQEND
8
FIT
0
POLYLINE
8
FIT
66
1
70
0
10
0
20
0
30
0
0
VERTEX
8
FIT
10
1203.629818
20
3337.543169
30
0
42
0.007003
0
VERTEX
8
FIT
10
1188.009165
20
3350.031927
30
0
0
SEQEND
8
FIT
0
POLYLINE
8
FIT
66
1
70
0
10
0
20
0
30
0
0
VERTEX
8
FIT
10
1180.069193
20
3356.111006
30
0
42
0.007003
0
VERTEX
8
FIT
10
1163.937744
20
3367.932605
30
0
0
SEQEND
8
FIT
0
POLYLINE
8
FIT
66
1
70
0
10
0
20
0
30
0
0
VERTEX
8
FIT
10
1155.749431
20
3373.672805
30
0
42
0.007003
0
VERTEX
8
FIT
10
1139.135659
20
3384.806377
30
0
0
SEQEND
8
FIT
0
POLYLINE
8
FIT
66
1
70
0
10
0
20
0
30
0
0
VERTEX
8
FIT
10
1130.713459
20
3390.197566
30
0
42
0.007003
0
VERTEX
8
FIT
10
1113.646691
20
3400.62346
30
0
0
SEQEND
8
FIT
0
POLYLINE
8
FIT
66
1
70
0
10
0
20
0
30
0
0
VERTEX
8
FIT
10
1105.00547
20
3405.65612
30
0
42
0.007003
0
VERTEX
8
FIT
10
1087.51583
20
3415.355932
30
0
0
SEQEND
8
FIT
0
POLYLINE
8
FIT
66
1
70
0
10
0
20
0
30
0
0
VERTEX
8
FIT
10
1078.670842
20
3420.021181
30
0
42
0.007003
0
VERTEX
8
FIT
10
1060.789203
20
3428.97779
30
0
0
SEQEND
8
FIT
0
POLYLINE
8
FIT
66
1
70
0
10
0
20
0
30
0
0
VERTEX
8
FIT
10
1051.75606
20
3433.267393
30
0
42
0.007003
0
VERTEX
8
FIT
10
1033.513986
20
3441.464988
30
0
0
SEQEND
8
FIT
0
POLYLINE
8
FIT
66
1
70
0
10
0
20
0
30
0
0
VERTEX
8
FIT
10
1024.308633
20
3445.371373
30
0
42
0.007003
0
VERTEX
8
FIT
10
1005.738323
20
3452.795485
30
0
0
SEQEND
8
FIT
0
POLYLINE
8
FIT
66
1
70
0
10
0
20
0
30
0
0
VERTEX
8
FIT
10
996.377009
20
3456.311756
30
0
42
0.007003
0
VERTEX
8
FIT
10
977.511243
20
3462.949281
30
0
0
SEQEND
8
FIT
0
POLYLINE
8
FIT
66
1
70
0
10
0
20
0
30
0
0
VERTEX
8
FIT
10
968.010492
20
3466.069232
30
0
42
0.007003
0
VERTEX
8
FIT
10
948.882572
20
3471.908452
30
0
0
SEQEND
8
FIT
0
POLYLINE
8
FIT
66
1
70
0
10
0
20
0
30
0
0
VERTEX
8
FIT
10
939.259154
20
3474.626576
30
0
42
0.007003
0
VERTEX
8
FIT
10
919.902842
20
3479.657185
30
0
0
SEQEND
8
FIT
0
POLYLINE
8
FIT
66
1
70
0
10
0
20
0
30
0
0
VERTEX
8
FIT
10
910.173744
20
3481.968683
30
0
42
0.007003
0
VERTEX
8
FIT
10
890.623207
20
3486.181801
30
0
0
SEQEND
8
FIT
0
POLYLINE
8
FIT
66
1
70
0
10
0
20
0
30
0
0
VERTEX
8
FIT
10
880.805603
20
3488.082594
30
0
42
0.007003
0
VERTEX
8
FIT
10
861.095352
20
3491.470784
30
0
0
SEQEND
8
FIT
0
POLYLINE
8
FIT
66
1
70
0
10
0
20
0
30
0
0
VERTEX
8
FIT
10
851.206571
20
3492.957517
30
0
42
0.007003
0
VERTEX
8
FIT
10
831.371396
20
3495.514798
30
0
0
SEQEND
8
FIT
0
POLYLINE
8
FIT
66
1
70
0
10
0
20
0
30
0
0
VERTEX
8
FIT
10
821.428893
20
3496.584846
30
0
42
0.007003
0
VERTEX
8
FIT
10
801.503807
20
3498.306705
30
0
0
SEQEND
8
FIT
0
POLYLINE
8
FIT
66
1
70
0
10
0
20
0
30
0
0
VERTEX
8
FIT
10
791.525132
20
3498.958179
30
0
42
0.007003
0
VERTEX
8
FIT
10
771.545306
20
3499.841576
30
0
0
SEQEND
8
FIT
0
POLYLINE
8
FIT
66
1
70
0
10
0
20
0
30
0
0
VERTEX
8
FIT
10
761.548074
20
3500.073326
30
0
42
0.007003
0
VERTEX
8
FIT
10
741.548775
20
3500.116702
30
0
0
SEQEND
8
FIT
0
POLYLINE
8
FIT
66
1
70
0
10
0
20
0
30
0
0
VERTEX
8
FIT
10
731.550631
20
3499.92832
30
0
42
0.007003
0
VERTEX
8
FIT
10
711.567161
20
3499.131598
30
0
0
SEQEND
8
FIT
0
POLYLINE
8
FIT
66
1
70
0
10
0
20
0
30
0
0
VERTEX
8
FIT
10
701.585754
20
3498.523415
30
0
42
0.007003
0
VERTEX
8
FIT
10
681.653387
20
3496.888002
30
0
0
SEQEND
8
FIT
0
POLYLINE
8
FIT
66
1
70
0
10
0
20
0
30
0
0
VERTEX
8
FIT
10
671.706336
20
3495.861093
30
0
42
0.007003
0
VERTEX
8
FIT
10
651.860255
20
3493.389875
30
0
0
SEQEND
8
FIT
0
POLYLINE
8
FIT
66
1
70
0
10
0
20
0
30
0
0
VERTEX
8
FIT
10
641.965118
20
3491.946051
30
0
42
0.007003
0
VERTEX
8
FIT
10
622.240355
20
3488.643391
30
0
0
SEQEND
8
FIT
0
POLYLINE
8
FIT
66
1
70
0
10
0
20
0
30
0
0
VERTEX
8
FIT
10
612.414598
20
3486.785202
30
0
42
0.007003
0
VERTEX
8
FIT
10
592.845969
20
3482.656929
30
0
0
SEQEND
8
FIT
0
POLYLINE
8
FIT
66
1
70
0
10
0
20
0
30
0
0
VERTEX
8
FIT
10
583.106937
20
3480.387654
30
0
42
0.007003
0
VERTEX
8
FIT
10
563.728985
20
3475.441055
30
0
0
SEQEND
8
FIT
0
POLYLINE
8
FIT
66
1
70
0
10
0
20
0
30
0
0
VERTEX
8
FIT
10
554.093868
20
3472.764701
30
0
42
0.007003
0
VERTEX
8
FIT
10
534.940798
20
3467.008508
30
0
0
SEQEND
8
FIT
0
POLYLINE
8
FIT
66
1
70
0
10
0
20
0
30
0
0
VERTEX
8
FIT
10
525.426603
20
3463.929798
30
0
42
0.007003
0
VERTEX
8
FIT
10
506.532222
20
3457.37417
30
0
0
SEQEND
8
FIT
0
POLYLINE
8
FIT
66
1
70
0
10
0
20
0
30
0
0
VERTEX
8
FIT
10
497.155744
20
3453.898539
30
0
42
0.007003
0
VERTEX
8
FIT
10
478.553405
20
3446.55505
30
0
0
SEQEND
8
FIT
0
POLYLINE
8
FIT
66
1
70
0
10
0
20
0
30
0
0
VERTEX
8
FIT
10
469.331194
20
3442.688632
30
0
42
0.007003
0
VERTEX
8
FIT
10
451.053732
20
3434.570243
30
0
0
SEQEND
8
FIT
0
POLYLINE
8
FIT
66
1
70
0
10
0
20
0
30
0
0
VERTEX
8
FIT
10
442.002067
20
3430.319864
30
0
42
0.007003
0
VERTEX
8
FIT
10
424.081745
20
3421.440906
30
0
0
SEQEND
8
FIT
0
POLYLINE
8
FIT
66
1
70
0
10
0
20
0
30
0
0
VERTEX
8
FIT
10
415.216603
20
3416.814068
30
0
42
0.007003
0
VERTEX
8
FIT
10
397.685053
20
3407.190212
30
0
0
SEQEND
8
FIT
0
POLYLINE
8
FIT
66
1
70
0
10
0
20
0
30
0
0
VERTEX
8
FIT
10
389.022083
20
3402.195083
30
0
42
0.007003
0
VERTEX
8
FIT
10
371.91025
20
3391.843318
30
0
0
SEQEND
8
FIT
0
POLYLINE
8
FIT
66
1
70
0
10
0
20
0
30
0
0
VERTEX
8
FIT
10
363.464744
20
3386.488714
30
0
42
0.007003
0
VERTEX
8
FIT
10
346.802834
20
3375.427312
30
0
0
SEQEND
8
FIT
0
POLYLINE
8
FIT
66
1
70
0
10
0
20
0
30
0
0
VERTEX
8
FIT
10
338.589699
20
3369.722685
30
0
42
0.007003
0
VERTEX
8
FIT
10
322.407122
20
3357.971172
30
0
0
SEQEND
8
FIT
0
POLYLINE
8
FIT
66
1
70
0
10
0
20
0
30
0
0
VERTEX
8
FIT
10
314.440855
20
3351.926591
30
0
42
0.007003
0
VERTEX
8
FIT
10
298.766177
20
3339.505709
30
0
0
SEQEND
8
FIT
0
POLYLINE
8
FIT
66
1
70
0
10
0
20
0
30
0
0
VERTEX
8
FIT
10
291.06084
20
3333.131845
30
0
42
0.007003
0
VERTEX
8
FIT
10
275.921728
20
3320.063519
30
0
0
SEQEND
8
FIT
0
POLYLINE
8
FIT
66
1
70
0
10
0
20
0
30
0
0
VERTEX
8
FIT
10
268.490922
20
3313.371622
30
0
42
0.007003
0
VERTEX
8
FIT
10
253.914099
20
3299.67892
30
0
0
SEQEND
8
FIT
0
POLYLINE
8
FIT
66
1
70
0
10
0
20
0
30
0
0
VERTEX
8
FIT
10
246.770941
20
3292.680802
30
0
42
0.007003
0
VERTEX
8
FIT
10
232.782138
20
3278.387893
30
0
0
SEQEND
8
FIT
0
POLYLINE
8
FIT
66
1
70
0
10
0
20
0
30
0
0
VERTEX
8
FIT
10
225.939237
20
3271.095907
30
0
42
0.007003
0
VERTEX
8
FIT
10
212.563145
20
3256.228021
30
0
0
SEQEND
8
FIT
0
POLYLINE
8
FIT
66
1
70
0
10
0
20
0
30
0
0
VERTEX
8
FIT
10
206.032579
20
3248.655039
30
0
42
0.007003
0
VERTEX
8
FIT
10
193.29281
20
3233.23842
30
0
0
SEQEND
8
FIT
0
POLYLINE
8
FIT
66
1
70
0
10
0
20
0
30
0
0
VERTEX
8
FIT
10
187.086106
20
3225.397808
30
0
42
0.007003
0
VERTEX
8
FIT
10
175.005148
20
3209.459668
30
0
0
SEQEND
8
FIT
0
POLYLINE
8
FIT
66
1
70
0
10
0
20
0
30
0
0
VERTEX
8
FIT
10
169.133263
20
3201.365267
30
0
42
0.007003
0
VERTEX
8
FIT
10
157.732439
20
3184.93374
30
0
0
SEQEND
8
FIT
0
POLYLINE
8
FIT
66
1
70
0
10
0
20
0
30
0
0
VERTEX
8
FIT
10
152.205737
20
3176.599838
30
0
42
0.007003
0
VERTEX
8
FIT
10
141.505173
20
3159.703928
30
0
0
SEQEND
8
FIT
0
POLYLINE
8
FIT
66
1
70
0
10
0
20
0
30
0
0
VERTEX
8
FIT
10
136.33341
20
3151.145235
30
0
42
0.007003
0
VERTEX
8
FIT
10
126.351993
20
3133.814766
30
0
0
SEQEND
8
FIT
0
POLYLINE
8
FIT
66
1
70
0
10
0
20
0
30
0
0
VERTEX
8
FIT
10
121.544297
20
3125.046389
30
0
42
0.007003
0
VERTEX
8
FIT
10
112.299647
20
3107.311951
30
0
0
SEQEND
8
FIT
0
POLYLINE
8
FIT
66
1
70
0
10
0
20
0
30
0
0
VERTEX
8
FIT
10
107.864505
20
3098.349369
30
0
42
0.007003
0
VERTEX
8
FIT
10
99.372939
20
3080.242267
30
0
0
SEQEND
8
FIT
0
POLYLINE
8
FIT
66
1
70
0
10
0
20
0
30
0
0
VERTEX
8
FIT
10
95.31818
20
3071.101299
30
0
42
0.007003
0
VERTEX
8
FIT
10
87.594686
20
3052.653494
30
0
0
SEQEND
8
FIT
0
POLYLINE
8
FIT
66
1
70
0
10
0
20
0
30
0
0
VERTEX
8
FIT
10
83.927467
20
3043.350276
30
0
42
0.007003
0
VERTEX
8
FIT
10
76.985681
20
3024.594332
30
0
0
SEQEND
8
FIT
0
POLYLINE
8
FIT
66
1
70
0
10
0
20
0
30
0
0
VERTEX
8
FIT
10
73.712475
20
3015.145285
30
0
42
0.007003
0
VERTEX
8
FIT
10
67.564647
20
2996.114308
30
0
0
SEQEND
8
FIT
0
POLYLINE
8
FIT
66
1
70
0
10
0
20
0
30
0
0
VERTEX
8
FIT
10
64.691232
20
2986.536111
30
0
42
0.007003
0
VERTEX
8
FIT
10
59.348217
20
2967.263695
30
0
0
SEQEND
8
FIT
0
POLYLINE
8
FIT
66
1
70
0
10
0
20
0
30
0
0
VERTEX
8
FIT
10
56.879664
20
2957.573256
30
0
42
0.007003
0
VERTEX
8
FIT
10
52.350892
20
2938.093418
30
0
0
SEQEND
8
FIT
0
POLYLINE
8
FIT
66
1
70
0
10
0
20
0
30
0
0
VERTEX
8
FIT
10
50.29156
20
2928.307841
30
0
42
0.007003
0
VERTEX
8
FIT
10
46.585023
20
2908.654968
30
0
0
SEQEND
8
FIT
0
POLYLINE
8
FIT
66
1
70
0
10
0
20
0
30
0
0
VERTEX
8
FIT
10
44.938547
20
2898.791526
30
0
42
0.007003
0
VERTEX
8
FIT
10
42.06079
20
2879.000307
30
0
0
SEQEND
8
FIT
0
POLYLINE
8
FIT
66
1
70
0
10
0
20
0
30
0
0
VERTEX
8
FIT
10
40.830075
20
2869.076411
30
0
42
0.007003
0
VERTEX
8
FIT
10
38.786177
20
2849.181781
30
0
0
SEQEND
8
FIT
0
POLYLINE
8
FIT
66
1
70
0
10
0
20
0
30
0
0
VERTEX
8
FIT
10
37.973396
20
2839.214948
30
0
42
0.007003
0
VERTEX
8
FIT
10
36.766965
20
2819.252023
30
0
0
SEQEND
8
FIT
0
POLYLINE
8
FIT
66
1
70
0
10
0
20
0
30
0
0
VERTEX
8
FIT
10
36.373552
20
2809.259847
30
0
42
0.007003
0
VERTEX
8
FIT
10
36.006717
20
2789.263865
30
0
0
SEQEND
8
FIT
0
TEXT
8
TEXT
10
1600
20
3481.616702
30
0
40
15
1
C5 - FIT (ASSEMBLY, NOT A TOOLPATH)
72
0
11
1600
21
3481.616702
31
0
73
0
0
TEXT
8
TEXT
10
1600
20
3459.616702
30
0
40
15
1
GAP 4 LAP 17 (REBATE)
72
0
11
1600
21
3459.616702
31
0
73
0
0
TEXT
8
TEXT
10
1600
20
3437.616702
30
0
40
15
1
FRAME R750 / 693  REBATE WALL R714 (LAND 36, DASHED)
72
0
11
1600
21
3437.616702
31
0
73
0
0
TEXT
8
TEXT
10
1600
20
3415.616702
30
0
40
15
1
LEAF R710 / 643  GLASS R655.5
72
0
11
1600
21
3415.616702
31
0
73
0
0
ENDSEC
0
EOF
