0
SECTION
2
HEADER
9
$ACADVER
1
AC1009
0
ENDSEC
0
SECTION
2
TABLES
0
TABLE
2
LAYER
70
6
0
LAYER
2
0
70
0
62
7
6
CONTINUOUS
0
LAYER
2
GLASS_CONTOUR
70
0
62
7
6
CONTINUOUS
0
LAYER
2
GLASS_EDGE
70
0
62
8
6
CONTINUOUS
0
LAYER
2
GLASS_BARS
70
0
62
3
6
CONTINUOUS
0
LAYER
2
GLASS_BAR_AXES
70
0
62
4
6
CONTINUOUS
0
LAYER
2
GLASS_TEXT
70
0
62
2
6
CONTINUOUS
0
ENDTAB
0
ENDSEC
0
SECTION
2
ENTITIES
0
POLYLINE
8
GLASS_CONTOUR
66
1
70
1
10
0
20
0
30
0
0
VERTEX
8
GLASS_CONTOUR
10
0
20
0
30
0
0
VERTEX
8
GLASS_CONTOUR
10
733
20
0
30
0
0
VERTEX
8
GLASS_CONTOUR
10
733
20
591
30
0
42
1
0
VERTEX
8
GLASS_CONTOUR
10
0
20
591
30
0
0
SEQEND
8
GLASS_CONTOUR
0
POLYLINE
8
GLASS_EDGE
66
1
70
1
10
0
20
0
30
0
0
VERTEX
8
GLASS_EDGE
10
11
20
11
30
0
0
VERTEX
8
GLASS_EDGE
10
722
20
11
30
0
0
VERTEX
8
GLASS_EDGE
10
722
20
591
30
0
42
1
0
VERTEX
8
GLASS_EDGE
10
11
20
591
30
0
0
SEQEND
8
GLASS_EDGE
0
POLYLINE
8
GLASS_BAR_AXES
66
1
70
0
10
0
20
0
30
0
0
VERTEX
8
GLASS_BAR_AXES
10
0
20
295.5
30
0
0
VERTEX
8
GLASS_BAR_AXES
10
733
20
295.5
30
0
0
SEQEND
8
GLASS_BAR_AXES
0
POLYLINE
8
GLASS_BARS
66
1
70
0
10
0
20
0
30
0
0
VERTEX
8
GLASS_BARS
10
0
20
304.5
30
0
0
VERTEX
8
GLASS_BARS
10
733
20
304.5
30
0
0
SEQEND
8
GLASS_BARS
0
POLYLINE
8
GLASS_BARS
66
1
70
0
10
0
20
0
30
0
0
VERTEX
8
GLASS_BARS
10
0
20
286.5
30
0
0
VERTEX
8
GLASS_BARS
10
733
20
286.5
30
0
0
SEQEND
8
GLASS_BARS
0
POLYLINE
8
GLASS_BAR_AXES
66
1
70
0
10
0
20
0
30
0
0
VERTEX
8
GLASS_BAR_AXES
10
476.45
20
591
30
0
42
1
0
VERTEX
8
GLASS_BAR_AXES
10
256.55
20
591
30
0
0
SEQEND
8
GLASS_BAR_AXES
0
POLYLINE
8
GLASS_BARS
66
1
70
0
10
0
20
0
30
0
0
VERTEX
8
GLASS_BARS
10
485.45
20
591
30
0
42
1
0
VERTEX
8
GLASS_BARS
10
247.55
20
591
30
0
0
SEQEND
8
GLASS_BARS
0
POLYLINE
8
GLASS_BARS
66
1
70
0
10
0
20
0
30
0
0
VERTEX
8
GLASS_BARS
10
467.45
20
591
30
0
42
1
0
VERTEX
8
GLASS_BARS
10
265.55
20
591
30
0
0
SEQEND
8
GLASS_BARS
0
POLYLINE
8
GLASS_BAR_AXES
66
1
70
0
10
0
20
0
30
0
0
VERTEX
8
GLASS_BAR_AXES
10
476.45
20
591
30
0
0
VERTEX
8
GLASS_BAR_AXES
10
733
20
591
30
0
0
SEQEND
8
GLASS_BAR_AXES
0
POLYLINE
8
GLASS_BARS
66
1
70
0
10
0
20
0
30
0
0
VERTEX
8
GLASS_BARS
10
476.45
20
600
30
0
0
VERTEX
8
GLASS_BARS
10
733
20
600
30
0
0
SEQEND
8
GLASS_BARS
0
POLYLINE
8
GLASS_BARS
66
1
70
0
10
0
20
0
30
0
0
VERTEX
8
GLASS_BARS
10
476.45
20
582
30
0
0
VERTEX
8
GLASS_BARS
10
733
20
582
30
0
0
SEQEND
8
GLASS_BARS
0
POLYLINE
8
GLASS_BAR_AXES
66
1
70
0
10
0
20
0
30
0
0
VERTEX
8
GLASS_BAR_AXES
10
421.475
20
686.219493
30
0
0
VERTEX
8
GLASS_BAR_AXES
10
549.75
20
908.39831
30
0
0
SEQEND
8
GLASS_BAR_AXES
0
POLYLINE
8
GLASS_BARS
66
1
70
0
10
0
20
0
30
0
0
VERTEX
8
GLASS_BARS
10
413.680771
20
690.719493
30
0
0
VERTEX
8
GLASS_BARS
10
541.955771
20
912.89831
30
0
0
SEQEND
8
GLASS_BARS
0
POLYLINE
8
GLASS_BARS
66
1
70
0
10
0
20
0
30
0
0
VERTEX
8
GLASS_BARS
10
429.269229
20
681.719493
30
0
0
VERTEX
8
GLASS_BARS
10
557.544229
20
903.89831
30
0
0
SEQEND
8
GLASS_BARS
0
POLYLINE
8
GLASS_BAR_AXES
66
1
70
0
10
0
20
0
30
0
0
VERTEX
8
GLASS_BAR_AXES
10
311.525
20
686.219493
30
0
0
VERTEX
8
GLASS_BAR_AXES
10
183.25
20
908.39831
30
0
0
SEQEND
8
GLASS_BAR_AXES
0
POLYLINE
8
GLASS_BARS
66
1
70
0
10
0
20
0
30
0
0
VERTEX
8
GLASS_BARS
10
303.730771
20
681.719493
30
0
0
VERTEX
8
GLASS_BARS
10
175.455771
20
903.89831
30
0
0
SEQEND
8
GLASS_BARS
0
POLYLINE
8
GLASS_BARS
66
1
70
0
10
0
20
0
30
0
0
VERTEX
8
GLASS_BARS
10
319.319229
20
690.719493
30
0
0
VERTEX
8
GLASS_BARS
10
191.044229
20
912.89831
30
0
0
SEQEND
8
GLASS_BARS
0
POLYLINE
8
GLASS_BAR_AXES
66
1
70
0
10
0
20
0
30
0
0
VERTEX
8
GLASS_BAR_AXES
10
256.55
20
591
30
0
0
VERTEX
8
GLASS_BAR_AXES
10
0
20
591
30
0
0
SEQEND
8
GLASS_BAR_AXES
0
POLYLINE
8
GLASS_BARS
66
1
70
0
10
0
20
0
30
0
0
VERTEX
8
GLASS_BARS
10
256.55
20
582
30
0
0
VERTEX
8
GLASS_BARS
10
0
20
582
30
0
0
SEQEND
8
GLASS_BARS
0
POLYLINE
8
GLASS_BARS
66
1
70
0
10
0
20
0
30
0
0
VERTEX
8
GLASS_BARS
10
256.55
20
600
30
0
0
VERTEX
8
GLASS_BARS
10
0
20
600
30
0
0
SEQEND
8
GLASS_BARS
0
POLYLINE
8
GLASS_BAR_AXES
66
1
70
0
10
0
20
0
30
0
0
VERTEX
8
GLASS_BAR_AXES
10
256.55
20
0
30
0
0
VERTEX
8
GLASS_BAR_AXES
10
256.55
20
591
30
0
0
SEQEND
8
GLASS_BAR_AXES
0
POLYLINE
8
GLASS_BARS
66
1
70
0
10
0
20
0
30
0
0
VERTEX
8
GLASS_BARS
10
247.55
20
0
30
0
0
VERTEX
8
GLASS_BARS
10
247.55
20
591
30
0
0
SEQEND
8
GLASS_BARS
0
POLYLINE
8
GLASS_BARS
66
1
70
0
10
0
20
0
30
0
0
VERTEX
8
GLASS_BARS
10
265.55
20
0
30
0
0
VERTEX
8
GLASS_BARS
10
265.55
20
591
30
0
0
SEQEND
8
GLASS_BARS
0
POLYLINE
8
GLASS_BAR_AXES
66
1
70
0
10
0
20
0
30
0
0
VERTEX
8
GLASS_BAR_AXES
10
476.45
20
0
30
0
0
VERTEX
8
GLASS_BAR_AXES
10
476.45
20
591
30
0
0
SEQEND
8
GLASS_BAR_AXES
0
POLYLINE
8
GLASS_BARS
66
1
70
0
10
0
20
0
30
0
0
VERTEX
8
GLASS_BARS
10
467.45
20
0
30
0
0
VERTEX
8
GLASS_BARS
10
467.45
20
591
30
0
0
SEQEND
8
GLASS_BARS
0
POLYLINE
8
GLASS_BARS
66
1
70
0
10
0
20
0
30
0
0
VERTEX
8
GLASS_BARS
10
485.45
20
0
30
0
0
VERTEX
8
GLASS_BARS
10
485.45
20
591
30
0
0
SEQEND
8
GLASS_BARS
0
TEXT
8
GLASS_TEXT
10
833
20
939
30
0
40
15
1
SS - G1 GLASS SEMI-CIRCLE
72
0
11
833
21
939
31
0
73
0
0
TEXT
8
GLASS_TEXT
10
833
20
917
30
0
40
15
1
W733 x H957.5 RISE 366.5 SPRINGING 591 R 366.5
72
0
11
833
21
917
31
0
73
0
0
TEXT
8
GLASS_TEXT
10
833
20
895
30
0
40
15
1
DOUBLE 4X16X4 TOUGHENED ARGON CLEAR SPACER SILVER
72
0
11
833
21
895
31
0
73
0
0
TEXT
8
GLASS_TEXT
10
833
20
873
30
0
40
15
1
BARS 8 PATTERN HUB-SPOKE TOTAL L=3286.5
72
0
11
833
21
873
31
0
73
0
0
TEXT
8
GLASS_TEXT
10
833
20
851
30
0
40
15
1
H1 H Y=295.5 X=0-733 L=733
72
0
11
833
21
851
31
0
73
0
0
TEXT
8
GLASS_TEXT
10
833
20
829
30
0
40
15
1
R1 RING C=(366.5,591) R=110 0-180DEG L=345.5
72
0
11
833
21
829
31
0
73
0
0
TEXT
8
GLASS_TEXT
10
833
20
807
30
0
40
15
1
S1 SPRINGING Y=591 X=476.5-733 L=256.5
72
0
11
833
21
807
31
0
73
0
0
TEXT
8
GLASS_TEXT
10
833
20
785
30
0
40
15
1
K1 SPOKE (421.5,686.2)-(549.8,908.4) L=256.5
72
0
11
833
21
785
31
0
73
0
0
TEXT
8
GLASS_TEXT
10
833
20
763
30
0
40
15
1
K2 SPOKE (311.5,686.2)-(183.3,908.4) L=256.5
72
0
11
833
21
763
31
0
73
0
0
TEXT
8
GLASS_TEXT
10
833
20
741
30
0
40
15
1
S2 SPRINGING Y=591 X=0-256.6 L=256.5
72
0
11
833
21
741
31
0
73
0
0
TEXT
8
GLASS_TEXT
10
833
20
719
30
0
40
15
1
V1 V X=256.6 Y=0-591 L=591
72
0
11
833
21
719
31
0
73
0
0
TEXT
8
GLASS_TEXT
10
833
20
697
30
0
40
15
1
V2 V X=476.5 Y=0-591 L=591
72
0
11
833
21
697
31
0
73
0
0
TEXT
8
GLASS_TEXT
10
833
20
675
30
0
40
15
1
BAR ENDS (TABLE, 8 BARS): ID  S FROM APEX / POSITION  L  ANGLE / R
72
0
11
833
21
675
31
0
73
0
0
TEXT
8
GLASS_TEXT
10
833
20
653
30
0
40
15
1
H1  Y 295.5  L=733  0DEG
72
0
11
833
21
653
31
0
73
0
0
TEXT
8
GLASS_TEXT
10
833
20
631
30
0
40
15
1
R1  R 110  L=345.5  C 366.5 / 591
72
0
11
833
21
631
31
0
73
0
0
TEXT
8
GLASS_TEXT
10
833
20
609
30
0
40
15
1
S1  Y 591  L=256.5  0DEG
72
0
11
833
21
609
31
0
73
0
0
TEXT
8
GLASS_TEXT
10
833
20
587
30
0
40
15
1
K1  191.9 FROM APEX R  L=256.5  60DEG
72
0
11
833
21
587
31
0
73
0
0
TEXT
8
GLASS_TEXT
10
833
20
565
30
0
40
15
1
K2  191.9 FROM APEX L  L=256.5  120DEG
72
0
11
833
21
565
31
0
73
0
0
TEXT
8
GLASS_TEXT
10
833
20
543
30
0
40
15
1
S2  Y 591  L=256.5  0DEG
72
0
11
833
21
543
31
0
73
0
0
TEXT
8
GLASS_TEXT
10
833
20
521
30
0
40
15
1
V1  X 256.6  L=591  90DEG
72
0
11
833
21
521
31
0
73
0
0
TEXT
8
GLASS_TEXT
10
833
20
499
30
0
40
15
1
V2  X 476.5  L=591  90DEG
72
0
11
833
21
499
31
0
73
0
0
ENDSEC
0
EOF
