0
SECTION
2
HEADER
9
$ACADVER
1
AC1009
0
ENDSEC
0
SECTION
2
TABLES
0
TABLE
2
LAYER
70
8
0
LAYER
2
0
70
0
62
7
6
CONTINUOUS
0
LAYER
2
FIT
70
0
62
4
6
CONTINUOUS
0
LAYER
2
CONTOUR
70
0
62
7
6
CONTINUOUS
0
LAYER
2
ASSEMBLY
70
0
62
8
6
CONTINUOUS
0
LAYER
2
PIECES
70
0
62
5
6
CONTINUOUS
0
LAYER
2
FINGER
70
0
62
1
6
CONTINUOUS
0
LAYER
2
CLAMPS
70
0
62
3
6
CONTINUOUS
0
LAYER
2
TEXT
70
0
62
94
6
CONTINUOUS
0
ENDTAB
0
ENDSEC
0
SECTION
2
ENTITIES
0
POLYLINE
8
PIECES
66
1
70
1
10
0
20
0
30
0
0
VERTEX
8
PIECES
10
583.241826
20
0
30
0
0
VERTEX
8
PIECES
10
62.132034
20
0
30
0
0
VERTEX
8
PIECES
10
0
20
150
30
0
0
VERTEX
8
PIECES
10
583.241826
20
150
30
0
0
SEQEND
8
PIECES
0
POLYLINE
8
CLAMPS
66
1
70
1
10
0
20
0
30
0
0
VERTEX
8
CLAMPS
10
92.989899
20
10
30
0
0
VERTEX
8
CLAMPS
10
222.989899
20
10
30
0
0
VERTEX
8
CLAMPS
10
222.989899
20
140
30
0
0
VERTEX
8
CLAMPS
10
92.989899
20
140
30
0
0
SEQEND
8
CLAMPS
0
POLYLINE
8
CLAMPS
66
1
70
1
10
0
20
0
30
0
0
VERTEX
8
CLAMPS
10
433.241826
20
10
30
0
0
VERTEX
8
CLAMPS
10
563.241826
20
10
30
0
0
VERTEX
8
CLAMPS
10
563.241826
20
140
30
0
0
VERTEX
8
CLAMPS
10
433.241826
20
140
30
0
0
SEQEND
8
CLAMPS
0
TEXT
8
TEXT
10
291.620913
20
85
30
0
40
15
1
C5 - LEAF TOP P1 L583.2 x150
72
1
11
291.620913
21
85
31
0
73
2
0
TEXT
8
TEXT
10
291.620913
20
10
30
0
40
10
1
OUT 568.2 IN 506.1 CUT J22.5/Q FINGER ONE END
72
1
11
291.620913
21
10
31
0
73
2
0
POLYLINE
8
PIECES
66
1
70
1
10
0
20
0
30
0
0
VERTEX
8
PIECES
10
1344.948337
20
0
30
0
0
VERTEX
8
PIECES
10
845.37386
20
0
30
0
0
VERTEX
8
PIECES
10
783.241826
20
150
30
0
0
VERTEX
8
PIECES
10
1407.080371
20
150
30
0
0
SEQEND
8
PIECES
0
POLYLINE
8
CLAMPS
66
1
70
1
10
0
20
0
30
0
0
VERTEX
8
CLAMPS
10
876.231725
20
10
30
0
0
VERTEX
8
CLAMPS
10
1006.231725
20
10
30
0
0
VERTEX
8
CLAMPS
10
1006.231725
20
140
30
0
0
VERTEX
8
CLAMPS
10
876.231725
20
140
30
0
0
SEQEND
8
CLAMPS
0
POLYLINE
8
CLAMPS
66
1
70
1
10
0
20
0
30
0
0
VERTEX
8
CLAMPS
10
1184.090472
20
10
30
0
0
VERTEX
8
CLAMPS
10
1314.090472
20
10
30
0
0
VERTEX
8
CLAMPS
10
1314.090472
20
140
30
0
0
VERTEX
8
CLAMPS
10
1184.090472
20
140
30
0
0
SEQEND
8
CLAMPS
0
TEXT
8
TEXT
10
1095.161099
20
85
30
0
40
15
1
C5 - LEAF TOP P2 L623.8 x150
72
1
11
1095.161099
21
85
31
0
73
2
0
TEXT
8
TEXT
10
1095.161099
20
10
30
0
40
10
1
OUT 593.8 IN 469.6 CUT J22.5/J22.5 FINGER BOTH ENDS
72
1
11
1095.161099
21
10
31
0
73
2
0
POLYLINE
8
PIECES
66
1
70
1
10
0
20
0
30
0
0
VERTEX
8
PIECES
10
2168.786882
20
0
30
0
0
VERTEX
8
PIECES
10
1669.212405
20
0
30
0
0
VERTEX
8
PIECES
10
1607.080371
20
150
30
0
0
VERTEX
8
PIECES
10
2230.918916
20
150
30
0
0
SEQEND
8
PIECES
0
POLYLINE
8
CLAMPS
66
1
70
1
10
0
20
0
30
0
0
VERTEX
8
CLAMPS
10
1700.07027
20
10
30
0
0
VERTEX
8
CLAMPS
10
1830.07027
20
10
30
0
0
VERTEX
8
CLAMPS
10
1830.07027
20
140
30
0
0
VERTEX
8
CLAMPS
10
1700.07027
20
140
30
0
0
SEQEND
8
CLAMPS
0
POLYLINE
8
CLAMPS
66
1
70
1
10
0
20
0
30
0
0
VERTEX
8
CLAMPS
10
2007.929017
20
10
30
0
0
VERTEX
8
CLAMPS
10
2137.929017
20
10
30
0
0
VERTEX
8
CLAMPS
10
2137.929017
20
140
30
0
0
VERTEX
8
CLAMPS
10
2007.929017
20
140
30
0
0
SEQEND
8
CLAMPS
0
TEXT
8
TEXT
10
1918.999644
20
85
30
0
40
15
1
C5 - LEAF TOP P3 L623.8 x150
72
1
11
1918.999644
21
85
31
0
73
2
0
TEXT
8
TEXT
10
1918.999644
20
10
30
0
40
10
1
OUT 593.8 IN 469.6 CUT J22.5/J22.5 FINGER BOTH ENDS
72
1
11
1918.999644
21
10
31
0
73
2
0
POLYLINE
8
PIECES
66
1
70
1
10
0
20
0
30
0
0
VERTEX
8
PIECES
10
2952.028708
20
0
30
0
0
VERTEX
8
PIECES
10
2430.918916
20
0
30
0
0
VERTEX
8
PIECES
10
2430.918916
20
150
30
0
0
VERTEX
8
PIECES
10
3014.160742
20
150
30
0
0
SEQEND
8
PIECES
0
POLYLINE
8
CLAMPS
66
1
70
1
10
0
20
0
30
0
0
VERTEX
8
CLAMPS
10
2450.918916
20
10
30
0
0
VERTEX
8
CLAMPS
10
2580.918916
20
10
30
0
0
VERTEX
8
CLAMPS
10
2580.918916
20
140
30
0
0
VERTEX
8
CLAMPS
10
2450.918916
20
140
30
0
0
SEQEND
8
CLAMPS
0
POLYLINE
8
CLAMPS
66
1
70
1
10
0
20
0
30
0
0
VERTEX
8
CLAMPS
10
2791.170843
20
10
30
0
0
VERTEX
8
CLAMPS
10
2921.170843
20
10
30
0
0
VERTEX
8
CLAMPS
10
2921.170843
20
140
30
0
0
VERTEX
8
CLAMPS
10
2791.170843
20
140
30
0
0
SEQEND
8
CLAMPS
0
TEXT
8
TEXT
10
2722.539829
20
85
30
0
40
15
1
C5 - LEAF TOP P4 L583.2 x150
72
1
11
2722.539829
21
85
31
0
73
2
0
TEXT
8
TEXT
10
2722.539829
20
10
30
0
40
10
1
OUT 568.2 IN 506.1 CUT Q/J22.5 FINGER ONE END
72
1
11
2722.539829
21
10
31
0
73
2
0
POLYLINE
8
CONTOUR
66
1
70
1
10
0
20
0
30
0
0
VERTEX
8
CONTOUR
10
1465.09201
20
383.75423
30
0
42
1
0
VERTEX
8
CONTOUR
10
67.09201
20
383.75423
30
0
0
VERTEX
8
CONTOUR
10
134.09201
20
383.75423
30
0
42
-1
0
VERTEX
8
CONTOUR
10
1398.09201
20
383.75423
30
0
0
SEQEND
8
CONTOUR
0
POLYLINE
8
ASSEMBLY
66
1
70
1
10
0
20
0
30
0
0
VERTEX
8
ASSEMBLY
10
1393.60209
20
350
30
0
0
VERTEX
8
ASSEMBLY
10
1199.922257
20
817.584478
30
0
0
VERTEX
8
ASSEMBLY
10
1314.727287
20
932.389507
30
0
0
VERTEX
8
ASSEMBLY
10
1532.18402
20
407.402515
30
0
0
SEQEND
8
ASSEMBLY
0
POLYLINE
8
FINGER
66
1
70
0
10
0
20
0
30
0
0
VERTEX
8
FINGER
10
1212.983495
20
830.645716
30
0
0
VERTEX
8
FINGER
10
1260.35965
20
878.02187
30
0
0
SEQEND
8
FINGER
0
POLYLINE
8
ASSEMBLY
66
1
70
1
10
0
20
0
30
0
0
VERTEX
8
ASSEMBLY
10
1199.922257
20
817.584478
30
0
0
VERTEX
8
ASSEMBLY
10
766.09201
20
997.28285
30
0
0
VERTEX
8
ASSEMBLY
10
766.09201
20
1159.64168
30
0
0
VERTEX
8
ASSEMBLY
10
1314.727287
20
932.389507
30
0
0
SEQEND
8
ASSEMBLY
0
POLYLINE
8
FINGER
66
1
70
0
10
0
20
0
30
0
0
VERTEX
8
FINGER
10
766.09201
20
1015.75423
30
0
0
VERTEX
8
FINGER
10
766.09201
20
1082.75423
30
0
0
SEQEND
8
FINGER
0
POLYLINE
8
ASSEMBLY
66
1
70
1
10
0
20
0
30
0
0
VERTEX
8
ASSEMBLY
10
766.09201
20
997.28285
30
0
0
VERTEX
8
ASSEMBLY
10
332.261762
20
817.584478
30
0
0
VERTEX
8
ASSEMBLY
10
217.456732
20
932.389507
30
0
0
VERTEX
8
ASSEMBLY
10
766.09201
20
1159.64168
30
0
0
SEQEND
8
ASSEMBLY
0
POLYLINE
8
FINGER
66
1
70
0
10
0
20
0
30
0
0
VERTEX
8
FINGER
10
319.200524
20
830.645716
30
0
0
VERTEX
8
FINGER
10
271.82437
20
878.02187
30
0
0
SEQEND
8
FINGER
0
POLYLINE
8
ASSEMBLY
66
1
70
1
10
0
20
0
30
0
0
VERTEX
8
ASSEMBLY
10
332.261762
20
817.584478
30
0
0
VERTEX
8
ASSEMBLY
10
138.58193
20
350
30
0
0
VERTEX
8
ASSEMBLY
10
0
20
407.402515
30
0
0
VERTEX
8
ASSEMBLY
10
217.456732
20
932.389507
30
0
0
SEQEND
8
ASSEMBLY
0
TEXT
8
TEXT
10
1632.18402
20
1141.14168
30
0
40
15
1
C5 - LEAF TOP
72
0
11
1632.18402
21
1141.14168
31
0
73
0
0
TEXT
8
TEXT
10
1632.18402
20
1119.14168
30
0
40
15
1
SEMI-CIRCLE W1500 RISE750 H2400 HINGE L
72
0
11
1632.18402
21
1119.14168
31
0
73
0
0
TEXT
8
TEXT
10
1632.18402
20
1097.14168
30
0
40
15
1
FACE 67 OFFSET 51 OUTER L2196 INNER L1985.5
72
0
11
1632.18402
21
1097.14168
31
0
73
0
0
TEXT
8
TEXT
10
1632.18402
20
1075.14168
30
0
40
15
1
CHAIN R699 L2196 180DEG: FEWEST 3 x board 180 L824.3 ROUGH 854.3 WASTE 58%
72
0
11
1632.18402
21
1075.14168
31
0
73
0
0
TEXT
8
TEXT
10
1632.18402
20
1053.14168
30
0
40
15
1
  ECONOMY ALT 4 x board 150 L593.8 ROUGH 623.8 WASTE 50% -> DEFAULT ECONOMY (THRESHOLD 45%)
72
0
11
1632.18402
21
1053.14168
31
0
73
0
0
TEXT
8
TEXT
10
1632.18402
20
1031.14168
30
0
40
15
1
FINGER 15/16/3.8
72
0
11
1632.18402
21
1031.14168
31
0
73
0
0
TEXT
8
TEXT
10
1632.18402
20
1009.14168
30
0
40
15
1
ALLOWANCE 10 PER SIDE  LIMITS: OVERALL >= 450 (CLAMP)  SHORTER EDGE >= 400  STOCK MAX 200
72
0
11
1632.18402
21
1009.14168
31
0
73
0
0
TEXT
8
TEXT
10
1632.18402
20
987.14168
30
0
40
15
1
CLAMPS (SUGGESTION): UNICLAMP 130 x 130, CLEARANCE 20 FROM THE END CUTS, JAWS 40-98, PIECE THICKNESS 57
72
0
11
1632.18402
21
987.14168
31
0
73
0
0
TEXT
8
TEXT
10
1632.18402
20
965.14168
30
0
40
15
1
CUT CODES: J = JOINT FROM SQUARE  Q = SQUARE (SPRINGING FACE ROUTED WITH THE CONTOUR)  A = APEX FROM SQUARE
72
0
11
1632.18402
21
965.14168
31
0
73
0
0
POLYLINE
8
PIECES
66
1
70
1
10
0
20
0
30
0
0
VERTEX
8
PIECES
10
622.888213
20
1359.64168
30
0
0
VERTEX
8
PIECES
10
62.132034
20
1359.64168
30
0
0
VERTEX
8
PIECES
10
0
20
1509.64168
30
0
0
VERTEX
8
PIECES
10
622.888213
20
1509.64168
30
0
0
SEQEND
8
PIECES
0
POLYLINE
8
CLAMPS
66
1
70
1
10
0
20
0
30
0
0
VERTEX
8
CLAMPS
10
92.989899
20
1369.64168
30
0
0
VERTEX
8
CLAMPS
10
222.989899
20
1369.64168
30
0
0
VERTEX
8
CLAMPS
10
222.989899
20
1499.64168
30
0
0
VERTEX
8
CLAMPS
10
92.989899
20
1499.64168
30
0
0
SEQEND
8
CLAMPS
0
POLYLINE
8
CLAMPS
66
1
70
1
10
0
20
0
30
0
0
VERTEX
8
CLAMPS
10
472.888213
20
1369.64168
30
0
0
VERTEX
8
CLAMPS
10
602.888213
20
1369.64168
30
0
0
VERTEX
8
CLAMPS
10
602.888213
20
1499.64168
30
0
0
VERTEX
8
CLAMPS
10
472.888213
20
1499.64168
30
0
0
SEQEND
8
CLAMPS
0
TEXT
8
TEXT
10
311.444106
20
1444.64168
30
0
40
15
1
C5 - FRAME HEAD P1 L622.9 x150
72
1
11
311.444106
21
1444.64168
31
0
73
2
0
TEXT
8
TEXT
10
311.444106
20
1369.64168
30
0
40
10
1
OUT 607.9 IN 545.8 CUT J22.5/Q FINGER ONE END
72
1
11
311.444106
21
1369.64168
31
0
73
2
0
POLYLINE
8
PIECES
66
1
70
1
10
0
20
0
30
0
0
VERTEX
8
PIECES
10
1424.853787
20
1359.64168
30
0
0
VERTEX
8
PIECES
10
885.020247
20
1359.64168
30
0
0
VERTEX
8
PIECES
10
822.888213
20
1509.64168
30
0
0
VERTEX
8
PIECES
10
1486.985821
20
1509.64168
30
0
0
SEQEND
8
PIECES
0
POLYLINE
8
CLAMPS
66
1
70
1
10
0
20
0
30
0
0
VERTEX
8
CLAMPS
10
915.878111
20
1369.64168
30
0
0
VERTEX
8
CLAMPS
10
1045.878111
20
1369.64168
30
0
0
VERTEX
8
CLAMPS
10
1045.878111
20
1499.64168
30
0
0
VERTEX
8
CLAMPS
10
915.878111
20
1499.64168
30
0
0
SEQEND
8
CLAMPS
0
POLYLINE
8
CLAMPS
66
1
70
1
10
0
20
0
30
0
0
VERTEX
8
CLAMPS
10
1263.995922
20
1369.64168
30
0
0
VERTEX
8
CLAMPS
10
1393.995922
20
1369.64168
30
0
0
VERTEX
8
CLAMPS
10
1393.995922
20
1499.64168
30
0
0
VERTEX
8
CLAMPS
10
1263.995922
20
1499.64168
30
0
0
SEQEND
8
CLAMPS
0
TEXT
8
TEXT
10
1154.937017
20
1444.64168
30
0
40
15
1
C5 - FRAME HEAD P2 L664.1 x150
72
1
11
1154.937017
21
1444.64168
31
0
73
2
0
TEXT
8
TEXT
10
1154.937017
20
1369.64168
30
0
40
10
1
OUT 634.1 IN 509.8 CUT J22.5/J22.5 FINGER BOTH ENDS
72
1
11
1154.937017
21
1369.64168
31
0
73
2
0
POLYLINE
8
PIECES
66
1
70
1
10
0
20
0
30
0
0
VERTEX
8
PIECES
10
2288.951395
20
1359.64168
30
0
0
VERTEX
8
PIECES
10
1749.117855
20
1359.64168
30
0
0
VERTEX
8
PIECES
10
1686.985821
20
1509.64168
30
0
0
VERTEX
8
PIECES
10
2351.083429
20
1509.64168
30
0
0
SEQEND
8
PIECES
0
POLYLINE
8
CLAMPS
66
1
70
1
10
0
20
0
30
0
0
VERTEX
8
CLAMPS
10
1779.97572
20
1369.64168
30
0
0
VERTEX
8
CLAMPS
10
1909.97572
20
1369.64168
30
0
0
VERTEX
8
CLAMPS
10
1909.97572
20
1499.64168
30
0
0
VERTEX
8
CLAMPS
10
1779.97572
20
1499.64168
30
0
0
SEQEND
8
CLAMPS
0
POLYLINE
8
CLAMPS
66
1
70
1
10
0
20
0
30
0
0
VERTEX
8
CLAMPS
10
2128.093531
20
1369.64168
30
0
0
VERTEX
8
CLAMPS
10
2258.093531
20
1369.64168
30
0
0
VERTEX
8
CLAMPS
10
2258.093531
20
1499.64168
30
0
0
VERTEX
8
CLAMPS
10
2128.093531
20
1499.64168
30
0
0
SEQEND
8
CLAMPS
0
TEXT
8
TEXT
10
2019.034625
20
1444.64168
30
0
40
15
1
C5 - FRAME HEAD P3 L664.1 x150
72
1
11
2019.034625
21
1444.64168
31
0
73
2
0
TEXT
8
TEXT
10
2019.034625
20
1369.64168
30
0
40
10
1
OUT 634.1 IN 509.8 CUT J22.5/J22.5 FINGER BOTH ENDS
72
1
11
2019.034625
21
1369.64168
31
0
73
2
0
POLYLINE
8
PIECES
66
1
70
1
10
0
20
0
30
0
0
VERTEX
8
PIECES
10
3111.839608
20
1359.64168
30
0
0
VERTEX
8
PIECES
10
2551.083429
20
1359.64168
30
0
0
VERTEX
8
PIECES
10
2551.083429
20
1509.64168
30
0
0
VERTEX
8
PIECES
10
3173.971642
20
1509.64168
30
0
0
SEQEND
8
PIECES
0
POLYLINE
8
CLAMPS
66
1
70
1
10
0
20
0
30
0
0
VERTEX
8
CLAMPS
10
2571.083429
20
1369.64168
30
0
0
VERTEX
8
CLAMPS
10
2701.083429
20
1369.64168
30
0
0
VERTEX
8
CLAMPS
10
2701.083429
20
1499.64168
30
0
0
VERTEX
8
CLAMPS
10
2571.083429
20
1499.64168
30
0
0
SEQEND
8
CLAMPS
0
POLYLINE
8
CLAMPS
66
1
70
1
10
0
20
0
30
0
0
VERTEX
8
CLAMPS
10
2950.981743
20
1369.64168
30
0
0
VERTEX
8
CLAMPS
10
3080.981743
20
1369.64168
30
0
0
VERTEX
8
CLAMPS
10
3080.981743
20
1499.64168
30
0
0
VERTEX
8
CLAMPS
10
2950.981743
20
1499.64168
30
0
0
SEQEND
8
CLAMPS
0
TEXT
8
TEXT
10
2862.527536
20
1444.64168
30
0
40
15
1
C5 - FRAME HEAD P4 L622.9 x150
72
1
11
2862.527536
21
1444.64168
31
0
73
2
0
TEXT
8
TEXT
10
2862.527536
20
1369.64168
30
0
40
10
1
OUT 607.9 IN 545.8 CUT Q/J22.5 FINGER ONE END
72
1
11
2862.527536
21
1369.64168
31
0
73
2
0
POLYLINE
8
CONTOUR
66
1
70
1
10
0
20
0
30
0
0
VERTEX
8
CONTOUR
10
1568.45855
20
1742.829871
30
0
42
1
0
VERTEX
8
CONTOUR
10
68.45855
20
1742.829871
30
0
0
VERTEX
8
CONTOUR
10
136.45855
20
1742.829871
30
0
42
-1
0
VERTEX
8
CONTOUR
10
1500.45855
20
1742.829871
30
0
0
SEQEND
8
CONTOUR
0
POLYLINE
8
ASSEMBLY
66
1
70
1
10
0
20
0
30
0
0
VERTEX
8
ASSEMBLY
10
1498.335169
20
1709.64168
30
0
0
VERTEX
8
ASSEMBLY
10
1289.483322
20
2213.854643
30
0
0
VERTEX
8
ASSEMBLY
10
1404.288352
20
2328.659673
30
0
0
VERTEX
8
ASSEMBLY
10
1636.917099
20
1767.044195
30
0
0
SEQEND
8
ASSEMBLY
0
POLYLINE
8
FINGER
66
1
70
0
10
0
20
0
30
0
0
VERTEX
8
FINGER
10
1300.705374
20
2225.076696
30
0
0
VERTEX
8
FINGER
10
1348.788636
20
2273.159957
30
0
0
SEQEND
8
FINGER
0
POLYLINE
8
ASSEMBLY
66
1
70
1
10
0
20
0
30
0
0
VERTEX
8
ASSEMBLY
10
1289.483322
20
2213.854643
30
0
0
VERTEX
8
ASSEMBLY
10
818.45855
20
2408.959492
30
0
0
VERTEX
8
ASSEMBLY
10
818.45855
20
2571.318322
30
0
0
VERTEX
8
ASSEMBLY
10
1404.288352
20
2328.659673
30
0
0
SEQEND
8
ASSEMBLY
0
POLYLINE
8
FINGER
66
1
70
0
10
0
20
0
30
0
0
VERTEX
8
FINGER
10
818.45855
20
2424.829871
30
0
0
VERTEX
8
FINGER
10
818.45855
20
2492.829871
30
0
0
SEQEND
8
FINGER
0
POLYLINE
8
ASSEMBLY
66
1
70
1
10
0
20
0
30
0
0
VERTEX
8
ASSEMBLY
10
818.45855
20
2408.959492
30
0
0
VERTEX
8
ASSEMBLY
10
347.433777
20
2213.854643
30
0
0
VERTEX
8
ASSEMBLY
10
232.628748
20
2328.659673
30
0
0
VERTEX
8
ASSEMBLY
10
818.45855
20
2571.318322
30
0
0
SEQEND
8
ASSEMBLY
0
POLYLINE
8
FINGER
66
1
70
0
10
0
20
0
30
0
0
VERTEX
8
FINGER
10
336.211725
20
2225.076696
30
0
0
VERTEX
8
FINGER
10
288.128464
20
2273.159957
30
0
0
SEQEND
8
FINGER
0
POLYLINE
8
ASSEMBLY
66
1
70
1
10
0
20
0
30
0
0
VERTEX
8
ASSEMBLY
10
347.433777
20
2213.854643
30
0
0
VERTEX
8
ASSEMBLY
10
138.58193
20
1709.64168
30
0
0
VERTEX
8
ASSEMBLY
10
0
20
1767.044195
30
0
0
VERTEX
8
ASSEMBLY
10
232.628748
20
2328.659673
30
0
0
SEQEND
8
ASSEMBLY
0
TEXT
8
TEXT
10
1736.917099
20
2552.818322
30
0
40
15
1
C5 - FRAME HEAD
72
0
11
1736.917099
21
2552.818322
31
0
73
0
0
TEXT
8
TEXT
10
1736.917099
20
2530.818322
30
0
40
15
1
SEMI-CIRCLE W1500 RISE750 H2400 HINGE L
72
0
11
1736.917099
21
2530.818322
31
0
73
0
0
TEXT
8
TEXT
10
1736.917099
20
2508.818322
30
0
40
15
1
FACE 68 OFFSET 0 OUTER L2356.2 INNER L2142.6
72
0
11
1736.917099
21
2508.818322
31
0
73
0
0
TEXT
8
TEXT
10
1736.917099
20
2486.818322
30
0
40
15
1
CHAIN R750 L2356.2 180DEG: FEWEST 3 x board 180 L878.7 ROUGH 908.7 WASTE 57%
72
0
11
1736.917099
21
2486.818322
31
0
73
0
0
TEXT
8
TEXT
10
1736.917099
20
2464.818322
30
0
40
15
1
  ECONOMY ALT 4 x board 150 L634.1 ROUGH 664.1 WASTE 49% -> DEFAULT ECONOMY (THRESHOLD 45%)
72
0
11
1736.917099
21
2464.818322
31
0
73
0
0
TEXT
8
TEXT
10
1736.917099
20
2442.818322
30
0
40
15
1
FINGER 15/16/3.8
72
0
11
1736.917099
21
2442.818322
31
0
73
0
0
TEXT
8
TEXT
10
1736.917099
20
2420.818322
30
0
40
15
1
ALLOWANCE 10 PER SIDE  LIMITS: OVERALL >= 450 (CLAMP)  SHORTER EDGE >= 400  STOCK MAX 200
72
0
11
1736.917099
21
2420.818322
31
0
73
0
0
TEXT
8
TEXT
10
1736.917099
20
2398.818322
30
0
40
15
1
CLAMPS (SUGGESTION): UNICLAMP 130 x 130, CLEARANCE 20 FROM THE END CUTS, JAWS 40-98, PIECE THICKNESS 93
72
0
11
1736.917099
21
2398.818322
31
0
73
0
0
TEXT
8
TEXT
10
1736.917099
20
2376.818322
30
0
40
15
1
CUT CODES: J = JOINT FROM SQUARE  Q = SQUARE (SPRINGING FACE ROUTED WITH THE CONTOUR)  A = APEX FROM SQUARE
72
0
11
1736.917099
21
2376.818322
31
0
73
0
0
POLYLINE
8
FIT
66
1
70
1
10
0
20
0
30
0
0
VERTEX
8
FIT
10
1500
20
2771.318322
30
0
42
1
0
VERTEX
8
FIT
10
0
20
2771.318322
30
0
0
VERTEX
8
FIT
10
68
20
2771.318322
30
0
42
-1
0
VERTEX
8
FIT
10
1432
20
2771.318322
30
0
0
SEQEND
8
FIT
0
POLYLINE
8
FIT
66
1
70
1
10
0
20
0
30
0
0
VERTEX
8
FIT
10
1449
20
2771.318322
30
0
42
1
0
VERTEX
8
FIT
10
51
20
2771.318322
30
0
0
VERTEX
8
FIT
10
118
20
2771.318322
30
0
42
-1
0
VERTEX
8
FIT
10
1382
20
2771.318322
30
0
0
SEQEND
8
FIT
0
POLYLINE
8
FIT
66
1
70
1
10
0
20
0
30
0
0
VERTEX
8
FIT
10
1394.5
20
2771.318322
30
0
42
1
0
VERTEX
8
FIT
10
105.5
20
2771.318322
30
0
0
SEQEND
8
FIT
0
POLYLINE
8
FIT
66
1
70
0
10
0
20
0
30
0
0
VERTEX
8
FIT
10
1453
20
2771.318322
30
0
42
0.007112
0
VERTEX
8
FIT
10
1452.715524
20
2791.315624
30
0
0
SEQEND
8
FIT
0
POLYLINE
8
FIT
66
1
70
0
10
0
20
0
30
0
0
VERTEX
8
FIT
10
1452.359983
20
2801.309217
30
0
42
0.007112
0
VERTEX
8
FIT
10
1451.222656
20
2821.276178
30
0
0
SEQEND
8
FIT
0
POLYLINE
8
FIT
66
1
70
0
10
0
20
0
30
0
0
VERTEX
8
FIT
10
1450.441099
20
2831.245505
30
0
42
0.007112
0
VERTEX
8
FIT
10
1448.45299
20
2851.145767
30
0
0
SEQEND
8
FIT
0
POLYLINE
8
FIT
66
1
70
0
10
0
20
0
30
0
0
VERTEX
8
FIT
10
1447.24684
20
2861.072676
30
0
42
0.007112
0
VERTEX
8
FIT
10
1444.41157
20
2880.870006
30
0
0
SEQEND
8
FIT
0
POLYLINE
8
FIT
66
1
70
0
10
0
20
0
30
0
0
VERTEX
8
FIT
10
1442.783023
20
2890.736421
30
0
42
0.007112
0
VERTEX
8
FIT
10
1439.105755
20
2910.394771
30
0
0
SEQEND
8
FIT
0
POLYLINE
8
FIT
66
1
70
0
10
0
20
0
30
0
0
VERTEX
8
FIT
10
1437.057777
20
2920.182728
30
0
42
0.007112
0
VERTEX
8
FIT
10
1432.545205
20
2939.666303
30
0
0
SEQEND
8
FIT
0
POLYLINE
8
FIT
66
1
70
0
10
0
20
0
30
0
0
VERTEX
8
FIT
10
1430.081525
20
2949.35798
30
0
42
0.007112
0
VERTEX
8
FIT
10
1424.741867
20
2968.631305
30
0
0
SEQEND
8
FIT
0
POLYLINE
8
FIT
66
1
70
0
10
0
20
0
30
0
0
VERTEX
8
FIT
10
1421.86697
20
2978.209054
30
0
42
0.007112
0
VERTEX
8
FIT
10
1415.709948
20
2997.237037
30
0
0
SEQEND
8
FIT
0
POLYLINE
8
FIT
66
1
70
0
10
0
20
0
30
0
0
VERTEX
8
FIT
10
1412.429069
20
3006.683419
30
0
42
0.007112
0
VERTEX
8
FIT
10
1405.465894
20
3025.431412
30
0
0
SEQEND
8
FIT
0
POLYLINE
8
FIT
66
1
70
0
10
0
20
0
30
0
0
VERTEX
8
FIT
10
1401.785007
20
3034.729228
30
0
42
0.007112
0
VERTEX
8
FIT
10
1394.028357
20
3053.163094
30
0
0
SEQEND
8
FIT
0
POLYLINE
8
FIT
66
1
70
0
10
0
20
0
30
0
0
VERTEX
8
FIT
10
1389.954164
20
3062.295413
30
0
42
0.007112
0
VERTEX
8
FIT
10
1381.418164
20
3080.381588
30
0
0
SEQEND
8
FIT
0
POLYLINE
8
FIT
66
1
70
0
10
0
20
0
30
0
0
VERTEX
8
FIT
10
1376.958083
20
3089.331784
30
0
42
0.007112
0
VERTEX
8
FIT
10
1367.658274
20
3107.037336
30
0
0
SEQEND
8
FIT
0
POLYLINE
8
FIT
66
1
70
0
10
0
20
0
30
0
0
VERTEX
8
FIT
10
1362.820428
20
3115.78911
30
0
42
0.007112
0
VERTEX
8
FIT
10
1352.773743
20
3133.081801
30
0
0
SEQEND
8
FIT
0
POLYLINE
8
FIT
66
1
70
0
10
0
20
0
30
0
0
VERTEX
8
FIT
10
1347.566939
20
3141.619218
30
0
42
0.007112
0
VERTEX
8
FIT
10
1336.791672
20
3158.467561
30
0
0
SEQEND
8
FIT
0
POLYLINE
8
FIT
66
1
70
0
10
0
20
0
30
0
0
VERTEX
8
FIT
10
1331.225391
20
3166.775077
30
0
42
0.007112
0
VERTEX
8
FIT
10
1319.741162
20
3183.148394
30
0
0
SEQEND
8
FIT
0
POLYLINE
8
FIT
66
1
70
0
10
0
20
0
30
0
0
VERTEX
8
FIT
10
1313.825539
20
3191.210882
30
0
42
0.007112
0
VERTEX
8
FIT
10
1301.653258
20
3207.079361
30
0
0
SEQEND
8
FIT
0
POLYLINE
8
FIT
66
1
70
0
10
0
20
0
30
0
0
VERTEX
8
FIT
10
1295.399064
20
3214.88214
30
0
42
0.007112
0
VERTEX
8
FIT
10
1282.560895
20
3230.216887
30
0
0
SEQEND
8
FIT
0
POLYLINE
8
FIT
66
1
70
0
10
0
20
0
30
0
0
VERTEX
8
FIT
10
1275.979518
20
3237.745751
30
0
42
0.007112
0
VERTEX
8
FIT
10
1262.498837
20
3252.518843
30
0
0
SEQEND
8
FIT
0
POLYLINE
8
FIT
66
1
70
0
10
0
20
0
30
0
0
VERTEX
8
FIT
10
1255.602261
20
3259.760083
30
0
42
0.007112
0
VERTEX
8
FIT
10
1241.503614
20
3273.944622
30
0
0
SEQEND
8
FIT
0
POLYLINE
8
FIT
66
1
70
0
10
0
20
0
30
0
0
VERTEX
8
FIT
10
1234.304395
20
3280.885052
30
0
42
0.007112
0
VERTEX
8
FIT
10
1219.613453
20
3294.455212
30
0
0
SEQEND
8
FIT
0
POLYLINE
8
FIT
66
1
70
0
10
0
20
0
30
0
0
VERTEX
8
FIT
10
1212.124701
20
3301.082195
30
0
42
0.007112
0
VERTEX
8
FIT
10
1196.868212
20
3314.013265
30
0
0
SEQEND
8
FIT
0
POLYLINE
8
FIT
66
1
70
0
10
0
20
0
30
0
0
VERTEX
8
FIT
10
1189.103562
20
3320.314735
30
0
42
0.007112
0
VERTEX
8
FIT
10
1173.309307
20
3332.583171
30
0
0
SEQEND
8
FIT
0
POLYLINE
8
FIT
66
1
70
0
10
0
20
0
30
0
0
VERTEX
8
FIT
10
1165.282897
20
3338.547654
30
0
42
0.007112
0
VERTEX
8
FIT
10
1148.979633
20
3350.131117
30
0
0
SEQEND
8
FIT
0
POLYLINE
8
FIT
66
1
70
0
10
0
20
0
30
0
0
VERTEX
8
FIT
10
1140.706078
20
3355.747753
30
0
42
0.007112
0
VERTEX
8
FIT
10
1123.923492
20
3366.625152
30
0
0
SEQEND
8
FIT
0
POLYLINE
8
FIT
66
1
70
0
10
0
20
0
30
0
0
VERTEX
8
FIT
10
1115.417856
20
3371.883714
30
0
42
0.007112
0
VERTEX
8
FIT
10
1098.186504
20
3382.035243
30
0
0
SEQEND
8
FIT
0
POLYLINE
8
FIT
66
1
70
0
10
0
20
0
30
0
0
VERTEX
8
FIT
10
1089.464275
20
3386.926157
30
0
42
0.007112
0
VERTEX
8
FIT
10
1071.815534
20
3396.333332
30
0
0
SEQEND
8
FIT
0
POLYLINE
8
FIT
66
1
70
0
10
0
20
0
30
0
0
VERTEX
8
FIT
10
1062.892592
20
3400.84769
30
0
42
0.007112
0
VERTEX
8
FIT
10
1044.858596
20
3409.493383
30
0
0
SEQEND
8
FIT
0
POLYLINE
8
FIT
66
1
70
0
10
0
20
0
30
0
0
VERTEX
8
FIT
10
1035.75119
20
3413.622967
30
0
42
0.007112
0
VERTEX
8
FIT
10
1017.364775
20
3421.491435
30
0
0
SEQEND
8
FIT
0
POLYLINE
8
FIT
66
1
70
0
10
0
20
0
30
0
0
VERTEX
8
FIT
10
1008.089487
20
3425.228726
30
0
42
0.007112
0
VERTEX
8
FIT
10
989.384133
20
3432.305642
30
0
0
SEQEND
8
FIT
0
POLYLINE
8
FIT
66
1
70
0
10
0
20
0
30
0
0
VERTEX
8
FIT
10
979.957851
20
3435.643835
30
0
42
0.007112
0
VERTEX
8
FIT
10
960.967616
20
3441.916313
30
0
0
SEQEND
8
FIT
0
POLYLINE
8
FIT
66
1
70
0
10
0
20
0
30
0
0
VERTEX
8
FIT
10
951.407505
20
3444.849329
30
0
42
0.007112
0
VERTEX
8
FIT
10
932.166966
20
3450.305948
30
0
0
SEQEND
8
FIT
0
POLYLINE
8
FIT
66
1
70
0
10
0
20
0
30
0
0
VERTEX
8
FIT
10
922.490432
20
3452.828447
30
0
42
0.007112
0
VERTEX
8
FIT
10
903.034624
20
3457.459273
30
0
0
SEQEND
8
FIT
0
POLYLINE
8
FIT
66
1
70
0
10
0
20
0
30
0
0
VERTEX
8
FIT
10
893.259286
20
3459.566662
30
0
42
0.007112
0
VERTEX
8
FIT
10
873.623633
20
3463.363261
30
0
0
SEQEND
8
FIT
0
POLYLINE
8
FIT
66
1
70
0
10
0
20
0
30
0
0
VERTEX
8
FIT
10
863.767291
20
3465.051703
30
0
42
0.007112
0
VERTEX
8
FIT
10
843.987547
20
3468.007163
30
0
0
SEQEND
8
FIT
0
POLYLINE
8
FIT
66
1
70
0
10
0
20
0
30
0
0
VERTEX
8
FIT
10
834.068147
20
3469.273583
30
0
42
0.007112
0
VERTEX
8
FIT
10
814.180327
20
3471.382523
30
0
0
SEQEND
8
FIT
0
POLYLINE
8
FIT
66
1
70
0
10
0
20
0
30
0
0
VERTEX
8
FIT
10
804.215931
20
3472.224616
30
0
42
0.007112
0
VERTEX
8
FIT
10
784.256246
20
3473.483196
30
0
0
SEQEND
8
FIT
0
POLYLINE
8
FIT
66
1
70
0
10
0
20
0
30
0
0
VERTEX
8
FIT
10
774.264997
20
3473.899428
30
0
42
0.007112
0
VERTEX
8
FIT
10
754.269791
20
3474.305355
30
0
0
SEQEND
8
FIT
0
POLYLINE
8
FIT
66
1
70
0
10
0
20
0
30
0
0
VERTEX
8
FIT
10
744.269881
20
3474.294969
30
0
42
0.007112
0
VERTEX
8
FIT
10
724.275562
20
3473.847505
30
0
0
SEQEND
8
FIT
0
POLYLINE
8
FIT
66
1
70
0
10
0
20
0
30
0
0
VERTEX
8
FIT
10
714.285199
20
3473.410519
30
0
42
0.007112
0
VERTEX
8
FIT
10
694.328172
20
3472.110479
30
0
0
SEQEND
8
FIT
0
POLYLINE
8
FIT
66
1
70
0
10
0
20
0
30
0
0
VERTEX
8
FIT
10
684.365547
20
3471.247689
30
0
42
0.007112
0
VERTEX
8
FIT
10
664.48215
20
3469.09744
30
0
0
SEQEND
8
FIT
0
POLYLINE
8
FIT
66
1
70
0
10
0
20
0
30
0
0
VERTEX
8
FIT
10
654.565403
20
3467.810416
30
0
42
0.007112
0
VERTEX
8
FIT
10
634.791841
20
3464.813874
30
0
0
SEQEND
8
FIT
0
POLYLINE
8
FIT
66
1
70
0
10
0
20
0
30
0
0
VERTEX
8
FIT
10
624.939027
20
3463.10496
30
0
42
0.007112
0
VERTEX
8
FIT
10
605.311304
20
3459.26758
30
0
0
SEQEND
8
FIT
0
POLYLINE
8
FIT
66
1
70
0
10
0
20
0
30
0
0
VERTEX
8
FIT
10
595.540365
20
3457.139889
30
0
42
0.007112
0
VERTEX
8
FIT
10
576.094218
20
3452.468657
30
0
0
SEQEND
8
FIT
0
POLYLINE
8
FIT
66
1
70
0
10
0
20
0
30
0
0
VERTEX
8
FIT
10
566.422945
20
3449.926062
30
0
42
0.007112
0
VERTEX
8
FIT
10
547.193783
20
3444.429486
30
0
0
SEQEND
8
FIT
0
POLYLINE
8
FIT
66
1
70
0
10
0
20
0
30
0
0
VERTEX
8
FIT
10
537.639785
20
3441.476616
30
0
42
0.007112
0
VERTEX
8
FIT
10
518.662621
20
3435.164703
30
0
0
SEQEND
8
FIT
0
POLYLINE
8
FIT
66
1
70
0
10
0
20
0
30
0
0
VERTEX
8
FIT
10
509.243294
20
3431.806936
30
0
42
0.007112
0
VERTEX
8
FIT
10
490.552681
20
3424.691178
30
0
0
SEQEND
8
FIT
0
POLYLINE
8
FIT
66
1
70
0
10
0
20
0
30
0
0
VERTEX
8
FIT
10
481.285177
20
3420.934627
30
0
42
0.007112
0
VERTEX
8
FIT
10
462.915147
20
3413.027982
30
0
0
SEQEND
8
FIT
0
POLYLINE
8
FIT
66
1
70
0
10
0
20
0
30
0
0
VERTEX
8
FIT
10
453.816339
20
3408.879487
30
0
42
0.007112
0
VERTEX
8
FIT
10
435.800342
20
3400.196351
30
0
0
SEQEND
8
FIT
0
POLYLINE
8
FIT
66
1
70
0
10
0
20
0
30
0
0
VERTEX
8
FIT
10
426.886798
20
3395.663466
30
0
42
0.007112
0
VERTEX
8
FIT
10
409.257636
20
3386.219649
30
0
0
SEQEND
8
FIT
0
POLYLINE
8
FIT
66
1
70
0
10
0
20
0
30
0
0
VERTEX
8
FIT
10
400.545586
20
3381.310627
30
0
42
0.007112
0
VERTEX
8
FIT
10
383.33536
20
3371.123325
30
0
0
SEQEND
8
FIT
0
POLYLINE
8
FIT
66
1
70
0
10
0
20
0
30
0
0
VERTEX
8
FIT
10
374.840666
20
3365.847105
30
0
42
0.007112
0
VERTEX
8
FIT
10
358.080711
20
3354.934867
30
0
0
SEQEND
8
FIT
0
POLYLINE
8
FIT
66
1
70
0
10
0
20
0
30
0
0
VERTEX
8
FIT
10
349.818842
20
3349.301056
30
0
42
0.007112
0
VERTEX
8
FIT
10
333.539676
20
3337.683751
30
0
0
SEQEND
8
FIT
0
POLYLINE
8
FIT
66
1
70
0
10
0
20
0
30
0
0
VERTEX
8
FIT
10
325.525674
20
3331.702607
30
0
42
0.007112
0
VERTEX
8
FIT
10
309.756938
20
3319.401387
30
0
0
SEQEND
8
FIT
0
POLYLINE
8
FIT
66
1
70
0
10
0
20
0
30
0
0
VERTEX
8
FIT
10
302.005395
20
3313.083801
30
0
42
0.007112
0
VERTEX
8
FIT
10
286.775802
20
3300.121066
30
0
0
SEQEND
8
FIT
0
POLYLINE
8
FIT
66
1
70
0
10
0
20
0
30
0
0
VERTEX
8
FIT
10
279.300832
20
3293.47854
30
0
42
0.007112
0
VERTEX
8
FIT
10
264.638111
20
3279.877892
30
0
0
SEQEND
8
FIT
0
POLYLINE
8
FIT
66
1
70
0
10
0
20
0
30
0
0
VERTEX
8
FIT
10
257.453326
20
3272.922522
30
0
42
0.007112
0
VERTEX
8
FIT
10
243.384175
20
3258.708726
30
0
0
SEQEND
8
FIT
0
POLYLINE
8
FIT
66
1
70
0
10
0
20
0
30
0
0
VERTEX
8
FIT
10
236.502656
20
3251.453175
30
0
42
0.007112
0
VERTEX
8
FIT
10
223.052692
20
3236.652111
30
0
0
SEQEND
8
FIT
0
POLYLINE
8
FIT
66
1
70
0
10
0
20
0
30
0
0
VERTEX
8
FIT
10
216.48697
20
3229.109592
30
0
42
0.007112
0
VERTEX
8
FIT
10
203.680684
20
3213.748209
30
0
0
SEQEND
8
FIT
0
POLYLINE
8
FIT
66
1
70
0
10
0
20
0
30
0
0
VERTEX
8
FIT
10
197.442712
20
3205.932454
30
0
42
0.007112
0
VERTEX
8
FIT
10
185.303422
20
3190.038724
30
0
0
SEQEND
8
FIT
0
POLYLINE
8
FIT
66
1
70
0
10
0
20
0
30
0
0
VERTEX
8
FIT
10
179.40456
20
3181.963965
30
0
42
0.007112
0
VERTEX
8
FIT
10
167.954369
20
3165.566827
30
0
0
SEQEND
8
FIT
0
POLYLINE
8
FIT
66
1
70
0
10
0
20
0
30
0
0
VERTEX
8
FIT
10
162.405357
20
3157.247765
30
0
42
0.007112
0
VERTEX
8
FIT
10
151.665113
20
3140.377075
30
0
0
SEQEND
8
FIT
0
POLYLINE
8
FIT
66
1
70
0
10
0
20
0
30
0
0
VERTEX
8
FIT
10
146.476055
20
3131.82886
30
0
42
0.007112
0
VERTEX
8
FIT
10
136.465315
20
3114.515336
30
0
0
SEQEND
8
FIT
0
POLYLINE
8
FIT
66
1
70
0
10
0
20
0
30
0
0
VERTEX
8
FIT
10
131.645659
20
3105.753531
30
0
42
0.007112
0
VERTEX
8
FIT
10
122.38265
20
3088.028698
30
0
0
SEQEND
8
FIT
0
POLYLINE
8
FIT
66
1
70
0
10
0
20
0
30
0
0
VERTEX
8
FIT
10
117.941172
20
3079.069257
30
0
42
0.007112
0
VERTEX
8
FIT
10
109.442761
20
3060.965389
30
0
0
SEQEND
8
FIT
0
POLYLINE
8
FIT
66
1
70
0
10
0
20
0
30
0
0
VERTEX
8
FIT
10
105.387548
20
3051.824626
30
0
42
0.007112
0
VERTEX
8
FIT
10
97.669208
20
3033.374686
30
0
0
SEQEND
8
FIT
0
POLYLINE
8
FIT
66
1
70
0
10
0
20
0
30
0
0
VERTEX
8
FIT
10
94.007644
20
3024.069244
30
0
42
0.007112
0
VERTEX
8
FIT
10
87.08343
20
3005.306827
30
0
0
SEQEND
8
FIT
0
POLYLINE
8
FIT
66
1
70
0
10
0
20
0
30
0
0
VERTEX
8
FIT
10
83.822181
20
2995.853649
30
0
42
0.007112
0
VERTEX
8
FIT
10
77.7047
20
2976.812918
30
0
0
SEQEND
8
FIT
0
POLYLINE
8
FIT
66
1
70
0
10
0
20
0
30
0
0
VERTEX
8
FIT
10
74.849705
20
2967.229217
30
0
42
0.007112
0
VERTEX
8
FIT
10
69.550095
20
2947.944841
30
0
0
SEQEND
8
FIT
0
POLYLINE
8
FIT
66
1
70
0
10
0
20
0
30
0
0
VERTEX
8
FIT
10
67.106553
20
2938.248068
30
0
42
0.007112
0
VERTEX
8
FIT
10
62.634465
20
2918.75516
30
0
0
SEQEND
8
FIT
0
POLYLINE
8
FIT
66
1
70
0
10
0
20
0
30
0
0
VERTEX
8
FIT
10
60.606824
20
2908.96297
30
0
42
0.007112
0
VERTEX
8
FIT
10
56.9704
20
2889.297024
30
0
0
SEQEND
8
FIT
0
POLYLINE
8
FIT
66
1
70
0
10
0
20
0
30
0
0
VERTEX
8
FIT
10
55.362353
20
2879.427247
30
0
42
0.007112
0
VERTEX
8
FIT
10
52.568215
20
2859.62407
30
0
0
SEQEND
8
FIT
0
POLYLINE
8
FIT
66
1
70
0
10
0
20
0
30
0
0
VERTEX
8
FIT
10
51.382689
20
2849.694677
30
0
42
0.007112
0
VERTEX
8
FIT
10
49.435924
20
2829.790328
30
0
0
SEQEND
8
FIT
0
POLYLINE
8
FIT
66
1
70
0
10
0
20
0
30
0
0
VERTEX
8
FIT
10
48.675078
20
2819.819399
30
0
42
0.007112
0
VERTEX
8
FIT
10
47.579231
20
2799.850119
30
0
0
SEQEND
8
FIT
0
POLYLINE
8
FIT
66
1
70
0
10
0
20
0
30
0
0
VERTEX
8
FIT
10
47.244451
20
2789.855809
30
0
42
0.006593
0
VERTEX
8
FIT
10
47
20
2771.318322
30
0
0
SEQEND
8
FIT
0
TEXT
8
TEXT
10
1600
20
3455.805355
30
0
40
15
1
C5 - FIT (ASSEMBLY, NOT A TOOLPATH)
72
0
11
1600
21
3455.805355
31
0
73
0
0
TEXT
8
TEXT
10
1600
20
3433.805355
30
0
40
15
1
GAP 4 LAP 17 (REBATE)
72
0
11
1600
21
3433.805355
31
0
73
0
0
TEXT
8
TEXT
10
1600
20
3411.805355
30
0
40
15
1
FRAME R750 / 682  REBATE WALL R703 (LAND 47, DASHED)
72
0
11
1600
21
3411.805355
31
0
73
0
0
TEXT
8
TEXT
10
1600
20
3389.805355
30
0
40
15
1
LEAF R699 / 632  GLASS R644.5
72
0
11
1600
21
3389.805355
31
0
73
0
0
ENDSEC
0
EOF
