0
SECTION
2
HEADER
9
$ACADVER
1
AC1009
0
ENDSEC
0
SECTION
2
TABLES
0
TABLE
2
LAYER
70
9
0
LAYER
2
0
70
0
62
7
6
CONTINUOUS
0
LAYER
2
ARKA_OUTLINE
70
0
62
7
6
CONTINUOUS
0
LAYER
2
ARKA_PANE
70
0
62
3
6
CONTINUOUS
0
LAYER
2
ARKA_FRONT_HINGES_3MM
70
0
62
50
6
CONTINUOUS
0
LAYER
2
ARKA_MITRE
70
0
62
1
6
CONTINUOUS
0
LAYER
2
ARKA_SECTION
70
0
62
5
6
CONTINUOUS
0
LAYER
2
ARKA_PANE_ZEWN_REF
70
0
62
3
6
CONTINUOUS
0
LAYER
2
ARKA_CENTRE
70
0
62
6
6
CONTINUOUS
0
LAYER
2
ARKA_INFO_NO_CUT
70
0
62
8
6
CONTINUOUS
0
ENDTAB
0
ENDSEC
0
SECTION
2
ENTITIES
0
POLYLINE
8
ARKA_OUTLINE
66
1
70
1
10
0
20
0
30
0
0
VERTEX
8
ARKA_OUTLINE
10
-5.5
20
-5.5
30
0
0
VERTEX
8
ARKA_OUTLINE
10
1016.5
20
-5.5
30
0
0
VERTEX
8
ARKA_OUTLINE
10
1016.5
20
1098.5
30
0
42
1
0
VERTEX
8
ARKA_OUTLINE
10
-5.5
20
1098.5
30
0
0
SEQEND
8
ARKA_OUTLINE
0
POLYLINE
8
ARKA_PANE_ZEWN_REF
66
1
70
1
10
0
20
0
30
0
0
VERTEX
8
ARKA_PANE_ZEWN_REF
10
-3.5
20
-3.5
30
0
0
VERTEX
8
ARKA_PANE_ZEWN_REF
10
1014.5
20
-3.5
30
0
0
VERTEX
8
ARKA_PANE_ZEWN_REF
10
1014.5
20
1098.5
30
0
42
1
0
VERTEX
8
ARKA_PANE_ZEWN_REF
10
-3.5
20
1098.5
30
0
0
SEQEND
8
ARKA_PANE_ZEWN_REF
0
POLYLINE
8
ARKA_OUTLINE
66
1
70
1
10
0
20
0
30
0
0
VERTEX
8
ARKA_OUTLINE
10
12.5
20
12.5
30
0
0
VERTEX
8
ARKA_OUTLINE
10
216.475
20
12.5
30
0
0
VERTEX
8
ARKA_OUTLINE
10
216.475
20
1087.5
30
0
0
VERTEX
8
ARKA_OUTLINE
10
12.5
20
1087.5
30
0
0
SEQEND
8
ARKA_OUTLINE
0
POLYLINE
8
ARKA_PANE
66
1
70
1
10
0
20
0
30
0
0
VERTEX
8
ARKA_PANE
10
10.5
20
10.5
30
0
0
VERTEX
8
ARKA_PANE
10
218.475
20
10.5
30
0
0
VERTEX
8
ARKA_PANE
10
218.475
20
1089.5
30
0
0
VERTEX
8
ARKA_PANE
10
10.5
20
1089.5
30
0
0
SEQEND
8
ARKA_PANE
0
POLYLINE
8
ARKA_FRONT_HINGES_3MM
66
1
70
1
10
0
20
0
30
0
0
VERTEX
8
ARKA_FRONT_HINGES_3MM
10
2.5
20
2.5
30
0
0
VERTEX
8
ARKA_FRONT_HINGES_3MM
10
226.475
20
2.5
30
0
0
VERTEX
8
ARKA_FRONT_HINGES_3MM
10
226.475
20
1097.5
30
0
0
VERTEX
8
ARKA_FRONT_HINGES_3MM
10
2.5
20
1097.5
30
0
0
SEQEND
8
ARKA_FRONT_HINGES_3MM
0
POLYLINE
8
ARKA_OUTLINE
66
1
70
1
10
0
20
0
30
0
0
VERTEX
8
ARKA_OUTLINE
10
238.475
20
12.5
30
0
0
VERTEX
8
ARKA_OUTLINE
10
368.125
20
12.5
30
0
0
VERTEX
8
ARKA_OUTLINE
10
368.125
20
1087.5
30
0
0
VERTEX
8
ARKA_OUTLINE
10
238.475
20
1087.5
30
0
0
SEQEND
8
ARKA_OUTLINE
0
POLYLINE
8
ARKA_PANE
66
1
70
1
10
0
20
0
30
0
0
VERTEX
8
ARKA_PANE
10
236.475
20
10.5
30
0
0
VERTEX
8
ARKA_PANE
10
370.125
20
10.5
30
0
0
VERTEX
8
ARKA_PANE
10
370.125
20
1089.5
30
0
0
VERTEX
8
ARKA_PANE
10
236.475
20
1089.5
30
0
0
SEQEND
8
ARKA_PANE
0
POLYLINE
8
ARKA_FRONT_HINGES_3MM
66
1
70
1
10
0
20
0
30
0
0
VERTEX
8
ARKA_FRONT_HINGES_3MM
10
228.475
20
2.5
30
0
0
VERTEX
8
ARKA_FRONT_HINGES_3MM
10
378.125
20
2.5
30
0
0
VERTEX
8
ARKA_FRONT_HINGES_3MM
10
378.125
20
1097.5
30
0
0
VERTEX
8
ARKA_FRONT_HINGES_3MM
10
228.475
20
1097.5
30
0
0
SEQEND
8
ARKA_FRONT_HINGES_3MM
0
POLYLINE
8
ARKA_OUTLINE
66
1
70
1
10
0
20
0
30
0
0
VERTEX
8
ARKA_OUTLINE
10
390.125
20
12.5
30
0
0
VERTEX
8
ARKA_OUTLINE
10
620.875
20
12.5
30
0
0
VERTEX
8
ARKA_OUTLINE
10
620.875
20
1098.5
30
0
42
1
0
VERTEX
8
ARKA_OUTLINE
10
390.125
20
1098.5
30
0
0
SEQEND
8
ARKA_OUTLINE
0
POLYLINE
8
ARKA_PANE
66
1
70
1
10
0
20
0
30
0
0
VERTEX
8
ARKA_PANE
10
388.125
20
10.5
30
0
0
VERTEX
8
ARKA_PANE
10
622.875
20
10.5
30
0
0
VERTEX
8
ARKA_PANE
10
622.875
20
1098.5
30
0
42
1
0
VERTEX
8
ARKA_PANE
10
388.125
20
1098.5
30
0
0
SEQEND
8
ARKA_PANE
0
POLYLINE
8
ARKA_FRONT_HINGES_3MM
66
1
70
1
10
0
20
0
30
0
0
VERTEX
8
ARKA_FRONT_HINGES_3MM
10
380.125
20
2.5
30
0
0
VERTEX
8
ARKA_FRONT_HINGES_3MM
10
630.875
20
2.5
30
0
0
VERTEX
8
ARKA_FRONT_HINGES_3MM
10
630.875
20
1098.5
30
0
42
1
0
VERTEX
8
ARKA_FRONT_HINGES_3MM
10
380.125
20
1098.5
30
0
0
SEQEND
8
ARKA_FRONT_HINGES_3MM
0
POLYLINE
8
ARKA_OUTLINE
66
1
70
1
10
0
20
0
30
0
0
VERTEX
8
ARKA_OUTLINE
10
642.875
20
12.5
30
0
0
VERTEX
8
ARKA_OUTLINE
10
772.525
20
12.5
30
0
0
VERTEX
8
ARKA_OUTLINE
10
772.525
20
1087.5
30
0
0
VERTEX
8
ARKA_OUTLINE
10
642.875
20
1087.5
30
0
0
SEQEND
8
ARKA_OUTLINE
0
POLYLINE
8
ARKA_PANE
66
1
70
1
10
0
20
0
30
0
0
VERTEX
8
ARKA_PANE
10
640.875
20
10.5
30
0
0
VERTEX
8
ARKA_PANE
10
774.525
20
10.5
30
0
0
VERTEX
8
ARKA_PANE
10
774.525
20
1089.5
30
0
0
VERTEX
8
ARKA_PANE
10
640.875
20
1089.5
30
0
0
SEQEND
8
ARKA_PANE
0
POLYLINE
8
ARKA_FRONT_HINGES_3MM
66
1
70
1
10
0
20
0
30
0
0
VERTEX
8
ARKA_FRONT_HINGES_3MM
10
632.875
20
2.5
30
0
0
VERTEX
8
ARKA_FRONT_HINGES_3MM
10
782.525
20
2.5
30
0
0
VERTEX
8
ARKA_FRONT_HINGES_3MM
10
782.525
20
1097.5
30
0
0
VERTEX
8
ARKA_FRONT_HINGES_3MM
10
632.875
20
1097.5
30
0
0
SEQEND
8
ARKA_FRONT_HINGES_3MM
0
POLYLINE
8
ARKA_OUTLINE
66
1
70
1
10
0
20
0
30
0
0
VERTEX
8
ARKA_OUTLINE
10
794.525
20
12.5
30
0
0
VERTEX
8
ARKA_OUTLINE
10
998.5
20
12.5
30
0
0
VERTEX
8
ARKA_OUTLINE
10
998.5
20
1087.5
30
0
0
VERTEX
8
ARKA_OUTLINE
10
794.525
20
1087.5
30
0
0
SEQEND
8
ARKA_OUTLINE
0
POLYLINE
8
ARKA_PANE
66
1
70
1
10
0
20
0
30
0
0
VERTEX
8
ARKA_PANE
10
792.525
20
10.5
30
0
0
VERTEX
8
ARKA_PANE
10
1000.5
20
10.5
30
0
0
VERTEX
8
ARKA_PANE
10
1000.5
20
1089.5
30
0
0
VERTEX
8
ARKA_PANE
10
792.525
20
1089.5
30
0
0
SEQEND
8
ARKA_PANE
0
POLYLINE
8
ARKA_FRONT_HINGES_3MM
66
1
70
1
10
0
20
0
30
0
0
VERTEX
8
ARKA_FRONT_HINGES_3MM
10
784.525
20
2.5
30
0
0
VERTEX
8
ARKA_FRONT_HINGES_3MM
10
1008.5
20
2.5
30
0
0
VERTEX
8
ARKA_FRONT_HINGES_3MM
10
1008.5
20
1097.5
30
0
0
VERTEX
8
ARKA_FRONT_HINGES_3MM
10
784.525
20
1097.5
30
0
0
SEQEND
8
ARKA_FRONT_HINGES_3MM
0
POLYLINE
8
ARKA_OUTLINE
66
1
70
1
10
0
20
0
30
0
0
VERTEX
8
ARKA_OUTLINE
10
998.377267
20
1109.5
30
0
42
0.120318
0
VERTEX
8
ARKA_OUTLINE
10
937.844234
20
1335.412354
30
0
0
VERTEX
8
ARKA_OUTLINE
10
761.121646
20
1233.38152
30
0
42
-0.112335
0
VERTEX
8
ARKA_OUTLINE
10
794.3156
20
1109.5
30
0
0
SEQEND
8
ARKA_OUTLINE
0
POLYLINE
8
ARKA_PANE
66
1
70
1
10
0
20
0
30
0
0
VERTEX
8
ARKA_PANE
10
1000.418175
20
1107.5
30
0
42
0.122414
0
VERTEX
8
ARKA_PANE
10
938.611712
20
1338.164859
30
0
0
VERTEX
8
ARKA_PANE
10
758.448713
20
1234.147703
30
0
42
-0.115732
0
VERTEX
8
ARKA_PANE
10
792.383863
20
1107.5
30
0
0
SEQEND
8
ARKA_PANE
0
POLYLINE
8
ARKA_FRONT_HINGES_3MM
66
1
70
1
10
0
20
0
30
0
0
VERTEX
8
ARKA_FRONT_HINGES_3MM
10
1008.499006
20
1099.5
30
0
42
0.130641
0
VERTEX
8
ARKA_FRONT_HINGES_3MM
10
941.609917
20
1349.133478
30
0
0
VERTEX
8
ARKA_FRONT_HINGES_3MM
10
747.641186
20
1237.145579
30
0
42
-0.12983
0
VERTEX
8
ARKA_FRONT_HINGES_3MM
10
784.523208
20
1099.5
30
0
0
SEQEND
8
ARKA_FRONT_HINGES_3MM
0
POLYLINE
8
ARKA_OUTLINE
66
1
70
1
10
0
20
0
30
0
0
VERTEX
8
ARKA_OUTLINE
10
926.844234
20
1354.464913
30
0
42
0.120318
0
VERTEX
8
ARKA_OUTLINE
10
761.464913
20
1519.844234
30
0
0
VERTEX
8
ARKA_OUTLINE
10
659.434079
20
1343.121646
30
0
42
-0.112335
0
VERTEX
8
ARKA_OUTLINE
10
750.121646
20
1252.434079
30
0
0
SEQEND
8
ARKA_OUTLINE
0
POLYLINE
8
ARKA_PANE
66
1
70
1
10
0
20
0
30
0
0
VERTEX
8
ARKA_PANE
10
929.611712
20
1353.753316
30
0
42
0.122414
0
VERTEX
8
ARKA_PANE
10
760.753316
20
1522.611712
30
0
0
VERTEX
8
ARKA_PANE
10
656.73616
20
1342.448713
30
0
42
-0.115732
0
VERTEX
8
ARKA_PANE
10
749.448713
20
1249.73616
30
0
0
SEQEND
8
ARKA_PANE
0
POLYLINE
8
ARKA_FRONT_HINGES_3MM
66
1
70
1
10
0
20
0
30
0
0
VERTEX
8
ARKA_FRONT_HINGES_3MM
10
940.609917
20
1350.865528
30
0
42
0.130641
0
VERTEX
8
ARKA_FRONT_HINGES_3MM
10
757.865528
20
1533.609917
30
0
0
VERTEX
8
ARKA_FRONT_HINGES_3MM
10
645.877629
20
1339.641186
30
0
42
-0.12983
0
VERTEX
8
ARKA_FRONT_HINGES_3MM
10
746.641186
20
1238.877629
30
0
0
SEQEND
8
ARKA_FRONT_HINGES_3MM
0
POLYLINE
8
ARKA_OUTLINE
66
1
70
1
10
0
20
0
30
0
0
VERTEX
8
ARKA_OUTLINE
10
742.412354
20
1530.844234
30
0
42
0.120318
0
VERTEX
8
ARKA_OUTLINE
10
516.5
20
1591.377267
30
0
0
VERTEX
8
ARKA_OUTLINE
10
516.5
20
1387.3156
30
0
42
-0.112335
0
VERTEX
8
ARKA_OUTLINE
10
640.38152
20
1354.121646
30
0
0
SEQEND
8
ARKA_OUTLINE
0
POLYLINE
8
ARKA_PANE
66
1
70
1
10
0
20
0
30
0
0
VERTEX
8
ARKA_PANE
10
745.164859
20
1531.611712
30
0
42
0.122414
0
VERTEX
8
ARKA_PANE
10
514.5
20
1593.418175
30
0
0
VERTEX
8
ARKA_PANE
10
514.5
20
1385.383863
30
0
42
-0.115732
0
VERTEX
8
ARKA_PANE
10
641.147703
20
1351.448713
30
0
0
SEQEND
8
ARKA_PANE
0
POLYLINE
8
ARKA_FRONT_HINGES_3MM
66
1
70
1
10
0
20
0
30
0
0
VERTEX
8
ARKA_FRONT_HINGES_3MM
10
756.133478
20
1534.609917
30
0
42
0.130641
0
VERTEX
8
ARKA_FRONT_HINGES_3MM
10
506.5
20
1601.499006
30
0
0
VERTEX
8
ARKA_FRONT_HINGES_3MM
10
506.5
20
1377.523208
30
0
42
-0.12983
0
VERTEX
8
ARKA_FRONT_HINGES_3MM
10
644.145579
20
1340.641186
30
0
0
SEQEND
8
ARKA_FRONT_HINGES_3MM
0
POLYLINE
8
ARKA_OUTLINE
66
1
70
1
10
0
20
0
30
0
0
VERTEX
8
ARKA_OUTLINE
10
494.5
20
1591.377267
30
0
42
0.120318
0
VERTEX
8
ARKA_OUTLINE
10
268.587646
20
1530.844234
30
0
0
VERTEX
8
ARKA_OUTLINE
10
370.61848
20
1354.121646
30
0
42
-0.112335
0
VERTEX
8
ARKA_OUTLINE
10
494.5
20
1387.3156
30
0
0
SEQEND
8
ARKA_OUTLINE
0
POLYLINE
8
ARKA_PANE
66
1
70
1
10
0
20
0
30
0
0
VERTEX
8
ARKA_PANE
10
496.5
20
1593.418175
30
0
42
0.122414
0
VERTEX
8
ARKA_PANE
10
265.835141
20
1531.611712
30
0
0
VERTEX
8
ARKA_PANE
10
369.852297
20
1351.448713
30
0
42
-0.115732
0
VERTEX
8
ARKA_PANE
10
496.5
20
1385.383863
30
0
0
SEQEND
8
ARKA_PANE
0
POLYLINE
8
ARKA_FRONT_HINGES_3MM
66
1
70
1
10
0
20
0
30
0
0
VERTEX
8
ARKA_FRONT_HINGES_3MM
10
504.5
20
1601.499006
30
0
42
0.130641
0
VERTEX
8
ARKA_FRONT_HINGES_3MM
10
254.866522
20
1534.609917
30
0
0
VERTEX
8
ARKA_FRONT_HINGES_3MM
10
366.854421
20
1340.641186
30
0
42
-0.12983
0
VERTEX
8
ARKA_FRONT_HINGES_3MM
10
504.5
20
1377.523208
30
0
0
SEQEND
8
ARKA_FRONT_HINGES_3MM
0
POLYLINE
8
ARKA_OUTLINE
66
1
70
1
10
0
20
0
30
0
0
VERTEX
8
ARKA_OUTLINE
10
249.535087
20
1519.844234
30
0
42
0.120318
0
VERTEX
8
ARKA_OUTLINE
10
84.155766
20
1354.464913
30
0
0
VERTEX
8
ARKA_OUTLINE
10
260.878354
20
1252.434079
30
0
42
-0.112335
0
VERTEX
8
ARKA_OUTLINE
10
351.565921
20
1343.121646
30
0
0
SEQEND
8
ARKA_OUTLINE
0
POLYLINE
8
ARKA_PANE
66
1
70
1
10
0
20
0
30
0
0
VERTEX
8
ARKA_PANE
10
250.246684
20
1522.611712
30
0
42
0.122414
0
VERTEX
8
ARKA_PANE
10
81.388288
20
1353.753316
30
0
0
VERTEX
8
ARKA_PANE
10
261.551287
20
1249.73616
30
0
42
-0.115732
0
VERTEX
8
ARKA_PANE
10
354.26384
20
1342.448713
30
0
0
SEQEND
8
ARKA_PANE
0
POLYLINE
8
ARKA_FRONT_HINGES_3MM
66
1
70
1
10
0
20
0
30
0
0
VERTEX
8
ARKA_FRONT_HINGES_3MM
10
253.134472
20
1533.609917
30
0
42
0.130641
0
VERTEX
8
ARKA_FRONT_HINGES_3MM
10
70.390083
20
1350.865528
30
0
0
VERTEX
8
ARKA_FRONT_HINGES_3MM
10
264.358814
20
1238.877629
30
0
42
-0.12983
0
VERTEX
8
ARKA_FRONT_HINGES_3MM
10
365.122371
20
1339.641186
30
0
0
SEQEND
8
ARKA_FRONT_HINGES_3MM
0
POLYLINE
8
ARKA_OUTLINE
66
1
70
1
10
0
20
0
30
0
0
VERTEX
8
ARKA_OUTLINE
10
73.155766
20
1335.412354
30
0
42
0.120318
0
VERTEX
8
ARKA_OUTLINE
10
12.622733
20
1109.5
30
0
0
VERTEX
8
ARKA_OUTLINE
10
216.6844
20
1109.5
30
0
42
-0.112335
0
VERTEX
8
ARKA_OUTLINE
10
249.878354
20
1233.38152
30
0
0
SEQEND
8
ARKA_OUTLINE
0
POLYLINE
8
ARKA_PANE
66
1
70
1
10
0
20
0
30
0
0
VERTEX
8
ARKA_PANE
10
72.388288
20
1338.164859
30
0
42
0.122414
0
VERTEX
8
ARKA_PANE
10
10.581825
20
1107.5
30
0
0
VERTEX
8
ARKA_PANE
10
218.616137
20
1107.5
30
0
42
-0.115732
0
VERTEX
8
ARKA_PANE
10
252.551287
20
1234.147703
30
0
0
SEQEND
8
ARKA_PANE
0
POLYLINE
8
ARKA_FRONT_HINGES_3MM
66
1
70
1
10
0
20
0
30
0
0
VERTEX
8
ARKA_FRONT_HINGES_3MM
10
69.390083
20
1349.133478
30
0
42
0.130641
0
VERTEX
8
ARKA_FRONT_HINGES_3MM
10
2.500994
20
1099.5
30
0
0
VERTEX
8
ARKA_FRONT_HINGES_3MM
10
226.476792
20
1099.5
30
0
42
-0.12983
0
VERTEX
8
ARKA_FRONT_HINGES_3MM
10
263.358814
20
1237.145579
30
0
0
SEQEND
8
ARKA_FRONT_HINGES_3MM
0
POLYLINE
8
ARKA_OUTLINE
66
1
70
1
10
0
20
0
30
0
0
VERTEX
8
ARKA_OUTLINE
10
629.588229
20
1157.440666
30
0
42
-0.091071
0
VERTEX
8
ARKA_OUTLINE
10
642.433891
20
1109.5
30
0
0
VERTEX
8
ARKA_OUTLINE
10
772.298333
20
1109.5
30
0
42
0.110746
0
VERTEX
8
ARKA_OUTLINE
10
742.054134
20
1222.372887
30
0
0
SEQEND
8
ARKA_OUTLINE
0
POLYLINE
8
ARKA_PANE
66
1
70
1
10
0
20
0
30
0
0
VERTEX
8
ARKA_PANE
10
626.978814
20
1158.243521
30
0
42
-0.097946
0
VERTEX
8
ARKA_PANE
10
640.5755
20
1107.5
30
0
0
VERTEX
8
ARKA_PANE
10
774.374414
20
1107.5
30
0
42
0.114668
0
VERTEX
8
ARKA_PANE
10
742.852073
20
1225.142978
30
0
0
SEQEND
8
ARKA_PANE
0
POLYLINE
8
ARKA_FRONT_HINGES_3MM
66
1
70
1
10
0
20
0
30
0
0
VERTEX
8
ARKA_FRONT_HINGES_3MM
10
616.306586
20
1161.319512
30
0
42
-0.127661
0
VERTEX
8
ARKA_FRONT_HINGES_3MM
10
632.871075
20
1099.5
30
0
0
VERTEX
8
ARKA_FRONT_HINGES_3MM
10
782.523195
20
1099.5
30
0
42
0.129817
0
VERTEX
8
ARKA_FRONT_HINGES_3MM
10
745.909124
20
1236.145572
30
0
0
SEQEND
8
ARKA_FRONT_HINGES_3MM
0
POLYLINE
8
ARKA_OUTLINE
66
1
70
1
10
0
20
0
30
0
0
VERTEX
8
ARKA_OUTLINE
10
583.493225
20
1211.588229
30
0
42
-0.091071
0
VERTEX
8
ARKA_OUTLINE
10
618.588229
20
1176.493225
30
0
0
VERTEX
8
ARKA_OUTLINE
10
731.054134
20
1241.425446
30
0
42
0.110746
0
VERTEX
8
ARKA_OUTLINE
10
648.425446
20
1324.054134
30
0
0
SEQEND
8
ARKA_OUTLINE
0
POLYLINE
8
ARKA_PANE
66
1
70
1
10
0
20
0
30
0
0
VERTEX
8
ARKA_PANE
10
580.831978
20
1210.978814
30
0
42
-0.097946
0
VERTEX
8
ARKA_PANE
10
617.978814
20
1173.831978
30
0
0
VERTEX
8
ARKA_PANE
10
733.852073
20
1240.731436
30
0
42
0.114668
0
VERTEX
8
ARKA_PANE
10
647.731436
20
1326.852073
30
0
0
SEQEND
8
ARKA_PANE
0
POLYLINE
8
ARKA_FRONT_HINGES_3MM
66
1
70
1
10
0
20
0
30
0
0
VERTEX
8
ARKA_FRONT_HINGES_3MM
10
570.051563
20
1208.306586
30
0
42
-0.127661
0
VERTEX
8
ARKA_FRONT_HINGES_3MM
10
615.306586
20
1163.051563
30
0
0
VERTEX
8
ARKA_FRONT_HINGES_3MM
10
744.909124
20
1237.877623
30
0
42
0.129817
0
VERTEX
8
ARKA_FRONT_HINGES_3MM
10
644.877623
20
1337.909124
30
0
0
SEQEND
8
ARKA_FRONT_HINGES_3MM
0
POLYLINE
8
ARKA_OUTLINE
66
1
70
1
10
0
20
0
30
0
0
VERTEX
8
ARKA_OUTLINE
10
516.5
20
1235.433891
30
0
42
-0.091071
0
VERTEX
8
ARKA_OUTLINE
10
564.440666
20
1222.588229
30
0
0
VERTEX
8
ARKA_OUTLINE
10
629.372887
20
1335.054134
30
0
42
0.110746
0
VERTEX
8
ARKA_OUTLINE
10
516.5
20
1365.298333
30
0
0
SEQEND
8
ARKA_OUTLINE
0
POLYLINE
8
ARKA_PANE
66
1
70
1
10
0
20
0
30
0
0
VERTEX
8
ARKA_PANE
10
514.5
20
1233.5755
30
0
42
-0.097946
0
VERTEX
8
ARKA_PANE
10
565.243521
20
1219.978814
30
0
0
VERTEX
8
ARKA_PANE
10
632.142978
20
1335.852073
30
0
42
0.114668
0
VERTEX
8
ARKA_PANE
10
514.5
20
1367.374414
30
0
0
SEQEND
8
ARKA_PANE
0
POLYLINE
8
ARKA_FRONT_HINGES_3MM
66
1
70
1
10
0
20
0
30
0
0
VERTEX
8
ARKA_FRONT_HINGES_3MM
10
506.5
20
1225.871075
30
0
42
-0.127661
0
VERTEX
8
ARKA_FRONT_HINGES_3MM
10
568.319512
20
1209.306586
30
0
0
VERTEX
8
ARKA_FRONT_HINGES_3MM
10
643.145572
20
1338.909124
30
0
42
0.129817
0
VERTEX
8
ARKA_FRONT_HINGES_3MM
10
506.5
20
1375.523195
30
0
0
SEQEND
8
ARKA_FRONT_HINGES_3MM
0
POLYLINE
8
ARKA_OUTLINE
66
1
70
1
10
0
20
0
30
0
0
VERTEX
8
ARKA_OUTLINE
10
446.559334
20
1222.588229
30
0
42
-0.091071
0
VERTEX
8
ARKA_OUTLINE
10
494.5
20
1235.433891
30
0
0
VERTEX
8
ARKA_OUTLINE
10
494.5
20
1365.298333
30
0
42
0.110746
0
VERTEX
8
ARKA_OUTLINE
10
381.627113
20
1335.054134
30
0
0
SEQEND
8
ARKA_OUTLINE
0
POLYLINE
8
ARKA_PANE
66
1
70
1
10
0
20
0
30
0
0
VERTEX
8
ARKA_PANE
10
445.756479
20
1219.978814
30
0
42
-0.097946
0
VERTEX
8
ARKA_PANE
10
496.5
20
1233.5755
30
0
0
VERTEX
8
ARKA_PANE
10
496.5
20
1367.374414
30
0
42
0.114668
0
VERTEX
8
ARKA_PANE
10
378.857022
20
1335.852073
30
0
0
SEQEND
8
ARKA_PANE
0
POLYLINE
8
ARKA_FRONT_HINGES_3MM
66
1
70
1
10
0
20
0
30
0
0
VERTEX
8
ARKA_FRONT_HINGES_3MM
10
442.680488
20
1209.306586
30
0
42
-0.127661
0
VERTEX
8
ARKA_FRONT_HINGES_3MM
10
504.5
20
1225.871075
30
0
0
VERTEX
8
ARKA_FRONT_HINGES_3MM
10
504.5
20
1375.523195
30
0
42
0.129817
0
VERTEX
8
ARKA_FRONT_HINGES_3MM
10
367.854428
20
1338.909124
30
0
0
SEQEND
8
ARKA_FRONT_HINGES_3MM
0
POLYLINE
8
ARKA_OUTLINE
66
1
70
1
10
0
20
0
30
0
0
VERTEX
8
ARKA_OUTLINE
10
392.411771
20
1176.493225
30
0
42
-0.091071
0
VERTEX
8
ARKA_OUTLINE
10
427.506775
20
1211.588229
30
0
0
VERTEX
8
ARKA_OUTLINE
10
362.574554
20
1324.054134
30
0
42
0.110746
0
VERTEX
8
ARKA_OUTLINE
10
279.945866
20
1241.425446
30
0
0
SEQEND
8
ARKA_OUTLINE
0
POLYLINE
8
ARKA_PANE
66
1
70
1
10
0
20
0
30
0
0
VERTEX
8
ARKA_PANE
10
393.021186
20
1173.831978
30
0
42
-0.097946
0
VERTEX
8
ARKA_PANE
10
430.168022
20
1210.978814
30
0
0
VERTEX
8
ARKA_PANE
10
363.268564
20
1326.852073
30
0
42
0.114668
0
VERTEX
8
ARKA_PANE
10
277.147927
20
1240.731436
30
0
0
SEQEND
8
ARKA_PANE
0
POLYLINE
8
ARKA_FRONT_HINGES_3MM
66
1
70
1
10
0
20
0
30
0
0
VERTEX
8
ARKA_FRONT_HINGES_3MM
10
395.693414
20
1163.051563
30
0
42
-0.127661
0
VERTEX
8
ARKA_FRONT_HINGES_3MM
10
440.948437
20
1208.306586
30
0
0
VERTEX
8
ARKA_FRONT_HINGES_3MM
10
366.122377
20
1337.909124
30
0
42
0.129817
0
VERTEX
8
ARKA_FRONT_HINGES_3MM
10
266.090876
20
1237.877623
30
0
0
SEQEND
8
ARKA_FRONT_HINGES_3MM
0
POLYLINE
8
ARKA_OUTLINE
66
1
70
1
10
0
20
0
30
0
0
VERTEX
8
ARKA_OUTLINE
10
368.566109
20
1109.5
30
0
42
-0.091071
0
VERTEX
8
ARKA_OUTLINE
10
381.411771
20
1157.440666
30
0
0
VERTEX
8
ARKA_OUTLINE
10
268.945866
20
1222.372887
30
0
42
0.110746
0
VERTEX
8
ARKA_OUTLINE
10
238.701667
20
1109.5
30
0
0
SEQEND
8
ARKA_OUTLINE
0
POLYLINE
8
ARKA_PANE
66
1
70
1
10
0
20
0
30
0
0
VERTEX
8
ARKA_PANE
10
370.4245
20
1107.5
30
0
42
-0.097946
0
VERTEX
8
ARKA_PANE
10
384.021186
20
1158.243521
30
0
0
VERTEX
8
ARKA_PANE
10
268.147927
20
1225.142978
30
0
42
0.114668
0
VERTEX
8
ARKA_PANE
10
236.625586
20
1107.5
30
0
0
SEQEND
8
ARKA_PANE
0
POLYLINE
8
ARKA_FRONT_HINGES_3MM
66
1
70
1
10
0
20
0
30
0
0
VERTEX
8
ARKA_FRONT_HINGES_3MM
10
378.128925
20
1099.5
30
0
42
-0.127661
0
VERTEX
8
ARKA_FRONT_HINGES_3MM
10
394.693414
20
1161.319512
30
0
0
VERTEX
8
ARKA_FRONT_HINGES_3MM
10
265.090876
20
1236.145572
30
0
42
0.129817
0
VERTEX
8
ARKA_FRONT_HINGES_3MM
10
228.476805
20
1099.5
30
0
0
SEQEND
8
ARKA_FRONT_HINGES_3MM
0
POLYLINE
8
ARKA_MITRE
66
1
70
0
10
0
20
0
30
0
0
VERTEX
8
ARKA_MITRE
10
2.5
20
17.5
30
0
0
VERTEX
8
ARKA_MITRE
10
2.5
20
2.5
30
0
0
VERTEX
8
ARKA_MITRE
10
17.5
20
2.5
30
0
0
SEQEND
8
ARKA_MITRE
0
POLYLINE
8
ARKA_MITRE
66
1
70
0
10
0
20
0
30
0
0
VERTEX
8
ARKA_MITRE
10
211.475
20
2.5
30
0
0
VERTEX
8
ARKA_MITRE
10
226.475
20
2.5
30
0
0
VERTEX
8
ARKA_MITRE
10
226.475
20
17.5
30
0
0
SEQEND
8
ARKA_MITRE
0
POLYLINE
8
ARKA_MITRE
66
1
70
0
10
0
20
0
30
0
0
VERTEX
8
ARKA_MITRE
10
226.475
20
1082.5
30
0
0
VERTEX
8
ARKA_MITRE
10
226.475
20
1097.5
30
0
0
VERTEX
8
ARKA_MITRE
10
211.475
20
1097.5
30
0
0
SEQEND
8
ARKA_MITRE
0
POLYLINE
8
ARKA_MITRE
66
1
70
0
10
0
20
0
30
0
0
VERTEX
8
ARKA_MITRE
10
17.5
20
1097.5
30
0
0
VERTEX
8
ARKA_MITRE
10
2.5
20
1097.5
30
0
0
VERTEX
8
ARKA_MITRE
10
2.5
20
1082.5
30
0
0
SEQEND
8
ARKA_MITRE
0
POLYLINE
8
ARKA_MITRE
66
1
70
0
10
0
20
0
30
0
0
VERTEX
8
ARKA_MITRE
10
228.475
20
17.5
30
0
0
VERTEX
8
ARKA_MITRE
10
228.475
20
2.5
30
0
0
VERTEX
8
ARKA_MITRE
10
243.475
20
2.5
30
0
0
SEQEND
8
ARKA_MITRE
0
POLYLINE
8
ARKA_MITRE
66
1
70
0
10
0
20
0
30
0
0
VERTEX
8
ARKA_MITRE
10
363.125
20
2.5
30
0
0
VERTEX
8
ARKA_MITRE
10
378.125
20
2.5
30
0
0
VERTEX
8
ARKA_MITRE
10
378.125
20
17.5
30
0
0
SEQEND
8
ARKA_MITRE
0
POLYLINE
8
ARKA_MITRE
66
1
70
0
10
0
20
0
30
0
0
VERTEX
8
ARKA_MITRE
10
378.125
20
1082.5
30
0
0
VERTEX
8
ARKA_MITRE
10
378.125
20
1097.5
30
0
0
VERTEX
8
ARKA_MITRE
10
363.125
20
1097.5
30
0
0
SEQEND
8
ARKA_MITRE
0
POLYLINE
8
ARKA_MITRE
66
1
70
0
10
0
20
0
30
0
0
VERTEX
8
ARKA_MITRE
10
243.475
20
1097.5
30
0
0
VERTEX
8
ARKA_MITRE
10
228.475
20
1097.5
30
0
0
VERTEX
8
ARKA_MITRE
10
228.475
20
1082.5
30
0
0
SEQEND
8
ARKA_MITRE
0
POLYLINE
8
ARKA_MITRE
66
1
70
0
10
0
20
0
30
0
0
VERTEX
8
ARKA_MITRE
10
380.125
20
17.5
30
0
0
VERTEX
8
ARKA_MITRE
10
380.125
20
2.5
30
0
0
VERTEX
8
ARKA_MITRE
10
395.125
20
2.5
30
0
0
SEQEND
8
ARKA_MITRE
0
POLYLINE
8
ARKA_MITRE
66
1
70
0
10
0
20
0
30
0
0
VERTEX
8
ARKA_MITRE
10
615.875
20
2.5
30
0
0
VERTEX
8
ARKA_MITRE
10
630.875
20
2.5
30
0
0
VERTEX
8
ARKA_MITRE
10
630.875
20
17.5
30
0
0
SEQEND
8
ARKA_MITRE
0
POLYLINE
8
ARKA_MITRE
66
1
70
0
10
0
20
0
30
0
0
VERTEX
8
ARKA_MITRE
10
632.875
20
17.5
30
0
0
VERTEX
8
ARKA_MITRE
10
632.875
20
2.5
30
0
0
VERTEX
8
ARKA_MITRE
10
647.875
20
2.5
30
0
0
SEQEND
8
ARKA_MITRE
0
POLYLINE
8
ARKA_MITRE
66
1
70
0
10
0
20
0
30
0
0
VERTEX
8
ARKA_MITRE
10
767.525
20
2.5
30
0
0
VERTEX
8
ARKA_MITRE
10
782.525
20
2.5
30
0
0
VERTEX
8
ARKA_MITRE
10
782.525
20
17.5
30
0
0
SEQEND
8
ARKA_MITRE
0
POLYLINE
8
ARKA_MITRE
66
1
70
0
10
0
20
0
30
0
0
VERTEX
8
ARKA_MITRE
10
782.525
20
1082.5
30
0
0
VERTEX
8
ARKA_MITRE
10
782.525
20
1097.5
30
0
0
VERTEX
8
ARKA_MITRE
10
767.525
20
1097.5
30
0
0
SEQEND
8
ARKA_MITRE
0
POLYLINE
8
ARKA_MITRE
66
1
70
0
10
0
20
0
30
0
0
VERTEX
8
ARKA_MITRE
10
647.875
20
1097.5
30
0
0
VERTEX
8
ARKA_MITRE
10
632.875
20
1097.5
30
0
0
VERTEX
8
ARKA_MITRE
10
632.875
20
1082.5
30
0
0
SEQEND
8
ARKA_MITRE
0
POLYLINE
8
ARKA_MITRE
66
1
70
0
10
0
20
0
30
0
0
VERTEX
8
ARKA_MITRE
10
784.525
20
17.5
30
0
0
VERTEX
8
ARKA_MITRE
10
784.525
20
2.5
30
0
0
VERTEX
8
ARKA_MITRE
10
799.525
20
2.5
30
0
0
SEQEND
8
ARKA_MITRE
0
POLYLINE
8
ARKA_MITRE
66
1
70
0
10
0
20
0
30
0
0
VERTEX
8
ARKA_MITRE
10
993.5
20
2.5
30
0
0
VERTEX
8
ARKA_MITRE
10
1008.5
20
2.5
30
0
0
VERTEX
8
ARKA_MITRE
10
1008.5
20
17.5
30
0
0
SEQEND
8
ARKA_MITRE
0
POLYLINE
8
ARKA_MITRE
66
1
70
0
10
0
20
0
30
0
0
VERTEX
8
ARKA_MITRE
10
1008.5
20
1082.5
30
0
0
VERTEX
8
ARKA_MITRE
10
1008.5
20
1097.5
30
0
0
VERTEX
8
ARKA_MITRE
10
993.5
20
1097.5
30
0
0
SEQEND
8
ARKA_MITRE
0
POLYLINE
8
ARKA_MITRE
66
1
70
0
10
0
20
0
30
0
0
VERTEX
8
ARKA_MITRE
10
799.525
20
1097.5
30
0
0
VERTEX
8
ARKA_MITRE
10
784.525
20
1097.5
30
0
0
VERTEX
8
ARKA_MITRE
10
784.525
20
1082.5
30
0
0
SEQEND
8
ARKA_MITRE
0
POLYLINE
8
ARKA_MITRE
66
1
70
0
10
0
20
0
30
0
0
VERTEX
8
ARKA_MITRE
10
993.499006
20
1099.5
30
0
0
VERTEX
8
ARKA_MITRE
10
1008.499006
20
1099.5
30
0
42
0.007455
0
VERTEX
8
ARKA_MITRE
10
1008.245548
20
1114.497303
30
0
0
SEQEND
8
ARKA_MITRE
0
POLYLINE
8
ARKA_MITRE
66
1
70
0
10
0
20
0
30
0
0
VERTEX
8
ARKA_MITRE
10
948.889068
20
1336.018704
30
0
42
0.007455
0
VERTEX
8
ARKA_MITRE
10
941.609917
20
1349.133478
30
0
0
VERTEX
8
ARKA_MITRE
10
928.619536
20
1341.633478
30
0
0
SEQEND
8
ARKA_MITRE
0
POLYLINE
8
ARKA_MITRE
66
1
70
0
10
0
20
0
30
0
0
VERTEX
8
ARKA_MITRE
10
760.631567
20
1244.645579
30
0
0
VERTEX
8
ARKA_MITRE
10
747.641186
20
1237.145579
30
0
42
-0.01344
0
VERTEX
8
ARKA_MITRE
10
754.741184
20
1223.934377
30
0
0
SEQEND
8
ARKA_MITRE
0
POLYLINE
8
ARKA_MITRE
66
1
70
0
10
0
20
0
30
0
0
VERTEX
8
ARKA_MITRE
10
784.066385
20
1114.491235
30
0
42
-0.01344
0
VERTEX
8
ARKA_MITRE
10
784.523208
20
1099.5
30
0
0
VERTEX
8
ARKA_MITRE
10
799.523208
20
1099.5
30
0
0
SEQEND
8
ARKA_MITRE
0
POLYLINE
8
ARKA_MITRE
66
1
70
0
10
0
20
0
30
0
0
VERTEX
8
ARKA_MITRE
10
927.619536
20
1343.365528
30
0
0
VERTEX
8
ARKA_MITRE
10
940.609917
20
1350.865528
30
0
42
0.007455
0
VERTEX
8
ARKA_MITRE
10
932.891765
20
1363.726845
30
0
0
SEQEND
8
ARKA_MITRE
0
POLYLINE
8
ARKA_MITRE
66
1
70
0
10
0
20
0
30
0
0
VERTEX
8
ARKA_MITRE
10
770.726845
20
1525.891765
30
0
42
0.007455
0
VERTEX
8
ARKA_MITRE
10
757.865528
20
1533.609917
30
0
0
VERTEX
8
ARKA_MITRE
10
750.365528
20
1520.619536
30
0
0
SEQEND
8
ARKA_MITRE
0
POLYLINE
8
ARKA_MITRE
66
1
70
0
10
0
20
0
30
0
0
VERTEX
8
ARKA_MITRE
10
653.377629
20
1352.631567
30
0
0
VERTEX
8
ARKA_MITRE
10
645.877629
20
1339.641186
30
0
42
-0.01344
0
VERTEX
8
ARKA_MITRE
10
658.632009
20
1331.749949
30
0
0
SEQEND
8
ARKA_MITRE
0
POLYLINE
8
ARKA_MITRE
66
1
70
0
10
0
20
0
30
0
0
VERTEX
8
ARKA_MITRE
10
738.749949
20
1251.632009
30
0
42
-0.01344
0
VERTEX
8
ARKA_MITRE
10
746.641186
20
1238.877629
30
0
0
VERTEX
8
ARKA_MITRE
10
759.631567
20
1246.377629
30
0
0
SEQEND
8
ARKA_MITRE
0
POLYLINE
8
ARKA_MITRE
66
1
70
0
10
0
20
0
30
0
0
VERTEX
8
ARKA_MITRE
10
748.633478
20
1521.619536
30
0
0
VERTEX
8
ARKA_MITRE
10
756.133478
20
1534.609917
30
0
42
0.007455
0
VERTEX
8
ARKA_MITRE
10
743.018704
20
1541.889068
30
0
0
SEQEND
8
ARKA_MITRE
0
POLYLINE
8
ARKA_MITRE
66
1
70
0
10
0
20
0
30
0
0
VERTEX
8
ARKA_MITRE
10
521.497303
20
1601.245548
30
0
42
0.007455
0
VERTEX
8
ARKA_MITRE
10
506.5
20
1601.499006
30
0
0
VERTEX
8
ARKA_MITRE
10
506.5
20
1586.499006
30
0
0
SEQEND
8
ARKA_MITRE
0
POLYLINE
8
ARKA_MITRE
66
1
70
0
10
0
20
0
30
0
0
VERTEX
8
ARKA_MITRE
10
506.5
20
1392.523208
30
0
0
VERTEX
8
ARKA_MITRE
10
506.5
20
1377.523208
30
0
42
-0.01344
0
VERTEX
8
ARKA_MITRE
10
521.491235
20
1377.066385
30
0
0
SEQEND
8
ARKA_MITRE
0
POLYLINE
8
ARKA_MITRE
66
1
70
0
10
0
20
0
30
0
0
VERTEX
8
ARKA_MITRE
10
630.934377
20
1347.741184
30
0
42
-0.01344
0
VERTEX
8
ARKA_MITRE
10
644.145579
20
1340.641186
30
0
0
VERTEX
8
ARKA_MITRE
10
651.645579
20
1353.631567
30
0
0
SEQEND
8
ARKA_MITRE
0
POLYLINE
8
ARKA_MITRE
66
1
70
0
10
0
20
0
30
0
0
VERTEX
8
ARKA_MITRE
10
504.5
20
1586.499006
30
0
0
VERTEX
8
ARKA_MITRE
10
504.5
20
1601.499006
30
0
42
0.007455
0
VERTEX
8
ARKA_MITRE
10
489.502697
20
1601.245548
30
0
0
SEQEND
8
ARKA_MITRE
0
POLYLINE
8
ARKA_MITRE
66
1
70
0
10
0
20
0
30
0
0
VERTEX
8
ARKA_MITRE
10
267.981296
20
1541.889068
30
0
42
0.007455
0
VERTEX
8
ARKA_MITRE
10
254.866522
20
1534.609917
30
0
0
VERTEX
8
ARKA_MITRE
10
262.366522
20
1521.619536
30
0
0
SEQEND
8
ARKA_MITRE
0
POLYLINE
8
ARKA_MITRE
66
1
70
0
10
0
20
0
30
0
0
VERTEX
8
ARKA_MITRE
10
359.354421
20
1353.631567
30
0
0
VERTEX
8
ARKA_MITRE
10
366.854421
20
1340.641186
30
0
42
-0.01344
0
VERTEX
8
ARKA_MITRE
10
380.065623
20
1347.741184
30
0
0
SEQEND
8
ARKA_MITRE
0
POLYLINE
8
ARKA_MITRE
66
1
70
0
10
0
20
0
30
0
0
VERTEX
8
ARKA_MITRE
10
489.508765
20
1377.066385
30
0
42
-0.01344
0
VERTEX
8
ARKA_MITRE
10
504.5
20
1377.523208
30
0
0
VERTEX
8
ARKA_MITRE
10
504.5
20
1392.523208
30
0
0
SEQEND
8
ARKA_MITRE
0
POLYLINE
8
ARKA_MITRE
66
1
70
0
10
0
20
0
30
0
0
VERTEX
8
ARKA_MITRE
10
260.634472
20
1520.619536
30
0
0
VERTEX
8
ARKA_MITRE
10
253.134472
20
1533.609917
30
0
42
0.007455
0
VERTEX
8
ARKA_MITRE
10
240.273155
20
1525.891765
30
0
0
SEQEND
8
ARKA_MITRE
0
POLYLINE
8
ARKA_MITRE
66
1
70
0
10
0
20
0
30
0
0
VERTEX
8
ARKA_MITRE
10
78.108235
20
1363.726845
30
0
42
0.007455
0
VERTEX
8
ARKA_MITRE
10
70.390083
20
1350.865528
30
0
0
VERTEX
8
ARKA_MITRE
10
83.380464
20
1343.365528
30
0
0
SEQEND
8
ARKA_MITRE
0
POLYLINE
8
ARKA_MITRE
66
1
70
0
10
0
20
0
30
0
0
VERTEX
8
ARKA_MITRE
10
251.368433
20
1246.377629
30
0
0
VERTEX
8
ARKA_MITRE
10
264.358814
20
1238.877629
30
0
42
-0.01344
0
VERTEX
8
ARKA_MITRE
10
272.250051
20
1251.632009
30
0
0
SEQEND
8
ARKA_MITRE
0
POLYLINE
8
ARKA_MITRE
66
1
70
0
10
0
20
0
30
0
0
VERTEX
8
ARKA_MITRE
10
352.367991
20
1331.749949
30
0
42
-0.01344
0
VERTEX
8
ARKA_MITRE
10
365.122371
20
1339.641186
30
0
0
VERTEX
8
ARKA_MITRE
10
357.622371
20
1352.631567
30
0
0
SEQEND
8
ARKA_MITRE
0
POLYLINE
8
ARKA_MITRE
66
1
70
0
10
0
20
0
30
0
0
VERTEX
8
ARKA_MITRE
10
82.380464
20
1341.633478
30
0
0
VERTEX
8
ARKA_MITRE
10
69.390083
20
1349.133478
30
0
42
0.007455
0
VERTEX
8
ARKA_MITRE
10
62.110932
20
1336.018704
30
0
0
SEQEND
8
ARKA_MITRE
0
POLYLINE
8
ARKA_MITRE
66
1
70
0
10
0
20
0
30
0
0
VERTEX
8
ARKA_MITRE
10
2.754452
20
1114.497303
30
0
42
0.007455
0
VERTEX
8
ARKA_MITRE
10
2.500994
20
1099.5
30
0
0
VERTEX
8
ARKA_MITRE
10
17.500994
20
1099.5
30
0
0
SEQEND
8
ARKA_MITRE
0
POLYLINE
8
ARKA_MITRE
66
1
70
0
10
0
20
0
30
0
0
VERTEX
8
ARKA_MITRE
10
211.476792
20
1099.5
30
0
0
VERTEX
8
ARKA_MITRE
10
226.476792
20
1099.5
30
0
42
-0.01344
0
VERTEX
8
ARKA_MITRE
10
226.933615
20
1114.491235
30
0
0
SEQEND
8
ARKA_MITRE
0
POLYLINE
8
ARKA_MITRE
66
1
70
0
10
0
20
0
30
0
0
VERTEX
8
ARKA_MITRE
10
256.258816
20
1223.934377
30
0
42
-0.01344
0
VERTEX
8
ARKA_MITRE
10
263.358814
20
1237.145579
30
0
0
VERTEX
8
ARKA_MITRE
10
250.368433
20
1244.645579
30
0
0
SEQEND
8
ARKA_MITRE
0
POLYLINE
8
ARKA_MITRE
66
1
70
0
10
0
20
0
30
0
0
VERTEX
8
ARKA_MITRE
10
629.296967
20
1168.819512
30
0
0
VERTEX
8
ARKA_MITRE
10
616.306586
20
1161.319512
30
0
42
-0.029449
0
VERTEX
8
ARKA_MITRE
10
622.919837
20
1147.865702
30
0
0
SEQEND
8
ARKA_MITRE
0
POLYLINE
8
ARKA_MITRE
66
1
70
0
10
0
20
0
30
0
0
VERTEX
8
ARKA_MITRE
10
631.871413
20
1114.457967
30
0
42
-0.029449
0
VERTEX
8
ARKA_MITRE
10
632.871075
20
1099.5
30
0
0
VERTEX
8
ARKA_MITRE
10
647.871075
20
1099.5
30
0
0
SEQEND
8
ARKA_MITRE
0
POLYLINE
8
ARKA_MITRE
66
1
70
0
10
0
20
0
30
0
0
VERTEX
8
ARKA_MITRE
10
767.523195
20
1099.5
30
0
0
VERTEX
8
ARKA_MITRE
10
782.523195
20
1099.5
30
0
42
0.013538
0
VERTEX
8
ARKA_MITRE
10
782.063076
20
1114.491108
30
0
0
SEQEND
8
ARKA_MITRE
0
POLYLINE
8
ARKA_MITRE
66
1
70
0
10
0
20
0
30
0
0
VERTEX
8
ARKA_MITRE
10
753.006204
20
1222.932832
30
0
42
0.013538
0
VERTEX
8
ARKA_MITRE
10
745.909124
20
1236.145572
30
0
0
VERTEX
8
ARKA_MITRE
10
732.918743
20
1228.645572
30
0
0
SEQEND
8
ARKA_MITRE
0
POLYLINE
8
ARKA_MITRE
66
1
70
0
10
0
20
0
30
0
0
VERTEX
8
ARKA_MITRE
10
577.551563
20
1221.296967
30
0
0
VERTEX
8
ARKA_MITRE
10
570.051563
20
1208.306586
30
0
42
-0.029449
0
VERTEX
8
ARKA_MITRE
10
582.505711
20
1199.96187
30
0
0
SEQEND
8
ARKA_MITRE
0
POLYLINE
8
ARKA_MITRE
66
1
70
0
10
0
20
0
30
0
0
VERTEX
8
ARKA_MITRE
10
606.96187
20
1175.505711
30
0
42
-0.029449
0
VERTEX
8
ARKA_MITRE
10
615.306586
20
1163.051563
30
0
0
VERTEX
8
ARKA_MITRE
10
628.296967
20
1170.551563
30
0
0
SEQEND
8
ARKA_MITRE
0
POLYLINE
8
ARKA_MITRE
66
1
70
0
10
0
20
0
30
0
0
VERTEX
8
ARKA_MITRE
10
731.918743
20
1230.377623
30
0
0
VERTEX
8
ARKA_MITRE
10
744.909124
20
1237.877623
30
0
42
0.013538
0
VERTEX
8
ARKA_MITRE
10
737.015096
20
1250.630244
30
0
0
SEQEND
8
ARKA_MITRE
0
POLYLINE
8
ARKA_MITRE
66
1
70
0
10
0
20
0
30
0
0
VERTEX
8
ARKA_MITRE
10
657.630244
20
1330.015096
30
0
42
0.013538
0
VERTEX
8
ARKA_MITRE
10
644.877623
20
1337.909124
30
0
0
VERTEX
8
ARKA_MITRE
10
637.377623
20
1324.918743
30
0
0
SEQEND
8
ARKA_MITRE
0
POLYLINE
8
ARKA_MITRE
66
1
70
0
10
0
20
0
30
0
0
VERTEX
8
ARKA_MITRE
10
506.5
20
1240.871075
30
0
0
VERTEX
8
ARKA_MITRE
10
506.5
20
1225.871075
30
0
42
-0.029449
0
VERTEX
8
ARKA_MITRE
10
521.457967
20
1224.871413
30
0
0
SEQEND
8
ARKA_MITRE
0
POLYLINE
8
ARKA_MITRE
66
1
70
0
10
0
20
0
30
0
0
VERTEX
8
ARKA_MITRE
10
554.865702
20
1215.919837
30
0
42
-0.029449
0
VERTEX
8
ARKA_MITRE
10
568.319512
20
1209.306586
30
0
0
VERTEX
8
ARKA_MITRE
10
575.819512
20
1222.296967
30
0
0
SEQEND
8
ARKA_MITRE
0
POLYLINE
8
ARKA_MITRE
66
1
70
0
10
0
20
0
30
0
0
VERTEX
8
ARKA_MITRE
10
635.645572
20
1325.918743
30
0
0
VERTEX
8
ARKA_MITRE
10
643.145572
20
1338.909124
30
0
42
0.013538
0
VERTEX
8
ARKA_MITRE
10
629.932832
20
1346.006204
30
0
0
SEQEND
8
ARKA_MITRE
0
POLYLINE
8
ARKA_MITRE
66
1
70
0
10
0
20
0
30
0
0
VERTEX
8
ARKA_MITRE
10
521.491108
20
1375.063076
30
0
42
0.013538
0
VERTEX
8
ARKA_MITRE
10
506.5
20
1375.523195
30
0
0
VERTEX
8
ARKA_MITRE
10
506.5
20
1360.523195
30
0
0
SEQEND
8
ARKA_MITRE
0
POLYLINE
8
ARKA_MITRE
66
1
70
0
10
0
20
0
30
0
0
VERTEX
8
ARKA_MITRE
10
435.180488
20
1222.296967
30
0
0
VERTEX
8
ARKA_MITRE
10
442.680488
20
1209.306586
30
0
42
-0.029449
0
VERTEX
8
ARKA_MITRE
10
456.134298
20
1215.919837
30
0
0
SEQEND
8
ARKA_MITRE
0
POLYLINE
8
ARKA_MITRE
66
1
70
0
10
0
20
0
30
0
0
VERTEX
8
ARKA_MITRE
10
489.542033
20
1224.871413
30
0
42
-0.029449
0
VERTEX
8
ARKA_MITRE
10
504.5
20
1225.871075
30
0
0
VERTEX
8
ARKA_MITRE
10
504.5
20
1240.871075
30
0
0
SEQEND
8
ARKA_MITRE
0
POLYLINE
8
ARKA_MITRE
66
1
70
0
10
0
20
0
30
0
0
VERTEX
8
ARKA_MITRE
10
504.5
20
1360.523195
30
0
0
VERTEX
8
ARKA_MITRE
10
504.5
20
1375.523195
30
0
42
0.013538
0
VERTEX
8
ARKA_MITRE
10
489.508892
20
1375.063076
30
0
0
SEQEND
8
ARKA_MITRE
0
POLYLINE
8
ARKA_MITRE
66
1
70
0
10
0
20
0
30
0
0
VERTEX
8
ARKA_MITRE
10
381.067168
20
1346.006204
30
0
42
0.013538
0
VERTEX
8
ARKA_MITRE
10
367.854428
20
1338.909124
30
0
0
VERTEX
8
ARKA_MITRE
10
375.354428
20
1325.918743
30
0
0
SEQEND
8
ARKA_MITRE
0
POLYLINE
8
ARKA_MITRE
66
1
70
0
10
0
20
0
30
0
0
VERTEX
8
ARKA_MITRE
10
382.703033
20
1170.551563
30
0
0
VERTEX
8
ARKA_MITRE
10
395.693414
20
1163.051563
30
0
42
-0.029449
0
VERTEX
8
ARKA_MITRE
10
404.03813
20
1175.505711
30
0
0
SEQEND
8
ARKA_MITRE
0
POLYLINE
8
ARKA_MITRE
66
1
70
0
10
0
20
0
30
0
0
VERTEX
8
ARKA_MITRE
10
428.494289
20
1199.96187
30
0
42
-0.029449
0
VERTEX
8
ARKA_MITRE
10
440.948437
20
1208.306586
30
0
0
VERTEX
8
ARKA_MITRE
10
433.448437
20
1221.296967
30
0
0
SEQEND
8
ARKA_MITRE
0
POLYLINE
8
ARKA_MITRE
66
1
70
0
10
0
20
0
30
0
0
VERTEX
8
ARKA_MITRE
10
373.622377
20
1324.918743
30
0
0
VERTEX
8
ARKA_MITRE
10
366.122377
20
1337.909124
30
0
42
0.013538
0
VERTEX
8
ARKA_MITRE
10
353.369756
20
1330.015096
30
0
0
SEQEND
8
ARKA_MITRE
0
POLYLINE
8
ARKA_MITRE
66
1
70
0
10
0
20
0
30
0
0
VERTEX
8
ARKA_MITRE
10
273.984904
20
1250.630244
30
0
42
0.013538
0
VERTEX
8
ARKA_MITRE
10
266.090876
20
1237.877623
30
0
0
VERTEX
8
ARKA_MITRE
10
279.081257
20
1230.377623
30
0
0
SEQEND
8
ARKA_MITRE
0
POLYLINE
8
ARKA_MITRE
66
1
70
0
10
0
20
0
30
0
0
VERTEX
8
ARKA_MITRE
10
363.128925
20
1099.5
30
0
0
VERTEX
8
ARKA_MITRE
10
378.128925
20
1099.5
30
0
42
-0.029449
0
VERTEX
8
ARKA_MITRE
10
379.128587
20
1114.457967
30
0
0
SEQEND
8
ARKA_MITRE
0
POLYLINE
8
ARKA_MITRE
66
1
70
0
10
0
20
0
30
0
0
VERTEX
8
ARKA_MITRE
10
388.080163
20
1147.865702
30
0
42
-0.029449
0
VERTEX
8
ARKA_MITRE
10
394.693414
20
1161.319512
30
0
0
VERTEX
8
ARKA_MITRE
10
381.703033
20
1168.819512
30
0
0
SEQEND
8
ARKA_MITRE
0
POLYLINE
8
ARKA_MITRE
66
1
70
0
10
0
20
0
30
0
0
VERTEX
8
ARKA_MITRE
10
278.081257
20
1228.645572
30
0
0
VERTEX
8
ARKA_MITRE
10
265.090876
20
1236.145572
30
0
42
0.013538
0
VERTEX
8
ARKA_MITRE
10
257.993796
20
1222.932832
30
0
0
SEQEND
8
ARKA_MITRE
0
POLYLINE
8
ARKA_MITRE
66
1
70
0
10
0
20
0
30
0
0
VERTEX
8
ARKA_MITRE
10
228.936924
20
1114.491108
30
0
42
0.013538
0
VERTEX
8
ARKA_MITRE
10
228.476805
20
1099.5
30
0
0
VERTEX
8
ARKA_MITRE
10
243.476805
20
1099.5
30
0
0
SEQEND
8
ARKA_MITRE
0
POINT
8
ARKA_CENTRE
10
505.5
20
1098.5
30
0
0
POLYLINE
8
ARKA_SECTION
66
1
70
0
10
0
20
0
30
0
0
VERTEX
8
ARKA_SECTION
10
1116.5
20
-5.5
30
0
42
-0.414214
0
VERTEX
8
ARKA_SECTION
10
1124.5
20
2.5
30
0
0
VERTEX
8
ARKA_SECTION
10
1124.5
20
8.5
30
0
0
SEQEND
8
ARKA_SECTION
0
TEXT
8
ARKA_INFO_NO_CUT
10
1112.5
20
-24.5
30
0
40
15
1
START
72
0
11
1112.5
21
-24.5
31
0
73
0
0
TEXT
8
ARKA_INFO_NO_CUT
10
1136.5
20
-1.5
30
0
40
15
1
SECTION R8 + 6 (VERBATIM)
72
0
11
1136.5
21
-1.5
31
0
73
0
0
TEXT
8
ARKA_INFO_NO_CUT
10
1116.5
20
1587.5
30
0
40
15
1
custom - TRACERY FULL
72
0
11
1116.5
21
1587.5
31
0
73
0
0
TEXT
8
ARKA_INFO_NO_CUT
10
1116.5
20
1565.5
30
0
40
15
1
PATTERN CUSTOM SPOKES 14 RINGS 2 PANES 17
72
0
11
1116.5
21
1565.5
31
0
73
0
0
TEXT
8
ARKA_INFO_NO_CUT
10
1116.5
20
1543.5
30
0
40
15
1
TIMBER BAR 22 EDGE MARGIN 18 PANE +2 LIMIT +10 MITRE LEG 15
72
0
11
1116.5
21
1543.5
31
0
73
0
0
TEXT
8
ARKA_INFO_NO_CUT
10
1116.5
20
1521.5
30
0
40
15
1
ARKA_PANE = MOULDING RAIL (INNER EDGE OF THE BEAD), ARKA_FRONT_HINGES_3MM = BEAD LIMIT (NOT DRILLING)
72
0
11
1116.5
21
1521.5
31
0
73
0
0
TEXT
8
ARKA_INFO_NO_CUT
10
1116.5
20
1499.5
30
0
40
15
1
NOT A TOOLPATH
72
0
11
1116.5
21
1499.5
31
0
73
0
0
ENDSEC
0
EOF
