0
SECTION
2
HEADER
9
$ACADVER
1
AC1009
0
ENDSEC
0
SECTION
2
TABLES
0
TABLE
2
LAYER
70
7
0
LAYER
2
0
70
0
62
7
6
CONTINUOUS
0
LAYER
2
FIT
70
0
62
4
6
CONTINUOUS
0
LAYER
2
CONTOUR
70
0
62
7
6
CONTINUOUS
0
LAYER
2
ASSEMBLY
70
0
62
8
6
CONTINUOUS
0
LAYER
2
PIECES
70
0
62
5
6
CONTINUOUS
0
LAYER
2
FINGER
70
0
62
1
6
CONTINUOUS
0
LAYER
2
TEXT
70
0
62
94
6
CONTINUOUS
0
ENDTAB
0
ENDSEC
0
SECTION
2
ENTITIES
0
POLYLINE
8
ASSEMBLY
66
1
70
1
10
0
20
0
30
0
0
VERTEX
8
ASSEMBLY
10
0
20
0
30
0
0
VERTEX
8
ASSEMBLY
10
362.719608
20
0
30
0
0
VERTEX
8
ASSEMBLY
10
362.719608
20
105
30
0
0
VERTEX
8
ASSEMBLY
10
0
20
105
30
0
0
SEQEND
8
ASSEMBLY
0
POLYLINE
8
PIECES
66
1
70
1
10
0
20
0
30
0
0
VERTEX
8
PIECES
10
360.69327
20
76.405245
30
0
42
0.102379
0
VERTEX
8
PIECES
10
17.026338
20
76.405245
30
0
0
VERTEX
8
PIECES
10
30.602803
20
10.795188
30
0
42
-0.102379
0
VERTEX
8
PIECES
10
347.116805
20
10.795188
30
0
0
SEQEND
8
PIECES
0
POLYLINE
8
FINGER
66
1
70
0
10
0
20
0
30
0
0
VERTEX
8
FINGER
10
30.602803
20
10.795188
30
0
0
VERTEX
8
FINGER
10
17.026338
20
76.405245
30
0
0
SEQEND
8
FINGER
0
POLYLINE
8
FINGER
66
1
70
0
10
0
20
0
30
0
0
VERTEX
8
FINGER
10
16
20
0
30
0
0
VERTEX
8
FINGER
10
16
20
105
30
0
0
SEQEND
8
FINGER
0
TEXT
8
TEXT
10
181.359804
20
62.5
30
0
40
15
1
T - LEAF TOP P1 L362.7 x105
72
1
11
181.359804
21
62.5
31
0
73
2
0
TEXT
8
TEXT
10
181.359804
20
10
30
0
40
10
1
OUT 347.7 IN 312.5 CUT J11.7/S78.3 FINGER ONE END
72
1
11
181.359804
21
10
31
0
73
2
0
POLYLINE
8
ASSEMBLY
66
1
70
1
10
0
20
0
30
0
0
VERTEX
8
ASSEMBLY
10
562.719608
20
0
30
0
0
VERTEX
8
ASSEMBLY
10
940.439217
20
0
30
0
0
VERTEX
8
ASSEMBLY
10
940.439217
20
105
30
0
0
VERTEX
8
ASSEMBLY
10
562.719608
20
105
30
0
0
SEQEND
8
ASSEMBLY
0
POLYLINE
8
PIECES
66
1
70
1
10
0
20
0
30
0
0
VERTEX
8
PIECES
10
923.412879
20
76.405245
30
0
42
0.102379
0
VERTEX
8
PIECES
10
579.745946
20
76.405245
30
0
0
VERTEX
8
PIECES
10
593.322411
20
10.795188
30
0
42
-0.102379
0
VERTEX
8
PIECES
10
909.836414
20
10.795188
30
0
0
SEQEND
8
PIECES
0
POLYLINE
8
FINGER
66
1
70
0
10
0
20
0
30
0
0
VERTEX
8
FINGER
10
909.836414
20
10.795188
30
0
0
VERTEX
8
FINGER
10
923.412879
20
76.405245
30
0
0
SEQEND
8
FINGER
0
POLYLINE
8
FINGER
66
1
70
0
10
0
20
0
30
0
0
VERTEX
8
FINGER
10
593.322411
20
10.795188
30
0
0
VERTEX
8
FINGER
10
579.745946
20
76.405245
30
0
0
SEQEND
8
FINGER
0
POLYLINE
8
FINGER
66
1
70
0
10
0
20
0
30
0
0
VERTEX
8
FINGER
10
578.719608
20
0
30
0
0
VERTEX
8
FINGER
10
578.719608
20
105
30
0
0
SEQEND
8
FINGER
0
POLYLINE
8
FINGER
66
1
70
0
10
0
20
0
30
0
0
VERTEX
8
FINGER
10
924.439217
20
0
30
0
0
VERTEX
8
FINGER
10
924.439217
20
105
30
0
0
SEQEND
8
FINGER
0
TEXT
8
TEXT
10
751.579413
20
62.5
30
0
40
15
1
T - LEAF TOP P2 L377.7 x105
72
1
11
751.579413
21
62.5
31
0
73
2
0
TEXT
8
TEXT
10
751.579413
20
10
30
0
40
10
1
OUT 347.7 IN 312.5 CUT J11.7/J11.7 FINGER BOTH ENDS
72
1
11
751.579413
21
10
31
0
73
2
0
POLYLINE
8
ASSEMBLY
66
1
70
1
10
0
20
0
30
0
0
VERTEX
8
ASSEMBLY
10
1140.439217
20
0
30
0
0
VERTEX
8
ASSEMBLY
10
1521.690546
20
0
30
0
0
VERTEX
8
ASSEMBLY
10
1521.690546
20
105
30
0
0
VERTEX
8
ASSEMBLY
10
1140.439217
20
105
30
0
0
SEQEND
8
ASSEMBLY
0
POLYLINE
8
PIECES
66
1
70
1
10
0
20
0
30
0
0
VERTEX
8
PIECES
10
1504.664207
20
76.405245
30
0
42
0.102379
0
VERTEX
8
PIECES
10
1160.997275
20
76.405245
30
0
0
VERTEX
8
PIECES
10
1198.475376
20
15.353995
30
0
42
-0.094514
0
VERTEX
8
PIECES
10
1491.087743
20
10.795188
30
0
0
SEQEND
8
PIECES
0
POLYLINE
8
FINGER
66
1
70
0
10
0
20
0
30
0
0
VERTEX
8
FINGER
10
1491.087743
20
10.795188
30
0
0
VERTEX
8
FINGER
10
1504.664207
20
76.405245
30
0
0
SEQEND
8
FINGER
0
POLYLINE
8
FINGER
66
1
70
0
10
0
20
0
30
0
0
VERTEX
8
FINGER
10
1198.475376
20
15.353995
30
0
0
VERTEX
8
FINGER
10
1160.997275
20
76.405245
30
0
0
SEQEND
8
FINGER
0
POLYLINE
8
FINGER
66
1
70
0
10
0
20
0
30
0
0
VERTEX
8
FINGER
10
1156.439217
20
0
30
0
0
VERTEX
8
FINGER
10
1156.439217
20
105
30
0
0
SEQEND
8
FINGER
0
POLYLINE
8
FINGER
66
1
70
0
10
0
20
0
30
0
0
VERTEX
8
FINGER
10
1505.690546
20
0
30
0
0
VERTEX
8
FINGER
10
1505.690546
20
105
30
0
0
SEQEND
8
FINGER
0
TEXT
8
TEXT
10
1331.064881
20
62.5
30
0
40
15
1
T - LEAF TOP P3 L381.3 x105
72
1
11
1331.064881
21
62.5
31
0
73
2
0
TEXT
8
TEXT
10
1331.064881
20
10
30
0
40
10
1
OUT 351.3 IN 285 CUT A58.5/J11.7 FINGER BOTH ENDS
72
1
11
1331.064881
21
10
31
0
73
2
0
POLYLINE
8
ASSEMBLY
66
1
70
1
10
0
20
0
30
0
0
VERTEX
8
ASSEMBLY
10
1721.690546
20
0
30
0
0
VERTEX
8
ASSEMBLY
10
2102.941874
20
0
30
0
0
VERTEX
8
ASSEMBLY
10
2102.941874
20
105
30
0
0
VERTEX
8
ASSEMBLY
10
1721.690546
20
105
30
0
0
SEQEND
8
ASSEMBLY
0
POLYLINE
8
PIECES
66
1
70
1
10
0
20
0
30
0
0
VERTEX
8
PIECES
10
2082.383816
20
76.405245
30
0
42
0.102379
0
VERTEX
8
PIECES
10
1738.716884
20
76.405245
30
0
0
VERTEX
8
PIECES
10
1752.293348
20
10.795188
30
0
42
-0.094514
0
VERTEX
8
PIECES
10
2044.905715
20
15.353995
30
0
0
SEQEND
8
PIECES
0
POLYLINE
8
FINGER
66
1
70
0
10
0
20
0
30
0
0
VERTEX
8
FINGER
10
2044.905715
20
15.353995
30
0
0
VERTEX
8
FINGER
10
2082.383816
20
76.405245
30
0
0
SEQEND
8
FINGER
0
POLYLINE
8
FINGER
66
1
70
0
10
0
20
0
30
0
0
VERTEX
8
FINGER
10
1752.293348
20
10.795188
30
0
0
VERTEX
8
FINGER
10
1738.716884
20
76.405245
30
0
0
SEQEND
8
FINGER
0
POLYLINE
8
FINGER
66
1
70
0
10
0
20
0
30
0
0
VERTEX
8
FINGER
10
1737.690546
20
0
30
0
0
VERTEX
8
FINGER
10
1737.690546
20
105
30
0
0
SEQEND
8
FINGER
0
POLYLINE
8
FINGER
66
1
70
0
10
0
20
0
30
0
0
VERTEX
8
FINGER
10
2086.941874
20
0
30
0
0
VERTEX
8
FINGER
10
2086.941874
20
105
30
0
0
SEQEND
8
FINGER
0
TEXT
8
TEXT
10
1912.31621
20
62.5
30
0
40
15
1
T - LEAF TOP P4 L381.3 x105
72
1
11
1912.31621
21
62.5
31
0
73
2
0
TEXT
8
TEXT
10
1912.31621
20
10
30
0
40
10
1
OUT 351.3 IN 285 CUT J11.7/A58.5 FINGER BOTH ENDS
72
1
11
1912.31621
21
10
31
0
73
2
0
POLYLINE
8
ASSEMBLY
66
1
70
1
10
0
20
0
30
0
0
VERTEX
8
ASSEMBLY
10
2302.941874
20
0
30
0
0
VERTEX
8
ASSEMBLY
10
2680.661483
20
0
30
0
0
VERTEX
8
ASSEMBLY
10
2680.661483
20
105
30
0
0
VERTEX
8
ASSEMBLY
10
2302.941874
20
105
30
0
0
SEQEND
8
ASSEMBLY
0
POLYLINE
8
PIECES
66
1
70
1
10
0
20
0
30
0
0
VERTEX
8
PIECES
10
2663.635145
20
76.405245
30
0
42
0.102379
0
VERTEX
8
PIECES
10
2319.968212
20
76.405245
30
0
0
VERTEX
8
PIECES
10
2333.544677
20
10.795188
30
0
42
-0.102379
0
VERTEX
8
PIECES
10
2650.05868
20
10.795188
30
0
0
SEQEND
8
PIECES
0
POLYLINE
8
FINGER
66
1
70
0
10
0
20
0
30
0
0
VERTEX
8
FINGER
10
2650.05868
20
10.795188
30
0
0
VERTEX
8
FINGER
10
2663.635145
20
76.405245
30
0
0
SEQEND
8
FINGER
0
POLYLINE
8
FINGER
66
1
70
0
10
0
20
0
30
0
0
VERTEX
8
FINGER
10
2333.544677
20
10.795188
30
0
0
VERTEX
8
FINGER
10
2319.968212
20
76.405245
30
0
0
SEQEND
8
FINGER
0
POLYLINE
8
FINGER
66
1
70
0
10
0
20
0
30
0
0
VERTEX
8
FINGER
10
2318.941874
20
0
30
0
0
VERTEX
8
FINGER
10
2318.941874
20
105
30
0
0
SEQEND
8
FINGER
0
POLYLINE
8
FINGER
66
1
70
0
10
0
20
0
30
0
0
VERTEX
8
FINGER
10
2664.661483
20
0
30
0
0
VERTEX
8
FINGER
10
2664.661483
20
105
30
0
0
SEQEND
8
FINGER
0
TEXT
8
TEXT
10
2491.801678
20
62.5
30
0
40
15
1
T - LEAF TOP P5 L377.7 x105
72
1
11
2491.801678
21
62.5
31
0
73
2
0
TEXT
8
TEXT
10
2491.801678
20
10
30
0
40
10
1
OUT 347.7 IN 312.5 CUT J11.7/J11.7 FINGER BOTH ENDS
72
1
11
2491.801678
21
10
31
0
73
2
0
POLYLINE
8
ASSEMBLY
66
1
70
1
10
0
20
0
30
0
0
VERTEX
8
ASSEMBLY
10
2880.661483
20
0
30
0
0
VERTEX
8
ASSEMBLY
10
3243.381091
20
0
30
0
0
VERTEX
8
ASSEMBLY
10
3243.381091
20
105
30
0
0
VERTEX
8
ASSEMBLY
10
2880.661483
20
105
30
0
0
SEQEND
8
ASSEMBLY
0
POLYLINE
8
PIECES
66
1
70
1
10
0
20
0
30
0
0
VERTEX
8
PIECES
10
3226.354753
20
76.405245
30
0
42
0.102379
0
VERTEX
8
PIECES
10
2882.687821
20
76.405245
30
0
0
VERTEX
8
PIECES
10
2896.264286
20
10.795188
30
0
42
-0.102379
0
VERTEX
8
PIECES
10
3212.778288
20
10.795188
30
0
0
SEQEND
8
PIECES
0
POLYLINE
8
FINGER
66
1
70
0
10
0
20
0
30
0
0
VERTEX
8
FINGER
10
3212.778288
20
10.795188
30
0
0
VERTEX
8
FINGER
10
3226.354753
20
76.405245
30
0
0
SEQEND
8
FINGER
0
POLYLINE
8
FINGER
66
1
70
0
10
0
20
0
30
0
0
VERTEX
8
FINGER
10
3227.381091
20
0
30
0
0
VERTEX
8
FINGER
10
3227.381091
20
105
30
0
0
SEQEND
8
FINGER
0
TEXT
8
TEXT
10
3062.021287
20
62.5
30
0
40
15
1
T - LEAF TOP P6 L362.7 x105
72
1
11
3062.021287
21
62.5
31
0
73
2
0
TEXT
8
TEXT
10
3062.021287
20
10
30
0
40
10
1
OUT 347.7 IN 312.5 CUT S78.3/J11.7 FINGER ONE END
72
1
11
3062.021287
21
10
31
0
73
2
0
POLYLINE
8
CONTOUR
66
1
70
1
10
0
20
0
30
0
0
VERTEX
8
CONTOUR
10
1148.412149
20
322.466586
30
0
42
0.316
0
VERTEX
8
CONTOUR
10
588.412149
20
1120.062976
30
0
42
0.316
0
VERTEX
8
CONTOUR
10
28.412149
20
322.466586
30
0
0
VERTEX
8
CONTOUR
10
95.412149
20
322.466586
30
0
42
-0.307454
0
VERTEX
8
CONTOUR
10
588.412149
20
1048.425952
30
0
42
-0.307454
0
VERTEX
8
CONTOUR
10
1081.412149
20
322.466586
30
0
0
SEQEND
8
CONTOUR
0
POLYLINE
8
ASSEMBLY
66
1
70
1
10
0
20
0
30
0
0
VERTEX
8
ASSEMBLY
10
1074.002567
20
305
30
0
0
VERTEX
8
ASSEMBLY
10
1003.54282
20
645.506021
30
0
0
VERTEX
8
ASSEMBLY
10
1106.364551
20
666.78257
30
0
0
VERTEX
8
ASSEMBLY
10
1176.824298
20
326.276549
30
0
0
SEQEND
8
ASSEMBLY
0
POLYLINE
8
FINGER
66
1
70
0
10
0
20
0
30
0
0
VERTEX
8
FINGER
10
1017.275713
20
632.414374
30
0
0
VERTEX
8
FINGER
10
1078.773611
20
659.004005
30
0
0
SEQEND
8
FINGER
0
POLYLINE
8
ASSEMBLY
66
1
70
1
10
0
20
0
30
0
0
VERTEX
8
ASSEMBLY
10
1017.406405
20
613.441592
30
0
0
VERTEX
8
ASSEMBLY
10
817.599601
20
898.022279
30
0
0
VERTEX
8
ASSEMBLY
10
903.533703
20
958.357428
30
0
0
VERTEX
8
ASSEMBLY
10
1103.340506
20
673.776741
30
0
0
SEQEND
8
ASSEMBLY
0
POLYLINE
8
FINGER
66
1
70
0
10
0
20
0
30
0
0
VERTEX
8
FINGER
10
835.400289
20
891.455769
30
0
0
VERTEX
8
FINGER
10
881.295559
20
940.267901
30
0
0
SEQEND
8
FINGER
0
POLYLINE
8
ASSEMBLY
66
1
70
1
10
0
20
0
30
0
0
VERTEX
8
ASSEMBLY
10
843.04979
20
874.092915
30
0
0
VERTEX
8
ASSEMBLY
10
543.702727
20
1057.855893
30
0
0
VERTEX
8
ASSEMBLY
10
598.635224
20
1147.340086
30
0
0
VERTEX
8
ASSEMBLY
10
897.982287
20
963.577108
30
0
0
SEQEND
8
ASSEMBLY
0
POLYLINE
8
FINGER
66
1
70
0
10
0
20
0
30
0
0
VERTEX
8
FINGER
10
588.412149
20
1048.425952
30
0
0
VERTEX
8
FINGER
10
588.412149
20
1120.062976
30
0
0
SEQEND
8
FINGER
0
POLYLINE
8
ASSEMBLY
66
1
70
1
10
0
20
0
30
0
0
VERTEX
8
ASSEMBLY
10
633.121571
20
1057.855893
30
0
0
VERTEX
8
ASSEMBLY
10
333.774508
20
874.092915
30
0
0
VERTEX
8
ASSEMBLY
10
278.842011
20
963.577108
30
0
0
VERTEX
8
ASSEMBLY
10
578.189074
20
1147.340086
30
0
0
SEQEND
8
ASSEMBLY
0
POLYLINE
8
FINGER
66
1
70
0
10
0
20
0
30
0
0
VERTEX
8
FINGER
10
588.412149
20
1048.425952
30
0
0
VERTEX
8
FINGER
10
588.412149
20
1120.062976
30
0
0
SEQEND
8
FINGER
0
POLYLINE
8
FINGER
66
1
70
0
10
0
20
0
30
0
0
VERTEX
8
FINGER
10
341.424009
20
891.455769
30
0
0
VERTEX
8
FINGER
10
295.52874
20
940.267901
30
0
0
SEQEND
8
FINGER
0
POLYLINE
8
ASSEMBLY
66
1
70
1
10
0
20
0
30
0
0
VERTEX
8
ASSEMBLY
10
359.224697
20
898.022279
30
0
0
VERTEX
8
ASSEMBLY
10
159.417894
20
613.441592
30
0
0
VERTEX
8
ASSEMBLY
10
73.483792
20
673.776741
30
0
0
VERTEX
8
ASSEMBLY
10
273.290595
20
958.357428
30
0
0
SEQEND
8
ASSEMBLY
0
POLYLINE
8
FINGER
66
1
70
0
10
0
20
0
30
0
0
VERTEX
8
FINGER
10
159.548586
20
632.414374
30
0
0
VERTEX
8
FINGER
10
98.050687
20
659.004005
30
0
0
SEQEND
8
FINGER
0
POLYLINE
8
ASSEMBLY
66
1
70
1
10
0
20
0
30
0
0
VERTEX
8
ASSEMBLY
10
173.281478
20
645.506021
30
0
0
VERTEX
8
ASSEMBLY
10
102.821731
20
305
30
0
0
VERTEX
8
ASSEMBLY
10
0
20
326.276549
30
0
0
VERTEX
8
ASSEMBLY
10
70.459747
20
666.78257
30
0
0
SEQEND
8
ASSEMBLY
0
TEXT
8
TEXT
10
1276.824298
20
1128.840086
30
0
40
15
1
T - LEAF TOP
72
0
11
1276.824298
21
1128.840086
31
0
73
0
0
TEXT
8
TEXT
10
1276.824298
20
1106.840086
30
0
40
15
1
GOTHIC DROP W1200 RISE840 H2000 HINGE R
72
0
11
1276.824298
21
1106.840086
31
0
73
0
0
TEXT
8
TEXT
10
1276.824298
20
1084.840086
30
0
40
15
1
FACE 67 OFFSET 40 OUTER L2076.4 INNER L1863.7
72
0
11
1276.824298
21
1084.840086
31
0
73
0
0
TEXT
8
TEXT
10
1276.824298
20
1062.840086
30
0
40
15
1
ARC 1 R848 L1038.2 70.1DEG: 3 x board 105 L351.3 ROUGH 381.3 (ALT 2 x board 180)
72
0
11
1276.824298
21
1062.840086
31
0
73
0
0
TEXT
8
TEXT
10
1276.824298
20
1040.840086
30
0
40
15
1
ARC 2 R848 L1038.2 70.1DEG: 3 x board 105 L351.3 ROUGH 381.3 (ALT 2 x board 180)
72
0
11
1276.824298
21
1040.840086
31
0
73
0
0
TEXT
8
TEXT
10
1276.824298
20
1018.840086
30
0
40
15
1
FINGER 15/16/3.8
72
0
11
1276.824298
21
1018.840086
31
0
73
0
0
TEXT
8
TEXT
10
1276.824298
20
996.840086
30
0
40
15
1
ALLOWANCE 10 PER SIDE  MAX SEGMENT 36 DEG  RULE NARROWEST
72
0
11
1276.824298
21
996.840086
31
0
73
0
0
TEXT
8
TEXT
10
1276.824298
20
974.840086
30
0
40
15
1
CUT CODES: J = JOINT FROM SQUARE  S = ARCH-START, AXIS TO HORIZONTAL  A = APEX FROM SQUARE
72
0
11
1276.824298
21
974.840086
31
0
73
0
0
POLYLINE
8
ASSEMBLY
66
1
70
1
10
0
20
0
30
0
0
VERTEX
8
ASSEMBLY
10
0
20
1347.340086
30
0
0
VERTEX
8
ASSEMBLY
10
383.682945
20
1347.340086
30
0
0
VERTEX
8
ASSEMBLY
10
383.682945
20
1442.340086
30
0
0
VERTEX
8
ASSEMBLY
10
0
20
1442.340086
30
0
0
SEQEND
8
ASSEMBLY
0
POLYLINE
8
PIECES
66
1
70
1
10
0
20
0
30
0
0
VERTEX
8
PIECES
10
381.630145
20
1413.170901
30
0
42
0.103745
0
VERTEX
8
PIECES
10
17.0528
20
1413.170901
30
0
0
VERTEX
8
PIECES
10
28.753762
20
1357.384814
30
0
42
-0.103745
0
VERTEX
8
PIECES
10
369.929183
20
1357.384814
30
0
0
SEQEND
8
PIECES
0
POLYLINE
8
FINGER
66
1
70
0
10
0
20
0
30
0
0
VERTEX
8
FINGER
10
28.753762
20
1357.384814
30
0
0
VERTEX
8
FINGER
10
17.0528
20
1413.170901
30
0
0
SEQEND
8
FINGER
0
POLYLINE
8
FINGER
66
1
70
0
10
0
20
0
30
0
0
VERTEX
8
FINGER
10
16
20
1347.340086
30
0
0
VERTEX
8
FINGER
10
16
20
1442.340086
30
0
0
SEQEND
8
FINGER
0
TEXT
8
TEXT
10
191.841473
20
1404.840086
30
0
40
15
1
T - FRAME HEAD P1 L383.7 x95
72
1
11
191.841473
21
1404.840086
31
0
73
2
0
TEXT
8
TEXT
10
191.841473
20
1357.340086
30
0
40
10
1
OUT 368.7 IN 337.1 CUT J11.8/S78.2 FINGER ONE END
72
1
11
191.841473
21
1357.340086
31
0
73
2
0
POLYLINE
8
ASSEMBLY
66
1
70
1
10
0
20
0
30
0
0
VERTEX
8
ASSEMBLY
10
583.682945
20
1347.340086
30
0
0
VERTEX
8
ASSEMBLY
10
982.365891
20
1347.340086
30
0
0
VERTEX
8
ASSEMBLY
10
982.365891
20
1442.340086
30
0
0
VERTEX
8
ASSEMBLY
10
583.682945
20
1442.340086
30
0
0
SEQEND
8
ASSEMBLY
0
POLYLINE
8
PIECES
66
1
70
1
10
0
20
0
30
0
0
VERTEX
8
PIECES
10
965.31309
20
1413.170901
30
0
42
0.103745
0
VERTEX
8
PIECES
10
600.735746
20
1413.170901
30
0
0
VERTEX
8
PIECES
10
612.436708
20
1357.384814
30
0
42
-0.103745
0
VERTEX
8
PIECES
10
953.612128
20
1357.384814
30
0
0
SEQEND
8
PIECES
0
POLYLINE
8
FINGER
66
1
70
0
10
0
20
0
30
0
0
VERTEX
8
FINGER
10
953.612128
20
1357.384814
30
0
0
VERTEX
8
FINGER
10
965.31309
20
1413.170901
30
0
0
SEQEND
8
FINGER
0
POLYLINE
8
FINGER
66
1
70
0
10
0
20
0
30
0
0
VERTEX
8
FINGER
10
612.436708
20
1357.384814
30
0
0
VERTEX
8
FINGER
10
600.735746
20
1413.170901
30
0
0
SEQEND
8
FINGER
0
POLYLINE
8
FINGER
66
1
70
0
10
0
20
0
30
0
0
VERTEX
8
FINGER
10
599.682945
20
1347.340086
30
0
0
VERTEX
8
FINGER
10
599.682945
20
1442.340086
30
0
0
SEQEND
8
FINGER
0
POLYLINE
8
FINGER
66
1
70
0
10
0
20
0
30
0
0
VERTEX
8
FINGER
10
966.365891
20
1347.340086
30
0
0
VERTEX
8
FINGER
10
966.365891
20
1442.340086
30
0
0
SEQEND
8
FINGER
0
TEXT
8
TEXT
10
783.024418
20
1404.840086
30
0
40
15
1
T - FRAME HEAD P2 L398.7 x95
72
1
11
783.024418
21
1404.840086
31
0
73
2
0
TEXT
8
TEXT
10
783.024418
20
1357.340086
30
0
40
10
1
OUT 368.7 IN 337.1 CUT J11.8/J11.8 FINGER BOTH ENDS
72
1
11
783.024418
21
1357.340086
31
0
73
2
0
POLYLINE
8
ASSEMBLY
66
1
70
1
10
0
20
0
30
0
0
VERTEX
8
ASSEMBLY
10
1182.365891
20
1347.340086
30
0
0
VERTEX
8
ASSEMBLY
10
1584.400855
20
1347.340086
30
0
0
VERTEX
8
ASSEMBLY
10
1584.400855
20
1442.340086
30
0
0
VERTEX
8
ASSEMBLY
10
1182.365891
20
1442.340086
30
0
0
SEQEND
8
ASSEMBLY
0
POLYLINE
8
PIECES
66
1
70
1
10
0
20
0
30
0
0
VERTEX
8
PIECES
10
1567.348054
20
1413.170901
30
0
42
0.103745
0
VERTEX
8
PIECES
10
1202.77071
20
1413.170901
30
0
0
VERTEX
8
PIECES
10
1233.723643
20
1361.186113
30
0
42
-0.097781
0
VERTEX
8
PIECES
10
1555.647092
20
1357.384814
30
0
0
SEQEND
8
PIECES
0
POLYLINE
8
FINGER
66
1
70
0
10
0
20
0
30
0
0
VERTEX
8
FINGER
10
1555.647092
20
1357.384814
30
0
0
VERTEX
8
FINGER
10
1567.348054
20
1413.170901
30
0
0
SEQEND
8
FINGER
0
POLYLINE
8
FINGER
66
1
70
0
10
0
20
0
30
0
0
VERTEX
8
FINGER
10
1233.723643
20
1361.186113
30
0
0
VERTEX
8
FINGER
10
1202.77071
20
1413.170901
30
0
0
SEQEND
8
FINGER
0
POLYLINE
8
FINGER
66
1
70
0
10
0
20
0
30
0
0
VERTEX
8
FINGER
10
1198.365891
20
1347.340086
30
0
0
VERTEX
8
FINGER
10
1198.365891
20
1442.340086
30
0
0
SEQEND
8
FINGER
0
POLYLINE
8
FINGER
66
1
70
0
10
0
20
0
30
0
0
VERTEX
8
FINGER
10
1568.400855
20
1347.340086
30
0
0
VERTEX
8
FINGER
10
1568.400855
20
1442.340086
30
0
0
SEQEND
8
FINGER
0
TEXT
8
TEXT
10
1383.383373
20
1404.840086
30
0
40
15
1
T - FRAME HEAD P3 L402 x95
72
1
11
1383.383373
21
1404.840086
31
0
73
2
0
TEXT
8
TEXT
10
1383.383373
20
1357.340086
30
0
40
10
1
OUT 372 IN 314.4 CUT A59.2/J11.8 FINGER BOTH ENDS
72
1
11
1383.383373
21
1357.340086
31
0
73
2
0
POLYLINE
8
ASSEMBLY
66
1
70
1
10
0
20
0
30
0
0
VERTEX
8
ASSEMBLY
10
1784.400855
20
1347.340086
30
0
0
VERTEX
8
ASSEMBLY
10
2186.435819
20
1347.340086
30
0
0
VERTEX
8
ASSEMBLY
10
2186.435819
20
1442.340086
30
0
0
VERTEX
8
ASSEMBLY
10
1784.400855
20
1442.340086
30
0
0
SEQEND
8
ASSEMBLY
0
POLYLINE
8
PIECES
66
1
70
1
10
0
20
0
30
0
0
VERTEX
8
PIECES
10
2166.031
20
1413.170901
30
0
42
0.103745
0
VERTEX
8
PIECES
10
1801.453655
20
1413.170901
30
0
0
VERTEX
8
PIECES
10
1813.154617
20
1357.384814
30
0
42
-0.097781
0
VERTEX
8
PIECES
10
2135.078067
20
1361.186113
30
0
0
SEQEND
8
PIECES
0
POLYLINE
8
FINGER
66
1
70
0
10
0
20
0
30
0
0
VERTEX
8
FINGER
10
2135.078067
20
1361.186113
30
0
0
VERTEX
8
FINGER
10
2166.031
20
1413.170901
30
0
0
SEQEND
8
FINGER
0
POLYLINE
8
FINGER
66
1
70
0
10
0
20
0
30
0
0
VERTEX
8
FINGER
10
1813.154617
20
1357.384814
30
0
0
VERTEX
8
FINGER
10
1801.453655
20
1413.170901
30
0
0
SEQEND
8
FINGER
0
POLYLINE
8
FINGER
66
1
70
0
10
0
20
0
30
0
0
VERTEX
8
FINGER
10
1800.400855
20
1347.340086
30
0
0
VERTEX
8
FINGER
10
1800.400855
20
1442.340086
30
0
0
SEQEND
8
FINGER
0
POLYLINE
8
FINGER
66
1
70
0
10
0
20
0
30
0
0
VERTEX
8
FINGER
10
2170.435819
20
1347.340086
30
0
0
VERTEX
8
FINGER
10
2170.435819
20
1442.340086
30
0
0
SEQEND
8
FINGER
0
TEXT
8
TEXT
10
1985.418337
20
1404.840086
30
0
40
15
1
T - FRAME HEAD P4 L402 x95
72
1
11
1985.418337
21
1404.840086
31
0
73
2
0
TEXT
8
TEXT
10
1985.418337
20
1357.340086
30
0
40
10
1
OUT 372 IN 314.4 CUT J11.8/A59.2 FINGER BOTH ENDS
72
1
11
1985.418337
21
1357.340086
31
0
73
2
0
POLYLINE
8
ASSEMBLY
66
1
70
1
10
0
20
0
30
0
0
VERTEX
8
ASSEMBLY
10
2386.435819
20
1347.340086
30
0
0
VERTEX
8
ASSEMBLY
10
2785.118764
20
1347.340086
30
0
0
VERTEX
8
ASSEMBLY
10
2785.118764
20
1442.340086
30
0
0
VERTEX
8
ASSEMBLY
10
2386.435819
20
1442.340086
30
0
0
SEQEND
8
ASSEMBLY
0
POLYLINE
8
PIECES
66
1
70
1
10
0
20
0
30
0
0
VERTEX
8
PIECES
10
2768.065964
20
1413.170901
30
0
42
0.103745
0
VERTEX
8
PIECES
10
2403.488619
20
1413.170901
30
0
0
VERTEX
8
PIECES
10
2415.189581
20
1357.384814
30
0
42
-0.103745
0
VERTEX
8
PIECES
10
2756.365002
20
1357.384814
30
0
0
SEQEND
8
PIECES
0
POLYLINE
8
FINGER
66
1
70
0
10
0
20
0
30
0
0
VERTEX
8
FINGER
10
2756.365002
20
1357.384814
30
0
0
VERTEX
8
FINGER
10
2768.065964
20
1413.170901
30
0
0
SEQEND
8
FINGER
0
POLYLINE
8
FINGER
66
1
70
0
10
0
20
0
30
0
0
VERTEX
8
FINGER
10
2415.189581
20
1357.384814
30
0
0
VERTEX
8
FINGER
10
2403.488619
20
1413.170901
30
0
0
SEQEND
8
FINGER
0
POLYLINE
8
FINGER
66
1
70
0
10
0
20
0
30
0
0
VERTEX
8
FINGER
10
2402.435819
20
1347.340086
30
0
0
VERTEX
8
FINGER
10
2402.435819
20
1442.340086
30
0
0
SEQEND
8
FINGER
0
POLYLINE
8
FINGER
66
1
70
0
10
0
20
0
30
0
0
VERTEX
8
FINGER
10
2769.118764
20
1347.340086
30
0
0
VERTEX
8
FINGER
10
2769.118764
20
1442.340086
30
0
0
SEQEND
8
FINGER
0
TEXT
8
TEXT
10
2585.777292
20
1404.840086
30
0
40
15
1
T - FRAME HEAD P5 L398.7 x95
72
1
11
2585.777292
21
1404.840086
31
0
73
2
0
TEXT
8
TEXT
10
2585.777292
20
1357.340086
30
0
40
10
1
OUT 368.7 IN 337.1 CUT J11.8/J11.8 FINGER BOTH ENDS
72
1
11
2585.777292
21
1357.340086
31
0
73
2
0
POLYLINE
8
ASSEMBLY
66
1
70
1
10
0
20
0
30
0
0
VERTEX
8
ASSEMBLY
10
2985.118764
20
1347.340086
30
0
0
VERTEX
8
ASSEMBLY
10
3368.801709
20
1347.340086
30
0
0
VERTEX
8
ASSEMBLY
10
3368.801709
20
1442.340086
30
0
0
VERTEX
8
ASSEMBLY
10
2985.118764
20
1442.340086
30
0
0
SEQEND
8
ASSEMBLY
0
POLYLINE
8
PIECES
66
1
70
1
10
0
20
0
30
0
0
VERTEX
8
PIECES
10
3351.748909
20
1413.170901
30
0
42
0.103745
0
VERTEX
8
PIECES
10
2987.171565
20
1413.170901
30
0
0
VERTEX
8
PIECES
10
2998.872527
20
1357.384814
30
0
42
-0.103745
0
VERTEX
8
PIECES
10
3340.047947
20
1357.384814
30
0
0
SEQEND
8
PIECES
0
POLYLINE
8
FINGER
66
1
70
0
10
0
20
0
30
0
0
VERTEX
8
FINGER
10
3340.047947
20
1357.384814
30
0
0
VERTEX
8
FINGER
10
3351.748909
20
1413.170901
30
0
0
SEQEND
8
FINGER
0
POLYLINE
8
FINGER
66
1
70
0
10
0
20
0
30
0
0
VERTEX
8
FINGER
10
3352.801709
20
1347.340086
30
0
0
VERTEX
8
FINGER
10
3352.801709
20
1442.340086
30
0
0
SEQEND
8
FINGER
0
TEXT
8
TEXT
10
3176.960237
20
1404.840086
30
0
40
15
1
T - FRAME HEAD P6 L383.7 x95
72
1
11
3176.960237
21
1404.840086
31
0
73
2
0
TEXT
8
TEXT
10
3176.960237
20
1357.340086
30
0
40
10
1
OUT 368.7 IN 337.1 CUT S78.2/J11.8 FINGER ONE END
72
1
11
3176.960237
21
1357.340086
31
0
73
2
0
POLYLINE
8
CONTOUR
66
1
70
1
10
0
20
0
30
0
0
VERTEX
8
CONTOUR
10
1228.969376
20
1657.86292
30
0
42
0.320465
0
VERTEX
8
CONTOUR
10
628.969376
20
2497.86292
30
0
42
0.320465
0
VERTEX
8
CONTOUR
10
28.969376
20
1657.86292
30
0
0
VERTEX
8
CONTOUR
10
85.969376
20
1657.86292
30
0
42
-0.313967
0
VERTEX
8
CONTOUR
10
628.969376
20
2437.360836
30
0
42
-0.313967
0
VERTEX
8
CONTOUR
10
1171.969376
20
1657.86292
30
0
0
SEQEND
8
CONTOUR
0
POLYLINE
8
ASSEMBLY
66
1
70
1
10
0
20
0
30
0
0
VERTEX
8
ASSEMBLY
10
1164.96194
20
1642.340086
30
0
0
VERTEX
8
ASSEMBLY
10
1089.278691
20
2003.171293
30
0
0
VERTEX
8
ASSEMBLY
10
1182.255503
20
2022.672896
30
0
0
VERTEX
8
ASSEMBLY
10
1257.938751
20
1661.841689
30
0
0
SEQEND
8
ASSEMBLY
0
POLYLINE
8
FINGER
66
1
70
0
10
0
20
0
30
0
0
VERTEX
8
FINGER
10
1101.932873
20
1991.772423
30
0
0
VERTEX
8
FINGER
10
1154.128925
20
2014.675963
30
0
0
SEQEND
8
FINGER
0
POLYLINE
8
ASSEMBLY
66
1
70
1
10
0
20
0
30
0
0
VERTEX
8
ASSEMBLY
10
1101.753353
20
1974.742146
30
0
0
VERTEX
8
ASSEMBLY
10
887.460744
20
2274.751799
30
0
0
VERTEX
8
ASSEMBLY
10
964.765424
20
2329.969427
30
0
0
VERTEX
8
ASSEMBLY
10
1179.058033
20
2029.959774
30
0
0
SEQEND
8
ASSEMBLY
0
POLYLINE
8
FINGER
66
1
70
0
10
0
20
0
30
0
0
VERTEX
8
FINGER
10
903.628688
20
2269.398282
30
0
0
VERTEX
8
FINGER
10
942.222648
20
2311.344751
30
0
0
SEQEND
8
FINGER
0
POLYLINE
8
ASSEMBLY
66
1
70
1
10
0
20
0
30
0
0
VERTEX
8
ASSEMBLY
10
910.307344
20
2253.731179
30
0
0
VERTEX
8
ASSEMBLY
10
590.646313
20
2444.064675
30
0
0
VERTEX
8
ASSEMBLY
10
639.248417
20
2525.690869
30
0
0
VERTEX
8
ASSEMBLY
10
958.909448
20
2335.357373
30
0
0
SEQEND
8
ASSEMBLY
0
POLYLINE
8
FINGER
66
1
70
0
10
0
20
0
30
0
0
VERTEX
8
FINGER
10
628.969376
20
2437.360836
30
0
0
VERTEX
8
FINGER
10
628.969376
20
2497.86292
30
0
0
SEQEND
8
FINGER
0
POLYLINE
8
ASSEMBLY
66
1
70
1
10
0
20
0
30
0
0
VERTEX
8
ASSEMBLY
10
667.292438
20
2444.064675
30
0
0
VERTEX
8
ASSEMBLY
10
347.631407
20
2253.731179
30
0
0
VERTEX
8
ASSEMBLY
10
299.029303
20
2335.357373
30
0
0
VERTEX
8
ASSEMBLY
10
618.690334
20
2525.690869
30
0
0
SEQEND
8
ASSEMBLY
0
POLYLINE
8
FINGER
66
1
70
0
10
0
20
0
30
0
0
VERTEX
8
FINGER
10
628.969376
20
2437.360836
30
0
0
VERTEX
8
FINGER
10
628.969376
20
2497.86292
30
0
0
SEQEND
8
FINGER
0
POLYLINE
8
FINGER
66
1
70
0
10
0
20
0
30
0
0
VERTEX
8
FINGER
10
354.310063
20
2269.398282
30
0
0
VERTEX
8
FINGER
10
315.716103
20
2311.344751
30
0
0
SEQEND
8
FINGER
0
POLYLINE
8
ASSEMBLY
66
1
70
1
10
0
20
0
30
0
0
VERTEX
8
ASSEMBLY
10
370.478007
20
2274.751799
30
0
0
VERTEX
8
ASSEMBLY
10
156.185398
20
1974.742146
30
0
0
VERTEX
8
ASSEMBLY
10
78.880718
20
2029.959774
30
0
0
VERTEX
8
ASSEMBLY
10
293.173327
20
2329.969427
30
0
0
SEQEND
8
ASSEMBLY
0
POLYLINE
8
FINGER
66
1
70
0
10
0
20
0
30
0
0
VERTEX
8
FINGER
10
156.005878
20
1991.772423
30
0
0
VERTEX
8
FINGER
10
103.809826
20
2014.675963
30
0
0
SEQEND
8
FINGER
0
POLYLINE
8
ASSEMBLY
66
1
70
1
10
0
20
0
30
0
0
VERTEX
8
ASSEMBLY
10
168.66006
20
2003.171293
30
0
0
VERTEX
8
ASSEMBLY
10
92.976811
20
1642.340086
30
0
0
VERTEX
8
ASSEMBLY
10
0
20
1661.841689
30
0
0
VERTEX
8
ASSEMBLY
10
75.683248
20
2022.672896
30
0
0
SEQEND
8
ASSEMBLY
0
TEXT
8
TEXT
10
1357.938751
20
2507.190869
30
0
40
15
1
T - FRAME HEAD
72
0
11
1357.938751
21
2507.190869
31
0
73
0
0
TEXT
8
TEXT
10
1357.938751
20
2485.190869
30
0
40
15
1
GOTHIC DROP W1200 RISE840 H2000 HINGE R
72
0
11
1357.938751
21
2485.190869
31
0
73
0
0
TEXT
8
TEXT
10
1357.938751
20
2463.190869
30
0
40
15
1
FACE 57 OFFSET 0 OUTER L2203.1 INNER L2022.5
72
0
11
1357.938751
21
2463.190869
31
0
73
0
0
TEXT
8
TEXT
10
1357.938751
20
2441.190869
30
0
40
15
1
ARC 1 R888 L1101.6 71.1DEG: 3 x board 95 L372 ROUGH 402 (ALT 2 x board 180)
72
0
11
1357.938751
21
2441.190869
31
0
73
0
0
TEXT
8
TEXT
10
1357.938751
20
2419.190869
30
0
40
15
1
ARC 2 R888 L1101.6 71.1DEG: 3 x board 95 L372 ROUGH 402 (ALT 2 x board 180)
72
0
11
1357.938751
21
2419.190869
31
0
73
0
0
TEXT
8
TEXT
10
1357.938751
20
2397.190869
30
0
40
15
1
FINGER 15/16/3.8
72
0
11
1357.938751
21
2397.190869
31
0
73
0
0
TEXT
8
TEXT
10
1357.938751
20
2375.190869
30
0
40
15
1
ALLOWANCE 10 PER SIDE  MAX SEGMENT 36 DEG  RULE NARROWEST
72
0
11
1357.938751
21
2375.190869
31
0
73
0
0
TEXT
8
TEXT
10
1357.938751
20
2353.190869
30
0
40
15
1
CUT CODES: J = JOINT FROM SQUARE  S = ARCH-START, AXIS TO HORIZONTAL  A = APEX FROM SQUARE
72
0
11
1357.938751
21
2353.190869
31
0
73
0
0
POLYLINE
8
FIT
66
1
70
1
10
0
20
0
30
0
0
VERTEX
8
FIT
10
1200
20
2725.690869
30
0
42
0.320465
0
VERTEX
8
FIT
10
600
20
3565.690869
30
0
42
0.320465
0
VERTEX
8
FIT
10
0
20
2725.690869
30
0
0
VERTEX
8
FIT
10
57
20
2725.690869
30
0
42
-0.313967
0
VERTEX
8
FIT
10
600
20
3505.188784
30
0
42
-0.313967
0
VERTEX
8
FIT
10
1143
20
2725.690869
30
0
0
SEQEND
8
FIT
0
POLYLINE
8
FIT
66
1
70
1
10
0
20
0
30
0
0
VERTEX
8
FIT
10
1160
20
2725.690869
30
0
42
0.316
0
VERTEX
8
FIT
10
600
20
3523.287258
30
0
42
0.316
0
VERTEX
8
FIT
10
40
20
2725.690869
30
0
0
VERTEX
8
FIT
10
107
20
2725.690869
30
0
42
-0.307454
0
VERTEX
8
FIT
10
600
20
3451.650234
30
0
42
-0.307454
0
VERTEX
8
FIT
10
1093
20
2725.690869
30
0
0
SEQEND
8
FIT
0
POLYLINE
8
FIT
66
1
70
1
10
0
20
0
30
0
0
VERTEX
8
FIT
10
1105.5
20
2725.690869
30
0
42
0.309162
0
VERTEX
8
FIT
10
600
20
3465.081327
30
0
42
0.309162
0
VERTEX
8
FIT
10
94.5
20
2725.690869
30
0
0
SEQEND
8
FIT
0
POLYLINE
8
FIT
66
1
70
0
10
0
20
0
30
0
0
VERTEX
8
FIT
10
1164
20
2725.690869
30
0
42
0.005869
0
VERTEX
8
FIT
10
1163.765269
20
2745.689032
30
0
0
SEQEND
8
FIT
0
POLYLINE
8
FIT
66
1
70
0
10
0
20
0
30
0
0
VERTEX
8
FIT
10
1163.471886
20
2755.68467
30
0
42
0.005869
0
VERTEX
8
FIT
10
1162.533285
20
2775.662174
30
0
0
SEQEND
8
FIT
0
POLYLINE
8
FIT
66
1
70
0
10
0
20
0
30
0
0
VERTEX
8
FIT
10
1161.888197
20
2785.641288
30
0
42
0.005869
0
VERTEX
8
FIT
10
1160.24689
20
2805.573366
30
0
0
SEQEND
8
FIT
0
POLYLINE
8
FIT
66
1
70
0
10
0
20
0
30
0
0
VERTEX
8
FIT
10
1159.250897
20
2815.523585
30
0
42
0.005869
0
VERTEX
8
FIT
10
1156.908919
20
2835.385527
30
0
0
SEQEND
8
FIT
0
POLYLINE
8
FIT
66
1
70
0
10
0
20
0
30
0
0
VERTEX
8
FIT
10
1155.563256
20
2845.294515
30
0
42
0.005869
0
VERTEX
8
FIT
10
1152.52351
20
2865.0617
30
0
0
SEQEND
8
FIT
0
POLYLINE
8
FIT
66
1
70
0
10
0
20
0
30
0
0
VERTEX
8
FIT
10
1150.829846
20
2874.917173
30
0
42
0.005869
0
VERTEX
8
FIT
10
1147.0961
20
2894.565093
30
0
0
SEQEND
8
FIT
0
POLYLINE
8
FIT
66
1
70
0
10
0
20
0
30
0
0
VERTEX
8
FIT
10
1145.056533
20
2904.354834
30
0
42
0.005869
0
VERTEX
8
FIT
10
1140.633417
20
2923.859133
30
0
0
SEQEND
8
FIT
0
POLYLINE
8
FIT
66
1
70
0
10
0
20
0
30
0
0
VERTEX
8
FIT
10
1138.250476
20
2933.571004
30
0
42
0.005869
0
VERTEX
8
FIT
10
1133.143472
20
2952.907502
30
0
0
SEQEND
8
FIT
0
POLYLINE
8
FIT
66
1
70
0
10
0
20
0
30
0
0
VERTEX
8
FIT
10
1130.420112
20
2962.529464
30
0
42
0.005869
0
VERTEX
8
FIT
10
1124.635552
20
2981.674189
30
0
0
SEQEND
8
FIT
0
POLYLINE
8
FIT
66
1
70
0
10
0
20
0
30
0
0
VERTEX
8
FIT
10
1121.575148
20
2991.194314
30
0
42
0.005869
0
VERTEX
8
FIT
10
1115.120203
20
3010.123533
30
0
0
SEQEND
8
FIT
0
POLYLINE
8
FIT
66
1
70
0
10
0
20
0
30
0
0
VERTEX
8
FIT
10
1111.72655
20
3019.530018
30
0
42
0.005869
0
VERTEX
8
FIT
10
1104.609221
20
3038.220264
30
0
0
SEQEND
8
FIT
0
POLYLINE
8
FIT
66
1
70
0
10
0
20
0
30
0
0
VERTEX
8
FIT
10
1100.886526
20
3047.501448
30
0
42
0.005869
0
VERTEX
8
FIT
10
1093.115638
20
3065.92955
30
0
0
SEQEND
8
FIT
0
POLYLINE
8
FIT
66
1
70
0
10
0
20
0
30
0
0
VERTEX
8
FIT
10
1089.068515
20
3075.073928
30
0
42
0.005869
0
VERTEX
8
FIT
10
1080.653701
20
3093.217041
30
0
0
SEQEND
8
FIT
0
POLYLINE
8
FIT
66
1
70
0
10
0
20
0
30
0
0
VERTEX
8
FIT
10
1076.287169
20
3102.213276
30
0
42
0.005869
0
VERTEX
8
FIT
10
1067.238861
20
3120.048908
30
0
0
SEQEND
8
FIT
0
POLYLINE
8
FIT
66
1
70
0
10
0
20
0
30
0
0
VERTEX
8
FIT
10
1062.558332
20
3128.885847
30
0
42
0.005869
0
VERTEX
8
FIT
10
1052.887747
20
3146.391887
30
0
0
SEQEND
8
FIT
0
POLYLINE
8
FIT
66
1
70
0
10
0
20
0
30
0
0
VERTEX
8
FIT
10
1047.899023
20
3155.058575
30
0
42
0.005869
0
VERTEX
8
FIT
10
1037.61815
20
3172.21332
30
0
0
SEQEND
8
FIT
0
POLYLINE
8
FIT
66
1
70
0
10
0
20
0
30
0
0
VERTEX
8
FIT
10
1032.327417
20
3180.699014
30
0
42
0.005869
0
VERTEX
8
FIT
10
1021.449001
20
3197.481198
30
0
0
SEQEND
8
FIT
0
POLYLINE
8
FIT
66
1
70
0
10
0
20
0
30
0
0
VERTEX
8
FIT
10
1015.862817
20
3205.775376
30
0
42
0.005869
0
VERTEX
8
FIT
10
1004.400344
20
3222.164194
30
0
0
SEQEND
8
FIT
0
POLYLINE
8
FIT
66
1
70
0
10
0
20
0
30
0
0
VERTEX
8
FIT
10
998.525635
20
3230.256576
30
0
42
0.005869
0
VERTEX
8
FIT
10
986.493315
20
3246.23171
30
0
0
SEQEND
8
FIT
0
POLYLINE
8
FIT
66
1
70
0
10
0
20
0
30
0
0
VERTEX
8
FIT
10
980.337363
20
3254.112262
30
0
42
0.005869
0
VERTEX
8
FIT
10
967.750113
20
3269.653909
30
0
0
SEQEND
8
FIT
0
POLYLINE
8
FIT
66
1
70
0
10
0
20
0
30
0
0
VERTEX
8
FIT
10
961.32055
20
3277.312862
30
0
42
0.005869
0
VERTEX
8
FIT
10
948.193974
20
3292.401754
30
0
0
SEQEND
8
FIT
0
POLYLINE
8
FIT
66
1
70
0
10
0
20
0
30
0
0
VERTEX
8
FIT
10
941.49877
20
3299.829613
30
0
42
0.005869
0
VERTEX
8
FIT
10
927.849142
20
3314.447044
30
0
0
SEQEND
8
FIT
0
POLYLINE
8
FIT
66
1
70
0
10
0
20
0
30
0
0
VERTEX
8
FIT
10
920.896598
20
3321.634602
30
0
42
0.005869
0
VERTEX
8
FIT
10
906.740839
20
3335.76245
30
0
0
SEQEND
8
FIT
0
POLYLINE
8
FIT
66
1
70
0
10
0
20
0
30
0
0
VERTEX
8
FIT
10
899.539574
20
3342.700795
30
0
42
0.005869
0
VERTEX
8
FIT
10
884.895232
20
3356.321548
30
0
0
SEQEND
8
FIT
0
POLYLINE
8
FIT
66
1
70
0
10
0
20
0
30
0
0
VERTEX
8
FIT
10
877.454173
20
3363.002079
30
0
42
0.005869
0
VERTEX
8
FIT
10
862.339404
20
3376.098849
30
0
0
SEQEND
8
FIT
0
POLYLINE
8
FIT
66
1
70
0
10
0
20
0
30
0
0
VERTEX
8
FIT
10
854.667776
20
3382.513284
30
0
42
0.005869
0
VERTEX
8
FIT
10
839.101317
20
3395.069836
30
0
0
SEQEND
8
FIT
0
POLYLINE
8
FIT
66
1
70
0
10
0
20
0
30
0
0
VERTEX
8
FIT
10
831.208631
20
3401.210223
30
0
42
0.005869
0
VERTEX
8
FIT
10
815.20978
20
3413.21099
30
0
0
SEQEND
8
FIT
0
POLYLINE
8
FIT
66
1
70
0
10
0
20
0
30
0
0
VERTEX
8
FIT
10
807.10582
20
3419.069717
30
0
42
0.005869
0
VERTEX
8
FIT
10
790.694412
20
3430.499822
30
0
0
SEQEND
8
FIT
0
POLYLINE
8
FIT
66
1
70
0
10
0
20
0
30
0
0
VERTEX
8
FIT
10
782.389224
20
3436.069625
30
0
42
0.005869
0
VERTEX
8
FIT
10
765.585603
20
3446.914898
30
0
0
SEQEND
8
FIT
0
POLYLINE
8
FIT
66
1
70
0
10
0
20
0
30
0
0
VERTEX
8
FIT
10
757.089484
20
3452.188874
30
0
42
0.005869
0
VERTEX
8
FIT
10
739.914482
20
3462.43587
30
0
0
SEQEND
8
FIT
0
POLYLINE
8
FIT
66
1
70
0
10
0
20
0
30
0
0
VERTEX
8
FIT
10
731.237964
20
3467.407479
30
0
42
0.005869
0
VERTEX
8
FIT
10
713.712872
20
3477.043494
30
0
0
SEQEND
8
FIT
0
POLYLINE
8
FIT
66
1
70
0
10
0
20
0
30
0
0
VERTEX
8
FIT
10
704.866713
20
3481.706574
30
0
42
0.005869
0
VERTEX
8
FIT
10
687.013258
20
3490.719663
30
0
0
SEQEND
8
FIT
0
POLYLINE
8
FIT
66
1
70
0
10
0
20
0
30
0
0
VERTEX
8
FIT
10
678.008422
20
3495.068432
30
0
42
0.005869
0
VERTEX
8
FIT
10
659.848737
20
3503.447422
30
0
0
SEQEND
8
FIT
0
POLYLINE
8
FIT
66
1
70
0
10
0
20
0
30
0
0
VERTEX
8
FIT
10
650.696389
20
3507.476489
30
0
42
0.005869
0
VERTEX
8
FIT
10
632.252987
20
3515.210992
30
0
0
SEQEND
8
FIT
0
POLYLINE
8
FIT
66
1
70
0
10
0
20
0
30
0
0
VERTEX
8
FIT
10
622.964473
20
3518.915362
30
0
42
0.005869
0
VERTEX
8
FIT
10
604.260217
20
3525.995789
30
0
0
SEQEND
8
FIT
0
POLYLINE
8
FIT
66
1
70
0
10
0
20
0
30
0
0
VERTEX
8
FIT
10
600
20
3527.538735
30
0
42
0.005869
0
VERTEX
8
FIT
10
581.258354
20
3520.557878
30
0
0
SEQEND
8
FIT
0
POLYLINE
8
FIT
66
1
70
0
10
0
20
0
30
0
0
VERTEX
8
FIT
10
571.950272
20
3516.902957
30
0
42
0.005869
0
VERTEX
8
FIT
10
553.465997
20
3509.266647
30
0
0
SEQEND
8
FIT
0
POLYLINE
8
FIT
66
1
70
0
10
0
20
0
30
0
0
VERTEX
8
FIT
10
544.292352
20
3505.28631
30
0
42
0.005869
0
VERTEX
8
FIT
10
526.088364
20
3497.004014
30
0
0
SEQEND
8
FIT
0
POLYLINE
8
FIT
66
1
70
0
10
0
20
0
30
0
0
VERTEX
8
FIT
10
517.060528
20
3492.703195
30
0
42
0.005869
0
VERTEX
8
FIT
10
499.159394
20
3483.785179
30
0
0
SEQEND
8
FIT
0
POLYLINE
8
FIT
66
1
70
0
10
0
20
0
30
0
0
VERTEX
8
FIT
10
490.28856
20
3479.16921
30
0
42
0.005869
0
VERTEX
8
FIT
10
472.712471
20
3469.62653
30
0
0
SEQEND
8
FIT
0
POLYLINE
8
FIT
66
1
70
0
10
0
20
0
30
0
0
VERTEX
8
FIT
10
464.009637
20
3464.701134
30
0
42
0.005869
0
VERTEX
8
FIT
10
446.780383
20
3454.545621
30
0
0
SEQEND
8
FIT
0
POLYLINE
8
FIT
66
1
70
0
10
0
20
0
30
0
0
VERTEX
8
FIT
10
438.256337
20
3449.316903
30
0
42
0.005869
0
VERTEX
8
FIT
10
421.395278
20
3438.561147
30
0
0
SEQEND
8
FIT
0
POLYLINE
8
FIT
66
1
70
0
10
0
20
0
30
0
0
VERTEX
8
FIT
10
413.060587
20
3433.035589
30
0
42
0.005869
0
VERTEX
8
FIT
10
396.588624
20
3421.692923
30
0
0
SEQEND
8
FIT
0
POLYLINE
8
FIT
66
1
70
0
10
0
20
0
30
0
0
VERTEX
8
FIT
10
388.453621
20
3415.877377
30
0
42
0.005869
0
VERTEX
8
FIT
10
372.391176
20
3403.961862
30
0
0
SEQEND
8
FIT
0
POLYLINE
8
FIT
66
1
70
0
10
0
20
0
30
0
0
VERTEX
8
FIT
10
364.465946
20
3397.863536
30
0
42
0.005869
0
VERTEX
8
FIT
10
348.832931
20
3385.389945
30
0
0
SEQEND
8
FIT
0
POLYLINE
8
FIT
66
1
70
0
10
0
20
0
30
0
0
VERTEX
8
FIT
10
341.127299
20
3379.016399
30
0
42
0.005869
0
VERTEX
8
FIT
10
325.943094
20
3366.000196
30
0
0
SEQEND
8
FIT
0
POLYLINE
8
FIT
66
1
70
0
10
0
20
0
30
0
0
VERTEX
8
FIT
10
318.466613
20
3359.359331
30
0
42
0.005869
0
VERTEX
8
FIT
10
303.750042
20
3345.816652
30
0
0
SEQEND
8
FIT
0
POLYLINE
8
FIT
66
1
70
0
10
0
20
0
30
0
0
VERTEX
8
FIT
10
296.51198
20
3338.916702
30
0
42
0.005869
0
VERTEX
8
FIT
10
282.281288
20
3324.864334
30
0
0
SEQEND
8
FIT
0
POLYLINE
8
FIT
66
1
70
0
10
0
20
0
30
0
0
VERTEX
8
FIT
10
275.290618
20
3317.713852
30
0
42
0.005869
0
VERTEX
8
FIT
10
261.563446
20
3303.169218
30
0
0
SEQEND
8
FIT
0
POLYLINE
8
FIT
66
1
70
0
10
0
20
0
30
0
0
VERTEX
8
FIT
10
254.828835
20
3295.777069
30
0
42
0.005869
0
VERTEX
8
FIT
10
241.622201
20
3280.758199
30
0
0
SEQEND
8
FIT
0
POLYLINE
8
FIT
66
1
70
0
10
0
20
0
30
0
0
VERTEX
8
FIT
10
235.151998
20
3273.133547
30
0
42
0.005869
0
VERTEX
8
FIT
10
222.482274
20
3257.65906
30
0
0
SEQEND
8
FIT
0
POLYLINE
8
FIT
66
1
70
0
10
0
20
0
30
0
0
VERTEX
8
FIT
10
216.2845
20
3249.811357
30
0
42
0.005869
0
VERTEX
8
FIT
10
204.167393
20
3233.900438
30
0
0
SEQEND
8
FIT
0
POLYLINE
8
FIT
66
1
70
0
10
0
20
0
30
0
0
VERTEX
8
FIT
10
198.249731
20
3225.839413
30
0
42
0.005869
0
VERTEX
8
FIT
10
186.700263
20
3209.511785
30
0
0
SEQEND
8
FIT
0
POLYLINE
8
FIT
66
1
70
0
10
0
20
0
30
0
0
VERTEX
8
FIT
10
181.070049
20
3201.247431
30
0
42
0.005869
0
VERTEX
8
FIT
10
170.102538
20
3184.523337
30
0
0
SEQEND
8
FIT
0
POLYLINE
8
FIT
66
1
70
0
10
0
20
0
30
0
0
VERTEX
8
FIT
10
164.766752
20
3176.0659
30
0
42
0.005869
0
VERTEX
8
FIT
10
154.394794
20
3158.966072
30
0
0
SEQEND
8
FIT
0
POLYLINE
8
FIT
66
1
70
0
10
0
20
0
30
0
0
VERTEX
8
FIT
10
149.360051
20
3150.326036
30
0
42
0.005869
0
VERTEX
8
FIT
10
139.596504
20
3132.871673
30
0
0
SEQEND
8
FIT
0
POLYLINE
8
FIT
66
1
70
0
10
0
20
0
30
0
0
VERTEX
8
FIT
10
134.869046
20
3124.05975
30
0
42
0.005869
0
VERTEX
8
FIT
10
125.726014
20
3106.272491
30
0
0
SEQEND
8
FIT
0
POLYLINE
8
FIT
66
1
70
0
10
0
20
0
30
0
0
VERTEX
8
FIT
10
121.311701
20
3097.299604
30
0
42
0.005869
0
VERTEX
8
FIT
10
112.80052
20
3079.201499
30
0
0
SEQEND
8
FIT
0
POLYLINE
8
FIT
66
1
70
0
10
0
20
0
30
0
0
VERTEX
8
FIT
10
108.704824
20
3070.078773
30
0
42
0.005869
0
VERTEX
8
FIT
10
100.836044
20
3051.692258
30
0
0
SEQEND
8
FIT
0
POLYLINE
8
FIT
66
1
70
0
10
0
20
0
30
0
0
VERTEX
8
FIT
10
97.064043
20
3042.431002
30
0
42
0.005869
0
VERTEX
8
FIT
10
89.847419
20
3023.778871
30
0
0
SEQEND
8
FIT
0
POLYLINE
8
FIT
66
1
70
0
10
0
20
0
30
0
0
VERTEX
8
FIT
10
86.40379
20
3014.390567
30
0
42
0.005869
0
VERTEX
8
FIT
10
79.848268
20
2995.495944
30
0
0
SEQEND
8
FIT
0
POLYLINE
8
FIT
66
1
70
0
10
0
20
0
30
0
0
VERTEX
8
FIT
10
76.737279
20
2985.992229
30
0
42
0.005869
0
VERTEX
8
FIT
10
70.850988
20
2966.878537
30
0
0
SEQEND
8
FIT
0
POLYLINE
8
FIT
66
1
70
0
10
0
20
0
30
0
0
VERTEX
8
FIT
10
68.076496
20
2957.271194
30
0
42
0.005869
0
VERTEX
8
FIT
10
62.866731
20
2937.962129
30
0
0
SEQEND
8
FIT
0
POLYLINE
8
FIT
66
1
70
0
10
0
20
0
30
0
0
VERTEX
8
FIT
10
60.432175
20
2928.263068
30
0
42
0.005869
0
VERTEX
8
FIT
10
55.905396
20
2908.782567
30
0
0
SEQEND
8
FIT
0
POLYLINE
8
FIT
66
1
70
0
10
0
20
0
30
0
0
VERTEX
8
FIT
10
53.813795
20
2899.003812
30
0
42
0.005869
0
VERTEX
8
FIT
10
49.975613
20
2879.376025
30
0
0
SEQEND
8
FIT
0
POLYLINE
8
FIT
66
1
70
0
10
0
20
0
30
0
0
VERTEX
8
FIT
10
48.229561
20
2869.529699
30
0
42
0.005869
0
VERTEX
8
FIT
10
45.084734
20
2849.778959
30
0
0
SEQEND
8
FIT
0
POLYLINE
8
FIT
66
1
70
0
10
0
20
0
30
0
0
VERTEX
8
FIT
10
43.686393
20
2839.877268
30
0
42
0.005869
0
VERTEX
8
FIT
10
41.238821
20
2820.028061
30
0
0
SEQEND
8
FIT
0
POLYLINE
8
FIT
66
1
70
0
10
0
20
0
30
0
0
VERTEX
8
FIT
10
40.189926
20
2810.08328
30
0
42
0.005869
0
VERTEX
8
FIT
10
38.442642
20
2790.160212
30
0
0
SEQEND
8
FIT
0
POLYLINE
8
FIT
66
1
70
0
10
0
20
0
30
0
0
VERTEX
8
FIT
10
37.744494
20
2780.18467
30
0
42
0.005869
0
VERTEX
8
FIT
10
36.699665
20
2760.21244
30
0
0
SEQEND
8
FIT
0
POLYLINE
8
FIT
66
1
70
0
10
0
20
0
30
0
0
VERTEX
8
FIT
10
36.353128
20
2750.218503
30
0
42
0.005869
0
VERTEX
8
FIT
10
36.012048
20
2730.221871
30
0
0
SEQEND
8
FIT
0
TEXT
8
TEXT
10
1300
20
3547.190869
30
0
40
15
1
T - FIT (ASSEMBLY, NOT A TOOLPATH)
72
0
11
1300
21
3547.190869
31
0
73
0
0
TEXT
8
TEXT
10
1300
20
3525.190869
30
0
40
15
1
GAP 4 LAP 17 (REBATE)
72
0
11
1300
21
3525.190869
31
0
73
0
0
TEXT
8
TEXT
10
1300
20
3503.190869
30
0
40
15
1
FRAME R888/888 / 831/831  REBATE WALL R852/852 (LAND 36, DASHED)
72
0
11
1300
21
3503.190869
31
0
73
0
0
TEXT
8
TEXT
10
1300
20
3481.190869
30
0
40
15
1
LEAF R848/848 / 781/781  GLASS R793.5/793.5
72
0
11
1300
21
3481.190869
31
0
73
0
0
ENDSEC
0
EOF
