0
SECTION
2
HEADER
9
$ACADVER
1
AC1009
0
ENDSEC
0
SECTION
2
TABLES
0
TABLE
2
LAYER
70
8
0
LAYER
2
0
70
0
62
7
6
CONTINUOUS
0
LAYER
2
FIT
70
0
62
4
6
CONTINUOUS
0
LAYER
2
CONTOUR
70
0
62
7
6
CONTINUOUS
0
LAYER
2
ASSEMBLY
70
0
62
8
6
CONTINUOUS
0
LAYER
2
PIECES
70
0
62
5
6
CONTINUOUS
0
LAYER
2
FINGER
70
0
62
1
6
CONTINUOUS
0
LAYER
2
CLAMPS
70
0
62
3
6
CONTINUOUS
0
LAYER
2
TEXT
70
0
62
94
6
CONTINUOUS
0
ENDTAB
0
ENDSEC
0
SECTION
2
ENTITIES
0
POLYLINE
8
PIECES
66
1
70
1
10
0
20
0
30
0
0
VERTEX
8
PIECES
10
637.146592
20
0
30
0
0
VERTEX
8
PIECES
10
61.967213
20
0
30
0
0
VERTEX
8
PIECES
10
0
20
180
30
0
0
VERTEX
8
PIECES
10
637.146592
20
180
30
0
0
SEQEND
8
PIECES
0
POLYLINE
8
CLAMPS
66
1
70
1
10
0
20
0
30
0
0
VERTEX
8
CLAMPS
10
88.360656
20
25
30
0
0
VERTEX
8
CLAMPS
10
218.360656
20
25
30
0
0
VERTEX
8
CLAMPS
10
218.360656
20
155
30
0
0
VERTEX
8
CLAMPS
10
88.360656
20
155
30
0
0
SEQEND
8
CLAMPS
0
POLYLINE
8
CLAMPS
66
1
70
1
10
0
20
0
30
0
0
VERTEX
8
CLAMPS
10
487.146592
20
25
30
0
0
VERTEX
8
CLAMPS
10
617.146592
20
25
30
0
0
VERTEX
8
CLAMPS
10
617.146592
20
155
30
0
0
VERTEX
8
CLAMPS
10
487.146592
20
155
30
0
0
SEQEND
8
CLAMPS
0
TEXT
8
TEXT
10
318.573296
20
100
30
0
40
15
1
W1 - LEAF TOP P1 L637.1 x180
72
1
11
318.573296
21
100
31
0
73
2
0
TEXT
8
TEXT
10
318.573296
20
10
30
0
40
10
1
OUT 622.1 IN 560.2 CUT J19/Q FINGER ONE END
72
1
11
318.573296
21
10
31
0
73
2
0
POLYLINE
8
PIECES
66
1
70
1
10
0
20
0
30
0
0
VERTEX
8
PIECES
10
1412.325971
20
0
30
0
0
VERTEX
8
PIECES
10
837.146592
20
0
30
0
0
VERTEX
8
PIECES
10
837.146592
20
180
30
0
0
VERTEX
8
PIECES
10
1474.293184
20
180
30
0
0
SEQEND
8
PIECES
0
POLYLINE
8
CLAMPS
66
1
70
1
10
0
20
0
30
0
0
VERTEX
8
CLAMPS
10
857.146592
20
25
30
0
0
VERTEX
8
CLAMPS
10
987.146592
20
25
30
0
0
VERTEX
8
CLAMPS
10
987.146592
20
155
30
0
0
VERTEX
8
CLAMPS
10
857.146592
20
155
30
0
0
SEQEND
8
CLAMPS
0
POLYLINE
8
CLAMPS
66
1
70
1
10
0
20
0
30
0
0
VERTEX
8
CLAMPS
10
1255.932528
20
25
30
0
0
VERTEX
8
CLAMPS
10
1385.932528
20
25
30
0
0
VERTEX
8
CLAMPS
10
1385.932528
20
155
30
0
0
VERTEX
8
CLAMPS
10
1255.932528
20
155
30
0
0
SEQEND
8
CLAMPS
0
TEXT
8
TEXT
10
1155.719888
20
100
30
0
40
15
1
W1 - LEAF TOP P2 L637.1 x180
72
1
11
1155.719888
21
100
31
0
73
2
0
TEXT
8
TEXT
10
1155.719888
20
10
30
0
40
10
1
OUT 622.1 IN 560.2 CUT Q/J19 FINGER ONE END
72
1
11
1155.719888
21
10
31
0
73
2
0
POLYLINE
8
CONTOUR
66
1
70
1
10
0
20
0
30
0
0
VERTEX
8
CONTOUR
10
1137.262987
20
465.194756
30
0
42
0.302776
0
VERTEX
8
CONTOUR
10
1076.33991
20
556.579372
30
0
42
0.2
0
VERTEX
8
CONTOUR
10
100.186064
20
556.579372
30
0
42
0.302776
0
VERTEX
8
CONTOUR
10
39.262987
20
465.194756
30
0
0
VERTEX
8
CONTOUR
10
106.262987
20
465.194756
30
0
42
-0.302776
0
VERTEX
8
CONTOUR
10
125.955294
20
494.733218
30
0
42
-0.2
0
VERTEX
8
CONTOUR
10
1050.570679
20
494.733218
30
0
42
-0.302776
0
VERTEX
8
CONTOUR
10
1070.262987
20
465.194756
30
0
0
SEQEND
8
CONTOUR
0
POLYLINE
8
ASSEMBLY
66
1
70
1
10
0
20
0
30
0
0
VERTEX
8
ASSEMBLY
10
1117.933644
20
380
30
0
0
VERTEX
8
ASSEMBLY
10
588.262987
20
562.345636
30
0
0
VERTEX
8
ASSEMBLY
10
588.262987
20
752.713531
30
0
0
VERTEX
8
ASSEMBLY
10
1176.525973
20
550.196765
30
0
0
SEQEND
8
ASSEMBLY
0
POLYLINE
8
FINGER
66
1
70
0
10
0
20
0
30
0
0
VERTEX
8
FINGER
10
588.262987
20
587.194756
30
0
0
VERTEX
8
FINGER
10
588.262987
20
654.194756
30
0
0
SEQEND
8
FINGER
0
POLYLINE
8
ASSEMBLY
66
1
70
1
10
0
20
0
30
0
0
VERTEX
8
ASSEMBLY
10
588.262987
20
562.345636
30
0
0
VERTEX
8
ASSEMBLY
10
58.592329
20
380
30
0
0
VERTEX
8
ASSEMBLY
10
0
20
550.196765
30
0
0
VERTEX
8
ASSEMBLY
10
588.262987
20
752.713531
30
0
0
SEQEND
8
ASSEMBLY
0
TEXT
8
TEXT
10
1276.525973
20
734.213531
30
0
40
15
1
W1 - LEAF TOP
72
0
11
1276.525973
21
734.213531
31
0
73
0
0
TEXT
8
TEXT
10
1276.525973
20
712.213531
30
0
40
15
1
THREE-CENTRE W1200 RISE240 H2000 HINGE L
72
0
11
1276.525973
21
712.213531
31
0
73
0
0
TEXT
8
TEXT
10
1276.525973
20
690.213531
30
0
40
15
1
FACE 67 OFFSET 51 OUTER L1234.8 INNER L1024.3
72
0
11
1276.525973
21
690.213531
31
0
73
0
0
TEXT
8
TEXT
10
1276.525973
20
668.213531
30
0
40
15
1
CHAIN R99/1269/99 L1234.8 180DEG: FEWEST 1 x board 200 L1118 ROUGH 1118 WASTE 56%
72
0
11
1276.525973
21
668.213531
31
0
73
0
0
TEXT
8
TEXT
10
1276.525973
20
646.213531
30
0
40
15
1
  ECONOMY ALT 2 x board 180 L622.1 ROUGH 637.1 WASTE 57% -> DEFAULT ECONOMY (THRESHOLD 45%)
72
0
11
1276.525973
21
646.213531
31
0
73
0
0
TEXT
8
TEXT
10
1276.525973
20
624.213531
30
0
40
15
1
FINGER 15/16/3.8
72
0
11
1276.525973
21
624.213531
31
0
73
0
0
TEXT
8
TEXT
10
1276.525973
20
602.213531
30
0
40
15
1
ALLOWANCE 10 PER SIDE  LIMITS: OVERALL >= 450 (CLAMP)  SHORTER EDGE >= 400  STOCK MAX 200
72
0
11
1276.525973
21
602.213531
31
0
73
0
0
TEXT
8
TEXT
10
1276.525973
20
580.213531
30
0
40
15
1
CLAMPS (SUGGESTION): UNICLAMP 130 x 130, CLEARANCE 20 FROM THE END CUTS, JAWS 40-98, PIECE THICKNESS 57
72
0
11
1276.525973
21
580.213531
31
0
73
0
0
TEXT
8
TEXT
10
1276.525973
20
558.213531
30
0
40
15
1
CUT CODES: J = JOINT FROM SQUARE  Q = SQUARE (SPRINGING FACE ROUTED WITH THE CONTOUR)  A = APEX FROM SQUARE
72
0
11
1276.525973
21
558.213531
31
0
73
0
0
POLYLINE
8
PIECES
66
1
70
1
10
0
20
0
30
0
0
VERTEX
8
PIECES
10
712.902461
20
952.713531
30
0
0
VERTEX
8
PIECES
10
72
20
952.713531
30
0
0
VERTEX
8
PIECES
10
0
20
1132.713531
30
0
0
VERTEX
8
PIECES
10
712.902461
20
1132.713531
30
0
0
SEQEND
8
PIECES
0
POLYLINE
8
CLAMPS
66
1
70
1
10
0
20
0
30
0
0
VERTEX
8
CLAMPS
10
97
20
977.713531
30
0
0
VERTEX
8
CLAMPS
10
227
20
977.713531
30
0
0
VERTEX
8
CLAMPS
10
227
20
1107.713531
30
0
0
VERTEX
8
CLAMPS
10
97
20
1107.713531
30
0
0
SEQEND
8
CLAMPS
0
POLYLINE
8
CLAMPS
66
1
70
1
10
0
20
0
30
0
0
VERTEX
8
CLAMPS
10
562.902461
20
977.713531
30
0
0
VERTEX
8
CLAMPS
10
692.902461
20
977.713531
30
0
0
VERTEX
8
CLAMPS
10
692.902461
20
1107.713531
30
0
0
VERTEX
8
CLAMPS
10
562.902461
20
1107.713531
30
0
0
SEQEND
8
CLAMPS
0
TEXT
8
TEXT
10
356.45123
20
1052.713531
30
0
40
15
1
W1 - FRAME HEAD P1 L712.9 x180
72
1
11
356.45123
21
1052.713531
31
0
73
2
0
TEXT
8
TEXT
10
356.45123
20
962.713531
30
0
40
10
1
OUT 697.9 IN 625.9 CUT J21.8/Q FINGER ONE END
72
1
11
356.45123
21
962.713531
31
0
73
2
0
POLYLINE
8
PIECES
66
1
70
1
10
0
20
0
30
0
0
VERTEX
8
PIECES
10
1553.804922
20
952.713531
30
0
0
VERTEX
8
PIECES
10
912.902461
20
952.713531
30
0
0
VERTEX
8
PIECES
10
912.902461
20
1132.713531
30
0
0
VERTEX
8
PIECES
10
1625.804922
20
1132.713531
30
0
0
SEQEND
8
PIECES
0
POLYLINE
8
CLAMPS
66
1
70
1
10
0
20
0
30
0
0
VERTEX
8
CLAMPS
10
932.902461
20
977.713531
30
0
0
VERTEX
8
CLAMPS
10
1062.902461
20
977.713531
30
0
0
VERTEX
8
CLAMPS
10
1062.902461
20
1107.713531
30
0
0
VERTEX
8
CLAMPS
10
932.902461
20
1107.713531
30
0
0
SEQEND
8
CLAMPS
0
POLYLINE
8
CLAMPS
66
1
70
1
10
0
20
0
30
0
0
VERTEX
8
CLAMPS
10
1398.804922
20
977.713531
30
0
0
VERTEX
8
CLAMPS
10
1528.804922
20
977.713531
30
0
0
VERTEX
8
CLAMPS
10
1528.804922
20
1107.713531
30
0
0
VERTEX
8
CLAMPS
10
1398.804922
20
1107.713531
30
0
0
SEQEND
8
CLAMPS
0
TEXT
8
TEXT
10
1269.353691
20
1052.713531
30
0
40
15
1
W1 - FRAME HEAD P2 L712.9 x180
72
1
11
1269.353691
21
1052.713531
31
0
73
2
0
TEXT
8
TEXT
10
1269.353691
20
962.713531
30
0
40
10
1
OUT 697.9 IN 625.9 CUT Q/J21.8 FINGER ONE END
72
1
11
1269.353691
21
962.713531
31
0
73
2
0
POLYLINE
8
CONTOUR
66
1
70
1
10
0
20
0
30
0
0
VERTEX
8
CONTOUR
10
1247.986168
20
1404.873917
30
0
42
0.302776
0
VERTEX
8
CONTOUR
10
1155.678475
20
1543.335455
30
0
42
0.2
0
VERTEX
8
CONTOUR
10
140.29386
20
1543.335455
30
0
42
0.302776
0
VERTEX
8
CONTOUR
10
47.986168
20
1404.873917
30
0
0
VERTEX
8
CONTOUR
10
115.986168
20
1404.873917
30
0
42
-0.302776
0
VERTEX
8
CONTOUR
10
166.447706
20
1480.566225
30
0
42
-0.2
0
VERTEX
8
CONTOUR
10
1129.524629
20
1480.566225
30
0
42
-0.302776
0
VERTEX
8
CONTOUR
10
1179.986168
20
1404.873917
30
0
0
SEQEND
8
CONTOUR
0
POLYLINE
8
ASSEMBLY
66
1
70
1
10
0
20
0
30
0
0
VERTEX
8
ASSEMBLY
10
1229.122013
20
1332.713531
30
0
0
VERTEX
8
ASSEMBLY
10
647.986168
20
1565.16787
30
0
0
VERTEX
8
ASSEMBLY
10
647.986168
20
1759.033803
30
0
0
VERTEX
8
ASSEMBLY
10
1295.972335
20
1499.839336
30
0
0
SEQEND
8
ASSEMBLY
0
POLYLINE
8
FINGER
66
1
70
0
10
0
20
0
30
0
0
VERTEX
8
FINGER
10
647.986168
20
1576.873917
30
0
0
VERTEX
8
FINGER
10
647.986168
20
1644.873917
30
0
0
SEQEND
8
FINGER
0
POLYLINE
8
ASSEMBLY
66
1
70
1
10
0
20
0
30
0
0
VERTEX
8
ASSEMBLY
10
647.986168
20
1565.16787
30
0
0
VERTEX
8
ASSEMBLY
10
66.850322
20
1332.713531
30
0
0
VERTEX
8
ASSEMBLY
10
0
20
1499.839336
30
0
0
VERTEX
8
ASSEMBLY
10
647.986168
20
1759.033803
30
0
0
SEQEND
8
ASSEMBLY
0
TEXT
8
TEXT
10
1395.972335
20
1740.533803
30
0
40
15
1
W1 - FRAME HEAD
72
0
11
1395.972335
21
1740.533803
31
0
73
0
0
TEXT
8
TEXT
10
1395.972335
20
1718.533803
30
0
40
15
1
THREE-CENTRE W1200 RISE240 H2000 HINGE L
72
0
11
1395.972335
21
1718.533803
31
0
73
0
0
TEXT
8
TEXT
10
1395.972335
20
1696.533803
30
0
40
15
1
FACE 68 OFFSET 0 OUTER L1395.1 INNER L1181.4
72
0
11
1395.972335
21
1696.533803
31
0
73
0
0
TEXT
8
TEXT
10
1395.972335
20
1674.533803
30
0
40
15
1
CHAIN R150/1320/150 L1395.1 180DEG: FEWEST 2 x board 180 L697.9 ROUGH 712.9 WASTE 56%
72
0
11
1395.972335
21
1674.533803
31
0
73
0
0
TEXT
8
TEXT
10
1395.972335
20
1652.533803
30
0
40
15
1
  NO ECONOMY ALT WITHIN 5 PIECES -> DEFAULT FEWEST
72
0
11
1395.972335
21
1652.533803
31
0
73
0
0
TEXT
8
TEXT
10
1395.972335
20
1630.533803
30
0
40
15
1
FINGER 15/16/3.8
72
0
11
1395.972335
21
1630.533803
31
0
73
0
0
TEXT
8
TEXT
10
1395.972335
20
1608.533803
30
0
40
15
1
ALLOWANCE 10 PER SIDE  LIMITS: OVERALL >= 450 (CLAMP)  SHORTER EDGE >= 400  STOCK MAX 200
72
0
11
1395.972335
21
1608.533803
31
0
73
0
0
TEXT
8
TEXT
10
1395.972335
20
1586.533803
30
0
40
15
1
CLAMPS (SUGGESTION): UNICLAMP 130 x 130, CLEARANCE 20 FROM THE END CUTS, JAWS 40-98, PIECE THICKNESS 93
72
0
11
1395.972335
21
1586.533803
31
0
73
0
0
TEXT
8
TEXT
10
1395.972335
20
1564.533803
30
0
40
15
1
CUT CODES: J = JOINT FROM SQUARE  Q = SQUARE (SPRINGING FACE ROUTED WITH THE CONTOUR)  A = APEX FROM SQUARE
72
0
11
1395.972335
21
1564.533803
31
0
73
0
0
POLYLINE
8
FIT
66
1
70
1
10
0
20
0
30
0
0
VERTEX
8
FIT
10
1200
20
1959.033803
30
0
42
0.302776
0
VERTEX
8
FIT
10
1107.692308
20
2097.495341
30
0
42
0.2
0
VERTEX
8
FIT
10
92.307692
20
2097.495341
30
0
42
0.302776
0
VERTEX
8
FIT
10
0
20
1959.033803
30
0
0
VERTEX
8
FIT
10
68
20
1959.033803
30
0
42
-0.302776
0
VERTEX
8
FIT
10
118.461538
20
2034.72611
30
0
42
-0.2
0
VERTEX
8
FIT
10
1081.538462
20
2034.72611
30
0
42
-0.302776
0
VERTEX
8
FIT
10
1132
20
1959.033803
30
0
0
SEQEND
8
FIT
0
POLYLINE
8
FIT
66
1
70
1
10
0
20
0
30
0
0
VERTEX
8
FIT
10
1149
20
1959.033803
30
0
42
0.302776
0
VERTEX
8
FIT
10
1088.076923
20
2050.418418
30
0
42
0.2
0
VERTEX
8
FIT
10
111.923077
20
2050.418418
30
0
42
0.302776
0
VERTEX
8
FIT
10
51
20
1959.033803
30
0
0
VERTEX
8
FIT
10
118
20
1959.033803
30
0
42
-0.302776
0
VERTEX
8
FIT
10
137.692308
20
1988.572264
30
0
42
-0.2
0
VERTEX
8
FIT
10
1062.307692
20
1988.572264
30
0
42
-0.302776
0
VERTEX
8
FIT
10
1082
20
1959.033803
30
0
0
SEQEND
8
FIT
0
POLYLINE
8
FIT
66
1
70
1
10
0
20
0
30
0
0
VERTEX
8
FIT
10
1094.5
20
1959.033803
30
0
42
0.302776
0
VERTEX
8
FIT
10
1067.115385
20
2000.110726
30
0
42
0.2
0
VERTEX
8
FIT
10
132.884615
20
2000.110726
30
0
42
0.302776
0
VERTEX
8
FIT
10
105.5
20
1959.033803
30
0
0
SEQEND
8
FIT
0
POLYLINE
8
FIT
66
1
70
0
10
0
20
0
30
0
0
VERTEX
8
FIT
10
1153
20
1959.033803
30
0
42
0.048582
0
VERTEX
8
FIT
10
1151.064346
20
1978.90836
30
0
0
SEQEND
8
FIT
0
POLYLINE
8
FIT
66
1
70
0
10
0
20
0
30
0
0
VERTEX
8
FIT
10
1148.661867
20
1988.61143
30
0
42
0.048582
0
VERTEX
8
FIT
10
1141.100532
20
2007.09307
30
0
0
SEQEND
8
FIT
0
POLYLINE
8
FIT
66
1
70
0
10
0
20
0
30
0
0
VERTEX
8
FIT
10
1136.012892
20
2015.697568
30
0
42
0.048582
0
VERTEX
8
FIT
10
1123.46281
20
2031.229478
30
0
0
SEQEND
8
FIT
0
POLYLINE
8
FIT
66
1
70
0
10
0
20
0
30
0
0
VERTEX
8
FIT
10
1116.118571
20
2038.010601
30
0
42
0.048582
0
VERTEX
8
FIT
10
1099.636905
20
2049.284441
30
0
0
SEQEND
8
FIT
0
POLYLINE
8
FIT
66
1
70
0
10
0
20
0
30
0
0
VERTEX
8
FIT
10
1090.654712
20
2053.670975
30
0
42
0.002739
0
VERTEX
8
FIT
10
1089.615385
20
2054.110726
30
0
0
SEQEND
8
FIT
0
POLYLINE
8
FIT
66
1
70
0
10
0
20
0
30
0
0
VERTEX
8
FIT
10
1089.615385
20
2054.110726
30
0
42
0.003928
0
VERTEX
8
FIT
10
1071.09418
20
2061.657696
30
0
0
SEQEND
8
FIT
0
POLYLINE
8
FIT
66
1
70
0
10
0
20
0
30
0
0
VERTEX
8
FIT
10
1061.789687
20
2065.321831
30
0
42
0.003928
0
VERTEX
8
FIT
10
1043.095787
20
2072.430268
30
0
0
SEQEND
8
FIT
0
POLYLINE
8
FIT
66
1
70
0
10
0
20
0
30
0
0
VERTEX
8
FIT
10
1033.707534
20
2075.874132
30
0
42
0.003928
0
VERTEX
8
FIT
10
1014.851321
20
2082.540089
30
0
0
SEQEND
8
FIT
0
POLYLINE
8
FIT
66
1
70
0
10
0
20
0
30
0
0
VERTEX
8
FIT
10
1005.384523
20
2085.761771
30
0
42
0.003928
0
VERTEX
8
FIT
10
986.376467
20
2091.981545
30
0
0
SEQEND
8
FIT
0
POLYLINE
8
FIT
66
1
70
0
10
0
20
0
30
0
0
VERTEX
8
FIT
10
976.836382
20
2094.979254
30
0
42
0.003928
0
VERTEX
8
FIT
10
957.687041
20
2100.749392
30
0
0
SEQEND
8
FIT
0
POLYLINE
8
FIT
66
1
70
0
10
0
20
0
30
0
0
VERTEX
8
FIT
10
948.078966
20
2103.521464
30
0
42
0.003928
0
VERTEX
8
FIT
10
928.798973
20
2108.838761
30
0
0
SEQEND
8
FIT
0
POLYLINE
8
FIT
66
1
70
0
10
0
20
0
30
0
0
VERTEX
8
FIT
10
919.128245
20
2111.383657
30
0
42
0.003928
0
VERTEX
8
FIT
10
899.728307
20
2116.24516
30
0
0
SEQEND
8
FIT
0
POLYLINE
8
FIT
66
1
70
0
10
0
20
0
30
0
0
VERTEX
8
FIT
10
890.000296
20
2118.561466
30
0
42
0.003928
0
VERTEX
8
FIT
10
870.491188
20
2122.964475
30
0
0
SEQEND
8
FIT
0
POLYLINE
8
FIT
66
1
70
0
10
0
20
0
30
0
0
VERTEX
8
FIT
10
860.711296
20
2125.050906
30
0
42
0.003928
0
VERTEX
8
FIT
10
841.103852
20
2128.992975
30
0
0
SEQEND
8
FIT
0
POLYLINE
8
FIT
66
1
70
0
10
0
20
0
30
0
0
VERTEX
8
FIT
10
831.27751
20
2130.848371
30
0
42
0.003928
0
VERTEX
8
FIT
10
811.582619
20
2134.327312
30
0
0
SEQEND
8
FIT
0
POLYLINE
8
FIT
66
1
70
0
10
0
20
0
30
0
0
VERTEX
8
FIT
10
801.715285
20
2135.950643
30
0
42
0.003928
0
VERTEX
8
FIT
10
781.943884
20
2138.964524
30
0
0
SEQEND
8
FIT
0
POLYLINE
8
FIT
66
1
70
0
10
0
20
0
30
0
0
VERTEX
8
FIT
10
772.041037
20
2140.354889
30
0
42
0.003928
0
VERTEX
8
FIT
10
752.204106
20
2142.902036
30
0
0
SEQEND
8
FIT
0
POLYLINE
8
FIT
66
1
70
0
10
0
20
0
30
0
0
VERTEX
8
FIT
10
742.271247
20
2144.058661
30
0
42
0.003928
0
VERTEX
8
FIT
10
722.379803
20
2146.13766
30
0
0
SEQEND
8
FIT
0
POLYLINE
8
FIT
66
1
70
0
10
0
20
0
30
0
0
VERTEX
8
FIT
10
712.422446
20
2147.059904
30
0
42
0.003928
0
VERTEX
8
FIT
10
692.487536
20
2148.669599
30
0
0
SEQEND
8
FIT
0
POLYLINE
8
FIT
66
1
70
0
10
0
20
0
30
0
0
VERTEX
8
FIT
10
682.511212
20
2149.356951
30
0
42
0.003928
0
VERTEX
8
FIT
10
662.543906
20
2150.496449
30
0
0
SEQEND
8
FIT
0
POLYLINE
8
FIT
66
1
70
0
10
0
20
0
30
0
0
VERTEX
8
FIT
10
652.554156
20
2150.948525
30
0
42
0.003928
0
VERTEX
8
FIT
10
632.565542
20
2151.617193
30
0
0
SEQEND
8
FIT
0
POLYLINE
8
FIT
66
1
70
0
10
0
20
0
30
0
0
VERTEX
8
FIT
10
622.567913
20
2151.833744
30
0
42
0.003928
0
VERTEX
8
FIT
10
602.569094
20
2152.03121
30
0
0
SEQEND
8
FIT
0
POLYLINE
8
FIT
66
1
70
0
10
0
20
0
30
0
0
VERTEX
8
FIT
10
592.569138
20
2152.012115
30
0
42
0.003928
0
VERTEX
8
FIT
10
572.571218
20
2151.73827
30
0
0
SEQEND
8
FIT
0
POLYLINE
8
FIT
66
1
70
0
10
0
20
0
30
0
0
VERTEX
8
FIT
10
562.574489
20
2151.483539
30
0
42
0.003928
0
VERTEX
8
FIT
10
542.588575
20
2150.738536
30
0
0
SEQEND
8
FIT
0
POLYLINE
8
FIT
66
1
70
0
10
0
20
0
30
0
0
VERTEX
8
FIT
10
532.600624
20
2150.24831
30
0
42
0.003928
0
VERTEX
8
FIT
10
512.637816
20
2149.032562
30
0
0
SEQEND
8
FIT
0
POLYLINE
8
FIT
66
1
70
0
10
0
20
0
30
0
0
VERTEX
8
FIT
10
502.66419
20
2148.307115
30
0
42
0.003928
0
VERTEX
8
FIT
10
482.735572
20
2146.621296
30
0
0
SEQEND
8
FIT
0
POLYLINE
8
FIT
66
1
70
0
10
0
20
0
30
0
0
VERTEX
8
FIT
10
472.781811
20
2145.66103
30
0
42
0.003928
0
VERTEX
8
FIT
10
452.898452
20
2143.506078
30
0
0
SEQEND
8
FIT
0
POLYLINE
8
FIT
66
1
70
0
10
0
20
0
30
0
0
VERTEX
8
FIT
10
442.970082
20
2142.311526
30
0
42
0.003928
0
VERTEX
8
FIT
10
423.143024
20
2139.688637
30
0
0
SEQEND
8
FIT
0
POLYLINE
8
FIT
66
1
70
0
10
0
20
0
30
0
0
VERTEX
8
FIT
10
413.24556
20
2138.260462
30
0
42
0.003928
0
VERTEX
8
FIT
10
393.485813
20
2135.171093
30
0
0
SEQEND
8
FIT
0
POLYLINE
8
FIT
66
1
70
0
10
0
20
0
30
0
0
VERTEX
8
FIT
10
383.624751
20
2133.510089
30
0
42
0.003928
0
VERTEX
8
FIT
10
363.94329
20
2129.955954
30
0
0
SEQEND
8
FIT
0
POLYLINE
8
FIT
66
1
70
0
10
0
20
0
30
0
0
VERTEX
8
FIT
10
354.124106
20
2128.063044
30
0
42
0.003928
0
VERTEX
8
FIT
10
334.53186
20
2124.046119
30
0
0
SEQEND
8
FIT
0
POLYLINE
8
FIT
66
1
70
0
10
0
20
0
30
0
0
VERTEX
8
FIT
10
324.760008
20
2121.922352
30
0
42
0.003928
0
VERTEX
8
FIT
10
305.267858
20
2117.444867
30
0
0
SEQEND
8
FIT
0
POLYLINE
8
FIT
66
1
70
0
10
0
20
0
30
0
0
VERTEX
8
FIT
10
295.548764
20
2115.091425
30
0
42
0.003928
0
VERTEX
8
FIT
10
276.167535
20
2110.155866
30
0
0
SEQEND
8
FIT
0
POLYLINE
8
FIT
66
1
70
0
10
0
20
0
30
0
0
VERTEX
8
FIT
10
266.506596
20
2107.574054
30
0
42
0.003928
0
VERTEX
8
FIT
10
247.247052
20
2102.183163
30
0
0
SEQEND
8
FIT
0
POLYLINE
8
FIT
66
1
70
0
10
0
20
0
30
0
0
VERTEX
8
FIT
10
237.649634
20
2099.374416
30
0
42
0.003928
0
VERTEX
8
FIT
10
218.522469
20
2093.531186
30
0
0
SEQEND
8
FIT
0
POLYLINE
8
FIT
66
1
70
0
10
0
20
0
30
0
0
VERTEX
8
FIT
10
208.993902
20
2090.497063
30
0
42
0.003928
0
VERTEX
8
FIT
10
190.00974
20
2084.204739
30
0
0
SEQEND
8
FIT
0
POLYLINE
8
FIT
66
1
70
0
10
0
20
0
30
0
0
VERTEX
8
FIT
10
180.555315
20
2080.946926
30
0
42
0.003928
0
VERTEX
8
FIT
10
161.724698
20
2074.209003
30
0
0
SEQEND
8
FIT
0
POLYLINE
8
FIT
66
1
70
0
10
0
20
0
30
0
0
VERTEX
8
FIT
10
152.349666
20
2070.729309
30
0
42
0.003928
0
VERTEX
8
FIT
10
133.683051
20
2063.549528
30
0
0
SEQEND
8
FIT
0
POLYLINE
8
FIT
66
1
70
0
10
0
20
0
30
0
0
VERTEX
8
FIT
10
124.392619
20
2059.849885
30
0
42
0.002973
0
VERTEX
8
FIT
10
110.384615
20
2054.110726
30
0
0
SEQEND
8
FIT
0
POLYLINE
8
FIT
66
1
70
0
10
0
20
0
30
0
0
VERTEX
8
FIT
10
110.384615
20
2054.110726
30
0
42
0.048582
0
VERTEX
8
FIT
10
92.783353
20
2044.679908
30
0
0
SEQEND
8
FIT
0
POLYLINE
8
FIT
66
1
70
0
10
0
20
0
30
0
0
VERTEX
8
FIT
10
84.750703
20
2038.730285
30
0
42
0.048582
0
VERTEX
8
FIT
10
70.598934
20
2024.642268
30
0
0
SEQEND
8
FIT
0
POLYLINE
8
FIT
66
1
70
0
10
0
20
0
30
0
0
VERTEX
8
FIT
10
64.613104
20
2016.636563
30
0
42
0.048582
0
VERTEX
8
FIT
10
55.102911
20
1999.07806
30
0
0
SEQEND
8
FIT
0
POLYLINE
8
FIT
66
1
70
0
10
0
20
0
30
0
0
VERTEX
8
FIT
10
51.668121
20
1989.690638
30
0
42
0.048582
0
VERTEX
8
FIT
10
47.600601
20
1970.1407
30
0
0
SEQEND
8
FIT
0
POLYLINE
8
FIT
66
1
70
0
10
0
20
0
30
0
0
VERTEX
8
FIT
10
47.006182
20
1960.162317
30
0
42
0.002739
0
VERTEX
8
FIT
10
47
20
1959.033803
30
0
0
SEQEND
8
FIT
0
TEXT
8
TEXT
10
1300
20
2133.53121
30
0
40
15
1
W1 - FIT (ASSEMBLY, NOT A TOOLPATH)
72
0
11
1300
21
2133.53121
31
0
73
0
0
TEXT
8
TEXT
10
1300
20
2111.53121
30
0
40
15
1
GAP 4 LAP 17 (REBATE)
72
0
11
1300
21
2111.53121
31
0
73
0
0
TEXT
8
TEXT
10
1300
20
2089.53121
30
0
40
15
1
FRAME R150/1320/150 / 82/1252/82  REBATE WALL R103/1273/103 (LAND 47, DASHED)
72
0
11
1300
21
2089.53121
31
0
73
0
0
TEXT
8
TEXT
10
1300
20
2067.53121
30
0
40
15
1
LEAF R99/1269/99 / 32/1202/32  GLASS R44.5/1214.5/44.5
72
0
11
1300
21
2067.53121
31
0
73
0
0
ENDSEC
0
EOF
