0
SECTION
2
HEADER
9
$ACADVER
1
AC1009
0
ENDSEC
0
SECTION
2
TABLES
0
TABLE
2
LAYER
70
8
0
LAYER
2
0
70
0
62
7
6
CONTINUOUS
0
LAYER
2
FIT
70
0
62
4
6
CONTINUOUS
0
LAYER
2
CONTOUR
70
0
62
7
6
CONTINUOUS
0
LAYER
2
ASSEMBLY
70
0
62
8
6
CONTINUOUS
0
LAYER
2
PIECES
70
0
62
5
6
CONTINUOUS
0
LAYER
2
FINGER
70
0
62
1
6
CONTINUOUS
0
LAYER
2
CLAMPS
70
0
62
3
6
CONTINUOUS
0
LAYER
2
TEXT
70
0
62
94
6
CONTINUOUS
0
ENDTAB
0
ENDSEC
0
SECTION
2
ENTITIES
0
POLYLINE
8
PIECES
66
1
70
1
10
0
20
0
30
0
0
VERTEX
8
PIECES
10
540.197693
20
0
30
0
0
VERTEX
8
PIECES
10
47.204159
20
0
30
0
0
VERTEX
8
PIECES
10
0
20
150
30
0
0
VERTEX
8
PIECES
10
540.197693
20
150
30
0
0
SEQEND
8
PIECES
0
POLYLINE
8
CLAMPS
66
1
70
1
10
0
20
0
30
0
0
VERTEX
8
CLAMPS
10
79.057216
20
10
30
0
0
VERTEX
8
CLAMPS
10
209.057216
20
10
30
0
0
VERTEX
8
CLAMPS
10
209.057216
20
140
30
0
0
VERTEX
8
CLAMPS
10
79.057216
20
140
30
0
0
SEQEND
8
CLAMPS
0
POLYLINE
8
CLAMPS
66
1
70
1
10
0
20
0
30
0
0
VERTEX
8
CLAMPS
10
390.197693
20
10
30
0
0
VERTEX
8
CLAMPS
10
520.197693
20
10
30
0
0
VERTEX
8
CLAMPS
10
520.197693
20
140
30
0
0
VERTEX
8
CLAMPS
10
390.197693
20
140
30
0
0
SEQEND
8
CLAMPS
0
TEXT
8
TEXT
10
270.098847
20
-25
30
0
40
15
1
T - LEAF TOP P1 L540.2 x150
72
1
11
270.098847
21
-25
31
0
73
2
0
TEXT
8
TEXT
10
270.098847
20
-50
30
0
40
10
1
OUT 525.2 IN 478 CUT J17.5/Q FINGER ONE END
72
1
11
270.098847
21
-50
31
0
73
2
0
POLYLINE
8
PIECES
66
1
70
1
10
0
20
0
30
0
0
VERTEX
8
PIECES
10
1293.369761
20
0
30
0
0
VERTEX
8
PIECES
10
855.690348
20
0
30
0
0
VERTEX
8
PIECES
10
740.197693
20
150
30
0
0
VERTEX
8
PIECES
10
1340.57392
20
150
30
0
0
SEQEND
8
PIECES
0
POLYLINE
8
CLAMPS
66
1
70
1
10
0
20
0
30
0
0
VERTEX
8
CLAMPS
10
882.990838
20
10
30
0
0
VERTEX
8
CLAMPS
10
1012.990838
20
10
30
0
0
VERTEX
8
CLAMPS
10
1012.990838
20
140
30
0
0
VERTEX
8
CLAMPS
10
882.990838
20
140
30
0
0
SEQEND
8
CLAMPS
0
POLYLINE
8
CLAMPS
66
1
70
1
10
0
20
0
30
0
0
VERTEX
8
CLAMPS
10
1131.516705
20
10
30
0
0
VERTEX
8
CLAMPS
10
1261.516705
20
10
30
0
0
VERTEX
8
CLAMPS
10
1261.516705
20
140
30
0
0
VERTEX
8
CLAMPS
10
1131.516705
20
140
30
0
0
SEQEND
8
CLAMPS
0
TEXT
8
TEXT
10
1040.385807
20
-25
30
0
40
15
1
T - LEAF TOP P2 L600.4 x150
72
1
11
1040.385807
21
-25
31
0
73
2
0
TEXT
8
TEXT
10
1040.385807
20
-50
30
0
40
10
1
OUT 570.4 IN 407.7 CUT A37.6/J17.5 FINGER BOTH ENDS
72
1
11
1040.385807
21
-50
31
0
73
2
0
POLYLINE
8
PIECES
66
1
70
1
10
0
20
0
30
0
0
VERTEX
8
PIECES
10
2025.457492
20
0
30
0
0
VERTEX
8
PIECES
10
1587.77808
20
0
30
0
0
VERTEX
8
PIECES
10
1540.57392
20
150
30
0
0
VERTEX
8
PIECES
10
2140.950148
20
150
30
0
0
SEQEND
8
PIECES
0
POLYLINE
8
CLAMPS
66
1
70
1
10
0
20
0
30
0
0
VERTEX
8
CLAMPS
10
1619.631136
20
10
30
0
0
VERTEX
8
CLAMPS
10
1749.631136
20
10
30
0
0
VERTEX
8
CLAMPS
10
1749.631136
20
140
30
0
0
VERTEX
8
CLAMPS
10
1619.631136
20
140
30
0
0
SEQEND
8
CLAMPS
0
POLYLINE
8
CLAMPS
66
1
70
1
10
0
20
0
30
0
0
VERTEX
8
CLAMPS
10
1868.157003
20
10
30
0
0
VERTEX
8
CLAMPS
10
1998.157003
20
10
30
0
0
VERTEX
8
CLAMPS
10
1998.157003
20
140
30
0
0
VERTEX
8
CLAMPS
10
1868.157003
20
140
30
0
0
SEQEND
8
CLAMPS
0
TEXT
8
TEXT
10
1840.762034
20
-25
30
0
40
15
1
T - LEAF TOP P3 L600.4 x150
72
1
11
1840.762034
21
-25
31
0
73
2
0
TEXT
8
TEXT
10
1840.762034
20
-50
30
0
40
10
1
OUT 570.4 IN 407.7 CUT J17.5/A37.6 FINGER BOTH ENDS
72
1
11
1840.762034
21
-50
31
0
73
2
0
POLYLINE
8
PIECES
66
1
70
1
10
0
20
0
30
0
0
VERTEX
8
PIECES
10
2833.943681
20
0
30
0
0
VERTEX
8
PIECES
10
2340.950148
20
0
30
0
0
VERTEX
8
PIECES
10
2340.950148
20
150
30
0
0
VERTEX
8
PIECES
10
2881.147841
20
150
30
0
0
SEQEND
8
PIECES
0
POLYLINE
8
CLAMPS
66
1
70
1
10
0
20
0
30
0
0
VERTEX
8
CLAMPS
10
2360.950148
20
10
30
0
0
VERTEX
8
CLAMPS
10
2490.950148
20
10
30
0
0
VERTEX
8
CLAMPS
10
2490.950148
20
140
30
0
0
VERTEX
8
CLAMPS
10
2360.950148
20
140
30
0
0
SEQEND
8
CLAMPS
0
POLYLINE
8
CLAMPS
66
1
70
1
10
0
20
0
30
0
0
VERTEX
8
CLAMPS
10
2672.090625
20
10
30
0
0
VERTEX
8
CLAMPS
10
2802.090625
20
10
30
0
0
VERTEX
8
CLAMPS
10
2802.090625
20
140
30
0
0
VERTEX
8
CLAMPS
10
2672.090625
20
140
30
0
0
SEQEND
8
CLAMPS
0
TEXT
8
TEXT
10
2611.048994
20
-25
30
0
40
15
1
T - LEAF TOP P4 L540.2 x150
72
1
11
2611.048994
21
-25
31
0
73
2
0
TEXT
8
TEXT
10
2611.048994
20
-50
30
0
40
10
1
OUT 525.2 IN 478 CUT Q/J17.5 FINGER ONE END
72
1
11
2611.048994
21
-50
31
0
73
2
0
POLYLINE
8
CONTOUR
66
1
70
1
10
0
20
0
30
0
0
VERTEX
8
CONTOUR
10
1158.591084
20
379.106474
30
0
42
0.314694
0
VERTEX
8
CONTOUR
10
609.591084
20
1164.997688
30
0
42
0.314694
0
VERTEX
8
CONTOUR
10
60.591084
20
379.106474
30
0
0
VERTEX
8
CONTOUR
10
127.591084
20
379.106474
30
0
42
-0.305902
0
VERTEX
8
CONTOUR
10
609.591084
20
1093.21851
30
0
42
-0.305902
0
VERTEX
8
CONTOUR
10
1091.591084
20
379.106474
30
0
0
SEQEND
8
CONTOUR
0
POLYLINE
8
ASSEMBLY
66
1
70
1
10
0
20
0
30
0
0
VERTEX
8
ASSEMBLY
10
1076.099846
20
350
30
0
0
VERTEX
8
ASSEMBLY
10
932.615094
20
805.949497
30
0
0
VERTEX
8
ASSEMBLY
10
1061.527606
20
896.003907
30
0
0
VERTEX
8
ASSEMBLY
10
1219.182167
20
395.027205
30
0
0
SEQEND
8
ASSEMBLY
0
POLYLINE
8
FINGER
66
1
70
0
10
0
20
0
30
0
0
VERTEX
8
FINGER
10
952.823451
20
820.066449
30
0
0
VERTEX
8
FINGER
10
1007.748864
20
858.435693
30
0
0
SEQEND
8
FINGER
0
POLYLINE
8
ASSEMBLY
66
1
70
1
10
0
20
0
30
0
0
VERTEX
8
ASSEMBLY
10
932.615094
20
805.949497
30
0
0
VERTEX
8
ASSEMBLY
10
609.591084
20
1054.662168
30
0
0
VERTEX
8
ASSEMBLY
10
609.591084
20
1243.9729
30
0
0
VERTEX
8
ASSEMBLY
10
1061.527606
20
896.003907
30
0
0
SEQEND
8
ASSEMBLY
0
POLYLINE
8
FINGER
66
1
70
0
10
0
20
0
30
0
0
VERTEX
8
FINGER
10
609.591084
20
1093.21851
30
0
0
VERTEX
8
FINGER
10
609.591084
20
1164.997688
30
0
0
SEQEND
8
FINGER
0
POLYLINE
8
ASSEMBLY
66
1
70
1
10
0
20
0
30
0
0
VERTEX
8
ASSEMBLY
10
609.591084
20
1054.662168
30
0
0
VERTEX
8
ASSEMBLY
10
286.567074
20
805.949497
30
0
0
VERTEX
8
ASSEMBLY
10
157.654561
20
896.003907
30
0
0
VERTEX
8
ASSEMBLY
10
609.591084
20
1243.9729
30
0
0
SEQEND
8
ASSEMBLY
0
POLYLINE
8
FINGER
66
1
70
0
10
0
20
0
30
0
0
VERTEX
8
FINGER
10
266.358717
20
820.066449
30
0
0
VERTEX
8
FINGER
10
211.433303
20
858.435693
30
0
0
SEQEND
8
FINGER
0
POLYLINE
8
ASSEMBLY
66
1
70
1
10
0
20
0
30
0
0
VERTEX
8
ASSEMBLY
10
286.567074
20
805.949497
30
0
0
VERTEX
8
ASSEMBLY
10
143.082322
20
350
30
0
0
VERTEX
8
ASSEMBLY
10
0
20
395.027205
30
0
0
VERTEX
8
ASSEMBLY
10
157.654561
20
896.003907
30
0
0
SEQEND
8
ASSEMBLY
0
TEXT
8
TEXT
10
1319.182167
20
1225.4729
30
0
40
15
1
T - LEAF TOP
72
0
11
1319.182167
21
1225.4729
31
0
73
0
0
TEXT
8
TEXT
10
1319.182167
20
1203.4729
30
0
40
15
1
GOTHIC DROP W1200 RISE840 H2000 HINGE R
72
0
11
1319.182167
21
1203.4729
31
0
73
0
0
TEXT
8
TEXT
10
1319.182167
20
1181.4729
30
0
40
15
1
FACE 67 OFFSET 51 OUTER L2041.5 INNER L1828.7
72
0
11
1319.182167
21
1181.4729
31
0
73
0
0
TEXT
8
TEXT
10
1319.182167
20
1159.4729
30
0
40
15
1
SIDE 1 R837 L1020.7 69.9DEG: FEWEST 2 x board 150 L570.4 ROUGH 600.4 WASTE 51%
72
0
11
1319.182167
21
1159.4729
31
0
73
0
0
TEXT
8
TEXT
10
1319.182167
20
1137.4729
30
0
40
15
1
  NO ECONOMY ALT WITHIN 5 PIECES -> DEFAULT FEWEST
72
0
11
1319.182167
21
1137.4729
31
0
73
0
0
TEXT
8
TEXT
10
1319.182167
20
1115.4729
30
0
40
15
1
SIDE 2 R837 L1020.7 69.9DEG: FEWEST 2 x board 150 L570.4 ROUGH 600.4 WASTE 51%
72
0
11
1319.182167
21
1115.4729
31
0
73
0
0
TEXT
8
TEXT
10
1319.182167
20
1093.4729
30
0
40
15
1
  NO ECONOMY ALT WITHIN 5 PIECES -> DEFAULT FEWEST
72
0
11
1319.182167
21
1093.4729
31
0
73
0
0
TEXT
8
TEXT
10
1319.182167
20
1071.4729
30
0
40
15
1
FINGER 15/16/3.8
72
0
11
1319.182167
21
1071.4729
31
0
73
0
0
TEXT
8
TEXT
10
1319.182167
20
1049.4729
30
0
40
15
1
ALLOWANCE 10 PER SIDE  LIMITS: OVERALL >= 450 (CLAMP)  SHORTER EDGE >= 400  STOCK MAX 200
72
0
11
1319.182167
21
1049.4729
31
0
73
0
0
TEXT
8
TEXT
10
1319.182167
20
1027.4729
30
0
40
15
1
CLAMPS (SUGGESTION): UNICLAMP 130 x 130, CLEARANCE 20 FROM THE END CUTS, JAWS 40-98, PIECE THICKNESS 57
72
0
11
1319.182167
21
1027.4729
31
0
73
0
0
TEXT
8
TEXT
10
1319.182167
20
1005.4729
30
0
40
15
1
CUT CODES: J = JOINT FROM SQUARE  Q = SQUARE (SPRINGING FACE ROUTED WITH THE CONTOUR)  A = APEX FROM SQUARE
72
0
11
1319.182167
21
1005.4729
31
0
73
0
0
POLYLINE
8
PIECES
66
1
70
1
10
0
20
0
30
0
0
VERTEX
8
PIECES
10
580.569881
20
1443.9729
30
0
0
VERTEX
8
PIECES
10
48.069758
20
1443.9729
30
0
0
VERTEX
8
PIECES
10
0
20
1593.9729
30
0
0
VERTEX
8
PIECES
10
580.569881
20
1593.9729
30
0
0
SEQEND
8
PIECES
0
POLYLINE
8
CLAMPS
66
1
70
1
10
0
20
0
30
0
0
VERTEX
8
CLAMPS
10
79.865107
20
1453.9729
30
0
0
VERTEX
8
CLAMPS
10
209.865107
20
1453.9729
30
0
0
VERTEX
8
CLAMPS
10
209.865107
20
1583.9729
30
0
0
VERTEX
8
CLAMPS
10
79.865107
20
1583.9729
30
0
0
SEQEND
8
CLAMPS
0
POLYLINE
8
CLAMPS
66
1
70
1
10
0
20
0
30
0
0
VERTEX
8
CLAMPS
10
430.569881
20
1453.9729
30
0
0
VERTEX
8
CLAMPS
10
560.569881
20
1453.9729
30
0
0
VERTEX
8
CLAMPS
10
560.569881
20
1583.9729
30
0
0
VERTEX
8
CLAMPS
10
430.569881
20
1583.9729
30
0
0
SEQEND
8
CLAMPS
0
TEXT
8
TEXT
10
290.28494
20
1418.9729
30
0
40
15
1
T - FRAME HEAD P1 L580.6 x150
72
1
11
290.28494
21
1418.9729
31
0
73
2
0
TEXT
8
TEXT
10
290.28494
20
1393.9729
30
0
40
10
1
OUT 565.6 IN 517.5 CUT J17.8/Q FINGER ONE END
72
1
11
290.28494
21
1393.9729
31
0
73
2
0
POLYLINE
8
PIECES
66
1
70
1
10
0
20
0
30
0
0
VERTEX
8
PIECES
10
1372.74179
20
1443.9729
30
0
0
VERTEX
8
PIECES
10
892.349898
20
1443.9729
30
0
0
VERTEX
8
PIECES
10
780.569881
20
1593.9729
30
0
0
VERTEX
8
PIECES
10
1420.811548
20
1593.9729
30
0
0
SEQEND
8
PIECES
0
POLYLINE
8
CLAMPS
66
1
70
1
10
0
20
0
30
0
0
VERTEX
8
CLAMPS
10
919.897897
20
1453.9729
30
0
0
VERTEX
8
CLAMPS
10
1049.897897
20
1453.9729
30
0
0
VERTEX
8
CLAMPS
10
1049.897897
20
1583.9729
30
0
0
VERTEX
8
CLAMPS
10
919.897897
20
1583.9729
30
0
0
SEQEND
8
CLAMPS
0
POLYLINE
8
CLAMPS
66
1
70
1
10
0
20
0
30
0
0
VERTEX
8
CLAMPS
10
1210.946441
20
1453.9729
30
0
0
VERTEX
8
CLAMPS
10
1340.946441
20
1453.9729
30
0
0
VERTEX
8
CLAMPS
10
1340.946441
20
1583.9729
30
0
0
VERTEX
8
CLAMPS
10
1210.946441
20
1583.9729
30
0
0
SEQEND
8
CLAMPS
0
TEXT
8
TEXT
10
1100.690714
20
1418.9729
30
0
40
15
1
T - FRAME HEAD P2 L640.2 x150
72
1
11
1100.690714
21
1418.9729
31
0
73
2
0
TEXT
8
TEXT
10
1100.690714
20
1393.9729
30
0
40
10
1
OUT 610.2 IN 450.4 CUT A36.7/J17.8 FINGER BOTH ENDS
72
1
11
1100.690714
21
1393.9729
31
0
73
2
0
POLYLINE
8
PIECES
66
1
70
1
10
0
20
0
30
0
0
VERTEX
8
PIECES
10
2149.273199
20
1443.9729
30
0
0
VERTEX
8
PIECES
10
1668.881306
20
1443.9729
30
0
0
VERTEX
8
PIECES
10
1620.811548
20
1593.9729
30
0
0
VERTEX
8
PIECES
10
2261.053216
20
1593.9729
30
0
0
SEQEND
8
PIECES
0
POLYLINE
8
CLAMPS
66
1
70
1
10
0
20
0
30
0
0
VERTEX
8
CLAMPS
10
1700.676656
20
1453.9729
30
0
0
VERTEX
8
CLAMPS
10
1830.676656
20
1453.9729
30
0
0
VERTEX
8
CLAMPS
10
1830.676656
20
1583.9729
30
0
0
VERTEX
8
CLAMPS
10
1700.676656
20
1583.9729
30
0
0
SEQEND
8
CLAMPS
0
POLYLINE
8
CLAMPS
66
1
70
1
10
0
20
0
30
0
0
VERTEX
8
CLAMPS
10
1991.7252
20
1453.9729
30
0
0
VERTEX
8
CLAMPS
10
2121.7252
20
1453.9729
30
0
0
VERTEX
8
CLAMPS
10
2121.7252
20
1583.9729
30
0
0
VERTEX
8
CLAMPS
10
1991.7252
20
1583.9729
30
0
0
SEQEND
8
CLAMPS
0
TEXT
8
TEXT
10
1940.932382
20
1418.9729
30
0
40
15
1
T - FRAME HEAD P3 L640.2 x150
72
1
11
1940.932382
21
1418.9729
31
0
73
2
0
TEXT
8
TEXT
10
1940.932382
20
1393.9729
30
0
40
10
1
OUT 610.2 IN 450.4 CUT J17.8/A36.7 FINGER BOTH ENDS
72
1
11
1940.932382
21
1393.9729
31
0
73
2
0
POLYLINE
8
PIECES
66
1
70
1
10
0
20
0
30
0
0
VERTEX
8
PIECES
10
2993.553338
20
1443.9729
30
0
0
VERTEX
8
PIECES
10
2461.053216
20
1443.9729
30
0
0
VERTEX
8
PIECES
10
2461.053216
20
1593.9729
30
0
0
VERTEX
8
PIECES
10
3041.623096
20
1593.9729
30
0
0
SEQEND
8
PIECES
0
POLYLINE
8
CLAMPS
66
1
70
1
10
0
20
0
30
0
0
VERTEX
8
CLAMPS
10
2481.053216
20
1453.9729
30
0
0
VERTEX
8
CLAMPS
10
2611.053216
20
1453.9729
30
0
0
VERTEX
8
CLAMPS
10
2611.053216
20
1583.9729
30
0
0
VERTEX
8
CLAMPS
10
2481.053216
20
1583.9729
30
0
0
SEQEND
8
CLAMPS
0
POLYLINE
8
CLAMPS
66
1
70
1
10
0
20
0
30
0
0
VERTEX
8
CLAMPS
10
2831.757989
20
1453.9729
30
0
0
VERTEX
8
CLAMPS
10
2961.757989
20
1453.9729
30
0
0
VERTEX
8
CLAMPS
10
2961.757989
20
1583.9729
30
0
0
VERTEX
8
CLAMPS
10
2831.757989
20
1583.9729
30
0
0
SEQEND
8
CLAMPS
0
TEXT
8
TEXT
10
2751.338156
20
1418.9729
30
0
40
15
1
T - FRAME HEAD P4 L580.6 x150
72
1
11
2751.338156
21
1418.9729
31
0
73
2
0
TEXT
8
TEXT
10
2751.338156
20
1393.9729
30
0
40
10
1
OUT 565.6 IN 517.5 CUT Q/J17.8 FINGER ONE END
72
1
11
2751.338156
21
1393.9729
31
0
73
2
0
POLYLINE
8
CONTOUR
66
1
70
1
10
0
20
0
30
0
0
VERTEX
8
CONTOUR
10
1261.917546
20
1823.111756
30
0
42
0.320465
0
VERTEX
8
CONTOUR
10
661.917546
20
2663.111756
30
0
42
0.320465
0
VERTEX
8
CONTOUR
10
61.917546
20
1823.111756
30
0
0
VERTEX
8
CONTOUR
10
129.917546
20
1823.111756
30
0
42
-0.312605
0
VERTEX
8
CONTOUR
10
661.917546
20
2590.872135
30
0
42
-0.312605
0
VERTEX
8
CONTOUR
10
1193.917546
20
1823.111756
30
0
0
SEQEND
8
CONTOUR
0
POLYLINE
8
ASSEMBLY
66
1
70
1
10
0
20
0
30
0
0
VERTEX
8
ASSEMBLY
10
1180.990765
20
1793.9729
30
0
0
VERTEX
8
ASSEMBLY
10
1023.061407
20
2286.785943
30
0
0
VERTEX
8
ASSEMBLY
10
1151.235928
20
2378.339172
30
0
0
VERTEX
8
ASSEMBLY
10
1323.835092
20
1839.749515
30
0
0
SEQEND
8
ASSEMBLY
0
POLYLINE
8
FINGER
66
1
70
0
10
0
20
0
30
0
0
VERTEX
8
FINGER
10
1041.178992
20
2299.727075
30
0
0
VERTEX
8
FINGER
10
1096.512868
20
2339.251272
30
0
0
SEQEND
8
FINGER
0
POLYLINE
8
ASSEMBLY
66
1
70
1
10
0
20
0
30
0
0
VERTEX
8
ASSEMBLY
10
1023.061407
20
2286.785943
30
0
0
VERTEX
8
ASSEMBLY
10
661.917546
20
2555.91039
30
0
0
VERTEX
8
ASSEMBLY
10
661.917546
20
2742.979287
30
0
0
VERTEX
8
ASSEMBLY
10
1151.235928
20
2378.339172
30
0
0
SEQEND
8
ASSEMBLY
0
POLYLINE
8
FINGER
66
1
70
0
10
0
20
0
30
0
0
VERTEX
8
FINGER
10
661.917546
20
2590.872135
30
0
0
VERTEX
8
FINGER
10
661.917546
20
2663.111756
30
0
0
SEQEND
8
FINGER
0
POLYLINE
8
ASSEMBLY
66
1
70
1
10
0
20
0
30
0
0
VERTEX
8
ASSEMBLY
10
661.917546
20
2555.91039
30
0
0
VERTEX
8
ASSEMBLY
10
300.773684
20
2286.785943
30
0
0
VERTEX
8
ASSEMBLY
10
172.599163
20
2378.339172
30
0
0
VERTEX
8
ASSEMBLY
10
661.917546
20
2742.979287
30
0
0
SEQEND
8
ASSEMBLY
0
POLYLINE
8
FINGER
66
1
70
0
10
0
20
0
30
0
0
VERTEX
8
FINGER
10
282.656099
20
2299.727075
30
0
0
VERTEX
8
FINGER
10
227.322223
20
2339.251272
30
0
0
SEQEND
8
FINGER
0
POLYLINE
8
ASSEMBLY
66
1
70
1
10
0
20
0
30
0
0
VERTEX
8
ASSEMBLY
10
300.773684
20
2286.785943
30
0
0
VERTEX
8
ASSEMBLY
10
142.844326
20
1793.9729
30
0
0
VERTEX
8
ASSEMBLY
10
0
20
1839.749515
30
0
0
VERTEX
8
ASSEMBLY
10
172.599163
20
2378.339172
30
0
0
SEQEND
8
ASSEMBLY
0
TEXT
8
TEXT
10
1423.835092
20
2724.479287
30
0
40
15
1
T - FRAME HEAD
72
0
11
1423.835092
21
2724.479287
31
0
73
0
0
TEXT
8
TEXT
10
1423.835092
20
2702.479287
30
0
40
15
1
GOTHIC DROP W1200 RISE840 H2000 HINGE R
72
0
11
1423.835092
21
2702.479287
31
0
73
0
0
TEXT
8
TEXT
10
1423.835092
20
2680.479287
30
0
40
15
1
FACE 68 OFFSET 0 OUTER L2203.1 INNER L1987.6
72
0
11
1423.835092
21
2680.479287
31
0
73
0
0
TEXT
8
TEXT
10
1423.835092
20
2658.479287
30
0
40
15
1
SIDE 1 R888 L1101.6 71.1DEG: FEWEST 2 x board 150 L610.2 ROUGH 640.2 WASTE 50%
72
0
11
1423.835092
21
2658.479287
31
0
73
0
0
TEXT
8
TEXT
10
1423.835092
20
2636.479287
30
0
40
15
1
  NO ECONOMY ALT WITHIN 5 PIECES -> DEFAULT FEWEST
72
0
11
1423.835092
21
2636.479287
31
0
73
0
0
TEXT
8
TEXT
10
1423.835092
20
2614.479287
30
0
40
15
1
SIDE 2 R888 L1101.6 71.1DEG: FEWEST 2 x board 150 L610.2 ROUGH 640.2 WASTE 50%
72
0
11
1423.835092
21
2614.479287
31
0
73
0
0
TEXT
8
TEXT
10
1423.835092
20
2592.479287
30
0
40
15
1
  NO ECONOMY ALT WITHIN 5 PIECES -> DEFAULT FEWEST
72
0
11
1423.835092
21
2592.479287
31
0
73
0
0
TEXT
8
TEXT
10
1423.835092
20
2570.479287
30
0
40
15
1
FINGER 15/16/3.8
72
0
11
1423.835092
21
2570.479287
31
0
73
0
0
TEXT
8
TEXT
10
1423.835092
20
2548.479287
30
0
40
15
1
ALLOWANCE 10 PER SIDE  LIMITS: OVERALL >= 450 (CLAMP)  SHORTER EDGE >= 400  STOCK MAX 200
72
0
11
1423.835092
21
2548.479287
31
0
73
0
0
TEXT
8
TEXT
10
1423.835092
20
2526.479287
30
0
40
15
1
CLAMPS (SUGGESTION): UNICLAMP 130 x 130, CLEARANCE 20 FROM THE END CUTS, JAWS 40-98, PIECE THICKNESS 93
72
0
11
1423.835092
21
2526.479287
31
0
73
0
0
TEXT
8
TEXT
10
1423.835092
20
2504.479287
30
0
40
15
1
CUT CODES: J = JOINT FROM SQUARE  Q = SQUARE (SPRINGING FACE ROUTED WITH THE CONTOUR)  A = APEX FROM SQUARE
72
0
11
1423.835092
21
2504.479287
31
0
73
0
0
POLYLINE
8
FIT
66
1
70
1
10
0
20
0
30
0
0
VERTEX
8
FIT
10
1200
20
2942.979287
30
0
42
0.320465
0
VERTEX
8
FIT
10
600
20
3782.979287
30
0
42
0.320465
0
VERTEX
8
FIT
10
0
20
2942.979287
30
0
0
VERTEX
8
FIT
10
68
20
2942.979287
30
0
42
-0.312605
0
VERTEX
8
FIT
10
600
20
3710.739666
30
0
42
-0.312605
0
VERTEX
8
FIT
10
1132
20
2942.979287
30
0
0
SEQEND
8
FIT
0
POLYLINE
8
FIT
66
1
70
1
10
0
20
0
30
0
0
VERTEX
8
FIT
10
1149
20
2942.979287
30
0
42
0.314694
0
VERTEX
8
FIT
10
600
20
3728.8705
30
0
42
0.314694
0
VERTEX
8
FIT
10
51
20
2942.979287
30
0
0
VERTEX
8
FIT
10
118
20
2942.979287
30
0
42
-0.305902
0
VERTEX
8
FIT
10
600
20
3657.091323
30
0
42
-0.305902
0
VERTEX
8
FIT
10
1082
20
2942.979287
30
0
0
SEQEND
8
FIT
0
POLYLINE
8
FIT
66
1
70
1
10
0
20
0
30
0
0
VERTEX
8
FIT
10
1094.5
20
2942.979287
30
0
42
0.307662
0
VERTEX
8
FIT
10
600
20
3670.552135
30
0
42
0.307662
0
VERTEX
8
FIT
10
105.5
20
2942.979287
30
0
0
SEQEND
8
FIT
0
POLYLINE
8
FIT
66
1
70
0
10
0
20
0
30
0
0
VERTEX
8
FIT
10
1153
20
2942.979287
30
0
42
0.005945
0
VERTEX
8
FIT
10
1152.762199
20
2962.977402
30
0
0
SEQEND
8
FIT
0
POLYLINE
8
FIT
66
1
70
0
10
0
20
0
30
0
0
VERTEX
8
FIT
10
1152.464979
20
2972.972925
30
0
42
0.005945
0
VERTEX
8
FIT
10
1151.514112
20
2992.949836
30
0
0
SEQEND
8
FIT
0
POLYLINE
8
FIT
66
1
70
0
10
0
20
0
30
0
0
VERTEX
8
FIT
10
1150.860599
20
3002.9284
30
0
42
0.005945
0
VERTEX
8
FIT
10
1149.197874
20
3022.858691
30
0
0
SEQEND
8
FIT
0
POLYLINE
8
FIT
66
1
70
0
10
0
20
0
30
0
0
VERTEX
8
FIT
10
1148.188899
20
3032.8076
30
0
42
0.005945
0
VERTEX
8
FIT
10
1145.816433
20
3052.665912
30
0
0
SEQEND
8
FIT
0
POLYLINE
8
FIT
66
1
70
0
10
0
20
0
30
0
0
VERTEX
8
FIT
10
1144.453279
20
3062.572508
30
0
42
0.005945
0
VERTEX
8
FIT
10
1141.374091
20
3082.333574
30
0
0
SEQEND
8
FIT
0
POLYLINE
8
FIT
66
1
70
0
10
0
20
0
30
0
0
VERTEX
8
FIT
10
1139.658492
20
3092.185251
30
0
42
0.005945
0
VERTEX
8
FIT
10
1135.8765
20
3111.82393
30
0
0
SEQEND
8
FIT
0
POLYLINE
8
FIT
66
1
70
0
10
0
20
0
30
0
0
VERTEX
8
FIT
10
1133.81064
20
3121.608154
30
0
42
0.005945
0
VERTEX
8
FIT
10
1129.330654
20
3141.099457
30
0
0
SEQEND
8
FIT
0
POLYLINE
8
FIT
66
1
70
0
10
0
20
0
30
0
0
VERTEX
8
FIT
10
1126.917162
20
3150.803779
30
0
42
0.005945
0
VERTEX
8
FIT
10
1121.744883
20
3170.122906
30
0
0
SEQEND
8
FIT
0
POLYLINE
8
FIT
66
1
70
0
10
0
20
0
30
0
0
VERTEX
8
FIT
10
1118.986829
20
3179.73498
30
0
42
0.005945
0
VERTEX
8
FIT
10
1113.128838
20
3198.857352
30
0
0
SEQEND
8
FIT
0
POLYLINE
8
FIT
66
1
70
0
10
0
20
0
30
0
0
VERTEX
8
FIT
10
1110.029731
20
3208.364946
30
0
42
0.005945
0
VERTEX
8
FIT
10
1103.493482
20
3227.266232
30
0
0
SEQEND
8
FIT
0
POLYLINE
8
FIT
66
1
70
0
10
0
20
0
30
0
0
VERTEX
8
FIT
10
1100.057265
20
3236.657251
30
0
42
0.005945
0
VERTEX
8
FIT
10
1092.851075
20
3255.313402
30
0
0
SEQEND
8
FIT
0
POLYLINE
8
FIT
66
1
70
0
10
0
20
0
30
0
0
VERTEX
8
FIT
10
1089.08212
20
3264.575896
30
0
42
0.005945
0
VERTEX
8
FIT
10
1081.215156
20
3282.963175
30
0
0
SEQEND
8
FIT
0
POLYLINE
8
FIT
66
1
70
0
10
0
20
0
30
0
0
VERTEX
8
FIT
10
1077.118259
20
3292.08536
30
0
42
0.005945
0
VERTEX
8
FIT
10
1068.600531
20
3310.180372
30
0
0
SEQEND
8
FIT
0
POLYLINE
8
FIT
66
1
70
0
10
0
20
0
30
0
0
VERTEX
8
FIT
10
1064.180904
20
3319.150641
30
0
42
0.005945
0
VERTEX
8
FIT
10
1055.02325
20
3336.930363
30
0
0
SEQEND
8
FIT
0
POLYLINE
8
FIT
66
1
70
0
10
0
20
0
30
0
0
VERTEX
8
FIT
10
1050.286517
20
3345.737302
30
0
42
0.005945
0
VERTEX
8
FIT
10
1040.500588
20
3363.179112
30
0
0
SEQEND
8
FIT
0
POLYLINE
8
FIT
66
1
70
0
10
0
20
0
30
0
0
VERTEX
8
FIT
10
1035.452775
20
3371.811517
30
0
42
0.005945
0
VERTEX
8
FIT
10
1025.051023
20
3388.893223
30
0
0
SEQEND
8
FIT
0
POLYLINE
8
FIT
66
1
70
0
10
0
20
0
30
0
0
VERTEX
8
FIT
10
1019.698553
20
3397.34011
30
0
42
0.005945
0
VERTEX
8
FIT
10
1008.694212
20
3414.039979
30
0
0
SEQEND
8
FIT
0
POLYLINE
8
FIT
66
1
70
0
10
0
20
0
30
0
0
VERTEX
8
FIT
10
1003.043895
20
3422.2906
30
0
42
0.005945
0
VERTEX
8
FIT
10
991.450966
20
3438.587383
30
0
0
SEQEND
8
FIT
0
POLYLINE
8
FIT
66
1
70
0
10
0
20
0
30
0
0
VERTEX
8
FIT
10
985.509992
20
3446.63124
30
0
42
0.005945
0
VERTEX
8
FIT
10
973.343225
20
3462.504203
30
0
0
SEQEND
8
FIT
0
POLYLINE
8
FIT
66
1
70
0
10
0
20
0
30
0
0
VERTEX
8
FIT
10
967.119152
20
3470.331063
30
0
42
0.005945
0
VERTEX
8
FIT
10
954.394028
20
3485.760009
30
0
0
SEQEND
8
FIT
0
POLYLINE
8
FIT
66
1
70
0
10
0
20
0
30
0
0
VERTEX
8
FIT
10
947.894776
20
3493.359913
30
0
42
0.005945
0
VERTEX
8
FIT
10
934.627486
20
3508.325211
30
0
0
SEQEND
8
FIT
0
POLYLINE
8
FIT
66
1
70
0
10
0
20
0
30
0
0
VERTEX
8
FIT
10
927.861323
20
3515.688489
30
0
42
0.005945
0
VERTEX
8
FIT
10
914.068747
20
3530.171099
30
0
0
SEQEND
8
FIT
0
POLYLINE
8
FIT
66
1
70
0
10
0
20
0
30
0
0
VERTEX
8
FIT
10
907.044283
20
3537.288383
30
0
42
0.005945
0
VERTEX
8
FIT
10
892.743969
20
3551.269877
30
0
0
SEQEND
8
FIT
0
POLYLINE
8
FIT
66
1
70
0
10
0
20
0
30
0
0
VERTEX
8
FIT
10
885.470141
20
3558.132111
30
0
42
0.005945
0
VERTEX
8
FIT
10
870.680286
20
3571.5947
30
0
0
SEQEND
8
FIT
0
POLYLINE
8
FIT
66
1
70
0
10
0
20
0
30
0
0
VERTEX
8
FIT
10
863.166349
20
3578.193153
30
0
42
0.005945
0
VERTEX
8
FIT
10
847.905769
20
3591.119709
30
0
0
SEQEND
8
FIT
0
POLYLINE
8
FIT
66
1
70
0
10
0
20
0
30
0
0
VERTEX
8
FIT
10
840.161283
20
3597.445985
30
0
42
0.005945
0
VERTEX
8
FIT
10
824.449396
20
3609.82006
30
0
0
SEQEND
8
FIT
0
POLYLINE
8
FIT
66
1
70
0
10
0
20
0
30
0
0
VERTEX
8
FIT
10
816.484215
20
3615.86611
30
0
42
0.005945
0
VERTEX
8
FIT
10
800.341011
20
3627.67196
30
0
0
SEQEND
8
FIT
0
POLYLINE
8
FIT
66
1
70
0
10
0
20
0
30
0
0
VERTEX
8
FIT
10
792.16527
20
3633.430091
30
0
42
0.005945
0
VERTEX
8
FIT
10
775.611288
20
3644.652696
30
0
0
SEQEND
8
FIT
0
POLYLINE
8
FIT
66
1
70
0
10
0
20
0
30
0
0
VERTEX
8
FIT
10
767.235389
20
3650.115582
30
0
42
0.005945
0
VERTEX
8
FIT
10
750.291693
20
3660.740662
30
0
0
SEQEND
8
FIT
0
POLYLINE
8
FIT
66
1
70
0
10
0
20
0
30
0
0
VERTEX
8
FIT
10
741.726292
20
3665.901353
30
0
42
0.005945
0
VERTEX
8
FIT
10
724.41444
20
3675.915389
30
0
0
SEQEND
8
FIT
0
POLYLINE
8
FIT
66
1
70
0
10
0
20
0
30
0
0
VERTEX
8
FIT
10
715.670436
20
3680.767318
30
0
42
0.005945
0
VERTEX
8
FIT
10
698.012454
20
3690.157569
30
0
0
SEQEND
8
FIT
0
POLYLINE
8
FIT
66
1
70
0
10
0
20
0
30
0
0
VERTEX
8
FIT
10
689.100972
20
3694.694563
30
0
42
0.005945
0
VERTEX
8
FIT
10
671.119327
20
3703.449082
30
0
0
SEQEND
8
FIT
0
POLYLINE
8
FIT
66
1
70
0
10
0
20
0
30
0
0
VERTEX
8
FIT
10
662.051706
20
3707.665368
30
0
42
0.005945
0
VERTEX
8
FIT
10
643.769277
20
3715.773015
30
0
0
SEQEND
8
FIT
0
POLYLINE
8
FIT
66
1
70
0
10
0
20
0
30
0
0
VERTEX
8
FIT
10
634.557054
20
3719.663229
30
0
42
0.005945
0
VERTEX
8
FIT
10
615.997102
20
3727.113689
30
0
0
SEQEND
8
FIT
0
POLYLINE
8
FIT
66
1
70
0
10
0
20
0
30
0
0
VERTEX
8
FIT
10
606.651998
20
3730.672882
30
0
42
0.002108
0
VERTEX
8
FIT
10
600
20
3733.129272
30
0
0
SEQEND
8
FIT
0
POLYLINE
8
FIT
66
1
70
0
10
0
20
0
30
0
0
VERTEX
8
FIT
10
600
20
3733.129272
30
0
42
0.005945
0
VERTEX
8
FIT
10
581.292481
20
3726.057506
30
0
0
SEQEND
8
FIT
0
POLYLINE
8
FIT
66
1
70
0
10
0
20
0
30
0
0
VERTEX
8
FIT
10
572.003107
20
3722.355296
30
0
42
0.005945
0
VERTEX
8
FIT
10
553.559699
20
3714.620839
30
0
0
SEQEND
8
FIT
0
POLYLINE
8
FIT
66
1
70
0
10
0
20
0
30
0
0
VERTEX
8
FIT
10
544.408271
20
3710.589685
30
0
42
0.005945
0
VERTEX
8
FIT
10
526.25244
20
3702.202378
30
0
0
SEQEND
8
FIT
0
POLYLINE
8
FIT
66
1
70
0
10
0
20
0
30
0
0
VERTEX
8
FIT
10
517.250602
20
3697.84741
30
0
42
0.005945
0
VERTEX
8
FIT
10
499.405448
20
3688.817925
30
0
0
SEQEND
8
FIT
0
POLYLINE
8
FIT
66
1
70
0
10
0
20
0
30
0
0
VERTEX
8
FIT
10
490.564654
20
3684.144683
30
0
42
0.005945
0
VERTEX
8
FIT
10
473.052882
20
3674.484508
30
0
0
SEQEND
8
FIT
0
POLYLINE
8
FIT
66
1
70
0
10
0
20
0
30
0
0
VERTEX
8
FIT
10
464.38438
20
3669.49894
30
0
42
0.005945
0
VERTEX
8
FIT
10
447.228271
20
3659.220365
30
0
0
SEQEND
8
FIT
0
POLYLINE
8
FIT
66
1
70
0
10
0
20
0
30
0
0
VERTEX
8
FIT
10
438.74309
20
3653.928813
30
0
42
0.005945
0
VERTEX
8
FIT
10
421.964473
20
3643.044918
30
0
0
SEQEND
8
FIT
0
POLYLINE
8
FIT
66
1
70
0
10
0
20
0
30
0
0
VERTEX
8
FIT
10
413.67341
20
3637.454114
30
0
42
0.005945
0
VERTEX
8
FIT
10
397.293633
20
3625.978746
30
0
0
SEQEND
8
FIT
0
POLYLINE
8
FIT
66
1
70
0
10
0
20
0
30
0
0
VERTEX
8
FIT
10
389.207236
20
3620.095804
30
0
42
0.005945
0
VERTEX
8
FIT
10
373.24714
20
3608.043564
30
0
0
SEQEND
8
FIT
0
POLYLINE
8
FIT
66
1
70
0
10
0
20
0
30
0
0
VERTEX
8
FIT
10
365.375698
20
3601.87597
30
0
42
0.005945
0
VERTEX
8
FIT
10
349.85559
20
3589.262192
30
0
0
SEQEND
8
FIT
0
POLYLINE
8
FIT
66
1
70
0
10
0
20
0
30
0
0
VERTEX
8
FIT
10
342.209118
20
3582.817792
30
0
42
0.005945
0
VERTEX
8
FIT
10
327.148744
20
3569.658526
30
0
0
SEQEND
8
FIT
0
POLYLINE
8
FIT
66
1
70
0
10
0
20
0
30
0
0
VERTEX
8
FIT
10
319.736972
20
3562.94552
30
0
42
0.005945
0
VERTEX
8
FIT
10
305.155494
20
3549.257508
30
0
0
SEQEND
8
FIT
0
POLYLINE
8
FIT
66
1
70
0
10
0
20
0
30
0
0
VERTEX
8
FIT
10
297.987851
20
3542.284438
30
0
42
0.005945
0
VERTEX
8
FIT
10
283.903823
20
3528.085096
30
0
0
SEQEND
8
FIT
0
POLYLINE
8
FIT
66
1
70
0
10
0
20
0
30
0
0
VERTEX
8
FIT
10
276.989429
20
3520.860833
30
0
42
0.005945
0
VERTEX
8
FIT
10
263.420769
20
3506.168229
30
0
0
SEQEND
8
FIT
0
POLYLINE
8
FIT
66
1
70
0
10
0
20
0
30
0
0
VERTEX
8
FIT
10
256.768422
20
3498.701965
30
0
42
0.005945
0
VERTEX
8
FIT
10
243.732395
20
3483.534791
30
0
0
SEQEND
8
FIT
0
POLYLINE
8
FIT
66
1
70
0
10
0
20
0
30
0
0
VERTEX
8
FIT
10
237.350559
20
3475.836026
30
0
42
0.005945
0
VERTEX
8
FIT
10
224.863751
20
3460.213581
30
0
0
SEQEND
8
FIT
0
POLYLINE
8
FIT
66
1
70
0
10
0
20
0
30
0
0
VERTEX
8
FIT
10
218.760545
20
3452.29211
30
0
42
0.005945
0
VERTEX
8
FIT
10
206.838844
20
3436.234271
30
0
0
SEQEND
8
FIT
0
POLYLINE
8
FIT
66
1
70
0
10
0
20
0
30
0
0
VERTEX
8
FIT
10
201.022035
20
3428.100174
30
0
42
0.005945
0
VERTEX
8
FIT
10
189.680609
20
3411.627372
30
0
0
SEQEND
8
FIT
0
POLYLINE
8
FIT
66
1
70
0
10
0
20
0
30
0
0
VERTEX
8
FIT
10
184.157596
20
3403.290996
30
0
42
0.005945
0
VERTEX
8
FIT
10
173.410875
20
3386.42419
30
0
0
SEQEND
8
FIT
0
POLYLINE
8
FIT
66
1
70
0
10
0
20
0
30
0
0
VERTEX
8
FIT
10
168.188687
20
3377.896144
30
0
42
0.005945
0
VERTEX
8
FIT
10
158.050345
20
3360.656795
30
0
0
SEQEND
8
FIT
0
POLYLINE
8
FIT
66
1
70
0
10
0
20
0
30
0
0
VERTEX
8
FIT
10
153.135625
20
3351.947929
30
0
42
0.005945
0
VERTEX
8
FIT
10
143.618561
20
3334.35797
30
0
0
SEQEND
8
FIT
0
POLYLINE
8
FIT
66
1
70
0
10
0
20
0
30
0
0
VERTEX
8
FIT
10
139.017563
20
3325.479364
30
0
42
0.005945
0
VERTEX
8
FIT
10
130.133887
20
3307.561177
30
0
0
SEQEND
8
FIT
0
POLYLINE
8
FIT
66
1
70
0
10
0
20
0
30
0
0
VERTEX
8
FIT
10
125.852465
20
3298.524128
30
0
42
0.005945
0
VERTEX
8
FIT
10
117.613479
20
3280.30051
30
0
0
SEQEND
8
FIT
0
POLYLINE
8
FIT
66
1
70
0
10
0
20
0
30
0
0
VERTEX
8
FIT
10
113.65708
20
3271.116517
30
0
42
0.005945
0
VERTEX
8
FIT
10
106.073267
20
3252.610655
30
0
0
SEQEND
8
FIT
0
POLYLINE
8
FIT
66
1
70
0
10
0
20
0
30
0
0
VERTEX
8
FIT
10
102.446925
20
3243.291402
30
0
42
0.005945
0
VERTEX
8
FIT
10
95.527935
20
3224.526842
30
0
0
SEQEND
8
FIT
0
POLYLINE
8
FIT
66
1
70
0
10
0
20
0
30
0
0
VERTEX
8
FIT
10
92.236264
20
3215.084187
30
0
42
0.005945
0
VERTEX
8
FIT
10
85.9909
20
3196.084804
30
0
0
SEQEND
8
FIT
0
POLYLINE
8
FIT
66
1
70
0
10
0
20
0
30
0
0
VERTEX
8
FIT
10
83.038088
20
3186.530762
30
0
42
0.005945
0
VERTEX
8
FIT
10
77.474296
20
3167.320729
30
0
0
SEQEND
8
FIT
0
POLYLINE
8
FIT
66
1
70
0
10
0
20
0
30
0
0
VERTEX
8
FIT
10
74.864101
20
3157.667454
30
0
42
0.005945
0
VERTEX
8
FIT
10
69.988959
20
3138.271214
30
0
0
SEQEND
8
FIT
0
POLYLINE
8
FIT
66
1
70
0
10
0
20
0
30
0
0
VERTEX
8
FIT
10
67.724702
20
3128.53099
30
0
42
0.005945
0
VERTEX
8
FIT
10
63.544414
20
3108.973221
30
0
0
SEQEND
8
FIT
0
POLYLINE
8
FIT
66
1
70
0
10
0
20
0
30
0
0
VERTEX
8
FIT
10
61.628974
20
3099.158441
30
0
42
0.005945
0
VERTEX
8
FIT
10
58.148859
20
3079.464026
30
0
0
SEQEND
8
FIT
0
POLYLINE
8
FIT
66
1
70
0
10
0
20
0
30
0
0
VERTEX
8
FIT
10
56.584675
20
3069.587177
30
0
42
0.005945
0
VERTEX
8
FIT
10
53.809161
20
3049.781176
30
0
0
SEQEND
8
FIT
0
POLYLINE
8
FIT
66
1
70
0
10
0
20
0
30
0
0
VERTEX
8
FIT
10
52.598222
20
3039.854825
30
0
42
0.005945
0
VERTEX
8
FIT
10
50.53084
20
3019.962438
30
0
0
SEQEND
8
FIT
0
POLYLINE
8
FIT
66
1
70
0
10
0
20
0
30
0
0
VERTEX
8
FIT
10
49.674688
20
3009.999214
30
0
42
0.005945
0
VERTEX
8
FIT
10
48.318067
20
2990.04575
30
0
0
SEQEND
8
FIT
0
POLYLINE
8
FIT
66
1
70
0
10
0
20
0
30
0
0
VERTEX
8
FIT
10
47.817791
20
2980.058331
30
0
42
0.005945
0
VERTEX
8
FIT
10
47.173659
20
2960.069177
30
0
0
SEQEND
8
FIT
0
POLYLINE
8
FIT
66
1
70
0
10
0
20
0
30
0
0
VERTEX
8
FIT
10
47.029895
20
2950.07027
30
0
42
0.002108
0
VERTEX
8
FIT
10
47
20
2942.979287
30
0
0
SEQEND
8
FIT
0
TEXT
8
TEXT
10
1300
20
3764.479287
30
0
40
15
1
T - FIT (ASSEMBLY, NOT A TOOLPATH)
72
0
11
1300
21
3764.479287
31
0
73
0
0
TEXT
8
TEXT
10
1300
20
3742.479287
30
0
40
15
1
GAP 4 LAP 17 (REBATE)
72
0
11
1300
21
3742.479287
31
0
73
0
0
TEXT
8
TEXT
10
1300
20
3720.479287
30
0
40
15
1
FRAME R888/888 / 820/820  REBATE WALL R841/841 (LAND 47, DASHED)
72
0
11
1300
21
3720.479287
31
0
73
0
0
TEXT
8
TEXT
10
1300
20
3698.479287
30
0
40
15
1
LEAF R837/837 / 770/770  GLASS R782.5/782.5
72
0
11
1300
21
3698.479287
31
0
73
0
0
ENDSEC
0
EOF
