0
SECTION
2
HEADER
9
$ACADVER
1
AC1009
0
ENDSEC
0
SECTION
2
TABLES
0
TABLE
2
LAYER
70
9
0
LAYER
2
0
70
0
62
7
6
CONTINUOUS
0
LAYER
2
ARKA_OUTLINE
70
0
62
7
6
CONTINUOUS
0
LAYER
2
ARKA_PANE
70
0
62
3
6
CONTINUOUS
0
LAYER
2
ARKA_FRONT_HINGES_3MM
70
0
62
50
6
CONTINUOUS
0
LAYER
2
ARKA_MITRE
70
0
62
1
6
CONTINUOUS
0
LAYER
2
ARKA_SECTION
70
0
62
5
6
CONTINUOUS
0
LAYER
2
ARKA_PANE_ZEWN_REF
70
0
62
3
6
CONTINUOUS
0
LAYER
2
ARKA_CENTRE
70
0
62
6
6
CONTINUOUS
0
LAYER
2
ARKA_INFO_NO_CUT
70
0
62
8
6
CONTINUOUS
0
ENDTAB
0
ENDSEC
0
SECTION
2
ENTITIES
0
POLYLINE
8
ARKA_OUTLINE
66
1
70
1
10
0
20
0
30
0
0
VERTEX
8
ARKA_OUTLINE
10
598.5
20
305.5
30
0
42
1
0
VERTEX
8
ARKA_OUTLINE
10
12.5
20
305.5
30
0
42
1
0
SEQEND
8
ARKA_OUTLINE
0
POLYLINE
8
ARKA_PANE_ZEWN_REF
66
1
70
1
10
0
20
0
30
0
0
VERTEX
8
ARKA_PANE_ZEWN_REF
10
596.5
20
305.5
30
0
42
1
0
VERTEX
8
ARKA_PANE_ZEWN_REF
10
14.5
20
305.5
30
0
42
1
0
SEQEND
8
ARKA_PANE_ZEWN_REF
0
POLYLINE
8
ARKA_OUTLINE
66
1
70
1
10
0
20
0
30
0
0
VERTEX
8
ARKA_OUTLINE
10
580.279912
20
316.5
30
0
42
0.246619
0
VERTEX
8
ARKA_OUTLINE
10
452.416235
20
537.966384
30
0
0
VERTEX
8
ARKA_OUTLINE
10
373.016041
20
400.441214
30
0
42
-0.217871
0
VERTEX
8
ARKA_OUTLINE
10
421.479524
20
316.5
30
0
0
SEQEND
8
ARKA_OUTLINE
0
POLYLINE
8
ARKA_PANE
66
1
70
1
10
0
20
0
30
0
0
VERTEX
8
ARKA_PANE
10
582.353752
20
314.5
30
0
42
0.250608
0
VERTEX
8
ARKA_PANE
10
451.721105
20
540.762382
30
0
0
VERTEX
8
ARKA_PANE
10
370.367099
20
399.853111
30
0
42
-0.226201
0
VERTEX
8
ARKA_PANE
10
419.64574
20
314.5
30
0
0
SEQEND
8
ARKA_PANE
0
POLYLINE
8
ARKA_FRONT_HINGES_3MM
66
1
70
1
10
0
20
0
30
0
0
VERTEX
8
ARKA_FRONT_HINGES_3MM
10
590.498246
20
306.5
30
0
42
0.26607
0
VERTEX
8
ARKA_FRONT_HINGES_3MM
10
448.865148
20
551.815721
30
0
0
VERTEX
8
ARKA_FRONT_HINGES_3MM
10
359.613678
20
397.22764
30
0
42
-0.262923
0
VERTEX
8
ARKA_FRONT_HINGES_3MM
10
411.995305
20
306.5
30
0
0
SEQEND
8
ARKA_FRONT_HINGES_3MM
0
POLYLINE
8
ARKA_OUTLINE
66
1
70
1
10
0
20
0
30
0
0
VERTEX
8
ARKA_OUTLINE
10
433.363677
20
548.966384
30
0
42
0.246619
0
VERTEX
8
ARKA_OUTLINE
10
177.636323
20
548.966384
30
0
0
VERTEX
8
ARKA_OUTLINE
10
257.036517
20
411.441214
30
0
42
-0.217871
0
VERTEX
8
ARKA_OUTLINE
10
353.963483
20
411.441214
30
0
0
SEQEND
8
ARKA_OUTLINE
0
POLYLINE
8
ARKA_PANE
66
1
70
1
10
0
20
0
30
0
0
VERTEX
8
ARKA_PANE
10
436.132647
20
549.762382
30
0
42
0.250608
0
VERTEX
8
ARKA_PANE
10
174.867353
20
549.762382
30
0
0
VERTEX
8
ARKA_PANE
10
256.221359
20
408.853111
30
0
42
-0.226201
0
VERTEX
8
ARKA_PANE
10
354.778641
20
408.853111
30
0
0
SEQEND
8
ARKA_PANE
0
POLYLINE
8
ARKA_FRONT_HINGES_3MM
66
1
70
1
10
0
20
0
30
0
0
VERTEX
8
ARKA_FRONT_HINGES_3MM
10
447.133097
20
552.815721
30
0
42
0.26607
0
VERTEX
8
ARKA_FRONT_HINGES_3MM
10
163.866903
20
552.815721
30
0
0
VERTEX
8
ARKA_FRONT_HINGES_3MM
10
253.118373
20
398.22764
30
0
42
-0.262923
0
VERTEX
8
ARKA_FRONT_HINGES_3MM
10
357.881627
20
398.22764
30
0
0
SEQEND
8
ARKA_FRONT_HINGES_3MM
0
POLYLINE
8
ARKA_OUTLINE
66
1
70
1
10
0
20
0
30
0
0
VERTEX
8
ARKA_OUTLINE
10
158.583765
20
537.966384
30
0
42
0.246619
0
VERTEX
8
ARKA_OUTLINE
10
30.720088
20
316.5
30
0
0
VERTEX
8
ARKA_OUTLINE
10
189.520476
20
316.5
30
0
42
-0.217871
0
VERTEX
8
ARKA_OUTLINE
10
237.983959
20
400.441214
30
0
0
SEQEND
8
ARKA_OUTLINE
0
POLYLINE
8
ARKA_PANE
66
1
70
1
10
0
20
0
30
0
0
VERTEX
8
ARKA_PANE
10
159.278895
20
540.762382
30
0
42
0.250608
0
VERTEX
8
ARKA_PANE
10
28.646248
20
314.5
30
0
0
VERTEX
8
ARKA_PANE
10
191.35426
20
314.5
30
0
42
-0.226201
0
VERTEX
8
ARKA_PANE
10
240.632901
20
399.853111
30
0
0
SEQEND
8
ARKA_PANE
0
POLYLINE
8
ARKA_FRONT_HINGES_3MM
66
1
70
1
10
0
20
0
30
0
0
VERTEX
8
ARKA_FRONT_HINGES_3MM
10
162.134852
20
551.815721
30
0
42
0.26607
0
VERTEX
8
ARKA_FRONT_HINGES_3MM
10
20.501754
20
306.5
30
0
0
VERTEX
8
ARKA_FRONT_HINGES_3MM
10
199.004695
20
306.5
30
0
42
-0.262923
0
VERTEX
8
ARKA_FRONT_HINGES_3MM
10
251.386322
20
397.22764
30
0
0
SEQEND
8
ARKA_FRONT_HINGES_3MM
0
POLYLINE
8
ARKA_OUTLINE
66
1
70
1
10
0
20
0
30
0
0
VERTEX
8
ARKA_OUTLINE
10
30.720088
20
294.5
30
0
42
0.246619
0
VERTEX
8
ARKA_OUTLINE
10
158.583765
20
73.033616
30
0
0
VERTEX
8
ARKA_OUTLINE
10
237.983959
20
210.558786
30
0
42
-0.217871
0
VERTEX
8
ARKA_OUTLINE
10
189.520476
20
294.5
30
0
0
SEQEND
8
ARKA_OUTLINE
0
POLYLINE
8
ARKA_PANE
66
1
70
1
10
0
20
0
30
0
0
VERTEX
8
ARKA_PANE
10
28.646248
20
296.5
30
0
42
0.250608
0
VERTEX
8
ARKA_PANE
10
159.278895
20
70.237618
30
0
0
VERTEX
8
ARKA_PANE
10
240.632901
20
211.146889
30
0
42
-0.226201
0
VERTEX
8
ARKA_PANE
10
191.35426
20
296.5
30
0
0
SEQEND
8
ARKA_PANE
0
POLYLINE
8
ARKA_FRONT_HINGES_3MM
66
1
70
1
10
0
20
0
30
0
0
VERTEX
8
ARKA_FRONT_HINGES_3MM
10
20.501754
20
304.5
30
0
42
0.26607
0
VERTEX
8
ARKA_FRONT_HINGES_3MM
10
162.134852
20
59.184279
30
0
0
VERTEX
8
ARKA_FRONT_HINGES_3MM
10
251.386322
20
213.77236
30
0
42
-0.262923
0
VERTEX
8
ARKA_FRONT_HINGES_3MM
10
199.004695
20
304.5
30
0
0
SEQEND
8
ARKA_FRONT_HINGES_3MM
0
POLYLINE
8
ARKA_OUTLINE
66
1
70
1
10
0
20
0
30
0
0
VERTEX
8
ARKA_OUTLINE
10
177.636323
20
62.033616
30
0
42
0.246619
0
VERTEX
8
ARKA_OUTLINE
10
433.363677
20
62.033616
30
0
0
VERTEX
8
ARKA_OUTLINE
10
353.963483
20
199.558786
30
0
42
-0.217871
0
VERTEX
8
ARKA_OUTLINE
10
257.036517
20
199.558786
30
0
0
SEQEND
8
ARKA_OUTLINE
0
POLYLINE
8
ARKA_PANE
66
1
70
1
10
0
20
0
30
0
0
VERTEX
8
ARKA_PANE
10
174.867353
20
61.237618
30
0
42
0.250608
0
VERTEX
8
ARKA_PANE
10
436.132647
20
61.237618
30
0
0
VERTEX
8
ARKA_PANE
10
354.778641
20
202.146889
30
0
42
-0.226201
0
VERTEX
8
ARKA_PANE
10
256.221359
20
202.146889
30
0
0
SEQEND
8
ARKA_PANE
0
POLYLINE
8
ARKA_FRONT_HINGES_3MM
66
1
70
1
10
0
20
0
30
0
0
VERTEX
8
ARKA_FRONT_HINGES_3MM
10
163.866903
20
58.184279
30
0
42
0.26607
0
VERTEX
8
ARKA_FRONT_HINGES_3MM
10
447.133097
20
58.184279
30
0
0
VERTEX
8
ARKA_FRONT_HINGES_3MM
10
357.881627
20
212.77236
30
0
42
-0.262923
0
VERTEX
8
ARKA_FRONT_HINGES_3MM
10
253.118373
20
212.77236
30
0
0
SEQEND
8
ARKA_FRONT_HINGES_3MM
0
POLYLINE
8
ARKA_OUTLINE
66
1
70
1
10
0
20
0
30
0
0
VERTEX
8
ARKA_OUTLINE
10
452.416235
20
73.033616
30
0
42
0.246619
0
VERTEX
8
ARKA_OUTLINE
10
580.279912
20
294.5
30
0
0
VERTEX
8
ARKA_OUTLINE
10
421.479524
20
294.5
30
0
42
-0.217871
0
VERTEX
8
ARKA_OUTLINE
10
373.016041
20
210.558786
30
0
0
SEQEND
8
ARKA_OUTLINE
0
POLYLINE
8
ARKA_PANE
66
1
70
1
10
0
20
0
30
0
0
VERTEX
8
ARKA_PANE
10
451.721105
20
70.237618
30
0
42
0.250608
0
VERTEX
8
ARKA_PANE
10
582.353752
20
296.5
30
0
0
VERTEX
8
ARKA_PANE
10
419.64574
20
296.5
30
0
42
-0.226201
0
VERTEX
8
ARKA_PANE
10
370.367099
20
211.146889
30
0
0
SEQEND
8
ARKA_PANE
0
POLYLINE
8
ARKA_FRONT_HINGES_3MM
66
1
70
1
10
0
20
0
30
0
0
VERTEX
8
ARKA_FRONT_HINGES_3MM
10
448.865148
20
59.184279
30
0
42
0.26607
0
VERTEX
8
ARKA_FRONT_HINGES_3MM
10
590.498246
20
304.5
30
0
0
VERTEX
8
ARKA_FRONT_HINGES_3MM
10
411.995305
20
304.5
30
0
42
-0.262923
0
VERTEX
8
ARKA_FRONT_HINGES_3MM
10
359.613678
20
213.77236
30
0
0
SEQEND
8
ARKA_FRONT_HINGES_3MM
0
POLYLINE
8
ARKA_OUTLINE
66
1
70
1
10
0
20
0
30
0
0
VERTEX
8
ARKA_OUTLINE
10
400
20
305.5
30
0
42
1
0
VERTEX
8
ARKA_OUTLINE
10
211
20
305.5
30
0
42
1
0
SEQEND
8
ARKA_OUTLINE
0
POLYLINE
8
ARKA_PANE
66
1
70
1
10
0
20
0
30
0
0
VERTEX
8
ARKA_PANE
10
402
20
305.5
30
0
42
1
0
VERTEX
8
ARKA_PANE
10
209
20
305.5
30
0
42
1
0
SEQEND
8
ARKA_PANE
0
POLYLINE
8
ARKA_FRONT_HINGES_3MM
66
1
70
1
10
0
20
0
30
0
0
VERTEX
8
ARKA_FRONT_HINGES_3MM
10
410
20
305.5
30
0
42
1
0
VERTEX
8
ARKA_FRONT_HINGES_3MM
10
201
20
305.5
30
0
42
1
0
SEQEND
8
ARKA_FRONT_HINGES_3MM
0
POLYLINE
8
ARKA_MITRE
66
1
70
0
10
0
20
0
30
0
0
VERTEX
8
ARKA_MITRE
10
575.498246
20
306.5
30
0
0
VERTEX
8
ARKA_MITRE
10
590.498246
20
306.5
30
0
42
0.013159
0
VERTEX
8
ARKA_MITRE
10
590.050995
20
321.491599
30
0
0
SEQEND
8
ARKA_MITRE
0
POLYLINE
8
ARKA_MITRE
66
1
70
0
10
0
20
0
30
0
0
VERTEX
8
ARKA_MITRE
10
461.624628
20
543.932591
30
0
42
0.013159
0
VERTEX
8
ARKA_MITRE
10
448.865148
20
551.815721
30
0
0
VERTEX
8
ARKA_MITRE
10
441.365148
20
538.82534
30
0
0
SEQEND
8
ARKA_MITRE
0
POLYLINE
8
ARKA_MITRE
66
1
70
0
10
0
20
0
30
0
0
VERTEX
8
ARKA_MITRE
10
367.113678
20
410.218021
30
0
0
VERTEX
8
ARKA_MITRE
10
359.613678
20
397.22764
30
0
42
-0.035226
0
VERTEX
8
ARKA_MITRE
10
371.954543
20
388.722856
30
0
0
SEQEND
8
ARKA_MITRE
0
POLYLINE
8
ARKA_MITRE
66
1
70
0
10
0
20
0
30
0
0
VERTEX
8
ARKA_MITRE
10
410.800379
20
321.439894
30
0
42
-0.035226
0
VERTEX
8
ARKA_MITRE
10
411.995305
20
306.5
30
0
0
VERTEX
8
ARKA_MITRE
10
426.995305
20
306.5
30
0
0
SEQEND
8
ARKA_MITRE
0
POLYLINE
8
ARKA_MITRE
66
1
70
0
10
0
20
0
30
0
0
VERTEX
8
ARKA_MITRE
10
439.633097
20
539.82534
30
0
0
VERTEX
8
ARKA_MITRE
10
447.133097
20
552.815721
30
0
42
0.013159
0
VERTEX
8
ARKA_MITRE
10
433.926367
20
559.92419
30
0
0
SEQEND
8
ARKA_MITRE
0
POLYLINE
8
ARKA_MITRE
66
1
70
0
10
0
20
0
30
0
0
VERTEX
8
ARKA_MITRE
10
177.073633
20
559.92419
30
0
42
0.013159
0
VERTEX
8
ARKA_MITRE
10
163.866903
20
552.815721
30
0
0
VERTEX
8
ARKA_MITRE
10
171.366903
20
539.82534
30
0
0
SEQEND
8
ARKA_MITRE
0
POLYLINE
8
ARKA_MITRE
66
1
70
0
10
0
20
0
30
0
0
VERTEX
8
ARKA_MITRE
10
245.618373
20
411.218021
30
0
0
VERTEX
8
ARKA_MITRE
10
253.118373
20
398.22764
30
0
42
-0.035226
0
VERTEX
8
ARKA_MITRE
10
266.654164
20
404.66275
30
0
0
SEQEND
8
ARKA_MITRE
0
POLYLINE
8
ARKA_MITRE
66
1
70
0
10
0
20
0
30
0
0
VERTEX
8
ARKA_MITRE
10
344.345836
20
404.66275
30
0
42
-0.035226
0
VERTEX
8
ARKA_MITRE
10
357.881627
20
398.22764
30
0
0
VERTEX
8
ARKA_MITRE
10
365.381627
20
411.218021
30
0
0
SEQEND
8
ARKA_MITRE
0
POLYLINE
8
ARKA_MITRE
66
1
70
0
10
0
20
0
30
0
0
VERTEX
8
ARKA_MITRE
10
169.634852
20
538.82534
30
0
0
VERTEX
8
ARKA_MITRE
10
162.134852
20
551.815721
30
0
42
0.013159
0
VERTEX
8
ARKA_MITRE
10
149.375372
20
543.932591
30
0
0
SEQEND
8
ARKA_MITRE
0
POLYLINE
8
ARKA_MITRE
66
1
70
0
10
0
20
0
30
0
0
VERTEX
8
ARKA_MITRE
10
20.949005
20
321.491599
30
0
42
0.013159
0
VERTEX
8
ARKA_MITRE
10
20.501754
20
306.5
30
0
0
VERTEX
8
ARKA_MITRE
10
35.501754
20
306.5
30
0
0
SEQEND
8
ARKA_MITRE
0
POLYLINE
8
ARKA_MITRE
66
1
70
0
10
0
20
0
30
0
0
VERTEX
8
ARKA_MITRE
10
184.004695
20
306.5
30
0
0
VERTEX
8
ARKA_MITRE
10
199.004695
20
306.5
30
0
42
-0.035226
0
VERTEX
8
ARKA_MITRE
10
200.199621
20
321.439894
30
0
0
SEQEND
8
ARKA_MITRE
0
POLYLINE
8
ARKA_MITRE
66
1
70
0
10
0
20
0
30
0
0
VERTEX
8
ARKA_MITRE
10
239.045457
20
388.722856
30
0
42
-0.035226
0
VERTEX
8
ARKA_MITRE
10
251.386322
20
397.22764
30
0
0
VERTEX
8
ARKA_MITRE
10
243.886322
20
410.218021
30
0
0
SEQEND
8
ARKA_MITRE
0
POLYLINE
8
ARKA_MITRE
66
1
70
0
10
0
20
0
30
0
0
VERTEX
8
ARKA_MITRE
10
35.501754
20
304.5
30
0
0
VERTEX
8
ARKA_MITRE
10
20.501754
20
304.5
30
0
42
0.013159
0
VERTEX
8
ARKA_MITRE
10
20.949005
20
289.508401
30
0
0
SEQEND
8
ARKA_MITRE
0
POLYLINE
8
ARKA_MITRE
66
1
70
0
10
0
20
0
30
0
0
VERTEX
8
ARKA_MITRE
10
149.375372
20
67.067409
30
0
42
0.013159
0
VERTEX
8
ARKA_MITRE
10
162.134852
20
59.184279
30
0
0
VERTEX
8
ARKA_MITRE
10
169.634852
20
72.17466
30
0
0
SEQEND
8
ARKA_MITRE
0
POLYLINE
8
ARKA_MITRE
66
1
70
0
10
0
20
0
30
0
0
VERTEX
8
ARKA_MITRE
10
243.886322
20
200.781979
30
0
0
VERTEX
8
ARKA_MITRE
10
251.386322
20
213.77236
30
0
42
-0.035226
0
VERTEX
8
ARKA_MITRE
10
239.045457
20
222.277144
30
0
0
SEQEND
8
ARKA_MITRE
0
POLYLINE
8
ARKA_MITRE
66
1
70
0
10
0
20
0
30
0
0
VERTEX
8
ARKA_MITRE
10
200.199621
20
289.560106
30
0
42
-0.035226
0
VERTEX
8
ARKA_MITRE
10
199.004695
20
304.5
30
0
0
VERTEX
8
ARKA_MITRE
10
184.004695
20
304.5
30
0
0
SEQEND
8
ARKA_MITRE
0
POLYLINE
8
ARKA_MITRE
66
1
70
0
10
0
20
0
30
0
0
VERTEX
8
ARKA_MITRE
10
171.366903
20
71.17466
30
0
0
VERTEX
8
ARKA_MITRE
10
163.866903
20
58.184279
30
0
42
0.013159
0
VERTEX
8
ARKA_MITRE
10
177.073633
20
51.07581
30
0
0
SEQEND
8
ARKA_MITRE
0
POLYLINE
8
ARKA_MITRE
66
1
70
0
10
0
20
0
30
0
0
VERTEX
8
ARKA_MITRE
10
433.926367
20
51.07581
30
0
42
0.013159
0
VERTEX
8
ARKA_MITRE
10
447.133097
20
58.184279
30
0
0
VERTEX
8
ARKA_MITRE
10
439.633097
20
71.17466
30
0
0
SEQEND
8
ARKA_MITRE
0
POLYLINE
8
ARKA_MITRE
66
1
70
0
10
0
20
0
30
0
0
VERTEX
8
ARKA_MITRE
10
365.381627
20
199.781979
30
0
0
VERTEX
8
ARKA_MITRE
10
357.881627
20
212.77236
30
0
42
-0.035226
0
VERTEX
8
ARKA_MITRE
10
344.345836
20
206.33725
30
0
0
SEQEND
8
ARKA_MITRE
0
POLYLINE
8
ARKA_MITRE
66
1
70
0
10
0
20
0
30
0
0
VERTEX
8
ARKA_MITRE
10
266.654164
20
206.33725
30
0
42
-0.035226
0
VERTEX
8
ARKA_MITRE
10
253.118373
20
212.77236
30
0
0
VERTEX
8
ARKA_MITRE
10
245.618373
20
199.781979
30
0
0
SEQEND
8
ARKA_MITRE
0
POLYLINE
8
ARKA_MITRE
66
1
70
0
10
0
20
0
30
0
0
VERTEX
8
ARKA_MITRE
10
441.365148
20
72.17466
30
0
0
VERTEX
8
ARKA_MITRE
10
448.865148
20
59.184279
30
0
42
0.013159
0
VERTEX
8
ARKA_MITRE
10
461.624628
20
67.067409
30
0
0
SEQEND
8
ARKA_MITRE
0
POLYLINE
8
ARKA_MITRE
66
1
70
0
10
0
20
0
30
0
0
VERTEX
8
ARKA_MITRE
10
590.050995
20
289.508401
30
0
42
0.013159
0
VERTEX
8
ARKA_MITRE
10
590.498246
20
304.5
30
0
0
VERTEX
8
ARKA_MITRE
10
575.498246
20
304.5
30
0
0
SEQEND
8
ARKA_MITRE
0
POLYLINE
8
ARKA_MITRE
66
1
70
0
10
0
20
0
30
0
0
VERTEX
8
ARKA_MITRE
10
426.995305
20
304.5
30
0
0
VERTEX
8
ARKA_MITRE
10
411.995305
20
304.5
30
0
42
-0.035226
0
VERTEX
8
ARKA_MITRE
10
410.800379
20
289.560106
30
0
0
SEQEND
8
ARKA_MITRE
0
POLYLINE
8
ARKA_MITRE
66
1
70
0
10
0
20
0
30
0
0
VERTEX
8
ARKA_MITRE
10
371.954543
20
222.277144
30
0
42
-0.035226
0
VERTEX
8
ARKA_MITRE
10
359.613678
20
213.77236
30
0
0
VERTEX
8
ARKA_MITRE
10
367.113678
20
200.781979
30
0
0
SEQEND
8
ARKA_MITRE
0
POINT
8
ARKA_CENTRE
10
305.5
20
305.5
30
0
0
POINT
8
ARKA_CENTRE
10
305.5
20
305.5
30
0
0
POLYLINE
8
ARKA_SECTION
66
1
70
0
10
0
20
0
30
0
0
VERTEX
8
ARKA_SECTION
10
698.5
20
12.5
30
0
42
-0.414214
0
VERTEX
8
ARKA_SECTION
10
706.5
20
20.5
30
0
0
VERTEX
8
ARKA_SECTION
10
706.5
20
26.5
30
0
0
SEQEND
8
ARKA_SECTION
0
TEXT
8
ARKA_INFO_NO_CUT
10
694.5
20
-6.5
30
0
40
15
1
START
72
0
11
694.5
21
-6.5
31
0
73
0
0
TEXT
8
ARKA_INFO_NO_CUT
10
718.5
20
16.5
30
0
40
15
1
SECTION R8 + 6 (VERBATIM)
72
0
11
718.5
21
16.5
31
0
73
0
0
TEXT
8
ARKA_INFO_NO_CUT
10
698.5
20
576.5
30
0
40
15
1
CIR - TRACERY FULL
72
0
11
698.5
21
576.5
31
0
73
0
0
TEXT
8
ARKA_INFO_NO_CUT
10
698.5
20
554.5
30
0
40
15
1
PATTERN SUNBURST SPOKES 6 RINGS 2 PANES 7
72
0
11
698.5
21
554.5
31
0
73
0
0
TEXT
8
ARKA_INFO_NO_CUT
10
698.5
20
532.5
30
0
40
15
1
TIMBER BAR 22 EDGE MARGIN 18 PANE +2 LIMIT +10 MITRE LEG 15
72
0
11
698.5
21
532.5
31
0
73
0
0
TEXT
8
ARKA_INFO_NO_CUT
10
698.5
20
510.5
30
0
40
15
1
ARKA_PANE = MOULDING RAIL (INNER EDGE OF THE BEAD), ARKA_FRONT_HINGES_3MM = BEAD LIMIT (NOT DRILLING)
72
0
11
698.5
21
510.5
31
0
73
0
0
TEXT
8
ARKA_INFO_NO_CUT
10
698.5
20
488.5
30
0
40
15
1
NOT A TOOLPATH
72
0
11
698.5
21
488.5
31
0
73
0
0
ENDSEC
0
EOF
