0
SECTION
2
HEADER
9
$ACADVER
1
AC1009
0
ENDSEC
0
SECTION
2
TABLES
0
TABLE
2
LAYER
70
9
0
LAYER
2
0
70
0
62
7
6
CONTINUOUS
0
LAYER
2
ARKA_OUTLINE
70
0
62
7
6
CONTINUOUS
0
LAYER
2
ARKA_PANE
70
0
62
3
6
CONTINUOUS
0
LAYER
2
ARKA_FRONT_HINGES_3MM
70
0
62
50
6
CONTINUOUS
0
LAYER
2
ARKA_MITRE
70
0
62
1
6
CONTINUOUS
0
LAYER
2
ARKA_SECTION
70
0
62
5
6
CONTINUOUS
0
LAYER
2
ARKA_PANE_ZEWN_REF
70
0
62
3
6
CONTINUOUS
0
LAYER
2
ARKA_CENTRE
70
0
62
6
6
CONTINUOUS
0
LAYER
2
ARKA_INFO_NO_CUT
70
0
62
8
6
CONTINUOUS
0
ENDTAB
0
ENDSEC
0
SECTION
2
ENTITIES
0
POLYLINE
8
ARKA_OUTLINE
66
1
70
1
10
0
20
0
30
0
0
VERTEX
8
ARKA_OUTLINE
10
616.5
20
305.5
30
0
42
1
0
VERTEX
8
ARKA_OUTLINE
10
-5.5
20
305.5
30
0
42
1
0
SEQEND
8
ARKA_OUTLINE
0
POLYLINE
8
ARKA_PANE_ZEWN_REF
66
1
70
1
10
0
20
0
30
0
0
VERTEX
8
ARKA_PANE_ZEWN_REF
10
614.5
20
305.5
30
0
42
1
0
VERTEX
8
ARKA_PANE_ZEWN_REF
10
-3.5
20
305.5
30
0
42
1
0
SEQEND
8
ARKA_PANE_ZEWN_REF
0
POLYLINE
8
ARKA_OUTLINE
66
1
70
1
10
0
20
0
30
0
0
VERTEX
8
ARKA_OUTLINE
10
598.293443
20
316.5
30
0
42
0.247924
0
VERTEX
8
ARKA_OUTLINE
10
461.423001
20
553.566559
30
0
0
VERTEX
8
ARKA_OUTLINE
10
373.016041
20
400.441214
30
0
42
-0.217871
0
VERTEX
8
ARKA_OUTLINE
10
421.479524
20
316.5
30
0
0
SEQEND
8
ARKA_OUTLINE
0
POLYLINE
8
ARKA_PANE
66
1
70
1
10
0
20
0
30
0
0
VERTEX
8
ARKA_PANE
10
600.36268
20
314.5
30
0
42
0.251663
0
VERTEX
8
ARKA_PANE
10
460.725569
20
556.358571
30
0
0
VERTEX
8
ARKA_PANE
10
370.367099
20
399.853111
30
0
42
-0.226201
0
VERTEX
8
ARKA_PANE
10
419.64574
20
314.5
30
0
0
SEQEND
8
ARKA_PANE
0
POLYLINE
8
ARKA_FRONT_HINGES_3MM
66
1
70
1
10
0
20
0
30
0
0
VERTEX
8
ARKA_FRONT_HINGES_3MM
10
608.49835
20
306.5
30
0
42
0.266181
0
VERTEX
8
ARKA_FRONT_HINGES_3MM
10
457.8652
20
567.404268
30
0
0
VERTEX
8
ARKA_FRONT_HINGES_3MM
10
359.613678
20
397.22764
30
0
42
-0.262923
0
VERTEX
8
ARKA_FRONT_HINGES_3MM
10
411.995305
20
306.5
30
0
0
SEQEND
8
ARKA_FRONT_HINGES_3MM
0
POLYLINE
8
ARKA_OUTLINE
66
1
70
1
10
0
20
0
30
0
0
VERTEX
8
ARKA_OUTLINE
10
442.370442
20
564.566559
30
0
42
0.247924
0
VERTEX
8
ARKA_OUTLINE
10
168.629558
20
564.566559
30
0
0
VERTEX
8
ARKA_OUTLINE
10
257.036517
20
411.441214
30
0
42
-0.217871
0
VERTEX
8
ARKA_OUTLINE
10
353.963483
20
411.441214
30
0
0
SEQEND
8
ARKA_OUTLINE
0
POLYLINE
8
ARKA_PANE
66
1
70
1
10
0
20
0
30
0
0
VERTEX
8
ARKA_PANE
10
445.137111
20
565.358571
30
0
42
0.251663
0
VERTEX
8
ARKA_PANE
10
165.862889
20
565.358571
30
0
0
VERTEX
8
ARKA_PANE
10
256.221359
20
408.853111
30
0
42
-0.226201
0
VERTEX
8
ARKA_PANE
10
354.778641
20
408.853111
30
0
0
SEQEND
8
ARKA_PANE
0
POLYLINE
8
ARKA_FRONT_HINGES_3MM
66
1
70
1
10
0
20
0
30
0
0
VERTEX
8
ARKA_FRONT_HINGES_3MM
10
456.13315
20
568.404268
30
0
42
0.266181
0
VERTEX
8
ARKA_FRONT_HINGES_3MM
10
154.86685
20
568.404268
30
0
0
VERTEX
8
ARKA_FRONT_HINGES_3MM
10
253.118373
20
398.22764
30
0
42
-0.262923
0
VERTEX
8
ARKA_FRONT_HINGES_3MM
10
357.881627
20
398.22764
30
0
0
SEQEND
8
ARKA_FRONT_HINGES_3MM
0
POLYLINE
8
ARKA_OUTLINE
66
1
70
1
10
0
20
0
30
0
0
VERTEX
8
ARKA_OUTLINE
10
149.576999
20
553.566559
30
0
42
0.247924
0
VERTEX
8
ARKA_OUTLINE
10
12.706557
20
316.5
30
0
0
VERTEX
8
ARKA_OUTLINE
10
189.520476
20
316.5
30
0
42
-0.217871
0
VERTEX
8
ARKA_OUTLINE
10
237.983959
20
400.441214
30
0
0
SEQEND
8
ARKA_OUTLINE
0
POLYLINE
8
ARKA_PANE
66
1
70
1
10
0
20
0
30
0
0
VERTEX
8
ARKA_PANE
10
150.274431
20
556.358571
30
0
42
0.251663
0
VERTEX
8
ARKA_PANE
10
10.63732
20
314.5
30
0
0
VERTEX
8
ARKA_PANE
10
191.35426
20
314.5
30
0
42
-0.226201
0
VERTEX
8
ARKA_PANE
10
240.632901
20
399.853111
30
0
0
SEQEND
8
ARKA_PANE
0
POLYLINE
8
ARKA_FRONT_HINGES_3MM
66
1
70
1
10
0
20
0
30
0
0
VERTEX
8
ARKA_FRONT_HINGES_3MM
10
153.1348
20
567.404268
30
0
42
0.266181
0
VERTEX
8
ARKA_FRONT_HINGES_3MM
10
2.50165
20
306.5
30
0
0
VERTEX
8
ARKA_FRONT_HINGES_3MM
10
199.004695
20
306.5
30
0
42
-0.262923
0
VERTEX
8
ARKA_FRONT_HINGES_3MM
10
251.386322
20
397.22764
30
0
0
SEQEND
8
ARKA_FRONT_HINGES_3MM
0
POLYLINE
8
ARKA_OUTLINE
66
1
70
1
10
0
20
0
30
0
0
VERTEX
8
ARKA_OUTLINE
10
12.706557
20
294.5
30
0
42
0.247924
0
VERTEX
8
ARKA_OUTLINE
10
149.576999
20
57.433441
30
0
0
VERTEX
8
ARKA_OUTLINE
10
237.983959
20
210.558786
30
0
42
-0.217871
0
VERTEX
8
ARKA_OUTLINE
10
189.520476
20
294.5
30
0
0
SEQEND
8
ARKA_OUTLINE
0
POLYLINE
8
ARKA_PANE
66
1
70
1
10
0
20
0
30
0
0
VERTEX
8
ARKA_PANE
10
10.63732
20
296.5
30
0
42
0.251663
0
VERTEX
8
ARKA_PANE
10
150.274431
20
54.641429
30
0
0
VERTEX
8
ARKA_PANE
10
240.632901
20
211.146889
30
0
42
-0.226201
0
VERTEX
8
ARKA_PANE
10
191.35426
20
296.5
30
0
0
SEQEND
8
ARKA_PANE
0
POLYLINE
8
ARKA_FRONT_HINGES_3MM
66
1
70
1
10
0
20
0
30
0
0
VERTEX
8
ARKA_FRONT_HINGES_3MM
10
2.50165
20
304.5
30
0
42
0.266181
0
VERTEX
8
ARKA_FRONT_HINGES_3MM
10
153.1348
20
43.595732
30
0
0
VERTEX
8
ARKA_FRONT_HINGES_3MM
10
251.386322
20
213.77236
30
0
42
-0.262923
0
VERTEX
8
ARKA_FRONT_HINGES_3MM
10
199.004695
20
304.5
30
0
0
SEQEND
8
ARKA_FRONT_HINGES_3MM
0
POLYLINE
8
ARKA_OUTLINE
66
1
70
1
10
0
20
0
30
0
0
VERTEX
8
ARKA_OUTLINE
10
168.629558
20
46.433441
30
0
42
0.247924
0
VERTEX
8
ARKA_OUTLINE
10
442.370442
20
46.433441
30
0
0
VERTEX
8
ARKA_OUTLINE
10
353.963483
20
199.558786
30
0
42
-0.217871
0
VERTEX
8
ARKA_OUTLINE
10
257.036517
20
199.558786
30
0
0
SEQEND
8
ARKA_OUTLINE
0
POLYLINE
8
ARKA_PANE
66
1
70
1
10
0
20
0
30
0
0
VERTEX
8
ARKA_PANE
10
165.862889
20
45.641429
30
0
42
0.251663
0
VERTEX
8
ARKA_PANE
10
445.137111
20
45.641429
30
0
0
VERTEX
8
ARKA_PANE
10
354.778641
20
202.146889
30
0
42
-0.226201
0
VERTEX
8
ARKA_PANE
10
256.221359
20
202.146889
30
0
0
SEQEND
8
ARKA_PANE
0
POLYLINE
8
ARKA_FRONT_HINGES_3MM
66
1
70
1
10
0
20
0
30
0
0
VERTEX
8
ARKA_FRONT_HINGES_3MM
10
154.86685
20
42.595732
30
0
42
0.266181
0
VERTEX
8
ARKA_FRONT_HINGES_3MM
10
456.13315
20
42.595732
30
0
0
VERTEX
8
ARKA_FRONT_HINGES_3MM
10
357.881627
20
212.77236
30
0
42
-0.262923
0
VERTEX
8
ARKA_FRONT_HINGES_3MM
10
253.118373
20
212.77236
30
0
0
SEQEND
8
ARKA_FRONT_HINGES_3MM
0
POLYLINE
8
ARKA_OUTLINE
66
1
70
1
10
0
20
0
30
0
0
VERTEX
8
ARKA_OUTLINE
10
461.423001
20
57.433441
30
0
42
0.247924
0
VERTEX
8
ARKA_OUTLINE
10
598.293443
20
294.5
30
0
0
VERTEX
8
ARKA_OUTLINE
10
421.479524
20
294.5
30
0
42
-0.217871
0
VERTEX
8
ARKA_OUTLINE
10
373.016041
20
210.558786
30
0
0
SEQEND
8
ARKA_OUTLINE
0
POLYLINE
8
ARKA_PANE
66
1
70
1
10
0
20
0
30
0
0
VERTEX
8
ARKA_PANE
10
460.725569
20
54.641429
30
0
42
0.251663
0
VERTEX
8
ARKA_PANE
10
600.36268
20
296.5
30
0
0
VERTEX
8
ARKA_PANE
10
419.64574
20
296.5
30
0
42
-0.226201
0
VERTEX
8
ARKA_PANE
10
370.367099
20
211.146889
30
0
0
SEQEND
8
ARKA_PANE
0
POLYLINE
8
ARKA_FRONT_HINGES_3MM
66
1
70
1
10
0
20
0
30
0
0
VERTEX
8
ARKA_FRONT_HINGES_3MM
10
457.8652
20
43.595732
30
0
42
0.266181
0
VERTEX
8
ARKA_FRONT_HINGES_3MM
10
608.49835
20
304.5
30
0
0
VERTEX
8
ARKA_FRONT_HINGES_3MM
10
411.995305
20
304.5
30
0
42
-0.262923
0
VERTEX
8
ARKA_FRONT_HINGES_3MM
10
359.613678
20
213.77236
30
0
0
SEQEND
8
ARKA_FRONT_HINGES_3MM
0
POLYLINE
8
ARKA_OUTLINE
66
1
70
1
10
0
20
0
30
0
0
VERTEX
8
ARKA_OUTLINE
10
400
20
305.5
30
0
42
1
0
VERTEX
8
ARKA_OUTLINE
10
211
20
305.5
30
0
42
1
0
SEQEND
8
ARKA_OUTLINE
0
POLYLINE
8
ARKA_PANE
66
1
70
1
10
0
20
0
30
0
0
VERTEX
8
ARKA_PANE
10
402
20
305.5
30
0
42
1
0
VERTEX
8
ARKA_PANE
10
209
20
305.5
30
0
42
1
0
SEQEND
8
ARKA_PANE
0
POLYLINE
8
ARKA_FRONT_HINGES_3MM
66
1
70
1
10
0
20
0
30
0
0
VERTEX
8
ARKA_FRONT_HINGES_3MM
10
410
20
305.5
30
0
42
1
0
VERTEX
8
ARKA_FRONT_HINGES_3MM
10
201
20
305.5
30
0
42
1
0
SEQEND
8
ARKA_FRONT_HINGES_3MM
0
POLYLINE
8
ARKA_MITRE
66
1
70
0
10
0
20
0
30
0
0
VERTEX
8
ARKA_MITRE
10
593.49835
20
306.5
30
0
0
VERTEX
8
ARKA_MITRE
10
608.49835
20
306.5
30
0
42
0.012377
0
VERTEX
8
ARKA_MITRE
10
608.077656
20
321.492567
30
0
0
SEQEND
8
ARKA_MITRE
0
POLYLINE
8
ARKA_MITRE
66
1
70
0
10
0
20
0
30
0
0
VERTEX
8
ARKA_MITRE
10
470.638797
20
559.543653
30
0
42
0.012377
0
VERTEX
8
ARKA_MITRE
10
457.8652
20
567.404268
30
0
0
VERTEX
8
ARKA_MITRE
10
450.3652
20
554.413887
30
0
0
SEQEND
8
ARKA_MITRE
0
POLYLINE
8
ARKA_MITRE
66
1
70
0
10
0
20
0
30
0
0
VERTEX
8
ARKA_MITRE
10
367.113678
20
410.218021
30
0
0
VERTEX
8
ARKA_MITRE
10
359.613678
20
397.22764
30
0
42
-0.035226
0
VERTEX
8
ARKA_MITRE
10
371.954543
20
388.722856
30
0
0
SEQEND
8
ARKA_MITRE
0
POLYLINE
8
ARKA_MITRE
66
1
70
0
10
0
20
0
30
0
0
VERTEX
8
ARKA_MITRE
10
410.800379
20
321.439894
30
0
42
-0.035226
0
VERTEX
8
ARKA_MITRE
10
411.995305
20
306.5
30
0
0
VERTEX
8
ARKA_MITRE
10
426.995305
20
306.5
30
0
0
SEQEND
8
ARKA_MITRE
0
POLYLINE
8
ARKA_MITRE
66
1
70
0
10
0
20
0
30
0
0
VERTEX
8
ARKA_MITRE
10
448.63315
20
555.413887
30
0
0
VERTEX
8
ARKA_MITRE
10
456.13315
20
568.404268
30
0
42
0.012377
0
VERTEX
8
ARKA_MITRE
10
442.938859
20
575.53622
30
0
0
SEQEND
8
ARKA_MITRE
0
POLYLINE
8
ARKA_MITRE
66
1
70
0
10
0
20
0
30
0
0
VERTEX
8
ARKA_MITRE
10
168.061141
20
575.53622
30
0
42
0.012377
0
VERTEX
8
ARKA_MITRE
10
154.86685
20
568.404268
30
0
0
VERTEX
8
ARKA_MITRE
10
162.36685
20
555.413887
30
0
0
SEQEND
8
ARKA_MITRE
0
POLYLINE
8
ARKA_MITRE
66
1
70
0
10
0
20
0
30
0
0
VERTEX
8
ARKA_MITRE
10
245.618373
20
411.218021
30
0
0
VERTEX
8
ARKA_MITRE
10
253.118373
20
398.22764
30
0
42
-0.035226
0
VERTEX
8
ARKA_MITRE
10
266.654164
20
404.66275
30
0
0
SEQEND
8
ARKA_MITRE
0
POLYLINE
8
ARKA_MITRE
66
1
70
0
10
0
20
0
30
0
0
VERTEX
8
ARKA_MITRE
10
344.345836
20
404.66275
30
0
42
-0.035226
0
VERTEX
8
ARKA_MITRE
10
357.881627
20
398.22764
30
0
0
VERTEX
8
ARKA_MITRE
10
365.381627
20
411.218021
30
0
0
SEQEND
8
ARKA_MITRE
0
POLYLINE
8
ARKA_MITRE
66
1
70
0
10
0
20
0
30
0
0
VERTEX
8
ARKA_MITRE
10
160.6348
20
554.413887
30
0
0
VERTEX
8
ARKA_MITRE
10
153.1348
20
567.404268
30
0
42
0.012377
0
VERTEX
8
ARKA_MITRE
10
140.361203
20
559.543653
30
0
0
SEQEND
8
ARKA_MITRE
0
POLYLINE
8
ARKA_MITRE
66
1
70
0
10
0
20
0
30
0
0
VERTEX
8
ARKA_MITRE
10
2.922344
20
321.492567
30
0
42
0.012377
0
VERTEX
8
ARKA_MITRE
10
2.50165
20
306.5
30
0
0
VERTEX
8
ARKA_MITRE
10
17.50165
20
306.5
30
0
0
SEQEND
8
ARKA_MITRE
0
POLYLINE
8
ARKA_MITRE
66
1
70
0
10
0
20
0
30
0
0
VERTEX
8
ARKA_MITRE
10
184.004695
20
306.5
30
0
0
VERTEX
8
ARKA_MITRE
10
199.004695
20
306.5
30
0
42
-0.035226
0
VERTEX
8
ARKA_MITRE
10
200.199621
20
321.439894
30
0
0
SEQEND
8
ARKA_MITRE
0
POLYLINE
8
ARKA_MITRE
66
1
70
0
10
0
20
0
30
0
0
VERTEX
8
ARKA_MITRE
10
239.045457
20
388.722856
30
0
42
-0.035226
0
VERTEX
8
ARKA_MITRE
10
251.386322
20
397.22764
30
0
0
VERTEX
8
ARKA_MITRE
10
243.886322
20
410.218021
30
0
0
SEQEND
8
ARKA_MITRE
0
POLYLINE
8
ARKA_MITRE
66
1
70
0
10
0
20
0
30
0
0
VERTEX
8
ARKA_MITRE
10
17.50165
20
304.5
30
0
0
VERTEX
8
ARKA_MITRE
10
2.50165
20
304.5
30
0
42
0.012377
0
VERTEX
8
ARKA_MITRE
10
2.922344
20
289.507433
30
0
0
SEQEND
8
ARKA_MITRE
0
POLYLINE
8
ARKA_MITRE
66
1
70
0
10
0
20
0
30
0
0
VERTEX
8
ARKA_MITRE
10
140.361203
20
51.456347
30
0
42
0.012377
0
VERTEX
8
ARKA_MITRE
10
153.1348
20
43.595732
30
0
0
VERTEX
8
ARKA_MITRE
10
160.6348
20
56.586113
30
0
0
SEQEND
8
ARKA_MITRE
0
POLYLINE
8
ARKA_MITRE
66
1
70
0
10
0
20
0
30
0
0
VERTEX
8
ARKA_MITRE
10
243.886322
20
200.781979
30
0
0
VERTEX
8
ARKA_MITRE
10
251.386322
20
213.77236
30
0
42
-0.035226
0
VERTEX
8
ARKA_MITRE
10
239.045457
20
222.277144
30
0
0
SEQEND
8
ARKA_MITRE
0
POLYLINE
8
ARKA_MITRE
66
1
70
0
10
0
20
0
30
0
0
VERTEX
8
ARKA_MITRE
10
200.199621
20
289.560106
30
0
42
-0.035226
0
VERTEX
8
ARKA_MITRE
10
199.004695
20
304.5
30
0
0
VERTEX
8
ARKA_MITRE
10
184.004695
20
304.5
30
0
0
SEQEND
8
ARKA_MITRE
0
POLYLINE
8
ARKA_MITRE
66
1
70
0
10
0
20
0
30
0
0
VERTEX
8
ARKA_MITRE
10
162.36685
20
55.586113
30
0
0
VERTEX
8
ARKA_MITRE
10
154.86685
20
42.595732
30
0
42
0.012377
0
VERTEX
8
ARKA_MITRE
10
168.061141
20
35.46378
30
0
0
SEQEND
8
ARKA_MITRE
0
POLYLINE
8
ARKA_MITRE
66
1
70
0
10
0
20
0
30
0
0
VERTEX
8
ARKA_MITRE
10
442.938859
20
35.46378
30
0
42
0.012377
0
VERTEX
8
ARKA_MITRE
10
456.13315
20
42.595732
30
0
0
VERTEX
8
ARKA_MITRE
10
448.63315
20
55.586113
30
0
0
SEQEND
8
ARKA_MITRE
0
POLYLINE
8
ARKA_MITRE
66
1
70
0
10
0
20
0
30
0
0
VERTEX
8
ARKA_MITRE
10
365.381627
20
199.781979
30
0
0
VERTEX
8
ARKA_MITRE
10
357.881627
20
212.77236
30
0
42
-0.035226
0
VERTEX
8
ARKA_MITRE
10
344.345836
20
206.33725
30
0
0
SEQEND
8
ARKA_MITRE
0
POLYLINE
8
ARKA_MITRE
66
1
70
0
10
0
20
0
30
0
0
VERTEX
8
ARKA_MITRE
10
266.654164
20
206.33725
30
0
42
-0.035226
0
VERTEX
8
ARKA_MITRE
10
253.118373
20
212.77236
30
0
0
VERTEX
8
ARKA_MITRE
10
245.618373
20
199.781979
30
0
0
SEQEND
8
ARKA_MITRE
0
POLYLINE
8
ARKA_MITRE
66
1
70
0
10
0
20
0
30
0
0
VERTEX
8
ARKA_MITRE
10
450.3652
20
56.586113
30
0
0
VERTEX
8
ARKA_MITRE
10
457.8652
20
43.595732
30
0
42
0.012377
0
VERTEX
8
ARKA_MITRE
10
470.638797
20
51.456347
30
0
0
SEQEND
8
ARKA_MITRE
0
POLYLINE
8
ARKA_MITRE
66
1
70
0
10
0
20
0
30
0
0
VERTEX
8
ARKA_MITRE
10
608.077656
20
289.507433
30
0
42
0.012377
0
VERTEX
8
ARKA_MITRE
10
608.49835
20
304.5
30
0
0
VERTEX
8
ARKA_MITRE
10
593.49835
20
304.5
30
0
0
SEQEND
8
ARKA_MITRE
0
POLYLINE
8
ARKA_MITRE
66
1
70
0
10
0
20
0
30
0
0
VERTEX
8
ARKA_MITRE
10
426.995305
20
304.5
30
0
0
VERTEX
8
ARKA_MITRE
10
411.995305
20
304.5
30
0
42
-0.035226
0
VERTEX
8
ARKA_MITRE
10
410.800379
20
289.560106
30
0
0
SEQEND
8
ARKA_MITRE
0
POLYLINE
8
ARKA_MITRE
66
1
70
0
10
0
20
0
30
0
0
VERTEX
8
ARKA_MITRE
10
371.954543
20
222.277144
30
0
42
-0.035226
0
VERTEX
8
ARKA_MITRE
10
359.613678
20
213.77236
30
0
0
VERTEX
8
ARKA_MITRE
10
367.113678
20
200.781979
30
0
0
SEQEND
8
ARKA_MITRE
0
POINT
8
ARKA_CENTRE
10
305.5
20
305.5
30
0
0
POINT
8
ARKA_CENTRE
10
305.5
20
305.5
30
0
0
POLYLINE
8
ARKA_SECTION
66
1
70
0
10
0
20
0
30
0
0
VERTEX
8
ARKA_SECTION
10
716.5
20
-5.5
30
0
42
-0.414214
0
VERTEX
8
ARKA_SECTION
10
724.5
20
2.5
30
0
0
VERTEX
8
ARKA_SECTION
10
724.5
20
8.5
30
0
0
SEQEND
8
ARKA_SECTION
0
TEXT
8
ARKA_INFO_NO_CUT
10
712.5
20
-24.5
30
0
40
15
1
START
72
0
11
712.5
21
-24.5
31
0
73
0
0
TEXT
8
ARKA_INFO_NO_CUT
10
736.5
20
-1.5
30
0
40
15
1
SECTION R8 + 6 (VERBATIM)
72
0
11
736.5
21
-1.5
31
0
73
0
0
TEXT
8
ARKA_INFO_NO_CUT
10
716.5
20
594.5
30
0
40
15
1
CIR - TRACERY FULL
72
0
11
716.5
21
594.5
31
0
73
0
0
TEXT
8
ARKA_INFO_NO_CUT
10
716.5
20
572.5
30
0
40
15
1
PATTERN SUNBURST SPOKES 6 RINGS 2 PANES 7
72
0
11
716.5
21
572.5
31
0
73
0
0
TEXT
8
ARKA_INFO_NO_CUT
10
716.5
20
550.5
30
0
40
15
1
TIMBER BAR 22 EDGE MARGIN 18 PANE +2 LIMIT +10 MITRE LEG 15
72
0
11
716.5
21
550.5
31
0
73
0
0
TEXT
8
ARKA_INFO_NO_CUT
10
716.5
20
528.5
30
0
40
15
1
ARKA_PANE = MOULDING RAIL (INNER EDGE OF THE BEAD), ARKA_FRONT_HINGES_3MM = BEAD LIMIT (NOT DRILLING)
72
0
11
716.5
21
528.5
31
0
73
0
0
TEXT
8
ARKA_INFO_NO_CUT
10
716.5
20
506.5
30
0
40
15
1
NOT A TOOLPATH
72
0
11
716.5
21
506.5
31
0
73
0
0
ENDSEC
0
EOF
