0
SECTION
2
HEADER
9
$ACADVER
1
AC1009
0
ENDSEC
0
SECTION
2
TABLES
0
TABLE
2
LAYER
70
6
0
LAYER
2
0
70
0
62
7
6
CONTINUOUS
0
LAYER
2
GLASS_CONTOUR
70
0
62
7
6
CONTINUOUS
0
LAYER
2
GLASS_EDGE
70
0
62
8
6
CONTINUOUS
0
LAYER
2
GLASS_BARS
70
0
62
3
6
CONTINUOUS
0
LAYER
2
GLASS_BAR_AXES
70
0
62
4
6
CONTINUOUS
0
LAYER
2
GLASS_TEXT
70
0
62
2
6
CONTINUOUS
0
ENDTAB
0
ENDSEC
0
SECTION
2
ENTITIES
0
POLYLINE
8
GLASS_CONTOUR
66
1
70
1
10
0
20
0
30
0
0
VERTEX
8
GLASS_CONTOUR
10
0
20
0
30
0
0
VERTEX
8
GLASS_CONTOUR
10
811
20
0
30
0
0
VERTEX
8
GLASS_CONTOUR
10
811
20
832.474596
30
0
42
0.251569
0
VERTEX
8
GLASS_CONTOUR
10
405.5
20
1587.411845
30
0
42
0.251569
0
VERTEX
8
GLASS_CONTOUR
10
0
20
832.474596
30
0
0
SEQEND
8
GLASS_CONTOUR
0
POLYLINE
8
GLASS_EDGE
66
1
70
1
10
0
20
0
30
0
0
VERTEX
8
GLASS_EDGE
10
11
20
11
30
0
0
VERTEX
8
GLASS_EDGE
10
800
20
11
30
0
0
VERTEX
8
GLASS_EDGE
10
800
20
832.474596
30
0
42
0.249399
0
VERTEX
8
GLASS_EDGE
10
405.5
20
1574.182254
30
0
42
0.249399
0
VERTEX
8
GLASS_EDGE
10
11
20
832.474596
30
0
0
SEQEND
8
GLASS_EDGE
0
POLYLINE
8
GLASS_BAR_AXES
66
1
70
0
10
0
20
0
30
0
0
VERTEX
8
GLASS_BAR_AXES
10
0
20
416.237298
30
0
0
VERTEX
8
GLASS_BAR_AXES
10
811
20
416.237298
30
0
0
SEQEND
8
GLASS_BAR_AXES
0
POLYLINE
8
GLASS_BARS
66
1
70
0
10
0
20
0
30
0
0
VERTEX
8
GLASS_BARS
10
0
20
425.237298
30
0
0
VERTEX
8
GLASS_BARS
10
811
20
425.237298
30
0
0
SEQEND
8
GLASS_BARS
0
POLYLINE
8
GLASS_BARS
66
1
70
0
10
0
20
0
30
0
0
VERTEX
8
GLASS_BARS
10
0
20
407.237298
30
0
0
VERTEX
8
GLASS_BARS
10
811
20
407.237298
30
0
0
SEQEND
8
GLASS_BARS
0
POLYLINE
8
GLASS_BAR_AXES
66
1
70
0
10
0
20
0
30
0
0
VERTEX
8
GLASS_BAR_AXES
10
202.75
20
0
30
0
0
VERTEX
8
GLASS_BAR_AXES
10
202.75
20
832.474596
30
0
0
SEQEND
8
GLASS_BAR_AXES
0
POLYLINE
8
GLASS_BARS
66
1
70
0
10
0
20
0
30
0
0
VERTEX
8
GLASS_BARS
10
193.75
20
0
30
0
0
VERTEX
8
GLASS_BARS
10
193.75
20
832.474596
30
0
0
SEQEND
8
GLASS_BARS
0
POLYLINE
8
GLASS_BARS
66
1
70
0
10
0
20
0
30
0
0
VERTEX
8
GLASS_BARS
10
211.75
20
0
30
0
0
VERTEX
8
GLASS_BARS
10
211.75
20
832.474596
30
0
0
SEQEND
8
GLASS_BARS
0
POLYLINE
8
GLASS_BAR_AXES
66
1
70
0
10
0
20
0
30
0
0
VERTEX
8
GLASS_BAR_AXES
10
202.75
20
832.474596
30
0
42
0.120001
0
VERTEX
8
GLASS_BAR_AXES
10
101.375
20
1248.783657
30
0
0
SEQEND
8
GLASS_BAR_AXES
0
POLYLINE
8
GLASS_BARS
66
1
70
0
10
0
20
0
30
0
0
VERTEX
8
GLASS_BARS
10
211.75
20
832.474596
30
0
42
0.120001
0
VERTEX
8
GLASS_BARS
10
109.367408
20
1252.921461
30
0
0
SEQEND
8
GLASS_BARS
0
POLYLINE
8
GLASS_BARS
66
1
70
0
10
0
20
0
30
0
0
VERTEX
8
GLASS_BARS
10
193.75
20
832.474596
30
0
42
0.120001
0
VERTEX
8
GLASS_BARS
10
93.382592
20
1244.645853
30
0
0
SEQEND
8
GLASS_BARS
0
POLYLINE
8
GLASS_BAR_AXES
66
1
70
0
10
0
20
0
30
0
0
VERTEX
8
GLASS_BAR_AXES
10
506.875
20
1509.437194
30
0
42
0.214308
0
VERTEX
8
GLASS_BAR_AXES
10
202.75
20
832.474596
30
0
0
SEQEND
8
GLASS_BAR_AXES
0
POLYLINE
8
GLASS_BARS
66
1
70
0
10
0
20
0
30
0
0
VERTEX
8
GLASS_BARS
10
500.897777
20
1516.165702
30
0
42
0.214308
0
VERTEX
8
GLASS_BARS
10
193.75
20
832.474596
30
0
0
SEQEND
8
GLASS_BARS
0
POLYLINE
8
GLASS_BARS
66
1
70
0
10
0
20
0
30
0
0
VERTEX
8
GLASS_BARS
10
512.852223
20
1502.708687
30
0
42
0.214308
0
VERTEX
8
GLASS_BARS
10
211.75
20
832.474596
30
0
0
SEQEND
8
GLASS_BARS
0
POLYLINE
8
GLASS_BAR_AXES
66
1
70
0
10
0
20
0
30
0
0
VERTEX
8
GLASS_BAR_AXES
10
608.25
20
0
30
0
0
VERTEX
8
GLASS_BAR_AXES
10
608.25
20
832.474596
30
0
0
SEQEND
8
GLASS_BAR_AXES
0
POLYLINE
8
GLASS_BARS
66
1
70
0
10
0
20
0
30
0
0
VERTEX
8
GLASS_BARS
10
599.25
20
0
30
0
0
VERTEX
8
GLASS_BARS
10
599.25
20
832.474596
30
0
0
SEQEND
8
GLASS_BARS
0
POLYLINE
8
GLASS_BARS
66
1
70
0
10
0
20
0
30
0
0
VERTEX
8
GLASS_BARS
10
617.25
20
0
30
0
0
VERTEX
8
GLASS_BARS
10
617.25
20
832.474596
30
0
0
SEQEND
8
GLASS_BARS
0
POLYLINE
8
GLASS_BAR_AXES
66
1
70
0
10
0
20
0
30
0
0
VERTEX
8
GLASS_BAR_AXES
10
608.25
20
832.474596
30
0
42
0.214308
0
VERTEX
8
GLASS_BAR_AXES
10
304.125
20
1509.437194
30
0
0
SEQEND
8
GLASS_BAR_AXES
0
POLYLINE
8
GLASS_BARS
66
1
70
0
10
0
20
0
30
0
0
VERTEX
8
GLASS_BARS
10
617.25
20
832.474596
30
0
42
0.214308
0
VERTEX
8
GLASS_BARS
10
310.102223
20
1516.165702
30
0
0
SEQEND
8
GLASS_BARS
0
POLYLINE
8
GLASS_BARS
66
1
70
0
10
0
20
0
30
0
0
VERTEX
8
GLASS_BARS
10
599.25
20
832.474596
30
0
42
0.214308
0
VERTEX
8
GLASS_BARS
10
298.147777
20
1502.708687
30
0
0
SEQEND
8
GLASS_BARS
0
POLYLINE
8
GLASS_BAR_AXES
66
1
70
0
10
0
20
0
30
0
0
VERTEX
8
GLASS_BAR_AXES
10
709.625
20
1248.783657
30
0
42
0.120001
0
VERTEX
8
GLASS_BAR_AXES
10
608.25
20
832.474596
30
0
0
SEQEND
8
GLASS_BAR_AXES
0
POLYLINE
8
GLASS_BARS
66
1
70
0
10
0
20
0
30
0
0
VERTEX
8
GLASS_BARS
10
701.632592
20
1252.921461
30
0
42
0.120001
0
VERTEX
8
GLASS_BARS
10
599.25
20
832.474596
30
0
0
SEQEND
8
GLASS_BARS
0
POLYLINE
8
GLASS_BARS
66
1
70
0
10
0
20
0
30
0
0
VERTEX
8
GLASS_BARS
10
717.617408
20
1244.645853
30
0
42
0.120001
0
VERTEX
8
GLASS_BARS
10
617.25
20
832.474596
30
0
0
SEQEND
8
GLASS_BARS
0
TEXT
8
GLASS_TEXT
10
911
20
1568.911845
30
0
40
15
1
GO1 - G1 GLASS GOTHIC-EQUILATERAL
72
0
11
911
21
1568.911845
31
0
73
0
0
TEXT
8
GLASS_TEXT
10
911
20
1546.911845
30
0
40
15
1
W811 x H1587.4 RISE 754.9 SPRINGING 832.5 R 905.5/905.5
72
0
11
911
21
1546.911845
31
0
73
0
0
TEXT
8
GLASS_TEXT
10
911
20
1524.911845
30
0
40
15
1
DOUBLE 4X16X4 TOUGHENED ARGON CLEAR SPACER SILVER
72
0
11
911
21
1524.911845
31
0
73
0
0
TEXT
8
GLASS_TEXT
10
911
20
1502.911845
30
0
40
15
1
BARS 7 PATTERN INTERSECTING TOTAL L=4870
72
0
11
911
21
1502.911845
31
0
73
0
0
TEXT
8
GLASS_TEXT
10
911
20
1480.911845
30
0
40
15
1
H1 H Y=416.2 X=0-811 L=811
72
0
11
911
21
1480.911845
31
0
73
0
0
TEXT
8
GLASS_TEXT
10
911
20
1458.911845
30
0
40
15
1
V1 V X=202.8 Y=0-832.5 L=832.5
72
0
11
911
21
1458.911845
31
0
73
0
0
TEXT
8
GLASS_TEXT
10
911
20
1436.911845
30
0
40
15
1
T1 TRACERY C=(-702.7,832.5) R=905.5 0-27.4DEG L=432.5
72
0
11
911
21
1436.911845
31
0
73
0
0
TEXT
8
GLASS_TEXT
10
911
20
1414.911845
30
0
40
15
1
T2 TRACERY C=(1108.3,832.5) R=905.5 131.6-180DEG L=764.5
72
0
11
911
21
1414.911845
31
0
73
0
0
TEXT
8
GLASS_TEXT
10
911
20
1392.911845
30
0
40
15
1
V2 V X=608.3 Y=0-832.5 L=832.5
72
0
11
911
21
1392.911845
31
0
73
0
0
TEXT
8
GLASS_TEXT
10
911
20
1370.911845
30
0
40
15
1
T3 TRACERY C=(-297.2,832.5) R=905.5 0-48.4DEG L=764.5
72
0
11
911
21
1370.911845
31
0
73
0
0
TEXT
8
GLASS_TEXT
10
911
20
1348.911845
30
0
40
15
1
T4 TRACERY C=(1513.8,832.5) R=905.5 152.6-180DEG L=432.5
72
0
11
911
21
1348.911845
31
0
73
0
0
TEXT
8
GLASS_TEXT
10
911
20
1326.911845
30
0
40
15
1
BAR ENDS (TABLE, 7 BARS): ID  S FROM APEX / POSITION  L  ANGLE / R
72
0
11
911
21
1326.911845
31
0
73
0
0
TEXT
8
GLASS_TEXT
10
911
20
1304.911845
30
0
40
15
1
H1  Y 416.2  L=811  0DEG
72
0
11
911
21
1304.911845
31
0
73
0
0
TEXT
8
GLASS_TEXT
10
911
20
1282.911845
30
0
40
15
1
V1  X 202.8  L=832.5  90DEG
72
0
11
911
21
1282.911845
31
0
73
0
0
TEXT
8
GLASS_TEXT
10
911
20
1260.911845
30
0
40
15
1
T1  460.1 FROM APEX L  L=432.5  R 905.5
72
0
11
911
21
1260.911845
31
0
73
0
0
TEXT
8
GLASS_TEXT
10
911
20
1238.911845
30
0
40
15
1
T2  128 FROM APEX R  L=764.5  R 905.5
72
0
11
911
21
1238.911845
31
0
73
0
0
TEXT
8
GLASS_TEXT
10
911
20
1216.911845
30
0
40
15
1
V2  X 608.3  L=832.5  90DEG
72
0
11
911
21
1216.911845
31
0
73
0
0
TEXT
8
GLASS_TEXT
10
911
20
1194.911845
30
0
40
15
1
T3  128 FROM APEX L  L=764.5  R 905.5
72
0
11
911
21
1194.911845
31
0
73
0
0
TEXT
8
GLASS_TEXT
10
911
20
1172.911845
30
0
40
15
1
T4  460.1 FROM APEX R  L=432.5  R 905.5
72
0
11
911
21
1172.911845
31
0
73
0
0
ENDSEC
0
EOF
