0
SECTION
2
HEADER
9
$ACADVER
1
AC1009
0
ENDSEC
0
SECTION
2
TABLES
0
TABLE
2
LAYER
70
6
0
LAYER
2
0
70
0
62
7
6
CONTINUOUS
0
LAYER
2
CONTOUR
70
0
62
7
6
CONTINUOUS
0
LAYER
2
ASSEMBLY
70
0
62
8
6
CONTINUOUS
0
LAYER
2
PIECES
70
0
62
5
6
CONTINUOUS
0
LAYER
2
FINGER
70
0
62
1
6
CONTINUOUS
0
LAYER
2
TEXT
70
0
62
94
6
CONTINUOUS
0
ENDTAB
0
ENDSEC
0
SECTION
2
ENTITIES
0
POLYLINE
8
ASSEMBLY
66
1
70
1
10
0
20
0
30
0
0
VERTEX
8
ASSEMBLY
10
0
20
0
30
0
0
VERTEX
8
ASSEMBLY
10
1080.740487
20
0
30
0
0
VERTEX
8
ASSEMBLY
10
1080.740487
20
225
30
0
0
VERTEX
8
ASSEMBLY
10
0
20
225
30
0
0
SEQEND
8
ASSEMBLY
0
POLYLINE
8
PIECES
66
1
70
1
10
0
20
0
30
0
0
VERTEX
8
PIECES
10
1080.740487
20
12.5
30
0
42
0.370117
0
VERTEX
8
PIECES
10
0
20
12.5
30
0
0
VERTEX
8
PIECES
10
109.941388
20
12.5
30
0
42
-0.308994
0
VERTEX
8
PIECES
10
970.799099
20
12.5
30
0
0
SEQEND
8
PIECES
0
TEXT
8
TEXT
10
540.370243
20
112.5
30
0
40
15
1
W1 - LEAF TOP P1 1080.7x225
72
1
11
540.370243
21
112.5
31
0
73
2
0
POLYLINE
8
CONTOUR
66
1
70
1
10
0
20
0
30
0
0
VERTEX
8
CONTOUR
10
1080.740487
20
437.5
30
0
42
0.370117
0
VERTEX
8
CONTOUR
10
0
20
437.5
30
0
0
VERTEX
8
CONTOUR
10
109.941388
20
437.5
30
0
42
-0.308994
0
VERTEX
8
CONTOUR
10
970.799099
20
437.5
30
0
0
SEQEND
8
CONTOUR
0
POLYLINE
8
ASSEMBLY
66
1
70
1
10
0
20
0
30
0
0
VERTEX
8
ASSEMBLY
10
1080.740487
20
425
30
0
0
VERTEX
8
ASSEMBLY
10
0
20
425
30
0
0
VERTEX
8
ASSEMBLY
10
0
20
650
30
0
0
VERTEX
8
ASSEMBLY
10
1080.740487
20
650
30
0
0
SEQEND
8
ASSEMBLY
0
TEXT
8
TEXT
10
1180.740487
20
631.5
30
0
40
15
1
W1 - LEAF TOP
72
0
11
1180.740487
21
631.5
31
0
73
0
0
TEXT
8
TEXT
10
1180.740487
20
609.5
30
0
40
15
1
SEGMENTAL W1200 RISE240 H2000 HINGE L
72
0
11
1180.740487
21
609.5
31
0
73
0
0
TEXT
8
TEXT
10
1180.740487
20
587.5
30
0
40
15
1
FACE 67 OFFSET 40 OUTER L1176.9 INNER L914.6
72
0
11
1180.740487
21
587.5
31
0
73
0
0
TEXT
8
TEXT
10
1180.740487
20
565.5
30
0
40
15
1
ARC 1 R830 L1176.9: 1 x board 225 L1080.7 (ALT 4 x board 100)
72
0
11
1180.740487
21
565.5
31
0
73
0
0
TEXT
8
TEXT
10
1180.740487
20
543.5
30
0
40
15
1
FINGER 15/16/3.8
72
0
11
1180.740487
21
543.5
31
0
73
0
0
POLYLINE
8
ASSEMBLY
66
1
70
1
10
0
20
0
30
0
0
VERTEX
8
ASSEMBLY
10
0
20
850
30
0
0
VERTEX
8
ASSEMBLY
10
646.219777
20
850
30
0
0
VERTEX
8
ASSEMBLY
10
646.219777
20
1000
30
0
0
VERTEX
8
ASSEMBLY
10
0
20
1000
30
0
0
SEQEND
8
ASSEMBLY
0
POLYLINE
8
PIECES
66
1
70
1
10
0
20
0
30
0
0
VERTEX
8
PIECES
10
646.219777
20
920.348946
30
0
42
0.192582
0
VERTEX
8
PIECES
10
0
20
920.348946
30
0
0
VERTEX
8
PIECES
10
21.169269
20
867.425775
30
0
42
-0.172745
0
VERTEX
8
PIECES
10
566.256063
20
888.363461
30
0
0
SEQEND
8
PIECES
0
POLYLINE
8
FINGER
66
1
70
0
10
0
20
0
30
0
0
VERTEX
8
FINGER
10
21.169269
20
867.425775
30
0
0
VERTEX
8
FINGER
10
0
20
920.348946
30
0
0
SEQEND
8
FINGER
0
TEXT
8
TEXT
10
323.109888
20
925
30
0
40
15
1
W1 - FRAME HEAD P1 646.2x150
72
1
11
323.109888
21
925
31
0
73
2
0
POLYLINE
8
ASSEMBLY
66
1
70
1
10
0
20
0
30
0
0
VERTEX
8
ASSEMBLY
10
846.219777
20
850
30
0
0
VERTEX
8
ASSEMBLY
10
1492.439554
20
850
30
0
0
VERTEX
8
ASSEMBLY
10
1492.439554
20
1000
30
0
0
VERTEX
8
ASSEMBLY
10
846.219777
20
1000
30
0
0
SEQEND
8
ASSEMBLY
0
POLYLINE
8
PIECES
66
1
70
1
10
0
20
0
30
0
0
VERTEX
8
PIECES
10
1492.439554
20
920.348946
30
0
42
0.192582
0
VERTEX
8
PIECES
10
846.219777
20
920.348946
30
0
0
VERTEX
8
PIECES
10
926.183491
20
888.363461
30
0
42
-0.172745
0
VERTEX
8
PIECES
10
1471.270285
20
867.425775
30
0
0
SEQEND
8
PIECES
0
POLYLINE
8
FINGER
66
1
70
0
10
0
20
0
30
0
0
VERTEX
8
FINGER
10
1471.270285
20
867.425775
30
0
0
VERTEX
8
FINGER
10
1492.439554
20
920.348946
30
0
0
SEQEND
8
FINGER
0
TEXT
8
TEXT
10
1169.329665
20
925
30
0
40
15
1
W1 - FRAME HEAD P2 646.2x150
72
1
11
1169.329665
21
925
31
0
73
2
0
POLYLINE
8
CONTOUR
66
1
70
1
10
0
20
0
30
0
0
VERTEX
8
CONTOUR
10
1229.581659
20
1265.317357
30
0
42
0.4
0
VERTEX
8
CONTOUR
10
29.581659
20
1265.317357
30
0
0
VERTEX
8
CONTOUR
10
115.705214
20
1265.317357
30
0
42
-0.356117
0
VERTEX
8
CONTOUR
10
1143.458103
20
1265.317357
30
0
0
SEQEND
8
CONTOUR
0
POLYLINE
8
ASSEMBLY
66
1
70
1
10
0
20
0
30
0
0
VERTEX
8
ASSEMBLY
10
1203.454716
20
1200
30
0
0
VERTEX
8
ASSEMBLY
10
603.454716
20
1440
30
0
0
VERTEX
8
ASSEMBLY
10
659.163317
20
1579.271504
30
0
0
VERTEX
8
ASSEMBLY
10
1259.163317
20
1339.271504
30
0
0
SEQEND
8
ASSEMBLY
0
POLYLINE
8
FINGER
66
1
70
0
10
0
20
0
30
0
0
VERTEX
8
FINGER
10
629.581659
20
1448.317357
30
0
0
VERTEX
8
FINGER
10
629.581659
20
1505.317357
30
0
0
SEQEND
8
FINGER
0
POLYLINE
8
ASSEMBLY
66
1
70
1
10
0
20
0
30
0
0
VERTEX
8
ASSEMBLY
10
655.708601
20
1440
30
0
0
VERTEX
8
ASSEMBLY
10
55.708601
20
1200
30
0
0
VERTEX
8
ASSEMBLY
10
0
20
1339.271504
30
0
0
VERTEX
8
ASSEMBLY
10
600
20
1579.271504
30
0
0
SEQEND
8
ASSEMBLY
0
TEXT
8
TEXT
10
1359.163317
20
1560.771504
30
0
40
15
1
W1 - FRAME HEAD
72
0
11
1359.163317
21
1560.771504
31
0
73
0
0
TEXT
8
TEXT
10
1359.163317
20
1538.771504
30
0
40
15
1
SEGMENTAL W1200 RISE240 H2000 HINGE L
72
0
11
1359.163317
21
1538.771504
31
0
73
0
0
TEXT
8
TEXT
10
1359.163317
20
1516.771504
30
0
40
15
1
FACE 57 OFFSET 0 OUTER L1324.2 INNER L1112.6
72
0
11
1359.163317
21
1516.771504
31
0
73
0
0
TEXT
8
TEXT
10
1359.163317
20
1494.771504
30
0
40
15
1
ARC 1 R870 L1324.2: 2 x board 150 L646.2 (ALT 4 x board 100)
72
0
11
1359.163317
21
1494.771504
31
0
73
0
0
TEXT
8
TEXT
10
1359.163317
20
1472.771504
30
0
40
15
1
FINGER 15/16/3.8
72
0
11
1359.163317
21
1472.771504
31
0
73
0
0
ENDSEC
0
EOF
