0
SECTION
2
HEADER
9
$ACADVER
1
AC1009
0
ENDSEC
0
SECTION
2
TABLES
0
TABLE
2
LAYER
70
8
0
LAYER
2
0
70
0
62
7
6
CONTINUOUS
0
LAYER
2
FIT
70
0
62
4
6
CONTINUOUS
0
LAYER
2
CONTOUR
70
0
62
7
6
CONTINUOUS
0
LAYER
2
ASSEMBLY
70
0
62
8
6
CONTINUOUS
0
LAYER
2
PIECES
70
0
62
5
6
CONTINUOUS
0
LAYER
2
FINGER
70
0
62
1
6
CONTINUOUS
0
LAYER
2
CLAMPS
70
0
62
3
6
CONTINUOUS
0
LAYER
2
TEXT
70
0
62
94
6
CONTINUOUS
0
ENDTAB
0
ENDSEC
0
SECTION
2
ENTITIES
0
POLYLINE
8
PIECES
66
1
70
1
10
0
20
0
30
0
0
VERTEX
8
PIECES
10
566.222591
20
0
30
0
0
VERTEX
8
PIECES
10
68.478261
20
0
30
0
0
VERTEX
8
PIECES
10
0
20
150
30
0
0
VERTEX
8
PIECES
10
566.222591
20
150
30
0
0
SEQEND
8
PIECES
0
POLYLINE
8
CLAMPS
66
1
70
1
10
0
20
0
30
0
0
VERTEX
8
CLAMPS
10
98.913043
20
10
30
0
0
VERTEX
8
CLAMPS
10
228.913043
20
10
30
0
0
VERTEX
8
CLAMPS
10
228.913043
20
140
30
0
0
VERTEX
8
CLAMPS
10
98.913043
20
140
30
0
0
SEQEND
8
CLAMPS
0
POLYLINE
8
CLAMPS
66
1
70
1
10
0
20
0
30
0
0
VERTEX
8
CLAMPS
10
416.222591
20
10
30
0
0
VERTEX
8
CLAMPS
10
546.222591
20
10
30
0
0
VERTEX
8
CLAMPS
10
546.222591
20
140
30
0
0
VERTEX
8
CLAMPS
10
416.222591
20
140
30
0
0
SEQEND
8
CLAMPS
0
TEXT
8
TEXT
10
283.111295
20
85
30
0
40
15
1
C5 - LEAF TOP P1 L566.2 x150
72
1
11
283.111295
21
85
31
0
73
2
0
TEXT
8
TEXT
10
283.111295
20
10
30
0
40
10
1
OUT 551.2 IN 482.7 CUT J24.5/Q FINGER ONE END
72
1
11
283.111295
21
10
31
0
73
2
0
POLYLINE
8
PIECES
66
1
70
1
10
0
20
0
30
0
0
VERTEX
8
PIECES
10
1263.96692
20
0
30
0
0
VERTEX
8
PIECES
10
766.222591
20
0
30
0
0
VERTEX
8
PIECES
10
766.222591
20
150
30
0
0
VERTEX
8
PIECES
10
1332.445181
20
150
30
0
0
SEQEND
8
PIECES
0
POLYLINE
8
CLAMPS
66
1
70
1
10
0
20
0
30
0
0
VERTEX
8
CLAMPS
10
786.222591
20
10
30
0
0
VERTEX
8
CLAMPS
10
916.222591
20
10
30
0
0
VERTEX
8
CLAMPS
10
916.222591
20
140
30
0
0
VERTEX
8
CLAMPS
10
786.222591
20
140
30
0
0
SEQEND
8
CLAMPS
0
POLYLINE
8
CLAMPS
66
1
70
1
10
0
20
0
30
0
0
VERTEX
8
CLAMPS
10
1103.532138
20
10
30
0
0
VERTEX
8
CLAMPS
10
1233.532138
20
10
30
0
0
VERTEX
8
CLAMPS
10
1233.532138
20
140
30
0
0
VERTEX
8
CLAMPS
10
1103.532138
20
140
30
0
0
SEQEND
8
CLAMPS
0
TEXT
8
TEXT
10
1049.333886
20
85
30
0
40
15
1
C5 - LEAF TOP P2 L566.2 x150
72
1
11
1049.333886
21
85
31
0
73
2
0
TEXT
8
TEXT
10
1049.333886
20
10
30
0
40
10
1
OUT 551.2 IN 482.7 CUT Q/J24.5 FINGER ONE END
72
1
11
1049.333886
21
10
31
0
73
2
0
POLYLINE
8
CONTOUR
66
1
70
1
10
0
20
0
30
0
0
VERTEX
8
CONTOUR
10
961.440578
20
417.583363
30
0
42
0.259126
0
VERTEX
8
CONTOUR
10
909.553786
20
510.979589
30
0
42
0.285714
0
VERTEX
8
CONTOUR
10
93.327371
20
510.979589
30
0
42
0.259126
0
VERTEX
8
CONTOUR
10
41.440578
20
417.583363
30
0
0
VERTEX
8
CONTOUR
10
108.440578
20
417.583363
30
0
42
-0.259126
0
VERTEX
8
CONTOUR
10
128.723597
20
454.092797
30
0
42
-0.285714
0
VERTEX
8
CONTOUR
10
874.157559
20
454.092797
30
0
42
-0.259126
0
VERTEX
8
CONTOUR
10
894.440578
20
417.583363
30
0
0
SEQEND
8
CONTOUR
0
POLYLINE
8
ASSEMBLY
66
1
70
1
10
0
20
0
30
0
0
VERTEX
8
ASSEMBLY
10
940.587304
20
350
30
0
0
VERTEX
8
ASSEMBLY
10
501.440578
20
550.480027
30
0
0
VERTEX
8
ASSEMBLY
10
501.440578
20
715.371725
30
0
0
VERTEX
8
ASSEMBLY
10
1002.881156
20
486.453201
30
0
0
SEQEND
8
ASSEMBLY
0
POLYLINE
8
FINGER
66
1
70
0
10
0
20
0
30
0
0
VERTEX
8
FINGER
10
501.440578
20
560.583363
30
0
0
VERTEX
8
FINGER
10
501.440578
20
627.583363
30
0
0
SEQEND
8
FINGER
0
POLYLINE
8
ASSEMBLY
66
1
70
1
10
0
20
0
30
0
0
VERTEX
8
ASSEMBLY
10
501.440578
20
550.480027
30
0
0
VERTEX
8
ASSEMBLY
10
62.293852
20
350
30
0
0
VERTEX
8
ASSEMBLY
10
0
20
486.453201
30
0
0
VERTEX
8
ASSEMBLY
10
501.440578
20
715.371725
30
0
0
SEQEND
8
ASSEMBLY
0
TEXT
8
TEXT
10
1102.881156
20
696.871725
30
0
40
15
1
C5 - LEAF TOP
72
0
11
1102.881156
21
696.871725
31
0
73
0
0
TEXT
8
TEXT
10
1102.881156
20
674.871725
30
0
40
15
1
THREE-CENTRE W1000 RISE250 H1800 HINGE L
72
0
11
1102.881156
21
674.871725
31
0
73
0
0
TEXT
8
TEXT
10
1102.881156
20
652.871725
30
0
40
15
1
FACE 67 OFFSET 40 OUTER L1083.1 INNER L872.6
72
0
11
1102.881156
21
652.871725
31
0
73
0
0
TEXT
8
TEXT
10
1102.881156
20
630.871725
30
0
40
15
1
CHAIN R110/772.5/110 L1083.1 180DEG: FEWEST 2 x board 150 L551.2 ROUGH 566.2 WASTE 50%
72
0
11
1102.881156
21
630.871725
31
0
73
0
0
TEXT
8
TEXT
10
1102.881156
20
608.871725
30
0
40
15
1
  NO ECONOMY ALT WITHIN 5 PIECES -> DEFAULT FEWEST
72
0
11
1102.881156
21
608.871725
31
0
73
0
0
TEXT
8
TEXT
10
1102.881156
20
586.871725
30
0
40
15
1
FINGER 15/16/3.8
72
0
11
1102.881156
21
586.871725
31
0
73
0
0
TEXT
8
TEXT
10
1102.881156
20
564.871725
30
0
40
15
1
ALLOWANCE 10 PER SIDE  LIMITS: OVERALL >= 450 (CLAMP)  SHORTER EDGE >= 400  STOCK MAX 200
72
0
11
1102.881156
21
564.871725
31
0
73
0
0
TEXT
8
TEXT
10
1102.881156
20
542.871725
30
0
40
15
1
CLAMPS (SUGGESTION): UNICLAMP 130 x 130, CLEARANCE 20 FROM THE END CUTS, JAWS 40-98, PIECE THICKNESS 57
72
0
11
1102.881156
21
542.871725
31
0
73
0
0
TEXT
8
TEXT
10
1102.881156
20
520.871725
30
0
40
15
1
CUT CODES: J = JOINT FROM SQUARE  Q = SQUARE (SPRINGING FACE ROUTED WITH THE CONTOUR)  A = APEX FROM SQUARE
72
0
11
1102.881156
21
520.871725
31
0
73
0
0
POLYLINE
8
PIECES
66
1
70
1
10
0
20
0
30
0
0
VERTEX
8
PIECES
10
636.924088
20
915.371725
30
0
0
VERTEX
8
PIECES
10
90
20
915.371725
30
0
0
VERTEX
8
PIECES
10
0
20
1095.371725
30
0
0
VERTEX
8
PIECES
10
636.924088
20
1095.371725
30
0
0
SEQEND
8
PIECES
0
POLYLINE
8
CLAMPS
66
1
70
1
10
0
20
0
30
0
0
VERTEX
8
CLAMPS
10
112.5
20
940.371725
30
0
0
VERTEX
8
CLAMPS
10
242.5
20
940.371725
30
0
0
VERTEX
8
CLAMPS
10
242.5
20
1070.371725
30
0
0
VERTEX
8
CLAMPS
10
112.5
20
1070.371725
30
0
0
SEQEND
8
CLAMPS
0
POLYLINE
8
CLAMPS
66
1
70
1
10
0
20
0
30
0
0
VERTEX
8
CLAMPS
10
486.924088
20
940.371725
30
0
0
VERTEX
8
CLAMPS
10
616.924088
20
940.371725
30
0
0
VERTEX
8
CLAMPS
10
616.924088
20
1070.371725
30
0
0
VERTEX
8
CLAMPS
10
486.924088
20
1070.371725
30
0
0
SEQEND
8
CLAMPS
0
TEXT
8
TEXT
10
318.462044
20
1015.371725
30
0
40
15
1
C5 - FRAME HEAD P1 L636.9 x180
72
1
11
318.462044
21
1015.371725
31
0
73
2
0
TEXT
8
TEXT
10
318.462044
20
925.371725
30
0
40
10
1
OUT 621.9 IN 531.9 CUT J26.6/Q FINGER ONE END
72
1
11
318.462044
21
925.371725
31
0
73
2
0
POLYLINE
8
PIECES
66
1
70
1
10
0
20
0
30
0
0
VERTEX
8
PIECES
10
1383.848175
20
915.371725
30
0
0
VERTEX
8
PIECES
10
836.924088
20
915.371725
30
0
0
VERTEX
8
PIECES
10
836.924088
20
1095.371725
30
0
0
VERTEX
8
PIECES
10
1473.848175
20
1095.371725
30
0
0
SEQEND
8
PIECES
0
POLYLINE
8
CLAMPS
66
1
70
1
10
0
20
0
30
0
0
VERTEX
8
CLAMPS
10
856.924088
20
940.371725
30
0
0
VERTEX
8
CLAMPS
10
986.924088
20
940.371725
30
0
0
VERTEX
8
CLAMPS
10
986.924088
20
1070.371725
30
0
0
VERTEX
8
CLAMPS
10
856.924088
20
1070.371725
30
0
0
SEQEND
8
CLAMPS
0
POLYLINE
8
CLAMPS
66
1
70
1
10
0
20
0
30
0
0
VERTEX
8
CLAMPS
10
1231.348175
20
940.371725
30
0
0
VERTEX
8
CLAMPS
10
1361.348175
20
940.371725
30
0
0
VERTEX
8
CLAMPS
10
1361.348175
20
1070.371725
30
0
0
VERTEX
8
CLAMPS
10
1231.348175
20
1070.371725
30
0
0
SEQEND
8
CLAMPS
0
TEXT
8
TEXT
10
1155.386131
20
1015.371725
30
0
40
15
1
C5 - FRAME HEAD P2 L636.9 x180
72
1
11
1155.386131
21
1015.371725
31
0
73
2
0
TEXT
8
TEXT
10
1155.386131
20
925.371725
30
0
40
10
1
OUT 621.9 IN 531.9 CUT Q/J26.6 FINGER ONE END
72
1
11
1155.386131
21
925.371725
31
0
73
2
0
POLYLINE
8
CONTOUR
66
1
70
1
10
0
20
0
30
0
0
VERTEX
8
CONTOUR
10
1056.265815
20
1363.83699
30
0
42
0.259126
0
VERTEX
8
CONTOUR
10
985.511098
20
1491.195481
30
0
42
0.285714
0
VERTEX
8
CONTOUR
10
127.020532
20
1491.195481
30
0
42
0.259126
0
VERTEX
8
CONTOUR
10
56.265815
20
1363.83699
30
0
0
VERTEX
8
CONTOUR
10
113.265815
20
1363.83699
30
0
42
-0.259126
0
VERTEX
8
CONTOUR
10
157.133739
20
1442.799254
30
0
42
-0.285714
0
VERTEX
8
CONTOUR
10
955.39789
20
1442.799254
30
0
42
-0.259126
0
VERTEX
8
CONTOUR
10
999.265815
20
1363.83699
30
0
0
SEQEND
8
CONTOUR
0
POLYLINE
8
ASSEMBLY
66
1
70
1
10
0
20
0
30
0
0
VERTEX
8
ASSEMBLY
10
1032.033182
20
1295.371725
30
0
0
VERTEX
8
ASSEMBLY
10
556.265815
20
1533.255409
30
0
0
VERTEX
8
ASSEMBLY
10
556.265815
20
1734.501527
30
0
0
VERTEX
8
ASSEMBLY
10
1112.531629
20
1456.36862
30
0
0
SEQEND
8
ASSEMBLY
0
POLYLINE
8
FINGER
66
1
70
0
10
0
20
0
30
0
0
VERTEX
8
FINGER
10
556.265815
20
1556.83699
30
0
0
VERTEX
8
FINGER
10
556.265815
20
1613.83699
30
0
0
SEQEND
8
FINGER
0
POLYLINE
8
ASSEMBLY
66
1
70
1
10
0
20
0
30
0
0
VERTEX
8
ASSEMBLY
10
556.265815
20
1533.255409
30
0
0
VERTEX
8
ASSEMBLY
10
80.498447
20
1295.371725
30
0
0
VERTEX
8
ASSEMBLY
10
0
20
1456.36862
30
0
0
VERTEX
8
ASSEMBLY
10
556.265815
20
1734.501527
30
0
0
SEQEND
8
ASSEMBLY
0
TEXT
8
TEXT
10
1212.531629
20
1716.001527
30
0
40
15
1
C5 - FRAME HEAD
72
0
11
1212.531629
21
1716.001527
31
0
73
0
0
TEXT
8
TEXT
10
1212.531629
20
1694.001527
30
0
40
15
1
THREE-CENTRE W1000 RISE250 H1800 HINGE L
72
0
11
1212.531629
21
1694.001527
31
0
73
0
0
TEXT
8
TEXT
10
1212.531629
20
1672.001527
30
0
40
15
1
FACE 57 OFFSET 0 OUTER L1208.7 INNER L1029.7
72
0
11
1212.531629
21
1672.001527
31
0
73
0
0
TEXT
8
TEXT
10
1212.531629
20
1650.001527
30
0
40
15
1
CHAIN R150/812.5/150 L1208.7 180DEG: FEWEST 2 x board 180 L621.9 ROUGH 636.9 WASTE 62%
72
0
11
1212.531629
21
1650.001527
31
0
73
0
0
TEXT
8
TEXT
10
1212.531629
20
1628.001527
30
0
40
15
1
  NO ECONOMY ALT WITHIN 5 PIECES -> DEFAULT FEWEST
72
0
11
1212.531629
21
1628.001527
31
0
73
0
0
TEXT
8
TEXT
10
1212.531629
20
1606.001527
30
0
40
15
1
FINGER 15/16/3.8
72
0
11
1212.531629
21
1606.001527
31
0
73
0
0
TEXT
8
TEXT
10
1212.531629
20
1584.001527
30
0
40
15
1
ALLOWANCE 10 PER SIDE  LIMITS: OVERALL >= 450 (CLAMP)  SHORTER EDGE >= 400  STOCK MAX 200
72
0
11
1212.531629
21
1584.001527
31
0
73
0
0
TEXT
8
TEXT
10
1212.531629
20
1562.001527
30
0
40
15
1
CLAMPS (SUGGESTION): UNICLAMP 130 x 130, CLEARANCE 20 FROM THE END CUTS, JAWS 40-98, PIECE THICKNESS 93
72
0
11
1212.531629
21
1562.001527
31
0
73
0
0
TEXT
8
TEXT
10
1212.531629
20
1540.001527
30
0
40
15
1
CUT CODES: J = JOINT FROM SQUARE  Q = SQUARE (SPRINGING FACE ROUTED WITH THE CONTOUR)  A = APEX FROM SQUARE
72
0
11
1212.531629
21
1540.001527
31
0
73
0
0
POLYLINE
8
FIT
66
1
70
1
10
0
20
0
30
0
0
VERTEX
8
FIT
10
1000
20
1934.501527
30
0
42
0.259126
0
VERTEX
8
FIT
10
929.245283
20
2061.860018
30
0
42
0.285714
0
VERTEX
8
FIT
10
70.754717
20
2061.860018
30
0
42
0.259126
0
VERTEX
8
FIT
10
0
20
1934.501527
30
0
0
VERTEX
8
FIT
10
57
20
1934.501527
30
0
42
-0.259126
0
VERTEX
8
FIT
10
100.867925
20
2013.463791
30
0
42
-0.285714
0
VERTEX
8
FIT
10
899.132075
20
2013.463791
30
0
42
-0.259126
0
VERTEX
8
FIT
10
943
20
1934.501527
30
0
0
SEQEND
8
FIT
0
POLYLINE
8
FIT
66
1
70
1
10
0
20
0
30
0
0
VERTEX
8
FIT
10
960
20
1934.501527
30
0
42
0.259126
0
VERTEX
8
FIT
10
908.113208
20
2027.897754
30
0
42
0.285714
0
VERTEX
8
FIT
10
91.886792
20
2027.897754
30
0
42
0.259126
0
VERTEX
8
FIT
10
40
20
1934.501527
30
0
0
VERTEX
8
FIT
10
107
20
1934.501527
30
0
42
-0.259126
0
VERTEX
8
FIT
10
127.283019
20
1971.010961
30
0
42
-0.285714
0
VERTEX
8
FIT
10
872.716981
20
1971.010961
30
0
42
-0.259126
0
VERTEX
8
FIT
10
893
20
1934.501527
30
0
0
SEQEND
8
FIT
0
POLYLINE
8
FIT
66
1
70
1
10
0
20
0
30
0
0
VERTEX
8
FIT
10
905.5
20
1934.501527
30
0
42
0.259126
0
VERTEX
8
FIT
10
879.320755
20
1981.624169
30
0
42
0.285714
0
VERTEX
8
FIT
10
120.679245
20
1981.624169
30
0
42
0.259126
0
VERTEX
8
FIT
10
94.5
20
1934.501527
30
0
0
SEQEND
8
FIT
0
POLYLINE
8
FIT
66
1
70
0
10
0
20
0
30
0
0
VERTEX
8
FIT
10
964
20
1934.501527
30
0
42
0.043888
0
VERTEX
8
FIT
10
962.250109
20
1954.399089
30
0
0
SEQEND
8
FIT
0
POLYLINE
8
FIT
66
1
70
0
10
0
20
0
30
0
0
VERTEX
8
FIT
10
960.075359
20
1964.156464
30
0
42
0.043888
0
VERTEX
8
FIT
10
953.209738
20
1982.913818
30
0
0
SEQEND
8
FIT
0
POLYLINE
8
FIT
66
1
70
0
10
0
20
0
30
0
0
VERTEX
8
FIT
10
948.571662
20
1991.769559
30
0
42
0.043888
0
VERTEX
8
FIT
10
937.063032
20
2008.095199
30
0
0
SEQEND
8
FIT
0
POLYLINE
8
FIT
66
1
70
0
10
0
20
0
30
0
0
VERTEX
8
FIT
10
930.280976
20
2015.439558
30
0
42
0.043888
0
VERTEX
8
FIT
10
914.921744
20
2028.209409
30
0
0
SEQEND
8
FIT
0
POLYLINE
8
FIT
66
1
70
0
10
0
20
0
30
0
0
VERTEX
8
FIT
10
910.226415
20
2031.29398
30
0
42
0.006439
0
VERTEX
8
FIT
10
893.111095
20
2041.640173
30
0
0
SEQEND
8
FIT
0
POLYLINE
8
FIT
66
1
70
0
10
0
20
0
30
0
0
VERTEX
8
FIT
10
884.454928
20
2046.647107
30
0
42
0.006439
0
VERTEX
8
FIT
10
866.952756
20
2056.324496
30
0
0
SEQEND
8
FIT
0
POLYLINE
8
FIT
66
1
70
0
10
0
20
0
30
0
0
VERTEX
8
FIT
10
858.109653
20
2060.993346
30
0
42
0.006439
0
VERTEX
8
FIT
10
840.24675
20
2069.987486
30
0
0
SEQEND
8
FIT
0
POLYLINE
8
FIT
66
1
70
0
10
0
20
0
30
0
0
VERTEX
8
FIT
10
831.229911
20
2074.311285
30
0
42
0.006439
0
VERTEX
8
FIT
10
813.032936
20
2082.608754
30
0
0
SEQEND
8
FIT
0
POLYLINE
8
FIT
66
1
70
0
10
0
20
0
30
0
0
VERTEX
8
FIT
10
803.855818
20
2086.581048
30
0
42
0.006439
0
VERTEX
8
FIT
10
785.35193
20
2094.169462
30
0
0
SEQEND
8
FIT
0
POLYLINE
8
FIT
66
1
70
0
10
0
20
0
30
0
0
VERTEX
8
FIT
10
776.028229
20
2097.784323
30
0
42
0.006439
0
VERTEX
8
FIT
10
757.245045
20
2104.652356
30
0
0
SEQEND
8
FIT
0
POLYLINE
8
FIT
66
1
70
0
10
0
20
0
30
0
0
VERTEX
8
FIT
10
747.788677
20
2107.904389
30
0
42
0.006439
0
VERTEX
8
FIT
10
728.75423
20
2114.041791
30
0
0
SEQEND
8
FIT
0
POLYLINE
8
FIT
66
1
70
0
10
0
20
0
30
0
0
VERTEX
8
FIT
10
719.179307
20
2116.926142
30
0
42
0.006439
0
VERTEX
8
FIT
10
699.922005
20
2122.323752
30
0
0
SEQEND
8
FIT
0
POLYLINE
8
FIT
66
1
70
0
10
0
20
0
30
0
0
VERTEX
8
FIT
10
690.242819
20
2124.836117
30
0
42
0.006439
0
VERTEX
8
FIT
10
670.791403
20
2129.485881
30
0
0
SEQEND
8
FIT
0
POLYLINE
8
FIT
66
1
70
0
10
0
20
0
30
0
0
VERTEX
8
FIT
10
661.022399
20
2131.62251
30
0
42
0.006439
0
VERTEX
8
FIT
10
641.4059
20
2135.517487
30
0
0
SEQEND
8
FIT
0
POLYLINE
8
FIT
66
1
70
0
10
0
20
0
30
0
0
VERTEX
8
FIT
10
631.561658
20
2137.275191
30
0
42
0.006439
0
VERTEX
8
FIT
10
611.809353
20
2140.409569
30
0
0
SEQEND
8
FIT
0
POLYLINE
8
FIT
66
1
70
0
10
0
20
0
30
0
0
VERTEX
8
FIT
10
601.904566
20
2141.785724
30
0
42
0.006439
0
VERTEX
8
FIT
10
582.045934
20
2144.154825
30
0
0
SEQEND
8
FIT
0
POLYLINE
8
FIT
66
1
70
0
10
0
20
0
30
0
0
VERTEX
8
FIT
10
572.095384
20
2145.147377
30
0
42
0.006439
0
VERTEX
8
FIT
10
552.160064
20
2146.747665
30
0
0
SEQEND
8
FIT
0
POLYLINE
8
FIT
66
1
70
0
10
0
20
0
30
0
0
VERTEX
8
FIT
10
542.178601
20
2147.355134
30
0
42
0.006439
0
VERTEX
8
FIT
10
522.196347
20
2148.18422
30
0
0
SEQEND
8
FIT
0
POLYLINE
8
FIT
66
1
70
0
10
0
20
0
30
0
0
VERTEX
8
FIT
10
512.198869
20
2148.405699
30
0
42
0.006439
0
VERTEX
8
FIT
10
492.199502
20
2148.462345
30
0
0
SEQEND
8
FIT
0
POLYLINE
8
FIT
66
1
70
0
10
0
20
0
30
0
0
VERTEX
8
FIT
10
482.200929
20
2148.297504
30
0
42
0.006439
0
VERTEX
8
FIT
10
462.214299
20
2147.581627
30
0
0
SEQEND
8
FIT
0
POLYLINE
8
FIT
66
1
70
0
10
0
20
0
30
0
0
VERTEX
8
FIT
10
452.229555
20
2147.03071
30
0
42
0.006439
0
VERTEX
8
FIT
10
432.28549
20
2145.543378
30
0
0
SEQEND
8
FIT
0
POLYLINE
8
FIT
66
1
70
0
10
0
20
0
30
0
0
VERTEX
8
FIT
10
422.329476
20
2144.607209
30
0
42
0.006439
0
VERTEX
8
FIT
10
402.457743
20
2142.350642
30
0
0
SEQEND
8
FIT
0
POLYLINE
8
FIT
66
1
70
0
10
0
20
0
30
0
0
VERTEX
8
FIT
10
392.545319
20
2141.030617
30
0
42
0.006439
0
VERTEX
8
FIT
10
372.775575
20
2138.008182
30
0
0
SEQEND
8
FIT
0
POLYLINE
8
FIT
66
1
70
0
10
0
20
0
30
0
0
VERTEX
8
FIT
10
362.921534
20
2136.306273
30
0
42
0.006439
0
VERTEX
8
FIT
10
343.283285
20
2132.522481
30
0
0
SEQEND
8
FIT
0
POLYLINE
8
FIT
66
1
70
0
10
0
20
0
30
0
0
VERTEX
8
FIT
10
333.502335
20
2130.441226
30
0
42
0.006439
0
VERTEX
8
FIT
10
314.024891
20
2125.901725
30
0
0
SEQEND
8
FIT
0
POLYLINE
8
FIT
66
1
70
0
10
0
20
0
30
0
0
VERTEX
8
FIT
10
304.331628
20
2123.444232
30
0
42
0.006439
0
VERTEX
8
FIT
10
285.044059
20
2118.155796
30
0
0
SEQEND
8
FIT
0
POLYLINE
8
FIT
66
1
70
0
10
0
20
0
30
0
0
VERTEX
8
FIT
10
275.452951
20
2115.325731
30
0
42
0.006439
0
VERTEX
8
FIT
10
256.384042
20
2109.296254
30
0
0
SEQEND
8
FIT
0
POLYLINE
8
FIT
66
1
70
0
10
0
20
0
30
0
0
VERTEX
8
FIT
10
246.909403
20
2106.097842
30
0
42
0.006439
0
VERTEX
8
FIT
10
228.087614
20
2099.336322
30
0
0
SEQEND
8
FIT
0
POLYLINE
8
FIT
66
1
70
0
10
0
20
0
30
0
0
VERTEX
8
FIT
10
218.743585
20
2095.774336
30
0
42
0.006439
0
VERTEX
8
FIT
10
200.197008
20
2088.290865
30
0
0
SEQEND
8
FIT
0
POLYLINE
8
FIT
66
1
70
0
10
0
20
0
30
0
0
VERTEX
8
FIT
10
190.997534
20
2084.370621
30
0
42
0.006439
0
VERTEX
8
FIT
10
172.753848
20
2076.176368
30
0
0
SEQEND
8
FIT
0
POLYLINE
8
FIT
66
1
70
0
10
0
20
0
30
0
0
VERTEX
8
FIT
10
163.71266
20
2071.903717
30
0
42
0.006439
0
VERTEX
8
FIT
10
145.799093
20
2063.01091
30
0
0
SEQEND
8
FIT
0
POLYLINE
8
FIT
66
1
70
0
10
0
20
0
30
0
0
VERTEX
8
FIT
10
136.929685
20
2058.39223
30
0
42
0.006439
0
VERTEX
8
FIT
10
119.372973
20
2048.814143
30
0
0
SEQEND
8
FIT
0
POLYLINE
8
FIT
66
1
70
0
10
0
20
0
30
0
0
VERTEX
8
FIT
10
110.688581
20
2043.856325
30
0
42
0.006439
0
VERTEX
8
FIT
10
93.514927
20
2033.607252
30
0
0
SEQEND
8
FIT
0
POLYLINE
8
FIT
66
1
70
0
10
0
20
0
30
0
0
VERTEX
8
FIT
10
89.773585
20
2031.29398
30
0
42
0.043888
0
VERTEX
8
FIT
10
73.803899
20
2019.296304
30
0
0
SEQEND
8
FIT
0
POLYLINE
8
FIT
66
1
70
0
10
0
20
0
30
0
0
VERTEX
8
FIT
10
66.66826
20
2012.294979
30
0
42
0.043888
0
VERTEX
8
FIT
10
54.369325
20
1996.556132
30
0
0
SEQEND
8
FIT
0
POLYLINE
8
FIT
66
1
70
0
10
0
20
0
30
0
0
VERTEX
8
FIT
10
49.300605
20
1987.939639
30
0
42
0.043888
0
VERTEX
8
FIT
10
41.519243
20
1969.543294
30
0
0
SEQEND
8
FIT
0
POLYLINE
8
FIT
66
1
70
0
10
0
20
0
30
0
0
VERTEX
8
FIT
10
38.866439
20
1959.904905
30
0
42
0.043888
0
VERTEX
8
FIT
10
36.138424
20
1940.117712
30
0
0
SEQEND
8
FIT
0
TEXT
8
TEXT
10
1100
20
2129.962345
30
0
40
15
1
C5 - FIT (ASSEMBLY, NOT A TOOLPATH)
72
0
11
1100
21
2129.962345
31
0
73
0
0
TEXT
8
TEXT
10
1100
20
2107.962345
30
0
40
15
1
GAP 4 LAP 17 (REBATE)
72
0
11
1100
21
2107.962345
31
0
73
0
0
TEXT
8
TEXT
10
1100
20
2085.962345
30
0
40
15
1
FRAME R150/812.5/150 / 93/755.5/93  REBATE WALL R114/776.5/114 (LAND 36, DASHED)
72
0
11
1100
21
2085.962345
31
0
73
0
0
TEXT
8
TEXT
10
1100
20
2063.962345
30
0
40
15
1
LEAF R110/772.5/110 / 43/705.5/43  GLASS R55.5/718/55.5
72
0
11
1100
21
2063.962345
31
0
73
0
0
ENDSEC
0
EOF
