0
SECTION
2
HEADER
9
$ACADVER
1
AC1009
0
ENDSEC
0
SECTION
2
TABLES
0
TABLE
2
LAYER
70
7
0
LAYER
2
0
70
0
62
7
6
CONTINUOUS
0
LAYER
2
FIT
70
0
62
4
6
CONTINUOUS
0
LAYER
2
CONTOUR
70
0
62
7
6
CONTINUOUS
0
LAYER
2
ASSEMBLY
70
0
62
8
6
CONTINUOUS
0
LAYER
2
PIECES
70
0
62
5
6
CONTINUOUS
0
LAYER
2
FINGER
70
0
62
1
6
CONTINUOUS
0
LAYER
2
TEXT
70
0
62
94
6
CONTINUOUS
0
ENDTAB
0
ENDSEC
0
SECTION
2
ENTITIES
0
POLYLINE
8
PIECES
66
1
70
1
10
0
20
0
30
0
0
VERTEX
8
PIECES
10
292.740638
20
0
30
0
0
VERTEX
8
PIECES
10
28.134665
20
0
30
0
0
VERTEX
8
PIECES
10
0
20
105
30
0
0
VERTEX
8
PIECES
10
320.875304
20
105
30
0
0
SEQEND
8
PIECES
0
TEXT
8
TEXT
10
160.437652
20
62.5
30
0
40
15
1
T - LEAF TOP P1 L320.9 x105
72
1
11
160.437652
21
62.5
31
0
73
2
0
TEXT
8
TEXT
10
160.437652
20
10
30
0
40
10
1
OUT 305.9 IN 249.6 CUT J15/S75 FINGER ONE END
72
1
11
160.437652
21
10
31
0
73
2
0
POLYLINE
8
PIECES
66
1
70
1
10
0
20
0
30
0
0
VERTEX
8
PIECES
10
828.615942
20
0
30
0
0
VERTEX
8
PIECES
10
549.009969
20
0
30
0
0
VERTEX
8
PIECES
10
520.875304
20
105
30
0
0
VERTEX
8
PIECES
10
856.750607
20
105
30
0
0
SEQEND
8
PIECES
0
TEXT
8
TEXT
10
688.812956
20
62.5
30
0
40
15
1
T - LEAF TOP P2 L335.9 x105
72
1
11
688.812956
21
62.5
31
0
73
2
0
TEXT
8
TEXT
10
688.812956
20
10
30
0
40
10
1
OUT 305.9 IN 249.6 CUT J15/J15 FINGER BOTH ENDS
72
1
11
688.812956
21
10
31
0
73
2
0
POLYLINE
8
PIECES
66
1
70
1
10
0
20
0
30
0
0
VERTEX
8
PIECES
10
1364.491246
20
0
30
0
0
VERTEX
8
PIECES
10
1084.885273
20
0
30
0
0
VERTEX
8
PIECES
10
1056.750607
20
105
30
0
0
VERTEX
8
PIECES
10
1392.625911
20
105
30
0
0
SEQEND
8
PIECES
0
TEXT
8
TEXT
10
1224.688259
20
62.5
30
0
40
15
1
T - LEAF TOP P3 L335.9 x105
72
1
11
1224.688259
21
62.5
31
0
73
2
0
TEXT
8
TEXT
10
1224.688259
20
10
30
0
40
10
1
OUT 305.9 IN 249.6 CUT J15/J15 FINGER BOTH ENDS
72
1
11
1224.688259
21
10
31
0
73
2
0
POLYLINE
8
PIECES
66
1
70
1
10
0
20
0
30
0
0
VERTEX
8
PIECES
10
1900.366549
20
0
30
0
0
VERTEX
8
PIECES
10
1620.760576
20
0
30
0
0
VERTEX
8
PIECES
10
1592.625911
20
105
30
0
0
VERTEX
8
PIECES
10
1928.501215
20
105
30
0
0
SEQEND
8
PIECES
0
TEXT
8
TEXT
10
1760.563563
20
62.5
30
0
40
15
1
T - LEAF TOP P4 L335.9 x105
72
1
11
1760.563563
21
62.5
31
0
73
2
0
TEXT
8
TEXT
10
1760.563563
20
10
30
0
40
10
1
OUT 305.9 IN 249.6 CUT J15/J15 FINGER BOTH ENDS
72
1
11
1760.563563
21
10
31
0
73
2
0
POLYLINE
8
PIECES
66
1
70
1
10
0
20
0
30
0
0
VERTEX
8
PIECES
10
2436.241853
20
0
30
0
0
VERTEX
8
PIECES
10
2156.63588
20
0
30
0
0
VERTEX
8
PIECES
10
2128.501215
20
105
30
0
0
VERTEX
8
PIECES
10
2464.376518
20
105
30
0
0
SEQEND
8
PIECES
0
TEXT
8
TEXT
10
2296.438867
20
62.5
30
0
40
15
1
T - LEAF TOP P5 L335.9 x105
72
1
11
2296.438867
21
62.5
31
0
73
2
0
TEXT
8
TEXT
10
2296.438867
20
10
30
0
40
10
1
OUT 305.9 IN 249.6 CUT J15/J15 FINGER BOTH ENDS
72
1
11
2296.438867
21
10
31
0
73
2
0
POLYLINE
8
PIECES
66
1
70
1
10
0
20
0
30
0
0
VERTEX
8
PIECES
10
2957.117157
20
0
30
0
0
VERTEX
8
PIECES
10
2692.511184
20
0
30
0
0
VERTEX
8
PIECES
10
2664.376518
20
105
30
0
0
VERTEX
8
PIECES
10
2985.251822
20
105
30
0
0
SEQEND
8
PIECES
0
TEXT
8
TEXT
10
2824.81417
20
62.5
30
0
40
15
1
T - LEAF TOP P6 L320.9 x105
72
1
11
2824.81417
21
62.5
31
0
73
2
0
TEXT
8
TEXT
10
2824.81417
20
10
30
0
40
10
1
OUT 305.9 IN 249.6 CUT S75/J15 FINGER ONE END
72
1
11
2824.81417
21
10
31
0
73
2
0
POLYLINE
8
CONTOUR
66
1
70
1
10
0
20
0
30
0
0
VERTEX
8
CONTOUR
10
1150.905711
20
305
30
0
42
1
0
VERTEX
8
CONTOUR
10
30.905711
20
305
30
0
0
VERTEX
8
CONTOUR
10
97.905711
20
305
30
0
42
-1
0
VERTEX
8
CONTOUR
10
1083.905711
20
305
30
0
0
SEQEND
8
CONTOUR
0
POLYLINE
8
ASSEMBLY
66
1
70
1
10
0
20
0
30
0
0
VERTEX
8
ASSEMBLY
10
1073.107423
20
305
30
0
0
VERTEX
8
ASSEMBLY
10
1008.504643
20
546.100856
30
0
0
VERTEX
8
ASSEMBLY
10
1102.645068
20
600.452855
30
0
0
VERTEX
8
ASSEMBLY
10
1181.811422
20
305
30
0
0
SEQEND
8
ASSEMBLY
0
POLYLINE
8
FINGER
66
1
70
0
10
0
20
0
30
0
0
VERTEX
8
FINGER
10
1017.856235
20
551.5
30
0
0
VERTEX
8
FINGER
10
1075.879937
20
585
30
0
0
SEQEND
8
FINGER
0
POLYLINE
8
ASSEMBLY
66
1
70
1
10
0
20
0
30
0
0
VERTEX
8
ASSEMBLY
10
1008.504643
20
546.100856
30
0
0
VERTEX
8
ASSEMBLY
10
832.006567
20
722.598932
30
0
0
VERTEX
8
ASSEMBLY
10
886.358566
20
816.739357
30
0
0
VERTEX
8
ASSEMBLY
10
1102.645068
20
600.452855
30
0
0
SEQEND
8
ASSEMBLY
0
POLYLINE
8
FINGER
66
1
70
0
10
0
20
0
30
0
0
VERTEX
8
FINGER
10
837.405711
20
731.950524
30
0
0
VERTEX
8
FINGER
10
870.905711
20
789.974226
30
0
0
SEQEND
8
FINGER
0
POLYLINE
8
ASSEMBLY
66
1
70
1
10
0
20
0
30
0
0
VERTEX
8
ASSEMBLY
10
832.006567
20
722.598932
30
0
0
VERTEX
8
ASSEMBLY
10
590.905711
20
787.201712
30
0
0
VERTEX
8
ASSEMBLY
10
590.905711
20
895.905711
30
0
0
VERTEX
8
ASSEMBLY
10
886.358566
20
816.739357
30
0
0
SEQEND
8
ASSEMBLY
0
POLYLINE
8
FINGER
66
1
70
0
10
0
20
0
30
0
0
VERTEX
8
FINGER
10
590.905711
20
798
30
0
0
VERTEX
8
FINGER
10
590.905711
20
865
30
0
0
SEQEND
8
FINGER
0
POLYLINE
8
ASSEMBLY
66
1
70
1
10
0
20
0
30
0
0
VERTEX
8
ASSEMBLY
10
590.905711
20
787.201712
30
0
0
VERTEX
8
ASSEMBLY
10
349.804855
20
722.598932
30
0
0
VERTEX
8
ASSEMBLY
10
295.452855
20
816.739357
30
0
0
VERTEX
8
ASSEMBLY
10
590.905711
20
895.905711
30
0
0
SEQEND
8
ASSEMBLY
0
POLYLINE
8
FINGER
66
1
70
0
10
0
20
0
30
0
0
VERTEX
8
FINGER
10
344.405711
20
731.950524
30
0
0
VERTEX
8
FINGER
10
310.905711
20
789.974226
30
0
0
SEQEND
8
FINGER
0
POLYLINE
8
ASSEMBLY
66
1
70
1
10
0
20
0
30
0
0
VERTEX
8
ASSEMBLY
10
349.804855
20
722.598932
30
0
0
VERTEX
8
ASSEMBLY
10
173.306779
20
546.100856
30
0
0
VERTEX
8
ASSEMBLY
10
79.166354
20
600.452855
30
0
0
VERTEX
8
ASSEMBLY
10
295.452855
20
816.739357
30
0
0
SEQEND
8
ASSEMBLY
0
POLYLINE
8
FINGER
66
1
70
0
10
0
20
0
30
0
0
VERTEX
8
FINGER
10
163.955187
20
551.5
30
0
0
VERTEX
8
FINGER
10
105.931485
20
585
30
0
0
SEQEND
8
FINGER
0
POLYLINE
8
ASSEMBLY
66
1
70
1
10
0
20
0
30
0
0
VERTEX
8
ASSEMBLY
10
173.306779
20
546.100856
30
0
0
VERTEX
8
ASSEMBLY
10
108.703999
20
305
30
0
0
VERTEX
8
ASSEMBLY
10
0
20
305
30
0
0
VERTEX
8
ASSEMBLY
10
79.166354
20
600.452855
30
0
0
SEQEND
8
ASSEMBLY
0
TEXT
8
TEXT
10
1281.811422
20
877.405711
30
0
40
15
1
T - LEAF TOP
72
0
11
1281.811422
21
877.405711
31
0
73
0
0
TEXT
8
TEXT
10
1281.811422
20
855.405711
30
0
40
15
1
SEMI-CIRCLE W1200 RISE600 H2000 HINGE R
72
0
11
1281.811422
21
855.405711
31
0
73
0
0
TEXT
8
TEXT
10
1281.811422
20
833.405711
30
0
40
15
1
FACE 67 OFFSET 40 OUTER L1759.3 INNER L1548.8
72
0
11
1281.811422
21
833.405711
31
0
73
0
0
TEXT
8
TEXT
10
1281.811422
20
811.405711
30
0
40
15
1
ARC 1 R560 L1759.3 180DEG: 6 x board 105 L305.9 ROUGH 335.9 (ALT 5 x board 180)
72
0
11
1281.811422
21
811.405711
31
0
73
0
0
TEXT
8
TEXT
10
1281.811422
20
789.405711
30
0
40
15
1
FINGER 15/16/3.8
72
0
11
1281.811422
21
789.405711
31
0
73
0
0
TEXT
8
TEXT
10
1281.811422
20
767.405711
30
0
40
15
1
ALLOWANCE 10 PER SIDE  MAX SEGMENT 36 DEG  RULE NARROWEST
72
0
11
1281.811422
21
767.405711
31
0
73
0
0
TEXT
8
TEXT
10
1281.811422
20
745.405711
30
0
40
15
1
CUT CODES: J = JOINT FROM SQUARE  S = ARCH-START, AXIS TO HORIZONTAL  A = APEX FROM SQUARE
72
0
11
1281.811422
21
745.405711
31
0
73
0
0
POLYLINE
8
PIECES
66
1
70
1
10
0
20
0
30
0
0
VERTEX
8
PIECES
10
272.832177
20
1095.905711
30
0
0
VERTEX
8
PIECES
10
21.68313
20
1095.905711
30
0
0
VERTEX
8
PIECES
10
0
20
1190.905711
30
0
0
VERTEX
8
PIECES
10
294.515307
20
1190.905711
30
0
0
SEQEND
8
PIECES
0
TEXT
8
TEXT
10
147.257654
20
1153.405711
30
0
40
15
1
T - FRAME HEAD P1 L294.5 x95
72
1
11
147.257654
21
1153.405711
31
0
73
2
0
TEXT
8
TEXT
10
147.257654
20
1105.905711
30
0
40
10
1
OUT 279.5 IN 236.1 CUT J12.9/S77.1 FINGER ONE END
72
1
11
147.257654
21
1105.905711
31
0
73
2
0
POLYLINE
8
PIECES
66
1
70
1
10
0
20
0
30
0
0
VERTEX
8
PIECES
10
782.347484
20
1095.905711
30
0
0
VERTEX
8
PIECES
10
516.198437
20
1095.905711
30
0
0
VERTEX
8
PIECES
10
494.515307
20
1190.905711
30
0
0
VERTEX
8
PIECES
10
804.030614
20
1190.905711
30
0
0
SEQEND
8
PIECES
0
TEXT
8
TEXT
10
649.272961
20
1153.405711
30
0
40
15
1
T - FRAME HEAD P2 L309.5 x95
72
1
11
649.272961
21
1153.405711
31
0
73
2
0
TEXT
8
TEXT
10
649.272961
20
1105.905711
30
0
40
10
1
OUT 279.5 IN 236.1 CUT J12.9/J12.9 FINGER BOTH ENDS
72
1
11
649.272961
21
1105.905711
31
0
73
2
0
POLYLINE
8
PIECES
66
1
70
1
10
0
20
0
30
0
0
VERTEX
8
PIECES
10
1291.862792
20
1095.905711
30
0
0
VERTEX
8
PIECES
10
1025.713745
20
1095.905711
30
0
0
VERTEX
8
PIECES
10
1004.030614
20
1190.905711
30
0
0
VERTEX
8
PIECES
10
1313.545922
20
1190.905711
30
0
0
SEQEND
8
PIECES
0
TEXT
8
TEXT
10
1158.788268
20
1153.405711
30
0
40
15
1
T - FRAME HEAD P3 L309.5 x95
72
1
11
1158.788268
21
1153.405711
31
0
73
2
0
TEXT
8
TEXT
10
1158.788268
20
1105.905711
30
0
40
10
1
OUT 279.5 IN 236.1 CUT J12.9/J12.9 FINGER BOTH ENDS
72
1
11
1158.788268
21
1105.905711
31
0
73
2
0
POLYLINE
8
PIECES
66
1
70
1
10
0
20
0
30
0
0
VERTEX
8
PIECES
10
1801.378099
20
1095.905711
30
0
0
VERTEX
8
PIECES
10
1535.229052
20
1095.905711
30
0
0
VERTEX
8
PIECES
10
1513.545922
20
1190.905711
30
0
0
VERTEX
8
PIECES
10
1823.061229
20
1190.905711
30
0
0
SEQEND
8
PIECES
0
TEXT
8
TEXT
10
1668.303575
20
1153.405711
30
0
40
15
1
T - FRAME HEAD P4 L309.5 x95
72
1
11
1668.303575
21
1153.405711
31
0
73
2
0
TEXT
8
TEXT
10
1668.303575
20
1105.905711
30
0
40
10
1
OUT 279.5 IN 236.1 CUT J12.9/J12.9 FINGER BOTH ENDS
72
1
11
1668.303575
21
1105.905711
31
0
73
2
0
POLYLINE
8
PIECES
66
1
70
1
10
0
20
0
30
0
0
VERTEX
8
PIECES
10
2310.893406
20
1095.905711
30
0
0
VERTEX
8
PIECES
10
2044.744359
20
1095.905711
30
0
0
VERTEX
8
PIECES
10
2023.061229
20
1190.905711
30
0
0
VERTEX
8
PIECES
10
2332.576536
20
1190.905711
30
0
0
SEQEND
8
PIECES
0
TEXT
8
TEXT
10
2177.818883
20
1153.405711
30
0
40
15
1
T - FRAME HEAD P5 L309.5 x95
72
1
11
2177.818883
21
1153.405711
31
0
73
2
0
TEXT
8
TEXT
10
2177.818883
20
1105.905711
30
0
40
10
1
OUT 279.5 IN 236.1 CUT J12.9/J12.9 FINGER BOTH ENDS
72
1
11
2177.818883
21
1105.905711
31
0
73
2
0
POLYLINE
8
PIECES
66
1
70
1
10
0
20
0
30
0
0
VERTEX
8
PIECES
10
2820.408713
20
1095.905711
30
0
0
VERTEX
8
PIECES
10
2554.259666
20
1095.905711
30
0
0
VERTEX
8
PIECES
10
2532.576536
20
1190.905711
30
0
0
VERTEX
8
PIECES
10
2842.091843
20
1190.905711
30
0
0
SEQEND
8
PIECES
0
TEXT
8
TEXT
10
2687.33419
20
1153.405711
30
0
40
15
1
T - FRAME HEAD P6 L309.5 x95
72
1
11
2687.33419
21
1153.405711
31
0
73
2
0
TEXT
8
TEXT
10
2687.33419
20
1105.905711
30
0
40
10
1
OUT 279.5 IN 236.1 CUT J12.9/J12.9 FINGER BOTH ENDS
72
1
11
2687.33419
21
1105.905711
31
0
73
2
0
POLYLINE
8
PIECES
66
1
70
1
10
0
20
0
30
0
0
VERTEX
8
PIECES
10
3314.924021
20
1095.905711
30
0
0
VERTEX
8
PIECES
10
3063.774974
20
1095.905711
30
0
0
VERTEX
8
PIECES
10
3042.091843
20
1190.905711
30
0
0
VERTEX
8
PIECES
10
3336.607151
20
1190.905711
30
0
0
SEQEND
8
PIECES
0
TEXT
8
TEXT
10
3189.349497
20
1153.405711
30
0
40
15
1
T - FRAME HEAD P7 L294.5 x95
72
1
11
3189.349497
21
1153.405711
31
0
73
2
0
TEXT
8
TEXT
10
3189.349497
20
1105.905711
30
0
40
10
1
OUT 279.5 IN 236.1 CUT S77.1/J12.9 FINGER ONE END
72
1
11
3189.349497
21
1105.905711
31
0
73
2
0
POLYLINE
8
CONTOUR
66
1
70
1
10
0
20
0
30
0
0
VERTEX
8
CONTOUR
10
1228.065194
20
1390.905711
30
0
42
1
0
VERTEX
8
CONTOUR
10
28.065194
20
1390.905711
30
0
0
VERTEX
8
CONTOUR
10
85.065194
20
1390.905711
30
0
42
-1
0
VERTEX
8
CONTOUR
10
1171.065194
20
1390.905711
30
0
0
SEQEND
8
CONTOUR
0
POLYLINE
8
ASSEMBLY
66
1
70
1
10
0
20
0
30
0
0
VERTEX
8
ASSEMBLY
10
1158.687287
20
1390.905711
30
0
0
VERTEX
8
ASSEMBLY
10
1106.13918
20
1621.134008
30
0
0
VERTEX
8
ASSEMBLY
10
1193.932381
20
1663.412986
30
0
0
VERTEX
8
ASSEMBLY
10
1256.130389
20
1390.905711
30
0
0
SEQEND
8
ASSEMBLY
0
POLYLINE
8
FINGER
66
1
70
0
10
0
20
0
30
0
0
VERTEX
8
FINGER
10
1117.29129
20
1626.504581
30
0
0
VERTEX
8
FINGER
10
1168.646515
20
1651.235954
30
0
0
SEQEND
8
FINGER
0
POLYLINE
8
ASSEMBLY
66
1
70
1
10
0
20
0
30
0
0
VERTEX
8
ASSEMBLY
10
1106.13918
20
1621.134008
30
0
0
VERTEX
8
ASSEMBLY
10
958.902657
20
1805.762768
30
0
0
VERTEX
8
ASSEMBLY
10
1019.657438
20
1881.946853
30
0
0
VERTEX
8
ASSEMBLY
10
1193.932381
20
1663.412986
30
0
0
SEQEND
8
ASSEMBLY
0
POLYLINE
8
FINGER
66
1
70
0
10
0
20
0
30
0
0
VERTEX
8
FINGER
10
966.620157
20
1815.440206
30
0
0
VERTEX
8
FINGER
10
1002.159075
20
1860.0046
30
0
0
SEQEND
8
FINGER
0
POLYLINE
8
ASSEMBLY
66
1
70
1
10
0
20
0
30
0
0
VERTEX
8
ASSEMBLY
10
958.902657
20
1805.762768
30
0
0
VERTEX
8
ASSEMBLY
10
746.139718
20
1908.223999
30
0
0
VERTEX
8
ASSEMBLY
10
767.822848
20
2003.223999
30
0
0
VERTEX
8
ASSEMBLY
10
1019.657438
20
1881.946853
30
0
0
SEQEND
8
ASSEMBLY
0
POLYLINE
8
FINGER
66
1
70
0
10
0
20
0
30
0
0
VERTEX
8
FINGER
10
748.894061
20
1920.291567
30
0
0
VERTEX
8
FINGER
10
761.577755
20
1975.862458
30
0
0
SEQEND
8
FINGER
0
POLYLINE
8
ASSEMBLY
66
1
70
1
10
0
20
0
30
0
0
VERTEX
8
ASSEMBLY
10
746.139718
20
1908.223999
30
0
0
VERTEX
8
ASSEMBLY
10
509.990671
20
1908.223999
30
0
0
VERTEX
8
ASSEMBLY
10
488.307541
20
2003.223999
30
0
0
VERTEX
8
ASSEMBLY
10
767.822848
20
2003.223999
30
0
0
SEQEND
8
ASSEMBLY
0
POLYLINE
8
FINGER
66
1
70
0
10
0
20
0
30
0
0
VERTEX
8
FINGER
10
507.236327
20
1920.291567
30
0
0
VERTEX
8
FINGER
10
494.552634
20
1975.862458
30
0
0
SEQEND
8
FINGER
0
POLYLINE
8
ASSEMBLY
66
1
70
1
10
0
20
0
30
0
0
VERTEX
8
ASSEMBLY
10
509.990671
20
1908.223999
30
0
0
VERTEX
8
ASSEMBLY
10
297.227731
20
1805.762768
30
0
0
VERTEX
8
ASSEMBLY
10
236.472951
20
1881.946853
30
0
0
VERTEX
8
ASSEMBLY
10
488.307541
20
2003.223999
30
0
0
SEQEND
8
ASSEMBLY
0
POLYLINE
8
FINGER
66
1
70
0
10
0
20
0
30
0
0
VERTEX
8
FINGER
10
289.510232
20
1815.440206
30
0
0
VERTEX
8
FINGER
10
253.971313
20
1860.0046
30
0
0
SEQEND
8
FINGER
0
POLYLINE
8
ASSEMBLY
66
1
70
1
10
0
20
0
30
0
0
VERTEX
8
ASSEMBLY
10
297.227731
20
1805.762768
30
0
0
VERTEX
8
ASSEMBLY
10
149.991209
20
1621.134008
30
0
0
VERTEX
8
ASSEMBLY
10
62.198007
20
1663.412986
30
0
0
VERTEX
8
ASSEMBLY
10
236.472951
20
1881.946853
30
0
0
SEQEND
8
ASSEMBLY
0
POLYLINE
8
FINGER
66
1
70
0
10
0
20
0
30
0
0
VERTEX
8
FINGER
10
138.839099
20
1626.504581
30
0
0
VERTEX
8
FINGER
10
87.483874
20
1651.235954
30
0
0
SEQEND
8
FINGER
0
POLYLINE
8
ASSEMBLY
66
1
70
1
10
0
20
0
30
0
0
VERTEX
8
ASSEMBLY
10
149.991209
20
1621.134008
30
0
0
VERTEX
8
ASSEMBLY
10
97.443102
20
1390.905711
30
0
0
VERTEX
8
ASSEMBLY
10
0
20
1390.905711
30
0
0
VERTEX
8
ASSEMBLY
10
62.198007
20
1663.412986
30
0
0
SEQEND
8
ASSEMBLY
0
TEXT
8
TEXT
10
1356.130389
20
1984.723999
30
0
40
15
1
T - FRAME HEAD
72
0
11
1356.130389
21
1984.723999
31
0
73
0
0
TEXT
8
TEXT
10
1356.130389
20
1962.723999
30
0
40
15
1
SEMI-CIRCLE W1200 RISE600 H2000 HINGE R
72
0
11
1356.130389
21
1962.723999
31
0
73
0
0
TEXT
8
TEXT
10
1356.130389
20
1940.723999
30
0
40
15
1
FACE 57 OFFSET 0 OUTER L1885 INNER L1705.9
72
0
11
1356.130389
21
1940.723999
31
0
73
0
0
TEXT
8
TEXT
10
1356.130389
20
1918.723999
30
0
40
15
1
ARC 1 R600 L1885 180DEG: 7 x board 95 L279.5 ROUGH 309.5 (ALT 5 x board 105)
72
0
11
1356.130389
21
1918.723999
31
0
73
0
0
TEXT
8
TEXT
10
1356.130389
20
1896.723999
30
0
40
15
1
FINGER 15/16/3.8
72
0
11
1356.130389
21
1896.723999
31
0
73
0
0
TEXT
8
TEXT
10
1356.130389
20
1874.723999
30
0
40
15
1
ALLOWANCE 10 PER SIDE  MAX SEGMENT 36 DEG  RULE NARROWEST
72
0
11
1356.130389
21
1874.723999
31
0
73
0
0
TEXT
8
TEXT
10
1356.130389
20
1852.723999
30
0
40
15
1
CUT CODES: J = JOINT FROM SQUARE  S = ARCH-START, AXIS TO HORIZONTAL  A = APEX FROM SQUARE
72
0
11
1356.130389
21
1852.723999
31
0
73
0
0
POLYLINE
8
FIT
66
1
70
1
10
0
20
0
30
0
0
VERTEX
8
FIT
10
1200
20
2203.223999
30
0
42
1
0
VERTEX
8
FIT
10
0
20
2203.223999
30
0
0
VERTEX
8
FIT
10
57
20
2203.223999
30
0
42
-1
0
VERTEX
8
FIT
10
1143
20
2203.223999
30
0
0
SEQEND
8
FIT
0
POLYLINE
8
FIT
66
1
70
1
10
0
20
0
30
0
0
VERTEX
8
FIT
10
1160
20
2203.223999
30
0
42
1
0
VERTEX
8
FIT
10
40
20
2203.223999
30
0
0
VERTEX
8
FIT
10
107
20
2203.223999
30
0
42
-1
0
VERTEX
8
FIT
10
1093
20
2203.223999
30
0
0
SEQEND
8
FIT
0
POLYLINE
8
FIT
66
1
70
1
10
0
20
0
30
0
0
VERTEX
8
FIT
10
1105.5
20
2203.223999
30
0
42
1
0
VERTEX
8
FIT
10
94.5
20
2203.223999
30
0
0
SEQEND
8
FIT
0
POLYLINE
8
FIT
66
1
70
0
10
0
20
0
30
0
0
VERTEX
8
FIT
10
1164
20
2203.223999
30
0
42
0.008865
0
VERTEX
8
FIT
10
1163.645427
20
2223.219808
30
0
0
SEQEND
8
FIT
0
POLYLINE
8
FIT
66
1
70
0
10
0
20
0
30
0
0
VERTEX
8
FIT
10
1163.202316
20
2233.209855
30
0
42
0.008865
0
VERTEX
8
FIT
10
1161.785139
20
2253.158531
30
0
0
SEQEND
8
FIT
0
POLYLINE
8
FIT
66
1
70
0
10
0
20
0
30
0
0
VERTEX
8
FIT
10
1160.811519
20
2263.11089
30
0
42
0.008865
0
VERTEX
8
FIT
10
1158.335748
20
2282.956006
30
0
0
SEQEND
8
FIT
0
POLYLINE
8
FIT
66
1
70
0
10
0
20
0
30
0
0
VERTEX
8
FIT
10
1156.834374
20
2292.842525
30
0
42
0.008865
0
VERTEX
8
FIT
10
1153.30701
20
2312.527946
30
0
0
SEQEND
8
FIT
0
POLYLINE
8
FIT
66
1
70
0
10
0
20
0
30
0
0
VERTEX
8
FIT
10
1151.282129
20
2322.32066
30
0
42
0.008865
0
VERTEX
8
FIT
10
1146.713151
20
2341.790701
30
0
0
SEQEND
8
FIT
0
POLYLINE
8
FIT
66
1
70
0
10
0
20
0
30
0
0
VERTEX
8
FIT
10
1144.17049
20
2351.461909
30
0
42
0.008865
0
VERTEX
8
FIT
10
1138.572822
20
2370.661497
30
0
0
SEQEND
8
FIT
0
POLYLINE
8
FIT
66
1
70
0
10
0
20
0
30
0
0
VERTEX
8
FIT
10
1135.519574
20
2380.183842
30
0
42
0.008865
0
VERTEX
8
FIT
10
1128.909049
20
2399.058668
30
0
0
SEQEND
8
FIT
0
POLYLINE
8
FIT
66
1
70
0
10
0
20
0
30
0
0
VERTEX
8
FIT
10
1125.353851
20
2408.405216
30
0
42
0.008865
0
VERTEX
8
FIT
10
1117.749169
20
2426.901888
30
0
0
SEQEND
8
FIT
0
POLYLINE
8
FIT
66
1
70
0
10
0
20
0
30
0
0
VERTEX
8
FIT
10
1113.702076
20
2436.046199
30
0
42
0.008865
0
VERTEX
8
FIT
10
1105.124749
20
2454.112398
30
0
0
SEQEND
8
FIT
0
POLYLINE
8
FIT
66
1
70
0
10
0
20
0
30
0
0
VERTEX
8
FIT
10
1100.59721
20
2463.028606
30
0
42
0.008865
0
VERTEX
8
FIT
10
1091.071498
20
2480.613227
30
0
0
SEQEND
8
FIT
0
POLYLINE
8
FIT
66
1
70
0
10
0
20
0
30
0
0
VERTEX
8
FIT
10
1086.07632
20
2489.276112
30
0
42
0.008865
0
VERTEX
8
FIT
10
1075.62917
20
2506.329415
30
0
0
SEQEND
8
FIT
0
POLYLINE
8
FIT
66
1
70
0
10
0
20
0
30
0
0
VERTEX
8
FIT
10
1070.180482
20
2514.714472
30
0
42
0.008865
0
VERTEX
8
FIT
10
1058.841444
20
2531.188218
30
0
0
SEQEND
8
FIT
0
POLYLINE
8
FIT
66
1
70
0
10
0
20
0
30
0
0
VERTEX
8
FIT
10
1052.954659
20
2539.271729
30
0
42
0.008865
0
VERTEX
8
FIT
10
1040.755809
20
2555.11932
30
0
0
SEQEND
8
FIT
0
POLYLINE
8
FIT
66
1
70
0
10
0
20
0
30
0
0
VERTEX
8
FIT
10
1034.447579
20
2562.878418
30
0
42
0.008865
0
VERTEX
8
FIT
10
1021.423423
20
2578.055027
30
0
0
SEQEND
8
FIT
0
POLYLINE
8
FIT
66
1
70
0
10
0
20
0
30
0
0
VERTEX
8
FIT
10
1014.711591
20
2585.467765
30
0
42
0.008865
0
VERTEX
8
FIT
10
1000.898969
20
2599.930461
30
0
0
SEQEND
8
FIT
0
POLYLINE
8
FIT
66
1
70
0
10
0
20
0
30
0
0
VERTEX
8
FIT
10
993.802521
20
2606.975872
30
0
42
0.008865
0
VERTEX
8
FIT
10
979.240506
20
2620.683745
30
0
0
SEQEND
8
FIT
0
POLYLINE
8
FIT
66
1
70
0
10
0
20
0
30
0
0
VERTEX
8
FIT
10
971.779515
20
2627.341898
30
0
42
0.008865
0
VERTEX
8
FIT
10
956.509297
20
2640.256174
30
0
0
SEQEND
8
FIT
0
POLYLINE
8
FIT
66
1
70
0
10
0
20
0
30
0
0
VERTEX
8
FIT
10
948.704869
20
2646.508236
30
0
42
0.008865
0
VERTEX
8
FIT
10
932.769642
20
2658.592384
30
0
0
SEQEND
8
FIT
0
POLYLINE
8
FIT
66
1
70
0
10
0
20
0
30
0
0
VERTEX
8
FIT
10
924.643852
20
2664.42067
30
0
42
0.008865
0
VERTEX
8
FIT
10
908.088692
20
2675.640508
30
0
0
SEQEND
8
FIT
0
POLYLINE
8
FIT
66
1
70
0
10
0
20
0
30
0
0
VERTEX
8
FIT
10
899.664526
20
2681.028532
30
0
42
0.008865
0
VERTEX
8
FIT
10
882.536262
20
2691.352323
30
0
0
SEQEND
8
FIT
0
POLYLINE
8
FIT
66
1
70
0
10
0
20
0
30
0
0
VERTEX
8
FIT
10
873.837549
20
2696.284844
30
0
42
0.008865
0
VERTEX
8
FIT
10
856.184631
20
2705.683386
30
0
0
SEQEND
8
FIT
0
POLYLINE
8
FIT
66
1
70
0
10
0
20
0
30
0
0
VERTEX
8
FIT
10
847.235976
20
2710.146451
30
0
42
0.008865
0
VERTEX
8
FIT
10
829.108339
20
2718.593158
30
0
0
SEQEND
8
FIT
0
POLYLINE
8
FIT
66
1
70
0
10
0
20
0
30
0
0
VERTEX
8
FIT
10
819.935055
20
2722.574143
30
0
42
0.008865
0
VERTEX
8
FIT
10
801.383975
20
2730.045122
30
0
0
SEQEND
8
FIT
0
POLYLINE
8
FIT
66
1
70
0
10
0
20
0
30
0
0
VERTEX
8
FIT
10
792.012011
20
2733.532766
30
0
42
0.008865
0
VERTEX
8
FIT
10
773.089963
20
2740.006884
30
0
0
SEQEND
8
FIT
0
POLYLINE
8
FIT
66
1
70
0
10
0
20
0
30
0
0
VERTEX
8
FIT
10
763.545828
20
2742.991322
30
0
42
0.008865
0
VERTEX
8
FIT
10
744.306337
20
2748.450265
30
0
0
SEQEND
8
FIT
0
POLYLINE
8
FIT
66
1
70
0
10
0
20
0
30
0
0
VERTEX
8
FIT
10
734.617029
20
2750.923055
30
0
42
0.008865
0
VERTEX
8
FIT
10
715.114516
20
2755.351383
30
0
0
SEQEND
8
FIT
0
POLYLINE
8
FIT
66
1
70
0
10
0
20
0
30
0
0
VERTEX
8
FIT
10
705.307443
20
2757.30553
30
0
42
0.008865
0
VERTEX
8
FIT
10
685.597075
20
2760.690717
30
0
0
SEQEND
8
FIT
0
POLYLINE
8
FIT
66
1
70
0
10
0
20
0
30
0
0
VERTEX
8
FIT
10
675.699977
20
2762.120693
30
0
42
0.008865
0
VERTEX
8
FIT
10
655.837508
20
2764.453162
30
0
0
SEQEND
8
FIT
0
POLYLINE
8
FIT
66
1
70
0
10
0
20
0
30
0
0
VERTEX
8
FIT
10
645.878381
20
2765.354922
30
0
42
0.008865
0
VERTEX
8
FIT
10
625.919995
20
2766.628076
30
0
0
SEQEND
8
FIT
0
POLYLINE
8
FIT
66
1
70
0
10
0
20
0
30
0
0
VERTEX
8
FIT
10
615.927011
20
2766.99907
30
0
42
0.008865
0
VERTEX
8
FIT
10
595.929164
20
2767.209308
30
0
0
SEQEND
8
FIT
0
POLYLINE
8
FIT
66
1
70
0
10
0
20
0
30
0
0
VERTEX
8
FIT
10
585.930588
20
2767.048486
30
0
42
0.008865
0
VERTEX
8
FIT
10
565.949847
20
2766.195213
30
0
0
SEQEND
8
FIT
0
POLYLINE
8
FIT
66
1
70
0
10
0
20
0
30
0
0
VERTEX
8
FIT
10
555.973963
20
2765.50303
30
0
42
0.008865
0
VERTEX
8
FIT
10
536.066847
20
2763.588659
30
0
0
SEQEND
8
FIT
0
POLYLINE
8
FIT
66
1
70
0
10
0
20
0
30
0
0
VERTEX
8
FIT
10
526.141873
20
2762.367073
30
0
42
0.008865
0
VERTEX
8
FIT
10
506.364692
20
2759.39702
30
0
0
SEQEND
8
FIT
0
POLYLINE
8
FIT
66
1
70
0
10
0
20
0
30
0
0
VERTEX
8
FIT
10
496.518703
20
2757.649487
30
0
42
0.008865
0
VERTEX
8
FIT
10
476.927401
20
2753.632153
30
0
0
SEQEND
8
FIT
0
POLYLINE
8
FIT
66
1
70
0
10
0
20
0
30
0
0
VERTEX
8
FIT
10
467.188247
20
2751.363615
30
0
42
0.008865
0
VERTEX
8
FIT
10
447.838241
20
2746.310364
30
0
0
SEQEND
8
FIT
0
POLYLINE
8
FIT
66
1
70
0
10
0
20
0
30
0
0
VERTEX
8
FIT
10
438.233472
20
2743.527239
30
0
42
0.008865
0
VERTEX
8
FIT
10
419.179496
20
2737.452364
30
0
0
SEQEND
8
FIT
0
POLYLINE
8
FIT
66
1
70
0
10
0
20
0
30
0
0
VERTEX
8
FIT
10
409.73628
20
2734.162524
30
0
42
0.008865
0
VERTEX
8
FIT
10
391.032232
20
2727.08321
30
0
0
SEQEND
8
FIT
0
POLYLINE
8
FIT
66
1
70
0
10
0
20
0
30
0
0
VERTEX
8
FIT
10
381.777281
20
2723.295961
30
0
42
0.008865
0
VERTEX
8
FIT
10
363.476069
20
2715.232232
30
0
0
SEQEND
8
FIT
0
POLYLINE
8
FIT
66
1
70
0
10
0
20
0
30
0
0
VERTEX
8
FIT
10
354.435561
20
2710.958287
30
0
42
0.008865
0
VERTEX
8
FIT
10
336.588953
20
2701.932953
30
0
0
SEQEND
8
FIT
0
POLYLINE
8
FIT
66
1
70
0
10
0
20
0
30
0
0
VERTEX
8
FIT
10
327.788462
20
2697.184401
30
0
42
0.008865
0
VERTEX
8
FIT
10
310.446939
20
2687.222992
30
0
0
SEQEND
8
FIT
0
POLYLINE
8
FIT
66
1
70
0
10
0
20
0
30
0
0
VERTEX
8
FIT
10
301.911359
20
2682.013266
30
0
42
0.008865
0
VERTEX
8
FIT
10
285.123975
20
2671.143959
30
0
0
SEQEND
8
FIT
0
POLYLINE
8
FIT
66
1
70
0
10
0
20
0
30
0
0
VERTEX
8
FIT
10
276.877449
20
2665.487795
30
0
42
0.008865
0
VERTEX
8
FIT
10
260.69169
20
2653.741337
30
0
0
SEQEND
8
FIT
0
POLYLINE
8
FIT
66
1
70
0
10
0
20
0
30
0
0
VERTEX
8
FIT
10
252.757546
20
2647.654734
30
0
42
0.008865
0
VERTEX
8
FIT
10
237.219196
20
2635.06435
30
0
0
SEQEND
8
FIT
0
POLYLINE
8
FIT
66
1
70
0
10
0
20
0
30
0
0
VERTEX
8
FIT
10
229.619876
20
2628.564526
30
0
42
0.008865
0
VERTEX
8
FIT
10
214.772888
20
2615.16583
30
0
0
SEQEND
8
FIT
0
POLYLINE
8
FIT
66
1
70
0
10
0
20
0
30
0
0
VERTEX
8
FIT
10
207.529888
20
2608.271171
30
0
42
0.008865
0
VERTEX
8
FIT
10
193.416259
20
2594.102065
30
0
0
SEQEND
8
FIT
0
POLYLINE
8
FIT
66
1
70
0
10
0
20
0
30
0
0
VERTEX
8
FIT
10
186.550068
20
2586.832072
30
0
42
0.008865
0
VERTEX
8
FIT
10
173.209721
20
2571.932635
30
0
0
SEQEND
8
FIT
0
POLYLINE
8
FIT
66
1
70
0
10
0
20
0
30
0
0
VERTEX
8
FIT
10
166.73976
20
2564.307874
30
0
42
0.008865
0
VERTEX
8
FIT
10
154.21043
20
2548.720251
30
0
0
SEQEND
8
FIT
0
POLYLINE
8
FIT
66
1
70
0
10
0
20
0
30
0
0
VERTEX
8
FIT
10
148.155001
20
2540.762289
30
0
42
0.008865
0
VERTEX
8
FIT
10
136.47213
20
2524.530572
30
0
0
SEQEND
8
FIT
0
POLYLINE
8
FIT
66
1
70
0
10
0
20
0
30
0
0
VERTEX
8
FIT
10
130.848361
20
2516.26192
30
0
42
0.008865
0
VERTEX
8
FIT
10
120.044996
20
2499.432025
30
0
0
SEQEND
8
FIT
0
POLYLINE
8
FIT
66
1
70
0
10
0
20
0
30
0
0
VERTEX
8
FIT
10
114.868796
20
2490.876072
30
0
42
0.008865
0
VERTEX
8
FIT
10
104.975495
20
2473.495603
30
0
0
SEQEND
8
FIT
0
POLYLINE
8
FIT
66
1
70
0
10
0
20
0
30
0
0
VERTEX
8
FIT
10
100.261505
20
2464.676551
30
0
42
0.008865
0
VERTEX
8
FIT
10
91.306254
20
2446.794673
30
0
0
SEQEND
8
FIT
0
POLYLINE
8
FIT
66
1
70
0
10
0
20
0
30
0
0
VERTEX
8
FIT
10
87.067809
20
2437.737468
30
0
42
0.008865
0
VERTEX
8
FIT
10
79.075939
20
2419.404763
30
0
0
SEQEND
8
FIT
0
POLYLINE
8
FIT
66
1
70
0
10
0
20
0
30
0
0
VERTEX
8
FIT
10
75.325027
20
2410.135025
30
0
42
0.008865
0
VERTEX
8
FIT
10
68.319144
20
2391.403348
30
0
0
SEQEND
8
FIT
0
POLYLINE
8
FIT
66
1
70
0
10
0
20
0
30
0
0
VERTEX
8
FIT
10
65.066376
20
2381.947299
30
0
42
0.008865
0
VERTEX
8
FIT
10
59.066298
20
2362.869638
30
0
0
SEQEND
8
FIT
0
POLYLINE
8
FIT
66
1
70
0
10
0
20
0
30
0
0
VERTEX
8
FIT
10
56.320874
20
2353.254024
30
0
42
0.008865
0
VERTEX
8
FIT
10
51.343573
20
2333.884342
30
0
0
SEQEND
8
FIT
0
POLYLINE
8
FIT
66
1
70
0
10
0
20
0
30
0
0
VERTEX
8
FIT
10
49.11326
20
2324.136364
30
0
42
0.008865
0
VERTEX
8
FIT
10
45.172815
20
2304.529452
30
0
0
SEQEND
8
FIT
0
POLYLINE
8
FIT
66
1
70
0
10
0
20
0
30
0
0
VERTEX
8
FIT
10
43.463922
20
2294.676683
30
0
42
0.008865
0
VERTEX
8
FIT
10
40.571479
20
2274.888003
30
0
0
SEQEND
8
FIT
0
POLYLINE
8
FIT
66
1
70
0
10
0
20
0
30
0
0
VERTEX
8
FIT
10
39.388838
20
2264.958313
30
0
42
0.008865
0
VERTEX
8
FIT
10
37.552579
20
2245.04384
30
0
0
SEQEND
8
FIT
0
POLYLINE
8
FIT
66
1
70
0
10
0
20
0
30
0
0
VERTEX
8
FIT
10
36.899538
20
2235.065317
30
0
42
0.008865
0
VERTEX
8
FIT
10
36.124657
20
2215.081382
30
0
0
SEQEND
8
FIT
0
POLYLINE
8
FIT
66
1
70
0
10
0
20
0
30
0
0
VERTEX
8
FIT
10
36.003061
20
2205.082253
30
0
42
0.000824
0
VERTEX
8
FIT
10
36
20
2203.223999
30
0
0
SEQEND
8
FIT
0
TEXT
8
TEXT
10
1300
20
2748.709308
30
0
40
15
1
T - FIT (ASSEMBLY, NOT A TOOLPATH)
72
0
11
1300
21
2748.709308
31
0
73
0
0
TEXT
8
TEXT
10
1300
20
2726.709308
30
0
40
15
1
GAP 4 LAP 17 (REBATE)
72
0
11
1300
21
2726.709308
31
0
73
0
0
TEXT
8
TEXT
10
1300
20
2704.709308
30
0
40
15
1
FRAME R600 / 543  REBATE WALL R564 (LAND 36, DASHED)
72
0
11
1300
21
2704.709308
31
0
73
0
0
TEXT
8
TEXT
10
1300
20
2682.709308
30
0
40
15
1
LEAF R560 / 493  GLASS R505.5
72
0
11
1300
21
2682.709308
31
0
73
0
0
ENDSEC
0
EOF
