0
SECTION
2
HEADER
9
$ACADVER
1
AC1009
0
ENDSEC
0
SECTION
2
TABLES
0
TABLE
2
LAYER
70
9
0
LAYER
2
0
70
0
62
7
6
CONTINUOUS
0
LAYER
2
ARKA_OUTLINE
70
0
62
7
6
CONTINUOUS
0
LAYER
2
ARKA_PANE
70
0
62
3
6
CONTINUOUS
0
LAYER
2
ARKA_FRONT_HINGES_3MM
70
0
62
50
6
CONTINUOUS
0
LAYER
2
ARKA_MITRE
70
0
62
1
6
CONTINUOUS
0
LAYER
2
ARKA_SECTION
70
0
62
5
6
CONTINUOUS
0
LAYER
2
ARKA_PANE_ZEWN_REF
70
0
62
3
6
CONTINUOUS
0
LAYER
2
ARKA_CENTRE
70
0
62
6
6
CONTINUOUS
0
LAYER
2
ARKA_INFO_NO_CUT
70
0
62
8
6
CONTINUOUS
0
ENDTAB
0
ENDSEC
0
SECTION
2
ENTITIES
0
POLYLINE
8
ARKA_OUTLINE
66
1
70
1
10
0
20
0
30
0
0
VERTEX
8
ARKA_OUTLINE
10
12.5
20
12.5
30
0
0
VERTEX
8
ARKA_OUTLINE
10
798.5
20
12.5
30
0
0
VERTEX
8
ARKA_OUTLINE
10
798.5
20
898.5
30
0
42
1
0
VERTEX
8
ARKA_OUTLINE
10
12.5
20
898.5
30
0
0
SEQEND
8
ARKA_OUTLINE
0
POLYLINE
8
ARKA_PANE_ZEWN_REF
66
1
70
1
10
0
20
0
30
0
0
VERTEX
8
ARKA_PANE_ZEWN_REF
10
14.5
20
14.5
30
0
0
VERTEX
8
ARKA_PANE_ZEWN_REF
10
796.5
20
14.5
30
0
0
VERTEX
8
ARKA_PANE_ZEWN_REF
10
796.5
20
898.5
30
0
42
1
0
VERTEX
8
ARKA_PANE_ZEWN_REF
10
14.5
20
898.5
30
0
0
SEQEND
8
ARKA_PANE_ZEWN_REF
0
POLYLINE
8
ARKA_OUTLINE
66
1
70
1
10
0
20
0
30
0
0
VERTEX
8
ARKA_OUTLINE
10
30.5
20
30.5
30
0
0
VERTEX
8
ARKA_OUTLINE
10
272.85
20
30.5
30
0
0
VERTEX
8
ARKA_OUTLINE
10
272.85
20
887.5
30
0
0
VERTEX
8
ARKA_OUTLINE
10
30.5
20
887.5
30
0
0
SEQEND
8
ARKA_OUTLINE
0
POLYLINE
8
ARKA_PANE
66
1
70
1
10
0
20
0
30
0
0
VERTEX
8
ARKA_PANE
10
28.5
20
28.5
30
0
0
VERTEX
8
ARKA_PANE
10
274.85
20
28.5
30
0
0
VERTEX
8
ARKA_PANE
10
274.85
20
889.5
30
0
0
VERTEX
8
ARKA_PANE
10
28.5
20
889.5
30
0
0
SEQEND
8
ARKA_PANE
0
POLYLINE
8
ARKA_FRONT_HINGES_3MM
66
1
70
1
10
0
20
0
30
0
0
VERTEX
8
ARKA_FRONT_HINGES_3MM
10
20.5
20
20.5
30
0
0
VERTEX
8
ARKA_FRONT_HINGES_3MM
10
282.85
20
20.5
30
0
0
VERTEX
8
ARKA_FRONT_HINGES_3MM
10
282.85
20
897.5
30
0
0
VERTEX
8
ARKA_FRONT_HINGES_3MM
10
20.5
20
897.5
30
0
0
SEQEND
8
ARKA_FRONT_HINGES_3MM
0
POLYLINE
8
ARKA_OUTLINE
66
1
70
1
10
0
20
0
30
0
0
VERTEX
8
ARKA_OUTLINE
10
294.85
20
30.5
30
0
0
VERTEX
8
ARKA_OUTLINE
10
516.15
20
30.5
30
0
0
VERTEX
8
ARKA_OUTLINE
10
516.15
20
898.5
30
0
42
1
0
VERTEX
8
ARKA_OUTLINE
10
294.85
20
898.500002
30
0
0
SEQEND
8
ARKA_OUTLINE
0
POLYLINE
8
ARKA_PANE
66
1
70
1
10
0
20
0
30
0
0
VERTEX
8
ARKA_PANE
10
292.85
20
28.5
30
0
0
VERTEX
8
ARKA_PANE
10
518.15
20
28.5
30
0
0
VERTEX
8
ARKA_PANE
10
518.15
20
898.5
30
0
42
1
0
VERTEX
8
ARKA_PANE
10
292.85
20
898.500001
30
0
0
SEQEND
8
ARKA_PANE
0
POLYLINE
8
ARKA_FRONT_HINGES_3MM
66
1
70
1
10
0
20
0
30
0
0
VERTEX
8
ARKA_FRONT_HINGES_3MM
10
284.85
20
20.5
30
0
0
VERTEX
8
ARKA_FRONT_HINGES_3MM
10
526.15
20
20.5
30
0
0
VERTEX
8
ARKA_FRONT_HINGES_3MM
10
526.15
20
898.5
30
0
42
1
0
VERTEX
8
ARKA_FRONT_HINGES_3MM
10
284.85
20
898.500002
30
0
0
SEQEND
8
ARKA_FRONT_HINGES_3MM
0
POLYLINE
8
ARKA_OUTLINE
66
1
70
1
10
0
20
0
30
0
0
VERTEX
8
ARKA_OUTLINE
10
538.15
20
30.5
30
0
0
VERTEX
8
ARKA_OUTLINE
10
780.5
20
30.5
30
0
0
VERTEX
8
ARKA_OUTLINE
10
780.5
20
887.5
30
0
0
VERTEX
8
ARKA_OUTLINE
10
538.15
20
887.5
30
0
0
SEQEND
8
ARKA_OUTLINE
0
POLYLINE
8
ARKA_PANE
66
1
70
1
10
0
20
0
30
0
0
VERTEX
8
ARKA_PANE
10
536.15
20
28.5
30
0
0
VERTEX
8
ARKA_PANE
10
782.5
20
28.5
30
0
0
VERTEX
8
ARKA_PANE
10
782.5
20
889.5
30
0
0
VERTEX
8
ARKA_PANE
10
536.15
20
889.5
30
0
0
SEQEND
8
ARKA_PANE
0
POLYLINE
8
ARKA_FRONT_HINGES_3MM
66
1
70
1
10
0
20
0
30
0
0
VERTEX
8
ARKA_FRONT_HINGES_3MM
10
528.15
20
20.5
30
0
0
VERTEX
8
ARKA_FRONT_HINGES_3MM
10
790.5
20
20.5
30
0
0
VERTEX
8
ARKA_FRONT_HINGES_3MM
10
790.5
20
897.5
30
0
0
VERTEX
8
ARKA_FRONT_HINGES_3MM
10
528.15
20
897.5
30
0
0
SEQEND
8
ARKA_FRONT_HINGES_3MM
0
POLYLINE
8
ARKA_OUTLINE
66
1
70
1
10
0
20
0
30
0
0
VERTEX
8
ARKA_OUTLINE
10
780.338632
20
909.5
30
0
42
0.252288
0
VERTEX
8
ARKA_OUTLINE
10
602.445595
20
1217.619778
30
0
0
VERTEX
8
ARKA_OUTLINE
10
481.122842
20
1007.482605
30
0
42
-0.223923
0
VERTEX
8
ARKA_OUTLINE
10
537.693126
20
909.5
30
0
0
SEQEND
8
ARKA_OUTLINE
0
POLYLINE
8
ARKA_PANE
66
1
70
1
10
0
20
0
30
0
0
VERTEX
8
ARKA_PANE
10
782.392558
20
907.5
30
0
42
0.255195
0
VERTEX
8
ARKA_PANE
10
601.740507
20
1220.398529
30
0
0
VERTEX
8
ARKA_PANE
10
478.46405
20
1006.877442
30
0
42
-0.231328
0
VERTEX
8
ARKA_PANE
10
535.839643
20
907.5
30
0
0
SEQEND
8
ARKA_PANE
0
POLYLINE
8
ARKA_FRONT_HINGES_3MM
66
1
70
1
10
0
20
0
30
0
0
VERTEX
8
ARKA_FRONT_HINGES_3MM
10
790.498701
20
899.5
30
0
42
0.266558
0
VERTEX
8
ARKA_FRONT_HINGES_3MM
10
598.865376
20
1231.418656
30
0
0
VERTEX
8
ARKA_FRONT_HINGES_3MM
10
467.688987
20
1004.214485
30
0
42
-0.263585
0
VERTEX
8
ARKA_FRONT_HINGES_3MM
10
528.145923
20
899.5
30
0
0
SEQEND
8
ARKA_FRONT_HINGES_3MM
0
POLYLINE
8
ARKA_OUTLINE
66
1
70
1
10
0
20
0
30
0
0
VERTEX
8
ARKA_OUTLINE
10
583.393037
20
1228.619778
30
0
42
0.252288
0
VERTEX
8
ARKA_OUTLINE
10
227.606963
20
1228.619778
30
0
0
VERTEX
8
ARKA_OUTLINE
10
348.929717
20
1018.482605
30
0
42
-0.223923
0
VERTEX
8
ARKA_OUTLINE
10
462.070283
20
1018.482605
30
0
0
SEQEND
8
ARKA_OUTLINE
0
POLYLINE
8
ARKA_PANE
66
1
70
1
10
0
20
0
30
0
0
VERTEX
8
ARKA_PANE
10
586.15205
20
1229.398529
30
0
42
0.255195
0
VERTEX
8
ARKA_PANE
10
224.84795
20
1229.398529
30
0
0
VERTEX
8
ARKA_PANE
10
348.124407
20
1015.877442
30
0
42
-0.231328
0
VERTEX
8
ARKA_PANE
10
462.875593
20
1015.877442
30
0
0
SEQEND
8
ARKA_PANE
0
POLYLINE
8
ARKA_FRONT_HINGES_3MM
66
1
70
1
10
0
20
0
30
0
0
VERTEX
8
ARKA_FRONT_HINGES_3MM
10
597.133325
20
1232.418656
30
0
42
0.266558
0
VERTEX
8
ARKA_FRONT_HINGES_3MM
10
213.866675
20
1232.418656
30
0
0
VERTEX
8
ARKA_FRONT_HINGES_3MM
10
345.043064
20
1005.214485
30
0
42
-0.263585
0
VERTEX
8
ARKA_FRONT_HINGES_3MM
10
465.956936
20
1005.214485
30
0
0
SEQEND
8
ARKA_FRONT_HINGES_3MM
0
POLYLINE
8
ARKA_OUTLINE
66
1
70
1
10
0
20
0
30
0
0
VERTEX
8
ARKA_OUTLINE
10
208.554405
20
1217.619778
30
0
42
0.252288
0
VERTEX
8
ARKA_OUTLINE
10
30.661368
20
909.5
30
0
0
VERTEX
8
ARKA_OUTLINE
10
273.306874
20
909.5
30
0
42
-0.223923
0
VERTEX
8
ARKA_OUTLINE
10
329.877158
20
1007.482605
30
0
0
SEQEND
8
ARKA_OUTLINE
0
POLYLINE
8
ARKA_PANE
66
1
70
1
10
0
20
0
30
0
0
VERTEX
8
ARKA_PANE
10
209.259493
20
1220.398529
30
0
42
0.255195
0
VERTEX
8
ARKA_PANE
10
28.607442
20
907.5
30
0
0
VERTEX
8
ARKA_PANE
10
275.160357
20
907.5
30
0
42
-0.231328
0
VERTEX
8
ARKA_PANE
10
332.53595
20
1006.877442
30
0
0
SEQEND
8
ARKA_PANE
0
POLYLINE
8
ARKA_FRONT_HINGES_3MM
66
1
70
1
10
0
20
0
30
0
0
VERTEX
8
ARKA_FRONT_HINGES_3MM
10
212.134624
20
1231.418656
30
0
42
0.266558
0
VERTEX
8
ARKA_FRONT_HINGES_3MM
10
20.501299
20
899.5
30
0
0
VERTEX
8
ARKA_FRONT_HINGES_3MM
10
282.854077
20
899.5
30
0
42
-0.263585
0
VERTEX
8
ARKA_FRONT_HINGES_3MM
10
343.311013
20
1004.214485
30
0
0
SEQEND
8
ARKA_FRONT_HINGES_3MM
0
POLYLINE
8
ARKA_MITRE
66
1
70
0
10
0
20
0
30
0
0
VERTEX
8
ARKA_MITRE
10
20.5
20
35.5
30
0
0
VERTEX
8
ARKA_MITRE
10
20.5
20
20.5
30
0
0
VERTEX
8
ARKA_MITRE
10
35.5
20
20.5
30
0
0
SEQEND
8
ARKA_MITRE
0
POLYLINE
8
ARKA_MITRE
66
1
70
0
10
0
20
0
30
0
0
VERTEX
8
ARKA_MITRE
10
267.85
20
20.5
30
0
0
VERTEX
8
ARKA_MITRE
10
282.85
20
20.5
30
0
0
VERTEX
8
ARKA_MITRE
10
282.85
20
35.5
30
0
0
SEQEND
8
ARKA_MITRE
0
POLYLINE
8
ARKA_MITRE
66
1
70
0
10
0
20
0
30
0
0
VERTEX
8
ARKA_MITRE
10
282.85
20
882.5
30
0
0
VERTEX
8
ARKA_MITRE
10
282.85
20
897.5
30
0
0
VERTEX
8
ARKA_MITRE
10
267.85
20
897.5
30
0
0
SEQEND
8
ARKA_MITRE
0
POLYLINE
8
ARKA_MITRE
66
1
70
0
10
0
20
0
30
0
0
VERTEX
8
ARKA_MITRE
10
35.5
20
897.5
30
0
0
VERTEX
8
ARKA_MITRE
10
20.5
20
897.5
30
0
0
VERTEX
8
ARKA_MITRE
10
20.5
20
882.5
30
0
0
SEQEND
8
ARKA_MITRE
0
POLYLINE
8
ARKA_MITRE
66
1
70
0
10
0
20
0
30
0
0
VERTEX
8
ARKA_MITRE
10
284.85
20
35.5
30
0
0
VERTEX
8
ARKA_MITRE
10
284.85
20
20.5
30
0
0
VERTEX
8
ARKA_MITRE
10
299.85
20
20.5
30
0
0
SEQEND
8
ARKA_MITRE
0
POLYLINE
8
ARKA_MITRE
66
1
70
0
10
0
20
0
30
0
0
VERTEX
8
ARKA_MITRE
10
511.15
20
20.5
30
0
0
VERTEX
8
ARKA_MITRE
10
526.15
20
20.5
30
0
0
VERTEX
8
ARKA_MITRE
10
526.15
20
35.5
30
0
0
SEQEND
8
ARKA_MITRE
0
POLYLINE
8
ARKA_MITRE
66
1
70
0
10
0
20
0
30
0
0
VERTEX
8
ARKA_MITRE
10
528.15
20
35.5
30
0
0
VERTEX
8
ARKA_MITRE
10
528.15
20
20.5
30
0
0
VERTEX
8
ARKA_MITRE
10
543.15
20
20.5
30
0
0
SEQEND
8
ARKA_MITRE
0
POLYLINE
8
ARKA_MITRE
66
1
70
0
10
0
20
0
30
0
0
VERTEX
8
ARKA_MITRE
10
775.5
20
20.5
30
0
0
VERTEX
8
ARKA_MITRE
10
790.5
20
20.5
30
0
0
VERTEX
8
ARKA_MITRE
10
790.5
20
35.5
30
0
0
SEQEND
8
ARKA_MITRE
0
POLYLINE
8
ARKA_MITRE
66
1
70
0
10
0
20
0
30
0
0
VERTEX
8
ARKA_MITRE
10
790.5
20
882.5
30
0
0
VERTEX
8
ARKA_MITRE
10
790.5
20
897.5
30
0
0
VERTEX
8
ARKA_MITRE
10
775.5
20
897.5
30
0
0
SEQEND
8
ARKA_MITRE
0
POLYLINE
8
ARKA_MITRE
66
1
70
0
10
0
20
0
30
0
0
VERTEX
8
ARKA_MITRE
10
543.15
20
897.5
30
0
0
VERTEX
8
ARKA_MITRE
10
528.15
20
897.5
30
0
0
VERTEX
8
ARKA_MITRE
10
528.15
20
882.5
30
0
0
SEQEND
8
ARKA_MITRE
0
POLYLINE
8
ARKA_MITRE
66
1
70
0
10
0
20
0
30
0
0
VERTEX
8
ARKA_MITRE
10
775.498701
20
899.5
30
0
0
VERTEX
8
ARKA_MITRE
10
790.498701
20
899.5
30
0
42
0.009741
0
VERTEX
8
ARKA_MITRE
10
790.16758
20
914.495396
30
0
0
SEQEND
8
ARKA_MITRE
0
POLYLINE
8
ARKA_MITRE
66
1
70
0
10
0
20
0
30
0
0
VERTEX
8
ARKA_MITRE
10
611.686209
20
1223.634199
30
0
42
0.009741
0
VERTEX
8
ARKA_MITRE
10
598.865376
20
1231.418656
30
0
0
VERTEX
8
ARKA_MITRE
10
591.365376
20
1218.428275
30
0
0
SEQEND
8
ARKA_MITRE
0
POLYLINE
8
ARKA_MITRE
66
1
70
0
10
0
20
0
30
0
0
VERTEX
8
ARKA_MITRE
10
475.188987
20
1017.204866
30
0
0
VERTEX
8
ARKA_MITRE
10
467.688987
20
1004.214485
30
0
42
-0.030584
0
VERTEX
8
ARKA_MITRE
10
480.121077
20
995.83816
30
0
0
SEQEND
8
ARKA_MITRE
0
POLYLINE
8
ARKA_MITRE
66
1
70
0
10
0
20
0
30
0
0
VERTEX
8
ARKA_MITRE
10
527.107858
20
914.454669
30
0
42
-0.030584
0
VERTEX
8
ARKA_MITRE
10
528.145923
20
899.5
30
0
0
VERTEX
8
ARKA_MITRE
10
543.145923
20
899.5
30
0
0
SEQEND
8
ARKA_MITRE
0
POLYLINE
8
ARKA_MITRE
66
1
70
0
10
0
20
0
30
0
0
VERTEX
8
ARKA_MITRE
10
589.633325
20
1219.428275
30
0
0
VERTEX
8
ARKA_MITRE
10
597.133325
20
1232.418656
30
0
42
0.009741
0
VERTEX
8
ARKA_MITRE
10
583.981371
20
1239.629594
30
0
0
SEQEND
8
ARKA_MITRE
0
POLYLINE
8
ARKA_MITRE
66
1
70
0
10
0
20
0
30
0
0
VERTEX
8
ARKA_MITRE
10
227.018629
20
1239.629594
30
0
42
0.009741
0
VERTEX
8
ARKA_MITRE
10
213.866675
20
1232.418656
30
0
0
VERTEX
8
ARKA_MITRE
10
221.366675
20
1219.428275
30
0
0
SEQEND
8
ARKA_MITRE
0
POLYLINE
8
ARKA_MITRE
66
1
70
0
10
0
20
0
30
0
0
VERTEX
8
ARKA_MITRE
10
337.543064
20
1018.204866
30
0
0
VERTEX
8
ARKA_MITRE
10
345.043064
20
1005.214485
30
0
42
-0.030584
0
VERTEX
8
ARKA_MITRE
10
358.51322
20
1011.792828
30
0
0
SEQEND
8
ARKA_MITRE
0
POLYLINE
8
ARKA_MITRE
66
1
70
0
10
0
20
0
30
0
0
VERTEX
8
ARKA_MITRE
10
452.48678
20
1011.792828
30
0
42
-0.030584
0
VERTEX
8
ARKA_MITRE
10
465.956936
20
1005.214485
30
0
0
VERTEX
8
ARKA_MITRE
10
473.456936
20
1018.204866
30
0
0
SEQEND
8
ARKA_MITRE
0
POLYLINE
8
ARKA_MITRE
66
1
70
0
10
0
20
0
30
0
0
VERTEX
8
ARKA_MITRE
10
219.634624
20
1218.428275
30
0
0
VERTEX
8
ARKA_MITRE
10
212.134624
20
1231.418656
30
0
42
0.009741
0
VERTEX
8
ARKA_MITRE
10
199.313791
20
1223.634199
30
0
0
SEQEND
8
ARKA_MITRE
0
POLYLINE
8
ARKA_MITRE
66
1
70
0
10
0
20
0
30
0
0
VERTEX
8
ARKA_MITRE
10
20.83242
20
914.495396
30
0
42
0.009741
0
VERTEX
8
ARKA_MITRE
10
20.501299
20
899.5
30
0
0
VERTEX
8
ARKA_MITRE
10
35.501299
20
899.5
30
0
0
SEQEND
8
ARKA_MITRE
0
POLYLINE
8
ARKA_MITRE
66
1
70
0
10
0
20
0
30
0
0
VERTEX
8
ARKA_MITRE
10
267.854077
20
899.5
30
0
0
VERTEX
8
ARKA_MITRE
10
282.854077
20
899.5
30
0
42
-0.030584
0
VERTEX
8
ARKA_MITRE
10
283.892142
20
914.454669
30
0
0
SEQEND
8
ARKA_MITRE
0
POLYLINE
8
ARKA_MITRE
66
1
70
0
10
0
20
0
30
0
0
VERTEX
8
ARKA_MITRE
10
330.878923
20
995.83816
30
0
42
-0.030584
0
VERTEX
8
ARKA_MITRE
10
343.311013
20
1004.214485
30
0
0
VERTEX
8
ARKA_MITRE
10
335.811013
20
1017.204866
30
0
0
SEQEND
8
ARKA_MITRE
0
POINT
8
ARKA_CENTRE
10
405.5
20
898.5
30
0
0
POLYLINE
8
ARKA_SECTION
66
1
70
0
10
0
20
0
30
0
0
VERTEX
8
ARKA_SECTION
10
898.5
20
12.5
30
0
42
-0.414214
0
VERTEX
8
ARKA_SECTION
10
906.5
20
20.5
30
0
0
VERTEX
8
ARKA_SECTION
10
906.5
20
26.5
30
0
0
SEQEND
8
ARKA_SECTION
0
TEXT
8
ARKA_INFO_NO_CUT
10
894.5
20
-6.5
30
0
40
15
1
START
72
0
11
894.5
21
-6.5
31
0
73
0
0
TEXT
8
ARKA_INFO_NO_CUT
10
918.5
20
16.5
30
0
40
15
1
SECTION R8 + 6 (VERBATIM)
72
0
11
918.5
21
16.5
31
0
73
0
0
TEXT
8
ARKA_INFO_NO_CUT
10
898.5
20
1269.5
30
0
40
15
1
hub - TRACERY FULL
72
0
11
898.5
21
1269.5
31
0
73
0
0
TEXT
8
ARKA_INFO_NO_CUT
10
898.5
20
1247.5
30
0
40
15
1
PATTERN HUB-SPOKE SPOKES 4 RINGS 1 PANES 6
72
0
11
898.5
21
1247.5
31
0
73
0
0
TEXT
8
ARKA_INFO_NO_CUT
10
898.5
20
1225.5
30
0
40
15
1
TIMBER BAR 22 EDGE MARGIN 18 PANE +2 LIMIT +10 MITRE LEG 15
72
0
11
898.5
21
1225.5
31
0
73
0
0
TEXT
8
ARKA_INFO_NO_CUT
10
898.5
20
1203.5
30
0
40
15
1
ARKA_PANE = MOULDING RAIL (INNER EDGE OF THE BEAD), ARKA_FRONT_HINGES_3MM = BEAD LIMIT (NOT DRILLING)
72
0
11
898.5
21
1203.5
31
0
73
0
0
TEXT
8
ARKA_INFO_NO_CUT
10
898.5
20
1181.5
30
0
40
15
1
NOT A TOOLPATH
72
0
11
898.5
21
1181.5
31
0
73
0
0
ENDSEC
0
EOF
