0
SECTION
2
HEADER
9
$ACADVER
1
AC1009
0
ENDSEC
0
SECTION
2
TABLES
0
TABLE
2
LAYER
70
9
0
LAYER
2
0
70
0
62
7
6
CONTINUOUS
0
LAYER
2
ARKA_OUTLINE
70
0
62
7
6
CONTINUOUS
0
LAYER
2
ARKA_PANE
70
0
62
3
6
CONTINUOUS
0
LAYER
2
ARKA_FRONT_HINGES_3MM
70
0
62
50
6
CONTINUOUS
0
LAYER
2
ARKA_MITRE
70
0
62
1
6
CONTINUOUS
0
LAYER
2
ARKA_SECTION
70
0
62
5
6
CONTINUOUS
0
LAYER
2
ARKA_PANE_ZEWN_REF
70
0
62
3
6
CONTINUOUS
0
LAYER
2
ARKA_CENTRE
70
0
62
6
6
CONTINUOUS
0
LAYER
2
ARKA_INFO_NO_CUT
70
0
62
8
6
CONTINUOUS
0
ENDTAB
0
ENDSEC
0
SECTION
2
ENTITIES
0
POLYLINE
8
ARKA_OUTLINE
66
1
70
1
10
0
20
0
30
0
0
VERTEX
8
ARKA_OUTLINE
10
-5.5
20
-5.5
30
0
0
VERTEX
8
ARKA_OUTLINE
10
816.5
20
-5.5
30
0
0
VERTEX
8
ARKA_OUTLINE
10
816.5
20
898.5
30
0
42
1
0
VERTEX
8
ARKA_OUTLINE
10
-5.5
20
898.5
30
0
0
SEQEND
8
ARKA_OUTLINE
0
POLYLINE
8
ARKA_PANE_ZEWN_REF
66
1
70
1
10
0
20
0
30
0
0
VERTEX
8
ARKA_PANE_ZEWN_REF
10
-3.5
20
-3.5
30
0
0
VERTEX
8
ARKA_PANE_ZEWN_REF
10
814.5
20
-3.5
30
0
0
VERTEX
8
ARKA_PANE_ZEWN_REF
10
814.5
20
898.5
30
0
42
1
0
VERTEX
8
ARKA_PANE_ZEWN_REF
10
-3.5
20
898.5
30
0
0
SEQEND
8
ARKA_PANE_ZEWN_REF
0
POLYLINE
8
ARKA_OUTLINE
66
1
70
1
10
0
20
0
30
0
0
VERTEX
8
ARKA_OUTLINE
10
12.5
20
12.5
30
0
0
VERTEX
8
ARKA_OUTLINE
10
272.85
20
12.5
30
0
0
VERTEX
8
ARKA_OUTLINE
10
272.85
20
887.5
30
0
0
VERTEX
8
ARKA_OUTLINE
10
12.5
20
887.5
30
0
0
SEQEND
8
ARKA_OUTLINE
0
POLYLINE
8
ARKA_PANE
66
1
70
1
10
0
20
0
30
0
0
VERTEX
8
ARKA_PANE
10
10.5
20
10.5
30
0
0
VERTEX
8
ARKA_PANE
10
274.85
20
10.5
30
0
0
VERTEX
8
ARKA_PANE
10
274.85
20
889.5
30
0
0
VERTEX
8
ARKA_PANE
10
10.5
20
889.5
30
0
0
SEQEND
8
ARKA_PANE
0
POLYLINE
8
ARKA_FRONT_HINGES_3MM
66
1
70
1
10
0
20
0
30
0
0
VERTEX
8
ARKA_FRONT_HINGES_3MM
10
2.5
20
2.5
30
0
0
VERTEX
8
ARKA_FRONT_HINGES_3MM
10
282.85
20
2.5
30
0
0
VERTEX
8
ARKA_FRONT_HINGES_3MM
10
282.85
20
897.5
30
0
0
VERTEX
8
ARKA_FRONT_HINGES_3MM
10
2.5
20
897.5
30
0
0
SEQEND
8
ARKA_FRONT_HINGES_3MM
0
POLYLINE
8
ARKA_OUTLINE
66
1
70
1
10
0
20
0
30
0
0
VERTEX
8
ARKA_OUTLINE
10
294.85
20
12.5
30
0
0
VERTEX
8
ARKA_OUTLINE
10
516.15
20
12.5
30
0
0
VERTEX
8
ARKA_OUTLINE
10
516.15
20
898.5
30
0
42
1
0
VERTEX
8
ARKA_OUTLINE
10
294.85
20
898.500002
30
0
0
SEQEND
8
ARKA_OUTLINE
0
POLYLINE
8
ARKA_PANE
66
1
70
1
10
0
20
0
30
0
0
VERTEX
8
ARKA_PANE
10
292.85
20
10.5
30
0
0
VERTEX
8
ARKA_PANE
10
518.15
20
10.5
30
0
0
VERTEX
8
ARKA_PANE
10
518.15
20
898.5
30
0
42
1
0
VERTEX
8
ARKA_PANE
10
292.85
20
898.500001
30
0
0
SEQEND
8
ARKA_PANE
0
POLYLINE
8
ARKA_FRONT_HINGES_3MM
66
1
70
1
10
0
20
0
30
0
0
VERTEX
8
ARKA_FRONT_HINGES_3MM
10
284.85
20
2.5
30
0
0
VERTEX
8
ARKA_FRONT_HINGES_3MM
10
526.15
20
2.5
30
0
0
VERTEX
8
ARKA_FRONT_HINGES_3MM
10
526.15
20
898.5
30
0
42
1
0
VERTEX
8
ARKA_FRONT_HINGES_3MM
10
284.85
20
898.500002
30
0
0
SEQEND
8
ARKA_FRONT_HINGES_3MM
0
POLYLINE
8
ARKA_OUTLINE
66
1
70
1
10
0
20
0
30
0
0
VERTEX
8
ARKA_OUTLINE
10
538.15
20
12.5
30
0
0
VERTEX
8
ARKA_OUTLINE
10
798.5
20
12.5
30
0
0
VERTEX
8
ARKA_OUTLINE
10
798.5
20
887.5
30
0
0
VERTEX
8
ARKA_OUTLINE
10
538.15
20
887.5
30
0
0
SEQEND
8
ARKA_OUTLINE
0
POLYLINE
8
ARKA_PANE
66
1
70
1
10
0
20
0
30
0
0
VERTEX
8
ARKA_PANE
10
536.15
20
10.5
30
0
0
VERTEX
8
ARKA_PANE
10
800.5
20
10.5
30
0
0
VERTEX
8
ARKA_PANE
10
800.5
20
889.5
30
0
0
VERTEX
8
ARKA_PANE
10
536.15
20
889.5
30
0
0
SEQEND
8
ARKA_PANE
0
POLYLINE
8
ARKA_FRONT_HINGES_3MM
66
1
70
1
10
0
20
0
30
0
0
VERTEX
8
ARKA_FRONT_HINGES_3MM
10
528.15
20
2.5
30
0
0
VERTEX
8
ARKA_FRONT_HINGES_3MM
10
808.5
20
2.5
30
0
0
VERTEX
8
ARKA_FRONT_HINGES_3MM
10
808.5
20
897.5
30
0
0
VERTEX
8
ARKA_FRONT_HINGES_3MM
10
528.15
20
897.5
30
0
0
SEQEND
8
ARKA_FRONT_HINGES_3MM
0
POLYLINE
8
ARKA_OUTLINE
66
1
70
1
10
0
20
0
30
0
0
VERTEX
8
ARKA_OUTLINE
10
798.346026
20
909.5
30
0
42
0.253003
0
VERTEX
8
ARKA_OUTLINE
10
611.449292
20
1233.214638
30
0
0
VERTEX
8
ARKA_OUTLINE
10
481.122842
20
1007.482605
30
0
42
-0.223923
0
VERTEX
8
ARKA_OUTLINE
10
537.693126
20
909.5
30
0
0
SEQEND
8
ARKA_OUTLINE
0
POLYLINE
8
ARKA_PANE
66
1
70
1
10
0
20
0
30
0
0
VERTEX
8
ARKA_PANE
10
800.397455
20
907.5
30
0
42
0.255774
0
VERTEX
8
ARKA_PANE
10
610.742956
20
1235.991228
30
0
0
VERTEX
8
ARKA_PANE
10
478.46405
20
1006.877442
30
0
42
-0.231328
0
VERTEX
8
ARKA_PANE
10
535.839643
20
907.5
30
0
0
SEQEND
8
ARKA_PANE
0
POLYLINE
8
ARKA_FRONT_HINGES_3MM
66
1
70
1
10
0
20
0
30
0
0
VERTEX
8
ARKA_FRONT_HINGES_3MM
10
808.498759
20
899.5
30
0
42
0.26662
0
VERTEX
8
ARKA_FRONT_HINGES_3MM
10
607.865405
20
1247.007163
30
0
0
VERTEX
8
ARKA_FRONT_HINGES_3MM
10
467.688987
20
1004.214485
30
0
42
-0.263585
0
VERTEX
8
ARKA_FRONT_HINGES_3MM
10
528.145923
20
899.5
30
0
0
SEQEND
8
ARKA_FRONT_HINGES_3MM
0
POLYLINE
8
ARKA_OUTLINE
66
1
70
1
10
0
20
0
30
0
0
VERTEX
8
ARKA_OUTLINE
10
592.396733
20
1244.214638
30
0
42
0.253003
0
VERTEX
8
ARKA_OUTLINE
10
218.603267
20
1244.214638
30
0
0
VERTEX
8
ARKA_OUTLINE
10
348.929717
20
1018.482605
30
0
42
-0.223923
0
VERTEX
8
ARKA_OUTLINE
10
462.070283
20
1018.482605
30
0
0
SEQEND
8
ARKA_OUTLINE
0
POLYLINE
8
ARKA_PANE
66
1
70
1
10
0
20
0
30
0
0
VERTEX
8
ARKA_PANE
10
595.154499
20
1244.991228
30
0
42
0.255774
0
VERTEX
8
ARKA_PANE
10
215.845501
20
1244.991228
30
0
0
VERTEX
8
ARKA_PANE
10
348.124407
20
1015.877442
30
0
42
-0.231328
0
VERTEX
8
ARKA_PANE
10
462.875593
20
1015.877442
30
0
0
SEQEND
8
ARKA_PANE
0
POLYLINE
8
ARKA_FRONT_HINGES_3MM
66
1
70
1
10
0
20
0
30
0
0
VERTEX
8
ARKA_FRONT_HINGES_3MM
10
606.133354
20
1248.007163
30
0
42
0.26662
0
VERTEX
8
ARKA_FRONT_HINGES_3MM
10
204.866646
20
1248.007163
30
0
0
VERTEX
8
ARKA_FRONT_HINGES_3MM
10
345.043064
20
1005.214485
30
0
42
-0.263585
0
VERTEX
8
ARKA_FRONT_HINGES_3MM
10
465.956936
20
1005.214485
30
0
0
SEQEND
8
ARKA_FRONT_HINGES_3MM
0
POLYLINE
8
ARKA_OUTLINE
66
1
70
1
10
0
20
0
30
0
0
VERTEX
8
ARKA_OUTLINE
10
199.550708
20
1233.214638
30
0
42
0.253003
0
VERTEX
8
ARKA_OUTLINE
10
12.653974
20
909.5
30
0
0
VERTEX
8
ARKA_OUTLINE
10
273.306874
20
909.5
30
0
42
-0.223923
0
VERTEX
8
ARKA_OUTLINE
10
329.877158
20
1007.482605
30
0
0
SEQEND
8
ARKA_OUTLINE
0
POLYLINE
8
ARKA_PANE
66
1
70
1
10
0
20
0
30
0
0
VERTEX
8
ARKA_PANE
10
200.257044
20
1235.991228
30
0
42
0.255774
0
VERTEX
8
ARKA_PANE
10
10.602545
20
907.5
30
0
0
VERTEX
8
ARKA_PANE
10
275.160357
20
907.5
30
0
42
-0.231328
0
VERTEX
8
ARKA_PANE
10
332.53595
20
1006.877442
30
0
0
SEQEND
8
ARKA_PANE
0
POLYLINE
8
ARKA_FRONT_HINGES_3MM
66
1
70
1
10
0
20
0
30
0
0
VERTEX
8
ARKA_FRONT_HINGES_3MM
10
203.134595
20
1247.007163
30
0
42
0.26662
0
VERTEX
8
ARKA_FRONT_HINGES_3MM
10
2.501241
20
899.5
30
0
0
VERTEX
8
ARKA_FRONT_HINGES_3MM
10
282.854077
20
899.5
30
0
42
-0.263585
0
VERTEX
8
ARKA_FRONT_HINGES_3MM
10
343.311013
20
1004.214485
30
0
0
SEQEND
8
ARKA_FRONT_HINGES_3MM
0
POLYLINE
8
ARKA_MITRE
66
1
70
0
10
0
20
0
30
0
0
VERTEX
8
ARKA_MITRE
10
2.5
20
17.5
30
0
0
VERTEX
8
ARKA_MITRE
10
2.5
20
2.5
30
0
0
VERTEX
8
ARKA_MITRE
10
17.5
20
2.5
30
0
0
SEQEND
8
ARKA_MITRE
0
POLYLINE
8
ARKA_MITRE
66
1
70
0
10
0
20
0
30
0
0
VERTEX
8
ARKA_MITRE
10
267.85
20
2.5
30
0
0
VERTEX
8
ARKA_MITRE
10
282.85
20
2.5
30
0
0
VERTEX
8
ARKA_MITRE
10
282.85
20
17.5
30
0
0
SEQEND
8
ARKA_MITRE
0
POLYLINE
8
ARKA_MITRE
66
1
70
0
10
0
20
0
30
0
0
VERTEX
8
ARKA_MITRE
10
282.85
20
882.5
30
0
0
VERTEX
8
ARKA_MITRE
10
282.85
20
897.5
30
0
0
VERTEX
8
ARKA_MITRE
10
267.85
20
897.5
30
0
0
SEQEND
8
ARKA_MITRE
0
POLYLINE
8
ARKA_MITRE
66
1
70
0
10
0
20
0
30
0
0
VERTEX
8
ARKA_MITRE
10
17.5
20
897.5
30
0
0
VERTEX
8
ARKA_MITRE
10
2.5
20
897.5
30
0
0
VERTEX
8
ARKA_MITRE
10
2.5
20
882.5
30
0
0
SEQEND
8
ARKA_MITRE
0
POLYLINE
8
ARKA_MITRE
66
1
70
0
10
0
20
0
30
0
0
VERTEX
8
ARKA_MITRE
10
284.85
20
17.5
30
0
0
VERTEX
8
ARKA_MITRE
10
284.85
20
2.5
30
0
0
VERTEX
8
ARKA_MITRE
10
299.85
20
2.5
30
0
0
SEQEND
8
ARKA_MITRE
0
POLYLINE
8
ARKA_MITRE
66
1
70
0
10
0
20
0
30
0
0
VERTEX
8
ARKA_MITRE
10
511.15
20
2.5
30
0
0
VERTEX
8
ARKA_MITRE
10
526.15
20
2.5
30
0
0
VERTEX
8
ARKA_MITRE
10
526.15
20
17.5
30
0
0
SEQEND
8
ARKA_MITRE
0
POLYLINE
8
ARKA_MITRE
66
1
70
0
10
0
20
0
30
0
0
VERTEX
8
ARKA_MITRE
10
528.15
20
17.5
30
0
0
VERTEX
8
ARKA_MITRE
10
528.15
20
2.5
30
0
0
VERTEX
8
ARKA_MITRE
10
543.15
20
2.5
30
0
0
SEQEND
8
ARKA_MITRE
0
POLYLINE
8
ARKA_MITRE
66
1
70
0
10
0
20
0
30
0
0
VERTEX
8
ARKA_MITRE
10
793.5
20
2.5
30
0
0
VERTEX
8
ARKA_MITRE
10
808.5
20
2.5
30
0
0
VERTEX
8
ARKA_MITRE
10
808.5
20
17.5
30
0
0
SEQEND
8
ARKA_MITRE
0
POLYLINE
8
ARKA_MITRE
66
1
70
0
10
0
20
0
30
0
0
VERTEX
8
ARKA_MITRE
10
808.5
20
882.5
30
0
0
VERTEX
8
ARKA_MITRE
10
808.5
20
897.5
30
0
0
VERTEX
8
ARKA_MITRE
10
793.5
20
897.5
30
0
0
SEQEND
8
ARKA_MITRE
0
POLYLINE
8
ARKA_MITRE
66
1
70
0
10
0
20
0
30
0
0
VERTEX
8
ARKA_MITRE
10
543.15
20
897.5
30
0
0
VERTEX
8
ARKA_MITRE
10
528.15
20
897.5
30
0
0
VERTEX
8
ARKA_MITRE
10
528.15
20
882.5
30
0
0
SEQEND
8
ARKA_MITRE
0
POLYLINE
8
ARKA_MITRE
66
1
70
0
10
0
20
0
30
0
0
VERTEX
8
ARKA_MITRE
10
793.498759
20
899.5
30
0
0
VERTEX
8
ARKA_MITRE
10
808.498759
20
899.5
30
0
42
0.009305
0
VERTEX
8
ARKA_MITRE
10
808.182424
20
914.495798
30
0
0
SEQEND
8
ARKA_MITRE
0
POLYLINE
8
ARKA_MITRE
66
1
70
0
10
0
20
0
30
0
0
VERTEX
8
ARKA_MITRE
10
620.693979
20
1239.23531
30
0
42
0.009305
0
VERTEX
8
ARKA_MITRE
10
607.865405
20
1247.007163
30
0
0
VERTEX
8
ARKA_MITRE
10
600.365405
20
1234.016782
30
0
0
SEQEND
8
ARKA_MITRE
0
POLYLINE
8
ARKA_MITRE
66
1
70
0
10
0
20
0
30
0
0
VERTEX
8
ARKA_MITRE
10
475.188987
20
1017.204866
30
0
0
VERTEX
8
ARKA_MITRE
10
467.688987
20
1004.214485
30
0
42
-0.030584
0
VERTEX
8
ARKA_MITRE
10
480.121077
20
995.83816
30
0
0
SEQEND
8
ARKA_MITRE
0
POLYLINE
8
ARKA_MITRE
66
1
70
0
10
0
20
0
30
0
0
VERTEX
8
ARKA_MITRE
10
527.107858
20
914.454669
30
0
42
-0.030584
0
VERTEX
8
ARKA_MITRE
10
528.145923
20
899.5
30
0
0
VERTEX
8
ARKA_MITRE
10
543.145923
20
899.5
30
0
0
SEQEND
8
ARKA_MITRE
0
POLYLINE
8
ARKA_MITRE
66
1
70
0
10
0
20
0
30
0
0
VERTEX
8
ARKA_MITRE
10
598.633354
20
1235.016782
30
0
0
VERTEX
8
ARKA_MITRE
10
606.133354
20
1248.007163
30
0
42
0.009305
0
VERTEX
8
ARKA_MITRE
10
592.988445
20
1255.231108
30
0
0
SEQEND
8
ARKA_MITRE
0
POLYLINE
8
ARKA_MITRE
66
1
70
0
10
0
20
0
30
0
0
VERTEX
8
ARKA_MITRE
10
218.011555
20
1255.231108
30
0
42
0.009305
0
VERTEX
8
ARKA_MITRE
10
204.866646
20
1248.007163
30
0
0
VERTEX
8
ARKA_MITRE
10
212.366646
20
1235.016782
30
0
0
SEQEND
8
ARKA_MITRE
0
POLYLINE
8
ARKA_MITRE
66
1
70
0
10
0
20
0
30
0
0
VERTEX
8
ARKA_MITRE
10
337.543064
20
1018.204866
30
0
0
VERTEX
8
ARKA_MITRE
10
345.043064
20
1005.214485
30
0
42
-0.030584
0
VERTEX
8
ARKA_MITRE
10
358.51322
20
1011.792828
30
0
0
SEQEND
8
ARKA_MITRE
0
POLYLINE
8
ARKA_MITRE
66
1
70
0
10
0
20
0
30
0
0
VERTEX
8
ARKA_MITRE
10
452.48678
20
1011.792828
30
0
42
-0.030584
0
VERTEX
8
ARKA_MITRE
10
465.956936
20
1005.214485
30
0
0
VERTEX
8
ARKA_MITRE
10
473.456936
20
1018.204866
30
0
0
SEQEND
8
ARKA_MITRE
0
POLYLINE
8
ARKA_MITRE
66
1
70
0
10
0
20
0
30
0
0
VERTEX
8
ARKA_MITRE
10
210.634595
20
1234.016782
30
0
0
VERTEX
8
ARKA_MITRE
10
203.134595
20
1247.007163
30
0
42
0.009305
0
VERTEX
8
ARKA_MITRE
10
190.306021
20
1239.23531
30
0
0
SEQEND
8
ARKA_MITRE
0
POLYLINE
8
ARKA_MITRE
66
1
70
0
10
0
20
0
30
0
0
VERTEX
8
ARKA_MITRE
10
2.817576
20
914.495798
30
0
42
0.009305
0
VERTEX
8
ARKA_MITRE
10
2.501241
20
899.5
30
0
0
VERTEX
8
ARKA_MITRE
10
17.501241
20
899.5
30
0
0
SEQEND
8
ARKA_MITRE
0
POLYLINE
8
ARKA_MITRE
66
1
70
0
10
0
20
0
30
0
0
VERTEX
8
ARKA_MITRE
10
267.854077
20
899.5
30
0
0
VERTEX
8
ARKA_MITRE
10
282.854077
20
899.5
30
0
42
-0.030584
0
VERTEX
8
ARKA_MITRE
10
283.892142
20
914.454669
30
0
0
SEQEND
8
ARKA_MITRE
0
POLYLINE
8
ARKA_MITRE
66
1
70
0
10
0
20
0
30
0
0
VERTEX
8
ARKA_MITRE
10
330.878923
20
995.83816
30
0
42
-0.030584
0
VERTEX
8
ARKA_MITRE
10
343.311013
20
1004.214485
30
0
0
VERTEX
8
ARKA_MITRE
10
335.811013
20
1017.204866
30
0
0
SEQEND
8
ARKA_MITRE
0
POINT
8
ARKA_CENTRE
10
405.5
20
898.5
30
0
0
POLYLINE
8
ARKA_SECTION
66
1
70
0
10
0
20
0
30
0
0
VERTEX
8
ARKA_SECTION
10
916.5
20
-5.5
30
0
42
-0.414214
0
VERTEX
8
ARKA_SECTION
10
924.5
20
2.5
30
0
0
VERTEX
8
ARKA_SECTION
10
924.5
20
8.5
30
0
0
SEQEND
8
ARKA_SECTION
0
TEXT
8
ARKA_INFO_NO_CUT
10
912.5
20
-24.5
30
0
40
15
1
START
72
0
11
912.5
21
-24.5
31
0
73
0
0
TEXT
8
ARKA_INFO_NO_CUT
10
936.5
20
-1.5
30
0
40
15
1
SECTION R8 + 6 (VERBATIM)
72
0
11
936.5
21
-1.5
31
0
73
0
0
TEXT
8
ARKA_INFO_NO_CUT
10
916.5
20
1287.5
30
0
40
15
1
hub - TRACERY FULL
72
0
11
916.5
21
1287.5
31
0
73
0
0
TEXT
8
ARKA_INFO_NO_CUT
10
916.5
20
1265.5
30
0
40
15
1
PATTERN HUB-SPOKE SPOKES 4 RINGS 1 PANES 6
72
0
11
916.5
21
1265.5
31
0
73
0
0
TEXT
8
ARKA_INFO_NO_CUT
10
916.5
20
1243.5
30
0
40
15
1
TIMBER BAR 22 EDGE MARGIN 18 PANE +2 LIMIT +10 MITRE LEG 15
72
0
11
916.5
21
1243.5
31
0
73
0
0
TEXT
8
ARKA_INFO_NO_CUT
10
916.5
20
1221.5
30
0
40
15
1
ARKA_PANE = MOULDING RAIL (INNER EDGE OF THE BEAD), ARKA_FRONT_HINGES_3MM = BEAD LIMIT (NOT DRILLING)
72
0
11
916.5
21
1221.5
31
0
73
0
0
TEXT
8
ARKA_INFO_NO_CUT
10
916.5
20
1199.5
30
0
40
15
1
NOT A TOOLPATH
72
0
11
916.5
21
1199.5
31
0
73
0
0
ENDSEC
0
EOF
