0
SECTION
2
HEADER
9
$ACADVER
1
AC1009
0
ENDSEC
0
SECTION
2
TABLES
0
TABLE
2
LAYER
70
7
0
LAYER
2
0
70
0
62
7
6
CONTINUOUS
0
LAYER
2
FIT
70
0
62
4
6
CONTINUOUS
0
LAYER
2
CONTOUR
70
0
62
7
6
CONTINUOUS
0
LAYER
2
ASSEMBLY
70
0
62
8
6
CONTINUOUS
0
LAYER
2
PIECES
70
0
62
5
6
CONTINUOUS
0
LAYER
2
FINGER
70
0
62
1
6
CONTINUOUS
0
LAYER
2
TEXT
70
0
62
94
6
CONTINUOUS
0
ENDTAB
0
ENDSEC
0
SECTION
2
ENTITIES
0
POLYLINE
8
ASSEMBLY
66
1
70
1
10
0
20
0
30
0
0
VERTEX
8
ASSEMBLY
10
0
20
0
30
0
0
VERTEX
8
ASSEMBLY
10
84.548196
20
0
30
0
0
VERTEX
8
ASSEMBLY
10
84.548196
20
95
30
0
0
VERTEX
8
ASSEMBLY
10
0
20
95
30
0
0
SEQEND
8
ASSEMBLY
0
POLYLINE
8
PIECES
66
1
70
1
10
0
20
0
30
0
0
VERTEX
8
PIECES
10
81.650354
20
76.988104
30
0
42
0.148069
0
VERTEX
8
PIECES
10
17.897841
20
76.988104
30
0
0
VERTEX
8
PIECES
10
37.313379
20
12.862939
30
0
42
-0.148069
0
VERTEX
8
PIECES
10
62.234816
20
12.862939
30
0
0
SEQEND
8
PIECES
0
POLYLINE
8
FINGER
66
1
70
0
10
0
20
0
30
0
0
VERTEX
8
FINGER
10
37.313379
20
12.862939
30
0
0
VERTEX
8
FINGER
10
17.897841
20
76.988104
30
0
0
SEQEND
8
FINGER
0
POLYLINE
8
FINGER
66
1
70
0
10
0
20
0
30
0
0
VERTEX
8
FINGER
10
16
20
0
30
0
0
VERTEX
8
FINGER
10
16
20
95
30
0
0
SEQEND
8
FINGER
0
TEXT
8
TEXT
10
42.274098
20
57.5
30
0
40
15
1
W1 - LEAF TOP P1 L84.5 x95
72
1
11
42.274098
21
57.5
31
0
73
2
0
TEXT
8
TEXT
10
42.274098
20
10
30
0
40
10
1
OUT 69.5 IN 19.1 CUT J16.8/S73.2 FINGER ONE END
72
1
11
42.274098
21
10
31
0
73
2
0
POLYLINE
8
ASSEMBLY
66
1
70
1
10
0
20
0
30
0
0
VERTEX
8
ASSEMBLY
10
284.548196
20
0
30
0
0
VERTEX
8
ASSEMBLY
10
384.096391
20
0
30
0
0
VERTEX
8
ASSEMBLY
10
384.096391
20
95
30
0
0
VERTEX
8
ASSEMBLY
10
284.548196
20
95
30
0
0
SEQEND
8
ASSEMBLY
0
POLYLINE
8
PIECES
66
1
70
1
10
0
20
0
30
0
0
VERTEX
8
PIECES
10
366.19855
20
76.988104
30
0
42
0.148069
0
VERTEX
8
PIECES
10
302.446037
20
76.988104
30
0
0
VERTEX
8
PIECES
10
321.861575
20
12.862939
30
0
42
-0.148069
0
VERTEX
8
PIECES
10
346.783012
20
12.862939
30
0
0
SEQEND
8
PIECES
0
POLYLINE
8
FINGER
66
1
70
0
10
0
20
0
30
0
0
VERTEX
8
FINGER
10
346.783012
20
12.862939
30
0
0
VERTEX
8
FINGER
10
366.19855
20
76.988104
30
0
0
SEQEND
8
FINGER
0
POLYLINE
8
FINGER
66
1
70
0
10
0
20
0
30
0
0
VERTEX
8
FINGER
10
321.861575
20
12.862939
30
0
0
VERTEX
8
FINGER
10
302.446037
20
76.988104
30
0
0
SEQEND
8
FINGER
0
POLYLINE
8
FINGER
66
1
70
0
10
0
20
0
30
0
0
VERTEX
8
FINGER
10
300.548196
20
0
30
0
0
VERTEX
8
FINGER
10
300.548196
20
95
30
0
0
SEQEND
8
FINGER
0
POLYLINE
8
FINGER
66
1
70
0
10
0
20
0
30
0
0
VERTEX
8
FINGER
10
368.096391
20
0
30
0
0
VERTEX
8
FINGER
10
368.096391
20
95
30
0
0
SEQEND
8
FINGER
0
TEXT
8
TEXT
10
334.322294
20
57.5
30
0
40
15
1
W1 - LEAF TOP P2 L99.5 x95
72
1
11
334.322294
21
57.5
31
0
73
2
0
TEXT
8
TEXT
10
334.322294
20
10
30
0
40
10
1
OUT 69.5 IN 19.1 CUT J16.8/J16.8 FINGER BOTH ENDS
72
1
11
334.322294
21
10
31
0
73
2
0
POLYLINE
8
ASSEMBLY
66
1
70
1
10
0
20
0
30
0
0
VERTEX
8
ASSEMBLY
10
584.096391
20
0
30
0
0
VERTEX
8
ASSEMBLY
10
868.323446
20
0
30
0
0
VERTEX
8
ASSEMBLY
10
868.323446
20
95
30
0
0
VERTEX
8
ASSEMBLY
10
584.096391
20
95
30
0
0
SEQEND
8
ASSEMBLY
0
POLYLINE
8
PIECES
66
1
70
1
10
0
20
0
30
0
0
VERTEX
8
PIECES
10
852.33807
20
77.697962
30
0
42
0.049389
0
VERTEX
8
PIECES
10
600.081768
20
77.697962
30
0
0
VERTEX
8
PIECES
10
606.683788
20
11.024029
30
0
42
-0.049389
0
VERTEX
8
PIECES
10
845.736049
20
11.024029
30
0
0
SEQEND
8
PIECES
0
POLYLINE
8
FINGER
66
1
70
0
10
0
20
0
30
0
0
VERTEX
8
FINGER
10
845.736049
20
11.024029
30
0
0
VERTEX
8
FINGER
10
852.33807
20
77.697962
30
0
0
SEQEND
8
FINGER
0
POLYLINE
8
FINGER
66
1
70
0
10
0
20
0
30
0
0
VERTEX
8
FINGER
10
606.683788
20
11.024029
30
0
0
VERTEX
8
FINGER
10
600.081768
20
77.697962
30
0
0
SEQEND
8
FINGER
0
POLYLINE
8
FINGER
66
1
70
0
10
0
20
0
30
0
0
VERTEX
8
FINGER
10
600.096391
20
0
30
0
0
VERTEX
8
FINGER
10
600.096391
20
95
30
0
0
SEQEND
8
FINGER
0
POLYLINE
8
FINGER
66
1
70
0
10
0
20
0
30
0
0
VERTEX
8
FINGER
10
852.323446
20
0
30
0
0
VERTEX
8
FINGER
10
852.323446
20
95
30
0
0
SEQEND
8
FINGER
0
TEXT
8
TEXT
10
726.209919
20
57.5
30
0
40
15
1
W1 - LEAF TOP P3 L284.2 x95
72
1
11
726.209919
21
57.5
31
0
73
2
0
TEXT
8
TEXT
10
726.209919
20
10
30
0
40
10
1
OUT 254.2 IN 237.1 CUT J5.7/J5.7 FINGER BOTH ENDS
72
1
11
726.209919
21
10
31
0
73
2
0
POLYLINE
8
ASSEMBLY
66
1
70
1
10
0
20
0
30
0
0
VERTEX
8
ASSEMBLY
10
1068.323446
20
0
30
0
0
VERTEX
8
ASSEMBLY
10
1352.5505
20
0
30
0
0
VERTEX
8
ASSEMBLY
10
1352.5505
20
95
30
0
0
VERTEX
8
ASSEMBLY
10
1068.323446
20
95
30
0
0
SEQEND
8
ASSEMBLY
0
POLYLINE
8
PIECES
66
1
70
1
10
0
20
0
30
0
0
VERTEX
8
PIECES
10
1336.565124
20
77.697962
30
0
42
0.049389
0
VERTEX
8
PIECES
10
1084.308822
20
77.697962
30
0
0
VERTEX
8
PIECES
10
1090.910842
20
11.024029
30
0
42
-0.049389
0
VERTEX
8
PIECES
10
1329.963103
20
11.024029
30
0
0
SEQEND
8
PIECES
0
POLYLINE
8
FINGER
66
1
70
0
10
0
20
0
30
0
0
VERTEX
8
FINGER
10
1329.963103
20
11.024029
30
0
0
VERTEX
8
FINGER
10
1336.565124
20
77.697962
30
0
0
SEQEND
8
FINGER
0
POLYLINE
8
FINGER
66
1
70
0
10
0
20
0
30
0
0
VERTEX
8
FINGER
10
1090.910842
20
11.024029
30
0
0
VERTEX
8
FINGER
10
1084.308822
20
77.697962
30
0
0
SEQEND
8
FINGER
0
POLYLINE
8
FINGER
66
1
70
0
10
0
20
0
30
0
0
VERTEX
8
FINGER
10
1084.323446
20
0
30
0
0
VERTEX
8
FINGER
10
1084.323446
20
95
30
0
0
SEQEND
8
FINGER
0
POLYLINE
8
FINGER
66
1
70
0
10
0
20
0
30
0
0
VERTEX
8
FINGER
10
1336.5505
20
0
30
0
0
VERTEX
8
FINGER
10
1336.5505
20
95
30
0
0
SEQEND
8
FINGER
0
TEXT
8
TEXT
10
1210.436973
20
57.5
30
0
40
15
1
W1 - LEAF TOP P4 L284.2 x95
72
1
11
1210.436973
21
57.5
31
0
73
2
0
TEXT
8
TEXT
10
1210.436973
20
10
30
0
40
10
1
OUT 254.2 IN 237.1 CUT J5.7/J5.7 FINGER BOTH ENDS
72
1
11
1210.436973
21
10
31
0
73
2
0
POLYLINE
8
ASSEMBLY
66
1
70
1
10
0
20
0
30
0
0
VERTEX
8
ASSEMBLY
10
1552.5505
20
0
30
0
0
VERTEX
8
ASSEMBLY
10
1836.777554
20
0
30
0
0
VERTEX
8
ASSEMBLY
10
1836.777554
20
95
30
0
0
VERTEX
8
ASSEMBLY
10
1552.5505
20
95
30
0
0
SEQEND
8
ASSEMBLY
0
POLYLINE
8
PIECES
66
1
70
1
10
0
20
0
30
0
0
VERTEX
8
PIECES
10
1820.792178
20
77.697962
30
0
42
0.049389
0
VERTEX
8
PIECES
10
1568.535876
20
77.697962
30
0
0
VERTEX
8
PIECES
10
1575.137897
20
11.024029
30
0
42
-0.049389
0
VERTEX
8
PIECES
10
1814.190158
20
11.024029
30
0
0
SEQEND
8
PIECES
0
POLYLINE
8
FINGER
66
1
70
0
10
0
20
0
30
0
0
VERTEX
8
FINGER
10
1814.190158
20
11.024029
30
0
0
VERTEX
8
FINGER
10
1820.792178
20
77.697962
30
0
0
SEQEND
8
FINGER
0
POLYLINE
8
FINGER
66
1
70
0
10
0
20
0
30
0
0
VERTEX
8
FINGER
10
1575.137897
20
11.024029
30
0
0
VERTEX
8
FINGER
10
1568.535876
20
77.697962
30
0
0
SEQEND
8
FINGER
0
POLYLINE
8
FINGER
66
1
70
0
10
0
20
0
30
0
0
VERTEX
8
FINGER
10
1568.5505
20
0
30
0
0
VERTEX
8
FINGER
10
1568.5505
20
95
30
0
0
SEQEND
8
FINGER
0
POLYLINE
8
FINGER
66
1
70
0
10
0
20
0
30
0
0
VERTEX
8
FINGER
10
1820.777554
20
0
30
0
0
VERTEX
8
FINGER
10
1820.777554
20
95
30
0
0
SEQEND
8
FINGER
0
TEXT
8
TEXT
10
1694.664027
20
57.5
30
0
40
15
1
W1 - LEAF TOP P5 L284.2 x95
72
1
11
1694.664027
21
57.5
31
0
73
2
0
TEXT
8
TEXT
10
1694.664027
20
10
30
0
40
10
1
OUT 254.2 IN 237.1 CUT J5.7/J5.7 FINGER BOTH ENDS
72
1
11
1694.664027
21
10
31
0
73
2
0
POLYLINE
8
ASSEMBLY
66
1
70
1
10
0
20
0
30
0
0
VERTEX
8
ASSEMBLY
10
2036.777554
20
0
30
0
0
VERTEX
8
ASSEMBLY
10
2321.004609
20
0
30
0
0
VERTEX
8
ASSEMBLY
10
2321.004609
20
95
30
0
0
VERTEX
8
ASSEMBLY
10
2036.777554
20
95
30
0
0
SEQEND
8
ASSEMBLY
0
POLYLINE
8
PIECES
66
1
70
1
10
0
20
0
30
0
0
VERTEX
8
PIECES
10
2305.019233
20
77.697962
30
0
42
0.049389
0
VERTEX
8
PIECES
10
2052.762931
20
77.697962
30
0
0
VERTEX
8
PIECES
10
2059.364951
20
11.024029
30
0
42
-0.049389
0
VERTEX
8
PIECES
10
2298.417212
20
11.024029
30
0
0
SEQEND
8
PIECES
0
POLYLINE
8
FINGER
66
1
70
0
10
0
20
0
30
0
0
VERTEX
8
FINGER
10
2298.417212
20
11.024029
30
0
0
VERTEX
8
FINGER
10
2305.019233
20
77.697962
30
0
0
SEQEND
8
FINGER
0
POLYLINE
8
FINGER
66
1
70
0
10
0
20
0
30
0
0
VERTEX
8
FINGER
10
2059.364951
20
11.024029
30
0
0
VERTEX
8
FINGER
10
2052.762931
20
77.697962
30
0
0
SEQEND
8
FINGER
0
POLYLINE
8
FINGER
66
1
70
0
10
0
20
0
30
0
0
VERTEX
8
FINGER
10
2052.777554
20
0
30
0
0
VERTEX
8
FINGER
10
2052.777554
20
95
30
0
0
SEQEND
8
FINGER
0
POLYLINE
8
FINGER
66
1
70
0
10
0
20
0
30
0
0
VERTEX
8
FINGER
10
2305.004609
20
0
30
0
0
VERTEX
8
FINGER
10
2305.004609
20
95
30
0
0
SEQEND
8
FINGER
0
TEXT
8
TEXT
10
2178.891082
20
57.5
30
0
40
15
1
W1 - LEAF TOP P6 L284.2 x95
72
1
11
2178.891082
21
57.5
31
0
73
2
0
TEXT
8
TEXT
10
2178.891082
20
10
30
0
40
10
1
OUT 254.2 IN 237.1 CUT J5.7/J5.7 FINGER BOTH ENDS
72
1
11
2178.891082
21
10
31
0
73
2
0
POLYLINE
8
ASSEMBLY
66
1
70
1
10
0
20
0
30
0
0
VERTEX
8
ASSEMBLY
10
2521.004609
20
0
30
0
0
VERTEX
8
ASSEMBLY
10
2620.552804
20
0
30
0
0
VERTEX
8
ASSEMBLY
10
2620.552804
20
95
30
0
0
VERTEX
8
ASSEMBLY
10
2521.004609
20
95
30
0
0
SEQEND
8
ASSEMBLY
0
POLYLINE
8
PIECES
66
1
70
1
10
0
20
0
30
0
0
VERTEX
8
PIECES
10
2602.654963
20
76.988104
30
0
42
0.148069
0
VERTEX
8
PIECES
10
2538.90245
20
76.988104
30
0
0
VERTEX
8
PIECES
10
2558.317988
20
12.862939
30
0
42
-0.148069
0
VERTEX
8
PIECES
10
2583.239425
20
12.862939
30
0
0
SEQEND
8
PIECES
0
POLYLINE
8
FINGER
66
1
70
0
10
0
20
0
30
0
0
VERTEX
8
FINGER
10
2583.239425
20
12.862939
30
0
0
VERTEX
8
FINGER
10
2602.654963
20
76.988104
30
0
0
SEQEND
8
FINGER
0
POLYLINE
8
FINGER
66
1
70
0
10
0
20
0
30
0
0
VERTEX
8
FINGER
10
2558.317988
20
12.862939
30
0
0
VERTEX
8
FINGER
10
2538.90245
20
76.988104
30
0
0
SEQEND
8
FINGER
0
POLYLINE
8
FINGER
66
1
70
0
10
0
20
0
30
0
0
VERTEX
8
FINGER
10
2537.004609
20
0
30
0
0
VERTEX
8
FINGER
10
2537.004609
20
95
30
0
0
SEQEND
8
FINGER
0
POLYLINE
8
FINGER
66
1
70
0
10
0
20
0
30
0
0
VERTEX
8
FINGER
10
2604.552804
20
0
30
0
0
VERTEX
8
FINGER
10
2604.552804
20
95
30
0
0
SEQEND
8
FINGER
0
TEXT
8
TEXT
10
2570.778707
20
57.5
30
0
40
15
1
W1 - LEAF TOP P7 L99.5 x95
72
1
11
2570.778707
21
57.5
31
0
73
2
0
TEXT
8
TEXT
10
2570.778707
20
10
30
0
40
10
1
OUT 69.5 IN 19.1 CUT J16.8/J16.8 FINGER BOTH ENDS
72
1
11
2570.778707
21
10
31
0
73
2
0
POLYLINE
8
ASSEMBLY
66
1
70
1
10
0
20
0
30
0
0
VERTEX
8
ASSEMBLY
10
2820.552804
20
0
30
0
0
VERTEX
8
ASSEMBLY
10
2905.101
20
0
30
0
0
VERTEX
8
ASSEMBLY
10
2905.101
20
95
30
0
0
VERTEX
8
ASSEMBLY
10
2820.552804
20
95
30
0
0
SEQEND
8
ASSEMBLY
0
POLYLINE
8
PIECES
66
1
70
1
10
0
20
0
30
0
0
VERTEX
8
PIECES
10
2887.203159
20
76.988104
30
0
42
0.148069
0
VERTEX
8
PIECES
10
2823.450646
20
76.988104
30
0
0
VERTEX
8
PIECES
10
2842.866184
20
12.862939
30
0
42
-0.148069
0
VERTEX
8
PIECES
10
2867.787621
20
12.862939
30
0
0
SEQEND
8
PIECES
0
POLYLINE
8
FINGER
66
1
70
0
10
0
20
0
30
0
0
VERTEX
8
FINGER
10
2867.787621
20
12.862939
30
0
0
VERTEX
8
FINGER
10
2887.203159
20
76.988104
30
0
0
SEQEND
8
FINGER
0
POLYLINE
8
FINGER
66
1
70
0
10
0
20
0
30
0
0
VERTEX
8
FINGER
10
2889.101
20
0
30
0
0
VERTEX
8
FINGER
10
2889.101
20
95
30
0
0
SEQEND
8
FINGER
0
TEXT
8
TEXT
10
2862.826902
20
57.5
30
0
40
15
1
W1 - LEAF TOP P8 L84.5 x95
72
1
11
2862.826902
21
57.5
31
0
73
2
0
TEXT
8
TEXT
10
2862.826902
20
10
30
0
40
10
1
OUT 69.5 IN 19.1 CUT S73.2/J16.8 FINGER ONE END
72
1
11
2862.826902
21
10
31
0
73
2
0
POLYLINE
8
CONTOUR
66
1
70
1
10
0
20
0
30
0
0
VERTEX
8
CONTOUR
10
1138.07879
20
320.083433
30
0
42
0.302776
0
VERTEX
8
CONTOUR
10
1070.386482
20
421.621895
30
0
42
0.2
0
VERTEX
8
CONTOUR
10
85.771098
20
421.621895
30
0
42
0.302776
0
VERTEX
8
CONTOUR
10
18.07879
20
320.083433
30
0
0
VERTEX
8
CONTOUR
10
85.07879
20
320.083433
30
0
42
-0.302776
0
VERTEX
8
CONTOUR
10
111.540329
20
359.775741
30
0
42
-0.2
0
VERTEX
8
CONTOUR
10
1044.617252
20
359.775741
30
0
42
-0.302776
0
VERTEX
8
CONTOUR
10
1071.07879
20
320.083433
30
0
0
SEQEND
8
CONTOUR
0
POLYLINE
8
ASSEMBLY
66
1
70
1
10
0
20
0
30
0
0
VERTEX
8
ASSEMBLY
10
1065.233838
20
295
30
0
0
VERTEX
8
ASSEMBLY
10
1045.079873
20
361.564024
30
0
0
VERTEX
8
ASSEMBLY
10
1136.003616
20
389.093518
30
0
0
VERTEX
8
ASSEMBLY
10
1156.15758
20
322.529494
30
0
0
SEQEND
8
ASSEMBLY
0
POLYLINE
8
FINGER
66
1
70
0
10
0
20
0
30
0
0
VERTEX
8
FINGER
10
1063.856953
20
343.935542
30
0
0
VERTEX
8
FINGER
10
1119.604322
20
381.100455
30
0
0
SEQEND
8
FINGER
0
POLYLINE
8
ASSEMBLY
66
1
70
1
10
0
20
0
30
0
0
VERTEX
8
ASSEMBLY
10
1072.907444
20
319.822667
30
0
0
VERTEX
8
ASSEMBLY
10
1019.215255
20
364.027875
30
0
0
VERTEX
8
ASSEMBLY
10
1079.597766
20
437.369216
30
0
0
VERTEX
8
ASSEMBLY
10
1133.289955
20
393.164009
30
0
0
SEQEND
8
ASSEMBLY
0
POLYLINE
8
FINGER
66
1
70
0
10
0
20
0
30
0
0
VERTEX
8
FINGER
10
1044.617252
20
359.775741
30
0
0
VERTEX
8
FINGER
10
1070.386482
20
421.621895
30
0
0
SEQEND
8
FINGER
0
POLYLINE
8
ASSEMBLY
66
1
70
1
10
0
20
0
30
0
0
VERTEX
8
ASSEMBLY
10
1048.657818
20
347.017542
30
0
0
VERTEX
8
ASSEMBLY
10
805.493786
20
421.197383
30
0
0
VERTEX
8
ASSEMBLY
10
833.213436
20
512.063334
30
0
0
VERTEX
8
ASSEMBLY
10
1076.377467
20
437.883493
30
0
0
SEQEND
8
ASSEMBLY
0
POLYLINE
8
FINGER
66
1
70
0
10
0
20
0
30
0
0
VERTEX
8
FINGER
10
815.967662
20
429.527793
30
0
0
VERTEX
8
FINGER
10
829.107443
20
495.226698
30
0
0
SEQEND
8
FINGER
0
POLYLINE
8
ASSEMBLY
66
1
70
1
10
0
20
0
30
0
0
VERTEX
8
ASSEMBLY
10
822.431852
20
417.80977
30
0
0
VERTEX
8
ASSEMBLY
10
569.442037
20
442.860698
30
0
0
VERTEX
8
ASSEMBLY
10
578.803111
20
537.398364
30
0
0
VERTEX
8
ASSEMBLY
10
831.792925
20
512.347436
30
0
0
SEQEND
8
ASSEMBLY
0
POLYLINE
8
FINGER
66
1
70
0
10
0
20
0
30
0
0
VERTEX
8
FINGER
10
578.07879
20
453.083433
30
0
0
VERTEX
8
FINGER
10
578.07879
20
520.083433
30
0
0
SEQEND
8
FINGER
0
POLYLINE
8
ASSEMBLY
66
1
70
1
10
0
20
0
30
0
0
VERTEX
8
ASSEMBLY
10
586.715543
20
442.860698
30
0
0
VERTEX
8
ASSEMBLY
10
333.725729
20
417.80977
30
0
0
VERTEX
8
ASSEMBLY
10
324.364655
20
512.347436
30
0
0
VERTEX
8
ASSEMBLY
10
577.354469
20
537.398364
30
0
0
SEQEND
8
ASSEMBLY
0
POLYLINE
8
FINGER
66
1
70
0
10
0
20
0
30
0
0
VERTEX
8
FINGER
10
340.189918
20
429.527793
30
0
0
VERTEX
8
FINGER
10
327.050137
20
495.226698
30
0
0
SEQEND
8
FINGER
0
POLYLINE
8
ASSEMBLY
66
1
70
1
10
0
20
0
30
0
0
VERTEX
8
ASSEMBLY
10
350.663794
20
421.197383
30
0
0
VERTEX
8
ASSEMBLY
10
107.499763
20
347.017542
30
0
0
VERTEX
8
ASSEMBLY
10
79.780113
20
437.883493
30
0
0
VERTEX
8
ASSEMBLY
10
322.944145
20
512.063334
30
0
0
SEQEND
8
ASSEMBLY
0
POLYLINE
8
FINGER
66
1
70
0
10
0
20
0
30
0
0
VERTEX
8
FINGER
10
111.540329
20
359.775741
30
0
0
VERTEX
8
FINGER
10
85.771098
20
421.621895
30
0
0
SEQEND
8
FINGER
0
POLYLINE
8
ASSEMBLY
66
1
70
1
10
0
20
0
30
0
0
VERTEX
8
ASSEMBLY
10
136.942326
20
364.027875
30
0
0
VERTEX
8
ASSEMBLY
10
83.250136
20
319.822667
30
0
0
VERTEX
8
ASSEMBLY
10
22.867626
20
393.164009
30
0
0
VERTEX
8
ASSEMBLY
10
76.559815
20
437.369216
30
0
0
SEQEND
8
ASSEMBLY
0
POLYLINE
8
FINGER
66
1
70
0
10
0
20
0
30
0
0
VERTEX
8
FINGER
10
92.300627
20
343.935542
30
0
0
VERTEX
8
FINGER
10
36.553258
20
381.100455
30
0
0
SEQEND
8
FINGER
0
POLYLINE
8
ASSEMBLY
66
1
70
1
10
0
20
0
30
0
0
VERTEX
8
ASSEMBLY
10
111.077707
20
361.564024
30
0
0
VERTEX
8
ASSEMBLY
10
90.923743
20
295
30
0
0
VERTEX
8
ASSEMBLY
10
0
20
322.529494
30
0
0
VERTEX
8
ASSEMBLY
10
20.153965
20
389.093518
30
0
0
SEQEND
8
ASSEMBLY
0
TEXT
8
TEXT
10
1256.15758
20
518.898364
30
0
40
15
1
W1 - LEAF TOP
72
0
11
1256.15758
21
518.898364
31
0
73
0
0
TEXT
8
TEXT
10
1256.15758
20
496.898364
30
0
40
15
1
THREE-CENTRE W1200 RISE240 H2000 HINGE L
72
0
11
1256.15758
21
496.898364
31
0
73
0
0
TEXT
8
TEXT
10
1256.15758
20
474.898364
30
0
40
15
1
FACE 67 OFFSET 40 OUTER L1269.4 INNER L1058.9
72
0
11
1256.15758
21
474.898364
31
0
73
0
0
TEXT
8
TEXT
10
1256.15758
20
452.898364
30
0
40
15
1
ARC 1 R110 L129.4 67.4DEG: 2 x board 95 L69.5 ROUGH 99.5
72
0
11
1256.15758
21
452.898364
31
0
73
0
0
TEXT
8
TEXT
10
1256.15758
20
430.898364
30
0
40
15
1
ARC 2 R1280 L1010.7 45.2DEG: 4 x board 95 L254.2 ROUGH 284.2 (ALT 2 x board 180)
72
0
11
1256.15758
21
430.898364
31
0
73
0
0
TEXT
8
TEXT
10
1256.15758
20
408.898364
30
0
40
15
1
ARC 3 R110 L129.4 67.4DEG: 2 x board 95 L69.5 ROUGH 99.5
72
0
11
1256.15758
21
408.898364
31
0
73
0
0
TEXT
8
TEXT
10
1256.15758
20
386.898364
30
0
40
15
1
FINGER 15/16/3.8
72
0
11
1256.15758
21
386.898364
31
0
73
0
0
TEXT
8
TEXT
10
1256.15758
20
364.898364
30
0
40
15
1
ALLOWANCE 10 PER SIDE  MAX SEGMENT 36 DEG  RULE NARROWEST
72
0
11
1256.15758
21
364.898364
31
0
73
0
0
TEXT
8
TEXT
10
1256.15758
20
342.898364
30
0
40
15
1
CUT CODES: J = JOINT FROM SQUARE  S = ARCH-START, AXIS TO HORIZONTAL  A = APEX FROM SQUARE
72
0
11
1256.15758
21
342.898364
31
0
73
0
0
POLYLINE
8
ASSEMBLY
66
1
70
1
10
0
20
0
30
0
0
VERTEX
8
ASSEMBLY
10
0
20
737.398364
30
0
0
VERTEX
8
ASSEMBLY
10
107.730928
20
737.398364
30
0
0
VERTEX
8
ASSEMBLY
10
107.730928
20
832.398364
30
0
0
VERTEX
8
ASSEMBLY
10
0
20
832.398364
30
0
0
SEQEND
8
ASSEMBLY
0
POLYLINE
8
PIECES
66
1
70
1
10
0
20
0
30
0
0
VERTEX
8
PIECES
10
104.833086
20
808.742849
30
0
42
0.148069
0
VERTEX
8
PIECES
10
17.897841
20
808.742849
30
0
0
VERTEX
8
PIECES
10
34.415538
20
754.188604
30
0
42
-0.148069
0
VERTEX
8
PIECES
10
88.31539
20
754.188604
30
0
0
SEQEND
8
PIECES
0
POLYLINE
8
FINGER
66
1
70
0
10
0
20
0
30
0
0
VERTEX
8
FINGER
10
34.415538
20
754.188604
30
0
0
VERTEX
8
FINGER
10
17.897841
20
808.742849
30
0
0
SEQEND
8
FINGER
0
POLYLINE
8
FINGER
66
1
70
0
10
0
20
0
30
0
0
VERTEX
8
FINGER
10
16
20
737.398364
30
0
0
VERTEX
8
FINGER
10
16
20
832.398364
30
0
0
SEQEND
8
FINGER
0
TEXT
8
TEXT
10
53.865464
20
794.898364
30
0
40
15
1
W1 - FRAME HEAD P1 L107.7 x95
72
1
11
53.865464
21
794.898364
31
0
73
2
0
TEXT
8
TEXT
10
53.865464
20
747.398364
30
0
40
10
1
OUT 92.7 IN 48.1 CUT J16.8/S73.2 FINGER ONE END
72
1
11
53.865464
21
747.398364
31
0
73
2
0
POLYLINE
8
ASSEMBLY
66
1
70
1
10
0
20
0
30
0
0
VERTEX
8
ASSEMBLY
10
307.730928
20
737.398364
30
0
0
VERTEX
8
ASSEMBLY
10
430.461855
20
737.398364
30
0
0
VERTEX
8
ASSEMBLY
10
430.461855
20
832.398364
30
0
0
VERTEX
8
ASSEMBLY
10
307.730928
20
832.398364
30
0
0
SEQEND
8
ASSEMBLY
0
POLYLINE
8
PIECES
66
1
70
1
10
0
20
0
30
0
0
VERTEX
8
PIECES
10
412.564014
20
808.742849
30
0
42
0.148069
0
VERTEX
8
PIECES
10
325.628769
20
808.742849
30
0
0
VERTEX
8
PIECES
10
342.146466
20
754.188604
30
0
42
-0.148069
0
VERTEX
8
PIECES
10
396.046317
20
754.188604
30
0
0
SEQEND
8
PIECES
0
POLYLINE
8
FINGER
66
1
70
0
10
0
20
0
30
0
0
VERTEX
8
FINGER
10
396.046317
20
754.188604
30
0
0
VERTEX
8
FINGER
10
412.564014
20
808.742849
30
0
0
SEQEND
8
FINGER
0
POLYLINE
8
FINGER
66
1
70
0
10
0
20
0
30
0
0
VERTEX
8
FINGER
10
342.146466
20
754.188604
30
0
0
VERTEX
8
FINGER
10
325.628769
20
808.742849
30
0
0
SEQEND
8
FINGER
0
POLYLINE
8
FINGER
66
1
70
0
10
0
20
0
30
0
0
VERTEX
8
FINGER
10
323.730928
20
737.398364
30
0
0
VERTEX
8
FINGER
10
323.730928
20
832.398364
30
0
0
SEQEND
8
FINGER
0
POLYLINE
8
FINGER
66
1
70
0
10
0
20
0
30
0
0
VERTEX
8
FINGER
10
414.461855
20
737.398364
30
0
0
VERTEX
8
FINGER
10
414.461855
20
832.398364
30
0
0
SEQEND
8
FINGER
0
TEXT
8
TEXT
10
369.096391
20
794.898364
30
0
40
15
1
W1 - FRAME HEAD P2 L122.7 x95
72
1
11
369.096391
21
794.898364
31
0
73
2
0
TEXT
8
TEXT
10
369.096391
20
747.398364
30
0
40
10
1
OUT 92.7 IN 48.1 CUT J16.8/J16.8 FINGER BOTH ENDS
72
1
11
369.096391
21
747.398364
31
0
73
2
0
POLYLINE
8
ASSEMBLY
66
1
70
1
10
0
20
0
30
0
0
VERTEX
8
ASSEMBLY
10
630.461855
20
737.398364
30
0
0
VERTEX
8
ASSEMBLY
10
1009.500513
20
737.398364
30
0
0
VERTEX
8
ASSEMBLY
10
1009.500513
20
832.398364
30
0
0
VERTEX
8
ASSEMBLY
10
630.461855
20
832.398364
30
0
0
SEQEND
8
ASSEMBLY
0
POLYLINE
8
PIECES
66
1
70
1
10
0
20
0
30
0
0
VERTEX
8
PIECES
10
993.188338
20
807.402085
30
0
42
0.065894
0
VERTEX
8
PIECES
10
646.774031
20
807.402085
30
0
0
VERTEX
8
PIECES
10
654.25343
20
750.89493
30
0
42
-0.065894
0
VERTEX
8
PIECES
10
985.708938
20
750.89493
30
0
0
SEQEND
8
PIECES
0
POLYLINE
8
FINGER
66
1
70
0
10
0
20
0
30
0
0
VERTEX
8
FINGER
10
985.708938
20
750.89493
30
0
0
VERTEX
8
FINGER
10
993.188338
20
807.402085
30
0
0
SEQEND
8
FINGER
0
POLYLINE
8
FINGER
66
1
70
0
10
0
20
0
30
0
0
VERTEX
8
FINGER
10
654.25343
20
750.89493
30
0
0
VERTEX
8
FINGER
10
646.774031
20
807.402085
30
0
0
SEQEND
8
FINGER
0
POLYLINE
8
FINGER
66
1
70
0
10
0
20
0
30
0
0
VERTEX
8
FINGER
10
646.461855
20
737.398364
30
0
0
VERTEX
8
FINGER
10
646.461855
20
832.398364
30
0
0
SEQEND
8
FINGER
0
POLYLINE
8
FINGER
66
1
70
0
10
0
20
0
30
0
0
VERTEX
8
FINGER
10
993.500513
20
737.398364
30
0
0
VERTEX
8
FINGER
10
993.500513
20
832.398364
30
0
0
SEQEND
8
FINGER
0
TEXT
8
TEXT
10
819.981184
20
794.898364
30
0
40
15
1
W1 - FRAME HEAD P3 L379 x95
72
1
11
819.981184
21
794.898364
31
0
73
2
0
TEXT
8
TEXT
10
819.981184
20
747.398364
30
0
40
10
1
OUT 349 IN 328.8 CUT J7.5/J7.5 FINGER BOTH ENDS
72
1
11
819.981184
21
747.398364
31
0
73
2
0
POLYLINE
8
ASSEMBLY
66
1
70
1
10
0
20
0
30
0
0
VERTEX
8
ASSEMBLY
10
1209.500513
20
737.398364
30
0
0
VERTEX
8
ASSEMBLY
10
1588.539171
20
737.398364
30
0
0
VERTEX
8
ASSEMBLY
10
1588.539171
20
832.398364
30
0
0
VERTEX
8
ASSEMBLY
10
1209.500513
20
832.398364
30
0
0
SEQEND
8
ASSEMBLY
0
POLYLINE
8
PIECES
66
1
70
1
10
0
20
0
30
0
0
VERTEX
8
PIECES
10
1572.226995
20
807.402085
30
0
42
0.065894
0
VERTEX
8
PIECES
10
1225.812688
20
807.402085
30
0
0
VERTEX
8
PIECES
10
1233.292088
20
750.89493
30
0
42
-0.065894
0
VERTEX
8
PIECES
10
1564.747596
20
750.89493
30
0
0
SEQEND
8
PIECES
0
POLYLINE
8
FINGER
66
1
70
0
10
0
20
0
30
0
0
VERTEX
8
FINGER
10
1564.747596
20
750.89493
30
0
0
VERTEX
8
FINGER
10
1572.226995
20
807.402085
30
0
0
SEQEND
8
FINGER
0
POLYLINE
8
FINGER
66
1
70
0
10
0
20
0
30
0
0
VERTEX
8
FINGER
10
1233.292088
20
750.89493
30
0
0
VERTEX
8
FINGER
10
1225.812688
20
807.402085
30
0
0
SEQEND
8
FINGER
0
POLYLINE
8
FINGER
66
1
70
0
10
0
20
0
30
0
0
VERTEX
8
FINGER
10
1225.500513
20
737.398364
30
0
0
VERTEX
8
FINGER
10
1225.500513
20
832.398364
30
0
0
SEQEND
8
FINGER
0
POLYLINE
8
FINGER
66
1
70
0
10
0
20
0
30
0
0
VERTEX
8
FINGER
10
1572.539171
20
737.398364
30
0
0
VERTEX
8
FINGER
10
1572.539171
20
832.398364
30
0
0
SEQEND
8
FINGER
0
TEXT
8
TEXT
10
1399.019842
20
794.898364
30
0
40
15
1
W1 - FRAME HEAD P4 L379 x95
72
1
11
1399.019842
21
794.898364
31
0
73
2
0
TEXT
8
TEXT
10
1399.019842
20
747.398364
30
0
40
10
1
OUT 349 IN 328.8 CUT J7.5/J7.5 FINGER BOTH ENDS
72
1
11
1399.019842
21
747.398364
31
0
73
2
0
POLYLINE
8
ASSEMBLY
66
1
70
1
10
0
20
0
30
0
0
VERTEX
8
ASSEMBLY
10
1788.539171
20
737.398364
30
0
0
VERTEX
8
ASSEMBLY
10
2167.577829
20
737.398364
30
0
0
VERTEX
8
ASSEMBLY
10
2167.577829
20
832.398364
30
0
0
VERTEX
8
ASSEMBLY
10
1788.539171
20
832.398364
30
0
0
SEQEND
8
ASSEMBLY
0
POLYLINE
8
PIECES
66
1
70
1
10
0
20
0
30
0
0
VERTEX
8
PIECES
10
2151.265653
20
807.402085
30
0
42
0.065894
0
VERTEX
8
PIECES
10
1804.851346
20
807.402085
30
0
0
VERTEX
8
PIECES
10
1812.330746
20
750.89493
30
0
42
-0.065894
0
VERTEX
8
PIECES
10
2143.786253
20
750.89493
30
0
0
SEQEND
8
PIECES
0
POLYLINE
8
FINGER
66
1
70
0
10
0
20
0
30
0
0
VERTEX
8
FINGER
10
2143.786253
20
750.89493
30
0
0
VERTEX
8
FINGER
10
2151.265653
20
807.402085
30
0
0
SEQEND
8
FINGER
0
POLYLINE
8
FINGER
66
1
70
0
10
0
20
0
30
0
0
VERTEX
8
FINGER
10
1812.330746
20
750.89493
30
0
0
VERTEX
8
FINGER
10
1804.851346
20
807.402085
30
0
0
SEQEND
8
FINGER
0
POLYLINE
8
FINGER
66
1
70
0
10
0
20
0
30
0
0
VERTEX
8
FINGER
10
1804.539171
20
737.398364
30
0
0
VERTEX
8
FINGER
10
1804.539171
20
832.398364
30
0
0
SEQEND
8
FINGER
0
POLYLINE
8
FINGER
66
1
70
0
10
0
20
0
30
0
0
VERTEX
8
FINGER
10
2151.577829
20
737.398364
30
0
0
VERTEX
8
FINGER
10
2151.577829
20
832.398364
30
0
0
SEQEND
8
FINGER
0
TEXT
8
TEXT
10
1978.0585
20
794.898364
30
0
40
15
1
W1 - FRAME HEAD P5 L379 x95
72
1
11
1978.0585
21
794.898364
31
0
73
2
0
TEXT
8
TEXT
10
1978.0585
20
747.398364
30
0
40
10
1
OUT 349 IN 328.8 CUT J7.5/J7.5 FINGER BOTH ENDS
72
1
11
1978.0585
21
747.398364
31
0
73
2
0
POLYLINE
8
ASSEMBLY
66
1
70
1
10
0
20
0
30
0
0
VERTEX
8
ASSEMBLY
10
2367.577829
20
737.398364
30
0
0
VERTEX
8
ASSEMBLY
10
2490.308756
20
737.398364
30
0
0
VERTEX
8
ASSEMBLY
10
2490.308756
20
832.398364
30
0
0
VERTEX
8
ASSEMBLY
10
2367.577829
20
832.398364
30
0
0
SEQEND
8
ASSEMBLY
0
POLYLINE
8
PIECES
66
1
70
1
10
0
20
0
30
0
0
VERTEX
8
PIECES
10
2472.410915
20
808.742849
30
0
42
0.148069
0
VERTEX
8
PIECES
10
2385.47567
20
808.742849
30
0
0
VERTEX
8
PIECES
10
2401.993367
20
754.188604
30
0
42
-0.148069
0
VERTEX
8
PIECES
10
2455.893218
20
754.188604
30
0
0
SEQEND
8
PIECES
0
POLYLINE
8
FINGER
66
1
70
0
10
0
20
0
30
0
0
VERTEX
8
FINGER
10
2455.893218
20
754.188604
30
0
0
VERTEX
8
FINGER
10
2472.410915
20
808.742849
30
0
0
SEQEND
8
FINGER
0
POLYLINE
8
FINGER
66
1
70
0
10
0
20
0
30
0
0
VERTEX
8
FINGER
10
2401.993367
20
754.188604
30
0
0
VERTEX
8
FINGER
10
2385.47567
20
808.742849
30
0
0
SEQEND
8
FINGER
0
POLYLINE
8
FINGER
66
1
70
0
10
0
20
0
30
0
0
VERTEX
8
FINGER
10
2383.577829
20
737.398364
30
0
0
VERTEX
8
FINGER
10
2383.577829
20
832.398364
30
0
0
SEQEND
8
FINGER
0
POLYLINE
8
FINGER
66
1
70
0
10
0
20
0
30
0
0
VERTEX
8
FINGER
10
2474.308756
20
737.398364
30
0
0
VERTEX
8
FINGER
10
2474.308756
20
832.398364
30
0
0
SEQEND
8
FINGER
0
TEXT
8
TEXT
10
2428.943292
20
794.898364
30
0
40
15
1
W1 - FRAME HEAD P6 L122.7 x95
72
1
11
2428.943292
21
794.898364
31
0
73
2
0
TEXT
8
TEXT
10
2428.943292
20
747.398364
30
0
40
10
1
OUT 92.7 IN 48.1 CUT J16.8/J16.8 FINGER BOTH ENDS
72
1
11
2428.943292
21
747.398364
31
0
73
2
0
POLYLINE
8
ASSEMBLY
66
1
70
1
10
0
20
0
30
0
0
VERTEX
8
ASSEMBLY
10
2690.308756
20
737.398364
30
0
0
VERTEX
8
ASSEMBLY
10
2798.039684
20
737.398364
30
0
0
VERTEX
8
ASSEMBLY
10
2798.039684
20
832.398364
30
0
0
VERTEX
8
ASSEMBLY
10
2690.308756
20
832.398364
30
0
0
SEQEND
8
ASSEMBLY
0
POLYLINE
8
PIECES
66
1
70
1
10
0
20
0
30
0
0
VERTEX
8
PIECES
10
2780.141842
20
808.742849
30
0
42
0.148069
0
VERTEX
8
PIECES
10
2693.206598
20
808.742849
30
0
0
VERTEX
8
PIECES
10
2709.724294
20
754.188604
30
0
42
-0.148069
0
VERTEX
8
PIECES
10
2763.624146
20
754.188604
30
0
0
SEQEND
8
PIECES
0
POLYLINE
8
FINGER
66
1
70
0
10
0
20
0
30
0
0
VERTEX
8
FINGER
10
2763.624146
20
754.188604
30
0
0
VERTEX
8
FINGER
10
2780.141842
20
808.742849
30
0
0
SEQEND
8
FINGER
0
POLYLINE
8
FINGER
66
1
70
0
10
0
20
0
30
0
0
VERTEX
8
FINGER
10
2782.039684
20
737.398364
30
0
0
VERTEX
8
FINGER
10
2782.039684
20
832.398364
30
0
0
SEQEND
8
FINGER
0
TEXT
8
TEXT
10
2744.17422
20
794.898364
30
0
40
15
1
W1 - FRAME HEAD P7 L107.7 x95
72
1
11
2744.17422
21
794.898364
31
0
73
2
0
TEXT
8
TEXT
10
2744.17422
20
747.398364
30
0
40
10
1
OUT 92.7 IN 48.1 CUT S73.2/J16.8 FINGER ONE END
72
1
11
2744.17422
21
747.398364
31
0
73
2
0
POLYLINE
8
CONTOUR
66
1
70
1
10
0
20
0
30
0
0
VERTEX
8
CONTOUR
10
1223.480253
20
1055.846366
30
0
42
0.302776
0
VERTEX
8
CONTOUR
10
1131.172561
20
1194.307905
30
0
42
0.2
0
VERTEX
8
CONTOUR
10
115.787946
20
1194.307905
30
0
42
0.302776
0
VERTEX
8
CONTOUR
10
23.480253
20
1055.846366
30
0
0
VERTEX
8
CONTOUR
10
80.480253
20
1055.846366
30
0
42
-0.302776
0
VERTEX
8
CONTOUR
10
137.711023
20
1141.69252
30
0
42
-0.2
0
VERTEX
8
CONTOUR
10
1109.249484
20
1141.69252
30
0
42
-0.302776
0
VERTEX
8
CONTOUR
10
1166.480253
20
1055.846366
30
0
0
SEQEND
8
CONTOUR
0
POLYLINE
8
ASSEMBLY
66
1
70
1
10
0
20
0
30
0
0
VERTEX
8
ASSEMBLY
10
1156.036764
20
1032.398364
30
0
0
VERTEX
8
ASSEMBLY
10
1129.164811
20
1121.150396
30
0
0
VERTEX
8
ASSEMBLY
10
1220.088554
20
1148.67989
30
0
0
VERTEX
8
ASSEMBLY
10
1246.960507
20
1059.927859
30
0
0
SEQEND
8
ASSEMBLY
0
POLYLINE
8
FINGER
66
1
70
0
10
0
20
0
30
0
0
VERTEX
8
FINGER
10
1150.860931
20
1107.433484
30
0
0
VERTEX
8
FINGER
10
1198.287798
20
1139.051396
30
0
0
SEQEND
8
FINGER
0
POLYLINE
8
ASSEMBLY
66
1
70
1
10
0
20
0
30
0
0
VERTEX
8
ASSEMBLY
10
1155.178034
20
1082.130562
30
0
0
VERTEX
8
ASSEMBLY
10
1083.588448
20
1141.070839
30
0
0
VERTEX
8
ASSEMBLY
10
1143.970959
20
1214.41218
30
0
0
VERTEX
8
ASSEMBLY
10
1215.560545
20
1155.471904
30
0
0
SEQEND
8
ASSEMBLY
0
POLYLINE
8
FINGER
66
1
70
0
10
0
20
0
30
0
0
VERTEX
8
FINGER
10
1109.249484
20
1141.69252
30
0
0
VERTEX
8
FINGER
10
1131.172561
20
1194.307905
30
0
0
SEQEND
8
FINGER
0
POLYLINE
8
ASSEMBLY
66
1
70
1
10
0
20
0
30
0
0
VERTEX
8
ASSEMBLY
10
1114.226965
20
1126.373455
30
0
0
VERTEX
8
ASSEMBLY
10
777.207832
20
1217.181433
30
0
0
VERTEX
8
ASSEMBLY
10
801.923599
20
1308.910005
30
0
0
VERTEX
8
ASSEMBLY
10
1138.942731
20
1218.102027
30
0
0
SEQEND
8
ASSEMBLY
0
POLYLINE
8
FINGER
66
1
70
0
10
0
20
0
30
0
0
VERTEX
8
FINGER
10
789.208007
20
1227.925961
30
0
0
VERTEX
8
FINGER
10
796.687407
20
1284.433116
30
0
0
SEQEND
8
FINGER
0
POLYLINE
8
ASSEMBLY
66
1
70
1
10
0
20
0
30
0
0
VERTEX
8
ASSEMBLY
10
797.999582
20
1214.429396
30
0
0
VERTEX
8
ASSEMBLY
10
448.960925
20
1214.429396
30
0
0
VERTEX
8
ASSEMBLY
10
448.960925
20
1309.429396
30
0
0
VERTEX
8
ASSEMBLY
10
797.999582
20
1309.429396
30
0
0
SEQEND
8
ASSEMBLY
0
POLYLINE
8
FINGER
66
1
70
0
10
0
20
0
30
0
0
VERTEX
8
FINGER
10
457.7525
20
1227.925961
30
0
0
VERTEX
8
FINGER
10
450.2731
20
1284.433116
30
0
0
SEQEND
8
FINGER
0
POLYLINE
8
ASSEMBLY
66
1
70
1
10
0
20
0
30
0
0
VERTEX
8
ASSEMBLY
10
469.752674
20
1217.181433
30
0
0
VERTEX
8
ASSEMBLY
10
132.733542
20
1126.373455
30
0
0
VERTEX
8
ASSEMBLY
10
108.017775
20
1218.102027
30
0
0
VERTEX
8
ASSEMBLY
10
445.036908
20
1308.910005
30
0
0
SEQEND
8
ASSEMBLY
0
POLYLINE
8
FINGER
66
1
70
0
10
0
20
0
30
0
0
VERTEX
8
FINGER
10
137.711023
20
1141.69252
30
0
0
VERTEX
8
FINGER
10
115.787946
20
1194.307905
30
0
0
SEQEND
8
FINGER
0
POLYLINE
8
ASSEMBLY
66
1
70
1
10
0
20
0
30
0
0
VERTEX
8
ASSEMBLY
10
163.372059
20
1141.070839
30
0
0
VERTEX
8
ASSEMBLY
10
91.782473
20
1082.130562
30
0
0
VERTEX
8
ASSEMBLY
10
31.399962
20
1155.471904
30
0
0
VERTEX
8
ASSEMBLY
10
102.989548
20
1214.41218
30
0
0
SEQEND
8
ASSEMBLY
0
POLYLINE
8
FINGER
66
1
70
0
10
0
20
0
30
0
0
VERTEX
8
FINGER
10
96.099576
20
1107.433484
30
0
0
VERTEX
8
FINGER
10
48.672709
20
1139.051396
30
0
0
SEQEND
8
FINGER
0
POLYLINE
8
ASSEMBLY
66
1
70
1
10
0
20
0
30
0
0
VERTEX
8
ASSEMBLY
10
117.795695
20
1121.150396
30
0
0
VERTEX
8
ASSEMBLY
10
90.923743
20
1032.398364
30
0
0
VERTEX
8
ASSEMBLY
10
0
20
1059.927859
30
0
0
VERTEX
8
ASSEMBLY
10
26.871953
20
1148.67989
30
0
0
SEQEND
8
ASSEMBLY
0
TEXT
8
TEXT
10
1346.960507
20
1290.929396
30
0
40
15
1
W1 - FRAME HEAD
72
0
11
1346.960507
21
1290.929396
31
0
73
0
0
TEXT
8
TEXT
10
1346.960507
20
1268.929396
30
0
40
15
1
THREE-CENTRE W1200 RISE240 H2000 HINGE L
72
0
11
1346.960507
21
1268.929396
31
0
73
0
0
TEXT
8
TEXT
10
1346.960507
20
1246.929396
30
0
40
15
1
FACE 57 OFFSET 0 OUTER L1395.1 INNER L1216
72
0
11
1346.960507
21
1246.929396
31
0
73
0
0
TEXT
8
TEXT
10
1346.960507
20
1224.929396
30
0
40
15
1
ARC 1 R150 L176.4 67.4DEG: 2 x board 95 L92.7 ROUGH 122.7
72
0
11
1346.960507
21
1224.929396
31
0
73
0
0
TEXT
8
TEXT
10
1346.960507
20
1202.929396
30
0
40
15
1
ARC 2 R1320 L1042.2 45.2DEG: 3 x board 95 L349 ROUGH 379 (ALT 2 x board 105)
72
0
11
1346.960507
21
1202.929396
31
0
73
0
0
TEXT
8
TEXT
10
1346.960507
20
1180.929396
30
0
40
15
1
ARC 3 R150 L176.4 67.4DEG: 2 x board 95 L92.7 ROUGH 122.7
72
0
11
1346.960507
21
1180.929396
31
0
73
0
0
TEXT
8
TEXT
10
1346.960507
20
1158.929396
30
0
40
15
1
FINGER 15/16/3.8
72
0
11
1346.960507
21
1158.929396
31
0
73
0
0
TEXT
8
TEXT
10
1346.960507
20
1136.929396
30
0
40
15
1
ALLOWANCE 10 PER SIDE  MAX SEGMENT 36 DEG  RULE NARROWEST
72
0
11
1346.960507
21
1136.929396
31
0
73
0
0
TEXT
8
TEXT
10
1346.960507
20
1114.929396
30
0
40
15
1
CUT CODES: J = JOINT FROM SQUARE  S = ARCH-START, AXIS TO HORIZONTAL  A = APEX FROM SQUARE
72
0
11
1346.960507
21
1114.929396
31
0
73
0
0
POLYLINE
8
FIT
66
1
70
1
10
0
20
0
30
0
0
VERTEX
8
FIT
10
1200
20
1509.429396
30
0
42
0.302776
0
VERTEX
8
FIT
10
1107.692308
20
1647.890934
30
0
42
0.2
0
VERTEX
8
FIT
10
92.307692
20
1647.890934
30
0
42
0.302776
0
VERTEX
8
FIT
10
0
20
1509.429396
30
0
0
VERTEX
8
FIT
10
57
20
1509.429396
30
0
42
-0.302776
0
VERTEX
8
FIT
10
114.230769
20
1595.275549
30
0
42
-0.2
0
VERTEX
8
FIT
10
1085.769231
20
1595.275549
30
0
42
-0.302776
0
VERTEX
8
FIT
10
1143
20
1509.429396
30
0
0
SEQEND
8
FIT
0
POLYLINE
8
FIT
66
1
70
1
10
0
20
0
30
0
0
VERTEX
8
FIT
10
1160
20
1509.429396
30
0
42
0.302776
0
VERTEX
8
FIT
10
1092.307692
20
1610.967857
30
0
42
0.2
0
VERTEX
8
FIT
10
107.692308
20
1610.967857
30
0
42
0.302776
0
VERTEX
8
FIT
10
40
20
1509.429396
30
0
0
VERTEX
8
FIT
10
107
20
1509.429396
30
0
42
-0.302776
0
VERTEX
8
FIT
10
133.461538
20
1549.121703
30
0
42
-0.2
0
VERTEX
8
FIT
10
1066.538462
20
1549.121703
30
0
42
-0.302776
0
VERTEX
8
FIT
10
1093
20
1509.429396
30
0
0
SEQEND
8
FIT
0
POLYLINE
8
FIT
66
1
70
1
10
0
20
0
30
0
0
VERTEX
8
FIT
10
1105.5
20
1509.429396
30
0
42
0.302776
0
VERTEX
8
FIT
10
1071.346154
20
1560.660165
30
0
42
0.2
0
VERTEX
8
FIT
10
128.653846
20
1560.660165
30
0
42
0.302776
0
VERTEX
8
FIT
10
94.5
20
1509.429396
30
0
0
SEQEND
8
FIT
0
POLYLINE
8
FIT
66
1
70
0
10
0
20
0
30
0
0
VERTEX
8
FIT
10
1164
20
1509.429396
30
0
42
0.043888
0
VERTEX
8
FIT
10
1162.250109
20
1529.326958
30
0
0
SEQEND
8
FIT
0
POLYLINE
8
FIT
66
1
70
0
10
0
20
0
30
0
0
VERTEX
8
FIT
10
1160.075359
20
1539.084332
30
0
42
0.043888
0
VERTEX
8
FIT
10
1153.209738
20
1557.841687
30
0
0
SEQEND
8
FIT
0
POLYLINE
8
FIT
66
1
70
0
10
0
20
0
30
0
0
VERTEX
8
FIT
10
1148.571662
20
1566.697427
30
0
42
0.043888
0
VERTEX
8
FIT
10
1137.063032
20
1583.023067
30
0
0
SEQEND
8
FIT
0
POLYLINE
8
FIT
66
1
70
0
10
0
20
0
30
0
0
VERTEX
8
FIT
10
1130.280976
20
1590.367427
30
0
42
0.043888
0
VERTEX
8
FIT
10
1114.921744
20
1603.137278
30
0
0
SEQEND
8
FIT
0
POLYLINE
8
FIT
66
1
70
0
10
0
20
0
30
0
0
VERTEX
8
FIT
10
1106.462676
20
1608.464572
30
0
42
0.030853
0
VERTEX
8
FIT
10
1093.846154
20
1614.660165
30
0
0
SEQEND
8
FIT
0
POLYLINE
8
FIT
66
1
70
0
10
0
20
0
30
0
0
VERTEX
8
FIT
10
1093.846154
20
1614.660165
30
0
42
0.003894
0
VERTEX
8
FIT
10
1075.325454
20
1622.208383
30
0
0
SEQEND
8
FIT
0
POLYLINE
8
FIT
66
1
70
0
10
0
20
0
30
0
0
VERTEX
8
FIT
10
1066.021577
20
1625.874083
30
0
42
0.003894
0
VERTEX
8
FIT
10
1047.329588
20
1632.987554
30
0
0
SEQEND
8
FIT
0
POLYLINE
8
FIT
66
1
70
0
10
0
20
0
30
0
0
VERTEX
8
FIT
10
1037.94261
20
1636.434893
30
0
42
0.003894
0
VERTEX
8
FIT
10
1019.089536
20
1643.109733
30
0
0
SEQEND
8
FIT
0
POLYLINE
8
FIT
66
1
70
0
10
0
20
0
30
0
0
VERTEX
8
FIT
10
1009.624582
20
1646.336829
30
0
42
0.003894
0
VERTEX
8
FIT
10
990.620713
20
1652.569395
30
0
0
SEQEND
8
FIT
0
POLYLINE
8
FIT
66
1
70
0
10
0
20
0
30
0
0
VERTEX
8
FIT
10
981.08295
20
1655.574487
30
0
42
0.003894
0
VERTEX
8
FIT
10
961.938661
20
1661.361377
30
0
0
SEQEND
8
FIT
0
POLYLINE
8
FIT
66
1
70
0
10
0
20
0
30
0
0
VERTEX
8
FIT
10
952.333295
20
1664.142823
30
0
42
0.003894
0
VERTEX
8
FIT
10
933.059036
20
1669.480878
30
0
0
SEQEND
8
FIT
0
POLYLINE
8
FIT
66
1
70
0
10
0
20
0
30
0
0
VERTEX
8
FIT
10
923.391311
20
1672.037162
30
0
42
0.003894
0
VERTEX
8
FIT
10
903.997602
20
1676.923467
30
0
0
SEQEND
8
FIT
0
POLYLINE
8
FIT
66
1
70
0
10
0
20
0
30
0
0
VERTEX
8
FIT
10
894.272795
20
1679.253192
30
0
42
0.003894
0
VERTEX
8
FIT
10
874.770224
20
1683.685081
30
0
0
SEQEND
8
FIT
0
POLYLINE
8
FIT
66
1
70
0
10
0
20
0
30
0
0
VERTEX
8
FIT
10
864.993643
20
1685.786976
30
0
42
0.003894
0
VERTEX
8
FIT
10
845.392856
20
1689.762029
30
0
0
SEQEND
8
FIT
0
POLYLINE
8
FIT
66
1
70
0
10
0
20
0
30
0
0
VERTEX
8
FIT
10
835.569838
20
1691.634946
30
0
42
0.003894
0
VERTEX
8
FIT
10
815.881534
20
1695.150993
30
0
0
SEQEND
8
FIT
0
POLYLINE
8
FIT
66
1
70
0
10
0
20
0
30
0
0
VERTEX
8
FIT
10
806.017441
20
1696.793911
30
0
42
0.003894
0
VERTEX
8
FIT
10
786.252368
20
1699.849033
30
0
0
SEQEND
8
FIT
0
POLYLINE
8
FIT
66
1
70
0
10
0
20
0
30
0
0
VERTEX
8
FIT
10
776.352585
20
1701.261053
30
0
42
0.003894
0
VERTEX
8
FIT
10
756.521531
20
1703.853583
30
0
0
SEQEND
8
FIT
0
POLYLINE
8
FIT
66
1
70
0
10
0
20
0
30
0
0
VERTEX
8
FIT
10
746.591463
20
1705.033936
30
0
42
0.003894
0
VERTEX
8
FIT
10
726.705254
20
1707.162458
30
0
0
SEQEND
8
FIT
0
POLYLINE
8
FIT
66
1
70
0
10
0
20
0
30
0
0
VERTEX
8
FIT
10
716.75032
20
1708.110498
30
0
42
0.003894
0
VERTEX
8
FIT
10
696.819811
20
1709.773851
30
0
0
SEQEND
8
FIT
0
POLYLINE
8
FIT
66
1
70
0
10
0
20
0
30
0
0
VERTEX
8
FIT
10
686.845445
20
1710.489062
30
0
42
0.003894
0
VERTEX
8
FIT
10
666.881517
20
1711.686337
30
0
0
SEQEND
8
FIT
0
POLYLINE
8
FIT
66
1
70
0
10
0
20
0
30
0
0
VERTEX
8
FIT
10
656.893165
20
1712.168328
30
0
42
0.003894
0
VERTEX
8
FIT
10
636.906714
20
1712.898871
30
0
0
SEQEND
8
FIT
0
POLYLINE
8
FIT
66
1
70
0
10
0
20
0
30
0
0
VERTEX
8
FIT
10
626.909827
20
1713.147379
30
0
42
0.003894
0
VERTEX
8
FIT
10
606.911764
20
1713.410792
30
0
0
SEQEND
8
FIT
0
POLYLINE
8
FIT
66
1
70
0
10
0
20
0
30
0
0
VERTEX
8
FIT
10
596.911801
20
1713.425682
30
0
42
0.003894
0
VERTEX
8
FIT
10
576.913042
20
1713.221821
30
0
0
SEQEND
8
FIT
0
POLYLINE
8
FIT
66
1
70
0
10
0
20
0
30
0
0
VERTEX
8
FIT
10
566.91546
20
1713.003084
30
0
42
0.003894
0
VERTEX
8
FIT
10
546.926922
20
1712.332061
30
0
0
SEQEND
8
FIT
0
POLYLINE
8
FIT
66
1
70
0
10
0
20
0
30
0
0
VERTEX
8
FIT
10
536.937179
20
1711.879816
30
0
42
0.003894
0
VERTEX
8
FIT
10
516.969773
20
1710.741997
30
0
0
SEQEND
8
FIT
0
POLYLINE
8
FIT
66
1
70
0
10
0
20
0
30
0
0
VERTEX
8
FIT
10
506.993322
20
1710.056491
30
0
42
0.003894
0
VERTEX
8
FIT
10
487.057949
20
1708.452497
30
0
0
SEQEND
8
FIT
0
POLYLINE
8
FIT
66
1
70
0
10
0
20
0
30
0
0
VERTEX
8
FIT
10
477.100236
20
1707.534105
30
0
42
0.003894
0
VERTEX
8
FIT
10
457.207776
20
1705.464811
30
0
0
SEQEND
8
FIT
0
POLYLINE
8
FIT
66
1
70
0
10
0
20
0
30
0
0
VERTEX
8
FIT
10
447.274237
20
1704.314034
30
0
42
0.003894
0
VERTEX
8
FIT
10
427.435551
20
1701.78057
30
0
0
SEQEND
8
FIT
0
POLYLINE
8
FIT
66
1
70
0
10
0
20
0
30
0
0
VERTEX
8
FIT
10
417.531607
20
1700.398036
30
0
42
0.003894
0
VERTEX
8
FIT
10
397.757523
20
1697.401785
30
0
0
SEQEND
8
FIT
0
POLYLINE
8
FIT
66
1
70
0
10
0
20
0
30
0
0
VERTEX
8
FIT
10
387.888582
20
1695.788249
30
0
42
0.003894
0
VERTEX
8
FIT
10
368.189895
20
1692.330847
30
0
0
SEQEND
8
FIT
0
POLYLINE
8
FIT
66
1
70
0
10
0
20
0
30
0
0
VERTEX
8
FIT
10
358.361344
20
1690.48719
30
0
42
0.003894
0
VERTEX
8
FIT
10
338.748806
20
1686.570523
30
0
0
SEQEND
8
FIT
0
POLYLINE
8
FIT
66
1
70
0
10
0
20
0
30
0
0
VERTEX
8
FIT
10
328.966009
20
1684.497751
30
0
42
0.003894
0
VERTEX
8
FIT
10
309.450327
20
1680.123958
30
0
0
SEQEND
8
FIT
0
POLYLINE
8
FIT
66
1
70
0
10
0
20
0
30
0
0
VERTEX
8
FIT
10
299.718626
20
1677.823202
30
0
42
0.003894
0
VERTEX
8
FIT
10
280.310452
20
1672.994671
30
0
0
SEQEND
8
FIT
0
POLYLINE
8
FIT
66
1
70
0
10
0
20
0
30
0
0
VERTEX
8
FIT
10
270.635158
20
1670.467187
30
0
42
0.003894
0
VERTEX
8
FIT
10
251.345087
20
1665.186553
30
0
0
SEQEND
8
FIT
0
POLYLINE
8
FIT
66
1
70
0
10
0
20
0
30
0
0
VERTEX
8
FIT
10
241.731482
20
1662.433722
30
0
42
0.003894
0
VERTEX
8
FIT
10
222.570044
20
1656.703867
30
0
0
SEQEND
8
FIT
0
POLYLINE
8
FIT
66
1
70
0
10
0
20
0
30
0
0
VERTEX
8
FIT
10
213.023375
20
1653.727191
30
0
42
0.003894
0
VERTEX
8
FIT
10
194.001031
20
1647.551244
30
0
0
SEQEND
8
FIT
0
POLYLINE
8
FIT
66
1
70
0
10
0
20
0
30
0
0
VERTEX
8
FIT
10
184.526509
20
1644.352347
30
0
42
0.003894
0
VERTEX
8
FIT
10
165.653641
20
1637.733679
30
0
0
SEQEND
8
FIT
0
POLYLINE
8
FIT
66
1
70
0
10
0
20
0
30
0
0
VERTEX
8
FIT
10
156.25644
20
1634.314308
30
0
42
0.003894
0
VERTEX
8
FIT
10
137.543351
20
1627.256532
30
0
0
SEQEND
8
FIT
0
POLYLINE
8
FIT
66
1
70
0
10
0
20
0
30
0
0
VERTEX
8
FIT
10
128.228598
20
1623.618553
30
0
42
0.003894
0
VERTEX
8
FIT
10
109.685503
20
1616.125521
30
0
0
SEQEND
8
FIT
0
POLYLINE
8
FIT
66
1
70
0
10
0
20
0
30
0
0
VERTEX
8
FIT
10
106.153846
20
1614.660165
30
0
42
0.043888
0
VERTEX
8
FIT
10
88.459901
20
1605.391973
30
0
0
SEQEND
8
FIT
0
POLYLINE
8
FIT
66
1
70
0
10
0
20
0
30
0
0
VERTEX
8
FIT
10
80.289536
20
1599.631675
30
0
42
0.043888
0
VERTEX
8
FIT
10
65.615678
20
1586.079811
30
0
0
SEQEND
8
FIT
0
POLYLINE
8
FIT
66
1
70
0
10
0
20
0
30
0
0
VERTEX
8
FIT
10
59.225024
20
1578.392456
30
0
42
0.043888
0
VERTEX
8
FIT
10
48.581599
20
1561.490013
30
0
0
SEQEND
8
FIT
0
POLYLINE
8
FIT
66
1
70
0
10
0
20
0
30
0
0
VERTEX
8
FIT
10
44.410673
20
1552.4049
30
0
42
0.043888
0
VERTEX
8
FIT
10
38.530515
20
1533.315666
30
0
0
SEQEND
8
FIT
0
POLYLINE
8
FIT
66
1
70
0
10
0
20
0
30
0
0
VERTEX
8
FIT
10
36.8665
20
1523.458337
30
0
42
0.030853
0
VERTEX
8
FIT
10
36
20
1509.429396
30
0
0
SEQEND
8
FIT
0
TEXT
8
TEXT
10
1300
20
1694.925682
30
0
40
15
1
W1 - FIT (ASSEMBLY, NOT A TOOLPATH)
72
0
11
1300
21
1694.925682
31
0
73
0
0
TEXT
8
TEXT
10
1300
20
1672.925682
30
0
40
15
1
GAP 4 LAP 17 (REBATE)
72
0
11
1300
21
1672.925682
31
0
73
0
0
TEXT
8
TEXT
10
1300
20
1650.925682
30
0
40
15
1
FRAME R150/1320/150 / 93/1263/93  REBATE WALL R114/1284/114 (LAND 36, DASHED)
72
0
11
1300
21
1650.925682
31
0
73
0
0
TEXT
8
TEXT
10
1300
20
1628.925682
30
0
40
15
1
LEAF R110/1280/110 / 43/1213/43  GLASS R55.5/1225.5/55.5
72
0
11
1300
21
1628.925682
31
0
73
0
0
ENDSEC
0
EOF
