0
SECTION
2
HEADER
9
$ACADVER
1
AC1009
0
ENDSEC
0
SECTION
2
TABLES
0
TABLE
2
LAYER
70
8
0
LAYER
2
0
70
0
62
7
6
CONTINUOUS
0
LAYER
2
FIT
70
0
62
4
6
CONTINUOUS
0
LAYER
2
CONTOUR
70
0
62
7
6
CONTINUOUS
0
LAYER
2
ASSEMBLY
70
0
62
8
6
CONTINUOUS
0
LAYER
2
PIECES
70
0
62
5
6
CONTINUOUS
0
LAYER
2
FINGER
70
0
62
1
6
CONTINUOUS
0
LAYER
2
CLAMPS
70
0
62
3
6
CONTINUOUS
0
LAYER
2
TEXT
70
0
62
94
6
CONTINUOUS
0
ENDTAB
0
ENDSEC
0
SECTION
2
ENTITIES
0
POLYLINE
8
PIECES
66
1
70
1
10
0
20
0
30
0
0
VERTEX
8
PIECES
10
625.830924
20
0
30
0
0
VERTEX
8
PIECES
10
103.923048
20
0
30
0
0
VERTEX
8
PIECES
10
0
20
180
30
0
0
VERTEX
8
PIECES
10
625.830924
20
180
30
0
0
SEQEND
8
PIECES
0
POLYLINE
8
CLAMPS
66
1
70
1
10
0
20
0
30
0
0
VERTEX
8
CLAMPS
10
124.489292
20
25
30
0
0
VERTEX
8
CLAMPS
10
254.489292
20
25
30
0
0
VERTEX
8
CLAMPS
10
254.489292
20
155
30
0
0
VERTEX
8
CLAMPS
10
124.489292
20
155
30
0
0
SEQEND
8
CLAMPS
0
POLYLINE
8
CLAMPS
66
1
70
1
10
0
20
0
30
0
0
VERTEX
8
CLAMPS
10
475.830924
20
25
30
0
0
VERTEX
8
CLAMPS
10
605.830924
20
25
30
0
0
VERTEX
8
CLAMPS
10
605.830924
20
155
30
0
0
VERTEX
8
CLAMPS
10
475.830924
20
155
30
0
0
SEQEND
8
CLAMPS
0
TEXT
8
TEXT
10
312.915462
20
100
30
0
40
15
1
T - LEAF TOP P1 L625.8 x180
72
1
11
312.915462
21
100
31
0
73
2
0
TEXT
8
TEXT
10
312.915462
20
10
30
0
40
10
1
OUT 610.8 IN 506.9 CUT J30/Q FINGER ONE END
72
1
11
312.915462
21
10
31
0
73
2
0
POLYLINE
8
PIECES
66
1
70
1
10
0
20
0
30
0
0
VERTEX
8
PIECES
10
1414.569725
20
0
30
0
0
VERTEX
8
PIECES
10
929.753973
20
0
30
0
0
VERTEX
8
PIECES
10
825.830924
20
180
30
0
0
VERTEX
8
PIECES
10
1518.492773
20
180
30
0
0
SEQEND
8
PIECES
0
POLYLINE
8
CLAMPS
66
1
70
1
10
0
20
0
30
0
0
VERTEX
8
CLAMPS
10
950.320216
20
25
30
0
0
VERTEX
8
CLAMPS
10
1080.320216
20
25
30
0
0
VERTEX
8
CLAMPS
10
1080.320216
20
155
30
0
0
VERTEX
8
CLAMPS
10
950.320216
20
155
30
0
0
SEQEND
8
CLAMPS
0
POLYLINE
8
CLAMPS
66
1
70
1
10
0
20
0
30
0
0
VERTEX
8
CLAMPS
10
1264.003482
20
25
30
0
0
VERTEX
8
CLAMPS
10
1394.003482
20
25
30
0
0
VERTEX
8
CLAMPS
10
1394.003482
20
155
30
0
0
VERTEX
8
CLAMPS
10
1264.003482
20
155
30
0
0
SEQEND
8
CLAMPS
0
TEXT
8
TEXT
10
1172.161849
20
100
30
0
40
15
1
T - LEAF TOP P2 L692.7 x180
72
1
11
1172.161849
21
100
31
0
73
2
0
TEXT
8
TEXT
10
1172.161849
20
10
30
0
40
10
1
OUT 662.7 IN 454.8 CUT J30/J30 FINGER BOTH ENDS
72
1
11
1172.161849
21
10
31
0
73
2
0
POLYLINE
8
PIECES
66
1
70
1
10
0
20
0
30
0
0
VERTEX
8
PIECES
10
2240.400649
20
0
30
0
0
VERTEX
8
PIECES
10
1718.492773
20
0
30
0
0
VERTEX
8
PIECES
10
1718.492773
20
180
30
0
0
VERTEX
8
PIECES
10
2344.323698
20
180
30
0
0
SEQEND
8
PIECES
0
POLYLINE
8
CLAMPS
66
1
70
1
10
0
20
0
30
0
0
VERTEX
8
CLAMPS
10
1738.492773
20
25
30
0
0
VERTEX
8
CLAMPS
10
1868.492773
20
25
30
0
0
VERTEX
8
CLAMPS
10
1868.492773
20
155
30
0
0
VERTEX
8
CLAMPS
10
1738.492773
20
155
30
0
0
SEQEND
8
CLAMPS
0
POLYLINE
8
CLAMPS
66
1
70
1
10
0
20
0
30
0
0
VERTEX
8
CLAMPS
10
2089.834406
20
25
30
0
0
VERTEX
8
CLAMPS
10
2219.834406
20
25
30
0
0
VERTEX
8
CLAMPS
10
2219.834406
20
155
30
0
0
VERTEX
8
CLAMPS
10
2089.834406
20
155
30
0
0
SEQEND
8
CLAMPS
0
TEXT
8
TEXT
10
2031.408236
20
100
30
0
40
15
1
T - LEAF TOP P3 L625.8 x180
72
1
11
2031.408236
21
100
31
0
73
2
0
TEXT
8
TEXT
10
2031.408236
20
10
30
0
40
10
1
OUT 610.8 IN 506.9 CUT Q/J30 FINGER ONE END
72
1
11
2031.408236
21
10
31
0
73
2
0
POLYLINE
8
CONTOUR
66
1
70
1
10
0
20
0
30
0
0
VERTEX
8
CONTOUR
10
1185.746387
20
425.113103
30
0
42
1
0
VERTEX
8
CONTOUR
10
87.746387
20
425.113103
30
0
0
VERTEX
8
CONTOUR
10
154.746387
20
425.113103
30
0
42
-1
0
VERTEX
8
CONTOUR
10
1118.746387
20
425.113103
30
0
0
SEQEND
8
CONTOUR
0
POLYLINE
8
ASSEMBLY
66
1
70
1
10
0
20
0
30
0
0
VERTEX
8
ASSEMBLY
10
1117.608201
20
380
30
0
0
VERTEX
8
ASSEMBLY
10
864.154263
20
818.995098
30
0
0
VERTEX
8
ASSEMBLY
10
968.077311
20
998.995098
30
0
0
VERTEX
8
ASSEMBLY
10
1273.492773
20
470
30
0
0
SEQEND
8
ASSEMBLY
0
POLYLINE
8
FINGER
66
1
70
0
10
0
20
0
30
0
0
VERTEX
8
FINGER
10
877.746387
20
842.537347
30
0
0
VERTEX
8
FINGER
10
911.246387
20
900.561049
30
0
0
SEQEND
8
FINGER
0
POLYLINE
8
ASSEMBLY
66
1
70
1
10
0
20
0
30
0
0
VERTEX
8
ASSEMBLY
10
864.154263
20
818.995098
30
0
0
VERTEX
8
ASSEMBLY
10
409.338511
20
818.995098
30
0
0
VERTEX
8
ASSEMBLY
10
305.415462
20
998.995098
30
0
0
VERTEX
8
ASSEMBLY
10
968.077311
20
998.995098
30
0
0
SEQEND
8
ASSEMBLY
0
POLYLINE
8
FINGER
66
1
70
0
10
0
20
0
30
0
0
VERTEX
8
FINGER
10
395.746387
20
842.537347
30
0
0
VERTEX
8
FINGER
10
362.246387
20
900.561049
30
0
0
SEQEND
8
FINGER
0
POLYLINE
8
ASSEMBLY
66
1
70
1
10
0
20
0
30
0
0
VERTEX
8
ASSEMBLY
10
409.338511
20
818.995098
30
0
0
VERTEX
8
ASSEMBLY
10
155.884573
20
380
30
0
0
VERTEX
8
ASSEMBLY
10
0
20
470
30
0
0
VERTEX
8
ASSEMBLY
10
305.415462
20
998.995098
30
0
0
SEQEND
8
ASSEMBLY
0
TEXT
8
TEXT
10
1373.492773
20
980.495098
30
0
40
15
1
T - LEAF TOP
72
0
11
1373.492773
21
980.495098
31
0
73
0
0
TEXT
8
TEXT
10
1373.492773
20
958.495098
30
0
40
15
1
SEMI-CIRCLE W1200 RISE600 H2000 HINGE R
72
0
11
1373.492773
21
958.495098
31
0
73
0
0
TEXT
8
TEXT
10
1373.492773
20
936.495098
30
0
40
15
1
FACE 67 OFFSET 51 OUTER L1724.7 INNER L1514.2
72
0
11
1373.492773
21
936.495098
31
0
73
0
0
TEXT
8
TEXT
10
1373.492773
20
914.495098
30
0
40
15
1
CHAIN R549 L1724.7 180DEG: FEWEST 3 x board 180 L662.7 ROUGH 692.7 WASTE 60%
72
0
11
1373.492773
21
914.495098
31
0
73
0
0
TEXT
8
TEXT
10
1373.492773
20
892.495098
30
0
40
15
1
  NO ECONOMY ALT WITHIN 6 PIECES -> DEFAULT FEWEST
72
0
11
1373.492773
21
892.495098
31
0
73
0
0
TEXT
8
TEXT
10
1373.492773
20
870.495098
30
0
40
15
1
FINGER 15/16/3.8
72
0
11
1373.492773
21
870.495098
31
0
73
0
0
TEXT
8
TEXT
10
1373.492773
20
848.495098
30
0
40
15
1
ALLOWANCE 10 PER SIDE  LIMITS: OVERALL >= 450 (CLAMP)  SHORTER EDGE >= 400  STOCK MAX 200
72
0
11
1373.492773
21
848.495098
31
0
73
0
0
TEXT
8
TEXT
10
1373.492773
20
826.495098
30
0
40
15
1
CLAMPS (SUGGESTION): UNICLAMP 130 x 130, CLEARANCE 20 FROM THE END CUTS, JAWS 40-98, PIECE THICKNESS 57
72
0
11
1373.492773
21
826.495098
31
0
73
0
0
TEXT
8
TEXT
10
1373.492773
20
804.495098
30
0
40
15
1
CUT CODES: J = JOINT FROM SQUARE  Q = SQUARE (SPRINGING FACE ROUTED WITH THE CONTOUR)  A = APEX FROM SQUARE
72
0
11
1373.492773
21
804.495098
31
0
73
0
0
POLYLINE
8
PIECES
66
1
70
1
10
0
20
0
30
0
0
VERTEX
8
PIECES
10
678.553356
20
1198.995098
30
0
0
VERTEX
8
PIECES
10
103.923048
20
1198.995098
30
0
0
VERTEX
8
PIECES
10
0
20
1378.995098
30
0
0
VERTEX
8
PIECES
10
678.553356
20
1378.995098
30
0
0
SEQEND
8
PIECES
0
POLYLINE
8
CLAMPS
66
1
70
1
10
0
20
0
30
0
0
VERTEX
8
CLAMPS
10
124.489292
20
1223.995098
30
0
0
VERTEX
8
CLAMPS
10
254.489292
20
1223.995098
30
0
0
VERTEX
8
CLAMPS
10
254.489292
20
1353.995098
30
0
0
VERTEX
8
CLAMPS
10
124.489292
20
1353.995098
30
0
0
SEQEND
8
CLAMPS
0
POLYLINE
8
CLAMPS
66
1
70
1
10
0
20
0
30
0
0
VERTEX
8
CLAMPS
10
528.553356
20
1223.995098
30
0
0
VERTEX
8
CLAMPS
10
658.553356
20
1223.995098
30
0
0
VERTEX
8
CLAMPS
10
658.553356
20
1353.995098
30
0
0
VERTEX
8
CLAMPS
10
528.553356
20
1353.995098
30
0
0
SEQEND
8
CLAMPS
0
TEXT
8
TEXT
10
339.276678
20
1298.995098
30
0
40
15
1
T - FRAME HEAD P1 L678.6 x180
72
1
11
339.276678
21
1298.995098
31
0
73
2
0
TEXT
8
TEXT
10
339.276678
20
1208.995098
30
0
40
10
1
OUT 663.6 IN 559.6 CUT J30/Q FINGER ONE END
72
1
11
339.276678
21
1208.995098
31
0
73
2
0
POLYLINE
8
PIECES
66
1
70
1
10
0
20
0
30
0
0
VERTEX
8
PIECES
10
1521.737021
20
1198.995098
30
0
0
VERTEX
8
PIECES
10
982.476405
20
1198.995098
30
0
0
VERTEX
8
PIECES
10
878.553356
20
1378.995098
30
0
0
VERTEX
8
PIECES
10
1625.660069
20
1378.995098
30
0
0
SEQEND
8
PIECES
0
POLYLINE
8
CLAMPS
66
1
70
1
10
0
20
0
30
0
0
VERTEX
8
CLAMPS
10
1003.042648
20
1223.995098
30
0
0
VERTEX
8
CLAMPS
10
1133.042648
20
1223.995098
30
0
0
VERTEX
8
CLAMPS
10
1133.042648
20
1353.995098
30
0
0
VERTEX
8
CLAMPS
10
1003.042648
20
1353.995098
30
0
0
SEQEND
8
CLAMPS
0
POLYLINE
8
CLAMPS
66
1
70
1
10
0
20
0
30
0
0
VERTEX
8
CLAMPS
10
1371.170777
20
1223.995098
30
0
0
VERTEX
8
CLAMPS
10
1501.170777
20
1223.995098
30
0
0
VERTEX
8
CLAMPS
10
1501.170777
20
1353.995098
30
0
0
VERTEX
8
CLAMPS
10
1371.170777
20
1353.995098
30
0
0
SEQEND
8
CLAMPS
0
TEXT
8
TEXT
10
1252.106713
20
1298.995098
30
0
40
15
1
T - FRAME HEAD P2 L747.1 x180
72
1
11
1252.106713
21
1298.995098
31
0
73
2
0
TEXT
8
TEXT
10
1252.106713
20
1208.995098
30
0
40
10
1
OUT 717.1 IN 509.3 CUT J30/J30 FINGER BOTH ENDS
72
1
11
1252.106713
21
1208.995098
31
0
73
2
0
POLYLINE
8
PIECES
66
1
70
1
10
0
20
0
30
0
0
VERTEX
8
PIECES
10
2400.290377
20
1198.995098
30
0
0
VERTEX
8
PIECES
10
1825.660069
20
1198.995098
30
0
0
VERTEX
8
PIECES
10
1825.660069
20
1378.995098
30
0
0
VERTEX
8
PIECES
10
2504.213425
20
1378.995098
30
0
0
SEQEND
8
PIECES
0
POLYLINE
8
CLAMPS
66
1
70
1
10
0
20
0
30
0
0
VERTEX
8
CLAMPS
10
1845.660069
20
1223.995098
30
0
0
VERTEX
8
CLAMPS
10
1975.660069
20
1223.995098
30
0
0
VERTEX
8
CLAMPS
10
1975.660069
20
1353.995098
30
0
0
VERTEX
8
CLAMPS
10
1845.660069
20
1353.995098
30
0
0
SEQEND
8
CLAMPS
0
POLYLINE
8
CLAMPS
66
1
70
1
10
0
20
0
30
0
0
VERTEX
8
CLAMPS
10
2249.724134
20
1223.995098
30
0
0
VERTEX
8
CLAMPS
10
2379.724134
20
1223.995098
30
0
0
VERTEX
8
CLAMPS
10
2379.724134
20
1353.995098
30
0
0
VERTEX
8
CLAMPS
10
2249.724134
20
1353.995098
30
0
0
SEQEND
8
CLAMPS
0
TEXT
8
TEXT
10
2164.936747
20
1298.995098
30
0
40
15
1
T - FRAME HEAD P3 L678.6 x180
72
1
11
2164.936747
21
1298.995098
31
0
73
2
0
TEXT
8
TEXT
10
2164.936747
20
1208.995098
30
0
40
10
1
OUT 663.6 IN 559.6 CUT Q/J30 FINGER ONE END
72
1
11
2164.936747
21
1208.995098
31
0
73
2
0
POLYLINE
8
CONTOUR
66
1
70
1
10
0
20
0
30
0
0
VERTEX
8
CONTOUR
10
1290.330034
20
1622.616531
30
0
42
1
0
VERTEX
8
CONTOUR
10
90.330034
20
1622.616531
30
0
0
VERTEX
8
CONTOUR
10
158.330034
20
1622.616531
30
0
42
-1
0
VERTEX
8
CONTOUR
10
1222.330034
20
1622.616531
30
0
0
SEQEND
8
CONTOUR
0
POLYLINE
8
ASSEMBLY
66
1
70
1
10
0
20
0
30
0
0
VERTEX
8
ASSEMBLY
10
1224.775496
20
1578.995098
30
0
0
VERTEX
8
ASSEMBLY
10
944.960342
20
2063.649161
30
0
0
VERTEX
8
ASSEMBLY
10
1048.883391
20
2243.649161
30
0
0
VERTEX
8
ASSEMBLY
10
1380.660069
20
1668.995098
30
0
0
SEQEND
8
ASSEMBLY
0
POLYLINE
8
FINGER
66
1
70
0
10
0
20
0
30
0
0
VERTEX
8
FINGER
10
956.330034
20
2083.342046
30
0
0
VERTEX
8
FINGER
10
990.330034
20
2142.231773
30
0
0
SEQEND
8
FINGER
0
POLYLINE
8
ASSEMBLY
66
1
70
1
10
0
20
0
30
0
0
VERTEX
8
ASSEMBLY
10
944.960342
20
2063.649161
30
0
0
VERTEX
8
ASSEMBLY
10
435.699727
20
2063.649161
30
0
0
VERTEX
8
ASSEMBLY
10
331.776678
20
2243.649161
30
0
0
VERTEX
8
ASSEMBLY
10
1048.883391
20
2243.649161
30
0
0
SEQEND
8
ASSEMBLY
0
POLYLINE
8
FINGER
66
1
70
0
10
0
20
0
30
0
0
VERTEX
8
FINGER
10
424.330034
20
2083.342046
30
0
0
VERTEX
8
FINGER
10
390.330034
20
2142.231773
30
0
0
SEQEND
8
FINGER
0
POLYLINE
8
ASSEMBLY
66
1
70
1
10
0
20
0
30
0
0
VERTEX
8
ASSEMBLY
10
435.699727
20
2063.649161
30
0
0
VERTEX
8
ASSEMBLY
10
155.884573
20
1578.995098
30
0
0
VERTEX
8
ASSEMBLY
10
0
20
1668.995098
30
0
0
VERTEX
8
ASSEMBLY
10
331.776678
20
2243.649161
30
0
0
SEQEND
8
ASSEMBLY
0
TEXT
8
TEXT
10
1480.660069
20
2225.149161
30
0
40
15
1
T - FRAME HEAD
72
0
11
1480.660069
21
2225.149161
31
0
73
0
0
TEXT
8
TEXT
10
1480.660069
20
2203.149161
30
0
40
15
1
SEMI-CIRCLE W1200 RISE600 H2000 HINGE R
72
0
11
1480.660069
21
2203.149161
31
0
73
0
0
TEXT
8
TEXT
10
1480.660069
20
2181.149161
30
0
40
15
1
FACE 68 OFFSET 0 OUTER L1885 INNER L1671.3
72
0
11
1480.660069
21
2181.149161
31
0
73
0
0
TEXT
8
TEXT
10
1480.660069
20
2159.149161
30
0
40
15
1
CHAIN R600 L1885 180DEG: FEWEST 3 x board 180 L717.1 ROUGH 747.1 WASTE 59%
72
0
11
1480.660069
21
2159.149161
31
0
73
0
0
TEXT
8
TEXT
10
1480.660069
20
2137.149161
30
0
40
15
1
  NO ECONOMY ALT WITHIN 6 PIECES -> DEFAULT FEWEST
72
0
11
1480.660069
21
2137.149161
31
0
73
0
0
TEXT
8
TEXT
10
1480.660069
20
2115.149161
30
0
40
15
1
FINGER 15/16/3.8
72
0
11
1480.660069
21
2115.149161
31
0
73
0
0
TEXT
8
TEXT
10
1480.660069
20
2093.149161
30
0
40
15
1
ALLOWANCE 10 PER SIDE  LIMITS: OVERALL >= 450 (CLAMP)  SHORTER EDGE >= 400  STOCK MAX 200
72
0
11
1480.660069
21
2093.149161
31
0
73
0
0
TEXT
8
TEXT
10
1480.660069
20
2071.149161
30
0
40
15
1
CLAMPS (SUGGESTION): UNICLAMP 130 x 130, CLEARANCE 20 FROM THE END CUTS, JAWS 40-98, PIECE THICKNESS 93
72
0
11
1480.660069
21
2071.149161
31
0
73
0
0
TEXT
8
TEXT
10
1480.660069
20
2049.149161
30
0
40
15
1
CUT CODES: J = JOINT FROM SQUARE  Q = SQUARE (SPRINGING FACE ROUTED WITH THE CONTOUR)  A = APEX FROM SQUARE
72
0
11
1480.660069
21
2049.149161
31
0
73
0
0
POLYLINE
8
FIT
66
1
70
1
10
0
20
0
30
0
0
VERTEX
8
FIT
10
1200
20
2443.649161
30
0
42
1
0
VERTEX
8
FIT
10
0
20
2443.649161
30
0
0
VERTEX
8
FIT
10
68
20
2443.649161
30
0
42
-1
0
VERTEX
8
FIT
10
1132
20
2443.649161
30
0
0
SEQEND
8
FIT
0
POLYLINE
8
FIT
66
1
70
1
10
0
20
0
30
0
0
VERTEX
8
FIT
10
1149
20
2443.649161
30
0
42
1
0
VERTEX
8
FIT
10
51
20
2443.649161
30
0
0
VERTEX
8
FIT
10
118
20
2443.649161
30
0
42
-1
0
VERTEX
8
FIT
10
1082
20
2443.649161
30
0
0
SEQEND
8
FIT
0
POLYLINE
8
FIT
66
1
70
1
10
0
20
0
30
0
0
VERTEX
8
FIT
10
1094.5
20
2443.649161
30
0
42
1
0
VERTEX
8
FIT
10
105.5
20
2443.649161
30
0
0
SEQEND
8
FIT
0
POLYLINE
8
FIT
66
1
70
0
10
0
20
0
30
0
0
VERTEX
8
FIT
10
1153
20
2443.649161
30
0
42
0.009042
0
VERTEX
8
FIT
10
1152.638376
20
2463.644802
30
0
0
SEQEND
8
FIT
0
POLYLINE
8
FIT
66
1
70
0
10
0
20
0
30
0
0
VERTEX
8
FIT
10
1152.186456
20
2473.634448
30
0
42
0.009042
0
VERTEX
8
FIT
10
1150.741142
20
2493.581064
30
0
0
SEQEND
8
FIT
0
POLYLINE
8
FIT
66
1
70
0
10
0
20
0
30
0
0
VERTEX
8
FIT
10
1149.748219
20
2503.53151
30
0
42
0.009042
0
VERTEX
8
FIT
10
1147.223466
20
2523.370412
30
0
0
SEQEND
8
FIT
0
POLYLINE
8
FIT
66
1
70
0
10
0
20
0
30
0
0
VERTEX
8
FIT
10
1145.692462
20
2533.25238
30
0
42
0.009042
0
VERTEX
8
FIT
10
1142.0957
20
2552.925197
30
0
0
SEQEND
8
FIT
0
POLYLINE
8
FIT
66
1
70
0
10
0
20
0
30
0
0
VERTEX
8
FIT
10
1140.031119
20
2562.709612
30
0
42
0.009042
0
VERTEX
8
FIT
10
1135.37293
20
2582.15846
30
0
0
SEQEND
8
FIT
0
POLYLINE
8
FIT
66
1
70
0
10
0
20
0
30
0
0
VERTEX
8
FIT
10
1132.780846
20
2591.816533
30
0
42
0.009042
0
VERTEX
8
FIT
10
1127.074937
20
2610.984188
30
0
0
SEQEND
8
FIT
0
POLYLINE
8
FIT
66
1
70
0
10
0
20
0
30
0
0
VERTEX
8
FIT
10
1123.962977
20
2620.487502
30
0
42
0.009042
0
VERTEX
8
FIT
10
1117.226135
20
2639.317567
30
0
0
SEQEND
8
FIT
0
POLYLINE
8
FIT
66
1
70
0
10
0
20
0
30
0
0
VERTEX
8
FIT
10
1113.603456
20
2648.638161
30
0
42
0.009042
0
VERTEX
8
FIT
10
1105.855503
20
2667.075234
30
0
0
SEQEND
8
FIT
0
POLYLINE
8
FIT
66
1
70
0
10
0
20
0
30
0
0
VERTEX
8
FIT
10
1101.732764
20
2676.185683
30
0
42
0.009042
0
VERTEX
8
FIT
10
1092.996497
20
2694.175515
30
0
0
SEQEND
8
FIT
0
POLYLINE
8
FIT
66
1
70
0
10
0
20
0
30
0
0
VERTEX
8
FIT
10
1088.385827
20
2703.049015
30
0
42
0.009042
0
VERTEX
8
FIT
10
1078.686951
20
2720.538675
30
0
0
SEQEND
8
FIT
0
POLYLINE
8
FIT
66
1
70
0
10
0
20
0
30
0
0
VERTEX
8
FIT
10
1073.601917
20
2729.149116
30
0
42
0.009042
0
VERTEX
8
FIT
10
1062.968969
20
2746.087145
30
0
0
SEQEND
8
FIT
0
POLYLINE
8
FIT
66
1
70
0
10
0
20
0
30
0
0
VERTEX
8
FIT
10
1057.424532
20
2754.409194
30
0
42
0.009042
0
VERTEX
8
FIT
10
1045.888797
20
2770.745754
30
0
0
SEQEND
8
FIT
0
POLYLINE
8
FIT
66
1
70
0
10
0
20
0
30
0
0
VERTEX
8
FIT
10
1039.90127
20
2778.754924
30
0
42
0.009042
0
VERTEX
8
FIT
10
1027.496689
20
2794.44195
30
0
0
SEQEND
8
FIT
0
POLYLINE
8
FIT
66
1
70
0
10
0
20
0
30
0
0
VERTEX
8
FIT
10
1021.083691
20
2802.114676
30
0
42
0.009042
0
VERTEX
8
FIT
10
1007.846762
20
2817.106011
30
0
0
SEQEND
8
FIT
0
POLYLINE
8
FIT
66
1
70
0
10
0
20
0
30
0
0
VERTEX
8
FIT
10
1001.027161
20
2824.419718
30
0
42
0.009042
0
VERTEX
8
FIT
10
986.996831
20
2838.671253
30
0
0
SEQEND
8
FIT
0
POLYLINE
8
FIT
66
1
70
0
10
0
20
0
30
0
0
VERTEX
8
FIT
10
979.790691
20
2845.604421
30
0
42
0.009042
0
VERTEX
8
FIT
10
965.008242
20
2859.074225
30
0
0
SEQEND
8
FIT
0
POLYLINE
8
FIT
66
1
70
0
10
0
20
0
30
0
0
VERTEX
8
FIT
10
957.436767
20
2865.606455
30
0
42
0.009042
0
VERTEX
8
FIT
10
941.945693
20
2878.254895
30
0
0
SEQEND
8
FIT
0
POLYLINE
8
FIT
66
1
70
0
10
0
20
0
30
0
0
VERTEX
8
FIT
10
934.031159
20
2884.366968
30
0
42
0.009042
0
VERTEX
8
FIT
10
917.877039
20
2896.156828
30
0
0
SEQEND
8
FIT
0
POLYLINE
8
FIT
66
1
70
0
10
0
20
0
30
0
0
VERTEX
8
FIT
10
909.642734
20
2901.83076
30
0
42
0.009042
0
VERTEX
8
FIT
10
892.873098
20
2912.727351
30
0
0
SEQEND
8
FIT
0
POLYLINE
8
FIT
66
1
70
0
10
0
20
0
30
0
0
VERTEX
8
FIT
10
884.34325
20
2917.946448
30
0
42
0.009042
0
VERTEX
8
FIT
10
867.00744
20
2927.91771
30
0
0
SEQEND
8
FIT
0
POLYLINE
8
FIT
66
1
70
0
10
0
20
0
30
0
0
VERTEX
8
FIT
10
858.207146
20
2932.666615
30
0
42
0.009042
0
VERTEX
8
FIT
10
840.356167
20
2941.683209
30
0
0
SEQEND
8
FIT
0
POLYLINE
8
FIT
66
1
70
0
10
0
20
0
30
0
0
VERTEX
8
FIT
10
831.31132
20
2945.94795
30
0
42
0.009042
0
VERTEX
8
FIT
10
812.997697
20
2953.983347
30
0
0
SEQEND
8
FIT
0
POLYLINE
8
FIT
66
1
70
0
10
0
20
0
30
0
0
VERTEX
8
FIT
10
803.734909
20
2957.751376
30
0
42
0.009042
0
VERTEX
8
FIT
10
785.012525
20
2964.781933
30
0
0
SEQEND
8
FIT
0
POLYLINE
8
FIT
66
1
70
0
10
0
20
0
30
0
0
VERTEX
8
FIT
10
775.559051
20
2968.042163
30
0
42
0.009042
0
VERTEX
8
FIT
10
756.482992
20
2974.047194
30
0
0
SEQEND
8
FIT
0
POLYLINE
8
FIT
66
1
70
0
10
0
20
0
30
0
0
VERTEX
8
FIT
10
746.866646
20
2976.790032
30
0
42
0.009042
0
VERTEX
8
FIT
10
727.493041
20
2981.751869
30
0
0
SEQEND
8
FIT
0
POLYLINE
8
FIT
66
1
70
0
10
0
20
0
30
0
0
VERTEX
8
FIT
10
717.742117
20
2983.969246
30
0
42
0.009042
0
VERTEX
8
FIT
10
698.127968
20
2987.87329
30
0
0
SEQEND
8
FIT
0
POLYLINE
8
FIT
66
1
70
0
10
0
20
0
30
0
0
VERTEX
8
FIT
10
688.271157
20
2989.55868
30
0
42
0.009042
0
VERTEX
8
FIT
10
668.474174
20
2992.393444
30
0
0
SEQEND
8
FIT
0
POLYLINE
8
FIT
66
1
70
0
10
0
20
0
30
0
0
VERTEX
8
FIT
10
658.540477
20
2993.54189
30
0
42
0.009042
0
VERTEX
8
FIT
10
638.618909
20
2995.299032
30
0
0
SEQEND
8
FIT
0
POLYLINE
8
FIT
66
1
70
0
10
0
20
0
30
0
0
VERTEX
8
FIT
10
628.637553
20
2995.907154
30
0
42
0.009042
0
VERTEX
8
FIT
10
608.650016
20
2996.581506
30
0
0
SEQEND
8
FIT
0
POLYLINE
8
FIT
66
1
70
0
10
0
20
0
30
0
0
VERTEX
8
FIT
10
598.65037
20
2996.647514
30
0
42
0.009042
0
VERTEX
8
FIT
10
578.655672
20
2996.237091
30
0
0
SEQEND
8
FIT
0
POLYLINE
8
FIT
66
1
70
0
10
0
20
0
30
0
0
VERTEX
8
FIT
10
568.667158
20
2995.760792
30
0
42
0.009042
0
VERTEX
8
FIT
10
548.724129
20
2994.266801
30
0
0
SEQEND
8
FIT
0
POLYLINE
8
FIT
66
1
70
0
10
0
20
0
30
0
0
VERTEX
8
FIT
10
538.776136
20
2993.249597
30
0
42
0.009042
0
VERTEX
8
FIT
10
518.943455
20
2990.676434
30
0
0
SEQEND
8
FIT
0
POLYLINE
8
FIT
66
1
70
0
10
0
20
0
30
0
0
VERTEX
8
FIT
10
509.065252
20
2989.121316
30
0
42
0.009042
0
VERTEX
8
FIT
10
489.401273
20
2985.476552
30
0
0
SEQEND
8
FIT
0
POLYLINE
8
FIT
66
1
70
0
10
0
20
0
30
0
0
VERTEX
8
FIT
10
479.621925
20
2983.388097
30
0
42
0.009042
0
VERTEX
8
FIT
10
460.184504
20
2978.682457
30
0
0
SEQEND
8
FIT
0
POLYLINE
8
FIT
66
1
70
0
10
0
20
0
30
0
0
VERTEX
8
FIT
10
450.532786
20
2976.066809
30
0
42
0.009042
0
VERTEX
8
FIT
10
431.379114
20
2970.314137
30
0
0
SEQEND
8
FIT
0
POLYLINE
8
FIT
66
1
70
0
10
0
20
0
30
0
0
VERTEX
8
FIT
10
421.883423
20
2967.178993
30
0
42
0.009042
0
VERTEX
8
FIT
10
403.069855
20
2960.396216
30
0
0
SEQEND
8
FIT
0
POLYLINE
8
FIT
66
1
70
0
10
0
20
0
30
0
0
VERTEX
8
FIT
10
393.75813
20
2956.7508
30
0
42
0.009042
0
VERTEX
8
FIT
10
375.340022
20
2948.957873
30
0
0
SEQEND
8
FIT
0
POLYLINE
8
FIT
66
1
70
0
10
0
20
0
30
0
0
VERTEX
8
FIT
10
366.239662
20
2944.812911
30
0
42
0.009042
0
VERTEX
8
FIT
10
348.271205
20
2936.032765
30
0
0
SEQEND
8
FIT
0
POLYLINE
8
FIT
66
1
70
0
10
0
20
0
30
0
0
VERTEX
8
FIT
10
339.408984
20
2931.400453
30
0
42
0.009042
0
VERTEX
8
FIT
10
321.943047
20
2921.658921
30
0
0
SEQEND
8
FIT
0
POLYLINE
8
FIT
66
1
70
0
10
0
20
0
30
0
0
VERTEX
8
FIT
10
313.345041
20
2916.552888
30
0
42
0.009042
0
VERTEX
8
FIT
10
296.433013
20
2905.878633
30
0
0
SEQEND
8
FIT
0
POLYLINE
8
FIT
66
1
70
0
10
0
20
0
30
0
0
VERTEX
8
FIT
10
288.124521
20
2900.313902
30
0
42
0.009042
0
VERTEX
8
FIT
10
271.816163
20
2888.738331
30
0
0
SEQEND
8
FIT
0
POLYLINE
8
FIT
66
1
70
0
10
0
20
0
30
0
0
VERTEX
8
FIT
10
263.821629
20
2882.731276
30
0
42
0.009042
0
VERTEX
8
FIT
10
248.164925
20
2870.288447
30
0
0
SEQEND
8
FIT
0
POLYLINE
8
FIT
66
1
70
0
10
0
20
0
30
0
0
VERTEX
8
FIT
10
240.507873
20
2863.856742
30
0
42
0.009042
0
VERTEX
8
FIT
10
225.548888
20
2850.583265
30
0
0
SEQEND
8
FIT
0
POLYLINE
8
FIT
66
1
70
0
10
0
20
0
30
0
0
VERTEX
8
FIT
10
218.251847
20
2843.745834
30
0
42
0.009042
0
VERTEX
8
FIT
10
204.034596
20
2829.680765
30
0
0
SEQEND
8
FIT
0
POLYLINE
8
FIT
66
1
70
0
10
0
20
0
30
0
0
VERTEX
8
FIT
10
197.119035
20
2822.457725
30
0
42
0.009042
0
VERTEX
8
FIT
10
183.685349
20
2807.642447
30
0
0
SEQEND
8
FIT
0
POLYLINE
8
FIT
66
1
70
0
10
0
20
0
30
0
0
VERTEX
8
FIT
10
177.171617
20
2800.055051
30
0
42
0.009042
0
VERTEX
8
FIT
10
164.561022
20
2784.533154
30
0
0
SEQEND
8
FIT
0
POLYLINE
8
FIT
66
1
70
0
10
0
20
0
30
0
0
VERTEX
8
FIT
10
158.468283
20
2776.603727
30
0
42
0.009042
0
VERTEX
8
FIT
10
146.717883
20
2760.420881
30
0
0
SEQEND
8
FIT
0
POLYLINE
8
FIT
66
1
70
0
10
0
20
0
30
0
0
VERTEX
8
FIT
10
141.064064
20
2752.172754
30
0
42
0.009042
0
VERTEX
8
FIT
10
130.208433
20
2735.376574
30
0
0
SEQEND
8
FIT
0
POLYLINE
8
FIT
66
1
70
0
10
0
20
0
30
0
0
VERTEX
8
FIT
10
125.010169
20
2726.834014
30
0
42
0.009042
0
VERTEX
8
FIT
10
115.081246
20
2709.473919
30
0
0
SEQEND
8
FIT
0
POLYLINE
8
FIT
66
1
70
0
10
0
20
0
30
0
0
VERTEX
8
FIT
10
110.353833
20
2700.662061
30
0
42
0.009042
0
VERTEX
8
FIT
10
101.380832
20
2682.789131
30
0
0
SEQEND
8
FIT
0
POLYLINE
8
FIT
66
1
70
0
10
0
20
0
30
0
0
VERTEX
8
FIT
10
97.138178
20
2673.733902
30
0
42
0.009042
0
VERTEX
8
FIT
10
89.1475
20
2655.400722
30
0
0
SEQEND
8
FIT
0
POLYLINE
8
FIT
66
1
70
0
10
0
20
0
30
0
0
VERTEX
8
FIT
10
85.402089
20
2646.128766
30
0
42
0.009042
0
VERTEX
8
FIT
10
78.417246
20
2627.389279
30
0
0
SEQEND
8
FIT
0
POLYLINE
8
FIT
66
1
70
0
10
0
20
0
30
0
0
VERTEX
8
FIT
10
75.180098
20
2617.927876
30
0
42
0.009042
0
VERTEX
8
FIT
10
69.221641
20
2598.837219
30
0
0
SEQEND
8
FIT
0
POLYLINE
8
FIT
66
1
70
0
10
0
20
0
30
0
0
VERTEX
8
FIT
10
66.50228
20
2589.214208
30
0
42
0.009042
0
VERTEX
8
FIT
10
61.58774
20
2569.828551
30
0
0
SEQEND
8
FIT
0
POLYLINE
8
FIT
66
1
70
0
10
0
20
0
30
0
0
VERTEX
8
FIT
10
59.394168
20
2560.072244
30
0
42
0.009042
0
VERTEX
8
FIT
10
55.538005
20
2540.448625
30
0
0
SEQEND
8
FIT
0
POLYLINE
8
FIT
66
1
70
0
10
0
20
0
30
0
0
VERTEX
8
FIT
10
53.876676
20
2530.58773
30
0
42
0.009042
0
VERTEX
8
FIT
10
51.090236
20
2510.783888
30
0
0
SEQEND
8
FIT
0
POLYLINE
8
FIT
66
1
70
0
10
0
20
0
30
0
0
VERTEX
8
FIT
10
49.966038
20
2500.847417
30
0
42
0.009042
0
VERTEX
8
FIT
10
48.25752
20
2480.921621
30
0
0
SEQEND
8
FIT
0
POLYLINE
8
FIT
66
1
70
0
10
0
20
0
30
0
0
VERTEX
8
FIT
10
47.67376
20
2470.93881
30
0
42
0.009042
0
VERTEX
8
FIT
10
47.048192
20
2450.949687
30
0
0
SEQEND
8
FIT
0
TEXT
8
TEXT
10
1300
20
2978.147514
30
0
40
15
1
T - FIT (ASSEMBLY, NOT A TOOLPATH)
72
0
11
1300
21
2978.147514
31
0
73
0
0
TEXT
8
TEXT
10
1300
20
2956.147514
30
0
40
15
1
GAP 4 LAP 17 (REBATE)
72
0
11
1300
21
2956.147514
31
0
73
0
0
TEXT
8
TEXT
10
1300
20
2934.147514
30
0
40
15
1
FRAME R600 / 532  REBATE WALL R553 (LAND 47, DASHED)
72
0
11
1300
21
2934.147514
31
0
73
0
0
TEXT
8
TEXT
10
1300
20
2912.147514
30
0
40
15
1
LEAF R549 / 482  GLASS R494.5
72
0
11
1300
21
2912.147514
31
0
73
0
0
ENDSEC
0
EOF
