0
SECTION
2
HEADER
9
$ACADVER
1
AC1009
0
ENDSEC
0
SECTION
2
TABLES
0
TABLE
2
LAYER
70
6
0
LAYER
2
0
70
0
62
7
6
CONTINUOUS
0
LAYER
2
CONTOUR
70
0
62
7
6
CONTINUOUS
0
LAYER
2
ASSEMBLY
70
0
62
8
6
CONTINUOUS
0
LAYER
2
PIECES
70
0
62
5
6
CONTINUOUS
0
LAYER
2
FINGER
70
0
62
1
6
CONTINUOUS
0
LAYER
2
TEXT
70
0
62
94
6
CONTINUOUS
0
ENDTAB
0
ENDSEC
0
SECTION
2
ENTITIES
0
POLYLINE
8
ASSEMBLY
66
1
70
1
10
0
20
0
30
0
0
VERTEX
8
ASSEMBLY
10
0
20
0
30
0
0
VERTEX
8
ASSEMBLY
10
413.643103
20
0
30
0
0
VERTEX
8
ASSEMBLY
10
413.643103
20
105
30
0
0
VERTEX
8
ASSEMBLY
10
0
20
105
30
0
0
SEQEND
8
ASSEMBLY
0
POLYLINE
8
PIECES
66
1
70
1
10
0
20
0
30
0
0
VERTEX
8
PIECES
10
411.9395
20
76.958667
30
0
42
0.085807
0
VERTEX
8
PIECES
10
16.703603
20
76.958667
30
0
0
VERTEX
8
PIECES
10
28.117743
20
10.938084
30
0
42
-0.085807
0
VERTEX
8
PIECES
10
400.52536
20
10.938084
30
0
0
SEQEND
8
PIECES
0
POLYLINE
8
FINGER
66
1
70
0
10
0
20
0
30
0
0
VERTEX
8
FINGER
10
28.117743
20
10.938084
30
0
0
VERTEX
8
FINGER
10
16.703603
20
76.958667
30
0
0
SEQEND
8
FINGER
0
POLYLINE
8
FINGER
66
1
70
0
10
0
20
0
30
0
0
VERTEX
8
FINGER
10
16
20
0
30
0
0
VERTEX
8
FINGER
10
16
20
105
30
0
0
SEQEND
8
FINGER
0
TEXT
8
TEXT
10
206.821552
20
62.5
30
0
40
15
1
T - LEAF TOP P1 L413.6 x105
72
1
11
206.821552
21
62.5
31
0
73
2
0
TEXT
8
TEXT
10
206.821552
20
10
30
0
40
10
1
OUT 398.6 IN 369 CUT J9.8/S80.2 FINGER ONE END
72
1
11
206.821552
21
10
31
0
73
2
0
POLYLINE
8
ASSEMBLY
66
1
70
1
10
0
20
0
30
0
0
VERTEX
8
ASSEMBLY
10
613.643103
20
0
30
0
0
VERTEX
8
ASSEMBLY
10
1042.286207
20
0
30
0
0
VERTEX
8
ASSEMBLY
10
1042.286207
20
105
30
0
0
VERTEX
8
ASSEMBLY
10
613.643103
20
105
30
0
0
SEQEND
8
ASSEMBLY
0
POLYLINE
8
PIECES
66
1
70
1
10
0
20
0
30
0
0
VERTEX
8
PIECES
10
1025.582604
20
76.958667
30
0
42
0.085807
0
VERTEX
8
PIECES
10
630.346706
20
76.958667
30
0
0
VERTEX
8
PIECES
10
641.760846
20
10.938084
30
0
42
-0.085807
0
VERTEX
8
PIECES
10
1014.168463
20
10.938084
30
0
0
SEQEND
8
PIECES
0
POLYLINE
8
FINGER
66
1
70
0
10
0
20
0
30
0
0
VERTEX
8
FINGER
10
1014.168463
20
10.938084
30
0
0
VERTEX
8
FINGER
10
1025.582604
20
76.958667
30
0
0
SEQEND
8
FINGER
0
POLYLINE
8
FINGER
66
1
70
0
10
0
20
0
30
0
0
VERTEX
8
FINGER
10
641.760846
20
10.938084
30
0
0
VERTEX
8
FINGER
10
630.346706
20
76.958667
30
0
0
SEQEND
8
FINGER
0
POLYLINE
8
FINGER
66
1
70
0
10
0
20
0
30
0
0
VERTEX
8
FINGER
10
629.643103
20
0
30
0
0
VERTEX
8
FINGER
10
629.643103
20
105
30
0
0
SEQEND
8
FINGER
0
POLYLINE
8
FINGER
66
1
70
0
10
0
20
0
30
0
0
VERTEX
8
FINGER
10
1026.286207
20
0
30
0
0
VERTEX
8
FINGER
10
1026.286207
20
105
30
0
0
SEQEND
8
FINGER
0
TEXT
8
TEXT
10
827.964655
20
62.5
30
0
40
15
1
T - LEAF TOP P2 L428.6 x105
72
1
11
827.964655
21
62.5
31
0
73
2
0
TEXT
8
TEXT
10
827.964655
20
10
30
0
40
10
1
OUT 398.6 IN 369 CUT J9.8/J9.8 FINGER BOTH ENDS
72
1
11
827.964655
21
10
31
0
73
2
0
POLYLINE
8
ASSEMBLY
66
1
70
1
10
0
20
0
30
0
0
VERTEX
8
ASSEMBLY
10
1242.286207
20
0
30
0
0
VERTEX
8
ASSEMBLY
10
1676.872717
20
0
30
0
0
VERTEX
8
ASSEMBLY
10
1676.872717
20
105
30
0
0
VERTEX
8
ASSEMBLY
10
1242.286207
20
105
30
0
0
SEQEND
8
ASSEMBLY
0
POLYLINE
8
PIECES
66
1
70
1
10
0
20
0
30
0
0
VERTEX
8
PIECES
10
1660.169114
20
76.958667
30
0
42
0.085807
0
VERTEX
8
PIECES
10
1264.933216
20
76.958667
30
0
0
VERTEX
8
PIECES
10
1316.835951
20
17.159048
30
0
42
-0.076376
0
VERTEX
8
PIECES
10
1648.754974
20
10.938084
30
0
0
SEQEND
8
PIECES
0
POLYLINE
8
FINGER
66
1
70
0
10
0
20
0
30
0
0
VERTEX
8
FINGER
10
1648.754974
20
10.938084
30
0
0
VERTEX
8
FINGER
10
1660.169114
20
76.958667
30
0
0
SEQEND
8
FINGER
0
POLYLINE
8
FINGER
66
1
70
0
10
0
20
0
30
0
0
VERTEX
8
FINGER
10
1316.835951
20
17.159048
30
0
0
VERTEX
8
FINGER
10
1264.933216
20
76.958667
30
0
0
SEQEND
8
FINGER
0
POLYLINE
8
FINGER
66
1
70
0
10
0
20
0
30
0
0
VERTEX
8
FINGER
10
1258.286207
20
0
30
0
0
VERTEX
8
FINGER
10
1258.286207
20
105
30
0
0
SEQEND
8
FINGER
0
POLYLINE
8
FINGER
66
1
70
0
10
0
20
0
30
0
0
VERTEX
8
FINGER
10
1660.872717
20
0
30
0
0
VERTEX
8
FINGER
10
1660.872717
20
105
30
0
0
SEQEND
8
FINGER
0
TEXT
8
TEXT
10
1459.579462
20
62.5
30
0
40
15
1
T - LEAF TOP P3 L434.6 x105
72
1
11
1459.579462
21
62.5
31
0
73
2
0
TEXT
8
TEXT
10
1459.579462
20
10
30
0
40
10
1
OUT 404.6 IN 322.4 CUT A49/J9.8 FINGER BOTH ENDS
72
1
11
1459.579462
21
10
31
0
73
2
0
POLYLINE
8
ASSEMBLY
66
1
70
1
10
0
20
0
30
0
0
VERTEX
8
ASSEMBLY
10
1876.872717
20
0
30
0
0
VERTEX
8
ASSEMBLY
10
2311.459227
20
0
30
0
0
VERTEX
8
ASSEMBLY
10
2311.459227
20
105
30
0
0
VERTEX
8
ASSEMBLY
10
1876.872717
20
105
30
0
0
SEQEND
8
ASSEMBLY
0
POLYLINE
8
PIECES
66
1
70
1
10
0
20
0
30
0
0
VERTEX
8
PIECES
10
2288.812217
20
76.958667
30
0
42
0.085807
0
VERTEX
8
PIECES
10
1893.57632
20
76.958667
30
0
0
VERTEX
8
PIECES
10
1904.99046
20
10.938084
30
0
42
-0.076376
0
VERTEX
8
PIECES
10
2236.909483
20
17.159048
30
0
0
SEQEND
8
PIECES
0
POLYLINE
8
FINGER
66
1
70
0
10
0
20
0
30
0
0
VERTEX
8
FINGER
10
2236.909483
20
17.159048
30
0
0
VERTEX
8
FINGER
10
2288.812217
20
76.958667
30
0
0
SEQEND
8
FINGER
0
POLYLINE
8
FINGER
66
1
70
0
10
0
20
0
30
0
0
VERTEX
8
FINGER
10
1904.99046
20
10.938084
30
0
0
VERTEX
8
FINGER
10
1893.57632
20
76.958667
30
0
0
SEQEND
8
FINGER
0
POLYLINE
8
FINGER
66
1
70
0
10
0
20
0
30
0
0
VERTEX
8
FINGER
10
1892.872717
20
0
30
0
0
VERTEX
8
FINGER
10
1892.872717
20
105
30
0
0
SEQEND
8
FINGER
0
POLYLINE
8
FINGER
66
1
70
0
10
0
20
0
30
0
0
VERTEX
8
FINGER
10
2295.459227
20
0
30
0
0
VERTEX
8
FINGER
10
2295.459227
20
105
30
0
0
SEQEND
8
FINGER
0
TEXT
8
TEXT
10
2094.165972
20
62.5
30
0
40
15
1
T - LEAF TOP P4 L434.6 x105
72
1
11
2094.165972
21
62.5
31
0
73
2
0
TEXT
8
TEXT
10
2094.165972
20
10
30
0
40
10
1
OUT 404.6 IN 322.4 CUT J9.8/A49 FINGER BOTH ENDS
72
1
11
2094.165972
21
10
31
0
73
2
0
POLYLINE
8
ASSEMBLY
66
1
70
1
10
0
20
0
30
0
0
VERTEX
8
ASSEMBLY
10
2511.459227
20
0
30
0
0
VERTEX
8
ASSEMBLY
10
2940.10233
20
0
30
0
0
VERTEX
8
ASSEMBLY
10
2940.10233
20
105
30
0
0
VERTEX
8
ASSEMBLY
10
2511.459227
20
105
30
0
0
SEQEND
8
ASSEMBLY
0
POLYLINE
8
PIECES
66
1
70
1
10
0
20
0
30
0
0
VERTEX
8
PIECES
10
2923.398727
20
76.958667
30
0
42
0.085807
0
VERTEX
8
PIECES
10
2528.16283
20
76.958667
30
0
0
VERTEX
8
PIECES
10
2539.57697
20
10.938084
30
0
42
-0.085807
0
VERTEX
8
PIECES
10
2911.984587
20
10.938084
30
0
0
SEQEND
8
PIECES
0
POLYLINE
8
FINGER
66
1
70
0
10
0
20
0
30
0
0
VERTEX
8
FINGER
10
2911.984587
20
10.938084
30
0
0
VERTEX
8
FINGER
10
2923.398727
20
76.958667
30
0
0
SEQEND
8
FINGER
0
POLYLINE
8
FINGER
66
1
70
0
10
0
20
0
30
0
0
VERTEX
8
FINGER
10
2539.57697
20
10.938084
30
0
0
VERTEX
8
FINGER
10
2528.16283
20
76.958667
30
0
0
SEQEND
8
FINGER
0
POLYLINE
8
FINGER
66
1
70
0
10
0
20
0
30
0
0
VERTEX
8
FINGER
10
2527.459227
20
0
30
0
0
VERTEX
8
FINGER
10
2527.459227
20
105
30
0
0
SEQEND
8
FINGER
0
POLYLINE
8
FINGER
66
1
70
0
10
0
20
0
30
0
0
VERTEX
8
FINGER
10
2924.10233
20
0
30
0
0
VERTEX
8
FINGER
10
2924.10233
20
105
30
0
0
SEQEND
8
FINGER
0
TEXT
8
TEXT
10
2725.780779
20
62.5
30
0
40
15
1
T - LEAF TOP P5 L428.6 x105
72
1
11
2725.780779
21
62.5
31
0
73
2
0
TEXT
8
TEXT
10
2725.780779
20
10
30
0
40
10
1
OUT 398.6 IN 369 CUT J9.8/J9.8 FINGER BOTH ENDS
72
1
11
2725.780779
21
10
31
0
73
2
0
POLYLINE
8
ASSEMBLY
66
1
70
1
10
0
20
0
30
0
0
VERTEX
8
ASSEMBLY
10
3140.10233
20
0
30
0
0
VERTEX
8
ASSEMBLY
10
3553.745434
20
0
30
0
0
VERTEX
8
ASSEMBLY
10
3553.745434
20
105
30
0
0
VERTEX
8
ASSEMBLY
10
3140.10233
20
105
30
0
0
SEQEND
8
ASSEMBLY
0
POLYLINE
8
PIECES
66
1
70
1
10
0
20
0
30
0
0
VERTEX
8
PIECES
10
3537.041831
20
76.958667
30
0
42
0.085807
0
VERTEX
8
PIECES
10
3141.805933
20
76.958667
30
0
0
VERTEX
8
PIECES
10
3153.220073
20
10.938084
30
0
42
-0.085807
0
VERTEX
8
PIECES
10
3525.62769
20
10.938084
30
0
0
SEQEND
8
PIECES
0
POLYLINE
8
FINGER
66
1
70
0
10
0
20
0
30
0
0
VERTEX
8
FINGER
10
3525.62769
20
10.938084
30
0
0
VERTEX
8
FINGER
10
3537.041831
20
76.958667
30
0
0
SEQEND
8
FINGER
0
POLYLINE
8
FINGER
66
1
70
0
10
0
20
0
30
0
0
VERTEX
8
FINGER
10
3537.745434
20
0
30
0
0
VERTEX
8
FINGER
10
3537.745434
20
105
30
0
0
SEQEND
8
FINGER
0
TEXT
8
TEXT
10
3346.923882
20
62.5
30
0
40
15
1
T - LEAF TOP P6 L413.6 x105
72
1
11
3346.923882
21
62.5
31
0
73
2
0
TEXT
8
TEXT
10
3346.923882
20
10
30
0
40
10
1
OUT 398.6 IN 369 CUT S80.2/J9.8 FINGER ONE END
72
1
11
3346.923882
21
10
31
0
73
2
0
POLYLINE
8
CONTOUR
66
1
70
1
10
0
20
0
30
0
0
VERTEX
8
CONTOUR
10
1147.921646
20
319.789401
30
0
42
0.26259
0
VERTEX
8
CONTOUR
10
587.921646
20
1312.563293
30
0
42
0.26259
0
VERTEX
8
CONTOUR
10
27.921646
20
319.789401
30
0
0
VERTEX
8
CONTOUR
10
94.921646
20
319.789401
30
0
42
-0.252599
0
VERTEX
8
CONTOUR
10
587.921646
20
1233.380666
30
0
42
-0.252599
0
VERTEX
8
CONTOUR
10
1080.921646
20
319.789401
30
0
0
SEQEND
8
CONTOUR
0
POLYLINE
8
ASSEMBLY
66
1
70
1
10
0
20
0
30
0
0
VERTEX
8
ASSEMBLY
10
1072.3782
20
305
30
0
0
VERTEX
8
ASSEMBLY
10
1004.465241
20
697.815674
30
0
0
VERTEX
8
ASSEMBLY
10
1107.930334
20
715.703506
30
0
0
VERTEX
8
ASSEMBLY
10
1175.843293
20
322.887832
30
0
0
SEQEND
8
ASSEMBLY
0
POLYLINE
8
FINGER
66
1
70
0
10
0
20
0
30
0
0
VERTEX
8
FINGER
10
1017.478173
20
686.753104
30
0
0
VERTEX
8
FINGER
10
1080.58914
20
709.247676
30
0
0
SEQEND
8
FINGER
0
POLYLINE
8
ASSEMBLY
66
1
70
1
10
0
20
0
30
0
0
VERTEX
8
ASSEMBLY
10
1014.396025
20
669.953781
30
0
0
VERTEX
8
ASSEMBLY
10
818.541199
20
1017.167276
30
0
0
VERTEX
8
ASSEMBLY
10
909.994975
20
1068.754163
30
0
0
VERTEX
8
ASSEMBLY
10
1105.8498
20
721.540668
30
0
0
SEQEND
8
ASSEMBLY
0
POLYLINE
8
FINGER
66
1
70
0
10
0
20
0
30
0
0
VERTEX
8
FINGER
10
834.512938
20
1011.115796
30
0
0
VERTEX
8
FINGER
10
886.408288
20
1053.493535
30
0
0
SEQEND
8
FINGER
0
POLYLINE
8
ASSEMBLY
66
1
70
1
10
0
20
0
30
0
0
VERTEX
8
ASSEMBLY
10
837.249897
20
994.256795
30
0
0
VERTEX
8
ASSEMBLY
10
531.701567
20
1259.455705
30
0
0
VERTEX
8
ASSEMBLY
10
600.527108
20
1338.752898
30
0
0
VERTEX
8
ASSEMBLY
10
906.075438
20
1073.553988
30
0
0
SEQEND
8
ASSEMBLY
0
POLYLINE
8
FINGER
66
1
70
0
10
0
20
0
30
0
0
VERTEX
8
FINGER
10
587.921646
20
1233.380666
30
0
0
VERTEX
8
FINGER
10
587.921646
20
1312.563293
30
0
0
SEQEND
8
FINGER
0
POLYLINE
8
ASSEMBLY
66
1
70
1
10
0
20
0
30
0
0
VERTEX
8
ASSEMBLY
10
644.141726
20
1259.455705
30
0
0
VERTEX
8
ASSEMBLY
10
338.593396
20
994.256795
30
0
0
VERTEX
8
ASSEMBLY
10
269.767854
20
1073.553988
30
0
0
VERTEX
8
ASSEMBLY
10
575.316185
20
1338.752898
30
0
0
SEQEND
8
ASSEMBLY
0
POLYLINE
8
FINGER
66
1
70
0
10
0
20
0
30
0
0
VERTEX
8
FINGER
10
587.921646
20
1233.380666
30
0
0
VERTEX
8
FINGER
10
587.921646
20
1312.563293
30
0
0
SEQEND
8
FINGER
0
POLYLINE
8
FINGER
66
1
70
0
10
0
20
0
30
0
0
VERTEX
8
FINGER
10
341.330354
20
1011.115796
30
0
0
VERTEX
8
FINGER
10
289.435005
20
1053.493535
30
0
0
SEQEND
8
FINGER
0
POLYLINE
8
ASSEMBLY
66
1
70
1
10
0
20
0
30
0
0
VERTEX
8
ASSEMBLY
10
357.302094
20
1017.167276
30
0
0
VERTEX
8
ASSEMBLY
10
161.447268
20
669.953781
30
0
0
VERTEX
8
ASSEMBLY
10
69.993492
20
721.540668
30
0
0
VERTEX
8
ASSEMBLY
10
265.848318
20
1068.754163
30
0
0
SEQEND
8
ASSEMBLY
0
POLYLINE
8
FINGER
66
1
70
0
10
0
20
0
30
0
0
VERTEX
8
FINGER
10
158.36512
20
686.753104
30
0
0
VERTEX
8
FINGER
10
95.254153
20
709.247676
30
0
0
SEQEND
8
FINGER
0
POLYLINE
8
ASSEMBLY
66
1
70
1
10
0
20
0
30
0
0
VERTEX
8
ASSEMBLY
10
171.378052
20
697.815674
30
0
0
VERTEX
8
ASSEMBLY
10
103.465093
20
305
30
0
0
VERTEX
8
ASSEMBLY
10
0
20
322.887832
30
0
0
VERTEX
8
ASSEMBLY
10
67.912959
20
715.703506
30
0
0
SEQEND
8
ASSEMBLY
0
TEXT
8
TEXT
10
1275.843293
20
1320.252898
30
0
40
15
1
T - LEAF TOP
72
0
11
1275.843293
21
1320.252898
31
0
73
0
0
TEXT
8
TEXT
10
1275.843293
20
1298.252898
30
0
40
15
1
GOTHIC EQUILATERAL W1200 RISE1039.2 H2000 HINGE R
72
0
11
1275.843293
21
1298.252898
31
0
73
0
0
TEXT
8
TEXT
10
1275.843293
20
1276.252898
30
0
40
15
1
FACE 67 OFFSET 40 OUTER L2383 INNER L2163.5
72
0
11
1275.843293
21
1276.252898
31
0
73
0
0
TEXT
8
TEXT
10
1275.843293
20
1254.252898
30
0
40
15
1
ARC 1 R1160 L1191.5 58.9DEG: 3 x board 105 L404.6 ROUGH 434.6 (ALT 2 x board 180)
72
0
11
1275.843293
21
1254.252898
31
0
73
0
0
TEXT
8
TEXT
10
1275.843293
20
1232.252898
30
0
40
15
1
ARC 2 R1160 L1191.5 58.9DEG: 3 x board 105 L404.6 ROUGH 434.6 (ALT 2 x board 180)
72
0
11
1275.843293
21
1232.252898
31
0
73
0
0
TEXT
8
TEXT
10
1275.843293
20
1210.252898
30
0
40
15
1
FINGER 15/16/3.8
72
0
11
1275.843293
21
1210.252898
31
0
73
0
0
TEXT
8
TEXT
10
1275.843293
20
1188.252898
30
0
40
15
1
ALLOWANCE 10 PER SIDE  MAX SEGMENT 36 DEG  RULE NARROWEST
72
0
11
1275.843293
21
1188.252898
31
0
73
0
0
TEXT
8
TEXT
10
1275.843293
20
1166.252898
30
0
40
15
1
CUT CODES: J = JOINT FROM SQUARE  S = ARCH-START, AXIS TO HORIZONTAL  A = APEX FROM SQUARE
72
0
11
1275.843293
21
1166.252898
31
0
73
0
0
POLYLINE
8
ASSEMBLY
66
1
70
1
10
0
20
0
30
0
0
VERTEX
8
ASSEMBLY
10
0
20
1538.752898
30
0
0
VERTEX
8
ASSEMBLY
10
435.22859
20
1538.752898
30
0
0
VERTEX
8
ASSEMBLY
10
435.22859
20
1633.752898
30
0
0
VERTEX
8
ASSEMBLY
10
0
20
1633.752898
30
0
0
SEQEND
8
ASSEMBLY
0
POLYLINE
8
PIECES
66
1
70
1
10
0
20
0
30
0
0
VERTEX
8
PIECES
10
433.492108
20
1605.12861
30
0
42
0.087489
0
VERTEX
8
PIECES
10
16.736482
20
1605.12861
30
0
0
VERTEX
8
PIECES
10
26.634428
20
1548.994568
30
0
42
-0.087489
0
VERTEX
8
PIECES
10
423.594162
20
1548.994568
30
0
0
SEQEND
8
PIECES
0
POLYLINE
8
FINGER
66
1
70
0
10
0
20
0
30
0
0
VERTEX
8
FINGER
10
26.634428
20
1548.994568
30
0
0
VERTEX
8
FINGER
10
16.736482
20
1605.12861
30
0
0
SEQEND
8
FINGER
0
POLYLINE
8
FINGER
66
1
70
0
10
0
20
0
30
0
0
VERTEX
8
FINGER
10
16
20
1538.752898
30
0
0
VERTEX
8
FINGER
10
16
20
1633.752898
30
0
0
SEQEND
8
FINGER
0
TEXT
8
TEXT
10
217.614295
20
1596.252898
30
0
40
15
1
T - FRAME HEAD P1 L435.2 x95
72
1
11
217.614295
21
1596.252898
31
0
73
2
0
TEXT
8
TEXT
10
217.614295
20
1548.752898
30
0
40
10
1
OUT 420.2 IN 393.5 CUT J10/S80 FINGER ONE END
72
1
11
217.614295
21
1548.752898
31
0
73
2
0
POLYLINE
8
ASSEMBLY
66
1
70
1
10
0
20
0
30
0
0
VERTEX
8
ASSEMBLY
10
635.22859
20
1538.752898
30
0
0
VERTEX
8
ASSEMBLY
10
1085.45718
20
1538.752898
30
0
0
VERTEX
8
ASSEMBLY
10
1085.45718
20
1633.752898
30
0
0
VERTEX
8
ASSEMBLY
10
635.22859
20
1633.752898
30
0
0
SEQEND
8
ASSEMBLY
0
POLYLINE
8
PIECES
66
1
70
1
10
0
20
0
30
0
0
VERTEX
8
PIECES
10
1068.720698
20
1605.12861
30
0
42
0.087489
0
VERTEX
8
PIECES
10
651.965072
20
1605.12861
30
0
0
VERTEX
8
PIECES
10
661.863018
20
1548.994568
30
0
42
-0.087489
0
VERTEX
8
PIECES
10
1058.822752
20
1548.994568
30
0
0
SEQEND
8
PIECES
0
POLYLINE
8
FINGER
66
1
70
0
10
0
20
0
30
0
0
VERTEX
8
FINGER
10
1058.822752
20
1548.994568
30
0
0
VERTEX
8
FINGER
10
1068.720698
20
1605.12861
30
0
0
SEQEND
8
FINGER
0
POLYLINE
8
FINGER
66
1
70
0
10
0
20
0
30
0
0
VERTEX
8
FINGER
10
661.863018
20
1548.994568
30
0
0
VERTEX
8
FINGER
10
651.965072
20
1605.12861
30
0
0
SEQEND
8
FINGER
0
POLYLINE
8
FINGER
66
1
70
0
10
0
20
0
30
0
0
VERTEX
8
FINGER
10
651.22859
20
1538.752898
30
0
0
VERTEX
8
FINGER
10
651.22859
20
1633.752898
30
0
0
SEQEND
8
FINGER
0
POLYLINE
8
FINGER
66
1
70
0
10
0
20
0
30
0
0
VERTEX
8
FINGER
10
1069.45718
20
1538.752898
30
0
0
VERTEX
8
FINGER
10
1069.45718
20
1633.752898
30
0
0
SEQEND
8
FINGER
0
TEXT
8
TEXT
10
860.342885
20
1596.252898
30
0
40
15
1
T - FRAME HEAD P2 L450.2 x95
72
1
11
860.342885
21
1596.252898
31
0
73
2
0
TEXT
8
TEXT
10
860.342885
20
1548.752898
30
0
40
10
1
OUT 420.2 IN 393.5 CUT J10/J10 FINGER BOTH ENDS
72
1
11
860.342885
21
1548.752898
31
0
73
2
0
POLYLINE
8
ASSEMBLY
66
1
70
1
10
0
20
0
30
0
0
VERTEX
8
ASSEMBLY
10
1285.45718
20
1538.752898
30
0
0
VERTEX
8
ASSEMBLY
10
1741.361365
20
1538.752898
30
0
0
VERTEX
8
ASSEMBLY
10
1741.361365
20
1633.752898
30
0
0
VERTEX
8
ASSEMBLY
10
1285.45718
20
1633.752898
30
0
0
SEQEND
8
ASSEMBLY
0
POLYLINE
8
PIECES
66
1
70
1
10
0
20
0
30
0
0
VERTEX
8
PIECES
10
1724.624883
20
1605.12861
30
0
42
0.087489
0
VERTEX
8
PIECES
10
1307.869256
20
1605.12861
30
0
0
VERTEX
8
PIECES
10
1350.533886
20
1554.282885
30
0
42
-0.080178
0
VERTEX
8
PIECES
10
1714.726937
20
1548.994568
30
0
0
SEQEND
8
PIECES
0
POLYLINE
8
FINGER
66
1
70
0
10
0
20
0
30
0
0
VERTEX
8
FINGER
10
1714.726937
20
1548.994568
30
0
0
VERTEX
8
FINGER
10
1724.624883
20
1605.12861
30
0
0
SEQEND
8
FINGER
0
POLYLINE
8
FINGER
66
1
70
0
10
0
20
0
30
0
0
VERTEX
8
FINGER
10
1350.533886
20
1554.282885
30
0
0
VERTEX
8
FINGER
10
1307.869256
20
1605.12861
30
0
0
SEQEND
8
FINGER
0
POLYLINE
8
FINGER
66
1
70
0
10
0
20
0
30
0
0
VERTEX
8
FINGER
10
1301.45718
20
1538.752898
30
0
0
VERTEX
8
FINGER
10
1301.45718
20
1633.752898
30
0
0
SEQEND
8
FINGER
0
POLYLINE
8
FINGER
66
1
70
0
10
0
20
0
30
0
0
VERTEX
8
FINGER
10
1725.361365
20
1538.752898
30
0
0
VERTEX
8
FINGER
10
1725.361365
20
1633.752898
30
0
0
SEQEND
8
FINGER
0
TEXT
8
TEXT
10
1513.409272
20
1596.252898
30
0
40
15
1
T - FRAME HEAD P3 L455.9 x95
72
1
11
1513.409272
21
1596.252898
31
0
73
2
0
TEXT
8
TEXT
10
1513.409272
20
1548.752898
30
0
40
10
1
OUT 425.9 IN 354.9 CUT A50/J10 FINGER BOTH ENDS
72
1
11
1513.409272
21
1548.752898
31
0
73
2
0
POLYLINE
8
ASSEMBLY
66
1
70
1
10
0
20
0
30
0
0
VERTEX
8
ASSEMBLY
10
1941.361365
20
1538.752898
30
0
0
VERTEX
8
ASSEMBLY
10
2397.265549
20
1538.752898
30
0
0
VERTEX
8
ASSEMBLY
10
2397.265549
20
1633.752898
30
0
0
VERTEX
8
ASSEMBLY
10
1941.361365
20
1633.752898
30
0
0
SEQEND
8
ASSEMBLY
0
POLYLINE
8
PIECES
66
1
70
1
10
0
20
0
30
0
0
VERTEX
8
PIECES
10
2374.853473
20
1605.12861
30
0
42
0.087489
0
VERTEX
8
PIECES
10
1958.097846
20
1605.12861
30
0
0
VERTEX
8
PIECES
10
1967.995792
20
1548.994568
30
0
42
-0.080178
0
VERTEX
8
PIECES
10
2332.188844
20
1554.282885
30
0
0
SEQEND
8
PIECES
0
POLYLINE
8
FINGER
66
1
70
0
10
0
20
0
30
0
0
VERTEX
8
FINGER
10
2332.188844
20
1554.282885
30
0
0
VERTEX
8
FINGER
10
2374.853473
20
1605.12861
30
0
0
SEQEND
8
FINGER
0
POLYLINE
8
FINGER
66
1
70
0
10
0
20
0
30
0
0
VERTEX
8
FINGER
10
1967.995792
20
1548.994568
30
0
0
VERTEX
8
FINGER
10
1958.097846
20
1605.12861
30
0
0
SEQEND
8
FINGER
0
POLYLINE
8
FINGER
66
1
70
0
10
0
20
0
30
0
0
VERTEX
8
FINGER
10
1957.361365
20
1538.752898
30
0
0
VERTEX
8
FINGER
10
1957.361365
20
1633.752898
30
0
0
SEQEND
8
FINGER
0
POLYLINE
8
FINGER
66
1
70
0
10
0
20
0
30
0
0
VERTEX
8
FINGER
10
2381.265549
20
1538.752898
30
0
0
VERTEX
8
FINGER
10
2381.265549
20
1633.752898
30
0
0
SEQEND
8
FINGER
0
TEXT
8
TEXT
10
2169.313457
20
1596.252898
30
0
40
15
1
T - FRAME HEAD P4 L455.9 x95
72
1
11
2169.313457
21
1596.252898
31
0
73
2
0
TEXT
8
TEXT
10
2169.313457
20
1548.752898
30
0
40
10
1
OUT 425.9 IN 354.9 CUT J10/A50 FINGER BOTH ENDS
72
1
11
2169.313457
21
1548.752898
31
0
73
2
0
POLYLINE
8
ASSEMBLY
66
1
70
1
10
0
20
0
30
0
0
VERTEX
8
ASSEMBLY
10
2597.265549
20
1538.752898
30
0
0
VERTEX
8
ASSEMBLY
10
3047.494139
20
1538.752898
30
0
0
VERTEX
8
ASSEMBLY
10
3047.494139
20
1633.752898
30
0
0
VERTEX
8
ASSEMBLY
10
2597.265549
20
1633.752898
30
0
0
SEQEND
8
ASSEMBLY
0
POLYLINE
8
PIECES
66
1
70
1
10
0
20
0
30
0
0
VERTEX
8
PIECES
10
3030.757657
20
1605.12861
30
0
42
0.087489
0
VERTEX
8
PIECES
10
2614.002031
20
1605.12861
30
0
0
VERTEX
8
PIECES
10
2623.899977
20
1548.994568
30
0
42
-0.087489
0
VERTEX
8
PIECES
10
3020.859711
20
1548.994568
30
0
0
SEQEND
8
PIECES
0
POLYLINE
8
FINGER
66
1
70
0
10
0
20
0
30
0
0
VERTEX
8
FINGER
10
3020.859711
20
1548.994568
30
0
0
VERTEX
8
FINGER
10
3030.757657
20
1605.12861
30
0
0
SEQEND
8
FINGER
0
POLYLINE
8
FINGER
66
1
70
0
10
0
20
0
30
0
0
VERTEX
8
FINGER
10
2623.899977
20
1548.994568
30
0
0
VERTEX
8
FINGER
10
2614.002031
20
1605.12861
30
0
0
SEQEND
8
FINGER
0
POLYLINE
8
FINGER
66
1
70
0
10
0
20
0
30
0
0
VERTEX
8
FINGER
10
2613.265549
20
1538.752898
30
0
0
VERTEX
8
FINGER
10
2613.265549
20
1633.752898
30
0
0
SEQEND
8
FINGER
0
POLYLINE
8
FINGER
66
1
70
0
10
0
20
0
30
0
0
VERTEX
8
FINGER
10
3031.494139
20
1538.752898
30
0
0
VERTEX
8
FINGER
10
3031.494139
20
1633.752898
30
0
0
SEQEND
8
FINGER
0
TEXT
8
TEXT
10
2822.379844
20
1596.252898
30
0
40
15
1
T - FRAME HEAD P5 L450.2 x95
72
1
11
2822.379844
21
1596.252898
31
0
73
2
0
TEXT
8
TEXT
10
2822.379844
20
1548.752898
30
0
40
10
1
OUT 420.2 IN 393.5 CUT J10/J10 FINGER BOTH ENDS
72
1
11
2822.379844
21
1548.752898
31
0
73
2
0
POLYLINE
8
ASSEMBLY
66
1
70
1
10
0
20
0
30
0
0
VERTEX
8
ASSEMBLY
10
3247.494139
20
1538.752898
30
0
0
VERTEX
8
ASSEMBLY
10
3682.722729
20
1538.752898
30
0
0
VERTEX
8
ASSEMBLY
10
3682.722729
20
1633.752898
30
0
0
VERTEX
8
ASSEMBLY
10
3247.494139
20
1633.752898
30
0
0
SEQEND
8
ASSEMBLY
0
POLYLINE
8
PIECES
66
1
70
1
10
0
20
0
30
0
0
VERTEX
8
PIECES
10
3665.986247
20
1605.12861
30
0
42
0.087489
0
VERTEX
8
PIECES
10
3249.230621
20
1605.12861
30
0
0
VERTEX
8
PIECES
10
3259.128567
20
1548.994568
30
0
42
-0.087489
0
VERTEX
8
PIECES
10
3656.088301
20
1548.994568
30
0
0
SEQEND
8
PIECES
0
POLYLINE
8
FINGER
66
1
70
0
10
0
20
0
30
0
0
VERTEX
8
FINGER
10
3656.088301
20
1548.994568
30
0
0
VERTEX
8
FINGER
10
3665.986247
20
1605.12861
30
0
0
SEQEND
8
FINGER
0
POLYLINE
8
FINGER
66
1
70
0
10
0
20
0
30
0
0
VERTEX
8
FINGER
10
3666.722729
20
1538.752898
30
0
0
VERTEX
8
FINGER
10
3666.722729
20
1633.752898
30
0
0
SEQEND
8
FINGER
0
TEXT
8
TEXT
10
3465.108434
20
1596.252898
30
0
40
15
1
T - FRAME HEAD P6 L435.2 x95
72
1
11
3465.108434
21
1596.252898
31
0
73
2
0
TEXT
8
TEXT
10
3465.108434
20
1548.752898
30
0
40
10
1
OUT 420.2 IN 393.5 CUT S80/J10 FINGER ONE END
72
1
11
3465.108434
21
1548.752898
31
0
73
2
0
POLYLINE
8
CONTOUR
66
1
70
1
10
0
20
0
30
0
0
VERTEX
8
CONTOUR
10
1228.490958
20
1846.98902
30
0
42
0.267949
0
VERTEX
8
CONTOUR
10
628.490958
20
2886.219505
30
0
42
0.267949
0
VERTEX
8
CONTOUR
10
28.490958
20
1846.98902
30
0
0
VERTEX
8
CONTOUR
10
85.490958
20
1846.98902
30
0
42
-0.260183
0
VERTEX
8
CONTOUR
10
628.490958
20
2819.845125
30
0
42
-0.260183
0
VERTEX
8
CONTOUR
10
1171.490958
20
1846.98902
30
0
0
SEQEND
8
CONTOUR
0
POLYLINE
8
ASSEMBLY
66
1
70
1
10
0
20
0
30
0
0
VERTEX
8
ASSEMBLY
10
1163.42518
20
1833.752898
30
0
0
VERTEX
8
ASSEMBLY
10
1090.453251
20
2247.597272
30
0
0
VERTEX
8
ASSEMBLY
10
1184.009987
20
2264.093849
30
0
0
VERTEX
8
ASSEMBLY
10
1256.981916
20
1850.249475
30
0
0
SEQEND
8
ASSEMBLY
0
POLYLINE
8
FINGER
66
1
70
0
10
0
20
0
30
0
0
VERTEX
8
FINGER
10
1102.559624
20
2237.918044
30
0
0
VERTEX
8
FINGER
10
1156.122103
20
2257.413192
30
0
0
SEQEND
8
FINGER
0
POLYLINE
8
ASSEMBLY
66
1
70
1
10
0
20
0
30
0
0
VERTEX
8
ASSEMBLY
10
1099.507292
20
2222.721499
30
0
0
VERTEX
8
ASSEMBLY
10
889.392997
20
2586.650134
30
0
0
VERTEX
8
ASSEMBLY
10
971.66541
20
2634.150134
30
0
0
VERTEX
8
ASSEMBLY
10
1181.779705
20
2270.221499
30
0
0
SEQEND
8
ASSEMBLY
0
POLYLINE
8
FINGER
66
1
70
0
10
0
20
0
30
0
0
VERTEX
8
FINGER
10
904.079757
20
2581.695258
30
0
0
VERTEX
8
FINGER
10
947.74429
20
2618.334152
30
0
0
SEQEND
8
FINGER
0
POLYLINE
8
ASSEMBLY
66
1
70
1
10
0
20
0
30
0
0
VERTEX
8
ASSEMBLY
10
906.409027
20
2566.371218
30
0
0
VERTEX
8
ASSEMBLY
10
580.147493
20
2840.137151
30
0
0
VERTEX
8
ASSEMBLY
10
641.212316
20
2912.911373
30
0
0
VERTEX
8
ASSEMBLY
10
967.47385
20
2639.14544
30
0
0
SEQEND
8
ASSEMBLY
0
POLYLINE
8
FINGER
66
1
70
0
10
0
20
0
30
0
0
VERTEX
8
FINGER
10
628.490958
20
2819.845125
30
0
0
VERTEX
8
FINGER
10
628.490958
20
2886.219505
30
0
0
SEQEND
8
FINGER
0
POLYLINE
8
ASSEMBLY
66
1
70
1
10
0
20
0
30
0
0
VERTEX
8
ASSEMBLY
10
676.834423
20
2840.137151
30
0
0
VERTEX
8
ASSEMBLY
10
350.572889
20
2566.371218
30
0
0
VERTEX
8
ASSEMBLY
10
289.508066
20
2639.14544
30
0
0
VERTEX
8
ASSEMBLY
10
615.7696
20
2912.911373
30
0
0
SEQEND
8
ASSEMBLY
0
POLYLINE
8
FINGER
66
1
70
0
10
0
20
0
30
0
0
VERTEX
8
FINGER
10
352.90216
20
2581.695258
30
0
0
VERTEX
8
FINGER
10
309.237626
20
2618.334152
30
0
0
SEQEND
8
FINGER
0
POLYLINE
8
ASSEMBLY
66
1
70
1
10
0
20
0
30
0
0
VERTEX
8
ASSEMBLY
10
367.58892
20
2586.650134
30
0
0
VERTEX
8
ASSEMBLY
10
157.474625
20
2222.721499
30
0
0
VERTEX
8
ASSEMBLY
10
75.202211
20
2270.221499
30
0
0
VERTEX
8
ASSEMBLY
10
285.316506
20
2634.150134
30
0
0
SEQEND
8
ASSEMBLY
0
POLYLINE
8
FINGER
66
1
70
0
10
0
20
0
30
0
0
VERTEX
8
FINGER
10
154.422293
20
2237.918044
30
0
0
VERTEX
8
FINGER
10
100.859813
20
2257.413192
30
0
0
SEQEND
8
FINGER
0
POLYLINE
8
ASSEMBLY
66
1
70
1
10
0
20
0
30
0
0
VERTEX
8
ASSEMBLY
10
166.528665
20
2247.597272
30
0
0
VERTEX
8
ASSEMBLY
10
93.556737
20
1833.752898
30
0
0
VERTEX
8
ASSEMBLY
10
0
20
1850.249475
30
0
0
VERTEX
8
ASSEMBLY
10
72.971929
20
2264.093849
30
0
0
SEQEND
8
ASSEMBLY
0
TEXT
8
TEXT
10
1356.981916
20
2894.411373
30
0
40
15
1
T - FRAME HEAD
72
0
11
1356.981916
21
2894.411373
31
0
73
0
0
TEXT
8
TEXT
10
1356.981916
20
2872.411373
30
0
40
15
1
GOTHIC EQUILATERAL W1200 RISE1039.2 H2000 HINGE R
72
0
11
1356.981916
21
2872.411373
31
0
73
0
0
TEXT
8
TEXT
10
1356.981916
20
2850.411373
30
0
40
15
1
FACE 57 OFFSET 0 OUTER L2513.3 INNER L2327.5
72
0
11
1356.981916
21
2850.411373
31
0
73
0
0
TEXT
8
TEXT
10
1356.981916
20
2828.411373
30
0
40
15
1
ARC 1 R1200 L1256.6 60DEG: 3 x board 95 L425.9 ROUGH 455.9 (ALT 2 x board 180)
72
0
11
1356.981916
21
2828.411373
31
0
73
0
0
TEXT
8
TEXT
10
1356.981916
20
2806.411373
30
0
40
15
1
ARC 2 R1200 L1256.6 60DEG: 3 x board 95 L425.9 ROUGH 455.9 (ALT 2 x board 180)
72
0
11
1356.981916
21
2806.411373
31
0
73
0
0
TEXT
8
TEXT
10
1356.981916
20
2784.411373
30
0
40
15
1
FINGER 15/16/3.8
72
0
11
1356.981916
21
2784.411373
31
0
73
0
0
TEXT
8
TEXT
10
1356.981916
20
2762.411373
30
0
40
15
1
ALLOWANCE 10 PER SIDE  MAX SEGMENT 36 DEG  RULE NARROWEST
72
0
11
1356.981916
21
2762.411373
31
0
73
0
0
TEXT
8
TEXT
10
1356.981916
20
2740.411373
30
0
40
15
1
CUT CODES: J = JOINT FROM SQUARE  S = ARCH-START, AXIS TO HORIZONTAL  A = APEX FROM SQUARE
72
0
11
1356.981916
21
2740.411373
31
0
73
0
0
ENDSEC
0
EOF
