0
SECTION
2
HEADER
9
$ACADVER
1
AC1009
0
ENDSEC
0
SECTION
2
TABLES
0
TABLE
2
LAYER
70
7
0
LAYER
2
0
70
0
62
7
6
CONTINUOUS
0
LAYER
2
FIT
70
0
62
4
6
CONTINUOUS
0
LAYER
2
CONTOUR
70
0
62
7
6
CONTINUOUS
0
LAYER
2
ASSEMBLY
70
0
62
8
6
CONTINUOUS
0
LAYER
2
PIECES
70
0
62
5
6
CONTINUOUS
0
LAYER
2
FINGER
70
0
62
1
6
CONTINUOUS
0
LAYER
2
TEXT
70
0
62
94
6
CONTINUOUS
0
ENDTAB
0
ENDSEC
0
SECTION
2
ENTITIES
0
POLYLINE
8
ASSEMBLY
66
1
70
1
10
0
20
0
30
0
0
VERTEX
8
ASSEMBLY
10
0
20
0
30
0
0
VERTEX
8
ASSEMBLY
10
194.665491
20
0
30
0
0
VERTEX
8
ASSEMBLY
10
194.665491
20
95
30
0
0
VERTEX
8
ASSEMBLY
10
0
20
95
30
0
0
SEQEND
8
ASSEMBLY
0
POLYLINE
8
PIECES
66
1
70
1
10
0
20
0
30
0
0
VERTEX
8
PIECES
10
177.440282
20
75.521749
30
0
42
0.112673
0
VERTEX
8
PIECES
10
17.225209
20
75.521749
30
0
0
VERTEX
8
PIECES
10
32.134112
20
10.201579
30
0
42
-0.112673
0
VERTEX
8
PIECES
10
162.531379
20
10.201579
30
0
0
SEQEND
8
PIECES
0
POLYLINE
8
FINGER
66
1
70
0
10
0
20
0
30
0
0
VERTEX
8
FINGER
10
162.531379
20
10.201579
30
0
0
VERTEX
8
FINGER
10
177.440282
20
75.521749
30
0
0
SEQEND
8
FINGER
0
POLYLINE
8
FINGER
66
1
70
0
10
0
20
0
30
0
0
VERTEX
8
FINGER
10
32.134112
20
10.201579
30
0
0
VERTEX
8
FINGER
10
17.225209
20
75.521749
30
0
0
SEQEND
8
FINGER
0
POLYLINE
8
FINGER
66
1
70
0
10
0
20
0
30
0
0
VERTEX
8
FINGER
10
16
20
0
30
0
0
VERTEX
8
FINGER
10
16
20
95
30
0
0
SEQEND
8
FINGER
0
POLYLINE
8
FINGER
66
1
70
0
10
0
20
0
30
0
0
VERTEX
8
FINGER
10
178.665491
20
0
30
0
0
VERTEX
8
FINGER
10
178.665491
20
95
30
0
0
SEQEND
8
FINGER
0
TEXT
8
TEXT
10
97.332746
20
57.5
30
0
40
15
1
CIR - LEAF RING P1 L194.7 x95
72
1
11
97.332746
21
57.5
31
0
73
2
0
TEXT
8
TEXT
10
97.332746
20
10
30
0
40
10
1
OUT 164.7 IN 125.9 CUT J12.9/J12.9 FINGER BOTH ENDS
72
1
11
97.332746
21
10
31
0
73
2
0
POLYLINE
8
ASSEMBLY
66
1
70
1
10
0
20
0
30
0
0
VERTEX
8
ASSEMBLY
10
394.665491
20
0
30
0
0
VERTEX
8
ASSEMBLY
10
589.330982
20
0
30
0
0
VERTEX
8
ASSEMBLY
10
589.330982
20
95
30
0
0
VERTEX
8
ASSEMBLY
10
394.665491
20
95
30
0
0
SEQEND
8
ASSEMBLY
0
POLYLINE
8
PIECES
66
1
70
1
10
0
20
0
30
0
0
VERTEX
8
PIECES
10
572.105773
20
75.521749
30
0
42
0.112673
0
VERTEX
8
PIECES
10
411.8907
20
75.521749
30
0
0
VERTEX
8
PIECES
10
426.799603
20
10.201579
30
0
42
-0.112673
0
VERTEX
8
PIECES
10
557.19687
20
10.201579
30
0
0
SEQEND
8
PIECES
0
POLYLINE
8
FINGER
66
1
70
0
10
0
20
0
30
0
0
VERTEX
8
FINGER
10
557.19687
20
10.201579
30
0
0
VERTEX
8
FINGER
10
572.105773
20
75.521749
30
0
0
SEQEND
8
FINGER
0
POLYLINE
8
FINGER
66
1
70
0
10
0
20
0
30
0
0
VERTEX
8
FINGER
10
426.799603
20
10.201579
30
0
0
VERTEX
8
FINGER
10
411.8907
20
75.521749
30
0
0
SEQEND
8
FINGER
0
POLYLINE
8
FINGER
66
1
70
0
10
0
20
0
30
0
0
VERTEX
8
FINGER
10
410.665491
20
0
30
0
0
VERTEX
8
FINGER
10
410.665491
20
95
30
0
0
SEQEND
8
FINGER
0
POLYLINE
8
FINGER
66
1
70
0
10
0
20
0
30
0
0
VERTEX
8
FINGER
10
573.330982
20
0
30
0
0
VERTEX
8
FINGER
10
573.330982
20
95
30
0
0
SEQEND
8
FINGER
0
TEXT
8
TEXT
10
491.998237
20
57.5
30
0
40
15
1
CIR - LEAF RING P2 L194.7 x95
72
1
11
491.998237
21
57.5
31
0
73
2
0
TEXT
8
TEXT
10
491.998237
20
10
30
0
40
10
1
OUT 164.7 IN 125.9 CUT J12.9/J12.9 FINGER BOTH ENDS
72
1
11
491.998237
21
10
31
0
73
2
0
POLYLINE
8
ASSEMBLY
66
1
70
1
10
0
20
0
30
0
0
VERTEX
8
ASSEMBLY
10
789.330982
20
0
30
0
0
VERTEX
8
ASSEMBLY
10
983.996473
20
0
30
0
0
VERTEX
8
ASSEMBLY
10
983.996473
20
95
30
0
0
VERTEX
8
ASSEMBLY
10
789.330982
20
95
30
0
0
SEQEND
8
ASSEMBLY
0
POLYLINE
8
PIECES
66
1
70
1
10
0
20
0
30
0
0
VERTEX
8
PIECES
10
966.771264
20
75.521749
30
0
42
0.112673
0
VERTEX
8
PIECES
10
806.556192
20
75.521749
30
0
0
VERTEX
8
PIECES
10
821.465094
20
10.201579
30
0
42
-0.112673
0
VERTEX
8
PIECES
10
951.862361
20
10.201579
30
0
0
SEQEND
8
PIECES
0
POLYLINE
8
FINGER
66
1
70
0
10
0
20
0
30
0
0
VERTEX
8
FINGER
10
951.862361
20
10.201579
30
0
0
VERTEX
8
FINGER
10
966.771264
20
75.521749
30
0
0
SEQEND
8
FINGER
0
POLYLINE
8
FINGER
66
1
70
0
10
0
20
0
30
0
0
VERTEX
8
FINGER
10
821.465094
20
10.201579
30
0
0
VERTEX
8
FINGER
10
806.556192
20
75.521749
30
0
0
SEQEND
8
FINGER
0
POLYLINE
8
FINGER
66
1
70
0
10
0
20
0
30
0
0
VERTEX
8
FINGER
10
805.330982
20
0
30
0
0
VERTEX
8
FINGER
10
805.330982
20
95
30
0
0
SEQEND
8
FINGER
0
POLYLINE
8
FINGER
66
1
70
0
10
0
20
0
30
0
0
VERTEX
8
FINGER
10
967.996473
20
0
30
0
0
VERTEX
8
FINGER
10
967.996473
20
95
30
0
0
SEQEND
8
FINGER
0
TEXT
8
TEXT
10
886.663728
20
57.5
30
0
40
15
1
CIR - LEAF RING P3 L194.7 x95
72
1
11
886.663728
21
57.5
31
0
73
2
0
TEXT
8
TEXT
10
886.663728
20
10
30
0
40
10
1
OUT 164.7 IN 125.9 CUT J12.9/J12.9 FINGER BOTH ENDS
72
1
11
886.663728
21
10
31
0
73
2
0
POLYLINE
8
ASSEMBLY
66
1
70
1
10
0
20
0
30
0
0
VERTEX
8
ASSEMBLY
10
1183.996473
20
0
30
0
0
VERTEX
8
ASSEMBLY
10
1378.661965
20
0
30
0
0
VERTEX
8
ASSEMBLY
10
1378.661965
20
95
30
0
0
VERTEX
8
ASSEMBLY
10
1183.996473
20
95
30
0
0
SEQEND
8
ASSEMBLY
0
POLYLINE
8
PIECES
66
1
70
1
10
0
20
0
30
0
0
VERTEX
8
PIECES
10
1361.436755
20
75.521749
30
0
42
0.112673
0
VERTEX
8
PIECES
10
1201.221683
20
75.521749
30
0
0
VERTEX
8
PIECES
10
1216.130585
20
10.201579
30
0
42
-0.112673
0
VERTEX
8
PIECES
10
1346.527853
20
10.201579
30
0
0
SEQEND
8
PIECES
0
POLYLINE
8
FINGER
66
1
70
0
10
0
20
0
30
0
0
VERTEX
8
FINGER
10
1346.527853
20
10.201579
30
0
0
VERTEX
8
FINGER
10
1361.436755
20
75.521749
30
0
0
SEQEND
8
FINGER
0
POLYLINE
8
FINGER
66
1
70
0
10
0
20
0
30
0
0
VERTEX
8
FINGER
10
1216.130585
20
10.201579
30
0
0
VERTEX
8
FINGER
10
1201.221683
20
75.521749
30
0
0
SEQEND
8
FINGER
0
POLYLINE
8
FINGER
66
1
70
0
10
0
20
0
30
0
0
VERTEX
8
FINGER
10
1199.996473
20
0
30
0
0
VERTEX
8
FINGER
10
1199.996473
20
95
30
0
0
SEQEND
8
FINGER
0
POLYLINE
8
FINGER
66
1
70
0
10
0
20
0
30
0
0
VERTEX
8
FINGER
10
1362.661965
20
0
30
0
0
VERTEX
8
FINGER
10
1362.661965
20
95
30
0
0
SEQEND
8
FINGER
0
TEXT
8
TEXT
10
1281.329219
20
57.5
30
0
40
15
1
CIR - LEAF RING P4 L194.7 x95
72
1
11
1281.329219
21
57.5
31
0
73
2
0
TEXT
8
TEXT
10
1281.329219
20
10
30
0
40
10
1
OUT 164.7 IN 125.9 CUT J12.9/J12.9 FINGER BOTH ENDS
72
1
11
1281.329219
21
10
31
0
73
2
0
POLYLINE
8
ASSEMBLY
66
1
70
1
10
0
20
0
30
0
0
VERTEX
8
ASSEMBLY
10
1578.661965
20
0
30
0
0
VERTEX
8
ASSEMBLY
10
1773.327456
20
0
30
0
0
VERTEX
8
ASSEMBLY
10
1773.327456
20
95
30
0
0
VERTEX
8
ASSEMBLY
10
1578.661965
20
95
30
0
0
SEQEND
8
ASSEMBLY
0
POLYLINE
8
PIECES
66
1
70
1
10
0
20
0
30
0
0
VERTEX
8
PIECES
10
1756.102246
20
75.521749
30
0
42
0.112673
0
VERTEX
8
PIECES
10
1595.887174
20
75.521749
30
0
0
VERTEX
8
PIECES
10
1610.796076
20
10.201579
30
0
42
-0.112673
0
VERTEX
8
PIECES
10
1741.193344
20
10.201579
30
0
0
SEQEND
8
PIECES
0
POLYLINE
8
FINGER
66
1
70
0
10
0
20
0
30
0
0
VERTEX
8
FINGER
10
1741.193344
20
10.201579
30
0
0
VERTEX
8
FINGER
10
1756.102246
20
75.521749
30
0
0
SEQEND
8
FINGER
0
POLYLINE
8
FINGER
66
1
70
0
10
0
20
0
30
0
0
VERTEX
8
FINGER
10
1610.796076
20
10.201579
30
0
0
VERTEX
8
FINGER
10
1595.887174
20
75.521749
30
0
0
SEQEND
8
FINGER
0
POLYLINE
8
FINGER
66
1
70
0
10
0
20
0
30
0
0
VERTEX
8
FINGER
10
1594.661965
20
0
30
0
0
VERTEX
8
FINGER
10
1594.661965
20
95
30
0
0
SEQEND
8
FINGER
0
POLYLINE
8
FINGER
66
1
70
0
10
0
20
0
30
0
0
VERTEX
8
FINGER
10
1757.327456
20
0
30
0
0
VERTEX
8
FINGER
10
1757.327456
20
95
30
0
0
SEQEND
8
FINGER
0
TEXT
8
TEXT
10
1675.99471
20
57.5
30
0
40
15
1
CIR - LEAF RING P5 L194.7 x95
72
1
11
1675.99471
21
57.5
31
0
73
2
0
TEXT
8
TEXT
10
1675.99471
20
10
30
0
40
10
1
OUT 164.7 IN 125.9 CUT J12.9/J12.9 FINGER BOTH ENDS
72
1
11
1675.99471
21
10
31
0
73
2
0
POLYLINE
8
ASSEMBLY
66
1
70
1
10
0
20
0
30
0
0
VERTEX
8
ASSEMBLY
10
1973.327456
20
0
30
0
0
VERTEX
8
ASSEMBLY
10
2167.992947
20
0
30
0
0
VERTEX
8
ASSEMBLY
10
2167.992947
20
95
30
0
0
VERTEX
8
ASSEMBLY
10
1973.327456
20
95
30
0
0
SEQEND
8
ASSEMBLY
0
POLYLINE
8
PIECES
66
1
70
1
10
0
20
0
30
0
0
VERTEX
8
PIECES
10
2150.767737
20
75.521749
30
0
42
0.112673
0
VERTEX
8
PIECES
10
1990.552665
20
75.521749
30
0
0
VERTEX
8
PIECES
10
2005.461568
20
10.201579
30
0
42
-0.112673
0
VERTEX
8
PIECES
10
2135.858835
20
10.201579
30
0
0
SEQEND
8
PIECES
0
POLYLINE
8
FINGER
66
1
70
0
10
0
20
0
30
0
0
VERTEX
8
FINGER
10
2135.858835
20
10.201579
30
0
0
VERTEX
8
FINGER
10
2150.767737
20
75.521749
30
0
0
SEQEND
8
FINGER
0
POLYLINE
8
FINGER
66
1
70
0
10
0
20
0
30
0
0
VERTEX
8
FINGER
10
2005.461568
20
10.201579
30
0
0
VERTEX
8
FINGER
10
1990.552665
20
75.521749
30
0
0
SEQEND
8
FINGER
0
POLYLINE
8
FINGER
66
1
70
0
10
0
20
0
30
0
0
VERTEX
8
FINGER
10
1989.327456
20
0
30
0
0
VERTEX
8
FINGER
10
1989.327456
20
95
30
0
0
SEQEND
8
FINGER
0
POLYLINE
8
FINGER
66
1
70
0
10
0
20
0
30
0
0
VERTEX
8
FINGER
10
2151.992947
20
0
30
0
0
VERTEX
8
FINGER
10
2151.992947
20
95
30
0
0
SEQEND
8
FINGER
0
TEXT
8
TEXT
10
2070.660201
20
57.5
30
0
40
15
1
CIR - LEAF RING P6 L194.7 x95
72
1
11
2070.660201
21
57.5
31
0
73
2
0
TEXT
8
TEXT
10
2070.660201
20
10
30
0
40
10
1
OUT 164.7 IN 125.9 CUT J12.9/J12.9 FINGER BOTH ENDS
72
1
11
2070.660201
21
10
31
0
73
2
0
POLYLINE
8
ASSEMBLY
66
1
70
1
10
0
20
0
30
0
0
VERTEX
8
ASSEMBLY
10
2367.992947
20
0
30
0
0
VERTEX
8
ASSEMBLY
10
2562.658438
20
0
30
0
0
VERTEX
8
ASSEMBLY
10
2562.658438
20
95
30
0
0
VERTEX
8
ASSEMBLY
10
2367.992947
20
95
30
0
0
SEQEND
8
ASSEMBLY
0
POLYLINE
8
PIECES
66
1
70
1
10
0
20
0
30
0
0
VERTEX
8
PIECES
10
2545.433229
20
75.521749
30
0
42
0.112673
0
VERTEX
8
PIECES
10
2385.218156
20
75.521749
30
0
0
VERTEX
8
PIECES
10
2400.127059
20
10.201579
30
0
42
-0.112673
0
VERTEX
8
PIECES
10
2530.524326
20
10.201579
30
0
0
SEQEND
8
PIECES
0
POLYLINE
8
FINGER
66
1
70
0
10
0
20
0
30
0
0
VERTEX
8
FINGER
10
2530.524326
20
10.201579
30
0
0
VERTEX
8
FINGER
10
2545.433229
20
75.521749
30
0
0
SEQEND
8
FINGER
0
POLYLINE
8
FINGER
66
1
70
0
10
0
20
0
30
0
0
VERTEX
8
FINGER
10
2400.127059
20
10.201579
30
0
0
VERTEX
8
FINGER
10
2385.218156
20
75.521749
30
0
0
SEQEND
8
FINGER
0
POLYLINE
8
FINGER
66
1
70
0
10
0
20
0
30
0
0
VERTEX
8
FINGER
10
2383.992947
20
0
30
0
0
VERTEX
8
FINGER
10
2383.992947
20
95
30
0
0
SEQEND
8
FINGER
0
POLYLINE
8
FINGER
66
1
70
0
10
0
20
0
30
0
0
VERTEX
8
FINGER
10
2546.658438
20
0
30
0
0
VERTEX
8
FINGER
10
2546.658438
20
95
30
0
0
SEQEND
8
FINGER
0
TEXT
8
TEXT
10
2465.325692
20
57.5
30
0
40
15
1
CIR - LEAF RING P7 L194.7 x95
72
1
11
2465.325692
21
57.5
31
0
73
2
0
TEXT
8
TEXT
10
2465.325692
20
10
30
0
40
10
1
OUT 164.7 IN 125.9 CUT J12.9/J12.9 FINGER BOTH ENDS
72
1
11
2465.325692
21
10
31
0
73
2
0
POLYLINE
8
ASSEMBLY
66
1
70
1
10
0
20
0
30
0
0
VERTEX
8
ASSEMBLY
10
2762.658438
20
0
30
0
0
VERTEX
8
ASSEMBLY
10
2957.323929
20
0
30
0
0
VERTEX
8
ASSEMBLY
10
2957.323929
20
95
30
0
0
VERTEX
8
ASSEMBLY
10
2762.658438
20
95
30
0
0
SEQEND
8
ASSEMBLY
0
POLYLINE
8
PIECES
66
1
70
1
10
0
20
0
30
0
0
VERTEX
8
PIECES
10
2940.09872
20
75.521749
30
0
42
0.112673
0
VERTEX
8
PIECES
10
2779.883647
20
75.521749
30
0
0
VERTEX
8
PIECES
10
2794.79255
20
10.201579
30
0
42
-0.112673
0
VERTEX
8
PIECES
10
2925.189817
20
10.201579
30
0
0
SEQEND
8
PIECES
0
POLYLINE
8
FINGER
66
1
70
0
10
0
20
0
30
0
0
VERTEX
8
FINGER
10
2925.189817
20
10.201579
30
0
0
VERTEX
8
FINGER
10
2940.09872
20
75.521749
30
0
0
SEQEND
8
FINGER
0
POLYLINE
8
FINGER
66
1
70
0
10
0
20
0
30
0
0
VERTEX
8
FINGER
10
2794.79255
20
10.201579
30
0
0
VERTEX
8
FINGER
10
2779.883647
20
75.521749
30
0
0
SEQEND
8
FINGER
0
POLYLINE
8
FINGER
66
1
70
0
10
0
20
0
30
0
0
VERTEX
8
FINGER
10
2778.658438
20
0
30
0
0
VERTEX
8
FINGER
10
2778.658438
20
95
30
0
0
SEQEND
8
FINGER
0
POLYLINE
8
FINGER
66
1
70
0
10
0
20
0
30
0
0
VERTEX
8
FINGER
10
2941.323929
20
0
30
0
0
VERTEX
8
FINGER
10
2941.323929
20
95
30
0
0
SEQEND
8
FINGER
0
TEXT
8
TEXT
10
2859.991183
20
57.5
30
0
40
15
1
CIR - LEAF RING P8 L194.7 x95
72
1
11
2859.991183
21
57.5
31
0
73
2
0
TEXT
8
TEXT
10
2859.991183
20
10
30
0
40
10
1
OUT 164.7 IN 125.9 CUT J12.9/J12.9 FINGER BOTH ENDS
72
1
11
2859.991183
21
10
31
0
73
2
0
POLYLINE
8
ASSEMBLY
66
1
70
1
10
0
20
0
30
0
0
VERTEX
8
ASSEMBLY
10
3157.323929
20
0
30
0
0
VERTEX
8
ASSEMBLY
10
3351.98942
20
0
30
0
0
VERTEX
8
ASSEMBLY
10
3351.98942
20
95
30
0
0
VERTEX
8
ASSEMBLY
10
3157.323929
20
95
30
0
0
SEQEND
8
ASSEMBLY
0
POLYLINE
8
PIECES
66
1
70
1
10
0
20
0
30
0
0
VERTEX
8
PIECES
10
3334.764211
20
75.521749
30
0
42
0.112673
0
VERTEX
8
PIECES
10
3174.549138
20
75.521749
30
0
0
VERTEX
8
PIECES
10
3189.458041
20
10.201579
30
0
42
-0.112673
0
VERTEX
8
PIECES
10
3319.855308
20
10.201579
30
0
0
SEQEND
8
PIECES
0
POLYLINE
8
FINGER
66
1
70
0
10
0
20
0
30
0
0
VERTEX
8
FINGER
10
3319.855308
20
10.201579
30
0
0
VERTEX
8
FINGER
10
3334.764211
20
75.521749
30
0
0
SEQEND
8
FINGER
0
POLYLINE
8
FINGER
66
1
70
0
10
0
20
0
30
0
0
VERTEX
8
FINGER
10
3189.458041
20
10.201579
30
0
0
VERTEX
8
FINGER
10
3174.549138
20
75.521749
30
0
0
SEQEND
8
FINGER
0
POLYLINE
8
FINGER
66
1
70
0
10
0
20
0
30
0
0
VERTEX
8
FINGER
10
3173.323929
20
0
30
0
0
VERTEX
8
FINGER
10
3173.323929
20
95
30
0
0
SEQEND
8
FINGER
0
POLYLINE
8
FINGER
66
1
70
0
10
0
20
0
30
0
0
VERTEX
8
FINGER
10
3335.98942
20
0
30
0
0
VERTEX
8
FINGER
10
3335.98942
20
95
30
0
0
SEQEND
8
FINGER
0
TEXT
8
TEXT
10
3254.656675
20
57.5
30
0
40
15
1
CIR - LEAF RING P9 L194.7 x95
72
1
11
3254.656675
21
57.5
31
0
73
2
0
TEXT
8
TEXT
10
3254.656675
20
10
30
0
40
10
1
OUT 164.7 IN 125.9 CUT J12.9/J12.9 FINGER BOTH ENDS
72
1
11
3254.656675
21
10
31
0
73
2
0
POLYLINE
8
ASSEMBLY
66
1
70
1
10
0
20
0
30
0
0
VERTEX
8
ASSEMBLY
10
3551.98942
20
0
30
0
0
VERTEX
8
ASSEMBLY
10
3746.654911
20
0
30
0
0
VERTEX
8
ASSEMBLY
10
3746.654911
20
95
30
0
0
VERTEX
8
ASSEMBLY
10
3551.98942
20
95
30
0
0
SEQEND
8
ASSEMBLY
0
POLYLINE
8
PIECES
66
1
70
1
10
0
20
0
30
0
0
VERTEX
8
PIECES
10
3729.429702
20
75.521749
30
0
42
0.112673
0
VERTEX
8
PIECES
10
3569.214629
20
75.521749
30
0
0
VERTEX
8
PIECES
10
3584.123532
20
10.201579
30
0
42
-0.112673
0
VERTEX
8
PIECES
10
3714.520799
20
10.201579
30
0
0
SEQEND
8
PIECES
0
POLYLINE
8
FINGER
66
1
70
0
10
0
20
0
30
0
0
VERTEX
8
FINGER
10
3714.520799
20
10.201579
30
0
0
VERTEX
8
FINGER
10
3729.429702
20
75.521749
30
0
0
SEQEND
8
FINGER
0
POLYLINE
8
FINGER
66
1
70
0
10
0
20
0
30
0
0
VERTEX
8
FINGER
10
3584.123532
20
10.201579
30
0
0
VERTEX
8
FINGER
10
3569.214629
20
75.521749
30
0
0
SEQEND
8
FINGER
0
POLYLINE
8
FINGER
66
1
70
0
10
0
20
0
30
0
0
VERTEX
8
FINGER
10
3567.98942
20
0
30
0
0
VERTEX
8
FINGER
10
3567.98942
20
95
30
0
0
SEQEND
8
FINGER
0
POLYLINE
8
FINGER
66
1
70
0
10
0
20
0
30
0
0
VERTEX
8
FINGER
10
3730.654911
20
0
30
0
0
VERTEX
8
FINGER
10
3730.654911
20
95
30
0
0
SEQEND
8
FINGER
0
TEXT
8
TEXT
10
3649.322166
20
57.5
30
0
40
15
1
CIR - LEAF RING P10 L194.7 x95
72
1
11
3649.322166
21
57.5
31
0
73
2
0
TEXT
8
TEXT
10
3649.322166
20
10
30
0
40
10
1
OUT 164.7 IN 125.9 CUT J12.9/J12.9 FINGER BOTH ENDS
72
1
11
3649.322166
21
10
31
0
73
2
0
POLYLINE
8
ASSEMBLY
66
1
70
1
10
0
20
0
30
0
0
VERTEX
8
ASSEMBLY
10
3946.654911
20
0
30
0
0
VERTEX
8
ASSEMBLY
10
4141.320402
20
0
30
0
0
VERTEX
8
ASSEMBLY
10
4141.320402
20
95
30
0
0
VERTEX
8
ASSEMBLY
10
3946.654911
20
95
30
0
0
SEQEND
8
ASSEMBLY
0
POLYLINE
8
PIECES
66
1
70
1
10
0
20
0
30
0
0
VERTEX
8
PIECES
10
4124.095193
20
75.521749
30
0
42
0.112673
0
VERTEX
8
PIECES
10
3963.880121
20
75.521749
30
0
0
VERTEX
8
PIECES
10
3978.789023
20
10.201579
30
0
42
-0.112673
0
VERTEX
8
PIECES
10
4109.18629
20
10.201579
30
0
0
SEQEND
8
PIECES
0
POLYLINE
8
FINGER
66
1
70
0
10
0
20
0
30
0
0
VERTEX
8
FINGER
10
4109.18629
20
10.201579
30
0
0
VERTEX
8
FINGER
10
4124.095193
20
75.521749
30
0
0
SEQEND
8
FINGER
0
POLYLINE
8
FINGER
66
1
70
0
10
0
20
0
30
0
0
VERTEX
8
FINGER
10
3978.789023
20
10.201579
30
0
0
VERTEX
8
FINGER
10
3963.880121
20
75.521749
30
0
0
SEQEND
8
FINGER
0
POLYLINE
8
FINGER
66
1
70
0
10
0
20
0
30
0
0
VERTEX
8
FINGER
10
3962.654911
20
0
30
0
0
VERTEX
8
FINGER
10
3962.654911
20
95
30
0
0
SEQEND
8
FINGER
0
POLYLINE
8
FINGER
66
1
70
0
10
0
20
0
30
0
0
VERTEX
8
FINGER
10
4125.320402
20
0
30
0
0
VERTEX
8
FINGER
10
4125.320402
20
95
30
0
0
SEQEND
8
FINGER
0
TEXT
8
TEXT
10
4043.987657
20
57.5
30
0
40
15
1
CIR - LEAF RING P11 L194.7 x95
72
1
11
4043.987657
21
57.5
31
0
73
2
0
TEXT
8
TEXT
10
4043.987657
20
10
30
0
40
10
1
OUT 164.7 IN 125.9 CUT J12.9/J12.9 FINGER BOTH ENDS
72
1
11
4043.987657
21
10
31
0
73
2
0
POLYLINE
8
ASSEMBLY
66
1
70
1
10
0
20
0
30
0
0
VERTEX
8
ASSEMBLY
10
4341.320402
20
0
30
0
0
VERTEX
8
ASSEMBLY
10
4535.985894
20
0
30
0
0
VERTEX
8
ASSEMBLY
10
4535.985894
20
95
30
0
0
VERTEX
8
ASSEMBLY
10
4341.320402
20
95
30
0
0
SEQEND
8
ASSEMBLY
0
POLYLINE
8
PIECES
66
1
70
1
10
0
20
0
30
0
0
VERTEX
8
PIECES
10
4518.760684
20
75.521749
30
0
42
0.112673
0
VERTEX
8
PIECES
10
4358.545612
20
75.521749
30
0
0
VERTEX
8
PIECES
10
4373.454514
20
10.201579
30
0
42
-0.112673
0
VERTEX
8
PIECES
10
4503.851782
20
10.201579
30
0
0
SEQEND
8
PIECES
0
POLYLINE
8
FINGER
66
1
70
0
10
0
20
0
30
0
0
VERTEX
8
FINGER
10
4503.851782
20
10.201579
30
0
0
VERTEX
8
FINGER
10
4518.760684
20
75.521749
30
0
0
SEQEND
8
FINGER
0
POLYLINE
8
FINGER
66
1
70
0
10
0
20
0
30
0
0
VERTEX
8
FINGER
10
4373.454514
20
10.201579
30
0
0
VERTEX
8
FINGER
10
4358.545612
20
75.521749
30
0
0
SEQEND
8
FINGER
0
POLYLINE
8
FINGER
66
1
70
0
10
0
20
0
30
0
0
VERTEX
8
FINGER
10
4357.320402
20
0
30
0
0
VERTEX
8
FINGER
10
4357.320402
20
95
30
0
0
SEQEND
8
FINGER
0
POLYLINE
8
FINGER
66
1
70
0
10
0
20
0
30
0
0
VERTEX
8
FINGER
10
4519.985894
20
0
30
0
0
VERTEX
8
FINGER
10
4519.985894
20
95
30
0
0
SEQEND
8
FINGER
0
TEXT
8
TEXT
10
4438.653148
20
57.5
30
0
40
15
1
CIR - LEAF RING P12 L194.7 x95
72
1
11
4438.653148
21
57.5
31
0
73
2
0
TEXT
8
TEXT
10
4438.653148
20
10
30
0
40
10
1
OUT 164.7 IN 125.9 CUT J12.9/J12.9 FINGER BOTH ENDS
72
1
11
4438.653148
21
10
31
0
73
2
0
POLYLINE
8
ASSEMBLY
66
1
70
1
10
0
20
0
30
0
0
VERTEX
8
ASSEMBLY
10
4735.985894
20
0
30
0
0
VERTEX
8
ASSEMBLY
10
4930.651385
20
0
30
0
0
VERTEX
8
ASSEMBLY
10
4930.651385
20
95
30
0
0
VERTEX
8
ASSEMBLY
10
4735.985894
20
95
30
0
0
SEQEND
8
ASSEMBLY
0
POLYLINE
8
PIECES
66
1
70
1
10
0
20
0
30
0
0
VERTEX
8
PIECES
10
4913.426175
20
75.521749
30
0
42
0.112673
0
VERTEX
8
PIECES
10
4753.211103
20
75.521749
30
0
0
VERTEX
8
PIECES
10
4768.120005
20
10.201579
30
0
42
-0.112673
0
VERTEX
8
PIECES
10
4898.517273
20
10.201579
30
0
0
SEQEND
8
PIECES
0
POLYLINE
8
FINGER
66
1
70
0
10
0
20
0
30
0
0
VERTEX
8
FINGER
10
4898.517273
20
10.201579
30
0
0
VERTEX
8
FINGER
10
4913.426175
20
75.521749
30
0
0
SEQEND
8
FINGER
0
POLYLINE
8
FINGER
66
1
70
0
10
0
20
0
30
0
0
VERTEX
8
FINGER
10
4768.120005
20
10.201579
30
0
0
VERTEX
8
FINGER
10
4753.211103
20
75.521749
30
0
0
SEQEND
8
FINGER
0
POLYLINE
8
FINGER
66
1
70
0
10
0
20
0
30
0
0
VERTEX
8
FINGER
10
4751.985894
20
0
30
0
0
VERTEX
8
FINGER
10
4751.985894
20
95
30
0
0
SEQEND
8
FINGER
0
POLYLINE
8
FINGER
66
1
70
0
10
0
20
0
30
0
0
VERTEX
8
FINGER
10
4914.651385
20
0
30
0
0
VERTEX
8
FINGER
10
4914.651385
20
95
30
0
0
SEQEND
8
FINGER
0
TEXT
8
TEXT
10
4833.318639
20
57.5
30
0
40
15
1
CIR - LEAF RING P13 L194.7 x95
72
1
11
4833.318639
21
57.5
31
0
73
2
0
TEXT
8
TEXT
10
4833.318639
20
10
30
0
40
10
1
OUT 164.7 IN 125.9 CUT J12.9/J12.9 FINGER BOTH ENDS
72
1
11
4833.318639
21
10
31
0
73
2
0
POLYLINE
8
ASSEMBLY
66
1
70
1
10
0
20
0
30
0
0
VERTEX
8
ASSEMBLY
10
5130.651385
20
0
30
0
0
VERTEX
8
ASSEMBLY
10
5325.316876
20
0
30
0
0
VERTEX
8
ASSEMBLY
10
5325.316876
20
95
30
0
0
VERTEX
8
ASSEMBLY
10
5130.651385
20
95
30
0
0
SEQEND
8
ASSEMBLY
0
POLYLINE
8
PIECES
66
1
70
1
10
0
20
0
30
0
0
VERTEX
8
PIECES
10
5308.091666
20
75.521749
30
0
42
0.112673
0
VERTEX
8
PIECES
10
5147.876594
20
75.521749
30
0
0
VERTEX
8
PIECES
10
5162.785497
20
10.201579
30
0
42
-0.112673
0
VERTEX
8
PIECES
10
5293.182764
20
10.201579
30
0
0
SEQEND
8
PIECES
0
POLYLINE
8
FINGER
66
1
70
0
10
0
20
0
30
0
0
VERTEX
8
FINGER
10
5293.182764
20
10.201579
30
0
0
VERTEX
8
FINGER
10
5308.091666
20
75.521749
30
0
0
SEQEND
8
FINGER
0
POLYLINE
8
FINGER
66
1
70
0
10
0
20
0
30
0
0
VERTEX
8
FINGER
10
5162.785497
20
10.201579
30
0
0
VERTEX
8
FINGER
10
5147.876594
20
75.521749
30
0
0
SEQEND
8
FINGER
0
POLYLINE
8
FINGER
66
1
70
0
10
0
20
0
30
0
0
VERTEX
8
FINGER
10
5146.651385
20
0
30
0
0
VERTEX
8
FINGER
10
5146.651385
20
95
30
0
0
SEQEND
8
FINGER
0
POLYLINE
8
FINGER
66
1
70
0
10
0
20
0
30
0
0
VERTEX
8
FINGER
10
5309.316876
20
0
30
0
0
VERTEX
8
FINGER
10
5309.316876
20
95
30
0
0
SEQEND
8
FINGER
0
TEXT
8
TEXT
10
5227.98413
20
57.5
30
0
40
15
1
CIR - LEAF RING P14 L194.7 x95
72
1
11
5227.98413
21
57.5
31
0
73
2
0
TEXT
8
TEXT
10
5227.98413
20
10
30
0
40
10
1
OUT 164.7 IN 125.9 CUT J12.9/J12.9 FINGER BOTH ENDS
72
1
11
5227.98413
21
10
31
0
73
2
0
POLYLINE
8
CONTOUR
66
1
70
1
10
0
20
0
30
0
0
VERTEX
8
CONTOUR
10
739.485046
20
665.4523
30
0
42
1
0
VERTEX
8
CONTOUR
10
19.485046
20
665.4523
30
0
42
1
0
VERTEX
8
CONTOUR
10
739.485046
20
665.4523
30
0
0
VERTEX
8
CONTOUR
10
672.485046
20
665.4523
30
0
42
-1
0
VERTEX
8
CONTOUR
10
86.485046
20
665.4523
30
0
42
-1
0
VERTEX
8
CONTOUR
10
672.485046
20
665.4523
30
0
0
SEQEND
8
CONTOUR
0
POLYLINE
8
ASSEMBLY
66
1
70
1
10
0
20
0
30
0
0
VERTEX
8
ASSEMBLY
10
666.351941
20
646.477711
30
0
0
VERTEX
8
ASSEMBLY
10
629.710422
20
807.014694
30
0
0
VERTEX
8
ASSEMBLY
10
722.328574
20
828.154183
30
0
0
VERTEX
8
ASSEMBLY
10
758.970093
20
667.6172
30
0
0
SEQEND
8
ASSEMBLY
0
POLYLINE
8
FINGER
66
1
70
0
10
0
20
0
30
0
0
VERTEX
8
FINGER
10
672.485046
20
665.4523
30
0
0
VERTEX
8
FINGER
10
739.485046
20
665.4523
30
0
0
SEQEND
8
FINGER
0
POLYLINE
8
FINGER
66
1
70
0
10
0
20
0
30
0
0
VERTEX
8
FINGER
10
643.468925
20
792.580235
30
0
0
VERTEX
8
FINGER
10
703.833839
20
821.650446
30
0
0
SEQEND
8
FINGER
0
POLYLINE
8
ASSEMBLY
66
1
70
1
10
0
20
0
30
0
0
VERTEX
8
ASSEMBLY
10
646.175953
20
772.823667
30
0
0
VERTEX
8
ASSEMBLY
10
543.508699
20
901.564332
30
0
0
VERTEX
8
ASSEMBLY
10
617.78269
20
960.795863
30
0
0
VERTEX
8
ASSEMBLY
10
720.449944
20
832.055198
30
0
0
SEQEND
8
ASSEMBLY
0
POLYLINE
8
FINGER
66
1
70
0
10
0
20
0
30
0
0
VERTEX
8
FINGER
10
562.167558
20
894.528924
30
0
0
VERTEX
8
FINGER
10
603.941375
20
946.911633
30
0
0
SEQEND
8
FINGER
0
POLYLINE
8
ASSEMBLY
66
1
70
1
10
0
20
0
30
0
0
VERTEX
8
ASSEMBLY
10
573.178561
20
877.903407
30
0
0
VERTEX
8
ASSEMBLY
10
424.82008
20
949.349086
30
0
0
VERTEX
8
ASSEMBLY
10
466.039035
20
1034.941128
30
0
0
VERTEX
8
ASSEMBLY
10
614.397516
20
963.495449
30
0
0
SEQEND
8
ASSEMBLY
0
POLYLINE
8
FINGER
66
1
70
0
10
0
20
0
30
0
0
VERTEX
8
FINGER
10
444.68368
20
951.106178
30
0
0
VERTEX
8
FINGER
10
459.592583
20
1016.426348
30
0
0
SEQEND
8
FINGER
0
POLYLINE
8
ASSEMBLY
66
1
70
1
10
0
20
0
30
0
0
VERTEX
8
ASSEMBLY
10
461.817792
20
940.904599
30
0
0
VERTEX
8
ASSEMBLY
10
297.152301
20
940.904599
30
0
0
VERTEX
8
ASSEMBLY
10
297.152301
20
1035.904599
30
0
0
VERTEX
8
ASSEMBLY
10
461.817792
20
1035.904599
30
0
0
SEQEND
8
ASSEMBLY
0
POLYLINE
8
FINGER
66
1
70
0
10
0
20
0
30
0
0
VERTEX
8
FINGER
10
314.286413
20
951.106178
30
0
0
VERTEX
8
FINGER
10
299.37751
20
1016.426348
30
0
0
SEQEND
8
FINGER
0
POLYLINE
8
ASSEMBLY
66
1
70
1
10
0
20
0
30
0
0
VERTEX
8
ASSEMBLY
10
334.150013
20
949.349086
30
0
0
VERTEX
8
ASSEMBLY
10
185.791532
20
877.903407
30
0
0
VERTEX
8
ASSEMBLY
10
144.572577
20
963.495449
30
0
0
VERTEX
8
ASSEMBLY
10
292.931058
20
1034.941128
30
0
0
SEQEND
8
ASSEMBLY
0
POLYLINE
8
FINGER
66
1
70
0
10
0
20
0
30
0
0
VERTEX
8
FINGER
10
196.802534
20
894.528924
30
0
0
VERTEX
8
FINGER
10
155.028718
20
946.911633
30
0
0
SEQEND
8
FINGER
0
POLYLINE
8
ASSEMBLY
66
1
70
1
10
0
20
0
30
0
0
VERTEX
8
ASSEMBLY
10
215.461394
20
901.564332
30
0
0
VERTEX
8
ASSEMBLY
10
112.794139
20
772.823667
30
0
0
VERTEX
8
ASSEMBLY
10
38.520149
20
832.055198
30
0
0
VERTEX
8
ASSEMBLY
10
141.187403
20
960.795863
30
0
0
SEQEND
8
ASSEMBLY
0
POLYLINE
8
FINGER
66
1
70
0
10
0
20
0
30
0
0
VERTEX
8
FINGER
10
115.501168
20
792.580235
30
0
0
VERTEX
8
FINGER
10
55.136254
20
821.650446
30
0
0
SEQEND
8
FINGER
0
POLYLINE
8
ASSEMBLY
66
1
70
1
10
0
20
0
30
0
0
VERTEX
8
ASSEMBLY
10
129.259671
20
807.014694
30
0
0
VERTEX
8
ASSEMBLY
10
92.618152
20
646.477711
30
0
0
VERTEX
8
ASSEMBLY
10
0
20
667.6172
30
0
0
VERTEX
8
ASSEMBLY
10
36.641519
20
828.154183
30
0
0
SEQEND
8
ASSEMBLY
0
POLYLINE
8
FINGER
66
1
70
0
10
0
20
0
30
0
0
VERTEX
8
FINGER
10
86.485046
20
665.4523
30
0
0
VERTEX
8
FINGER
10
19.485046
20
665.4523
30
0
0
SEQEND
8
FINGER
0
POLYLINE
8
ASSEMBLY
66
1
70
1
10
0
20
0
30
0
0
VERTEX
8
ASSEMBLY
10
92.618152
20
684.426888
30
0
0
VERTEX
8
ASSEMBLY
10
129.259671
20
523.889905
30
0
0
VERTEX
8
ASSEMBLY
10
36.641519
20
502.750416
30
0
0
VERTEX
8
ASSEMBLY
10
0
20
663.2874
30
0
0
SEQEND
8
ASSEMBLY
0
POLYLINE
8
FINGER
66
1
70
0
10
0
20
0
30
0
0
VERTEX
8
FINGER
10
115.501168
20
538.324364
30
0
0
VERTEX
8
FINGER
10
55.136254
20
509.254153
30
0
0
SEQEND
8
FINGER
0
POLYLINE
8
ASSEMBLY
66
1
70
1
10
0
20
0
30
0
0
VERTEX
8
ASSEMBLY
10
112.794139
20
558.080932
30
0
0
VERTEX
8
ASSEMBLY
10
215.461394
20
429.340267
30
0
0
VERTEX
8
ASSEMBLY
10
141.187403
20
370.108736
30
0
0
VERTEX
8
ASSEMBLY
10
38.520149
20
498.849401
30
0
0
SEQEND
8
ASSEMBLY
0
POLYLINE
8
FINGER
66
1
70
0
10
0
20
0
30
0
0
VERTEX
8
FINGER
10
196.802534
20
436.375675
30
0
0
VERTEX
8
FINGER
10
155.028718
20
383.992966
30
0
0
SEQEND
8
FINGER
0
POLYLINE
8
ASSEMBLY
66
1
70
1
10
0
20
0
30
0
0
VERTEX
8
ASSEMBLY
10
185.791532
20
453.001193
30
0
0
VERTEX
8
ASSEMBLY
10
334.150013
20
381.555514
30
0
0
VERTEX
8
ASSEMBLY
10
292.931058
20
295.963471
30
0
0
VERTEX
8
ASSEMBLY
10
144.572577
20
367.40915
30
0
0
SEQEND
8
ASSEMBLY
0
POLYLINE
8
FINGER
66
1
70
0
10
0
20
0
30
0
0
VERTEX
8
FINGER
10
314.286413
20
379.798421
30
0
0
VERTEX
8
FINGER
10
299.37751
20
314.478251
30
0
0
SEQEND
8
FINGER
0
POLYLINE
8
ASSEMBLY
66
1
70
1
10
0
20
0
30
0
0
VERTEX
8
ASSEMBLY
10
297.152301
20
390
30
0
0
VERTEX
8
ASSEMBLY
10
461.817792
20
390
30
0
0
VERTEX
8
ASSEMBLY
10
461.817792
20
295
30
0
0
VERTEX
8
ASSEMBLY
10
297.152301
20
295
30
0
0
SEQEND
8
ASSEMBLY
0
POLYLINE
8
FINGER
66
1
70
0
10
0
20
0
30
0
0
VERTEX
8
FINGER
10
444.68368
20
379.798421
30
0
0
VERTEX
8
FINGER
10
459.592583
20
314.478251
30
0
0
SEQEND
8
FINGER
0
POLYLINE
8
ASSEMBLY
66
1
70
1
10
0
20
0
30
0
0
VERTEX
8
ASSEMBLY
10
424.82008
20
381.555514
30
0
0
VERTEX
8
ASSEMBLY
10
573.178561
20
453.001193
30
0
0
VERTEX
8
ASSEMBLY
10
614.397516
20
367.40915
30
0
0
VERTEX
8
ASSEMBLY
10
466.039035
20
295.963471
30
0
0
SEQEND
8
ASSEMBLY
0
POLYLINE
8
FINGER
66
1
70
0
10
0
20
0
30
0
0
VERTEX
8
FINGER
10
562.167558
20
436.375675
30
0
0
VERTEX
8
FINGER
10
603.941375
20
383.992966
30
0
0
SEQEND
8
FINGER
0
POLYLINE
8
ASSEMBLY
66
1
70
1
10
0
20
0
30
0
0
VERTEX
8
ASSEMBLY
10
543.508699
20
429.340267
30
0
0
VERTEX
8
ASSEMBLY
10
646.175953
20
558.080932
30
0
0
VERTEX
8
ASSEMBLY
10
720.449944
20
498.849401
30
0
0
VERTEX
8
ASSEMBLY
10
617.78269
20
370.108736
30
0
0
SEQEND
8
ASSEMBLY
0
POLYLINE
8
FINGER
66
1
70
0
10
0
20
0
30
0
0
VERTEX
8
FINGER
10
643.468925
20
538.324364
30
0
0
VERTEX
8
FINGER
10
703.833839
20
509.254153
30
0
0
SEQEND
8
FINGER
0
POLYLINE
8
ASSEMBLY
66
1
70
1
10
0
20
0
30
0
0
VERTEX
8
ASSEMBLY
10
629.710422
20
523.889905
30
0
0
VERTEX
8
ASSEMBLY
10
666.351941
20
684.426888
30
0
0
VERTEX
8
ASSEMBLY
10
758.970093
20
663.2874
30
0
0
VERTEX
8
ASSEMBLY
10
722.328574
20
502.750416
30
0
0
SEQEND
8
ASSEMBLY
0
POLYLINE
8
FINGER
66
1
70
0
10
0
20
0
30
0
0
VERTEX
8
FINGER
10
672.485046
20
665.4523
30
0
0
VERTEX
8
FINGER
10
739.485046
20
665.4523
30
0
0
SEQEND
8
FINGER
0
TEXT
8
TEXT
10
858.970093
20
1017.404599
30
0
40
15
1
CIR - LEAF RING
72
0
11
858.970093
21
1017.404599
31
0
73
0
0
TEXT
8
TEXT
10
858.970093
20
995.404599
30
0
40
15
1
CIRCLE W800 RISE400 H800 FIXED LEAF
72
0
11
858.970093
21
995.404599
31
0
73
0
0
TEXT
8
TEXT
10
858.970093
20
973.404599
30
0
40
15
1
FACE 67 OFFSET 40 OUTER L2261.9 INNER L1841
72
0
11
858.970093
21
973.404599
31
0
73
0
0
TEXT
8
TEXT
10
858.970093
20
951.404599
30
0
40
15
1
ARC 1 R360 L1131 180DEG: 7 x board 95 L164.7 ROUGH 194.7 (ALT 5 x board 105)
72
0
11
858.970093
21
951.404599
31
0
73
0
0
TEXT
8
TEXT
10
858.970093
20
929.404599
30
0
40
15
1
ARC 2 R360 L1131 180DEG: 7 x board 95 L164.7 ROUGH 194.7 (ALT 5 x board 105)
72
0
11
858.970093
21
929.404599
31
0
73
0
0
TEXT
8
TEXT
10
858.970093
20
907.404599
30
0
40
15
1
FINGER 15/16/3.8
72
0
11
858.970093
21
907.404599
31
0
73
0
0
TEXT
8
TEXT
10
858.970093
20
885.404599
30
0
40
15
1
ALLOWANCE 10 PER SIDE  MAX SEGMENT 36 DEG  RULE NARROWEST
72
0
11
858.970093
21
885.404599
31
0
73
0
0
TEXT
8
TEXT
10
858.970093
20
863.404599
30
0
40
15
1
CUT CODES: J = JOINT FROM SQUARE  S = ARCH-START, AXIS TO HORIZONTAL  A = APEX FROM SQUARE
72
0
11
858.970093
21
863.404599
31
0
73
0
0
POLYLINE
8
ASSEMBLY
66
1
70
1
10
0
20
0
30
0
0
VERTEX
8
ASSEMBLY
10
0
20
1235.904599
30
0
0
VERTEX
8
ASSEMBLY
10
283.393935
20
1235.904599
30
0
0
VERTEX
8
ASSEMBLY
10
283.393935
20
1330.904599
30
0
0
VERTEX
8
ASSEMBLY
10
0
20
1330.904599
30
0
0
SEQEND
8
ASSEMBLY
0
POLYLINE
8
PIECES
66
1
70
1
10
0
20
0
30
0
0
VERTEX
8
PIECES
10
265.303765
20
1300.476296
30
0
42
0.158384
0
VERTEX
8
PIECES
10
18.09017
20
1300.476296
30
0
0
VERTEX
8
PIECES
10
35.704139
20
1246.266074
30
0
42
-0.158384
0
VERTEX
8
PIECES
10
247.689797
20
1246.266074
30
0
0
SEQEND
8
PIECES
0
POLYLINE
8
FINGER
66
1
70
0
10
0
20
0
30
0
0
VERTEX
8
FINGER
10
247.689797
20
1246.266074
30
0
0
VERTEX
8
FINGER
10
265.303765
20
1300.476296
30
0
0
SEQEND
8
FINGER
0
POLYLINE
8
FINGER
66
1
70
0
10
0
20
0
30
0
0
VERTEX
8
FINGER
10
35.704139
20
1246.266074
30
0
0
VERTEX
8
FINGER
10
18.09017
20
1300.476296
30
0
0
SEQEND
8
FINGER
0
POLYLINE
8
FINGER
66
1
70
0
10
0
20
0
30
0
0
VERTEX
8
FINGER
10
16
20
1235.904599
30
0
0
VERTEX
8
FINGER
10
16
20
1330.904599
30
0
0
SEQEND
8
FINGER
0
POLYLINE
8
FINGER
66
1
70
0
10
0
20
0
30
0
0
VERTEX
8
FINGER
10
267.393935
20
1235.904599
30
0
0
VERTEX
8
FINGER
10
267.393935
20
1330.904599
30
0
0
SEQEND
8
FINGER
0
TEXT
8
TEXT
10
141.696968
20
1293.404599
30
0
40
15
1
CIR - FRAME RING P1 L283.4 x95
72
1
11
141.696968
21
1293.404599
31
0
73
2
0
TEXT
8
TEXT
10
141.696968
20
1245.904599
30
0
40
10
1
OUT 253.4 IN 205.8 CUT J18/J18 FINGER BOTH ENDS
72
1
11
141.696968
21
1245.904599
31
0
73
2
0
POLYLINE
8
ASSEMBLY
66
1
70
1
10
0
20
0
30
0
0
VERTEX
8
ASSEMBLY
10
483.393935
20
1235.904599
30
0
0
VERTEX
8
ASSEMBLY
10
766.787871
20
1235.904599
30
0
0
VERTEX
8
ASSEMBLY
10
766.787871
20
1330.904599
30
0
0
VERTEX
8
ASSEMBLY
10
483.393935
20
1330.904599
30
0
0
SEQEND
8
ASSEMBLY
0
POLYLINE
8
PIECES
66
1
70
1
10
0
20
0
30
0
0
VERTEX
8
PIECES
10
748.697701
20
1300.476296
30
0
42
0.158384
0
VERTEX
8
PIECES
10
501.484105
20
1300.476296
30
0
0
VERTEX
8
PIECES
10
519.098074
20
1246.266074
30
0
42
-0.158384
0
VERTEX
8
PIECES
10
731.083732
20
1246.266074
30
0
0
SEQEND
8
PIECES
0
POLYLINE
8
FINGER
66
1
70
0
10
0
20
0
30
0
0
VERTEX
8
FINGER
10
731.083732
20
1246.266074
30
0
0
VERTEX
8
FINGER
10
748.697701
20
1300.476296
30
0
0
SEQEND
8
FINGER
0
POLYLINE
8
FINGER
66
1
70
0
10
0
20
0
30
0
0
VERTEX
8
FINGER
10
519.098074
20
1246.266074
30
0
0
VERTEX
8
FINGER
10
501.484105
20
1300.476296
30
0
0
SEQEND
8
FINGER
0
POLYLINE
8
FINGER
66
1
70
0
10
0
20
0
30
0
0
VERTEX
8
FINGER
10
499.393935
20
1235.904599
30
0
0
VERTEX
8
FINGER
10
499.393935
20
1330.904599
30
0
0
SEQEND
8
FINGER
0
POLYLINE
8
FINGER
66
1
70
0
10
0
20
0
30
0
0
VERTEX
8
FINGER
10
750.787871
20
1235.904599
30
0
0
VERTEX
8
FINGER
10
750.787871
20
1330.904599
30
0
0
SEQEND
8
FINGER
0
TEXT
8
TEXT
10
625.090903
20
1293.404599
30
0
40
15
1
CIR - FRAME RING P2 L283.4 x95
72
1
11
625.090903
21
1293.404599
31
0
73
2
0
TEXT
8
TEXT
10
625.090903
20
1245.904599
30
0
40
10
1
OUT 253.4 IN 205.8 CUT J18/J18 FINGER BOTH ENDS
72
1
11
625.090903
21
1245.904599
31
0
73
2
0
POLYLINE
8
ASSEMBLY
66
1
70
1
10
0
20
0
30
0
0
VERTEX
8
ASSEMBLY
10
966.787871
20
1235.904599
30
0
0
VERTEX
8
ASSEMBLY
10
1250.181806
20
1235.904599
30
0
0
VERTEX
8
ASSEMBLY
10
1250.181806
20
1330.904599
30
0
0
VERTEX
8
ASSEMBLY
10
966.787871
20
1330.904599
30
0
0
SEQEND
8
ASSEMBLY
0
POLYLINE
8
PIECES
66
1
70
1
10
0
20
0
30
0
0
VERTEX
8
PIECES
10
1232.091636
20
1300.476296
30
0
42
0.158384
0
VERTEX
8
PIECES
10
984.878041
20
1300.476296
30
0
0
VERTEX
8
PIECES
10
1002.492009
20
1246.266074
30
0
42
-0.158384
0
VERTEX
8
PIECES
10
1214.477668
20
1246.266074
30
0
0
SEQEND
8
PIECES
0
POLYLINE
8
FINGER
66
1
70
0
10
0
20
0
30
0
0
VERTEX
8
FINGER
10
1214.477668
20
1246.266074
30
0
0
VERTEX
8
FINGER
10
1232.091636
20
1300.476296
30
0
0
SEQEND
8
FINGER
0
POLYLINE
8
FINGER
66
1
70
0
10
0
20
0
30
0
0
VERTEX
8
FINGER
10
1002.492009
20
1246.266074
30
0
0
VERTEX
8
FINGER
10
984.878041
20
1300.476296
30
0
0
SEQEND
8
FINGER
0
POLYLINE
8
FINGER
66
1
70
0
10
0
20
0
30
0
0
VERTEX
8
FINGER
10
982.787871
20
1235.904599
30
0
0
VERTEX
8
FINGER
10
982.787871
20
1330.904599
30
0
0
SEQEND
8
FINGER
0
POLYLINE
8
FINGER
66
1
70
0
10
0
20
0
30
0
0
VERTEX
8
FINGER
10
1234.181806
20
1235.904599
30
0
0
VERTEX
8
FINGER
10
1234.181806
20
1330.904599
30
0
0
SEQEND
8
FINGER
0
TEXT
8
TEXT
10
1108.484838
20
1293.404599
30
0
40
15
1
CIR - FRAME RING P3 L283.4 x95
72
1
11
1108.484838
21
1293.404599
31
0
73
2
0
TEXT
8
TEXT
10
1108.484838
20
1245.904599
30
0
40
10
1
OUT 253.4 IN 205.8 CUT J18/J18 FINGER BOTH ENDS
72
1
11
1108.484838
21
1245.904599
31
0
73
2
0
POLYLINE
8
ASSEMBLY
66
1
70
1
10
0
20
0
30
0
0
VERTEX
8
ASSEMBLY
10
1450.181806
20
1235.904599
30
0
0
VERTEX
8
ASSEMBLY
10
1733.575742
20
1235.904599
30
0
0
VERTEX
8
ASSEMBLY
10
1733.575742
20
1330.904599
30
0
0
VERTEX
8
ASSEMBLY
10
1450.181806
20
1330.904599
30
0
0
SEQEND
8
ASSEMBLY
0
POLYLINE
8
PIECES
66
1
70
1
10
0
20
0
30
0
0
VERTEX
8
PIECES
10
1715.485572
20
1300.476296
30
0
42
0.158384
0
VERTEX
8
PIECES
10
1468.271976
20
1300.476296
30
0
0
VERTEX
8
PIECES
10
1485.885945
20
1246.266074
30
0
42
-0.158384
0
VERTEX
8
PIECES
10
1697.871603
20
1246.266074
30
0
0
SEQEND
8
PIECES
0
POLYLINE
8
FINGER
66
1
70
0
10
0
20
0
30
0
0
VERTEX
8
FINGER
10
1697.871603
20
1246.266074
30
0
0
VERTEX
8
FINGER
10
1715.485572
20
1300.476296
30
0
0
SEQEND
8
FINGER
0
POLYLINE
8
FINGER
66
1
70
0
10
0
20
0
30
0
0
VERTEX
8
FINGER
10
1485.885945
20
1246.266074
30
0
0
VERTEX
8
FINGER
10
1468.271976
20
1300.476296
30
0
0
SEQEND
8
FINGER
0
POLYLINE
8
FINGER
66
1
70
0
10
0
20
0
30
0
0
VERTEX
8
FINGER
10
1466.181806
20
1235.904599
30
0
0
VERTEX
8
FINGER
10
1466.181806
20
1330.904599
30
0
0
SEQEND
8
FINGER
0
POLYLINE
8
FINGER
66
1
70
0
10
0
20
0
30
0
0
VERTEX
8
FINGER
10
1717.575742
20
1235.904599
30
0
0
VERTEX
8
FINGER
10
1717.575742
20
1330.904599
30
0
0
SEQEND
8
FINGER
0
TEXT
8
TEXT
10
1591.878774
20
1293.404599
30
0
40
15
1
CIR - FRAME RING P4 L283.4 x95
72
1
11
1591.878774
21
1293.404599
31
0
73
2
0
TEXT
8
TEXT
10
1591.878774
20
1245.904599
30
0
40
10
1
OUT 253.4 IN 205.8 CUT J18/J18 FINGER BOTH ENDS
72
1
11
1591.878774
21
1245.904599
31
0
73
2
0
POLYLINE
8
ASSEMBLY
66
1
70
1
10
0
20
0
30
0
0
VERTEX
8
ASSEMBLY
10
1933.575742
20
1235.904599
30
0
0
VERTEX
8
ASSEMBLY
10
2216.969677
20
1235.904599
30
0
0
VERTEX
8
ASSEMBLY
10
2216.969677
20
1330.904599
30
0
0
VERTEX
8
ASSEMBLY
10
1933.575742
20
1330.904599
30
0
0
SEQEND
8
ASSEMBLY
0
POLYLINE
8
PIECES
66
1
70
1
10
0
20
0
30
0
0
VERTEX
8
PIECES
10
2198.879507
20
1300.476296
30
0
42
0.158384
0
VERTEX
8
PIECES
10
1951.665911
20
1300.476296
30
0
0
VERTEX
8
PIECES
10
1969.27988
20
1246.266074
30
0
42
-0.158384
0
VERTEX
8
PIECES
10
2181.265538
20
1246.266074
30
0
0
SEQEND
8
PIECES
0
POLYLINE
8
FINGER
66
1
70
0
10
0
20
0
30
0
0
VERTEX
8
FINGER
10
2181.265538
20
1246.266074
30
0
0
VERTEX
8
FINGER
10
2198.879507
20
1300.476296
30
0
0
SEQEND
8
FINGER
0
POLYLINE
8
FINGER
66
1
70
0
10
0
20
0
30
0
0
VERTEX
8
FINGER
10
1969.27988
20
1246.266074
30
0
0
VERTEX
8
FINGER
10
1951.665911
20
1300.476296
30
0
0
SEQEND
8
FINGER
0
POLYLINE
8
FINGER
66
1
70
0
10
0
20
0
30
0
0
VERTEX
8
FINGER
10
1949.575742
20
1235.904599
30
0
0
VERTEX
8
FINGER
10
1949.575742
20
1330.904599
30
0
0
SEQEND
8
FINGER
0
POLYLINE
8
FINGER
66
1
70
0
10
0
20
0
30
0
0
VERTEX
8
FINGER
10
2200.969677
20
1235.904599
30
0
0
VERTEX
8
FINGER
10
2200.969677
20
1330.904599
30
0
0
SEQEND
8
FINGER
0
TEXT
8
TEXT
10
2075.272709
20
1293.404599
30
0
40
15
1
CIR - FRAME RING P5 L283.4 x95
72
1
11
2075.272709
21
1293.404599
31
0
73
2
0
TEXT
8
TEXT
10
2075.272709
20
1245.904599
30
0
40
10
1
OUT 253.4 IN 205.8 CUT J18/J18 FINGER BOTH ENDS
72
1
11
2075.272709
21
1245.904599
31
0
73
2
0
POLYLINE
8
ASSEMBLY
66
1
70
1
10
0
20
0
30
0
0
VERTEX
8
ASSEMBLY
10
2416.969677
20
1235.904599
30
0
0
VERTEX
8
ASSEMBLY
10
2700.363612
20
1235.904599
30
0
0
VERTEX
8
ASSEMBLY
10
2700.363612
20
1330.904599
30
0
0
VERTEX
8
ASSEMBLY
10
2416.969677
20
1330.904599
30
0
0
SEQEND
8
ASSEMBLY
0
POLYLINE
8
PIECES
66
1
70
1
10
0
20
0
30
0
0
VERTEX
8
PIECES
10
2682.273442
20
1300.476296
30
0
42
0.158384
0
VERTEX
8
PIECES
10
2435.059847
20
1300.476296
30
0
0
VERTEX
8
PIECES
10
2452.673816
20
1246.266074
30
0
42
-0.158384
0
VERTEX
8
PIECES
10
2664.659474
20
1246.266074
30
0
0
SEQEND
8
PIECES
0
POLYLINE
8
FINGER
66
1
70
0
10
0
20
0
30
0
0
VERTEX
8
FINGER
10
2664.659474
20
1246.266074
30
0
0
VERTEX
8
FINGER
10
2682.273442
20
1300.476296
30
0
0
SEQEND
8
FINGER
0
POLYLINE
8
FINGER
66
1
70
0
10
0
20
0
30
0
0
VERTEX
8
FINGER
10
2452.673816
20
1246.266074
30
0
0
VERTEX
8
FINGER
10
2435.059847
20
1300.476296
30
0
0
SEQEND
8
FINGER
0
POLYLINE
8
FINGER
66
1
70
0
10
0
20
0
30
0
0
VERTEX
8
FINGER
10
2432.969677
20
1235.904599
30
0
0
VERTEX
8
FINGER
10
2432.969677
20
1330.904599
30
0
0
SEQEND
8
FINGER
0
POLYLINE
8
FINGER
66
1
70
0
10
0
20
0
30
0
0
VERTEX
8
FINGER
10
2684.363612
20
1235.904599
30
0
0
VERTEX
8
FINGER
10
2684.363612
20
1330.904599
30
0
0
SEQEND
8
FINGER
0
TEXT
8
TEXT
10
2558.666645
20
1293.404599
30
0
40
15
1
CIR - FRAME RING P6 L283.4 x95
72
1
11
2558.666645
21
1293.404599
31
0
73
2
0
TEXT
8
TEXT
10
2558.666645
20
1245.904599
30
0
40
10
1
OUT 253.4 IN 205.8 CUT J18/J18 FINGER BOTH ENDS
72
1
11
2558.666645
21
1245.904599
31
0
73
2
0
POLYLINE
8
ASSEMBLY
66
1
70
1
10
0
20
0
30
0
0
VERTEX
8
ASSEMBLY
10
2900.363612
20
1235.904599
30
0
0
VERTEX
8
ASSEMBLY
10
3183.757548
20
1235.904599
30
0
0
VERTEX
8
ASSEMBLY
10
3183.757548
20
1330.904599
30
0
0
VERTEX
8
ASSEMBLY
10
2900.363612
20
1330.904599
30
0
0
SEQEND
8
ASSEMBLY
0
POLYLINE
8
PIECES
66
1
70
1
10
0
20
0
30
0
0
VERTEX
8
PIECES
10
3165.667378
20
1300.476296
30
0
42
0.158384
0
VERTEX
8
PIECES
10
2918.453782
20
1300.476296
30
0
0
VERTEX
8
PIECES
10
2936.067751
20
1246.266074
30
0
42
-0.158384
0
VERTEX
8
PIECES
10
3148.053409
20
1246.266074
30
0
0
SEQEND
8
PIECES
0
POLYLINE
8
FINGER
66
1
70
0
10
0
20
0
30
0
0
VERTEX
8
FINGER
10
3148.053409
20
1246.266074
30
0
0
VERTEX
8
FINGER
10
3165.667378
20
1300.476296
30
0
0
SEQEND
8
FINGER
0
POLYLINE
8
FINGER
66
1
70
0
10
0
20
0
30
0
0
VERTEX
8
FINGER
10
2936.067751
20
1246.266074
30
0
0
VERTEX
8
FINGER
10
2918.453782
20
1300.476296
30
0
0
SEQEND
8
FINGER
0
POLYLINE
8
FINGER
66
1
70
0
10
0
20
0
30
0
0
VERTEX
8
FINGER
10
2916.363612
20
1235.904599
30
0
0
VERTEX
8
FINGER
10
2916.363612
20
1330.904599
30
0
0
SEQEND
8
FINGER
0
POLYLINE
8
FINGER
66
1
70
0
10
0
20
0
30
0
0
VERTEX
8
FINGER
10
3167.757548
20
1235.904599
30
0
0
VERTEX
8
FINGER
10
3167.757548
20
1330.904599
30
0
0
SEQEND
8
FINGER
0
TEXT
8
TEXT
10
3042.06058
20
1293.404599
30
0
40
15
1
CIR - FRAME RING P7 L283.4 x95
72
1
11
3042.06058
21
1293.404599
31
0
73
2
0
TEXT
8
TEXT
10
3042.06058
20
1245.904599
30
0
40
10
1
OUT 253.4 IN 205.8 CUT J18/J18 FINGER BOTH ENDS
72
1
11
3042.06058
21
1245.904599
31
0
73
2
0
POLYLINE
8
ASSEMBLY
66
1
70
1
10
0
20
0
30
0
0
VERTEX
8
ASSEMBLY
10
3383.757548
20
1235.904599
30
0
0
VERTEX
8
ASSEMBLY
10
3667.151483
20
1235.904599
30
0
0
VERTEX
8
ASSEMBLY
10
3667.151483
20
1330.904599
30
0
0
VERTEX
8
ASSEMBLY
10
3383.757548
20
1330.904599
30
0
0
SEQEND
8
ASSEMBLY
0
POLYLINE
8
PIECES
66
1
70
1
10
0
20
0
30
0
0
VERTEX
8
PIECES
10
3649.061313
20
1300.476296
30
0
42
0.158384
0
VERTEX
8
PIECES
10
3401.847718
20
1300.476296
30
0
0
VERTEX
8
PIECES
10
3419.461686
20
1246.266074
30
0
42
-0.158384
0
VERTEX
8
PIECES
10
3631.447344
20
1246.266074
30
0
0
SEQEND
8
PIECES
0
POLYLINE
8
FINGER
66
1
70
0
10
0
20
0
30
0
0
VERTEX
8
FINGER
10
3631.447344
20
1246.266074
30
0
0
VERTEX
8
FINGER
10
3649.061313
20
1300.476296
30
0
0
SEQEND
8
FINGER
0
POLYLINE
8
FINGER
66
1
70
0
10
0
20
0
30
0
0
VERTEX
8
FINGER
10
3419.461686
20
1246.266074
30
0
0
VERTEX
8
FINGER
10
3401.847718
20
1300.476296
30
0
0
SEQEND
8
FINGER
0
POLYLINE
8
FINGER
66
1
70
0
10
0
20
0
30
0
0
VERTEX
8
FINGER
10
3399.757548
20
1235.904599
30
0
0
VERTEX
8
FINGER
10
3399.757548
20
1330.904599
30
0
0
SEQEND
8
FINGER
0
POLYLINE
8
FINGER
66
1
70
0
10
0
20
0
30
0
0
VERTEX
8
FINGER
10
3651.151483
20
1235.904599
30
0
0
VERTEX
8
FINGER
10
3651.151483
20
1330.904599
30
0
0
SEQEND
8
FINGER
0
TEXT
8
TEXT
10
3525.454515
20
1293.404599
30
0
40
15
1
CIR - FRAME RING P8 L283.4 x95
72
1
11
3525.454515
21
1293.404599
31
0
73
2
0
TEXT
8
TEXT
10
3525.454515
20
1245.904599
30
0
40
10
1
OUT 253.4 IN 205.8 CUT J18/J18 FINGER BOTH ENDS
72
1
11
3525.454515
21
1245.904599
31
0
73
2
0
POLYLINE
8
ASSEMBLY
66
1
70
1
10
0
20
0
30
0
0
VERTEX
8
ASSEMBLY
10
3867.151483
20
1235.904599
30
0
0
VERTEX
8
ASSEMBLY
10
4150.545418
20
1235.904599
30
0
0
VERTEX
8
ASSEMBLY
10
4150.545418
20
1330.904599
30
0
0
VERTEX
8
ASSEMBLY
10
3867.151483
20
1330.904599
30
0
0
SEQEND
8
ASSEMBLY
0
POLYLINE
8
PIECES
66
1
70
1
10
0
20
0
30
0
0
VERTEX
8
PIECES
10
4132.455249
20
1300.476296
30
0
42
0.158384
0
VERTEX
8
PIECES
10
3885.241653
20
1300.476296
30
0
0
VERTEX
8
PIECES
10
3902.855622
20
1246.266074
30
0
42
-0.158384
0
VERTEX
8
PIECES
10
4114.84128
20
1246.266074
30
0
0
SEQEND
8
PIECES
0
POLYLINE
8
FINGER
66
1
70
0
10
0
20
0
30
0
0
VERTEX
8
FINGER
10
4114.84128
20
1246.266074
30
0
0
VERTEX
8
FINGER
10
4132.455249
20
1300.476296
30
0
0
SEQEND
8
FINGER
0
POLYLINE
8
FINGER
66
1
70
0
10
0
20
0
30
0
0
VERTEX
8
FINGER
10
3902.855622
20
1246.266074
30
0
0
VERTEX
8
FINGER
10
3885.241653
20
1300.476296
30
0
0
SEQEND
8
FINGER
0
POLYLINE
8
FINGER
66
1
70
0
10
0
20
0
30
0
0
VERTEX
8
FINGER
10
3883.151483
20
1235.904599
30
0
0
VERTEX
8
FINGER
10
3883.151483
20
1330.904599
30
0
0
SEQEND
8
FINGER
0
POLYLINE
8
FINGER
66
1
70
0
10
0
20
0
30
0
0
VERTEX
8
FINGER
10
4134.545418
20
1235.904599
30
0
0
VERTEX
8
FINGER
10
4134.545418
20
1330.904599
30
0
0
SEQEND
8
FINGER
0
TEXT
8
TEXT
10
4008.848451
20
1293.404599
30
0
40
15
1
CIR - FRAME RING P9 L283.4 x95
72
1
11
4008.848451
21
1293.404599
31
0
73
2
0
TEXT
8
TEXT
10
4008.848451
20
1245.904599
30
0
40
10
1
OUT 253.4 IN 205.8 CUT J18/J18 FINGER BOTH ENDS
72
1
11
4008.848451
21
1245.904599
31
0
73
2
0
POLYLINE
8
ASSEMBLY
66
1
70
1
10
0
20
0
30
0
0
VERTEX
8
ASSEMBLY
10
4350.545418
20
1235.904599
30
0
0
VERTEX
8
ASSEMBLY
10
4633.939354
20
1235.904599
30
0
0
VERTEX
8
ASSEMBLY
10
4633.939354
20
1330.904599
30
0
0
VERTEX
8
ASSEMBLY
10
4350.545418
20
1330.904599
30
0
0
SEQEND
8
ASSEMBLY
0
POLYLINE
8
PIECES
66
1
70
1
10
0
20
0
30
0
0
VERTEX
8
PIECES
10
4615.849184
20
1300.476296
30
0
42
0.158384
0
VERTEX
8
PIECES
10
4368.635588
20
1300.476296
30
0
0
VERTEX
8
PIECES
10
4386.249557
20
1246.266074
30
0
42
-0.158384
0
VERTEX
8
PIECES
10
4598.235215
20
1246.266074
30
0
0
SEQEND
8
PIECES
0
POLYLINE
8
FINGER
66
1
70
0
10
0
20
0
30
0
0
VERTEX
8
FINGER
10
4598.235215
20
1246.266074
30
0
0
VERTEX
8
FINGER
10
4615.849184
20
1300.476296
30
0
0
SEQEND
8
FINGER
0
POLYLINE
8
FINGER
66
1
70
0
10
0
20
0
30
0
0
VERTEX
8
FINGER
10
4386.249557
20
1246.266074
30
0
0
VERTEX
8
FINGER
10
4368.635588
20
1300.476296
30
0
0
SEQEND
8
FINGER
0
POLYLINE
8
FINGER
66
1
70
0
10
0
20
0
30
0
0
VERTEX
8
FINGER
10
4366.545418
20
1235.904599
30
0
0
VERTEX
8
FINGER
10
4366.545418
20
1330.904599
30
0
0
SEQEND
8
FINGER
0
POLYLINE
8
FINGER
66
1
70
0
10
0
20
0
30
0
0
VERTEX
8
FINGER
10
4617.939354
20
1235.904599
30
0
0
VERTEX
8
FINGER
10
4617.939354
20
1330.904599
30
0
0
SEQEND
8
FINGER
0
TEXT
8
TEXT
10
4492.242386
20
1293.404599
30
0
40
15
1
CIR - FRAME RING P10 L283.4 x95
72
1
11
4492.242386
21
1293.404599
31
0
73
2
0
TEXT
8
TEXT
10
4492.242386
20
1245.904599
30
0
40
10
1
OUT 253.4 IN 205.8 CUT J18/J18 FINGER BOTH ENDS
72
1
11
4492.242386
21
1245.904599
31
0
73
2
0
POLYLINE
8
CONTOUR
66
1
70
1
10
0
20
0
30
0
0
VERTEX
8
CONTOUR
10
829.893951
20
1941.755509
30
0
42
1
0
VERTEX
8
CONTOUR
10
29.893951
20
1941.755509
30
0
42
1
0
VERTEX
8
CONTOUR
10
829.893951
20
1941.755509
30
0
0
VERTEX
8
CONTOUR
10
772.893951
20
1941.755509
30
0
42
-1
0
VERTEX
8
CONTOUR
10
86.893951
20
1941.755509
30
0
42
-1
0
VERTEX
8
CONTOUR
10
772.893951
20
1941.755509
30
0
0
SEQEND
8
CONTOUR
0
POLYLINE
8
ASSEMBLY
66
1
70
1
10
0
20
0
30
0
0
VERTEX
8
ASSEMBLY
10
769.437534
20
1918.862831
30
0
0
VERTEX
8
ASSEMBLY
10
691.134501
20
2159.854785
30
0
0
VERTEX
8
ASSEMBLY
10
781.48487
20
2189.211399
30
0
0
VERTEX
8
ASSEMBLY
10
859.787903
20
1948.219446
30
0
0
SEQEND
8
ASSEMBLY
0
POLYLINE
8
FINGER
66
1
70
0
10
0
20
0
30
0
0
VERTEX
8
FINGER
10
772.893951
20
1941.755509
30
0
0
VERTEX
8
FINGER
10
829.893951
20
1941.755509
30
0
0
SEQEND
8
FINGER
0
POLYLINE
8
FINGER
66
1
70
0
10
0
20
0
30
0
0
VERTEX
8
FINGER
10
707.38678
20
2143.365851
30
0
0
VERTEX
8
FINGER
10
753.500749
20
2176.86961
30
0
0
SEQEND
8
FINGER
0
POLYLINE
8
ASSEMBLY
66
1
70
1
10
0
20
0
30
0
0
VERTEX
8
ASSEMBLY
10
718.046458
20
2122.813654
30
0
0
VERTEX
8
ASSEMBLY
10
513.046458
20
2271.754872
30
0
0
VERTEX
8
ASSEMBLY
10
568.886057
20
2348.611487
30
0
0
VERTEX
8
ASSEMBLY
10
773.886057
20
2199.670268
30
0
0
SEQEND
8
ASSEMBLY
0
POLYLINE
8
FINGER
66
1
70
0
10
0
20
0
30
0
0
VERTEX
8
FINGER
10
535.88678
20
2267.967894
30
0
0
VERTEX
8
FINGER
10
553.500749
20
2322.178116
30
0
0
SEQEND
8
FINGER
0
POLYLINE
8
ASSEMBLY
66
1
70
1
10
0
20
0
30
0
0
VERTEX
8
ASSEMBLY
10
556.590919
20
2257.606419
30
0
0
VERTEX
8
ASSEMBLY
10
303.196984
20
2257.606419
30
0
0
VERTEX
8
ASSEMBLY
10
303.196984
20
2352.606419
30
0
0
VERTEX
8
ASSEMBLY
10
556.590919
20
2352.606419
30
0
0
SEQEND
8
ASSEMBLY
0
POLYLINE
8
FINGER
66
1
70
0
10
0
20
0
30
0
0
VERTEX
8
FINGER
10
323.901122
20
2267.967894
30
0
0
VERTEX
8
FINGER
10
306.287154
20
2322.178116
30
0
0
SEQEND
8
FINGER
0
POLYLINE
8
ASSEMBLY
66
1
70
1
10
0
20
0
30
0
0
VERTEX
8
ASSEMBLY
10
346.741444
20
2271.754872
30
0
0
VERTEX
8
ASSEMBLY
10
141.741444
20
2122.813654
30
0
0
VERTEX
8
ASSEMBLY
10
85.901846
20
2199.670268
30
0
0
VERTEX
8
ASSEMBLY
10
290.901846
20
2348.611487
30
0
0
SEQEND
8
ASSEMBLY
0
POLYLINE
8
FINGER
66
1
70
0
10
0
20
0
30
0
0
VERTEX
8
FINGER
10
152.401122
20
2143.365851
30
0
0
VERTEX
8
FINGER
10
106.287154
20
2176.86961
30
0
0
SEQEND
8
FINGER
0
POLYLINE
8
ASSEMBLY
66
1
70
1
10
0
20
0
30
0
0
VERTEX
8
ASSEMBLY
10
168.653401
20
2159.854785
30
0
0
VERTEX
8
ASSEMBLY
10
90.350369
20
1918.862831
30
0
0
VERTEX
8
ASSEMBLY
10
0
20
1948.219446
30
0
0
VERTEX
8
ASSEMBLY
10
78.303032
20
2189.211399
30
0
0
SEQEND
8
ASSEMBLY
0
POLYLINE
8
FINGER
66
1
70
0
10
0
20
0
30
0
0
VERTEX
8
FINGER
10
86.893951
20
1941.755509
30
0
0
VERTEX
8
FINGER
10
29.893951
20
1941.755509
30
0
0
SEQEND
8
FINGER
0
POLYLINE
8
ASSEMBLY
66
1
70
1
10
0
20
0
30
0
0
VERTEX
8
ASSEMBLY
10
90.350369
20
1964.648187
30
0
0
VERTEX
8
ASSEMBLY
10
168.653401
20
1723.656234
30
0
0
VERTEX
8
ASSEMBLY
10
78.303032
20
1694.299619
30
0
0
VERTEX
8
ASSEMBLY
10
0
20
1935.291572
30
0
0
SEQEND
8
ASSEMBLY
0
POLYLINE
8
FINGER
66
1
70
0
10
0
20
0
30
0
0
VERTEX
8
FINGER
10
152.401122
20
1740.145168
30
0
0
VERTEX
8
FINGER
10
106.287154
20
1706.641408
30
0
0
SEQEND
8
FINGER
0
POLYLINE
8
ASSEMBLY
66
1
70
1
10
0
20
0
30
0
0
VERTEX
8
ASSEMBLY
10
141.741444
20
1760.697364
30
0
0
VERTEX
8
ASSEMBLY
10
346.741444
20
1611.756146
30
0
0
VERTEX
8
ASSEMBLY
10
290.901846
20
1534.899532
30
0
0
VERTEX
8
ASSEMBLY
10
85.901846
20
1683.84075
30
0
0
SEQEND
8
ASSEMBLY
0
POLYLINE
8
FINGER
66
1
70
0
10
0
20
0
30
0
0
VERTEX
8
FINGER
10
323.901122
20
1615.543124
30
0
0
VERTEX
8
FINGER
10
306.287154
20
1561.332903
30
0
0
SEQEND
8
FINGER
0
POLYLINE
8
ASSEMBLY
66
1
70
1
10
0
20
0
30
0
0
VERTEX
8
ASSEMBLY
10
303.196984
20
1625.904599
30
0
0
VERTEX
8
ASSEMBLY
10
556.590919
20
1625.904599
30
0
0
VERTEX
8
ASSEMBLY
10
556.590919
20
1530.904599
30
0
0
VERTEX
8
ASSEMBLY
10
303.196984
20
1530.904599
30
0
0
SEQEND
8
ASSEMBLY
0
POLYLINE
8
FINGER
66
1
70
0
10
0
20
0
30
0
0
VERTEX
8
FINGER
10
535.88678
20
1615.543124
30
0
0
VERTEX
8
FINGER
10
553.500749
20
1561.332903
30
0
0
SEQEND
8
FINGER
0
POLYLINE
8
ASSEMBLY
66
1
70
1
10
0
20
0
30
0
0
VERTEX
8
ASSEMBLY
10
513.046458
20
1611.756146
30
0
0
VERTEX
8
ASSEMBLY
10
718.046458
20
1760.697364
30
0
0
VERTEX
8
ASSEMBLY
10
773.886057
20
1683.84075
30
0
0
VERTEX
8
ASSEMBLY
10
568.886057
20
1534.899532
30
0
0
SEQEND
8
ASSEMBLY
0
POLYLINE
8
FINGER
66
1
70
0
10
0
20
0
30
0
0
VERTEX
8
FINGER
10
707.38678
20
1740.145168
30
0
0
VERTEX
8
FINGER
10
753.500749
20
1706.641408
30
0
0
SEQEND
8
FINGER
0
POLYLINE
8
ASSEMBLY
66
1
70
1
10
0
20
0
30
0
0
VERTEX
8
ASSEMBLY
10
691.134501
20
1723.656234
30
0
0
VERTEX
8
ASSEMBLY
10
769.437534
20
1964.648187
30
0
0
VERTEX
8
ASSEMBLY
10
859.787903
20
1935.291572
30
0
0
VERTEX
8
ASSEMBLY
10
781.48487
20
1694.299619
30
0
0
SEQEND
8
ASSEMBLY
0
POLYLINE
8
FINGER
66
1
70
0
10
0
20
0
30
0
0
VERTEX
8
FINGER
10
772.893951
20
1941.755509
30
0
0
VERTEX
8
FINGER
10
829.893951
20
1941.755509
30
0
0
SEQEND
8
FINGER
0
TEXT
8
TEXT
10
959.787903
20
2334.106419
30
0
40
15
1
CIR - FRAME RING
72
0
11
959.787903
21
2334.106419
31
0
73
0
0
TEXT
8
TEXT
10
959.787903
20
2312.106419
30
0
40
15
1
CIRCLE W800 RISE400 H800 FIXED LEAF
72
0
11
959.787903
21
2312.106419
31
0
73
0
0
TEXT
8
TEXT
10
959.787903
20
2290.106419
30
0
40
15
1
FACE 57 OFFSET 0 OUTER L2513.3 INNER L2155.1
72
0
11
959.787903
21
2290.106419
31
0
73
0
0
TEXT
8
TEXT
10
959.787903
20
2268.106419
30
0
40
15
1
ARC 1 R400 L1256.6 180DEG: 5 x board 95 L253.4 ROUGH 283.4
72
0
11
959.787903
21
2268.106419
31
0
73
0
0
TEXT
8
TEXT
10
959.787903
20
2246.106419
30
0
40
15
1
ARC 2 R400 L1256.6 180DEG: 5 x board 95 L253.4 ROUGH 283.4
72
0
11
959.787903
21
2246.106419
31
0
73
0
0
TEXT
8
TEXT
10
959.787903
20
2224.106419
30
0
40
15
1
FINGER 15/16/3.8
72
0
11
959.787903
21
2224.106419
31
0
73
0
0
TEXT
8
TEXT
10
959.787903
20
2202.106419
30
0
40
15
1
ALLOWANCE 10 PER SIDE  MAX SEGMENT 36 DEG  RULE NARROWEST
72
0
11
959.787903
21
2202.106419
31
0
73
0
0
TEXT
8
TEXT
10
959.787903
20
2180.106419
30
0
40
15
1
CUT CODES: J = JOINT FROM SQUARE  S = ARCH-START, AXIS TO HORIZONTAL  A = APEX FROM SQUARE
72
0
11
959.787903
21
2180.106419
31
0
73
0
0
POLYLINE
8
FIT
66
1
70
1
10
0
20
0
30
0
0
VERTEX
8
FIT
10
800
20
2916.602116
30
0
42
1
0
VERTEX
8
FIT
10
0
20
2916.602116
30
0
42
1
0
VERTEX
8
FIT
10
800
20
2916.602116
30
0
0
VERTEX
8
FIT
10
743
20
2916.602116
30
0
42
-1
0
VERTEX
8
FIT
10
57
20
2916.602116
30
0
42
-1
0
VERTEX
8
FIT
10
743
20
2916.602116
30
0
0
SEQEND
8
FIT
0
POLYLINE
8
FIT
66
1
70
1
10
0
20
0
30
0
0
VERTEX
8
FIT
10
760
20
2916.602116
30
0
42
1
0
VERTEX
8
FIT
10
40
20
2916.602116
30
0
42
1
0
VERTEX
8
FIT
10
760
20
2916.602116
30
0
0
VERTEX
8
FIT
10
693
20
2916.602116
30
0
42
-1
0
VERTEX
8
FIT
10
107
20
2916.602116
30
0
42
-1
0
VERTEX
8
FIT
10
693
20
2916.602116
30
0
0
SEQEND
8
FIT
0
POLYLINE
8
FIT
66
1
70
1
10
0
20
0
30
0
0
VERTEX
8
FIT
10
705.5
20
2916.602116
30
0
42
1
0
VERTEX
8
FIT
10
94.5
20
2916.602116
30
0
42
1
0
VERTEX
8
FIT
10
705.5
20
2916.602116
30
0
0
SEQEND
8
FIT
0
POLYLINE
8
FIT
66
1
70
0
10
0
20
0
30
0
0
VERTEX
8
FIT
10
764
20
2916.602116
30
0
42
0.013737
0
VERTEX
8
FIT
10
763.450688
20
2936.592055
30
0
0
SEQEND
8
FIT
0
POLYLINE
8
FIT
66
1
70
0
10
0
20
0
30
0
0
VERTEX
8
FIT
10
762.764436
20
2946.568165
30
0
42
0.013737
0
VERTEX
8
FIT
10
760.57133
20
2966.445027
30
0
0
SEQEND
8
FIT
0
POLYLINE
8
FIT
66
1
70
0
10
0
20
0
30
0
0
VERTEX
8
FIT
10
759.066132
20
2976.330779
30
0
42
0.013737
0
VERTEX
8
FIT
10
755.244121
20
2995.959625
30
0
0
SEQEND
8
FIT
0
POLYLINE
8
FIT
66
1
70
0
10
0
20
0
30
0
0
VERTEX
8
FIT
10
752.930194
20
3005.687906
30
0
42
0.013737
0
VERTEX
8
FIT
10
747.505226
20
3024.93548
30
0
0
SEQEND
8
FIT
0
POLYLINE
8
FIT
66
1
70
0
10
0
20
0
30
0
0
VERTEX
8
FIT
10
744.398279
20
3034.440247
30
0
42
0.013737
0
VERTEX
8
FIT
10
737.407183
20
3053.17588
30
0
0
SEQEND
8
FIT
0
POLYLINE
8
FIT
66
1
70
0
10
0
20
0
30
0
0
VERTEX
8
FIT
10
733.528309
20
3062.392607
30
0
42
0.013737
0
VERTEX
8
FIT
10
725.018545
20
3080.489106
30
0
0
SEQEND
8
FIT
0
POLYLINE
8
FIT
66
1
70
0
10
0
20
0
30
0
0
VERTEX
8
FIT
10
720.394077
20
3089.355222
30
0
42
0.013737
0
VERTEX
8
FIT
10
710.423417
20
3106.689734
30
0
0
SEQEND
8
FIT
0
POLYLINE
8
FIT
66
1
70
0
10
0
20
0
30
0
0
VERTEX
8
FIT
10
705.084749
20
3115.145048
30
0
42
0.013737
0
VERTEX
8
FIT
10
693.720882
20
3131.599892
30
0
0
SEQEND
8
FIT
0
POLYLINE
8
FIT
66
1
70
0
10
0
20
0
30
0
0
VERTEX
8
FIT
10
687.704258
20
3139.587004
30
0
42
0.013737
0
VERTEX
8
FIT
10
675.02433
20
3155.050471
30
0
0
SEQEND
8
FIT
0
POLYLINE
8
FIT
66
1
70
0
10
0
20
0
30
0
0
VERTEX
8
FIT
10
668.370596
20
3162.515156
30
0
42
0.013737
0
VERTEX
8
FIT
10
654.46069
20
3176.882268
30
0
0
SEQEND
8
FIT
0
POLYLINE
8
FIT
66
1
70
0
10
0
20
0
30
0
0
VERTEX
8
FIT
10
647.215016
20
3183.773851
30
0
42
0.013737
0
VERTEX
8
FIT
10
632.169563
20
3196.947071
30
0
0
SEQEND
8
FIT
0
POLYLINE
8
FIT
66
1
70
0
10
0
20
0
30
0
0
VERTEX
8
FIT
10
624.381139
20
3203.218767
30
0
42
0.013737
0
VERTEX
8
FIT
10
608.302281
20
3215.108665
30
0
0
SEQEND
8
FIT
0
POLYLINE
8
FIT
66
1
70
0
10
0
20
0
30
0
0
VERTEX
8
FIT
10
600.023981
20
3220.717895
30
0
42
0.013737
0
VERTEX
8
FIT
10
583.020873
20
3231.243754
30
0
0
SEQEND
8
FIT
0
POLYLINE
8
FIT
66
1
70
0
10
0
20
0
30
0
0
VERTEX
8
FIT
10
574.308897
20
3236.152439
30
0
42
0.013737
0
VERTEX
8
FIT
10
556.49697
20
3245.242799
30
0
0
SEQEND
8
FIT
0
POLYLINE
8
FIT
66
1
70
0
10
0
20
0
30
0
0
VERTEX
8
FIT
10
547.410462
20
3249.417614
30
0
42
0.013737
0
VERTEX
8
FIT
10
528.910639
20
3257.010764
30
0
0
SEQEND
8
FIT
0
POLYLINE
8
FIT
66
1
70
0
10
0
20
0
30
0
0
VERTEX
8
FIT
10
519.511286
20
3260.423367
30
0
42
0.013737
0
VERTEX
8
FIT
10
500.449157
20
3266.467757
30
0
0
SEQEND
8
FIT
0
POLYLINE
8
FIT
66
1
70
0
10
0
20
0
30
0
0
VERTEX
8
FIT
10
490.800769
20
3269.094982
30
0
42
0.013737
0
VERTEX
8
FIT
10
471.305745
20
3273.549578
30
0
0
SEQEND
8
FIT
0
POLYLINE
8
FIT
66
1
70
0
10
0
20
0
30
0
0
VERTEX
8
FIT
10
461.473823
20
3275.373588
30
0
42
0.013737
0
VERTEX
8
FIT
10
441.678252
20
3278.20815
30
0
0
SEQEND
8
FIT
0
POLYLINE
8
FIT
66
1
70
0
10
0
20
0
30
0
0
VERTEX
8
FIT
10
431.729542
20
3279.216562
30
0
42
0.013737
0
VERTEX
8
FIT
10
411.767812
20
3280.411845
30
0
0
SEQEND
8
FIT
0
POLYLINE
8
FIT
66
1
70
0
10
0
20
0
30
0
0
VERTEX
8
FIT
10
401.769856
20
3280.597814
30
0
42
0.013737
0
VERTEX
8
FIT
10
381.777483
20
3280.145704
30
0
0
SEQEND
8
FIT
0
POLYLINE
8
FIT
66
1
70
0
10
0
20
0
30
0
0
VERTEX
8
FIT
10
371.798154
20
3279.507966
30
0
42
0.013737
0
VERTEX
8
FIT
10
351.910863
20
3277.411533
30
0
0
SEQEND
8
FIT
0
POLYLINE
8
FIT
66
1
70
0
10
0
20
0
30
0
0
VERTEX
8
FIT
10
342.01791
20
3275.954419
30
0
42
0.013737
0
VERTEX
8
FIT
10
322.370712
20
3272.227894
30
0
0
SEQEND
8
FIT
0
POLYLINE
8
FIT
66
1
70
0
10
0
20
0
30
0
0
VERTEX
8
FIT
10
312.631295
20
3269.961295
30
0
42
0.013737
0
VERTEX
8
FIT
10
293.357571
20
3264.629978
30
0
0
SEQEND
8
FIT
0
POLYLINE
8
FIT
66
1
70
0
10
0
20
0
30
0
0
VERTEX
8
FIT
10
283.83781
20
3261.569282
30
0
42
0.013737
0
VERTEX
8
FIT
10
265.068406
20
3254.669365
30
0
0
SEQEND
8
FIT
0
POLYLINE
8
FIT
66
1
70
0
10
0
20
0
30
0
0
VERTEX
8
FIT
10
255.832928
20
3250.835351
30
0
42
0.013737
0
VERTEX
8
FIT
10
237.695266
20
3242.413677
30
0
0
SEQEND
8
FIT
0
POLYLINE
8
FIT
66
1
70
0
10
0
20
0
30
0
0
VERTEX
8
FIT
10
228.80677
20
3237.832373
30
0
42
0.013737
0
VERTEX
8
FIT
10
211.423983
20
3227.946115
30
0
0
SEQEND
8
FIT
0
POLYLINE
8
FIT
66
1
70
0
10
0
20
0
30
0
0
VERTEX
8
FIT
10
202.942811
20
3222.648623
30
0
42
0.013737
0
VERTEX
8
FIT
10
186.432907
20
3211.364897
30
0
0
SEQEND
8
FIT
0
POLYLINE
8
FIT
66
1
70
0
10
0
20
0
30
0
0
VERTEX
8
FIT
10
178.416636
20
3205.38718
30
0
42
0.013737
0
VERTEX
8
FIT
10
162.891699
20
3192.782589
30
0
0
SEQEND
8
FIT
0
POLYLINE
8
FIT
66
1
70
0
10
0
20
0
30
0
0
VERTEX
8
FIT
10
155.394749
20
3186.165228
30
0
42
0.013737
0
VERTEX
8
FIT
10
140.960174
20
3172.325343
30
0
0
SEQEND
8
FIT
0
POLYLINE
8
FIT
66
1
70
0
10
0
20
0
30
0
0
VERTEX
8
FIT
10
134.033442
20
3165.113264
30
0
42
0.013737
0
VERTEX
8
FIT
10
120.787223
20
3150.13204
30
0
0
SEQEND
8
FIT
0
POLYLINE
8
FIT
66
1
70
0
10
0
20
0
30
0
0
VERTEX
8
FIT
10
114.477733
20
3142.374203
30
0
42
0.013737
0
VERTEX
8
FIT
10
102.509796
20
3126.353346
30
0
0
SEQEND
8
FIT
0
POLYLINE
8
FIT
66
1
70
0
10
0
20
0
30
0
0
VERTEX
8
FIT
10
96.860381
20
3118.102417
30
0
42
0.013737
0
VERTEX
8
FIT
10
86.251973
20
3101.150689
30
0
0
SEQEND
8
FIT
0
POLYLINE
8
FIT
66
1
70
0
10
0
20
0
30
0
0
VERTEX
8
FIT
10
81.300987
20
3092.462684
30
0
42
0.013737
0
VERTEX
8
FIT
10
72.124128
20
3074.695167
30
0
0
SEQEND
8
FIT
0
POLYLINE
8
FIT
66
1
70
0
10
0
20
0
30
0
0
VERTEX
8
FIT
10
67.905182
20
3065.629066
30
0
42
0.013737
0
VERTEX
8
FIT
10
60.222171
20
3047.166381
30
0
0
SEQEND
8
FIT
0
POLYLINE
8
FIT
66
1
70
0
10
0
20
0
30
0
0
VERTEX
8
FIT
10
56.763906
20
3037.783731
30
0
42
0.013737
0
VERTEX
8
FIT
10
50.626903
20
3018.751218
30
0
0
SEQEND
8
FIT
0
POLYLINE
8
FIT
66
1
70
0
10
0
20
0
30
0
0
VERTEX
8
FIT
10
47.952796
20
3009.115717
30
0
42
0.013737
0
VERTEX
8
FIT
10
43.403463
20
2989.642584
30
0
0
SEQEND
8
FIT
0
POLYLINE
8
FIT
66
1
70
0
10
0
20
0
30
0
0
VERTEX
8
FIT
10
41.53167
20
2979.819646
30
0
42
0.013737
0
VERTEX
8
FIT
10
38.600891
20
2960.038091
30
0
0
SEQEND
8
FIT
0
POLYLINE
8
FIT
66
1
70
0
10
0
20
0
30
0
0
VERTEX
8
FIT
10
37.544118
20
2950.094403
30
0
42
0.013737
0
VERTEX
8
FIT
10
36.25179
20
2930.13872
30
0
0
SEQEND
8
FIT
0
POLYLINE
8
FIT
66
1
70
0
10
0
20
0
30
0
0
VERTEX
8
FIT
10
36.017211
20
2920.141786
30
0
42
0.002431
0
VERTEX
8
FIT
10
36
20
2916.602116
30
0
0
SEQEND
8
FIT
0
POLYLINE
8
FIT
66
1
70
0
10
0
20
0
30
0
0
VERTEX
8
FIT
10
36
20
2916.602116
30
0
42
0.013737
0
VERTEX
8
FIT
10
36.549312
20
2896.612178
30
0
0
SEQEND
8
FIT
0
POLYLINE
8
FIT
66
1
70
0
10
0
20
0
30
0
0
VERTEX
8
FIT
10
37.235564
20
2886.636068
30
0
42
0.013737
0
VERTEX
8
FIT
10
39.42867
20
2866.759205
30
0
0
SEQEND
8
FIT
0
POLYLINE
8
FIT
66
1
70
0
10
0
20
0
30
0
0
VERTEX
8
FIT
10
40.933868
20
2856.873454
30
0
42
0.013737
0
VERTEX
8
FIT
10
44.755879
20
2837.244607
30
0
0
SEQEND
8
FIT
0
POLYLINE
8
FIT
66
1
70
0
10
0
20
0
30
0
0
VERTEX
8
FIT
10
47.069806
20
2827.516326
30
0
42
0.013737
0
VERTEX
8
FIT
10
52.494774
20
2808.268752
30
0
0
SEQEND
8
FIT
0
POLYLINE
8
FIT
66
1
70
0
10
0
20
0
30
0
0
VERTEX
8
FIT
10
55.601721
20
2798.763985
30
0
42
0.013737
0
VERTEX
8
FIT
10
62.592817
20
2780.028352
30
0
0
SEQEND
8
FIT
0
POLYLINE
8
FIT
66
1
70
0
10
0
20
0
30
0
0
VERTEX
8
FIT
10
66.471691
20
2770.811626
30
0
42
0.013737
0
VERTEX
8
FIT
10
74.981455
20
2752.715126
30
0
0
SEQEND
8
FIT
0
POLYLINE
8
FIT
66
1
70
0
10
0
20
0
30
0
0
VERTEX
8
FIT
10
79.605923
20
2743.849011
30
0
42
0.013737
0
VERTEX
8
FIT
10
89.576583
20
2726.514499
30
0
0
SEQEND
8
FIT
0
POLYLINE
8
FIT
66
1
70
0
10
0
20
0
30
0
0
VERTEX
8
FIT
10
94.915251
20
2718.059184
30
0
42
0.013737
0
VERTEX
8
FIT
10
106.279118
20
2701.60434
30
0
0
SEQEND
8
FIT
0
POLYLINE
8
FIT
66
1
70
0
10
0
20
0
30
0
0
VERTEX
8
FIT
10
112.295742
20
2693.617229
30
0
42
0.013737
0
VERTEX
8
FIT
10
124.97567
20
2678.153762
30
0
0
SEQEND
8
FIT
0
POLYLINE
8
FIT
66
1
70
0
10
0
20
0
30
0
0
VERTEX
8
FIT
10
131.629404
20
2670.689076
30
0
42
0.013737
0
VERTEX
8
FIT
10
145.53931
20
2656.321965
30
0
0
SEQEND
8
FIT
0
POLYLINE
8
FIT
66
1
70
0
10
0
20
0
30
0
0
VERTEX
8
FIT
10
152.784984
20
2649.430381
30
0
42
0.013737
0
VERTEX
8
FIT
10
167.830437
20
2636.257161
30
0
0
SEQEND
8
FIT
0
POLYLINE
8
FIT
66
1
70
0
10
0
20
0
30
0
0
VERTEX
8
FIT
10
175.618861
20
2629.985466
30
0
42
0.013737
0
VERTEX
8
FIT
10
191.697719
20
2618.095567
30
0
0
SEQEND
8
FIT
0
POLYLINE
8
FIT
66
1
70
0
10
0
20
0
30
0
0
VERTEX
8
FIT
10
199.976019
20
2612.486337
30
0
42
0.013737
0
VERTEX
8
FIT
10
216.979127
20
2601.960479
30
0
0
SEQEND
8
FIT
0
POLYLINE
8
FIT
66
1
70
0
10
0
20
0
30
0
0
VERTEX
8
FIT
10
225.691103
20
2597.051794
30
0
42
0.013737
0
VERTEX
8
FIT
10
243.50303
20
2587.961434
30
0
0
SEQEND
8
FIT
0
POLYLINE
8
FIT
66
1
70
0
10
0
20
0
30
0
0
VERTEX
8
FIT
10
252.589538
20
2583.786618
30
0
42
0.013737
0
VERTEX
8
FIT
10
271.089361
20
2576.193469
30
0
0
SEQEND
8
FIT
0
POLYLINE
8
FIT
66
1
70
0
10
0
20
0
30
0
0
VERTEX
8
FIT
10
280.488714
20
2572.780865
30
0
42
0.013737
0
VERTEX
8
FIT
10
299.550843
20
2566.736475
30
0
0
SEQEND
8
FIT
0
POLYLINE
8
FIT
66
1
70
0
10
0
20
0
30
0
0
VERTEX
8
FIT
10
309.199231
20
2564.109251
30
0
42
0.013737
0
VERTEX
8
FIT
10
328.694255
20
2559.654654
30
0
0
SEQEND
8
FIT
0
POLYLINE
8
FIT
66
1
70
0
10
0
20
0
30
0
0
VERTEX
8
FIT
10
338.526177
20
2557.830644
30
0
42
0.013737
0
VERTEX
8
FIT
10
358.321748
20
2554.996083
30
0
0
SEQEND
8
FIT
0
POLYLINE
8
FIT
66
1
70
0
10
0
20
0
30
0
0
VERTEX
8
FIT
10
368.270458
20
2553.987671
30
0
42
0.013737
0
VERTEX
8
FIT
10
388.232188
20
2552.792388
30
0
0
SEQEND
8
FIT
0
POLYLINE
8
FIT
66
1
70
0
10
0
20
0
30
0
0
VERTEX
8
FIT
10
398.230144
20
2552.606419
30
0
42
0.013737
0
VERTEX
8
FIT
10
418.222517
20
2553.058529
30
0
0
SEQEND
8
FIT
0
POLYLINE
8
FIT
66
1
70
0
10
0
20
0
30
0
0
VERTEX
8
FIT
10
428.201846
20
2553.696266
30
0
42
0.013737
0
VERTEX
8
FIT
10
448.089137
20
2555.7927
30
0
0
SEQEND
8
FIT
0
POLYLINE
8
FIT
66
1
70
0
10
0
20
0
30
0
0
VERTEX
8
FIT
10
457.98209
20
2557.249814
30
0
42
0.013737
0
VERTEX
8
FIT
10
477.629288
20
2560.976339
30
0
0
SEQEND
8
FIT
0
POLYLINE
8
FIT
66
1
70
0
10
0
20
0
30
0
0
VERTEX
8
FIT
10
487.368705
20
2563.242937
30
0
42
0.013737
0
VERTEX
8
FIT
10
506.642429
20
2568.574255
30
0
0
SEQEND
8
FIT
0
POLYLINE
8
FIT
66
1
70
0
10
0
20
0
30
0
0
VERTEX
8
FIT
10
516.16219
20
2571.63495
30
0
42
0.013737
0
VERTEX
8
FIT
10
534.931594
20
2578.534867
30
0
0
SEQEND
8
FIT
0
POLYLINE
8
FIT
66
1
70
0
10
0
20
0
30
0
0
VERTEX
8
FIT
10
544.167072
20
2582.368881
30
0
42
0.013737
0
VERTEX
8
FIT
10
562.304734
20
2590.790555
30
0
0
SEQEND
8
FIT
0
POLYLINE
8
FIT
66
1
70
0
10
0
20
0
30
0
0
VERTEX
8
FIT
10
571.19323
20
2595.371859
30
0
42
0.013737
0
VERTEX
8
FIT
10
588.576017
20
2605.258117
30
0
0
SEQEND
8
FIT
0
POLYLINE
8
FIT
66
1
70
0
10
0
20
0
30
0
0
VERTEX
8
FIT
10
597.057189
20
2610.55561
30
0
42
0.013737
0
VERTEX
8
FIT
10
613.567093
20
2621.839336
30
0
0
SEQEND
8
FIT
0
POLYLINE
8
FIT
66
1
70
0
10
0
20
0
30
0
0
VERTEX
8
FIT
10
621.583364
20
2627.817053
30
0
42
0.013737
0
VERTEX
8
FIT
10
637.108301
20
2640.421644
30
0
0
SEQEND
8
FIT
0
POLYLINE
8
FIT
66
1
70
0
10
0
20
0
30
0
0
VERTEX
8
FIT
10
644.605251
20
2647.039004
30
0
42
0.013737
0
VERTEX
8
FIT
10
659.039826
20
2660.878889
30
0
0
SEQEND
8
FIT
0
POLYLINE
8
FIT
66
1
70
0
10
0
20
0
30
0
0
VERTEX
8
FIT
10
665.966558
20
2668.090969
30
0
42
0.013737
0
VERTEX
8
FIT
10
679.212777
20
2683.072193
30
0
0
SEQEND
8
FIT
0
POLYLINE
8
FIT
66
1
70
0
10
0
20
0
30
0
0
VERTEX
8
FIT
10
685.522267
20
2690.83003
30
0
42
0.013737
0
VERTEX
8
FIT
10
697.490204
20
2706.850887
30
0
0
SEQEND
8
FIT
0
POLYLINE
8
FIT
66
1
70
0
10
0
20
0
30
0
0
VERTEX
8
FIT
10
703.139619
20
2715.101815
30
0
42
0.013737
0
VERTEX
8
FIT
10
713.748027
20
2732.053543
30
0
0
SEQEND
8
FIT
0
POLYLINE
8
FIT
66
1
70
0
10
0
20
0
30
0
0
VERTEX
8
FIT
10
718.699013
20
2740.741549
30
0
42
0.013737
0
VERTEX
8
FIT
10
727.875872
20
2758.509065
30
0
0
SEQEND
8
FIT
0
POLYLINE
8
FIT
66
1
70
0
10
0
20
0
30
0
0
VERTEX
8
FIT
10
732.094818
20
2767.575167
30
0
42
0.013737
0
VERTEX
8
FIT
10
739.777829
20
2786.037852
30
0
0
SEQEND
8
FIT
0
POLYLINE
8
FIT
66
1
70
0
10
0
20
0
30
0
0
VERTEX
8
FIT
10
743.236094
20
2795.420501
30
0
42
0.013737
0
VERTEX
8
FIT
10
749.373097
20
2814.453015
30
0
0
SEQEND
8
FIT
0
POLYLINE
8
FIT
66
1
70
0
10
0
20
0
30
0
0
VERTEX
8
FIT
10
752.047204
20
2824.088515
30
0
42
0.013737
0
VERTEX
8
FIT
10
756.596537
20
2843.561649
30
0
0
SEQEND
8
FIT
0
POLYLINE
8
FIT
66
1
70
0
10
0
20
0
30
0
0
VERTEX
8
FIT
10
758.46833
20
2853.384587
30
0
42
0.013737
0
VERTEX
8
FIT
10
761.399109
20
2873.166141
30
0
0
SEQEND
8
FIT
0
POLYLINE
8
FIT
66
1
70
0
10
0
20
0
30
0
0
VERTEX
8
FIT
10
762.455882
20
2883.10983
30
0
42
0.013737
0
VERTEX
8
FIT
10
763.74821
20
2903.065512
30
0
0
SEQEND
8
FIT
0
POLYLINE
8
FIT
66
1
70
0
10
0
20
0
30
0
0
VERTEX
8
FIT
10
763.982789
20
2913.062446
30
0
42
0.002431
0
VERTEX
8
FIT
10
764
20
2916.602116
30
0
0
SEQEND
8
FIT
0
TEXT
8
TEXT
10
900
20
3262.097814
30
0
40
15
1
CIR - FIT (ASSEMBLY, NOT A TOOLPATH)
72
0
11
900
21
3262.097814
31
0
73
0
0
TEXT
8
TEXT
10
900
20
3240.097814
30
0
40
15
1
GAP 4 LAP 17 (REBATE)
72
0
11
900
21
3240.097814
31
0
73
0
0
TEXT
8
TEXT
10
900
20
3218.097814
30
0
40
15
1
FRAME R400/400 / 343/343  REBATE WALL R364/364 (LAND 36, DASHED)
72
0
11
900
21
3218.097814
31
0
73
0
0
TEXT
8
TEXT
10
900
20
3196.097814
30
0
40
15
1
LEAF R360/360 / 293/293  GLASS R305.5/305.5
72
0
11
900
21
3196.097814
31
0
73
0
0
ENDSEC
0
EOF
