0
SECTION
2
HEADER
9
$ACADVER
1
AC1009
0
ENDSEC
0
SECTION
2
TABLES
0
TABLE
2
LAYER
70
6
0
LAYER
2
0
70
0
62
7
6
CONTINUOUS
0
LAYER
2
GLASS_CONTOUR
70
0
62
7
6
CONTINUOUS
0
LAYER
2
GLASS_EDGE
70
0
62
8
6
CONTINUOUS
0
LAYER
2
GLASS_BARS
70
0
62
3
6
CONTINUOUS
0
LAYER
2
GLASS_BAR_AXES
70
0
62
4
6
CONTINUOUS
0
LAYER
2
GLASS_TEXT
70
0
62
2
6
CONTINUOUS
0
ENDTAB
0
ENDSEC
0
SECTION
2
ENTITIES
0
POLYLINE
8
GLASS_CONTOUR
66
1
70
1
10
0
20
0
30
0
0
VERTEX
8
GLASS_CONTOUR
10
0
20
0
30
0
0
VERTEX
8
GLASS_CONTOUR
10
789
20
0
30
0
0
VERTEX
8
GLASS_CONTOUR
10
789
20
1198.5
30
0
42
0.333333
0
VERTEX
8
GLASS_CONTOUR
10
756.96
20
1241.22
30
0
42
0.142857
0
VERTEX
8
GLASS_CONTOUR
10
32.04
20
1241.22
30
0
42
0.333333
0
VERTEX
8
GLASS_CONTOUR
10
0
20
1198.5
30
0
0
SEQEND
8
GLASS_CONTOUR
0
POLYLINE
8
GLASS_EDGE
66
1
70
1
10
0
20
0
30
0
0
VERTEX
8
GLASS_EDGE
10
11
20
11
30
0
0
VERTEX
8
GLASS_EDGE
10
778
20
11
30
0
0
VERTEX
8
GLASS_EDGE
10
778
20
1198.5
30
0
42
0.333333
0
VERTEX
8
GLASS_EDGE
10
753.88
20
1230.66
30
0
42
0.142857
0
VERTEX
8
GLASS_EDGE
10
35.12
20
1230.66
30
0
42
0.333333
0
VERTEX
8
GLASS_EDGE
10
11
20
1198.5
30
0
0
SEQEND
8
GLASS_EDGE
0
POLYLINE
8
GLASS_BAR_AXES
66
1
70
0
10
0
20
0
30
0
0
VERTEX
8
GLASS_BAR_AXES
10
0
20
599.25
30
0
0
VERTEX
8
GLASS_BAR_AXES
10
789
20
599.25
30
0
0
SEQEND
8
GLASS_BAR_AXES
0
POLYLINE
8
GLASS_BARS
66
1
70
0
10
0
20
0
30
0
0
VERTEX
8
GLASS_BARS
10
0
20
608.25
30
0
0
VERTEX
8
GLASS_BARS
10
789
20
608.25
30
0
0
SEQEND
8
GLASS_BARS
0
POLYLINE
8
GLASS_BARS
66
1
70
0
10
0
20
0
30
0
0
VERTEX
8
GLASS_BARS
10
0
20
590.25
30
0
0
VERTEX
8
GLASS_BARS
10
789
20
590.25
30
0
0
SEQEND
8
GLASS_BARS
0
POLYLINE
8
GLASS_BAR_AXES
66
1
70
0
10
0
20
0
30
0
0
VERTEX
8
GLASS_BAR_AXES
10
263
20
0
30
0
0
VERTEX
8
GLASS_BAR_AXES
10
263
20
1286.303556
30
0
0
SEQEND
8
GLASS_BAR_AXES
0
POLYLINE
8
GLASS_BARS
66
1
70
0
10
0
20
0
30
0
0
VERTEX
8
GLASS_BARS
10
254
20
0
30
0
0
VERTEX
8
GLASS_BARS
10
254
20
1286.303556
30
0
0
SEQEND
8
GLASS_BARS
0
POLYLINE
8
GLASS_BARS
66
1
70
0
10
0
20
0
30
0
0
VERTEX
8
GLASS_BARS
10
272
20
0
30
0
0
VERTEX
8
GLASS_BARS
10
272
20
1286.303556
30
0
0
SEQEND
8
GLASS_BARS
0
POLYLINE
8
GLASS_BAR_AXES
66
1
70
0
10
0
20
0
30
0
0
VERTEX
8
GLASS_BAR_AXES
10
526
20
0
30
0
0
VERTEX
8
GLASS_BAR_AXES
10
526
20
1286.303556
30
0
0
SEQEND
8
GLASS_BAR_AXES
0
POLYLINE
8
GLASS_BARS
66
1
70
0
10
0
20
0
30
0
0
VERTEX
8
GLASS_BARS
10
517
20
0
30
0
0
VERTEX
8
GLASS_BARS
10
517
20
1286.303556
30
0
0
SEQEND
8
GLASS_BARS
0
POLYLINE
8
GLASS_BARS
66
1
70
0
10
0
20
0
30
0
0
VERTEX
8
GLASS_BARS
10
535
20
0
30
0
0
VERTEX
8
GLASS_BARS
10
535
20
1286.303556
30
0
0
SEQEND
8
GLASS_BARS
0
TEXT
8
GLASS_TEXT
10
889
20
1274.5
30
0
40
15
1
TC1 - G1 GLASS THREE-CENTRE
72
0
11
889
21
1274.5
31
0
73
0
0
TEXT
8
GLASS_TEXT
10
889
20
1252.5
30
0
40
15
1
W789 x H1293 RISE 94.5 SPRINGING 1198.5 R 44.5/1294.5/44.5
72
0
11
889
21
1252.5
31
0
73
0
0
TEXT
8
GLASS_TEXT
10
889
20
1230.5
30
0
40
15
1
DOUBLE 4X16X4 TOUGHENED ARGON CLEAR SPACER SILVER
72
0
11
889
21
1230.5
31
0
73
0
0
TEXT
8
GLASS_TEXT
10
889
20
1208.5
30
0
40
15
1
BARS 3 TOTAL L=3362
72
0
11
889
21
1208.5
31
0
73
0
0
TEXT
8
GLASS_TEXT
10
889
20
1186.5
30
0
40
15
1
H1 H Y=599.3 X=0-789 L=789
72
0
11
889
21
1186.5
31
0
73
0
0
TEXT
8
GLASS_TEXT
10
889
20
1164.5
30
0
40
15
1
V1 V X=263 Y=0-1286.3 L=1286.5
72
0
11
889
21
1164.5
31
0
73
0
0
TEXT
8
GLASS_TEXT
10
889
20
1142.5
30
0
40
15
1
V2 V X=526 Y=0-1286.3 L=1286.5
72
0
11
889
21
1142.5
31
0
73
0
0
TEXT
8
GLASS_TEXT
10
889
20
1120.5
30
0
40
15
1
BAR ENDS: ID  S FROM APEX / POSITION  L  ANGLE / R
72
0
11
889
21
1120.5
31
0
73
0
0
TEXT
8
GLASS_TEXT
10
889
20
1098.5
30
0
40
15
1
H1  Y 599.3  L=789  0DEG
72
0
11
889
21
1098.5
31
0
73
0
0
TEXT
8
GLASS_TEXT
10
889
20
1076.5
30
0
40
15
1
V1  131.7 FROM APEX L  L=1286.5  90DEG
72
0
11
889
21
1076.5
31
0
73
0
0
TEXT
8
GLASS_TEXT
10
889
20
1054.5
30
0
40
15
1
V2  131.7 FROM APEX R  L=1286.5  90DEG
72
0
11
889
21
1054.5
31
0
73
0
0
ENDSEC
0
EOF
