0
SECTION
2
HEADER
9
$ACADVER
1
AC1009
0
ENDSEC
0
SECTION
2
TABLES
0
TABLE
2
LAYER
70
7
0
LAYER
2
0
70
0
62
7
6
CONTINUOUS
0
LAYER
2
FIT
70
0
62
4
6
CONTINUOUS
0
LAYER
2
CONTOUR
70
0
62
7
6
CONTINUOUS
0
LAYER
2
ASSEMBLY
70
0
62
8
6
CONTINUOUS
0
LAYER
2
PIECES
70
0
62
5
6
CONTINUOUS
0
LAYER
2
FINGER
70
0
62
1
6
CONTINUOUS
0
LAYER
2
TEXT
70
0
62
94
6
CONTINUOUS
0
ENDTAB
0
ENDSEC
0
SECTION
2
ENTITIES
0
POLYLINE
8
PIECES
66
1
70
1
10
0
20
0
30
0
0
VERTEX
8
PIECES
10
306.93235
20
0
30
0
0
VERTEX
8
PIECES
10
15.81575
20
0
30
0
0
VERTEX
8
PIECES
10
0
20
95
30
0
0
VERTEX
8
PIECES
10
322.7481
20
95
30
0
0
SEQEND
8
PIECES
0
TEXT
8
TEXT
10
161.37405
20
57.5
30
0
40
15
1
SG - S-ARCH TOP RAIL P1 L322.7 x95
72
1
11
161.37405
21
57.5
31
0
73
2
0
TEXT
8
TEXT
10
161.37405
20
10
30
0
40
10
1
OUT 307.7 IN 276.1 CUT J9.5/S80.5 FINGER ONE END
72
1
11
161.37405
21
10
31
0
73
2
0
POLYLINE
8
PIECES
66
1
70
1
10
0
20
0
30
0
0
VERTEX
8
PIECES
10
844.680451
20
0
30
0
0
VERTEX
8
PIECES
10
538.563851
20
0
30
0
0
VERTEX
8
PIECES
10
522.7481
20
95
30
0
0
VERTEX
8
PIECES
10
860.496201
20
95
30
0
0
SEQEND
8
PIECES
0
TEXT
8
TEXT
10
691.622151
20
57.5
30
0
40
15
1
SG - S-ARCH TOP RAIL P2 L337.7 x95
72
1
11
691.622151
21
57.5
31
0
73
2
0
TEXT
8
TEXT
10
691.622151
20
10
30
0
40
10
1
OUT 307.7 IN 276.1 CUT J9.5/J9.5 FINGER BOTH ENDS
72
1
11
691.622151
21
10
31
0
73
2
0
POLYLINE
8
PIECES
66
1
70
1
10
0
20
0
30
0
0
VERTEX
8
PIECES
10
1401.85219
20
0
30
0
0
VERTEX
8
PIECES
10
1148.282495
20
0
30
0
0
VERTEX
8
PIECES
10
1060.496201
20
95
30
0
0
VERTEX
8
PIECES
10
1417.66794
20
95
30
0
0
SEQEND
8
PIECES
0
TEXT
8
TEXT
10
1239.082071
20
57.5
30
0
40
15
1
SG - S-ARCH TOP RAIL P3 L357.2 x95
72
1
11
1239.082071
21
57.5
31
0
73
2
0
TEXT
8
TEXT
10
1239.082071
20
10
30
0
40
10
1
OUT 327.2 IN 223.6 CUT A47.3/J9.5 FINGER BOTH ENDS
72
1
11
1239.082071
21
10
31
0
73
2
0
POLYLINE
8
PIECES
66
1
70
1
10
0
20
0
30
0
0
VERTEX
8
PIECES
10
1887.053385
20
0
30
0
0
VERTEX
8
PIECES
10
1633.48369
20
0
30
0
0
VERTEX
8
PIECES
10
1617.66794
20
95
30
0
0
VERTEX
8
PIECES
10
1974.839679
20
95
30
0
0
SEQEND
8
PIECES
0
TEXT
8
TEXT
10
1796.25381
20
57.5
30
0
40
15
1
SG - S-ARCH TOP RAIL P4 L357.2 x95
72
1
11
1796.25381
21
57.5
31
0
73
2
0
TEXT
8
TEXT
10
1796.25381
20
10
30
0
40
10
1
OUT 327.2 IN 223.6 CUT J9.5/A47.3 FINGER BOTH ENDS
72
1
11
1796.25381
21
10
31
0
73
2
0
POLYLINE
8
PIECES
66
1
70
1
10
0
20
0
30
0
0
VERTEX
8
PIECES
10
2496.77203
20
0
30
0
0
VERTEX
8
PIECES
10
2190.65543
20
0
30
0
0
VERTEX
8
PIECES
10
2174.839679
20
95
30
0
0
VERTEX
8
PIECES
10
2512.58778
20
95
30
0
0
SEQEND
8
PIECES
0
TEXT
8
TEXT
10
2343.71373
20
57.5
30
0
40
15
1
SG - S-ARCH TOP RAIL P5 L337.7 x95
72
1
11
2343.71373
21
57.5
31
0
73
2
0
TEXT
8
TEXT
10
2343.71373
20
10
30
0
40
10
1
OUT 307.7 IN 276.1 CUT J9.5/J9.5 FINGER BOTH ENDS
72
1
11
2343.71373
21
10
31
0
73
2
0
POLYLINE
8
PIECES
66
1
70
1
10
0
20
0
30
0
0
VERTEX
8
PIECES
10
3019.52013
20
0
30
0
0
VERTEX
8
PIECES
10
2728.40353
20
0
30
0
0
VERTEX
8
PIECES
10
2712.58778
20
95
30
0
0
VERTEX
8
PIECES
10
3035.33588
20
95
30
0
0
SEQEND
8
PIECES
0
TEXT
8
TEXT
10
2873.96183
20
57.5
30
0
40
15
1
SG - S-ARCH TOP RAIL P6 L322.7 x95
72
1
11
2873.96183
21
57.5
31
0
73
2
0
TEXT
8
TEXT
10
2873.96183
20
10
30
0
40
10
1
OUT 307.7 IN 276.1 CUT S80.5/J9.5 FINGER ONE END
72
1
11
2873.96183
21
10
31
0
73
2
0
POLYLINE
8
CONTOUR
66
1
70
1
10
0
20
0
30
0
0
VERTEX
8
CONTOUR
10
847.991778
20
295
30
0
42
0.25263
0
VERTEX
8
CONTOUR
10
436.991778
20
1056.525443
30
0
42
0.25263
0
VERTEX
8
CONTOUR
10
25.991778
20
295
30
0
0
VERTEX
8
CONTOUR
10
82.991778
20
295
30
0
42
-0.240832
0
VERTEX
8
CONTOUR
10
436.991778
20
987.326513
30
0
42
-0.240832
0
VERTEX
8
CONTOUR
10
790.991778
20
295
30
0
0
SEQEND
8
CONTOUR
0
POLYLINE
8
ASSEMBLY
66
1
70
1
10
0
20
0
30
0
0
VERTEX
8
ASSEMBLY
10
777.676039
20
295
30
0
0
VERTEX
8
ASSEMBLY
10
732.3318
20
567.367907
30
0
0
VERTEX
8
ASSEMBLY
10
823.44475
20
598.569963
30
0
0
VERTEX
8
ASSEMBLY
10
873.983557
20
295
30
0
0
SEQEND
8
ASSEMBLY
0
POLYLINE
8
FINGER
66
1
70
0
10
0
20
0
30
0
0
VERTEX
8
FINGER
10
744.929324
20
571.681988
30
0
0
VERTEX
8
FINGER
10
798.854898
20
590.149053
30
0
0
SEQEND
8
FINGER
0
POLYLINE
8
ASSEMBLY
66
1
70
1
10
0
20
0
30
0
0
VERTEX
8
ASSEMBLY
10
732.3318
20
567.367907
30
0
0
VERTEX
8
ASSEMBLY
10
601.190573
20
810.354235
30
0
0
VERTEX
8
ASSEMBLY
10
677.280182
20
869.392437
30
0
0
VERTEX
8
ASSEMBLY
10
823.44475
20
598.569963
30
0
0
SEQEND
8
ASSEMBLY
0
POLYLINE
8
FINGER
66
1
70
0
10
0
20
0
30
0
0
VERTEX
8
FINGER
10
611.710929
20
818.517017
30
0
0
VERTEX
8
FINGER
10
656.744877
20
853.45902
30
0
0
SEQEND
8
FINGER
0
POLYLINE
8
ASSEMBLY
66
1
70
1
10
0
20
0
30
0
0
VERTEX
8
ASSEMBLY
10
601.190573
20
810.354235
30
0
0
VERTEX
8
ASSEMBLY
10
436.991778
20
962.0848
30
0
0
VERTEX
8
ASSEMBLY
10
436.991778
20
1091.434843
30
0
0
VERTEX
8
ASSEMBLY
10
677.280182
20
869.392437
30
0
0
SEQEND
8
ASSEMBLY
0
POLYLINE
8
FINGER
66
1
70
0
10
0
20
0
30
0
0
VERTEX
8
FINGER
10
436.991778
20
987.326513
30
0
0
VERTEX
8
FINGER
10
436.991778
20
1056.525443
30
0
0
SEQEND
8
FINGER
0
POLYLINE
8
ASSEMBLY
66
1
70
1
10
0
20
0
30
0
0
VERTEX
8
ASSEMBLY
10
436.991778
20
962.0848
30
0
0
VERTEX
8
ASSEMBLY
10
272.792984
20
810.354235
30
0
0
VERTEX
8
ASSEMBLY
10
196.703374
20
869.392437
30
0
0
VERTEX
8
ASSEMBLY
10
436.991778
20
1091.434843
30
0
0
SEQEND
8
ASSEMBLY
0
POLYLINE
8
FINGER
66
1
70
0
10
0
20
0
30
0
0
VERTEX
8
FINGER
10
262.272628
20
818.517017
30
0
0
VERTEX
8
FINGER
10
217.23868
20
853.45902
30
0
0
SEQEND
8
FINGER
0
POLYLINE
8
ASSEMBLY
66
1
70
1
10
0
20
0
30
0
0
VERTEX
8
ASSEMBLY
10
272.792984
20
810.354235
30
0
0
VERTEX
8
ASSEMBLY
10
141.651757
20
567.367907
30
0
0
VERTEX
8
ASSEMBLY
10
50.538807
20
598.569963
30
0
0
VERTEX
8
ASSEMBLY
10
196.703374
20
869.392437
30
0
0
SEQEND
8
ASSEMBLY
0
POLYLINE
8
FINGER
66
1
70
0
10
0
20
0
30
0
0
VERTEX
8
FINGER
10
129.054233
20
571.681988
30
0
0
VERTEX
8
FINGER
10
75.128659
20
590.149053
30
0
0
SEQEND
8
FINGER
0
POLYLINE
8
ASSEMBLY
66
1
70
1
10
0
20
0
30
0
0
VERTEX
8
ASSEMBLY
10
141.651757
20
567.367907
30
0
0
VERTEX
8
ASSEMBLY
10
96.307518
20
295
30
0
0
VERTEX
8
ASSEMBLY
10
0
20
295
30
0
0
VERTEX
8
ASSEMBLY
10
50.538807
20
598.569963
30
0
0
SEQEND
8
ASSEMBLY
0
TEXT
8
TEXT
10
973.983557
20
1072.934843
30
0
40
15
1
SG - S-ARCH TOP RAIL
72
0
11
973.983557
21
1072.934843
31
0
73
0
0
TEXT
8
TEXT
10
973.983557
20
1050.934843
30
0
40
15
1
GOTHIC EQUILATERAL W1000 RISE866 H3000 SASH
72
0
11
973.983557
21
1050.934843
31
0
73
0
0
TEXT
8
TEXT
10
973.983557
20
1028.934843
30
0
40
15
1
FACE 57 OFFSET 89 OUTER L1803.4 INNER L1614.6
72
0
11
973.983557
21
1028.934843
31
0
73
0
0
TEXT
8
TEXT
10
973.983557
20
1006.934843
30
0
40
15
1
ARC 1 R911 L901.7 56.7DEG: 3 x board 95 L327.2 ROUGH 357.2 (ALT 2 x board 105)
72
0
11
973.983557
21
1006.934843
31
0
73
0
0
TEXT
8
TEXT
10
973.983557
20
984.934843
30
0
40
15
1
ARC 2 R911 L901.7 56.7DEG: 3 x board 95 L327.2 ROUGH 357.2 (ALT 2 x board 105)
72
0
11
973.983557
21
984.934843
31
0
73
0
0
TEXT
8
TEXT
10
973.983557
20
962.934843
30
0
40
15
1
FINGER 15/16/3.8
72
0
11
973.983557
21
962.934843
31
0
73
0
0
TEXT
8
TEXT
10
973.983557
20
940.934843
30
0
40
15
1
ALLOWANCE 10 PER SIDE  MAX SEGMENT 36 DEG  RULE NARROWEST
72
0
11
973.983557
21
940.934843
31
0
73
0
0
TEXT
8
TEXT
10
973.983557
20
918.934843
30
0
40
15
1
CUT CODES: J = JOINT FROM SQUARE  S = ARCH-START, AXIS TO HORIZONTAL  A = APEX FROM SQUARE
72
0
11
973.983557
21
918.934843
31
0
73
0
0
POLYLINE
8
PIECES
66
1
70
1
10
0
20
0
30
0
0
VERTEX
8
PIECES
10
521.154015
20
1291.434843
30
0
0
VERTEX
8
PIECES
10
48.230855
20
1291.434843
30
0
0
VERTEX
8
PIECES
10
0
20
1471.434843
30
0
0
VERTEX
8
PIECES
10
569.38487
20
1471.434843
30
0
0
SEQEND
8
PIECES
0
TEXT
8
TEXT
10
284.692435
20
1391.434843
30
0
40
15
1
SG - S-ARCH HEAD P1 L569.4 x180
72
1
11
284.692435
21
1391.434843
31
0
73
2
0
TEXT
8
TEXT
10
284.692435
20
1301.434843
30
0
40
10
1
OUT 554.4 IN 457.9 CUT J15/S75 FINGER ONE END
72
1
11
284.692435
21
1301.434843
31
0
73
2
0
POLYLINE
8
PIECES
66
1
70
1
10
0
20
0
30
0
0
VERTEX
8
PIECES
10
1355.73592
20
1291.434843
30
0
0
VERTEX
8
PIECES
10
949.38487
20
1291.434843
30
0
0
VERTEX
8
PIECES
10
769.38487
20
1471.434843
30
0
0
VERTEX
8
PIECES
10
1403.966775
20
1471.434843
30
0
0
SEQEND
8
PIECES
0
TEXT
8
TEXT
10
1086.675822
20
1391.434843
30
0
40
15
1
SG - S-ARCH HEAD P2 L634.6 x180
72
1
11
1086.675822
21
1391.434843
31
0
73
2
0
TEXT
8
TEXT
10
1086.675822
20
1301.434843
30
0
40
10
1
OUT 604.6 IN 376.4 CUT A45/J15 FINGER BOTH ENDS
72
1
11
1086.675822
21
1301.434843
31
0
73
2
0
POLYLINE
8
PIECES
66
1
70
1
10
0
20
0
30
0
0
VERTEX
8
PIECES
10
2058.54868
20
1291.434843
30
0
0
VERTEX
8
PIECES
10
1652.197629
20
1291.434843
30
0
0
VERTEX
8
PIECES
10
1603.966775
20
1471.434843
30
0
0
VERTEX
8
PIECES
10
2238.54868
20
1471.434843
30
0
0
SEQEND
8
PIECES
0
TEXT
8
TEXT
10
1921.257727
20
1391.434843
30
0
40
15
1
SG - S-ARCH HEAD P3 L634.6 x180
72
1
11
1921.257727
21
1391.434843
31
0
73
2
0
TEXT
8
TEXT
10
1921.257727
20
1301.434843
30
0
40
10
1
OUT 604.6 IN 376.4 CUT J15/A45 FINGER BOTH ENDS
72
1
11
1921.257727
21
1301.434843
31
0
73
2
0
POLYLINE
8
PIECES
66
1
70
1
10
0
20
0
30
0
0
VERTEX
8
PIECES
10
2959.702695
20
1291.434843
30
0
0
VERTEX
8
PIECES
10
2486.779534
20
1291.434843
30
0
0
VERTEX
8
PIECES
10
2438.54868
20
1471.434843
30
0
0
VERTEX
8
PIECES
10
3007.93355
20
1471.434843
30
0
0
SEQEND
8
PIECES
0
TEXT
8
TEXT
10
2723.241115
20
1391.434843
30
0
40
15
1
SG - S-ARCH HEAD P4 L569.4 x180
72
1
11
2723.241115
21
1391.434843
31
0
73
2
0
TEXT
8
TEXT
10
2723.241115
20
1301.434843
30
0
40
10
1
OUT 554.4 IN 457.9 CUT S75/J15 FINGER ONE END
72
1
11
2723.241115
21
1301.434843
31
0
73
2
0
POLYLINE
8
CONTOUR
66
1
70
1
10
0
20
0
30
0
0
VERTEX
8
CONTOUR
10
1070.989327
20
1671.434843
30
0
42
0.267949
0
VERTEX
8
CONTOUR
10
570.989327
20
2537.460246
30
0
42
0.267949
0
VERTEX
8
CONTOUR
10
70.989327
20
1671.434843
30
0
0
VERTEX
8
CONTOUR
10
150.989327
20
1671.434843
30
0
42
-0.254336
0
VERTEX
8
CONTOUR
10
570.989327
20
2443.704226
30
0
42
-0.254336
0
VERTEX
8
CONTOUR
10
990.989327
20
1671.434843
30
0
0
SEQEND
8
CONTOUR
0
POLYLINE
8
ASSEMBLY
66
1
70
1
10
0
20
0
30
0
0
VERTEX
8
ASSEMBLY
10
955.628942
20
1671.434843
30
0
0
VERTEX
8
ASSEMBLY
10
837.109707
20
2113.75465
30
0
0
VERTEX
8
ASSEMBLY
10
998.493292
20
2206.929506
30
0
0
VERTEX
8
ASSEMBLY
10
1141.978655
20
1671.434843
30
0
0
SEQEND
8
ASSEMBLY
0
POLYLINE
8
FINGER
66
1
70
0
10
0
20
0
30
0
0
VERTEX
8
FINGER
10
867.732699
20
2131.434843
30
0
0
VERTEX
8
FINGER
10
937.014731
20
2171.434843
30
0
0
SEQEND
8
FINGER
0
POLYLINE
8
ASSEMBLY
66
1
70
1
10
0
20
0
30
0
0
VERTEX
8
ASSEMBLY
10
837.109707
20
2113.75465
30
0
0
VERTEX
8
ASSEMBLY
10
570.989327
20
2379.87503
30
0
0
VERTEX
8
ASSEMBLY
10
570.989327
20
2634.433471
30
0
0
VERTEX
8
ASSEMBLY
10
998.493292
20
2206.929506
30
0
0
SEQEND
8
ASSEMBLY
0
POLYLINE
8
FINGER
66
1
70
0
10
0
20
0
30
0
0
VERTEX
8
FINGER
10
570.989327
20
2443.704226
30
0
0
VERTEX
8
FINGER
10
570.989327
20
2537.460246
30
0
0
SEQEND
8
FINGER
0
POLYLINE
8
ASSEMBLY
66
1
70
1
10
0
20
0
30
0
0
VERTEX
8
ASSEMBLY
10
570.989327
20
2379.87503
30
0
0
VERTEX
8
ASSEMBLY
10
304.868948
20
2113.75465
30
0
0
VERTEX
8
ASSEMBLY
10
143.485363
20
2206.929506
30
0
0
VERTEX
8
ASSEMBLY
10
570.989327
20
2634.433471
30
0
0
SEQEND
8
ASSEMBLY
0
POLYLINE
8
FINGER
66
1
70
0
10
0
20
0
30
0
0
VERTEX
8
FINGER
10
570.989327
20
2443.704226
30
0
0
VERTEX
8
FINGER
10
570.989327
20
2537.460246
30
0
0
SEQEND
8
FINGER
0
POLYLINE
8
FINGER
66
1
70
0
10
0
20
0
30
0
0
VERTEX
8
FINGER
10
274.245956
20
2131.434843
30
0
0
VERTEX
8
FINGER
10
204.963924
20
2171.434843
30
0
0
SEQEND
8
FINGER
0
POLYLINE
8
ASSEMBLY
66
1
70
1
10
0
20
0
30
0
0
VERTEX
8
ASSEMBLY
10
304.868948
20
2113.75465
30
0
0
VERTEX
8
ASSEMBLY
10
186.349712
20
1671.434843
30
0
0
VERTEX
8
ASSEMBLY
10
0
20
1671.434843
30
0
0
VERTEX
8
ASSEMBLY
10
143.485363
20
2206.929506
30
0
0
SEQEND
8
ASSEMBLY
0
TEXT
8
TEXT
10
1241.978655
20
2615.933471
30
0
40
15
1
SG - S-ARCH HEAD
72
0
11
1241.978655
21
2615.933471
31
0
73
0
0
TEXT
8
TEXT
10
1241.978655
20
2593.933471
30
0
40
15
1
GOTHIC EQUILATERAL W1000 RISE866 H3000 SASH
72
0
11
1241.978655
21
2593.933471
31
0
73
0
0
TEXT
8
TEXT
10
1241.978655
20
2571.933471
30
0
40
15
1
FACE 80 OFFSET 0 OUTER L2094.4 INNER L1833
72
0
11
1241.978655
21
2571.933471
31
0
73
0
0
TEXT
8
TEXT
10
1241.978655
20
2549.933471
30
0
40
15
1
ARC 1 R1000 L1047.2 60DEG: 2 x board 180 L604.6 ROUGH 634.6
72
0
11
1241.978655
21
2549.933471
31
0
73
0
0
TEXT
8
TEXT
10
1241.978655
20
2527.933471
30
0
40
15
1
ARC 2 R1000 L1047.2 60DEG: 2 x board 180 L604.6 ROUGH 634.6
72
0
11
1241.978655
21
2527.933471
31
0
73
0
0
TEXT
8
TEXT
10
1241.978655
20
2505.933471
30
0
40
15
1
FINGER 15/16/3.8
72
0
11
1241.978655
21
2505.933471
31
0
73
0
0
TEXT
8
TEXT
10
1241.978655
20
2483.933471
30
0
40
15
1
ALLOWANCE 10 PER SIDE  MAX SEGMENT 36 DEG  RULE NARROWEST
72
0
11
1241.978655
21
2483.933471
31
0
73
0
0
TEXT
8
TEXT
10
1241.978655
20
2461.933471
30
0
40
15
1
CUT CODES: J = JOINT FROM SQUARE  S = ARCH-START, AXIS TO HORIZONTAL  A = APEX FROM SQUARE
72
0
11
1241.978655
21
2461.933471
31
0
73
0
0
POLYLINE
8
FIT
66
1
70
1
10
0
20
0
30
0
0
VERTEX
8
FIT
10
1000
20
2834.433471
30
0
42
0.267949
0
VERTEX
8
FIT
10
500
20
3700.458875
30
0
42
0.267949
0
VERTEX
8
FIT
10
0
20
2834.433471
30
0
0
VERTEX
8
FIT
10
80
20
2834.433471
30
0
42
-0.254336
0
VERTEX
8
FIT
10
500
20
3606.702854
30
0
42
-0.254336
0
VERTEX
8
FIT
10
920
20
2834.433471
30
0
0
SEQEND
8
FIT
0
POLYLINE
8
FIT
66
1
70
1
10
0
20
0
30
0
0
VERTEX
8
FIT
10
911
20
2834.433471
30
0
42
0.25263
0
VERTEX
8
FIT
10
500
20
3595.958914
30
0
42
0.25263
0
VERTEX
8
FIT
10
89
20
2834.433471
30
0
0
VERTEX
8
FIT
10
146
20
2834.433471
30
0
42
-0.240832
0
VERTEX
8
FIT
10
500
20
3526.759984
30
0
42
-0.240832
0
VERTEX
8
FIT
10
854
20
2834.433471
30
0
0
SEQEND
8
FIT
0
POLYLINE
8
FIT
66
1
70
1
10
0
20
0
30
0
0
VERTEX
8
FIT
10
866.5
20
2834.433471
30
0
42
0.243579
0
VERTEX
8
FIT
10
500
20
3542.121432
30
0
42
0.243579
0
VERTEX
8
FIT
10
133.5
20
2834.433471
30
0
0
SEQEND
8
FIT
0
TEXT
8
TEXT
10
1100
20
3681.958875
30
0
40
15
1
SG - FIT (ASSEMBLY, NOT A TOOLPATH)
72
0
11
1100
21
3681.958875
31
0
73
0
0
TEXT
8
TEXT
10
1100
20
3659.958875
30
0
40
15
1
RUNNING GAP 9 (HEAD 80 FACE, SASH AT THE STILE LINE)
72
0
11
1100
21
3659.958875
31
0
73
0
0
TEXT
8
TEXT
10
1100
20
3637.958875
30
0
40
15
1
HEAD R1000/1000 / 920/920
72
0
11
1100
21
3637.958875
31
0
73
0
0
TEXT
8
TEXT
10
1100
20
3615.958875
30
0
40
15
1
TOP RAIL R911/911 / 854/854  GLASS R866.5/866.5
72
0
11
1100
21
3615.958875
31
0
73
0
0
ENDSEC
0
EOF
