0
SECTION
2
HEADER
9
$ACADVER
1
AC1009
0
ENDSEC
0
SECTION
2
TABLES
0
TABLE
2
LAYER
70
6
0
LAYER
2
0
70
0
62
7
6
CONTINUOUS
0
LAYER
2
GLASS_CONTOUR
70
0
62
7
6
CONTINUOUS
0
LAYER
2
GLASS_EDGE
70
0
62
8
6
CONTINUOUS
0
LAYER
2
GLASS_BARS
70
0
62
3
6
CONTINUOUS
0
LAYER
2
GLASS_BAR_AXES
70
0
62
4
6
CONTINUOUS
0
LAYER
2
GLASS_TEXT
70
0
62
2
6
CONTINUOUS
0
ENDTAB
0
ENDSEC
0
SECTION
2
ENTITIES
0
POLYLINE
8
GLASS_CONTOUR
66
1
70
1
10
0
20
0
30
0
0
VERTEX
8
GLASS_CONTOUR
10
0
20
-1293
30
0
0
VERTEX
8
GLASS_CONTOUR
10
789
20
-1293
30
0
0
VERTEX
8
GLASS_CONTOUR
10
789
20
-94.5
30
0
42
0.333333
0
VERTEX
8
GLASS_CONTOUR
10
756.96
20
-51.78
30
0
42
0.142857
0
VERTEX
8
GLASS_CONTOUR
10
32.04
20
-51.78
30
0
42
0.333333
0
VERTEX
8
GLASS_CONTOUR
10
0
20
-94.5
30
0
0
SEQEND
8
GLASS_CONTOUR
0
POLYLINE
8
GLASS_EDGE
66
1
70
1
10
0
20
0
30
0
0
VERTEX
8
GLASS_EDGE
10
11
20
-1282
30
0
0
VERTEX
8
GLASS_EDGE
10
778
20
-1282
30
0
0
VERTEX
8
GLASS_EDGE
10
778
20
-94.5
30
0
42
0.333333
0
VERTEX
8
GLASS_EDGE
10
753.88
20
-62.34
30
0
42
0.142857
0
VERTEX
8
GLASS_EDGE
10
35.12
20
-62.34
30
0
42
0.333333
0
VERTEX
8
GLASS_EDGE
10
11
20
-94.5
30
0
0
SEQEND
8
GLASS_EDGE
0
POLYLINE
8
GLASS_BAR_AXES
66
1
70
0
10
0
20
0
30
0
0
VERTEX
8
GLASS_BAR_AXES
10
0
20
-693.75
30
0
0
VERTEX
8
GLASS_BAR_AXES
10
789
20
-693.75
30
0
0
SEQEND
8
GLASS_BAR_AXES
0
POLYLINE
8
GLASS_BARS
66
1
70
0
10
0
20
0
30
0
0
VERTEX
8
GLASS_BARS
10
0
20
-684.75
30
0
0
VERTEX
8
GLASS_BARS
10
789
20
-684.75
30
0
0
SEQEND
8
GLASS_BARS
0
POLYLINE
8
GLASS_BARS
66
1
70
0
10
0
20
0
30
0
0
VERTEX
8
GLASS_BARS
10
0
20
-702.75
30
0
0
VERTEX
8
GLASS_BARS
10
789
20
-702.75
30
0
0
SEQEND
8
GLASS_BARS
0
POLYLINE
8
GLASS_BAR_AXES
66
1
70
0
10
0
20
0
30
0
0
VERTEX
8
GLASS_BAR_AXES
10
263
20
-1293
30
0
0
VERTEX
8
GLASS_BAR_AXES
10
263
20
-6.696444
30
0
0
SEQEND
8
GLASS_BAR_AXES
0
POLYLINE
8
GLASS_BARS
66
1
70
0
10
0
20
0
30
0
0
VERTEX
8
GLASS_BARS
10
254
20
-1293
30
0
0
VERTEX
8
GLASS_BARS
10
254
20
-6.696444
30
0
0
SEQEND
8
GLASS_BARS
0
POLYLINE
8
GLASS_BARS
66
1
70
0
10
0
20
0
30
0
0
VERTEX
8
GLASS_BARS
10
272
20
-1293
30
0
0
VERTEX
8
GLASS_BARS
10
272
20
-6.696444
30
0
0
SEQEND
8
GLASS_BARS
0
POLYLINE
8
GLASS_BAR_AXES
66
1
70
0
10
0
20
0
30
0
0
VERTEX
8
GLASS_BAR_AXES
10
526
20
-1293
30
0
0
VERTEX
8
GLASS_BAR_AXES
10
526
20
-6.696444
30
0
0
SEQEND
8
GLASS_BAR_AXES
0
POLYLINE
8
GLASS_BARS
66
1
70
0
10
0
20
0
30
0
0
VERTEX
8
GLASS_BARS
10
517
20
-1293
30
0
0
VERTEX
8
GLASS_BARS
10
517
20
-6.696444
30
0
0
SEQEND
8
GLASS_BARS
0
POLYLINE
8
GLASS_BARS
66
1
70
0
10
0
20
0
30
0
0
VERTEX
8
GLASS_BARS
10
535
20
-1293
30
0
0
VERTEX
8
GLASS_BARS
10
535
20
-6.696444
30
0
0
SEQEND
8
GLASS_BARS
0
TEXT
8
GLASS_TEXT
10
889
20
-18.5
30
0
40
15
1
TC1 - G1 GLASS THREE-CENTRE
72
0
11
889
21
-18.5
31
0
73
0
0
TEXT
8
GLASS_TEXT
10
889
20
-40.5
30
0
40
15
1
W789 x H1293 RISE 94.5 SPRINGING 1198.5 R 44.5/1294.5/44.5
72
0
11
889
21
-40.5
31
0
73
0
0
TEXT
8
GLASS_TEXT
10
889
20
-62.5
30
0
40
15
1
DOUBLE 4X16X4 TOUGHENED ARGON CLEAR SPACER SILVER
72
0
11
889
21
-62.5
31
0
73
0
0
TEXT
8
GLASS_TEXT
10
889
20
-84.5
30
0
40
15
1
BARS 3 TOTAL L=3362
72
0
11
889
21
-84.5
31
0
73
0
0
TEXT
8
GLASS_TEXT
10
889
20
-106.5
30
0
40
15
1
H1 H Y=599.3 X=0-789 L=789
72
0
11
889
21
-106.5
31
0
73
0
0
TEXT
8
GLASS_TEXT
10
889
20
-128.5
30
0
40
15
1
V1 V X=263 Y=0-1286.3 L=1286.5
72
0
11
889
21
-128.5
31
0
73
0
0
TEXT
8
GLASS_TEXT
10
889
20
-150.5
30
0
40
15
1
V2 V X=526 Y=0-1286.3 L=1286.5
72
0
11
889
21
-150.5
31
0
73
0
0
TEXT
8
GLASS_TEXT
10
889
20
-172.5
30
0
40
15
1
BAR ENDS: ID  S FROM APEX / POSITION  L  ANGLE / R
72
0
11
889
21
-172.5
31
0
73
0
0
TEXT
8
GLASS_TEXT
10
889
20
-194.5
30
0
40
15
1
H1  Y 599.3  L=789  0DEG
72
0
11
889
21
-194.5
31
0
73
0
0
TEXT
8
GLASS_TEXT
10
889
20
-216.5
30
0
40
15
1
V1  131.7 FROM APEX L  L=1286.5  90DEG
72
0
11
889
21
-216.5
31
0
73
0
0
TEXT
8
GLASS_TEXT
10
889
20
-238.5
30
0
40
15
1
V2  131.7 FROM APEX R  L=1286.5  90DEG
72
0
11
889
21
-238.5
31
0
73
0
0
POLYLINE
8
GLASS_CONTOUR
66
1
70
1
10
0
20
0
30
0
0
VERTEX
8
GLASS_CONTOUR
10
0
20
-2886
30
0
0
VERTEX
8
GLASS_CONTOUR
10
789
20
-2886
30
0
0
VERTEX
8
GLASS_CONTOUR
10
789
20
-1987.5
30
0
42
1
0
VERTEX
8
GLASS_CONTOUR
10
0
20
-1987.5
30
0
0
SEQEND
8
GLASS_CONTOUR
0
POLYLINE
8
GLASS_EDGE
66
1
70
1
10
0
20
0
30
0
0
VERTEX
8
GLASS_EDGE
10
11
20
-2875
30
0
0
VERTEX
8
GLASS_EDGE
10
778
20
-2875
30
0
0
VERTEX
8
GLASS_EDGE
10
778
20
-1987.5
30
0
42
1
0
VERTEX
8
GLASS_EDGE
10
11
20
-1987.5
30
0
0
SEQEND
8
GLASS_EDGE
0
POLYLINE
8
GLASS_BAR_AXES
66
1
70
0
10
0
20
0
30
0
0
VERTEX
8
GLASS_BAR_AXES
10
512.85
20
-1987.5
30
0
42
1
0
VERTEX
8
GLASS_BAR_AXES
10
276.15
20
-1987.5
30
0
0
SEQEND
8
GLASS_BAR_AXES
0
POLYLINE
8
GLASS_BARS
66
1
70
0
10
0
20
0
30
0
0
VERTEX
8
GLASS_BARS
10
521.85
20
-1987.5
30
0
42
1
0
VERTEX
8
GLASS_BARS
10
267.15
20
-1987.5
30
0
0
SEQEND
8
GLASS_BARS
0
POLYLINE
8
GLASS_BARS
66
1
70
0
10
0
20
0
30
0
0
VERTEX
8
GLASS_BARS
10
503.85
20
-1987.5
30
0
42
1
0
VERTEX
8
GLASS_BARS
10
285.15
20
-1987.5
30
0
0
SEQEND
8
GLASS_BARS
0
POLYLINE
8
GLASS_BAR_AXES
66
1
70
0
10
0
20
0
30
0
0
VERTEX
8
GLASS_BAR_AXES
10
512.85
20
-1987.5
30
0
0
VERTEX
8
GLASS_BAR_AXES
10
789
20
-1987.5
30
0
0
SEQEND
8
GLASS_BAR_AXES
0
POLYLINE
8
GLASS_BARS
66
1
70
0
10
0
20
0
30
0
0
VERTEX
8
GLASS_BARS
10
512.85
20
-1978.5
30
0
0
VERTEX
8
GLASS_BARS
10
789
20
-1978.5
30
0
0
SEQEND
8
GLASS_BARS
0
POLYLINE
8
GLASS_BARS
66
1
70
0
10
0
20
0
30
0
0
VERTEX
8
GLASS_BARS
10
512.85
20
-1996.5
30
0
0
VERTEX
8
GLASS_BARS
10
789
20
-1996.5
30
0
0
SEQEND
8
GLASS_BARS
0
POLYLINE
8
GLASS_BAR_AXES
66
1
70
0
10
0
20
0
30
0
0
VERTEX
8
GLASS_BAR_AXES
10
453.675
20
-1885.005893
30
0
0
VERTEX
8
GLASS_BAR_AXES
10
591.75
20
-1645.852978
30
0
0
SEQEND
8
GLASS_BAR_AXES
0
POLYLINE
8
GLASS_BARS
66
1
70
0
10
0
20
0
30
0
0
VERTEX
8
GLASS_BARS
10
445.880771
20
-1880.505893
30
0
0
VERTEX
8
GLASS_BARS
10
583.955771
20
-1641.352978
30
0
0
SEQEND
8
GLASS_BARS
0
POLYLINE
8
GLASS_BARS
66
1
70
0
10
0
20
0
30
0
0
VERTEX
8
GLASS_BARS
10
461.469229
20
-1889.505893
30
0
0
VERTEX
8
GLASS_BARS
10
599.544229
20
-1650.352978
30
0
0
SEQEND
8
GLASS_BARS
0
POLYLINE
8
GLASS_BAR_AXES
66
1
70
0
10
0
20
0
30
0
0
VERTEX
8
GLASS_BAR_AXES
10
335.325
20
-1885.005893
30
0
0
VERTEX
8
GLASS_BAR_AXES
10
197.25
20
-1645.852978
30
0
0
SEQEND
8
GLASS_BAR_AXES
0
POLYLINE
8
GLASS_BARS
66
1
70
0
10
0
20
0
30
0
0
VERTEX
8
GLASS_BARS
10
327.530771
20
-1889.505893
30
0
0
VERTEX
8
GLASS_BARS
10
189.455771
20
-1650.352978
30
0
0
SEQEND
8
GLASS_BARS
0
POLYLINE
8
GLASS_BARS
66
1
70
0
10
0
20
0
30
0
0
VERTEX
8
GLASS_BARS
10
343.119229
20
-1880.505893
30
0
0
VERTEX
8
GLASS_BARS
10
205.044229
20
-1641.352978
30
0
0
SEQEND
8
GLASS_BARS
0
POLYLINE
8
GLASS_BAR_AXES
66
1
70
0
10
0
20
0
30
0
0
VERTEX
8
GLASS_BAR_AXES
10
276.15
20
-1987.5
30
0
0
VERTEX
8
GLASS_BAR_AXES
10
0
20
-1987.5
30
0
0
SEQEND
8
GLASS_BAR_AXES
0
POLYLINE
8
GLASS_BARS
66
1
70
0
10
0
20
0
30
0
0
VERTEX
8
GLASS_BARS
10
276.15
20
-1996.5
30
0
0
VERTEX
8
GLASS_BARS
10
0
20
-1996.5
30
0
0
SEQEND
8
GLASS_BARS
0
POLYLINE
8
GLASS_BARS
66
1
70
0
10
0
20
0
30
0
0
VERTEX
8
GLASS_BARS
10
276.15
20
-1978.5
30
0
0
VERTEX
8
GLASS_BARS
10
0
20
-1978.5
30
0
0
SEQEND
8
GLASS_BARS
0
POLYLINE
8
GLASS_BAR_AXES
66
1
70
0
10
0
20
0
30
0
0
VERTEX
8
GLASS_BAR_AXES
10
276.15
20
-2886
30
0
0
VERTEX
8
GLASS_BAR_AXES
10
276.15
20
-1987.5
30
0
0
SEQEND
8
GLASS_BAR_AXES
0
POLYLINE
8
GLASS_BARS
66
1
70
0
10
0
20
0
30
0
0
VERTEX
8
GLASS_BARS
10
267.15
20
-2886
30
0
0
VERTEX
8
GLASS_BARS
10
267.15
20
-1987.5
30
0
0
SEQEND
8
GLASS_BARS
0
POLYLINE
8
GLASS_BARS
66
1
70
0
10
0
20
0
30
0
0
VERTEX
8
GLASS_BARS
10
285.15
20
-2886
30
0
0
VERTEX
8
GLASS_BARS
10
285.15
20
-1987.5
30
0
0
SEQEND
8
GLASS_BARS
0
POLYLINE
8
GLASS_BAR_AXES
66
1
70
0
10
0
20
0
30
0
0
VERTEX
8
GLASS_BAR_AXES
10
512.85
20
-2886
30
0
0
VERTEX
8
GLASS_BAR_AXES
10
512.85
20
-1987.5
30
0
0
SEQEND
8
GLASS_BAR_AXES
0
POLYLINE
8
GLASS_BARS
66
1
70
0
10
0
20
0
30
0
0
VERTEX
8
GLASS_BARS
10
503.85
20
-2886
30
0
0
VERTEX
8
GLASS_BARS
10
503.85
20
-1987.5
30
0
0
SEQEND
8
GLASS_BARS
0
POLYLINE
8
GLASS_BARS
66
1
70
0
10
0
20
0
30
0
0
VERTEX
8
GLASS_BARS
10
521.85
20
-2886
30
0
0
VERTEX
8
GLASS_BARS
10
521.85
20
-1987.5
30
0
0
SEQEND
8
GLASS_BARS
0
TEXT
8
GLASS_TEXT
10
889
20
-1611.5
30
0
40
15
1
SC1 - G1 GLASS SEMI-CIRCLE
72
0
11
889
21
-1611.5
31
0
73
0
0
TEXT
8
GLASS_TEXT
10
889
20
-1633.5
30
0
40
15
1
W789 x H1293 RISE 394.5 SPRINGING 898.5 R 394.5
72
0
11
889
21
-1633.5
31
0
73
0
0
TEXT
8
GLASS_TEXT
10
889
20
-1655.5
30
0
40
15
1
DOUBLE 4X16X4 TOUGHENED ARGON CLEAR SPACER SILVER
72
0
11
889
21
-1655.5
31
0
73
0
0
TEXT
8
GLASS_TEXT
10
889
20
-1677.5
30
0
40
15
1
BARS 7 PATTERN HUB-SPOKE TOTAL L=3273
72
0
11
889
21
-1677.5
31
0
73
0
0
TEXT
8
GLASS_TEXT
10
889
20
-1699.5
30
0
40
15
1
R1 RING C=(394.5,898.5) R=118.4 0-180DEG L=372
72
0
11
889
21
-1699.5
31
0
73
0
0
TEXT
8
GLASS_TEXT
10
889
20
-1721.5
30
0
40
15
1
S1 SPRINGING Y=898.5 X=512.9-789 L=276
72
0
11
889
21
-1721.5
31
0
73
0
0
TEXT
8
GLASS_TEXT
10
889
20
-1743.5
30
0
40
15
1
K1 SPOKE (453.7,1001)-(591.8,1240.1) L=276
72
0
11
889
21
-1743.5
31
0
73
0
0
TEXT
8
GLASS_TEXT
10
889
20
-1765.5
30
0
40
15
1
K2 SPOKE (335.3,1001)-(197.3,1240.1) L=276
72
0
11
889
21
-1765.5
31
0
73
0
0
TEXT
8
GLASS_TEXT
10
889
20
-1787.5
30
0
40
15
1
S2 SPRINGING Y=898.5 X=0-276.2 L=276
72
0
11
889
21
-1787.5
31
0
73
0
0
TEXT
8
GLASS_TEXT
10
889
20
-1809.5
30
0
40
15
1
V1 V X=276.2 Y=0-898.5 L=898.5
72
0
11
889
21
-1809.5
31
0
73
0
0
TEXT
8
GLASS_TEXT
10
889
20
-1831.5
30
0
40
15
1
V2 V X=512.9 Y=0-898.5 L=898.5
72
0
11
889
21
-1831.5
31
0
73
0
0
TEXT
8
GLASS_TEXT
10
889
20
-1853.5
30
0
40
15
1
BAR ENDS (TABLE, 7 BARS): ID  S FROM APEX / POSITION  L  ANGLE / R
72
0
11
889
21
-1853.5
31
0
73
0
0
TEXT
8
GLASS_TEXT
10
889
20
-1875.5
30
0
40
15
1
R1  R 118.4  L=372  C 394.5 / 898.5
72
0
11
889
21
-1875.5
31
0
73
0
0
TEXT
8
GLASS_TEXT
10
889
20
-1897.5
30
0
40
15
1
S1  Y 898.5  L=276  0DEG
72
0
11
889
21
-1897.5
31
0
73
0
0
TEXT
8
GLASS_TEXT
10
889
20
-1919.5
30
0
40
15
1
K1  206.6 FROM APEX R  L=276  60DEG
72
0
11
889
21
-1919.5
31
0
73
0
0
TEXT
8
GLASS_TEXT
10
889
20
-1941.5
30
0
40
15
1
K2  206.6 FROM APEX L  L=276  120DEG
72
0
11
889
21
-1941.5
31
0
73
0
0
TEXT
8
GLASS_TEXT
10
889
20
-1963.5
30
0
40
15
1
S2  Y 898.5  L=276  0DEG
72
0
11
889
21
-1963.5
31
0
73
0
0
TEXT
8
GLASS_TEXT
10
889
20
-1985.5
30
0
40
15
1
V1  X 276.2  L=898.5  90DEG
72
0
11
889
21
-1985.5
31
0
73
0
0
TEXT
8
GLASS_TEXT
10
889
20
-2007.5
30
0
40
15
1
V2  X 512.9  L=898.5  90DEG
72
0
11
889
21
-2007.5
31
0
73
0
0
POLYLINE
8
GLASS_CONTOUR
66
1
70
1
10
0
20
0
30
0
0
VERTEX
8
GLASS_CONTOUR
10
0
20
-4760.182254
30
0
0
VERTEX
8
GLASS_CONTOUR
10
789
20
-4760.182254
30
0
0
VERTEX
8
GLASS_CONTOUR
10
789
20
-3927.707658
30
0
42
0.249399
0
VERTEX
8
GLASS_CONTOUR
10
394.5
20
-3186
30
0
42
0.249399
0
VERTEX
8
GLASS_CONTOUR
10
0
20
-3927.707658
30
0
0
SEQEND
8
GLASS_CONTOUR
0
POLYLINE
8
GLASS_EDGE
66
1
70
1
10
0
20
0
30
0
0
VERTEX
8
GLASS_EDGE
10
11
20
-4749.182254
30
0
0
VERTEX
8
GLASS_EDGE
10
778
20
-4749.182254
30
0
0
VERTEX
8
GLASS_EDGE
10
778
20
-3927.707658
30
0
42
0.247165
0
VERTEX
8
GLASS_EDGE
10
394.5
20
-3199.303752
30
0
42
0.247165
0
VERTEX
8
GLASS_EDGE
10
11
20
-3927.707658
30
0
0
SEQEND
8
GLASS_EDGE
0
POLYLINE
8
GLASS_BAR_AXES
66
1
70
0
10
0
20
0
30
0
0
VERTEX
8
GLASS_BAR_AXES
10
0
20
-4343.944956
30
0
0
VERTEX
8
GLASS_BAR_AXES
10
789
20
-4343.944956
30
0
0
SEQEND
8
GLASS_BAR_AXES
0
POLYLINE
8
GLASS_BARS
66
1
70
0
10
0
20
0
30
0
0
VERTEX
8
GLASS_BARS
10
0
20
-4334.944956
30
0
0
VERTEX
8
GLASS_BARS
10
789
20
-4334.944956
30
0
0
SEQEND
8
GLASS_BARS
0
POLYLINE
8
GLASS_BARS
66
1
70
0
10
0
20
0
30
0
0
VERTEX
8
GLASS_BARS
10
0
20
-4352.944956
30
0
0
VERTEX
8
GLASS_BARS
10
789
20
-4352.944956
30
0
0
SEQEND
8
GLASS_BARS
0
POLYLINE
8
GLASS_BAR_AXES
66
1
70
0
10
0
20
0
30
0
0
VERTEX
8
GLASS_BAR_AXES
10
0
20
-3927.707658
30
0
0
VERTEX
8
GLASS_BAR_AXES
10
789
20
-3927.707658
30
0
0
SEQEND
8
GLASS_BAR_AXES
0
POLYLINE
8
GLASS_BARS
66
1
70
0
10
0
20
0
30
0
0
VERTEX
8
GLASS_BARS
10
0
20
-3918.707658
30
0
0
VERTEX
8
GLASS_BARS
10
789
20
-3918.707658
30
0
0
SEQEND
8
GLASS_BARS
0
POLYLINE
8
GLASS_BARS
66
1
70
0
10
0
20
0
30
0
0
VERTEX
8
GLASS_BARS
10
0
20
-3936.707658
30
0
0
VERTEX
8
GLASS_BARS
10
789
20
-3936.707658
30
0
0
SEQEND
8
GLASS_BARS
0
POLYLINE
8
GLASS_BAR_AXES
66
1
70
0
10
0
20
0
30
0
0
VERTEX
8
GLASS_BAR_AXES
10
157.8
20
-4760.182254
30
0
0
VERTEX
8
GLASS_BAR_AXES
10
157.8
20
-3927.707658
30
0
0
SEQEND
8
GLASS_BAR_AXES
0
POLYLINE
8
GLASS_BARS
66
1
70
0
10
0
20
0
30
0
0
VERTEX
8
GLASS_BARS
10
148.8
20
-4760.182254
30
0
0
VERTEX
8
GLASS_BARS
10
148.8
20
-3927.707658
30
0
0
SEQEND
8
GLASS_BARS
0
POLYLINE
8
GLASS_BARS
66
1
70
0
10
0
20
0
30
0
0
VERTEX
8
GLASS_BARS
10
166.8
20
-4760.182254
30
0
0
VERTEX
8
GLASS_BARS
10
166.8
20
-3927.707658
30
0
0
SEQEND
8
GLASS_BARS
0
POLYLINE
8
GLASS_BAR_AXES
66
1
70
0
10
0
20
0
30
0
0
VERTEX
8
GLASS_BAR_AXES
10
157.8
20
-3927.707658
30
0
42
0.106187
0
VERTEX
8
GLASS_BAR_AXES
10
78.9
20
-3560.3837
30
0
0
SEQEND
8
GLASS_BAR_AXES
0
POLYLINE
8
GLASS_BARS
66
1
70
0
10
0
20
0
30
0
0
VERTEX
8
GLASS_BARS
10
166.8
20
-3927.707658
30
0
42
0.106187
0
VERTEX
8
GLASS_BARS
10
87.106149
20
-3556.687875
30
0
0
SEQEND
8
GLASS_BARS
0
POLYLINE
8
GLASS_BARS
66
1
70
0
10
0
20
0
30
0
0
VERTEX
8
GLASS_BARS
10
148.8
20
-3927.707658
30
0
42
0.106187
0
VERTEX
8
GLASS_BARS
10
70.693851
20
-3564.079525
30
0
0
SEQEND
8
GLASS_BARS
0
POLYLINE
8
GLASS_BAR_AXES
66
1
70
0
10
0
20
0
30
0
0
VERTEX
8
GLASS_BAR_AXES
10
473.4
20
-3245.794878
30
0
42
0.220189
0
VERTEX
8
GLASS_BAR_AXES
10
157.8
20
-3927.707658
30
0
0
SEQEND
8
GLASS_BAR_AXES
0
POLYLINE
8
GLASS_BARS
66
1
70
0
10
0
20
0
30
0
0
VERTEX
8
GLASS_BARS
10
467.575405
20
-3238.933821
30
0
42
0.220189
0
VERTEX
8
GLASS_BARS
10
148.8
20
-3927.707658
30
0
0
SEQEND
8
GLASS_BARS
0
POLYLINE
8
GLASS_BARS
66
1
70
0
10
0
20
0
30
0
0
VERTEX
8
GLASS_BARS
10
479.224595
20
-3252.655934
30
0
42
0.220189
0
VERTEX
8
GLASS_BARS
10
166.8
20
-3927.707658
30
0
0
SEQEND
8
GLASS_BARS
0
POLYLINE
8
GLASS_BAR_AXES
66
1
70
0
10
0
20
0
30
0
0
VERTEX
8
GLASS_BAR_AXES
10
315.6
20
-4760.182254
30
0
0
VERTEX
8
GLASS_BAR_AXES
10
315.6
20
-3927.707658
30
0
0
SEQEND
8
GLASS_BAR_AXES
0
POLYLINE
8
GLASS_BARS
66
1
70
0
10
0
20
0
30
0
0
VERTEX
8
GLASS_BARS
10
306.6
20
-4760.182254
30
0
0
VERTEX
8
GLASS_BARS
10
306.6
20
-3927.707658
30
0
0
SEQEND
8
GLASS_BARS
0
POLYLINE
8
GLASS_BARS
66
1
70
0
10
0
20
0
30
0
0
VERTEX
8
GLASS_BARS
10
324.6
20
-4760.182254
30
0
0
VERTEX
8
GLASS_BARS
10
324.6
20
-3927.707658
30
0
0
SEQEND
8
GLASS_BARS
0
POLYLINE
8
GLASS_BAR_AXES
66
1
70
0
10
0
20
0
30
0
0
VERTEX
8
GLASS_BAR_AXES
10
315.6
20
-3927.707658
30
0
42
0.151925
0
VERTEX
8
GLASS_BAR_AXES
10
157.8
20
-3420.358311
30
0
0
SEQEND
8
GLASS_BAR_AXES
0
POLYLINE
8
GLASS_BARS
66
1
70
0
10
0
20
0
30
0
0
VERTEX
8
GLASS_BARS
10
324.6
20
-3927.707658
30
0
42
0.151925
0
VERTEX
8
GLASS_BARS
10
165.212297
20
-3415.253622
30
0
0
SEQEND
8
GLASS_BARS
0
POLYLINE
8
GLASS_BARS
66
1
70
0
10
0
20
0
30
0
0
VERTEX
8
GLASS_BARS
10
306.6
20
-3927.707658
30
0
42
0.151925
0
VERTEX
8
GLASS_BARS
10
150.387703
20
-3425.463
30
0
0
SEQEND
8
GLASS_BARS
0
POLYLINE
8
GLASS_BAR_AXES
66
1
70
0
10
0
20
0
30
0
0
VERTEX
8
GLASS_BAR_AXES
10
552.3
20
-3321.5481
30
0
42
0.188321
0
VERTEX
8
GLASS_BAR_AXES
10
315.6
20
-3927.707658
30
0
0
SEQEND
8
GLASS_BAR_AXES
0
POLYLINE
8
GLASS_BARS
66
1
70
0
10
0
20
0
30
0
0
VERTEX
8
GLASS_BARS
10
545.681554
20
-3315.449233
30
0
42
0.188321
0
VERTEX
8
GLASS_BARS
10
306.6
20
-3927.707658
30
0
0
SEQEND
8
GLASS_BARS
0
POLYLINE
8
GLASS_BARS
66
1
70
0
10
0
20
0
30
0
0
VERTEX
8
GLASS_BARS
10
558.918446
20
-3327.646966
30
0
42
0.188321
0
VERTEX
8
GLASS_BARS
10
324.6
20
-3927.707658
30
0
0
SEQEND
8
GLASS_BARS
0
POLYLINE
8
GLASS_BAR_AXES
66
1
70
0
10
0
20
0
30
0
0
VERTEX
8
GLASS_BAR_AXES
10
473.4
20
-4760.182254
30
0
0
VERTEX
8
GLASS_BAR_AXES
10
473.4
20
-3927.707658
30
0
0
SEQEND
8
GLASS_BAR_AXES
0
POLYLINE
8
GLASS_BARS
66
1
70
0
10
0
20
0
30
0
0
VERTEX
8
GLASS_BARS
10
464.4
20
-4760.182254
30
0
0
VERTEX
8
GLASS_BARS
10
464.4
20
-3927.707658
30
0
0
SEQEND
8
GLASS_BARS
0
POLYLINE
8
GLASS_BARS
66
1
70
0
10
0
20
0
30
0
0
VERTEX
8
GLASS_BARS
10
482.4
20
-4760.182254
30
0
0
VERTEX
8
GLASS_BARS
10
482.4
20
-3927.707658
30
0
0
SEQEND
8
GLASS_BARS
0
POLYLINE
8
GLASS_BAR_AXES
66
1
70
0
10
0
20
0
30
0
0
VERTEX
8
GLASS_BAR_AXES
10
473.4
20
-3927.707658
30
0
42
0.188321
0
VERTEX
8
GLASS_BAR_AXES
10
236.7
20
-3321.5481
30
0
0
SEQEND
8
GLASS_BAR_AXES
0
POLYLINE
8
GLASS_BARS
66
1
70
0
10
0
20
0
30
0
0
VERTEX
8
GLASS_BARS
10
482.4
20
-3927.707658
30
0
42
0.188321
0
VERTEX
8
GLASS_BARS
10
243.318446
20
-3315.449233
30
0
0
SEQEND
8
GLASS_BARS
0
POLYLINE
8
GLASS_BARS
66
1
70
0
10
0
20
0
30
0
0
VERTEX
8
GLASS_BARS
10
464.4
20
-3927.707658
30
0
42
0.188321
0
VERTEX
8
GLASS_BARS
10
230.081554
20
-3327.646966
30
0
0
SEQEND
8
GLASS_BARS
0
POLYLINE
8
GLASS_BAR_AXES
66
1
70
0
10
0
20
0
30
0
0
VERTEX
8
GLASS_BAR_AXES
10
631.2
20
-3420.358311
30
0
42
0.151925
0
VERTEX
8
GLASS_BAR_AXES
10
473.4
20
-3927.707658
30
0
0
SEQEND
8
GLASS_BAR_AXES
0
POLYLINE
8
GLASS_BARS
66
1
70
0
10
0
20
0
30
0
0
VERTEX
8
GLASS_BARS
10
623.787703
20
-3415.253622
30
0
42
0.151925
0
VERTEX
8
GLASS_BARS
10
464.4
20
-3927.707658
30
0
0
SEQEND
8
GLASS_BARS
0
POLYLINE
8
GLASS_BARS
66
1
70
0
10
0
20
0
30
0
0
VERTEX
8
GLASS_BARS
10
638.612297
20
-3425.463
30
0
42
0.151925
0
VERTEX
8
GLASS_BARS
10
482.4
20
-3927.707658
30
0
0
SEQEND
8
GLASS_BARS
0
POLYLINE
8
GLASS_BAR_AXES
66
1
70
0
10
0
20
0
30
0
0
VERTEX
8
GLASS_BAR_AXES
10
631.2
20
-4760.182254
30
0
0
VERTEX
8
GLASS_BAR_AXES
10
631.2
20
-3927.707658
30
0
0
SEQEND
8
GLASS_BAR_AXES
0
POLYLINE
8
GLASS_BARS
66
1
70
0
10
0
20
0
30
0
0
VERTEX
8
GLASS_BARS
10
622.2
20
-4760.182254
30
0
0
VERTEX
8
GLASS_BARS
10
622.2
20
-3927.707658
30
0
0
SEQEND
8
GLASS_BARS
0
POLYLINE
8
GLASS_BARS
66
1
70
0
10
0
20
0
30
0
0
VERTEX
8
GLASS_BARS
10
640.2
20
-4760.182254
30
0
0
VERTEX
8
GLASS_BARS
10
640.2
20
-3927.707658
30
0
0
SEQEND
8
GLASS_BARS
0
POLYLINE
8
GLASS_BAR_AXES
66
1
70
0
10
0
20
0
30
0
0
VERTEX
8
GLASS_BAR_AXES
10
631.2
20
-3927.707658
30
0
42
0.220189
0
VERTEX
8
GLASS_BAR_AXES
10
315.6
20
-3245.794878
30
0
0
SEQEND
8
GLASS_BAR_AXES
0
POLYLINE
8
GLASS_BARS
66
1
70
0
10
0
20
0
30
0
0
VERTEX
8
GLASS_BARS
10
640.2
20
-3927.707658
30
0
42
0.220189
0
VERTEX
8
GLASS_BARS
10
321.424595
20
-3238.933821
30
0
0
SEQEND
8
GLASS_BARS
0
POLYLINE
8
GLASS_BARS
66
1
70
0
10
0
20
0
30
0
0
VERTEX
8
GLASS_BARS
10
622.2
20
-3927.707658
30
0
42
0.220189
0
VERTEX
8
GLASS_BARS
10
309.775405
20
-3252.655934
30
0
0
SEQEND
8
GLASS_BARS
0
POLYLINE
8
GLASS_BAR_AXES
66
1
70
0
10
0
20
0
30
0
0
VERTEX
8
GLASS_BAR_AXES
10
710.1
20
-3560.3837
30
0
42
0.106187
0
VERTEX
8
GLASS_BAR_AXES
10
631.2
20
-3927.707658
30
0
0
SEQEND
8
GLASS_BAR_AXES
0
POLYLINE
8
GLASS_BARS
66
1
70
0
10
0
20
0
30
0
0
VERTEX
8
GLASS_BARS
10
701.893851
20
-3556.687875
30
0
42
0.106187
0
VERTEX
8
GLASS_BARS
10
622.2
20
-3927.707658
30
0
0
SEQEND
8
GLASS_BARS
0
POLYLINE
8
GLASS_BARS
66
1
70
0
10
0
20
0
30
0
0
VERTEX
8
GLASS_BARS
10
718.306149
20
-3564.079525
30
0
42
0.106187
0
VERTEX
8
GLASS_BARS
10
640.2
20
-3927.707658
30
0
0
SEQEND
8
GLASS_BARS
0
TEXT
8
GLASS_TEXT
10
889
20
-3204.5
30
0
40
15
1
GO1 - G1 GLASS GOTHIC-EQUILATERAL
72
0
11
889
21
-3204.5
31
0
73
0
0
TEXT
8
GLASS_TEXT
10
889
20
-3226.5
30
0
40
15
1
W789 x H1574.2 RISE 741.7 SPRINGING 832.5 R 894.5/894.5
72
0
11
889
21
-3226.5
31
0
73
0
0
TEXT
8
GLASS_TEXT
10
889
20
-3248.5
30
0
40
15
1
DOUBLE 4X16X4 TOUGHENED ARGON CLEAR SPACER SILVER
72
0
11
889
21
-3248.5
31
0
73
0
0
TEXT
8
GLASS_TEXT
10
889
20
-3270.5
30
0
40
15
1
BARS 14 PATTERN INTERSECTING TOTAL L=9627
72
0
11
889
21
-3270.5
31
0
73
0
0
TEXT
8
GLASS_TEXT
10
889
20
-3292.5
30
0
40
15
1
H1 H Y=416.2 X=0-789 L=789
72
0
11
889
21
-3292.5
31
0
73
0
0
TEXT
8
GLASS_TEXT
10
889
20
-3314.5
30
0
40
15
1
S1 SPRINGING Y=832.5 X=0-789 L=789
72
0
11
889
21
-3314.5
31
0
73
0
0
TEXT
8
GLASS_TEXT
10
889
20
-3336.5
30
0
40
15
1
V1 V X=157.8 Y=0-832.5 L=832.5
72
0
11
889
21
-3336.5
31
0
73
0
0
TEXT
8
GLASS_TEXT
10
889
20
-3358.5
30
0
40
15
1
T1 TRACERY C=(-736.7,832.5) R=894.5 0-24.2DEG L=378.5
72
0
11
889
21
-3358.5
31
0
73
0
0
TEXT
8
GLASS_TEXT
10
889
20
-3380.5
30
0
40
15
1
T2 TRACERY C=(1052.3,832.5) R=894.5 130.3-180DEG L=775.5
72
0
11
889
21
-3380.5
31
0
73
0
0
TEXT
8
GLASS_TEXT
10
889
20
-3402.5
30
0
40
15
1
V2 V X=315.6 Y=0-832.5 L=832.5
72
0
11
889
21
-3402.5
31
0
73
0
0
TEXT
8
GLASS_TEXT
10
889
20
-3424.5
30
0
40
15
1
T3 TRACERY C=(-578.9,832.5) R=894.5 0-34.6DEG L=539.5
72
0
11
889
21
-3424.5
31
0
73
0
0
TEXT
8
GLASS_TEXT
10
889
20
-3446.5
30
0
40
15
1
T4 TRACERY C=(1210.1,832.5) R=894.5 137.3-180DEG L=666
72
0
11
889
21
-3446.5
31
0
73
0
0
TEXT
8
GLASS_TEXT
10
889
20
-3468.5
30
0
40
15
1
V3 V X=473.4 Y=0-832.5 L=832.5
72
0
11
889
21
-3468.5
31
0
73
0
0
TEXT
8
GLASS_TEXT
10
889
20
-3490.5
30
0
40
15
1
T5 TRACERY C=(-421.1,832.5) R=894.5 0-42.7DEG L=666
72
0
11
889
21
-3490.5
31
0
73
0
0
TEXT
8
GLASS_TEXT
10
889
20
-3512.5
30
0
40
15
1
T6 TRACERY C=(1367.9,832.5) R=894.5 145.4-180DEG L=539.5
72
0
11
889
21
-3512.5
31
0
73
0
0
TEXT
8
GLASS_TEXT
10
889
20
-3534.5
30
0
40
15
1
V4 V X=631.2 Y=0-832.5 L=832.5
72
0
11
889
21
-3534.5
31
0
73
0
0
TEXT
8
GLASS_TEXT
10
889
20
-3556.5
30
0
40
15
1
T7 TRACERY C=(-263.3,832.5) R=894.5 0-49.7DEG L=775.5
72
0
11
889
21
-3556.5
31
0
73
0
0
TEXT
8
GLASS_TEXT
10
889
20
-3578.5
30
0
40
15
1
T8 TRACERY C=(1525.7,832.5) R=894.5 155.8-180DEG L=378.5
72
0
11
889
21
-3578.5
31
0
73
0
0
TEXT
8
GLASS_TEXT
10
889
20
-3600.5
30
0
40
15
1
BAR ENDS (TABLE, 14 BARS): ID  S FROM APEX / POSITION  L  ANGLE / R
72
0
11
889
21
-3600.5
31
0
73
0
0
TEXT
8
GLASS_TEXT
10
889
20
-3622.5
30
0
40
15
1
H1  Y 416.2  L=789  0DEG
72
0
11
889
21
-3622.5
31
0
73
0
0
TEXT
8
GLASS_TEXT
10
889
20
-3644.5
30
0
40
15
1
S1  Y 832.5  L=789  0DEG
72
0
11
889
21
-3644.5
31
0
73
0
0
TEXT
8
GLASS_TEXT
10
889
20
-3666.5
30
0
40
15
1
V1  X 157.8  L=832.5  90DEG
72
0
11
889
21
-3666.5
31
0
73
0
0
TEXT
8
GLASS_TEXT
10
889
20
-3688.5
30
0
40
15
1
T1  496 FROM APEX L  L=378.5  R 894.5
72
0
11
889
21
-3688.5
31
0
73
0
0
TEXT
8
GLASS_TEXT
10
889
20
-3710.5
30
0
40
15
1
T2  99 FROM APEX R  L=775.5  R 894.5
72
0
11
889
21
-3710.5
31
0
73
0
0
TEXT
8
GLASS_TEXT
10
889
20
-3732.5
30
0
40
15
1
V2  X 315.6  L=832.5  90DEG
72
0
11
889
21
-3732.5
31
0
73
0
0
TEXT
8
GLASS_TEXT
10
889
20
-3754.5
30
0
40
15
1
T3  335 FROM APEX L  L=539.5  R 894.5
72
0
11
889
21
-3754.5
31
0
73
0
0
TEXT
8
GLASS_TEXT
10
889
20
-3776.5
30
0
40
15
1
T4  208.5 FROM APEX R  L=666  R 894.5
72
0
11
889
21
-3776.5
31
0
73
0
0
TEXT
8
GLASS_TEXT
10
889
20
-3798.5
30
0
40
15
1
V3  X 473.4  L=832.5  90DEG
72
0
11
889
21
-3798.5
31
0
73
0
0
TEXT
8
GLASS_TEXT
10
889
20
-3820.5
30
0
40
15
1
T5  208.5 FROM APEX L  L=666  R 894.5
72
0
11
889
21
-3820.5
31
0
73
0
0
TEXT
8
GLASS_TEXT
10
889
20
-3842.5
30
0
40
15
1
T6  335 FROM APEX R  L=539.5  R 894.5
72
0
11
889
21
-3842.5
31
0
73
0
0
TEXT
8
GLASS_TEXT
10
889
20
-3864.5
30
0
40
15
1
V4  X 631.2  L=832.5  90DEG
72
0
11
889
21
-3864.5
31
0
73
0
0
TEXT
8
GLASS_TEXT
10
889
20
-3886.5
30
0
40
15
1
T7  99 FROM APEX L  L=775.5  R 894.5
72
0
11
889
21
-3886.5
31
0
73
0
0
TEXT
8
GLASS_TEXT
10
889
20
-3908.5
30
0
40
15
1
T8  496 FROM APEX R  L=378.5  R 894.5
72
0
11
889
21
-3908.5
31
0
73
0
0
POLYLINE
8
GLASS_CONTOUR
66
1
70
1
10
0
20
0
30
0
0
VERTEX
8
GLASS_CONTOUR
10
0
20
-6353.182254
30
0
0
VERTEX
8
GLASS_CONTOUR
10
789
20
-6353.182254
30
0
0
VERTEX
8
GLASS_CONTOUR
10
789
20
-5060.182254
30
0
0
VERTEX
8
GLASS_CONTOUR
10
0
20
-5060.182254
30
0
0
SEQEND
8
GLASS_CONTOUR
0
POLYLINE
8
GLASS_EDGE
66
1
70
1
10
0
20
0
30
0
0
VERTEX
8
GLASS_EDGE
10
11
20
-6342.182254
30
0
0
VERTEX
8
GLASS_EDGE
10
778
20
-6342.182254
30
0
0
VERTEX
8
GLASS_EDGE
10
778
20
-5071.182254
30
0
0
VERTEX
8
GLASS_EDGE
10
11
20
-5071.182254
30
0
0
SEQEND
8
GLASS_EDGE
0
TEXT
8
GLASS_TEXT
10
889
20
-5078.682254
30
0
40
15
1
R - G1 GLASS RECTANGULAR
72
0
11
889
21
-5078.682254
31
0
73
0
0
TEXT
8
GLASS_TEXT
10
889
20
-5100.682254
30
0
40
15
1
W789 x H1293 040L P1 RIGHT
72
0
11
889
21
-5100.682254
31
0
73
0
0
TEXT
8
GLASS_TEXT
10
889
20
-5122.682254
30
0
40
15
1
DOUBLE 4X16X4 TOUGHENED ARGON CLEAR SPACER SILVER
72
0
11
889
21
-5122.682254
31
0
73
0
0
TEXT
8
GLASS_TEXT
10
889
20
-5144.682254
30
0
40
15
1
NO BARS
72
0
11
889
21
-5144.682254
31
0
73
0
0
ENDSEC
0
EOF
