0
SECTION
2
HEADER
9
$ACADVER
1
AC1009
0
ENDSEC
0
SECTION
2
TABLES
0
TABLE
2
LAYER
70
7
0
LAYER
2
0
70
0
62
7
6
CONTINUOUS
0
LAYER
2
FIT
70
0
62
4
6
CONTINUOUS
0
LAYER
2
CONTOUR
70
0
62
7
6
CONTINUOUS
0
LAYER
2
ASSEMBLY
70
0
62
8
6
CONTINUOUS
0
LAYER
2
PIECES
70
0
62
5
6
CONTINUOUS
0
LAYER
2
FINGER
70
0
62
1
6
CONTINUOUS
0
LAYER
2
TEXT
70
0
62
94
6
CONTINUOUS
0
ENDTAB
0
ENDSEC
0
SECTION
2
ENTITIES
0
POLYLINE
8
PIECES
66
1
70
1
10
0
20
0
30
0
0
VERTEX
8
PIECES
10
401.778697
20
0
30
0
0
VERTEX
8
PIECES
10
18.153198
20
0
30
0
0
VERTEX
8
PIECES
10
0
20
105
30
0
0
VERTEX
8
PIECES
10
419.931895
20
105
30
0
0
SEQEND
8
PIECES
0
TEXT
8
TEXT
10
209.965947
20
62.5
30
0
40
15
1
T - LEAF TOP P1 L419.9 x105
72
1
11
209.965947
21
62.5
31
0
73
2
0
TEXT
8
TEXT
10
209.965947
20
10
30
0
40
10
1
OUT 404.9 IN 368.6 CUT J9.8/S80.2 FINGER ONE END
72
1
11
209.965947
21
10
31
0
73
2
0
POLYLINE
8
PIECES
66
1
70
1
10
0
20
0
30
0
0
VERTEX
8
PIECES
10
1036.710592
20
0
30
0
0
VERTEX
8
PIECES
10
638.085093
20
0
30
0
0
VERTEX
8
PIECES
10
619.931895
20
105
30
0
0
VERTEX
8
PIECES
10
1054.863789
20
105
30
0
0
SEQEND
8
PIECES
0
TEXT
8
TEXT
10
837.397842
20
62.5
30
0
40
15
1
T - LEAF TOP P2 L434.9 x105
72
1
11
837.397842
21
62.5
31
0
73
2
0
TEXT
8
TEXT
10
837.397842
20
10
30
0
40
10
1
OUT 404.9 IN 368.6 CUT J9.8/J9.8 FINGER BOTH ENDS
72
1
11
837.397842
21
10
31
0
73
2
0
POLYLINE
8
PIECES
66
1
70
1
10
0
20
0
30
0
0
VERTEX
8
PIECES
10
1691.132801
20
0
30
0
0
VERTEX
8
PIECES
10
1345.997934
20
0
30
0
0
VERTEX
8
PIECES
10
1254.863789
20
105
30
0
0
VERTEX
8
PIECES
10
1709.285998
20
105
30
0
0
SEQEND
8
PIECES
0
TEXT
8
TEXT
10
1482.074894
20
62.5
30
0
40
15
1
T - LEAF TOP P3 L454.4 x105
72
1
11
1482.074894
21
62.5
31
0
73
2
0
TEXT
8
TEXT
10
1482.074894
20
10
30
0
40
10
1
OUT 424.4 IN 315.1 CUT A49/J9.8 FINGER BOTH ENDS
72
1
11
1482.074894
21
10
31
0
73
2
0
POLYLINE
8
PIECES
66
1
70
1
10
0
20
0
30
0
0
VERTEX
8
PIECES
10
2272.574063
20
0
30
0
0
VERTEX
8
PIECES
10
1927.439196
20
0
30
0
0
VERTEX
8
PIECES
10
1909.285998
20
105
30
0
0
VERTEX
8
PIECES
10
2363.708207
20
105
30
0
0
SEQEND
8
PIECES
0
TEXT
8
TEXT
10
2136.497103
20
62.5
30
0
40
15
1
T - LEAF TOP P4 L454.4 x105
72
1
11
2136.497103
21
62.5
31
0
73
2
0
TEXT
8
TEXT
10
2136.497103
20
10
30
0
40
10
1
OUT 424.4 IN 315.1 CUT J9.8/A49 FINGER BOTH ENDS
72
1
11
2136.497103
21
10
31
0
73
2
0
POLYLINE
8
PIECES
66
1
70
1
10
0
20
0
30
0
0
VERTEX
8
PIECES
10
2980.486904
20
0
30
0
0
VERTEX
8
PIECES
10
2581.861405
20
0
30
0
0
VERTEX
8
PIECES
10
2563.708207
20
105
30
0
0
VERTEX
8
PIECES
10
2998.640102
20
105
30
0
0
SEQEND
8
PIECES
0
TEXT
8
TEXT
10
2781.174155
20
62.5
30
0
40
15
1
T - LEAF TOP P5 L434.9 x105
72
1
11
2781.174155
21
62.5
31
0
73
2
0
TEXT
8
TEXT
10
2781.174155
20
10
30
0
40
10
1
OUT 404.9 IN 368.6 CUT J9.8/J9.8 FINGER BOTH ENDS
72
1
11
2781.174155
21
10
31
0
73
2
0
POLYLINE
8
PIECES
66
1
70
1
10
0
20
0
30
0
0
VERTEX
8
PIECES
10
3600.418799
20
0
30
0
0
VERTEX
8
PIECES
10
3216.7933
20
0
30
0
0
VERTEX
8
PIECES
10
3198.640102
20
105
30
0
0
VERTEX
8
PIECES
10
3618.571997
20
105
30
0
0
SEQEND
8
PIECES
0
TEXT
8
TEXT
10
3408.60605
20
62.5
30
0
40
15
1
T - LEAF TOP P6 L419.9 x105
72
1
11
3408.60605
21
62.5
31
0
73
2
0
TEXT
8
TEXT
10
3408.60605
20
10
30
0
40
10
1
OUT 404.9 IN 368.6 CUT S80.2/J9.8 FINGER ONE END
72
1
11
3408.60605
21
10
31
0
73
2
0
POLYLINE
8
CONTOUR
66
1
70
1
10
0
20
0
30
0
0
VERTEX
8
CONTOUR
10
1148.457327
20
305
30
0
42
0.26259
0
VERTEX
8
CONTOUR
10
588.457327
20
1297.773892
30
0
42
0.26259
0
VERTEX
8
CONTOUR
10
28.457327
20
305
30
0
0
VERTEX
8
CONTOUR
10
95.457327
20
305
30
0
42
-0.252599
0
VERTEX
8
CONTOUR
10
588.457327
20
1218.591265
30
0
42
-0.252599
0
VERTEX
8
CONTOUR
10
1081.457327
20
305
30
0
0
SEQEND
8
CONTOUR
0
POLYLINE
8
ASSEMBLY
66
1
70
1
10
0
20
0
30
0
0
VERTEX
8
ASSEMBLY
10
1070.356976
20
305
30
0
0
VERTEX
8
ASSEMBLY
10
1007.557825
20
668.236872
30
0
0
VERTEX
8
ASSEMBLY
10
1107.930334
20
704.012535
30
0
0
VERTEX
8
ASSEMBLY
10
1176.914653
20
305
30
0
0
SEQEND
8
ASSEMBLY
0
POLYLINE
8
FINGER
66
1
70
0
10
0
20
0
30
0
0
VERTEX
8
FINGER
10
1018.013853
20
671.963702
30
0
0
VERTEX
8
FINGER
10
1081.12482
20
694.458275
30
0
0
SEQEND
8
FINGER
0
POLYLINE
8
ASSEMBLY
66
1
70
1
10
0
20
0
30
0
0
VERTEX
8
ASSEMBLY
10
1007.557825
20
668.236872
30
0
0
VERTEX
8
ASSEMBLY
10
826.450759
20
989.305383
30
0
0
VERTEX
8
ASSEMBLY
10
908.985802
20
1056.703494
30
0
0
VERTEX
8
ASSEMBLY
10
1107.930334
20
704.012535
30
0
0
SEQEND
8
ASSEMBLY
0
POLYLINE
8
FINGER
66
1
70
0
10
0
20
0
30
0
0
VERTEX
8
FINGER
10
835.048619
20
996.326395
30
0
0
VERTEX
8
FINGER
10
886.943968
20
1038.704134
30
0
0
SEQEND
8
FINGER
0
POLYLINE
8
ASSEMBLY
66
1
70
1
10
0
20
0
30
0
0
VERTEX
8
ASSEMBLY
10
826.450759
20
989.305383
30
0
0
VERTEX
8
ASSEMBLY
10
588.457327
20
1195.87041
30
0
0
VERTEX
8
ASSEMBLY
10
588.457327
20
1334.904335
30
0
0
VERTEX
8
ASSEMBLY
10
908.985802
20
1056.703494
30
0
0
SEQEND
8
ASSEMBLY
0
POLYLINE
8
FINGER
66
1
70
0
10
0
20
0
30
0
0
VERTEX
8
FINGER
10
588.457327
20
1218.591265
30
0
0
VERTEX
8
FINGER
10
588.457327
20
1297.773892
30
0
0
SEQEND
8
FINGER
0
POLYLINE
8
ASSEMBLY
66
1
70
1
10
0
20
0
30
0
0
VERTEX
8
ASSEMBLY
10
588.457327
20
1195.87041
30
0
0
VERTEX
8
ASSEMBLY
10
350.463894
20
989.305383
30
0
0
VERTEX
8
ASSEMBLY
10
267.928851
20
1056.703494
30
0
0
VERTEX
8
ASSEMBLY
10
588.457327
20
1334.904335
30
0
0
SEQEND
8
ASSEMBLY
0
POLYLINE
8
FINGER
66
1
70
0
10
0
20
0
30
0
0
VERTEX
8
FINGER
10
588.457327
20
1218.591265
30
0
0
VERTEX
8
FINGER
10
588.457327
20
1297.773892
30
0
0
SEQEND
8
FINGER
0
POLYLINE
8
FINGER
66
1
70
0
10
0
20
0
30
0
0
VERTEX
8
FINGER
10
341.866034
20
996.326395
30
0
0
VERTEX
8
FINGER
10
289.970685
20
1038.704134
30
0
0
SEQEND
8
FINGER
0
POLYLINE
8
ASSEMBLY
66
1
70
1
10
0
20
0
30
0
0
VERTEX
8
ASSEMBLY
10
350.463894
20
989.305383
30
0
0
VERTEX
8
ASSEMBLY
10
169.356828
20
668.236872
30
0
0
VERTEX
8
ASSEMBLY
10
68.984319
20
704.012535
30
0
0
VERTEX
8
ASSEMBLY
10
267.928851
20
1056.703494
30
0
0
SEQEND
8
ASSEMBLY
0
POLYLINE
8
FINGER
66
1
70
0
10
0
20
0
30
0
0
VERTEX
8
FINGER
10
158.9008
20
671.963702
30
0
0
VERTEX
8
FINGER
10
95.789833
20
694.458275
30
0
0
SEQEND
8
FINGER
0
POLYLINE
8
ASSEMBLY
66
1
70
1
10
0
20
0
30
0
0
VERTEX
8
ASSEMBLY
10
169.356828
20
668.236872
30
0
0
VERTEX
8
ASSEMBLY
10
106.557677
20
305
30
0
0
VERTEX
8
ASSEMBLY
10
0
20
305
30
0
0
VERTEX
8
ASSEMBLY
10
68.984319
20
704.012535
30
0
0
SEQEND
8
ASSEMBLY
0
TEXT
8
TEXT
10
1276.914653
20
1316.404335
30
0
40
15
1
T - LEAF TOP
72
0
11
1276.914653
21
1316.404335
31
0
73
0
0
TEXT
8
TEXT
10
1276.914653
20
1294.404335
30
0
40
15
1
GOTHIC EQUILATERAL W1200 RISE1039.2 H2000 HINGE R
72
0
11
1276.914653
21
1294.404335
31
0
73
0
0
TEXT
8
TEXT
10
1276.914653
20
1272.404335
30
0
40
15
1
FACE 67 OFFSET 40 OUTER L2383 INNER L2163.5
72
0
11
1276.914653
21
1272.404335
31
0
73
0
0
TEXT
8
TEXT
10
1276.914653
20
1250.404335
30
0
40
15
1
ARC 1 R1160 L1191.5 58.9DEG: 3 x board 105 L424.4 ROUGH 454.4 (ALT 2 x board 180)
72
0
11
1276.914653
21
1250.404335
31
0
73
0
0
TEXT
8
TEXT
10
1276.914653
20
1228.404335
30
0
40
15
1
ARC 2 R1160 L1191.5 58.9DEG: 3 x board 105 L424.4 ROUGH 454.4 (ALT 2 x board 180)
72
0
11
1276.914653
21
1228.404335
31
0
73
0
0
TEXT
8
TEXT
10
1276.914653
20
1206.404335
30
0
40
15
1
FINGER 15/16/3.8
72
0
11
1276.914653
21
1206.404335
31
0
73
0
0
TEXT
8
TEXT
10
1276.914653
20
1184.404335
30
0
40
15
1
ALLOWANCE 10 PER SIDE  MAX SEGMENT 36 DEG  RULE NARROWEST
72
0
11
1276.914653
21
1184.404335
31
0
73
0
0
TEXT
8
TEXT
10
1276.914653
20
1162.404335
30
0
40
15
1
CUT CODES: J = JOINT FROM SQUARE  S = ARCH-START, AXIS TO HORIZONTAL  A = APEX FROM SQUARE
72
0
11
1276.914653
21
1162.404335
31
0
73
0
0
POLYLINE
8
PIECES
66
1
70
1
10
0
20
0
30
0
0
VERTEX
8
PIECES
10
425.099032
20
1534.904335
30
0
0
VERTEX
8
PIECES
10
16.751063
20
1534.904335
30
0
0
VERTEX
8
PIECES
10
0
20
1629.904335
30
0
0
VERTEX
8
PIECES
10
441.850095
20
1629.904335
30
0
0
SEQEND
8
PIECES
0
TEXT
8
TEXT
10
220.925048
20
1592.404335
30
0
40
15
1
T - FRAME HEAD P1 L441.9 x95
72
1
11
220.925048
21
1592.404335
31
0
73
2
0
TEXT
8
TEXT
10
220.925048
20
1544.904335
30
0
40
10
1
OUT 426.9 IN 393.3 CUT J10/S80 FINGER ONE END
72
1
11
220.925048
21
1544.904335
31
0
73
2
0
POLYLINE
8
PIECES
66
1
70
1
10
0
20
0
30
0
0
VERTEX
8
PIECES
10
1081.949127
20
1534.904335
30
0
0
VERTEX
8
PIECES
10
658.601158
20
1534.904335
30
0
0
VERTEX
8
PIECES
10
641.850095
20
1629.904335
30
0
0
VERTEX
8
PIECES
10
1098.70019
20
1629.904335
30
0
0
SEQEND
8
PIECES
0
TEXT
8
TEXT
10
870.275143
20
1592.404335
30
0
40
15
1
T - FRAME HEAD P2 L456.9 x95
72
1
11
870.275143
21
1592.404335
31
0
73
2
0
TEXT
8
TEXT
10
870.275143
20
1544.904335
30
0
40
10
1
OUT 426.9 IN 393.3 CUT J10/J10 FINGER BOTH ENDS
72
1
11
870.275143
21
1544.904335
31
0
73
2
0
POLYLINE
8
PIECES
66
1
70
1
10
0
20
0
30
0
0
VERTEX
8
PIECES
10
1757.770618
20
1534.904335
30
0
0
VERTEX
8
PIECES
10
1378.414655
20
1534.904335
30
0
0
VERTEX
8
PIECES
10
1298.70019
20
1629.904335
30
0
0
VERTEX
8
PIECES
10
1774.521681
20
1629.904335
30
0
0
SEQEND
8
PIECES
0
TEXT
8
TEXT
10
1536.610936
20
1592.404335
30
0
40
15
1
T - FRAME HEAD P3 L475.8 x95
72
1
11
1536.610936
21
1592.404335
31
0
73
2
0
TEXT
8
TEXT
10
1536.610936
20
1544.904335
30
0
40
10
1
OUT 445.8 IN 349.4 CUT A50/J10 FINGER BOTH ENDS
72
1
11
1536.610936
21
1544.904335
31
0
73
2
0
POLYLINE
8
PIECES
66
1
70
1
10
0
20
0
30
0
0
VERTEX
8
PIECES
10
2370.628707
20
1534.904335
30
0
0
VERTEX
8
PIECES
10
1991.272744
20
1534.904335
30
0
0
VERTEX
8
PIECES
10
1974.521681
20
1629.904335
30
0
0
VERTEX
8
PIECES
10
2450.343172
20
1629.904335
30
0
0
SEQEND
8
PIECES
0
TEXT
8
TEXT
10
2212.432426
20
1592.404335
30
0
40
15
1
T - FRAME HEAD P4 L475.8 x95
72
1
11
2212.432426
21
1592.404335
31
0
73
2
0
TEXT
8
TEXT
10
2212.432426
20
1544.904335
30
0
40
10
1
OUT 445.8 IN 349.4 CUT J10/A50 FINGER BOTH ENDS
72
1
11
2212.432426
21
1544.904335
31
0
73
2
0
POLYLINE
8
PIECES
66
1
70
1
10
0
20
0
30
0
0
VERTEX
8
PIECES
10
3090.442204
20
1534.904335
30
0
0
VERTEX
8
PIECES
10
2667.094235
20
1534.904335
30
0
0
VERTEX
8
PIECES
10
2650.343172
20
1629.904335
30
0
0
VERTEX
8
PIECES
10
3107.193267
20
1629.904335
30
0
0
SEQEND
8
PIECES
0
TEXT
8
TEXT
10
2878.768219
20
1592.404335
30
0
40
15
1
T - FRAME HEAD P5 L456.9 x95
72
1
11
2878.768219
21
1592.404335
31
0
73
2
0
TEXT
8
TEXT
10
2878.768219
20
1544.904335
30
0
40
10
1
OUT 426.9 IN 393.3 CUT J10/J10 FINGER BOTH ENDS
72
1
11
2878.768219
21
1544.904335
31
0
73
2
0
POLYLINE
8
PIECES
66
1
70
1
10
0
20
0
30
0
0
VERTEX
8
PIECES
10
3732.292299
20
1534.904335
30
0
0
VERTEX
8
PIECES
10
3323.94433
20
1534.904335
30
0
0
VERTEX
8
PIECES
10
3307.193267
20
1629.904335
30
0
0
VERTEX
8
PIECES
10
3749.043362
20
1629.904335
30
0
0
SEQEND
8
PIECES
0
TEXT
8
TEXT
10
3528.118314
20
1592.404335
30
0
40
15
1
T - FRAME HEAD P6 L441.9 x95
72
1
11
3528.118314
21
1592.404335
31
0
73
2
0
TEXT
8
TEXT
10
3528.118314
20
1544.904335
30
0
40
10
1
OUT 426.9 IN 393.3 CUT S80/J10 FINGER ONE END
72
1
11
3528.118314
21
1544.904335
31
0
73
2
0
POLYLINE
8
CONTOUR
66
1
70
1
10
0
20
0
30
0
0
VERTEX
8
CONTOUR
10
1229.065864
20
1829.904335
30
0
42
0.267949
0
VERTEX
8
CONTOUR
10
629.065864
20
2869.13482
30
0
42
0.267949
0
VERTEX
8
CONTOUR
10
29.065864
20
1829.904335
30
0
0
VERTEX
8
CONTOUR
10
86.065864
20
1829.904335
30
0
42
-0.260183
0
VERTEX
8
CONTOUR
10
629.065864
20
2802.76044
30
0
42
-0.260183
0
VERTEX
8
CONTOUR
10
1172.065864
20
1829.904335
30
0
0
SEQEND
8
CONTOUR
0
POLYLINE
8
ASSEMBLY
66
1
70
1
10
0
20
0
30
0
0
VERTEX
8
ASSEMBLY
10
1161.6662
20
1829.904335
30
0
0
VERTEX
8
ASSEMBLY
10
1093.362042
20
2217.276464
30
0
0
VERTEX
8
ASSEMBLY
10
1184.009987
20
2250.269618
30
0
0
VERTEX
8
ASSEMBLY
10
1258.131729
20
1829.904335
30
0
0
SEQEND
8
ASSEMBLY
0
POLYLINE
8
FINGER
66
1
70
0
10
0
20
0
30
0
0
VERTEX
8
FINGER
10
1103.13453
20
2220.833359
30
0
0
VERTEX
8
FINGER
10
1156.697009
20
2240.328507
30
0
0
SEQEND
8
FINGER
0
POLYLINE
8
ASSEMBLY
66
1
70
1
10
0
20
0
30
0
0
VERTEX
8
ASSEMBLY
10
1093.362042
20
2217.276464
30
0
0
VERTEX
8
ASSEMBLY
10
896.688058
20
2557.925798
30
0
0
VERTEX
8
ASSEMBLY
10
970.58494
20
2619.932644
30
0
0
VERTEX
8
ASSEMBLY
10
1184.009987
20
2250.269618
30
0
0
SEQEND
8
ASSEMBLY
0
POLYLINE
8
FINGER
66
1
70
0
10
0
20
0
30
0
0
VERTEX
8
FINGER
10
904.654663
20
2564.610573
30
0
0
VERTEX
8
FINGER
10
948.319196
20
2601.249467
30
0
0
SEQEND
8
FINGER
0
POLYLINE
8
ASSEMBLY
66
1
70
1
10
0
20
0
30
0
0
VERTEX
8
ASSEMBLY
10
896.688058
20
2557.925798
30
0
0
VERTEX
8
ASSEMBLY
10
629.065864
20
2782.487482
30
0
0
VERTEX
8
ASSEMBLY
10
629.065864
20
2906.501174
30
0
0
VERTEX
8
ASSEMBLY
10
970.58494
20
2619.932644
30
0
0
SEQEND
8
ASSEMBLY
0
POLYLINE
8
FINGER
66
1
70
0
10
0
20
0
30
0
0
VERTEX
8
FINGER
10
629.065864
20
2802.76044
30
0
0
VERTEX
8
FINGER
10
629.065864
20
2869.13482
30
0
0
SEQEND
8
FINGER
0
POLYLINE
8
ASSEMBLY
66
1
70
1
10
0
20
0
30
0
0
VERTEX
8
ASSEMBLY
10
629.065864
20
2782.487482
30
0
0
VERTEX
8
ASSEMBLY
10
361.44367
20
2557.925798
30
0
0
VERTEX
8
ASSEMBLY
10
287.546789
20
2619.932644
30
0
0
VERTEX
8
ASSEMBLY
10
629.065864
20
2906.501174
30
0
0
SEQEND
8
ASSEMBLY
0
POLYLINE
8
FINGER
66
1
70
0
10
0
20
0
30
0
0
VERTEX
8
FINGER
10
353.477066
20
2564.610573
30
0
0
VERTEX
8
FINGER
10
309.812533
20
2601.249467
30
0
0
SEQEND
8
FINGER
0
POLYLINE
8
ASSEMBLY
66
1
70
1
10
0
20
0
30
0
0
VERTEX
8
ASSEMBLY
10
361.44367
20
2557.925798
30
0
0
VERTEX
8
ASSEMBLY
10
164.769686
20
2217.276464
30
0
0
VERTEX
8
ASSEMBLY
10
74.121741
20
2250.269618
30
0
0
VERTEX
8
ASSEMBLY
10
287.546789
20
2619.932644
30
0
0
SEQEND
8
ASSEMBLY
0
POLYLINE
8
FINGER
66
1
70
0
10
0
20
0
30
0
0
VERTEX
8
FINGER
10
154.997199
20
2220.833359
30
0
0
VERTEX
8
FINGER
10
101.434719
20
2240.328507
30
0
0
SEQEND
8
FINGER
0
POLYLINE
8
ASSEMBLY
66
1
70
1
10
0
20
0
30
0
0
VERTEX
8
ASSEMBLY
10
164.769686
20
2217.276464
30
0
0
VERTEX
8
ASSEMBLY
10
96.465528
20
1829.904335
30
0
0
VERTEX
8
ASSEMBLY
10
0
20
1829.904335
30
0
0
VERTEX
8
ASSEMBLY
10
74.121741
20
2250.269618
30
0
0
SEQEND
8
ASSEMBLY
0
TEXT
8
TEXT
10
1358.131729
20
2888.001174
30
0
40
15
1
T - FRAME HEAD
72
0
11
1358.131729
21
2888.001174
31
0
73
0
0
TEXT
8
TEXT
10
1358.131729
20
2866.001174
30
0
40
15
1
GOTHIC EQUILATERAL W1200 RISE1039.2 H2000 HINGE R
72
0
11
1358.131729
21
2866.001174
31
0
73
0
0
TEXT
8
TEXT
10
1358.131729
20
2844.001174
30
0
40
15
1
FACE 57 OFFSET 0 OUTER L2513.3 INNER L2327.5
72
0
11
1358.131729
21
2844.001174
31
0
73
0
0
TEXT
8
TEXT
10
1358.131729
20
2822.001174
30
0
40
15
1
ARC 1 R1200 L1256.6 60DEG: 3 x board 95 L445.8 ROUGH 475.8 (ALT 2 x board 180)
72
0
11
1358.131729
21
2822.001174
31
0
73
0
0
TEXT
8
TEXT
10
1358.131729
20
2800.001174
30
0
40
15
1
ARC 2 R1200 L1256.6 60DEG: 3 x board 95 L445.8 ROUGH 475.8 (ALT 2 x board 180)
72
0
11
1358.131729
21
2800.001174
31
0
73
0
0
TEXT
8
TEXT
10
1358.131729
20
2778.001174
30
0
40
15
1
FINGER 15/16/3.8
72
0
11
1358.131729
21
2778.001174
31
0
73
0
0
TEXT
8
TEXT
10
1358.131729
20
2756.001174
30
0
40
15
1
ALLOWANCE 10 PER SIDE  MAX SEGMENT 36 DEG  RULE NARROWEST
72
0
11
1358.131729
21
2756.001174
31
0
73
0
0
TEXT
8
TEXT
10
1358.131729
20
2734.001174
30
0
40
15
1
CUT CODES: J = JOINT FROM SQUARE  S = ARCH-START, AXIS TO HORIZONTAL  A = APEX FROM SQUARE
72
0
11
1358.131729
21
2734.001174
31
0
73
0
0
POLYLINE
8
FIT
66
1
70
1
10
0
20
0
30
0
0
VERTEX
8
FIT
10
1200
20
3106.501174
30
0
42
0.267949
0
VERTEX
8
FIT
10
600
20
4145.731659
30
0
42
0.267949
0
VERTEX
8
FIT
10
0
20
3106.501174
30
0
0
VERTEX
8
FIT
10
57
20
3106.501174
30
0
42
-0.260183
0
VERTEX
8
FIT
10
600
20
4079.357279
30
0
42
-0.260183
0
VERTEX
8
FIT
10
1143
20
3106.501174
30
0
0
SEQEND
8
FIT
0
POLYLINE
8
FIT
66
1
70
1
10
0
20
0
30
0
0
VERTEX
8
FIT
10
1160
20
3106.501174
30
0
42
0.26259
0
VERTEX
8
FIT
10
600
20
4099.275066
30
0
42
0.26259
0
VERTEX
8
FIT
10
40
20
3106.501174
30
0
0
VERTEX
8
FIT
10
107
20
3106.501174
30
0
42
-0.252599
0
VERTEX
8
FIT
10
600
20
4020.09244
30
0
42
-0.252599
0
VERTEX
8
FIT
10
1093
20
3106.501174
30
0
0
SEQEND
8
FIT
0
POLYLINE
8
FIT
66
1
70
1
10
0
20
0
30
0
0
VERTEX
8
FIT
10
1105.5
20
3106.501174
30
0
42
0.25457
0
VERTEX
8
FIT
10
600
20
4035.010867
30
0
42
0.25457
0
VERTEX
8
FIT
10
94.5
20
3106.501174
30
0
0
SEQEND
8
FIT
0
POLYLINE
8
FIT
66
1
70
0
10
0
20
0
30
0
0
VERTEX
8
FIT
10
1164
20
3106.501174
30
0
42
0.004296
0
VERTEX
8
FIT
10
1163.828183
20
3126.50019
30
0
0
SEQEND
8
FIT
0
POLYLINE
8
FIT
66
1
70
0
10
0
20
0
30
0
0
VERTEX
8
FIT
10
1163.613423
20
3136.497853
30
0
42
0.004296
0
VERTEX
8
FIT
10
1162.926282
20
3156.485799
30
0
0
SEQEND
8
FIT
0
POLYLINE
8
FIT
66
1
70
0
10
0
20
0
30
0
0
VERTEX
8
FIT
10
1162.453951
20
3166.474608
30
0
42
0.004296
0
VERTEX
8
FIT
10
1161.251941
20
3186.438208
30
0
0
SEQEND
8
FIT
0
POLYLINE
8
FIT
66
1
70
0
10
0
20
0
30
0
0
VERTEX
8
FIT
10
1160.522352
20
3196.411526
30
0
42
0.004296
0
VERTEX
8
FIT
10
1158.806272
20
3216.33752
30
0
0
SEQEND
8
FIT
0
POLYLINE
8
FIT
66
1
70
0
10
0
20
0
30
0
0
VERTEX
8
FIT
10
1157.819909
20
3226.288725
30
0
42
0.004296
0
VERTEX
8
FIT
10
1155.590901
20
3246.163877
30
0
0
SEQEND
8
FIT
0
POLYLINE
8
FIT
66
1
70
0
10
0
20
0
30
0
0
VERTEX
8
FIT
10
1154.348419
20
3256.086358
30
0
42
0.004296
0
VERTEX
8
FIT
10
1151.607961
20
3275.897467
30
0
0
SEQEND
8
FIT
0
POLYLINE
8
FIT
66
1
70
0
10
0
20
0
30
0
0
VERTEX
8
FIT
10
1150.110187
20
3285.784633
30
0
42
0.004296
0
VERTEX
8
FIT
10
1146.8601
20
3305.518541
30
0
0
SEQEND
8
FIT
0
POLYLINE
8
FIT
66
1
70
0
10
0
20
0
30
0
0
VERTEX
8
FIT
10
1145.108027
20
3315.363825
30
0
42
0.004296
0
VERTEX
8
FIT
10
1141.35047
20
3335.007423
30
0
0
SEQEND
8
FIT
0
POLYLINE
8
FIT
66
1
70
0
10
0
20
0
30
0
0
VERTEX
8
FIT
10
1139.345262
20
3344.804286
30
0
42
0.004296
0
VERTEX
8
FIT
10
1135.082731
20
3364.344526
30
0
0
SEQEND
8
FIT
0
POLYLINE
8
FIT
66
1
70
0
10
0
20
0
30
0
0
VERTEX
8
FIT
10
1132.825721
20
3374.086461
30
0
42
0.004296
0
VERTEX
8
FIT
10
1128.061047
20
3393.510364
30
0
0
SEQEND
8
FIT
0
POLYLINE
8
FIT
66
1
70
0
10
0
20
0
30
0
0
VERTEX
8
FIT
10
1125.553733
20
3403.1909
30
0
42
0.004296
0
VERTEX
8
FIT
10
1120.290081
20
3422.485565
30
0
0
SEQEND
8
FIT
0
POLYLINE
8
FIT
66
1
70
0
10
0
20
0
30
0
0
VERTEX
8
FIT
10
1117.534129
20
3432.098271
30
0
42
0.004296
0
VERTEX
8
FIT
10
1111.774995
20
3451.250883
30
0
0
SEQEND
8
FIT
0
POLYLINE
8
FIT
66
1
70
0
10
0
20
0
30
0
0
VERTEX
8
FIT
10
1108.772236
20
3460.789375
30
0
42
0.004296
0
VERTEX
8
FIT
10
1102.521444
20
3479.78721
30
0
0
SEQEND
8
FIT
0
POLYLINE
8
FIT
66
1
70
0
10
0
20
0
30
0
0
VERTEX
8
FIT
10
1099.273873
20
3489.245152
30
0
42
0.004296
0
VERTEX
8
FIT
10
1092.535576
20
3508.075594
30
0
0
SEQEND
8
FIT
0
POLYLINE
8
FIT
66
1
70
0
10
0
20
0
30
0
0
VERTEX
8
FIT
10
1089.045349
20
3517.446703
30
0
42
0.004296
0
VERTEX
8
FIT
10
1081.824024
20
3536.097243
30
0
0
SEQEND
8
FIT
0
POLYLINE
8
FIT
66
1
70
0
10
0
20
0
30
0
0
VERTEX
8
FIT
10
1078.093459
20
3545.375296
30
0
42
0.004296
0
VERTEX
8
FIT
10
1070.393901
20
3563.833545
30
0
0
SEQEND
8
FIT
0
POLYLINE
8
FIT
66
1
70
0
10
0
20
0
30
0
0
VERTEX
8
FIT
10
1066.425476
20
3573.012379
30
0
42
0.004296
0
VERTEX
8
FIT
10
1058.2528
20
3591.266078
30
0
0
SEQEND
8
FIT
0
POLYLINE
8
FIT
66
1
70
0
10
0
20
0
30
0
0
VERTEX
8
FIT
10
1054.049151
20
3600.339596
30
0
42
0.004296
0
VERTEX
8
FIT
10
1045.408785
20
3618.37662
30
0
0
SEQEND
8
FIT
0
POLYLINE
8
FIT
66
1
70
0
10
0
20
0
30
0
0
VERTEX
8
FIT
10
1040.972705
20
3627.338795
30
0
42
0.004296
0
VERTEX
8
FIT
10
1031.870389
20
3645.147163
30
0
0
SEQEND
8
FIT
0
POLYLINE
8
FIT
66
1
70
0
10
0
20
0
30
0
0
VERTEX
8
FIT
10
1027.204824
20
3653.992042
30
0
42
0.004296
0
VERTEX
8
FIT
10
1017.646602
20
3671.559927
30
0
0
SEQEND
8
FIT
0
POLYLINE
8
FIT
66
1
70
0
10
0
20
0
30
0
0
VERTEX
8
FIT
10
1012.754651
20
3680.281635
30
0
42
0.004296
0
VERTEX
8
FIT
10
1002.746873
20
3697.597366
30
0
0
SEQEND
8
FIT
0
POLYLINE
8
FIT
66
1
70
0
10
0
20
0
30
0
0
VERTEX
8
FIT
10
997.631785
20
3706.190111
30
0
42
0.004296
0
VERTEX
8
FIT
10
987.181099
20
3723.242188
30
0
0
SEQEND
8
FIT
0
POLYLINE
8
FIT
66
1
70
0
10
0
20
0
30
0
0
VERTEX
8
FIT
10
981.846272
20
3731.700261
30
0
42
0.004296
0
VERTEX
8
FIT
10
970.959619
20
3748.477357
30
0
0
SEQEND
8
FIT
0
POLYLINE
8
FIT
66
1
70
0
10
0
20
0
30
0
0
VERTEX
8
FIT
10
965.408596
20
3756.795141
30
0
42
0.004296
0
VERTEX
8
FIT
10
954.093207
20
3773.286112
30
0
0
SEQEND
8
FIT
0
POLYLINE
8
FIT
66
1
70
0
10
0
20
0
30
0
0
VERTEX
8
FIT
10
948.329676
20
3781.458081
30
0
42
0.004296
0
VERTEX
8
FIT
10
936.593066
20
3797.651974
30
0
0
SEQEND
8
FIT
0
POLYLINE
8
FIT
66
1
70
0
10
0
20
0
30
0
0
VERTEX
8
FIT
10
930.620855
20
3805.672702
30
0
42
0.004296
0
VERTEX
8
FIT
10
918.470821
20
3821.55876
30
0
0
SEQEND
8
FIT
0
POLYLINE
8
FIT
66
1
70
0
10
0
20
0
30
0
0
VERTEX
8
FIT
10
912.293896
20
3829.422918
30
0
42
0.004296
0
VERTEX
8
FIT
10
899.738508
20
3844.99059
30
0
0
SEQEND
8
FIT
0
POLYLINE
8
FIT
66
1
70
0
10
0
20
0
30
0
0
VERTEX
8
FIT
10
893.360973
20
3852.692954
30
0
42
0.004296
0
VERTEX
8
FIT
10
880.408571
20
3867.931899
30
0
0
SEQEND
8
FIT
0
POLYLINE
8
FIT
66
1
70
0
10
0
20
0
30
0
0
VERTEX
8
FIT
10
873.83466
20
3875.467355
30
0
42
0.004296
0
VERTEX
8
FIT
10
860.493847
20
3890.367451
30
0
0
SEQEND
8
FIT
0
POLYLINE
8
FIT
66
1
70
0
10
0
20
0
30
0
0
VERTEX
8
FIT
10
853.727929
20
3897.730992
30
0
42
0.004296
0
VERTEX
8
FIT
10
840.007565
20
3912.282342
30
0
0
SEQEND
8
FIT
0
POLYLINE
8
FIT
66
1
70
0
10
0
20
0
30
0
0
VERTEX
8
FIT
10
833.054133
20
3919.469077
30
0
42
0.004296
0
VERTEX
8
FIT
10
818.963333
20
3933.662016
30
0
0
SEQEND
8
FIT
0
POLYLINE
8
FIT
66
1
70
0
10
0
20
0
30
0
0
VERTEX
8
FIT
10
811.827006
20
3940.667173
30
0
42
0.004296
0
VERTEX
8
FIT
10
797.375129
20
3954.492273
30
0
0
SEQEND
8
FIT
0
POLYLINE
8
FIT
66
1
70
0
10
0
20
0
30
0
0
VERTEX
8
FIT
10
790.060646
20
3961.311197
30
0
42
0.004296
0
VERTEX
8
FIT
10
775.257291
20
3974.759277
30
0
0
SEQEND
8
FIT
0
POLYLINE
8
FIT
66
1
70
0
10
0
20
0
30
0
0
VERTEX
8
FIT
10
767.769512
20
3981.38744
30
0
42
0.004296
0
VERTEX
8
FIT
10
752.624511
20
3994.449565
30
0
0
SEQEND
8
FIT
0
POLYLINE
8
FIT
66
1
70
0
10
0
20
0
30
0
0
VERTEX
8
FIT
10
744.968408
20
4000.882564
30
0
42
0.004296
0
VERTEX
8
FIT
10
729.491823
20
4013.55006
30
0
0
SEQEND
8
FIT
0
POLYLINE
8
FIT
66
1
70
0
10
0
20
0
30
0
0
VERTEX
8
FIT
10
721.672482
20
4019.783622
30
0
42
0.004296
0
VERTEX
8
FIT
10
705.87459
20
4032.048074
30
0
0
SEQEND
8
FIT
0
POLYLINE
8
FIT
66
1
70
0
10
0
20
0
30
0
0
VERTEX
8
FIT
10
697.897205
20
4038.078058
30
0
42
0.004296
0
VERTEX
8
FIT
10
681.788501
20
4049.93132
30
0
0
SEQEND
8
FIT
0
POLYLINE
8
FIT
66
1
70
0
10
0
20
0
30
0
0
VERTEX
8
FIT
10
673.658371
20
4055.753722
30
0
42
0.004296
0
VERTEX
8
FIT
10
657.249554
20
4067.18792
30
0
0
SEQEND
8
FIT
0
POLYLINE
8
FIT
66
1
70
0
10
0
20
0
30
0
0
VERTEX
8
FIT
10
648.972078
20
4072.798873
30
0
42
0.004296
0
VERTEX
8
FIT
10
632.274048
20
4083.806412
30
0
0
SEQEND
8
FIT
0
POLYLINE
8
FIT
66
1
70
0
10
0
20
0
30
0
0
VERTEX
8
FIT
10
623.854725
20
4089.202188
30
0
42
0.004296
0
VERTEX
8
FIT
10
606.878572
20
4099.775758
30
0
0
SEQEND
8
FIT
0
POLYLINE
8
FIT
66
1
70
0
10
0
20
0
30
0
0
VERTEX
8
FIT
10
600
20
4103.94591
30
0
42
0.004296
0
VERTEX
8
FIT
10
582.951183
20
4093.489907
30
0
0
SEQEND
8
FIT
0
POLYLINE
8
FIT
66
1
70
0
10
0
20
0
30
0
0
VERTEX
8
FIT
10
574.494774
20
4088.152442
30
0
42
0.004296
0
VERTEX
8
FIT
10
557.721074
20
4077.260558
30
0
0
SEQEND
8
FIT
0
POLYLINE
8
FIT
66
1
70
0
10
0
20
0
30
0
0
VERTEX
8
FIT
10
549.405021
20
4071.706942
30
0
42
0.004296
0
VERTEX
8
FIT
10
532.917579
20
4060.386411
30
0
0
SEQEND
8
FIT
0
POLYLINE
8
FIT
66
1
70
0
10
0
20
0
30
0
0
VERTEX
8
FIT
10
524.747407
20
4054.620331
30
0
42
0.004296
0
VERTEX
8
FIT
10
508.557175
20
4042.878673
30
0
0
SEQEND
8
FIT
0
POLYLINE
8
FIT
66
1
70
0
10
0
20
0
30
0
0
VERTEX
8
FIT
10
500.53831
20
4036.90396
30
0
42
0.004296
0
VERTEX
8
FIT
10
484.656041
20
4024.748974
30
0
0
SEQEND
8
FIT
0
POLYLINE
8
FIT
66
1
70
0
10
0
20
0
30
0
0
VERTEX
8
FIT
10
476.79381
20
4018.569596
30
0
42
0.004296
0
VERTEX
8
FIT
10
461.230054
20
4006.009355
30
0
0
SEQEND
8
FIT
0
POLYLINE
8
FIT
66
1
70
0
10
0
20
0
30
0
0
VERTEX
8
FIT
10
453.529678
20
3999.629418
30
0
42
0.004296
0
VERTEX
8
FIT
10
438.294773
20
3986.672264
30
0
0
SEQEND
8
FIT
0
POLYLINE
8
FIT
66
1
70
0
10
0
20
0
30
0
0
VERTEX
8
FIT
10
430.761368
20
3980.096005
30
0
42
0.004296
0
VERTEX
8
FIT
10
415.865433
20
3966.750546
30
0
0
SEQEND
8
FIT
0
POLYLINE
8
FIT
66
1
70
0
10
0
20
0
30
0
0
VERTEX
8
FIT
10
408.504002
20
3959.982331
30
0
42
0.004296
0
VERTEX
8
FIT
10
393.956931
20
3946.257431
30
0
0
SEQEND
8
FIT
0
POLYLINE
8
FIT
66
1
70
0
10
0
20
0
30
0
0
VERTEX
8
FIT
10
386.772364
20
3939.301758
30
0
42
0.004296
0
VERTEX
8
FIT
10
372.58382
20
3925.206534
30
0
0
SEQEND
8
FIT
0
POLYLINE
8
FIT
66
1
70
0
10
0
20
0
30
0
0
VERTEX
8
FIT
10
365.580889
20
3918.068022
30
0
42
0.004296
0
VERTEX
8
FIT
10
351.760296
20
3903.611834
30
0
0
SEQEND
8
FIT
0
POLYLINE
8
FIT
66
1
70
0
10
0
20
0
30
0
0
VERTEX
8
FIT
10
344.943653
20
3896.295226
30
0
42
0.004296
0
VERTEX
8
FIT
10
331.50019
20
3881.487678
30
0
0
SEQEND
8
FIT
0
POLYLINE
8
FIT
66
1
70
0
10
0
20
0
30
0
0
VERTEX
8
FIT
10
324.874363
20
3873.997832
30
0
42
0.004296
0
VERTEX
8
FIT
10
311.81696
20
3858.848759
30
0
0
SEQEND
8
FIT
0
POLYLINE
8
FIT
66
1
70
0
10
0
20
0
30
0
0
VERTEX
8
FIT
10
305.386349
20
3851.190651
30
0
42
0.004296
0
VERTEX
8
FIT
10
292.72368
20
3835.710115
30
0
0
SEQEND
8
FIT
0
POLYLINE
8
FIT
66
1
70
0
10
0
20
0
30
0
0
VERTEX
8
FIT
10
286.492557
20
3827.888831
30
0
42
0.004296
0
VERTEX
8
FIT
10
274.233032
20
3812.087116
30
0
0
SEQEND
8
FIT
0
POLYLINE
8
FIT
66
1
70
0
10
0
20
0
30
0
0
VERTEX
8
FIT
10
268.205535
20
3804.107851
30
0
42
0.004296
0
VERTEX
8
FIT
10
256.357297
20
3787.995452
30
0
0
SEQEND
8
FIT
0
POLYLINE
8
FIT
66
1
70
0
10
0
20
0
30
0
0
VERTEX
8
FIT
10
250.537431
20
3779.863506
30
0
42
0.004296
0
VERTEX
8
FIT
10
239.10835
20
3763.451124
30
0
0
SEQEND
8
FIT
0
POLYLINE
8
FIT
66
1
70
0
10
0
20
0
30
0
0
VERTEX
8
FIT
10
233.499979
20
3755.1719
30
0
42
0.004296
0
VERTEX
8
FIT
10
222.497647
20
3738.470437
30
0
0
SEQEND
8
FIT
0
POLYLINE
8
FIT
66
1
70
0
10
0
20
0
30
0
0
VERTEX
8
FIT
10
217.104497
20
3730.049433
30
0
42
0.004296
0
VERTEX
8
FIT
10
206.536221
20
3713.069983
30
0
0
SEQEND
8
FIT
0
POLYLINE
8
FIT
66
1
70
0
10
0
20
0
30
0
0
VERTEX
8
FIT
10
201.361875
20
3704.512792
30
0
42
0.004296
0
VERTEX
8
FIT
10
191.234675
20
3687.266633
30
0
0
SEQEND
8
FIT
0
POLYLINE
8
FIT
66
1
70
0
10
0
20
0
30
0
0
VERTEX
8
FIT
10
186.282569
20
3678.578939
30
0
42
0.004296
0
VERTEX
8
FIT
10
176.603171
20
3661.077527
30
0
0
SEQEND
8
FIT
0
POLYLINE
8
FIT
66
1
70
0
10
0
20
0
30
0
0
VERTEX
8
FIT
10
171.876595
20
3652.265101
30
0
42
0.004296
0
VERTEX
8
FIT
10
162.651429
20
3634.52006
30
0
0
SEQEND
8
FIT
0
POLYLINE
8
FIT
66
1
70
0
10
0
20
0
30
0
0
VERTEX
8
FIT
10
158.153522
20
3625.588754
30
0
42
0.004296
0
VERTEX
8
FIT
10
149.388716
20
3607.611871
30
0
0
SEQEND
8
FIT
0
POLYLINE
8
FIT
66
1
70
0
10
0
20
0
30
0
0
VERTEX
8
FIT
10
145.122465
20
3598.567619
30
0
42
0.004296
0
VERTEX
8
FIT
10
136.823841
20
3580.370834
30
0
0
SEQEND
8
FIT
0
POLYLINE
8
FIT
66
1
70
0
10
0
20
0
30
0
0
VERTEX
8
FIT
10
132.79208
20
3571.219643
30
0
42
0.004296
0
VERTEX
8
FIT
10
124.965149
20
3552.815043
30
0
0
SEQEND
8
FIT
0
POLYLINE
8
FIT
66
1
70
0
10
0
20
0
30
0
0
VERTEX
8
FIT
10
121.170557
20
3543.562992
30
0
42
0.004296
0
VERTEX
8
FIT
10
113.820518
20
3524.962801
30
0
0
SEQEND
8
FIT
0
POLYLINE
8
FIT
66
1
70
0
10
0
20
0
30
0
0
VERTEX
8
FIT
10
110.265614
20
3515.616035
30
0
42
0.004296
0
VERTEX
8
FIT
10
103.39735
20
3496.832608
30
0
0
SEQEND
8
FIT
0
POLYLINE
8
FIT
66
1
70
0
10
0
20
0
30
0
0
VERTEX
8
FIT
10
100.084496
20
3487.397335
30
0
42
0.004296
0
VERTEX
8
FIT
10
93.702569
20
3468.443149
30
0
0
SEQEND
8
FIT
0
POLYLINE
8
FIT
66
1
70
0
10
0
20
0
30
0
0
VERTEX
8
FIT
10
90.633965
20
3458.925636
30
0
42
0.004296
0
VERTEX
8
FIT
10
84.742613
20
3439.813281
30
0
0
SEQEND
8
FIT
0
POLYLINE
8
FIT
66
1
70
0
10
0
20
0
30
0
0
VERTEX
8
FIT
10
81.920298
20
3430.219849
30
0
42
0.004296
0
VERTEX
8
FIT
10
76.523434
20
3410.962019
30
0
0
SEQEND
8
FIT
0
POLYLINE
8
FIT
66
1
70
0
10
0
20
0
30
0
0
VERTEX
8
FIT
10
73.949283
20
3401.299042
30
0
42
0.004296
0
VERTEX
8
FIT
10
69.050492
20
3381.908529
30
0
0
SEQEND
8
FIT
0
POLYLINE
8
FIT
66
1
70
0
10
0
20
0
30
0
0
VERTEX
8
FIT
10
66.726214
20
3372.182424
30
0
42
0.004296
0
VERTEX
8
FIT
10
62.32875
20
3352.672107
30
0
0
SEQEND
8
FIT
0
POLYLINE
8
FIT
66
1
70
0
10
0
20
0
30
0
0
VERTEX
8
FIT
10
60.255889
20
3342.889334
30
0
42
0.004296
0
VERTEX
8
FIT
10
56.362674
20
3323.272173
30
0
0
SEQEND
8
FIT
0
POLYLINE
8
FIT
66
1
70
0
10
0
20
0
30
0
0
VERTEX
8
FIT
10
54.542606
20
3313.439231
30
0
42
0.004296
0
VERTEX
8
FIT
10
51.156225
20
3293.728255
30
0
0
SEQEND
8
FIT
0
POLYLINE
8
FIT
66
1
70
0
10
0
20
0
30
0
0
VERTEX
8
FIT
10
49.59016
20
3283.851675
30
0
42
0.004296
0
VERTEX
8
FIT
10
46.712862
20
3264.059977
30
0
0
SEQEND
8
FIT
0
POLYLINE
8
FIT
66
1
70
0
10
0
20
0
30
0
0
VERTEX
8
FIT
10
45.40184
20
3254.14632
30
0
42
0.004296
0
VERTEX
8
FIT
10
43.035536
20
3234.287046
30
0
0
SEQEND
8
FIT
0
POLYLINE
8
FIT
66
1
70
0
10
0
20
0
30
0
0
VERTEX
8
FIT
10
41.980428
20
3224.342895
30
0
42
0.004296
0
VERTEX
8
FIT
10
40.12669
20
3204.429236
30
0
0
SEQEND
8
FIT
0
POLYLINE
8
FIT
66
1
70
0
10
0
20
0
30
0
0
VERTEX
8
FIT
10
39.328197
20
3194.461197
30
0
42
0.004296
0
VERTEX
8
FIT
10
37.988257
20
3174.50638
30
0
0
SEQEND
8
FIT
0
POLYLINE
8
FIT
66
1
70
0
10
0
20
0
30
0
0
VERTEX
8
FIT
10
37.446908
20
3164.521075
30
0
42
0.004296
0
VERTEX
8
FIT
10
36.621655
20
3144.538354
30
0
0
SEQEND
8
FIT
0
POLYLINE
8
FIT
66
1
70
0
10
0
20
0
30
0
0
VERTEX
8
FIT
10
36.337812
20
3134.542414
30
0
42
0.004296
0
VERTEX
8
FIT
10
36.027794
20
3114.545063
30
0
0
SEQEND
8
FIT
0
TEXT
8
TEXT
10
1300
20
4127.231659
30
0
40
15
1
T - FIT (ASSEMBLY, NOT A TOOLPATH)
72
0
11
1300
21
4127.231659
31
0
73
0
0
TEXT
8
TEXT
10
1300
20
4105.231659
30
0
40
15
1
GAP 4 LAP 17 (REBATE)
72
0
11
1300
21
4105.231659
31
0
73
0
0
TEXT
8
TEXT
10
1300
20
4083.231659
30
0
40
15
1
FRAME R1200/1200 / 1143/1143  REBATE WALL R1164/1164 (LAND 36, DASHED)
72
0
11
1300
21
4083.231659
31
0
73
0
0
TEXT
8
TEXT
10
1300
20
4061.231659
30
0
40
15
1
LEAF R1160/1160 / 1093/1093  GLASS R1105.5/1105.5
72
0
11
1300
21
4061.231659
31
0
73
0
0
ENDSEC
0
EOF
