0
SECTION
2
HEADER
9
$ACADVER
1
AC1009
0
ENDSEC
0
SECTION
2
TABLES
0
TABLE
2
LAYER
70
8
0
LAYER
2
0
70
0
62
7
6
CONTINUOUS
0
LAYER
2
FIT
70
0
62
4
6
CONTINUOUS
0
LAYER
2
CONTOUR
70
0
62
7
6
CONTINUOUS
0
LAYER
2
ASSEMBLY
70
0
62
8
6
CONTINUOUS
0
LAYER
2
PIECES
70
0
62
5
6
CONTINUOUS
0
LAYER
2
FINGER
70
0
62
1
6
CONTINUOUS
0
LAYER
2
CLAMPS
70
0
62
3
6
CONTINUOUS
0
LAYER
2
TEXT
70
0
62
94
6
CONTINUOUS
0
ENDTAB
0
ENDSEC
0
SECTION
2
ENTITIES
0
POLYLINE
8
PIECES
66
1
70
1
10
0
20
0
30
0
0
VERTEX
8
PIECES
10
653.355924
20
0
30
0
0
VERTEX
8
PIECES
10
64.285714
20
0
30
0
0
VERTEX
8
PIECES
10
0
20
180
30
0
0
VERTEX
8
PIECES
10
653.355924
20
180
30
0
0
SEQEND
8
PIECES
0
POLYLINE
8
CLAMPS
66
1
70
1
10
0
20
0
30
0
0
VERTEX
8
CLAMPS
10
90.357143
20
25
30
0
0
VERTEX
8
CLAMPS
10
220.357143
20
25
30
0
0
VERTEX
8
CLAMPS
10
220.357143
20
155
30
0
0
VERTEX
8
CLAMPS
10
90.357143
20
155
30
0
0
SEQEND
8
CLAMPS
0
POLYLINE
8
CLAMPS
66
1
70
1
10
0
20
0
30
0
0
VERTEX
8
CLAMPS
10
503.355924
20
25
30
0
0
VERTEX
8
CLAMPS
10
633.355924
20
25
30
0
0
VERTEX
8
CLAMPS
10
633.355924
20
155
30
0
0
VERTEX
8
CLAMPS
10
503.355924
20
155
30
0
0
SEQEND
8
CLAMPS
0
TEXT
8
TEXT
10
326.677962
20
100
30
0
40
15
1
C5 - LEAF TOP P1 L653.4 x180
72
1
11
326.677962
21
100
31
0
73
2
0
TEXT
8
TEXT
10
326.677962
20
10
30
0
40
10
1
OUT 638.4 IN 574.1 CUT J19.7/Q FINGER ONE END
72
1
11
326.677962
21
10
31
0
73
2
0
POLYLINE
8
PIECES
66
1
70
1
10
0
20
0
30
0
0
VERTEX
8
PIECES
10
1442.426133
20
0
30
0
0
VERTEX
8
PIECES
10
853.355924
20
0
30
0
0
VERTEX
8
PIECES
10
853.355924
20
180
30
0
0
VERTEX
8
PIECES
10
1506.711847
20
180
30
0
0
SEQEND
8
PIECES
0
POLYLINE
8
CLAMPS
66
1
70
1
10
0
20
0
30
0
0
VERTEX
8
CLAMPS
10
873.355924
20
25
30
0
0
VERTEX
8
CLAMPS
10
1003.355924
20
25
30
0
0
VERTEX
8
CLAMPS
10
1003.355924
20
155
30
0
0
VERTEX
8
CLAMPS
10
873.355924
20
155
30
0
0
SEQEND
8
CLAMPS
0
POLYLINE
8
CLAMPS
66
1
70
1
10
0
20
0
30
0
0
VERTEX
8
CLAMPS
10
1286.354704
20
25
30
0
0
VERTEX
8
CLAMPS
10
1416.354704
20
25
30
0
0
VERTEX
8
CLAMPS
10
1416.354704
20
155
30
0
0
VERTEX
8
CLAMPS
10
1286.354704
20
155
30
0
0
SEQEND
8
CLAMPS
0
TEXT
8
TEXT
10
1180.033885
20
100
30
0
40
15
1
C5 - LEAF TOP P2 L653.4 x180
72
1
11
1180.033885
21
100
31
0
73
2
0
TEXT
8
TEXT
10
1180.033885
20
10
30
0
40
10
1
OUT 638.4 IN 574.1 CUT Q/J19.7 FINGER ONE END
72
1
11
1180.033885
21
10
31
0
73
2
0
POLYLINE
8
CONTOUR
66
1
70
1
10
0
20
0
30
0
0
VERTEX
8
CONTOUR
10
1161.166528
20
462.247266
30
0
42
0.302776
0
VERTEX
8
CONTOUR
10
1093.47422
20
563.785728
30
0
42
0.2
0
VERTEX
8
CONTOUR
10
108.858836
20
563.785728
30
0
42
0.302776
0
VERTEX
8
CONTOUR
10
41.166528
20
462.247266
30
0
0
VERTEX
8
CONTOUR
10
108.166528
20
462.247266
30
0
42
-0.302776
0
VERTEX
8
CONTOUR
10
134.628066
20
501.939574
30
0
42
-0.2
0
VERTEX
8
CONTOUR
10
1067.704989
20
501.939574
30
0
42
-0.302776
0
VERTEX
8
CONTOUR
10
1094.166528
20
462.247266
30
0
0
SEQEND
8
CONTOUR
0
POLYLINE
8
ASSEMBLY
66
1
70
1
10
0
20
0
30
0
0
VERTEX
8
ASSEMBLY
10
1141.792504
20
380
30
0
0
VERTEX
8
ASSEMBLY
10
601.166528
20
573.080706
30
0
0
VERTEX
8
ASSEMBLY
10
601.166528
20
764.215875
30
0
0
VERTEX
8
ASSEMBLY
10
1202.333056
20
549.513544
30
0
0
SEQEND
8
ASSEMBLY
0
POLYLINE
8
FINGER
66
1
70
0
10
0
20
0
30
0
0
VERTEX
8
FINGER
10
601.166528
20
595.247266
30
0
0
VERTEX
8
FINGER
10
601.166528
20
662.247266
30
0
0
SEQEND
8
FINGER
0
POLYLINE
8
ASSEMBLY
66
1
70
1
10
0
20
0
30
0
0
VERTEX
8
ASSEMBLY
10
601.166528
20
573.080706
30
0
0
VERTEX
8
ASSEMBLY
10
60.540551
20
380
30
0
0
VERTEX
8
ASSEMBLY
10
0
20
549.513544
30
0
0
VERTEX
8
ASSEMBLY
10
601.166528
20
764.215875
30
0
0
SEQEND
8
ASSEMBLY
0
TEXT
8
TEXT
10
1302.333056
20
745.715875
30
0
40
15
1
C5 - LEAF TOP
72
0
11
1302.333056
21
745.715875
31
0
73
0
0
TEXT
8
TEXT
10
1302.333056
20
723.715875
30
0
40
15
1
THREE-CENTRE W1200 RISE240 H2000 HINGE L
72
0
11
1302.333056
21
723.715875
31
0
73
0
0
TEXT
8
TEXT
10
1302.333056
20
701.715875
30
0
40
15
1
FACE 67 OFFSET 40 OUTER L1269.4 INNER L1058.9
72
0
11
1302.333056
21
701.715875
31
0
73
0
0
TEXT
8
TEXT
10
1302.333056
20
679.715875
30
0
40
15
1
CHAIN R110/1280/110 L1269.4 180DEG: FEWEST 2 x board 180 L638.4 ROUGH 653.4 WASTE 57%
72
0
11
1302.333056
21
679.715875
31
0
73
0
0
TEXT
8
TEXT
10
1302.333056
20
657.715875
30
0
40
15
1
  NO ECONOMY ALT WITHIN 5 PIECES -> DEFAULT FEWEST
72
0
11
1302.333056
21
657.715875
31
0
73
0
0
TEXT
8
TEXT
10
1302.333056
20
635.715875
30
0
40
15
1
FINGER 15/16/3.8
72
0
11
1302.333056
21
635.715875
31
0
73
0
0
TEXT
8
TEXT
10
1302.333056
20
613.715875
30
0
40
15
1
ALLOWANCE 10 PER SIDE  LIMITS: OVERALL >= 450 (CLAMP)  SHORTER EDGE >= 400  STOCK MAX 200
72
0
11
1302.333056
21
613.715875
31
0
73
0
0
TEXT
8
TEXT
10
1302.333056
20
591.715875
30
0
40
15
1
CLAMPS (SUGGESTION): UNICLAMP 130 x 130, CLEARANCE 20 FROM THE END CUTS, JAWS 40-98, PIECE THICKNESS 57
72
0
11
1302.333056
21
591.715875
31
0
73
0
0
TEXT
8
TEXT
10
1302.333056
20
569.715875
30
0
40
15
1
CUT CODES: J = JOINT FROM SQUARE  Q = SQUARE (SPRINGING FACE ROUTED WITH THE CONTOUR)  A = APEX FROM SQUARE
72
0
11
1302.333056
21
569.715875
31
0
73
0
0
POLYLINE
8
PIECES
66
1
70
1
10
0
20
0
30
0
0
VERTEX
8
PIECES
10
484.913807
20
964.215875
30
0
0
VERTEX
8
PIECES
10
56.631797
20
964.215875
30
0
0
VERTEX
8
PIECES
10
0
20
1114.215875
30
0
0
VERTEX
8
PIECES
10
484.913807
20
1114.215875
30
0
0
SEQEND
8
PIECES
0
POLYLINE
8
CLAMPS
66
1
70
1
10
0
20
0
30
0
0
VERTEX
8
CLAMPS
10
87.856344
20
974.215875
30
0
0
VERTEX
8
CLAMPS
10
217.856344
20
974.215875
30
0
0
VERTEX
8
CLAMPS
10
217.856344
20
1104.215875
30
0
0
VERTEX
8
CLAMPS
10
87.856344
20
1104.215875
30
0
0
SEQEND
8
CLAMPS
0
POLYLINE
8
CLAMPS
66
1
70
1
10
0
20
0
30
0
0
VERTEX
8
CLAMPS
10
334.913807
20
974.215875
30
0
0
VERTEX
8
CLAMPS
10
464.913807
20
974.215875
30
0
0
VERTEX
8
CLAMPS
10
464.913807
20
1104.215875
30
0
0
VERTEX
8
CLAMPS
10
334.913807
20
1104.215875
30
0
0
SEQEND
8
CLAMPS
0
TEXT
8
TEXT
10
242.456904
20
1049.215875
30
0
40
15
1
C5 - FRAME HEAD P1 L484.9 x150
72
1
11
242.456904
21
1049.215875
31
0
73
2
0
TEXT
8
TEXT
10
242.456904
20
974.215875
30
0
40
10
1
OUT 469.9 IN 413.3 CUT J20.7/Q FINGER ONE END
72
1
11
242.456904
21
974.215875
31
0
73
2
0
POLYLINE
8
PIECES
66
1
70
1
10
0
20
0
30
0
0
VERTEX
8
PIECES
10
1171.204154
20
964.215875
30
0
0
VERTEX
8
PIECES
10
711.611898
20
964.215875
30
0
0
VERTEX
8
PIECES
10
684.913807
20
1114.215875
30
0
0
VERTEX
8
PIECES
10
1197.902244
20
1114.215875
30
0
0
SEQEND
8
PIECES
0
POLYLINE
8
CLAMPS
66
1
70
1
10
0
20
0
30
0
0
VERTEX
8
CLAMPS
10
744.832025
20
974.215875
30
0
0
VERTEX
8
CLAMPS
10
874.832025
20
974.215875
30
0
0
VERTEX
8
CLAMPS
10
874.832025
20
1104.215875
30
0
0
VERTEX
8
CLAMPS
10
744.832025
20
1104.215875
30
0
0
SEQEND
8
CLAMPS
0
POLYLINE
8
CLAMPS
66
1
70
1
10
0
20
0
30
0
0
VERTEX
8
CLAMPS
10
1007.984026
20
974.215875
30
0
0
VERTEX
8
CLAMPS
10
1137.984026
20
974.215875
30
0
0
VERTEX
8
CLAMPS
10
1137.984026
20
1104.215875
30
0
0
VERTEX
8
CLAMPS
10
1007.984026
20
1104.215875
30
0
0
SEQEND
8
CLAMPS
0
TEXT
8
TEXT
10
941.408026
20
1049.215875
30
0
40
15
1
C5 - FRAME HEAD P2 L513 x150
72
1
11
941.408026
21
1049.215875
31
0
73
2
0
TEXT
8
TEXT
10
941.408026
20
974.215875
30
0
40
10
1
OUT 483 IN 429.6 CUT J10.1/J10.1 FINGER BOTH ENDS
72
1
11
941.408026
21
974.215875
31
0
73
2
0
POLYLINE
8
PIECES
66
1
70
1
10
0
20
0
30
0
0
VERTEX
8
PIECES
10
1826.184255
20
964.215875
30
0
0
VERTEX
8
PIECES
10
1397.902244
20
964.215875
30
0
0
VERTEX
8
PIECES
10
1397.902244
20
1114.215875
30
0
0
VERTEX
8
PIECES
10
1882.816051
20
1114.215875
30
0
0
SEQEND
8
PIECES
0
POLYLINE
8
CLAMPS
66
1
70
1
10
0
20
0
30
0
0
VERTEX
8
CLAMPS
10
1417.902244
20
974.215875
30
0
0
VERTEX
8
CLAMPS
10
1547.902244
20
974.215875
30
0
0
VERTEX
8
CLAMPS
10
1547.902244
20
1104.215875
30
0
0
VERTEX
8
CLAMPS
10
1417.902244
20
1104.215875
30
0
0
SEQEND
8
CLAMPS
0
POLYLINE
8
CLAMPS
66
1
70
1
10
0
20
0
30
0
0
VERTEX
8
CLAMPS
10
1664.959708
20
974.215875
30
0
0
VERTEX
8
CLAMPS
10
1794.959708
20
974.215875
30
0
0
VERTEX
8
CLAMPS
10
1794.959708
20
1104.215875
30
0
0
VERTEX
8
CLAMPS
10
1664.959708
20
1104.215875
30
0
0
SEQEND
8
CLAMPS
0
TEXT
8
TEXT
10
1640.359148
20
1049.215875
30
0
40
15
1
C5 - FRAME HEAD P3 L484.9 x150
72
1
11
1640.359148
21
1049.215875
31
0
73
2
0
TEXT
8
TEXT
10
1640.359148
20
974.215875
30
0
40
10
1
OUT 469.9 IN 413.3 CUT Q/J20.7 FINGER ONE END
72
1
11
1640.359148
21
974.215875
31
0
73
2
0
POLYLINE
8
CONTOUR
66
1
70
1
10
0
20
0
30
0
0
VERTEX
8
CONTOUR
10
1251.019708
20
1374.215277
30
0
42
0.302776
0
VERTEX
8
CONTOUR
10
1158.712016
20
1512.676816
30
0
42
0.2
0
VERTEX
8
CONTOUR
10
143.327401
20
1512.676816
30
0
42
0.302776
0
VERTEX
8
CONTOUR
10
51.019708
20
1374.215277
30
0
0
VERTEX
8
CONTOUR
10
108.019708
20
1374.215277
30
0
42
-0.302776
0
VERTEX
8
CONTOUR
10
165.250478
20
1460.061431
30
0
42
-0.2
0
VERTEX
8
CONTOUR
10
1136.788939
20
1460.061431
30
0
42
-0.302776
0
VERTEX
8
CONTOUR
10
1194.019708
20
1374.215277
30
0
0
SEQEND
8
CONTOUR
0
POLYLINE
8
ASSEMBLY
66
1
70
1
10
0
20
0
30
0
0
VERTEX
8
ASSEMBLY
10
1225.286903
20
1314.215875
30
0
0
VERTEX
8
ASSEMBLY
10
870.205718
20
1525.685429
30
0
0
VERTEX
8
ASSEMBLY
10
898.30166
20
1683.53909
30
0
0
VERTEX
8
ASSEMBLY
10
1302.039417
20
1443.091985
30
0
0
SEQEND
8
ASSEMBLY
0
POLYLINE
8
FINGER
66
1
70
0
10
0
20
0
30
0
0
VERTEX
8
FINGER
10
872.339319
20
1537.672808
30
0
0
VERTEX
8
FINGER
10
882.327615
20
1593.790844
30
0
0
SEQEND
8
FINGER
0
POLYLINE
8
ASSEMBLY
66
1
70
1
10
0
20
0
30
0
0
VERTEX
8
ASSEMBLY
10
865.815836
20
1501.021408
30
0
0
VERTEX
8
ASSEMBLY
10
436.22358
20
1501.021408
30
0
0
VERTEX
8
ASSEMBLY
10
409.52549
20
1651.021408
30
0
0
VERTEX
8
ASSEMBLY
10
892.513927
20
1651.021408
30
0
0
SEQEND
8
ASSEMBLY
0
POLYLINE
8
FINGER
66
1
70
0
10
0
20
0
30
0
0
VERTEX
8
FINGER
10
429.700098
20
1537.672808
30
0
0
VERTEX
8
FINGER
10
419.711802
20
1593.790844
30
0
0
SEQEND
8
FINGER
0
POLYLINE
8
ASSEMBLY
66
1
70
1
10
0
20
0
30
0
0
VERTEX
8
ASSEMBLY
10
431.833699
20
1525.685429
30
0
0
VERTEX
8
ASSEMBLY
10
76.752513
20
1314.215875
30
0
0
VERTEX
8
ASSEMBLY
10
0
20
1443.091985
30
0
0
VERTEX
8
ASSEMBLY
10
403.737757
20
1683.53909
30
0
0
SEQEND
8
ASSEMBLY
0
TEXT
8
TEXT
10
1402.039417
20
1665.03909
30
0
40
15
1
C5 - FRAME HEAD
72
0
11
1402.039417
21
1665.03909
31
0
73
0
0
TEXT
8
TEXT
10
1402.039417
20
1643.03909
30
0
40
15
1
THREE-CENTRE W1200 RISE240 H2000 HINGE L
72
0
11
1402.039417
21
1643.03909
31
0
73
0
0
TEXT
8
TEXT
10
1402.039417
20
1621.03909
30
0
40
15
1
FACE 57 OFFSET 0 OUTER L1395.1 INNER L1216
72
0
11
1402.039417
21
1621.03909
31
0
73
0
0
TEXT
8
TEXT
10
1402.039417
20
1599.03909
30
0
40
15
1
CHAIN R150/1320/150 L1395.1 180DEG: FEWEST 2 x board 180 L699.9 ROUGH 714.9 WASTE 61%
72
0
11
1402.039417
21
1599.03909
31
0
73
0
0
TEXT
8
TEXT
10
1402.039417
20
1577.03909
30
0
40
15
1
  ECONOMY ALT 3 x board 150 L483 ROUGH 513 WASTE 55% -> DEFAULT ECONOMY (THRESHOLD 45%)
72
0
11
1402.039417
21
1577.03909
31
0
73
0
0
TEXT
8
TEXT
10
1402.039417
20
1555.03909
30
0
40
15
1
FINGER 15/16/3.8
72
0
11
1402.039417
21
1555.03909
31
0
73
0
0
TEXT
8
TEXT
10
1402.039417
20
1533.03909
30
0
40
15
1
ALLOWANCE 10 PER SIDE  LIMITS: OVERALL >= 450 (CLAMP)  SHORTER EDGE >= 400  STOCK MAX 200
72
0
11
1402.039417
21
1533.03909
31
0
73
0
0
TEXT
8
TEXT
10
1402.039417
20
1511.03909
30
0
40
15
1
CLAMPS (SUGGESTION): UNICLAMP 130 x 130, CLEARANCE 20 FROM THE END CUTS, JAWS 40-98, PIECE THICKNESS 93
72
0
11
1402.039417
21
1511.03909
31
0
73
0
0
TEXT
8
TEXT
10
1402.039417
20
1489.03909
30
0
40
15
1
CUT CODES: J = JOINT FROM SQUARE  Q = SQUARE (SPRINGING FACE ROUTED WITH THE CONTOUR)  A = APEX FROM SQUARE
72
0
11
1402.039417
21
1489.03909
31
0
73
0
0
POLYLINE
8
FIT
66
1
70
1
10
0
20
0
30
0
0
VERTEX
8
FIT
10
1200
20
1883.53909
30
0
42
0.302776
0
VERTEX
8
FIT
10
1107.692308
20
2022.000629
30
0
42
0.2
0
VERTEX
8
FIT
10
92.307692
20
2022.000629
30
0
42
0.302776
0
VERTEX
8
FIT
10
0
20
1883.53909
30
0
0
VERTEX
8
FIT
10
57
20
1883.53909
30
0
42
-0.302776
0
VERTEX
8
FIT
10
114.230769
20
1969.385244
30
0
42
-0.2
0
VERTEX
8
FIT
10
1085.769231
20
1969.385244
30
0
42
-0.302776
0
VERTEX
8
FIT
10
1143
20
1883.53909
30
0
0
SEQEND
8
FIT
0
POLYLINE
8
FIT
66
1
70
1
10
0
20
0
30
0
0
VERTEX
8
FIT
10
1160
20
1883.53909
30
0
42
0.302776
0
VERTEX
8
FIT
10
1092.307692
20
1985.077552
30
0
42
0.2
0
VERTEX
8
FIT
10
107.692308
20
1985.077552
30
0
42
0.302776
0
VERTEX
8
FIT
10
40
20
1883.53909
30
0
0
VERTEX
8
FIT
10
107
20
1883.53909
30
0
42
-0.302776
0
VERTEX
8
FIT
10
133.461538
20
1923.231398
30
0
42
-0.2
0
VERTEX
8
FIT
10
1066.538462
20
1923.231398
30
0
42
-0.302776
0
VERTEX
8
FIT
10
1093
20
1883.53909
30
0
0
SEQEND
8
FIT
0
POLYLINE
8
FIT
66
1
70
1
10
0
20
0
30
0
0
VERTEX
8
FIT
10
1105.5
20
1883.53909
30
0
42
0.302776
0
VERTEX
8
FIT
10
1071.346154
20
1934.76986
30
0
42
0.2
0
VERTEX
8
FIT
10
128.653846
20
1934.76986
30
0
42
0.302776
0
VERTEX
8
FIT
10
94.5
20
1883.53909
30
0
0
SEQEND
8
FIT
0
POLYLINE
8
FIT
66
1
70
0
10
0
20
0
30
0
0
VERTEX
8
FIT
10
1164
20
1883.53909
30
0
42
0.043888
0
VERTEX
8
FIT
10
1162.250109
20
1903.436652
30
0
0
SEQEND
8
FIT
0
POLYLINE
8
FIT
66
1
70
0
10
0
20
0
30
0
0
VERTEX
8
FIT
10
1160.075359
20
1913.194027
30
0
42
0.043888
0
VERTEX
8
FIT
10
1153.209738
20
1931.951381
30
0
0
SEQEND
8
FIT
0
POLYLINE
8
FIT
66
1
70
0
10
0
20
0
30
0
0
VERTEX
8
FIT
10
1148.571662
20
1940.807122
30
0
42
0.043888
0
VERTEX
8
FIT
10
1137.063032
20
1957.132762
30
0
0
SEQEND
8
FIT
0
POLYLINE
8
FIT
66
1
70
0
10
0
20
0
30
0
0
VERTEX
8
FIT
10
1130.280976
20
1964.477121
30
0
42
0.043888
0
VERTEX
8
FIT
10
1114.921744
20
1977.246972
30
0
0
SEQEND
8
FIT
0
POLYLINE
8
FIT
66
1
70
0
10
0
20
0
30
0
0
VERTEX
8
FIT
10
1106.462676
20
1982.574267
30
0
42
0.030853
0
VERTEX
8
FIT
10
1093.846154
20
1988.76986
30
0
0
SEQEND
8
FIT
0
POLYLINE
8
FIT
66
1
70
0
10
0
20
0
30
0
0
VERTEX
8
FIT
10
1093.846154
20
1988.76986
30
0
42
0.003894
0
VERTEX
8
FIT
10
1075.325454
20
1996.318078
30
0
0
SEQEND
8
FIT
0
POLYLINE
8
FIT
66
1
70
0
10
0
20
0
30
0
0
VERTEX
8
FIT
10
1066.021577
20
1999.983778
30
0
42
0.003894
0
VERTEX
8
FIT
10
1047.329588
20
2007.097248
30
0
0
SEQEND
8
FIT
0
POLYLINE
8
FIT
66
1
70
0
10
0
20
0
30
0
0
VERTEX
8
FIT
10
1037.94261
20
2010.544587
30
0
42
0.003894
0
VERTEX
8
FIT
10
1019.089536
20
2017.219428
30
0
0
SEQEND
8
FIT
0
POLYLINE
8
FIT
66
1
70
0
10
0
20
0
30
0
0
VERTEX
8
FIT
10
1009.624582
20
2020.446524
30
0
42
0.003894
0
VERTEX
8
FIT
10
990.620713
20
2026.67909
30
0
0
SEQEND
8
FIT
0
POLYLINE
8
FIT
66
1
70
0
10
0
20
0
30
0
0
VERTEX
8
FIT
10
981.08295
20
2029.684182
30
0
42
0.003894
0
VERTEX
8
FIT
10
961.938661
20
2035.471071
30
0
0
SEQEND
8
FIT
0
POLYLINE
8
FIT
66
1
70
0
10
0
20
0
30
0
0
VERTEX
8
FIT
10
952.333295
20
2038.252518
30
0
42
0.003894
0
VERTEX
8
FIT
10
933.059036
20
2043.590573
30
0
0
SEQEND
8
FIT
0
POLYLINE
8
FIT
66
1
70
0
10
0
20
0
30
0
0
VERTEX
8
FIT
10
923.391311
20
2046.146856
30
0
42
0.003894
0
VERTEX
8
FIT
10
903.997602
20
2051.033162
30
0
0
SEQEND
8
FIT
0
POLYLINE
8
FIT
66
1
70
0
10
0
20
0
30
0
0
VERTEX
8
FIT
10
894.272795
20
2053.362887
30
0
42
0.003894
0
VERTEX
8
FIT
10
874.770224
20
2057.794776
30
0
0
SEQEND
8
FIT
0
POLYLINE
8
FIT
66
1
70
0
10
0
20
0
30
0
0
VERTEX
8
FIT
10
864.993643
20
2059.89667
30
0
42
0.003894
0
VERTEX
8
FIT
10
845.392856
20
2063.871724
30
0
0
SEQEND
8
FIT
0
POLYLINE
8
FIT
66
1
70
0
10
0
20
0
30
0
0
VERTEX
8
FIT
10
835.569838
20
2065.744641
30
0
42
0.003894
0
VERTEX
8
FIT
10
815.881534
20
2069.260688
30
0
0
SEQEND
8
FIT
0
POLYLINE
8
FIT
66
1
70
0
10
0
20
0
30
0
0
VERTEX
8
FIT
10
806.017441
20
2070.903605
30
0
42
0.003894
0
VERTEX
8
FIT
10
786.252368
20
2073.958728
30
0
0
SEQEND
8
FIT
0
POLYLINE
8
FIT
66
1
70
0
10
0
20
0
30
0
0
VERTEX
8
FIT
10
776.352585
20
2075.370748
30
0
42
0.003894
0
VERTEX
8
FIT
10
756.521531
20
2077.963278
30
0
0
SEQEND
8
FIT
0
POLYLINE
8
FIT
66
1
70
0
10
0
20
0
30
0
0
VERTEX
8
FIT
10
746.591463
20
2079.143631
30
0
42
0.003894
0
VERTEX
8
FIT
10
726.705254
20
2081.272153
30
0
0
SEQEND
8
FIT
0
POLYLINE
8
FIT
66
1
70
0
10
0
20
0
30
0
0
VERTEX
8
FIT
10
716.75032
20
2082.220193
30
0
42
0.003894
0
VERTEX
8
FIT
10
696.819811
20
2083.883546
30
0
0
SEQEND
8
FIT
0
POLYLINE
8
FIT
66
1
70
0
10
0
20
0
30
0
0
VERTEX
8
FIT
10
686.845445
20
2084.598757
30
0
42
0.003894
0
VERTEX
8
FIT
10
666.881517
20
2085.796031
30
0
0
SEQEND
8
FIT
0
POLYLINE
8
FIT
66
1
70
0
10
0
20
0
30
0
0
VERTEX
8
FIT
10
656.893165
20
2086.278022
30
0
42
0.003894
0
VERTEX
8
FIT
10
636.906714
20
2087.008566
30
0
0
SEQEND
8
FIT
0
POLYLINE
8
FIT
66
1
70
0
10
0
20
0
30
0
0
VERTEX
8
FIT
10
626.909827
20
2087.257074
30
0
42
0.003894
0
VERTEX
8
FIT
10
606.911764
20
2087.520487
30
0
0
SEQEND
8
FIT
0
POLYLINE
8
FIT
66
1
70
0
10
0
20
0
30
0
0
VERTEX
8
FIT
10
596.911801
20
2087.535377
30
0
42
0.003894
0
VERTEX
8
FIT
10
576.913042
20
2087.331516
30
0
0
SEQEND
8
FIT
0
POLYLINE
8
FIT
66
1
70
0
10
0
20
0
30
0
0
VERTEX
8
FIT
10
566.91546
20
2087.112779
30
0
42
0.003894
0
VERTEX
8
FIT
10
546.926922
20
2086.441756
30
0
0
SEQEND
8
FIT
0
POLYLINE
8
FIT
66
1
70
0
10
0
20
0
30
0
0
VERTEX
8
FIT
10
536.937179
20
2085.989511
30
0
42
0.003894
0
VERTEX
8
FIT
10
516.969773
20
2084.851691
30
0
0
SEQEND
8
FIT
0
POLYLINE
8
FIT
66
1
70
0
10
0
20
0
30
0
0
VERTEX
8
FIT
10
506.993322
20
2084.166186
30
0
42
0.003894
0
VERTEX
8
FIT
10
487.057949
20
2082.562191
30
0
0
SEQEND
8
FIT
0
POLYLINE
8
FIT
66
1
70
0
10
0
20
0
30
0
0
VERTEX
8
FIT
10
477.100236
20
2081.6438
30
0
42
0.003894
0
VERTEX
8
FIT
10
457.207776
20
2079.574506
30
0
0
SEQEND
8
FIT
0
POLYLINE
8
FIT
66
1
70
0
10
0
20
0
30
0
0
VERTEX
8
FIT
10
447.274237
20
2078.423729
30
0
42
0.003894
0
VERTEX
8
FIT
10
427.435551
20
2075.890265
30
0
0
SEQEND
8
FIT
0
POLYLINE
8
FIT
66
1
70
0
10
0
20
0
30
0
0
VERTEX
8
FIT
10
417.531607
20
2074.507731
30
0
42
0.003894
0
VERTEX
8
FIT
10
397.757523
20
2071.51148
30
0
0
SEQEND
8
FIT
0
POLYLINE
8
FIT
66
1
70
0
10
0
20
0
30
0
0
VERTEX
8
FIT
10
387.888582
20
2069.897944
30
0
42
0.003894
0
VERTEX
8
FIT
10
368.189895
20
2066.440541
30
0
0
SEQEND
8
FIT
0
POLYLINE
8
FIT
66
1
70
0
10
0
20
0
30
0
0
VERTEX
8
FIT
10
358.361344
20
2064.596884
30
0
42
0.003894
0
VERTEX
8
FIT
10
338.748806
20
2060.680217
30
0
0
SEQEND
8
FIT
0
POLYLINE
8
FIT
66
1
70
0
10
0
20
0
30
0
0
VERTEX
8
FIT
10
328.966009
20
2058.607445
30
0
42
0.003894
0
VERTEX
8
FIT
10
309.450327
20
2054.233652
30
0
0
SEQEND
8
FIT
0
POLYLINE
8
FIT
66
1
70
0
10
0
20
0
30
0
0
VERTEX
8
FIT
10
299.718626
20
2051.932897
30
0
42
0.003894
0
VERTEX
8
FIT
10
280.310452
20
2047.104365
30
0
0
SEQEND
8
FIT
0
POLYLINE
8
FIT
66
1
70
0
10
0
20
0
30
0
0
VERTEX
8
FIT
10
270.635158
20
2044.576882
30
0
42
0.003894
0
VERTEX
8
FIT
10
251.345087
20
2039.296248
30
0
0
SEQEND
8
FIT
0
POLYLINE
8
FIT
66
1
70
0
10
0
20
0
30
0
0
VERTEX
8
FIT
10
241.731482
20
2036.543417
30
0
42
0.003894
0
VERTEX
8
FIT
10
222.570044
20
2030.813562
30
0
0
SEQEND
8
FIT
0
POLYLINE
8
FIT
66
1
70
0
10
0
20
0
30
0
0
VERTEX
8
FIT
10
213.023375
20
2027.836886
30
0
42
0.003894
0
VERTEX
8
FIT
10
194.001031
20
2021.660938
30
0
0
SEQEND
8
FIT
0
POLYLINE
8
FIT
66
1
70
0
10
0
20
0
30
0
0
VERTEX
8
FIT
10
184.526509
20
2018.462042
30
0
42
0.003894
0
VERTEX
8
FIT
10
165.653641
20
2011.843374
30
0
0
SEQEND
8
FIT
0
POLYLINE
8
FIT
66
1
70
0
10
0
20
0
30
0
0
VERTEX
8
FIT
10
156.25644
20
2008.424003
30
0
42
0.003894
0
VERTEX
8
FIT
10
137.543351
20
2001.366226
30
0
0
SEQEND
8
FIT
0
POLYLINE
8
FIT
66
1
70
0
10
0
20
0
30
0
0
VERTEX
8
FIT
10
128.228598
20
1997.728248
30
0
42
0.003894
0
VERTEX
8
FIT
10
109.685503
20
1990.235216
30
0
0
SEQEND
8
FIT
0
POLYLINE
8
FIT
66
1
70
0
10
0
20
0
30
0
0
VERTEX
8
FIT
10
106.153846
20
1988.76986
30
0
42
0.043888
0
VERTEX
8
FIT
10
88.459901
20
1979.501667
30
0
0
SEQEND
8
FIT
0
POLYLINE
8
FIT
66
1
70
0
10
0
20
0
30
0
0
VERTEX
8
FIT
10
80.289536
20
1973.741369
30
0
42
0.043888
0
VERTEX
8
FIT
10
65.615678
20
1960.189506
30
0
0
SEQEND
8
FIT
0
POLYLINE
8
FIT
66
1
70
0
10
0
20
0
30
0
0
VERTEX
8
FIT
10
59.225024
20
1952.502151
30
0
42
0.043888
0
VERTEX
8
FIT
10
48.581599
20
1935.599707
30
0
0
SEQEND
8
FIT
0
POLYLINE
8
FIT
66
1
70
0
10
0
20
0
30
0
0
VERTEX
8
FIT
10
44.410673
20
1926.514595
30
0
42
0.043888
0
VERTEX
8
FIT
10
38.530515
20
1907.425361
30
0
0
SEQEND
8
FIT
0
POLYLINE
8
FIT
66
1
70
0
10
0
20
0
30
0
0
VERTEX
8
FIT
10
36.8665
20
1897.568031
30
0
42
0.030853
0
VERTEX
8
FIT
10
36
20
1883.53909
30
0
0
SEQEND
8
FIT
0
TEXT
8
TEXT
10
1300
20
2069.035377
30
0
40
15
1
C5 - FIT (ASSEMBLY, NOT A TOOLPATH)
72
0
11
1300
21
2069.035377
31
0
73
0
0
TEXT
8
TEXT
10
1300
20
2047.035377
30
0
40
15
1
GAP 4 LAP 17 (REBATE)
72
0
11
1300
21
2047.035377
31
0
73
0
0
TEXT
8
TEXT
10
1300
20
2025.035377
30
0
40
15
1
FRAME R150/1320/150 / 93/1263/93  REBATE WALL R114/1284/114 (LAND 36, DASHED)
72
0
11
1300
21
2025.035377
31
0
73
0
0
TEXT
8
TEXT
10
1300
20
2003.035377
30
0
40
15
1
LEAF R110/1280/110 / 43/1213/43  GLASS R55.5/1225.5/55.5
72
0
11
1300
21
2003.035377
31
0
73
0
0
ENDSEC
0
EOF
