0
SECTION
2
HEADER
9
$ACADVER
1
AC1009
0
ENDSEC
0
SECTION
2
TABLES
0
TABLE
2
LAYER
70
8
0
LAYER
2
0
70
0
62
7
6
CONTINUOUS
0
LAYER
2
FIT
70
0
62
4
6
CONTINUOUS
0
LAYER
2
CONTOUR
70
0
62
7
6
CONTINUOUS
0
LAYER
2
ASSEMBLY
70
0
62
8
6
CONTINUOUS
0
LAYER
2
PIECES
70
0
62
5
6
CONTINUOUS
0
LAYER
2
FINGER
70
0
62
1
6
CONTINUOUS
0
LAYER
2
CLAMPS
70
0
62
3
6
CONTINUOUS
0
LAYER
2
TEXT
70
0
62
94
6
CONTINUOUS
0
ENDTAB
0
ENDSEC
0
SECTION
2
ENTITIES
0
POLYLINE
8
PIECES
66
1
70
1
10
0
20
0
30
0
0
VERTEX
8
PIECES
10
613.972099
20
0
30
0
0
VERTEX
8
PIECES
10
39.156315
20
0
30
0
0
VERTEX
8
PIECES
10
0
20
150
30
0
0
VERTEX
8
PIECES
10
613.972099
20
150
30
0
0
SEQEND
8
PIECES
0
POLYLINE
8
CLAMPS
66
1
70
1
10
0
20
0
30
0
0
VERTEX
8
CLAMPS
10
71.545894
20
10
30
0
0
VERTEX
8
CLAMPS
10
201.545894
20
10
30
0
0
VERTEX
8
CLAMPS
10
201.545894
20
140
30
0
0
VERTEX
8
CLAMPS
10
71.545894
20
140
30
0
0
SEQEND
8
CLAMPS
0
POLYLINE
8
CLAMPS
66
1
70
1
10
0
20
0
30
0
0
VERTEX
8
CLAMPS
10
463.972099
20
10
30
0
0
VERTEX
8
CLAMPS
10
593.972099
20
10
30
0
0
VERTEX
8
CLAMPS
10
593.972099
20
140
30
0
0
VERTEX
8
CLAMPS
10
463.972099
20
140
30
0
0
SEQEND
8
CLAMPS
0
TEXT
8
TEXT
10
306.986049
20
85
30
0
40
15
1
T - LEAF TOP P1 L614 x150
72
1
11
306.986049
21
85
31
0
73
2
0
TEXT
8
TEXT
10
306.986049
20
10
30
0
40
10
1
OUT 599 IN 559.8 CUT J14.6/Q FINGER ONE END
72
1
11
306.986049
21
10
31
0
73
2
0
POLYLINE
8
PIECES
66
1
70
1
10
0
20
0
30
0
0
VERTEX
8
PIECES
10
1465.06222
20
0
30
0
0
VERTEX
8
PIECES
10
969.89751
20
0
30
0
0
VERTEX
8
PIECES
10
813.972099
20
150
30
0
0
VERTEX
8
PIECES
10
1504.218535
20
150
30
0
0
SEQEND
8
PIECES
0
POLYLINE
8
CLAMPS
66
1
70
1
10
0
20
0
30
0
0
VERTEX
8
CLAMPS
10
994.502482
20
10
30
0
0
VERTEX
8
CLAMPS
10
1124.502482
20
10
30
0
0
VERTEX
8
CLAMPS
10
1124.502482
20
140
30
0
0
VERTEX
8
CLAMPS
10
994.502482
20
140
30
0
0
SEQEND
8
CLAMPS
0
POLYLINE
8
CLAMPS
66
1
70
1
10
0
20
0
30
0
0
VERTEX
8
CLAMPS
10
1302.672641
20
10
30
0
0
VERTEX
8
CLAMPS
10
1432.672641
20
10
30
0
0
VERTEX
8
CLAMPS
10
1432.672641
20
140
30
0
0
VERTEX
8
CLAMPS
10
1302.672641
20
140
30
0
0
SEQEND
8
CLAMPS
0
TEXT
8
TEXT
10
1159.095317
20
85
30
0
40
15
1
T - LEAF TOP P2 L690.2 x150
72
1
11
1159.095317
21
85
31
0
73
2
0
TEXT
8
TEXT
10
1159.095317
20
10
30
0
40
10
1
OUT 660.2 IN 465.2 CUT A46.1/J14.6 FINGER BOTH ENDS
72
1
11
1159.095317
21
10
31
0
73
2
0
POLYLINE
8
PIECES
66
1
70
1
10
0
20
0
30
0
0
VERTEX
8
PIECES
10
2238.53956
20
0
30
0
0
VERTEX
8
PIECES
10
1743.37485
20
0
30
0
0
VERTEX
8
PIECES
10
1704.218535
20
150
30
0
0
VERTEX
8
PIECES
10
2394.464971
20
150
30
0
0
SEQEND
8
PIECES
0
POLYLINE
8
CLAMPS
66
1
70
1
10
0
20
0
30
0
0
VERTEX
8
CLAMPS
10
1775.764429
20
10
30
0
0
VERTEX
8
CLAMPS
10
1905.764429
20
10
30
0
0
VERTEX
8
CLAMPS
10
1905.764429
20
140
30
0
0
VERTEX
8
CLAMPS
10
1775.764429
20
140
30
0
0
SEQEND
8
CLAMPS
0
POLYLINE
8
CLAMPS
66
1
70
1
10
0
20
0
30
0
0
VERTEX
8
CLAMPS
10
2083.934588
20
10
30
0
0
VERTEX
8
CLAMPS
10
2213.934588
20
10
30
0
0
VERTEX
8
CLAMPS
10
2213.934588
20
140
30
0
0
VERTEX
8
CLAMPS
10
2083.934588
20
140
30
0
0
SEQEND
8
CLAMPS
0
TEXT
8
TEXT
10
2049.341753
20
85
30
0
40
15
1
T - LEAF TOP P3 L690.2 x150
72
1
11
2049.341753
21
85
31
0
73
2
0
TEXT
8
TEXT
10
2049.341753
20
10
30
0
40
10
1
OUT 660.2 IN 465.2 CUT J14.6/A46.1 FINGER BOTH ENDS
72
1
11
2049.341753
21
10
31
0
73
2
0
POLYLINE
8
PIECES
66
1
70
1
10
0
20
0
30
0
0
VERTEX
8
PIECES
10
3169.280755
20
0
30
0
0
VERTEX
8
PIECES
10
2594.464971
20
0
30
0
0
VERTEX
8
PIECES
10
2594.464971
20
150
30
0
0
VERTEX
8
PIECES
10
3208.43707
20
150
30
0
0
SEQEND
8
PIECES
0
POLYLINE
8
CLAMPS
66
1
70
1
10
0
20
0
30
0
0
VERTEX
8
CLAMPS
10
2614.464971
20
10
30
0
0
VERTEX
8
CLAMPS
10
2744.464971
20
10
30
0
0
VERTEX
8
CLAMPS
10
2744.464971
20
140
30
0
0
VERTEX
8
CLAMPS
10
2614.464971
20
140
30
0
0
SEQEND
8
CLAMPS
0
POLYLINE
8
CLAMPS
66
1
70
1
10
0
20
0
30
0
0
VERTEX
8
CLAMPS
10
3006.891176
20
10
30
0
0
VERTEX
8
CLAMPS
10
3136.891176
20
10
30
0
0
VERTEX
8
CLAMPS
10
3136.891176
20
140
30
0
0
VERTEX
8
CLAMPS
10
3006.891176
20
140
30
0
0
SEQEND
8
CLAMPS
0
TEXT
8
TEXT
10
2901.451021
20
85
30
0
40
15
1
T - LEAF TOP P4 L614 x150
72
1
11
2901.451021
21
85
31
0
73
2
0
TEXT
8
TEXT
10
2901.451021
20
10
30
0
40
10
1
OUT 599 IN 559.8 CUT Q/J14.6 FINGER ONE END
72
1
11
2901.451021
21
10
31
0
73
2
0
POLYLINE
8
CONTOUR
66
1
70
1
10
0
20
0
30
0
0
VERTEX
8
CONTOUR
10
1158.023559
20
374.828475
30
0
42
0.261042
0
VERTEX
8
CONTOUR
10
609.023559
20
1354.726939
30
0
42
0.261042
0
VERTEX
8
CONTOUR
10
60.023559
20
374.828475
30
0
0
VERTEX
8
CONTOUR
10
127.023559
20
374.828475
30
0
42
-0.25082
0
VERTEX
8
CONTOUR
10
609.023559
20
1275.230607
30
0
42
-0.25082
0
VERTEX
8
CONTOUR
10
1091.023559
20
374.828475
30
0
0
SEQEND
8
CONTOUR
0
POLYLINE
8
ASSEMBLY
66
1
70
1
10
0
20
0
30
0
0
VERTEX
8
ASSEMBLY
10
1072.910645
20
350
30
0
0
VERTEX
8
ASSEMBLY
10
931.513384
20
891.664588
30
0
0
VERTEX
8
ASSEMBLY
10
1066.759825
20
967.438047
30
0
0
VERTEX
8
ASSEMBLY
10
1218.047118
20
387.88673
30
0
0
SEQEND
8
ASSEMBLY
0
POLYLINE
8
FINGER
66
1
70
0
10
0
20
0
30
0
0
VERTEX
8
FINGER
10
952.969565
20
903.685674
30
0
0
VERTEX
8
FINGER
10
1011.420935
20
936.433763
30
0
0
SEQEND
8
FINGER
0
POLYLINE
8
ASSEMBLY
66
1
70
1
10
0
20
0
30
0
0
VERTEX
8
ASSEMBLY
10
931.513384
20
891.664588
30
0
0
VERTEX
8
ASSEMBLY
10
609.023559
20
1226.893645
30
0
0
VERTEX
8
ASSEMBLY
10
609.023559
20
1443.256151
30
0
0
VERTEX
8
ASSEMBLY
10
1066.759825
20
967.438047
30
0
0
SEQEND
8
ASSEMBLY
0
POLYLINE
8
FINGER
66
1
70
0
10
0
20
0
30
0
0
VERTEX
8
FINGER
10
609.023559
20
1275.230607
30
0
0
VERTEX
8
FINGER
10
609.023559
20
1354.726939
30
0
0
SEQEND
8
FINGER
0
POLYLINE
8
ASSEMBLY
66
1
70
1
10
0
20
0
30
0
0
VERTEX
8
ASSEMBLY
10
609.023559
20
1226.893645
30
0
0
VERTEX
8
ASSEMBLY
10
286.533734
20
891.664588
30
0
0
VERTEX
8
ASSEMBLY
10
151.287293
20
967.438047
30
0
0
VERTEX
8
ASSEMBLY
10
609.023559
20
1443.256151
30
0
0
SEQEND
8
ASSEMBLY
0
POLYLINE
8
FINGER
66
1
70
0
10
0
20
0
30
0
0
VERTEX
8
FINGER
10
265.077553
20
903.685674
30
0
0
VERTEX
8
FINGER
10
206.626183
20
936.433763
30
0
0
SEQEND
8
FINGER
0
POLYLINE
8
ASSEMBLY
66
1
70
1
10
0
20
0
30
0
0
VERTEX
8
ASSEMBLY
10
286.533734
20
891.664588
30
0
0
VERTEX
8
ASSEMBLY
10
145.136473
20
350
30
0
0
VERTEX
8
ASSEMBLY
10
0
20
387.88673
30
0
0
VERTEX
8
ASSEMBLY
10
151.287293
20
967.438047
30
0
0
SEQEND
8
ASSEMBLY
0
TEXT
8
TEXT
10
1318.047118
20
1424.756151
30
0
40
15
1
T - LEAF TOP
72
0
11
1318.047118
21
1424.756151
31
0
73
0
0
TEXT
8
TEXT
10
1318.047118
20
1402.756151
30
0
40
15
1
GOTHIC EQUILATERAL W1200 RISE1039.2 H2000 HINGE R
72
0
11
1318.047118
21
1402.756151
31
0
73
0
0
TEXT
8
TEXT
10
1318.047118
20
1380.756151
30
0
40
15
1
FACE 67 OFFSET 51 OUTER L2347.1 INNER L2127.2
72
0
11
1318.047118
21
1380.756151
31
0
73
0
0
TEXT
8
TEXT
10
1318.047118
20
1358.756151
30
0
40
15
1
SIDE 1 R1149 L1173.6 58.5DEG: FEWEST 2 x board 150 L660.2 ROUGH 690.2 WASTE 50%
72
0
11
1318.047118
21
1358.756151
31
0
73
0
0
TEXT
8
TEXT
10
1318.047118
20
1336.756151
30
0
40
15
1
  NO ECONOMY ALT WITHIN 5 PIECES -> DEFAULT FEWEST
72
0
11
1318.047118
21
1336.756151
31
0
73
0
0
TEXT
8
TEXT
10
1318.047118
20
1314.756151
30
0
40
15
1
SIDE 2 R1149 L1173.6 58.5DEG: FEWEST 2 x board 150 L660.2 ROUGH 690.2 WASTE 50%
72
0
11
1318.047118
21
1314.756151
31
0
73
0
0
TEXT
8
TEXT
10
1318.047118
20
1292.756151
30
0
40
15
1
  NO ECONOMY ALT WITHIN 5 PIECES -> DEFAULT FEWEST
72
0
11
1318.047118
21
1292.756151
31
0
73
0
0
TEXT
8
TEXT
10
1318.047118
20
1270.756151
30
0
40
15
1
FINGER 15/16/3.8
72
0
11
1318.047118
21
1270.756151
31
0
73
0
0
TEXT
8
TEXT
10
1318.047118
20
1248.756151
30
0
40
15
1
ALLOWANCE 10 PER SIDE  LIMITS: OVERALL >= 450 (CLAMP)  SHORTER EDGE >= 400  STOCK MAX 200
72
0
11
1318.047118
21
1248.756151
31
0
73
0
0
TEXT
8
TEXT
10
1318.047118
20
1226.756151
30
0
40
15
1
CLAMPS (SUGGESTION): UNICLAMP 130 x 130, CLEARANCE 20 FROM THE END CUTS, JAWS 40-98, PIECE THICKNESS 57
72
0
11
1318.047118
21
1226.756151
31
0
73
0
0
TEXT
8
TEXT
10
1318.047118
20
1204.756151
30
0
40
15
1
CUT CODES: J = JOINT FROM SQUARE  Q = SQUARE (SPRINGING FACE ROUTED WITH THE CONTOUR)  A = APEX FROM SQUARE
72
0
11
1318.047118
21
1204.756151
31
0
73
0
0
POLYLINE
8
PIECES
66
1
70
1
10
0
20
0
30
0
0
VERTEX
8
PIECES
10
655.57398
20
1643.256151
30
0
0
VERTEX
8
PIECES
10
40.192379
20
1643.256151
30
0
0
VERTEX
8
PIECES
10
0
20
1793.256151
30
0
0
VERTEX
8
PIECES
10
655.57398
20
1793.256151
30
0
0
SEQEND
8
PIECES
0
POLYLINE
8
CLAMPS
66
1
70
1
10
0
20
0
30
0
0
VERTEX
8
CLAMPS
10
72.512887
20
1653.256151
30
0
0
VERTEX
8
CLAMPS
10
202.512887
20
1653.256151
30
0
0
VERTEX
8
CLAMPS
10
202.512887
20
1783.256151
30
0
0
VERTEX
8
CLAMPS
10
72.512887
20
1783.256151
30
0
0
SEQEND
8
CLAMPS
0
POLYLINE
8
CLAMPS
66
1
70
1
10
0
20
0
30
0
0
VERTEX
8
CLAMPS
10
505.57398
20
1653.256151
30
0
0
VERTEX
8
CLAMPS
10
635.57398
20
1653.256151
30
0
0
VERTEX
8
CLAMPS
10
635.57398
20
1783.256151
30
0
0
VERTEX
8
CLAMPS
10
505.57398
20
1783.256151
30
0
0
SEQEND
8
CLAMPS
0
TEXT
8
TEXT
10
327.78699
20
1728.256151
30
0
40
15
1
T - FRAME HEAD P1 L655.6 x150
72
1
11
327.78699
21
1728.256151
31
0
73
2
0
TEXT
8
TEXT
10
327.78699
20
1653.256151
30
0
40
10
1
OUT 640.6 IN 600.4 CUT J15/Q FINGER ONE END
72
1
11
327.78699
21
1653.256151
31
0
73
2
0
POLYLINE
8
PIECES
66
1
70
1
10
0
20
0
30
0
0
VERTEX
8
PIECES
10
1546.140787
20
1643.256151
30
0
0
VERTEX
8
PIECES
10
1005.57398
20
1643.256151
30
0
0
VERTEX
8
PIECES
10
855.57398
20
1793.256151
30
0
0
VERTEX
8
PIECES
10
1586.333166
20
1793.256151
30
0
0
SEQEND
8
PIECES
0
POLYLINE
8
CLAMPS
66
1
70
1
10
0
20
0
30
0
0
VERTEX
8
CLAMPS
10
1030.57398
20
1653.256151
30
0
0
VERTEX
8
CLAMPS
10
1160.57398
20
1653.256151
30
0
0
VERTEX
8
CLAMPS
10
1160.57398
20
1783.256151
30
0
0
VERTEX
8
CLAMPS
10
1030.57398
20
1783.256151
30
0
0
SEQEND
8
CLAMPS
0
POLYLINE
8
CLAMPS
66
1
70
1
10
0
20
0
30
0
0
VERTEX
8
CLAMPS
10
1383.820279
20
1653.256151
30
0
0
VERTEX
8
CLAMPS
10
1513.820279
20
1653.256151
30
0
0
VERTEX
8
CLAMPS
10
1513.820279
20
1783.256151
30
0
0
VERTEX
8
CLAMPS
10
1383.820279
20
1783.256151
30
0
0
SEQEND
8
CLAMPS
0
TEXT
8
TEXT
10
1220.953573
20
1728.256151
30
0
40
15
1
T - FRAME HEAD P2 L730.8 x150
72
1
11
1220.953573
21
1728.256151
31
0
73
2
0
TEXT
8
TEXT
10
1220.953573
20
1653.256151
30
0
40
10
1
OUT 700.8 IN 510.6 CUT A45/J15 FINGER BOTH ENDS
72
1
11
1220.953573
21
1653.256151
31
0
73
2
0
POLYLINE
8
PIECES
66
1
70
1
10
0
20
0
30
0
0
VERTEX
8
PIECES
10
2367.092352
20
1643.256151
30
0
0
VERTEX
8
PIECES
10
1826.525545
20
1643.256151
30
0
0
VERTEX
8
PIECES
10
1786.333166
20
1793.256151
30
0
0
VERTEX
8
PIECES
10
2517.092352
20
1793.256151
30
0
0
SEQEND
8
PIECES
0
POLYLINE
8
CLAMPS
66
1
70
1
10
0
20
0
30
0
0
VERTEX
8
CLAMPS
10
1858.846053
20
1653.256151
30
0
0
VERTEX
8
CLAMPS
10
1988.846053
20
1653.256151
30
0
0
VERTEX
8
CLAMPS
10
1988.846053
20
1783.256151
30
0
0
VERTEX
8
CLAMPS
10
1858.846053
20
1783.256151
30
0
0
SEQEND
8
CLAMPS
0
POLYLINE
8
CLAMPS
66
1
70
1
10
0
20
0
30
0
0
VERTEX
8
CLAMPS
10
2212.092352
20
1653.256151
30
0
0
VERTEX
8
CLAMPS
10
2342.092352
20
1653.256151
30
0
0
VERTEX
8
CLAMPS
10
2342.092352
20
1783.256151
30
0
0
VERTEX
8
CLAMPS
10
2212.092352
20
1783.256151
30
0
0
SEQEND
8
CLAMPS
0
TEXT
8
TEXT
10
2151.712759
20
1728.256151
30
0
40
15
1
T - FRAME HEAD P3 L730.8 x150
72
1
11
2151.712759
21
1728.256151
31
0
73
2
0
TEXT
8
TEXT
10
2151.712759
20
1653.256151
30
0
40
10
1
OUT 700.8 IN 510.6 CUT J15/A45 FINGER BOTH ENDS
72
1
11
2151.712759
21
1653.256151
31
0
73
2
0
POLYLINE
8
PIECES
66
1
70
1
10
0
20
0
30
0
0
VERTEX
8
PIECES
10
3332.473953
20
1643.256151
30
0
0
VERTEX
8
PIECES
10
2717.092352
20
1643.256151
30
0
0
VERTEX
8
PIECES
10
2717.092352
20
1793.256151
30
0
0
VERTEX
8
PIECES
10
3372.666332
20
1793.256151
30
0
0
SEQEND
8
PIECES
0
POLYLINE
8
CLAMPS
66
1
70
1
10
0
20
0
30
0
0
VERTEX
8
CLAMPS
10
2737.092352
20
1653.256151
30
0
0
VERTEX
8
CLAMPS
10
2867.092352
20
1653.256151
30
0
0
VERTEX
8
CLAMPS
10
2867.092352
20
1783.256151
30
0
0
VERTEX
8
CLAMPS
10
2737.092352
20
1783.256151
30
0
0
SEQEND
8
CLAMPS
0
POLYLINE
8
CLAMPS
66
1
70
1
10
0
20
0
30
0
0
VERTEX
8
CLAMPS
10
3170.153445
20
1653.256151
30
0
0
VERTEX
8
CLAMPS
10
3300.153445
20
1653.256151
30
0
0
VERTEX
8
CLAMPS
10
3300.153445
20
1783.256151
30
0
0
VERTEX
8
CLAMPS
10
3170.153445
20
1783.256151
30
0
0
SEQEND
8
CLAMPS
0
TEXT
8
TEXT
10
3044.879342
20
1728.256151
30
0
40
15
1
T - FRAME HEAD P4 L655.6 x150
72
1
11
3044.879342
21
1728.256151
31
0
73
2
0
TEXT
8
TEXT
10
3044.879342
20
1653.256151
30
0
40
10
1
OUT 640.6 IN 600.4 CUT Q/J15 FINGER ONE END
72
1
11
3044.879342
21
1653.256151
31
0
73
2
0
POLYLINE
8
CONTOUR
66
1
70
1
10
0
20
0
30
0
0
VERTEX
8
CONTOUR
10
1261.304318
20
2018.332057
30
0
42
0.267949
0
VERTEX
8
CONTOUR
10
661.304318
20
3057.562541
30
0
42
0.267949
0
VERTEX
8
CONTOUR
10
61.304318
20
2018.332057
30
0
0
VERTEX
8
CONTOUR
10
129.304318
20
2018.332057
30
0
42
-0.258581
0
VERTEX
8
CONTOUR
10
661.304318
20
2978.240386
30
0
42
-0.258581
0
VERTEX
8
CONTOUR
10
1193.304318
20
2018.332057
30
0
0
SEQEND
8
CONTOUR
0
POLYLINE
8
ASSEMBLY
66
1
70
1
10
0
20
0
30
0
0
VERTEX
8
ASSEMBLY
10
1177.719763
20
1993.256151
30
0
0
VERTEX
8
ASSEMBLY
10
1022.32957
20
2573.180245
30
0
0
VERTEX
8
ASSEMBLY
10
1156.815891
20
2650.825958
30
0
0
VERTEX
8
ASSEMBLY
10
1322.608637
20
2032.079008
30
0
0
SEQEND
8
ASSEMBLY
0
POLYLINE
8
FINGER
66
1
70
0
10
0
20
0
30
0
0
VERTEX
8
FINGER
10
1041.645075
20
2584.332057
30
0
0
VERTEX
8
FINGER
10
1100.534803
20
2618.332057
30
0
0
SEQEND
8
FINGER
0
POLYLINE
8
ASSEMBLY
66
1
70
1
10
0
20
0
30
0
0
VERTEX
8
ASSEMBLY
10
1022.32957
20
2573.180245
30
0
0
VERTEX
8
ASSEMBLY
10
661.304318
20
2934.205496
30
0
0
VERTEX
8
ASSEMBLY
10
661.304318
20
3146.337531
30
0
0
VERTEX
8
ASSEMBLY
10
1156.815891
20
2650.825958
30
0
0
SEQEND
8
ASSEMBLY
0
POLYLINE
8
FINGER
66
1
70
0
10
0
20
0
30
0
0
VERTEX
8
FINGER
10
661.304318
20
2978.240386
30
0
0
VERTEX
8
FINGER
10
661.304318
20
3057.562541
30
0
0
SEQEND
8
FINGER
0
POLYLINE
8
ASSEMBLY
66
1
70
1
10
0
20
0
30
0
0
VERTEX
8
ASSEMBLY
10
661.304318
20
2934.205496
30
0
0
VERTEX
8
ASSEMBLY
10
300.279067
20
2573.180245
30
0
0
VERTEX
8
ASSEMBLY
10
165.792746
20
2650.825958
30
0
0
VERTEX
8
ASSEMBLY
10
661.304318
20
3146.337531
30
0
0
SEQEND
8
ASSEMBLY
0
POLYLINE
8
FINGER
66
1
70
0
10
0
20
0
30
0
0
VERTEX
8
FINGER
10
280.963561
20
2584.332057
30
0
0
VERTEX
8
FINGER
10
222.073834
20
2618.332057
30
0
0
SEQEND
8
FINGER
0
POLYLINE
8
ASSEMBLY
66
1
70
1
10
0
20
0
30
0
0
VERTEX
8
ASSEMBLY
10
300.279067
20
2573.180245
30
0
0
VERTEX
8
ASSEMBLY
10
144.888874
20
1993.256151
30
0
0
VERTEX
8
ASSEMBLY
10
0
20
2032.079008
30
0
0
VERTEX
8
ASSEMBLY
10
165.792746
20
2650.825958
30
0
0
SEQEND
8
ASSEMBLY
0
TEXT
8
TEXT
10
1422.608637
20
3127.837531
30
0
40
15
1
T - FRAME HEAD
72
0
11
1422.608637
21
3127.837531
31
0
73
0
0
TEXT
8
TEXT
10
1422.608637
20
3105.837531
30
0
40
15
1
GOTHIC EQUILATERAL W1200 RISE1039.2 H2000 HINGE R
72
0
11
1422.608637
21
3105.837531
31
0
73
0
0
TEXT
8
TEXT
10
1422.608637
20
3083.837531
30
0
40
15
1
FACE 68 OFFSET 0 OUTER L2513.3 INNER L2291.5
72
0
11
1422.608637
21
3083.837531
31
0
73
0
0
TEXT
8
TEXT
10
1422.608637
20
3061.837531
30
0
40
15
1
SIDE 1 R1200 L1256.6 60DEG: FEWEST 2 x board 150 L700.8 ROUGH 730.8 WASTE 49%
72
0
11
1422.608637
21
3061.837531
31
0
73
0
0
TEXT
8
TEXT
10
1422.608637
20
3039.837531
30
0
40
15
1
  NO ECONOMY ALT WITHIN 5 PIECES -> DEFAULT FEWEST
72
0
11
1422.608637
21
3039.837531
31
0
73
0
0
TEXT
8
TEXT
10
1422.608637
20
3017.837531
30
0
40
15
1
SIDE 2 R1200 L1256.6 60DEG: FEWEST 2 x board 150 L700.8 ROUGH 730.8 WASTE 49%
72
0
11
1422.608637
21
3017.837531
31
0
73
0
0
TEXT
8
TEXT
10
1422.608637
20
2995.837531
30
0
40
15
1
  NO ECONOMY ALT WITHIN 5 PIECES -> DEFAULT FEWEST
72
0
11
1422.608637
21
2995.837531
31
0
73
0
0
TEXT
8
TEXT
10
1422.608637
20
2973.837531
30
0
40
15
1
FINGER 15/16/3.8
72
0
11
1422.608637
21
2973.837531
31
0
73
0
0
TEXT
8
TEXT
10
1422.608637
20
2951.837531
30
0
40
15
1
ALLOWANCE 10 PER SIDE  LIMITS: OVERALL >= 450 (CLAMP)  SHORTER EDGE >= 400  STOCK MAX 200
72
0
11
1422.608637
21
2951.837531
31
0
73
0
0
TEXT
8
TEXT
10
1422.608637
20
2929.837531
30
0
40
15
1
CLAMPS (SUGGESTION): UNICLAMP 130 x 130, CLEARANCE 20 FROM THE END CUTS, JAWS 40-98, PIECE THICKNESS 93
72
0
11
1422.608637
21
2929.837531
31
0
73
0
0
TEXT
8
TEXT
10
1422.608637
20
2907.837531
30
0
40
15
1
CUT CODES: J = JOINT FROM SQUARE  Q = SQUARE (SPRINGING FACE ROUTED WITH THE CONTOUR)  A = APEX FROM SQUARE
72
0
11
1422.608637
21
2907.837531
31
0
73
0
0
POLYLINE
8
FIT
66
1
70
1
10
0
20
0
30
0
0
VERTEX
8
FIT
10
1200
20
3346.337531
30
0
42
0.267949
0
VERTEX
8
FIT
10
600
20
4385.568015
30
0
42
0.267949
0
VERTEX
8
FIT
10
0
20
3346.337531
30
0
0
VERTEX
8
FIT
10
68
20
3346.337531
30
0
42
-0.258581
0
VERTEX
8
FIT
10
600
20
4306.24586
30
0
42
-0.258581
0
VERTEX
8
FIT
10
1132
20
3346.337531
30
0
0
SEQEND
8
FIT
0
POLYLINE
8
FIT
66
1
70
1
10
0
20
0
30
0
0
VERTEX
8
FIT
10
1149
20
3346.337531
30
0
42
0.261042
0
VERTEX
8
FIT
10
600
20
4326.235995
30
0
42
0.261042
0
VERTEX
8
FIT
10
51
20
3346.337531
30
0
0
VERTEX
8
FIT
10
118
20
3346.337531
30
0
42
-0.25082
0
VERTEX
8
FIT
10
600
20
4246.739663
30
0
42
-0.25082
0
VERTEX
8
FIT
10
1082
20
3346.337531
30
0
0
SEQEND
8
FIT
0
POLYLINE
8
FIT
66
1
70
1
10
0
20
0
30
0
0
VERTEX
8
FIT
10
1094.5
20
3346.337531
30
0
42
0.252838
0
VERTEX
8
FIT
10
600
20
4261.722832
30
0
42
0.252838
0
VERTEX
8
FIT
10
105.5
20
3346.337531
30
0
0
SEQEND
8
FIT
0
POLYLINE
8
FIT
66
1
70
0
10
0
20
0
30
0
0
VERTEX
8
FIT
10
1153
20
3346.337531
30
0
42
0.004337
0
VERTEX
8
FIT
10
1152.826544
20
3366.336528
30
0
0
SEQEND
8
FIT
0
POLYLINE
8
FIT
66
1
70
0
10
0
20
0
30
0
0
VERTEX
8
FIT
10
1152.609736
20
3376.334146
30
0
42
0.004337
0
VERTEX
8
FIT
10
1151.916042
20
3396.321861
30
0
0
SEQEND
8
FIT
0
POLYLINE
8
FIT
66
1
70
0
10
0
20
0
30
0
0
VERTEX
8
FIT
10
1151.439207
20
3406.310455
30
0
42
0.004337
0
VERTEX
8
FIT
10
1150.225745
20
3426.273357
30
0
0
SEQEND
8
FIT
0
POLYLINE
8
FIT
66
1
70
0
10
0
20
0
30
0
0
VERTEX
8
FIT
10
1149.489207
20
3436.246165
30
0
42
0.004337
0
VERTEX
8
FIT
10
1147.756797
20
3456.170741
30
0
0
SEQEND
8
FIT
0
POLYLINE
8
FIT
66
1
70
0
10
0
20
0
30
0
0
VERTEX
8
FIT
10
1146.761055
20
3466.12101
30
0
42
0.004337
0
VERTEX
8
FIT
10
1144.510871
20
3485.993772
30
0
0
SEQEND
8
FIT
0
POLYLINE
8
FIT
66
1
70
0
10
0
20
0
30
0
0
VERTEX
8
FIT
10
1143.256598
20
3495.914768
30
0
42
0.004337
0
VERTEX
8
FIT
10
1140.490163
20
3515.722262
30
0
0
SEQEND
8
FIT
0
POLYLINE
8
FIT
66
1
70
0
10
0
20
0
30
0
0
VERTEX
8
FIT
10
1138.978209
20
3525.607269
30
0
42
0.004337
0
VERTEX
8
FIT
10
1135.697396
20
3545.336087
30
0
0
SEQEND
8
FIT
0
POLYLINE
8
FIT
66
1
70
0
10
0
20
0
30
0
0
VERTEX
8
FIT
10
1133.928783
20
3555.178413
30
0
42
0.004337
0
VERTEX
8
FIT
10
1130.135813
20
3574.815198
30
0
0
SEQEND
8
FIT
0
POLYLINE
8
FIT
66
1
70
0
10
0
20
0
30
0
0
VERTEX
8
FIT
10
1128.11174
20
3584.608181
30
0
42
0.004337
0
VERTEX
8
FIT
10
1123.80918
20
3604.139641
30
0
0
SEQEND
8
FIT
0
POLYLINE
8
FIT
66
1
70
0
10
0
20
0
30
0
0
VERTEX
8
FIT
10
1121.531016
20
3613.87665
30
0
42
0.004337
0
VERTEX
8
FIT
10
1116.721779
20
3633.289563
30
0
0
SEQEND
8
FIT
0
POLYLINE
8
FIT
66
1
70
0
10
0
20
0
30
0
0
VERTEX
8
FIT
10
1114.191067
20
3642.964008
30
0
42
0.004337
0
VERTEX
8
FIT
10
1108.878408
20
3662.245232
30
0
0
SEQEND
8
FIT
0
POLYLINE
8
FIT
66
1
70
0
10
0
20
0
30
0
0
VERTEX
8
FIT
10
1106.096861
20
3671.850563
30
0
42
0.004337
0
VERTEX
8
FIT
10
1100.284378
20
3690.987046
30
0
0
SEQEND
8
FIT
0
POLYLINE
8
FIT
66
1
70
0
10
0
20
0
30
0
0
VERTEX
8
FIT
10
1097.253878
20
3700.51676
30
0
42
0.004337
0
VERTEX
8
FIT
10
1090.945505
20
3719.495548
30
0
0
SEQEND
8
FIT
0
POLYLINE
8
FIT
66
1
70
0
10
0
20
0
30
0
0
VERTEX
8
FIT
10
1087.668105
20
3728.943194
30
0
42
0.004337
0
VERTEX
8
FIT
10
1080.868111
20
3747.751439
30
0
0
SEQEND
8
FIT
0
POLYLINE
8
FIT
66
1
70
0
10
0
20
0
30
0
0
VERTEX
8
FIT
10
1077.34603
20
3757.110622
30
0
42
0.004337
0
VERTEX
8
FIT
10
1070.05902
20
3775.735591
30
0
0
SEQEND
8
FIT
0
POLYLINE
8
FIT
66
1
70
0
10
0
20
0
30
0
0
VERTEX
8
FIT
10
1066.29464
20
3784.999975
30
0
42
0.004337
0
VERTEX
8
FIT
10
1058.525547
20
3803.42906
30
0
0
SEQEND
8
FIT
0
POLYLINE
8
FIT
66
1
70
0
10
0
20
0
30
0
0
VERTEX
8
FIT
10
1054.521418
20
3812.592374
30
0
42
0.004337
0
VERTEX
8
FIT
10
1046.275501
20
3830.813099
30
0
0
SEQEND
8
FIT
0
POLYLINE
8
FIT
66
1
70
0
10
0
20
0
30
0
0
VERTEX
8
FIT
10
1042.034333
20
3839.86914
30
0
42
0.004337
0
VERTEX
8
FIT
10
1033.317174
20
3857.86917
30
0
0
SEQEND
8
FIT
0
POLYLINE
8
FIT
66
1
70
0
10
0
20
0
30
0
0
VERTEX
8
FIT
10
1028.841838
20
3866.811807
30
0
42
0.004337
0
VERTEX
8
FIT
10
1019.659338
20
3884.578958
30
0
0
SEQEND
8
FIT
0
POLYLINE
8
FIT
66
1
70
0
10
0
20
0
30
0
0
VERTEX
8
FIT
10
1014.952865
20
3893.402136
30
0
42
0.004337
0
VERTEX
8
FIT
10
1005.31124
20
3910.924381
30
0
0
SEQEND
8
FIT
0
POLYLINE
8
FIT
66
1
70
0
10
0
20
0
30
0
0
VERTEX
8
FIT
10
1000.376814
20
3919.622128
30
0
42
0.004337
0
VERTEX
8
FIT
10
990.282592
20
3936.887604
30
0
0
SEQEND
8
FIT
0
POLYLINE
8
FIT
66
1
70
0
10
0
20
0
30
0
0
VERTEX
8
FIT
10
985.123554
20
3945.454033
30
0
42
0.004337
0
VERTEX
8
FIT
10
974.583567
20
3962.451052
30
0
0
SEQEND
8
FIT
0
POLYLINE
8
FIT
66
1
70
0
10
0
20
0
30
0
0
VERTEX
8
FIT
10
969.203411
20
3970.880363
30
0
42
0.004337
0
VERTEX
8
FIT
10
958.224794
20
3987.597419
30
0
0
SEQEND
8
FIT
0
POLYLINE
8
FIT
66
1
70
0
10
0
20
0
30
0
0
VERTEX
8
FIT
10
952.62716
20
3995.883906
30
0
42
0.004337
0
VERTEX
8
FIT
10
941.217347
20
4012.309682
30
0
0
SEQEND
8
FIT
0
POLYLINE
8
FIT
66
1
70
0
10
0
20
0
30
0
0
VERTEX
8
FIT
10
935.406025
20
4020.447735
30
0
42
0.004337
0
VERTEX
8
FIT
10
923.572738
20
4036.571113
30
0
0
SEQEND
8
FIT
0
POLYLINE
8
FIT
66
1
70
0
10
0
20
0
30
0
0
VERTEX
8
FIT
10
917.551663
20
4044.555223
30
0
42
0.004337
0
VERTEX
8
FIT
10
905.302913
20
4060.365286
30
0
0
SEQEND
8
FIT
0
POLYLINE
8
FIT
66
1
70
0
10
0
20
0
30
0
0
VERTEX
8
FIT
10
899.07616
20
4068.19005
30
0
42
0.004337
0
VERTEX
8
FIT
10
886.420239
20
4083.676096
30
0
0
SEQEND
8
FIT
0
POLYLINE
8
FIT
66
1
70
0
10
0
20
0
30
0
0
VERTEX
8
FIT
10
879.992023
20
4091.336215
30
0
42
0.004337
0
VERTEX
8
FIT
10
866.937499
20
4106.487761
30
0
0
SEQEND
8
FIT
0
POLYLINE
8
FIT
66
1
70
0
10
0
20
0
30
0
0
VERTEX
8
FIT
10
860.312172
20
4113.97805
30
0
42
0.004337
0
VERTEX
8
FIT
10
846.867882
20
4128.784839
30
0
0
SEQEND
8
FIT
0
POLYLINE
8
FIT
66
1
70
0
10
0
20
0
30
0
0
VERTEX
8
FIT
10
840.049929
20
4136.100227
30
0
42
0.004337
0
VERTEX
8
FIT
10
826.224974
20
4150.552236
30
0
0
SEQEND
8
FIT
0
POLYLINE
8
FIT
66
1
70
0
10
0
20
0
30
0
0
VERTEX
8
FIT
10
819.219011
20
4157.687771
30
0
42
0.004337
0
VERTEX
8
FIT
10
805.022749
20
4171.775217
30
0
0
SEQEND
8
FIT
0
POLYLINE
8
FIT
66
1
70
0
10
0
20
0
30
0
0
VERTEX
8
FIT
10
797.833518
20
4178.726068
30
0
42
0.004337
0
VERTEX
8
FIT
10
783.275561
20
4192.439414
30
0
0
SEQEND
8
FIT
0
POLYLINE
8
FIT
66
1
70
0
10
0
20
0
30
0
0
VERTEX
8
FIT
10
775.907929
20
4199.200876
30
0
42
0.004337
0
VERTEX
8
FIT
10
760.998131
20
4212.530838
30
0
0
SEQEND
8
FIT
0
POLYLINE
8
FIT
66
1
70
0
10
0
20
0
30
0
0
VERTEX
8
FIT
10
753.457085
20
4219.098335
30
0
42
0.004337
0
VERTEX
8
FIT
10
738.205539
20
4232.035889
30
0
0
SEQEND
8
FIT
0
POLYLINE
8
FIT
66
1
70
0
10
0
20
0
30
0
0
VERTEX
8
FIT
10
730.496186
20
4238.404974
30
0
42
0.004337
0
VERTEX
8
FIT
10
714.913217
20
4250.941363
30
0
0
SEQEND
8
FIT
0
POLYLINE
8
FIT
66
1
70
0
10
0
20
0
30
0
0
VERTEX
8
FIT
10
707.040774
20
4257.107724
30
0
42
0.004337
0
VERTEX
8
FIT
10
691.13693
20
4269.234461
30
0
0
SEQEND
8
FIT
0
POLYLINE
8
FIT
66
1
70
0
10
0
20
0
30
0
0
VERTEX
8
FIT
10
683.106727
20
4275.193924
30
0
42
0.004337
0
VERTEX
8
FIT
10
666.892776
20
4286.9028
30
0
0
SEQEND
8
FIT
0
POLYLINE
8
FIT
66
1
70
0
10
0
20
0
30
0
0
VERTEX
8
FIT
10
658.710248
20
4292.651331
30
0
42
0.004337
0
VERTEX
8
FIT
10
642.197166
20
4303.934419
30
0
0
SEQEND
8
FIT
0
POLYLINE
8
FIT
66
1
70
0
10
0
20
0
30
0
0
VERTEX
8
FIT
10
633.867853
20
4309.468127
30
0
42
0.004337
0
VERTEX
8
FIT
10
617.066817
20
4320.317789
30
0
0
SEQEND
8
FIT
0
POLYLINE
8
FIT
66
1
70
0
10
0
20
0
30
0
0
VERTEX
8
FIT
10
608.596358
20
4325.632927
30
0
42
0.002189
0
VERTEX
8
FIT
10
600
20
4330.92323
30
0
0
SEQEND
8
FIT
0
POLYLINE
8
FIT
66
1
70
0
10
0
20
0
30
0
0
VERTEX
8
FIT
10
600
20
4330.92323
30
0
42
0.004337
0
VERTEX
8
FIT
10
583.012443
20
4320.368
30
0
0
SEQEND
8
FIT
0
POLYLINE
8
FIT
66
1
70
0
10
0
20
0
30
0
0
VERTEX
8
FIT
10
574.587962
20
4314.980284
30
0
42
0.004337
0
VERTEX
8
FIT
10
557.880762
20
4303.986675
30
0
0
SEQEND
8
FIT
0
POLYLINE
8
FIT
66
1
70
0
10
0
20
0
30
0
0
VERTEX
8
FIT
10
549.599299
20
4298.38161
30
0
42
0.004337
0
VERTEX
8
FIT
10
533.183765
20
4286.957066
30
0
0
SEQEND
8
FIT
0
POLYLINE
8
FIT
66
1
70
0
10
0
20
0
30
0
0
VERTEX
8
FIT
10
525.050928
20
4281.138446
30
0
42
0.004337
0
VERTEX
8
FIT
10
508.938173
20
4269.2907
30
0
0
SEQEND
8
FIT
0
POLYLINE
8
FIT
66
1
70
0
10
0
20
0
30
0
0
VERTEX
8
FIT
10
500.959467
20
4263.262464
30
0
42
0.004337
0
VERTEX
8
FIT
10
485.160399
20
4250.999536
30
0
0
SEQEND
8
FIT
0
POLYLINE
8
FIT
66
1
70
0
10
0
20
0
30
0
0
VERTEX
8
FIT
10
477.341224
20
4244.765766
30
0
42
0.004337
0
VERTEX
8
FIT
10
461.866538
20
4232.095958
30
0
0
SEQEND
8
FIT
0
POLYLINE
8
FIT
66
1
70
0
10
0
20
0
30
0
0
VERTEX
8
FIT
10
454.212189
20
4225.660873
30
0
42
0.004337
0
VERTEX
8
FIT
10
439.072359
20
4212.592762
30
0
0
SEQEND
8
FIT
0
POLYLINE
8
FIT
66
1
70
0
10
0
20
0
30
0
0
VERTEX
8
FIT
10
431.588017
20
4205.960719
30
0
42
0.004337
0
VERTEX
8
FIT
10
416.793294
20
4192.50315
30
0
0
SEQEND
8
FIT
0
POLYLINE
8
FIT
66
1
70
0
10
0
20
0
30
0
0
VERTEX
8
FIT
10
409.484026
20
4185.678638
30
0
42
0.004337
0
VERTEX
8
FIT
10
395.044424
20
4171.840724
30
0
0
SEQEND
8
FIT
0
POLYLINE
8
FIT
66
1
70
0
10
0
20
0
30
0
0
VERTEX
8
FIT
10
387.915177
20
4164.828362
30
0
42
0.004337
0
VERTEX
8
FIT
10
373.840473
20
4150.619469
30
0
0
SEQEND
8
FIT
0
POLYLINE
8
FIT
66
1
70
0
10
0
20
0
30
0
0
VERTEX
8
FIT
10
366.896074
20
4143.424005
30
0
42
0.004337
0
VERTEX
8
FIT
10
353.195793
20
4128.853751
30
0
0
SEQEND
8
FIT
0
POLYLINE
8
FIT
66
1
70
0
10
0
20
0
30
0
0
VERTEX
8
FIT
10
346.440943
20
4121.480057
30
0
42
0.004337
0
VERTEX
8
FIT
10
333.124362
20
4106.558307
30
0
0
SEQEND
8
FIT
0
POLYLINE
8
FIT
66
1
70
0
10
0
20
0
30
0
0
VERTEX
8
FIT
10
326.563633
20
4099.011373
30
0
42
0.004337
0
VERTEX
8
FIT
10
313.639766
20
4083.748227
30
0
0
SEQEND
8
FIT
0
POLYLINE
8
FIT
66
1
70
0
10
0
20
0
30
0
0
VERTEX
8
FIT
10
307.277599
20
4076.033163
30
0
42
0.004337
0
VERTEX
8
FIT
10
294.755195
20
4060.438954
30
0
0
SEQEND
8
FIT
0
POLYLINE
8
FIT
66
1
70
0
10
0
20
0
30
0
0
VERTEX
8
FIT
10
288.595898
20
4052.560982
30
0
42
0.004337
0
VERTEX
8
FIT
10
276.483433
20
4036.646267
30
0
0
SEQEND
8
FIT
0
POLYLINE
8
FIT
66
1
70
0
10
0
20
0
30
0
0
VERTEX
8
FIT
10
270.531176
20
4028.61072
30
0
42
0.004337
0
VERTEX
8
FIT
10
258.83685
20
4012.386272
30
0
0
SEQEND
8
FIT
0
POLYLINE
8
FIT
66
1
70
0
10
0
20
0
30
0
0
VERTEX
8
FIT
10
253.095662
20
4004.198591
30
0
42
0.004337
0
VERTEX
8
FIT
10
241.827392
20
3987.675393
30
0
0
SEQEND
8
FIT
0
POLYLINE
8
FIT
66
1
70
0
10
0
20
0
30
0
0
VERTEX
8
FIT
10
236.301159
20
3979.341119
30
0
42
0.004337
0
VERTEX
8
FIT
10
225.466573
20
3962.530357
30
0
0
SEQEND
8
FIT
0
POLYLINE
8
FIT
66
1
70
0
10
0
20
0
30
0
0
VERTEX
8
FIT
10
220.159036
20
3954.055133
30
0
42
0.004337
0
VERTEX
8
FIT
10
209.765468
20
3936.968187
30
0
0
SEQEND
8
FIT
0
POLYLINE
8
FIT
66
1
70
0
10
0
20
0
30
0
0
VERTEX
8
FIT
10
204.68022
20
3928.35775
30
0
42
0.004337
0
VERTEX
8
FIT
10
194.734707
20
3911.006187
30
0
0
SEQEND
8
FIT
0
POLYLINE
8
FIT
66
1
70
0
10
0
20
0
30
0
0
VERTEX
8
FIT
10
189.875191
20
3902.266366
30
0
42
0.004337
0
VERTEX
8
FIT
10
180.384465
20
3884.661932
30
0
0
SEQEND
8
FIT
0
POLYLINE
8
FIT
66
1
70
0
10
0
20
0
30
0
0
VERTEX
8
FIT
10
175.75397
20
3875.798643
30
0
42
0.004337
0
VERTEX
8
FIT
10
166.724456
20
3857.953256
30
0
0
SEQEND
8
FIT
0
POLYLINE
8
FIT
66
1
70
0
10
0
20
0
30
0
0
VERTEX
8
FIT
10
162.326117
20
3848.972499
30
0
42
0.004337
0
VERTEX
8
FIT
10
153.763927
20
3830.898239
30
0
0
SEQEND
8
FIT
0
POLYLINE
8
FIT
66
1
70
0
10
0
20
0
30
0
0
VERTEX
8
FIT
10
149.600721
20
3821.806095
30
0
42
0.004337
0
VERTEX
8
FIT
10
141.511653
20
3803.515197
30
0
0
SEQEND
8
FIT
0
POLYLINE
8
FIT
66
1
70
0
10
0
20
0
30
0
0
VERTEX
8
FIT
10
137.586398
20
3794.31782
30
0
42
0.004337
0
VERTEX
8
FIT
10
129.975926
20
3775.822667
30
0
0
SEQEND
8
FIT
0
POLYLINE
8
FIT
66
1
70
0
10
0
20
0
30
0
0
VERTEX
8
FIT
10
126.291281
20
3766.526282
30
0
42
0.004337
0
VERTEX
8
FIT
10
119.164558
20
3747.839394
30
0
0
SEQEND
8
FIT
0
POLYLINE
8
FIT
66
1
70
0
10
0
20
0
30
0
0
VERTEX
8
FIT
10
115.723015
20
3738.450296
30
0
42
0.004337
0
VERTEX
8
FIT
10
109.084865
20
3719.584323
30
0
0
SEQEND
8
FIT
0
POLYLINE
8
FIT
66
1
70
0
10
0
20
0
30
0
0
VERTEX
8
FIT
10
105.888756
20
3710.108868
30
0
42
0.004337
0
VERTEX
8
FIT
10
99.743672
20
3691.076582
30
0
0
SEQEND
8
FIT
0
POLYLINE
8
FIT
66
1
70
0
10
0
20
0
30
0
0
VERTEX
8
FIT
10
96.79516
20
3681.521183
30
0
42
0.004337
0
VERTEX
8
FIT
10
91.147303
20
3662.335467
30
0
0
SEQEND
8
FIT
0
POLYLINE
8
FIT
66
1
70
0
10
0
20
0
30
0
0
VERTEX
8
FIT
10
88.448383
20
3652.706594
30
0
42
0.004337
0
VERTEX
8
FIT
10
83.301576
20
3633.380437
30
0
0
SEQEND
8
FIT
0
POLYLINE
8
FIT
66
1
70
0
10
0
20
0
30
0
0
VERTEX
8
FIT
10
80.854076
20
3623.684607
30
0
42
0.004337
0
VERTEX
8
FIT
10
76.211803
20
3604.231091
30
0
0
SEQEND
8
FIT
0
POLYLINE
8
FIT
66
1
70
0
10
0
20
0
30
0
0
VERTEX
8
FIT
10
74.01738
20
3594.474868
30
0
42
0.004337
0
VERTEX
8
FIT
10
69.882783
20
3574.907163
30
0
0
SEQEND
8
FIT
0
POLYLINE
8
FIT
66
1
70
0
10
0
20
0
30
0
0
VERTEX
8
FIT
10
67.942922
20
3565.097153
30
0
42
0.004337
0
VERTEX
8
FIT
10
64.318802
20
3545.428504
30
0
0
SEQEND
8
FIT
0
POLYLINE
8
FIT
66
1
70
0
10
0
20
0
30
0
0
VERTEX
8
FIT
10
62.634815
20
3535.571346
30
0
42
0.004337
0
VERTEX
8
FIT
10
59.523624
20
3515.81507
30
0
0
SEQEND
8
FIT
0
POLYLINE
8
FIT
66
1
70
0
10
0
20
0
30
0
0
VERTEX
8
FIT
10
58.096653
20
3505.917437
30
0
42
0.004337
0
VERTEX
8
FIT
10
55.500497
20
3486.086907
30
0
0
SEQEND
8
FIT
0
POLYLINE
8
FIT
66
1
70
0
10
0
20
0
30
0
0
VERTEX
8
FIT
10
54.331507
20
3476.1555
30
0
42
0.004337
0
VERTEX
8
FIT
10
52.252144
20
3456.26414
30
0
0
SEQEND
8
FIT
0
POLYLINE
8
FIT
66
1
70
0
10
0
20
0
30
0
0
VERTEX
8
FIT
10
51.341927
20
3446.305682
30
0
42
0.004337
0
VERTEX
8
FIT
10
49.780764
20
3426.366958
30
0
0
SEQEND
8
FIT
0
POLYLINE
8
FIT
66
1
70
0
10
0
20
0
30
0
0
VERTEX
8
FIT
10
49.129936
20
3416.38819
30
0
42
0.004337
0
VERTEX
8
FIT
10
48.08803
20
3396.415599
30
0
0
SEQEND
8
FIT
0
POLYLINE
8
FIT
66
1
70
0
10
0
20
0
30
0
0
VERTEX
8
FIT
10
47.697031
20
3386.423277
30
0
42
0.004337
0
VERTEX
8
FIT
10
47.175087
20
3366.43034
30
0
0
SEQEND
8
FIT
0
POLYLINE
8
FIT
66
1
70
0
10
0
20
0
30
0
0
VERTEX
8
FIT
10
47.044182
20
3356.431228
30
0
42
0.002189
0
VERTEX
8
FIT
10
47
20
3346.337531
30
0
0
SEQEND
8
FIT
0
TEXT
8
TEXT
10
1300
20
4367.068015
30
0
40
15
1
T - FIT (ASSEMBLY, NOT A TOOLPATH)
72
0
11
1300
21
4367.068015
31
0
73
0
0
TEXT
8
TEXT
10
1300
20
4345.068015
30
0
40
15
1
GAP 4 LAP 17 (REBATE)
72
0
11
1300
21
4345.068015
31
0
73
0
0
TEXT
8
TEXT
10
1300
20
4323.068015
30
0
40
15
1
FRAME R1200/1200 / 1132/1132  REBATE WALL R1153/1153 (LAND 47, DASHED)
72
0
11
1300
21
4323.068015
31
0
73
0
0
TEXT
8
TEXT
10
1300
20
4301.068015
30
0
40
15
1
LEAF R1149/1149 / 1082/1082  GLASS R1094.5/1094.5
72
0
11
1300
21
4301.068015
31
0
73
0
0
ENDSEC
0
EOF
