0
SECTION
2
HEADER
9
$ACADVER
1
AC1009
0
ENDSEC
0
SECTION
2
TABLES
0
TABLE
2
LAYER
70
8
0
LAYER
2
0
70
0
62
7
6
CONTINUOUS
0
LAYER
2
FIT
70
0
62
4
6
CONTINUOUS
0
LAYER
2
CONTOUR
70
0
62
7
6
CONTINUOUS
0
LAYER
2
ASSEMBLY
70
0
62
8
6
CONTINUOUS
0
LAYER
2
PIECES
70
0
62
5
6
CONTINUOUS
0
LAYER
2
FINGER
70
0
62
1
6
CONTINUOUS
0
LAYER
2
CLAMPS
70
0
62
3
6
CONTINUOUS
0
LAYER
2
TEXT
70
0
62
94
6
CONTINUOUS
0
ENDTAB
0
ENDSEC
0
SECTION
2
ENTITIES
0
POLYLINE
8
PIECES
66
1
70
1
10
0
20
0
30
0
0
VERTEX
8
PIECES
10
580.201015
20
0
30
0
0
VERTEX
8
PIECES
10
86.60254
20
0
30
0
0
VERTEX
8
PIECES
10
0
20
150
30
0
0
VERTEX
8
PIECES
10
580.201015
20
150
30
0
0
SEQEND
8
PIECES
0
POLYLINE
8
CLAMPS
66
1
70
1
10
0
20
0
30
0
0
VERTEX
8
CLAMPS
10
115.829038
20
10
30
0
0
VERTEX
8
CLAMPS
10
245.829038
20
10
30
0
0
VERTEX
8
CLAMPS
10
245.829038
20
140
30
0
0
VERTEX
8
CLAMPS
10
115.829038
20
140
30
0
0
SEQEND
8
CLAMPS
0
POLYLINE
8
CLAMPS
66
1
70
1
10
0
20
0
30
0
0
VERTEX
8
CLAMPS
10
430.201015
20
10
30
0
0
VERTEX
8
CLAMPS
10
560.201015
20
10
30
0
0
VERTEX
8
CLAMPS
10
560.201015
20
140
30
0
0
VERTEX
8
CLAMPS
10
430.201015
20
140
30
0
0
SEQEND
8
CLAMPS
0
TEXT
8
TEXT
10
290.100508
20
-25
30
0
40
15
1
SS - S-ARCH TOP RAIL P1 L580.2 x150
72
1
11
290.100508
21
-25
31
0
73
2
0
TEXT
8
TEXT
10
290.100508
20
-50
30
0
40
10
1
OUT 565.2 IN 478.6 CUT J30/Q FINGER ONE END
72
1
11
290.100508
21
-50
31
0
73
2
0
POLYLINE
8
PIECES
66
1
70
1
10
0
20
0
30
0
0
VERTEX
8
PIECES
10
1333.000506
20
0
30
0
0
VERTEX
8
PIECES
10
866.803556
20
0
30
0
0
VERTEX
8
PIECES
10
780.201015
20
150
30
0
0
VERTEX
8
PIECES
10
1419.603046
20
150
30
0
0
SEQEND
8
PIECES
0
POLYLINE
8
CLAMPS
66
1
70
1
10
0
20
0
30
0
0
VERTEX
8
CLAMPS
10
896.030053
20
10
30
0
0
VERTEX
8
CLAMPS
10
1026.030053
20
10
30
0
0
VERTEX
8
CLAMPS
10
1026.030053
20
140
30
0
0
VERTEX
8
CLAMPS
10
896.030053
20
140
30
0
0
SEQEND
8
CLAMPS
0
POLYLINE
8
CLAMPS
66
1
70
1
10
0
20
0
30
0
0
VERTEX
8
CLAMPS
10
1173.774008
20
10
30
0
0
VERTEX
8
CLAMPS
10
1303.774008
20
10
30
0
0
VERTEX
8
CLAMPS
10
1303.774008
20
140
30
0
0
VERTEX
8
CLAMPS
10
1173.774008
20
140
30
0
0
SEQEND
8
CLAMPS
0
TEXT
8
TEXT
10
1099.902031
20
-25
30
0
40
15
1
SS - S-ARCH TOP RAIL P2 L639.4 x150
72
1
11
1099.902031
21
-25
31
0
73
2
0
TEXT
8
TEXT
10
1099.902031
20
-50
30
0
40
10
1
OUT 609.4 IN 436.2 CUT J30/J30 FINGER BOTH ENDS
72
1
11
1099.902031
21
-50
31
0
73
2
0
POLYLINE
8
PIECES
66
1
70
1
10
0
20
0
30
0
0
VERTEX
8
PIECES
10
2113.201521
20
0
30
0
0
VERTEX
8
PIECES
10
1619.603046
20
0
30
0
0
VERTEX
8
PIECES
10
1619.603046
20
150
30
0
0
VERTEX
8
PIECES
10
2199.804061
20
150
30
0
0
SEQEND
8
PIECES
0
POLYLINE
8
CLAMPS
66
1
70
1
10
0
20
0
30
0
0
VERTEX
8
CLAMPS
10
1639.603046
20
10
30
0
0
VERTEX
8
CLAMPS
10
1769.603046
20
10
30
0
0
VERTEX
8
CLAMPS
10
1769.603046
20
140
30
0
0
VERTEX
8
CLAMPS
10
1639.603046
20
140
30
0
0
SEQEND
8
CLAMPS
0
POLYLINE
8
CLAMPS
66
1
70
1
10
0
20
0
30
0
0
VERTEX
8
CLAMPS
10
1953.975024
20
10
30
0
0
VERTEX
8
CLAMPS
10
2083.975024
20
10
30
0
0
VERTEX
8
CLAMPS
10
2083.975024
20
140
30
0
0
VERTEX
8
CLAMPS
10
1953.975024
20
140
30
0
0
SEQEND
8
CLAMPS
0
TEXT
8
TEXT
10
1909.703554
20
-25
30
0
40
15
1
SS - S-ARCH TOP RAIL P3 L580.2 x150
72
1
11
1909.703554
21
-25
31
0
73
2
0
TEXT
8
TEXT
10
1909.703554
20
-50
30
0
40
10
1
OUT 565.2 IN 478.6 CUT Q/J30 FINGER ONE END
72
1
11
1909.703554
21
-50
31
0
73
2
0
POLYLINE
8
CONTOUR
66
1
70
1
10
0
20
0
30
0
0
VERTEX
8
CONTOUR
10
1098.301523
20
386.720798
30
0
42
1
0
VERTEX
8
CONTOUR
10
76.301523
20
386.720798
30
0
0
VERTEX
8
CONTOUR
10
133.301523
20
386.720798
30
0
42
-1
0
VERTEX
8
CONTOUR
10
1041.301523
20
386.720798
30
0
0
SEQEND
8
CONTOUR
0
POLYLINE
8
ASSEMBLY
66
1
70
1
10
0
20
0
30
0
0
VERTEX
8
ASSEMBLY
10
1044.699235
20
350
30
0
0
VERTEX
8
ASSEMBLY
10
805.399998
20
764.478438
30
0
0
VERTEX
8
ASSEMBLY
10
892.002538
20
914.478438
30
0
0
VERTEX
8
ASSEMBLY
10
1174.603046
20
425
30
0
0
SEQEND
8
ASSEMBLY
0
POLYLINE
8
FINGER
66
1
70
0
10
0
20
0
30
0
0
VERTEX
8
FINGER
10
814.301523
20
779.896331
30
0
0
VERTEX
8
FINGER
10
842.801523
20
829.259779
30
0
0
SEQEND
8
FINGER
0
POLYLINE
8
ASSEMBLY
66
1
70
1
10
0
20
0
30
0
0
VERTEX
8
ASSEMBLY
10
805.399998
20
764.478438
30
0
0
VERTEX
8
ASSEMBLY
10
369.203048
20
764.478438
30
0
0
VERTEX
8
ASSEMBLY
10
282.600508
20
914.478438
30
0
0
VERTEX
8
ASSEMBLY
10
892.002538
20
914.478438
30
0
0
SEQEND
8
ASSEMBLY
0
POLYLINE
8
FINGER
66
1
70
0
10
0
20
0
30
0
0
VERTEX
8
FINGER
10
360.301523
20
779.896331
30
0
0
VERTEX
8
FINGER
10
331.801523
20
829.259779
30
0
0
SEQEND
8
FINGER
0
POLYLINE
8
ASSEMBLY
66
1
70
1
10
0
20
0
30
0
0
VERTEX
8
ASSEMBLY
10
369.203048
20
764.478438
30
0
0
VERTEX
8
ASSEMBLY
10
129.903811
20
350
30
0
0
VERTEX
8
ASSEMBLY
10
0
20
425
30
0
0
VERTEX
8
ASSEMBLY
10
282.600508
20
914.478438
30
0
0
SEQEND
8
ASSEMBLY
0
TEXT
8
TEXT
10
1274.603046
20
895.978438
30
0
40
15
1
SS - S-ARCH TOP RAIL
72
0
11
1274.603046
21
895.978438
31
0
73
0
0
TEXT
8
TEXT
10
1274.603046
20
873.978438
30
0
40
15
1
SEMI-CIRCLE W1200 RISE600 H2600 SASH
72
0
11
1274.603046
21
873.978438
31
0
73
0
0
TEXT
8
TEXT
10
1274.603046
20
851.978438
30
0
40
15
1
FACE 57 OFFSET 89 OUTER L1605.4 INNER L1426.3
72
0
11
1274.603046
21
851.978438
31
0
73
0
0
TEXT
8
TEXT
10
1274.603046
20
829.978438
30
0
40
15
1
CHAIN R511 L1605.4 180DEG: FEWEST 3 x board 150 L609.4 ROUGH 639.4 WASTE 57%
72
0
11
1274.603046
21
829.978438
31
0
73
0
0
TEXT
8
TEXT
10
1274.603046
20
807.978438
30
0
40
15
1
  NO ECONOMY ALT WITHIN 6 PIECES -> DEFAULT FEWEST
72
0
11
1274.603046
21
807.978438
31
0
73
0
0
TEXT
8
TEXT
10
1274.603046
20
785.978438
30
0
40
15
1
FINGER 15/16/3.8
72
0
11
1274.603046
21
785.978438
31
0
73
0
0
TEXT
8
TEXT
10
1274.603046
20
763.978438
30
0
40
15
1
ALLOWANCE 10 PER SIDE  LIMITS: OVERALL >= 450 (CLAMP)  SHORTER EDGE >= 400  STOCK MAX 200
72
0
11
1274.603046
21
763.978438
31
0
73
0
0
TEXT
8
TEXT
10
1274.603046
20
741.978438
30
0
40
15
1
CLAMPS (SUGGESTION): UNICLAMP 130 x 130, CLEARANCE 20 FROM THE END CUTS, JAWS 40-98, PIECE THICKNESS 57
72
0
11
1274.603046
21
741.978438
31
0
73
0
0
TEXT
8
TEXT
10
1274.603046
20
719.978438
30
0
40
15
1
CUT CODES: J = JOINT FROM SQUARE  Q = SQUARE (SPRINGING FACE ROUTED WITH THE CONTOUR)  A = APEX FROM SQUARE
72
0
11
1274.603046
21
719.978438
31
0
73
0
0
POLYLINE
8
PIECES
66
1
70
1
10
0
20
0
30
0
0
VERTEX
8
PIECES
10
675.553356
20
1114.478438
30
0
0
VERTEX
8
PIECES
10
103.923048
20
1114.478438
30
0
0
VERTEX
8
PIECES
10
0
20
1294.478438
30
0
0
VERTEX
8
PIECES
10
675.553356
20
1294.478438
30
0
0
SEQEND
8
PIECES
0
POLYLINE
8
CLAMPS
66
1
70
1
10
0
20
0
30
0
0
VERTEX
8
CLAMPS
10
124.489292
20
1139.478438
30
0
0
VERTEX
8
CLAMPS
10
254.489292
20
1139.478438
30
0
0
VERTEX
8
CLAMPS
10
254.489292
20
1269.478438
30
0
0
VERTEX
8
CLAMPS
10
124.489292
20
1269.478438
30
0
0
SEQEND
8
CLAMPS
0
POLYLINE
8
CLAMPS
66
1
70
1
10
0
20
0
30
0
0
VERTEX
8
CLAMPS
10
525.553356
20
1139.478438
30
0
0
VERTEX
8
CLAMPS
10
655.553356
20
1139.478438
30
0
0
VERTEX
8
CLAMPS
10
655.553356
20
1269.478438
30
0
0
VERTEX
8
CLAMPS
10
525.553356
20
1269.478438
30
0
0
SEQEND
8
CLAMPS
0
TEXT
8
TEXT
10
337.776678
20
1089.478438
30
0
40
15
1
SS - S-ARCH HEAD P1 L675.6 x180
72
1
11
337.776678
21
1089.478438
31
0
73
2
0
TEXT
8
TEXT
10
337.776678
20
1064.478438
30
0
40
10
1
OUT 660.6 IN 556.6 CUT J30/Q FINGER ONE END
72
1
11
337.776678
21
1064.478438
31
0
73
2
0
POLYLINE
8
PIECES
66
1
70
1
10
0
20
0
30
0
0
VERTEX
8
PIECES
10
1512.737021
20
1114.478438
30
0
0
VERTEX
8
PIECES
10
979.476405
20
1114.478438
30
0
0
VERTEX
8
PIECES
10
875.553356
20
1294.478438
30
0
0
VERTEX
8
PIECES
10
1616.660069
20
1294.478438
30
0
0
SEQEND
8
PIECES
0
POLYLINE
8
CLAMPS
66
1
70
1
10
0
20
0
30
0
0
VERTEX
8
CLAMPS
10
1000.042648
20
1139.478438
30
0
0
VERTEX
8
CLAMPS
10
1130.042648
20
1139.478438
30
0
0
VERTEX
8
CLAMPS
10
1130.042648
20
1269.478438
30
0
0
VERTEX
8
CLAMPS
10
1000.042648
20
1269.478438
30
0
0
SEQEND
8
CLAMPS
0
POLYLINE
8
CLAMPS
66
1
70
1
10
0
20
0
30
0
0
VERTEX
8
CLAMPS
10
1362.170777
20
1139.478438
30
0
0
VERTEX
8
CLAMPS
10
1492.170777
20
1139.478438
30
0
0
VERTEX
8
CLAMPS
10
1492.170777
20
1269.478438
30
0
0
VERTEX
8
CLAMPS
10
1362.170777
20
1269.478438
30
0
0
SEQEND
8
CLAMPS
0
TEXT
8
TEXT
10
1246.106713
20
1089.478438
30
0
40
15
1
SS - S-ARCH HEAD P2 L741.1 x180
72
1
11
1246.106713
21
1089.478438
31
0
73
2
0
TEXT
8
TEXT
10
1246.106713
20
1064.478438
30
0
40
10
1
OUT 711.1 IN 503.3 CUT J30/J30 FINGER BOTH ENDS
72
1
11
1246.106713
21
1064.478438
31
0
73
2
0
POLYLINE
8
PIECES
66
1
70
1
10
0
20
0
30
0
0
VERTEX
8
PIECES
10
2388.290377
20
1114.478438
30
0
0
VERTEX
8
PIECES
10
1816.660069
20
1114.478438
30
0
0
VERTEX
8
PIECES
10
1816.660069
20
1294.478438
30
0
0
VERTEX
8
PIECES
10
2492.213425
20
1294.478438
30
0
0
SEQEND
8
PIECES
0
POLYLINE
8
CLAMPS
66
1
70
1
10
0
20
0
30
0
0
VERTEX
8
CLAMPS
10
1836.660069
20
1139.478438
30
0
0
VERTEX
8
CLAMPS
10
1966.660069
20
1139.478438
30
0
0
VERTEX
8
CLAMPS
10
1966.660069
20
1269.478438
30
0
0
VERTEX
8
CLAMPS
10
1836.660069
20
1269.478438
30
0
0
SEQEND
8
CLAMPS
0
POLYLINE
8
CLAMPS
66
1
70
1
10
0
20
0
30
0
0
VERTEX
8
CLAMPS
10
2237.724134
20
1139.478438
30
0
0
VERTEX
8
CLAMPS
10
2367.724134
20
1139.478438
30
0
0
VERTEX
8
CLAMPS
10
2367.724134
20
1269.478438
30
0
0
VERTEX
8
CLAMPS
10
2237.724134
20
1269.478438
30
0
0
SEQEND
8
CLAMPS
0
TEXT
8
TEXT
10
2154.436747
20
1089.478438
30
0
40
15
1
SS - S-ARCH HEAD P3 L675.6 x180
72
1
11
2154.436747
21
1089.478438
31
0
73
2
0
TEXT
8
TEXT
10
2154.436747
20
1064.478438
30
0
40
10
1
OUT 660.6 IN 556.6 CUT Q/J30 FINGER ONE END
72
1
11
2154.436747
21
1064.478438
31
0
73
2
0
POLYLINE
8
CONTOUR
66
1
70
1
10
0
20
0
30
0
0
VERTEX
8
CONTOUR
10
1285.830034
20
1540.697947
30
0
42
1
0
VERTEX
8
CONTOUR
10
85.830034
20
1540.697947
30
0
0
VERTEX
8
CONTOUR
10
165.830034
20
1540.697947
30
0
42
-1
0
VERTEX
8
CONTOUR
10
1205.830034
20
1540.697947
30
0
0
SEQEND
8
CONTOUR
0
POLYLINE
8
ASSEMBLY
66
1
70
1
10
0
20
0
30
0
0
VERTEX
8
ASSEMBLY
10
1215.775496
20
1494.478438
30
0
0
VERTEX
8
ASSEMBLY
10
937.460342
20
1976.534425
30
0
0
VERTEX
8
ASSEMBLY
10
1041.383391
20
2156.534425
30
0
0
VERTEX
8
ASSEMBLY
10
1371.660069
20
1584.478438
30
0
0
SEQEND
8
ASSEMBLY
0
POLYLINE
8
FINGER
66
1
70
0
10
0
20
0
30
0
0
VERTEX
8
FINGER
10
945.830034
20
1991.031157
30
0
0
VERTEX
8
FINGER
10
985.830034
20
2060.313189
30
0
0
SEQEND
8
FINGER
0
POLYLINE
8
ASSEMBLY
66
1
70
1
10
0
20
0
30
0
0
VERTEX
8
ASSEMBLY
10
937.460342
20
1976.534425
30
0
0
VERTEX
8
ASSEMBLY
10
434.199727
20
1976.534425
30
0
0
VERTEX
8
ASSEMBLY
10
330.276678
20
2156.534425
30
0
0
VERTEX
8
ASSEMBLY
10
1041.383391
20
2156.534425
30
0
0
SEQEND
8
ASSEMBLY
0
POLYLINE
8
FINGER
66
1
70
0
10
0
20
0
30
0
0
VERTEX
8
FINGER
10
425.830034
20
1991.031157
30
0
0
VERTEX
8
FINGER
10
385.830034
20
2060.313189
30
0
0
SEQEND
8
FINGER
0
POLYLINE
8
ASSEMBLY
66
1
70
1
10
0
20
0
30
0
0
VERTEX
8
ASSEMBLY
10
434.199727
20
1976.534425
30
0
0
VERTEX
8
ASSEMBLY
10
155.884573
20
1494.478438
30
0
0
VERTEX
8
ASSEMBLY
10
0
20
1584.478438
30
0
0
VERTEX
8
ASSEMBLY
10
330.276678
20
2156.534425
30
0
0
SEQEND
8
ASSEMBLY
0
TEXT
8
TEXT
10
1471.660069
20
2138.034425
30
0
40
15
1
SS - S-ARCH HEAD
72
0
11
1471.660069
21
2138.034425
31
0
73
0
0
TEXT
8
TEXT
10
1471.660069
20
2116.034425
30
0
40
15
1
SEMI-CIRCLE W1200 RISE600 H2600 SASH
72
0
11
1471.660069
21
2116.034425
31
0
73
0
0
TEXT
8
TEXT
10
1471.660069
20
2094.034425
30
0
40
15
1
FACE 80 OFFSET 0 OUTER L1885 INNER L1633.6
72
0
11
1471.660069
21
2094.034425
31
0
73
0
0
TEXT
8
TEXT
10
1471.660069
20
2072.034425
30
0
40
15
1
CHAIN R600 L1885 180DEG: FEWEST 3 x board 180 L711.1 ROUGH 741.1 WASTE 53%
72
0
11
1471.660069
21
2072.034425
31
0
73
0
0
TEXT
8
TEXT
10
1471.660069
20
2050.034425
30
0
40
15
1
  NO ECONOMY ALT WITHIN 6 PIECES -> DEFAULT FEWEST
72
0
11
1471.660069
21
2050.034425
31
0
73
0
0
TEXT
8
TEXT
10
1471.660069
20
2028.034425
30
0
40
15
1
FINGER 15/16/3.8
72
0
11
1471.660069
21
2028.034425
31
0
73
0
0
TEXT
8
TEXT
10
1471.660069
20
2006.034425
30
0
40
15
1
ALLOWANCE 10 PER SIDE  LIMITS: OVERALL >= 450 (CLAMP)  SHORTER EDGE >= 400  STOCK MAX 200
72
0
11
1471.660069
21
2006.034425
31
0
73
0
0
TEXT
8
TEXT
10
1471.660069
20
1984.034425
30
0
40
15
1
CLAMPS (SUGGESTION): UNICLAMP 130 x 130, CLEARANCE 20 FROM THE END CUTS, JAWS 40-98, PIECE THICKNESS 164
72
0
11
1471.660069
21
1984.034425
31
0
73
0
0
TEXT
8
TEXT
10
1471.660069
20
1962.034425
30
0
40
15
1
WARNING: PIECE THICKNESS 164 OUTSIDE THE UNICLAMP JAWS 40-98
72
0
11
1471.660069
21
1962.034425
31
0
73
0
0
TEXT
8
TEXT
10
1471.660069
20
1940.034425
30
0
40
15
1
CUT CODES: J = JOINT FROM SQUARE  Q = SQUARE (SPRINGING FACE ROUTED WITH THE CONTOUR)  A = APEX FROM SQUARE
72
0
11
1471.660069
21
1940.034425
31
0
73
0
0
POLYLINE
8
FIT
66
1
70
1
10
0
20
0
30
0
0
VERTEX
8
FIT
10
1200
20
2356.534425
30
0
42
1
0
VERTEX
8
FIT
10
0
20
2356.534425
30
0
0
VERTEX
8
FIT
10
80
20
2356.534425
30
0
42
-1
0
VERTEX
8
FIT
10
1120
20
2356.534425
30
0
0
SEQEND
8
FIT
0
POLYLINE
8
FIT
66
1
70
1
10
0
20
0
30
0
0
VERTEX
8
FIT
10
1111
20
2356.534425
30
0
42
1
0
VERTEX
8
FIT
10
89
20
2356.534425
30
0
0
VERTEX
8
FIT
10
146
20
2356.534425
30
0
42
-1
0
VERTEX
8
FIT
10
1054
20
2356.534425
30
0
0
SEQEND
8
FIT
0
POLYLINE
8
FIT
66
1
70
1
10
0
20
0
30
0
0
VERTEX
8
FIT
10
1066.5
20
2356.534425
30
0
42
1
0
VERTEX
8
FIT
10
133.5
20
2356.534425
30
0
0
SEQEND
8
FIT
0
TEXT
8
TEXT
10
1300
20
2426.034425
30
0
40
15
1
SS - FIT (ASSEMBLY, NOT A TOOLPATH)
72
0
11
1300
21
2426.034425
31
0
73
0
0
TEXT
8
TEXT
10
1300
20
2404.034425
30
0
40
15
1
RUNNING GAP 9 (HEAD 80 FACE, SASH AT THE STILE LINE)
72
0
11
1300
21
2404.034425
31
0
73
0
0
TEXT
8
TEXT
10
1300
20
2382.034425
30
0
40
15
1
HEAD R600 / 520
72
0
11
1300
21
2382.034425
31
0
73
0
0
TEXT
8
TEXT
10
1300
20
2360.034425
30
0
40
15
1
TOP RAIL R511 / 454  GLASS R466.5
72
0
11
1300
21
2360.034425
31
0
73
0
0
ENDSEC
0
EOF
