0
SECTION
2
HEADER
9
$ACADVER
1
AC1009
0
ENDSEC
0
SECTION
2
TABLES
0
TABLE
2
LAYER
70
7
0
LAYER
2
0
70
0
62
7
6
CONTINUOUS
0
LAYER
2
FIT
70
0
62
4
6
CONTINUOUS
0
LAYER
2
CONTOUR
70
0
62
7
6
CONTINUOUS
0
LAYER
2
ASSEMBLY
70
0
62
8
6
CONTINUOUS
0
LAYER
2
PIECES
70
0
62
5
6
CONTINUOUS
0
LAYER
2
FINGER
70
0
62
1
6
CONTINUOUS
0
LAYER
2
TEXT
70
0
62
94
6
CONTINUOUS
0
ENDTAB
0
ENDSEC
0
SECTION
2
ENTITIES
0
POLYLINE
8
ASSEMBLY
66
1
70
1
10
0
20
0
30
0
0
VERTEX
8
ASSEMBLY
10
0
20
0
30
0
0
VERTEX
8
ASSEMBLY
10
275.192309
20
0
30
0
0
VERTEX
8
ASSEMBLY
10
275.192309
20
95
30
0
0
VERTEX
8
ASSEMBLY
10
0
20
95
30
0
0
SEQEND
8
ASSEMBLY
0
POLYLINE
8
PIECES
66
1
70
1
10
0
20
0
30
0
0
VERTEX
8
PIECES
10
272.102139
20
64.302507
30
0
42
0.158384
0
VERTEX
8
PIECES
10
18.09017
20
64.302507
30
0
0
VERTEX
8
PIECES
10
35.704139
20
10.092286
30
0
42
-0.158384
0
VERTEX
8
PIECES
10
254.488171
20
10.092286
30
0
0
SEQEND
8
PIECES
0
POLYLINE
8
FINGER
66
1
70
0
10
0
20
0
30
0
0
VERTEX
8
FINGER
10
35.704139
20
10.092286
30
0
0
VERTEX
8
FINGER
10
18.09017
20
64.302507
30
0
0
SEQEND
8
FINGER
0
POLYLINE
8
FINGER
66
1
70
0
10
0
20
0
30
0
0
VERTEX
8
FINGER
10
16
20
0
30
0
0
VERTEX
8
FINGER
10
16
20
95
30
0
0
SEQEND
8
FINGER
0
TEXT
8
TEXT
10
137.596155
20
57.5
30
0
40
15
1
SS - S-ARCH TOP RAIL P1 L275.2 x95
72
1
11
137.596155
21
57.5
31
0
73
2
0
TEXT
8
TEXT
10
137.596155
20
10
30
0
40
10
1
OUT 260.2 IN 212.6 CUT J18/S72 FINGER ONE END
72
1
11
137.596155
21
10
31
0
73
2
0
POLYLINE
8
ASSEMBLY
66
1
70
1
10
0
20
0
30
0
0
VERTEX
8
ASSEMBLY
10
475.192309
20
0
30
0
0
VERTEX
8
ASSEMBLY
10
765.384619
20
0
30
0
0
VERTEX
8
ASSEMBLY
10
765.384619
20
95
30
0
0
VERTEX
8
ASSEMBLY
10
475.192309
20
95
30
0
0
SEQEND
8
ASSEMBLY
0
POLYLINE
8
PIECES
66
1
70
1
10
0
20
0
30
0
0
VERTEX
8
PIECES
10
747.294449
20
64.302507
30
0
42
0.158384
0
VERTEX
8
PIECES
10
493.282479
20
64.302507
30
0
0
VERTEX
8
PIECES
10
510.896448
20
10.092286
30
0
42
-0.158384
0
VERTEX
8
PIECES
10
729.68048
20
10.092286
30
0
0
SEQEND
8
PIECES
0
POLYLINE
8
FINGER
66
1
70
0
10
0
20
0
30
0
0
VERTEX
8
FINGER
10
729.68048
20
10.092286
30
0
0
VERTEX
8
FINGER
10
747.294449
20
64.302507
30
0
0
SEQEND
8
FINGER
0
POLYLINE
8
FINGER
66
1
70
0
10
0
20
0
30
0
0
VERTEX
8
FINGER
10
510.896448
20
10.092286
30
0
0
VERTEX
8
FINGER
10
493.282479
20
64.302507
30
0
0
SEQEND
8
FINGER
0
POLYLINE
8
FINGER
66
1
70
0
10
0
20
0
30
0
0
VERTEX
8
FINGER
10
491.192309
20
0
30
0
0
VERTEX
8
FINGER
10
491.192309
20
95
30
0
0
SEQEND
8
FINGER
0
POLYLINE
8
FINGER
66
1
70
0
10
0
20
0
30
0
0
VERTEX
8
FINGER
10
749.384619
20
0
30
0
0
VERTEX
8
FINGER
10
749.384619
20
95
30
0
0
SEQEND
8
FINGER
0
TEXT
8
TEXT
10
620.288464
20
57.5
30
0
40
15
1
SS - S-ARCH TOP RAIL P2 L290.2 x95
72
1
11
620.288464
21
57.5
31
0
73
2
0
TEXT
8
TEXT
10
620.288464
20
10
30
0
40
10
1
OUT 260.2 IN 212.6 CUT J18/J18 FINGER BOTH ENDS
72
1
11
620.288464
21
10
31
0
73
2
0
POLYLINE
8
ASSEMBLY
66
1
70
1
10
0
20
0
30
0
0
VERTEX
8
ASSEMBLY
10
965.384619
20
0
30
0
0
VERTEX
8
ASSEMBLY
10
1255.576928
20
0
30
0
0
VERTEX
8
ASSEMBLY
10
1255.576928
20
95
30
0
0
VERTEX
8
ASSEMBLY
10
965.384619
20
95
30
0
0
SEQEND
8
ASSEMBLY
0
POLYLINE
8
PIECES
66
1
70
1
10
0
20
0
30
0
0
VERTEX
8
PIECES
10
1237.486758
20
64.302507
30
0
42
0.158384
0
VERTEX
8
PIECES
10
983.474788
20
64.302507
30
0
0
VERTEX
8
PIECES
10
1001.088757
20
10.092286
30
0
42
-0.158384
0
VERTEX
8
PIECES
10
1219.872789
20
10.092286
30
0
0
SEQEND
8
PIECES
0
POLYLINE
8
FINGER
66
1
70
0
10
0
20
0
30
0
0
VERTEX
8
FINGER
10
1219.872789
20
10.092286
30
0
0
VERTEX
8
FINGER
10
1237.486758
20
64.302507
30
0
0
SEQEND
8
FINGER
0
POLYLINE
8
FINGER
66
1
70
0
10
0
20
0
30
0
0
VERTEX
8
FINGER
10
1001.088757
20
10.092286
30
0
0
VERTEX
8
FINGER
10
983.474788
20
64.302507
30
0
0
SEQEND
8
FINGER
0
POLYLINE
8
FINGER
66
1
70
0
10
0
20
0
30
0
0
VERTEX
8
FINGER
10
981.384619
20
0
30
0
0
VERTEX
8
FINGER
10
981.384619
20
95
30
0
0
SEQEND
8
FINGER
0
POLYLINE
8
FINGER
66
1
70
0
10
0
20
0
30
0
0
VERTEX
8
FINGER
10
1239.576928
20
0
30
0
0
VERTEX
8
FINGER
10
1239.576928
20
95
30
0
0
SEQEND
8
FINGER
0
TEXT
8
TEXT
10
1110.480773
20
57.5
30
0
40
15
1
SS - S-ARCH TOP RAIL P3 L290.2 x95
72
1
11
1110.480773
21
57.5
31
0
73
2
0
TEXT
8
TEXT
10
1110.480773
20
10
30
0
40
10
1
OUT 260.2 IN 212.6 CUT J18/J18 FINGER BOTH ENDS
72
1
11
1110.480773
21
10
31
0
73
2
0
POLYLINE
8
ASSEMBLY
66
1
70
1
10
0
20
0
30
0
0
VERTEX
8
ASSEMBLY
10
1455.576928
20
0
30
0
0
VERTEX
8
ASSEMBLY
10
1745.769237
20
0
30
0
0
VERTEX
8
ASSEMBLY
10
1745.769237
20
95
30
0
0
VERTEX
8
ASSEMBLY
10
1455.576928
20
95
30
0
0
SEQEND
8
ASSEMBLY
0
POLYLINE
8
PIECES
66
1
70
1
10
0
20
0
30
0
0
VERTEX
8
PIECES
10
1727.679067
20
64.302507
30
0
42
0.158384
0
VERTEX
8
PIECES
10
1473.667098
20
64.302507
30
0
0
VERTEX
8
PIECES
10
1491.281066
20
10.092286
30
0
42
-0.158384
0
VERTEX
8
PIECES
10
1710.065098
20
10.092286
30
0
0
SEQEND
8
PIECES
0
POLYLINE
8
FINGER
66
1
70
0
10
0
20
0
30
0
0
VERTEX
8
FINGER
10
1710.065098
20
10.092286
30
0
0
VERTEX
8
FINGER
10
1727.679067
20
64.302507
30
0
0
SEQEND
8
FINGER
0
POLYLINE
8
FINGER
66
1
70
0
10
0
20
0
30
0
0
VERTEX
8
FINGER
10
1491.281066
20
10.092286
30
0
0
VERTEX
8
FINGER
10
1473.667098
20
64.302507
30
0
0
SEQEND
8
FINGER
0
POLYLINE
8
FINGER
66
1
70
0
10
0
20
0
30
0
0
VERTEX
8
FINGER
10
1471.576928
20
0
30
0
0
VERTEX
8
FINGER
10
1471.576928
20
95
30
0
0
SEQEND
8
FINGER
0
POLYLINE
8
FINGER
66
1
70
0
10
0
20
0
30
0
0
VERTEX
8
FINGER
10
1729.769237
20
0
30
0
0
VERTEX
8
FINGER
10
1729.769237
20
95
30
0
0
SEQEND
8
FINGER
0
TEXT
8
TEXT
10
1600.673082
20
57.5
30
0
40
15
1
SS - S-ARCH TOP RAIL P4 L290.2 x95
72
1
11
1600.673082
21
57.5
31
0
73
2
0
TEXT
8
TEXT
10
1600.673082
20
10
30
0
40
10
1
OUT 260.2 IN 212.6 CUT J18/J18 FINGER BOTH ENDS
72
1
11
1600.673082
21
10
31
0
73
2
0
POLYLINE
8
ASSEMBLY
66
1
70
1
10
0
20
0
30
0
0
VERTEX
8
ASSEMBLY
10
1945.769237
20
0
30
0
0
VERTEX
8
ASSEMBLY
10
2220.961546
20
0
30
0
0
VERTEX
8
ASSEMBLY
10
2220.961546
20
95
30
0
0
VERTEX
8
ASSEMBLY
10
1945.769237
20
95
30
0
0
SEQEND
8
ASSEMBLY
0
POLYLINE
8
PIECES
66
1
70
1
10
0
20
0
30
0
0
VERTEX
8
PIECES
10
2202.871376
20
64.302507
30
0
42
0.158384
0
VERTEX
8
PIECES
10
1948.859407
20
64.302507
30
0
0
VERTEX
8
PIECES
10
1966.473376
20
10.092286
30
0
42
-0.158384
0
VERTEX
8
PIECES
10
2185.257408
20
10.092286
30
0
0
SEQEND
8
PIECES
0
POLYLINE
8
FINGER
66
1
70
0
10
0
20
0
30
0
0
VERTEX
8
FINGER
10
2185.257408
20
10.092286
30
0
0
VERTEX
8
FINGER
10
2202.871376
20
64.302507
30
0
0
SEQEND
8
FINGER
0
POLYLINE
8
FINGER
66
1
70
0
10
0
20
0
30
0
0
VERTEX
8
FINGER
10
2204.961546
20
0
30
0
0
VERTEX
8
FINGER
10
2204.961546
20
95
30
0
0
SEQEND
8
FINGER
0
TEXT
8
TEXT
10
2083.365392
20
57.5
30
0
40
15
1
SS - S-ARCH TOP RAIL P5 L275.2 x95
72
1
11
2083.365392
21
57.5
31
0
73
2
0
TEXT
8
TEXT
10
2083.365392
20
10
30
0
40
10
1
OUT 260.2 IN 212.6 CUT S72/J18 FINGER ONE END
72
1
11
2083.365392
21
10
31
0
73
2
0
POLYLINE
8
CONTOUR
66
1
70
1
10
0
20
0
30
0
0
VERTEX
8
CONTOUR
10
852.149965
20
317.809494
30
0
42
1
0
VERTEX
8
CONTOUR
10
30.149965
20
317.809494
30
0
0
VERTEX
8
CONTOUR
10
87.149965
20
317.809494
30
0
42
-1
0
VERTEX
8
CONTOUR
10
795.149965
20
317.809494
30
0
0
SEQEND
8
CONTOUR
0
POLYLINE
8
ASSEMBLY
66
1
70
1
10
0
20
0
30
0
0
VERTEX
8
ASSEMBLY
10
791.949562
20
295
30
0
0
VERTEX
8
ASSEMBLY
10
711.545716
20
542.457591
30
0
0
VERTEX
8
ASSEMBLY
10
801.896085
20
571.814206
30
0
0
VERTEX
8
ASSEMBLY
10
882.299931
20
324.356614
30
0
0
SEQEND
8
ASSEMBLY
0
POLYLINE
8
FINGER
66
1
70
0
10
0
20
0
30
0
0
VERTEX
8
FINGER
10
727.541981
20
525.885473
30
0
0
VERTEX
8
FINGER
10
773.65595
20
559.389233
30
0
0
SEQEND
8
FINGER
0
POLYLINE
8
ASSEMBLY
66
1
70
1
10
0
20
0
30
0
0
VERTEX
8
ASSEMBLY
10
738.359885
20
505.551055
30
0
0
VERTEX
8
ASSEMBLY
10
527.859885
20
658.488257
30
0
0
VERTEX
8
ASSEMBLY
10
583.699484
20
735.344872
30
0
0
VERTEX
8
ASSEMBLY
10
794.199484
20
582.407669
30
0
0
SEQEND
8
ASSEMBLY
0
POLYLINE
8
FINGER
66
1
70
0
10
0
20
0
30
0
0
VERTEX
8
FINGER
10
550.541981
20
654.483501
30
0
0
VERTEX
8
FINGER
10
568.15595
20
708.693722
30
0
0
SEQEND
8
FINGER
0
POLYLINE
8
ASSEMBLY
66
1
70
1
10
0
20
0
30
0
0
VERTEX
8
ASSEMBLY
10
571.24612
20
644.391215
30
0
0
VERTEX
8
ASSEMBLY
10
311.053811
20
644.391215
30
0
0
VERTEX
8
ASSEMBLY
10
311.053811
20
739.391215
30
0
0
VERTEX
8
ASSEMBLY
10
571.24612
20
739.391215
30
0
0
SEQEND
8
ASSEMBLY
0
POLYLINE
8
FINGER
66
1
70
0
10
0
20
0
30
0
0
VERTEX
8
FINGER
10
331.757949
20
654.483501
30
0
0
VERTEX
8
FINGER
10
314.143981
20
708.693722
30
0
0
SEQEND
8
FINGER
0
POLYLINE
8
ASSEMBLY
66
1
70
1
10
0
20
0
30
0
0
VERTEX
8
ASSEMBLY
10
354.440046
20
658.488257
30
0
0
VERTEX
8
ASSEMBLY
10
143.940046
20
505.551055
30
0
0
VERTEX
8
ASSEMBLY
10
88.100447
20
582.407669
30
0
0
VERTEX
8
ASSEMBLY
10
298.600447
20
735.344872
30
0
0
SEQEND
8
ASSEMBLY
0
POLYLINE
8
FINGER
66
1
70
0
10
0
20
0
30
0
0
VERTEX
8
FINGER
10
154.757949
20
525.885473
30
0
0
VERTEX
8
FINGER
10
108.643981
20
559.389233
30
0
0
SEQEND
8
FINGER
0
POLYLINE
8
ASSEMBLY
66
1
70
1
10
0
20
0
30
0
0
VERTEX
8
ASSEMBLY
10
170.754214
20
542.457591
30
0
0
VERTEX
8
ASSEMBLY
10
90.350369
20
295
30
0
0
VERTEX
8
ASSEMBLY
10
0
20
324.356614
30
0
0
VERTEX
8
ASSEMBLY
10
80.403845
20
571.814206
30
0
0
SEQEND
8
ASSEMBLY
0
TEXT
8
TEXT
10
982.299931
20
720.891215
30
0
40
15
1
SS - S-ARCH TOP RAIL
72
0
11
982.299931
21
720.891215
31
0
73
0
0
TEXT
8
TEXT
10
982.299931
20
698.891215
30
0
40
15
1
SEMI-CIRCLE W1000 RISE500 H2200 SASH
72
0
11
982.299931
21
698.891215
31
0
73
0
0
TEXT
8
TEXT
10
982.299931
20
676.891215
30
0
40
15
1
FACE 57 OFFSET 89 OUTER L1291.2 INNER L1112.1
72
0
11
982.299931
21
676.891215
31
0
73
0
0
TEXT
8
TEXT
10
982.299931
20
654.891215
30
0
40
15
1
ARC 1 R411 L1291.2 180DEG: 5 x board 95 L260.2 ROUGH 290.2
72
0
11
982.299931
21
654.891215
31
0
73
0
0
TEXT
8
TEXT
10
982.299931
20
632.891215
30
0
40
15
1
FINGER 15/16/3.8
72
0
11
982.299931
21
632.891215
31
0
73
0
0
TEXT
8
TEXT
10
982.299931
20
610.891215
30
0
40
15
1
ALLOWANCE 10 PER SIDE  MAX SEGMENT 36 DEG  RULE NARROWEST
72
0
11
982.299931
21
610.891215
31
0
73
0
0
TEXT
8
TEXT
10
982.299931
20
588.891215
30
0
40
15
1
CUT CODES: J = JOINT FROM SQUARE  S = ARCH-START, AXIS TO HORIZONTAL  A = APEX FROM SQUARE
72
0
11
982.299931
21
588.891215
31
0
73
0
0
POLYLINE
8
ASSEMBLY
66
1
70
1
10
0
20
0
30
0
0
VERTEX
8
ASSEMBLY
10
0
20
939.391215
30
0
0
VERTEX
8
ASSEMBLY
10
330.197334
20
939.391215
30
0
0
VERTEX
8
ASSEMBLY
10
330.197334
20
1119.391215
30
0
0
VERTEX
8
ASSEMBLY
10
0
20
1119.391215
30
0
0
SEQEND
8
ASSEMBLY
0
POLYLINE
8
PIECES
66
1
70
1
10
0
20
0
30
0
0
VERTEX
8
PIECES
10
327.107164
20
1054.952887
30
0
42
0.158384
0
VERTEX
8
PIECES
10
18.09017
20
1054.952887
30
0
0
VERTEX
8
PIECES
10
42.811529
20
978.868366
30
0
42
-0.158384
0
VERTEX
8
PIECES
10
302.385805
20
978.868366
30
0
0
SEQEND
8
PIECES
0
POLYLINE
8
FINGER
66
1
70
0
10
0
20
0
30
0
0
VERTEX
8
FINGER
10
42.811529
20
978.868366
30
0
0
VERTEX
8
FINGER
10
18.09017
20
1054.952887
30
0
0
SEQEND
8
FINGER
0
POLYLINE
8
FINGER
66
1
70
0
10
0
20
0
30
0
0
VERTEX
8
FINGER
10
16
20
939.391215
30
0
0
VERTEX
8
FINGER
10
16
20
1119.391215
30
0
0
SEQEND
8
FINGER
0
TEXT
8
TEXT
10
165.098667
20
1039.391215
30
0
40
15
1
SS - S-ARCH HEAD P1 L330.2 x180
72
1
11
165.098667
21
1039.391215
31
0
73
2
0
TEXT
8
TEXT
10
165.098667
20
949.391215
30
0
40
10
1
OUT 315.2 IN 253.4 CUT J18/S72 FINGER ONE END
72
1
11
165.098667
21
949.391215
31
0
73
2
0
POLYLINE
8
ASSEMBLY
66
1
70
1
10
0
20
0
30
0
0
VERTEX
8
ASSEMBLY
10
530.197334
20
939.391215
30
0
0
VERTEX
8
ASSEMBLY
10
875.394669
20
939.391215
30
0
0
VERTEX
8
ASSEMBLY
10
875.394669
20
1119.391215
30
0
0
VERTEX
8
ASSEMBLY
10
530.197334
20
1119.391215
30
0
0
SEQEND
8
ASSEMBLY
0
POLYLINE
8
PIECES
66
1
70
1
10
0
20
0
30
0
0
VERTEX
8
PIECES
10
857.304499
20
1054.952887
30
0
42
0.158384
0
VERTEX
8
PIECES
10
548.287504
20
1054.952887
30
0
0
VERTEX
8
PIECES
10
573.008864
20
978.868366
30
0
42
-0.158384
0
VERTEX
8
PIECES
10
832.583139
20
978.868366
30
0
0
SEQEND
8
PIECES
0
POLYLINE
8
FINGER
66
1
70
0
10
0
20
0
30
0
0
VERTEX
8
FINGER
10
832.583139
20
978.868366
30
0
0
VERTEX
8
FINGER
10
857.304499
20
1054.952887
30
0
0
SEQEND
8
FINGER
0
POLYLINE
8
FINGER
66
1
70
0
10
0
20
0
30
0
0
VERTEX
8
FINGER
10
573.008864
20
978.868366
30
0
0
VERTEX
8
FINGER
10
548.287504
20
1054.952887
30
0
0
SEQEND
8
FINGER
0
POLYLINE
8
FINGER
66
1
70
0
10
0
20
0
30
0
0
VERTEX
8
FINGER
10
546.197334
20
939.391215
30
0
0
VERTEX
8
FINGER
10
546.197334
20
1119.391215
30
0
0
SEQEND
8
FINGER
0
POLYLINE
8
FINGER
66
1
70
0
10
0
20
0
30
0
0
VERTEX
8
FINGER
10
859.394669
20
939.391215
30
0
0
VERTEX
8
FINGER
10
859.394669
20
1119.391215
30
0
0
SEQEND
8
FINGER
0
TEXT
8
TEXT
10
702.796001
20
1039.391215
30
0
40
15
1
SS - S-ARCH HEAD P2 L345.2 x180
72
1
11
702.796001
21
1039.391215
31
0
73
2
0
TEXT
8
TEXT
10
702.796001
20
949.391215
30
0
40
10
1
OUT 315.2 IN 253.4 CUT J18/J18 FINGER BOTH ENDS
72
1
11
702.796001
21
949.391215
31
0
73
2
0
POLYLINE
8
ASSEMBLY
66
1
70
1
10
0
20
0
30
0
0
VERTEX
8
ASSEMBLY
10
1075.394669
20
939.391215
30
0
0
VERTEX
8
ASSEMBLY
10
1420.592003
20
939.391215
30
0
0
VERTEX
8
ASSEMBLY
10
1420.592003
20
1119.391215
30
0
0
VERTEX
8
ASSEMBLY
10
1075.394669
20
1119.391215
30
0
0
SEQEND
8
ASSEMBLY
0
POLYLINE
8
PIECES
66
1
70
1
10
0
20
0
30
0
0
VERTEX
8
PIECES
10
1402.501833
20
1054.952887
30
0
42
0.158384
0
VERTEX
8
PIECES
10
1093.484838
20
1054.952887
30
0
0
VERTEX
8
PIECES
10
1118.206198
20
978.868366
30
0
42
-0.158384
0
VERTEX
8
PIECES
10
1377.780473
20
978.868366
30
0
0
SEQEND
8
PIECES
0
POLYLINE
8
FINGER
66
1
70
0
10
0
20
0
30
0
0
VERTEX
8
FINGER
10
1377.780473
20
978.868366
30
0
0
VERTEX
8
FINGER
10
1402.501833
20
1054.952887
30
0
0
SEQEND
8
FINGER
0
POLYLINE
8
FINGER
66
1
70
0
10
0
20
0
30
0
0
VERTEX
8
FINGER
10
1118.206198
20
978.868366
30
0
0
VERTEX
8
FINGER
10
1093.484838
20
1054.952887
30
0
0
SEQEND
8
FINGER
0
POLYLINE
8
FINGER
66
1
70
0
10
0
20
0
30
0
0
VERTEX
8
FINGER
10
1091.394669
20
939.391215
30
0
0
VERTEX
8
FINGER
10
1091.394669
20
1119.391215
30
0
0
SEQEND
8
FINGER
0
POLYLINE
8
FINGER
66
1
70
0
10
0
20
0
30
0
0
VERTEX
8
FINGER
10
1404.592003
20
939.391215
30
0
0
VERTEX
8
FINGER
10
1404.592003
20
1119.391215
30
0
0
SEQEND
8
FINGER
0
TEXT
8
TEXT
10
1247.993336
20
1039.391215
30
0
40
15
1
SS - S-ARCH HEAD P3 L345.2 x180
72
1
11
1247.993336
21
1039.391215
31
0
73
2
0
TEXT
8
TEXT
10
1247.993336
20
949.391215
30
0
40
10
1
OUT 315.2 IN 253.4 CUT J18/J18 FINGER BOTH ENDS
72
1
11
1247.993336
21
949.391215
31
0
73
2
0
POLYLINE
8
ASSEMBLY
66
1
70
1
10
0
20
0
30
0
0
VERTEX
8
ASSEMBLY
10
1620.592003
20
939.391215
30
0
0
VERTEX
8
ASSEMBLY
10
1965.789337
20
939.391215
30
0
0
VERTEX
8
ASSEMBLY
10
1965.789337
20
1119.391215
30
0
0
VERTEX
8
ASSEMBLY
10
1620.592003
20
1119.391215
30
0
0
SEQEND
8
ASSEMBLY
0
POLYLINE
8
PIECES
66
1
70
1
10
0
20
0
30
0
0
VERTEX
8
PIECES
10
1947.699167
20
1054.952887
30
0
42
0.158384
0
VERTEX
8
PIECES
10
1638.682173
20
1054.952887
30
0
0
VERTEX
8
PIECES
10
1663.403532
20
978.868366
30
0
42
-0.158384
0
VERTEX
8
PIECES
10
1922.977808
20
978.868366
30
0
0
SEQEND
8
PIECES
0
POLYLINE
8
FINGER
66
1
70
0
10
0
20
0
30
0
0
VERTEX
8
FINGER
10
1922.977808
20
978.868366
30
0
0
VERTEX
8
FINGER
10
1947.699167
20
1054.952887
30
0
0
SEQEND
8
FINGER
0
POLYLINE
8
FINGER
66
1
70
0
10
0
20
0
30
0
0
VERTEX
8
FINGER
10
1663.403532
20
978.868366
30
0
0
VERTEX
8
FINGER
10
1638.682173
20
1054.952887
30
0
0
SEQEND
8
FINGER
0
POLYLINE
8
FINGER
66
1
70
0
10
0
20
0
30
0
0
VERTEX
8
FINGER
10
1636.592003
20
939.391215
30
0
0
VERTEX
8
FINGER
10
1636.592003
20
1119.391215
30
0
0
SEQEND
8
FINGER
0
POLYLINE
8
FINGER
66
1
70
0
10
0
20
0
30
0
0
VERTEX
8
FINGER
10
1949.789337
20
939.391215
30
0
0
VERTEX
8
FINGER
10
1949.789337
20
1119.391215
30
0
0
SEQEND
8
FINGER
0
TEXT
8
TEXT
10
1793.19067
20
1039.391215
30
0
40
15
1
SS - S-ARCH HEAD P4 L345.2 x180
72
1
11
1793.19067
21
1039.391215
31
0
73
2
0
TEXT
8
TEXT
10
1793.19067
20
949.391215
30
0
40
10
1
OUT 315.2 IN 253.4 CUT J18/J18 FINGER BOTH ENDS
72
1
11
1793.19067
21
949.391215
31
0
73
2
0
POLYLINE
8
ASSEMBLY
66
1
70
1
10
0
20
0
30
0
0
VERTEX
8
ASSEMBLY
10
2165.789337
20
939.391215
30
0
0
VERTEX
8
ASSEMBLY
10
2495.986671
20
939.391215
30
0
0
VERTEX
8
ASSEMBLY
10
2495.986671
20
1119.391215
30
0
0
VERTEX
8
ASSEMBLY
10
2165.789337
20
1119.391215
30
0
0
SEQEND
8
ASSEMBLY
0
POLYLINE
8
PIECES
66
1
70
1
10
0
20
0
30
0
0
VERTEX
8
PIECES
10
2477.896501
20
1054.952887
30
0
42
0.158384
0
VERTEX
8
PIECES
10
2168.879507
20
1054.952887
30
0
0
VERTEX
8
PIECES
10
2193.600867
20
978.868366
30
0
42
-0.158384
0
VERTEX
8
PIECES
10
2453.175142
20
978.868366
30
0
0
SEQEND
8
PIECES
0
POLYLINE
8
FINGER
66
1
70
0
10
0
20
0
30
0
0
VERTEX
8
FINGER
10
2453.175142
20
978.868366
30
0
0
VERTEX
8
FINGER
10
2477.896501
20
1054.952887
30
0
0
SEQEND
8
FINGER
0
POLYLINE
8
FINGER
66
1
70
0
10
0
20
0
30
0
0
VERTEX
8
FINGER
10
2479.986671
20
939.391215
30
0
0
VERTEX
8
FINGER
10
2479.986671
20
1119.391215
30
0
0
SEQEND
8
FINGER
0
TEXT
8
TEXT
10
2330.888004
20
1039.391215
30
0
40
15
1
SS - S-ARCH HEAD P5 L330.2 x180
72
1
11
2330.888004
21
1039.391215
31
0
73
2
0
TEXT
8
TEXT
10
2330.888004
20
949.391215
30
0
40
10
1
OUT 315.2 IN 253.4 CUT S72/J18 FINGER ONE END
72
1
11
2330.888004
21
949.391215
31
0
73
2
0
POLYLINE
8
CONTOUR
66
1
70
1
10
0
20
0
30
0
0
VERTEX
8
CONTOUR
10
1062.239406
20
1358.040662
30
0
42
1
0
VERTEX
8
CONTOUR
10
62.239406
20
1358.040662
30
0
0
VERTEX
8
CONTOUR
10
142.239406
20
1358.040662
30
0
42
-1
0
VERTEX
8
CONTOUR
10
982.239406
20
1358.040662
30
0
0
SEQEND
8
CONTOUR
0
POLYLINE
8
ASSEMBLY
66
1
70
1
10
0
20
0
30
0
0
VERTEX
8
ASSEMBLY
10
953.28864
20
1319.391215
30
0
0
VERTEX
8
ASSEMBLY
10
855.887307
20
1619.161693
30
0
0
VERTEX
8
ASSEMBLY
10
1027.07748
20
1674.784752
30
0
0
VERTEX
8
ASSEMBLY
10
1124.478813
20
1375.014274
30
0
0
SEQEND
8
ASSEMBLY
0
POLYLINE
8
FINGER
66
1
70
0
10
0
20
0
30
0
0
VERTEX
8
FINGER
10
902.026544
20
1604.910467
30
0
0
VERTEX
8
FINGER
10
966.747904
20
1651.933288
30
0
0
SEQEND
8
FINGER
0
POLYLINE
8
ASSEMBLY
66
1
70
1
10
0
20
0
30
0
0
VERTEX
8
ASSEMBLY
10
901.322457
20
1556.625575
30
0
0
VERTEX
8
ASSEMBLY
10
646.322457
20
1741.893919
30
0
0
VERTEX
8
ASSEMBLY
10
752.123802
20
1887.516978
30
0
0
VERTEX
8
ASSEMBLY
10
1007.123802
20
1702.248634
30
0
0
SEQEND
8
ASSEMBLY
0
POLYLINE
8
FINGER
66
1
70
0
10
0
20
0
30
0
0
VERTEX
8
FINGER
10
692.026544
20
1757.484398
30
0
0
VERTEX
8
FINGER
10
716.747904
20
1833.56892
30
0
0
SEQEND
8
FINGER
0
POLYLINE
8
ASSEMBLY
66
1
70
1
10
0
20
0
30
0
0
VERTEX
8
ASSEMBLY
10
719.838074
20
1718.007247
30
0
0
VERTEX
8
ASSEMBLY
10
404.640739
20
1718.007247
30
0
0
VERTEX
8
ASSEMBLY
10
404.640739
20
1898.007247
30
0
0
VERTEX
8
ASSEMBLY
10
719.838074
20
1898.007247
30
0
0
SEQEND
8
ASSEMBLY
0
POLYLINE
8
FINGER
66
1
70
0
10
0
20
0
30
0
0
VERTEX
8
FINGER
10
432.452269
20
1757.484398
30
0
0
VERTEX
8
FINGER
10
407.730909
20
1833.56892
30
0
0
SEQEND
8
FINGER
0
POLYLINE
8
ASSEMBLY
66
1
70
1
10
0
20
0
30
0
0
VERTEX
8
ASSEMBLY
10
478.156356
20
1741.893919
30
0
0
VERTEX
8
ASSEMBLY
10
223.156356
20
1556.625575
30
0
0
VERTEX
8
ASSEMBLY
10
117.355011
20
1702.248634
30
0
0
VERTEX
8
ASSEMBLY
10
372.355011
20
1887.516978
30
0
0
SEQEND
8
ASSEMBLY
0
POLYLINE
8
FINGER
66
1
70
0
10
0
20
0
30
0
0
VERTEX
8
FINGER
10
222.452269
20
1604.910467
30
0
0
VERTEX
8
FINGER
10
157.730909
20
1651.933288
30
0
0
SEQEND
8
FINGER
0
POLYLINE
8
ASSEMBLY
66
1
70
1
10
0
20
0
30
0
0
VERTEX
8
ASSEMBLY
10
268.591506
20
1619.161693
30
0
0
VERTEX
8
ASSEMBLY
10
171.190173
20
1319.391215
30
0
0
VERTEX
8
ASSEMBLY
10
0
20
1375.014274
30
0
0
VERTEX
8
ASSEMBLY
10
97.401333
20
1674.784752
30
0
0
SEQEND
8
ASSEMBLY
0
TEXT
8
TEXT
10
1224.478813
20
1879.507247
30
0
40
15
1
SS - S-ARCH HEAD
72
0
11
1224.478813
21
1879.507247
31
0
73
0
0
TEXT
8
TEXT
10
1224.478813
20
1857.507247
30
0
40
15
1
SEMI-CIRCLE W1000 RISE500 H2200 SASH
72
0
11
1224.478813
21
1857.507247
31
0
73
0
0
TEXT
8
TEXT
10
1224.478813
20
1835.507247
30
0
40
15
1
FACE 80 OFFSET 0 OUTER L1570.8 INNER L1319.5
72
0
11
1224.478813
21
1835.507247
31
0
73
0
0
TEXT
8
TEXT
10
1224.478813
20
1813.507247
30
0
40
15
1
ARC 1 R500 L1570.8 180DEG: 5 x board 180 L315.2 ROUGH 345.2
72
0
11
1224.478813
21
1813.507247
31
0
73
0
0
TEXT
8
TEXT
10
1224.478813
20
1791.507247
30
0
40
15
1
FINGER 15/16/3.8
72
0
11
1224.478813
21
1791.507247
31
0
73
0
0
TEXT
8
TEXT
10
1224.478813
20
1769.507247
30
0
40
15
1
ALLOWANCE 10 PER SIDE  MAX SEGMENT 36 DEG  RULE NARROWEST
72
0
11
1224.478813
21
1769.507247
31
0
73
0
0
TEXT
8
TEXT
10
1224.478813
20
1747.507247
30
0
40
15
1
CUT CODES: J = JOINT FROM SQUARE  S = ARCH-START, AXIS TO HORIZONTAL  A = APEX FROM SQUARE
72
0
11
1224.478813
21
1747.507247
31
0
73
0
0
POLYLINE
8
FIT
66
1
70
1
10
0
20
0
30
0
0
VERTEX
8
FIT
10
1000
20
2098.007247
30
0
42
1
0
VERTEX
8
FIT
10
0
20
2098.007247
30
0
0
VERTEX
8
FIT
10
80
20
2098.007247
30
0
42
-1
0
VERTEX
8
FIT
10
920
20
2098.007247
30
0
0
SEQEND
8
FIT
0
POLYLINE
8
FIT
66
1
70
1
10
0
20
0
30
0
0
VERTEX
8
FIT
10
911
20
2098.007247
30
0
42
1
0
VERTEX
8
FIT
10
89
20
2098.007247
30
0
0
VERTEX
8
FIT
10
146
20
2098.007247
30
0
42
-1
0
VERTEX
8
FIT
10
854
20
2098.007247
30
0
0
SEQEND
8
FIT
0
POLYLINE
8
FIT
66
1
70
1
10
0
20
0
30
0
0
VERTEX
8
FIT
10
866.5
20
2098.007247
30
0
42
1
0
VERTEX
8
FIT
10
133.5
20
2098.007247
30
0
0
SEQEND
8
FIT
0
TEXT
8
TEXT
10
1100
20
2167.507247
30
0
40
15
1
SS - FIT (ASSEMBLY, NOT A TOOLPATH)
72
0
11
1100
21
2167.507247
31
0
73
0
0
TEXT
8
TEXT
10
1100
20
2145.507247
30
0
40
15
1
RUNNING GAP 9 (HEAD 80 FACE, SASH AT THE STILE LINE)
72
0
11
1100
21
2145.507247
31
0
73
0
0
TEXT
8
TEXT
10
1100
20
2123.507247
30
0
40
15
1
HEAD R500 / 420
72
0
11
1100
21
2123.507247
31
0
73
0
0
TEXT
8
TEXT
10
1100
20
2101.507247
30
0
40
15
1
TOP RAIL R411 / 354  GLASS R366.5
72
0
11
1100
21
2101.507247
31
0
73
0
0
ENDSEC
0
EOF
