0
SECTION
2
HEADER
9
$ACADVER
1
AC1009
0
ENDSEC
0
SECTION
2
TABLES
0
TABLE
2
LAYER
70
6
0
LAYER
2
0
70
0
62
7
6
CONTINUOUS
0
LAYER
2
GLASS_CONTOUR
70
0
62
7
6
CONTINUOUS
0
LAYER
2
GLASS_EDGE
70
0
62
8
6
CONTINUOUS
0
LAYER
2
GLASS_BARS
70
0
62
3
6
CONTINUOUS
0
LAYER
2
GLASS_BAR_AXES
70
0
62
4
6
CONTINUOUS
0
LAYER
2
GLASS_TEXT
70
0
62
2
6
CONTINUOUS
0
ENDTAB
0
ENDSEC
0
SECTION
2
ENTITIES
0
POLYLINE
8
GLASS_CONTOUR
66
1
70
1
10
0
20
0
30
0
0
VERTEX
8
GLASS_CONTOUR
10
0
20
0
30
0
0
VERTEX
8
GLASS_CONTOUR
10
789
20
0
30
0
0
VERTEX
8
GLASS_CONTOUR
10
789
20
1293
30
0
0
VERTEX
8
GLASS_CONTOUR
10
0
20
1293
30
0
0
SEQEND
8
GLASS_CONTOUR
0
POLYLINE
8
GLASS_EDGE
66
1
70
1
10
0
20
0
30
0
0
VERTEX
8
GLASS_EDGE
10
11
20
11
30
0
0
VERTEX
8
GLASS_EDGE
10
778
20
11
30
0
0
VERTEX
8
GLASS_EDGE
10
778
20
1282
30
0
0
VERTEX
8
GLASS_EDGE
10
11
20
1282
30
0
0
SEQEND
8
GLASS_EDGE
0
POLYLINE
8
GLASS_BAR_AXES
66
1
70
0
10
0
20
0
30
0
0
VERTEX
8
GLASS_BAR_AXES
10
394.5
20
0
30
0
0
VERTEX
8
GLASS_BAR_AXES
10
394.5
20
1293
30
0
0
SEQEND
8
GLASS_BAR_AXES
0
POLYLINE
8
GLASS_BARS
66
1
70
0
10
0
20
0
30
0
0
VERTEX
8
GLASS_BARS
10
385.5
20
0
30
0
0
VERTEX
8
GLASS_BARS
10
385.5
20
1293
30
0
0
SEQEND
8
GLASS_BARS
0
POLYLINE
8
GLASS_BARS
66
1
70
0
10
0
20
0
30
0
0
VERTEX
8
GLASS_BARS
10
403.5
20
0
30
0
0
VERTEX
8
GLASS_BARS
10
403.5
20
1293
30
0
0
SEQEND
8
GLASS_BARS
0
POLYLINE
8
GLASS_BAR_AXES
66
1
70
0
10
0
20
0
30
0
0
VERTEX
8
GLASS_BAR_AXES
10
0
20
646.5
30
0
0
VERTEX
8
GLASS_BAR_AXES
10
789
20
646.5
30
0
0
SEQEND
8
GLASS_BAR_AXES
0
POLYLINE
8
GLASS_BARS
66
1
70
0
10
0
20
0
30
0
0
VERTEX
8
GLASS_BARS
10
0
20
655.5
30
0
0
VERTEX
8
GLASS_BARS
10
789
20
655.5
30
0
0
SEQEND
8
GLASS_BARS
0
POLYLINE
8
GLASS_BARS
66
1
70
0
10
0
20
0
30
0
0
VERTEX
8
GLASS_BARS
10
0
20
637.5
30
0
0
VERTEX
8
GLASS_BARS
10
789
20
637.5
30
0
0
SEQEND
8
GLASS_BARS
0
TEXT
8
GLASS_TEXT
10
889
20
1274.5
30
0
40
15
1
R040 - G1 GLASS RECTANGULAR
72
0
11
889
21
1274.5
31
0
73
0
0
TEXT
8
GLASS_TEXT
10
889
20
1252.5
30
0
40
15
1
W789 x H1293 040L P1 RIGHT
72
0
11
889
21
1252.5
31
0
73
0
0
TEXT
8
GLASS_TEXT
10
889
20
1230.5
30
0
40
15
1
DOUBLE 4X16X4 TOUGHENED ARGON CLEAR SPACER SILVER
72
0
11
889
21
1230.5
31
0
73
0
0
TEXT
8
GLASS_TEXT
10
889
20
1208.5
30
0
40
15
1
BARS 2 (1H x 1V) TOTAL L=2082
72
0
11
889
21
1208.5
31
0
73
0
0
TEXT
8
GLASS_TEXT
10
889
20
1186.5
30
0
40
15
1
V1 V X=394.5 Y=0-1293 L=1293
72
0
11
889
21
1186.5
31
0
73
0
0
TEXT
8
GLASS_TEXT
10
889
20
1164.5
30
0
40
15
1
H1 H Y=646.5 X=0-789 L=789
72
0
11
889
21
1164.5
31
0
73
0
0
TEXT
8
GLASS_TEXT
10
889
20
1142.5
30
0
40
15
1
BAR AXES FROM THE BOTTOM CORNERS:
72
0
11
889
21
1142.5
31
0
73
0
0
TEXT
8
GLASS_TEXT
10
889
20
1120.5
30
0
40
15
1
V1  FROM LEFT 394.5  FROM RIGHT 394.5
72
0
11
889
21
1120.5
31
0
73
0
0
TEXT
8
GLASS_TEXT
10
889
20
1098.5
30
0
40
15
1
H1  FROM BOTTOM 646.5  FROM TOP 646.5
72
0
11
889
21
1098.5
31
0
73
0
0
ENDSEC
0
EOF
