0
SECTION
2
HEADER
9
$ACADVER
1
AC1009
0
ENDSEC
0
SECTION
2
TABLES
0
TABLE
2
LAYER
70
7
0
LAYER
2
0
70
0
62
7
6
CONTINUOUS
0
LAYER
2
FIT
70
0
62
4
6
CONTINUOUS
0
LAYER
2
CONTOUR
70
0
62
7
6
CONTINUOUS
0
LAYER
2
ASSEMBLY
70
0
62
8
6
CONTINUOUS
0
LAYER
2
PIECES
70
0
62
5
6
CONTINUOUS
0
LAYER
2
FINGER
70
0
62
1
6
CONTINUOUS
0
LAYER
2
TEXT
70
0
62
94
6
CONTINUOUS
0
ENDTAB
0
ENDSEC
0
SECTION
2
ENTITIES
0
POLYLINE
8
ASSEMBLY
66
1
70
1
10
0
20
0
30
0
0
VERTEX
8
ASSEMBLY
10
0
20
0
30
0
0
VERTEX
8
ASSEMBLY
10
106.022385
20
0
30
0
0
VERTEX
8
ASSEMBLY
10
106.022385
20
95
30
0
0
VERTEX
8
ASSEMBLY
10
0
20
95
30
0
0
SEQEND
8
ASSEMBLY
0
POLYLINE
8
PIECES
66
1
70
1
10
0
20
0
30
0
0
VERTEX
8
PIECES
10
103.98609
20
77.956725
30
0
42
0.102893
0
VERTEX
8
PIECES
10
17.036295
20
77.956725
30
0
0
VERTEX
8
PIECES
10
30.679471
20
12.360508
30
0
42
-0.102893
0
VERTEX
8
PIECES
10
90.342914
20
12.360508
30
0
0
SEQEND
8
PIECES
0
POLYLINE
8
FINGER
66
1
70
0
10
0
20
0
30
0
0
VERTEX
8
FINGER
10
30.679471
20
12.360508
30
0
0
VERTEX
8
FINGER
10
17.036295
20
77.956725
30
0
0
SEQEND
8
FINGER
0
POLYLINE
8
FINGER
66
1
70
0
10
0
20
0
30
0
0
VERTEX
8
FINGER
10
16
20
0
30
0
0
VERTEX
8
FINGER
10
16
20
95
30
0
0
SEQEND
8
FINGER
0
TEXT
8
TEXT
10
53.011192
20
57.5
30
0
40
15
1
T - LEAF TOP P1 L106 x95
72
1
11
53.011192
21
57.5
31
0
73
2
0
TEXT
8
TEXT
10
53.011192
20
10
30
0
40
10
1
OUT 91 IN 55.6 CUT J11.7/S78.3 FINGER ONE END
72
1
11
53.011192
21
10
31
0
73
2
0
POLYLINE
8
ASSEMBLY
66
1
70
1
10
0
20
0
30
0
0
VERTEX
8
ASSEMBLY
10
306.022385
20
0
30
0
0
VERTEX
8
ASSEMBLY
10
427.04477
20
0
30
0
0
VERTEX
8
ASSEMBLY
10
427.04477
20
95
30
0
0
VERTEX
8
ASSEMBLY
10
306.022385
20
95
30
0
0
SEQEND
8
ASSEMBLY
0
POLYLINE
8
PIECES
66
1
70
1
10
0
20
0
30
0
0
VERTEX
8
PIECES
10
410.008475
20
77.956725
30
0
42
0.102893
0
VERTEX
8
PIECES
10
323.05868
20
77.956725
30
0
0
VERTEX
8
PIECES
10
336.701856
20
12.360508
30
0
42
-0.102893
0
VERTEX
8
PIECES
10
396.365299
20
12.360508
30
0
0
SEQEND
8
PIECES
0
POLYLINE
8
FINGER
66
1
70
0
10
0
20
0
30
0
0
VERTEX
8
FINGER
10
396.365299
20
12.360508
30
0
0
VERTEX
8
FINGER
10
410.008475
20
77.956725
30
0
0
SEQEND
8
FINGER
0
POLYLINE
8
FINGER
66
1
70
0
10
0
20
0
30
0
0
VERTEX
8
FINGER
10
336.701856
20
12.360508
30
0
0
VERTEX
8
FINGER
10
323.05868
20
77.956725
30
0
0
SEQEND
8
FINGER
0
POLYLINE
8
FINGER
66
1
70
0
10
0
20
0
30
0
0
VERTEX
8
FINGER
10
322.022385
20
0
30
0
0
VERTEX
8
FINGER
10
322.022385
20
95
30
0
0
SEQEND
8
FINGER
0
POLYLINE
8
FINGER
66
1
70
0
10
0
20
0
30
0
0
VERTEX
8
FINGER
10
411.04477
20
0
30
0
0
VERTEX
8
FINGER
10
411.04477
20
95
30
0
0
SEQEND
8
FINGER
0
TEXT
8
TEXT
10
366.533577
20
57.5
30
0
40
15
1
T - LEAF TOP P2 L121 x95
72
1
11
366.533577
21
57.5
31
0
73
2
0
TEXT
8
TEXT
10
366.533577
20
10
30
0
40
10
1
OUT 91 IN 55.6 CUT J11.7/J11.7 FINGER BOTH ENDS
72
1
11
366.533577
21
10
31
0
73
2
0
POLYLINE
8
ASSEMBLY
66
1
70
1
10
0
20
0
30
0
0
VERTEX
8
ASSEMBLY
10
627.04477
20
0
30
0
0
VERTEX
8
ASSEMBLY
10
875.840966
20
0
30
0
0
VERTEX
8
ASSEMBLY
10
875.840966
20
95
30
0
0
VERTEX
8
ASSEMBLY
10
627.04477
20
95
30
0
0
SEQEND
8
ASSEMBLY
0
POLYLINE
8
PIECES
66
1
70
1
10
0
20
0
30
0
0
VERTEX
8
PIECES
10
859.345513
20
76.510171
30
0
42
0.075195
0
VERTEX
8
PIECES
10
643.540222
20
76.510171
30
0
0
VERTEX
8
PIECES
10
653.559754
20
10.263594
30
0
42
-0.075195
0
VERTEX
8
PIECES
10
849.325982
20
10.263594
30
0
0
SEQEND
8
PIECES
0
POLYLINE
8
FINGER
66
1
70
0
10
0
20
0
30
0
0
VERTEX
8
FINGER
10
849.325982
20
10.263594
30
0
0
VERTEX
8
FINGER
10
859.345513
20
76.510171
30
0
0
SEQEND
8
FINGER
0
POLYLINE
8
FINGER
66
1
70
0
10
0
20
0
30
0
0
VERTEX
8
FINGER
10
653.559754
20
10.263594
30
0
0
VERTEX
8
FINGER
10
643.540222
20
76.510171
30
0
0
SEQEND
8
FINGER
0
POLYLINE
8
FINGER
66
1
70
0
10
0
20
0
30
0
0
VERTEX
8
FINGER
10
643.04477
20
0
30
0
0
VERTEX
8
FINGER
10
643.04477
20
95
30
0
0
SEQEND
8
FINGER
0
POLYLINE
8
FINGER
66
1
70
0
10
0
20
0
30
0
0
VERTEX
8
FINGER
10
859.840966
20
0
30
0
0
VERTEX
8
FINGER
10
859.840966
20
95
30
0
0
SEQEND
8
FINGER
0
TEXT
8
TEXT
10
751.442868
20
57.5
30
0
40
15
1
T - LEAF TOP P3 L248.8 x95
72
1
11
751.442868
21
57.5
31
0
73
2
0
TEXT
8
TEXT
10
751.442868
20
10
30
0
40
10
1
OUT 218.8 IN 192.8 CUT J8.6/J8.6 FINGER BOTH ENDS
72
1
11
751.442868
21
10
31
0
73
2
0
POLYLINE
8
ASSEMBLY
66
1
70
1
10
0
20
0
30
0
0
VERTEX
8
ASSEMBLY
10
1075.840966
20
0
30
0
0
VERTEX
8
ASSEMBLY
10
1324.637162
20
0
30
0
0
VERTEX
8
ASSEMBLY
10
1324.637162
20
95
30
0
0
VERTEX
8
ASSEMBLY
10
1075.840966
20
95
30
0
0
SEQEND
8
ASSEMBLY
0
POLYLINE
8
PIECES
66
1
70
1
10
0
20
0
30
0
0
VERTEX
8
PIECES
10
1308.141709
20
76.510171
30
0
42
0.075195
0
VERTEX
8
PIECES
10
1092.336418
20
76.510171
30
0
0
VERTEX
8
PIECES
10
1102.35595
20
10.263594
30
0
42
-0.075195
0
VERTEX
8
PIECES
10
1298.122178
20
10.263594
30
0
0
SEQEND
8
PIECES
0
POLYLINE
8
FINGER
66
1
70
0
10
0
20
0
30
0
0
VERTEX
8
FINGER
10
1298.122178
20
10.263594
30
0
0
VERTEX
8
FINGER
10
1308.141709
20
76.510171
30
0
0
SEQEND
8
FINGER
0
POLYLINE
8
FINGER
66
1
70
0
10
0
20
0
30
0
0
VERTEX
8
FINGER
10
1102.35595
20
10.263594
30
0
0
VERTEX
8
FINGER
10
1092.336418
20
76.510171
30
0
0
SEQEND
8
FINGER
0
POLYLINE
8
FINGER
66
1
70
0
10
0
20
0
30
0
0
VERTEX
8
FINGER
10
1091.840966
20
0
30
0
0
VERTEX
8
FINGER
10
1091.840966
20
95
30
0
0
SEQEND
8
FINGER
0
POLYLINE
8
FINGER
66
1
70
0
10
0
20
0
30
0
0
VERTEX
8
FINGER
10
1308.637162
20
0
30
0
0
VERTEX
8
FINGER
10
1308.637162
20
95
30
0
0
SEQEND
8
FINGER
0
TEXT
8
TEXT
10
1200.239064
20
57.5
30
0
40
15
1
T - LEAF TOP P4 L248.8 x95
72
1
11
1200.239064
21
57.5
31
0
73
2
0
TEXT
8
TEXT
10
1200.239064
20
10
30
0
40
10
1
OUT 218.8 IN 192.8 CUT J8.6/J8.6 FINGER BOTH ENDS
72
1
11
1200.239064
21
10
31
0
73
2
0
POLYLINE
8
ASSEMBLY
66
1
70
1
10
0
20
0
30
0
0
VERTEX
8
ASSEMBLY
10
1524.637162
20
0
30
0
0
VERTEX
8
ASSEMBLY
10
1773.433358
20
0
30
0
0
VERTEX
8
ASSEMBLY
10
1773.433358
20
95
30
0
0
VERTEX
8
ASSEMBLY
10
1524.637162
20
95
30
0
0
SEQEND
8
ASSEMBLY
0
POLYLINE
8
PIECES
66
1
70
1
10
0
20
0
30
0
0
VERTEX
8
PIECES
10
1756.937905
20
76.510171
30
0
42
0.075195
0
VERTEX
8
PIECES
10
1541.132614
20
76.510171
30
0
0
VERTEX
8
PIECES
10
1551.152146
20
10.263594
30
0
42
-0.075195
0
VERTEX
8
PIECES
10
1746.918374
20
10.263594
30
0
0
SEQEND
8
PIECES
0
POLYLINE
8
FINGER
66
1
70
0
10
0
20
0
30
0
0
VERTEX
8
FINGER
10
1746.918374
20
10.263594
30
0
0
VERTEX
8
FINGER
10
1756.937905
20
76.510171
30
0
0
SEQEND
8
FINGER
0
POLYLINE
8
FINGER
66
1
70
0
10
0
20
0
30
0
0
VERTEX
8
FINGER
10
1551.152146
20
10.263594
30
0
0
VERTEX
8
FINGER
10
1541.132614
20
76.510171
30
0
0
SEQEND
8
FINGER
0
POLYLINE
8
FINGER
66
1
70
0
10
0
20
0
30
0
0
VERTEX
8
FINGER
10
1540.637162
20
0
30
0
0
VERTEX
8
FINGER
10
1540.637162
20
95
30
0
0
SEQEND
8
FINGER
0
POLYLINE
8
FINGER
66
1
70
0
10
0
20
0
30
0
0
VERTEX
8
FINGER
10
1757.433358
20
0
30
0
0
VERTEX
8
FINGER
10
1757.433358
20
95
30
0
0
SEQEND
8
FINGER
0
TEXT
8
TEXT
10
1649.03526
20
57.5
30
0
40
15
1
T - LEAF TOP P5 L248.8 x95
72
1
11
1649.03526
21
57.5
31
0
73
2
0
TEXT
8
TEXT
10
1649.03526
20
10
30
0
40
10
1
OUT 218.8 IN 192.8 CUT J8.6/J8.6 FINGER BOTH ENDS
72
1
11
1649.03526
21
10
31
0
73
2
0
POLYLINE
8
ASSEMBLY
66
1
70
1
10
0
20
0
30
0
0
VERTEX
8
ASSEMBLY
10
1973.433358
20
0
30
0
0
VERTEX
8
ASSEMBLY
10
2222.229554
20
0
30
0
0
VERTEX
8
ASSEMBLY
10
2222.229554
20
95
30
0
0
VERTEX
8
ASSEMBLY
10
1973.433358
20
95
30
0
0
SEQEND
8
ASSEMBLY
0
POLYLINE
8
PIECES
66
1
70
1
10
0
20
0
30
0
0
VERTEX
8
PIECES
10
2205.734101
20
76.510171
30
0
42
0.075195
0
VERTEX
8
PIECES
10
1989.92881
20
76.510171
30
0
0
VERTEX
8
PIECES
10
1999.948342
20
10.263594
30
0
42
-0.075195
0
VERTEX
8
PIECES
10
2195.71457
20
10.263594
30
0
0
SEQEND
8
PIECES
0
POLYLINE
8
FINGER
66
1
70
0
10
0
20
0
30
0
0
VERTEX
8
FINGER
10
2195.71457
20
10.263594
30
0
0
VERTEX
8
FINGER
10
2205.734101
20
76.510171
30
0
0
SEQEND
8
FINGER
0
POLYLINE
8
FINGER
66
1
70
0
10
0
20
0
30
0
0
VERTEX
8
FINGER
10
1999.948342
20
10.263594
30
0
0
VERTEX
8
FINGER
10
1989.92881
20
76.510171
30
0
0
SEQEND
8
FINGER
0
POLYLINE
8
FINGER
66
1
70
0
10
0
20
0
30
0
0
VERTEX
8
FINGER
10
1989.433358
20
0
30
0
0
VERTEX
8
FINGER
10
1989.433358
20
95
30
0
0
SEQEND
8
FINGER
0
POLYLINE
8
FINGER
66
1
70
0
10
0
20
0
30
0
0
VERTEX
8
FINGER
10
2206.229554
20
0
30
0
0
VERTEX
8
FINGER
10
2206.229554
20
95
30
0
0
SEQEND
8
FINGER
0
TEXT
8
TEXT
10
2097.831456
20
57.5
30
0
40
15
1
T - LEAF TOP P6 L248.8 x95
72
1
11
2097.831456
21
57.5
31
0
73
2
0
TEXT
8
TEXT
10
2097.831456
20
10
30
0
40
10
1
OUT 218.8 IN 192.8 CUT J8.6/J8.6 FINGER BOTH ENDS
72
1
11
2097.831456
21
10
31
0
73
2
0
POLYLINE
8
ASSEMBLY
66
1
70
1
10
0
20
0
30
0
0
VERTEX
8
ASSEMBLY
10
2422.229554
20
0
30
0
0
VERTEX
8
ASSEMBLY
10
2671.02575
20
0
30
0
0
VERTEX
8
ASSEMBLY
10
2671.02575
20
95
30
0
0
VERTEX
8
ASSEMBLY
10
2422.229554
20
95
30
0
0
SEQEND
8
ASSEMBLY
0
POLYLINE
8
PIECES
66
1
70
1
10
0
20
0
30
0
0
VERTEX
8
PIECES
10
2654.530297
20
76.510171
30
0
42
0.075195
0
VERTEX
8
PIECES
10
2438.725006
20
76.510171
30
0
0
VERTEX
8
PIECES
10
2448.744537
20
10.263594
30
0
42
-0.075195
0
VERTEX
8
PIECES
10
2644.510766
20
10.263594
30
0
0
SEQEND
8
PIECES
0
POLYLINE
8
FINGER
66
1
70
0
10
0
20
0
30
0
0
VERTEX
8
FINGER
10
2644.510766
20
10.263594
30
0
0
VERTEX
8
FINGER
10
2654.530297
20
76.510171
30
0
0
SEQEND
8
FINGER
0
POLYLINE
8
FINGER
66
1
70
0
10
0
20
0
30
0
0
VERTEX
8
FINGER
10
2448.744537
20
10.263594
30
0
0
VERTEX
8
FINGER
10
2438.725006
20
76.510171
30
0
0
SEQEND
8
FINGER
0
POLYLINE
8
FINGER
66
1
70
0
10
0
20
0
30
0
0
VERTEX
8
FINGER
10
2438.229554
20
0
30
0
0
VERTEX
8
FINGER
10
2438.229554
20
95
30
0
0
SEQEND
8
FINGER
0
POLYLINE
8
FINGER
66
1
70
0
10
0
20
0
30
0
0
VERTEX
8
FINGER
10
2655.02575
20
0
30
0
0
VERTEX
8
FINGER
10
2655.02575
20
95
30
0
0
SEQEND
8
FINGER
0
TEXT
8
TEXT
10
2546.627652
20
57.5
30
0
40
15
1
T - LEAF TOP P7 L248.8 x95
72
1
11
2546.627652
21
57.5
31
0
73
2
0
TEXT
8
TEXT
10
2546.627652
20
10
30
0
40
10
1
OUT 218.8 IN 192.8 CUT J8.6/J8.6 FINGER BOTH ENDS
72
1
11
2546.627652
21
10
31
0
73
2
0
POLYLINE
8
ASSEMBLY
66
1
70
1
10
0
20
0
30
0
0
VERTEX
8
ASSEMBLY
10
2871.02575
20
0
30
0
0
VERTEX
8
ASSEMBLY
10
2992.048134
20
0
30
0
0
VERTEX
8
ASSEMBLY
10
2992.048134
20
95
30
0
0
VERTEX
8
ASSEMBLY
10
2871.02575
20
95
30
0
0
SEQEND
8
ASSEMBLY
0
POLYLINE
8
PIECES
66
1
70
1
10
0
20
0
30
0
0
VERTEX
8
PIECES
10
2975.01184
20
77.956725
30
0
42
0.102893
0
VERTEX
8
PIECES
10
2888.062044
20
77.956725
30
0
0
VERTEX
8
PIECES
10
2901.705221
20
12.360508
30
0
42
-0.102893
0
VERTEX
8
PIECES
10
2961.368663
20
12.360508
30
0
0
SEQEND
8
PIECES
0
POLYLINE
8
FINGER
66
1
70
0
10
0
20
0
30
0
0
VERTEX
8
FINGER
10
2961.368663
20
12.360508
30
0
0
VERTEX
8
FINGER
10
2975.01184
20
77.956725
30
0
0
SEQEND
8
FINGER
0
POLYLINE
8
FINGER
66
1
70
0
10
0
20
0
30
0
0
VERTEX
8
FINGER
10
2901.705221
20
12.360508
30
0
0
VERTEX
8
FINGER
10
2888.062044
20
77.956725
30
0
0
SEQEND
8
FINGER
0
POLYLINE
8
FINGER
66
1
70
0
10
0
20
0
30
0
0
VERTEX
8
FINGER
10
2887.02575
20
0
30
0
0
VERTEX
8
FINGER
10
2887.02575
20
95
30
0
0
SEQEND
8
FINGER
0
POLYLINE
8
FINGER
66
1
70
0
10
0
20
0
30
0
0
VERTEX
8
FINGER
10
2976.048134
20
0
30
0
0
VERTEX
8
FINGER
10
2976.048134
20
95
30
0
0
SEQEND
8
FINGER
0
TEXT
8
TEXT
10
2931.536942
20
57.5
30
0
40
15
1
T - LEAF TOP P8 L121 x95
72
1
11
2931.536942
21
57.5
31
0
73
2
0
TEXT
8
TEXT
10
2931.536942
20
10
30
0
40
10
1
OUT 91 IN 55.6 CUT J11.7/J11.7 FINGER BOTH ENDS
72
1
11
2931.536942
21
10
31
0
73
2
0
POLYLINE
8
ASSEMBLY
66
1
70
1
10
0
20
0
30
0
0
VERTEX
8
ASSEMBLY
10
3192.048134
20
0
30
0
0
VERTEX
8
ASSEMBLY
10
3298.070519
20
0
30
0
0
VERTEX
8
ASSEMBLY
10
3298.070519
20
95
30
0
0
VERTEX
8
ASSEMBLY
10
3192.048134
20
95
30
0
0
SEQEND
8
ASSEMBLY
0
POLYLINE
8
PIECES
66
1
70
1
10
0
20
0
30
0
0
VERTEX
8
PIECES
10
3281.034224
20
77.956725
30
0
42
0.102893
0
VERTEX
8
PIECES
10
3194.084429
20
77.956725
30
0
0
VERTEX
8
PIECES
10
3207.727606
20
12.360508
30
0
42
-0.102893
0
VERTEX
8
PIECES
10
3267.391048
20
12.360508
30
0
0
SEQEND
8
PIECES
0
POLYLINE
8
FINGER
66
1
70
0
10
0
20
0
30
0
0
VERTEX
8
FINGER
10
3267.391048
20
12.360508
30
0
0
VERTEX
8
FINGER
10
3281.034224
20
77.956725
30
0
0
SEQEND
8
FINGER
0
POLYLINE
8
FINGER
66
1
70
0
10
0
20
0
30
0
0
VERTEX
8
FINGER
10
3282.070519
20
0
30
0
0
VERTEX
8
FINGER
10
3282.070519
20
95
30
0
0
SEQEND
8
FINGER
0
TEXT
8
TEXT
10
3245.059327
20
57.5
30
0
40
15
1
T - LEAF TOP P9 L106 x95
72
1
11
3245.059327
21
57.5
31
0
73
2
0
TEXT
8
TEXT
10
3245.059327
20
10
30
0
40
10
1
OUT 91 IN 55.6 CUT S78.3/J11.7 FINGER ONE END
72
1
11
3245.059327
21
10
31
0
73
2
0
POLYLINE
8
CONTOUR
66
1
70
1
10
0
20
0
30
0
0
VERTEX
8
CONTOUR
10
1137.100834
20
312.867919
30
0
42
0.207987
0
VERTEX
8
CONTOUR
10
1069.215302
20
469.004644
30
0
42
0.393939
0
VERTEX
8
CONTOUR
10
84.986367
20
469.004644
30
0
42
0.207987
0
VERTEX
8
CONTOUR
10
17.100834
20
312.867919
30
0
0
VERTEX
8
CONTOUR
10
84.100834
20
312.867919
30
0
42
-0.207987
0
VERTEX
8
CONTOUR
10
130.68271
20
420.006234
30
0
42
-0.393939
0
VERTEX
8
CONTOUR
10
1023.518958
20
420.006234
30
0
42
-0.207987
0
VERTEX
8
CONTOUR
10
1070.100834
20
312.867919
30
0
0
SEQEND
8
CONTOUR
0
POLYLINE
8
ASSEMBLY
66
1
70
1
10
0
20
0
30
0
0
VERTEX
8
ASSEMBLY
10
1061.192107
20
295
30
0
0
VERTEX
8
ASSEMBLY
10
1042.657264
20
384.115286
30
0
0
VERTEX
8
ASSEMBLY
10
1135.666826
20
403.460088
30
0
0
VERTEX
8
ASSEMBLY
10
1154.201669
20
314.344802
30
0
0
SEQEND
8
ASSEMBLY
0
POLYLINE
8
FINGER
66
1
70
0
10
0
20
0
30
0
0
VERTEX
8
FINGER
10
1057.951598
20
371.281295
30
0
0
VERTEX
8
FINGER
10
1119.395291
20
397.995944
30
0
0
SEQEND
8
FINGER
0
POLYLINE
8
ASSEMBLY
66
1
70
1
10
0
20
0
30
0
0
VERTEX
8
ASSEMBLY
10
1056.906076
20
351.343018
30
0
0
VERTEX
8
ASSEMBLY
10
1004.375736
20
425.677653
30
0
0
VERTEX
8
ASSEMBLY
10
1081.958742
20
480.503533
30
0
0
VERTEX
8
ASSEMBLY
10
1134.489083
20
406.168898
30
0
0
SEQEND
8
ASSEMBLY
0
POLYLINE
8
FINGER
66
1
70
0
10
0
20
0
30
0
0
VERTEX
8
FINGER
10
1023.518958
20
420.006234
30
0
0
VERTEX
8
FINGER
10
1069.215302
20
469.004644
30
0
0
SEQEND
8
FINGER
0
POLYLINE
8
ASSEMBLY
66
1
70
1
10
0
20
0
30
0
0
VERTEX
8
ASSEMBLY
10
1027.220935
20
405.03187
30
0
0
VERTEX
8
ASSEMBLY
10
846.694192
20
528.651732
30
0
0
VERTEX
8
ASSEMBLY
10
900.369197
20
607.035365
30
0
0
VERTEX
8
ASSEMBLY
10
1080.89594
20
483.415503
30
0
0
SEQEND
8
ASSEMBLY
0
POLYLINE
8
FINGER
66
1
70
0
10
0
20
0
30
0
0
VERTEX
8
FINGER
10
861.994031
20
530.614163
30
0
0
VERTEX
8
FINGER
10
891.156327
20
590.934645
30
0
0
SEQEND
8
FINGER
0
POLYLINE
8
ASSEMBLY
66
1
70
1
10
0
20
0
30
0
0
VERTEX
8
ASSEMBLY
10
869.958754
20
517.404341
30
0
0
VERTEX
8
ASSEMBLY
10
660.948778
20
582.108323
30
0
0
VERTEX
8
ASSEMBLY
10
689.04286
20
672.859205
30
0
0
VERTEX
8
ASSEMBLY
10
898.052836
20
608.155223
30
0
0
SEQEND
8
ASSEMBLY
0
POLYLINE
8
FINGER
66
1
70
0
10
0
20
0
30
0
0
VERTEX
8
FINGER
10
674.983948
20
588.507558
30
0
0
VERTEX
8
FINGER
10
685.00348
20
654.754135
30
0
0
SEQEND
8
FINGER
0
POLYLINE
8
ASSEMBLY
66
1
70
1
10
0
20
0
30
0
0
VERTEX
8
ASSEMBLY
10
686.498932
20
578.243964
30
0
0
VERTEX
8
ASSEMBLY
10
467.702736
20
578.243964
30
0
0
VERTEX
8
ASSEMBLY
10
467.702736
20
673.243964
30
0
0
VERTEX
8
ASSEMBLY
10
686.498932
20
673.243964
30
0
0
SEQEND
8
ASSEMBLY
0
POLYLINE
8
FINGER
66
1
70
0
10
0
20
0
30
0
0
VERTEX
8
FINGER
10
479.21772
20
588.507558
30
0
0
VERTEX
8
FINGER
10
469.198189
20
654.754135
30
0
0
SEQEND
8
FINGER
0
POLYLINE
8
ASSEMBLY
66
1
70
1
10
0
20
0
30
0
0
VERTEX
8
ASSEMBLY
10
493.25289
20
582.108323
30
0
0
VERTEX
8
ASSEMBLY
10
284.242915
20
517.404341
30
0
0
VERTEX
8
ASSEMBLY
10
256.148832
20
608.155223
30
0
0
VERTEX
8
ASSEMBLY
10
465.158808
20
672.859205
30
0
0
SEQEND
8
ASSEMBLY
0
POLYLINE
8
FINGER
66
1
70
0
10
0
20
0
30
0
0
VERTEX
8
FINGER
10
292.207638
20
530.614163
30
0
0
VERTEX
8
FINGER
10
263.045342
20
590.934645
30
0
0
SEQEND
8
FINGER
0
POLYLINE
8
ASSEMBLY
66
1
70
1
10
0
20
0
30
0
0
VERTEX
8
ASSEMBLY
10
307.507477
20
528.651732
30
0
0
VERTEX
8
ASSEMBLY
10
126.980733
20
405.03187
30
0
0
VERTEX
8
ASSEMBLY
10
73.305728
20
483.415503
30
0
0
VERTEX
8
ASSEMBLY
10
253.832472
20
607.035365
30
0
0
SEQEND
8
ASSEMBLY
0
POLYLINE
8
FINGER
66
1
70
0
10
0
20
0
30
0
0
VERTEX
8
FINGER
10
130.68271
20
420.006234
30
0
0
VERTEX
8
FINGER
10
84.986367
20
469.004644
30
0
0
SEQEND
8
FINGER
0
POLYLINE
8
ASSEMBLY
66
1
70
1
10
0
20
0
30
0
0
VERTEX
8
ASSEMBLY
10
149.825933
20
425.677653
30
0
0
VERTEX
8
ASSEMBLY
10
97.295593
20
351.343018
30
0
0
VERTEX
8
ASSEMBLY
10
19.712586
20
406.168898
30
0
0
VERTEX
8
ASSEMBLY
10
72.242926
20
480.503533
30
0
0
SEQEND
8
ASSEMBLY
0
POLYLINE
8
FINGER
66
1
70
0
10
0
20
0
30
0
0
VERTEX
8
FINGER
10
96.250071
20
371.281295
30
0
0
VERTEX
8
FINGER
10
34.806377
20
397.995944
30
0
0
SEQEND
8
FINGER
0
POLYLINE
8
ASSEMBLY
66
1
70
1
10
0
20
0
30
0
0
VERTEX
8
ASSEMBLY
10
111.544404
20
384.115286
30
0
0
VERTEX
8
ASSEMBLY
10
93.009562
20
295
30
0
0
VERTEX
8
ASSEMBLY
10
0
20
314.344802
30
0
0
VERTEX
8
ASSEMBLY
10
18.534842
20
403.460088
30
0
0
SEQEND
8
ASSEMBLY
0
TEXT
8
TEXT
10
1254.201669
20
654.743964
30
0
40
15
1
T - LEAF TOP
72
0
11
1254.201669
21
654.743964
31
0
73
0
0
TEXT
8
TEXT
10
1254.201669
20
632.743964
30
0
40
15
1
THREE-CENTRE W1200 RISE390 H2000 HINGE R
72
0
11
1254.201669
21
632.743964
31
0
73
0
0
TEXT
8
TEXT
10
1254.201669
20
610.743964
30
0
40
15
1
FACE 67 OFFSET 40 OUTER L1433.3 INNER L1222.9
72
0
11
1254.201669
21
610.743964
31
0
73
0
0
TEXT
8
TEXT
10
1254.201669
20
588.743964
30
0
40
15
1
ARC 1 R213.5 L175.1 47DEG: 2 x board 95 L91 ROUGH 121
72
0
11
1254.201669
21
588.743964
31
0
73
0
0
TEXT
8
TEXT
10
1254.201669
20
566.743964
30
0
40
15
1
ARC 2 R721.5 L1083.1 86DEG: 5 x board 95 L218.8 ROUGH 248.8 (ALT 3 x board 180)
72
0
11
1254.201669
21
566.743964
31
0
73
0
0
TEXT
8
TEXT
10
1254.201669
20
544.743964
30
0
40
15
1
ARC 3 R213.5 L175.1 47DEG: 2 x board 95 L91 ROUGH 121
72
0
11
1254.201669
21
544.743964
31
0
73
0
0
TEXT
8
TEXT
10
1254.201669
20
522.743964
30
0
40
15
1
FINGER 15/16/3.8
72
0
11
1254.201669
21
522.743964
31
0
73
0
0
TEXT
8
TEXT
10
1254.201669
20
500.743964
30
0
40
15
1
ALLOWANCE 10 PER SIDE  MAX SEGMENT 36 DEG  RULE NARROWEST
72
0
11
1254.201669
21
500.743964
31
0
73
0
0
TEXT
8
TEXT
10
1254.201669
20
478.743964
30
0
40
15
1
CUT CODES: J = JOINT FROM SQUARE  S = ARCH-START, AXIS TO HORIZONTAL  A = APEX FROM SQUARE
72
0
11
1254.201669
21
478.743964
31
0
73
0
0
POLYLINE
8
ASSEMBLY
66
1
70
1
10
0
20
0
30
0
0
VERTEX
8
ASSEMBLY
10
0
20
873.243964
30
0
0
VERTEX
8
ASSEMBLY
10
122.312745
20
873.243964
30
0
0
VERTEX
8
ASSEMBLY
10
122.312745
20
968.243964
30
0
0
VERTEX
8
ASSEMBLY
10
0
20
968.243964
30
0
0
SEQEND
8
ASSEMBLY
0
POLYLINE
8
PIECES
66
1
70
1
10
0
20
0
30
0
0
VERTEX
8
PIECES
10
120.27645
20
945.88641
30
0
42
0.102893
0
VERTEX
8
PIECES
10
17.036295
20
945.88641
30
0
0
VERTEX
8
PIECES
10
28.643176
20
890.080672
30
0
42
-0.102893
0
VERTEX
8
PIECES
10
108.669568
20
890.080672
30
0
0
SEQEND
8
PIECES
0
POLYLINE
8
FINGER
66
1
70
0
10
0
20
0
30
0
0
VERTEX
8
FINGER
10
28.643176
20
890.080672
30
0
0
VERTEX
8
FINGER
10
17.036295
20
945.88641
30
0
0
SEQEND
8
FINGER
0
POLYLINE
8
FINGER
66
1
70
0
10
0
20
0
30
0
0
VERTEX
8
FINGER
10
16
20
873.243964
30
0
0
VERTEX
8
FINGER
10
16
20
968.243964
30
0
0
SEQEND
8
FINGER
0
TEXT
8
TEXT
10
61.156372
20
930.743964
30
0
40
15
1
T - FRAME HEAD P1 L122.3 x95
72
1
11
61.156372
21
930.743964
31
0
73
2
0
TEXT
8
TEXT
10
61.156372
20
883.243964
30
0
40
10
1
OUT 107.3 IN 76 CUT J11.7/S78.3 FINGER ONE END
72
1
11
61.156372
21
883.243964
31
0
73
2
0
POLYLINE
8
ASSEMBLY
66
1
70
1
10
0
20
0
30
0
0
VERTEX
8
ASSEMBLY
10
322.312745
20
873.243964
30
0
0
VERTEX
8
ASSEMBLY
10
459.625489
20
873.243964
30
0
0
VERTEX
8
ASSEMBLY
10
459.625489
20
968.243964
30
0
0
VERTEX
8
ASSEMBLY
10
322.312745
20
968.243964
30
0
0
SEQEND
8
ASSEMBLY
0
POLYLINE
8
PIECES
66
1
70
1
10
0
20
0
30
0
0
VERTEX
8
PIECES
10
442.589194
20
945.88641
30
0
42
0.102893
0
VERTEX
8
PIECES
10
339.34904
20
945.88641
30
0
0
VERTEX
8
PIECES
10
350.955921
20
890.080672
30
0
42
-0.102893
0
VERTEX
8
PIECES
10
430.982313
20
890.080672
30
0
0
SEQEND
8
PIECES
0
POLYLINE
8
FINGER
66
1
70
0
10
0
20
0
30
0
0
VERTEX
8
FINGER
10
430.982313
20
890.080672
30
0
0
VERTEX
8
FINGER
10
442.589194
20
945.88641
30
0
0
SEQEND
8
FINGER
0
POLYLINE
8
FINGER
66
1
70
0
10
0
20
0
30
0
0
VERTEX
8
FINGER
10
350.955921
20
890.080672
30
0
0
VERTEX
8
FINGER
10
339.34904
20
945.88641
30
0
0
SEQEND
8
FINGER
0
POLYLINE
8
FINGER
66
1
70
0
10
0
20
0
30
0
0
VERTEX
8
FINGER
10
338.312745
20
873.243964
30
0
0
VERTEX
8
FINGER
10
338.312745
20
968.243964
30
0
0
SEQEND
8
FINGER
0
POLYLINE
8
FINGER
66
1
70
0
10
0
20
0
30
0
0
VERTEX
8
FINGER
10
443.625489
20
873.243964
30
0
0
VERTEX
8
FINGER
10
443.625489
20
968.243964
30
0
0
SEQEND
8
FINGER
0
TEXT
8
TEXT
10
390.969117
20
930.743964
30
0
40
15
1
T - FRAME HEAD P2 L137.3 x95
72
1
11
390.969117
21
930.743964
31
0
73
2
0
TEXT
8
TEXT
10
390.969117
20
883.243964
30
0
40
10
1
OUT 107.3 IN 76 CUT J11.7/J11.7 FINGER BOTH ENDS
72
1
11
390.969117
21
883.243964
31
0
73
2
0
POLYLINE
8
ASSEMBLY
66
1
70
1
10
0
20
0
30
0
0
VERTEX
8
ASSEMBLY
10
659.625489
20
873.243964
30
0
0
VERTEX
8
ASSEMBLY
10
977.4654
20
873.243964
30
0
0
VERTEX
8
ASSEMBLY
10
977.4654
20
968.243964
30
0
0
VERTEX
8
ASSEMBLY
10
659.625489
20
968.243964
30
0
0
SEQEND
8
ASSEMBLY
0
POLYLINE
8
PIECES
66
1
70
1
10
0
20
0
30
0
0
VERTEX
8
PIECES
10
960.600037
20
941.972737
30
0
42
0.094094
0
VERTEX
8
PIECES
10
676.490853
20
941.972737
30
0
0
VERTEX
8
PIECES
10
687.123424
20
885.973197
30
0
42
-0.094094
0
VERTEX
8
PIECES
10
949.967466
20
885.973197
30
0
0
SEQEND
8
PIECES
0
POLYLINE
8
FINGER
66
1
70
0
10
0
20
0
30
0
0
VERTEX
8
FINGER
10
949.967466
20
885.973197
30
0
0
VERTEX
8
FINGER
10
960.600037
20
941.972737
30
0
0
SEQEND
8
FINGER
0
POLYLINE
8
FINGER
66
1
70
0
10
0
20
0
30
0
0
VERTEX
8
FINGER
10
687.123424
20
885.973197
30
0
0
VERTEX
8
FINGER
10
676.490853
20
941.972737
30
0
0
SEQEND
8
FINGER
0
POLYLINE
8
FINGER
66
1
70
0
10
0
20
0
30
0
0
VERTEX
8
FINGER
10
675.625489
20
873.243964
30
0
0
VERTEX
8
FINGER
10
675.625489
20
968.243964
30
0
0
SEQEND
8
FINGER
0
POLYLINE
8
FINGER
66
1
70
0
10
0
20
0
30
0
0
VERTEX
8
FINGER
10
961.4654
20
873.243964
30
0
0
VERTEX
8
FINGER
10
961.4654
20
968.243964
30
0
0
SEQEND
8
FINGER
0
TEXT
8
TEXT
10
818.545445
20
930.743964
30
0
40
15
1
T - FRAME HEAD P3 L317.8 x95
72
1
11
818.545445
21
930.743964
31
0
73
2
0
TEXT
8
TEXT
10
818.545445
20
883.243964
30
0
40
10
1
OUT 287.8 IN 259.1 CUT J10.8/J10.8 FINGER BOTH ENDS
72
1
11
818.545445
21
883.243964
31
0
73
2
0
POLYLINE
8
ASSEMBLY
66
1
70
1
10
0
20
0
30
0
0
VERTEX
8
ASSEMBLY
10
1177.4654
20
873.243964
30
0
0
VERTEX
8
ASSEMBLY
10
1495.305311
20
873.243964
30
0
0
VERTEX
8
ASSEMBLY
10
1495.305311
20
968.243964
30
0
0
VERTEX
8
ASSEMBLY
10
1177.4654
20
968.243964
30
0
0
SEQEND
8
ASSEMBLY
0
POLYLINE
8
PIECES
66
1
70
1
10
0
20
0
30
0
0
VERTEX
8
PIECES
10
1478.439948
20
941.972737
30
0
42
0.094094
0
VERTEX
8
PIECES
10
1194.330764
20
941.972737
30
0
0
VERTEX
8
PIECES
10
1204.963335
20
885.973197
30
0
42
-0.094094
0
VERTEX
8
PIECES
10
1467.807377
20
885.973197
30
0
0
SEQEND
8
PIECES
0
POLYLINE
8
FINGER
66
1
70
0
10
0
20
0
30
0
0
VERTEX
8
FINGER
10
1467.807377
20
885.973197
30
0
0
VERTEX
8
FINGER
10
1478.439948
20
941.972737
30
0
0
SEQEND
8
FINGER
0
POLYLINE
8
FINGER
66
1
70
0
10
0
20
0
30
0
0
VERTEX
8
FINGER
10
1204.963335
20
885.973197
30
0
0
VERTEX
8
FINGER
10
1194.330764
20
941.972737
30
0
0
SEQEND
8
FINGER
0
POLYLINE
8
FINGER
66
1
70
0
10
0
20
0
30
0
0
VERTEX
8
FINGER
10
1193.4654
20
873.243964
30
0
0
VERTEX
8
FINGER
10
1193.4654
20
968.243964
30
0
0
SEQEND
8
FINGER
0
POLYLINE
8
FINGER
66
1
70
0
10
0
20
0
30
0
0
VERTEX
8
FINGER
10
1479.305311
20
873.243964
30
0
0
VERTEX
8
FINGER
10
1479.305311
20
968.243964
30
0
0
SEQEND
8
FINGER
0
TEXT
8
TEXT
10
1336.385356
20
930.743964
30
0
40
15
1
T - FRAME HEAD P4 L317.8 x95
72
1
11
1336.385356
21
930.743964
31
0
73
2
0
TEXT
8
TEXT
10
1336.385356
20
883.243964
30
0
40
10
1
OUT 287.8 IN 259.1 CUT J10.8/J10.8 FINGER BOTH ENDS
72
1
11
1336.385356
21
883.243964
31
0
73
2
0
POLYLINE
8
ASSEMBLY
66
1
70
1
10
0
20
0
30
0
0
VERTEX
8
ASSEMBLY
10
1695.305311
20
873.243964
30
0
0
VERTEX
8
ASSEMBLY
10
2013.145222
20
873.243964
30
0
0
VERTEX
8
ASSEMBLY
10
2013.145222
20
968.243964
30
0
0
VERTEX
8
ASSEMBLY
10
1695.305311
20
968.243964
30
0
0
SEQEND
8
ASSEMBLY
0
POLYLINE
8
PIECES
66
1
70
1
10
0
20
0
30
0
0
VERTEX
8
PIECES
10
1996.279859
20
941.972737
30
0
42
0.094094
0
VERTEX
8
PIECES
10
1712.170675
20
941.972737
30
0
0
VERTEX
8
PIECES
10
1722.803246
20
885.973197
30
0
42
-0.094094
0
VERTEX
8
PIECES
10
1985.647288
20
885.973197
30
0
0
SEQEND
8
PIECES
0
POLYLINE
8
FINGER
66
1
70
0
10
0
20
0
30
0
0
VERTEX
8
FINGER
10
1985.647288
20
885.973197
30
0
0
VERTEX
8
FINGER
10
1996.279859
20
941.972737
30
0
0
SEQEND
8
FINGER
0
POLYLINE
8
FINGER
66
1
70
0
10
0
20
0
30
0
0
VERTEX
8
FINGER
10
1722.803246
20
885.973197
30
0
0
VERTEX
8
FINGER
10
1712.170675
20
941.972737
30
0
0
SEQEND
8
FINGER
0
POLYLINE
8
FINGER
66
1
70
0
10
0
20
0
30
0
0
VERTEX
8
FINGER
10
1711.305311
20
873.243964
30
0
0
VERTEX
8
FINGER
10
1711.305311
20
968.243964
30
0
0
SEQEND
8
FINGER
0
POLYLINE
8
FINGER
66
1
70
0
10
0
20
0
30
0
0
VERTEX
8
FINGER
10
1997.145222
20
873.243964
30
0
0
VERTEX
8
FINGER
10
1997.145222
20
968.243964
30
0
0
SEQEND
8
FINGER
0
TEXT
8
TEXT
10
1854.225267
20
930.743964
30
0
40
15
1
T - FRAME HEAD P5 L317.8 x95
72
1
11
1854.225267
21
930.743964
31
0
73
2
0
TEXT
8
TEXT
10
1854.225267
20
883.243964
30
0
40
10
1
OUT 287.8 IN 259.1 CUT J10.8/J10.8 FINGER BOTH ENDS
72
1
11
1854.225267
21
883.243964
31
0
73
2
0
POLYLINE
8
ASSEMBLY
66
1
70
1
10
0
20
0
30
0
0
VERTEX
8
ASSEMBLY
10
2213.145222
20
873.243964
30
0
0
VERTEX
8
ASSEMBLY
10
2530.985133
20
873.243964
30
0
0
VERTEX
8
ASSEMBLY
10
2530.985133
20
968.243964
30
0
0
VERTEX
8
ASSEMBLY
10
2213.145222
20
968.243964
30
0
0
SEQEND
8
ASSEMBLY
0
POLYLINE
8
PIECES
66
1
70
1
10
0
20
0
30
0
0
VERTEX
8
PIECES
10
2514.11977
20
941.972737
30
0
42
0.094094
0
VERTEX
8
PIECES
10
2230.010586
20
941.972737
30
0
0
VERTEX
8
PIECES
10
2240.643157
20
885.973197
30
0
42
-0.094094
0
VERTEX
8
PIECES
10
2503.487199
20
885.973197
30
0
0
SEQEND
8
PIECES
0
POLYLINE
8
FINGER
66
1
70
0
10
0
20
0
30
0
0
VERTEX
8
FINGER
10
2503.487199
20
885.973197
30
0
0
VERTEX
8
FINGER
10
2514.11977
20
941.972737
30
0
0
SEQEND
8
FINGER
0
POLYLINE
8
FINGER
66
1
70
0
10
0
20
0
30
0
0
VERTEX
8
FINGER
10
2240.643157
20
885.973197
30
0
0
VERTEX
8
FINGER
10
2230.010586
20
941.972737
30
0
0
SEQEND
8
FINGER
0
POLYLINE
8
FINGER
66
1
70
0
10
0
20
0
30
0
0
VERTEX
8
FINGER
10
2229.145222
20
873.243964
30
0
0
VERTEX
8
FINGER
10
2229.145222
20
968.243964
30
0
0
SEQEND
8
FINGER
0
POLYLINE
8
FINGER
66
1
70
0
10
0
20
0
30
0
0
VERTEX
8
FINGER
10
2514.985133
20
873.243964
30
0
0
VERTEX
8
FINGER
10
2514.985133
20
968.243964
30
0
0
SEQEND
8
FINGER
0
TEXT
8
TEXT
10
2372.065178
20
930.743964
30
0
40
15
1
T - FRAME HEAD P6 L317.8 x95
72
1
11
2372.065178
21
930.743964
31
0
73
2
0
TEXT
8
TEXT
10
2372.065178
20
883.243964
30
0
40
10
1
OUT 287.8 IN 259.1 CUT J10.8/J10.8 FINGER BOTH ENDS
72
1
11
2372.065178
21
883.243964
31
0
73
2
0
POLYLINE
8
ASSEMBLY
66
1
70
1
10
0
20
0
30
0
0
VERTEX
8
ASSEMBLY
10
2730.985133
20
873.243964
30
0
0
VERTEX
8
ASSEMBLY
10
2868.297878
20
873.243964
30
0
0
VERTEX
8
ASSEMBLY
10
2868.297878
20
968.243964
30
0
0
VERTEX
8
ASSEMBLY
10
2730.985133
20
968.243964
30
0
0
SEQEND
8
ASSEMBLY
0
POLYLINE
8
PIECES
66
1
70
1
10
0
20
0
30
0
0
VERTEX
8
PIECES
10
2851.261583
20
945.88641
30
0
42
0.102893
0
VERTEX
8
PIECES
10
2748.021428
20
945.88641
30
0
0
VERTEX
8
PIECES
10
2759.62831
20
890.080672
30
0
42
-0.102893
0
VERTEX
8
PIECES
10
2839.654702
20
890.080672
30
0
0
SEQEND
8
PIECES
0
POLYLINE
8
FINGER
66
1
70
0
10
0
20
0
30
0
0
VERTEX
8
FINGER
10
2839.654702
20
890.080672
30
0
0
VERTEX
8
FINGER
10
2851.261583
20
945.88641
30
0
0
SEQEND
8
FINGER
0
POLYLINE
8
FINGER
66
1
70
0
10
0
20
0
30
0
0
VERTEX
8
FINGER
10
2759.62831
20
890.080672
30
0
0
VERTEX
8
FINGER
10
2748.021428
20
945.88641
30
0
0
SEQEND
8
FINGER
0
POLYLINE
8
FINGER
66
1
70
0
10
0
20
0
30
0
0
VERTEX
8
FINGER
10
2746.985133
20
873.243964
30
0
0
VERTEX
8
FINGER
10
2746.985133
20
968.243964
30
0
0
SEQEND
8
FINGER
0
POLYLINE
8
FINGER
66
1
70
0
10
0
20
0
30
0
0
VERTEX
8
FINGER
10
2852.297878
20
873.243964
30
0
0
VERTEX
8
FINGER
10
2852.297878
20
968.243964
30
0
0
SEQEND
8
FINGER
0
TEXT
8
TEXT
10
2799.641506
20
930.743964
30
0
40
15
1
T - FRAME HEAD P7 L137.3 x95
72
1
11
2799.641506
21
930.743964
31
0
73
2
0
TEXT
8
TEXT
10
2799.641506
20
883.243964
30
0
40
10
1
OUT 107.3 IN 76 CUT J11.7/J11.7 FINGER BOTH ENDS
72
1
11
2799.641506
21
883.243964
31
0
73
2
0
POLYLINE
8
ASSEMBLY
66
1
70
1
10
0
20
0
30
0
0
VERTEX
8
ASSEMBLY
10
3068.297878
20
873.243964
30
0
0
VERTEX
8
ASSEMBLY
10
3190.610623
20
873.243964
30
0
0
VERTEX
8
ASSEMBLY
10
3190.610623
20
968.243964
30
0
0
VERTEX
8
ASSEMBLY
10
3068.297878
20
968.243964
30
0
0
SEQEND
8
ASSEMBLY
0
POLYLINE
8
PIECES
66
1
70
1
10
0
20
0
30
0
0
VERTEX
8
PIECES
10
3173.574328
20
945.88641
30
0
42
0.102893
0
VERTEX
8
PIECES
10
3070.334173
20
945.88641
30
0
0
VERTEX
8
PIECES
10
3081.941054
20
890.080672
30
0
42
-0.102893
0
VERTEX
8
PIECES
10
3161.967447
20
890.080672
30
0
0
SEQEND
8
PIECES
0
POLYLINE
8
FINGER
66
1
70
0
10
0
20
0
30
0
0
VERTEX
8
FINGER
10
3161.967447
20
890.080672
30
0
0
VERTEX
8
FINGER
10
3173.574328
20
945.88641
30
0
0
SEQEND
8
FINGER
0
POLYLINE
8
FINGER
66
1
70
0
10
0
20
0
30
0
0
VERTEX
8
FINGER
10
3174.610623
20
873.243964
30
0
0
VERTEX
8
FINGER
10
3174.610623
20
968.243964
30
0
0
SEQEND
8
FINGER
0
TEXT
8
TEXT
10
3129.454251
20
930.743964
30
0
40
15
1
T - FRAME HEAD P8 L122.3 x95
72
1
11
3129.454251
21
930.743964
31
0
73
2
0
TEXT
8
TEXT
10
3129.454251
20
883.243964
30
0
40
10
1
OUT 107.3 IN 76 CUT S78.3/J11.7 FINGER ONE END
72
1
11
3129.454251
21
883.243964
31
0
73
2
0
POLYLINE
8
CONTOUR
66
1
70
1
10
0
20
0
30
0
0
VERTEX
8
CONTOUR
10
1222.303769
20
1185.029739
30
0
42
0.207987
0
VERTEX
8
CONTOUR
10
1141.699636
20
1370.419247
30
0
42
0.393939
0
VERTEX
8
CONTOUR
10
102.907903
20
1370.419247
30
0
42
0.207987
0
VERTEX
8
CONTOUR
10
22.303769
20
1185.029739
30
0
0
VERTEX
8
CONTOUR
10
79.303769
20
1185.029739
30
0
42
-0.207987
0
VERTEX
8
CONTOUR
10
141.783896
20
1328.734032
30
0
42
-0.393939
0
VERTEX
8
CONTOUR
10
1102.823642
20
1328.734032
30
0
42
-0.207987
0
VERTEX
8
CONTOUR
10
1165.303769
20
1185.029739
30
0
0
SEQEND
8
CONTOUR
0
POLYLINE
8
ASSEMBLY
66
1
70
1
10
0
20
0
30
0
0
VERTEX
8
ASSEMBLY
10
1151.597977
20
1168.243964
30
0
0
VERTEX
8
ASSEMBLY
10
1129.745936
20
1273.308295
30
0
0
VERTEX
8
ASSEMBLY
10
1222.755498
20
1292.653097
30
0
0
VERTEX
8
ASSEMBLY
10
1244.607539
20
1187.588766
30
0
0
SEQEND
8
ASSEMBLY
0
POLYLINE
8
FINGER
66
1
70
0
10
0
20
0
30
0
0
VERTEX
8
FINGER
10
1149.008035
20
1263.37942
30
0
0
VERTEX
8
FINGER
10
1201.281029
20
1286.106809
30
0
0
SEQEND
8
FINGER
0
POLYLINE
8
ASSEMBLY
66
1
70
1
10
0
20
0
30
0
0
VERTEX
8
ASSEMBLY
10
1143.13179
20
1242.520831
30
0
0
VERTEX
8
ASSEMBLY
10
1081.200046
20
1330.159203
30
0
0
VERTEX
8
ASSEMBLY
10
1158.783053
20
1384.985083
30
0
0
VERTEX
8
ASSEMBLY
10
1220.714797
20
1297.346711
30
0
0
SEQEND
8
ASSEMBLY
0
POLYLINE
8
FINGER
66
1
70
0
10
0
20
0
30
0
0
VERTEX
8
FINGER
10
1102.823642
20
1328.734032
30
0
0
VERTEX
8
FINGER
10
1141.699636
20
1370.419247
30
0
0
SEQEND
8
FINGER
0
POLYLINE
8
ASSEMBLY
66
1
70
1
10
0
20
0
30
0
0
VERTEX
8
ASSEMBLY
10
1106.600335
20
1311.299344
30
0
0
VERTEX
8
ASSEMBLY
10
863.171882
20
1464.90404
30
0
0
VERTEX
8
ASSEMBLY
10
913.868277
20
1545.24628
30
0
0
VERTEX
8
ASSEMBLY
10
1157.296731
20
1391.641584
30
0
0
SEQEND
8
ASSEMBLY
0
POLYLINE
8
FINGER
66
1
70
0
10
0
20
0
30
0
0
VERTEX
8
FINGER
10
880.53439
20
1468.999776
30
0
0
VERTEX
8
FINGER
10
901.426287
20
1522.033054
30
0
0
SEQEND
8
FINGER
0
POLYLINE
8
ASSEMBLY
66
1
70
1
10
0
20
0
30
0
0
VERTEX
8
ASSEMBLY
10
890.438497
20
1454.162646
30
0
0
VERTEX
8
ASSEMBLY
10
607.650733
20
1507.855248
30
0
0
VERTEX
8
ASSEMBLY
10
625.371685
20
1601.187814
30
0
0
VERTEX
8
ASSEMBLY
10
908.159448
20
1547.495212
30
0
0
SEQEND
8
ASSEMBLY
0
POLYLINE
8
FINGER
66
1
70
0
10
0
20
0
30
0
0
VERTEX
8
FINGER
10
622.303769
20
1518.029739
30
0
0
VERTEX
8
FINGER
10
622.303769
20
1575.029739
30
0
0
SEQEND
8
FINGER
0
POLYLINE
8
ASSEMBLY
66
1
70
1
10
0
20
0
30
0
0
VERTEX
8
ASSEMBLY
10
636.956805
20
1507.855248
30
0
0
VERTEX
8
ASSEMBLY
10
354.169042
20
1454.162646
30
0
0
VERTEX
8
ASSEMBLY
10
336.44809
20
1547.495212
30
0
0
VERTEX
8
ASSEMBLY
10
619.235853
20
1601.187814
30
0
0
SEQEND
8
ASSEMBLY
0
POLYLINE
8
FINGER
66
1
70
0
10
0
20
0
30
0
0
VERTEX
8
FINGER
10
364.073149
20
1468.999776
30
0
0
VERTEX
8
FINGER
10
343.181251
20
1522.033054
30
0
0
SEQEND
8
FINGER
0
POLYLINE
8
ASSEMBLY
66
1
70
1
10
0
20
0
30
0
0
VERTEX
8
ASSEMBLY
10
381.435657
20
1464.90404
30
0
0
VERTEX
8
ASSEMBLY
10
138.007204
20
1311.299344
30
0
0
VERTEX
8
ASSEMBLY
10
87.310808
20
1391.641584
30
0
0
VERTEX
8
ASSEMBLY
10
330.739261
20
1545.24628
30
0
0
SEQEND
8
ASSEMBLY
0
POLYLINE
8
FINGER
66
1
70
0
10
0
20
0
30
0
0
VERTEX
8
FINGER
10
141.783896
20
1328.734032
30
0
0
VERTEX
8
FINGER
10
102.907903
20
1370.419247
30
0
0
SEQEND
8
FINGER
0
POLYLINE
8
ASSEMBLY
66
1
70
1
10
0
20
0
30
0
0
VERTEX
8
ASSEMBLY
10
163.407492
20
1330.159203
30
0
0
VERTEX
8
ASSEMBLY
10
101.475749
20
1242.520831
30
0
0
VERTEX
8
ASSEMBLY
10
23.892742
20
1297.346711
30
0
0
VERTEX
8
ASSEMBLY
10
85.824486
20
1384.985083
30
0
0
SEQEND
8
ASSEMBLY
0
POLYLINE
8
FINGER
66
1
70
0
10
0
20
0
30
0
0
VERTEX
8
FINGER
10
95.599503
20
1263.37942
30
0
0
VERTEX
8
FINGER
10
43.32651
20
1286.106809
30
0
0
SEQEND
8
FINGER
0
POLYLINE
8
ASSEMBLY
66
1
70
1
10
0
20
0
30
0
0
VERTEX
8
ASSEMBLY
10
114.861602
20
1273.308295
30
0
0
VERTEX
8
ASSEMBLY
10
93.009562
20
1168.243964
30
0
0
VERTEX
8
ASSEMBLY
10
0
20
1187.588766
30
0
0
VERTEX
8
ASSEMBLY
10
21.85204
20
1292.653097
30
0
0
SEQEND
8
ASSEMBLY
0
TEXT
8
TEXT
10
1344.607539
20
1582.687814
30
0
40
15
1
T - FRAME HEAD
72
0
11
1344.607539
21
1582.687814
31
0
73
0
0
TEXT
8
TEXT
10
1344.607539
20
1560.687814
30
0
40
15
1
THREE-CENTRE W1200 RISE390 H2000 HINGE R
72
0
11
1344.607539
21
1560.687814
31
0
73
0
0
TEXT
8
TEXT
10
1344.607539
20
1538.687814
30
0
40
15
1
FACE 57 OFFSET 0 OUTER L1559 INNER L1379.9
72
0
11
1344.607539
21
1538.687814
31
0
73
0
0
TEXT
8
TEXT
10
1344.607539
20
1516.687814
30
0
40
15
1
ARC 1 R253.5 L207.9 47DEG: 2 x board 95 L107.3 ROUGH 137.3
72
0
11
1344.607539
21
1516.687814
31
0
73
0
0
TEXT
8
TEXT
10
1344.607539
20
1494.687814
30
0
40
15
1
ARC 2 R761.5 L1143.1 86DEG: 4 x board 95 L287.8 ROUGH 317.8 (ALT 3 x board 105)
72
0
11
1344.607539
21
1494.687814
31
0
73
0
0
TEXT
8
TEXT
10
1344.607539
20
1472.687814
30
0
40
15
1
ARC 3 R253.5 L207.9 47DEG: 2 x board 95 L107.3 ROUGH 137.3
72
0
11
1344.607539
21
1472.687814
31
0
73
0
0
TEXT
8
TEXT
10
1344.607539
20
1450.687814
30
0
40
15
1
FINGER 15/16/3.8
72
0
11
1344.607539
21
1450.687814
31
0
73
0
0
TEXT
8
TEXT
10
1344.607539
20
1428.687814
30
0
40
15
1
ALLOWANCE 10 PER SIDE  MAX SEGMENT 36 DEG  RULE NARROWEST
72
0
11
1344.607539
21
1428.687814
31
0
73
0
0
TEXT
8
TEXT
10
1344.607539
20
1406.687814
30
0
40
15
1
CUT CODES: J = JOINT FROM SQUARE  S = ARCH-START, AXIS TO HORIZONTAL  A = APEX FROM SQUARE
72
0
11
1344.607539
21
1406.687814
31
0
73
0
0
POLYLINE
8
FIT
66
1
70
1
10
0
20
0
30
0
0
VERTEX
8
FIT
10
1200
20
1801.187814
30
0
42
0.207987
0
VERTEX
8
FIT
10
1119.395866
20
1986.577321
30
0
42
0.393939
0
VERTEX
8
FIT
10
80.604134
20
1986.577321
30
0
42
0.207987
0
VERTEX
8
FIT
10
0
20
1801.187814
30
0
0
VERTEX
8
FIT
10
57
20
1801.187814
30
0
42
-0.207987
0
VERTEX
8
FIT
10
119.480127
20
1944.892106
30
0
42
-0.393939
0
VERTEX
8
FIT
10
1080.519873
20
1944.892106
30
0
42
-0.207987
0
VERTEX
8
FIT
10
1143
20
1801.187814
30
0
0
SEQEND
8
FIT
0
POLYLINE
8
FIT
66
1
70
1
10
0
20
0
30
0
0
VERTEX
8
FIT
10
1160
20
1801.187814
30
0
42
0.207987
0
VERTEX
8
FIT
10
1092.114467
20
1957.324539
30
0
42
0.393939
0
VERTEX
8
FIT
10
107.885533
20
1957.324539
30
0
42
0.207987
0
VERTEX
8
FIT
10
40
20
1801.187814
30
0
0
VERTEX
8
FIT
10
107
20
1801.187814
30
0
42
-0.207987
0
VERTEX
8
FIT
10
153.581876
20
1908.326129
30
0
42
-0.393939
0
VERTEX
8
FIT
10
1046.418124
20
1908.326129
30
0
42
-0.207987
0
VERTEX
8
FIT
10
1093
20
1801.187814
30
0
0
SEQEND
8
FIT
0
POLYLINE
8
FIT
66
1
70
1
10
0
20
0
30
0
0
VERTEX
8
FIT
10
1105.5
20
1801.187814
30
0
42
0.207987
0
VERTEX
8
FIT
10
1054.943561
20
1917.467623
30
0
42
0.393939
0
VERTEX
8
FIT
10
145.056439
20
1917.467623
30
0
42
0.207987
0
VERTEX
8
FIT
10
94.5
20
1801.187814
30
0
0
SEQEND
8
FIT
0
POLYLINE
8
FIT
66
1
70
0
10
0
20
0
30
0
0
VERTEX
8
FIT
10
1164
20
1801.187814
30
0
42
0.022993
0
VERTEX
8
FIT
10
1163.081108
20
1821.159641
30
0
0
SEQEND
8
FIT
0
POLYLINE
8
FIT
66
1
70
0
10
0
20
0
30
0
0
VERTEX
8
FIT
10
1161.934313
20
1831.09278
30
0
42
0.022993
0
VERTEX
8
FIT
10
1158.278139
20
1850.748583
30
0
0
SEQEND
8
FIT
0
POLYLINE
8
FIT
66
1
70
0
10
0
20
0
30
0
0
VERTEX
8
FIT
10
1155.776488
20
1860.429705
30
0
42
0.022993
0
VERTEX
8
FIT
10
1149.452481
20
1879.396128
30
0
0
SEQEND
8
FIT
0
POLYLINE
8
FIT
66
1
70
0
10
0
20
0
30
0
0
VERTEX
8
FIT
10
1145.643492
20
1888.641342
30
0
42
0.022993
0
VERTEX
8
FIT
10
1136.771776
20
1906.558119
30
0
0
SEQEND
8
FIT
0
POLYLINE
8
FIT
66
1
70
0
10
0
20
0
30
0
0
VERTEX
8
FIT
10
1131.7278
20
1915.191814
30
0
42
0.022993
0
VERTEX
8
FIT
10
1120.476892
20
1931.718619
30
0
0
SEQEND
8
FIT
0
POLYLINE
8
FIT
66
1
70
0
10
0
20
0
30
0
0
VERTEX
8
FIT
10
1114.293739
20
1939.576799
30
0
42
0.022993
0
VERTEX
8
FIT
10
1100.877347
20
1954.399709
30
0
0
SEQEND
8
FIT
0
POLYLINE
8
FIT
66
1
70
0
10
0
20
0
30
0
0
VERTEX
8
FIT
10
1094.842607
20
1960.249817
30
0
42
0.006892
0
VERTEX
8
FIT
10
1080.030072
20
1973.687208
30
0
0
SEQEND
8
FIT
0
POLYLINE
8
FIT
66
1
70
0
10
0
20
0
30
0
0
VERTEX
8
FIT
10
1072.486314
20
1980.251516
30
0
42
0.006892
0
VERTEX
8
FIT
10
1057.130981
20
1993.065118
30
0
0
SEQEND
8
FIT
0
POLYLINE
8
FIT
66
1
70
0
10
0
20
0
30
0
0
VERTEX
8
FIT
10
1049.322323
20
1999.31198
30
0
42
0.006892
0
VERTEX
8
FIT
10
1033.450441
20
2011.47989
30
0
0
SEQEND
8
FIT
0
POLYLINE
8
FIT
66
1
70
0
10
0
20
0
30
0
0
VERTEX
8
FIT
10
1025.390232
20
2017.398627
30
0
42
0.006892
0
VERTEX
8
FIT
10
1009.028934
20
2028.900043
30
0
0
SEQEND
8
FIT
0
POLYLINE
8
FIT
66
1
70
0
10
0
20
0
30
0
0
VERTEX
8
FIT
10
1000.730952
20
2034.480538
30
0
42
0.006892
0
VERTEX
8
FIT
10
983.908206
20
2045.2958
30
0
0
SEQEND
8
FIT
0
POLYLINE
8
FIT
66
1
70
0
10
0
20
0
30
0
0
VERTEX
8
FIT
10
975.386637
20
2050.528513
30
0
42
0.006892
0
VERTEX
8
FIT
10
958.131202
20
2060.639132
30
0
0
SEQEND
8
FIT
0
POLYLINE
8
FIT
66
1
70
0
10
0
20
0
30
0
0
VERTEX
8
FIT
10
949.400613
20
2065.515117
30
0
42
0.006892
0
VERTEX
8
FIT
10
931.741985
20
2074.903809
30
0
0
SEQEND
8
FIT
0
POLYLINE
8
FIT
66
1
70
0
10
0
20
0
30
0
0
VERTEX
8
FIT
10
922.817301
20
2079.414733
30
0
42
0.006892
0
VERTEX
8
FIT
10
904.785668
20
2088.065449
30
0
0
SEQEND
8
FIT
0
POLYLINE
8
FIT
66
1
70
0
10
0
20
0
30
0
0
VERTEX
8
FIT
10
895.682145
20
2092.203598
30
0
42
0.006892
0
VERTEX
8
FIT
10
877.308331
20
2100.10155
30
0
0
SEQEND
8
FIT
0
POLYLINE
8
FIT
66
1
70
0
10
0
20
0
30
0
0
VERTEX
8
FIT
10
868.041531
20
2103.859851
30
0
42
0.006892
0
VERTEX
8
FIT
10
849.356946
20
2110.991537
30
0
0
SEQEND
8
FIT
0
POLYLINE
8
FIT
66
1
70
0
10
0
20
0
30
0
0
VERTEX
8
FIT
10
839.94271
20
2114.363567
30
0
42
0.006892
0
VERTEX
8
FIT
10
820.979294
20
2120.716795
30
0
0
SEQEND
8
FIT
0
POLYLINE
8
FIT
66
1
70
0
10
0
20
0
30
0
0
VERTEX
8
FIT
10
811.433716
20
2123.696788
30
0
42
0.006892
0
VERTEX
8
FIT
10
792.223886
20
2129.260699
30
0
0
SEQEND
8
FIT
0
POLYLINE
8
FIT
66
1
70
0
10
0
20
0
30
0
0
VERTEX
8
FIT
10
782.563283
20
2131.843561
30
0
42
0.006892
0
VERTEX
8
FIT
10
763.139878
20
2136.608644
30
0
0
SEQEND
8
FIT
0
POLYLINE
8
FIT
66
1
70
0
10
0
20
0
30
0
0
VERTEX
8
FIT
10
753.380766
20
2138.789959
30
0
42
0.006892
0
VERTEX
8
FIT
10
733.776989
20
2142.748067
30
0
0
SEQEND
8
FIT
0
POLYLINE
8
FIT
66
1
70
0
10
0
20
0
30
0
0
VERTEX
8
FIT
10
723.936049
20
2144.524107
30
0
42
0.006892
0
VERTEX
8
FIT
10
704.185413
20
2147.668474
30
0
0
SEQEND
8
FIT
0
POLYLINE
8
FIT
66
1
70
0
10
0
20
0
30
0
0
VERTEX
8
FIT
10
694.279469
20
2149.036203
30
0
42
0.006892
0
VERTEX
8
FIT
10
674.415736
20
2151.361454
30
0
0
SEQEND
8
FIT
0
POLYLINE
8
FIT
66
1
70
0
10
0
20
0
30
0
0
VERTEX
8
FIT
10
664.461721
20
2152.318534
30
0
42
0.006892
0
VERTEX
8
FIT
10
644.518848
20
2153.820694
30
0
0
SEQEND
8
FIT
0
POLYLINE
8
FIT
66
1
70
0
10
0
20
0
30
0
0
VERTEX
8
FIT
10
634.533778
20
2154.365488
30
0
42
0.006892
0
VERTEX
8
FIT
10
614.545856
20
2155.041989
30
0
0
SEQEND
8
FIT
0
POLYLINE
8
FIT
66
1
70
0
10
0
20
0
30
0
0
VERTEX
8
FIT
10
604.546801
20
2155.173567
30
0
42
0.006892
0
VERTEX
8
FIT
10
584.547999
20
2155.023252
30
0
0
SEQEND
8
FIT
0
POLYLINE
8
FIT
66
1
70
0
10
0
20
0
30
0
0
VERTEX
8
FIT
10
574.552052
20
2154.741389
30
0
42
0.006892
0
VERTEX
8
FIT
10
554.576557
20
2153.764516
30
0
0
SEQEND
8
FIT
0
POLYLINE
8
FIT
66
1
70
0
10
0
20
0
30
0
0
VERTEX
8
FIT
10
544.600804
20
2153.069692
30
0
42
0.006892
0
VERTEX
8
FIT
10
524.682764
20
2151.267931
30
0
0
SEQEND
8
FIT
0
POLYLINE
8
FIT
66
1
70
0
10
0
20
0
30
0
0
VERTEX
8
FIT
10
514.74426
20
2150.161336
30
0
42
0.006892
0
VERTEX
8
FIT
10
494.917723
20
2147.537766
30
0
0
SEQEND
8
FIT
0
POLYLINE
8
FIT
66
1
70
0
10
0
20
0
30
0
0
VERTEX
8
FIT
10
485.033457
20
2146.02129
30
0
42
0.006892
0
VERTEX
8
FIT
10
465.332317
20
2142.580397
30
0
0
SEQEND
8
FIT
0
POLYLINE
8
FIT
66
1
70
0
10
0
20
0
30
0
0
VERTEX
8
FIT
10
455.519186
20
2140.656633
30
0
42
0.006892
0
VERTEX
8
FIT
10
435.97712
20
2136.404299
30
0
0
SEQEND
8
FIT
0
POLYLINE
8
FIT
66
1
70
0
10
0
20
0
30
0
0
VERTEX
8
FIT
10
426.251898
20
2134.076536
30
0
42
0.006892
0
VERTEX
8
FIT
10
406.902314
20
2129.020029
30
0
0
SEQEND
8
FIT
0
POLYLINE
8
FIT
66
1
70
0
10
0
20
0
30
0
0
VERTEX
8
FIT
10
397.281627
20
2126.292246
30
0
42
0.006892
0
VERTEX
8
FIT
10
378.157602
20
2120.44021
30
0
0
SEQEND
8
FIT
0
POLYLINE
8
FIT
66
1
70
0
10
0
20
0
30
0
0
VERTEX
8
FIT
10
368.657896
20
2117.31707
30
0
42
0.006892
0
VERTEX
8
FIT
10
349.792121
20
2110.679511
30
0
0
SEQEND
8
FIT
0
POLYLINE
8
FIT
66
1
70
0
10
0
20
0
30
0
0
VERTEX
8
FIT
10
340.429635
20
2107.166352
30
0
42
0.006892
0
VERTEX
8
FIT
10
321.854361
20
2099.754615
30
0
0
SEQEND
8
FIT
0
POLYLINE
8
FIT
66
1
70
0
10
0
20
0
30
0
0
VERTEX
8
FIT
10
312.6451
20
2095.857444
30
0
42
0.006892
0
VERTEX
8
FIT
10
294.39208
20
2087.684199
30
0
0
SEQEND
8
FIT
0
POLYLINE
8
FIT
66
1
70
0
10
0
20
0
30
0
0
VERTEX
8
FIT
10
285.351788
20
2083.409677
30
0
42
0.006892
0
VERTEX
8
FIT
10
267.452226
20
2074.488896
30
0
0
SEQEND
8
FIT
0
POLYLINE
8
FIT
66
1
70
0
10
0
20
0
30
0
0
VERTEX
8
FIT
10
258.596356
20
2069.844331
30
0
42
0.006892
0
VERTEX
8
FIT
10
241.080849
20
2060.191264
30
0
0
SEQEND
8
FIT
0
POLYLINE
8
FIT
66
1
70
0
10
0
20
0
30
0
0
VERTEX
8
FIT
10
232.42454
20
2055.184596
30
0
42
0.006892
0
VERTEX
8
FIT
10
215.323032
20
2044.815744
30
0
0
SEQEND
8
FIT
0
POLYLINE
8
FIT
66
1
70
0
10
0
20
0
30
0
0
VERTEX
8
FIT
10
206.881081
20
2039.455531
30
0
42
0.006892
0
VERTEX
8
FIT
10
190.222805
20
2028.38862
30
0
0
SEQEND
8
FIT
0
POLYLINE
8
FIT
66
1
70
0
10
0
20
0
30
0
0
VERTEX
8
FIT
10
182.009645
20
2022.684024
30
0
42
0.006892
0
VERTEX
8
FIT
10
165.823078
20
2010.937972
30
0
0
SEQEND
8
FIT
0
POLYLINE
8
FIT
66
1
70
0
10
0
20
0
30
0
0
VERTEX
8
FIT
10
157.852747
20
2004.898747
30
0
42
0.006892
0
VERTEX
8
FIT
10
142.16556
20
1992.493634
30
0
0
SEQEND
8
FIT
0
POLYLINE
8
FIT
66
1
70
0
10
0
20
0
30
0
0
VERTEX
8
FIT
10
134.451684
20
1986.130102
30
0
42
0.006892
0
VERTEX
8
FIT
10
119.290694
20
1973.087133
30
0
0
SEQEND
8
FIT
0
POLYLINE
8
FIT
66
1
70
0
10
0
20
0
30
0
0
VERTEX
8
FIT
10
111.846459
20
1966.410174
30
0
42
0.003133
0
VERTEX
8
FIT
10
105.157393
20
1960.249817
30
0
0
SEQEND
8
FIT
0
POLYLINE
8
FIT
66
1
70
0
10
0
20
0
30
0
0
VERTEX
8
FIT
10
105.157393
20
1960.249817
30
0
42
0.022993
0
VERTEX
8
FIT
10
91.178322
20
1945.956329
30
0
0
SEQEND
8
FIT
0
POLYLINE
8
FIT
66
1
70
0
10
0
20
0
30
0
0
VERTEX
8
FIT
10
84.696178
20
1938.342907
30
0
42
0.022993
0
VERTEX
8
FIT
10
72.815142
20
1922.26313
30
0
0
SEQEND
8
FIT
0
POLYLINE
8
FIT
66
1
70
0
10
0
20
0
30
0
0
VERTEX
8
FIT
10
67.441362
20
1913.83076
30
0
42
0.022993
0
VERTEX
8
FIT
10
57.88404
20
1896.270127
30
0
0
SEQEND
8
FIT
0
POLYLINE
8
FIT
66
1
70
0
10
0
20
0
30
0
0
VERTEX
8
FIT
10
53.720698
20
1887.178979
30
0
42
0.022993
0
VERTEX
8
FIT
10
46.668629
20
1868.471051
30
0
0
SEQEND
8
FIT
0
POLYLINE
8
FIT
66
1
70
0
10
0
20
0
30
0
0
VERTEX
8
FIT
10
43.794807
20
1858.893811
30
0
42
0.022993
0
VERTEX
8
FIT
10
39.381944
20
1839.393943
30
0
0
SEQEND
8
FIT
0
POLYLINE
8
FIT
66
1
70
0
10
0
20
0
30
0
0
VERTEX
8
FIT
10
37.85223
20
1829.512528
30
0
42
0.022993
0
VERTEX
8
FIT
10
36.162395
20
1809.591115
30
0
0
SEQEND
8
FIT
0
TEXT
8
TEXT
10
1300
20
2136.673567
30
0
40
15
1
T - FIT (ASSEMBLY, NOT A TOOLPATH)
72
0
11
1300
21
2136.673567
31
0
73
0
0
TEXT
8
TEXT
10
1300
20
2114.673567
30
0
40
15
1
GAP 4 LAP 17 (REBATE)
72
0
11
1300
21
2114.673567
31
0
73
0
0
TEXT
8
TEXT
10
1300
20
2092.673567
30
0
40
15
1
FRAME R253.5/761.5/253.5 / 196.5/704.5/196.5  REBATE WALL R217.5/725.5/217.5 (LAND 36, DASHED)
72
0
11
1300
21
2092.673567
31
0
73
0
0
TEXT
8
TEXT
10
1300
20
2070.673567
30
0
40
15
1
LEAF R213.5/721.5/213.5 / 146.5/654.5/146.5  GLASS R159/667/159
72
0
11
1300
21
2070.673567
31
0
73
0
0
ENDSEC
0
EOF
