0
SECTION
2
HEADER
9
$ACADVER
1
AC1009
0
ENDSEC
0
SECTION
2
TABLES
0
TABLE
2
LAYER
70
8
0
LAYER
2
0
70
0
62
7
6
CONTINUOUS
0
LAYER
2
FIT
70
0
62
4
6
CONTINUOUS
0
LAYER
2
CONTOUR
70
0
62
7
6
CONTINUOUS
0
LAYER
2
ASSEMBLY
70
0
62
8
6
CONTINUOUS
0
LAYER
2
PIECES
70
0
62
5
6
CONTINUOUS
0
LAYER
2
FINGER
70
0
62
1
6
CONTINUOUS
0
LAYER
2
CLAMPS
70
0
62
3
6
CONTINUOUS
0
LAYER
2
TEXT
70
0
62
94
6
CONTINUOUS
0
ENDTAB
0
ENDSEC
0
SECTION
2
ENTITIES
0
POLYLINE
8
PIECES
66
1
70
1
10
0
20
0
30
0
0
VERTEX
8
PIECES
10
800.583874
20
0
30
0
0
VERTEX
8
PIECES
10
200
20
0
30
0
0
VERTEX
8
PIECES
10
0
20
200
30
0
0
VERTEX
8
PIECES
10
800.583874
20
200
30
0
0
SEQEND
8
PIECES
0
POLYLINE
8
CLAMPS
66
1
70
1
10
0
20
0
30
0
0
VERTEX
8
CLAMPS
10
200
20
35
30
0
0
VERTEX
8
CLAMPS
10
330
20
35
30
0
0
VERTEX
8
CLAMPS
10
330
20
165
30
0
0
VERTEX
8
CLAMPS
10
200
20
165
30
0
0
SEQEND
8
CLAMPS
0
POLYLINE
8
CLAMPS
66
1
70
1
10
0
20
0
30
0
0
VERTEX
8
CLAMPS
10
650.583874
20
35
30
0
0
VERTEX
8
CLAMPS
10
780.583874
20
35
30
0
0
VERTEX
8
CLAMPS
10
780.583874
20
165
30
0
0
VERTEX
8
CLAMPS
10
650.583874
20
165
30
0
0
SEQEND
8
CLAMPS
0
TEXT
8
TEXT
10
400.291937
20
110
30
0
40
15
1
C5 - LEAF TOP P1 L800.6 x200
72
1
11
400.291937
21
110
31
0
73
2
0
TEXT
8
TEXT
10
400.291937
20
10
30
0
40
10
1
OUT 785.6 IN 585.6 CUT J45/Q FINGER ONE END
72
1
11
400.291937
21
10
31
0
73
2
0
POLYLINE
8
PIECES
66
1
70
1
10
0
20
0
30
0
0
VERTEX
8
PIECES
10
1601.167748
20
0
30
0
0
VERTEX
8
PIECES
10
1000.583874
20
0
30
0
0
VERTEX
8
PIECES
10
1000.583874
20
200
30
0
0
VERTEX
8
PIECES
10
1801.167748
20
200
30
0
0
SEQEND
8
PIECES
0
POLYLINE
8
CLAMPS
66
1
70
1
10
0
20
0
30
0
0
VERTEX
8
CLAMPS
10
1020.583874
20
35
30
0
0
VERTEX
8
CLAMPS
10
1150.583874
20
35
30
0
0
VERTEX
8
CLAMPS
10
1150.583874
20
165
30
0
0
VERTEX
8
CLAMPS
10
1020.583874
20
165
30
0
0
SEQEND
8
CLAMPS
0
POLYLINE
8
CLAMPS
66
1
70
1
10
0
20
0
30
0
0
VERTEX
8
CLAMPS
10
1471.167748
20
35
30
0
0
VERTEX
8
CLAMPS
10
1601.167748
20
35
30
0
0
VERTEX
8
CLAMPS
10
1601.167748
20
165
30
0
0
VERTEX
8
CLAMPS
10
1471.167748
20
165
30
0
0
SEQEND
8
CLAMPS
0
TEXT
8
TEXT
10
1400.875811
20
110
30
0
40
15
1
C5 - LEAF TOP P2 L800.6 x200
72
1
11
1400.875811
21
110
31
0
73
2
0
TEXT
8
TEXT
10
1400.875811
20
10
30
0
40
10
1
OUT 785.6 IN 585.6 CUT Q/J45 FINGER ONE END
72
1
11
1400.875811
21
10
31
0
73
2
0
POLYLINE
8
CONTOUR
66
1
70
1
10
0
20
0
30
0
0
VERTEX
8
CONTOUR
10
1004.491684
20
444.929672
30
0
42
1
0
VERTEX
8
CONTOUR
10
106.491684
20
444.929672
30
0
0
VERTEX
8
CONTOUR
10
173.491684
20
444.929672
30
0
42
-1
0
VERTEX
8
CONTOUR
10
937.491684
20
444.929672
30
0
0
SEQEND
8
CONTOUR
0
POLYLINE
8
ASSEMBLY
66
1
70
1
10
0
20
0
30
0
0
VERTEX
8
ASSEMBLY
10
969.562013
20
400
30
0
0
VERTEX
8
ASSEMBLY
10
555.491684
20
814.070328
30
0
0
VERTEX
8
ASSEMBLY
10
555.491684
20
1096.913041
30
0
0
VERTEX
8
ASSEMBLY
10
1110.983369
20
541.421356
30
0
0
SEQEND
8
ASSEMBLY
0
POLYLINE
8
FINGER
66
1
70
0
10
0
20
0
30
0
0
VERTEX
8
FINGER
10
555.491684
20
826.929672
30
0
0
VERTEX
8
FINGER
10
555.491684
20
893.929672
30
0
0
SEQEND
8
FINGER
0
POLYLINE
8
ASSEMBLY
66
1
70
1
10
0
20
0
30
0
0
VERTEX
8
ASSEMBLY
10
555.491684
20
814.070328
30
0
0
VERTEX
8
ASSEMBLY
10
141.421356
20
400
30
0
0
VERTEX
8
ASSEMBLY
10
0
20
541.421356
30
0
0
VERTEX
8
ASSEMBLY
10
555.491684
20
1096.913041
30
0
0
SEQEND
8
ASSEMBLY
0
TEXT
8
TEXT
10
1210.983369
20
1078.413041
30
0
40
15
1
C5 - LEAF TOP
72
0
11
1210.983369
21
1078.413041
31
0
73
0
0
TEXT
8
TEXT
10
1210.983369
20
1056.413041
30
0
40
15
1
SEMI-CIRCLE W1000 RISE500 H1800 HINGE L
72
0
11
1210.983369
21
1056.413041
31
0
73
0
0
TEXT
8
TEXT
10
1210.983369
20
1034.413041
30
0
40
15
1
FACE 67 OFFSET 51 OUTER L1410.6 INNER L1200.1
72
0
11
1210.983369
21
1034.413041
31
0
73
0
0
TEXT
8
TEXT
10
1210.983369
20
1012.413041
30
0
40
15
1
CHAIN R449 L1410.6 180DEG: FEWEST 2 x board 200 L785.6 ROUGH 800.6 WASTE 65%
72
0
11
1210.983369
21
1012.413041
31
0
73
0
0
TEXT
8
TEXT
10
1210.983369
20
990.413041
30
0
40
15
1
  NO ECONOMY ALT WITHIN 5 PIECES -> DEFAULT FEWEST
72
0
11
1210.983369
21
990.413041
31
0
73
0
0
TEXT
8
TEXT
10
1210.983369
20
968.413041
30
0
40
15
1
FINGER 15/16/3.8
72
0
11
1210.983369
21
968.413041
31
0
73
0
0
TEXT
8
TEXT
10
1210.983369
20
946.413041
30
0
40
15
1
ALLOWANCE 10 PER SIDE  LIMITS: OVERALL >= 450 (CLAMP)  SHORTER EDGE >= 400  STOCK MAX 200
72
0
11
1210.983369
21
946.413041
31
0
73
0
0
TEXT
8
TEXT
10
1210.983369
20
924.413041
30
0
40
15
1
CLAMPS (SUGGESTION): UNICLAMP 130 x 130, CLEARANCE 20 FROM THE END CUTS, JAWS 40-98, PIECE THICKNESS 57
72
0
11
1210.983369
21
924.413041
31
0
73
0
0
TEXT
8
TEXT
10
1210.983369
20
902.413041
30
0
40
15
1
CUT CODES: J = JOINT FROM SQUARE  Q = SQUARE (SPRINGING FACE ROUTED WITH THE CONTOUR)  A = APEX FROM SQUARE
72
0
11
1210.983369
21
902.413041
31
0
73
0
0
POLYLINE
8
PIECES
66
1
70
1
10
0
20
0
30
0
0
VERTEX
8
PIECES
10
566.025589
20
1296.913041
30
0
0
VERTEX
8
PIECES
10
86.60254
20
1296.913041
30
0
0
VERTEX
8
PIECES
10
0
20
1446.913041
30
0
0
VERTEX
8
PIECES
10
566.025589
20
1446.913041
30
0
0
SEQEND
8
PIECES
0
POLYLINE
8
CLAMPS
66
1
70
1
10
0
20
0
30
0
0
VERTEX
8
CLAMPS
10
115.829038
20
1306.913041
30
0
0
VERTEX
8
CLAMPS
10
245.829038
20
1306.913041
30
0
0
VERTEX
8
CLAMPS
10
245.829038
20
1436.913041
30
0
0
VERTEX
8
CLAMPS
10
115.829038
20
1436.913041
30
0
0
SEQEND
8
CLAMPS
0
POLYLINE
8
CLAMPS
66
1
70
1
10
0
20
0
30
0
0
VERTEX
8
CLAMPS
10
416.025589
20
1306.913041
30
0
0
VERTEX
8
CLAMPS
10
546.025589
20
1306.913041
30
0
0
VERTEX
8
CLAMPS
10
546.025589
20
1436.913041
30
0
0
VERTEX
8
CLAMPS
10
416.025589
20
1436.913041
30
0
0
SEQEND
8
CLAMPS
0
TEXT
8
TEXT
10
283.012794
20
1381.913041
30
0
40
15
1
C5 - FRAME HEAD P1 L566 x150
72
1
11
283.012794
21
1381.913041
31
0
73
2
0
TEXT
8
TEXT
10
283.012794
20
1306.913041
30
0
40
10
1
OUT 551 IN 464.4 CUT J30/Q FINGER ONE END
72
1
11
283.012794
21
1306.913041
31
0
73
2
0
POLYLINE
8
PIECES
66
1
70
1
10
0
20
0
30
0
0
VERTEX
8
PIECES
10
1301.474226
20
1296.913041
30
0
0
VERTEX
8
PIECES
10
852.628129
20
1296.913041
30
0
0
VERTEX
8
PIECES
10
766.025589
20
1446.913041
30
0
0
VERTEX
8
PIECES
10
1388.076766
20
1446.913041
30
0
0
SEQEND
8
PIECES
0
POLYLINE
8
CLAMPS
66
1
70
1
10
0
20
0
30
0
0
VERTEX
8
CLAMPS
10
881.854627
20
1306.913041
30
0
0
VERTEX
8
CLAMPS
10
1011.854627
20
1306.913041
30
0
0
VERTEX
8
CLAMPS
10
1011.854627
20
1436.913041
30
0
0
VERTEX
8
CLAMPS
10
881.854627
20
1436.913041
30
0
0
SEQEND
8
CLAMPS
0
POLYLINE
8
CLAMPS
66
1
70
1
10
0
20
0
30
0
0
VERTEX
8
CLAMPS
10
1142.247729
20
1306.913041
30
0
0
VERTEX
8
CLAMPS
10
1272.247729
20
1306.913041
30
0
0
VERTEX
8
CLAMPS
10
1272.247729
20
1436.913041
30
0
0
VERTEX
8
CLAMPS
10
1142.247729
20
1436.913041
30
0
0
SEQEND
8
CLAMPS
0
TEXT
8
TEXT
10
1077.051178
20
1381.913041
30
0
40
15
1
C5 - FRAME HEAD P2 L622.1 x150
72
1
11
1077.051178
21
1381.913041
31
0
73
2
0
TEXT
8
TEXT
10
1077.051178
20
1306.913041
30
0
40
10
1
OUT 592.1 IN 418.8 CUT J30/J30 FINGER BOTH ENDS
72
1
11
1077.051178
21
1306.913041
31
0
73
2
0
POLYLINE
8
PIECES
66
1
70
1
10
0
20
0
30
0
0
VERTEX
8
PIECES
10
2067.499815
20
1296.913041
30
0
0
VERTEX
8
PIECES
10
1588.076766
20
1296.913041
30
0
0
VERTEX
8
PIECES
10
1588.076766
20
1446.913041
30
0
0
VERTEX
8
PIECES
10
2154.102355
20
1446.913041
30
0
0
SEQEND
8
PIECES
0
POLYLINE
8
CLAMPS
66
1
70
1
10
0
20
0
30
0
0
VERTEX
8
CLAMPS
10
1608.076766
20
1306.913041
30
0
0
VERTEX
8
CLAMPS
10
1738.076766
20
1306.913041
30
0
0
VERTEX
8
CLAMPS
10
1738.076766
20
1436.913041
30
0
0
VERTEX
8
CLAMPS
10
1608.076766
20
1436.913041
30
0
0
SEQEND
8
CLAMPS
0
POLYLINE
8
CLAMPS
66
1
70
1
10
0
20
0
30
0
0
VERTEX
8
CLAMPS
10
1908.273318
20
1306.913041
30
0
0
VERTEX
8
CLAMPS
10
2038.273318
20
1306.913041
30
0
0
VERTEX
8
CLAMPS
10
2038.273318
20
1436.913041
30
0
0
VERTEX
8
CLAMPS
10
1908.273318
20
1436.913041
30
0
0
SEQEND
8
CLAMPS
0
TEXT
8
TEXT
10
1871.089561
20
1381.913041
30
0
40
15
1
C5 - FRAME HEAD P3 L566 x150
72
1
11
1871.089561
21
1381.913041
31
0
73
2
0
TEXT
8
TEXT
10
1871.089561
20
1306.913041
30
0
40
10
1
OUT 551 IN 464.4 CUT Q/J30 FINGER ONE END
72
1
11
1871.089561
21
1306.913041
31
0
73
2
0
POLYLINE
8
CONTOUR
66
1
70
1
10
0
20
0
30
0
0
VERTEX
8
CONTOUR
10
1071.538383
20
1686.383839
30
0
42
1
0
VERTEX
8
CONTOUR
10
71.538383
20
1686.383839
30
0
0
VERTEX
8
CONTOUR
10
139.538383
20
1686.383839
30
0
42
-1
0
VERTEX
8
CONTOUR
10
1003.538383
20
1686.383839
30
0
0
SEQEND
8
CONTOUR
0
POLYLINE
8
ASSEMBLY
66
1
70
1
10
0
20
0
30
0
0
VERTEX
8
ASSEMBLY
10
1013.172956
20
1646.913041
30
0
0
VERTEX
8
ASSEMBLY
10
780.961432
20
2049.115199
30
0
0
VERTEX
8
ASSEMBLY
10
867.563972
20
2199.115199
30
0
0
VERTEX
8
ASSEMBLY
10
1143.076766
20
1721.913041
30
0
0
SEQEND
8
ASSEMBLY
0
POLYLINE
8
FINGER
66
1
70
0
10
0
20
0
30
0
0
VERTEX
8
FINGER
10
787.538383
20
2060.506813
30
0
0
VERTEX
8
FINGER
10
821.538383
20
2119.39654
30
0
0
SEQEND
8
FINGER
0
POLYLINE
8
ASSEMBLY
66
1
70
1
10
0
20
0
30
0
0
VERTEX
8
ASSEMBLY
10
780.961432
20
2049.115199
30
0
0
VERTEX
8
ASSEMBLY
10
362.115335
20
2049.115199
30
0
0
VERTEX
8
ASSEMBLY
10
275.512794
20
2199.115199
30
0
0
VERTEX
8
ASSEMBLY
10
867.563972
20
2199.115199
30
0
0
SEQEND
8
ASSEMBLY
0
POLYLINE
8
FINGER
66
1
70
0
10
0
20
0
30
0
0
VERTEX
8
FINGER
10
355.538383
20
2060.506813
30
0
0
VERTEX
8
FINGER
10
321.538383
20
2119.39654
30
0
0
SEQEND
8
FINGER
0
POLYLINE
8
ASSEMBLY
66
1
70
1
10
0
20
0
30
0
0
VERTEX
8
ASSEMBLY
10
362.115335
20
2049.115199
30
0
0
VERTEX
8
ASSEMBLY
10
129.903811
20
1646.913041
30
0
0
VERTEX
8
ASSEMBLY
10
0
20
1721.913041
30
0
0
VERTEX
8
ASSEMBLY
10
275.512794
20
2199.115199
30
0
0
SEQEND
8
ASSEMBLY
0
TEXT
8
TEXT
10
1243.076766
20
2180.615199
30
0
40
15
1
C5 - FRAME HEAD
72
0
11
1243.076766
21
2180.615199
31
0
73
0
0
TEXT
8
TEXT
10
1243.076766
20
2158.615199
30
0
40
15
1
SEMI-CIRCLE W1000 RISE500 H1800 HINGE L
72
0
11
1243.076766
21
2158.615199
31
0
73
0
0
TEXT
8
TEXT
10
1243.076766
20
2136.615199
30
0
40
15
1
FACE 68 OFFSET 0 OUTER L1570.8 INNER L1357.2
72
0
11
1243.076766
21
2136.615199
31
0
73
0
0
TEXT
8
TEXT
10
1243.076766
20
2114.615199
30
0
40
15
1
CHAIN R500 L1570.8 180DEG: FEWEST 3 x board 150 L592.1 ROUGH 622.1 WASTE 51%
72
0
11
1243.076766
21
2114.615199
31
0
73
0
0
TEXT
8
TEXT
10
1243.076766
20
2092.615199
30
0
40
15
1
  NO ECONOMY ALT WITHIN 6 PIECES -> DEFAULT FEWEST
72
0
11
1243.076766
21
2092.615199
31
0
73
0
0
TEXT
8
TEXT
10
1243.076766
20
2070.615199
30
0
40
15
1
FINGER 15/16/3.8
72
0
11
1243.076766
21
2070.615199
31
0
73
0
0
TEXT
8
TEXT
10
1243.076766
20
2048.615199
30
0
40
15
1
ALLOWANCE 10 PER SIDE  LIMITS: OVERALL >= 450 (CLAMP)  SHORTER EDGE >= 400  STOCK MAX 200
72
0
11
1243.076766
21
2048.615199
31
0
73
0
0
TEXT
8
TEXT
10
1243.076766
20
2026.615199
30
0
40
15
1
CLAMPS (SUGGESTION): UNICLAMP 130 x 130, CLEARANCE 20 FROM THE END CUTS, JAWS 40-98, PIECE THICKNESS 93
72
0
11
1243.076766
21
2026.615199
31
0
73
0
0
TEXT
8
TEXT
10
1243.076766
20
2004.615199
30
0
40
15
1
CUT CODES: J = JOINT FROM SQUARE  Q = SQUARE (SPRINGING FACE ROUTED WITH THE CONTOUR)  A = APEX FROM SQUARE
72
0
11
1243.076766
21
2004.615199
31
0
73
0
0
POLYLINE
8
FIT
66
1
70
1
10
0
20
0
30
0
0
VERTEX
8
FIT
10
1000
20
2399.115199
30
0
42
1
0
VERTEX
8
FIT
10
0
20
2399.115199
30
0
0
VERTEX
8
FIT
10
68
20
2399.115199
30
0
42
-1
0
VERTEX
8
FIT
10
932
20
2399.115199
30
0
0
SEQEND
8
FIT
0
POLYLINE
8
FIT
66
1
70
1
10
0
20
0
30
0
0
VERTEX
8
FIT
10
949
20
2399.115199
30
0
42
1
0
VERTEX
8
FIT
10
51
20
2399.115199
30
0
0
VERTEX
8
FIT
10
118
20
2399.115199
30
0
42
-1
0
VERTEX
8
FIT
10
882
20
2399.115199
30
0
0
SEQEND
8
FIT
0
POLYLINE
8
FIT
66
1
70
1
10
0
20
0
30
0
0
VERTEX
8
FIT
10
894.5
20
2399.115199
30
0
42
1
0
VERTEX
8
FIT
10
105.5
20
2399.115199
30
0
0
SEQEND
8
FIT
0
POLYLINE
8
FIT
66
1
70
0
10
0
20
0
30
0
0
VERTEX
8
FIT
10
953
20
2399.115199
30
0
42
0.011038
0
VERTEX
8
FIT
10
952.558571
20
2419.108702
30
0
0
SEQEND
8
FIT
0
POLYLINE
8
FIT
66
1
70
0
10
0
20
0
30
0
0
VERTEX
8
FIT
10
952.006986
20
2429.093275
30
0
42
0.011038
0
VERTEX
8
FIT
10
950.243418
20
2449.013738
30
0
0
SEQEND
8
FIT
0
POLYLINE
8
FIT
66
1
70
0
10
0
20
0
30
0
0
VERTEX
8
FIT
10
949.032296
20
2458.939922
30
0
42
0.011038
0
VERTEX
8
FIT
10
945.954322
20
2478.70001
30
0
0
SEQEND
8
FIT
0
POLYLINE
8
FIT
66
1
70
0
10
0
20
0
30
0
0
VERTEX
8
FIT
10
944.088972
20
2488.524287
30
0
42
0.011038
0
VERTEX
8
FIT
10
939.710087
20
2508.03737
30
0
0
SEQEND
8
FIT
0
POLYLINE
8
FIT
66
1
70
0
10
0
20
0
30
0
0
VERTEX
8
FIT
10
937.198687
20
2517.716667
30
0
42
0.011038
0
VERTEX
8
FIT
10
931.538088
20
2536.897195
30
0
0
SEQEND
8
FIT
0
POLYLINE
8
FIT
66
1
70
0
10
0
20
0
30
0
0
VERTEX
8
FIT
10
928.391648
20
2546.389079
30
0
42
0.011038
0
VERTEX
8
FIT
10
921.474153
20
2565.152962
30
0
0
SEQEND
8
FIT
0
POLYLINE
8
FIT
66
1
70
0
10
0
20
0
30
0
0
VERTEX
8
FIT
10
917.706468
20
2574.415817
30
0
42
0.011038
0
VERTEX
8
FIT
10
909.562403
20
2592.68079
30
0
0
SEQEND
8
FIT
0
POLYLINE
8
FIT
66
1
70
0
10
0
20
0
30
0
0
VERTEX
8
FIT
10
905.189991
20
2601.674007
30
0
42
0.011038
0
VERTEX
8
FIT
10
895.855062
20
2619.359994
30
0
0
SEQEND
8
FIT
0
POLYLINE
8
FIT
66
1
70
0
10
0
20
0
30
0
0
VERTEX
8
FIT
10
890.897093
20
2628.044145
30
0
42
0.011038
0
VERTEX
8
FIT
10
880.412225
20
2645.073607
30
0
0
SEQEND
8
FIT
0
POLYLINE
8
FIT
66
1
70
0
10
0
20
0
30
0
0
VERTEX
8
FIT
10
874.890436
20
2653.41062
30
0
42
0.011038
0
VERTEX
8
FIT
10
863.301597
20
2669.708897
30
0
0
SEQEND
8
FIT
0
POLYLINE
8
FIT
66
1
70
0
10
0
20
0
30
0
0
VERTEX
8
FIT
10
857.240195
20
2677.66222
30
0
42
0.011038
0
VERTEX
8
FIT
10
844.598193
20
2693.157858
30
0
0
SEQEND
8
FIT
0
POLYLINE
8
FIT
66
1
70
0
10
0
20
0
30
0
0
VERTEX
8
FIT
10
838.023753
20
2700.692623
30
0
42
0.011038
0
VERTEX
8
FIT
10
824.384011
20
2715.317686
30
0
0
SEQEND
8
FIT
0
POLYLINE
8
FIT
66
1
70
0
10
0
20
0
30
0
0
VERTEX
8
FIT
10
817.325357
20
2722.400859
30
0
42
0.011038
0
VERTEX
8
FIT
10
802.747675
20
2736.091229
30
0
0
SEQEND
8
FIT
0
POLYLINE
8
FIT
66
1
70
0
10
0
20
0
30
0
0
VERTEX
8
FIT
10
795.235752
20
2742.691756
30
0
42
0.011038
0
VERTEX
8
FIT
10
779.784042
20
2755.387412
30
0
0
SEQEND
8
FIT
0
POLYLINE
8
FIT
66
1
70
0
10
0
20
0
30
0
0
VERTEX
8
FIT
10
771.851784
20
2761.476355
30
0
42
0.011038
0
VERTEX
8
FIT
10
755.593788
20
2773.121637
30
0
0
SEQEND
8
FIT
0
POLYLINE
8
FIT
66
1
70
0
10
0
20
0
30
0
0
VERTEX
8
FIT
10
747.275972
20
2778.672301
30
0
42
0.011038
0
VERTEX
8
FIT
10
730.282967
20
2789.216153
30
0
0
SEQEND
8
FIT
0
POLYLINE
8
FIT
66
1
70
0
10
0
20
0
30
0
0
VERTEX
8
FIT
10
721.61606
20
2794.204204
30
0
42
0.011038
0
VERTEX
8
FIT
10
703.962547
20
2803.600402
30
0
0
SEQEND
8
FIT
0
POLYLINE
8
FIT
66
1
70
0
10
0
20
0
30
0
0
VERTEX
8
FIT
10
694.984545
20
2808.00397
30
0
42
0.011038
0
VERTEX
8
FIT
10
676.74792
20
2816.211318
30
0
0
SEQEND
8
FIT
0
POLYLINE
8
FIT
66
1
70
0
10
0
20
0
30
0
0
VERTEX
8
FIT
10
667.498185
20
2820.011098
30
0
42
0.011038
0
VERTEX
8
FIT
10
648.758401
20
2826.993614
30
0
0
SEQEND
8
FIT
0
POLYLINE
8
FIT
66
1
70
0
10
0
20
0
30
0
0
VERTEX
8
FIT
10
639.277484
20
2830.172947
30
0
42
0.011038
0
VERTEX
8
FIT
10
620.116699
20
2835.900018
30
0
0
SEQEND
8
FIT
0
POLYLINE
8
FIT
66
1
70
0
10
0
20
0
30
0
0
VERTEX
8
FIT
10
610.446168
20
2838.444966
30
0
42
0.011038
0
VERTEX
8
FIT
10
590.948385
20
2842.891484
30
0
0
SEQEND
8
FIT
0
POLYLINE
8
FIT
66
1
70
0
10
0
20
0
30
0
0
VERTEX
8
FIT
10
581.130636
20
2844.790888
30
0
42
0.011038
0
VERTEX
8
FIT
10
561.381339
20
2847.937359
30
0
0
SEQEND
8
FIT
0
POLYLINE
8
FIT
66
1
70
0
10
0
20
0
30
0
0
VERTEX
8
FIT
10
551.459414
20
2849.182892
30
0
42
0.011038
0
VERTEX
8
FIT
10
531.545185
20
2851.015521
30
0
0
SEQEND
8
FIT
0
POLYLINE
8
FIT
66
1
70
0
10
0
20
0
30
0
0
VERTEX
8
FIT
10
521.562585
20
2851.601723
30
0
42
0.011038
0
VERTEX
8
FIT
10
501.570733
20
2852.112476
30
0
0
SEQEND
8
FIT
0
POLYLINE
8
FIT
66
1
70
0
10
0
20
0
30
0
0
VERTEX
8
FIT
10
491.571222
20
2852.036777
30
0
42
0.011038
0
VERTEX
8
FIT
10
471.589394
20
2851.223413
30
0
0
SEQEND
8
FIT
0
POLYLINE
8
FIT
66
1
70
0
10
0
20
0
30
0
0
VERTEX
8
FIT
10
461.616813
20
2850.486145
30
0
42
0.011038
0
VERTEX
8
FIT
10
441.732612
20
2848.352231
30
0
0
SEQEND
8
FIT
0
POLYLINE
8
FIT
66
1
70
0
10
0
20
0
30
0
0
VERTEX
8
FIT
10
431.830682
20
2846.956626
30
0
42
0.011038
0
VERTEX
8
FIT
10
412.131284
20
2843.511518
30
0
0
SEQEND
8
FIT
0
POLYLINE
8
FIT
66
1
70
0
10
0
20
0
30
0
0
VERTEX
8
FIT
10
402.343416
20
2841.463694
30
0
42
0.011038
0
VERTEX
8
FIT
10
382.915188
20
2836.722496
30
0
0
SEQEND
8
FIT
0
POLYLINE
8
FIT
66
1
70
0
10
0
20
0
30
0
0
VERTEX
8
FIT
10
373.284294
20
2834.031432
30
0
42
0.011038
0
VERTEX
8
FIT
10
354.212411
20
2828.014929
30
0
0
SEQEND
8
FIT
0
POLYLINE
8
FIT
66
1
70
0
10
0
20
0
30
0
0
VERTEX
8
FIT
10
344.780715
20
2824.692423
30
0
42
0.011038
0
VERTEX
8
FIT
10
326.148792
20
2817.426993
30
0
0
SEQEND
8
FIT
0
POLYLINE
8
FIT
66
1
70
0
10
0
20
0
30
0
0
VERTEX
8
FIT
10
316.957643
20
2813.487611
30
0
42
0.011038
0
VERTEX
8
FIT
10
298.847366
20
2805.005107
30
0
0
SEQEND
8
FIT
0
POLYLINE
8
FIT
66
1
70
0
10
0
20
0
30
0
0
VERTEX
8
FIT
10
289.937061
20
2800.466119
30
0
42
0.011038
0
VERTEX
8
FIT
10
272.427827
20
2790.803731
30
0
0
SEQEND
8
FIT
0
POLYLINE
8
FIT
66
1
70
0
10
0
20
0
30
0
0
VERTEX
8
FIT
10
263.83743
20
2785.685038
30
0
42
0.011038
0
VERTEX
8
FIT
10
247.006003
20
2774.885125
30
0
0
SEQEND
8
FIT
0
POLYLINE
8
FIT
66
1
70
0
10
0
20
0
30
0
0
VERTEX
8
FIT
10
238.773176
20
2769.209168
30
0
42
0.011038
0
VERTEX
8
FIT
10
222.693348
20
2757.319081
30
0
0
SEQEND
8
FIT
0
POLYLINE
8
FIT
66
1
70
0
10
0
20
0
30
0
0
VERTEX
8
FIT
10
214.854184
20
2751.110744
30
0
42
0.011038
0
VERTEX
8
FIT
10
199.596453
20
2738.182609
30
0
0
SEQEND
8
FIT
0
POLYLINE
8
FIT
66
1
70
0
10
0
20
0
30
0
0
VERTEX
8
FIT
10
192.185321
20
2731.469111
30
0
42
0.011038
0
VERTEX
8
FIT
10
177.816578
20
2717.559609
30
0
0
SEQEND
8
FIT
0
POLYLINE
8
FIT
66
1
70
0
10
0
20
0
30
0
0
VERTEX
8
FIT
10
170.865969
20
2710.370383
30
0
42
0.011038
0
VERTEX
8
FIT
10
157.449209
20
2695.540494
30
0
0
SEQEND
8
FIT
0
POLYLINE
8
FIT
66
1
70
0
10
0
20
0
30
0
0
VERTEX
8
FIT
10
150.989596
20
2687.907058
30
0
42
0.011038
0
VERTEX
8
FIT
10
138.583642
20
2672.2218
30
0
0
SEQEND
8
FIT
0
POLYLINE
8
FIT
66
1
70
0
10
0
20
0
30
0
0
VERTEX
8
FIT
10
132.643345
20
2664.177621
30
0
42
0.011038
0
VERTEX
8
FIT
10
121.302585
20
2647.705761
30
0
0
SEQEND
8
FIT
0
POLYLINE
8
FIT
66
1
70
0
10
0
20
0
30
0
0
VERTEX
8
FIT
10
115.907647
20
2639.286106
30
0
42
0.011038
0
VERTEX
8
FIT
10
105.681802
20
2622.099858
30
0
0
SEQEND
8
FIT
0
POLYLINE
8
FIT
66
1
70
0
10
0
20
0
30
0
0
VERTEX
8
FIT
10
100.855876
20
2613.34164
30
0
42
0.011038
0
VERTEX
8
FIT
10
91.789776
20
2595.516353
30
0
0
SEQEND
8
FIT
0
POLYLINE
8
FIT
66
1
70
0
10
0
20
0
30
0
0
VERTEX
8
FIT
10
87.55402
20
2586.45797
30
0
42
0.011038
0
VERTEX
8
FIT
10
79.687414
20
2568.071792
30
0
0
SEQEND
8
FIT
0
POLYLINE
8
FIT
66
1
70
0
10
0
20
0
30
0
0
VERTEX
8
FIT
10
76.060398
20
2558.752956
30
0
42
0.011038
0
VERTEX
8
FIT
10
69.427774
20
2539.886496
30
0
0
SEQEND
8
FIT
0
POLYLINE
8
FIT
66
1
70
0
10
0
20
0
30
0
0
VERTEX
8
FIT
10
66.425399
20
2530.348064
30
0
42
0.011038
0
VERTEX
8
FIT
10
61.055835
20
2511.084035
30
0
0
SEQEND
8
FIT
0
POLYLINE
8
FIT
66
1
70
0
10
0
20
0
30
0
0
VERTEX
8
FIT
10
58.691264
20
2501.367825
30
0
42
0.011038
0
VERTEX
8
FIT
10
54.608303
20
2481.790684
30
0
0
SEQEND
8
FIT
0
POLYLINE
8
FIT
66
1
70
0
10
0
20
0
30
0
0
VERTEX
8
FIT
10
52.891902
20
2471.939292
30
0
42
0.011038
0
VERTEX
8
FIT
10
50.113443
20
2452.134869
30
0
0
SEQEND
8
FIT
0
POLYLINE
8
FIT
66
1
70
0
10
0
20
0
30
0
0
VERTEX
8
FIT
10
49.052738
20
2442.191487
30
0
42
0.011038
0
VERTEX
8
FIT
10
47.590962
20
2422.246607
30
0
0
SEQEND
8
FIT
0
POLYLINE
8
FIT
66
1
70
0
10
0
20
0
30
0
0
VERTEX
8
FIT
10
47.190603
20
2412.254828
30
0
42
0.007253
0
VERTEX
8
FIT
10
47
20
2399.115199
30
0
0
SEQEND
8
FIT
0
TEXT
8
TEXT
10
1100
20
2833.612476
30
0
40
15
1
C5 - FIT (ASSEMBLY, NOT A TOOLPATH)
72
0
11
1100
21
2833.612476
31
0
73
0
0
TEXT
8
TEXT
10
1100
20
2811.612476
30
0
40
15
1
GAP 4 LAP 17 (REBATE)
72
0
11
1100
21
2811.612476
31
0
73
0
0
TEXT
8
TEXT
10
1100
20
2789.612476
30
0
40
15
1
FRAME R500 / 432  REBATE WALL R453 (LAND 47, DASHED)
72
0
11
1100
21
2789.612476
31
0
73
0
0
TEXT
8
TEXT
10
1100
20
2767.612476
30
0
40
15
1
LEAF R449 / 382  GLASS R394.5
72
0
11
1100
21
2767.612476
31
0
73
0
0
ENDSEC
0
EOF
