0
SECTION
2
HEADER
9
$ACADVER
1
AC1009
0
ENDSEC
0
SECTION
2
TABLES
0
TABLE
2
LAYER
70
8
0
LAYER
2
0
70
0
62
7
6
CONTINUOUS
0
LAYER
2
FIT
70
0
62
4
6
CONTINUOUS
0
LAYER
2
CONTOUR
70
0
62
7
6
CONTINUOUS
0
LAYER
2
ASSEMBLY
70
0
62
8
6
CONTINUOUS
0
LAYER
2
PIECES
70
0
62
5
6
CONTINUOUS
0
LAYER
2
FINGER
70
0
62
1
6
CONTINUOUS
0
LAYER
2
CLAMPS
70
0
62
3
6
CONTINUOUS
0
LAYER
2
TEXT
70
0
62
94
6
CONTINUOUS
0
ENDTAB
0
ENDSEC
0
SECTION
2
ENTITIES
0
POLYLINE
8
PIECES
66
1
70
1
10
0
20
0
30
0
0
VERTEX
8
PIECES
10
683.042012
20
0
30
0
0
VERTEX
8
PIECES
10
106.027397
20
0
30
0
0
VERTEX
8
PIECES
10
0
20
180
30
0
0
VERTEX
8
PIECES
10
683.042012
20
180
30
0
0
SEQEND
8
PIECES
0
POLYLINE
8
CLAMPS
66
1
70
1
10
0
20
0
30
0
0
VERTEX
8
CLAMPS
10
126.30137
20
25
30
0
0
VERTEX
8
CLAMPS
10
256.30137
20
25
30
0
0
VERTEX
8
CLAMPS
10
256.30137
20
155
30
0
0
VERTEX
8
CLAMPS
10
126.30137
20
155
30
0
0
SEQEND
8
CLAMPS
0
POLYLINE
8
CLAMPS
66
1
70
1
10
0
20
0
30
0
0
VERTEX
8
CLAMPS
10
533.042012
20
25
30
0
0
VERTEX
8
CLAMPS
10
663.042012
20
25
30
0
0
VERTEX
8
CLAMPS
10
663.042012
20
155
30
0
0
VERTEX
8
CLAMPS
10
533.042012
20
155
30
0
0
SEQEND
8
CLAMPS
0
TEXT
8
TEXT
10
341.521006
20
100
30
0
40
15
1
ST - S-ARCH TOP RAIL P1 L683 x180
72
1
11
341.521006
21
100
31
0
73
2
0
TEXT
8
TEXT
10
341.521006
20
10
30
0
40
10
1
OUT 668 IN 562 CUT J30.5/Q FINGER ONE END
72
1
11
341.521006
21
10
31
0
73
2
0
POLYLINE
8
PIECES
66
1
70
1
10
0
20
0
30
0
0
VERTEX
8
PIECES
10
1460.056627
20
0
30
0
0
VERTEX
8
PIECES
10
883.042012
20
0
30
0
0
VERTEX
8
PIECES
10
883.042012
20
180
30
0
0
VERTEX
8
PIECES
10
1566.084024
20
180
30
0
0
SEQEND
8
PIECES
0
POLYLINE
8
CLAMPS
66
1
70
1
10
0
20
0
30
0
0
VERTEX
8
CLAMPS
10
903.042012
20
25
30
0
0
VERTEX
8
CLAMPS
10
1033.042012
20
25
30
0
0
VERTEX
8
CLAMPS
10
1033.042012
20
155
30
0
0
VERTEX
8
CLAMPS
10
903.042012
20
155
30
0
0
SEQEND
8
CLAMPS
0
POLYLINE
8
CLAMPS
66
1
70
1
10
0
20
0
30
0
0
VERTEX
8
CLAMPS
10
1309.782655
20
25
30
0
0
VERTEX
8
CLAMPS
10
1439.782655
20
25
30
0
0
VERTEX
8
CLAMPS
10
1439.782655
20
155
30
0
0
VERTEX
8
CLAMPS
10
1309.782655
20
155
30
0
0
SEQEND
8
CLAMPS
0
TEXT
8
TEXT
10
1224.563018
20
100
30
0
40
15
1
ST - S-ARCH TOP RAIL P2 L683 x180
72
1
11
1224.563018
21
100
31
0
73
2
0
TEXT
8
TEXT
10
1224.563018
20
10
30
0
40
10
1
OUT 668 IN 562 CUT Q/J30.5 FINGER ONE END
72
1
11
1224.563018
21
10
31
0
73
2
0
POLYLINE
8
CONTOUR
66
1
70
1
10
0
20
0
30
0
0
VERTEX
8
CONTOUR
10
1086.605465
20
442.391214
30
0
42
0.207987
0
VERTEX
8
CONTOUR
10
1034.300219
20
562.693281
30
0
42
0.393939
0
VERTEX
8
CONTOUR
10
116.910711
20
562.693281
30
0
42
0.207987
0
VERTEX
8
CONTOUR
10
64.605465
20
442.391214
30
0
0
VERTEX
8
CONTOUR
10
121.605465
20
442.391214
30
0
42
-0.207987
0
VERTEX
8
CONTOUR
10
155.786705
20
521.008066
30
0
42
-0.393939
0
VERTEX
8
CONTOUR
10
995.424225
20
521.008066
30
0
42
-0.207987
0
VERTEX
8
CONTOUR
10
1029.605465
20
442.391214
30
0
0
SEQEND
8
CONTOUR
0
POLYLINE
8
ASSEMBLY
66
1
70
1
10
0
20
0
30
0
0
VERTEX
8
ASSEMBLY
10
1059.854476
20
380
30
0
0
VERTEX
8
ASSEMBLY
10
575.605465
20
665.242568
30
0
0
VERTEX
8
ASSEMBLY
10
575.605465
20
874.148789
30
0
0
VERTEX
8
ASSEMBLY
10
1151.21093
20
535.093515
30
0
0
SEQEND
8
ASSEMBLY
0
POLYLINE
8
FINGER
66
1
70
0
10
0
20
0
30
0
0
VERTEX
8
FINGER
10
575.605465
20
686.391214
30
0
0
VERTEX
8
FINGER
10
575.605465
20
743.391214
30
0
0
SEQEND
8
FINGER
0
POLYLINE
8
ASSEMBLY
66
1
70
1
10
0
20
0
30
0
0
VERTEX
8
ASSEMBLY
10
575.605465
20
665.242568
30
0
0
VERTEX
8
ASSEMBLY
10
91.356454
20
380
30
0
0
VERTEX
8
ASSEMBLY
10
0
20
535.093515
30
0
0
VERTEX
8
ASSEMBLY
10
575.605465
20
874.148789
30
0
0
SEQEND
8
ASSEMBLY
0
TEXT
8
TEXT
10
1251.21093
20
855.648789
30
0
40
15
1
ST - S-ARCH TOP RAIL
72
0
11
1251.21093
21
855.648789
31
0
73
0
0
TEXT
8
TEXT
10
1251.21093
20
833.648789
30
0
40
15
1
THREE-CENTRE W1200 RISE390 H2400 SASH
72
0
11
1251.21093
21
833.648789
31
0
73
0
0
TEXT
8
TEXT
10
1251.21093
20
811.648789
30
0
40
15
1
FACE 57 OFFSET 89 OUTER L1279.4 INNER L1100.3
72
0
11
1251.21093
21
811.648789
31
0
73
0
0
TEXT
8
TEXT
10
1251.21093
20
789.648789
30
0
40
15
1
CHAIN R164.5/672.5/164.5 L1279.4 180DEG: FEWEST 2 x board 180 L668 ROUGH 683 WASTE 63%
72
0
11
1251.21093
21
789.648789
31
0
73
0
0
TEXT
8
TEXT
10
1251.21093
20
767.648789
30
0
40
15
1
  NO ECONOMY ALT WITHIN 5 PIECES -> DEFAULT FEWEST
72
0
11
1251.21093
21
767.648789
31
0
73
0
0
TEXT
8
TEXT
10
1251.21093
20
745.648789
30
0
40
15
1
FINGER 15/16/3.8
72
0
11
1251.21093
21
745.648789
31
0
73
0
0
TEXT
8
TEXT
10
1251.21093
20
723.648789
30
0
40
15
1
ALLOWANCE 10 PER SIDE  LIMITS: OVERALL >= 450 (CLAMP)  SHORTER EDGE >= 400  STOCK MAX 200
72
0
11
1251.21093
21
723.648789
31
0
73
0
0
TEXT
8
TEXT
10
1251.21093
20
701.648789
30
0
40
15
1
CLAMPS (SUGGESTION): UNICLAMP 130 x 130, CLEARANCE 20 FROM THE END CUTS, JAWS 40-98, PIECE THICKNESS 57
72
0
11
1251.21093
21
701.648789
31
0
73
0
0
TEXT
8
TEXT
10
1251.21093
20
679.648789
30
0
40
15
1
CUT CODES: J = JOINT FROM SQUARE  Q = SQUARE (SPRINGING FACE ROUTED WITH THE CONTOUR)  A = APEX FROM SQUARE
72
0
11
1251.21093
21
679.648789
31
0
73
0
0
POLYLINE
8
PIECES
66
1
70
1
10
0
20
0
30
0
0
VERTEX
8
PIECES
10
554.518802
20
1074.148789
30
0
0
VERTEX
8
PIECES
10
85.961332
20
1074.148789
30
0
0
VERTEX
8
PIECES
10
0
20
1254.148789
30
0
0
VERTEX
8
PIECES
10
554.518802
20
1254.148789
30
0
0
SEQEND
8
PIECES
0
POLYLINE
8
CLAMPS
66
1
70
1
10
0
20
0
30
0
0
VERTEX
8
CLAMPS
10
109.022258
20
1099.148789
30
0
0
VERTEX
8
CLAMPS
10
239.022258
20
1099.148789
30
0
0
VERTEX
8
CLAMPS
10
239.022258
20
1229.148789
30
0
0
VERTEX
8
CLAMPS
10
109.022258
20
1229.148789
30
0
0
SEQEND
8
CLAMPS
0
POLYLINE
8
CLAMPS
66
1
70
1
10
0
20
0
30
0
0
VERTEX
8
CLAMPS
10
404.518802
20
1099.148789
30
0
0
VERTEX
8
CLAMPS
10
534.518802
20
1099.148789
30
0
0
VERTEX
8
CLAMPS
10
534.518802
20
1229.148789
30
0
0
VERTEX
8
CLAMPS
10
404.518802
20
1229.148789
30
0
0
SEQEND
8
CLAMPS
0
TEXT
8
TEXT
10
277.259401
20
1174.148789
30
0
40
15
1
ST - S-ARCH HEAD P1 L554.5 x180
72
1
11
277.259401
21
1174.148789
31
0
73
2
0
TEXT
8
TEXT
10
277.259401
20
1084.148789
30
0
40
10
1
OUT 539.5 IN 453.6 CUT J25.5/Q FINGER ONE END
72
1
11
277.259401
21
1084.148789
31
0
73
2
0
POLYLINE
8
PIECES
66
1
70
1
10
0
20
0
30
0
0
VERTEX
8
PIECES
10
1283.185019
20
1074.148789
30
0
0
VERTEX
8
PIECES
10
818.433695
20
1074.148789
30
0
0
VERTEX
8
PIECES
10
754.518802
20
1254.148789
30
0
0
VERTEX
8
PIECES
10
1347.099912
20
1254.148789
30
0
0
SEQEND
8
PIECES
0
POLYLINE
8
CLAMPS
66
1
70
1
10
0
20
0
30
0
0
VERTEX
8
CLAMPS
10
844.556627
20
1099.148789
30
0
0
VERTEX
8
CLAMPS
10
974.556627
20
1099.148789
30
0
0
VERTEX
8
CLAMPS
10
974.556627
20
1229.148789
30
0
0
VERTEX
8
CLAMPS
10
844.556627
20
1229.148789
30
0
0
SEQEND
8
CLAMPS
0
POLYLINE
8
CLAMPS
66
1
70
1
10
0
20
0
30
0
0
VERTEX
8
CLAMPS
10
1127.062088
20
1099.148789
30
0
0
VERTEX
8
CLAMPS
10
1257.062088
20
1099.148789
30
0
0
VERTEX
8
CLAMPS
10
1257.062088
20
1229.148789
30
0
0
VERTEX
8
CLAMPS
10
1127.062088
20
1229.148789
30
0
0
SEQEND
8
CLAMPS
0
TEXT
8
TEXT
10
1050.809357
20
1174.148789
30
0
40
15
1
ST - S-ARCH HEAD P2 L592.6 x180
72
1
11
1050.809357
21
1174.148789
31
0
73
2
0
TEXT
8
TEXT
10
1050.809357
20
1084.148789
30
0
40
10
1
OUT 562.6 IN 434.8 CUT J19.5/J19.5 FINGER BOTH ENDS
72
1
11
1050.809357
21
1084.148789
31
0
73
2
0
POLYLINE
8
PIECES
66
1
70
1
10
0
20
0
30
0
0
VERTEX
8
PIECES
10
2015.657382
20
1074.148789
30
0
0
VERTEX
8
PIECES
10
1547.099912
20
1074.148789
30
0
0
VERTEX
8
PIECES
10
1547.099912
20
1254.148789
30
0
0
VERTEX
8
PIECES
10
2101.618715
20
1254.148789
30
0
0
SEQEND
8
PIECES
0
POLYLINE
8
CLAMPS
66
1
70
1
10
0
20
0
30
0
0
VERTEX
8
CLAMPS
10
1567.099912
20
1099.148789
30
0
0
VERTEX
8
CLAMPS
10
1697.099912
20
1099.148789
30
0
0
VERTEX
8
CLAMPS
10
1697.099912
20
1229.148789
30
0
0
VERTEX
8
CLAMPS
10
1567.099912
20
1229.148789
30
0
0
SEQEND
8
CLAMPS
0
POLYLINE
8
CLAMPS
66
1
70
1
10
0
20
0
30
0
0
VERTEX
8
CLAMPS
10
1862.596456
20
1099.148789
30
0
0
VERTEX
8
CLAMPS
10
1992.596456
20
1099.148789
30
0
0
VERTEX
8
CLAMPS
10
1992.596456
20
1229.148789
30
0
0
VERTEX
8
CLAMPS
10
1862.596456
20
1229.148789
30
0
0
SEQEND
8
CLAMPS
0
TEXT
8
TEXT
10
1824.359313
20
1174.148789
30
0
40
15
1
ST - S-ARCH HEAD P3 L554.5 x180
72
1
11
1824.359313
21
1174.148789
31
0
73
2
0
TEXT
8
TEXT
10
1824.359313
20
1084.148789
30
0
40
10
1
OUT 539.5 IN 453.6 CUT Q/J25.5 FINGER ONE END
72
1
11
1824.359313
21
1084.148789
31
0
73
2
0
POLYLINE
8
CONTOUR
66
1
70
1
10
0
20
0
30
0
0
VERTEX
8
CONTOUR
10
1269.70072
20
1521.716447
30
0
42
0.207987
0
VERTEX
8
CONTOUR
10
1189.096587
20
1707.105954
30
0
42
0.393939
0
VERTEX
8
CONTOUR
10
150.304854
20
1707.105954
30
0
42
0.207987
0
VERTEX
8
CONTOUR
10
69.70072
20
1521.716447
30
0
0
VERTEX
8
CONTOUR
10
149.70072
20
1521.716447
30
0
42
-0.207987
0
VERTEX
8
CONTOUR
10
204.867652
20
1648.60039
30
0
42
-0.393939
0
VERTEX
8
CONTOUR
10
1134.533789
20
1648.60039
30
0
42
-0.207987
0
VERTEX
8
CONTOUR
10
1189.70072
20
1521.716447
30
0
0
SEQEND
8
CONTOUR
0
POLYLINE
8
ASSEMBLY
66
1
70
1
10
0
20
0
30
0
0
VERTEX
8
ASSEMBLY
10
1211.952427
20
1454.148789
30
0
0
VERTEX
8
ASSEMBLY
10
891.667274
20
1775.29019
30
0
0
VERTEX
8
ASSEMBLY
10
958.413643
20
1963.264319
30
0
0
VERTEX
8
ASSEMBLY
10
1339.401441
20
1581.257989
30
0
0
SEQEND
8
ASSEMBLY
0
POLYLINE
8
FINGER
66
1
70
0
10
0
20
0
30
0
0
VERTEX
8
FINGER
10
897.753088
20
1792.429332
30
0
0
VERTEX
8
FINGER
10
924.522214
20
1867.817752
30
0
0
SEQEND
8
FINGER
0
POLYLINE
8
ASSEMBLY
66
1
70
1
10
0
20
0
30
0
0
VERTEX
8
ASSEMBLY
10
887.076382
20
1762.361113
30
0
0
VERTEX
8
ASSEMBLY
10
452.325058
20
1762.361113
30
0
0
VERTEX
8
ASSEMBLY
10
388.410165
20
1942.361113
30
0
0
VERTEX
8
ASSEMBLY
10
950.991275
20
1942.361113
30
0
0
SEQEND
8
ASSEMBLY
0
POLYLINE
8
FINGER
66
1
70
0
10
0
20
0
30
0
0
VERTEX
8
FINGER
10
441.648353
20
1792.429332
30
0
0
VERTEX
8
FINGER
10
414.879226
20
1867.817752
30
0
0
SEQEND
8
FINGER
0
POLYLINE
8
ASSEMBLY
66
1
70
1
10
0
20
0
30
0
0
VERTEX
8
ASSEMBLY
10
447.734166
20
1775.29019
30
0
0
VERTEX
8
ASSEMBLY
10
127.449014
20
1454.148789
30
0
0
VERTEX
8
ASSEMBLY
10
0
20
1581.257989
30
0
0
VERTEX
8
ASSEMBLY
10
380.987798
20
1963.264319
30
0
0
SEQEND
8
ASSEMBLY
0
TEXT
8
TEXT
10
1439.401441
20
1944.764319
30
0
40
15
1
ST - S-ARCH HEAD
72
0
11
1439.401441
21
1944.764319
31
0
73
0
0
TEXT
8
TEXT
10
1439.401441
20
1922.764319
30
0
40
15
1
THREE-CENTRE W1200 RISE390 H2400 SASH
72
0
11
1439.401441
21
1922.764319
31
0
73
0
0
TEXT
8
TEXT
10
1439.401441
20
1900.764319
30
0
40
15
1
FACE 80 OFFSET 0 OUTER L1559 INNER L1307.7
72
0
11
1439.401441
21
1900.764319
31
0
73
0
0
TEXT
8
TEXT
10
1439.401441
20
1878.764319
30
0
40
15
1
CHAIN R253.5/761.5/253.5 L1559 180DEG: FEWEST 3 x board 180 L562.6 ROUGH 592.6 WASTE 53%
72
0
11
1439.401441
21
1878.764319
31
0
73
0
0
TEXT
8
TEXT
10
1439.401441
20
1856.764319
30
0
40
15
1
  NO ECONOMY ALT WITHIN 6 PIECES -> DEFAULT FEWEST
72
0
11
1439.401441
21
1856.764319
31
0
73
0
0
TEXT
8
TEXT
10
1439.401441
20
1834.764319
30
0
40
15
1
FINGER 15/16/3.8
72
0
11
1439.401441
21
1834.764319
31
0
73
0
0
TEXT
8
TEXT
10
1439.401441
20
1812.764319
30
0
40
15
1
ALLOWANCE 10 PER SIDE  LIMITS: OVERALL >= 450 (CLAMP)  SHORTER EDGE >= 400  STOCK MAX 200
72
0
11
1439.401441
21
1812.764319
31
0
73
0
0
TEXT
8
TEXT
10
1439.401441
20
1790.764319
30
0
40
15
1
CLAMPS (SUGGESTION): UNICLAMP 130 x 130, CLEARANCE 20 FROM THE END CUTS, JAWS 40-98, PIECE THICKNESS 164
72
0
11
1439.401441
21
1790.764319
31
0
73
0
0
TEXT
8
TEXT
10
1439.401441
20
1768.764319
30
0
40
15
1
WARNING: PIECE THICKNESS 164 OUTSIDE THE UNICLAMP JAWS 40-98
72
0
11
1439.401441
21
1768.764319
31
0
73
0
0
TEXT
8
TEXT
10
1439.401441
20
1746.764319
30
0
40
15
1
CUT CODES: J = JOINT FROM SQUARE  Q = SQUARE (SPRINGING FACE ROUTED WITH THE CONTOUR)  A = APEX FROM SQUARE
72
0
11
1439.401441
21
1746.764319
31
0
73
0
0
POLYLINE
8
FIT
66
1
70
1
10
0
20
0
30
0
0
VERTEX
8
FIT
10
1200
20
2163.264319
30
0
42
0.207987
0
VERTEX
8
FIT
10
1119.395866
20
2348.653826
30
0
42
0.393939
0
VERTEX
8
FIT
10
80.604134
20
2348.653826
30
0
42
0.207987
0
VERTEX
8
FIT
10
0
20
2163.264319
30
0
0
VERTEX
8
FIT
10
80
20
2163.264319
30
0
42
-0.207987
0
VERTEX
8
FIT
10
135.166932
20
2290.148262
30
0
42
-0.393939
0
VERTEX
8
FIT
10
1064.833068
20
2290.148262
30
0
42
-0.207987
0
VERTEX
8
FIT
10
1120
20
2163.264319
30
0
0
SEQEND
8
FIT
0
POLYLINE
8
FIT
66
1
70
1
10
0
20
0
30
0
0
VERTEX
8
FIT
10
1111
20
2163.264319
30
0
42
0.207987
0
VERTEX
8
FIT
10
1058.694754
20
2283.566386
30
0
42
0.393939
0
VERTEX
8
FIT
10
141.305246
20
2283.566386
30
0
42
0.207987
0
VERTEX
8
FIT
10
89
20
2163.264319
30
0
0
VERTEX
8
FIT
10
146
20
2163.264319
30
0
42
-0.207987
0
VERTEX
8
FIT
10
180.18124
20
2241.881171
30
0
42
-0.393939
0
VERTEX
8
FIT
10
1019.81876
20
2241.881171
30
0
42
-0.207987
0
VERTEX
8
FIT
10
1054
20
2163.264319
30
0
0
SEQEND
8
FIT
0
POLYLINE
8
FIT
66
1
70
1
10
0
20
0
30
0
0
VERTEX
8
FIT
10
1066.5
20
2163.264319
30
0
42
0.207987
0
VERTEX
8
FIT
10
1028.344197
20
2251.022665
30
0
42
0.393939
0
VERTEX
8
FIT
10
171.655803
20
2251.022665
30
0
42
0.207987
0
VERTEX
8
FIT
10
133.5
20
2163.264319
30
0
0
SEQEND
8
FIT
0
TEXT
8
TEXT
10
1300
20
2330.153826
30
0
40
15
1
ST - FIT (ASSEMBLY, NOT A TOOLPATH)
72
0
11
1300
21
2330.153826
31
0
73
0
0
TEXT
8
TEXT
10
1300
20
2308.153826
30
0
40
15
1
RUNNING GAP 9 (HEAD 80 FACE, SASH AT THE STILE LINE)
72
0
11
1300
21
2308.153826
31
0
73
0
0
TEXT
8
TEXT
10
1300
20
2286.153826
30
0
40
15
1
HEAD R253.5/761.5/253.5 / 173.5/681.5/173.5
72
0
11
1300
21
2286.153826
31
0
73
0
0
TEXT
8
TEXT
10
1300
20
2264.153826
30
0
40
15
1
TOP RAIL R164.5/672.5/164.5 / 107.5/615.5/107.5  GLASS R120/628/120
72
0
11
1300
21
2264.153826
31
0
73
0
0
ENDSEC
0
EOF
