0
SECTION
2
HEADER
9
$ACADVER
1
AC1009
0
ENDSEC
0
SECTION
2
TABLES
0
TABLE
2
LAYER
70
8
0
LAYER
2
0
70
0
62
7
6
CONTINUOUS
0
LAYER
2
FIT
70
0
62
4
6
CONTINUOUS
0
LAYER
2
CONTOUR
70
0
62
7
6
CONTINUOUS
0
LAYER
2
ASSEMBLY
70
0
62
8
6
CONTINUOUS
0
LAYER
2
PIECES
70
0
62
5
6
CONTINUOUS
0
LAYER
2
FINGER
70
0
62
1
6
CONTINUOUS
0
LAYER
2
CLAMPS
70
0
62
3
6
CONTINUOUS
0
LAYER
2
TEXT
70
0
62
94
6
CONTINUOUS
0
ENDTAB
0
ENDSEC
0
SECTION
2
ENTITIES
0
POLYLINE
8
PIECES
66
1
70
1
10
0
20
0
30
0
0
VERTEX
8
PIECES
10
622.996436
20
0
30
0
0
VERTEX
8
PIECES
10
39.388569
20
0
30
0
0
VERTEX
8
PIECES
10
0
20
150
30
0
0
VERTEX
8
PIECES
10
622.996436
20
150
30
0
0
SEQEND
8
PIECES
0
POLYLINE
8
CLAMPS
66
1
70
1
10
0
20
0
30
0
0
VERTEX
8
CLAMPS
10
71.762664
20
10
30
0
0
VERTEX
8
CLAMPS
10
201.762664
20
10
30
0
0
VERTEX
8
CLAMPS
10
201.762664
20
140
30
0
0
VERTEX
8
CLAMPS
10
71.762664
20
140
30
0
0
SEQEND
8
CLAMPS
0
POLYLINE
8
CLAMPS
66
1
70
1
10
0
20
0
30
0
0
VERTEX
8
CLAMPS
10
472.996436
20
10
30
0
0
VERTEX
8
CLAMPS
10
602.996436
20
10
30
0
0
VERTEX
8
CLAMPS
10
602.996436
20
140
30
0
0
VERTEX
8
CLAMPS
10
472.996436
20
140
30
0
0
SEQEND
8
CLAMPS
0
TEXT
8
TEXT
10
311.498218
20
85
30
0
40
15
1
T - LEAF TOP P1 L623 x150
72
1
11
311.498218
21
85
31
0
73
2
0
TEXT
8
TEXT
10
311.498218
20
10
30
0
40
10
1
OUT 608 IN 568.6 CUT J14.7/Q FINGER ONE END
72
1
11
311.498218
21
10
31
0
73
2
0
POLYLINE
8
PIECES
66
1
70
1
10
0
20
0
30
0
0
VERTEX
8
PIECES
10
1482.729697
20
0
30
0
0
VERTEX
8
PIECES
10
977.57128
20
0
30
0
0
VERTEX
8
PIECES
10
822.996436
20
150
30
0
0
VERTEX
8
PIECES
10
1522.118265
20
150
30
0
0
SEQEND
8
PIECES
0
POLYLINE
8
CLAMPS
66
1
70
1
10
0
20
0
30
0
0
VERTEX
8
CLAMPS
10
1002.266291
20
10
30
0
0
VERTEX
8
CLAMPS
10
1132.266291
20
10
30
0
0
VERTEX
8
CLAMPS
10
1132.266291
20
140
30
0
0
VERTEX
8
CLAMPS
10
1002.266291
20
140
30
0
0
SEQEND
8
CLAMPS
0
POLYLINE
8
CLAMPS
66
1
70
1
10
0
20
0
30
0
0
VERTEX
8
CLAMPS
10
1320.355601
20
10
30
0
0
VERTEX
8
CLAMPS
10
1450.355601
20
10
30
0
0
VERTEX
8
CLAMPS
10
1450.355601
20
140
30
0
0
VERTEX
8
CLAMPS
10
1320.355601
20
140
30
0
0
SEQEND
8
CLAMPS
0
TEXT
8
TEXT
10
1172.557351
20
85
30
0
40
15
1
T - LEAF TOP P2 L699.1 x150
72
1
11
1172.557351
21
85
31
0
73
2
0
TEXT
8
TEXT
10
1172.557351
20
10
30
0
40
10
1
OUT 669.1 IN 475.2 CUT A45.9/J14.7 FINGER BOTH ENDS
72
1
11
1172.557351
21
10
31
0
73
2
0
POLYLINE
8
PIECES
66
1
70
1
10
0
20
0
30
0
0
VERTEX
8
PIECES
10
2266.665251
20
0
30
0
0
VERTEX
8
PIECES
10
1761.506834
20
0
30
0
0
VERTEX
8
PIECES
10
1722.118265
20
150
30
0
0
VERTEX
8
PIECES
10
2421.240095
20
150
30
0
0
SEQEND
8
PIECES
0
POLYLINE
8
CLAMPS
66
1
70
1
10
0
20
0
30
0
0
VERTEX
8
CLAMPS
10
1793.88093
20
10
30
0
0
VERTEX
8
CLAMPS
10
1923.88093
20
10
30
0
0
VERTEX
8
CLAMPS
10
1923.88093
20
140
30
0
0
VERTEX
8
CLAMPS
10
1793.88093
20
140
30
0
0
SEQEND
8
CLAMPS
0
POLYLINE
8
CLAMPS
66
1
70
1
10
0
20
0
30
0
0
VERTEX
8
CLAMPS
10
2111.97024
20
10
30
0
0
VERTEX
8
CLAMPS
10
2241.97024
20
10
30
0
0
VERTEX
8
CLAMPS
10
2241.97024
20
140
30
0
0
VERTEX
8
CLAMPS
10
2111.97024
20
140
30
0
0
SEQEND
8
CLAMPS
0
TEXT
8
TEXT
10
2071.67918
20
85
30
0
40
15
1
T - LEAF TOP P3 L699.1 x150
72
1
11
2071.67918
21
85
31
0
73
2
0
TEXT
8
TEXT
10
2071.67918
20
10
30
0
40
10
1
OUT 669.1 IN 475.2 CUT J14.7/A45.9 FINGER BOTH ENDS
72
1
11
2071.67918
21
10
31
0
73
2
0
POLYLINE
8
PIECES
66
1
70
1
10
0
20
0
30
0
0
VERTEX
8
PIECES
10
3204.847962
20
0
30
0
0
VERTEX
8
PIECES
10
2621.240095
20
0
30
0
0
VERTEX
8
PIECES
10
2621.240095
20
150
30
0
0
VERTEX
8
PIECES
10
3244.236531
20
150
30
0
0
SEQEND
8
PIECES
0
POLYLINE
8
CLAMPS
66
1
70
1
10
0
20
0
30
0
0
VERTEX
8
CLAMPS
10
2641.240095
20
10
30
0
0
VERTEX
8
CLAMPS
10
2771.240095
20
10
30
0
0
VERTEX
8
CLAMPS
10
2771.240095
20
140
30
0
0
VERTEX
8
CLAMPS
10
2641.240095
20
140
30
0
0
SEQEND
8
CLAMPS
0
POLYLINE
8
CLAMPS
66
1
70
1
10
0
20
0
30
0
0
VERTEX
8
CLAMPS
10
3042.473867
20
10
30
0
0
VERTEX
8
CLAMPS
10
3172.473867
20
10
30
0
0
VERTEX
8
CLAMPS
10
3172.473867
20
140
30
0
0
VERTEX
8
CLAMPS
10
3042.473867
20
140
30
0
0
SEQEND
8
CLAMPS
0
TEXT
8
TEXT
10
2932.738313
20
85
30
0
40
15
1
T - LEAF TOP P4 L623 x150
72
1
11
2932.738313
21
85
31
0
73
2
0
TEXT
8
TEXT
10
2932.738313
20
10
30
0
40
10
1
OUT 608 IN 568.6 CUT Q/J14.7 FINGER ONE END
72
1
11
2932.738313
21
10
31
0
73
2
0
POLYLINE
8
CONTOUR
66
1
70
1
10
0
20
0
30
0
0
VERTEX
8
CONTOUR
10
1180.400168
20
374.862394
30
0
42
0.26259
0
VERTEX
8
CONTOUR
10
620.400168
20
1367.636285
30
0
42
0.26259
0
VERTEX
8
CONTOUR
10
60.400168
20
374.862394
30
0
0
VERTEX
8
CONTOUR
10
127.400168
20
374.862394
30
0
42
-0.252599
0
VERTEX
8
CONTOUR
10
620.400168
20
1288.453659
30
0
42
-0.252599
0
VERTEX
8
CONTOUR
10
1113.400168
20
374.862394
30
0
0
SEQEND
8
CONTOUR
0
POLYLINE
8
ASSEMBLY
66
1
70
1
10
0
20
0
30
0
0
VERTEX
8
ASSEMBLY
10
1095.718915
20
350
30
0
0
VERTEX
8
ASSEMBLY
10
951.303901
20
899.962917
30
0
0
VERTEX
8
ASSEMBLY
10
1086.381414
20
976.156911
30
0
0
VERTEX
8
ASSEMBLY
10
1240.800336
20
388.096997
30
0
0
SEQEND
8
ASSEMBLY
0
POLYLINE
8
FINGER
66
1
70
0
10
0
20
0
30
0
0
VERTEX
8
FINGER
10
972.390424
20
911.857321
30
0
0
VERTEX
8
FINGER
10
1030.746643
20
944.774668
30
0
0
SEQEND
8
FINGER
0
POLYLINE
8
ASSEMBLY
66
1
70
1
10
0
20
0
30
0
0
VERTEX
8
ASSEMBLY
10
951.303901
20
899.962917
30
0
0
VERTEX
8
ASSEMBLY
10
620.400168
20
1240.958871
30
0
0
VERTEX
8
ASSEMBLY
10
620.400168
20
1456.350102
30
0
0
VERTEX
8
ASSEMBLY
10
1086.381414
20
976.156911
30
0
0
SEQEND
8
ASSEMBLY
0
POLYLINE
8
FINGER
66
1
70
0
10
0
20
0
30
0
0
VERTEX
8
FINGER
10
620.400168
20
1288.453659
30
0
0
VERTEX
8
FINGER
10
620.400168
20
1367.636285
30
0
0
SEQEND
8
FINGER
0
POLYLINE
8
ASSEMBLY
66
1
70
1
10
0
20
0
30
0
0
VERTEX
8
ASSEMBLY
10
620.400168
20
1240.958871
30
0
0
VERTEX
8
ASSEMBLY
10
289.496435
20
899.962917
30
0
0
VERTEX
8
ASSEMBLY
10
154.418922
20
976.156911
30
0
0
VERTEX
8
ASSEMBLY
10
620.400168
20
1456.350102
30
0
0
SEQEND
8
ASSEMBLY
0
POLYLINE
8
FINGER
66
1
70
0
10
0
20
0
30
0
0
VERTEX
8
FINGER
10
620.400168
20
1288.453659
30
0
0
VERTEX
8
FINGER
10
620.400168
20
1367.636285
30
0
0
SEQEND
8
FINGER
0
POLYLINE
8
FINGER
66
1
70
0
10
0
20
0
30
0
0
VERTEX
8
FINGER
10
268.409912
20
911.857321
30
0
0
VERTEX
8
FINGER
10
210.053693
20
944.774668
30
0
0
SEQEND
8
FINGER
0
POLYLINE
8
ASSEMBLY
66
1
70
1
10
0
20
0
30
0
0
VERTEX
8
ASSEMBLY
10
289.496435
20
899.962917
30
0
0
VERTEX
8
ASSEMBLY
10
145.081421
20
350
30
0
0
VERTEX
8
ASSEMBLY
10
0
20
388.096997
30
0
0
VERTEX
8
ASSEMBLY
10
154.418922
20
976.156911
30
0
0
SEQEND
8
ASSEMBLY
0
TEXT
8
TEXT
10
1340.800336
20
1437.850102
30
0
40
15
1
T - LEAF TOP
72
0
11
1340.800336
21
1437.850102
31
0
73
0
0
TEXT
8
TEXT
10
1340.800336
20
1415.850102
30
0
40
15
1
GOTHIC EQUILATERAL W1200 RISE1039.2 H2000 HINGE R
72
0
11
1340.800336
21
1415.850102
31
0
73
0
0
TEXT
8
TEXT
10
1340.800336
20
1393.850102
30
0
40
15
1
FACE 67 OFFSET 40 OUTER L2383 INNER L2163.5
72
0
11
1340.800336
21
1393.850102
31
0
73
0
0
TEXT
8
TEXT
10
1340.800336
20
1371.850102
30
0
40
15
1
SIDE 1 R1160 L1191.5 58.9DEG: FEWEST 2 x board 150 L669.1 ROUGH 699.1 WASTE 50%
72
0
11
1340.800336
21
1371.850102
31
0
73
0
0
TEXT
8
TEXT
10
1340.800336
20
1349.850102
30
0
40
15
1
  NO ECONOMY ALT WITHIN 5 PIECES -> DEFAULT FEWEST
72
0
11
1340.800336
21
1349.850102
31
0
73
0
0
TEXT
8
TEXT
10
1340.800336
20
1327.850102
30
0
40
15
1
SIDE 2 R1160 L1191.5 58.9DEG: FEWEST 2 x board 150 L669.1 ROUGH 699.1 WASTE 50%
72
0
11
1340.800336
21
1327.850102
31
0
73
0
0
TEXT
8
TEXT
10
1340.800336
20
1305.850102
30
0
40
15
1
  NO ECONOMY ALT WITHIN 5 PIECES -> DEFAULT FEWEST
72
0
11
1340.800336
21
1305.850102
31
0
73
0
0
TEXT
8
TEXT
10
1340.800336
20
1283.850102
30
0
40
15
1
FINGER 15/16/3.8
72
0
11
1340.800336
21
1283.850102
31
0
73
0
0
TEXT
8
TEXT
10
1340.800336
20
1261.850102
30
0
40
15
1
ALLOWANCE 10 PER SIDE  LIMITS: OVERALL >= 450 (CLAMP)  SHORTER EDGE >= 400  STOCK MAX 200
72
0
11
1340.800336
21
1261.850102
31
0
73
0
0
TEXT
8
TEXT
10
1340.800336
20
1239.850102
30
0
40
15
1
CLAMPS (SUGGESTION): UNICLAMP 130 x 130, CLEARANCE 20 FROM THE END CUTS, JAWS 40-98, PIECE THICKNESS 57
72
0
11
1340.800336
21
1239.850102
31
0
73
0
0
TEXT
8
TEXT
10
1340.800336
20
1217.850102
30
0
40
15
1
CUT CODES: J = JOINT FROM SQUARE  Q = SQUARE (SPRINGING FACE ROUTED WITH THE CONTOUR)  A = APEX FROM SQUARE
72
0
11
1340.800336
21
1217.850102
31
0
73
0
0
POLYLINE
8
PIECES
66
1
70
1
10
0
20
0
30
0
0
VERTEX
8
PIECES
10
652.978247
20
1656.350102
30
0
0
VERTEX
8
PIECES
10
32.153903
20
1656.350102
30
0
0
VERTEX
8
PIECES
10
0
20
1776.350102
30
0
0
VERTEX
8
PIECES
10
652.978247
20
1776.350102
30
0
0
SEQEND
8
PIECES
0
POLYLINE
8
CLAMPS
66
1
70
1
10
0
20
0
30
0
0
VERTEX
8
CLAMPS
10
68.493649
20
1651.350102
30
0
0
VERTEX
8
CLAMPS
10
198.493649
20
1651.350102
30
0
0
VERTEX
8
CLAMPS
10
198.493649
20
1781.350102
30
0
0
VERTEX
8
CLAMPS
10
68.493649
20
1781.350102
30
0
0
SEQEND
8
CLAMPS
0
POLYLINE
8
CLAMPS
66
1
70
1
10
0
20
0
30
0
0
VERTEX
8
CLAMPS
10
502.978247
20
1651.350102
30
0
0
VERTEX
8
CLAMPS
10
632.978247
20
1651.350102
30
0
0
VERTEX
8
CLAMPS
10
632.978247
20
1781.350102
30
0
0
VERTEX
8
CLAMPS
10
502.978247
20
1781.350102
30
0
0
SEQEND
8
CLAMPS
0
TEXT
8
TEXT
10
326.489123
20
1726.350102
30
0
40
15
1
T - FRAME HEAD P1 L653 x120
72
1
11
326.489123
21
1726.350102
31
0
73
2
0
TEXT
8
TEXT
10
326.489123
20
1666.350102
30
0
40
10
1
OUT 638 IN 605.8 CUT J15/Q FINGER ONE END
72
1
11
326.489123
21
1666.350102
31
0
73
2
0
POLYLINE
8
PIECES
66
1
70
1
10
0
20
0
30
0
0
VERTEX
8
PIECES
10
1539.300389
20
1656.350102
30
0
0
VERTEX
8
PIECES
10
972.978247
20
1656.350102
30
0
0
VERTEX
8
PIECES
10
852.978247
20
1776.350102
30
0
0
VERTEX
8
PIECES
10
1571.454292
20
1776.350102
30
0
0
SEQEND
8
PIECES
0
POLYLINE
8
CLAMPS
66
1
70
1
10
0
20
0
30
0
0
VERTEX
8
CLAMPS
10
1012.978247
20
1651.350102
30
0
0
VERTEX
8
CLAMPS
10
1142.978247
20
1651.350102
30
0
0
VERTEX
8
CLAMPS
10
1142.978247
20
1781.350102
30
0
0
VERTEX
8
CLAMPS
10
1012.978247
20
1781.350102
30
0
0
SEQEND
8
CLAMPS
0
POLYLINE
8
CLAMPS
66
1
70
1
10
0
20
0
30
0
0
VERTEX
8
CLAMPS
10
1372.960643
20
1651.350102
30
0
0
VERTEX
8
CLAMPS
10
1502.960643
20
1651.350102
30
0
0
VERTEX
8
CLAMPS
10
1502.960643
20
1781.350102
30
0
0
VERTEX
8
CLAMPS
10
1372.960643
20
1781.350102
30
0
0
SEQEND
8
CLAMPS
0
TEXT
8
TEXT
10
1212.216269
20
1726.350102
30
0
40
15
1
T - FRAME HEAD P2 L718.5 x120
72
1
11
1212.216269
21
1726.350102
31
0
73
2
0
TEXT
8
TEXT
10
1212.216269
20
1666.350102
30
0
40
10
1
OUT 688.5 IN 536.3 CUT A45/J15 FINGER BOTH ENDS
72
1
11
1212.216269
21
1666.350102
31
0
73
2
0
POLYLINE
8
PIECES
66
1
70
1
10
0
20
0
30
0
0
VERTEX
8
PIECES
10
2369.930337
20
1656.350102
30
0
0
VERTEX
8
PIECES
10
1803.608195
20
1656.350102
30
0
0
VERTEX
8
PIECES
10
1771.454292
20
1776.350102
30
0
0
VERTEX
8
PIECES
10
2489.930337
20
1776.350102
30
0
0
SEQEND
8
PIECES
0
POLYLINE
8
CLAMPS
66
1
70
1
10
0
20
0
30
0
0
VERTEX
8
CLAMPS
10
1839.947941
20
1651.350102
30
0
0
VERTEX
8
CLAMPS
10
1969.947941
20
1651.350102
30
0
0
VERTEX
8
CLAMPS
10
1969.947941
20
1781.350102
30
0
0
VERTEX
8
CLAMPS
10
1839.947941
20
1781.350102
30
0
0
SEQEND
8
CLAMPS
0
POLYLINE
8
CLAMPS
66
1
70
1
10
0
20
0
30
0
0
VERTEX
8
CLAMPS
10
2199.930337
20
1651.350102
30
0
0
VERTEX
8
CLAMPS
10
2329.930337
20
1651.350102
30
0
0
VERTEX
8
CLAMPS
10
2329.930337
20
1781.350102
30
0
0
VERTEX
8
CLAMPS
10
2199.930337
20
1781.350102
30
0
0
SEQEND
8
CLAMPS
0
TEXT
8
TEXT
10
2130.692314
20
1726.350102
30
0
40
15
1
T - FRAME HEAD P3 L718.5 x120
72
1
11
2130.692314
21
1726.350102
31
0
73
2
0
TEXT
8
TEXT
10
2130.692314
20
1666.350102
30
0
40
10
1
OUT 688.5 IN 536.3 CUT J15/A45 FINGER BOTH ENDS
72
1
11
2130.692314
21
1666.350102
31
0
73
2
0
POLYLINE
8
PIECES
66
1
70
1
10
0
20
0
30
0
0
VERTEX
8
PIECES
10
3310.75468
20
1656.350102
30
0
0
VERTEX
8
PIECES
10
2689.930337
20
1656.350102
30
0
0
VERTEX
8
PIECES
10
2689.930337
20
1776.350102
30
0
0
VERTEX
8
PIECES
10
3342.908584
20
1776.350102
30
0
0
SEQEND
8
PIECES
0
POLYLINE
8
CLAMPS
66
1
70
1
10
0
20
0
30
0
0
VERTEX
8
CLAMPS
10
2709.930337
20
1651.350102
30
0
0
VERTEX
8
CLAMPS
10
2839.930337
20
1651.350102
30
0
0
VERTEX
8
CLAMPS
10
2839.930337
20
1781.350102
30
0
0
VERTEX
8
CLAMPS
10
2709.930337
20
1781.350102
30
0
0
SEQEND
8
CLAMPS
0
POLYLINE
8
CLAMPS
66
1
70
1
10
0
20
0
30
0
0
VERTEX
8
CLAMPS
10
3144.414935
20
1651.350102
30
0
0
VERTEX
8
CLAMPS
10
3274.414935
20
1651.350102
30
0
0
VERTEX
8
CLAMPS
10
3274.414935
20
1781.350102
30
0
0
VERTEX
8
CLAMPS
10
3144.414935
20
1781.350102
30
0
0
SEQEND
8
CLAMPS
0
TEXT
8
TEXT
10
3016.41946
20
1726.350102
30
0
40
15
1
T - FRAME HEAD P4 L653 x120
72
1
11
3016.41946
21
1726.350102
31
0
73
2
0
TEXT
8
TEXT
10
3016.41946
20
1666.350102
30
0
40
10
1
OUT 638 IN 605.8 CUT Q/J15 FINGER ONE END
72
1
11
3016.41946
21
1666.350102
31
0
73
2
0
POLYLINE
8
CONTOUR
66
1
70
1
10
0
20
0
30
0
0
VERTEX
8
CONTOUR
10
1251.947001
20
1996.168723
30
0
42
0.267949
0
VERTEX
8
CONTOUR
10
651.947001
20
3035.399207
30
0
42
0.267949
0
VERTEX
8
CONTOUR
10
51.947001
20
1996.168723
30
0
0
VERTEX
8
CONTOUR
10
108.947001
20
1996.168723
30
0
42
-0.260183
0
VERTEX
8
CONTOUR
10
651.947001
20
2969.024827
30
0
42
-0.260183
0
VERTEX
8
CONTOUR
10
1194.947001
20
1996.168723
30
0
0
SEQEND
8
CONTOUR
0
POLYLINE
8
ASSEMBLY
66
1
70
1
10
0
20
0
30
0
0
VERTEX
8
ASSEMBLY
10
1187.982902
20
1976.350102
30
0
0
VERTEX
8
ASSEMBLY
10
1031.184024
20
2561.531482
30
0
0
VERTEX
8
ASSEMBLY
10
1138.773081
20
2623.648053
30
0
0
VERTEX
8
ASSEMBLY
10
1303.894002
20
2007.408388
30
0
0
SEQEND
8
ASSEMBLY
0
POLYLINE
8
FINGER
66
1
70
0
10
0
20
0
30
0
0
VERTEX
8
FINGER
10
1041.814037
20
2567.668723
30
0
0
VERTEX
8
FINGER
10
1091.177485
20
2596.168723
30
0
0
SEQEND
8
FINGER
0
POLYLINE
8
ASSEMBLY
66
1
70
1
10
0
20
0
30
0
0
VERTEX
8
ASSEMBLY
10
1031.184024
20
2561.531482
30
0
0
VERTEX
8
ASSEMBLY
10
651.947001
20
2940.768506
30
0
0
VERTEX
8
ASSEMBLY
10
651.947001
20
3110.474133
30
0
0
VERTEX
8
ASSEMBLY
10
1138.773081
20
2623.648053
30
0
0
SEQEND
8
ASSEMBLY
0
POLYLINE
8
FINGER
66
1
70
0
10
0
20
0
30
0
0
VERTEX
8
FINGER
10
651.947001
20
2969.024827
30
0
0
VERTEX
8
FINGER
10
651.947001
20
3035.399207
30
0
0
SEQEND
8
FINGER
0
POLYLINE
8
ASSEMBLY
66
1
70
1
10
0
20
0
30
0
0
VERTEX
8
ASSEMBLY
10
651.947001
20
2940.768506
30
0
0
VERTEX
8
ASSEMBLY
10
272.709977
20
2561.531482
30
0
0
VERTEX
8
ASSEMBLY
10
165.120921
20
2623.648053
30
0
0
VERTEX
8
ASSEMBLY
10
651.947001
20
3110.474133
30
0
0
SEQEND
8
ASSEMBLY
0
POLYLINE
8
FINGER
66
1
70
0
10
0
20
0
30
0
0
VERTEX
8
FINGER
10
262.079964
20
2567.668723
30
0
0
VERTEX
8
FINGER
10
212.716516
20
2596.168723
30
0
0
SEQEND
8
FINGER
0
POLYLINE
8
ASSEMBLY
66
1
70
1
10
0
20
0
30
0
0
VERTEX
8
ASSEMBLY
10
272.709977
20
2561.531482
30
0
0
VERTEX
8
ASSEMBLY
10
115.911099
20
1976.350102
30
0
0
VERTEX
8
ASSEMBLY
10
0
20
2007.408388
30
0
0
VERTEX
8
ASSEMBLY
10
165.120921
20
2623.648053
30
0
0
SEQEND
8
ASSEMBLY
0
TEXT
8
TEXT
10
1403.894002
20
3091.974133
30
0
40
15
1
T - FRAME HEAD
72
0
11
1403.894002
21
3091.974133
31
0
73
0
0
TEXT
8
TEXT
10
1403.894002
20
3069.974133
30
0
40
15
1
GOTHIC EQUILATERAL W1200 RISE1039.2 H2000 HINGE R
72
0
11
1403.894002
21
3069.974133
31
0
73
0
0
TEXT
8
TEXT
10
1403.894002
20
3047.974133
30
0
40
15
1
FACE 57 OFFSET 0 OUTER L2513.3 INNER L2327.5
72
0
11
1403.894002
21
3047.974133
31
0
73
0
0
TEXT
8
TEXT
10
1403.894002
20
3025.974133
30
0
40
15
1
SIDE 1 R1200 L1256.6 60DEG: FEWEST 2 x board 120 L688.5 ROUGH 718.5 WASTE 43%
72
0
11
1403.894002
21
3025.974133
31
0
73
0
0
TEXT
8
TEXT
10
1403.894002
20
3003.974133
30
0
40
15
1
  NO ECONOMY ALT WITHIN 5 PIECES -> DEFAULT FEWEST
72
0
11
1403.894002
21
3003.974133
31
0
73
0
0
TEXT
8
TEXT
10
1403.894002
20
2981.974133
30
0
40
15
1
SIDE 2 R1200 L1256.6 60DEG: FEWEST 2 x board 120 L688.5 ROUGH 718.5 WASTE 43%
72
0
11
1403.894002
21
2981.974133
31
0
73
0
0
TEXT
8
TEXT
10
1403.894002
20
2959.974133
30
0
40
15
1
  NO ECONOMY ALT WITHIN 5 PIECES -> DEFAULT FEWEST
72
0
11
1403.894002
21
2959.974133
31
0
73
0
0
TEXT
8
TEXT
10
1403.894002
20
2937.974133
30
0
40
15
1
FINGER 15/16/3.8
72
0
11
1403.894002
21
2937.974133
31
0
73
0
0
TEXT
8
TEXT
10
1403.894002
20
2915.974133
30
0
40
15
1
ALLOWANCE 10 PER SIDE  LIMITS: OVERALL >= 450 (CLAMP)  SHORTER EDGE >= 400  STOCK MAX 200
72
0
11
1403.894002
21
2915.974133
31
0
73
0
0
TEXT
8
TEXT
10
1403.894002
20
2893.974133
30
0
40
15
1
CLAMPS (SUGGESTION): UNICLAMP 130 x 130, CLEARANCE 20 FROM THE END CUTS, JAWS 40-98, PIECE THICKNESS 93
72
0
11
1403.894002
21
2893.974133
31
0
73
0
0
TEXT
8
TEXT
10
1403.894002
20
2871.974133
30
0
40
15
1
CUT CODES: J = JOINT FROM SQUARE  Q = SQUARE (SPRINGING FACE ROUTED WITH THE CONTOUR)  A = APEX FROM SQUARE
72
0
11
1403.894002
21
2871.974133
31
0
73
0
0
POLYLINE
8
FIT
66
1
70
1
10
0
20
0
30
0
0
VERTEX
8
FIT
10
1200
20
3310.474133
30
0
42
0.267949
0
VERTEX
8
FIT
10
600
20
4349.704618
30
0
42
0.267949
0
VERTEX
8
FIT
10
0
20
3310.474133
30
0
0
VERTEX
8
FIT
10
57
20
3310.474133
30
0
42
-0.260183
0
VERTEX
8
FIT
10
600
20
4283.330237
30
0
42
-0.260183
0
VERTEX
8
FIT
10
1143
20
3310.474133
30
0
0
SEQEND
8
FIT
0
POLYLINE
8
FIT
66
1
70
1
10
0
20
0
30
0
0
VERTEX
8
FIT
10
1160
20
3310.474133
30
0
42
0.26259
0
VERTEX
8
FIT
10
600
20
4303.248025
30
0
42
0.26259
0
VERTEX
8
FIT
10
40
20
3310.474133
30
0
0
VERTEX
8
FIT
10
107
20
3310.474133
30
0
42
-0.252599
0
VERTEX
8
FIT
10
600
20
4224.065398
30
0
42
-0.252599
0
VERTEX
8
FIT
10
1093
20
3310.474133
30
0
0
SEQEND
8
FIT
0
POLYLINE
8
FIT
66
1
70
1
10
0
20
0
30
0
0
VERTEX
8
FIT
10
1105.5
20
3310.474133
30
0
42
0.25457
0
VERTEX
8
FIT
10
600
20
4238.983826
30
0
42
0.25457
0
VERTEX
8
FIT
10
94.5
20
3310.474133
30
0
0
SEQEND
8
FIT
0
POLYLINE
8
FIT
66
1
70
0
10
0
20
0
30
0
0
VERTEX
8
FIT
10
1164
20
3310.474133
30
0
42
0.004296
0
VERTEX
8
FIT
10
1163.828183
20
3330.473149
30
0
0
SEQEND
8
FIT
0
POLYLINE
8
FIT
66
1
70
0
10
0
20
0
30
0
0
VERTEX
8
FIT
10
1163.613423
20
3340.470812
30
0
42
0.004296
0
VERTEX
8
FIT
10
1162.926282
20
3360.458758
30
0
0
SEQEND
8
FIT
0
POLYLINE
8
FIT
66
1
70
0
10
0
20
0
30
0
0
VERTEX
8
FIT
10
1162.453951
20
3370.447566
30
0
42
0.004296
0
VERTEX
8
FIT
10
1161.251941
20
3390.411166
30
0
0
SEQEND
8
FIT
0
POLYLINE
8
FIT
66
1
70
0
10
0
20
0
30
0
0
VERTEX
8
FIT
10
1160.522352
20
3400.384485
30
0
42
0.004296
0
VERTEX
8
FIT
10
1158.806272
20
3420.310479
30
0
0
SEQEND
8
FIT
0
POLYLINE
8
FIT
66
1
70
0
10
0
20
0
30
0
0
VERTEX
8
FIT
10
1157.819909
20
3430.261684
30
0
42
0.004296
0
VERTEX
8
FIT
10
1155.590901
20
3450.136836
30
0
0
SEQEND
8
FIT
0
POLYLINE
8
FIT
66
1
70
0
10
0
20
0
30
0
0
VERTEX
8
FIT
10
1154.348419
20
3460.059317
30
0
42
0.004296
0
VERTEX
8
FIT
10
1151.607961
20
3479.870426
30
0
0
SEQEND
8
FIT
0
POLYLINE
8
FIT
66
1
70
0
10
0
20
0
30
0
0
VERTEX
8
FIT
10
1150.110187
20
3489.757592
30
0
42
0.004296
0
VERTEX
8
FIT
10
1146.8601
20
3509.491499
30
0
0
SEQEND
8
FIT
0
POLYLINE
8
FIT
66
1
70
0
10
0
20
0
30
0
0
VERTEX
8
FIT
10
1145.108027
20
3519.336784
30
0
42
0.004296
0
VERTEX
8
FIT
10
1141.35047
20
3538.980381
30
0
0
SEQEND
8
FIT
0
POLYLINE
8
FIT
66
1
70
0
10
0
20
0
30
0
0
VERTEX
8
FIT
10
1139.345262
20
3548.777244
30
0
42
0.004296
0
VERTEX
8
FIT
10
1135.082731
20
3568.317485
30
0
0
SEQEND
8
FIT
0
POLYLINE
8
FIT
66
1
70
0
10
0
20
0
30
0
0
VERTEX
8
FIT
10
1132.825721
20
3578.059419
30
0
42
0.004296
0
VERTEX
8
FIT
10
1128.061047
20
3597.483323
30
0
0
SEQEND
8
FIT
0
POLYLINE
8
FIT
66
1
70
0
10
0
20
0
30
0
0
VERTEX
8
FIT
10
1125.553733
20
3607.163858
30
0
42
0.004296
0
VERTEX
8
FIT
10
1120.290081
20
3626.458524
30
0
0
SEQEND
8
FIT
0
POLYLINE
8
FIT
66
1
70
0
10
0
20
0
30
0
0
VERTEX
8
FIT
10
1117.534129
20
3636.07123
30
0
42
0.004296
0
VERTEX
8
FIT
10
1111.774995
20
3655.223841
30
0
0
SEQEND
8
FIT
0
POLYLINE
8
FIT
66
1
70
0
10
0
20
0
30
0
0
VERTEX
8
FIT
10
1108.772236
20
3664.762333
30
0
42
0.004296
0
VERTEX
8
FIT
10
1102.521444
20
3683.760169
30
0
0
SEQEND
8
FIT
0
POLYLINE
8
FIT
66
1
70
0
10
0
20
0
30
0
0
VERTEX
8
FIT
10
1099.273873
20
3693.218111
30
0
42
0.004296
0
VERTEX
8
FIT
10
1092.535576
20
3712.048552
30
0
0
SEQEND
8
FIT
0
POLYLINE
8
FIT
66
1
70
0
10
0
20
0
30
0
0
VERTEX
8
FIT
10
1089.045349
20
3721.419662
30
0
42
0.004296
0
VERTEX
8
FIT
10
1081.824024
20
3740.070201
30
0
0
SEQEND
8
FIT
0
POLYLINE
8
FIT
66
1
70
0
10
0
20
0
30
0
0
VERTEX
8
FIT
10
1078.093459
20
3749.348254
30
0
42
0.004296
0
VERTEX
8
FIT
10
1070.393901
20
3767.806504
30
0
0
SEQEND
8
FIT
0
POLYLINE
8
FIT
66
1
70
0
10
0
20
0
30
0
0
VERTEX
8
FIT
10
1066.425476
20
3776.985338
30
0
42
0.004296
0
VERTEX
8
FIT
10
1058.2528
20
3795.239036
30
0
0
SEQEND
8
FIT
0
POLYLINE
8
FIT
66
1
70
0
10
0
20
0
30
0
0
VERTEX
8
FIT
10
1054.049151
20
3804.312554
30
0
42
0.004296
0
VERTEX
8
FIT
10
1045.408785
20
3822.349578
30
0
0
SEQEND
8
FIT
0
POLYLINE
8
FIT
66
1
70
0
10
0
20
0
30
0
0
VERTEX
8
FIT
10
1040.972705
20
3831.311753
30
0
42
0.004296
0
VERTEX
8
FIT
10
1031.870389
20
3849.120122
30
0
0
SEQEND
8
FIT
0
POLYLINE
8
FIT
66
1
70
0
10
0
20
0
30
0
0
VERTEX
8
FIT
10
1027.204824
20
3857.965001
30
0
42
0.004296
0
VERTEX
8
FIT
10
1017.646602
20
3875.532885
30
0
0
SEQEND
8
FIT
0
POLYLINE
8
FIT
66
1
70
0
10
0
20
0
30
0
0
VERTEX
8
FIT
10
1012.754651
20
3884.254594
30
0
42
0.004296
0
VERTEX
8
FIT
10
1002.746873
20
3901.570325
30
0
0
SEQEND
8
FIT
0
POLYLINE
8
FIT
66
1
70
0
10
0
20
0
30
0
0
VERTEX
8
FIT
10
997.631785
20
3910.16307
30
0
42
0.004296
0
VERTEX
8
FIT
10
987.181099
20
3927.215146
30
0
0
SEQEND
8
FIT
0
POLYLINE
8
FIT
66
1
70
0
10
0
20
0
30
0
0
VERTEX
8
FIT
10
981.846272
20
3935.67322
30
0
42
0.004296
0
VERTEX
8
FIT
10
970.959619
20
3952.450315
30
0
0
SEQEND
8
FIT
0
POLYLINE
8
FIT
66
1
70
0
10
0
20
0
30
0
0
VERTEX
8
FIT
10
965.408596
20
3960.768099
30
0
42
0.004296
0
VERTEX
8
FIT
10
954.093207
20
3977.25907
30
0
0
SEQEND
8
FIT
0
POLYLINE
8
FIT
66
1
70
0
10
0
20
0
30
0
0
VERTEX
8
FIT
10
948.329676
20
3985.43104
30
0
42
0.004296
0
VERTEX
8
FIT
10
936.593066
20
4001.624933
30
0
0
SEQEND
8
FIT
0
POLYLINE
8
FIT
66
1
70
0
10
0
20
0
30
0
0
VERTEX
8
FIT
10
930.620855
20
4009.645661
30
0
42
0.004296
0
VERTEX
8
FIT
10
918.470821
20
4025.531719
30
0
0
SEQEND
8
FIT
0
POLYLINE
8
FIT
66
1
70
0
10
0
20
0
30
0
0
VERTEX
8
FIT
10
912.293896
20
4033.395877
30
0
42
0.004296
0
VERTEX
8
FIT
10
899.738508
20
4048.963548
30
0
0
SEQEND
8
FIT
0
POLYLINE
8
FIT
66
1
70
0
10
0
20
0
30
0
0
VERTEX
8
FIT
10
893.360973
20
4056.665913
30
0
42
0.004296
0
VERTEX
8
FIT
10
880.408571
20
4071.904858
30
0
0
SEQEND
8
FIT
0
POLYLINE
8
FIT
66
1
70
0
10
0
20
0
30
0
0
VERTEX
8
FIT
10
873.83466
20
4079.440313
30
0
42
0.004296
0
VERTEX
8
FIT
10
860.493847
20
4094.340409
30
0
0
SEQEND
8
FIT
0
POLYLINE
8
FIT
66
1
70
0
10
0
20
0
30
0
0
VERTEX
8
FIT
10
853.727929
20
4101.70395
30
0
42
0.004296
0
VERTEX
8
FIT
10
840.007565
20
4116.255301
30
0
0
SEQEND
8
FIT
0
POLYLINE
8
FIT
66
1
70
0
10
0
20
0
30
0
0
VERTEX
8
FIT
10
833.054133
20
4123.442036
30
0
42
0.004296
0
VERTEX
8
FIT
10
818.963333
20
4137.634975
30
0
0
SEQEND
8
FIT
0
POLYLINE
8
FIT
66
1
70
0
10
0
20
0
30
0
0
VERTEX
8
FIT
10
811.827006
20
4144.640131
30
0
42
0.004296
0
VERTEX
8
FIT
10
797.375129
20
4158.465232
30
0
0
SEQEND
8
FIT
0
POLYLINE
8
FIT
66
1
70
0
10
0
20
0
30
0
0
VERTEX
8
FIT
10
790.060646
20
4165.284156
30
0
42
0.004296
0
VERTEX
8
FIT
10
775.257291
20
4178.732236
30
0
0
SEQEND
8
FIT
0
POLYLINE
8
FIT
66
1
70
0
10
0
20
0
30
0
0
VERTEX
8
FIT
10
767.769512
20
4185.360398
30
0
42
0.004296
0
VERTEX
8
FIT
10
752.624511
20
4198.422524
30
0
0
SEQEND
8
FIT
0
POLYLINE
8
FIT
66
1
70
0
10
0
20
0
30
0
0
VERTEX
8
FIT
10
744.968408
20
4204.855523
30
0
42
0.004296
0
VERTEX
8
FIT
10
729.491823
20
4217.523019
30
0
0
SEQEND
8
FIT
0
POLYLINE
8
FIT
66
1
70
0
10
0
20
0
30
0
0
VERTEX
8
FIT
10
721.672482
20
4223.756581
30
0
42
0.004296
0
VERTEX
8
FIT
10
705.87459
20
4236.021032
30
0
0
SEQEND
8
FIT
0
POLYLINE
8
FIT
66
1
70
0
10
0
20
0
30
0
0
VERTEX
8
FIT
10
697.897205
20
4242.051017
30
0
42
0.004296
0
VERTEX
8
FIT
10
681.788501
20
4253.904279
30
0
0
SEQEND
8
FIT
0
POLYLINE
8
FIT
66
1
70
0
10
0
20
0
30
0
0
VERTEX
8
FIT
10
673.658371
20
4259.726681
30
0
42
0.004296
0
VERTEX
8
FIT
10
657.249554
20
4271.160879
30
0
0
SEQEND
8
FIT
0
POLYLINE
8
FIT
66
1
70
0
10
0
20
0
30
0
0
VERTEX
8
FIT
10
648.972078
20
4276.771831
30
0
42
0.004296
0
VERTEX
8
FIT
10
632.274048
20
4287.779371
30
0
0
SEQEND
8
FIT
0
POLYLINE
8
FIT
66
1
70
0
10
0
20
0
30
0
0
VERTEX
8
FIT
10
623.854725
20
4293.175146
30
0
42
0.004296
0
VERTEX
8
FIT
10
606.878572
20
4303.748717
30
0
0
SEQEND
8
FIT
0
POLYLINE
8
FIT
66
1
70
0
10
0
20
0
30
0
0
VERTEX
8
FIT
10
600
20
4307.918868
30
0
42
0.004296
0
VERTEX
8
FIT
10
582.951183
20
4297.462865
30
0
0
SEQEND
8
FIT
0
POLYLINE
8
FIT
66
1
70
0
10
0
20
0
30
0
0
VERTEX
8
FIT
10
574.494774
20
4292.125401
30
0
42
0.004296
0
VERTEX
8
FIT
10
557.721074
20
4281.233517
30
0
0
SEQEND
8
FIT
0
POLYLINE
8
FIT
66
1
70
0
10
0
20
0
30
0
0
VERTEX
8
FIT
10
549.405021
20
4275.6799
30
0
42
0.004296
0
VERTEX
8
FIT
10
532.917579
20
4264.359369
30
0
0
SEQEND
8
FIT
0
POLYLINE
8
FIT
66
1
70
0
10
0
20
0
30
0
0
VERTEX
8
FIT
10
524.747407
20
4258.59329
30
0
42
0.004296
0
VERTEX
8
FIT
10
508.557175
20
4246.851631
30
0
0
SEQEND
8
FIT
0
POLYLINE
8
FIT
66
1
70
0
10
0
20
0
30
0
0
VERTEX
8
FIT
10
500.53831
20
4240.876919
30
0
42
0.004296
0
VERTEX
8
FIT
10
484.656041
20
4228.721932
30
0
0
SEQEND
8
FIT
0
POLYLINE
8
FIT
66
1
70
0
10
0
20
0
30
0
0
VERTEX
8
FIT
10
476.79381
20
4222.542555
30
0
42
0.004296
0
VERTEX
8
FIT
10
461.230054
20
4209.982314
30
0
0
SEQEND
8
FIT
0
POLYLINE
8
FIT
66
1
70
0
10
0
20
0
30
0
0
VERTEX
8
FIT
10
453.529678
20
4203.602376
30
0
42
0.004296
0
VERTEX
8
FIT
10
438.294773
20
4190.645223
30
0
0
SEQEND
8
FIT
0
POLYLINE
8
FIT
66
1
70
0
10
0
20
0
30
0
0
VERTEX
8
FIT
10
430.761368
20
4184.068963
30
0
42
0.004296
0
VERTEX
8
FIT
10
415.865433
20
4170.723504
30
0
0
SEQEND
8
FIT
0
POLYLINE
8
FIT
66
1
70
0
10
0
20
0
30
0
0
VERTEX
8
FIT
10
408.504002
20
4163.95529
30
0
42
0.004296
0
VERTEX
8
FIT
10
393.956931
20
4150.23039
30
0
0
SEQEND
8
FIT
0
POLYLINE
8
FIT
66
1
70
0
10
0
20
0
30
0
0
VERTEX
8
FIT
10
386.772364
20
4143.274717
30
0
42
0.004296
0
VERTEX
8
FIT
10
372.58382
20
4129.179492
30
0
0
SEQEND
8
FIT
0
POLYLINE
8
FIT
66
1
70
0
10
0
20
0
30
0
0
VERTEX
8
FIT
10
365.580889
20
4122.040981
30
0
42
0.004296
0
VERTEX
8
FIT
10
351.760296
20
4107.584793
30
0
0
SEQEND
8
FIT
0
POLYLINE
8
FIT
66
1
70
0
10
0
20
0
30
0
0
VERTEX
8
FIT
10
344.943653
20
4100.268184
30
0
42
0.004296
0
VERTEX
8
FIT
10
331.50019
20
4085.460637
30
0
0
SEQEND
8
FIT
0
POLYLINE
8
FIT
66
1
70
0
10
0
20
0
30
0
0
VERTEX
8
FIT
10
324.874363
20
4077.97079
30
0
42
0.004296
0
VERTEX
8
FIT
10
311.81696
20
4062.821718
30
0
0
SEQEND
8
FIT
0
POLYLINE
8
FIT
66
1
70
0
10
0
20
0
30
0
0
VERTEX
8
FIT
10
305.386349
20
4055.163609
30
0
42
0.004296
0
VERTEX
8
FIT
10
292.72368
20
4039.683074
30
0
0
SEQEND
8
FIT
0
POLYLINE
8
FIT
66
1
70
0
10
0
20
0
30
0
0
VERTEX
8
FIT
10
286.492557
20
4031.86179
30
0
42
0.004296
0
VERTEX
8
FIT
10
274.233032
20
4016.060075
30
0
0
SEQEND
8
FIT
0
POLYLINE
8
FIT
66
1
70
0
10
0
20
0
30
0
0
VERTEX
8
FIT
10
268.205535
20
4008.08081
30
0
42
0.004296
0
VERTEX
8
FIT
10
256.357297
20
3991.96841
30
0
0
SEQEND
8
FIT
0
POLYLINE
8
FIT
66
1
70
0
10
0
20
0
30
0
0
VERTEX
8
FIT
10
250.537431
20
3983.836465
30
0
42
0.004296
0
VERTEX
8
FIT
10
239.10835
20
3967.424083
30
0
0
SEQEND
8
FIT
0
POLYLINE
8
FIT
66
1
70
0
10
0
20
0
30
0
0
VERTEX
8
FIT
10
233.499979
20
3959.144858
30
0
42
0.004296
0
VERTEX
8
FIT
10
222.497647
20
3942.443396
30
0
0
SEQEND
8
FIT
0
POLYLINE
8
FIT
66
1
70
0
10
0
20
0
30
0
0
VERTEX
8
FIT
10
217.104497
20
3934.022391
30
0
42
0.004296
0
VERTEX
8
FIT
10
206.536221
20
3917.042942
30
0
0
SEQEND
8
FIT
0
POLYLINE
8
FIT
66
1
70
0
10
0
20
0
30
0
0
VERTEX
8
FIT
10
201.361875
20
3908.48575
30
0
42
0.004296
0
VERTEX
8
FIT
10
191.234675
20
3891.239592
30
0
0
SEQEND
8
FIT
0
POLYLINE
8
FIT
66
1
70
0
10
0
20
0
30
0
0
VERTEX
8
FIT
10
186.282569
20
3882.551898
30
0
42
0.004296
0
VERTEX
8
FIT
10
176.603171
20
3865.050486
30
0
0
SEQEND
8
FIT
0
POLYLINE
8
FIT
66
1
70
0
10
0
20
0
30
0
0
VERTEX
8
FIT
10
171.876595
20
3856.238059
30
0
42
0.004296
0
VERTEX
8
FIT
10
162.651429
20
3838.493018
30
0
0
SEQEND
8
FIT
0
POLYLINE
8
FIT
66
1
70
0
10
0
20
0
30
0
0
VERTEX
8
FIT
10
158.153522
20
3829.561713
30
0
42
0.004296
0
VERTEX
8
FIT
10
149.388716
20
3811.58483
30
0
0
SEQEND
8
FIT
0
POLYLINE
8
FIT
66
1
70
0
10
0
20
0
30
0
0
VERTEX
8
FIT
10
145.122465
20
3802.540578
30
0
42
0.004296
0
VERTEX
8
FIT
10
136.823841
20
3784.343793
30
0
0
SEQEND
8
FIT
0
POLYLINE
8
FIT
66
1
70
0
10
0
20
0
30
0
0
VERTEX
8
FIT
10
132.79208
20
3775.192602
30
0
42
0.004296
0
VERTEX
8
FIT
10
124.965149
20
3756.788002
30
0
0
SEQEND
8
FIT
0
POLYLINE
8
FIT
66
1
70
0
10
0
20
0
30
0
0
VERTEX
8
FIT
10
121.170557
20
3747.53595
30
0
42
0.004296
0
VERTEX
8
FIT
10
113.820518
20
3728.93576
30
0
0
SEQEND
8
FIT
0
POLYLINE
8
FIT
66
1
70
0
10
0
20
0
30
0
0
VERTEX
8
FIT
10
110.265614
20
3719.588993
30
0
42
0.004296
0
VERTEX
8
FIT
10
103.39735
20
3700.805567
30
0
0
SEQEND
8
FIT
0
POLYLINE
8
FIT
66
1
70
0
10
0
20
0
30
0
0
VERTEX
8
FIT
10
100.084496
20
3691.370293
30
0
42
0.004296
0
VERTEX
8
FIT
10
93.702569
20
3672.416108
30
0
0
SEQEND
8
FIT
0
POLYLINE
8
FIT
66
1
70
0
10
0
20
0
30
0
0
VERTEX
8
FIT
10
90.633965
20
3662.898595
30
0
42
0.004296
0
VERTEX
8
FIT
10
84.742613
20
3643.786239
30
0
0
SEQEND
8
FIT
0
POLYLINE
8
FIT
66
1
70
0
10
0
20
0
30
0
0
VERTEX
8
FIT
10
81.920298
20
3634.192808
30
0
42
0.004296
0
VERTEX
8
FIT
10
76.523434
20
3614.934978
30
0
0
SEQEND
8
FIT
0
POLYLINE
8
FIT
66
1
70
0
10
0
20
0
30
0
0
VERTEX
8
FIT
10
73.949283
20
3605.272
30
0
42
0.004296
0
VERTEX
8
FIT
10
69.050492
20
3585.881487
30
0
0
SEQEND
8
FIT
0
POLYLINE
8
FIT
66
1
70
0
10
0
20
0
30
0
0
VERTEX
8
FIT
10
66.726214
20
3576.155382
30
0
42
0.004296
0
VERTEX
8
FIT
10
62.32875
20
3556.645065
30
0
0
SEQEND
8
FIT
0
POLYLINE
8
FIT
66
1
70
0
10
0
20
0
30
0
0
VERTEX
8
FIT
10
60.255889
20
3546.862293
30
0
42
0.004296
0
VERTEX
8
FIT
10
56.362674
20
3527.245131
30
0
0
SEQEND
8
FIT
0
POLYLINE
8
FIT
66
1
70
0
10
0
20
0
30
0
0
VERTEX
8
FIT
10
54.542606
20
3517.41219
30
0
42
0.004296
0
VERTEX
8
FIT
10
51.156225
20
3497.701214
30
0
0
SEQEND
8
FIT
0
POLYLINE
8
FIT
66
1
70
0
10
0
20
0
30
0
0
VERTEX
8
FIT
10
49.59016
20
3487.824634
30
0
42
0.004296
0
VERTEX
8
FIT
10
46.712862
20
3468.032936
30
0
0
SEQEND
8
FIT
0
POLYLINE
8
FIT
66
1
70
0
10
0
20
0
30
0
0
VERTEX
8
FIT
10
45.40184
20
3458.119278
30
0
42
0.004296
0
VERTEX
8
FIT
10
43.035536
20
3438.260004
30
0
0
SEQEND
8
FIT
0
POLYLINE
8
FIT
66
1
70
0
10
0
20
0
30
0
0
VERTEX
8
FIT
10
41.980428
20
3428.315854
30
0
42
0.004296
0
VERTEX
8
FIT
10
40.12669
20
3408.402195
30
0
0
SEQEND
8
FIT
0
POLYLINE
8
FIT
66
1
70
0
10
0
20
0
30
0
0
VERTEX
8
FIT
10
39.328197
20
3398.434156
30
0
42
0.004296
0
VERTEX
8
FIT
10
37.988257
20
3378.479339
30
0
0
SEQEND
8
FIT
0
POLYLINE
8
FIT
66
1
70
0
10
0
20
0
30
0
0
VERTEX
8
FIT
10
37.446908
20
3368.494034
30
0
42
0.004296
0
VERTEX
8
FIT
10
36.621655
20
3348.511313
30
0
0
SEQEND
8
FIT
0
POLYLINE
8
FIT
66
1
70
0
10
0
20
0
30
0
0
VERTEX
8
FIT
10
36.337812
20
3338.515373
30
0
42
0.004296
0
VERTEX
8
FIT
10
36.027794
20
3318.518022
30
0
0
SEQEND
8
FIT
0
TEXT
8
TEXT
10
1300
20
4331.204618
30
0
40
15
1
T - FIT (ASSEMBLY, NOT A TOOLPATH)
72
0
11
1300
21
4331.204618
31
0
73
0
0
TEXT
8
TEXT
10
1300
20
4309.204618
30
0
40
15
1
GAP 4 LAP 17 (REBATE)
72
0
11
1300
21
4309.204618
31
0
73
0
0
TEXT
8
TEXT
10
1300
20
4287.204618
30
0
40
15
1
FRAME R1200/1200 / 1143/1143  REBATE WALL R1164/1164 (LAND 36, DASHED)
72
0
11
1300
21
4287.204618
31
0
73
0
0
TEXT
8
TEXT
10
1300
20
4265.204618
30
0
40
15
1
LEAF R1160/1160 / 1093/1093  GLASS R1105.5/1105.5
72
0
11
1300
21
4265.204618
31
0
73
0
0
ENDSEC
0
EOF
