0
SECTION
2
HEADER
9
$ACADVER
1
AC1009
0
ENDSEC
0
SECTION
2
TABLES
0
TABLE
2
LAYER
70
7
0
LAYER
2
0
70
0
62
7
6
CONTINUOUS
0
LAYER
2
FIT
70
0
62
4
6
CONTINUOUS
0
LAYER
2
CONTOUR
70
0
62
7
6
CONTINUOUS
0
LAYER
2
ASSEMBLY
70
0
62
8
6
CONTINUOUS
0
LAYER
2
PIECES
70
0
62
5
6
CONTINUOUS
0
LAYER
2
FINGER
70
0
62
1
6
CONTINUOUS
0
LAYER
2
TEXT
70
0
62
94
6
CONTINUOUS
0
ENDTAB
0
ENDSEC
0
SECTION
2
ENTITIES
0
POLYLINE
8
ASSEMBLY
66
1
70
1
10
0
20
0
30
0
0
VERTEX
8
ASSEMBLY
10
0
20
0
30
0
0
VERTEX
8
ASSEMBLY
10
317.495718
20
0
30
0
0
VERTEX
8
ASSEMBLY
10
317.495718
20
95
30
0
0
VERTEX
8
ASSEMBLY
10
0
20
95
30
0
0
SEQEND
8
ASSEMBLY
0
POLYLINE
8
PIECES
66
1
70
1
10
0
20
0
30
0
0
VERTEX
8
PIECES
10
315.853504
20
69.361099
30
0
42
0.082672
0
VERTEX
8
PIECES
10
16.642213
20
69.361099
30
0
0
VERTEX
8
PIECES
10
26.00283
20
13.134958
30
0
42
-0.082672
0
VERTEX
8
PIECES
10
306.492888
20
13.134958
30
0
0
SEQEND
8
PIECES
0
POLYLINE
8
FINGER
66
1
70
0
10
0
20
0
30
0
0
VERTEX
8
FINGER
10
26.00283
20
13.134958
30
0
0
VERTEX
8
FINGER
10
16.642213
20
69.361099
30
0
0
SEQEND
8
FINGER
0
POLYLINE
8
FINGER
66
1
70
0
10
0
20
0
30
0
0
VERTEX
8
FINGER
10
16
20
0
30
0
0
VERTEX
8
FINGER
10
16
20
95
30
0
0
SEQEND
8
FINGER
0
TEXT
8
TEXT
10
158.747859
20
57.5
30
0
40
15
1
SG - S-ARCH TOP RAIL P1 L317.5 x95
72
1
11
158.747859
21
57.5
31
0
73
2
0
TEXT
8
TEXT
10
158.747859
20
10
30
0
40
10
1
OUT 302.5 IN 277.2 CUT J9.5/S80.5 FINGER ONE END
72
1
11
158.747859
21
10
31
0
73
2
0
POLYLINE
8
ASSEMBLY
66
1
70
1
10
0
20
0
30
0
0
VERTEX
8
ASSEMBLY
10
517.495718
20
0
30
0
0
VERTEX
8
ASSEMBLY
10
849.991435
20
0
30
0
0
VERTEX
8
ASSEMBLY
10
849.991435
20
95
30
0
0
VERTEX
8
ASSEMBLY
10
517.495718
20
95
30
0
0
SEQEND
8
ASSEMBLY
0
POLYLINE
8
PIECES
66
1
70
1
10
0
20
0
30
0
0
VERTEX
8
PIECES
10
833.349222
20
69.361099
30
0
42
0.082672
0
VERTEX
8
PIECES
10
534.137931
20
69.361099
30
0
0
VERTEX
8
PIECES
10
543.498548
20
13.134958
30
0
42
-0.082672
0
VERTEX
8
PIECES
10
823.988605
20
13.134958
30
0
0
SEQEND
8
PIECES
0
POLYLINE
8
FINGER
66
1
70
0
10
0
20
0
30
0
0
VERTEX
8
FINGER
10
823.988605
20
13.134958
30
0
0
VERTEX
8
FINGER
10
833.349222
20
69.361099
30
0
0
SEQEND
8
FINGER
0
POLYLINE
8
FINGER
66
1
70
0
10
0
20
0
30
0
0
VERTEX
8
FINGER
10
543.498548
20
13.134958
30
0
0
VERTEX
8
FINGER
10
534.137931
20
69.361099
30
0
0
SEQEND
8
FINGER
0
POLYLINE
8
FINGER
66
1
70
0
10
0
20
0
30
0
0
VERTEX
8
FINGER
10
533.495718
20
0
30
0
0
VERTEX
8
FINGER
10
533.495718
20
95
30
0
0
SEQEND
8
FINGER
0
POLYLINE
8
FINGER
66
1
70
0
10
0
20
0
30
0
0
VERTEX
8
FINGER
10
833.991435
20
0
30
0
0
VERTEX
8
FINGER
10
833.991435
20
95
30
0
0
SEQEND
8
FINGER
0
TEXT
8
TEXT
10
683.743577
20
57.5
30
0
40
15
1
SG - S-ARCH TOP RAIL P2 L332.5 x95
72
1
11
683.743577
21
57.5
31
0
73
2
0
TEXT
8
TEXT
10
683.743577
20
10
30
0
40
10
1
OUT 302.5 IN 277.2 CUT J9.5/J9.5 FINGER BOTH ENDS
72
1
11
683.743577
21
10
31
0
73
2
0
POLYLINE
8
ASSEMBLY
66
1
70
1
10
0
20
0
30
0
0
VERTEX
8
ASSEMBLY
10
1049.991435
20
0
30
0
0
VERTEX
8
ASSEMBLY
10
1388.944869
20
0
30
0
0
VERTEX
8
ASSEMBLY
10
1388.944869
20
95
30
0
0
VERTEX
8
ASSEMBLY
10
1049.991435
20
95
30
0
0
SEQEND
8
ASSEMBLY
0
POLYLINE
8
PIECES
66
1
70
1
10
0
20
0
30
0
0
VERTEX
8
PIECES
10
1372.302656
20
69.361099
30
0
42
0.082672
0
VERTEX
8
PIECES
10
1073.091365
20
69.361099
30
0
0
VERTEX
8
PIECES
10
1120.054764
20
18.538553
30
0
42
-0.071484
0
VERTEX
8
PIECES
10
1362.942039
20
13.134958
30
0
0
SEQEND
8
PIECES
0
POLYLINE
8
FINGER
66
1
70
0
10
0
20
0
30
0
0
VERTEX
8
FINGER
10
1362.942039
20
13.134958
30
0
0
VERTEX
8
FINGER
10
1372.302656
20
69.361099
30
0
0
SEQEND
8
FINGER
0
POLYLINE
8
FINGER
66
1
70
0
10
0
20
0
30
0
0
VERTEX
8
FINGER
10
1120.054764
20
18.538553
30
0
0
VERTEX
8
FINGER
10
1073.091365
20
69.361099
30
0
0
SEQEND
8
FINGER
0
POLYLINE
8
FINGER
66
1
70
0
10
0
20
0
30
0
0
VERTEX
8
FINGER
10
1065.991435
20
0
30
0
0
VERTEX
8
FINGER
10
1065.991435
20
95
30
0
0
SEQEND
8
FINGER
0
POLYLINE
8
FINGER
66
1
70
0
10
0
20
0
30
0
0
VERTEX
8
FINGER
10
1372.944869
20
0
30
0
0
VERTEX
8
FINGER
10
1372.944869
20
95
30
0
0
SEQEND
8
FINGER
0
TEXT
8
TEXT
10
1219.468152
20
57.5
30
0
40
15
1
SG - S-ARCH TOP RAIL P3 L339 x95
72
1
11
1219.468152
21
57.5
31
0
73
2
0
TEXT
8
TEXT
10
1219.468152
20
10
30
0
40
10
1
OUT 309 IN 232.9 CUT A47.3/J9.5 FINGER BOTH ENDS
72
1
11
1219.468152
21
10
31
0
73
2
0
POLYLINE
8
ASSEMBLY
66
1
70
1
10
0
20
0
30
0
0
VERTEX
8
ASSEMBLY
10
1588.944869
20
0
30
0
0
VERTEX
8
ASSEMBLY
10
1927.898303
20
0
30
0
0
VERTEX
8
ASSEMBLY
10
1927.898303
20
95
30
0
0
VERTEX
8
ASSEMBLY
10
1588.944869
20
95
30
0
0
SEQEND
8
ASSEMBLY
0
POLYLINE
8
PIECES
66
1
70
1
10
0
20
0
30
0
0
VERTEX
8
PIECES
10
1904.798373
20
69.361099
30
0
42
0.082672
0
VERTEX
8
PIECES
10
1605.587083
20
69.361099
30
0
0
VERTEX
8
PIECES
10
1614.947699
20
13.134958
30
0
42
-0.071484
0
VERTEX
8
PIECES
10
1857.834974
20
18.538553
30
0
0
SEQEND
8
PIECES
0
POLYLINE
8
FINGER
66
1
70
0
10
0
20
0
30
0
0
VERTEX
8
FINGER
10
1857.834974
20
18.538553
30
0
0
VERTEX
8
FINGER
10
1904.798373
20
69.361099
30
0
0
SEQEND
8
FINGER
0
POLYLINE
8
FINGER
66
1
70
0
10
0
20
0
30
0
0
VERTEX
8
FINGER
10
1614.947699
20
13.134958
30
0
0
VERTEX
8
FINGER
10
1605.587083
20
69.361099
30
0
0
SEQEND
8
FINGER
0
POLYLINE
8
FINGER
66
1
70
0
10
0
20
0
30
0
0
VERTEX
8
FINGER
10
1604.944869
20
0
30
0
0
VERTEX
8
FINGER
10
1604.944869
20
95
30
0
0
SEQEND
8
FINGER
0
POLYLINE
8
FINGER
66
1
70
0
10
0
20
0
30
0
0
VERTEX
8
FINGER
10
1911.898303
20
0
30
0
0
VERTEX
8
FINGER
10
1911.898303
20
95
30
0
0
SEQEND
8
FINGER
0
TEXT
8
TEXT
10
1758.421586
20
57.5
30
0
40
15
1
SG - S-ARCH TOP RAIL P4 L339 x95
72
1
11
1758.421586
21
57.5
31
0
73
2
0
TEXT
8
TEXT
10
1758.421586
20
10
30
0
40
10
1
OUT 309 IN 232.9 CUT J9.5/A47.3 FINGER BOTH ENDS
72
1
11
1758.421586
21
10
31
0
73
2
0
POLYLINE
8
ASSEMBLY
66
1
70
1
10
0
20
0
30
0
0
VERTEX
8
ASSEMBLY
10
2127.898303
20
0
30
0
0
VERTEX
8
ASSEMBLY
10
2460.394021
20
0
30
0
0
VERTEX
8
ASSEMBLY
10
2460.394021
20
95
30
0
0
VERTEX
8
ASSEMBLY
10
2127.898303
20
95
30
0
0
SEQEND
8
ASSEMBLY
0
POLYLINE
8
PIECES
66
1
70
1
10
0
20
0
30
0
0
VERTEX
8
PIECES
10
2443.751807
20
69.361099
30
0
42
0.082672
0
VERTEX
8
PIECES
10
2144.540516
20
69.361099
30
0
0
VERTEX
8
PIECES
10
2153.901133
20
13.134958
30
0
42
-0.082672
0
VERTEX
8
PIECES
10
2434.39119
20
13.134958
30
0
0
SEQEND
8
PIECES
0
POLYLINE
8
FINGER
66
1
70
0
10
0
20
0
30
0
0
VERTEX
8
FINGER
10
2434.39119
20
13.134958
30
0
0
VERTEX
8
FINGER
10
2443.751807
20
69.361099
30
0
0
SEQEND
8
FINGER
0
POLYLINE
8
FINGER
66
1
70
0
10
0
20
0
30
0
0
VERTEX
8
FINGER
10
2153.901133
20
13.134958
30
0
0
VERTEX
8
FINGER
10
2144.540516
20
69.361099
30
0
0
SEQEND
8
FINGER
0
POLYLINE
8
FINGER
66
1
70
0
10
0
20
0
30
0
0
VERTEX
8
FINGER
10
2143.898303
20
0
30
0
0
VERTEX
8
FINGER
10
2143.898303
20
95
30
0
0
SEQEND
8
FINGER
0
POLYLINE
8
FINGER
66
1
70
0
10
0
20
0
30
0
0
VERTEX
8
FINGER
10
2444.394021
20
0
30
0
0
VERTEX
8
FINGER
10
2444.394021
20
95
30
0
0
SEQEND
8
FINGER
0
TEXT
8
TEXT
10
2294.146162
20
57.5
30
0
40
15
1
SG - S-ARCH TOP RAIL P5 L332.5 x95
72
1
11
2294.146162
21
57.5
31
0
73
2
0
TEXT
8
TEXT
10
2294.146162
20
10
30
0
40
10
1
OUT 302.5 IN 277.2 CUT J9.5/J9.5 FINGER BOTH ENDS
72
1
11
2294.146162
21
10
31
0
73
2
0
POLYLINE
8
ASSEMBLY
66
1
70
1
10
0
20
0
30
0
0
VERTEX
8
ASSEMBLY
10
2660.394021
20
0
30
0
0
VERTEX
8
ASSEMBLY
10
2977.889738
20
0
30
0
0
VERTEX
8
ASSEMBLY
10
2977.889738
20
95
30
0
0
VERTEX
8
ASSEMBLY
10
2660.394021
20
95
30
0
0
SEQEND
8
ASSEMBLY
0
POLYLINE
8
PIECES
66
1
70
1
10
0
20
0
30
0
0
VERTEX
8
PIECES
10
2961.247525
20
69.361099
30
0
42
0.082672
0
VERTEX
8
PIECES
10
2662.036234
20
69.361099
30
0
0
VERTEX
8
PIECES
10
2671.396851
20
13.134958
30
0
42
-0.082672
0
VERTEX
8
PIECES
10
2951.886908
20
13.134958
30
0
0
SEQEND
8
PIECES
0
POLYLINE
8
FINGER
66
1
70
0
10
0
20
0
30
0
0
VERTEX
8
FINGER
10
2951.886908
20
13.134958
30
0
0
VERTEX
8
FINGER
10
2961.247525
20
69.361099
30
0
0
SEQEND
8
FINGER
0
POLYLINE
8
FINGER
66
1
70
0
10
0
20
0
30
0
0
VERTEX
8
FINGER
10
2961.889738
20
0
30
0
0
VERTEX
8
FINGER
10
2961.889738
20
95
30
0
0
SEQEND
8
FINGER
0
TEXT
8
TEXT
10
2819.141879
20
57.5
30
0
40
15
1
SG - S-ARCH TOP RAIL P6 L317.5 x95
72
1
11
2819.141879
21
57.5
31
0
73
2
0
TEXT
8
TEXT
10
2819.141879
20
10
30
0
40
10
1
OUT 302.5 IN 277.2 CUT S80.5/J9.5 FINGER ONE END
72
1
11
2819.141879
21
10
31
0
73
2
0
POLYLINE
8
CONTOUR
66
1
70
1
10
0
20
0
30
0
0
VERTEX
8
CONTOUR
10
847.560502
20
308.010491
30
0
42
0.25263
0
VERTEX
8
CONTOUR
10
436.560502
20
1069.535934
30
0
42
0.25263
0
VERTEX
8
CONTOUR
10
25.560502
20
308.010491
30
0
0
VERTEX
8
CONTOUR
10
82.560502
20
308.010491
30
0
42
-0.240832
0
VERTEX
8
CONTOUR
10
436.560502
20
1000.337003
30
0
42
-0.240832
0
VERTEX
8
CONTOUR
10
790.560502
20
308.010491
30
0
0
SEQEND
8
CONTOUR
0
POLYLINE
8
ASSEMBLY
66
1
70
1
10
0
20
0
30
0
0
VERTEX
8
ASSEMBLY
10
779.41077
20
295
30
0
0
VERTEX
8
ASSEMBLY
10
729.734516
20
593.388889
30
0
0
VERTEX
8
ASSEMBLY
10
823.44475
20
608.989917
30
0
0
VERTEX
8
ASSEMBLY
10
873.121004
20
310.601028
30
0
0
SEQEND
8
ASSEMBLY
0
POLYLINE
8
FINGER
66
1
70
0
10
0
20
0
30
0
0
VERTEX
8
FINGER
10
744.498047
20
584.692479
30
0
0
VERTEX
8
FINGER
10
798.423621
20
603.159544
30
0
0
SEQEND
8
FINGER
0
POLYLINE
8
ASSEMBLY
66
1
70
1
10
0
20
0
30
0
0
VERTEX
8
ASSEMBLY
10
738.164887
20
568.771409
30
0
0
VERTEX
8
ASSEMBLY
10
594.494932
20
834.971715
30
0
0
VERTEX
8
ASSEMBLY
10
678.096212
20
880.091844
30
0
0
VERTEX
8
ASSEMBLY
10
821.766167
20
613.891537
30
0
0
SEQEND
8
ASSEMBLY
0
POLYLINE
8
FINGER
66
1
70
0
10
0
20
0
30
0
0
VERTEX
8
FINGER
10
611.279653
20
831.527508
30
0
0
VERTEX
8
FINGER
10
656.313601
20
866.469511
30
0
0
SEQEND
8
FINGER
0
POLYLINE
8
ASSEMBLY
66
1
70
1
10
0
20
0
30
0
0
VERTEX
8
ASSEMBLY
10
610.446252
20
814.413338
30
0
0
VERTEX
8
ASSEMBLY
10
383.538122
20
1024.091483
30
0
0
VERTEX
8
ASSEMBLY
10
448.011993
20
1093.863397
30
0
0
VERTEX
8
ASSEMBLY
10
674.920123
20
884.185251
30
0
0
SEQEND
8
ASSEMBLY
0
POLYLINE
8
FINGER
66
1
70
0
10
0
20
0
30
0
0
VERTEX
8
FINGER
10
436.560502
20
1000.337003
30
0
0
VERTEX
8
FINGER
10
436.560502
20
1069.535934
30
0
0
SEQEND
8
FINGER
0
POLYLINE
8
ASSEMBLY
66
1
70
1
10
0
20
0
30
0
0
VERTEX
8
ASSEMBLY
10
489.582882
20
1024.091483
30
0
0
VERTEX
8
ASSEMBLY
10
262.674752
20
814.413338
30
0
0
VERTEX
8
ASSEMBLY
10
198.200881
20
884.185251
30
0
0
VERTEX
8
ASSEMBLY
10
425.109011
20
1093.863397
30
0
0
SEQEND
8
ASSEMBLY
0
POLYLINE
8
FINGER
66
1
70
0
10
0
20
0
30
0
0
VERTEX
8
FINGER
10
261.841351
20
831.527508
30
0
0
VERTEX
8
FINGER
10
216.807403
20
866.469511
30
0
0
SEQEND
8
FINGER
0
POLYLINE
8
ASSEMBLY
66
1
70
1
10
0
20
0
30
0
0
VERTEX
8
ASSEMBLY
10
278.626071
20
834.971715
30
0
0
VERTEX
8
ASSEMBLY
10
134.956116
20
568.771409
30
0
0
VERTEX
8
ASSEMBLY
10
51.354837
20
613.891537
30
0
0
VERTEX
8
ASSEMBLY
10
195.024792
20
880.091844
30
0
0
SEQEND
8
ASSEMBLY
0
POLYLINE
8
FINGER
66
1
70
0
10
0
20
0
30
0
0
VERTEX
8
FINGER
10
128.622956
20
584.692479
30
0
0
VERTEX
8
FINGER
10
74.697382
20
603.159544
30
0
0
SEQEND
8
FINGER
0
POLYLINE
8
ASSEMBLY
66
1
70
1
10
0
20
0
30
0
0
VERTEX
8
ASSEMBLY
10
143.386488
20
593.388889
30
0
0
VERTEX
8
ASSEMBLY
10
93.710234
20
295
30
0
0
VERTEX
8
ASSEMBLY
10
0
20
310.601028
30
0
0
VERTEX
8
ASSEMBLY
10
49.676254
20
608.989917
30
0
0
SEQEND
8
ASSEMBLY
0
TEXT
8
TEXT
10
973.121004
20
1075.363397
30
0
40
15
1
SG - S-ARCH TOP RAIL
72
0
11
973.121004
21
1075.363397
31
0
73
0
0
TEXT
8
TEXT
10
973.121004
20
1053.363397
30
0
40
15
1
GOTHIC EQUILATERAL W1000 RISE866 H3000 SASH
72
0
11
973.121004
21
1053.363397
31
0
73
0
0
TEXT
8
TEXT
10
973.121004
20
1031.363397
30
0
40
15
1
FACE 57 OFFSET 89 OUTER L1803.4 INNER L1614.6
72
0
11
973.121004
21
1031.363397
31
0
73
0
0
TEXT
8
TEXT
10
973.121004
20
1009.363397
30
0
40
15
1
ARC 1 R911 L901.7 56.7DEG: 3 x board 95 L309 ROUGH 339 (ALT 2 x board 105)
72
0
11
973.121004
21
1009.363397
31
0
73
0
0
TEXT
8
TEXT
10
973.121004
20
987.363397
30
0
40
15
1
ARC 2 R911 L901.7 56.7DEG: 3 x board 95 L309 ROUGH 339 (ALT 2 x board 105)
72
0
11
973.121004
21
987.363397
31
0
73
0
0
TEXT
8
TEXT
10
973.121004
20
965.363397
30
0
40
15
1
FINGER 15/16/3.8
72
0
11
973.121004
21
965.363397
31
0
73
0
0
TEXT
8
TEXT
10
973.121004
20
943.363397
30
0
40
15
1
ALLOWANCE 10 PER SIDE  MAX SEGMENT 36 DEG  RULE NARROWEST
72
0
11
973.121004
21
943.363397
31
0
73
0
0
TEXT
8
TEXT
10
973.121004
20
921.363397
30
0
40
15
1
CUT CODES: J = JOINT FROM SQUARE  S = ARCH-START, AXIS TO HORIZONTAL  A = APEX FROM SQUARE
72
0
11
973.121004
21
921.363397
31
0
73
0
0
POLYLINE
8
ASSEMBLY
66
1
70
1
10
0
20
0
30
0
0
VERTEX
8
ASSEMBLY
10
0
20
1293.863397
30
0
0
VERTEX
8
ASSEMBLY
10
537.814471
20
1293.863397
30
0
0
VERTEX
8
ASSEMBLY
10
537.814471
20
1473.863397
30
0
0
VERTEX
8
ASSEMBLY
10
0
20
1473.863397
30
0
0
SEQEND
8
ASSEMBLY
0
POLYLINE
8
PIECES
66
1
70
1
10
0
20
0
30
0
0
VERTEX
8
PIECES
10
535.226281
20
1405.292972
30
0
42
0.131652
0
VERTEX
8
PIECES
10
17.58819
20
1405.292972
30
0
0
VERTEX
8
PIECES
10
38.293714
20
1328.018906
30
0
42
-0.131652
0
VERTEX
8
PIECES
10
514.520757
20
1328.018906
30
0
0
SEQEND
8
PIECES
0
POLYLINE
8
FINGER
66
1
70
0
10
0
20
0
30
0
0
VERTEX
8
FINGER
10
38.293714
20
1328.018906
30
0
0
VERTEX
8
FINGER
10
17.58819
20
1405.292972
30
0
0
SEQEND
8
FINGER
0
POLYLINE
8
FINGER
66
1
70
0
10
0
20
0
30
0
0
VERTEX
8
FINGER
10
16
20
1293.863397
30
0
0
VERTEX
8
FINGER
10
16
20
1473.863397
30
0
0
SEQEND
8
FINGER
0
TEXT
8
TEXT
10
268.907236
20
1393.863397
30
0
40
15
1
SG - S-ARCH HEAD P1 L537.8 x180
72
1
11
268.907236
21
1393.863397
31
0
73
2
0
TEXT
8
TEXT
10
268.907236
20
1303.863397
30
0
40
10
1
OUT 522.8 IN 471.1 CUT J15/S75 FINGER ONE END
72
1
11
268.907236
21
1303.863397
31
0
73
2
0
POLYLINE
8
ASSEMBLY
66
1
70
1
10
0
20
0
30
0
0
VERTEX
8
ASSEMBLY
10
737.814471
20
1293.863397
30
0
0
VERTEX
8
ASSEMBLY
10
1296.192288
20
1293.863397
30
0
0
VERTEX
8
ASSEMBLY
10
1296.192288
20
1473.863397
30
0
0
VERTEX
8
ASSEMBLY
10
737.814471
20
1473.863397
30
0
0
SEQEND
8
ASSEMBLY
0
POLYLINE
8
PIECES
66
1
70
1
10
0
20
0
30
0
0
VERTEX
8
PIECES
10
1278.604098
20
1405.292972
30
0
42
0.131652
0
VERTEX
8
PIECES
10
760.966008
20
1405.292972
30
0
0
VERTEX
8
PIECES
10
827.261526
20
1338.997454
30
0
42
-0.118709
0
VERTEX
8
PIECES
10
1257.898574
20
1328.018906
30
0
0
SEQEND
8
PIECES
0
POLYLINE
8
FINGER
66
1
70
0
10
0
20
0
30
0
0
VERTEX
8
FINGER
10
1257.898574
20
1328.018906
30
0
0
VERTEX
8
FINGER
10
1278.604098
20
1405.292972
30
0
0
SEQEND
8
FINGER
0
POLYLINE
8
FINGER
66
1
70
0
10
0
20
0
30
0
0
VERTEX
8
FINGER
10
827.261526
20
1338.997454
30
0
0
VERTEX
8
FINGER
10
760.966008
20
1405.292972
30
0
0
SEQEND
8
FINGER
0
POLYLINE
8
FINGER
66
1
70
0
10
0
20
0
30
0
0
VERTEX
8
FINGER
10
753.814471
20
1293.863397
30
0
0
VERTEX
8
FINGER
10
753.814471
20
1473.863397
30
0
0
SEQEND
8
FINGER
0
POLYLINE
8
FINGER
66
1
70
0
10
0
20
0
30
0
0
VERTEX
8
FINGER
10
1280.192288
20
1293.863397
30
0
0
VERTEX
8
FINGER
10
1280.192288
20
1473.863397
30
0
0
SEQEND
8
FINGER
0
TEXT
8
TEXT
10
1017.00338
20
1393.863397
30
0
40
15
1
SG - S-ARCH HEAD P2 L558.4 x180
72
1
11
1017.00338
21
1393.863397
31
0
73
2
0
TEXT
8
TEXT
10
1017.00338
20
1303.863397
30
0
40
10
1
OUT 528.4 IN 419.8 CUT A45/J15 FINGER BOTH ENDS
72
1
11
1017.00338
21
1303.863397
31
0
73
2
0
POLYLINE
8
ASSEMBLY
66
1
70
1
10
0
20
0
30
0
0
VERTEX
8
ASSEMBLY
10
1496.192288
20
1293.863397
30
0
0
VERTEX
8
ASSEMBLY
10
2054.570105
20
1293.863397
30
0
0
VERTEX
8
ASSEMBLY
10
2054.570105
20
1473.863397
30
0
0
VERTEX
8
ASSEMBLY
10
1496.192288
20
1473.863397
30
0
0
SEQEND
8
ASSEMBLY
0
POLYLINE
8
PIECES
66
1
70
1
10
0
20
0
30
0
0
VERTEX
8
PIECES
10
2031.418569
20
1405.292972
30
0
42
0.131652
0
VERTEX
8
PIECES
10
1513.780479
20
1405.292972
30
0
0
VERTEX
8
PIECES
10
1534.486002
20
1328.018906
30
0
42
-0.118709
0
VERTEX
8
PIECES
10
1965.123051
20
1338.997454
30
0
0
SEQEND
8
PIECES
0
POLYLINE
8
FINGER
66
1
70
0
10
0
20
0
30
0
0
VERTEX
8
FINGER
10
1965.123051
20
1338.997454
30
0
0
VERTEX
8
FINGER
10
2031.418569
20
1405.292972
30
0
0
SEQEND
8
FINGER
0
POLYLINE
8
FINGER
66
1
70
0
10
0
20
0
30
0
0
VERTEX
8
FINGER
10
1534.486002
20
1328.018906
30
0
0
VERTEX
8
FINGER
10
1513.780479
20
1405.292972
30
0
0
SEQEND
8
FINGER
0
POLYLINE
8
FINGER
66
1
70
0
10
0
20
0
30
0
0
VERTEX
8
FINGER
10
1512.192288
20
1293.863397
30
0
0
VERTEX
8
FINGER
10
1512.192288
20
1473.863397
30
0
0
SEQEND
8
FINGER
0
POLYLINE
8
FINGER
66
1
70
0
10
0
20
0
30
0
0
VERTEX
8
FINGER
10
2038.570105
20
1293.863397
30
0
0
VERTEX
8
FINGER
10
2038.570105
20
1473.863397
30
0
0
SEQEND
8
FINGER
0
TEXT
8
TEXT
10
1775.381197
20
1393.863397
30
0
40
15
1
SG - S-ARCH HEAD P3 L558.4 x180
72
1
11
1775.381197
21
1393.863397
31
0
73
2
0
TEXT
8
TEXT
10
1775.381197
20
1303.863397
30
0
40
10
1
OUT 528.4 IN 419.8 CUT J15/A45 FINGER BOTH ENDS
72
1
11
1775.381197
21
1303.863397
31
0
73
2
0
POLYLINE
8
ASSEMBLY
66
1
70
1
10
0
20
0
30
0
0
VERTEX
8
ASSEMBLY
10
2254.570105
20
1293.863397
30
0
0
VERTEX
8
ASSEMBLY
10
2792.384576
20
1293.863397
30
0
0
VERTEX
8
ASSEMBLY
10
2792.384576
20
1473.863397
30
0
0
VERTEX
8
ASSEMBLY
10
2254.570105
20
1473.863397
30
0
0
SEQEND
8
ASSEMBLY
0
POLYLINE
8
PIECES
66
1
70
1
10
0
20
0
30
0
0
VERTEX
8
PIECES
10
2774.796386
20
1405.292972
30
0
42
0.131652
0
VERTEX
8
PIECES
10
2257.158296
20
1405.292972
30
0
0
VERTEX
8
PIECES
10
2277.863819
20
1328.018906
30
0
42
-0.131652
0
VERTEX
8
PIECES
10
2754.090862
20
1328.018906
30
0
0
SEQEND
8
PIECES
0
POLYLINE
8
FINGER
66
1
70
0
10
0
20
0
30
0
0
VERTEX
8
FINGER
10
2754.090862
20
1328.018906
30
0
0
VERTEX
8
FINGER
10
2774.796386
20
1405.292972
30
0
0
SEQEND
8
FINGER
0
POLYLINE
8
FINGER
66
1
70
0
10
0
20
0
30
0
0
VERTEX
8
FINGER
10
2776.384576
20
1293.863397
30
0
0
VERTEX
8
FINGER
10
2776.384576
20
1473.863397
30
0
0
SEQEND
8
FINGER
0
TEXT
8
TEXT
10
2523.477341
20
1393.863397
30
0
40
15
1
SG - S-ARCH HEAD P4 L537.8 x180
72
1
11
2523.477341
21
1393.863397
31
0
73
2
0
TEXT
8
TEXT
10
2523.477341
20
1303.863397
30
0
40
10
1
OUT 522.8 IN 471.1 CUT S75/J15 FINGER ONE END
72
1
11
2523.477341
21
1303.863397
31
0
73
2
0
POLYLINE
8
CONTOUR
66
1
70
1
10
0
20
0
30
0
0
VERTEX
8
CONTOUR
10
1066.903817
20
1705.203493
30
0
42
0.267949
0
VERTEX
8
CONTOUR
10
566.903817
20
2571.228897
30
0
42
0.267949
0
VERTEX
8
CONTOUR
10
66.903817
20
1705.203493
30
0
0
VERTEX
8
CONTOUR
10
146.903817
20
1705.203493
30
0
42
-0.254336
0
VERTEX
8
CONTOUR
10
566.903817
20
2477.472876
30
0
42
-0.254336
0
VERTEX
8
CONTOUR
10
986.903817
20
1705.203493
30
0
0
SEQEND
8
CONTOUR
0
POLYLINE
8
ASSEMBLY
66
1
70
1
10
0
20
0
30
0
0
VERTEX
8
ASSEMBLY
10
959.940985
20
1673.863397
30
0
0
VERTEX
8
ASSEMBLY
10
824.626643
20
2178.863397
30
0
0
VERTEX
8
ASSEMBLY
10
998.493292
20
2225.450825
30
0
0
VERTEX
8
ASSEMBLY
10
1133.807634
20
1720.450825
30
0
0
SEQEND
8
ASSEMBLY
0
POLYLINE
8
FINGER
66
1
70
0
10
0
20
0
30
0
0
VERTEX
8
FINGER
10
863.647189
20
2165.203493
30
0
0
VERTEX
8
FINGER
10
932.929221
20
2205.203493
30
0
0
SEQEND
8
FINGER
0
POLYLINE
8
ASSEMBLY
66
1
70
1
10
0
20
0
30
0
0
VERTEX
8
ASSEMBLY
10
855.96674
20
2124.580758
30
0
0
VERTEX
8
ASSEMBLY
10
482.347202
20
2498.200295
30
0
0
VERTEX
8
ASSEMBLY
10
609.626423
20
2625.479516
30
0
0
VERTEX
8
ASSEMBLY
10
983.24596
20
2251.859979
30
0
0
SEQEND
8
ASSEMBLY
0
POLYLINE
8
FINGER
66
1
70
0
10
0
20
0
30
0
0
VERTEX
8
FINGER
10
566.903817
20
2477.472876
30
0
0
VERTEX
8
FINGER
10
566.903817
20
2571.228897
30
0
0
SEQEND
8
FINGER
0
POLYLINE
8
ASSEMBLY
66
1
70
1
10
0
20
0
30
0
0
VERTEX
8
ASSEMBLY
10
651.460432
20
2498.200295
30
0
0
VERTEX
8
ASSEMBLY
10
277.840895
20
2124.580758
30
0
0
VERTEX
8
ASSEMBLY
10
150.561674
20
2251.859979
30
0
0
VERTEX
8
ASSEMBLY
10
524.181212
20
2625.479516
30
0
0
SEQEND
8
ASSEMBLY
0
POLYLINE
8
FINGER
66
1
70
0
10
0
20
0
30
0
0
VERTEX
8
FINGER
10
566.903817
20
2477.472876
30
0
0
VERTEX
8
FINGER
10
566.903817
20
2571.228897
30
0
0
SEQEND
8
FINGER
0
POLYLINE
8
FINGER
66
1
70
0
10
0
20
0
30
0
0
VERTEX
8
FINGER
10
270.160446
20
2165.203493
30
0
0
VERTEX
8
FINGER
10
200.878413
20
2205.203493
30
0
0
SEQEND
8
FINGER
0
POLYLINE
8
ASSEMBLY
66
1
70
1
10
0
20
0
30
0
0
VERTEX
8
ASSEMBLY
10
309.180991
20
2178.863397
30
0
0
VERTEX
8
ASSEMBLY
10
173.866649
20
1673.863397
30
0
0
VERTEX
8
ASSEMBLY
10
0
20
1720.450825
30
0
0
VERTEX
8
ASSEMBLY
10
135.314342
20
2225.450825
30
0
0
SEQEND
8
ASSEMBLY
0
TEXT
8
TEXT
10
1233.807634
20
2606.979516
30
0
40
15
1
SG - S-ARCH HEAD
72
0
11
1233.807634
21
2606.979516
31
0
73
0
0
TEXT
8
TEXT
10
1233.807634
20
2584.979516
30
0
40
15
1
GOTHIC EQUILATERAL W1000 RISE866 H3000 SASH
72
0
11
1233.807634
21
2584.979516
31
0
73
0
0
TEXT
8
TEXT
10
1233.807634
20
2562.979516
30
0
40
15
1
FACE 80 OFFSET 0 OUTER L2094.4 INNER L1833
72
0
11
1233.807634
21
2562.979516
31
0
73
0
0
TEXT
8
TEXT
10
1233.807634
20
2540.979516
30
0
40
15
1
ARC 1 R1000 L1047.2 60DEG: 2 x board 180 L528.4 ROUGH 558.4
72
0
11
1233.807634
21
2540.979516
31
0
73
0
0
TEXT
8
TEXT
10
1233.807634
20
2518.979516
30
0
40
15
1
ARC 2 R1000 L1047.2 60DEG: 2 x board 180 L528.4 ROUGH 558.4
72
0
11
1233.807634
21
2518.979516
31
0
73
0
0
TEXT
8
TEXT
10
1233.807634
20
2496.979516
30
0
40
15
1
FINGER 15/16/3.8
72
0
11
1233.807634
21
2496.979516
31
0
73
0
0
TEXT
8
TEXT
10
1233.807634
20
2474.979516
30
0
40
15
1
ALLOWANCE 10 PER SIDE  MAX SEGMENT 36 DEG  RULE NARROWEST
72
0
11
1233.807634
21
2474.979516
31
0
73
0
0
TEXT
8
TEXT
10
1233.807634
20
2452.979516
30
0
40
15
1
CUT CODES: J = JOINT FROM SQUARE  S = ARCH-START, AXIS TO HORIZONTAL  A = APEX FROM SQUARE
72
0
11
1233.807634
21
2452.979516
31
0
73
0
0
POLYLINE
8
FIT
66
1
70
1
10
0
20
0
30
0
0
VERTEX
8
FIT
10
1000
20
2825.479516
30
0
42
0.267949
0
VERTEX
8
FIT
10
500
20
3691.50492
30
0
42
0.267949
0
VERTEX
8
FIT
10
0
20
2825.479516
30
0
0
VERTEX
8
FIT
10
80
20
2825.479516
30
0
42
-0.254336
0
VERTEX
8
FIT
10
500
20
3597.748899
30
0
42
-0.254336
0
VERTEX
8
FIT
10
920
20
2825.479516
30
0
0
SEQEND
8
FIT
0
POLYLINE
8
FIT
66
1
70
1
10
0
20
0
30
0
0
VERTEX
8
FIT
10
911
20
2825.479516
30
0
42
0.25263
0
VERTEX
8
FIT
10
500
20
3587.004959
30
0
42
0.25263
0
VERTEX
8
FIT
10
89
20
2825.479516
30
0
0
VERTEX
8
FIT
10
146
20
2825.479516
30
0
42
-0.240832
0
VERTEX
8
FIT
10
500
20
3517.806029
30
0
42
-0.240832
0
VERTEX
8
FIT
10
854
20
2825.479516
30
0
0
SEQEND
8
FIT
0
POLYLINE
8
FIT
66
1
70
1
10
0
20
0
30
0
0
VERTEX
8
FIT
10
866.5
20
2825.479516
30
0
42
0.243579
0
VERTEX
8
FIT
10
500
20
3533.167477
30
0
42
0.243579
0
VERTEX
8
FIT
10
133.5
20
2825.479516
30
0
0
SEQEND
8
FIT
0
TEXT
8
TEXT
10
1100
20
3673.00492
30
0
40
15
1
SG - FIT (ASSEMBLY, NOT A TOOLPATH)
72
0
11
1100
21
3673.00492
31
0
73
0
0
TEXT
8
TEXT
10
1100
20
3651.00492
30
0
40
15
1
RUNNING GAP 9 (HEAD 80 FACE, SASH AT THE STILE LINE)
72
0
11
1100
21
3651.00492
31
0
73
0
0
TEXT
8
TEXT
10
1100
20
3629.00492
30
0
40
15
1
HEAD R1000/1000 / 920/920
72
0
11
1100
21
3629.00492
31
0
73
0
0
TEXT
8
TEXT
10
1100
20
3607.00492
30
0
40
15
1
TOP RAIL R911/911 / 854/854  GLASS R866.5/866.5
72
0
11
1100
21
3607.00492
31
0
73
0
0
ENDSEC
0
EOF
