0
SECTION
2
HEADER
9
$ACADVER
1
AC1009
0
ENDSEC
0
SECTION
2
TABLES
0
TABLE
2
LAYER
70
6
0
LAYER
2
0
70
0
62
7
6
CONTINUOUS
0
LAYER
2
CONTOUR
70
0
62
7
6
CONTINUOUS
0
LAYER
2
ASSEMBLY
70
0
62
8
6
CONTINUOUS
0
LAYER
2
PIECES
70
0
62
5
6
CONTINUOUS
0
LAYER
2
FINGER
70
0
62
1
6
CONTINUOUS
0
LAYER
2
TEXT
70
0
62
94
6
CONTINUOUS
0
ENDTAB
0
ENDSEC
0
SECTION
2
ENTITIES
0
POLYLINE
8
ASSEMBLY
66
1
70
1
10
0
20
0
30
0
0
VERTEX
8
ASSEMBLY
10
0
20
0
30
0
0
VERTEX
8
ASSEMBLY
10
263.853321
20
0
30
0
0
VERTEX
8
ASSEMBLY
10
263.853321
20
95
30
0
0
VERTEX
8
ASSEMBLY
10
0
20
95
30
0
0
SEQEND
8
ASSEMBLY
0
POLYLINE
8
PIECES
66
1
70
1
10
0
20
0
30
0
0
VERTEX
8
PIECES
10
251.001625
20
76.448767
30
0
42
0.071016
0
VERTEX
8
PIECES
10
16.413183
20
76.448767
30
0
0
VERTEX
8
PIECES
10
25.881512
20
10.121165
30
0
42
-0.043527
0
VERTEX
8
PIECES
10
158.274453
20
17.38287
30
0
0
SEQEND
8
PIECES
0
POLYLINE
8
FINGER
66
1
70
0
10
0
20
0
30
0
0
VERTEX
8
FINGER
10
25.881512
20
10.121165
30
0
0
VERTEX
8
FINGER
10
16.413183
20
76.448767
30
0
0
SEQEND
8
FINGER
0
POLYLINE
8
FINGER
66
1
70
0
10
0
20
0
30
0
0
VERTEX
8
FINGER
10
16
20
0
30
0
0
VERTEX
8
FINGER
10
16
20
95
30
0
0
SEQEND
8
FINGER
0
TEXT
8
TEXT
10
131.92666
20
57.5
30
0
40
15
1
W1 - LEAF TOP P1 L263.9 x95
72
1
11
131.92666
21
57.5
31
0
73
2
0
TEXT
8
TEXT
10
131.92666
20
10
30
0
40
10
1
OUT 248.9 IN 116.1 CUT J8.1/S32.5 FINGER ONE END
72
1
11
131.92666
21
10
31
0
73
2
0
POLYLINE
8
ASSEMBLY
66
1
70
1
10
0
20
0
30
0
0
VERTEX
8
ASSEMBLY
10
463.853321
20
0
30
0
0
VERTEX
8
ASSEMBLY
10
731.268129
20
0
30
0
0
VERTEX
8
ASSEMBLY
10
731.268129
20
95
30
0
0
VERTEX
8
ASSEMBLY
10
463.853321
20
95
30
0
0
SEQEND
8
ASSEMBLY
0
POLYLINE
8
PIECES
66
1
70
1
10
0
20
0
30
0
0
VERTEX
8
PIECES
10
714.854946
20
76.448767
30
0
42
0.071016
0
VERTEX
8
PIECES
10
480.266504
20
76.448767
30
0
0
VERTEX
8
PIECES
10
489.734833
20
10.121165
30
0
42
-0.071016
0
VERTEX
8
PIECES
10
705.386617
20
10.121165
30
0
0
SEQEND
8
PIECES
0
POLYLINE
8
FINGER
66
1
70
0
10
0
20
0
30
0
0
VERTEX
8
FINGER
10
705.386617
20
10.121165
30
0
0
VERTEX
8
FINGER
10
714.854946
20
76.448767
30
0
0
SEQEND
8
FINGER
0
POLYLINE
8
FINGER
66
1
70
0
10
0
20
0
30
0
0
VERTEX
8
FINGER
10
489.734833
20
10.121165
30
0
0
VERTEX
8
FINGER
10
480.266504
20
76.448767
30
0
0
SEQEND
8
FINGER
0
POLYLINE
8
FINGER
66
1
70
0
10
0
20
0
30
0
0
VERTEX
8
FINGER
10
479.853321
20
0
30
0
0
VERTEX
8
FINGER
10
479.853321
20
95
30
0
0
SEQEND
8
FINGER
0
POLYLINE
8
FINGER
66
1
70
0
10
0
20
0
30
0
0
VERTEX
8
FINGER
10
715.268129
20
0
30
0
0
VERTEX
8
FINGER
10
715.268129
20
95
30
0
0
SEQEND
8
FINGER
0
TEXT
8
TEXT
10
597.560725
20
57.5
30
0
40
15
1
W1 - LEAF TOP P2 L267.4 x95
72
1
11
597.560725
21
57.5
31
0
73
2
0
TEXT
8
TEXT
10
597.560725
20
10
30
0
40
10
1
OUT 237.4 IN 212.8 CUT J8.1/J8.1 FINGER BOTH ENDS
72
1
11
597.560725
21
10
31
0
73
2
0
POLYLINE
8
ASSEMBLY
66
1
70
1
10
0
20
0
30
0
0
VERTEX
8
ASSEMBLY
10
931.268129
20
0
30
0
0
VERTEX
8
ASSEMBLY
10
1198.682938
20
0
30
0
0
VERTEX
8
ASSEMBLY
10
1198.682938
20
95
30
0
0
VERTEX
8
ASSEMBLY
10
931.268129
20
95
30
0
0
SEQEND
8
ASSEMBLY
0
POLYLINE
8
PIECES
66
1
70
1
10
0
20
0
30
0
0
VERTEX
8
PIECES
10
1182.269755
20
76.448767
30
0
42
0.071016
0
VERTEX
8
PIECES
10
947.681313
20
76.448767
30
0
0
VERTEX
8
PIECES
10
957.149642
20
10.121165
30
0
42
-0.071016
0
VERTEX
8
PIECES
10
1172.801426
20
10.121165
30
0
0
SEQEND
8
PIECES
0
POLYLINE
8
FINGER
66
1
70
0
10
0
20
0
30
0
0
VERTEX
8
FINGER
10
1172.801426
20
10.121165
30
0
0
VERTEX
8
FINGER
10
1182.269755
20
76.448767
30
0
0
SEQEND
8
FINGER
0
POLYLINE
8
FINGER
66
1
70
0
10
0
20
0
30
0
0
VERTEX
8
FINGER
10
957.149642
20
10.121165
30
0
0
VERTEX
8
FINGER
10
947.681313
20
76.448767
30
0
0
SEQEND
8
FINGER
0
POLYLINE
8
FINGER
66
1
70
0
10
0
20
0
30
0
0
VERTEX
8
FINGER
10
947.268129
20
0
30
0
0
VERTEX
8
FINGER
10
947.268129
20
95
30
0
0
SEQEND
8
FINGER
0
POLYLINE
8
FINGER
66
1
70
0
10
0
20
0
30
0
0
VERTEX
8
FINGER
10
1182.682938
20
0
30
0
0
VERTEX
8
FINGER
10
1182.682938
20
95
30
0
0
SEQEND
8
FINGER
0
TEXT
8
TEXT
10
1064.975534
20
57.5
30
0
40
15
1
W1 - LEAF TOP P3 L267.4 x95
72
1
11
1064.975534
21
57.5
31
0
73
2
0
TEXT
8
TEXT
10
1064.975534
20
10
30
0
40
10
1
OUT 237.4 IN 212.8 CUT J8.1/J8.1 FINGER BOTH ENDS
72
1
11
1064.975534
21
10
31
0
73
2
0
POLYLINE
8
ASSEMBLY
66
1
70
1
10
0
20
0
30
0
0
VERTEX
8
ASSEMBLY
10
1398.682938
20
0
30
0
0
VERTEX
8
ASSEMBLY
10
1666.097747
20
0
30
0
0
VERTEX
8
ASSEMBLY
10
1666.097747
20
95
30
0
0
VERTEX
8
ASSEMBLY
10
1398.682938
20
95
30
0
0
SEQEND
8
ASSEMBLY
0
POLYLINE
8
PIECES
66
1
70
1
10
0
20
0
30
0
0
VERTEX
8
PIECES
10
1649.684563
20
76.448767
30
0
42
0.071016
0
VERTEX
8
PIECES
10
1415.096121
20
76.448767
30
0
0
VERTEX
8
PIECES
10
1424.56445
20
10.121165
30
0
42
-0.071016
0
VERTEX
8
PIECES
10
1640.216235
20
10.121165
30
0
0
SEQEND
8
PIECES
0
POLYLINE
8
FINGER
66
1
70
0
10
0
20
0
30
0
0
VERTEX
8
FINGER
10
1640.216235
20
10.121165
30
0
0
VERTEX
8
FINGER
10
1649.684563
20
76.448767
30
0
0
SEQEND
8
FINGER
0
POLYLINE
8
FINGER
66
1
70
0
10
0
20
0
30
0
0
VERTEX
8
FINGER
10
1424.56445
20
10.121165
30
0
0
VERTEX
8
FINGER
10
1415.096121
20
76.448767
30
0
0
SEQEND
8
FINGER
0
POLYLINE
8
FINGER
66
1
70
0
10
0
20
0
30
0
0
VERTEX
8
FINGER
10
1414.682938
20
0
30
0
0
VERTEX
8
FINGER
10
1414.682938
20
95
30
0
0
SEQEND
8
FINGER
0
POLYLINE
8
FINGER
66
1
70
0
10
0
20
0
30
0
0
VERTEX
8
FINGER
10
1650.097747
20
0
30
0
0
VERTEX
8
FINGER
10
1650.097747
20
95
30
0
0
SEQEND
8
FINGER
0
TEXT
8
TEXT
10
1532.390342
20
57.5
30
0
40
15
1
W1 - LEAF TOP P4 L267.4 x95
72
1
11
1532.390342
21
57.5
31
0
73
2
0
TEXT
8
TEXT
10
1532.390342
20
10
30
0
40
10
1
OUT 237.4 IN 212.8 CUT J8.1/J8.1 FINGER BOTH ENDS
72
1
11
1532.390342
21
10
31
0
73
2
0
POLYLINE
8
ASSEMBLY
66
1
70
1
10
0
20
0
30
0
0
VERTEX
8
ASSEMBLY
10
1866.097747
20
0
30
0
0
VERTEX
8
ASSEMBLY
10
2129.951068
20
0
30
0
0
VERTEX
8
ASSEMBLY
10
2129.951068
20
95
30
0
0
VERTEX
8
ASSEMBLY
10
1866.097747
20
95
30
0
0
SEQEND
8
ASSEMBLY
0
POLYLINE
8
PIECES
66
1
70
1
10
0
20
0
30
0
0
VERTEX
8
PIECES
10
2113.537884
20
76.448767
30
0
42
0.071016
0
VERTEX
8
PIECES
10
1878.949442
20
76.448767
30
0
0
VERTEX
8
PIECES
10
1971.676615
20
17.38287
30
0
42
-0.043527
0
VERTEX
8
PIECES
10
2104.069556
20
10.121165
30
0
0
SEQEND
8
PIECES
0
POLYLINE
8
FINGER
66
1
70
0
10
0
20
0
30
0
0
VERTEX
8
FINGER
10
2104.069556
20
10.121165
30
0
0
VERTEX
8
FINGER
10
2113.537884
20
76.448767
30
0
0
SEQEND
8
FINGER
0
POLYLINE
8
FINGER
66
1
70
0
10
0
20
0
30
0
0
VERTEX
8
FINGER
10
2113.951068
20
0
30
0
0
VERTEX
8
FINGER
10
2113.951068
20
95
30
0
0
SEQEND
8
FINGER
0
TEXT
8
TEXT
10
1998.024407
20
57.5
30
0
40
15
1
W1 - LEAF TOP P5 L263.9 x95
72
1
11
1998.024407
21
57.5
31
0
73
2
0
TEXT
8
TEXT
10
1998.024407
20
10
30
0
40
10
1
OUT 248.9 IN 116.1 CUT S32.5/J8.1 FINGER ONE END
72
1
11
1998.024407
21
10
31
0
73
2
0
POLYLINE
8
CONTOUR
66
1
70
1
10
0
20
0
30
0
0
VERTEX
8
CONTOUR
10
1101.546542
20
366.383262
30
0
42
0.370117
0
VERTEX
8
CONTOUR
10
20.806056
20
366.383262
30
0
0
VERTEX
8
CONTOUR
10
130.747443
20
366.383262
30
0
42
-0.308994
0
VERTEX
8
CONTOUR
10
991.605155
20
366.383262
30
0
0
SEQEND
8
CONTOUR
0
POLYLINE
8
ASSEMBLY
66
1
70
1
10
0
20
0
30
0
0
VERTEX
8
ASSEMBLY
10
1071.313946
20
295
30
0
0
VERTEX
8
ASSEMBLY
10
861.425156
20
428.69619
30
0
0
VERTEX
8
ASSEMBLY
10
912.463808
20
508.821442
30
0
0
VERTEX
8
ASSEMBLY
10
1122.352598
20
375.125252
30
0
0
SEQEND
8
ASSEMBLY
0
POLYLINE
8
FINGER
66
1
70
0
10
0
20
0
30
0
0
VERTEX
8
FINGER
10
876.040467
20
431.38654
30
0
0
VERTEX
8
FINGER
10
903.68909
20
492.415661
30
0
0
SEQEND
8
FINGER
0
POLYLINE
8
ASSEMBLY
66
1
70
1
10
0
20
0
30
0
0
VERTEX
8
ASSEMBLY
10
883.655449
20
418.624982
30
0
0
VERTEX
8
ASSEMBLY
10
655.723402
20
485.053692
30
0
0
VERTEX
8
ASSEMBLY
10
682.30442
20
576.259226
30
0
0
VERTEX
8
ASSEMBLY
10
910.236467
20
509.830517
30
0
0
SEQEND
8
ASSEMBLY
0
POLYLINE
8
FINGER
66
1
70
0
10
0
20
0
30
0
0
VERTEX
8
FINGER
10
669.002191
20
491.725951
30
0
0
VERTEX
8
FINGER
10
678.47052
20
558.053553
30
0
0
SEQEND
8
FINGER
0
POLYLINE
8
ASSEMBLY
66
1
70
1
10
0
20
0
30
0
0
VERTEX
8
ASSEMBLY
10
679.883703
20
481.604786
30
0
0
VERTEX
8
ASSEMBLY
10
442.468895
20
481.604786
30
0
0
VERTEX
8
ASSEMBLY
10
442.468895
20
576.604786
30
0
0
VERTEX
8
ASSEMBLY
10
679.883703
20
576.604786
30
0
0
SEQEND
8
ASSEMBLY
0
POLYLINE
8
FINGER
66
1
70
0
10
0
20
0
30
0
0
VERTEX
8
FINGER
10
453.350407
20
491.725951
30
0
0
VERTEX
8
FINGER
10
443.882078
20
558.053553
30
0
0
SEQEND
8
FINGER
0
POLYLINE
8
ASSEMBLY
66
1
70
1
10
0
20
0
30
0
0
VERTEX
8
ASSEMBLY
10
466.629196
20
485.053692
30
0
0
VERTEX
8
ASSEMBLY
10
238.697149
20
418.624982
30
0
0
VERTEX
8
ASSEMBLY
10
212.116131
20
509.830517
30
0
0
VERTEX
8
ASSEMBLY
10
440.048178
20
576.259226
30
0
0
SEQEND
8
ASSEMBLY
0
POLYLINE
8
FINGER
66
1
70
0
10
0
20
0
30
0
0
VERTEX
8
FINGER
10
246.312131
20
431.38654
30
0
0
VERTEX
8
FINGER
10
218.663508
20
492.415661
30
0
0
SEQEND
8
FINGER
0
POLYLINE
8
ASSEMBLY
66
1
70
1
10
0
20
0
30
0
0
VERTEX
8
ASSEMBLY
10
260.927442
20
428.69619
30
0
0
VERTEX
8
ASSEMBLY
10
51.038652
20
295
30
0
0
VERTEX
8
ASSEMBLY
10
0
20
375.125252
30
0
0
VERTEX
8
ASSEMBLY
10
209.88879
20
508.821442
30
0
0
SEQEND
8
ASSEMBLY
0
TEXT
8
TEXT
10
1222.352598
20
558.104786
30
0
40
15
1
W1 - LEAF TOP
72
0
11
1222.352598
21
558.104786
31
0
73
0
0
TEXT
8
TEXT
10
1222.352598
20
536.104786
30
0
40
15
1
SEGMENTAL W1200 RISE240 H2000 HINGE L
72
0
11
1222.352598
21
536.104786
31
0
73
0
0
TEXT
8
TEXT
10
1222.352598
20
514.104786
30
0
40
15
1
FACE 67 OFFSET 40 OUTER L1176.9 INNER L914.6
72
0
11
1222.352598
21
514.104786
31
0
73
0
0
TEXT
8
TEXT
10
1222.352598
20
492.104786
30
0
40
15
1
ARC 1 R830 L1176.9 81.2DEG: 5 x board 95 L248.9 ROUGH 267.4 (ALT 3 x board 180)
72
0
11
1222.352598
21
492.104786
31
0
73
0
0
TEXT
8
TEXT
10
1222.352598
20
470.104786
30
0
40
15
1
FINGER 15/16/3.8
72
0
11
1222.352598
21
470.104786
31
0
73
0
0
TEXT
8
TEXT
10
1222.352598
20
448.104786
30
0
40
15
1
ALLOWANCE 10 PER SIDE  MAX SEGMENT 36 DEG  RULE NARROWEST
72
0
11
1222.352598
21
448.104786
31
0
73
0
0
TEXT
8
TEXT
10
1222.352598
20
426.104786
30
0
40
15
1
CUT CODES: J = JOINT FROM SQUARE  S = ARCH-START, AXIS TO HORIZONTAL  A = APEX FROM SQUARE
72
0
11
1222.352598
21
426.104786
31
0
73
0
0
POLYLINE
8
ASSEMBLY
66
1
70
1
10
0
20
0
30
0
0
VERTEX
8
ASSEMBLY
10
0
20
776.604786
30
0
0
VERTEX
8
ASSEMBLY
10
358.064286
20
776.604786
30
0
0
VERTEX
8
ASSEMBLY
10
358.064286
20
871.604786
30
0
0
VERTEX
8
ASSEMBLY
10
0
20
871.604786
30
0
0
SEQEND
8
ASSEMBLY
0
POLYLINE
8
PIECES
66
1
70
1
10
0
20
0
30
0
0
VERTEX
8
PIECES
10
345.938162
20
844.151353
30
0
42
0.095415
0
VERTEX
8
PIECES
10
16.891075
20
844.151353
30
0
0
VERTEX
8
PIECES
10
27.670204
20
788.179839
30
0
42
-0.076076
0
VERTEX
8
PIECES
10
273.465978
20
797.621261
30
0
0
SEQEND
8
PIECES
0
POLYLINE
8
FINGER
66
1
70
0
10
0
20
0
30
0
0
VERTEX
8
FINGER
10
27.670204
20
788.179839
30
0
0
VERTEX
8
FINGER
10
16.891075
20
844.151353
30
0
0
SEQEND
8
FINGER
0
POLYLINE
8
FINGER
66
1
70
0
10
0
20
0
30
0
0
VERTEX
8
FINGER
10
16
20
776.604786
30
0
0
VERTEX
8
FINGER
10
16
20
871.604786
30
0
0
SEQEND
8
FINGER
0
TEXT
8
TEXT
10
179.032143
20
834.104786
30
0
40
15
1
W1 - FRAME HEAD P1 L358.1 x95
72
1
11
179.032143
21
834.104786
31
0
73
2
0
TEXT
8
TEXT
10
179.032143
20
786.604786
30
0
40
10
1
OUT 343.1 IN 230.7 CUT J10.9/S32.7 FINGER ONE END
72
1
11
179.032143
21
786.604786
31
0
73
2
0
POLYLINE
8
ASSEMBLY
66
1
70
1
10
0
20
0
30
0
0
VERTEX
8
ASSEMBLY
10
558.064286
20
776.604786
30
0
0
VERTEX
8
ASSEMBLY
10
920.893523
20
776.604786
30
0
0
VERTEX
8
ASSEMBLY
10
920.893523
20
871.604786
30
0
0
VERTEX
8
ASSEMBLY
10
558.064286
20
871.604786
30
0
0
SEQEND
8
ASSEMBLY
0
POLYLINE
8
PIECES
66
1
70
1
10
0
20
0
30
0
0
VERTEX
8
PIECES
10
904.002448
20
844.151353
30
0
42
0.095415
0
VERTEX
8
PIECES
10
574.955361
20
844.151353
30
0
0
VERTEX
8
PIECES
10
585.73449
20
788.179839
30
0
42
-0.095415
0
VERTEX
8
PIECES
10
893.223319
20
788.179839
30
0
0
SEQEND
8
PIECES
0
POLYLINE
8
FINGER
66
1
70
0
10
0
20
0
30
0
0
VERTEX
8
FINGER
10
893.223319
20
788.179839
30
0
0
VERTEX
8
FINGER
10
904.002448
20
844.151353
30
0
0
SEQEND
8
FINGER
0
POLYLINE
8
FINGER
66
1
70
0
10
0
20
0
30
0
0
VERTEX
8
FINGER
10
585.73449
20
788.179839
30
0
0
VERTEX
8
FINGER
10
574.955361
20
844.151353
30
0
0
SEQEND
8
FINGER
0
POLYLINE
8
FINGER
66
1
70
0
10
0
20
0
30
0
0
VERTEX
8
FINGER
10
574.064286
20
776.604786
30
0
0
VERTEX
8
FINGER
10
574.064286
20
871.604786
30
0
0
SEQEND
8
FINGER
0
POLYLINE
8
FINGER
66
1
70
0
10
0
20
0
30
0
0
VERTEX
8
FINGER
10
904.893523
20
776.604786
30
0
0
VERTEX
8
FINGER
10
904.893523
20
871.604786
30
0
0
SEQEND
8
FINGER
0
TEXT
8
TEXT
10
739.478905
20
834.104786
30
0
40
15
1
W1 - FRAME HEAD P2 L362.8 x95
72
1
11
739.478905
21
834.104786
31
0
73
2
0
TEXT
8
TEXT
10
739.478905
20
786.604786
30
0
40
10
1
OUT 332.8 IN 303.7 CUT J10.9/J10.9 FINGER BOTH ENDS
72
1
11
739.478905
21
786.604786
31
0
73
2
0
POLYLINE
8
ASSEMBLY
66
1
70
1
10
0
20
0
30
0
0
VERTEX
8
ASSEMBLY
10
1120.893523
20
776.604786
30
0
0
VERTEX
8
ASSEMBLY
10
1483.722761
20
776.604786
30
0
0
VERTEX
8
ASSEMBLY
10
1483.722761
20
871.604786
30
0
0
VERTEX
8
ASSEMBLY
10
1120.893523
20
871.604786
30
0
0
SEQEND
8
ASSEMBLY
0
POLYLINE
8
PIECES
66
1
70
1
10
0
20
0
30
0
0
VERTEX
8
PIECES
10
1466.831685
20
844.151353
30
0
42
0.095415
0
VERTEX
8
PIECES
10
1137.784599
20
844.151353
30
0
0
VERTEX
8
PIECES
10
1148.563727
20
788.179839
30
0
42
-0.095415
0
VERTEX
8
PIECES
10
1456.052557
20
788.179839
30
0
0
SEQEND
8
PIECES
0
POLYLINE
8
FINGER
66
1
70
0
10
0
20
0
30
0
0
VERTEX
8
FINGER
10
1456.052557
20
788.179839
30
0
0
VERTEX
8
FINGER
10
1466.831685
20
844.151353
30
0
0
SEQEND
8
FINGER
0
POLYLINE
8
FINGER
66
1
70
0
10
0
20
0
30
0
0
VERTEX
8
FINGER
10
1148.563727
20
788.179839
30
0
0
VERTEX
8
FINGER
10
1137.784599
20
844.151353
30
0
0
SEQEND
8
FINGER
0
POLYLINE
8
FINGER
66
1
70
0
10
0
20
0
30
0
0
VERTEX
8
FINGER
10
1136.893523
20
776.604786
30
0
0
VERTEX
8
FINGER
10
1136.893523
20
871.604786
30
0
0
SEQEND
8
FINGER
0
POLYLINE
8
FINGER
66
1
70
0
10
0
20
0
30
0
0
VERTEX
8
FINGER
10
1467.722761
20
776.604786
30
0
0
VERTEX
8
FINGER
10
1467.722761
20
871.604786
30
0
0
SEQEND
8
FINGER
0
TEXT
8
TEXT
10
1302.308142
20
834.104786
30
0
40
15
1
W1 - FRAME HEAD P3 L362.8 x95
72
1
11
1302.308142
21
834.104786
31
0
73
2
0
TEXT
8
TEXT
10
1302.308142
20
786.604786
30
0
40
10
1
OUT 332.8 IN 303.7 CUT J10.9/J10.9 FINGER BOTH ENDS
72
1
11
1302.308142
21
786.604786
31
0
73
2
0
POLYLINE
8
ASSEMBLY
66
1
70
1
10
0
20
0
30
0
0
VERTEX
8
ASSEMBLY
10
1683.722761
20
776.604786
30
0
0
VERTEX
8
ASSEMBLY
10
2041.787047
20
776.604786
30
0
0
VERTEX
8
ASSEMBLY
10
2041.787047
20
871.604786
30
0
0
VERTEX
8
ASSEMBLY
10
1683.722761
20
871.604786
30
0
0
SEQEND
8
ASSEMBLY
0
POLYLINE
8
PIECES
66
1
70
1
10
0
20
0
30
0
0
VERTEX
8
PIECES
10
2024.895971
20
844.151353
30
0
42
0.095415
0
VERTEX
8
PIECES
10
1695.848885
20
844.151353
30
0
0
VERTEX
8
PIECES
10
1768.321068
20
797.621261
30
0
42
-0.076076
0
VERTEX
8
PIECES
10
2014.116843
20
788.179839
30
0
0
SEQEND
8
PIECES
0
POLYLINE
8
FINGER
66
1
70
0
10
0
20
0
30
0
0
VERTEX
8
FINGER
10
2014.116843
20
788.179839
30
0
0
VERTEX
8
FINGER
10
2024.895971
20
844.151353
30
0
0
SEQEND
8
FINGER
0
POLYLINE
8
FINGER
66
1
70
0
10
0
20
0
30
0
0
VERTEX
8
FINGER
10
2025.787047
20
776.604786
30
0
0
VERTEX
8
FINGER
10
2025.787047
20
871.604786
30
0
0
SEQEND
8
FINGER
0
TEXT
8
TEXT
10
1862.754904
20
834.104786
30
0
40
15
1
W1 - FRAME HEAD P4 L358.1 x95
72
1
11
1862.754904
21
834.104786
31
0
73
2
0
TEXT
8
TEXT
10
1862.754904
20
786.604786
30
0
40
10
1
OUT 343.1 IN 230.7 CUT S32.7/J10.9 FINGER ONE END
72
1
11
1862.754904
21
786.604786
31
0
73
2
0
POLYLINE
8
CONTOUR
66
1
70
1
10
0
20
0
30
0
0
VERTEX
8
CONTOUR
10
1225.036326
20
1134.996001
30
0
42
0.4
0
VERTEX
8
CONTOUR
10
25.036326
20
1134.996001
30
0
0
VERTEX
8
CONTOUR
10
111.159882
20
1134.996001
30
0
42
-0.356117
0
VERTEX
8
CONTOUR
10
1138.912771
20
1134.996001
30
0
0
SEQEND
8
CONTOUR
0
POLYLINE
8
ASSEMBLY
66
1
70
1
10
0
20
0
30
0
0
VERTEX
8
ASSEMBLY
10
1198.746872
20
1071.604786
30
0
0
VERTEX
8
ASSEMBLY
10
910.061416
20
1256.952598
30
0
0
VERTEX
8
ASSEMBLY
10
961.387196
20
1336.894229
30
0
0
VERTEX
8
ASSEMBLY
10
1250.072652
20
1151.546416
30
0
0
SEQEND
8
ASSEMBLY
0
POLYLINE
8
FINGER
66
1
70
0
10
0
20
0
30
0
0
VERTEX
8
FINGER
10
926.976946
20
1259.847551
30
0
0
VERTEX
8
FINGER
10
948.146215
20
1312.770722
30
0
0
SEQEND
8
FINGER
0
POLYLINE
8
ASSEMBLY
66
1
70
1
10
0
20
0
30
0
0
VERTEX
8
ASSEMBLY
10
937.229604
20
1246.085323
30
0
0
VERTEX
8
ASSEMBLY
10
610.405809
20
1309.025835
30
0
0
VERTEX
8
ASSEMBLY
10
628.371023
20
1402.311692
30
0
0
VERTEX
8
ASSEMBLY
10
955.194819
20
1339.371179
30
0
0
SEQEND
8
ASSEMBLY
0
POLYLINE
8
FINGER
66
1
70
0
10
0
20
0
30
0
0
VERTEX
8
FINGER
10
625.036326
20
1317.996001
30
0
0
VERTEX
8
FINGER
10
625.036326
20
1374.996001
30
0
0
SEQEND
8
FINGER
0
POLYLINE
8
ASSEMBLY
66
1
70
1
10
0
20
0
30
0
0
VERTEX
8
ASSEMBLY
10
639.666843
20
1309.025835
30
0
0
VERTEX
8
ASSEMBLY
10
312.843048
20
1246.085323
30
0
0
VERTEX
8
ASSEMBLY
10
294.877834
20
1339.371179
30
0
0
VERTEX
8
ASSEMBLY
10
621.701629
20
1402.311692
30
0
0
SEQEND
8
ASSEMBLY
0
POLYLINE
8
FINGER
66
1
70
0
10
0
20
0
30
0
0
VERTEX
8
FINGER
10
323.095706
20
1259.847551
30
0
0
VERTEX
8
FINGER
10
301.926438
20
1312.770722
30
0
0
SEQEND
8
FINGER
0
POLYLINE
8
ASSEMBLY
66
1
70
1
10
0
20
0
30
0
0
VERTEX
8
ASSEMBLY
10
340.011237
20
1256.952598
30
0
0
VERTEX
8
ASSEMBLY
10
51.32578
20
1071.604786
30
0
0
VERTEX
8
ASSEMBLY
10
0
20
1151.546416
30
0
0
VERTEX
8
ASSEMBLY
10
288.685456
20
1336.894229
30
0
0
SEQEND
8
ASSEMBLY
0
TEXT
8
TEXT
10
1350.072652
20
1383.811692
30
0
40
15
1
W1 - FRAME HEAD
72
0
11
1350.072652
21
1383.811692
31
0
73
0
0
TEXT
8
TEXT
10
1350.072652
20
1361.811692
30
0
40
15
1
SEGMENTAL W1200 RISE240 H2000 HINGE L
72
0
11
1350.072652
21
1361.811692
31
0
73
0
0
TEXT
8
TEXT
10
1350.072652
20
1339.811692
30
0
40
15
1
FACE 57 OFFSET 0 OUTER L1324.2 INNER L1112.6
72
0
11
1350.072652
21
1339.811692
31
0
73
0
0
TEXT
8
TEXT
10
1350.072652
20
1317.811692
30
0
40
15
1
ARC 1 R870 L1324.2 87.2DEG: 4 x board 95 L343.1 ROUGH 362.8 (ALT 3 x board 105)
72
0
11
1350.072652
21
1317.811692
31
0
73
0
0
TEXT
8
TEXT
10
1350.072652
20
1295.811692
30
0
40
15
1
FINGER 15/16/3.8
72
0
11
1350.072652
21
1295.811692
31
0
73
0
0
TEXT
8
TEXT
10
1350.072652
20
1273.811692
30
0
40
15
1
ALLOWANCE 10 PER SIDE  MAX SEGMENT 36 DEG  RULE NARROWEST
72
0
11
1350.072652
21
1273.811692
31
0
73
0
0
TEXT
8
TEXT
10
1350.072652
20
1251.811692
30
0
40
15
1
CUT CODES: J = JOINT FROM SQUARE  S = ARCH-START, AXIS TO HORIZONTAL  A = APEX FROM SQUARE
72
0
11
1350.072652
21
1251.811692
31
0
73
0
0
ENDSEC
0
EOF
