0
SECTION
2
HEADER
9
$ACADVER
1
AC1009
0
ENDSEC
0
SECTION
2
TABLES
0
TABLE
2
LAYER
70
9
0
LAYER
2
0
70
0
62
7
6
CONTINUOUS
0
LAYER
2
ARKA_OUTLINE
70
0
62
7
6
CONTINUOUS
0
LAYER
2
ARKA_PANE
70
0
62
3
6
CONTINUOUS
0
LAYER
2
ARKA_FRONT_HINGES_3MM
70
0
62
50
6
CONTINUOUS
0
LAYER
2
ARKA_MITRE
70
0
62
1
6
CONTINUOUS
0
LAYER
2
ARKA_SECTION
70
0
62
5
6
CONTINUOUS
0
LAYER
2
ARKA_PANE_ZEWN_REF
70
0
62
3
6
CONTINUOUS
0
LAYER
2
ARKA_CENTRE
70
0
62
6
6
CONTINUOUS
0
LAYER
2
ARKA_INFO_NO_CUT
70
0
62
8
6
CONTINUOUS
0
ENDTAB
0
ENDSEC
0
SECTION
2
ENTITIES
0
POLYLINE
8
ARKA_OUTLINE
66
1
70
1
10
0
20
0
30
0
0
VERTEX
8
ARKA_OUTLINE
10
-5.5
20
-5.5
30
0
0
VERTEX
8
ARKA_OUTLINE
10
794.5
20
-5.5
30
0
0
VERTEX
8
ARKA_OUTLINE
10
794.5
20
898.5
30
0
42
1
0
VERTEX
8
ARKA_OUTLINE
10
-5.5
20
898.5
30
0
0
SEQEND
8
ARKA_OUTLINE
0
POLYLINE
8
ARKA_PANE_ZEWN_REF
66
1
70
1
10
0
20
0
30
0
0
VERTEX
8
ARKA_PANE_ZEWN_REF
10
-3.5
20
-3.5
30
0
0
VERTEX
8
ARKA_PANE_ZEWN_REF
10
792.5
20
-3.5
30
0
0
VERTEX
8
ARKA_PANE_ZEWN_REF
10
792.5
20
898.5
30
0
42
1
0
VERTEX
8
ARKA_PANE_ZEWN_REF
10
-3.5
20
898.5
30
0
0
SEQEND
8
ARKA_PANE_ZEWN_REF
0
POLYLINE
8
ARKA_OUTLINE
66
1
70
1
10
0
20
0
30
0
0
VERTEX
8
ARKA_OUTLINE
10
12.5
20
12.5
30
0
0
VERTEX
8
ARKA_OUTLINE
10
120.5
20
12.5
30
0
0
VERTEX
8
ARKA_OUTLINE
10
120.5
20
887.5
30
0
0
VERTEX
8
ARKA_OUTLINE
10
12.5
20
887.5
30
0
0
SEQEND
8
ARKA_OUTLINE
0
POLYLINE
8
ARKA_PANE
66
1
70
1
10
0
20
0
30
0
0
VERTEX
8
ARKA_PANE
10
10.5
20
10.5
30
0
0
VERTEX
8
ARKA_PANE
10
122.5
20
10.5
30
0
0
VERTEX
8
ARKA_PANE
10
122.5
20
889.5
30
0
0
VERTEX
8
ARKA_PANE
10
10.5
20
889.5
30
0
0
SEQEND
8
ARKA_PANE
0
POLYLINE
8
ARKA_FRONT_HINGES_3MM
66
1
70
1
10
0
20
0
30
0
0
VERTEX
8
ARKA_FRONT_HINGES_3MM
10
2.5
20
2.5
30
0
0
VERTEX
8
ARKA_FRONT_HINGES_3MM
10
130.5
20
2.5
30
0
0
VERTEX
8
ARKA_FRONT_HINGES_3MM
10
130.5
20
897.5
30
0
0
VERTEX
8
ARKA_FRONT_HINGES_3MM
10
2.5
20
897.5
30
0
0
SEQEND
8
ARKA_FRONT_HINGES_3MM
0
POLYLINE
8
ARKA_OUTLINE
66
1
70
1
10
0
20
0
30
0
0
VERTEX
8
ARKA_OUTLINE
10
142.5
20
12.5
30
0
0
VERTEX
8
ARKA_OUTLINE
10
252
20
12.5
30
0
0
VERTEX
8
ARKA_OUTLINE
10
252
20
887.5
30
0
0
VERTEX
8
ARKA_OUTLINE
10
142.5
20
887.5
30
0
0
SEQEND
8
ARKA_OUTLINE
0
POLYLINE
8
ARKA_PANE
66
1
70
1
10
0
20
0
30
0
0
VERTEX
8
ARKA_PANE
10
140.5
20
10.5
30
0
0
VERTEX
8
ARKA_PANE
10
254
20
10.5
30
0
0
VERTEX
8
ARKA_PANE
10
254
20
889.5
30
0
0
VERTEX
8
ARKA_PANE
10
140.5
20
889.5
30
0
0
SEQEND
8
ARKA_PANE
0
POLYLINE
8
ARKA_FRONT_HINGES_3MM
66
1
70
1
10
0
20
0
30
0
0
VERTEX
8
ARKA_FRONT_HINGES_3MM
10
132.5
20
2.5
30
0
0
VERTEX
8
ARKA_FRONT_HINGES_3MM
10
262
20
2.5
30
0
0
VERTEX
8
ARKA_FRONT_HINGES_3MM
10
262
20
897.5
30
0
0
VERTEX
8
ARKA_FRONT_HINGES_3MM
10
132.5
20
897.5
30
0
0
SEQEND
8
ARKA_FRONT_HINGES_3MM
0
POLYLINE
8
ARKA_OUTLINE
66
1
70
1
10
0
20
0
30
0
0
VERTEX
8
ARKA_OUTLINE
10
274
20
12.5
30
0
0
VERTEX
8
ARKA_OUTLINE
10
515
20
12.5
30
0
0
VERTEX
8
ARKA_OUTLINE
10
515
20
898.5
30
0
42
1
0
VERTEX
8
ARKA_OUTLINE
10
274
20
898.5
30
0
0
SEQEND
8
ARKA_OUTLINE
0
POLYLINE
8
ARKA_PANE
66
1
70
1
10
0
20
0
30
0
0
VERTEX
8
ARKA_PANE
10
272
20
10.5
30
0
0
VERTEX
8
ARKA_PANE
10
517
20
10.5
30
0
0
VERTEX
8
ARKA_PANE
10
517
20
898.5
30
0
42
1
0
VERTEX
8
ARKA_PANE
10
272
20
898.5
30
0
0
SEQEND
8
ARKA_PANE
0
POLYLINE
8
ARKA_FRONT_HINGES_3MM
66
1
70
1
10
0
20
0
30
0
0
VERTEX
8
ARKA_FRONT_HINGES_3MM
10
264
20
2.5
30
0
0
VERTEX
8
ARKA_FRONT_HINGES_3MM
10
525
20
2.5
30
0
0
VERTEX
8
ARKA_FRONT_HINGES_3MM
10
525
20
898.5
30
0
42
1
0
VERTEX
8
ARKA_FRONT_HINGES_3MM
10
264
20
898.5
30
0
0
SEQEND
8
ARKA_FRONT_HINGES_3MM
0
POLYLINE
8
ARKA_OUTLINE
66
1
70
1
10
0
20
0
30
0
0
VERTEX
8
ARKA_OUTLINE
10
537
20
12.5
30
0
0
VERTEX
8
ARKA_OUTLINE
10
646.5
20
12.5
30
0
0
VERTEX
8
ARKA_OUTLINE
10
646.5
20
887.5
30
0
0
VERTEX
8
ARKA_OUTLINE
10
537
20
887.5
30
0
0
SEQEND
8
ARKA_OUTLINE
0
POLYLINE
8
ARKA_PANE
66
1
70
1
10
0
20
0
30
0
0
VERTEX
8
ARKA_PANE
10
535
20
10.5
30
0
0
VERTEX
8
ARKA_PANE
10
648.5
20
10.5
30
0
0
VERTEX
8
ARKA_PANE
10
648.5
20
889.5
30
0
0
VERTEX
8
ARKA_PANE
10
535
20
889.5
30
0
0
SEQEND
8
ARKA_PANE
0
POLYLINE
8
ARKA_FRONT_HINGES_3MM
66
1
70
1
10
0
20
0
30
0
0
VERTEX
8
ARKA_FRONT_HINGES_3MM
10
527
20
2.5
30
0
0
VERTEX
8
ARKA_FRONT_HINGES_3MM
10
656.5
20
2.5
30
0
0
VERTEX
8
ARKA_FRONT_HINGES_3MM
10
656.5
20
897.5
30
0
0
VERTEX
8
ARKA_FRONT_HINGES_3MM
10
527
20
897.5
30
0
0
SEQEND
8
ARKA_FRONT_HINGES_3MM
0
POLYLINE
8
ARKA_OUTLINE
66
1
70
1
10
0
20
0
30
0
0
VERTEX
8
ARKA_OUTLINE
10
668.5
20
12.5
30
0
0
VERTEX
8
ARKA_OUTLINE
10
776.5
20
12.5
30
0
0
VERTEX
8
ARKA_OUTLINE
10
776.5
20
887.5
30
0
0
VERTEX
8
ARKA_OUTLINE
10
668.5
20
887.5
30
0
0
SEQEND
8
ARKA_OUTLINE
0
POLYLINE
8
ARKA_PANE
66
1
70
1
10
0
20
0
30
0
0
VERTEX
8
ARKA_PANE
10
666.5
20
10.5
30
0
0
VERTEX
8
ARKA_PANE
10
778.5
20
10.5
30
0
0
VERTEX
8
ARKA_PANE
10
778.5
20
889.5
30
0
0
VERTEX
8
ARKA_PANE
10
666.5
20
889.5
30
0
0
SEQEND
8
ARKA_PANE
0
POLYLINE
8
ARKA_FRONT_HINGES_3MM
66
1
70
1
10
0
20
0
30
0
0
VERTEX
8
ARKA_FRONT_HINGES_3MM
10
658.5
20
2.5
30
0
0
VERTEX
8
ARKA_FRONT_HINGES_3MM
10
786.5
20
2.5
30
0
0
VERTEX
8
ARKA_FRONT_HINGES_3MM
10
786.5
20
897.5
30
0
0
VERTEX
8
ARKA_FRONT_HINGES_3MM
10
658.5
20
897.5
30
0
0
SEQEND
8
ARKA_FRONT_HINGES_3MM
0
POLYLINE
8
ARKA_OUTLINE
66
1
70
1
10
0
20
0
30
0
0
VERTEX
8
ARKA_OUTLINE
10
776.34159
20
909.5
30
0
42
0.183984
0
VERTEX
8
ARKA_OUTLINE
10
672.280952
20
1160.724603
30
0
0
VERTEX
8
ARKA_OUTLINE
10
595.869238
20
1084.312889
30
0
42
-0.17812
0
VERTEX
8
ARKA_OUTLINE
10
668.279108
20
909.5
30
0
0
SEQEND
8
ARKA_OUTLINE
0
POLYLINE
8
ARKA_PANE
66
1
70
1
10
0
20
0
30
0
0
VERTEX
8
ARKA_PANE
10
778.394517
20
907.5
30
0
42
0.186757
0
VERTEX
8
ARKA_PANE
10
672.318377
20
1163.590455
30
0
0
VERTEX
8
ARKA_PANE
10
593.091691
20
1084.363768
30
0
42
-0.181765
0
VERTEX
8
ARKA_PANE
10
666.351062
20
907.5
30
0
0
SEQEND
8
ARKA_PANE
0
POLYLINE
8
ARKA_FRONT_HINGES_3MM
66
1
70
1
10
0
20
0
30
0
0
VERTEX
8
ARKA_FRONT_HINGES_3MM
10
786.498724
20
899.5
30
0
42
0.197587
0
VERTEX
8
ARKA_FRONT_HINGES_3MM
10
672.392063
20
1174.97785
30
0
0
VERTEX
8
ARKA_FRONT_HINGES_3MM
10
581.881958
20
1084.467744
30
0
42
-0.196944
0
VERTEX
8
ARKA_FRONT_HINGES_3MM
10
658.498106
20
899.5
30
0
0
SEQEND
8
ARKA_FRONT_HINGES_3MM
0
POLYLINE
8
ARKA_OUTLINE
66
1
70
1
10
0
20
0
30
0
0
VERTEX
8
ARKA_OUTLINE
10
656.724603
20
1176.280952
30
0
42
0.183984
0
VERTEX
8
ARKA_OUTLINE
10
405.5
20
1280.34159
30
0
0
VERTEX
8
ARKA_OUTLINE
10
405.5
20
1172.279108
30
0
42
-0.17812
0
VERTEX
8
ARKA_OUTLINE
10
580.312889
20
1099.869238
30
0
0
SEQEND
8
ARKA_OUTLINE
0
POLYLINE
8
ARKA_PANE
66
1
70
1
10
0
20
0
30
0
0
VERTEX
8
ARKA_PANE
10
659.590455
20
1176.318377
30
0
42
0.186757
0
VERTEX
8
ARKA_PANE
10
403.5
20
1282.394517
30
0
0
VERTEX
8
ARKA_PANE
10
403.5
20
1170.351062
30
0
42
-0.181765
0
VERTEX
8
ARKA_PANE
10
580.363768
20
1097.091691
30
0
0
SEQEND
8
ARKA_PANE
0
POLYLINE
8
ARKA_FRONT_HINGES_3MM
66
1
70
1
10
0
20
0
30
0
0
VERTEX
8
ARKA_FRONT_HINGES_3MM
10
670.97785
20
1176.392063
30
0
42
0.197587
0
VERTEX
8
ARKA_FRONT_HINGES_3MM
10
395.5
20
1290.498724
30
0
0
VERTEX
8
ARKA_FRONT_HINGES_3MM
10
395.5
20
1162.498106
30
0
42
-0.196944
0
VERTEX
8
ARKA_FRONT_HINGES_3MM
10
580.467744
20
1085.881958
30
0
0
SEQEND
8
ARKA_FRONT_HINGES_3MM
0
POLYLINE
8
ARKA_OUTLINE
66
1
70
1
10
0
20
0
30
0
0
VERTEX
8
ARKA_OUTLINE
10
383.5
20
1280.34159
30
0
42
0.183984
0
VERTEX
8
ARKA_OUTLINE
10
132.275397
20
1176.280952
30
0
0
VERTEX
8
ARKA_OUTLINE
10
208.687111
20
1099.869238
30
0
42
-0.17812
0
VERTEX
8
ARKA_OUTLINE
10
383.5
20
1172.279108
30
0
0
SEQEND
8
ARKA_OUTLINE
0
POLYLINE
8
ARKA_PANE
66
1
70
1
10
0
20
0
30
0
0
VERTEX
8
ARKA_PANE
10
385.5
20
1282.394517
30
0
42
0.186757
0
VERTEX
8
ARKA_PANE
10
129.409545
20
1176.318377
30
0
0
VERTEX
8
ARKA_PANE
10
208.636232
20
1097.091691
30
0
42
-0.181765
0
VERTEX
8
ARKA_PANE
10
385.5
20
1170.351062
30
0
0
SEQEND
8
ARKA_PANE
0
POLYLINE
8
ARKA_FRONT_HINGES_3MM
66
1
70
1
10
0
20
0
30
0
0
VERTEX
8
ARKA_FRONT_HINGES_3MM
10
393.5
20
1290.498724
30
0
42
0.197587
0
VERTEX
8
ARKA_FRONT_HINGES_3MM
10
118.02215
20
1176.392063
30
0
0
VERTEX
8
ARKA_FRONT_HINGES_3MM
10
208.532256
20
1085.881958
30
0
42
-0.196944
0
VERTEX
8
ARKA_FRONT_HINGES_3MM
10
393.5
20
1162.498106
30
0
0
SEQEND
8
ARKA_FRONT_HINGES_3MM
0
POLYLINE
8
ARKA_OUTLINE
66
1
70
1
10
0
20
0
30
0
0
VERTEX
8
ARKA_OUTLINE
10
116.719048
20
1160.724603
30
0
42
0.183984
0
VERTEX
8
ARKA_OUTLINE
10
12.65841
20
909.5
30
0
0
VERTEX
8
ARKA_OUTLINE
10
120.720892
20
909.5
30
0
42
-0.17812
0
VERTEX
8
ARKA_OUTLINE
10
193.130762
20
1084.312889
30
0
0
SEQEND
8
ARKA_OUTLINE
0
POLYLINE
8
ARKA_PANE
66
1
70
1
10
0
20
0
30
0
0
VERTEX
8
ARKA_PANE
10
116.681623
20
1163.590455
30
0
42
0.186757
0
VERTEX
8
ARKA_PANE
10
10.605483
20
907.5
30
0
0
VERTEX
8
ARKA_PANE
10
122.648938
20
907.5
30
0
42
-0.181765
0
VERTEX
8
ARKA_PANE
10
195.908309
20
1084.363768
30
0
0
SEQEND
8
ARKA_PANE
0
POLYLINE
8
ARKA_FRONT_HINGES_3MM
66
1
70
1
10
0
20
0
30
0
0
VERTEX
8
ARKA_FRONT_HINGES_3MM
10
116.607937
20
1174.97785
30
0
42
0.197587
0
VERTEX
8
ARKA_FRONT_HINGES_3MM
10
2.501276
20
899.5
30
0
0
VERTEX
8
ARKA_FRONT_HINGES_3MM
10
130.501894
20
899.5
30
0
42
-0.196944
0
VERTEX
8
ARKA_FRONT_HINGES_3MM
10
207.118042
20
1084.467744
30
0
0
SEQEND
8
ARKA_FRONT_HINGES_3MM
0
POLYLINE
8
ARKA_OUTLINE
66
1
70
1
10
0
20
0
30
0
0
VERTEX
8
ARKA_OUTLINE
10
502.740232
20
991.183883
30
0
42
-0.159035
0
VERTEX
8
ARKA_OUTLINE
10
536.574804
20
909.5
30
0
0
VERTEX
8
ARKA_OUTLINE
10
646.259806
20
909.5
30
0
42
0.176311
0
VERTEX
8
ARKA_OUTLINE
10
580.299241
20
1068.742892
30
0
0
SEQEND
8
ARKA_OUTLINE
0
POLYLINE
8
ARKA_PANE
66
1
70
1
10
0
20
0
30
0
0
VERTEX
8
ARKA_PANE
10
500.008426
20
991.280504
30
0
42
-0.165794
0
VERTEX
8
ARKA_PANE
10
534.711447
20
907.5
30
0
0
VERTEX
8
ARKA_PANE
10
648.340501
20
907.5
30
0
42
0.180554
0
VERTEX
8
ARKA_PANE
10
580.356301
20
1071.628379
30
0
0
SEQEND
8
ARKA_PANE
0
POLYLINE
8
ARKA_FRONT_HINGES_3MM
66
1
70
1
10
0
20
0
30
0
0
VERTEX
8
ARKA_FRONT_HINGES_3MM
10
488.896087
20
991.481873
30
0
42
-0.194992
0
VERTEX
8
ARKA_FRONT_HINGES_3MM
10
526.996226
20
899.5
30
0
0
VERTEX
8
ARKA_FRONT_HINGES_3MM
10
656.498092
20
899.5
30
0
42
0.196929
0
VERTEX
8
ARKA_FRONT_HINGES_3MM
10
580.467734
20
1083.05352
30
0
0
SEQEND
8
ARKA_FRONT_HINGES_3MM
0
POLYLINE
8
ARKA_OUTLINE
66
1
70
1
10
0
20
0
30
0
0
VERTEX
8
ARKA_OUTLINE
10
405.5
20
1040.574804
30
0
42
-0.159035
0
VERTEX
8
ARKA_OUTLINE
10
487.183883
20
1006.740232
30
0
0
VERTEX
8
ARKA_OUTLINE
10
564.742892
20
1084.299241
30
0
42
0.176311
0
VERTEX
8
ARKA_OUTLINE
10
405.5
20
1150.259806
30
0
0
SEQEND
8
ARKA_OUTLINE
0
POLYLINE
8
ARKA_PANE
66
1
70
1
10
0
20
0
30
0
0
VERTEX
8
ARKA_PANE
10
403.5
20
1038.711447
30
0
42
-0.165794
0
VERTEX
8
ARKA_PANE
10
487.280504
20
1004.008426
30
0
0
VERTEX
8
ARKA_PANE
10
567.628379
20
1084.356301
30
0
42
0.180554
0
VERTEX
8
ARKA_PANE
10
403.5
20
1152.340501
30
0
0
SEQEND
8
ARKA_PANE
0
POLYLINE
8
ARKA_FRONT_HINGES_3MM
66
1
70
1
10
0
20
0
30
0
0
VERTEX
8
ARKA_FRONT_HINGES_3MM
10
395.5
20
1030.996226
30
0
42
-0.194992
0
VERTEX
8
ARKA_FRONT_HINGES_3MM
10
487.481873
20
992.896087
30
0
0
VERTEX
8
ARKA_FRONT_HINGES_3MM
10
579.05352
20
1084.467734
30
0
42
0.196929
0
VERTEX
8
ARKA_FRONT_HINGES_3MM
10
395.5
20
1160.498092
30
0
0
SEQEND
8
ARKA_FRONT_HINGES_3MM
0
POLYLINE
8
ARKA_OUTLINE
66
1
70
1
10
0
20
0
30
0
0
VERTEX
8
ARKA_OUTLINE
10
301.816117
20
1006.740232
30
0
42
-0.159035
0
VERTEX
8
ARKA_OUTLINE
10
383.5
20
1040.574804
30
0
0
VERTEX
8
ARKA_OUTLINE
10
383.5
20
1150.259806
30
0
42
0.176311
0
VERTEX
8
ARKA_OUTLINE
10
224.257108
20
1084.299241
30
0
0
SEQEND
8
ARKA_OUTLINE
0
POLYLINE
8
ARKA_PANE
66
1
70
1
10
0
20
0
30
0
0
VERTEX
8
ARKA_PANE
10
301.719496
20
1004.008426
30
0
42
-0.165794
0
VERTEX
8
ARKA_PANE
10
385.5
20
1038.711447
30
0
0
VERTEX
8
ARKA_PANE
10
385.5
20
1152.340501
30
0
42
0.180554
0
VERTEX
8
ARKA_PANE
10
221.371621
20
1084.356301
30
0
0
SEQEND
8
ARKA_PANE
0
POLYLINE
8
ARKA_FRONT_HINGES_3MM
66
1
70
1
10
0
20
0
30
0
0
VERTEX
8
ARKA_FRONT_HINGES_3MM
10
301.518127
20
992.896087
30
0
42
-0.194992
0
VERTEX
8
ARKA_FRONT_HINGES_3MM
10
393.5
20
1030.996226
30
0
0
VERTEX
8
ARKA_FRONT_HINGES_3MM
10
393.5
20
1160.498092
30
0
42
0.196929
0
VERTEX
8
ARKA_FRONT_HINGES_3MM
10
209.94648
20
1084.467734
30
0
0
SEQEND
8
ARKA_FRONT_HINGES_3MM
0
POLYLINE
8
ARKA_OUTLINE
66
1
70
1
10
0
20
0
30
0
0
VERTEX
8
ARKA_OUTLINE
10
252.425196
20
909.5
30
0
42
-0.159035
0
VERTEX
8
ARKA_OUTLINE
10
286.259768
20
991.183883
30
0
0
VERTEX
8
ARKA_OUTLINE
10
208.700759
20
1068.742892
30
0
42
0.176311
0
VERTEX
8
ARKA_OUTLINE
10
142.740194
20
909.5
30
0
0
SEQEND
8
ARKA_OUTLINE
0
POLYLINE
8
ARKA_PANE
66
1
70
1
10
0
20
0
30
0
0
VERTEX
8
ARKA_PANE
10
254.288553
20
907.5
30
0
42
-0.165794
0
VERTEX
8
ARKA_PANE
10
288.991574
20
991.280504
30
0
0
VERTEX
8
ARKA_PANE
10
208.643699
20
1071.628379
30
0
42
0.180554
0
VERTEX
8
ARKA_PANE
10
140.659499
20
907.5
30
0
0
SEQEND
8
ARKA_PANE
0
POLYLINE
8
ARKA_FRONT_HINGES_3MM
66
1
70
1
10
0
20
0
30
0
0
VERTEX
8
ARKA_FRONT_HINGES_3MM
10
262.003774
20
899.5
30
0
42
-0.194992
0
VERTEX
8
ARKA_FRONT_HINGES_3MM
10
300.103913
20
991.481873
30
0
0
VERTEX
8
ARKA_FRONT_HINGES_3MM
10
208.532266
20
1083.05352
30
0
42
0.196929
0
VERTEX
8
ARKA_FRONT_HINGES_3MM
10
132.501908
20
899.5
30
0
0
SEQEND
8
ARKA_FRONT_HINGES_3MM
0
POLYLINE
8
ARKA_MITRE
66
1
70
0
10
0
20
0
30
0
0
VERTEX
8
ARKA_MITRE
10
2.5
20
17.5
30
0
0
VERTEX
8
ARKA_MITRE
10
2.5
20
2.5
30
0
0
VERTEX
8
ARKA_MITRE
10
17.5
20
2.5
30
0
0
SEQEND
8
ARKA_MITRE
0
POLYLINE
8
ARKA_MITRE
66
1
70
0
10
0
20
0
30
0
0
VERTEX
8
ARKA_MITRE
10
115.5
20
2.5
30
0
0
VERTEX
8
ARKA_MITRE
10
130.5
20
2.5
30
0
0
VERTEX
8
ARKA_MITRE
10
130.5
20
17.5
30
0
0
SEQEND
8
ARKA_MITRE
0
POLYLINE
8
ARKA_MITRE
66
1
70
0
10
0
20
0
30
0
0
VERTEX
8
ARKA_MITRE
10
130.5
20
882.5
30
0
0
VERTEX
8
ARKA_MITRE
10
130.5
20
897.5
30
0
0
VERTEX
8
ARKA_MITRE
10
115.5
20
897.5
30
0
0
SEQEND
8
ARKA_MITRE
0
POLYLINE
8
ARKA_MITRE
66
1
70
0
10
0
20
0
30
0
0
VERTEX
8
ARKA_MITRE
10
17.5
20
897.5
30
0
0
VERTEX
8
ARKA_MITRE
10
2.5
20
897.5
30
0
0
VERTEX
8
ARKA_MITRE
10
2.5
20
882.5
30
0
0
SEQEND
8
ARKA_MITRE
0
POLYLINE
8
ARKA_MITRE
66
1
70
0
10
0
20
0
30
0
0
VERTEX
8
ARKA_MITRE
10
132.5
20
17.5
30
0
0
VERTEX
8
ARKA_MITRE
10
132.5
20
2.5
30
0
0
VERTEX
8
ARKA_MITRE
10
147.5
20
2.5
30
0
0
SEQEND
8
ARKA_MITRE
0
POLYLINE
8
ARKA_MITRE
66
1
70
0
10
0
20
0
30
0
0
VERTEX
8
ARKA_MITRE
10
247
20
2.5
30
0
0
VERTEX
8
ARKA_MITRE
10
262
20
2.5
30
0
0
VERTEX
8
ARKA_MITRE
10
262
20
17.5
30
0
0
SEQEND
8
ARKA_MITRE
0
POLYLINE
8
ARKA_MITRE
66
1
70
0
10
0
20
0
30
0
0
VERTEX
8
ARKA_MITRE
10
262
20
882.5
30
0
0
VERTEX
8
ARKA_MITRE
10
262
20
897.5
30
0
0
VERTEX
8
ARKA_MITRE
10
247
20
897.5
30
0
0
SEQEND
8
ARKA_MITRE
0
POLYLINE
8
ARKA_MITRE
66
1
70
0
10
0
20
0
30
0
0
VERTEX
8
ARKA_MITRE
10
147.5
20
897.5
30
0
0
VERTEX
8
ARKA_MITRE
10
132.5
20
897.5
30
0
0
VERTEX
8
ARKA_MITRE
10
132.5
20
882.5
30
0
0
SEQEND
8
ARKA_MITRE
0
POLYLINE
8
ARKA_MITRE
66
1
70
0
10
0
20
0
30
0
0
VERTEX
8
ARKA_MITRE
10
264
20
17.5
30
0
0
VERTEX
8
ARKA_MITRE
10
264
20
2.5
30
0
0
VERTEX
8
ARKA_MITRE
10
279
20
2.5
30
0
0
SEQEND
8
ARKA_MITRE
0
POLYLINE
8
ARKA_MITRE
66
1
70
0
10
0
20
0
30
0
0
VERTEX
8
ARKA_MITRE
10
510
20
2.5
30
0
0
VERTEX
8
ARKA_MITRE
10
525
20
2.5
30
0
0
VERTEX
8
ARKA_MITRE
10
525
20
17.5
30
0
0
SEQEND
8
ARKA_MITRE
0
POLYLINE
8
ARKA_MITRE
66
1
70
0
10
0
20
0
30
0
0
VERTEX
8
ARKA_MITRE
10
527
20
17.5
30
0
0
VERTEX
8
ARKA_MITRE
10
527
20
2.5
30
0
0
VERTEX
8
ARKA_MITRE
10
542
20
2.5
30
0
0
SEQEND
8
ARKA_MITRE
0
POLYLINE
8
ARKA_MITRE
66
1
70
0
10
0
20
0
30
0
0
VERTEX
8
ARKA_MITRE
10
641.5
20
2.5
30
0
0
VERTEX
8
ARKA_MITRE
10
656.5
20
2.5
30
0
0
VERTEX
8
ARKA_MITRE
10
656.5
20
17.5
30
0
0
SEQEND
8
ARKA_MITRE
0
POLYLINE
8
ARKA_MITRE
66
1
70
0
10
0
20
0
30
0
0
VERTEX
8
ARKA_MITRE
10
656.5
20
882.5
30
0
0
VERTEX
8
ARKA_MITRE
10
656.5
20
897.5
30
0
0
VERTEX
8
ARKA_MITRE
10
641.5
20
897.5
30
0
0
SEQEND
8
ARKA_MITRE
0
POLYLINE
8
ARKA_MITRE
66
1
70
0
10
0
20
0
30
0
0
VERTEX
8
ARKA_MITRE
10
542
20
897.5
30
0
0
VERTEX
8
ARKA_MITRE
10
527
20
897.5
30
0
0
VERTEX
8
ARKA_MITRE
10
527
20
882.5
30
0
0
SEQEND
8
ARKA_MITRE
0
POLYLINE
8
ARKA_MITRE
66
1
70
0
10
0
20
0
30
0
0
VERTEX
8
ARKA_MITRE
10
658.5
20
17.5
30
0
0
VERTEX
8
ARKA_MITRE
10
658.5
20
2.5
30
0
0
VERTEX
8
ARKA_MITRE
10
673.5
20
2.5
30
0
0
SEQEND
8
ARKA_MITRE
0
POLYLINE
8
ARKA_MITRE
66
1
70
0
10
0
20
0
30
0
0
VERTEX
8
ARKA_MITRE
10
771.5
20
2.5
30
0
0
VERTEX
8
ARKA_MITRE
10
786.5
20
2.5
30
0
0
VERTEX
8
ARKA_MITRE
10
786.5
20
17.5
30
0
0
SEQEND
8
ARKA_MITRE
0
POLYLINE
8
ARKA_MITRE
66
1
70
0
10
0
20
0
30
0
0
VERTEX
8
ARKA_MITRE
10
786.5
20
882.5
30
0
0
VERTEX
8
ARKA_MITRE
10
786.5
20
897.5
30
0
0
VERTEX
8
ARKA_MITRE
10
771.5
20
897.5
30
0
0
SEQEND
8
ARKA_MITRE
0
POLYLINE
8
ARKA_MITRE
66
1
70
0
10
0
20
0
30
0
0
VERTEX
8
ARKA_MITRE
10
673.5
20
897.5
30
0
0
VERTEX
8
ARKA_MITRE
10
658.5
20
897.5
30
0
0
VERTEX
8
ARKA_MITRE
10
658.5
20
882.5
30
0
0
SEQEND
8
ARKA_MITRE
0
POLYLINE
8
ARKA_MITRE
66
1
70
0
10
0
20
0
30
0
0
VERTEX
8
ARKA_MITRE
10
771.498724
20
899.5
30
0
0
VERTEX
8
ARKA_MITRE
10
786.498724
20
899.5
30
0
42
0.009567
0
VERTEX
8
ARKA_MITRE
10
786.173515
20
914.495559
30
0
0
SEQEND
8
ARKA_MITRE
0
POLYLINE
8
ARKA_MITRE
66
1
70
0
10
0
20
0
30
0
0
VERTEX
8
ARKA_MITRE
10
682.765566
20
1164.14443
30
0
42
0.009567
0
VERTEX
8
ARKA_MITRE
10
672.392063
20
1174.97785
30
0
0
VERTEX
8
ARKA_MITRE
10
661.785461
20
1164.371248
30
0
0
SEQEND
8
ARKA_MITRE
0
POLYLINE
8
ARKA_MITRE
66
1
70
0
10
0
20
0
30
0
0
VERTEX
8
ARKA_MITRE
10
592.48856
20
1095.074346
30
0
0
VERTEX
8
ARKA_MITRE
10
581.881958
20
1084.467744
30
0
42
-0.014206
0
VERTEX
8
ARKA_MITRE
10
592.140241
20
1073.52667
30
0
0
SEQEND
8
ARKA_MITRE
0
POLYLINE
8
ARKA_MITRE
66
1
70
0
10
0
20
0
30
0
0
VERTEX
8
ARKA_MITRE
10
658.0153
20
914.490209
30
0
42
-0.014206
0
VERTEX
8
ARKA_MITRE
10
658.498106
20
899.5
30
0
0
VERTEX
8
ARKA_MITRE
10
673.498106
20
899.5
30
0
0
SEQEND
8
ARKA_MITRE
0
POLYLINE
8
ARKA_MITRE
66
1
70
0
10
0
20
0
30
0
0
VERTEX
8
ARKA_MITRE
10
660.371248
20
1165.785461
30
0
0
VERTEX
8
ARKA_MITRE
10
670.97785
20
1176.392063
30
0
42
0.009567
0
VERTEX
8
ARKA_MITRE
10
660.14443
20
1186.765566
30
0
0
SEQEND
8
ARKA_MITRE
0
POLYLINE
8
ARKA_MITRE
66
1
70
0
10
0
20
0
30
0
0
VERTEX
8
ARKA_MITRE
10
410.495559
20
1290.173515
30
0
42
0.009567
0
VERTEX
8
ARKA_MITRE
10
395.5
20
1290.498724
30
0
0
VERTEX
8
ARKA_MITRE
10
395.5
20
1275.498724
30
0
0
SEQEND
8
ARKA_MITRE
0
POLYLINE
8
ARKA_MITRE
66
1
70
0
10
0
20
0
30
0
0
VERTEX
8
ARKA_MITRE
10
395.5
20
1177.498106
30
0
0
VERTEX
8
ARKA_MITRE
10
395.5
20
1162.498106
30
0
42
-0.014206
0
VERTEX
8
ARKA_MITRE
10
410.490209
20
1162.0153
30
0
0
SEQEND
8
ARKA_MITRE
0
POLYLINE
8
ARKA_MITRE
66
1
70
0
10
0
20
0
30
0
0
VERTEX
8
ARKA_MITRE
10
569.52667
20
1096.140241
30
0
42
-0.014206
0
VERTEX
8
ARKA_MITRE
10
580.467744
20
1085.881958
30
0
0
VERTEX
8
ARKA_MITRE
10
591.074346
20
1096.48856
30
0
0
SEQEND
8
ARKA_MITRE
0
POLYLINE
8
ARKA_MITRE
66
1
70
0
10
0
20
0
30
0
0
VERTEX
8
ARKA_MITRE
10
393.5
20
1275.498724
30
0
0
VERTEX
8
ARKA_MITRE
10
393.5
20
1290.498724
30
0
42
0.009567
0
VERTEX
8
ARKA_MITRE
10
378.504441
20
1290.173515
30
0
0
SEQEND
8
ARKA_MITRE
0
POLYLINE
8
ARKA_MITRE
66
1
70
0
10
0
20
0
30
0
0
VERTEX
8
ARKA_MITRE
10
128.85557
20
1186.765566
30
0
42
0.009567
0
VERTEX
8
ARKA_MITRE
10
118.02215
20
1176.392063
30
0
0
VERTEX
8
ARKA_MITRE
10
128.628752
20
1165.785461
30
0
0
SEQEND
8
ARKA_MITRE
0
POLYLINE
8
ARKA_MITRE
66
1
70
0
10
0
20
0
30
0
0
VERTEX
8
ARKA_MITRE
10
197.925654
20
1096.48856
30
0
0
VERTEX
8
ARKA_MITRE
10
208.532256
20
1085.881958
30
0
42
-0.014206
0
VERTEX
8
ARKA_MITRE
10
219.47333
20
1096.140241
30
0
0
SEQEND
8
ARKA_MITRE
0
POLYLINE
8
ARKA_MITRE
66
1
70
0
10
0
20
0
30
0
0
VERTEX
8
ARKA_MITRE
10
378.509791
20
1162.0153
30
0
42
-0.014206
0
VERTEX
8
ARKA_MITRE
10
393.5
20
1162.498106
30
0
0
VERTEX
8
ARKA_MITRE
10
393.5
20
1177.498106
30
0
0
SEQEND
8
ARKA_MITRE
0
POLYLINE
8
ARKA_MITRE
66
1
70
0
10
0
20
0
30
0
0
VERTEX
8
ARKA_MITRE
10
127.214539
20
1164.371248
30
0
0
VERTEX
8
ARKA_MITRE
10
116.607937
20
1174.97785
30
0
42
0.009567
0
VERTEX
8
ARKA_MITRE
10
106.234434
20
1164.14443
30
0
0
SEQEND
8
ARKA_MITRE
0
POLYLINE
8
ARKA_MITRE
66
1
70
0
10
0
20
0
30
0
0
VERTEX
8
ARKA_MITRE
10
2.826485
20
914.495559
30
0
42
0.009567
0
VERTEX
8
ARKA_MITRE
10
2.501276
20
899.5
30
0
0
VERTEX
8
ARKA_MITRE
10
17.501276
20
899.5
30
0
0
SEQEND
8
ARKA_MITRE
0
POLYLINE
8
ARKA_MITRE
66
1
70
0
10
0
20
0
30
0
0
VERTEX
8
ARKA_MITRE
10
115.501894
20
899.5
30
0
0
VERTEX
8
ARKA_MITRE
10
130.501894
20
899.5
30
0
42
-0.014206
0
VERTEX
8
ARKA_MITRE
10
130.9847
20
914.490209
30
0
0
SEQEND
8
ARKA_MITRE
0
POLYLINE
8
ARKA_MITRE
66
1
70
0
10
0
20
0
30
0
0
VERTEX
8
ARKA_MITRE
10
196.859759
20
1073.52667
30
0
42
-0.014206
0
VERTEX
8
ARKA_MITRE
10
207.118042
20
1084.467744
30
0
0
VERTEX
8
ARKA_MITRE
10
196.51144
20
1095.074346
30
0
0
SEQEND
8
ARKA_MITRE
0
POLYLINE
8
ARKA_MITRE
66
1
70
0
10
0
20
0
30
0
0
VERTEX
8
ARKA_MITRE
10
499.502689
20
1002.088475
30
0
0
VERTEX
8
ARKA_MITRE
10
488.896087
20
991.481873
30
0
42
-0.028309
0
VERTEX
8
ARKA_MITRE
10
498.795625
20
980.223146
30
0
0
SEQEND
8
ARKA_MITRE
0
POLYLINE
8
ARKA_MITRE
66
1
70
0
10
0
20
0
30
0
0
VERTEX
8
ARKA_MITRE
10
526.035134
20
914.461153
30
0
42
-0.028309
0
VERTEX
8
ARKA_MITRE
10
526.996226
20
899.5
30
0
0
VERTEX
8
ARKA_MITRE
10
541.996226
20
899.5
30
0
0
SEQEND
8
ARKA_MITRE
0
POLYLINE
8
ARKA_MITRE
66
1
70
0
10
0
20
0
30
0
0
VERTEX
8
ARKA_MITRE
10
641.498092
20
899.5
30
0
0
VERTEX
8
ARKA_MITRE
10
656.498092
20
899.5
30
0
42
0.014314
0
VERTEX
8
ARKA_MITRE
10
656.011602
20
914.490059
30
0
0
SEQEND
8
ARKA_MITRE
0
POLYLINE
8
ARKA_MITRE
66
1
70
0
10
0
20
0
30
0
0
VERTEX
8
ARKA_MITRE
10
590.723306
20
1072.109948
30
0
42
0.014314
0
VERTEX
8
ARKA_MITRE
10
580.467734
20
1083.05352
30
0
0
VERTEX
8
ARKA_MITRE
10
569.861132
20
1072.446919
30
0
0
SEQEND
8
ARKA_MITRE
0
POLYLINE
8
ARKA_MITRE
66
1
70
0
10
0
20
0
30
0
0
VERTEX
8
ARKA_MITRE
10
395.5
20
1045.996226
30
0
0
VERTEX
8
ARKA_MITRE
10
395.5
20
1030.996226
30
0
42
-0.028309
0
VERTEX
8
ARKA_MITRE
10
410.461153
20
1030.035134
30
0
0
SEQEND
8
ARKA_MITRE
0
POLYLINE
8
ARKA_MITRE
66
1
70
0
10
0
20
0
30
0
0
VERTEX
8
ARKA_MITRE
10
476.223146
20
1002.795625
30
0
42
-0.028309
0
VERTEX
8
ARKA_MITRE
10
487.481873
20
992.896087
30
0
0
VERTEX
8
ARKA_MITRE
10
498.088475
20
1003.502689
30
0
0
SEQEND
8
ARKA_MITRE
0
POLYLINE
8
ARKA_MITRE
66
1
70
0
10
0
20
0
30
0
0
VERTEX
8
ARKA_MITRE
10
568.446919
20
1073.861132
30
0
0
VERTEX
8
ARKA_MITRE
10
579.05352
20
1084.467734
30
0
42
0.014314
0
VERTEX
8
ARKA_MITRE
10
568.109948
20
1094.723306
30
0
0
SEQEND
8
ARKA_MITRE
0
POLYLINE
8
ARKA_MITRE
66
1
70
0
10
0
20
0
30
0
0
VERTEX
8
ARKA_MITRE
10
410.490059
20
1160.011602
30
0
42
0.014314
0
VERTEX
8
ARKA_MITRE
10
395.5
20
1160.498092
30
0
0
VERTEX
8
ARKA_MITRE
10
395.5
20
1145.498092
30
0
0
SEQEND
8
ARKA_MITRE
0
POLYLINE
8
ARKA_MITRE
66
1
70
0
10
0
20
0
30
0
0
VERTEX
8
ARKA_MITRE
10
290.911525
20
1003.502689
30
0
0
VERTEX
8
ARKA_MITRE
10
301.518127
20
992.896087
30
0
42
-0.028309
0
VERTEX
8
ARKA_MITRE
10
312.776854
20
1002.795625
30
0
0
SEQEND
8
ARKA_MITRE
0
POLYLINE
8
ARKA_MITRE
66
1
70
0
10
0
20
0
30
0
0
VERTEX
8
ARKA_MITRE
10
378.538847
20
1030.035134
30
0
42
-0.028309
0
VERTEX
8
ARKA_MITRE
10
393.5
20
1030.996226
30
0
0
VERTEX
8
ARKA_MITRE
10
393.5
20
1045.996226
30
0
0
SEQEND
8
ARKA_MITRE
0
POLYLINE
8
ARKA_MITRE
66
1
70
0
10
0
20
0
30
0
0
VERTEX
8
ARKA_MITRE
10
393.5
20
1145.498092
30
0
0
VERTEX
8
ARKA_MITRE
10
393.5
20
1160.498092
30
0
42
0.014314
0
VERTEX
8
ARKA_MITRE
10
378.509941
20
1160.011602
30
0
0
SEQEND
8
ARKA_MITRE
0
POLYLINE
8
ARKA_MITRE
66
1
70
0
10
0
20
0
30
0
0
VERTEX
8
ARKA_MITRE
10
220.890052
20
1094.723306
30
0
42
0.014314
0
VERTEX
8
ARKA_MITRE
10
209.94648
20
1084.467734
30
0
0
VERTEX
8
ARKA_MITRE
10
220.553081
20
1073.861132
30
0
0
SEQEND
8
ARKA_MITRE
0
POLYLINE
8
ARKA_MITRE
66
1
70
0
10
0
20
0
30
0
0
VERTEX
8
ARKA_MITRE
10
247.003774
20
899.5
30
0
0
VERTEX
8
ARKA_MITRE
10
262.003774
20
899.5
30
0
42
-0.028309
0
VERTEX
8
ARKA_MITRE
10
262.964866
20
914.461153
30
0
0
SEQEND
8
ARKA_MITRE
0
POLYLINE
8
ARKA_MITRE
66
1
70
0
10
0
20
0
30
0
0
VERTEX
8
ARKA_MITRE
10
290.204375
20
980.223146
30
0
42
-0.028309
0
VERTEX
8
ARKA_MITRE
10
300.103913
20
991.481873
30
0
0
VERTEX
8
ARKA_MITRE
10
289.497311
20
1002.088475
30
0
0
SEQEND
8
ARKA_MITRE
0
POLYLINE
8
ARKA_MITRE
66
1
70
0
10
0
20
0
30
0
0
VERTEX
8
ARKA_MITRE
10
219.138868
20
1072.446919
30
0
0
VERTEX
8
ARKA_MITRE
10
208.532266
20
1083.05352
30
0
42
0.014314
0
VERTEX
8
ARKA_MITRE
10
198.276694
20
1072.109948
30
0
0
SEQEND
8
ARKA_MITRE
0
POLYLINE
8
ARKA_MITRE
66
1
70
0
10
0
20
0
30
0
0
VERTEX
8
ARKA_MITRE
10
132.988398
20
914.490059
30
0
42
0.014314
0
VERTEX
8
ARKA_MITRE
10
132.501908
20
899.5
30
0
0
VERTEX
8
ARKA_MITRE
10
147.501908
20
899.5
30
0
0
SEQEND
8
ARKA_MITRE
0
POINT
8
ARKA_CENTRE
10
394.5
20
898.5
30
0
0
POLYLINE
8
ARKA_SECTION
66
1
70
0
10
0
20
0
30
0
0
VERTEX
8
ARKA_SECTION
10
894.5
20
-5.5
30
0
42
-0.414214
0
VERTEX
8
ARKA_SECTION
10
902.5
20
2.5
30
0
0
VERTEX
8
ARKA_SECTION
10
902.5
20
8.5
30
0
0
SEQEND
8
ARKA_SECTION
0
TEXT
8
ARKA_INFO_NO_CUT
10
890.5
20
-24.5
30
0
40
15
1
START
72
0
11
890.5
21
-24.5
31
0
73
0
0
TEXT
8
ARKA_INFO_NO_CUT
10
914.5
20
-1.5
30
0
40
15
1
SECTION R8 + 6 (VERBATIM)
72
0
11
914.5
21
-1.5
31
0
73
0
0
TEXT
8
ARKA_INFO_NO_CUT
10
894.5
20
1276.5
30
0
40
15
1
quad - TRACERY FULL
72
0
11
894.5
21
1276.5
31
0
73
0
0
TEXT
8
ARKA_INFO_NO_CUT
10
894.5
20
1254.5
30
0
40
15
1
PATTERN QUAD-HUB-SPOKE SPOKES 11 RINGS 2 PANES 13
72
0
11
894.5
21
1254.5
31
0
73
0
0
TEXT
8
ARKA_INFO_NO_CUT
10
894.5
20
1232.5
30
0
40
15
1
TIMBER BAR 22 EDGE MARGIN 18 PANE +2 LIMIT +10 MITRE LEG 15
72
0
11
894.5
21
1232.5
31
0
73
0
0
TEXT
8
ARKA_INFO_NO_CUT
10
894.5
20
1210.5
30
0
40
15
1
ARKA_PANE = MOULDING RAIL (INNER EDGE OF THE BEAD), ARKA_FRONT_HINGES_3MM = BEAD LIMIT (NOT DRILLING)
72
0
11
894.5
21
1210.5
31
0
73
0
0
TEXT
8
ARKA_INFO_NO_CUT
10
894.5
20
1188.5
30
0
40
15
1
NOT A TOOLPATH
72
0
11
894.5
21
1188.5
31
0
73
0
0
ENDSEC
0
EOF
