0
SECTION
2
HEADER
9
$ACADVER
1
AC1009
0
ENDSEC
0
SECTION
2
TABLES
0
TABLE
2
LAYER
70
6
0
LAYER
2
0
70
0
62
7
6
CONTINUOUS
0
LAYER
2
GLASS_CONTOUR
70
0
62
7
6
CONTINUOUS
0
LAYER
2
GLASS_EDGE
70
0
62
8
6
CONTINUOUS
0
LAYER
2
GLASS_BARS
70
0
62
3
6
CONTINUOUS
0
LAYER
2
GLASS_BAR_AXES
70
0
62
4
6
CONTINUOUS
0
LAYER
2
GLASS_TEXT
70
0
62
2
6
CONTINUOUS
0
ENDTAB
0
ENDSEC
0
SECTION
2
ENTITIES
0
POLYLINE
8
GLASS_CONTOUR
66
1
70
1
10
0
20
0
30
0
0
VERTEX
8
GLASS_CONTOUR
10
0
20
0
30
0
0
VERTEX
8
GLASS_CONTOUR
10
789
20
0
30
0
0
VERTEX
8
GLASS_CONTOUR
10
789
20
832.474596
30
0
42
0.249399
0
VERTEX
8
GLASS_CONTOUR
10
394.5
20
1574.182254
30
0
42
0.249399
0
VERTEX
8
GLASS_CONTOUR
10
0
20
832.474596
30
0
0
SEQEND
8
GLASS_CONTOUR
0
POLYLINE
8
GLASS_EDGE
66
1
70
1
10
0
20
0
30
0
0
VERTEX
8
GLASS_EDGE
10
11
20
11
30
0
0
VERTEX
8
GLASS_EDGE
10
778
20
11
30
0
0
VERTEX
8
GLASS_EDGE
10
778
20
832.474596
30
0
42
0.247165
0
VERTEX
8
GLASS_EDGE
10
394.5
20
1560.878502
30
0
42
0.247165
0
VERTEX
8
GLASS_EDGE
10
11
20
832.474596
30
0
0
SEQEND
8
GLASS_EDGE
0
POLYLINE
8
GLASS_BAR_AXES
66
1
70
0
10
0
20
0
30
0
0
VERTEX
8
GLASS_BAR_AXES
10
0
20
416.237298
30
0
0
VERTEX
8
GLASS_BAR_AXES
10
789
20
416.237298
30
0
0
SEQEND
8
GLASS_BAR_AXES
0
POLYLINE
8
GLASS_BARS
66
1
70
0
10
0
20
0
30
0
0
VERTEX
8
GLASS_BARS
10
0
20
425.237298
30
0
0
VERTEX
8
GLASS_BARS
10
789
20
425.237298
30
0
0
SEQEND
8
GLASS_BARS
0
POLYLINE
8
GLASS_BARS
66
1
70
0
10
0
20
0
30
0
0
VERTEX
8
GLASS_BARS
10
0
20
407.237298
30
0
0
VERTEX
8
GLASS_BARS
10
789
20
407.237298
30
0
0
SEQEND
8
GLASS_BARS
0
POLYLINE
8
GLASS_BAR_AXES
66
1
70
0
10
0
20
0
30
0
0
VERTEX
8
GLASS_BAR_AXES
10
197.25
20
0
30
0
0
VERTEX
8
GLASS_BAR_AXES
10
197.25
20
832.474596
30
0
0
SEQEND
8
GLASS_BAR_AXES
0
POLYLINE
8
GLASS_BARS
66
1
70
0
10
0
20
0
30
0
0
VERTEX
8
GLASS_BARS
10
188.25
20
0
30
0
0
VERTEX
8
GLASS_BARS
10
188.25
20
832.474596
30
0
0
SEQEND
8
GLASS_BARS
0
POLYLINE
8
GLASS_BARS
66
1
70
0
10
0
20
0
30
0
0
VERTEX
8
GLASS_BARS
10
206.25
20
0
30
0
0
VERTEX
8
GLASS_BARS
10
206.25
20
832.474596
30
0
0
SEQEND
8
GLASS_BARS
0
POLYLINE
8
GLASS_BAR_AXES
66
1
70
0
10
0
20
0
30
0
0
VERTEX
8
GLASS_BAR_AXES
10
197.25
20
832.474596
30
0
42
0.119062
0
VERTEX
8
GLASS_BAR_AXES
10
98.625
20
1240.779916
30
0
0
SEQEND
8
GLASS_BAR_AXES
0
POLYLINE
8
GLASS_BARS
66
1
70
0
10
0
20
0
30
0
0
VERTEX
8
GLASS_BARS
10
206.25
20
832.474596
30
0
42
0.119062
0
VERTEX
8
GLASS_BARS
10
106.632686
20
1244.888075
30
0
0
SEQEND
8
GLASS_BARS
0
POLYLINE
8
GLASS_BARS
66
1
70
0
10
0
20
0
30
0
0
VERTEX
8
GLASS_BARS
10
188.25
20
832.474596
30
0
42
0.119062
0
VERTEX
8
GLASS_BARS
10
90.617314
20
1236.671758
30
0
0
SEQEND
8
GLASS_BARS
0
POLYLINE
8
GLASS_BAR_AXES
66
1
70
0
10
0
20
0
30
0
0
VERTEX
8
GLASS_BAR_AXES
10
493.125
20
1497.138691
30
0
42
0.212522
0
VERTEX
8
GLASS_BAR_AXES
10
197.25
20
832.474596
30
0
0
SEQEND
8
GLASS_BAR_AXES
0
POLYLINE
8
GLASS_BARS
66
1
70
0
10
0
20
0
30
0
0
VERTEX
8
GLASS_BARS
10
487.101942
20
1503.8262
30
0
42
0.212522
0
VERTEX
8
GLASS_BARS
10
188.25
20
832.474596
30
0
0
SEQEND
8
GLASS_BARS
0
POLYLINE
8
GLASS_BARS
66
1
70
0
10
0
20
0
30
0
0
VERTEX
8
GLASS_BARS
10
499.148058
20
1490.451182
30
0
42
0.212522
0
VERTEX
8
GLASS_BARS
10
206.25
20
832.474596
30
0
0
SEQEND
8
GLASS_BARS
0
POLYLINE
8
GLASS_BAR_AXES
66
1
70
0
10
0
20
0
30
0
0
VERTEX
8
GLASS_BAR_AXES
10
591.75
20
0
30
0
0
VERTEX
8
GLASS_BAR_AXES
10
591.75
20
832.474596
30
0
0
SEQEND
8
GLASS_BAR_AXES
0
POLYLINE
8
GLASS_BARS
66
1
70
0
10
0
20
0
30
0
0
VERTEX
8
GLASS_BARS
10
582.75
20
0
30
0
0
VERTEX
8
GLASS_BARS
10
582.75
20
832.474596
30
0
0
SEQEND
8
GLASS_BARS
0
POLYLINE
8
GLASS_BARS
66
1
70
0
10
0
20
0
30
0
0
VERTEX
8
GLASS_BARS
10
600.75
20
0
30
0
0
VERTEX
8
GLASS_BARS
10
600.75
20
832.474596
30
0
0
SEQEND
8
GLASS_BARS
0
POLYLINE
8
GLASS_BAR_AXES
66
1
70
0
10
0
20
0
30
0
0
VERTEX
8
GLASS_BAR_AXES
10
591.75
20
832.474596
30
0
42
0.212522
0
VERTEX
8
GLASS_BAR_AXES
10
295.875
20
1497.138691
30
0
0
SEQEND
8
GLASS_BAR_AXES
0
POLYLINE
8
GLASS_BARS
66
1
70
0
10
0
20
0
30
0
0
VERTEX
8
GLASS_BARS
10
600.75
20
832.474596
30
0
42
0.212522
0
VERTEX
8
GLASS_BARS
10
301.898058
20
1503.8262
30
0
0
SEQEND
8
GLASS_BARS
0
POLYLINE
8
GLASS_BARS
66
1
70
0
10
0
20
0
30
0
0
VERTEX
8
GLASS_BARS
10
582.75
20
832.474596
30
0
42
0.212522
0
VERTEX
8
GLASS_BARS
10
289.851942
20
1490.451182
30
0
0
SEQEND
8
GLASS_BARS
0
POLYLINE
8
GLASS_BAR_AXES
66
1
70
0
10
0
20
0
30
0
0
VERTEX
8
GLASS_BAR_AXES
10
690.375
20
1240.779916
30
0
42
0.119062
0
VERTEX
8
GLASS_BAR_AXES
10
591.75
20
832.474596
30
0
0
SEQEND
8
GLASS_BAR_AXES
0
POLYLINE
8
GLASS_BARS
66
1
70
0
10
0
20
0
30
0
0
VERTEX
8
GLASS_BARS
10
682.367314
20
1244.888075
30
0
42
0.119062
0
VERTEX
8
GLASS_BARS
10
582.75
20
832.474596
30
0
0
SEQEND
8
GLASS_BARS
0
POLYLINE
8
GLASS_BARS
66
1
70
0
10
0
20
0
30
0
0
VERTEX
8
GLASS_BARS
10
698.382686
20
1236.671758
30
0
42
0.119062
0
VERTEX
8
GLASS_BARS
10
600.75
20
832.474596
30
0
0
SEQEND
8
GLASS_BARS
0
TEXT
8
GLASS_TEXT
10
889
20
1555.682254
30
0
40
15
1
GO1 - G1 GLASS GOTHIC-EQUILATERAL
72
0
11
889
21
1555.682254
31
0
73
0
0
TEXT
8
GLASS_TEXT
10
889
20
1533.682254
30
0
40
15
1
W789 x H1574.2 RISE 741.7 SPRINGING 832.5 R 894.5/894.5
72
0
11
889
21
1533.682254
31
0
73
0
0
TEXT
8
GLASS_TEXT
10
889
20
1511.682254
30
0
40
15
1
DOUBLE 4X16X4 TOUGHENED ARGON CLEAR SPACER SILVER
72
0
11
889
21
1511.682254
31
0
73
0
0
TEXT
8
GLASS_TEXT
10
889
20
1489.682254
30
0
40
15
1
BARS 7 PATTERN INTERSECTING TOTAL L=4801
72
0
11
889
21
1489.682254
31
0
73
0
0
TEXT
8
GLASS_TEXT
10
889
20
1467.682254
30
0
40
15
1
H1 H Y=416.2 X=0-789 L=789
72
0
11
889
21
1467.682254
31
0
73
0
0
TEXT
8
GLASS_TEXT
10
889
20
1445.682254
30
0
40
15
1
V1 V X=197.3 Y=0-832.5 L=832.5
72
0
11
889
21
1445.682254
31
0
73
0
0
TEXT
8
GLASS_TEXT
10
889
20
1423.682254
30
0
40
15
1
T1 TRACERY C=(-697.2,832.5) R=894.5 0-27.2DEG L=424
72
0
11
889
21
1423.682254
31
0
73
0
0
TEXT
8
GLASS_TEXT
10
889
20
1401.682254
30
0
40
15
1
T2 TRACERY C=(1091.8,832.5) R=894.5 132-180DEG L=749.5
72
0
11
889
21
1401.682254
31
0
73
0
0
TEXT
8
GLASS_TEXT
10
889
20
1379.682254
30
0
40
15
1
V2 V X=591.8 Y=0-832.5 L=832.5
72
0
11
889
21
1379.682254
31
0
73
0
0
TEXT
8
GLASS_TEXT
10
889
20
1357.682254
30
0
40
15
1
T3 TRACERY C=(-302.7,832.5) R=894.5 0-48DEG L=749.5
72
0
11
889
21
1357.682254
31
0
73
0
0
TEXT
8
GLASS_TEXT
10
889
20
1335.682254
30
0
40
15
1
T4 TRACERY C=(1486.3,832.5) R=894.5 152.8-180DEG L=424
72
0
11
889
21
1335.682254
31
0
73
0
0
TEXT
8
GLASS_TEXT
10
889
20
1313.682254
30
0
40
15
1
BAR ENDS (TABLE, 7 BARS): ID  S FROM APEX / POSITION  L  ANGLE / R
72
0
11
889
21
1313.682254
31
0
73
0
0
TEXT
8
GLASS_TEXT
10
889
20
1291.682254
30
0
40
15
1
H1  Y 416.2  L=789  0DEG
72
0
11
889
21
1291.682254
31
0
73
0
0
TEXT
8
GLASS_TEXT
10
889
20
1269.682254
30
0
40
15
1
V1  X 197.3  L=832.5  90DEG
72
0
11
889
21
1269.682254
31
0
73
0
0
TEXT
8
GLASS_TEXT
10
889
20
1247.682254
30
0
40
15
1
T1  450.5 FROM APEX L  L=424  R 894.5
72
0
11
889
21
1247.682254
31
0
73
0
0
TEXT
8
GLASS_TEXT
10
889
20
1225.682254
30
0
40
15
1
T2  125.3 FROM APEX R  L=749.5  R 894.5
72
0
11
889
21
1225.682254
31
0
73
0
0
TEXT
8
GLASS_TEXT
10
889
20
1203.682254
30
0
40
15
1
V2  X 591.8  L=832.5  90DEG
72
0
11
889
21
1203.682254
31
0
73
0
0
TEXT
8
GLASS_TEXT
10
889
20
1181.682254
30
0
40
15
1
T3  125.3 FROM APEX L  L=749.5  R 894.5
72
0
11
889
21
1181.682254
31
0
73
0
0
TEXT
8
GLASS_TEXT
10
889
20
1159.682254
30
0
40
15
1
T4  450.5 FROM APEX R  L=424  R 894.5
72
0
11
889
21
1159.682254
31
0
73
0
0
ENDSEC
0
EOF
