0
SECTION
2
HEADER
9
$ACADVER
1
AC1009
0
ENDSEC
0
SECTION
2
TABLES
0
TABLE
2
LAYER
70
7
0
LAYER
2
0
70
0
62
7
6
CONTINUOUS
0
LAYER
2
FIT
70
0
62
4
6
CONTINUOUS
0
LAYER
2
CONTOUR
70
0
62
7
6
CONTINUOUS
0
LAYER
2
ASSEMBLY
70
0
62
8
6
CONTINUOUS
0
LAYER
2
PIECES
70
0
62
5
6
CONTINUOUS
0
LAYER
2
FINGER
70
0
62
1
6
CONTINUOUS
0
LAYER
2
TEXT
70
0
62
94
6
CONTINUOUS
0
ENDTAB
0
ENDSEC
0
SECTION
2
ENTITIES
0
POLYLINE
8
PIECES
66
1
70
1
10
0
20
0
30
0
0
VERTEX
8
PIECES
10
89.280575
20
0
30
0
0
VERTEX
8
PIECES
10
19.758788
20
0
30
0
0
VERTEX
8
PIECES
10
0
20
95
30
0
0
VERTEX
8
PIECES
10
109.039362
20
95
30
0
0
SEQEND
8
PIECES
0
TEXT
8
TEXT
10
54.519681
20
57.5
30
0
40
15
1
T - LEAF TOP P1 L109 x95
72
1
11
54.519681
21
57.5
31
0
73
2
0
TEXT
8
TEXT
10
54.519681
20
10
30
0
40
10
1
OUT 94 IN 54.5 CUT J11.7/S78.3 FINGER ONE END
72
1
11
54.519681
21
10
31
0
73
2
0
POLYLINE
8
PIECES
66
1
70
1
10
0
20
0
30
0
0
VERTEX
8
PIECES
10
413.319937
20
0
30
0
0
VERTEX
8
PIECES
10
328.79815
20
0
30
0
0
VERTEX
8
PIECES
10
309.039362
20
95
30
0
0
VERTEX
8
PIECES
10
433.078725
20
95
30
0
0
SEQEND
8
PIECES
0
TEXT
8
TEXT
10
371.059044
20
57.5
30
0
40
15
1
T - LEAF TOP P2 L124 x95
72
1
11
371.059044
21
57.5
31
0
73
2
0
TEXT
8
TEXT
10
371.059044
20
10
30
0
40
10
1
OUT 94 IN 54.5 CUT J11.7/J11.7 FINGER BOTH ENDS
72
1
11
371.059044
21
10
31
0
73
2
0
POLYLINE
8
PIECES
66
1
70
1
10
0
20
0
30
0
0
VERTEX
8
PIECES
10
870.10867
20
0
30
0
0
VERTEX
8
PIECES
10
647.447097
20
0
30
0
0
VERTEX
8
PIECES
10
633.078725
20
95
30
0
0
VERTEX
8
PIECES
10
884.477042
20
95
30
0
0
SEQEND
8
PIECES
0
TEXT
8
TEXT
10
758.777884
20
57.5
30
0
40
15
1
T - LEAF TOP P3 L251.4 x95
72
1
11
758.777884
21
57.5
31
0
73
2
0
TEXT
8
TEXT
10
758.777884
20
10
30
0
40
10
1
OUT 221.4 IN 192.7 CUT J8.6/J8.6 FINGER BOTH ENDS
72
1
11
758.777884
21
10
31
0
73
2
0
POLYLINE
8
PIECES
66
1
70
1
10
0
20
0
30
0
0
VERTEX
8
PIECES
10
1321.506987
20
0
30
0
0
VERTEX
8
PIECES
10
1098.845414
20
0
30
0
0
VERTEX
8
PIECES
10
1084.477042
20
95
30
0
0
VERTEX
8
PIECES
10
1335.875359
20
95
30
0
0
SEQEND
8
PIECES
0
TEXT
8
TEXT
10
1210.176201
20
57.5
30
0
40
15
1
T - LEAF TOP P4 L251.4 x95
72
1
11
1210.176201
21
57.5
31
0
73
2
0
TEXT
8
TEXT
10
1210.176201
20
10
30
0
40
10
1
OUT 221.4 IN 192.7 CUT J8.6/J8.6 FINGER BOTH ENDS
72
1
11
1210.176201
21
10
31
0
73
2
0
POLYLINE
8
PIECES
66
1
70
1
10
0
20
0
30
0
0
VERTEX
8
PIECES
10
1772.905304
20
0
30
0
0
VERTEX
8
PIECES
10
1550.243732
20
0
30
0
0
VERTEX
8
PIECES
10
1535.875359
20
95
30
0
0
VERTEX
8
PIECES
10
1787.273677
20
95
30
0
0
SEQEND
8
PIECES
0
TEXT
8
TEXT
10
1661.574518
20
57.5
30
0
40
15
1
T - LEAF TOP P5 L251.4 x95
72
1
11
1661.574518
21
57.5
31
0
73
2
0
TEXT
8
TEXT
10
1661.574518
20
10
30
0
40
10
1
OUT 221.4 IN 192.7 CUT J8.6/J8.6 FINGER BOTH ENDS
72
1
11
1661.574518
21
10
31
0
73
2
0
POLYLINE
8
PIECES
66
1
70
1
10
0
20
0
30
0
0
VERTEX
8
PIECES
10
2224.303622
20
0
30
0
0
VERTEX
8
PIECES
10
2001.642049
20
0
30
0
0
VERTEX
8
PIECES
10
1987.273677
20
95
30
0
0
VERTEX
8
PIECES
10
2238.671994
20
95
30
0
0
SEQEND
8
PIECES
0
TEXT
8
TEXT
10
2112.972835
20
57.5
30
0
40
15
1
T - LEAF TOP P6 L251.4 x95
72
1
11
2112.972835
21
57.5
31
0
73
2
0
TEXT
8
TEXT
10
2112.972835
20
10
30
0
40
10
1
OUT 221.4 IN 192.7 CUT J8.6/J8.6 FINGER BOTH ENDS
72
1
11
2112.972835
21
10
31
0
73
2
0
POLYLINE
8
PIECES
66
1
70
1
10
0
20
0
30
0
0
VERTEX
8
PIECES
10
2675.701939
20
0
30
0
0
VERTEX
8
PIECES
10
2453.040366
20
0
30
0
0
VERTEX
8
PIECES
10
2438.671994
20
95
30
0
0
VERTEX
8
PIECES
10
2690.070311
20
95
30
0
0
SEQEND
8
PIECES
0
TEXT
8
TEXT
10
2564.371153
20
57.5
30
0
40
15
1
T - LEAF TOP P7 L251.4 x95
72
1
11
2564.371153
21
57.5
31
0
73
2
0
TEXT
8
TEXT
10
2564.371153
20
10
30
0
40
10
1
OUT 221.4 IN 192.7 CUT J8.6/J8.6 FINGER BOTH ENDS
72
1
11
2564.371153
21
10
31
0
73
2
0
POLYLINE
8
PIECES
66
1
70
1
10
0
20
0
30
0
0
VERTEX
8
PIECES
10
2994.350886
20
0
30
0
0
VERTEX
8
PIECES
10
2909.829099
20
0
30
0
0
VERTEX
8
PIECES
10
2890.070311
20
95
30
0
0
VERTEX
8
PIECES
10
3014.109674
20
95
30
0
0
SEQEND
8
PIECES
0
TEXT
8
TEXT
10
2952.089992
20
57.5
30
0
40
15
1
T - LEAF TOP P8 L124 x95
72
1
11
2952.089992
21
57.5
31
0
73
2
0
TEXT
8
TEXT
10
2952.089992
20
10
30
0
40
10
1
OUT 94 IN 54.5 CUT J11.7/J11.7 FINGER BOTH ENDS
72
1
11
2952.089992
21
10
31
0
73
2
0
POLYLINE
8
PIECES
66
1
70
1
10
0
20
0
30
0
0
VERTEX
8
PIECES
10
3303.390248
20
0
30
0
0
VERTEX
8
PIECES
10
3233.868462
20
0
30
0
0
VERTEX
8
PIECES
10
3214.109674
20
95
30
0
0
VERTEX
8
PIECES
10
3323.149036
20
95
30
0
0
SEQEND
8
PIECES
0
TEXT
8
TEXT
10
3268.629355
20
57.5
30
0
40
15
1
T - LEAF TOP P9 L109 x95
72
1
11
3268.629355
21
57.5
31
0
73
2
0
TEXT
8
TEXT
10
3268.629355
20
10
30
0
40
10
1
OUT 94 IN 54.5 CUT S78.3/J11.7 FINGER ONE END
72
1
11
3268.629355
21
10
31
0
73
2
0
POLYLINE
8
CONTOUR
66
1
70
1
10
0
20
0
30
0
0
VERTEX
8
CONTOUR
10
1137.408007
20
295
30
0
42
0.207987
0
VERTEX
8
CONTOUR
10
1069.522474
20
451.136725
30
0
42
0.393939
0
VERTEX
8
CONTOUR
10
85.29354
20
451.136725
30
0
42
0.207987
0
VERTEX
8
CONTOUR
10
17.408007
20
295
30
0
0
VERTEX
8
CONTOUR
10
84.408007
20
295
30
0
42
-0.207987
0
VERTEX
8
CONTOUR
10
130.989883
20
402.138315
30
0
42
-0.393939
0
VERTEX
8
CONTOUR
10
1023.826131
20
402.138315
30
0
42
-0.207987
0
VERTEX
8
CONTOUR
10
1070.408007
20
295
30
0
0
SEQEND
8
CONTOUR
0
POLYLINE
8
ASSEMBLY
66
1
70
1
10
0
20
0
30
0
0
VERTEX
8
ASSEMBLY
10
1057.78298
20
295
30
0
0
VERTEX
8
ASSEMBLY
10
1046.680736
20
348.379447
30
0
0
VERTEX
8
ASSEMBLY
10
1135.666826
20
387.069052
30
0
0
VERTEX
8
ASSEMBLY
10
1154.816014
20
295
30
0
0
SEQEND
8
ASSEMBLY
0
POLYLINE
8
FINGER
66
1
70
0
10
0
20
0
30
0
0
VERTEX
8
FINGER
10
1058.25877
20
353.413375
30
0
0
VERTEX
8
FINGER
10
1119.702464
20
380.128025
30
0
0
SEQEND
8
FINGER
0
POLYLINE
8
ASSEMBLY
66
1
70
1
10
0
20
0
30
0
0
VERTEX
8
ASSEMBLY
10
1046.680736
20
348.379447
30
0
0
VERTEX
8
ASSEMBLY
10
1015.215421
20
392.905386
30
0
0
VERTEX
8
ASSEMBLY
10
1081.395344
20
463.867541
30
0
0
VERTEX
8
ASSEMBLY
10
1135.666826
20
387.069052
30
0
0
SEQEND
8
ASSEMBLY
0
POLYLINE
8
FINGER
66
1
70
0
10
0
20
0
30
0
0
VERTEX
8
FINGER
10
1023.826131
20
402.138315
30
0
0
VERTEX
8
FINGER
10
1069.522474
20
451.136725
30
0
0
SEQEND
8
FINGER
0
POLYLINE
8
ASSEMBLY
66
1
70
1
10
0
20
0
30
0
0
VERTEX
8
ASSEMBLY
10
1016.746389
20
394.546982
30
0
0
VERTEX
8
ASSEMBLY
10
857.783084
20
503.400781
30
0
0
VERTEX
8
ASSEMBLY
10
899.602876
20
589.902545
30
0
0
VERTEX
8
ASSEMBLY
10
1082.276606
20
464.812484
30
0
0
SEQEND
8
ASSEMBLY
0
POLYLINE
8
FINGER
66
1
70
0
10
0
20
0
30
0
0
VERTEX
8
FINGER
10
862.301204
20
512.746244
30
0
0
VERTEX
8
FINGER
10
891.463499
20
573.066726
30
0
0
SEQEND
8
FINGER
0
POLYLINE
8
ASSEMBLY
66
1
70
1
10
0
20
0
30
0
0
VERTEX
8
ASSEMBLY
10
857.783084
20
503.400781
30
0
0
VERTEX
8
ASSEMBLY
10
673.738793
20
560.376045
30
0
0
VERTEX
8
ASSEMBLY
10
688.107166
20
655.376045
30
0
0
VERTEX
8
ASSEMBLY
10
899.602876
20
589.902545
30
0
0
SEQEND
8
ASSEMBLY
0
POLYLINE
8
FINGER
66
1
70
0
10
0
20
0
30
0
0
VERTEX
8
FINGER
10
675.291121
20
570.639639
30
0
0
VERTEX
8
FINGER
10
685.310653
20
636.886216
30
0
0
SEQEND
8
FINGER
0
POLYLINE
8
ASSEMBLY
66
1
70
1
10
0
20
0
30
0
0
VERTEX
8
ASSEMBLY
10
673.738793
20
560.376045
30
0
0
VERTEX
8
ASSEMBLY
10
481.077221
20
560.376045
30
0
0
VERTEX
8
ASSEMBLY
10
466.708848
20
655.376045
30
0
0
VERTEX
8
ASSEMBLY
10
688.107166
20
655.376045
30
0
0
SEQEND
8
ASSEMBLY
0
POLYLINE
8
FINGER
66
1
70
0
10
0
20
0
30
0
0
VERTEX
8
FINGER
10
479.524893
20
570.639639
30
0
0
VERTEX
8
FINGER
10
469.505362
20
636.886216
30
0
0
SEQEND
8
FINGER
0
POLYLINE
8
ASSEMBLY
66
1
70
1
10
0
20
0
30
0
0
VERTEX
8
ASSEMBLY
10
481.077221
20
560.376045
30
0
0
VERTEX
8
ASSEMBLY
10
297.03293
20
503.400781
30
0
0
VERTEX
8
ASSEMBLY
10
255.213138
20
589.902545
30
0
0
VERTEX
8
ASSEMBLY
10
466.708848
20
655.376045
30
0
0
SEQEND
8
ASSEMBLY
0
POLYLINE
8
FINGER
66
1
70
0
10
0
20
0
30
0
0
VERTEX
8
FINGER
10
292.51481
20
512.746244
30
0
0
VERTEX
8
FINGER
10
263.352515
20
573.066726
30
0
0
SEQEND
8
FINGER
0
POLYLINE
8
ASSEMBLY
66
1
70
1
10
0
20
0
30
0
0
VERTEX
8
ASSEMBLY
10
297.03293
20
503.400781
30
0
0
VERTEX
8
ASSEMBLY
10
138.069626
20
394.546982
30
0
0
VERTEX
8
ASSEMBLY
10
72.539408
20
464.812484
30
0
0
VERTEX
8
ASSEMBLY
10
255.213138
20
589.902545
30
0
0
SEQEND
8
ASSEMBLY
0
POLYLINE
8
FINGER
66
1
70
0
10
0
20
0
30
0
0
VERTEX
8
FINGER
10
130.989883
20
402.138315
30
0
0
VERTEX
8
FINGER
10
85.29354
20
451.136725
30
0
0
SEQEND
8
FINGER
0
POLYLINE
8
ASSEMBLY
66
1
70
1
10
0
20
0
30
0
0
VERTEX
8
ASSEMBLY
10
139.600593
20
392.905386
30
0
0
VERTEX
8
ASSEMBLY
10
108.135278
20
348.379447
30
0
0
VERTEX
8
ASSEMBLY
10
19.149188
20
387.069052
30
0
0
VERTEX
8
ASSEMBLY
10
73.42067
20
463.867541
30
0
0
SEQEND
8
ASSEMBLY
0
POLYLINE
8
FINGER
66
1
70
0
10
0
20
0
30
0
0
VERTEX
8
FINGER
10
96.557244
20
353.413375
30
0
0
VERTEX
8
FINGER
10
35.11355
20
380.128025
30
0
0
SEQEND
8
FINGER
0
POLYLINE
8
ASSEMBLY
66
1
70
1
10
0
20
0
30
0
0
VERTEX
8
ASSEMBLY
10
108.135278
20
348.379447
30
0
0
VERTEX
8
ASSEMBLY
10
97.033034
20
295
30
0
0
VERTEX
8
ASSEMBLY
10
0
20
295
30
0
0
VERTEX
8
ASSEMBLY
10
19.149188
20
387.069052
30
0
0
SEQEND
8
ASSEMBLY
0
TEXT
8
TEXT
10
1254.816014
20
636.876045
30
0
40
15
1
T - LEAF TOP
72
0
11
1254.816014
21
636.876045
31
0
73
0
0
TEXT
8
TEXT
10
1254.816014
20
614.876045
30
0
40
15
1
THREE-CENTRE W1200 RISE390 H2000 HINGE R
72
0
11
1254.816014
21
614.876045
31
0
73
0
0
TEXT
8
TEXT
10
1254.816014
20
592.876045
30
0
40
15
1
FACE 67 OFFSET 40 OUTER L1433.3 INNER L1222.9
72
0
11
1254.816014
21
592.876045
31
0
73
0
0
TEXT
8
TEXT
10
1254.816014
20
570.876045
30
0
40
15
1
ARC 1 R213.5 L175.1 47DEG: 2 x board 95 L94 ROUGH 124
72
0
11
1254.816014
21
570.876045
31
0
73
0
0
TEXT
8
TEXT
10
1254.816014
20
548.876045
30
0
40
15
1
ARC 2 R721.5 L1083.1 86DEG: 5 x board 95 L221.4 ROUGH 251.4 (ALT 3 x board 180)
72
0
11
1254.816014
21
548.876045
31
0
73
0
0
TEXT
8
TEXT
10
1254.816014
20
526.876045
30
0
40
15
1
ARC 3 R213.5 L175.1 47DEG: 2 x board 95 L94 ROUGH 124
72
0
11
1254.816014
21
526.876045
31
0
73
0
0
TEXT
8
TEXT
10
1254.816014
20
504.876045
30
0
40
15
1
FINGER 15/16/3.8
72
0
11
1254.816014
21
504.876045
31
0
73
0
0
TEXT
8
TEXT
10
1254.816014
20
482.876045
30
0
40
15
1
ALLOWANCE 10 PER SIDE  MAX SEGMENT 36 DEG  RULE NARROWEST
72
0
11
1254.816014
21
482.876045
31
0
73
0
0
TEXT
8
TEXT
10
1254.816014
20
460.876045
30
0
40
15
1
CUT CODES: J = JOINT FROM SQUARE  S = ARCH-START, AXIS TO HORIZONTAL  A = APEX FROM SQUARE
72
0
11
1254.816014
21
460.876045
31
0
73
0
0
POLYLINE
8
PIECES
66
1
70
1
10
0
20
0
30
0
0
VERTEX
8
PIECES
10
107.781539
20
855.376045
30
0
0
VERTEX
8
PIECES
10
19.758788
20
855.376045
30
0
0
VERTEX
8
PIECES
10
0
20
950.376045
30
0
0
VERTEX
8
PIECES
10
127.540327
20
950.376045
30
0
0
SEQEND
8
PIECES
0
TEXT
8
TEXT
10
63.770163
20
912.876045
30
0
40
15
1
T - FRAME HEAD P1 L127.5 x95
72
1
11
63.770163
21
912.876045
31
0
73
2
0
TEXT
8
TEXT
10
63.770163
20
865.376045
30
0
40
10
1
OUT 112.5 IN 73 CUT J11.7/S78.3 FINGER ONE END
72
1
11
63.770163
21
865.376045
31
0
73
2
0
POLYLINE
8
PIECES
66
1
70
1
10
0
20
0
30
0
0
VERTEX
8
PIECES
10
450.321866
20
855.376045
30
0
0
VERTEX
8
PIECES
10
347.299115
20
855.376045
30
0
0
VERTEX
8
PIECES
10
327.540327
20
950.376045
30
0
0
VERTEX
8
PIECES
10
470.080654
20
950.376045
30
0
0
SEQEND
8
PIECES
0
TEXT
8
TEXT
10
398.81049
20
912.876045
30
0
40
15
1
T - FRAME HEAD P2 L142.5 x95
72
1
11
398.81049
21
912.876045
31
0
73
2
0
TEXT
8
TEXT
10
398.81049
20
865.376045
30
0
40
10
1
OUT 112.5 IN 73 CUT J11.7/J11.7 FINGER BOTH ENDS
72
1
11
398.81049
21
865.376045
31
0
73
2
0
POLYLINE
8
PIECES
66
1
70
1
10
0
20
0
30
0
0
VERTEX
8
PIECES
10
976.128471
20
855.376045
30
0
0
VERTEX
8
PIECES
10
688.118199
20
855.376045
30
0
0
VERTEX
8
PIECES
10
670.080654
20
950.376045
30
0
0
VERTEX
8
PIECES
10
994.166016
20
950.376045
30
0
0
SEQEND
8
PIECES
0
TEXT
8
TEXT
10
832.123335
20
912.876045
30
0
40
15
1
T - FRAME HEAD P3 L324.1 x95
72
1
11
832.123335
21
912.876045
31
0
73
2
0
TEXT
8
TEXT
10
832.123335
20
865.376045
30
0
40
10
1
OUT 294.1 IN 258 CUT J10.8/J10.8 FINGER BOTH ENDS
72
1
11
832.123335
21
865.376045
31
0
73
2
0
POLYLINE
8
PIECES
66
1
70
1
10
0
20
0
30
0
0
VERTEX
8
PIECES
10
1500.213833
20
855.376045
30
0
0
VERTEX
8
PIECES
10
1212.203562
20
855.376045
30
0
0
VERTEX
8
PIECES
10
1194.166016
20
950.376045
30
0
0
VERTEX
8
PIECES
10
1518.251379
20
950.376045
30
0
0
SEQEND
8
PIECES
0
TEXT
8
TEXT
10
1356.208698
20
912.876045
30
0
40
15
1
T - FRAME HEAD P4 L324.1 x95
72
1
11
1356.208698
21
912.876045
31
0
73
2
0
TEXT
8
TEXT
10
1356.208698
20
865.376045
30
0
40
10
1
OUT 294.1 IN 258 CUT J10.8/J10.8 FINGER BOTH ENDS
72
1
11
1356.208698
21
865.376045
31
0
73
2
0
POLYLINE
8
PIECES
66
1
70
1
10
0
20
0
30
0
0
VERTEX
8
PIECES
10
2024.299196
20
855.376045
30
0
0
VERTEX
8
PIECES
10
1736.288924
20
855.376045
30
0
0
VERTEX
8
PIECES
10
1718.251379
20
950.376045
30
0
0
VERTEX
8
PIECES
10
2042.336741
20
950.376045
30
0
0
SEQEND
8
PIECES
0
TEXT
8
TEXT
10
1880.29406
20
912.876045
30
0
40
15
1
T - FRAME HEAD P5 L324.1 x95
72
1
11
1880.29406
21
912.876045
31
0
73
2
0
TEXT
8
TEXT
10
1880.29406
20
865.376045
30
0
40
10
1
OUT 294.1 IN 258 CUT J10.8/J10.8 FINGER BOTH ENDS
72
1
11
1880.29406
21
865.376045
31
0
73
2
0
POLYLINE
8
PIECES
66
1
70
1
10
0
20
0
30
0
0
VERTEX
8
PIECES
10
2548.384558
20
855.376045
30
0
0
VERTEX
8
PIECES
10
2260.374287
20
855.376045
30
0
0
VERTEX
8
PIECES
10
2242.336741
20
950.376045
30
0
0
VERTEX
8
PIECES
10
2566.422104
20
950.376045
30
0
0
SEQEND
8
PIECES
0
TEXT
8
TEXT
10
2404.379423
20
912.876045
30
0
40
15
1
T - FRAME HEAD P6 L324.1 x95
72
1
11
2404.379423
21
912.876045
31
0
73
2
0
TEXT
8
TEXT
10
2404.379423
20
865.376045
30
0
40
10
1
OUT 294.1 IN 258 CUT J10.8/J10.8 FINGER BOTH ENDS
72
1
11
2404.379423
21
865.376045
31
0
73
2
0
POLYLINE
8
PIECES
66
1
70
1
10
0
20
0
30
0
0
VERTEX
8
PIECES
10
2889.203643
20
855.376045
30
0
0
VERTEX
8
PIECES
10
2786.180892
20
855.376045
30
0
0
VERTEX
8
PIECES
10
2766.422104
20
950.376045
30
0
0
VERTEX
8
PIECES
10
2908.962431
20
950.376045
30
0
0
SEQEND
8
PIECES
0
TEXT
8
TEXT
10
2837.692267
20
912.876045
30
0
40
15
1
T - FRAME HEAD P7 L142.5 x95
72
1
11
2837.692267
21
912.876045
31
0
73
2
0
TEXT
8
TEXT
10
2837.692267
20
865.376045
30
0
40
10
1
OUT 112.5 IN 73 CUT J11.7/J11.7 FINGER BOTH ENDS
72
1
11
2837.692267
21
865.376045
31
0
73
2
0
POLYLINE
8
PIECES
66
1
70
1
10
0
20
0
30
0
0
VERTEX
8
PIECES
10
3216.74397
20
855.376045
30
0
0
VERTEX
8
PIECES
10
3128.721219
20
855.376045
30
0
0
VERTEX
8
PIECES
10
3108.962431
20
950.376045
30
0
0
VERTEX
8
PIECES
10
3236.502758
20
950.376045
30
0
0
SEQEND
8
PIECES
0
TEXT
8
TEXT
10
3172.732594
20
912.876045
30
0
40
15
1
T - FRAME HEAD P8 L127.5 x95
72
1
11
3172.732594
21
912.876045
31
0
73
2
0
TEXT
8
TEXT
10
3172.732594
20
865.376045
30
0
40
10
1
OUT 112.5 IN 73 CUT S78.3/J11.7 FINGER ONE END
72
1
11
3172.732594
21
865.376045
31
0
73
2
0
POLYLINE
8
CONTOUR
66
1
70
1
10
0
20
0
30
0
0
VERTEX
8
CONTOUR
10
1222.836014
20
1150.376045
30
0
42
0.207987
0
VERTEX
8
CONTOUR
10
1142.231881
20
1335.765552
30
0
42
0.393939
0
VERTEX
8
CONTOUR
10
103.440148
20
1335.765552
30
0
42
0.207987
0
VERTEX
8
CONTOUR
10
22.836014
20
1150.376045
30
0
0
VERTEX
8
CONTOUR
10
79.836014
20
1150.376045
30
0
42
-0.207987
0
VERTEX
8
CONTOUR
10
142.316141
20
1294.080338
30
0
42
-0.393939
0
VERTEX
8
CONTOUR
10
1103.355887
20
1294.080338
30
0
42
-0.207987
0
VERTEX
8
CONTOUR
10
1165.836014
20
1150.376045
30
0
0
SEQEND
8
CONTOUR
0
POLYLINE
8
ASSEMBLY
66
1
70
1
10
0
20
0
30
0
0
VERTEX
8
ASSEMBLY
10
1148.638994
20
1150.376045
30
0
0
VERTEX
8
ASSEMBLY
10
1133.769408
20
1221.868825
30
0
0
VERTEX
8
ASSEMBLY
10
1222.755498
20
1260.558429
30
0
0
VERTEX
8
ASSEMBLY
10
1245.672029
20
1150.376045
30
0
0
SEQEND
8
ASSEMBLY
0
POLYLINE
8
FINGER
66
1
70
0
10
0
20
0
30
0
0
VERTEX
8
FINGER
10
1149.54028
20
1228.725726
30
0
0
VERTEX
8
FINGER
10
1201.813274
20
1251.453114
30
0
0
SEQEND
8
FINGER
0
POLYLINE
8
ASSEMBLY
66
1
70
1
10
0
20
0
30
0
0
VERTEX
8
ASSEMBLY
10
1133.769408
20
1221.868825
30
0
0
VERTEX
8
ASSEMBLY
10
1091.626918
20
1281.503821
30
0
0
VERTEX
8
ASSEMBLY
10
1157.806841
20
1352.465976
30
0
0
VERTEX
8
ASSEMBLY
10
1222.755498
20
1260.558429
30
0
0
SEQEND
8
ASSEMBLY
0
POLYLINE
8
FINGER
66
1
70
0
10
0
20
0
30
0
0
VERTEX
8
FINGER
10
1103.355887
20
1294.080338
30
0
0
VERTEX
8
FINGER
10
1142.231881
20
1335.765552
30
0
0
SEQEND
8
FINGER
0
POLYLINE
8
ASSEMBLY
66
1
70
1
10
0
20
0
30
0
0
VERTEX
8
ASSEMBLY
10
1094.519001
20
1284.604888
30
0
0
VERTEX
8
ASSEMBLY
10
876.317706
20
1422.291108
30
0
0
VERTEX
8
ASSEMBLY
10
911.759609
20
1512.259016
30
0
0
VERTEX
8
ASSEMBLY
10
1160.469889
20
1355.321459
30
0
0
SEQEND
8
ASSEMBLY
0
POLYLINE
8
FINGER
66
1
70
0
10
0
20
0
30
0
0
VERTEX
8
FINGER
10
881.066635
20
1434.346081
30
0
0
VERTEX
8
FINGER
10
901.958532
20
1487.37936
30
0
0
SEQEND
8
FINGER
0
POLYLINE
8
ASSEMBLY
66
1
70
1
10
0
20
0
30
0
0
VERTEX
8
ASSEMBLY
10
876.317706
20
1422.291108
30
0
0
VERTEX
8
ASSEMBLY
10
622.836014
20
1470.419398
30
0
0
VERTEX
8
ASSEMBLY
10
622.836014
20
1567.116621
30
0
0
VERTEX
8
ASSEMBLY
10
911.759609
20
1512.259016
30
0
0
SEQEND
8
ASSEMBLY
0
POLYLINE
8
FINGER
66
1
70
0
10
0
20
0
30
0
0
VERTEX
8
FINGER
10
622.836014
20
1483.376045
30
0
0
VERTEX
8
FINGER
10
622.836014
20
1540.376045
30
0
0
SEQEND
8
FINGER
0
POLYLINE
8
ASSEMBLY
66
1
70
1
10
0
20
0
30
0
0
VERTEX
8
ASSEMBLY
10
622.836014
20
1470.419398
30
0
0
VERTEX
8
ASSEMBLY
10
369.354323
20
1422.291108
30
0
0
VERTEX
8
ASSEMBLY
10
333.91242
20
1512.259016
30
0
0
VERTEX
8
ASSEMBLY
10
622.836014
20
1567.116621
30
0
0
SEQEND
8
ASSEMBLY
0
POLYLINE
8
FINGER
66
1
70
0
10
0
20
0
30
0
0
VERTEX
8
FINGER
10
364.605394
20
1434.346081
30
0
0
VERTEX
8
FINGER
10
343.713496
20
1487.37936
30
0
0
SEQEND
8
FINGER
0
POLYLINE
8
ASSEMBLY
66
1
70
1
10
0
20
0
30
0
0
VERTEX
8
ASSEMBLY
10
369.354323
20
1422.291108
30
0
0
VERTEX
8
ASSEMBLY
10
151.153028
20
1284.604888
30
0
0
VERTEX
8
ASSEMBLY
10
85.202139
20
1355.321459
30
0
0
VERTEX
8
ASSEMBLY
10
333.91242
20
1512.259016
30
0
0
SEQEND
8
ASSEMBLY
0
POLYLINE
8
FINGER
66
1
70
0
10
0
20
0
30
0
0
VERTEX
8
FINGER
10
142.316141
20
1294.080338
30
0
0
VERTEX
8
FINGER
10
103.440148
20
1335.765552
30
0
0
SEQEND
8
FINGER
0
POLYLINE
8
ASSEMBLY
66
1
70
1
10
0
20
0
30
0
0
VERTEX
8
ASSEMBLY
10
154.04511
20
1281.503821
30
0
0
VERTEX
8
ASSEMBLY
10
111.90262
20
1221.868825
30
0
0
VERTEX
8
ASSEMBLY
10
22.91653
20
1260.558429
30
0
0
VERTEX
8
ASSEMBLY
10
87.865187
20
1352.465976
30
0
0
SEQEND
8
ASSEMBLY
0
POLYLINE
8
FINGER
66
1
70
0
10
0
20
0
30
0
0
VERTEX
8
FINGER
10
96.131748
20
1228.725726
30
0
0
VERTEX
8
FINGER
10
43.858755
20
1251.453114
30
0
0
SEQEND
8
FINGER
0
POLYLINE
8
ASSEMBLY
66
1
70
1
10
0
20
0
30
0
0
VERTEX
8
ASSEMBLY
10
111.90262
20
1221.868825
30
0
0
VERTEX
8
ASSEMBLY
10
97.033034
20
1150.376045
30
0
0
VERTEX
8
ASSEMBLY
10
0
20
1150.376045
30
0
0
VERTEX
8
ASSEMBLY
10
22.91653
20
1260.558429
30
0
0
SEQEND
8
ASSEMBLY
0
TEXT
8
TEXT
10
1345.672029
20
1548.616621
30
0
40
15
1
T - FRAME HEAD
72
0
11
1345.672029
21
1548.616621
31
0
73
0
0
TEXT
8
TEXT
10
1345.672029
20
1526.616621
30
0
40
15
1
THREE-CENTRE W1200 RISE390 H2000 HINGE R
72
0
11
1345.672029
21
1526.616621
31
0
73
0
0
TEXT
8
TEXT
10
1345.672029
20
1504.616621
30
0
40
15
1
FACE 57 OFFSET 0 OUTER L1559 INNER L1379.9
72
0
11
1345.672029
21
1504.616621
31
0
73
0
0
TEXT
8
TEXT
10
1345.672029
20
1482.616621
30
0
40
15
1
ARC 1 R253.5 L207.9 47DEG: 2 x board 95 L112.5 ROUGH 142.5
72
0
11
1345.672029
21
1482.616621
31
0
73
0
0
TEXT
8
TEXT
10
1345.672029
20
1460.616621
30
0
40
15
1
ARC 2 R761.5 L1143.1 86DEG: 4 x board 95 L294.1 ROUGH 324.1 (ALT 3 x board 105)
72
0
11
1345.672029
21
1460.616621
31
0
73
0
0
TEXT
8
TEXT
10
1345.672029
20
1438.616621
30
0
40
15
1
ARC 3 R253.5 L207.9 47DEG: 2 x board 95 L112.5 ROUGH 142.5
72
0
11
1345.672029
21
1438.616621
31
0
73
0
0
TEXT
8
TEXT
10
1345.672029
20
1416.616621
30
0
40
15
1
FINGER 15/16/3.8
72
0
11
1345.672029
21
1416.616621
31
0
73
0
0
TEXT
8
TEXT
10
1345.672029
20
1394.616621
30
0
40
15
1
ALLOWANCE 10 PER SIDE  MAX SEGMENT 36 DEG  RULE NARROWEST
72
0
11
1345.672029
21
1394.616621
31
0
73
0
0
TEXT
8
TEXT
10
1345.672029
20
1372.616621
30
0
40
15
1
CUT CODES: J = JOINT FROM SQUARE  S = ARCH-START, AXIS TO HORIZONTAL  A = APEX FROM SQUARE
72
0
11
1345.672029
21
1372.616621
31
0
73
0
0
POLYLINE
8
FIT
66
1
70
1
10
0
20
0
30
0
0
VERTEX
8
FIT
10
1200
20
1767.116621
30
0
42
0.207987
0
VERTEX
8
FIT
10
1119.395866
20
1952.506129
30
0
42
0.393939
0
VERTEX
8
FIT
10
80.604134
20
1952.506129
30
0
42
0.207987
0
VERTEX
8
FIT
10
0
20
1767.116621
30
0
0
VERTEX
8
FIT
10
57
20
1767.116621
30
0
42
-0.207987
0
VERTEX
8
FIT
10
119.480127
20
1910.820914
30
0
42
-0.393939
0
VERTEX
8
FIT
10
1080.519873
20
1910.820914
30
0
42
-0.207987
0
VERTEX
8
FIT
10
1143
20
1767.116621
30
0
0
SEQEND
8
FIT
0
POLYLINE
8
FIT
66
1
70
1
10
0
20
0
30
0
0
VERTEX
8
FIT
10
1160
20
1767.116621
30
0
42
0.207987
0
VERTEX
8
FIT
10
1092.114467
20
1923.253346
30
0
42
0.393939
0
VERTEX
8
FIT
10
107.885533
20
1923.253346
30
0
42
0.207987
0
VERTEX
8
FIT
10
40
20
1767.116621
30
0
0
VERTEX
8
FIT
10
107
20
1767.116621
30
0
42
-0.207987
0
VERTEX
8
FIT
10
153.581876
20
1874.254936
30
0
42
-0.393939
0
VERTEX
8
FIT
10
1046.418124
20
1874.254936
30
0
42
-0.207987
0
VERTEX
8
FIT
10
1093
20
1767.116621
30
0
0
SEQEND
8
FIT
0
POLYLINE
8
FIT
66
1
70
1
10
0
20
0
30
0
0
VERTEX
8
FIT
10
1105.5
20
1767.116621
30
0
42
0.207987
0
VERTEX
8
FIT
10
1054.943561
20
1883.396431
30
0
42
0.393939
0
VERTEX
8
FIT
10
145.056439
20
1883.396431
30
0
42
0.207987
0
VERTEX
8
FIT
10
94.5
20
1767.116621
30
0
0
SEQEND
8
FIT
0
POLYLINE
8
FIT
66
1
70
0
10
0
20
0
30
0
0
VERTEX
8
FIT
10
1164
20
1767.116621
30
0
42
0.022993
0
VERTEX
8
FIT
10
1163.081108
20
1787.088448
30
0
0
SEQEND
8
FIT
0
POLYLINE
8
FIT
66
1
70
0
10
0
20
0
30
0
0
VERTEX
8
FIT
10
1161.934313
20
1797.021587
30
0
42
0.022993
0
VERTEX
8
FIT
10
1158.278139
20
1816.677391
30
0
0
SEQEND
8
FIT
0
POLYLINE
8
FIT
66
1
70
0
10
0
20
0
30
0
0
VERTEX
8
FIT
10
1155.776488
20
1826.358513
30
0
42
0.022993
0
VERTEX
8
FIT
10
1149.452481
20
1845.324935
30
0
0
SEQEND
8
FIT
0
POLYLINE
8
FIT
66
1
70
0
10
0
20
0
30
0
0
VERTEX
8
FIT
10
1145.643492
20
1854.570149
30
0
42
0.022993
0
VERTEX
8
FIT
10
1136.771776
20
1872.486926
30
0
0
SEQEND
8
FIT
0
POLYLINE
8
FIT
66
1
70
0
10
0
20
0
30
0
0
VERTEX
8
FIT
10
1131.7278
20
1881.120621
30
0
42
0.022993
0
VERTEX
8
FIT
10
1120.476892
20
1897.647426
30
0
0
SEQEND
8
FIT
0
POLYLINE
8
FIT
66
1
70
0
10
0
20
0
30
0
0
VERTEX
8
FIT
10
1114.293739
20
1905.505607
30
0
42
0.022993
0
VERTEX
8
FIT
10
1100.877347
20
1920.328517
30
0
0
SEQEND
8
FIT
0
POLYLINE
8
FIT
66
1
70
0
10
0
20
0
30
0
0
VERTEX
8
FIT
10
1094.842607
20
1926.178625
30
0
42
0.006892
0
VERTEX
8
FIT
10
1080.030072
20
1939.616016
30
0
0
SEQEND
8
FIT
0
POLYLINE
8
FIT
66
1
70
0
10
0
20
0
30
0
0
VERTEX
8
FIT
10
1072.486314
20
1946.180323
30
0
42
0.006892
0
VERTEX
8
FIT
10
1057.130981
20
1958.993926
30
0
0
SEQEND
8
FIT
0
POLYLINE
8
FIT
66
1
70
0
10
0
20
0
30
0
0
VERTEX
8
FIT
10
1049.322323
20
1965.240787
30
0
42
0.006892
0
VERTEX
8
FIT
10
1033.450441
20
1977.408697
30
0
0
SEQEND
8
FIT
0
POLYLINE
8
FIT
66
1
70
0
10
0
20
0
30
0
0
VERTEX
8
FIT
10
1025.390232
20
1983.327434
30
0
42
0.006892
0
VERTEX
8
FIT
10
1009.028934
20
1994.828851
30
0
0
SEQEND
8
FIT
0
POLYLINE
8
FIT
66
1
70
0
10
0
20
0
30
0
0
VERTEX
8
FIT
10
1000.730952
20
2000.409345
30
0
42
0.006892
0
VERTEX
8
FIT
10
983.908206
20
2011.224607
30
0
0
SEQEND
8
FIT
0
POLYLINE
8
FIT
66
1
70
0
10
0
20
0
30
0
0
VERTEX
8
FIT
10
975.386637
20
2016.45732
30
0
42
0.006892
0
VERTEX
8
FIT
10
958.131202
20
2026.567939
30
0
0
SEQEND
8
FIT
0
POLYLINE
8
FIT
66
1
70
0
10
0
20
0
30
0
0
VERTEX
8
FIT
10
949.400613
20
2031.443925
30
0
42
0.006892
0
VERTEX
8
FIT
10
931.741985
20
2040.832617
30
0
0
SEQEND
8
FIT
0
POLYLINE
8
FIT
66
1
70
0
10
0
20
0
30
0
0
VERTEX
8
FIT
10
922.817301
20
2045.34354
30
0
42
0.006892
0
VERTEX
8
FIT
10
904.785668
20
2053.994256
30
0
0
SEQEND
8
FIT
0
POLYLINE
8
FIT
66
1
70
0
10
0
20
0
30
0
0
VERTEX
8
FIT
10
895.682145
20
2058.132405
30
0
42
0.006892
0
VERTEX
8
FIT
10
877.308331
20
2066.030357
30
0
0
SEQEND
8
FIT
0
POLYLINE
8
FIT
66
1
70
0
10
0
20
0
30
0
0
VERTEX
8
FIT
10
868.041531
20
2069.788659
30
0
42
0.006892
0
VERTEX
8
FIT
10
849.356946
20
2076.920345
30
0
0
SEQEND
8
FIT
0
POLYLINE
8
FIT
66
1
70
0
10
0
20
0
30
0
0
VERTEX
8
FIT
10
839.94271
20
2080.292374
30
0
42
0.006892
0
VERTEX
8
FIT
10
820.979294
20
2086.645603
30
0
0
SEQEND
8
FIT
0
POLYLINE
8
FIT
66
1
70
0
10
0
20
0
30
0
0
VERTEX
8
FIT
10
811.433716
20
2089.625596
30
0
42
0.006892
0
VERTEX
8
FIT
10
792.223886
20
2095.189507
30
0
0
SEQEND
8
FIT
0
POLYLINE
8
FIT
66
1
70
0
10
0
20
0
30
0
0
VERTEX
8
FIT
10
782.563283
20
2097.772369
30
0
42
0.006892
0
VERTEX
8
FIT
10
763.139878
20
2102.537451
30
0
0
SEQEND
8
FIT
0
POLYLINE
8
FIT
66
1
70
0
10
0
20
0
30
0
0
VERTEX
8
FIT
10
753.380766
20
2104.718766
30
0
42
0.006892
0
VERTEX
8
FIT
10
733.776989
20
2108.676874
30
0
0
SEQEND
8
FIT
0
POLYLINE
8
FIT
66
1
70
0
10
0
20
0
30
0
0
VERTEX
8
FIT
10
723.936049
20
2110.452915
30
0
42
0.006892
0
VERTEX
8
FIT
10
704.185413
20
2113.597281
30
0
0
SEQEND
8
FIT
0
POLYLINE
8
FIT
66
1
70
0
10
0
20
0
30
0
0
VERTEX
8
FIT
10
694.279469
20
2114.965011
30
0
42
0.006892
0
VERTEX
8
FIT
10
674.415736
20
2117.290261
30
0
0
SEQEND
8
FIT
0
POLYLINE
8
FIT
66
1
70
0
10
0
20
0
30
0
0
VERTEX
8
FIT
10
664.461721
20
2118.247341
30
0
42
0.006892
0
VERTEX
8
FIT
10
644.518848
20
2119.749501
30
0
0
SEQEND
8
FIT
0
POLYLINE
8
FIT
66
1
70
0
10
0
20
0
30
0
0
VERTEX
8
FIT
10
634.533778
20
2120.294296
30
0
42
0.006892
0
VERTEX
8
FIT
10
614.545856
20
2120.970796
30
0
0
SEQEND
8
FIT
0
POLYLINE
8
FIT
66
1
70
0
10
0
20
0
30
0
0
VERTEX
8
FIT
10
604.546801
20
2121.102374
30
0
42
0.006892
0
VERTEX
8
FIT
10
584.547999
20
2120.95206
30
0
0
SEQEND
8
FIT
0
POLYLINE
8
FIT
66
1
70
0
10
0
20
0
30
0
0
VERTEX
8
FIT
10
574.552052
20
2120.670196
30
0
42
0.006892
0
VERTEX
8
FIT
10
554.576557
20
2119.693323
30
0
0
SEQEND
8
FIT
0
POLYLINE
8
FIT
66
1
70
0
10
0
20
0
30
0
0
VERTEX
8
FIT
10
544.600804
20
2118.9985
30
0
42
0.006892
0
VERTEX
8
FIT
10
524.682764
20
2117.196739
30
0
0
SEQEND
8
FIT
0
POLYLINE
8
FIT
66
1
70
0
10
0
20
0
30
0
0
VERTEX
8
FIT
10
514.74426
20
2116.090143
30
0
42
0.006892
0
VERTEX
8
FIT
10
494.917723
20
2113.466573
30
0
0
SEQEND
8
FIT
0
POLYLINE
8
FIT
66
1
70
0
10
0
20
0
30
0
0
VERTEX
8
FIT
10
485.033457
20
2111.950098
30
0
42
0.006892
0
VERTEX
8
FIT
10
465.332317
20
2108.509204
30
0
0
SEQEND
8
FIT
0
POLYLINE
8
FIT
66
1
70
0
10
0
20
0
30
0
0
VERTEX
8
FIT
10
455.519186
20
2106.585441
30
0
42
0.006892
0
VERTEX
8
FIT
10
435.97712
20
2102.333106
30
0
0
SEQEND
8
FIT
0
POLYLINE
8
FIT
66
1
70
0
10
0
20
0
30
0
0
VERTEX
8
FIT
10
426.251898
20
2100.005343
30
0
42
0.006892
0
VERTEX
8
FIT
10
406.902314
20
2094.948836
30
0
0
SEQEND
8
FIT
0
POLYLINE
8
FIT
66
1
70
0
10
0
20
0
30
0
0
VERTEX
8
FIT
10
397.281627
20
2092.221053
30
0
42
0.006892
0
VERTEX
8
FIT
10
378.157602
20
2086.369018
30
0
0
SEQEND
8
FIT
0
POLYLINE
8
FIT
66
1
70
0
10
0
20
0
30
0
0
VERTEX
8
FIT
10
368.657896
20
2083.245878
30
0
42
0.006892
0
VERTEX
8
FIT
10
349.792121
20
2076.608318
30
0
0
SEQEND
8
FIT
0
POLYLINE
8
FIT
66
1
70
0
10
0
20
0
30
0
0
VERTEX
8
FIT
10
340.429635
20
2073.095159
30
0
42
0.006892
0
VERTEX
8
FIT
10
321.854361
20
2065.683422
30
0
0
SEQEND
8
FIT
0
POLYLINE
8
FIT
66
1
70
0
10
0
20
0
30
0
0
VERTEX
8
FIT
10
312.6451
20
2061.786251
30
0
42
0.006892
0
VERTEX
8
FIT
10
294.39208
20
2053.613006
30
0
0
SEQEND
8
FIT
0
POLYLINE
8
FIT
66
1
70
0
10
0
20
0
30
0
0
VERTEX
8
FIT
10
285.351788
20
2049.338484
30
0
42
0.006892
0
VERTEX
8
FIT
10
267.452226
20
2040.417703
30
0
0
SEQEND
8
FIT
0
POLYLINE
8
FIT
66
1
70
0
10
0
20
0
30
0
0
VERTEX
8
FIT
10
258.596356
20
2035.773139
30
0
42
0.006892
0
VERTEX
8
FIT
10
241.080849
20
2026.120072
30
0
0
SEQEND
8
FIT
0
POLYLINE
8
FIT
66
1
70
0
10
0
20
0
30
0
0
VERTEX
8
FIT
10
232.42454
20
2021.113403
30
0
42
0.006892
0
VERTEX
8
FIT
10
215.323032
20
2010.744551
30
0
0
SEQEND
8
FIT
0
POLYLINE
8
FIT
66
1
70
0
10
0
20
0
30
0
0
VERTEX
8
FIT
10
206.881081
20
2005.384338
30
0
42
0.006892
0
VERTEX
8
FIT
10
190.222805
20
1994.317427
30
0
0
SEQEND
8
FIT
0
POLYLINE
8
FIT
66
1
70
0
10
0
20
0
30
0
0
VERTEX
8
FIT
10
182.009645
20
1988.612832
30
0
42
0.006892
0
VERTEX
8
FIT
10
165.823078
20
1976.86678
30
0
0
SEQEND
8
FIT
0
POLYLINE
8
FIT
66
1
70
0
10
0
20
0
30
0
0
VERTEX
8
FIT
10
157.852747
20
1970.827554
30
0
42
0.006892
0
VERTEX
8
FIT
10
142.16556
20
1958.422441
30
0
0
SEQEND
8
FIT
0
POLYLINE
8
FIT
66
1
70
0
10
0
20
0
30
0
0
VERTEX
8
FIT
10
134.451684
20
1952.05891
30
0
42
0.006892
0
VERTEX
8
FIT
10
119.290694
20
1939.015941
30
0
0
SEQEND
8
FIT
0
POLYLINE
8
FIT
66
1
70
0
10
0
20
0
30
0
0
VERTEX
8
FIT
10
111.846459
20
1932.338981
30
0
42
0.003133
0
VERTEX
8
FIT
10
105.157393
20
1926.178625
30
0
0
SEQEND
8
FIT
0
POLYLINE
8
FIT
66
1
70
0
10
0
20
0
30
0
0
VERTEX
8
FIT
10
105.157393
20
1926.178625
30
0
42
0.022993
0
VERTEX
8
FIT
10
91.178322
20
1911.885136
30
0
0
SEQEND
8
FIT
0
POLYLINE
8
FIT
66
1
70
0
10
0
20
0
30
0
0
VERTEX
8
FIT
10
84.696178
20
1904.271714
30
0
42
0.022993
0
VERTEX
8
FIT
10
72.815142
20
1888.191938
30
0
0
SEQEND
8
FIT
0
POLYLINE
8
FIT
66
1
70
0
10
0
20
0
30
0
0
VERTEX
8
FIT
10
67.441362
20
1879.759567
30
0
42
0.022993
0
VERTEX
8
FIT
10
57.88404
20
1862.198934
30
0
0
SEQEND
8
FIT
0
POLYLINE
8
FIT
66
1
70
0
10
0
20
0
30
0
0
VERTEX
8
FIT
10
53.720698
20
1853.107786
30
0
42
0.022993
0
VERTEX
8
FIT
10
46.668629
20
1834.399859
30
0
0
SEQEND
8
FIT
0
POLYLINE
8
FIT
66
1
70
0
10
0
20
0
30
0
0
VERTEX
8
FIT
10
43.794807
20
1824.822619
30
0
42
0.022993
0
VERTEX
8
FIT
10
39.381944
20
1805.32275
30
0
0
SEQEND
8
FIT
0
POLYLINE
8
FIT
66
1
70
0
10
0
20
0
30
0
0
VERTEX
8
FIT
10
37.85223
20
1795.441335
30
0
42
0.022993
0
VERTEX
8
FIT
10
36.162395
20
1775.519922
30
0
0
SEQEND
8
FIT
0
TEXT
8
TEXT
10
1300
20
2102.602374
30
0
40
15
1
T - FIT (ASSEMBLY, NOT A TOOLPATH)
72
0
11
1300
21
2102.602374
31
0
73
0
0
TEXT
8
TEXT
10
1300
20
2080.602374
30
0
40
15
1
GAP 4 LAP 17 (REBATE)
72
0
11
1300
21
2080.602374
31
0
73
0
0
TEXT
8
TEXT
10
1300
20
2058.602374
30
0
40
15
1
FRAME R253.5/761.5/253.5 / 196.5/704.5/196.5  REBATE WALL R217.5/725.5/217.5 (LAND 36, DASHED)
72
0
11
1300
21
2058.602374
31
0
73
0
0
TEXT
8
TEXT
10
1300
20
2036.602374
30
0
40
15
1
LEAF R213.5/721.5/213.5 / 146.5/654.5/146.5  GLASS R159/667/159
72
0
11
1300
21
2036.602374
31
0
73
0
0
ENDSEC
0
EOF
