0
SECTION
2
HEADER
9
$ACADVER
1
AC1009
0
ENDSEC
0
SECTION
2
TABLES
0
TABLE
2
LAYER
70
7
0
LAYER
2
0
70
0
62
7
6
CONTINUOUS
0
LAYER
2
FIT
70
0
62
4
6
CONTINUOUS
0
LAYER
2
CONTOUR
70
0
62
7
6
CONTINUOUS
0
LAYER
2
ASSEMBLY
70
0
62
8
6
CONTINUOUS
0
LAYER
2
PIECES
70
0
62
5
6
CONTINUOUS
0
LAYER
2
FINGER
70
0
62
1
6
CONTINUOUS
0
LAYER
2
TEXT
70
0
62
94
6
CONTINUOUS
0
ENDTAB
0
ENDSEC
0
SECTION
2
ENTITIES
0
POLYLINE
8
PIECES
66
1
70
1
10
0
20
0
30
0
0
VERTEX
8
PIECES
10
60.895953
20
0
30
0
0
VERTEX
8
PIECES
10
28.763686
20
0
30
0
0
VERTEX
8
PIECES
10
0
20
95
30
0
0
VERTEX
8
PIECES
10
89.659639
20
95
30
0
0
SEQEND
8
PIECES
0
TEXT
8
TEXT
10
44.82982
20
57.5
30
0
40
15
1
W1 - LEAF TOP P1 L89.7 x95
72
1
11
44.82982
21
57.5
31
0
73
2
0
TEXT
8
TEXT
10
44.82982
20
10
30
0
40
10
1
OUT 74.7 IN 17.1 CUT J16.8/S73.2 FINGER ONE END
72
1
11
44.82982
21
10
31
0
73
2
0
POLYLINE
8
PIECES
66
1
70
1
10
0
20
0
30
0
0
VERTEX
8
PIECES
10
365.555592
20
0
30
0
0
VERTEX
8
PIECES
10
318.423325
20
0
30
0
0
VERTEX
8
PIECES
10
289.659639
20
95
30
0
0
VERTEX
8
PIECES
10
394.319278
20
95
30
0
0
SEQEND
8
PIECES
0
TEXT
8
TEXT
10
341.989459
20
57.5
30
0
40
15
1
W1 - LEAF TOP P2 L104.7 x95
72
1
11
341.989459
21
57.5
31
0
73
2
0
TEXT
8
TEXT
10
341.989459
20
10
30
0
40
10
1
OUT 74.7 IN 17.1 CUT J16.8/J16.8 FINGER BOTH ENDS
72
1
11
341.989459
21
10
31
0
73
2
0
POLYLINE
8
PIECES
66
1
70
1
10
0
20
0
30
0
0
VERTEX
8
PIECES
10
870.595205
20
0
30
0
0
VERTEX
8
PIECES
10
603.726132
20
0
30
0
0
VERTEX
8
PIECES
10
594.319278
20
95
30
0
0
VERTEX
8
PIECES
10
880.002059
20
95
30
0
0
SEQEND
8
PIECES
0
TEXT
8
TEXT
10
737.160668
20
57.5
30
0
40
15
1
W1 - LEAF TOP P3 L285.7 x95
72
1
11
737.160668
21
57.5
31
0
73
2
0
TEXT
8
TEXT
10
737.160668
20
10
30
0
40
10
1
OUT 255.7 IN 236.9 CUT J5.7/J5.7 FINGER BOTH ENDS
72
1
11
737.160668
21
10
31
0
73
2
0
POLYLINE
8
PIECES
66
1
70
1
10
0
20
0
30
0
0
VERTEX
8
PIECES
10
1356.277986
20
0
30
0
0
VERTEX
8
PIECES
10
1089.408913
20
0
30
0
0
VERTEX
8
PIECES
10
1080.002059
20
95
30
0
0
VERTEX
8
PIECES
10
1365.68484
20
95
30
0
0
SEQEND
8
PIECES
0
TEXT
8
TEXT
10
1222.843449
20
57.5
30
0
40
15
1
W1 - LEAF TOP P4 L285.7 x95
72
1
11
1222.843449
21
57.5
31
0
73
2
0
TEXT
8
TEXT
10
1222.843449
20
10
30
0
40
10
1
OUT 255.7 IN 236.9 CUT J5.7/J5.7 FINGER BOTH ENDS
72
1
11
1222.843449
21
10
31
0
73
2
0
POLYLINE
8
PIECES
66
1
70
1
10
0
20
0
30
0
0
VERTEX
8
PIECES
10
1841.960766
20
0
30
0
0
VERTEX
8
PIECES
10
1575.091693
20
0
30
0
0
VERTEX
8
PIECES
10
1565.68484
20
95
30
0
0
VERTEX
8
PIECES
10
1851.36762
20
95
30
0
0
SEQEND
8
PIECES
0
TEXT
8
TEXT
10
1708.52623
20
57.5
30
0
40
15
1
W1 - LEAF TOP P5 L285.7 x95
72
1
11
1708.52623
21
57.5
31
0
73
2
0
TEXT
8
TEXT
10
1708.52623
20
10
30
0
40
10
1
OUT 255.7 IN 236.9 CUT J5.7/J5.7 FINGER BOTH ENDS
72
1
11
1708.52623
21
10
31
0
73
2
0
POLYLINE
8
PIECES
66
1
70
1
10
0
20
0
30
0
0
VERTEX
8
PIECES
10
2327.643547
20
0
30
0
0
VERTEX
8
PIECES
10
2060.774474
20
0
30
0
0
VERTEX
8
PIECES
10
2051.36762
20
95
30
0
0
VERTEX
8
PIECES
10
2337.050401
20
95
30
0
0
SEQEND
8
PIECES
0
TEXT
8
TEXT
10
2194.209011
20
57.5
30
0
40
15
1
W1 - LEAF TOP P6 L285.7 x95
72
1
11
2194.209011
21
57.5
31
0
73
2
0
TEXT
8
TEXT
10
2194.209011
20
10
30
0
40
10
1
OUT 255.7 IN 236.9 CUT J5.7/J5.7 FINGER BOTH ENDS
72
1
11
2194.209011
21
10
31
0
73
2
0
POLYLINE
8
PIECES
66
1
70
1
10
0
20
0
30
0
0
VERTEX
8
PIECES
10
2612.946354
20
0
30
0
0
VERTEX
8
PIECES
10
2565.814087
20
0
30
0
0
VERTEX
8
PIECES
10
2537.050401
20
95
30
0
0
VERTEX
8
PIECES
10
2641.71004
20
95
30
0
0
SEQEND
8
PIECES
0
TEXT
8
TEXT
10
2589.380221
20
57.5
30
0
40
15
1
W1 - LEAF TOP P7 L104.7 x95
72
1
11
2589.380221
21
57.5
31
0
73
2
0
TEXT
8
TEXT
10
2589.380221
20
10
30
0
40
10
1
OUT 74.7 IN 17.1 CUT J16.8/J16.8 FINGER BOTH ENDS
72
1
11
2589.380221
21
10
31
0
73
2
0
POLYLINE
8
PIECES
66
1
70
1
10
0
20
0
30
0
0
VERTEX
8
PIECES
10
2902.605993
20
0
30
0
0
VERTEX
8
PIECES
10
2870.473726
20
0
30
0
0
VERTEX
8
PIECES
10
2841.71004
20
95
30
0
0
VERTEX
8
PIECES
10
2931.369679
20
95
30
0
0
SEQEND
8
PIECES
0
TEXT
8
TEXT
10
2886.53986
20
57.5
30
0
40
15
1
W1 - LEAF TOP P8 L89.7 x95
72
1
11
2886.53986
21
57.5
31
0
73
2
0
TEXT
8
TEXT
10
2886.53986
20
10
30
0
40
10
1
OUT 74.7 IN 17.1 CUT S73.2/J16.8 FINGER ONE END
72
1
11
2886.53986
21
10
31
0
73
2
0
POLYLINE
8
CONTOUR
66
1
70
1
10
0
20
0
30
0
0
VERTEX
8
CONTOUR
10
1138.819398
20
295
30
0
42
0.302776
0
VERTEX
8
CONTOUR
10
1071.12709
20
396.538462
30
0
42
0.2
0
VERTEX
8
CONTOUR
10
86.511705
20
396.538462
30
0
42
0.302776
0
VERTEX
8
CONTOUR
10
18.819398
20
295
30
0
0
VERTEX
8
CONTOUR
10
85.819398
20
295
30
0
42
-0.302776
0
VERTEX
8
CONTOUR
10
112.280936
20
334.692308
30
0
42
-0.2
0
VERTEX
8
CONTOUR
10
1045.357859
20
334.692308
30
0
42
-0.302776
0
VERTEX
8
CONTOUR
10
1071.819398
20
295
30
0
0
SEQEND
8
CONTOUR
0
POLYLINE
8
ASSEMBLY
66
1
70
1
10
0
20
0
30
0
0
VERTEX
8
ASSEMBLY
10
1058.379793
20
295
30
0
0
VERTEX
8
ASSEMBLY
10
1053.415133
20
311.397157
30
0
0
VERTEX
8
ASSEMBLY
10
1136.003616
20
366.456145
30
0
0
VERTEX
8
ASSEMBLY
10
1157.638795
20
295
30
0
0
SEQEND
8
ASSEMBLY
0
POLYLINE
8
FINGER
66
1
70
0
10
0
20
0
30
0
0
VERTEX
8
FINGER
10
1064.59756
20
318.852108
30
0
0
VERTEX
8
FINGER
10
1120.34493
20
356.017022
30
0
0
SEQEND
8
FINGER
0
POLYLINE
8
ASSEMBLY
66
1
70
1
10
0
20
0
30
0
0
VERTEX
8
ASSEMBLY
10
1053.415133
20
311.397157
30
0
0
VERTEX
8
ASSEMBLY
10
1040.18878
20
322.286519
30
0
0
VERTEX
8
ASSEMBLY
10
1078.36532
20
413.910213
30
0
0
VERTEX
8
ASSEMBLY
10
1136.003616
20
366.456145
30
0
0
SEQEND
8
ASSEMBLY
0
POLYLINE
8
FINGER
66
1
70
0
10
0
20
0
30
0
0
VERTEX
8
FINGER
10
1045.357859
20
334.692308
30
0
0
VERTEX
8
FINGER
10
1071.12709
20
396.538462
30
0
0
SEQEND
8
FINGER
0
POLYLINE
8
ASSEMBLY
66
1
70
1
10
0
20
0
30
0
0
VERTEX
8
ASSEMBLY
10
1041.097112
20
324.466515
30
0
0
VERTEX
8
ASSEMBLY
10
814.535706
20
393.581544
30
0
0
VERTEX
8
ASSEMBLY
10
833.257854
20
487.192281
30
0
0
VERTEX
8
ASSEMBLY
10
1077.814264
20
412.58768
30
0
0
SEQEND
8
ASSEMBLY
0
POLYLINE
8
FINGER
66
1
70
0
10
0
20
0
30
0
0
VERTEX
8
FINGER
10
816.70827
20
404.44436
30
0
0
VERTEX
8
FINGER
10
829.848051
20
470.143265
30
0
0
SEQEND
8
FINGER
0
POLYLINE
8
ASSEMBLY
66
1
70
1
10
0
20
0
30
0
0
VERTEX
8
ASSEMBLY
10
814.535706
20
393.581544
30
0
0
VERTEX
8
ASSEMBLY
10
578.819398
20
416.922058
30
0
0
VERTEX
8
ASSEMBLY
10
578.819398
20
512.386653
30
0
0
VERTEX
8
ASSEMBLY
10
833.257854
20
487.192281
30
0
0
SEQEND
8
ASSEMBLY
0
POLYLINE
8
FINGER
66
1
70
0
10
0
20
0
30
0
0
VERTEX
8
FINGER
10
578.819398
20
428
30
0
0
VERTEX
8
FINGER
10
578.819398
20
495
30
0
0
SEQEND
8
FINGER
0
POLYLINE
8
ASSEMBLY
66
1
70
1
10
0
20
0
30
0
0
VERTEX
8
ASSEMBLY
10
578.819398
20
416.922058
30
0
0
VERTEX
8
ASSEMBLY
10
343.103089
20
393.581544
30
0
0
VERTEX
8
ASSEMBLY
10
324.380942
20
487.192281
30
0
0
VERTEX
8
ASSEMBLY
10
578.819398
20
512.386653
30
0
0
SEQEND
8
ASSEMBLY
0
POLYLINE
8
FINGER
66
1
70
0
10
0
20
0
30
0
0
VERTEX
8
FINGER
10
340.930526
20
404.44436
30
0
0
VERTEX
8
FINGER
10
327.790745
20
470.143265
30
0
0
SEQEND
8
FINGER
0
POLYLINE
8
ASSEMBLY
66
1
70
1
10
0
20
0
30
0
0
VERTEX
8
ASSEMBLY
10
343.103089
20
393.581544
30
0
0
VERTEX
8
ASSEMBLY
10
116.541683
20
324.466515
30
0
0
VERTEX
8
ASSEMBLY
10
79.824531
20
412.58768
30
0
0
VERTEX
8
ASSEMBLY
10
324.380942
20
487.192281
30
0
0
SEQEND
8
ASSEMBLY
0
POLYLINE
8
FINGER
66
1
70
0
10
0
20
0
30
0
0
VERTEX
8
FINGER
10
112.280936
20
334.692308
30
0
0
VERTEX
8
FINGER
10
86.511705
20
396.538462
30
0
0
SEQEND
8
FINGER
0
POLYLINE
8
ASSEMBLY
66
1
70
1
10
0
20
0
30
0
0
VERTEX
8
ASSEMBLY
10
117.450015
20
322.286519
30
0
0
VERTEX
8
ASSEMBLY
10
104.223662
20
311.397157
30
0
0
VERTEX
8
ASSEMBLY
10
21.63518
20
366.456145
30
0
0
VERTEX
8
ASSEMBLY
10
79.273476
20
413.910213
30
0
0
SEQEND
8
ASSEMBLY
0
POLYLINE
8
FINGER
66
1
70
0
10
0
20
0
30
0
0
VERTEX
8
FINGER
10
93.041235
20
318.852108
30
0
0
VERTEX
8
FINGER
10
37.293865
20
356.017022
30
0
0
SEQEND
8
FINGER
0
POLYLINE
8
ASSEMBLY
66
1
70
1
10
0
20
0
30
0
0
VERTEX
8
ASSEMBLY
10
104.223662
20
311.397157
30
0
0
VERTEX
8
ASSEMBLY
10
99.259003
20
295
30
0
0
VERTEX
8
ASSEMBLY
10
0
20
295
30
0
0
VERTEX
8
ASSEMBLY
10
21.63518
20
366.456145
30
0
0
SEQEND
8
ASSEMBLY
0
TEXT
8
TEXT
10
1257.638795
20
493.886653
30
0
40
15
1
W1 - LEAF TOP
72
0
11
1257.638795
21
493.886653
31
0
73
0
0
TEXT
8
TEXT
10
1257.638795
20
471.886653
30
0
40
15
1
THREE-CENTRE W1200 RISE240 H2000 HINGE L
72
0
11
1257.638795
21
471.886653
31
0
73
0
0
TEXT
8
TEXT
10
1257.638795
20
449.886653
30
0
40
15
1
FACE 67 OFFSET 40 OUTER L1269.4 INNER L1058.9
72
0
11
1257.638795
21
449.886653
31
0
73
0
0
TEXT
8
TEXT
10
1257.638795
20
427.886653
30
0
40
15
1
ARC 1 R110 L129.4 67.4DEG: 2 x board 95 L74.7 ROUGH 104.7
72
0
11
1257.638795
21
427.886653
31
0
73
0
0
TEXT
8
TEXT
10
1257.638795
20
405.886653
30
0
40
15
1
ARC 2 R1280 L1010.7 45.2DEG: 4 x board 95 L255.7 ROUGH 285.7 (ALT 2 x board 180)
72
0
11
1257.638795
21
405.886653
31
0
73
0
0
TEXT
8
TEXT
10
1257.638795
20
383.886653
30
0
40
15
1
ARC 3 R110 L129.4 67.4DEG: 2 x board 95 L74.7 ROUGH 104.7
72
0
11
1257.638795
21
383.886653
31
0
73
0
0
TEXT
8
TEXT
10
1257.638795
20
361.886653
30
0
40
15
1
FINGER 15/16/3.8
72
0
11
1257.638795
21
361.886653
31
0
73
0
0
TEXT
8
TEXT
10
1257.638795
20
339.886653
30
0
40
15
1
ALLOWANCE 10 PER SIDE  MAX SEGMENT 36 DEG  RULE NARROWEST
72
0
11
1257.638795
21
339.886653
31
0
73
0
0
TEXT
8
TEXT
10
1257.638795
20
317.886653
30
0
40
15
1
CUT CODES: J = JOINT FROM SQUARE  S = ARCH-START, AXIS TO HORIZONTAL  A = APEX FROM SQUARE
72
0
11
1257.638795
21
317.886653
31
0
73
0
0
POLYLINE
8
PIECES
66
1
70
1
10
0
20
0
30
0
0
VERTEX
8
PIECES
10
87.496186
20
712.386653
30
0
0
VERTEX
8
PIECES
10
28.763686
20
712.386653
30
0
0
VERTEX
8
PIECES
10
0
20
807.386653
30
0
0
VERTEX
8
PIECES
10
116.259872
20
807.386653
30
0
0
SEQEND
8
PIECES
0
TEXT
8
TEXT
10
58.129936
20
769.886653
30
0
40
15
1
W1 - FRAME HEAD P1 L116.3 x95
72
1
11
58.129936
21
769.886653
31
0
73
2
0
TEXT
8
TEXT
10
58.129936
20
722.386653
30
0
40
10
1
OUT 101.3 IN 43.7 CUT J16.8/S73.2 FINGER ONE END
72
1
11
58.129936
21
722.386653
31
0
73
2
0
POLYLINE
8
PIECES
66
1
70
1
10
0
20
0
30
0
0
VERTEX
8
PIECES
10
418.756058
20
712.386653
30
0
0
VERTEX
8
PIECES
10
345.023558
20
712.386653
30
0
0
VERTEX
8
PIECES
10
316.259872
20
807.386653
30
0
0
VERTEX
8
PIECES
10
447.519744
20
807.386653
30
0
0
SEQEND
8
PIECES
0
TEXT
8
TEXT
10
381.889808
20
769.886653
30
0
40
15
1
W1 - FRAME HEAD P2 L131.3 x95
72
1
11
381.889808
21
769.886653
31
0
73
2
0
TEXT
8
TEXT
10
381.889808
20
722.386653
30
0
40
10
1
OUT 101.3 IN 43.7 CUT J16.8/J16.8 FINGER BOTH ENDS
72
1
11
381.889808
21
722.386653
31
0
73
2
0
POLYLINE
8
PIECES
66
1
70
1
10
0
20
0
30
0
0
VERTEX
8
PIECES
10
1017.976776
20
712.386653
30
0
0
VERTEX
8
PIECES
10
660.094133
20
712.386653
30
0
0
VERTEX
8
PIECES
10
647.519744
20
807.386653
30
0
0
VERTEX
8
PIECES
10
1030.551166
20
807.386653
30
0
0
SEQEND
8
PIECES
0
TEXT
8
TEXT
10
839.035455
20
769.886653
30
0
40
15
1
W1 - FRAME HEAD P3 L383 x95
72
1
11
839.035455
21
769.886653
31
0
73
2
0
TEXT
8
TEXT
10
839.035455
20
722.386653
30
0
40
10
1
OUT 353 IN 327.9 CUT J7.5/J7.5 FINGER BOTH ENDS
72
1
11
839.035455
21
722.386653
31
0
73
2
0
POLYLINE
8
PIECES
66
1
70
1
10
0
20
0
30
0
0
VERTEX
8
PIECES
10
1601.008198
20
712.386653
30
0
0
VERTEX
8
PIECES
10
1243.125555
20
712.386653
30
0
0
VERTEX
8
PIECES
10
1230.551166
20
807.386653
30
0
0
VERTEX
8
PIECES
10
1613.582588
20
807.386653
30
0
0
SEQEND
8
PIECES
0
TEXT
8
TEXT
10
1422.066877
20
769.886653
30
0
40
15
1
W1 - FRAME HEAD P4 L383 x95
72
1
11
1422.066877
21
769.886653
31
0
73
2
0
TEXT
8
TEXT
10
1422.066877
20
722.386653
30
0
40
10
1
OUT 353 IN 327.9 CUT J7.5/J7.5 FINGER BOTH ENDS
72
1
11
1422.066877
21
722.386653
31
0
73
2
0
POLYLINE
8
PIECES
66
1
70
1
10
0
20
0
30
0
0
VERTEX
8
PIECES
10
2184.03962
20
712.386653
30
0
0
VERTEX
8
PIECES
10
1826.156977
20
712.386653
30
0
0
VERTEX
8
PIECES
10
1813.582588
20
807.386653
30
0
0
VERTEX
8
PIECES
10
2196.61401
20
807.386653
30
0
0
SEQEND
8
PIECES
0
TEXT
8
TEXT
10
2005.098299
20
769.886653
30
0
40
15
1
W1 - FRAME HEAD P5 L383 x95
72
1
11
2005.098299
21
769.886653
31
0
73
2
0
TEXT
8
TEXT
10
2005.098299
20
722.386653
30
0
40
10
1
OUT 353 IN 327.9 CUT J7.5/J7.5 FINGER BOTH ENDS
72
1
11
2005.098299
21
722.386653
31
0
73
2
0
POLYLINE
8
PIECES
66
1
70
1
10
0
20
0
30
0
0
VERTEX
8
PIECES
10
2499.110196
20
712.386653
30
0
0
VERTEX
8
PIECES
10
2425.377695
20
712.386653
30
0
0
VERTEX
8
PIECES
10
2396.61401
20
807.386653
30
0
0
VERTEX
8
PIECES
10
2527.873882
20
807.386653
30
0
0
SEQEND
8
PIECES
0
TEXT
8
TEXT
10
2462.243946
20
769.886653
30
0
40
15
1
W1 - FRAME HEAD P6 L131.3 x95
72
1
11
2462.243946
21
769.886653
31
0
73
2
0
TEXT
8
TEXT
10
2462.243946
20
722.386653
30
0
40
10
1
OUT 101.3 IN 43.7 CUT J16.8/J16.8 FINGER BOTH ENDS
72
1
11
2462.243946
21
722.386653
31
0
73
2
0
POLYLINE
8
PIECES
66
1
70
1
10
0
20
0
30
0
0
VERTEX
8
PIECES
10
2815.370068
20
712.386653
30
0
0
VERTEX
8
PIECES
10
2756.637567
20
712.386653
30
0
0
VERTEX
8
PIECES
10
2727.873882
20
807.386653
30
0
0
VERTEX
8
PIECES
10
2844.133754
20
807.386653
30
0
0
SEQEND
8
PIECES
0
TEXT
8
TEXT
10
2786.003818
20
769.886653
30
0
40
15
1
W1 - FRAME HEAD P7 L116.3 x95
72
1
11
2786.003818
21
769.886653
31
0
73
2
0
TEXT
8
TEXT
10
2786.003818
20
722.386653
30
0
40
10
1
OUT 101.3 IN 43.7 CUT S73.2/J16.8 FINGER ONE END
72
1
11
2786.003818
21
722.386653
31
0
73
2
0
POLYLINE
8
CONTOUR
66
1
70
1
10
0
20
0
30
0
0
VERTEX
8
CONTOUR
10
1224.71603
20
1007.386653
30
0
42
0.302776
0
VERTEX
8
CONTOUR
10
1132.408338
20
1145.848191
30
0
42
0.2
0
VERTEX
8
CONTOUR
10
117.023722
20
1145.848191
30
0
42
0.302776
0
VERTEX
8
CONTOUR
10
24.71603
20
1007.386653
30
0
0
VERTEX
8
CONTOUR
10
81.71603
20
1007.386653
30
0
42
-0.302776
0
VERTEX
8
CONTOUR
10
138.946799
20
1093.232807
30
0
42
-0.2
0
VERTEX
8
CONTOUR
10
1110.485261
20
1093.232807
30
0
42
-0.302776
0
VERTEX
8
CONTOUR
10
1167.71603
20
1007.386653
30
0
0
SEQEND
8
CONTOUR
0
POLYLINE
8
ASSEMBLY
66
1
70
1
10
0
20
0
30
0
0
VERTEX
8
ASSEMBLY
10
1150.173057
20
1007.386653
30
0
0
VERTEX
8
ASSEMBLY
10
1137.500072
20
1049.242681
30
0
0
VERTEX
8
ASSEMBLY
10
1220.088554
20
1104.301669
30
0
0
VERTEX
8
ASSEMBLY
10
1249.43206
20
1007.386653
30
0
0
SEQEND
8
ASSEMBLY
0
POLYLINE
8
FINGER
66
1
70
0
10
0
20
0
30
0
0
VERTEX
8
FINGER
10
1152.096707
20
1058.973771
30
0
0
VERTEX
8
FINGER
10
1199.523574
20
1090.591682
30
0
0
SEQEND
8
FINGER
0
POLYLINE
8
ASSEMBLY
66
1
70
1
10
0
20
0
30
0
0
VERTEX
8
ASSEMBLY
10
1137.500072
20
1049.242681
30
0
0
VERTEX
8
ASSEMBLY
10
1103.737963
20
1077.039294
30
0
0
VERTEX
8
ASSEMBLY
10
1141.914503
20
1168.662988
30
0
0
VERTEX
8
ASSEMBLY
10
1220.088554
20
1104.301669
30
0
0
SEQEND
8
ASSEMBLY
0
POLYLINE
8
FINGER
66
1
70
0
10
0
20
0
30
0
0
VERTEX
8
FINGER
10
1110.485261
20
1093.232807
30
0
0
VERTEX
8
FINGER
10
1132.408338
20
1145.848191
30
0
0
SEQEND
8
FINGER
0
POLYLINE
8
ASSEMBLY
66
1
70
1
10
0
20
0
30
0
0
VERTEX
8
ASSEMBLY
10
1105.248999
20
1080.665779
30
0
0
VERTEX
8
ASSEMBLY
10
788.657351
20
1165.969682
30
0
0
VERTEX
8
ASSEMBLY
10
801.231741
20
1260.969682
30
0
0
VERTEX
8
ASSEMBLY
10
1142.106142
20
1169.122923
30
0
0
SEQEND
8
ASSEMBLY
0
POLYLINE
8
FINGER
66
1
70
0
10
0
20
0
30
0
0
VERTEX
8
FINGER
10
790.443784
20
1179.466248
30
0
0
VERTEX
8
FINGER
10
797.923183
20
1235.973403
30
0
0
SEQEND
8
FINGER
0
POLYLINE
8
ASSEMBLY
66
1
70
1
10
0
20
0
30
0
0
VERTEX
8
ASSEMBLY
10
788.657351
20
1165.969682
30
0
0
VERTEX
8
ASSEMBLY
10
460.774709
20
1165.969682
30
0
0
VERTEX
8
ASSEMBLY
10
448.200319
20
1260.969682
30
0
0
VERTEX
8
ASSEMBLY
10
801.231741
20
1260.969682
30
0
0
SEQEND
8
ASSEMBLY
0
POLYLINE
8
FINGER
66
1
70
0
10
0
20
0
30
0
0
VERTEX
8
FINGER
10
458.988276
20
1179.466248
30
0
0
VERTEX
8
FINGER
10
451.508876
20
1235.973403
30
0
0
SEQEND
8
FINGER
0
POLYLINE
8
ASSEMBLY
66
1
70
1
10
0
20
0
30
0
0
VERTEX
8
ASSEMBLY
10
460.774709
20
1165.969682
30
0
0
VERTEX
8
ASSEMBLY
10
144.183061
20
1080.665779
30
0
0
VERTEX
8
ASSEMBLY
10
107.325917
20
1169.122923
30
0
0
VERTEX
8
ASSEMBLY
10
448.200319
20
1260.969682
30
0
0
SEQEND
8
ASSEMBLY
0
POLYLINE
8
FINGER
66
1
70
0
10
0
20
0
30
0
0
VERTEX
8
FINGER
10
138.946799
20
1093.232807
30
0
0
VERTEX
8
FINGER
10
117.023722
20
1145.848191
30
0
0
SEQEND
8
FINGER
0
POLYLINE
8
ASSEMBLY
66
1
70
1
10
0
20
0
30
0
0
VERTEX
8
ASSEMBLY
10
145.694096
20
1077.039294
30
0
0
VERTEX
8
ASSEMBLY
10
111.931988
20
1049.242681
30
0
0
VERTEX
8
ASSEMBLY
10
29.343506
20
1104.301669
30
0
0
VERTEX
8
ASSEMBLY
10
107.517557
20
1168.662988
30
0
0
SEQEND
8
ASSEMBLY
0
POLYLINE
8
FINGER
66
1
70
0
10
0
20
0
30
0
0
VERTEX
8
FINGER
10
97.335353
20
1058.973771
30
0
0
VERTEX
8
FINGER
10
49.908486
20
1090.591682
30
0
0
SEQEND
8
FINGER
0
POLYLINE
8
ASSEMBLY
66
1
70
1
10
0
20
0
30
0
0
VERTEX
8
ASSEMBLY
10
111.931988
20
1049.242681
30
0
0
VERTEX
8
ASSEMBLY
10
99.259003
20
1007.386653
30
0
0
VERTEX
8
ASSEMBLY
10
0
20
1007.386653
30
0
0
VERTEX
8
ASSEMBLY
10
29.343506
20
1104.301669
30
0
0
SEQEND
8
ASSEMBLY
0
TEXT
8
TEXT
10
1349.43206
20
1242.469682
30
0
40
15
1
W1 - FRAME HEAD
72
0
11
1349.43206
21
1242.469682
31
0
73
0
0
TEXT
8
TEXT
10
1349.43206
20
1220.469682
30
0
40
15
1
THREE-CENTRE W1200 RISE240 H2000 HINGE L
72
0
11
1349.43206
21
1220.469682
31
0
73
0
0
TEXT
8
TEXT
10
1349.43206
20
1198.469682
30
0
40
15
1
FACE 57 OFFSET 0 OUTER L1395.1 INNER L1216
72
0
11
1349.43206
21
1198.469682
31
0
73
0
0
TEXT
8
TEXT
10
1349.43206
20
1176.469682
30
0
40
15
1
ARC 1 R150 L176.4 67.4DEG: 2 x board 95 L101.3 ROUGH 131.3
72
0
11
1349.43206
21
1176.469682
31
0
73
0
0
TEXT
8
TEXT
10
1349.43206
20
1154.469682
30
0
40
15
1
ARC 2 R1320 L1042.2 45.2DEG: 3 x board 95 L353 ROUGH 383 (ALT 2 x board 105)
72
0
11
1349.43206
21
1154.469682
31
0
73
0
0
TEXT
8
TEXT
10
1349.43206
20
1132.469682
30
0
40
15
1
ARC 3 R150 L176.4 67.4DEG: 2 x board 95 L101.3 ROUGH 131.3
72
0
11
1349.43206
21
1132.469682
31
0
73
0
0
TEXT
8
TEXT
10
1349.43206
20
1110.469682
30
0
40
15
1
FINGER 15/16/3.8
72
0
11
1349.43206
21
1110.469682
31
0
73
0
0
TEXT
8
TEXT
10
1349.43206
20
1088.469682
30
0
40
15
1
ALLOWANCE 10 PER SIDE  MAX SEGMENT 36 DEG  RULE NARROWEST
72
0
11
1349.43206
21
1088.469682
31
0
73
0
0
TEXT
8
TEXT
10
1349.43206
20
1066.469682
30
0
40
15
1
CUT CODES: J = JOINT FROM SQUARE  S = ARCH-START, AXIS TO HORIZONTAL  A = APEX FROM SQUARE
72
0
11
1349.43206
21
1066.469682
31
0
73
0
0
POLYLINE
8
FIT
66
1
70
1
10
0
20
0
30
0
0
VERTEX
8
FIT
10
1200
20
1460.969682
30
0
42
0.302776
0
VERTEX
8
FIT
10
1107.692308
20
1599.431221
30
0
42
0.2
0
VERTEX
8
FIT
10
92.307692
20
1599.431221
30
0
42
0.302776
0
VERTEX
8
FIT
10
0
20
1460.969682
30
0
0
VERTEX
8
FIT
10
57
20
1460.969682
30
0
42
-0.302776
0
VERTEX
8
FIT
10
114.230769
20
1546.815836
30
0
42
-0.2
0
VERTEX
8
FIT
10
1085.769231
20
1546.815836
30
0
42
-0.302776
0
VERTEX
8
FIT
10
1143
20
1460.969682
30
0
0
SEQEND
8
FIT
0
POLYLINE
8
FIT
66
1
70
1
10
0
20
0
30
0
0
VERTEX
8
FIT
10
1160
20
1460.969682
30
0
42
0.302776
0
VERTEX
8
FIT
10
1092.307692
20
1562.508144
30
0
42
0.2
0
VERTEX
8
FIT
10
107.692308
20
1562.508144
30
0
42
0.302776
0
VERTEX
8
FIT
10
40
20
1460.969682
30
0
0
VERTEX
8
FIT
10
107
20
1460.969682
30
0
42
-0.302776
0
VERTEX
8
FIT
10
133.461538
20
1500.66199
30
0
42
-0.2
0
VERTEX
8
FIT
10
1066.538462
20
1500.66199
30
0
42
-0.302776
0
VERTEX
8
FIT
10
1093
20
1460.969682
30
0
0
SEQEND
8
FIT
0
POLYLINE
8
FIT
66
1
70
1
10
0
20
0
30
0
0
VERTEX
8
FIT
10
1105.5
20
1460.969682
30
0
42
0.302776
0
VERTEX
8
FIT
10
1071.346154
20
1512.200452
30
0
42
0.2
0
VERTEX
8
FIT
10
128.653846
20
1512.200452
30
0
42
0.302776
0
VERTEX
8
FIT
10
94.5
20
1460.969682
30
0
0
SEQEND
8
FIT
0
POLYLINE
8
FIT
66
1
70
0
10
0
20
0
30
0
0
VERTEX
8
FIT
10
1164
20
1460.969682
30
0
42
0.043888
0
VERTEX
8
FIT
10
1162.250109
20
1480.867245
30
0
0
SEQEND
8
FIT
0
POLYLINE
8
FIT
66
1
70
0
10
0
20
0
30
0
0
VERTEX
8
FIT
10
1160.075359
20
1490.624619
30
0
42
0.043888
0
VERTEX
8
FIT
10
1153.209738
20
1509.381973
30
0
0
SEQEND
8
FIT
0
POLYLINE
8
FIT
66
1
70
0
10
0
20
0
30
0
0
VERTEX
8
FIT
10
1148.571662
20
1518.237714
30
0
42
0.043888
0
VERTEX
8
FIT
10
1137.063032
20
1534.563354
30
0
0
SEQEND
8
FIT
0
POLYLINE
8
FIT
66
1
70
0
10
0
20
0
30
0
0
VERTEX
8
FIT
10
1130.280976
20
1541.907714
30
0
42
0.043888
0
VERTEX
8
FIT
10
1114.921744
20
1554.677564
30
0
0
SEQEND
8
FIT
0
POLYLINE
8
FIT
66
1
70
0
10
0
20
0
30
0
0
VERTEX
8
FIT
10
1106.462676
20
1560.004859
30
0
42
0.030853
0
VERTEX
8
FIT
10
1093.846154
20
1566.200452
30
0
0
SEQEND
8
FIT
0
POLYLINE
8
FIT
66
1
70
0
10
0
20
0
30
0
0
VERTEX
8
FIT
10
1093.846154
20
1566.200452
30
0
42
0.003894
0
VERTEX
8
FIT
10
1075.325454
20
1573.74867
30
0
0
SEQEND
8
FIT
0
POLYLINE
8
FIT
66
1
70
0
10
0
20
0
30
0
0
VERTEX
8
FIT
10
1066.021577
20
1577.41437
30
0
42
0.003894
0
VERTEX
8
FIT
10
1047.329588
20
1584.527841
30
0
0
SEQEND
8
FIT
0
POLYLINE
8
FIT
66
1
70
0
10
0
20
0
30
0
0
VERTEX
8
FIT
10
1037.94261
20
1587.97518
30
0
42
0.003894
0
VERTEX
8
FIT
10
1019.089536
20
1594.65002
30
0
0
SEQEND
8
FIT
0
POLYLINE
8
FIT
66
1
70
0
10
0
20
0
30
0
0
VERTEX
8
FIT
10
1009.624582
20
1597.877116
30
0
42
0.003894
0
VERTEX
8
FIT
10
990.620713
20
1604.109682
30
0
0
SEQEND
8
FIT
0
POLYLINE
8
FIT
66
1
70
0
10
0
20
0
30
0
0
VERTEX
8
FIT
10
981.08295
20
1607.114774
30
0
42
0.003894
0
VERTEX
8
FIT
10
961.938661
20
1612.901663
30
0
0
SEQEND
8
FIT
0
POLYLINE
8
FIT
66
1
70
0
10
0
20
0
30
0
0
VERTEX
8
FIT
10
952.333295
20
1615.68311
30
0
42
0.003894
0
VERTEX
8
FIT
10
933.059036
20
1621.021165
30
0
0
SEQEND
8
FIT
0
POLYLINE
8
FIT
66
1
70
0
10
0
20
0
30
0
0
VERTEX
8
FIT
10
923.391311
20
1623.577448
30
0
42
0.003894
0
VERTEX
8
FIT
10
903.997602
20
1628.463754
30
0
0
SEQEND
8
FIT
0
POLYLINE
8
FIT
66
1
70
0
10
0
20
0
30
0
0
VERTEX
8
FIT
10
894.272795
20
1630.793479
30
0
42
0.003894
0
VERTEX
8
FIT
10
874.770224
20
1635.225368
30
0
0
SEQEND
8
FIT
0
POLYLINE
8
FIT
66
1
70
0
10
0
20
0
30
0
0
VERTEX
8
FIT
10
864.993643
20
1637.327263
30
0
42
0.003894
0
VERTEX
8
FIT
10
845.392856
20
1641.302316
30
0
0
SEQEND
8
FIT
0
POLYLINE
8
FIT
66
1
70
0
10
0
20
0
30
0
0
VERTEX
8
FIT
10
835.569838
20
1643.175233
30
0
42
0.003894
0
VERTEX
8
FIT
10
815.881534
20
1646.69128
30
0
0
SEQEND
8
FIT
0
POLYLINE
8
FIT
66
1
70
0
10
0
20
0
30
0
0
VERTEX
8
FIT
10
806.017441
20
1648.334197
30
0
42
0.003894
0
VERTEX
8
FIT
10
786.252368
20
1651.38932
30
0
0
SEQEND
8
FIT
0
POLYLINE
8
FIT
66
1
70
0
10
0
20
0
30
0
0
VERTEX
8
FIT
10
776.352585
20
1652.80134
30
0
42
0.003894
0
VERTEX
8
FIT
10
756.521531
20
1655.39387
30
0
0
SEQEND
8
FIT
0
POLYLINE
8
FIT
66
1
70
0
10
0
20
0
30
0
0
VERTEX
8
FIT
10
746.591463
20
1656.574223
30
0
42
0.003894
0
VERTEX
8
FIT
10
726.705254
20
1658.702745
30
0
0
SEQEND
8
FIT
0
POLYLINE
8
FIT
66
1
70
0
10
0
20
0
30
0
0
VERTEX
8
FIT
10
716.75032
20
1659.650785
30
0
42
0.003894
0
VERTEX
8
FIT
10
696.819811
20
1661.314138
30
0
0
SEQEND
8
FIT
0
POLYLINE
8
FIT
66
1
70
0
10
0
20
0
30
0
0
VERTEX
8
FIT
10
686.845445
20
1662.029349
30
0
42
0.003894
0
VERTEX
8
FIT
10
666.881517
20
1663.226623
30
0
0
SEQEND
8
FIT
0
POLYLINE
8
FIT
66
1
70
0
10
0
20
0
30
0
0
VERTEX
8
FIT
10
656.893165
20
1663.708614
30
0
42
0.003894
0
VERTEX
8
FIT
10
636.906714
20
1664.439158
30
0
0
SEQEND
8
FIT
0
POLYLINE
8
FIT
66
1
70
0
10
0
20
0
30
0
0
VERTEX
8
FIT
10
626.909827
20
1664.687666
30
0
42
0.003894
0
VERTEX
8
FIT
10
606.911764
20
1664.951079
30
0
0
SEQEND
8
FIT
0
POLYLINE
8
FIT
66
1
70
0
10
0
20
0
30
0
0
VERTEX
8
FIT
10
596.911801
20
1664.965969
30
0
42
0.003894
0
VERTEX
8
FIT
10
576.913042
20
1664.762108
30
0
0
SEQEND
8
FIT
0
POLYLINE
8
FIT
66
1
70
0
10
0
20
0
30
0
0
VERTEX
8
FIT
10
566.91546
20
1664.543371
30
0
42
0.003894
0
VERTEX
8
FIT
10
546.926922
20
1663.872348
30
0
0
SEQEND
8
FIT
0
POLYLINE
8
FIT
66
1
70
0
10
0
20
0
30
0
0
VERTEX
8
FIT
10
536.937179
20
1663.420103
30
0
42
0.003894
0
VERTEX
8
FIT
10
516.969773
20
1662.282283
30
0
0
SEQEND
8
FIT
0
POLYLINE
8
FIT
66
1
70
0
10
0
20
0
30
0
0
VERTEX
8
FIT
10
506.993322
20
1661.596778
30
0
42
0.003894
0
VERTEX
8
FIT
10
487.057949
20
1659.992783
30
0
0
SEQEND
8
FIT
0
POLYLINE
8
FIT
66
1
70
0
10
0
20
0
30
0
0
VERTEX
8
FIT
10
477.100236
20
1659.074392
30
0
42
0.003894
0
VERTEX
8
FIT
10
457.207776
20
1657.005098
30
0
0
SEQEND
8
FIT
0
POLYLINE
8
FIT
66
1
70
0
10
0
20
0
30
0
0
VERTEX
8
FIT
10
447.274237
20
1655.854321
30
0
42
0.003894
0
VERTEX
8
FIT
10
427.435551
20
1653.320857
30
0
0
SEQEND
8
FIT
0
POLYLINE
8
FIT
66
1
70
0
10
0
20
0
30
0
0
VERTEX
8
FIT
10
417.531607
20
1651.938323
30
0
42
0.003894
0
VERTEX
8
FIT
10
397.757523
20
1648.942072
30
0
0
SEQEND
8
FIT
0
POLYLINE
8
FIT
66
1
70
0
10
0
20
0
30
0
0
VERTEX
8
FIT
10
387.888582
20
1647.328536
30
0
42
0.003894
0
VERTEX
8
FIT
10
368.189895
20
1643.871134
30
0
0
SEQEND
8
FIT
0
POLYLINE
8
FIT
66
1
70
0
10
0
20
0
30
0
0
VERTEX
8
FIT
10
358.361344
20
1642.027476
30
0
42
0.003894
0
VERTEX
8
FIT
10
338.748806
20
1638.11081
30
0
0
SEQEND
8
FIT
0
POLYLINE
8
FIT
66
1
70
0
10
0
20
0
30
0
0
VERTEX
8
FIT
10
328.966009
20
1636.038037
30
0
42
0.003894
0
VERTEX
8
FIT
10
309.450327
20
1631.664245
30
0
0
SEQEND
8
FIT
0
POLYLINE
8
FIT
66
1
70
0
10
0
20
0
30
0
0
VERTEX
8
FIT
10
299.718626
20
1629.363489
30
0
42
0.003894
0
VERTEX
8
FIT
10
280.310452
20
1624.534957
30
0
0
SEQEND
8
FIT
0
POLYLINE
8
FIT
66
1
70
0
10
0
20
0
30
0
0
VERTEX
8
FIT
10
270.635158
20
1622.007474
30
0
42
0.003894
0
VERTEX
8
FIT
10
251.345087
20
1616.72684
30
0
0
SEQEND
8
FIT
0
POLYLINE
8
FIT
66
1
70
0
10
0
20
0
30
0
0
VERTEX
8
FIT
10
241.731482
20
1613.974009
30
0
42
0.003894
0
VERTEX
8
FIT
10
222.570044
20
1608.244154
30
0
0
SEQEND
8
FIT
0
POLYLINE
8
FIT
66
1
70
0
10
0
20
0
30
0
0
VERTEX
8
FIT
10
213.023375
20
1605.267478
30
0
42
0.003894
0
VERTEX
8
FIT
10
194.001031
20
1599.091531
30
0
0
SEQEND
8
FIT
0
POLYLINE
8
FIT
66
1
70
0
10
0
20
0
30
0
0
VERTEX
8
FIT
10
184.526509
20
1595.892634
30
0
42
0.003894
0
VERTEX
8
FIT
10
165.653641
20
1589.273966
30
0
0
SEQEND
8
FIT
0
POLYLINE
8
FIT
66
1
70
0
10
0
20
0
30
0
0
VERTEX
8
FIT
10
156.25644
20
1585.854595
30
0
42
0.003894
0
VERTEX
8
FIT
10
137.543351
20
1578.796818
30
0
0
SEQEND
8
FIT
0
POLYLINE
8
FIT
66
1
70
0
10
0
20
0
30
0
0
VERTEX
8
FIT
10
128.228598
20
1575.15884
30
0
42
0.003894
0
VERTEX
8
FIT
10
109.685503
20
1567.665808
30
0
0
SEQEND
8
FIT
0
POLYLINE
8
FIT
66
1
70
0
10
0
20
0
30
0
0
VERTEX
8
FIT
10
106.153846
20
1566.200452
30
0
42
0.043888
0
VERTEX
8
FIT
10
88.459901
20
1556.932259
30
0
0
SEQEND
8
FIT
0
POLYLINE
8
FIT
66
1
70
0
10
0
20
0
30
0
0
VERTEX
8
FIT
10
80.289536
20
1551.171962
30
0
42
0.043888
0
VERTEX
8
FIT
10
65.615678
20
1537.620098
30
0
0
SEQEND
8
FIT
0
POLYLINE
8
FIT
66
1
70
0
10
0
20
0
30
0
0
VERTEX
8
FIT
10
59.225024
20
1529.932743
30
0
42
0.043888
0
VERTEX
8
FIT
10
48.581599
20
1513.030299
30
0
0
SEQEND
8
FIT
0
POLYLINE
8
FIT
66
1
70
0
10
0
20
0
30
0
0
VERTEX
8
FIT
10
44.410673
20
1503.945187
30
0
42
0.043888
0
VERTEX
8
FIT
10
38.530515
20
1484.855953
30
0
0
SEQEND
8
FIT
0
POLYLINE
8
FIT
66
1
70
0
10
0
20
0
30
0
0
VERTEX
8
FIT
10
36.8665
20
1474.998624
30
0
42
0.030853
0
VERTEX
8
FIT
10
36
20
1460.969682
30
0
0
SEQEND
8
FIT
0
TEXT
8
TEXT
10
1300
20
1646.465969
30
0
40
15
1
W1 - FIT (ASSEMBLY, NOT A TOOLPATH)
72
0
11
1300
21
1646.465969
31
0
73
0
0
TEXT
8
TEXT
10
1300
20
1624.465969
30
0
40
15
1
GAP 4 LAP 17 (REBATE)
72
0
11
1300
21
1624.465969
31
0
73
0
0
TEXT
8
TEXT
10
1300
20
1602.465969
30
0
40
15
1
FRAME R150/1320/150 / 93/1263/93  REBATE WALL R114/1284/114 (LAND 36, DASHED)
72
0
11
1300
21
1602.465969
31
0
73
0
0
TEXT
8
TEXT
10
1300
20
1580.465969
30
0
40
15
1
LEAF R110/1280/110 / 43/1213/43  GLASS R55.5/1225.5/55.5
72
0
11
1300
21
1580.465969
31
0
73
0
0
ENDSEC
0
EOF
