0
SECTION
2
HEADER
9
$ACADVER
1
AC1009
0
ENDSEC
0
SECTION
2
TABLES
0
TABLE
2
LAYER
70
9
0
LAYER
2
0
70
0
62
7
6
CONTINUOUS
0
LAYER
2
ARKA_OUTLINE
70
0
62
7
6
CONTINUOUS
0
LAYER
2
ARKA_PANE
70
0
62
3
6
CONTINUOUS
0
LAYER
2
ARKA_FRONT_HINGES_3MM
70
0
62
50
6
CONTINUOUS
0
LAYER
2
ARKA_MITRE
70
0
62
1
6
CONTINUOUS
0
LAYER
2
ARKA_SECTION
70
0
62
5
6
CONTINUOUS
0
LAYER
2
ARKA_PANE_ZEWN_REF
70
0
62
3
6
CONTINUOUS
0
LAYER
2
ARKA_CENTRE
70
0
62
6
6
CONTINUOUS
0
LAYER
2
ARKA_INFO_NO_CUT
70
0
62
8
6
CONTINUOUS
0
ENDTAB
0
ENDSEC
0
SECTION
2
ENTITIES
0
POLYLINE
8
ARKA_OUTLINE
66
1
70
1
10
0
20
0
30
0
0
VERTEX
8
ARKA_OUTLINE
10
12.5
20
12.5
30
0
0
VERTEX
8
ARKA_OUTLINE
10
720.5
20
12.5
30
0
0
VERTEX
8
ARKA_OUTLINE
10
720.5
20
591
30
0
42
1
0
VERTEX
8
ARKA_OUTLINE
10
12.5
20
591
30
0
0
SEQEND
8
ARKA_OUTLINE
0
POLYLINE
8
ARKA_PANE_ZEWN_REF
66
1
70
1
10
0
20
0
30
0
0
VERTEX
8
ARKA_PANE_ZEWN_REF
10
14.5
20
14.5
30
0
0
VERTEX
8
ARKA_PANE_ZEWN_REF
10
718.5
20
14.5
30
0
0
VERTEX
8
ARKA_PANE_ZEWN_REF
10
718.5
20
591
30
0
42
1
0
VERTEX
8
ARKA_PANE_ZEWN_REF
10
14.5
20
591
30
0
0
SEQEND
8
ARKA_PANE_ZEWN_REF
0
POLYLINE
8
ARKA_OUTLINE
66
1
70
1
10
0
20
0
30
0
0
VERTEX
8
ARKA_OUTLINE
10
30.5
20
30.5
30
0
0
VERTEX
8
ARKA_OUTLINE
10
245.55
20
30.5
30
0
0
VERTEX
8
ARKA_OUTLINE
10
245.55
20
284.5
30
0
0
VERTEX
8
ARKA_OUTLINE
10
30.5
20
284.5
30
0
0
SEQEND
8
ARKA_OUTLINE
0
POLYLINE
8
ARKA_PANE
66
1
70
1
10
0
20
0
30
0
0
VERTEX
8
ARKA_PANE
10
28.5
20
28.5
30
0
0
VERTEX
8
ARKA_PANE
10
247.55
20
28.5
30
0
0
VERTEX
8
ARKA_PANE
10
247.55
20
286.5
30
0
0
VERTEX
8
ARKA_PANE
10
28.5
20
286.5
30
0
0
SEQEND
8
ARKA_PANE
0
POLYLINE
8
ARKA_FRONT_HINGES_3MM
66
1
70
1
10
0
20
0
30
0
0
VERTEX
8
ARKA_FRONT_HINGES_3MM
10
20.5
20
20.5
30
0
0
VERTEX
8
ARKA_FRONT_HINGES_3MM
10
255.55
20
20.5
30
0
0
VERTEX
8
ARKA_FRONT_HINGES_3MM
10
255.55
20
294.5
30
0
0
VERTEX
8
ARKA_FRONT_HINGES_3MM
10
20.5
20
294.5
30
0
0
SEQEND
8
ARKA_FRONT_HINGES_3MM
0
POLYLINE
8
ARKA_OUTLINE
66
1
70
1
10
0
20
0
30
0
0
VERTEX
8
ARKA_OUTLINE
10
267.55
20
30.5
30
0
0
VERTEX
8
ARKA_OUTLINE
10
465.45
20
30.5
30
0
0
VERTEX
8
ARKA_OUTLINE
10
465.45
20
284.5
30
0
0
VERTEX
8
ARKA_OUTLINE
10
267.55
20
284.5
30
0
0
SEQEND
8
ARKA_OUTLINE
0
POLYLINE
8
ARKA_PANE
66
1
70
1
10
0
20
0
30
0
0
VERTEX
8
ARKA_PANE
10
265.55
20
28.5
30
0
0
VERTEX
8
ARKA_PANE
10
467.45
20
28.5
30
0
0
VERTEX
8
ARKA_PANE
10
467.45
20
286.5
30
0
0
VERTEX
8
ARKA_PANE
10
265.55
20
286.5
30
0
0
SEQEND
8
ARKA_PANE
0
POLYLINE
8
ARKA_FRONT_HINGES_3MM
66
1
70
1
10
0
20
0
30
0
0
VERTEX
8
ARKA_FRONT_HINGES_3MM
10
257.55
20
20.5
30
0
0
VERTEX
8
ARKA_FRONT_HINGES_3MM
10
475.45
20
20.5
30
0
0
VERTEX
8
ARKA_FRONT_HINGES_3MM
10
475.45
20
294.5
30
0
0
VERTEX
8
ARKA_FRONT_HINGES_3MM
10
257.55
20
294.5
30
0
0
SEQEND
8
ARKA_FRONT_HINGES_3MM
0
POLYLINE
8
ARKA_OUTLINE
66
1
70
1
10
0
20
0
30
0
0
VERTEX
8
ARKA_OUTLINE
10
487.45
20
30.5
30
0
0
VERTEX
8
ARKA_OUTLINE
10
702.5
20
30.5
30
0
0
VERTEX
8
ARKA_OUTLINE
10
702.5
20
284.5
30
0
0
VERTEX
8
ARKA_OUTLINE
10
487.45
20
284.5
30
0
0
SEQEND
8
ARKA_OUTLINE
0
POLYLINE
8
ARKA_PANE
66
1
70
1
10
0
20
0
30
0
0
VERTEX
8
ARKA_PANE
10
485.45
20
28.5
30
0
0
VERTEX
8
ARKA_PANE
10
704.5
20
28.5
30
0
0
VERTEX
8
ARKA_PANE
10
704.5
20
286.5
30
0
0
VERTEX
8
ARKA_PANE
10
485.45
20
286.5
30
0
0
SEQEND
8
ARKA_PANE
0
POLYLINE
8
ARKA_FRONT_HINGES_3MM
66
1
70
1
10
0
20
0
30
0
0
VERTEX
8
ARKA_FRONT_HINGES_3MM
10
477.45
20
20.5
30
0
0
VERTEX
8
ARKA_FRONT_HINGES_3MM
10
712.5
20
20.5
30
0
0
VERTEX
8
ARKA_FRONT_HINGES_3MM
10
712.5
20
294.5
30
0
0
VERTEX
8
ARKA_FRONT_HINGES_3MM
10
477.45
20
294.5
30
0
0
SEQEND
8
ARKA_FRONT_HINGES_3MM
0
POLYLINE
8
ARKA_OUTLINE
66
1
70
1
10
0
20
0
30
0
0
VERTEX
8
ARKA_OUTLINE
10
702.5
20
306.5
30
0
0
VERTEX
8
ARKA_OUTLINE
10
702.5
20
580
30
0
0
VERTEX
8
ARKA_OUTLINE
10
487.45
20
580
30
0
0
VERTEX
8
ARKA_OUTLINE
10
487.45
20
306.5
30
0
0
SEQEND
8
ARKA_OUTLINE
0
POLYLINE
8
ARKA_PANE
66
1
70
1
10
0
20
0
30
0
0
VERTEX
8
ARKA_PANE
10
704.5
20
304.5
30
0
0
VERTEX
8
ARKA_PANE
10
704.5
20
582
30
0
0
VERTEX
8
ARKA_PANE
10
485.45
20
582
30
0
0
VERTEX
8
ARKA_PANE
10
485.45
20
304.5
30
0
0
SEQEND
8
ARKA_PANE
0
POLYLINE
8
ARKA_FRONT_HINGES_3MM
66
1
70
1
10
0
20
0
30
0
0
VERTEX
8
ARKA_FRONT_HINGES_3MM
10
712.5
20
296.5
30
0
0
VERTEX
8
ARKA_FRONT_HINGES_3MM
10
712.5
20
590
30
0
0
VERTEX
8
ARKA_FRONT_HINGES_3MM
10
477.45
20
590
30
0
0
VERTEX
8
ARKA_FRONT_HINGES_3MM
10
477.45
20
296.5
30
0
0
SEQEND
8
ARKA_FRONT_HINGES_3MM
0
POLYLINE
8
ARKA_OUTLINE
66
1
70
1
10
0
20
0
30
0
0
VERTEX
8
ARKA_OUTLINE
10
702.319892
20
602
30
0
42
0.250477
0
VERTEX
8
ARKA_OUTLINE
10
543.936226
20
876.328558
30
0
0
VERTEX
8
ARKA_OUTLINE
10
436.250657
20
689.811681
30
0
42
-0.219699
0
VERTEX
8
ARKA_OUTLINE
10
486.948755
20
602
30
0
0
SEQEND
8
ARKA_OUTLINE
0
POLYLINE
8
ARKA_PANE
66
1
70
1
10
0
20
0
30
0
0
VERTEX
8
ARKA_PANE
10
704.380156
20
600
30
0
42
0.253728
0
VERTEX
8
ARKA_PANE
10
543.234307
20
879.112799
30
0
0
VERTEX
8
ARKA_PANE
10
433.598745
20
689.218435
30
0
42
-0.227752
0
VERTEX
8
ARKA_PANE
10
485.109032
20
600
30
0
0
SEQEND
8
ARKA_PANE
0
POLYLINE
8
ARKA_FRONT_HINGES_3MM
66
1
70
1
10
0
20
0
30
0
0
VERTEX
8
ARKA_FRONT_HINGES_3MM
10
712.498555
20
592
30
0
42
0.266401
0
VERTEX
8
ARKA_FRONT_HINGES_3MM
10
540.365303
20
890.143538
30
0
0
VERTEX
8
ARKA_FRONT_HINGES_3MM
10
422.838772
20
686.581616
30
0
42
-0.263125
0
VERTEX
8
ARKA_FRONT_HINGES_3MM
10
477.445493
20
592
30
0
0
SEQEND
8
ARKA_FRONT_HINGES_3MM
0
POLYLINE
8
ARKA_OUTLINE
66
1
70
1
10
0
20
0
30
0
0
VERTEX
8
ARKA_OUTLINE
10
524.883667
20
887.328558
30
0
42
0.250477
0
VERTEX
8
ARKA_OUTLINE
10
208.116333
20
887.328558
30
0
0
VERTEX
8
ARKA_OUTLINE
10
315.801902
20
700.811681
30
0
42
-0.219699
0
VERTEX
8
ARKA_OUTLINE
10
417.198098
20
700.811681
30
0
0
SEQEND
8
ARKA_OUTLINE
0
POLYLINE
8
ARKA_PANE
66
1
70
1
10
0
20
0
30
0
0
VERTEX
8
ARKA_PANE
10
527.64585
20
888.112799
30
0
42
0.253728
0
VERTEX
8
ARKA_PANE
10
205.35415
20
888.112799
30
0
0
VERTEX
8
ARKA_PANE
10
314.989713
20
698.218435
30
0
42
-0.227752
0
VERTEX
8
ARKA_PANE
10
418.010287
20
698.218435
30
0
0
SEQEND
8
ARKA_PANE
0
POLYLINE
8
ARKA_FRONT_HINGES_3MM
66
1
70
1
10
0
20
0
30
0
0
VERTEX
8
ARKA_FRONT_HINGES_3MM
10
538.633252
20
891.143538
30
0
42
0.266401
0
VERTEX
8
ARKA_FRONT_HINGES_3MM
10
194.366748
20
891.143538
30
0
0
VERTEX
8
ARKA_FRONT_HINGES_3MM
10
311.893279
20
687.581616
30
0
42
-0.263125
0
VERTEX
8
ARKA_FRONT_HINGES_3MM
10
421.106721
20
687.581616
30
0
0
SEQEND
8
ARKA_FRONT_HINGES_3MM
0
POLYLINE
8
ARKA_OUTLINE
66
1
70
1
10
0
20
0
30
0
0
VERTEX
8
ARKA_OUTLINE
10
189.063774
20
876.328558
30
0
42
0.250477
0
VERTEX
8
ARKA_OUTLINE
10
30.680108
20
602
30
0
0
VERTEX
8
ARKA_OUTLINE
10
246.051245
20
602
30
0
42
-0.219699
0
VERTEX
8
ARKA_OUTLINE
10
296.749343
20
689.811681
30
0
0
SEQEND
8
ARKA_OUTLINE
0
POLYLINE
8
ARKA_PANE
66
1
70
1
10
0
20
0
30
0
0
VERTEX
8
ARKA_PANE
10
189.765693
20
879.112799
30
0
42
0.253728
0
VERTEX
8
ARKA_PANE
10
28.619844
20
600
30
0
0
VERTEX
8
ARKA_PANE
10
247.890968
20
600
30
0
42
-0.227752
0
VERTEX
8
ARKA_PANE
10
299.401255
20
689.218435
30
0
0
SEQEND
8
ARKA_PANE
0
POLYLINE
8
ARKA_FRONT_HINGES_3MM
66
1
70
1
10
0
20
0
30
0
0
VERTEX
8
ARKA_FRONT_HINGES_3MM
10
192.634697
20
890.143538
30
0
42
0.266401
0
VERTEX
8
ARKA_FRONT_HINGES_3MM
10
20.501445
20
592
30
0
0
VERTEX
8
ARKA_FRONT_HINGES_3MM
10
255.554507
20
592
30
0
42
-0.263125
0
VERTEX
8
ARKA_FRONT_HINGES_3MM
10
310.161228
20
686.581616
30
0
0
SEQEND
8
ARKA_FRONT_HINGES_3MM
0
POLYLINE
8
ARKA_OUTLINE
66
1
70
1
10
0
20
0
30
0
0
VERTEX
8
ARKA_OUTLINE
10
30.5
20
580
30
0
0
VERTEX
8
ARKA_OUTLINE
10
30.5
20
306.5
30
0
0
VERTEX
8
ARKA_OUTLINE
10
245.55
20
306.5
30
0
0
VERTEX
8
ARKA_OUTLINE
10
245.55
20
580
30
0
0
SEQEND
8
ARKA_OUTLINE
0
POLYLINE
8
ARKA_PANE
66
1
70
1
10
0
20
0
30
0
0
VERTEX
8
ARKA_PANE
10
28.5
20
582
30
0
0
VERTEX
8
ARKA_PANE
10
28.5
20
304.5
30
0
0
VERTEX
8
ARKA_PANE
10
247.55
20
304.5
30
0
0
VERTEX
8
ARKA_PANE
10
247.55
20
582
30
0
0
SEQEND
8
ARKA_PANE
0
POLYLINE
8
ARKA_FRONT_HINGES_3MM
66
1
70
1
10
0
20
0
30
0
0
VERTEX
8
ARKA_FRONT_HINGES_3MM
10
20.5
20
590
30
0
0
VERTEX
8
ARKA_FRONT_HINGES_3MM
10
20.5
20
296.5
30
0
0
VERTEX
8
ARKA_FRONT_HINGES_3MM
10
255.55
20
296.5
30
0
0
VERTEX
8
ARKA_FRONT_HINGES_3MM
10
255.55
20
590
30
0
0
SEQEND
8
ARKA_FRONT_HINGES_3MM
0
POLYLINE
8
ARKA_OUTLINE
66
1
70
1
10
0
20
0
30
0
0
VERTEX
8
ARKA_OUTLINE
10
267.55
20
306.5
30
0
0
VERTEX
8
ARKA_OUTLINE
10
465.45
20
306.5
30
0
0
VERTEX
8
ARKA_OUTLINE
10
465.45
20
591
30
0
42
1
0
VERTEX
8
ARKA_OUTLINE
10
267.55
20
591.000002
30
0
0
SEQEND
8
ARKA_OUTLINE
0
POLYLINE
8
ARKA_PANE
66
1
70
1
10
0
20
0
30
0
0
VERTEX
8
ARKA_PANE
10
265.55
20
304.5
30
0
0
VERTEX
8
ARKA_PANE
10
467.45
20
304.5
30
0
0
VERTEX
8
ARKA_PANE
10
467.45
20
591
30
0
42
1
0
VERTEX
8
ARKA_PANE
10
265.55
20
591.000001
30
0
0
SEQEND
8
ARKA_PANE
0
POLYLINE
8
ARKA_FRONT_HINGES_3MM
66
1
70
1
10
0
20
0
30
0
0
VERTEX
8
ARKA_FRONT_HINGES_3MM
10
257.55
20
296.5
30
0
0
VERTEX
8
ARKA_FRONT_HINGES_3MM
10
475.45
20
296.5
30
0
0
VERTEX
8
ARKA_FRONT_HINGES_3MM
10
475.45
20
591
30
0
42
1
0
VERTEX
8
ARKA_FRONT_HINGES_3MM
10
257.55
20
591.000002
30
0
0
SEQEND
8
ARKA_FRONT_HINGES_3MM
0
POLYLINE
8
ARKA_MITRE
66
1
70
0
10
0
20
0
30
0
0
VERTEX
8
ARKA_MITRE
10
20.5
20
35.5
30
0
0
VERTEX
8
ARKA_MITRE
10
20.5
20
20.5
30
0
0
VERTEX
8
ARKA_MITRE
10
35.5
20
20.5
30
0
0
SEQEND
8
ARKA_MITRE
0
POLYLINE
8
ARKA_MITRE
66
1
70
0
10
0
20
0
30
0
0
VERTEX
8
ARKA_MITRE
10
240.55
20
20.5
30
0
0
VERTEX
8
ARKA_MITRE
10
255.55
20
20.5
30
0
0
VERTEX
8
ARKA_MITRE
10
255.55
20
35.5
30
0
0
SEQEND
8
ARKA_MITRE
0
POLYLINE
8
ARKA_MITRE
66
1
70
0
10
0
20
0
30
0
0
VERTEX
8
ARKA_MITRE
10
255.55
20
279.5
30
0
0
VERTEX
8
ARKA_MITRE
10
255.55
20
294.5
30
0
0
VERTEX
8
ARKA_MITRE
10
240.55
20
294.5
30
0
0
SEQEND
8
ARKA_MITRE
0
POLYLINE
8
ARKA_MITRE
66
1
70
0
10
0
20
0
30
0
0
VERTEX
8
ARKA_MITRE
10
35.5
20
294.5
30
0
0
VERTEX
8
ARKA_MITRE
10
20.5
20
294.5
30
0
0
VERTEX
8
ARKA_MITRE
10
20.5
20
279.5
30
0
0
SEQEND
8
ARKA_MITRE
0
POLYLINE
8
ARKA_MITRE
66
1
70
0
10
0
20
0
30
0
0
VERTEX
8
ARKA_MITRE
10
257.55
20
35.5
30
0
0
VERTEX
8
ARKA_MITRE
10
257.55
20
20.5
30
0
0
VERTEX
8
ARKA_MITRE
10
272.55
20
20.5
30
0
0
SEQEND
8
ARKA_MITRE
0
POLYLINE
8
ARKA_MITRE
66
1
70
0
10
0
20
0
30
0
0
VERTEX
8
ARKA_MITRE
10
460.45
20
20.5
30
0
0
VERTEX
8
ARKA_MITRE
10
475.45
20
20.5
30
0
0
VERTEX
8
ARKA_MITRE
10
475.45
20
35.5
30
0
0
SEQEND
8
ARKA_MITRE
0
POLYLINE
8
ARKA_MITRE
66
1
70
0
10
0
20
0
30
0
0
VERTEX
8
ARKA_MITRE
10
475.45
20
279.5
30
0
0
VERTEX
8
ARKA_MITRE
10
475.45
20
294.5
30
0
0
VERTEX
8
ARKA_MITRE
10
460.45
20
294.5
30
0
0
SEQEND
8
ARKA_MITRE
0
POLYLINE
8
ARKA_MITRE
66
1
70
0
10
0
20
0
30
0
0
VERTEX
8
ARKA_MITRE
10
272.55
20
294.5
30
0
0
VERTEX
8
ARKA_MITRE
10
257.55
20
294.5
30
0
0
VERTEX
8
ARKA_MITRE
10
257.55
20
279.5
30
0
0
SEQEND
8
ARKA_MITRE
0
POLYLINE
8
ARKA_MITRE
66
1
70
0
10
0
20
0
30
0
0
VERTEX
8
ARKA_MITRE
10
477.45
20
35.5
30
0
0
VERTEX
8
ARKA_MITRE
10
477.45
20
20.5
30
0
0
VERTEX
8
ARKA_MITRE
10
492.45
20
20.5
30
0
0
SEQEND
8
ARKA_MITRE
0
POLYLINE
8
ARKA_MITRE
66
1
70
0
10
0
20
0
30
0
0
VERTEX
8
ARKA_MITRE
10
697.5
20
20.5
30
0
0
VERTEX
8
ARKA_MITRE
10
712.5
20
20.5
30
0
0
VERTEX
8
ARKA_MITRE
10
712.5
20
35.5
30
0
0
SEQEND
8
ARKA_MITRE
0
POLYLINE
8
ARKA_MITRE
66
1
70
0
10
0
20
0
30
0
0
VERTEX
8
ARKA_MITRE
10
712.5
20
279.5
30
0
0
VERTEX
8
ARKA_MITRE
10
712.5
20
294.5
30
0
0
VERTEX
8
ARKA_MITRE
10
697.5
20
294.5
30
0
0
SEQEND
8
ARKA_MITRE
0
POLYLINE
8
ARKA_MITRE
66
1
70
0
10
0
20
0
30
0
0
VERTEX
8
ARKA_MITRE
10
492.45
20
294.5
30
0
0
VERTEX
8
ARKA_MITRE
10
477.45
20
294.5
30
0
0
VERTEX
8
ARKA_MITRE
10
477.45
20
279.5
30
0
0
SEQEND
8
ARKA_MITRE
0
POLYLINE
8
ARKA_MITRE
66
1
70
0
10
0
20
0
30
0
0
VERTEX
8
ARKA_MITRE
10
697.5
20
296.5
30
0
0
VERTEX
8
ARKA_MITRE
10
712.5
20
296.5
30
0
0
VERTEX
8
ARKA_MITRE
10
712.5
20
311.5
30
0
0
SEQEND
8
ARKA_MITRE
0
POLYLINE
8
ARKA_MITRE
66
1
70
0
10
0
20
0
30
0
0
VERTEX
8
ARKA_MITRE
10
712.5
20
575
30
0
0
VERTEX
8
ARKA_MITRE
10
712.5
20
590
30
0
0
VERTEX
8
ARKA_MITRE
10
697.5
20
590
30
0
0
SEQEND
8
ARKA_MITRE
0
POLYLINE
8
ARKA_MITRE
66
1
70
0
10
0
20
0
30
0
0
VERTEX
8
ARKA_MITRE
10
492.45
20
590
30
0
0
VERTEX
8
ARKA_MITRE
10
477.45
20
590
30
0
0
VERTEX
8
ARKA_MITRE
10
477.45
20
575
30
0
0
SEQEND
8
ARKA_MITRE
0
POLYLINE
8
ARKA_MITRE
66
1
70
0
10
0
20
0
30
0
0
VERTEX
8
ARKA_MITRE
10
477.45
20
311.5
30
0
0
VERTEX
8
ARKA_MITRE
10
477.45
20
296.5
30
0
0
VERTEX
8
ARKA_MITRE
10
492.45
20
296.5
30
0
0
SEQEND
8
ARKA_MITRE
0
POLYLINE
8
ARKA_MITRE
66
1
70
0
10
0
20
0
30
0
0
VERTEX
8
ARKA_MITRE
10
697.498555
20
592
30
0
0
VERTEX
8
ARKA_MITRE
10
712.498555
20
592
30
0
42
0.010839
0
VERTEX
8
ARKA_MITRE
10
712.130124
20
606.9943
30
0
0
SEQEND
8
ARKA_MITRE
0
POLYLINE
8
ARKA_MITRE
66
1
70
0
10
0
20
0
30
0
0
VERTEX
8
ARKA_MITRE
10
553.166532
20
882.327318
30
0
42
0.010839
0
VERTEX
8
ARKA_MITRE
10
540.365303
20
890.143538
30
0
0
VERTEX
8
ARKA_MITRE
10
532.865303
20
877.153157
30
0
0
SEQEND
8
ARKA_MITRE
0
POLYLINE
8
ARKA_MITRE
66
1
70
0
10
0
20
0
30
0
0
VERTEX
8
ARKA_MITRE
10
430.338772
20
699.571997
30
0
0
VERTEX
8
ARKA_MITRE
10
422.838772
20
686.581616
30
0
42
-0.033812
0
VERTEX
8
ARKA_MITRE
10
435.207603
20
678.11583
30
0
0
SEQEND
8
ARKA_MITRE
0
POLYLINE
8
ARKA_MITRE
66
1
70
0
10
0
20
0
30
0
0
VERTEX
8
ARKA_MITRE
10
476.298323
20
606.944614
30
0
42
-0.033812
0
VERTEX
8
ARKA_MITRE
10
477.445493
20
592
30
0
0
VERTEX
8
ARKA_MITRE
10
492.445493
20
592
30
0
0
SEQEND
8
ARKA_MITRE
0
POLYLINE
8
ARKA_MITRE
66
1
70
0
10
0
20
0
30
0
0
VERTEX
8
ARKA_MITRE
10
531.133252
20
878.153157
30
0
0
VERTEX
8
ARKA_MITRE
10
538.633252
20
891.143538
30
0
42
0.010839
0
VERTEX
8
ARKA_MITRE
10
525.463592
20
898.321617
30
0
0
SEQEND
8
ARKA_MITRE
0
POLYLINE
8
ARKA_MITRE
66
1
70
0
10
0
20
0
30
0
0
VERTEX
8
ARKA_MITRE
10
207.536408
20
898.321617
30
0
42
0.010839
0
VERTEX
8
ARKA_MITRE
10
194.366748
20
891.143538
30
0
0
VERTEX
8
ARKA_MITRE
10
201.866748
20
878.153157
30
0
0
SEQEND
8
ARKA_MITRE
0
POLYLINE
8
ARKA_MITRE
66
1
70
0
10
0
20
0
30
0
0
VERTEX
8
ARKA_MITRE
10
304.393279
20
700.571997
30
0
0
VERTEX
8
ARKA_MITRE
10
311.893279
20
687.581616
30
0
42
-0.033812
0
VERTEX
8
ARKA_MITRE
10
325.409279
20
694.060444
30
0
0
SEQEND
8
ARKA_MITRE
0
POLYLINE
8
ARKA_MITRE
66
1
70
0
10
0
20
0
30
0
0
VERTEX
8
ARKA_MITRE
10
407.590721
20
694.060444
30
0
42
-0.033812
0
VERTEX
8
ARKA_MITRE
10
421.106721
20
687.581616
30
0
0
VERTEX
8
ARKA_MITRE
10
428.606721
20
700.571997
30
0
0
SEQEND
8
ARKA_MITRE
0
POLYLINE
8
ARKA_MITRE
66
1
70
0
10
0
20
0
30
0
0
VERTEX
8
ARKA_MITRE
10
200.134697
20
877.153157
30
0
0
VERTEX
8
ARKA_MITRE
10
192.634697
20
890.143538
30
0
42
0.010839
0
VERTEX
8
ARKA_MITRE
10
179.833468
20
882.327318
30
0
0
SEQEND
8
ARKA_MITRE
0
POLYLINE
8
ARKA_MITRE
66
1
70
0
10
0
20
0
30
0
0
VERTEX
8
ARKA_MITRE
10
20.869876
20
606.9943
30
0
42
0.010839
0
VERTEX
8
ARKA_MITRE
10
20.501445
20
592
30
0
0
VERTEX
8
ARKA_MITRE
10
35.501445
20
592
30
0
0
SEQEND
8
ARKA_MITRE
0
POLYLINE
8
ARKA_MITRE
66
1
70
0
10
0
20
0
30
0
0
VERTEX
8
ARKA_MITRE
10
240.554507
20
592
30
0
0
VERTEX
8
ARKA_MITRE
10
255.554507
20
592
30
0
42
-0.033812
0
VERTEX
8
ARKA_MITRE
10
256.701677
20
606.944614
30
0
0
SEQEND
8
ARKA_MITRE
0
POLYLINE
8
ARKA_MITRE
66
1
70
0
10
0
20
0
30
0
0
VERTEX
8
ARKA_MITRE
10
297.792397
20
678.11583
30
0
42
-0.033812
0
VERTEX
8
ARKA_MITRE
10
310.161228
20
686.581616
30
0
0
VERTEX
8
ARKA_MITRE
10
302.661228
20
699.571997
30
0
0
SEQEND
8
ARKA_MITRE
0
POLYLINE
8
ARKA_MITRE
66
1
70
0
10
0
20
0
30
0
0
VERTEX
8
ARKA_MITRE
10
35.5
20
590
30
0
0
VERTEX
8
ARKA_MITRE
10
20.5
20
590
30
0
0
VERTEX
8
ARKA_MITRE
10
20.5
20
575
30
0
0
SEQEND
8
ARKA_MITRE
0
POLYLINE
8
ARKA_MITRE
66
1
70
0
10
0
20
0
30
0
0
VERTEX
8
ARKA_MITRE
10
20.5
20
311.5
30
0
0
VERTEX
8
ARKA_MITRE
10
20.5
20
296.5
30
0
0
VERTEX
8
ARKA_MITRE
10
35.5
20
296.5
30
0
0
SEQEND
8
ARKA_MITRE
0
POLYLINE
8
ARKA_MITRE
66
1
70
0
10
0
20
0
30
0
0
VERTEX
8
ARKA_MITRE
10
240.55
20
296.5
30
0
0
VERTEX
8
ARKA_MITRE
10
255.55
20
296.5
30
0
0
VERTEX
8
ARKA_MITRE
10
255.55
20
311.5
30
0
0
SEQEND
8
ARKA_MITRE
0
POLYLINE
8
ARKA_MITRE
66
1
70
0
10
0
20
0
30
0
0
VERTEX
8
ARKA_MITRE
10
255.55
20
575
30
0
0
VERTEX
8
ARKA_MITRE
10
255.55
20
590
30
0
0
VERTEX
8
ARKA_MITRE
10
240.55
20
590
30
0
0
SEQEND
8
ARKA_MITRE
0
POLYLINE
8
ARKA_MITRE
66
1
70
0
10
0
20
0
30
0
0
VERTEX
8
ARKA_MITRE
10
257.55
20
311.5
30
0
0
VERTEX
8
ARKA_MITRE
10
257.55
20
296.5
30
0
0
VERTEX
8
ARKA_MITRE
10
272.55
20
296.5
30
0
0
SEQEND
8
ARKA_MITRE
0
POLYLINE
8
ARKA_MITRE
66
1
70
0
10
0
20
0
30
0
0
VERTEX
8
ARKA_MITRE
10
460.45
20
296.5
30
0
0
VERTEX
8
ARKA_MITRE
10
475.45
20
296.5
30
0
0
VERTEX
8
ARKA_MITRE
10
475.45
20
311.5
30
0
0
SEQEND
8
ARKA_MITRE
0
POINT
8
ARKA_CENTRE
10
366.5
20
591
30
0
0
POLYLINE
8
ARKA_SECTION
66
1
70
0
10
0
20
0
30
0
0
VERTEX
8
ARKA_SECTION
10
820.5
20
12.5
30
0
42
-0.414214
0
VERTEX
8
ARKA_SECTION
10
828.5
20
20.5
30
0
0
VERTEX
8
ARKA_SECTION
10
828.5
20
26.5
30
0
0
SEQEND
8
ARKA_SECTION
0
TEXT
8
ARKA_INFO_NO_CUT
10
816.5
20
-6.5
30
0
40
15
1
START
72
0
11
816.5
21
-6.5
31
0
73
0
0
TEXT
8
ARKA_INFO_NO_CUT
10
840.5
20
16.5
30
0
40
15
1
SECTION R8 + 6 (VERBATIM)
72
0
11
840.5
21
16.5
31
0
73
0
0
TEXT
8
ARKA_INFO_NO_CUT
10
820.5
20
923
30
0
40
15
1
SS - TRACERY FULL
72
0
11
820.5
21
923
31
0
73
0
0
TEXT
8
ARKA_INFO_NO_CUT
10
820.5
20
901
30
0
40
15
1
PATTERN HUB-SPOKE SPOKES 4 RINGS 1 PANES 9
72
0
11
820.5
21
901
31
0
73
0
0
TEXT
8
ARKA_INFO_NO_CUT
10
820.5
20
879
30
0
40
15
1
TIMBER BAR 22 EDGE MARGIN 18 PANE +2 LIMIT +10 MITRE LEG 15
72
0
11
820.5
21
879
31
0
73
0
0
TEXT
8
ARKA_INFO_NO_CUT
10
820.5
20
857
30
0
40
15
1
ARKA_PANE = MOULDING RAIL (INNER EDGE OF THE BEAD), ARKA_FRONT_HINGES_3MM = BEAD LIMIT (NOT DRILLING)
72
0
11
820.5
21
857
31
0
73
0
0
TEXT
8
ARKA_INFO_NO_CUT
10
820.5
20
835
30
0
40
15
1
NOT A TOOLPATH
72
0
11
820.5
21
835
31
0
73
0
0
ENDSEC
0
EOF
