0
SECTION
2
HEADER
9
$ACADVER
1
AC1009
0
ENDSEC
0
SECTION
2
TABLES
0
TABLE
2
LAYER
70
9
0
LAYER
2
0
70
0
62
7
6
CONTINUOUS
0
LAYER
2
ARKA_OUTLINE
70
0
62
7
6
CONTINUOUS
0
LAYER
2
ARKA_PANE
70
0
62
3
6
CONTINUOUS
0
LAYER
2
ARKA_FRONT_HINGES_3MM
70
0
62
50
6
CONTINUOUS
0
LAYER
2
ARKA_MITRE
70
0
62
1
6
CONTINUOUS
0
LAYER
2
ARKA_SECTION
70
0
62
5
6
CONTINUOUS
0
LAYER
2
ARKA_PANE_ZEWN_REF
70
0
62
3
6
CONTINUOUS
0
LAYER
2
ARKA_CENTRE
70
0
62
6
6
CONTINUOUS
0
LAYER
2
ARKA_INFO_NO_CUT
70
0
62
8
6
CONTINUOUS
0
ENDTAB
0
ENDSEC
0
SECTION
2
ENTITIES
0
POLYLINE
8
ARKA_OUTLINE
66
1
70
1
10
0
20
0
30
0
0
VERTEX
8
ARKA_OUTLINE
10
-5.5
20
-5.5
30
0
0
VERTEX
8
ARKA_OUTLINE
10
794.5
20
-5.5
30
0
0
VERTEX
8
ARKA_OUTLINE
10
794.5
20
1032.474596
30
0
42
0.250492
0
VERTEX
8
ARKA_OUTLINE
10
394.5
20
1780.806074
30
0
42
0.250492
0
VERTEX
8
ARKA_OUTLINE
10
-5.5
20
1032.474596
30
0
0
SEQEND
8
ARKA_OUTLINE
0
POLYLINE
8
ARKA_PANE_ZEWN_REF
66
1
70
1
10
0
20
0
30
0
0
VERTEX
8
ARKA_PANE_ZEWN_REF
10
-3.5
20
-3.5
30
0
0
VERTEX
8
ARKA_PANE_ZEWN_REF
10
792.5
20
-3.5
30
0
0
VERTEX
8
ARKA_PANE_ZEWN_REF
10
792.5
20
1032.474596
30
0
42
0.250096
0
VERTEX
8
ARKA_PANE_ZEWN_REF
10
394.5
20
1778.399525
30
0
42
0.250096
0
VERTEX
8
ARKA_PANE_ZEWN_REF
10
-3.5
20
1032.474596
30
0
0
SEQEND
8
ARKA_PANE_ZEWN_REF
0
POLYLINE
8
ARKA_OUTLINE
66
1
70
1
10
0
20
0
30
0
0
VERTEX
8
ARKA_OUTLINE
10
12.5
20
12.5
30
0
0
VERTEX
8
ARKA_OUTLINE
10
252
20
12.5
30
0
0
VERTEX
8
ARKA_OUTLINE
10
252
20
505.237298
30
0
0
VERTEX
8
ARKA_OUTLINE
10
12.5
20
505.237298
30
0
0
SEQEND
8
ARKA_OUTLINE
0
POLYLINE
8
ARKA_PANE
66
1
70
1
10
0
20
0
30
0
0
VERTEX
8
ARKA_PANE
10
10.5
20
10.5
30
0
0
VERTEX
8
ARKA_PANE
10
254
20
10.5
30
0
0
VERTEX
8
ARKA_PANE
10
254
20
507.237298
30
0
0
VERTEX
8
ARKA_PANE
10
10.5
20
507.237298
30
0
0
SEQEND
8
ARKA_PANE
0
POLYLINE
8
ARKA_FRONT_HINGES_3MM
66
1
70
1
10
0
20
0
30
0
0
VERTEX
8
ARKA_FRONT_HINGES_3MM
10
2.5
20
2.5
30
0
0
VERTEX
8
ARKA_FRONT_HINGES_3MM
10
262
20
2.5
30
0
0
VERTEX
8
ARKA_FRONT_HINGES_3MM
10
262
20
515.237298
30
0
0
VERTEX
8
ARKA_FRONT_HINGES_3MM
10
2.5
20
515.237298
30
0
0
SEQEND
8
ARKA_FRONT_HINGES_3MM
0
POLYLINE
8
ARKA_OUTLINE
66
1
70
1
10
0
20
0
30
0
0
VERTEX
8
ARKA_OUTLINE
10
274
20
12.5
30
0
0
VERTEX
8
ARKA_OUTLINE
10
515
20
12.5
30
0
0
VERTEX
8
ARKA_OUTLINE
10
515
20
505.237298
30
0
0
VERTEX
8
ARKA_OUTLINE
10
274
20
505.237298
30
0
0
SEQEND
8
ARKA_OUTLINE
0
POLYLINE
8
ARKA_PANE
66
1
70
1
10
0
20
0
30
0
0
VERTEX
8
ARKA_PANE
10
272
20
10.5
30
0
0
VERTEX
8
ARKA_PANE
10
517
20
10.5
30
0
0
VERTEX
8
ARKA_PANE
10
517
20
507.237298
30
0
0
VERTEX
8
ARKA_PANE
10
272
20
507.237298
30
0
0
SEQEND
8
ARKA_PANE
0
POLYLINE
8
ARKA_FRONT_HINGES_3MM
66
1
70
1
10
0
20
0
30
0
0
VERTEX
8
ARKA_FRONT_HINGES_3MM
10
264
20
2.5
30
0
0
VERTEX
8
ARKA_FRONT_HINGES_3MM
10
525
20
2.5
30
0
0
VERTEX
8
ARKA_FRONT_HINGES_3MM
10
525
20
515.237298
30
0
0
VERTEX
8
ARKA_FRONT_HINGES_3MM
10
264
20
515.237298
30
0
0
SEQEND
8
ARKA_FRONT_HINGES_3MM
0
POLYLINE
8
ARKA_OUTLINE
66
1
70
1
10
0
20
0
30
0
0
VERTEX
8
ARKA_OUTLINE
10
537
20
12.5
30
0
0
VERTEX
8
ARKA_OUTLINE
10
776.5
20
12.5
30
0
0
VERTEX
8
ARKA_OUTLINE
10
776.5
20
505.237298
30
0
0
VERTEX
8
ARKA_OUTLINE
10
537
20
505.237298
30
0
0
SEQEND
8
ARKA_OUTLINE
0
POLYLINE
8
ARKA_PANE
66
1
70
1
10
0
20
0
30
0
0
VERTEX
8
ARKA_PANE
10
535
20
10.5
30
0
0
VERTEX
8
ARKA_PANE
10
778.5
20
10.5
30
0
0
VERTEX
8
ARKA_PANE
10
778.5
20
507.237298
30
0
0
VERTEX
8
ARKA_PANE
10
535
20
507.237298
30
0
0
SEQEND
8
ARKA_PANE
0
POLYLINE
8
ARKA_FRONT_HINGES_3MM
66
1
70
1
10
0
20
0
30
0
0
VERTEX
8
ARKA_FRONT_HINGES_3MM
10
527
20
2.5
30
0
0
VERTEX
8
ARKA_FRONT_HINGES_3MM
10
786.5
20
2.5
30
0
0
VERTEX
8
ARKA_FRONT_HINGES_3MM
10
786.5
20
515.237298
30
0
0
VERTEX
8
ARKA_FRONT_HINGES_3MM
10
527
20
515.237298
30
0
0
SEQEND
8
ARKA_FRONT_HINGES_3MM
0
POLYLINE
8
ARKA_OUTLINE
66
1
70
1
10
0
20
0
30
0
0
VERTEX
8
ARKA_OUTLINE
10
776.5
20
527.237298
30
0
0
VERTEX
8
ARKA_OUTLINE
10
776.5
20
1032.474596
30
0
42
0.132631
0
VERTEX
8
ARKA_OUTLINE
10
656.63229
20
1476.409695
30
0
42
0.13238
0
VERTEX
8
ARKA_OUTLINE
10
537
20
1032.474596
30
0
0
VERTEX
8
ARKA_OUTLINE
10
537
20
527.237298
30
0
0
SEQEND
8
ARKA_OUTLINE
0
POLYLINE
8
ARKA_PANE
66
1
70
1
10
0
20
0
30
0
0
VERTEX
8
ARKA_PANE
10
778.5
20
525.237298
30
0
0
VERTEX
8
ARKA_PANE
10
778.5
20
1032.474596
30
0
42
0.133617
0
VERTEX
8
ARKA_PANE
10
656.630324
20
1480.373434
30
0
42
0.133364
0
VERTEX
8
ARKA_PANE
10
535
20
1032.474596
30
0
0
VERTEX
8
ARKA_PANE
10
535
20
525.237298
30
0
0
SEQEND
8
ARKA_PANE
0
POLYLINE
8
ARKA_FRONT_HINGES_3MM
66
1
70
1
10
0
20
0
30
0
0
VERTEX
8
ARKA_FRONT_HINGES_3MM
10
786.5
20
517.237298
30
0
0
VERTEX
8
ARKA_FRONT_HINGES_3MM
10
786.5
20
1032.474596
30
0
42
0.137458
0
VERTEX
8
ARKA_FRONT_HINGES_3MM
10
656.622461
20
1495.975788
30
0
42
0.137198
0
VERTEX
8
ARKA_FRONT_HINGES_3MM
10
527
20
1032.474596
30
0
0
VERTEX
8
ARKA_FRONT_HINGES_3MM
10
527
20
517.237298
30
0
0
SEQEND
8
ARKA_FRONT_HINGES_3MM
0
POLYLINE
8
ARKA_OUTLINE
66
1
70
1
10
0
20
0
30
0
0
VERTEX
8
ARKA_OUTLINE
10
643.736484
20
1497.844009
30
0
42
0.054718
0
VERTEX
8
ARKA_OUTLINE
10
524.951603
20
1649.284758
30
0
42
0.054083
0
VERTEX
8
ARKA_OUTLINE
10
407.395806
20
1499.289279
30
0
42
-0.0967
0
VERTEX
8
ARKA_OUTLINE
10
526
20
1173.187069
30
0
42
-0.09623
0
SEQEND
8
ARKA_OUTLINE
0
POLYLINE
8
ARKA_PANE
66
1
70
1
10
0
20
0
30
0
0
VERTEX
8
ARKA_PANE
10
646.07921
20
1497.8612
30
0
42
0.055645
0
VERTEX
8
ARKA_PANE
10
524.949228
20
1652.143678
30
0
42
0.055009
0
VERTEX
8
ARKA_PANE
10
405.051114
20
1499.305319
30
0
42
-0.100768
0
VERTEX
8
ARKA_PANE
10
526
20
1159.683086
30
0
42
-0.100297
0
SEQEND
8
ARKA_PANE
0
POLYLINE
8
ARKA_FRONT_HINGES_3MM
66
1
70
1
10
0
20
0
30
0
0
VERTEX
8
ARKA_FRONT_HINGES_3MM
10
655.450115
20
1497.897977
30
0
42
0.059305
0
VERTEX
8
ARKA_FRONT_HINGES_3MM
10
524.939727
20
1663.513225
30
0
42
0.058668
0
VERTEX
8
ARKA_FRONT_HINGES_3MM
10
395.672346
20
1499.337398
30
0
42
-0.12595
0
VERTEX
8
ARKA_FRONT_HINGES_3MM
10
526
20
1074.782988
30
0
42
-0.125472
0
SEQEND
8
ARKA_FRONT_HINGES_3MM
0
POLYLINE
8
ARKA_OUTLINE
66
1
70
1
10
0
20
0
30
0
0
VERTEX
8
ARKA_OUTLINE
10
509.370447
20
1664.818121
30
0
42
0.04219
0
VERTEX
8
ARKA_OUTLINE
10
394.5
20
1759.058384
30
0
42
0.04219
0
VERTEX
8
ARKA_OUTLINE
10
279.629553
20
1664.818121
30
0
42
-0.05115
0
VERTEX
8
ARKA_OUTLINE
10
394.5
20
1520.082277
30
0
42
-0.05115
0
SEQEND
8
ARKA_OUTLINE
0
POLYLINE
8
ARKA_PANE
66
1
70
1
10
0
20
0
30
0
0
VERTEX
8
ARKA_PANE
10
512.20101
20
1664.852223
30
0
42
0.043148
0
VERTEX
8
ARKA_PANE
10
394.5
20
1761.484884
30
0
42
0.043148
0
VERTEX
8
ARKA_PANE
10
276.79899
20
1664.852223
30
0
42
-0.052575
0
VERTEX
8
ARKA_PANE
10
394.5
20
1516.358105
30
0
42
-0.052575
0
SEQEND
8
ARKA_PANE
0
POLYLINE
8
ARKA_FRONT_HINGES_3MM
66
1
70
1
10
0
20
0
30
0
0
VERTEX
8
ARKA_FRONT_HINGES_3MM
10
523.523258
20
1664.92518
30
0
42
0.046946
0
VERTEX
8
ARKA_FRONT_HINGES_3MM
10
394.5
20
1771.16533
30
0
42
0.046946
0
VERTEX
8
ARKA_FRONT_HINGES_3MM
10
265.476742
20
1664.92518
30
0
42
-0.058382
0
VERTEX
8
ARKA_FRONT_HINGES_3MM
10
394.5
20
1501.250929
30
0
42
-0.058382
0
SEQEND
8
ARKA_FRONT_HINGES_3MM
0
POLYLINE
8
ARKA_OUTLINE
66
1
70
1
10
0
20
0
30
0
0
VERTEX
8
ARKA_OUTLINE
10
264.048397
20
1649.284758
30
0
42
0.054718
0
VERTEX
8
ARKA_OUTLINE
10
145.263516
20
1497.844009
30
0
42
-0.09623
0
VERTEX
8
ARKA_OUTLINE
10
263
20
1173.187069
30
0
42
-0.0967
0
VERTEX
8
ARKA_OUTLINE
10
381.604194
20
1499.289279
30
0
42
0.054083
0
SEQEND
8
ARKA_OUTLINE
0
POLYLINE
8
ARKA_PANE
66
1
70
1
10
0
20
0
30
0
0
VERTEX
8
ARKA_PANE
10
264.050772
20
1652.143678
30
0
42
0.055645
0
VERTEX
8
ARKA_PANE
10
142.92079
20
1497.8612
30
0
42
-0.100297
0
VERTEX
8
ARKA_PANE
10
263
20
1159.683086
30
0
42
-0.100768
0
VERTEX
8
ARKA_PANE
10
383.948886
20
1499.305319
30
0
42
0.055009
0
SEQEND
8
ARKA_PANE
0
POLYLINE
8
ARKA_FRONT_HINGES_3MM
66
1
70
1
10
0
20
0
30
0
0
VERTEX
8
ARKA_FRONT_HINGES_3MM
10
264.060273
20
1663.513225
30
0
42
0.059305
0
VERTEX
8
ARKA_FRONT_HINGES_3MM
10
133.549885
20
1497.897977
30
0
42
-0.125472
0
VERTEX
8
ARKA_FRONT_HINGES_3MM
10
263
20
1074.782988
30
0
42
-0.12595
0
VERTEX
8
ARKA_FRONT_HINGES_3MM
10
393.327654
20
1499.337398
30
0
42
0.058668
0
SEQEND
8
ARKA_FRONT_HINGES_3MM
0
POLYLINE
8
ARKA_OUTLINE
66
1
70
1
10
0
20
0
30
0
0
VERTEX
8
ARKA_OUTLINE
10
132.36771
20
1476.409695
30
0
42
0.132631
0
VERTEX
8
ARKA_OUTLINE
10
12.5
20
1032.474596
30
0
0
VERTEX
8
ARKA_OUTLINE
10
12.5
20
527.237298
30
0
0
VERTEX
8
ARKA_OUTLINE
10
252
20
527.237298
30
0
0
VERTEX
8
ARKA_OUTLINE
10
252
20
1032.474596
30
0
42
0.13238
0
SEQEND
8
ARKA_OUTLINE
0
POLYLINE
8
ARKA_PANE
66
1
70
1
10
0
20
0
30
0
0
VERTEX
8
ARKA_PANE
10
132.369676
20
1480.373434
30
0
42
0.133617
0
VERTEX
8
ARKA_PANE
10
10.5
20
1032.474596
30
0
0
VERTEX
8
ARKA_PANE
10
10.5
20
525.237298
30
0
0
VERTEX
8
ARKA_PANE
10
254
20
525.237298
30
0
0
VERTEX
8
ARKA_PANE
10
254
20
1032.474596
30
0
42
0.133364
0
SEQEND
8
ARKA_PANE
0
POLYLINE
8
ARKA_FRONT_HINGES_3MM
66
1
70
1
10
0
20
0
30
0
0
VERTEX
8
ARKA_FRONT_HINGES_3MM
10
132.377539
20
1495.975788
30
0
42
0.137458
0
VERTEX
8
ARKA_FRONT_HINGES_3MM
10
2.5
20
1032.474596
30
0
0
VERTEX
8
ARKA_FRONT_HINGES_3MM
10
2.5
20
517.237298
30
0
0
VERTEX
8
ARKA_FRONT_HINGES_3MM
10
262
20
517.237298
30
0
0
VERTEX
8
ARKA_FRONT_HINGES_3MM
10
262
20
1032.474596
30
0
42
0.137198
0
SEQEND
8
ARKA_FRONT_HINGES_3MM
0
POLYLINE
8
ARKA_OUTLINE
66
1
70
1
10
0
20
0
30
0
0
VERTEX
8
ARKA_OUTLINE
10
274
20
527.237298
30
0
0
VERTEX
8
ARKA_OUTLINE
10
515
20
527.237298
30
0
0
VERTEX
8
ARKA_OUTLINE
10
515
20
1032.474596
30
0
42
0.132876
0
VERTEX
8
ARKA_OUTLINE
10
394.5
20
1477.899393
30
0
42
0.132876
0
VERTEX
8
ARKA_OUTLINE
10
274
20
1032.474596
30
0
0
SEQEND
8
ARKA_OUTLINE
0
POLYLINE
8
ARKA_PANE
66
1
70
1
10
0
20
0
30
0
0
VERTEX
8
ARKA_PANE
10
272
20
525.237298
30
0
0
VERTEX
8
ARKA_PANE
10
517
20
525.237298
30
0
0
VERTEX
8
ARKA_PANE
10
517
20
1032.474596
30
0
42
0.133857
0
VERTEX
8
ARKA_PANE
10
394.5
20
1481.853334
30
0
42
0.133857
0
VERTEX
8
ARKA_PANE
10
272
20
1032.474596
30
0
0
SEQEND
8
ARKA_PANE
0
POLYLINE
8
ARKA_FRONT_HINGES_3MM
66
1
70
1
10
0
20
0
30
0
0
VERTEX
8
ARKA_FRONT_HINGES_3MM
10
264
20
517.237298
30
0
0
VERTEX
8
ARKA_FRONT_HINGES_3MM
10
525
20
517.237298
30
0
0
VERTEX
8
ARKA_FRONT_HINGES_3MM
10
525
20
1032.474596
30
0
42
0.137679
0
VERTEX
8
ARKA_FRONT_HINGES_3MM
10
394.5
20
1497.418948
30
0
42
0.137679
0
VERTEX
8
ARKA_FRONT_HINGES_3MM
10
264
20
1032.474596
30
0
0
SEQEND
8
ARKA_FRONT_HINGES_3MM
0
POLYLINE
8
ARKA_MITRE
66
1
70
0
10
0
20
0
30
0
0
VERTEX
8
ARKA_MITRE
10
2.5
20
17.5
30
0
0
VERTEX
8
ARKA_MITRE
10
2.5
20
2.5
30
0
0
VERTEX
8
ARKA_MITRE
10
17.5
20
2.5
30
0
0
SEQEND
8
ARKA_MITRE
0
POLYLINE
8
ARKA_MITRE
66
1
70
0
10
0
20
0
30
0
0
VERTEX
8
ARKA_MITRE
10
247
20
2.5
30
0
0
VERTEX
8
ARKA_MITRE
10
262
20
2.5
30
0
0
VERTEX
8
ARKA_MITRE
10
262
20
17.5
30
0
0
SEQEND
8
ARKA_MITRE
0
POLYLINE
8
ARKA_MITRE
66
1
70
0
10
0
20
0
30
0
0
VERTEX
8
ARKA_MITRE
10
262
20
500.237298
30
0
0
VERTEX
8
ARKA_MITRE
10
262
20
515.237298
30
0
0
VERTEX
8
ARKA_MITRE
10
247
20
515.237298
30
0
0
SEQEND
8
ARKA_MITRE
0
POLYLINE
8
ARKA_MITRE
66
1
70
0
10
0
20
0
30
0
0
VERTEX
8
ARKA_MITRE
10
17.5
20
515.237298
30
0
0
VERTEX
8
ARKA_MITRE
10
2.5
20
515.237298
30
0
0
VERTEX
8
ARKA_MITRE
10
2.5
20
500.237298
30
0
0
SEQEND
8
ARKA_MITRE
0
POLYLINE
8
ARKA_MITRE
66
1
70
0
10
0
20
0
30
0
0
VERTEX
8
ARKA_MITRE
10
264
20
17.5
30
0
0
VERTEX
8
ARKA_MITRE
10
264
20
2.5
30
0
0
VERTEX
8
ARKA_MITRE
10
279
20
2.5
30
0
0
SEQEND
8
ARKA_MITRE
0
POLYLINE
8
ARKA_MITRE
66
1
70
0
10
0
20
0
30
0
0
VERTEX
8
ARKA_MITRE
10
510
20
2.5
30
0
0
VERTEX
8
ARKA_MITRE
10
525
20
2.5
30
0
0
VERTEX
8
ARKA_MITRE
10
525
20
17.5
30
0
0
SEQEND
8
ARKA_MITRE
0
POLYLINE
8
ARKA_MITRE
66
1
70
0
10
0
20
0
30
0
0
VERTEX
8
ARKA_MITRE
10
525
20
500.237298
30
0
0
VERTEX
8
ARKA_MITRE
10
525
20
515.237298
30
0
0
VERTEX
8
ARKA_MITRE
10
510
20
515.237298
30
0
0
SEQEND
8
ARKA_MITRE
0
POLYLINE
8
ARKA_MITRE
66
1
70
0
10
0
20
0
30
0
0
VERTEX
8
ARKA_MITRE
10
279
20
515.237298
30
0
0
VERTEX
8
ARKA_MITRE
10
264
20
515.237298
30
0
0
VERTEX
8
ARKA_MITRE
10
264
20
500.237298
30
0
0
SEQEND
8
ARKA_MITRE
0
POLYLINE
8
ARKA_MITRE
66
1
70
0
10
0
20
0
30
0
0
VERTEX
8
ARKA_MITRE
10
527
20
17.5
30
0
0
VERTEX
8
ARKA_MITRE
10
527
20
2.5
30
0
0
VERTEX
8
ARKA_MITRE
10
542
20
2.5
30
0
0
SEQEND
8
ARKA_MITRE
0
POLYLINE
8
ARKA_MITRE
66
1
70
0
10
0
20
0
30
0
0
VERTEX
8
ARKA_MITRE
10
771.5
20
2.5
30
0
0
VERTEX
8
ARKA_MITRE
10
786.5
20
2.5
30
0
0
VERTEX
8
ARKA_MITRE
10
786.5
20
17.5
30
0
0
SEQEND
8
ARKA_MITRE
0
POLYLINE
8
ARKA_MITRE
66
1
70
0
10
0
20
0
30
0
0
VERTEX
8
ARKA_MITRE
10
786.5
20
500.237298
30
0
0
VERTEX
8
ARKA_MITRE
10
786.5
20
515.237298
30
0
0
VERTEX
8
ARKA_MITRE
10
771.5
20
515.237298
30
0
0
SEQEND
8
ARKA_MITRE
0
POLYLINE
8
ARKA_MITRE
66
1
70
0
10
0
20
0
30
0
0
VERTEX
8
ARKA_MITRE
10
542
20
515.237298
30
0
0
VERTEX
8
ARKA_MITRE
10
527
20
515.237298
30
0
0
VERTEX
8
ARKA_MITRE
10
527
20
500.237298
30
0
0
SEQEND
8
ARKA_MITRE
0
POLYLINE
8
ARKA_MITRE
66
1
70
0
10
0
20
0
30
0
0
VERTEX
8
ARKA_MITRE
10
771.5
20
517.237298
30
0
0
VERTEX
8
ARKA_MITRE
10
786.5
20
517.237298
30
0
0
VERTEX
8
ARKA_MITRE
10
786.5
20
532.237298
30
0
0
SEQEND
8
ARKA_MITRE
0
POLYLINE
8
ARKA_MITRE
66
1
70
0
10
0
20
0
30
0
0
VERTEX
8
ARKA_MITRE
10
664.308641
20
1483.094898
30
0
42
0.004204
0
VERTEX
8
ARKA_MITRE
10
656.622461
20
1495.975788
30
0
42
0.004197
0
VERTEX
8
ARKA_MITRE
10
648.949249
20
1483.087167
30
0
0
SEQEND
8
ARKA_MITRE
0
POLYLINE
8
ARKA_MITRE
66
1
70
0
10
0
20
0
30
0
0
VERTEX
8
ARKA_MITRE
10
527
20
532.237298
30
0
0
VERTEX
8
ARKA_MITRE
10
527
20
517.237298
30
0
0
VERTEX
8
ARKA_MITRE
10
542
20
517.237298
30
0
0
SEQEND
8
ARKA_MITRE
0
POLYLINE
8
ARKA_MITRE
66
1
70
0
10
0
20
0
30
0
0
VERTEX
8
ARKA_MITRE
10
647.761768
20
1485.018378
30
0
42
-0.004188
0
VERTEX
8
ARKA_MITRE
10
655.450115
20
1497.897977
30
0
42
0.004204
0
VERTEX
8
ARKA_MITRE
10
647.516268
20
1510.627815
30
0
0
SEQEND
8
ARKA_MITRE
0
POLYLINE
8
ARKA_MITRE
66
1
70
0
10
0
20
0
30
0
0
VERTEX
8
ARKA_MITRE
10
535.461726
20
1652.822938
30
0
42
0.004204
0
VERTEX
8
ARKA_MITRE
10
524.939727
20
1663.513225
30
0
42
0.004197
0
VERTEX
8
ARKA_MITRE
10
514.435539
20
1652.805435
30
0
0
SEQEND
8
ARKA_MITRE
0
POLYLINE
8
ARKA_MITRE
66
1
70
0
10
0
20
0
30
0
0
VERTEX
8
ARKA_MITRE
10
403.616982
20
1512.060506
30
0
42
0.004197
0
VERTEX
8
ARKA_MITRE
10
395.672346
20
1499.337398
30
0
42
-0.004188
0
VERTEX
8
ARKA_MITRE
10
403.384926
20
1486.472296
30
0
0
SEQEND
8
ARKA_MITRE
0
POLYLINE
8
ARKA_MITRE
66
1
70
0
10
0
20
0
30
0
0
VERTEX
8
ARKA_MITRE
10
525.165865
20
1089.759602
30
0
42
-0.004188
0
VERTEX
8
ARKA_MITRE
10
526
20
1074.782988
30
0
42
-0.004188
0
VERTEX
8
ARKA_MITRE
10
526.834135
20
1089.759602
30
0
0
SEQEND
8
ARKA_MITRE
0
POLYLINE
8
ARKA_MITRE
66
1
70
0
10
0
20
0
30
0
0
VERTEX
8
ARKA_MITRE
10
513.018879
20
1654.217577
30
0
42
-0.004188
0
VERTEX
8
ARKA_MITRE
10
523.523258
20
1664.92518
30
0
42
0.004204
0
VERTEX
8
ARKA_MITRE
10
512.799443
20
1675.413006
30
0
0
SEQEND
8
ARKA_MITRE
0
POLYLINE
8
ARKA_MITRE
66
1
70
0
10
0
20
0
30
0
0
VERTEX
8
ARKA_MITRE
10
406.85065
20
1762.653212
30
0
42
0.004204
0
VERTEX
8
ARKA_MITRE
10
394.5
20
1771.16533
30
0
42
0.004204
0
VERTEX
8
ARKA_MITRE
10
382.14935
20
1762.653212
30
0
0
SEQEND
8
ARKA_MITRE
0
POLYLINE
8
ARKA_MITRE
66
1
70
0
10
0
20
0
30
0
0
VERTEX
8
ARKA_MITRE
10
276.200557
20
1675.413006
30
0
42
0.004204
0
VERTEX
8
ARKA_MITRE
10
265.476742
20
1664.92518
30
0
42
-0.004188
0
VERTEX
8
ARKA_MITRE
10
275.981121
20
1654.217577
30
0
0
SEQEND
8
ARKA_MITRE
0
POLYLINE
8
ARKA_MITRE
66
1
70
0
10
0
20
0
30
0
0
VERTEX
8
ARKA_MITRE
10
386.54113
20
1513.965138
30
0
42
-0.004188
0
VERTEX
8
ARKA_MITRE
10
394.5
20
1501.250929
30
0
42
-0.004188
0
VERTEX
8
ARKA_MITRE
10
402.45887
20
1513.965138
30
0
0
SEQEND
8
ARKA_MITRE
0
POLYLINE
8
ARKA_MITRE
66
1
70
0
10
0
20
0
30
0
0
VERTEX
8
ARKA_MITRE
10
274.564461
20
1652.805435
30
0
42
0.004197
0
VERTEX
8
ARKA_MITRE
10
264.060273
20
1663.513225
30
0
42
0.004204
0
VERTEX
8
ARKA_MITRE
10
253.538274
20
1652.822938
30
0
0
SEQEND
8
ARKA_MITRE
0
POLYLINE
8
ARKA_MITRE
66
1
70
0
10
0
20
0
30
0
0
VERTEX
8
ARKA_MITRE
10
141.483732
20
1510.627815
30
0
42
0.004204
0
VERTEX
8
ARKA_MITRE
10
133.549885
20
1497.897977
30
0
42
-0.004188
0
VERTEX
8
ARKA_MITRE
10
141.238232
20
1485.018378
30
0
0
SEQEND
8
ARKA_MITRE
0
POLYLINE
8
ARKA_MITRE
66
1
70
0
10
0
20
0
30
0
0
VERTEX
8
ARKA_MITRE
10
262.165865
20
1089.759602
30
0
42
-0.004188
0
VERTEX
8
ARKA_MITRE
10
263
20
1074.782988
30
0
42
-0.004188
0
VERTEX
8
ARKA_MITRE
10
263.834135
20
1089.759602
30
0
0
SEQEND
8
ARKA_MITRE
0
POLYLINE
8
ARKA_MITRE
66
1
70
0
10
0
20
0
30
0
0
VERTEX
8
ARKA_MITRE
10
385.615074
20
1486.472296
30
0
42
-0.004188
0
VERTEX
8
ARKA_MITRE
10
393.327654
20
1499.337398
30
0
42
0.004197
0
VERTEX
8
ARKA_MITRE
10
385.383018
20
1512.060506
30
0
0
SEQEND
8
ARKA_MITRE
0
POLYLINE
8
ARKA_MITRE
66
1
70
0
10
0
20
0
30
0
0
VERTEX
8
ARKA_MITRE
10
140.050751
20
1483.087167
30
0
42
0.004197
0
VERTEX
8
ARKA_MITRE
10
132.377539
20
1495.975788
30
0
42
0.004204
0
VERTEX
8
ARKA_MITRE
10
124.691359
20
1483.094898
30
0
0
SEQEND
8
ARKA_MITRE
0
POLYLINE
8
ARKA_MITRE
66
1
70
0
10
0
20
0
30
0
0
VERTEX
8
ARKA_MITRE
10
2.5
20
532.237298
30
0
0
VERTEX
8
ARKA_MITRE
10
2.5
20
517.237298
30
0
0
VERTEX
8
ARKA_MITRE
10
17.5
20
517.237298
30
0
0
SEQEND
8
ARKA_MITRE
0
POLYLINE
8
ARKA_MITRE
66
1
70
0
10
0
20
0
30
0
0
VERTEX
8
ARKA_MITRE
10
247
20
517.237298
30
0
0
VERTEX
8
ARKA_MITRE
10
262
20
517.237298
30
0
0
VERTEX
8
ARKA_MITRE
10
262
20
532.237298
30
0
0
SEQEND
8
ARKA_MITRE
0
POLYLINE
8
ARKA_MITRE
66
1
70
0
10
0
20
0
30
0
0
VERTEX
8
ARKA_MITRE
10
264
20
532.237298
30
0
0
VERTEX
8
ARKA_MITRE
10
264
20
517.237298
30
0
0
VERTEX
8
ARKA_MITRE
10
279
20
517.237298
30
0
0
SEQEND
8
ARKA_MITRE
0
POLYLINE
8
ARKA_MITRE
66
1
70
0
10
0
20
0
30
0
0
VERTEX
8
ARKA_MITRE
10
510
20
517.237298
30
0
0
VERTEX
8
ARKA_MITRE
10
525
20
517.237298
30
0
0
VERTEX
8
ARKA_MITRE
10
525
20
532.237298
30
0
0
SEQEND
8
ARKA_MITRE
0
POLYLINE
8
ARKA_MITRE
66
1
70
0
10
0
20
0
30
0
0
VERTEX
8
ARKA_MITRE
10
402.197561
20
1484.544855
30
0
42
0.004197
0
VERTEX
8
ARKA_MITRE
10
394.5
20
1497.418948
30
0
42
0.004197
0
VERTEX
8
ARKA_MITRE
10
386.802439
20
1484.544855
30
0
0
SEQEND
8
ARKA_MITRE
0
POINT
8
ARKA_CENTRE
10
-105.5
20
1032.474596
30
0
0
POINT
8
ARKA_CENTRE
10
894.5
20
1032.474596
30
0
0
POLYLINE
8
ARKA_SECTION
66
1
70
0
10
0
20
0
30
0
0
VERTEX
8
ARKA_SECTION
10
894.5
20
-5.5
30
0
42
-0.414214
0
VERTEX
8
ARKA_SECTION
10
902.5
20
2.5
30
0
0
VERTEX
8
ARKA_SECTION
10
902.5
20
8.5
30
0
0
SEQEND
8
ARKA_SECTION
0
TEXT
8
ARKA_INFO_NO_CUT
10
890.5
20
-24.5
30
0
40
15
1
START
72
0
11
890.5
21
-24.5
31
0
73
0
0
TEXT
8
ARKA_INFO_NO_CUT
10
914.5
20
-1.5
30
0
40
15
1
SECTION R8 + 6 (VERBATIM)
72
0
11
914.5
21
-1.5
31
0
73
0
0
TEXT
8
ARKA_INFO_NO_CUT
10
894.5
20
1758.806074
30
0
40
15
1
gothic - TRACERY FULL
72
0
11
894.5
21
1758.806074
31
0
73
0
0
TEXT
8
ARKA_INFO_NO_CUT
10
894.5
20
1736.806074
30
0
40
15
1
PATTERN INTERSECTING SPOKES 0 RINGS 0 PANES 9
72
0
11
894.5
21
1736.806074
31
0
73
0
0
TEXT
8
ARKA_INFO_NO_CUT
10
894.5
20
1714.806074
30
0
40
15
1
TIMBER BAR 22 EDGE MARGIN 18 PANE +2 LIMIT +10 MITRE LEG 15
72
0
11
894.5
21
1714.806074
31
0
73
0
0
TEXT
8
ARKA_INFO_NO_CUT
10
894.5
20
1692.806074
30
0
40
15
1
ARKA_PANE = MOULDING RAIL (INNER EDGE OF THE BEAD), ARKA_FRONT_HINGES_3MM = BEAD LIMIT (NOT DRILLING)
72
0
11
894.5
21
1692.806074
31
0
73
0
0
TEXT
8
ARKA_INFO_NO_CUT
10
894.5
20
1670.806074
30
0
40
15
1
NOT A TOOLPATH
72
0
11
894.5
21
1670.806074
31
0
73
0
0
ENDSEC
0
EOF
