0
SECTION
2
HEADER
9
$ACADVER
1
AC1009
0
ENDSEC
0
SECTION
2
TABLES
0
TABLE
2
LAYER
70
4
0
LAYER
2
0
70
0
62
7
6
CONTINUOUS
0
LAYER
2
GLASS_CONTOUR
70
0
62
7
6
CONTINUOUS
0
LAYER
2
GLASS_BARS
70
0
62
3
6
CONTINUOUS
0
LAYER
2
GLASS_TEXT
70
0
62
2
6
CONTINUOUS
0
ENDTAB
0
ENDSEC
0
SECTION
2
ENTITIES
0
POLYLINE
8
GLASS_CONTOUR
66
1
70
1
10
0
20
0
30
0
0
VERTEX
8
GLASS_CONTOUR
10
0
20
0
30
0
0
VERTEX
8
GLASS_CONTOUR
10
811
20
0
30
0
0
VERTEX
8
GLASS_CONTOUR
10
811
20
832.474596
30
0
42
0.251569
0
VERTEX
8
GLASS_CONTOUR
10
405.5
20
1587.411845
30
0
42
0.251569
0
VERTEX
8
GLASS_CONTOUR
10
0
20
832.474596
30
0
0
SEQEND
8
GLASS_CONTOUR
0
POLYLINE
8
GLASS_BARS
66
1
70
0
10
0
20
0
30
0
0
VERTEX
8
GLASS_BARS
10
0
20
416.237298
30
0
0
VERTEX
8
GLASS_BARS
10
811
20
416.237298
30
0
0
SEQEND
8
GLASS_BARS
0
POLYLINE
8
GLASS_BARS
66
1
70
0
10
0
20
0
30
0
0
VERTEX
8
GLASS_BARS
10
270.333333
20
0
30
0
0
VERTEX
8
GLASS_BARS
10
270.333333
20
832.474596
30
0
0
SEQEND
8
GLASS_BARS
0
POLYLINE
8
GLASS_BARS
66
1
70
0
10
0
20
0
30
0
0
VERTEX
8
GLASS_BARS
10
270.333333
20
832.474596
30
0
42
0.289501
0
VERTEX
8
GLASS_BARS
10
62.086556
20
1161.995478
30
0
0
SEQEND
8
GLASS_BARS
0
POLYLINE
8
GLASS_BARS
66
1
70
0
10
0
20
0
30
0
0
VERTEX
8
GLASS_BARS
10
613.746778
20
1396.670264
30
0
42
0.280409
0
VERTEX
8
GLASS_BARS
10
270.333333
20
832.474596
30
0
0
SEQEND
8
GLASS_BARS
0
POLYLINE
8
GLASS_BARS
66
1
70
0
10
0
20
0
30
0
0
VERTEX
8
GLASS_BARS
10
540.666667
20
0
30
0
0
VERTEX
8
GLASS_BARS
10
540.666667
20
832.474596
30
0
0
SEQEND
8
GLASS_BARS
0
POLYLINE
8
GLASS_BARS
66
1
70
0
10
0
20
0
30
0
0
VERTEX
8
GLASS_BARS
10
540.666667
20
832.474596
30
0
42
0.280409
0
VERTEX
8
GLASS_BARS
10
197.253222
20
1396.670264
30
0
0
SEQEND
8
GLASS_BARS
0
POLYLINE
8
GLASS_BARS
66
1
70
0
10
0
20
0
30
0
0
VERTEX
8
GLASS_BARS
10
748.913444
20
1161.995478
30
0
42
0.289501
0
VERTEX
8
GLASS_BARS
10
540.666667
20
832.474596
30
0
0
SEQEND
8
GLASS_BARS
0
TEXT
8
GLASS_TEXT
10
911
20
1568.911845
30
0
40
15
1
GO1 - G1 GLASS GOTHIC-EQUILATERAL
72
0
11
911
21
1568.911845
31
0
73
0
0
TEXT
8
GLASS_TEXT
10
911
20
1546.911845
30
0
40
15
1
W811 x H1587.4 RISE 754.9 SPRINGING 832.5 R 905.5/905.5
72
0
11
911
21
1546.911845
31
0
73
0
0
TEXT
8
GLASS_TEXT
10
911
20
1524.911845
30
0
40
15
1
DOUBLE 4X16X4 TOUGHENED ARGON CLEAR SPACER SILVER
72
0
11
911
21
1524.911845
31
0
73
0
0
TEXT
8
GLASS_TEXT
10
911
20
1502.911845
30
0
40
15
1
BARS 7 PATTERN INTERSECTING TOTAL L=4687
72
0
11
911
21
1502.911845
31
0
73
0
0
TEXT
8
GLASS_TEXT
10
911
20
1480.911845
30
0
40
15
1
H1 H Y=416.2 X=0-811 L=811
72
0
11
911
21
1480.911845
31
0
73
0
0
TEXT
8
GLASS_TEXT
10
911
20
1458.911845
30
0
40
15
1
V1 V X=270.3 Y=0-832.5 L=832.5
72
0
11
911
21
1458.911845
31
0
73
0
0
TEXT
8
GLASS_TEXT
10
911
20
1436.911845
30
0
40
15
1
T1 TRACERY C=(-94.5,832.5) R=364.8 0-64.6DEG L=411
72
0
11
911
21
1436.911845
31
0
73
0
0
TEXT
8
GLASS_TEXT
10
911
20
1414.911845
30
0
40
15
1
T2 TRACERY C=(905.5,832.5) R=635.2 117.3-180DEG L=694.5
72
0
11
911
21
1414.911845
31
0
73
0
0
TEXT
8
GLASS_TEXT
10
911
20
1392.911845
30
0
40
15
1
V2 V X=540.7 Y=0-832.5 L=832.5
72
0
11
911
21
1392.911845
31
0
73
0
0
TEXT
8
GLASS_TEXT
10
911
20
1370.911845
30
0
40
15
1
T3 TRACERY C=(-94.5,832.5) R=635.2 0-62.7DEG L=694.5
72
0
11
911
21
1370.911845
31
0
73
0
0
TEXT
8
GLASS_TEXT
10
911
20
1348.911845
30
0
40
15
1
T4 TRACERY C=(905.5,832.5) R=364.8 115.4-180DEG L=411
72
0
11
911
21
1348.911845
31
0
73
0
0
ENDSEC
0
EOF
