0
SECTION
2
HEADER
9
$ACADVER
1
AC1009
0
ENDSEC
0
SECTION
2
TABLES
0
TABLE
2
LAYER
70
8
0
LAYER
2
0
70
0
62
7
6
CONTINUOUS
0
LAYER
2
FIT
70
0
62
4
6
CONTINUOUS
0
LAYER
2
CONTOUR
70
0
62
7
6
CONTINUOUS
0
LAYER
2
ASSEMBLY
70
0
62
8
6
CONTINUOUS
0
LAYER
2
PIECES
70
0
62
5
6
CONTINUOUS
0
LAYER
2
FINGER
70
0
62
1
6
CONTINUOUS
0
LAYER
2
CLAMPS
70
0
62
3
6
CONTINUOUS
0
LAYER
2
TEXT
70
0
62
94
6
CONTINUOUS
0
ENDTAB
0
ENDSEC
0
SECTION
2
ENTITIES
0
POLYLINE
8
PIECES
66
1
70
1
10
0
20
0
30
0
0
VERTEX
8
PIECES
10
1178.82473
20
0
30
0
0
VERTEX
8
PIECES
10
359.286598
20
0
30
0
0
VERTEX
8
PIECES
10
0
20
200
30
0
0
VERTEX
8
PIECES
10
1178.82473
20
200
30
0
0
SEQEND
8
PIECES
0
POLYLINE
8
CLAMPS
66
1
70
1
10
0
20
0
30
0
0
VERTEX
8
CLAMPS
10
331.411444
20
35
30
0
0
VERTEX
8
CLAMPS
10
461.411444
20
35
30
0
0
VERTEX
8
CLAMPS
10
461.411444
20
165
30
0
0
VERTEX
8
CLAMPS
10
331.411444
20
165
30
0
0
SEQEND
8
CLAMPS
0
POLYLINE
8
CLAMPS
66
1
70
1
10
0
20
0
30
0
0
VERTEX
8
CLAMPS
10
1028.82473
20
35
30
0
0
VERTEX
8
CLAMPS
10
1158.82473
20
35
30
0
0
VERTEX
8
CLAMPS
10
1158.82473
20
165
30
0
0
VERTEX
8
CLAMPS
10
1028.82473
20
165
30
0
0
SEQEND
8
CLAMPS
0
TEXT
8
TEXT
10
589.412365
20
110
30
0
40
15
1
C5 - LEAF TOP P1 L1178.8 x200
72
1
11
589.412365
21
110
31
0
73
2
0
TEXT
8
TEXT
10
589.412365
20
10
30
0
40
10
1
OUT 1163.8 IN 804.5 CUT A60.9/Q FINGER ONE END
72
1
11
589.412365
21
10
31
0
73
2
0
POLYLINE
8
PIECES
66
1
70
1
10
0
20
0
30
0
0
VERTEX
8
PIECES
10
2198.362862
20
0
30
0
0
VERTEX
8
PIECES
10
1378.82473
20
0
30
0
0
VERTEX
8
PIECES
10
1378.82473
20
200
30
0
0
VERTEX
8
PIECES
10
2557.64946
20
200
30
0
0
SEQEND
8
PIECES
0
POLYLINE
8
CLAMPS
66
1
70
1
10
0
20
0
30
0
0
VERTEX
8
CLAMPS
10
1398.82473
20
35
30
0
0
VERTEX
8
CLAMPS
10
1528.82473
20
35
30
0
0
VERTEX
8
CLAMPS
10
1528.82473
20
165
30
0
0
VERTEX
8
CLAMPS
10
1398.82473
20
165
30
0
0
SEQEND
8
CLAMPS
0
POLYLINE
8
CLAMPS
66
1
70
1
10
0
20
0
30
0
0
VERTEX
8
CLAMPS
10
2096.238017
20
35
30
0
0
VERTEX
8
CLAMPS
10
2226.238017
20
35
30
0
0
VERTEX
8
CLAMPS
10
2226.238017
20
165
30
0
0
VERTEX
8
CLAMPS
10
2096.238017
20
165
30
0
0
SEQEND
8
CLAMPS
0
TEXT
8
TEXT
10
1968.237095
20
110
30
0
40
15
1
C5 - LEAF TOP P2 L1178.8 x200
72
1
11
1968.237095
21
110
31
0
73
2
0
TEXT
8
TEXT
10
1968.237095
20
10
30
0
40
10
1
OUT 1163.8 IN 804.5 CUT Q/A60.9 FINGER ONE END
72
1
11
1968.237095
21
10
31
0
73
2
0
POLYLINE
8
CONTOUR
66
1
70
1
10
0
20
0
30
0
0
VERTEX
8
CONTOUR
10
1015.060235
20
437.679848
30
0
42
0.259576
0
VERTEX
8
CONTOUR
10
566.060235
20
1244.278261
30
0
42
0.259576
0
VERTEX
8
CONTOUR
10
117.060235
20
437.679848
30
0
0
VERTEX
8
CONTOUR
10
184.060235
20
437.679848
30
0
42
-0.246855
0
VERTEX
8
CONTOUR
10
566.060235
20
1164.263635
30
0
42
-0.246855
0
VERTEX
8
CONTOUR
10
948.060235
20
437.679848
30
0
0
SEQEND
8
CONTOUR
0
POLYLINE
8
ASSEMBLY
66
1
70
1
10
0
20
0
30
0
0
VERTEX
8
ASSEMBLY
10
957.370914
20
400
30
0
0
VERTEX
8
ASSEMBLY
10
566.060235
20
1102.963412
30
0
0
VERTEX
8
ASSEMBLY
10
566.060235
20
1514.165138
30
0
0
VERTEX
8
ASSEMBLY
10
1132.120471
20
497.275856
30
0
0
SEQEND
8
ASSEMBLY
0
POLYLINE
8
FINGER
66
1
70
0
10
0
20
0
30
0
0
VERTEX
8
FINGER
10
566.060235
20
1164.263635
30
0
0
VERTEX
8
FINGER
10
566.060235
20
1244.278261
30
0
0
SEQEND
8
FINGER
0
POLYLINE
8
ASSEMBLY
66
1
70
1
10
0
20
0
30
0
0
VERTEX
8
ASSEMBLY
10
566.060235
20
1102.963412
30
0
0
VERTEX
8
ASSEMBLY
10
174.749557
20
400
30
0
0
VERTEX
8
ASSEMBLY
10
0
20
497.275856
30
0
0
VERTEX
8
ASSEMBLY
10
566.060235
20
1514.165138
30
0
0
SEQEND
8
ASSEMBLY
0
TEXT
8
TEXT
10
1232.120471
20
1495.665138
30
0
40
15
1
C5 - LEAF TOP
72
0
11
1232.120471
21
1495.665138
31
0
73
0
0
TEXT
8
TEXT
10
1232.120471
20
1473.665138
30
0
40
15
1
GOTHIC EQUILATERAL W1000 RISE866 H2000 HINGE L
72
0
11
1232.120471
21
1473.665138
31
0
73
0
0
TEXT
8
TEXT
10
1232.120471
20
1451.665138
30
0
40
15
1
FACE 67 OFFSET 51 OUTER L1928.1 INNER L1707.7
72
0
11
1232.120471
21
1451.665138
31
0
73
0
0
TEXT
8
TEXT
10
1232.120471
20
1429.665138
30
0
40
15
1
SIDE 1 R949 L964.1 58.2DEG: FEWEST 1 x board 200 L1163.8 ROUGH 1178.8 WASTE 66%
72
0
11
1232.120471
21
1429.665138
31
0
73
0
0
TEXT
8
TEXT
10
1232.120471
20
1407.665138
30
0
40
15
1
  NO ECONOMY ALT WITHIN 4 PIECES -> DEFAULT FEWEST
72
0
11
1232.120471
21
1407.665138
31
0
73
0
0
TEXT
8
TEXT
10
1232.120471
20
1385.665138
30
0
40
15
1
SIDE 2 R949 L964.1 58.2DEG: FEWEST 1 x board 200 L1163.8 ROUGH 1178.8 WASTE 66%
72
0
11
1232.120471
21
1385.665138
31
0
73
0
0
TEXT
8
TEXT
10
1232.120471
20
1363.665138
30
0
40
15
1
  NO ECONOMY ALT WITHIN 4 PIECES -> DEFAULT FEWEST
72
0
11
1232.120471
21
1363.665138
31
0
73
0
0
TEXT
8
TEXT
10
1232.120471
20
1341.665138
30
0
40
15
1
FINGER 15/16/3.8
72
0
11
1232.120471
21
1341.665138
31
0
73
0
0
TEXT
8
TEXT
10
1232.120471
20
1319.665138
30
0
40
15
1
ALLOWANCE 10 PER SIDE  LIMITS: OVERALL >= 450 (CLAMP)  SHORTER EDGE >= 400  STOCK MAX 200
72
0
11
1232.120471
21
1319.665138
31
0
73
0
0
TEXT
8
TEXT
10
1232.120471
20
1297.665138
30
0
40
15
1
CLAMPS (SUGGESTION): UNICLAMP 130 x 130, CLEARANCE 20 FROM THE END CUTS, JAWS 40-98, PIECE THICKNESS 57
72
0
11
1232.120471
21
1297.665138
31
0
73
0
0
TEXT
8
TEXT
10
1232.120471
20
1275.665138
30
0
40
15
1
CUT CODES: J = JOINT FROM SQUARE  Q = SQUARE (SPRINGING FACE ROUTED WITH THE CONTOUR)  A = APEX FROM SQUARE
72
0
11
1232.120471
21
1275.665138
31
0
73
0
0
POLYLINE
8
PIECES
66
1
70
1
10
0
20
0
30
0
0
VERTEX
8
PIECES
10
547.114109
20
1714.165138
30
0
0
VERTEX
8
PIECES
10
32.153903
20
1714.165138
30
0
0
VERTEX
8
PIECES
10
0
20
1834.165138
30
0
0
VERTEX
8
PIECES
10
547.114109
20
1834.165138
30
0
0
SEQEND
8
PIECES
0
POLYLINE
8
CLAMPS
66
1
70
1
10
0
20
0
30
0
0
VERTEX
8
CLAMPS
10
68.493649
20
1709.165138
30
0
0
VERTEX
8
CLAMPS
10
198.493649
20
1709.165138
30
0
0
VERTEX
8
CLAMPS
10
198.493649
20
1839.165138
30
0
0
VERTEX
8
CLAMPS
10
68.493649
20
1839.165138
30
0
0
SEQEND
8
CLAMPS
0
POLYLINE
8
CLAMPS
66
1
70
1
10
0
20
0
30
0
0
VERTEX
8
CLAMPS
10
397.114109
20
1709.165138
30
0
0
VERTEX
8
CLAMPS
10
527.114109
20
1709.165138
30
0
0
VERTEX
8
CLAMPS
10
527.114109
20
1839.165138
30
0
0
VERTEX
8
CLAMPS
10
397.114109
20
1839.165138
30
0
0
SEQEND
8
CLAMPS
0
TEXT
8
TEXT
10
273.557055
20
1784.165138
30
0
40
15
1
C5 - FRAME HEAD P1 L547.1 x120
72
1
11
273.557055
21
1784.165138
31
0
73
2
0
TEXT
8
TEXT
10
273.557055
20
1724.165138
30
0
40
10
1
OUT 532.1 IN 500 CUT J15/Q FINGER ONE END
72
1
11
273.557055
21
1724.165138
31
0
73
2
0
POLYLINE
8
PIECES
66
1
70
1
10
0
20
0
30
0
0
VERTEX
8
PIECES
10
1318.852104
20
1714.165138
30
0
0
VERTEX
8
PIECES
10
867.114109
20
1714.165138
30
0
0
VERTEX
8
PIECES
10
747.114109
20
1834.165138
30
0
0
VERTEX
8
PIECES
10
1351.006007
20
1834.165138
30
0
0
SEQEND
8
PIECES
0
POLYLINE
8
CLAMPS
66
1
70
1
10
0
20
0
30
0
0
VERTEX
8
CLAMPS
10
907.114109
20
1709.165138
30
0
0
VERTEX
8
CLAMPS
10
1037.114109
20
1709.165138
30
0
0
VERTEX
8
CLAMPS
10
1037.114109
20
1839.165138
30
0
0
VERTEX
8
CLAMPS
10
907.114109
20
1839.165138
30
0
0
SEQEND
8
CLAMPS
0
POLYLINE
8
CLAMPS
66
1
70
1
10
0
20
0
30
0
0
VERTEX
8
CLAMPS
10
1152.512358
20
1709.165138
30
0
0
VERTEX
8
CLAMPS
10
1282.512358
20
1709.165138
30
0
0
VERTEX
8
CLAMPS
10
1282.512358
20
1839.165138
30
0
0
VERTEX
8
CLAMPS
10
1152.512358
20
1839.165138
30
0
0
SEQEND
8
CLAMPS
0
TEXT
8
TEXT
10
1049.060058
20
1784.165138
30
0
40
15
1
C5 - FRAME HEAD P2 L603.9 x120
72
1
11
1049.060058
21
1784.165138
31
0
73
2
0
TEXT
8
TEXT
10
1049.060058
20
1724.165138
30
0
40
10
1
OUT 573.9 IN 421.7 CUT A45/J15 FINGER BOTH ENDS
72
1
11
1049.060058
21
1724.165138
31
0
73
2
0
POLYLINE
8
PIECES
66
1
70
1
10
0
20
0
30
0
0
VERTEX
8
PIECES
10
2034.897906
20
1714.165138
30
0
0
VERTEX
8
PIECES
10
1583.15991
20
1714.165138
30
0
0
VERTEX
8
PIECES
10
1551.006007
20
1834.165138
30
0
0
VERTEX
8
PIECES
10
2154.897906
20
1834.165138
30
0
0
SEQEND
8
PIECES
0
POLYLINE
8
CLAMPS
66
1
70
1
10
0
20
0
30
0
0
VERTEX
8
CLAMPS
10
1619.499656
20
1709.165138
30
0
0
VERTEX
8
CLAMPS
10
1749.499656
20
1709.165138
30
0
0
VERTEX
8
CLAMPS
10
1749.499656
20
1839.165138
30
0
0
VERTEX
8
CLAMPS
10
1619.499656
20
1839.165138
30
0
0
SEQEND
8
CLAMPS
0
POLYLINE
8
CLAMPS
66
1
70
1
10
0
20
0
30
0
0
VERTEX
8
CLAMPS
10
1864.897906
20
1709.165138
30
0
0
VERTEX
8
CLAMPS
10
1994.897906
20
1709.165138
30
0
0
VERTEX
8
CLAMPS
10
1994.897906
20
1839.165138
30
0
0
VERTEX
8
CLAMPS
10
1864.897906
20
1839.165138
30
0
0
SEQEND
8
CLAMPS
0
TEXT
8
TEXT
10
1852.951956
20
1784.165138
30
0
40
15
1
C5 - FRAME HEAD P3 L603.9 x120
72
1
11
1852.951956
21
1784.165138
31
0
73
2
0
TEXT
8
TEXT
10
1852.951956
20
1724.165138
30
0
40
10
1
OUT 573.9 IN 421.7 CUT J15/A45 FINGER BOTH ENDS
72
1
11
1852.951956
21
1724.165138
31
0
73
2
0
POLYLINE
8
PIECES
66
1
70
1
10
0
20
0
30
0
0
VERTEX
8
PIECES
10
2869.858112
20
1714.165138
30
0
0
VERTEX
8
PIECES
10
2354.897906
20
1714.165138
30
0
0
VERTEX
8
PIECES
10
2354.897906
20
1834.165138
30
0
0
VERTEX
8
PIECES
10
2902.012015
20
1834.165138
30
0
0
SEQEND
8
PIECES
0
POLYLINE
8
CLAMPS
66
1
70
1
10
0
20
0
30
0
0
VERTEX
8
CLAMPS
10
2374.897906
20
1709.165138
30
0
0
VERTEX
8
CLAMPS
10
2504.897906
20
1709.165138
30
0
0
VERTEX
8
CLAMPS
10
2504.897906
20
1839.165138
30
0
0
VERTEX
8
CLAMPS
10
2374.897906
20
1839.165138
30
0
0
SEQEND
8
CLAMPS
0
POLYLINE
8
CLAMPS
66
1
70
1
10
0
20
0
30
0
0
VERTEX
8
CLAMPS
10
2703.518366
20
1709.165138
30
0
0
VERTEX
8
CLAMPS
10
2833.518366
20
1709.165138
30
0
0
VERTEX
8
CLAMPS
10
2833.518366
20
1839.165138
30
0
0
VERTEX
8
CLAMPS
10
2703.518366
20
1839.165138
30
0
0
SEQEND
8
CLAMPS
0
TEXT
8
TEXT
10
2628.45496
20
1784.165138
30
0
40
15
1
C5 - FRAME HEAD P4 L547.1 x120
72
1
11
2628.45496
21
1784.165138
31
0
73
2
0
TEXT
8
TEXT
10
2628.45496
20
1724.165138
30
0
40
10
1
OUT 532.1 IN 500 CUT Q/J15 FINGER ONE END
72
1
11
2628.45496
21
1724.165138
31
0
73
2
0
POLYLINE
8
CONTOUR
66
1
70
1
10
0
20
0
30
0
0
VERTEX
8
CONTOUR
10
1043.524119
20
2056.240663
30
0
42
0.267949
0
VERTEX
8
CONTOUR
10
543.524119
20
2922.266067
30
0
42
0.267949
0
VERTEX
8
CONTOUR
10
43.524119
20
2056.240663
30
0
0
VERTEX
8
CONTOUR
10
111.524119
20
2056.240663
30
0
42
-0.25655
0
VERTEX
8
CONTOUR
10
543.524119
20
2842.767204
30
0
42
-0.25655
0
VERTEX
8
CONTOUR
10
975.524119
20
2056.240663
30
0
0
SEQEND
8
CONTOUR
0
POLYLINE
8
ASSEMBLY
66
1
70
1
10
0
20
0
30
0
0
VERTEX
8
ASSEMBLY
10
971.137138
20
2034.165138
30
0
0
VERTEX
8
ASSEMBLY
10
841.737915
20
2517.089613
30
0
0
VERTEX
8
ASSEMBLY
10
949.326971
20
2579.206184
30
0
0
VERTEX
8
ASSEMBLY
10
1087.048237
20
2065.223424
30
0
0
SEQEND
8
ASSEMBLY
0
POLYLINE
8
FINGER
66
1
70
0
10
0
20
0
30
0
0
VERTEX
8
FINGER
10
850.659795
20
2522.240663
30
0
0
VERTEX
8
FINGER
10
909.549522
20
2556.240663
30
0
0
SEQEND
8
FINGER
0
POLYLINE
8
ASSEMBLY
66
1
70
1
10
0
20
0
30
0
0
VERTEX
8
ASSEMBLY
10
841.737915
20
2517.089613
30
0
0
VERTEX
8
ASSEMBLY
10
543.524119
20
2815.30341
30
0
0
VERTEX
8
ASSEMBLY
10
543.524119
20
2985.009037
30
0
0
VERTEX
8
ASSEMBLY
10
949.326971
20
2579.206184
30
0
0
SEQEND
8
ASSEMBLY
0
POLYLINE
8
FINGER
66
1
70
0
10
0
20
0
30
0
0
VERTEX
8
FINGER
10
543.524119
20
2842.767204
30
0
0
VERTEX
8
FINGER
10
543.524119
20
2922.266067
30
0
0
SEQEND
8
FINGER
0
POLYLINE
8
ASSEMBLY
66
1
70
1
10
0
20
0
30
0
0
VERTEX
8
ASSEMBLY
10
543.524119
20
2815.30341
30
0
0
VERTEX
8
ASSEMBLY
10
245.310322
20
2517.089613
30
0
0
VERTEX
8
ASSEMBLY
10
137.721266
20
2579.206184
30
0
0
VERTEX
8
ASSEMBLY
10
543.524119
20
2985.009037
30
0
0
SEQEND
8
ASSEMBLY
0
POLYLINE
8
FINGER
66
1
70
0
10
0
20
0
30
0
0
VERTEX
8
FINGER
10
236.388442
20
2522.240663
30
0
0
VERTEX
8
FINGER
10
177.498715
20
2556.240663
30
0
0
SEQEND
8
FINGER
0
POLYLINE
8
ASSEMBLY
66
1
70
1
10
0
20
0
30
0
0
VERTEX
8
ASSEMBLY
10
245.310322
20
2517.089613
30
0
0
VERTEX
8
ASSEMBLY
10
115.911099
20
2034.165138
30
0
0
VERTEX
8
ASSEMBLY
10
0
20
2065.223424
30
0
0
VERTEX
8
ASSEMBLY
10
137.721266
20
2579.206184
30
0
0
SEQEND
8
ASSEMBLY
0
TEXT
8
TEXT
10
1187.048237
20
2966.509037
30
0
40
15
1
C5 - FRAME HEAD
72
0
11
1187.048237
21
2966.509037
31
0
73
0
0
TEXT
8
TEXT
10
1187.048237
20
2944.509037
30
0
40
15
1
GOTHIC EQUILATERAL W1000 RISE866 H2000 HINGE L
72
0
11
1187.048237
21
2944.509037
31
0
73
0
0
TEXT
8
TEXT
10
1187.048237
20
2922.509037
30
0
40
15
1
FACE 68 OFFSET 0 OUTER L2094.4 INNER L1872.5
72
0
11
1187.048237
21
2922.509037
31
0
73
0
0
TEXT
8
TEXT
10
1187.048237
20
2900.509037
30
0
40
15
1
SIDE 1 R1000 L1047.2 60DEG: FEWEST 2 x board 120 L573.9 ROUGH 603.9 WASTE 37%
72
0
11
1187.048237
21
2900.509037
31
0
73
0
0
TEXT
8
TEXT
10
1187.048237
20
2878.509037
30
0
40
15
1
  NO ECONOMY ALT WITHIN 5 PIECES -> DEFAULT FEWEST
72
0
11
1187.048237
21
2878.509037
31
0
73
0
0
TEXT
8
TEXT
10
1187.048237
20
2856.509037
30
0
40
15
1
SIDE 2 R1000 L1047.2 60DEG: FEWEST 2 x board 120 L573.9 ROUGH 603.9 WASTE 37%
72
0
11
1187.048237
21
2856.509037
31
0
73
0
0
TEXT
8
TEXT
10
1187.048237
20
2834.509037
30
0
40
15
1
  NO ECONOMY ALT WITHIN 5 PIECES -> DEFAULT FEWEST
72
0
11
1187.048237
21
2834.509037
31
0
73
0
0
TEXT
8
TEXT
10
1187.048237
20
2812.509037
30
0
40
15
1
FINGER 15/16/3.8
72
0
11
1187.048237
21
2812.509037
31
0
73
0
0
TEXT
8
TEXT
10
1187.048237
20
2790.509037
30
0
40
15
1
ALLOWANCE 10 PER SIDE  LIMITS: OVERALL >= 450 (CLAMP)  SHORTER EDGE >= 400  STOCK MAX 200
72
0
11
1187.048237
21
2790.509037
31
0
73
0
0
TEXT
8
TEXT
10
1187.048237
20
2768.509037
30
0
40
15
1
CLAMPS (SUGGESTION): UNICLAMP 130 x 130, CLEARANCE 20 FROM THE END CUTS, JAWS 40-98, PIECE THICKNESS 93
72
0
11
1187.048237
21
2768.509037
31
0
73
0
0
TEXT
8
TEXT
10
1187.048237
20
2746.509037
30
0
40
15
1
CUT CODES: J = JOINT FROM SQUARE  Q = SQUARE (SPRINGING FACE ROUTED WITH THE CONTOUR)  A = APEX FROM SQUARE
72
0
11
1187.048237
21
2746.509037
31
0
73
0
0
POLYLINE
8
FIT
66
1
70
1
10
0
20
0
30
0
0
VERTEX
8
FIT
10
1000
20
3185.009037
30
0
42
0.267949
0
VERTEX
8
FIT
10
500
20
4051.034441
30
0
42
0.267949
0
VERTEX
8
FIT
10
0
20
3185.009037
30
0
0
VERTEX
8
FIT
10
68
20
3185.009037
30
0
42
-0.25655
0
VERTEX
8
FIT
10
500
20
3971.535578
30
0
42
-0.25655
0
VERTEX
8
FIT
10
932
20
3185.009037
30
0
0
SEQEND
8
FIT
0
POLYLINE
8
FIT
66
1
70
1
10
0
20
0
30
0
0
VERTEX
8
FIT
10
949
20
3185.009037
30
0
42
0.259576
0
VERTEX
8
FIT
10
500
20
3991.60745
30
0
42
0.259576
0
VERTEX
8
FIT
10
51
20
3185.009037
30
0
0
VERTEX
8
FIT
10
118
20
3185.009037
30
0
42
-0.246855
0
VERTEX
8
FIT
10
500
20
3911.592824
30
0
42
-0.246855
0
VERTEX
8
FIT
10
882
20
3185.009037
30
0
0
SEQEND
8
FIT
0
POLYLINE
8
FIT
66
1
70
1
10
0
20
0
30
0
0
VERTEX
8
FIT
10
894.5
20
3185.009037
30
0
42
0.249399
0
VERTEX
8
FIT
10
500
20
3926.716695
30
0
42
0.249399
0
VERTEX
8
FIT
10
105.5
20
3185.009037
30
0
0
SEQEND
8
FIT
0
POLYLINE
8
FIT
66
1
70
0
10
0
20
0
30
0
0
VERTEX
8
FIT
10
953
20
3185.009037
30
0
42
0.005247
0
VERTEX
8
FIT
10
952.790144
20
3205.007569
30
0
0
SEQEND
8
FIT
0
POLYLINE
8
FIT
66
1
70
0
10
0
20
0
30
0
0
VERTEX
8
FIT
10
952.527846
20
3215.004083
30
0
42
0.005247
0
VERTEX
8
FIT
10
951.688653
20
3234.986101
30
0
0
SEQEND
8
FIT
0
POLYLINE
8
FIT
66
1
70
0
10
0
20
0
30
0
0
VERTEX
8
FIT
10
951.111852
20
3244.969407
30
0
42
0.005247
0
VERTEX
8
FIT
10
949.644154
20
3264.915112
30
0
0
SEQEND
8
FIT
0
POLYLINE
8
FIT
66
1
70
0
10
0
20
0
30
0
0
VERTEX
8
FIT
10
948.75342
20
3274.875317
30
0
42
0.005247
0
VERTEX
8
FIT
10
946.658672
20
3294.764946
30
0
0
SEQEND
8
FIT
0
POLYLINE
8
FIT
66
1
70
0
10
0
20
0
30
0
0
VERTEX
8
FIT
10
945.454888
20
3304.692181
30
0
42
0.005247
0
VERTEX
8
FIT
10
942.735164
20
3324.506025
30
0
0
SEQEND
8
FIT
0
POLYLINE
8
FIT
66
1
70
0
10
0
20
0
30
0
0
VERTEX
8
FIT
10
941.219524
20
3334.390453
30
0
42
0.005247
0
VERTEX
8
FIT
10
937.87752
20
3354.108879
30
0
0
SEQEND
8
FIT
0
POLYLINE
8
FIT
66
1
70
0
10
0
20
0
30
0
0
VERTEX
8
FIT
10
936.051525
20
3363.940706
30
0
42
0.005247
0
VERTEX
8
FIT
10
932.090553
20
3383.544176
30
0
0
SEQEND
8
FIT
0
POLYLINE
8
FIT
66
1
70
0
10
0
20
0
30
0
0
VERTEX
8
FIT
10
929.956012
20
3393.31366
30
0
42
0.005247
0
VERTEX
8
FIT
10
925.379996
20
3412.782748
30
0
0
SEQEND
8
FIT
0
POLYLINE
8
FIT
66
1
70
0
10
0
20
0
30
0
0
VERTEX
8
FIT
10
922.939024
20
3422.480209
30
0
42
0.005247
0
VERTEX
8
FIT
10
917.752499
20
3441.795624
30
0
0
SEQEND
8
FIT
0
POLYLINE
8
FIT
66
1
70
0
10
0
20
0
30
0
0
VERTEX
8
FIT
10
915.007515
20
3451.411452
30
0
42
0.005247
0
VERTEX
8
FIT
10
909.215619
20
3470.554055
30
0
0
SEQEND
8
FIT
0
POLYLINE
8
FIT
66
1
70
0
10
0
20
0
30
0
0
VERTEX
8
FIT
10
906.169344
20
3480.078723
30
0
42
0.005247
0
VERTEX
8
FIT
10
899.777817
20
3499.029546
30
0
0
SEQEND
8
FIT
0
POLYLINE
8
FIT
66
1
70
0
10
0
20
0
30
0
0
VERTEX
8
FIT
10
896.433269
20
3508.453615
30
0
42
0.005247
0
VERTEX
8
FIT
10
889.448443
20
3527.19388
30
0
0
SEQEND
8
FIT
0
POLYLINE
8
FIT
66
1
70
0
10
0
20
0
30
0
0
VERTEX
8
FIT
10
885.808936
20
3536.508013
30
0
42
0.005247
0
VERTEX
8
FIT
10
878.237733
20
3555.01915
30
0
0
SEQEND
8
FIT
0
POLYLINE
8
FIT
66
1
70
0
10
0
20
0
30
0
0
VERTEX
8
FIT
10
874.306873
20
3564.214117
30
0
42
0.005247
0
VERTEX
8
FIT
10
866.156796
20
3582.477785
30
0
0
SEQEND
8
FIT
0
POLYLINE
8
FIT
66
1
70
0
10
0
20
0
30
0
0
VERTEX
8
FIT
10
861.938477
20
3591.544475
30
0
42
0.005247
0
VERTEX
8
FIT
10
853.217601
20
3609.542576
30
0
0
SEQEND
8
FIT
0
POLYLINE
8
FIT
66
1
70
0
10
0
20
0
30
0
0
VERTEX
8
FIT
10
848.716004
20
3618.472005
30
0
42
0.005247
0
VERTEX
8
FIT
10
839.43297
20
3636.186706
30
0
0
SEQEND
8
FIT
0
POLYLINE
8
FIT
66
1
70
0
10
0
20
0
30
0
0
VERTEX
8
FIT
10
834.652556
20
3644.970026
30
0
42
0.005247
0
VERTEX
8
FIT
10
824.816563
20
3662.383773
30
0
0
SEQEND
8
FIT
0
POLYLINE
8
FIT
66
1
70
0
10
0
20
0
30
0
0
VERTEX
8
FIT
10
819.762067
20
3671.012281
30
0
42
0.005247
0
VERTEX
8
FIT
10
809.382861
20
3688.107819
30
0
0
SEQEND
8
FIT
0
POLYLINE
8
FIT
66
1
70
0
10
0
20
0
30
0
0
VERTEX
8
FIT
10
804.059294
20
3696.572965
30
0
42
0.005247
0
VERTEX
8
FIT
10
793.147159
20
3713.333354
30
0
0
SEQEND
8
FIT
0
POLYLINE
8
FIT
66
1
70
0
10
0
20
0
30
0
0
VERTEX
8
FIT
10
787.559794
20
3721.626751
30
0
42
0.005247
0
VERTEX
8
FIT
10
776.125544
20
3738.035384
30
0
0
SEQEND
8
FIT
0
POLYLINE
8
FIT
66
1
70
0
10
0
20
0
30
0
0
VERTEX
8
FIT
10
770.279917
20
3746.148814
30
0
42
0.005247
0
VERTEX
8
FIT
10
758.334881
20
3762.189432
30
0
0
SEQEND
8
FIT
0
POLYLINE
8
FIT
66
1
70
0
10
0
20
0
30
0
0
VERTEX
8
FIT
10
752.236786
20
3770.114854
30
0
42
0.005247
0
VERTEX
8
FIT
10
739.7928
20
3785.771563
30
0
0
SEQEND
8
FIT
0
POLYLINE
8
FIT
66
1
70
0
10
0
20
0
30
0
0
VERTEX
8
FIT
10
733.448279
20
3793.501126
30
0
42
0.005247
0
VERTEX
8
FIT
10
720.517674
20
3808.758411
30
0
0
SEQEND
8
FIT
0
POLYLINE
8
FIT
66
1
70
0
10
0
20
0
30
0
0
VERTEX
8
FIT
10
713.933013
20
3816.284454
30
0
42
0.005247
0
VERTEX
8
FIT
10
700.528601
20
3831.127199
30
0
0
SEQEND
8
FIT
0
POLYLINE
8
FIT
66
1
70
0
10
0
20
0
30
0
0
VERTEX
8
FIT
10
693.710326
20
3838.442265
30
0
42
0.005247
0
VERTEX
8
FIT
10
679.845389
20
3852.855761
30
0
0
SEQEND
8
FIT
0
POLYLINE
8
FIT
66
1
70
0
10
0
20
0
30
0
0
VERTEX
8
FIT
10
672.800255
20
3859.952603
30
0
42
0.005247
0
VERTEX
8
FIT
10
658.488532
20
3873.922568
30
0
0
SEQEND
8
FIT
0
POLYLINE
8
FIT
66
1
70
0
10
0
20
0
30
0
0
VERTEX
8
FIT
10
651.22352
20
3880.794153
30
0
42
0.005247
0
VERTEX
8
FIT
10
636.479193
20
3894.306744
30
0
0
SEQEND
8
FIT
0
POLYLINE
8
FIT
66
1
70
0
10
0
20
0
30
0
0
VERTEX
8
FIT
10
629.001501
20
3900.946263
30
0
42
0.005247
0
VERTEX
8
FIT
10
613.839179
20
3913.988092
30
0
0
SEQEND
8
FIT
0
POLYLINE
8
FIT
66
1
70
0
10
0
20
0
30
0
0
VERTEX
8
FIT
10
606.156218
20
3920.388966
30
0
42
0.005247
0
VERTEX
8
FIT
10
590.590924
20
3932.947109
30
0
0
SEQEND
8
FIT
0
POLYLINE
8
FIT
66
1
70
0
10
0
20
0
30
0
0
VERTEX
8
FIT
10
582.710306
20
3939.102996
30
0
42
0.005247
0
VERTEX
8
FIT
10
566.757465
20
3951.16501
30
0
0
SEQEND
8
FIT
0
POLYLINE
8
FIT
66
1
70
0
10
0
20
0
30
0
0
VERTEX
8
FIT
10
558.686999
20
3957.06981
30
0
42
0.005247
0
VERTEX
8
FIT
10
542.362418
20
3968.623743
30
0
0
SEQEND
8
FIT
0
POLYLINE
8
FIT
66
1
70
0
10
0
20
0
30
0
0
VERTEX
8
FIT
10
534.110101
20
3974.271605
30
0
42
0.005247
0
VERTEX
8
FIT
10
517.429955
20
3985.306008
30
0
0
SEQEND
8
FIT
0
POLYLINE
8
FIT
66
1
70
0
10
0
20
0
30
0
0
VERTEX
8
FIT
10
509.003963
20
3990.691335
30
0
42
0.002784
0
VERTEX
8
FIT
10
500
20
3996.309844
30
0
0
SEQEND
8
FIT
0
POLYLINE
8
FIT
66
1
70
0
10
0
20
0
30
0
0
VERTEX
8
FIT
10
500
20
3996.309844
30
0
42
0.005247
0
VERTEX
8
FIT
10
483.085103
20
3985.638782
30
0
0
SEQEND
8
FIT
0
POLYLINE
8
FIT
66
1
70
0
10
0
20
0
30
0
0
VERTEX
8
FIT
10
474.712563
20
3980.170724
30
0
42
0.005247
0
VERTEX
8
FIT
10
458.141911
20
3968.972564
30
0
0
SEQEND
8
FIT
0
POLYLINE
8
FIT
66
1
70
0
10
0
20
0
30
0
0
VERTEX
8
FIT
10
449.945622
20
3963.243694
30
0
42
0.005247
0
VERTEX
8
FIT
10
433.735634
20
3951.529532
30
0
0
SEQEND
8
FIT
0
POLYLINE
8
FIT
66
1
70
0
10
0
20
0
30
0
0
VERTEX
8
FIT
10
425.723719
20
3945.545528
30
0
42
0.005247
0
VERTEX
8
FIT
10
409.890458
20
3933.32697
30
0
0
SEQEND
8
FIT
0
POLYLINE
8
FIT
66
1
70
0
10
0
20
0
30
0
0
VERTEX
8
FIT
10
402.070855
20
3927.093761
30
0
42
0.005247
0
VERTEX
8
FIT
10
386.630009
20
3914.382916
30
0
0
SEQEND
8
FIT
0
POLYLINE
8
FIT
66
1
70
0
10
0
20
0
30
0
0
VERTEX
8
FIT
10
379.010467
20
3907.906678
30
0
42
0.005247
0
VERTEX
8
FIT
10
363.977336
20
3894.716139
30
0
0
SEQEND
8
FIT
0
POLYLINE
8
FIT
66
1
70
0
10
0
20
0
30
0
0
VERTEX
8
FIT
10
356.565404
20
3888.003291
30
0
42
0.005247
0
VERTEX
8
FIT
10
341.954885
20
3874.346129
30
0
0
SEQEND
8
FIT
0
POLYLINE
8
FIT
66
1
70
0
10
0
20
0
30
0
0
VERTEX
8
FIT
10
334.757907
20
3867.40332
30
0
42
0.005247
0
VERTEX
8
FIT
10
320.584477
20
3853.293069
30
0
0
SEQEND
8
FIT
0
POLYLINE
8
FIT
66
1
70
0
10
0
20
0
30
0
0
VERTEX
8
FIT
10
313.609585
20
3846.12718
30
0
42
0.005247
0
VERTEX
8
FIT
10
299.887288
20
3831.57782
30
0
0
SEQEND
8
FIT
0
POLYLINE
8
FIT
66
1
70
0
10
0
20
0
30
0
0
VERTEX
8
FIT
10
293.141394
20
3824.195951
30
0
42
0.005247
0
VERTEX
8
FIT
10
279.883826
20
3809.221899
30
0
0
SEQEND
8
FIT
0
POLYLINE
8
FIT
66
1
70
0
10
0
20
0
30
0
0
VERTEX
8
FIT
10
273.373614
20
3801.631364
30
0
42
0.005247
0
VERTEX
8
FIT
10
260.593913
20
3786.247458
30
0
0
SEQEND
8
FIT
0
POLYLINE
8
FIT
66
1
70
0
10
0
20
0
30
0
0
VERTEX
8
FIT
10
254.325833
20
3778.45578
30
0
42
0.005247
0
VERTEX
8
FIT
10
242.036662
20
3762.677262
30
0
0
SEQEND
8
FIT
0
POLYLINE
8
FIT
66
1
70
0
10
0
20
0
30
0
0
VERTEX
8
FIT
10
236.016925
20
3754.692161
30
0
42
0.005247
0
VERTEX
8
FIT
10
224.230462
20
3738.534667
30
0
0
SEQEND
8
FIT
0
POLYLINE
8
FIT
66
1
70
0
10
0
20
0
30
0
0
VERTEX
8
FIT
10
218.465033
20
3730.364054
30
0
42
0.005247
0
VERTEX
8
FIT
10
207.192955
20
3713.843595
30
0
0
SEQEND
8
FIT
0
POLYLINE
8
FIT
66
1
70
0
10
0
20
0
30
0
0
VERTEX
8
FIT
10
201.687547
20
3705.495567
30
0
42
0.005247
0
VERTEX
8
FIT
10
190.941025
20
3688.628511
30
0
0
SEQEND
8
FIT
0
POLYLINE
8
FIT
66
1
70
0
10
0
20
0
30
0
0
VERTEX
8
FIT
10
185.701093
20
3680.11134
30
0
42
0.005247
0
VERTEX
8
FIT
10
175.490775
20
3662.914401
30
0
0
SEQEND
8
FIT
0
POLYLINE
8
FIT
66
1
70
0
10
0
20
0
30
0
0
VERTEX
8
FIT
10
170.521511
20
3654.236527
30
0
42
0.005247
0
VERTEX
8
FIT
10
160.857514
20
3636.726745
30
0
0
SEQEND
8
FIT
0
POLYLINE
8
FIT
66
1
70
0
10
0
20
0
30
0
0
VERTEX
8
FIT
10
156.163843
20
3627.896765
30
0
42
0.005247
0
VERTEX
8
FIT
10
147.055742
20
3610.091491
30
0
0
SEQEND
8
FIT
0
POLYLINE
8
FIT
66
1
70
0
10
0
20
0
30
0
0
VERTEX
8
FIT
10
142.642314
20
3601.118156
30
0
42
0.005247
0
VERTEX
8
FIT
10
134.099135
20
3583.035031
30
0
0
SEQEND
8
FIT
0
POLYLINE
8
FIT
66
1
70
0
10
0
20
0
30
0
0
VERTEX
8
FIT
10
129.970324
20
3573.927232
30
0
42
0.005247
0
VERTEX
8
FIT
10
122.000531
20
3555.584175
30
0
0
SEQEND
8
FIT
0
POLYLINE
8
FIT
66
1
70
0
10
0
20
0
30
0
0
VERTEX
8
FIT
10
118.160428
20
3546.350937
30
0
42
0.005247
0
VERTEX
8
FIT
10
110.771919
20
3527.766124
30
0
0
SEQEND
8
FIT
0
POLYLINE
8
FIT
66
1
70
0
10
0
20
0
30
0
0
VERTEX
8
FIT
10
107.224328
20
3518.416596
30
0
42
0.005247
0
VERTEX
8
FIT
10
100.424425
20
3499.608442
30
0
0
SEQEND
8
FIT
0
POLYLINE
8
FIT
66
1
70
0
10
0
20
0
30
0
0
VERTEX
8
FIT
10
97.172862
20
3490.151888
30
0
42
0.005247
0
VERTEX
8
FIT
10
90.968303
20
3471.13903
30
0
0
SEQEND
8
FIT
0
POLYLINE
8
FIT
66
1
70
0
10
0
20
0
30
0
0
VERTEX
8
FIT
10
88.015989
20
3461.58482
30
0
42
0.005247
0
VERTEX
8
FIT
10
82.41292
20
3442.386098
30
0
0
SEQEND
8
FIT
0
POLYLINE
8
FIT
66
1
70
0
10
0
20
0
30
0
0
VERTEX
8
FIT
10
79.762782
20
3432.743699
30
0
42
0.005247
0
VERTEX
8
FIT
10
74.766757
20
3413.378136
30
0
0
SEQEND
8
FIT
0
POLYLINE
8
FIT
66
1
70
0
10
0
20
0
30
0
0
VERTEX
8
FIT
10
72.421419
20
3403.657103
30
0
42
0.005247
0
VERTEX
8
FIT
10
68.037387
20
3384.143888
30
0
0
SEQEND
8
FIT
0
POLYLINE
8
FIT
66
1
70
0
10
0
20
0
30
0
0
VERTEX
8
FIT
10
65.999175
20
3374.353853
30
0
42
0.005247
0
VERTEX
8
FIT
10
62.231481
20
3354.712321
30
0
0
SEQEND
8
FIT
0
POLYLINE
8
FIT
66
1
70
0
10
0
20
0
30
0
0
VERTEX
8
FIT
10
60.502413
20
3344.862985
30
0
42
0.005247
0
VERTEX
8
FIT
10
57.35479
20
3325.112598
30
0
0
SEQEND
8
FIT
0
POLYLINE
8
FIT
66
1
70
0
10
0
20
0
30
0
0
VERTEX
8
FIT
10
55.93658
20
3315.213722
30
0
42
0.005247
0
VERTEX
8
FIT
10
53.412147
20
3295.37405
30
0
0
SEQEND
8
FIT
0
POLYLINE
8
FIT
66
1
70
0
10
0
20
0
30
0
0
VERTEX
8
FIT
10
52.306201
20
3285.435441
30
0
42
0.005247
0
VERTEX
8
FIT
10
50.407458
20
3265.526144
30
0
0
SEQEND
8
FIT
0
POLYLINE
8
FIT
66
1
70
0
10
0
20
0
30
0
0
VERTEX
8
FIT
10
49.614871
20
3255.557649
30
0
42
0.005247
0
VERTEX
8
FIT
10
48.343701
20
3235.598454
30
0
0
SEQEND
8
FIT
0
POLYLINE
8
FIT
66
1
70
0
10
0
20
0
30
0
0
VERTEX
8
FIT
10
47.865259
20
3225.609952
30
0
42
0.005247
0
VERTEX
8
FIT
10
47.222921
20
3205.620637
30
0
0
SEQEND
8
FIT
0
POLYLINE
8
FIT
66
1
70
0
10
0
20
0
30
0
0
VERTEX
8
FIT
10
47.059097
20
3195.622025
30
0
42
0.002784
0
VERTEX
8
FIT
10
47
20
3185.009037
30
0
0
SEQEND
8
FIT
0
TEXT
8
TEXT
10
1100
20
4032.534441
30
0
40
15
1
C5 - FIT (ASSEMBLY, NOT A TOOLPATH)
72
0
11
1100
21
4032.534441
31
0
73
0
0
TEXT
8
TEXT
10
1100
20
4010.534441
30
0
40
15
1
GAP 4 LAP 17 (REBATE)
72
0
11
1100
21
4010.534441
31
0
73
0
0
TEXT
8
TEXT
10
1100
20
3988.534441
30
0
40
15
1
FRAME R1000/1000 / 932/932  REBATE WALL R953/953 (LAND 47, DASHED)
72
0
11
1100
21
3988.534441
31
0
73
0
0
TEXT
8
TEXT
10
1100
20
3966.534441
30
0
40
15
1
LEAF R949/949 / 882/882  GLASS R894.5/894.5
72
0
11
1100
21
3966.534441
31
0
73
0
0
ENDSEC
0
EOF
