0
SECTION
2
HEADER
9
$ACADVER
1
AC1009
0
ENDSEC
0
SECTION
2
TABLES
0
TABLE
2
LAYER
70
7
0
LAYER
2
0
70
0
62
7
6
CONTINUOUS
0
LAYER
2
FIT
70
0
62
4
6
CONTINUOUS
0
LAYER
2
CONTOUR
70
0
62
7
6
CONTINUOUS
0
LAYER
2
ASSEMBLY
70
0
62
8
6
CONTINUOUS
0
LAYER
2
PIECES
70
0
62
5
6
CONTINUOUS
0
LAYER
2
FINGER
70
0
62
1
6
CONTINUOUS
0
LAYER
2
TEXT
70
0
62
94
6
CONTINUOUS
0
ENDTAB
0
ENDSEC
0
SECTION
2
ENTITIES
0
POLYLINE
8
PIECES
66
1
70
1
10
0
20
0
30
0
0
VERTEX
8
PIECES
10
258.093038
20
0
30
0
0
VERTEX
8
PIECES
10
30.867371
20
0
30
0
0
VERTEX
8
PIECES
10
0
20
95
30
0
0
VERTEX
8
PIECES
10
288.960409
20
95
30
0
0
SEQEND
8
PIECES
0
TEXT
8
TEXT
10
144.480205
20
57.5
30
0
40
15
1
SS - S-ARCH TOP RAIL P1 L289 x95
72
1
11
144.480205
21
57.5
31
0
73
2
0
TEXT
8
TEXT
10
144.480205
20
10
30
0
40
10
1
OUT 274 IN 212.2 CUT J18/S72 FINGER ONE END
72
1
11
144.480205
21
10
31
0
73
2
0
POLYLINE
8
PIECES
66
1
70
1
10
0
20
0
30
0
0
VERTEX
8
PIECES
10
762.053448
20
0
30
0
0
VERTEX
8
PIECES
10
519.82778
20
0
30
0
0
VERTEX
8
PIECES
10
488.960409
20
95
30
0
0
VERTEX
8
PIECES
10
792.920819
20
95
30
0
0
SEQEND
8
PIECES
0
TEXT
8
TEXT
10
640.940614
20
57.5
30
0
40
15
1
SS - S-ARCH TOP RAIL P2 L304 x95
72
1
11
640.940614
21
57.5
31
0
73
2
0
TEXT
8
TEXT
10
640.940614
20
10
30
0
40
10
1
OUT 274 IN 212.2 CUT J18/J18 FINGER BOTH ENDS
72
1
11
640.940614
21
10
31
0
73
2
0
POLYLINE
8
PIECES
66
1
70
1
10
0
20
0
30
0
0
VERTEX
8
PIECES
10
1266.013857
20
0
30
0
0
VERTEX
8
PIECES
10
1023.78819
20
0
30
0
0
VERTEX
8
PIECES
10
992.920819
20
95
30
0
0
VERTEX
8
PIECES
10
1296.881228
20
95
30
0
0
SEQEND
8
PIECES
0
TEXT
8
TEXT
10
1144.901023
20
57.5
30
0
40
15
1
SS - S-ARCH TOP RAIL P3 L304 x95
72
1
11
1144.901023
21
57.5
31
0
73
2
0
TEXT
8
TEXT
10
1144.901023
20
10
30
0
40
10
1
OUT 274 IN 212.2 CUT J18/J18 FINGER BOTH ENDS
72
1
11
1144.901023
21
10
31
0
73
2
0
POLYLINE
8
PIECES
66
1
70
1
10
0
20
0
30
0
0
VERTEX
8
PIECES
10
1769.974266
20
0
30
0
0
VERTEX
8
PIECES
10
1527.748599
20
0
30
0
0
VERTEX
8
PIECES
10
1496.881228
20
95
30
0
0
VERTEX
8
PIECES
10
1800.841637
20
95
30
0
0
SEQEND
8
PIECES
0
TEXT
8
TEXT
10
1648.861433
20
57.5
30
0
40
15
1
SS - S-ARCH TOP RAIL P4 L304 x95
72
1
11
1648.861433
21
57.5
31
0
73
2
0
TEXT
8
TEXT
10
1648.861433
20
10
30
0
40
10
1
OUT 274 IN 212.2 CUT J18/J18 FINGER BOTH ENDS
72
1
11
1648.861433
21
10
31
0
73
2
0
POLYLINE
8
PIECES
66
1
70
1
10
0
20
0
30
0
0
VERTEX
8
PIECES
10
2258.934675
20
0
30
0
0
VERTEX
8
PIECES
10
2031.709008
20
0
30
0
0
VERTEX
8
PIECES
10
2000.841637
20
95
30
0
0
VERTEX
8
PIECES
10
2289.802047
20
95
30
0
0
SEQEND
8
PIECES
0
TEXT
8
TEXT
10
2145.321842
20
57.5
30
0
40
15
1
SS - S-ARCH TOP RAIL P5 L289 x95
72
1
11
2145.321842
21
57.5
31
0
73
2
0
TEXT
8
TEXT
10
2145.321842
20
10
30
0
40
10
1
OUT 274 IN 212.2 CUT S72/J18 FINGER ONE END
72
1
11
2145.321842
21
10
31
0
73
2
0
POLYLINE
8
CONTOUR
66
1
70
1
10
0
20
0
30
0
0
VERTEX
8
CONTOUR
10
854.277254
20
295
30
0
42
1
0
VERTEX
8
CONTOUR
10
32.277254
20
295
30
0
0
VERTEX
8
CONTOUR
10
89.277254
20
295
30
0
42
-1
0
VERTEX
8
CONTOUR
10
797.277254
20
295
30
0
0
SEQEND
8
CONTOUR
0
POLYLINE
8
ASSEMBLY
66
1
70
1
10
0
20
0
30
0
0
VERTEX
8
ASSEMBLY
10
786.665596
20
295
30
0
0
VERTEX
8
ASSEMBLY
10
721.084259
20
496.838604
30
0
0
VERTEX
8
ASSEMBLY
10
801.896085
20
555.551832
30
0
0
VERTEX
8
ASSEMBLY
10
886.554508
20
295
30
0
0
SEQEND
8
ASSEMBLY
0
POLYLINE
8
FINGER
66
1
70
0
10
0
20
0
30
0
0
VERTEX
8
FINGER
10
729.66927
20
503.075979
30
0
0
VERTEX
8
FINGER
10
775.783239
20
536.579739
30
0
0
SEQEND
8
FINGER
0
POLYLINE
8
ASSEMBLY
66
1
70
1
10
0
20
0
30
0
0
VERTEX
8
ASSEMBLY
10
721.084259
20
496.838604
30
0
0
VERTEX
8
ASSEMBLY
10
549.390087
20
621.581721
30
0
0
VERTEX
8
ASSEMBLY
10
580.257459
20
716.581721
30
0
0
VERTEX
8
ASSEMBLY
10
801.896085
20
555.551832
30
0
0
SEQEND
8
ASSEMBLY
0
POLYLINE
8
FINGER
66
1
70
0
10
0
20
0
30
0
0
VERTEX
8
FINGER
10
552.66927
20
631.674007
30
0
0
VERTEX
8
FINGER
10
570.283239
20
685.884228
30
0
0
SEQEND
8
FINGER
0
POLYLINE
8
ASSEMBLY
66
1
70
1
10
0
20
0
30
0
0
VERTEX
8
ASSEMBLY
10
549.390087
20
621.581721
30
0
0
VERTEX
8
ASSEMBLY
10
337.16442
20
621.581721
30
0
0
VERTEX
8
ASSEMBLY
10
306.297049
20
716.581721
30
0
0
VERTEX
8
ASSEMBLY
10
580.257459
20
716.581721
30
0
0
SEQEND
8
ASSEMBLY
0
POLYLINE
8
FINGER
66
1
70
0
10
0
20
0
30
0
0
VERTEX
8
FINGER
10
333.885238
20
631.674007
30
0
0
VERTEX
8
FINGER
10
316.271269
20
685.884228
30
0
0
SEQEND
8
FINGER
0
POLYLINE
8
ASSEMBLY
66
1
70
1
10
0
20
0
30
0
0
VERTEX
8
ASSEMBLY
10
337.16442
20
621.581721
30
0
0
VERTEX
8
ASSEMBLY
10
165.470249
20
496.838604
30
0
0
VERTEX
8
ASSEMBLY
10
84.658422
20
555.551832
30
0
0
VERTEX
8
ASSEMBLY
10
306.297049
20
716.581721
30
0
0
SEQEND
8
ASSEMBLY
0
POLYLINE
8
FINGER
66
1
70
0
10
0
20
0
30
0
0
VERTEX
8
FINGER
10
156.885238
20
503.075979
30
0
0
VERTEX
8
FINGER
10
110.771269
20
536.579739
30
0
0
SEQEND
8
FINGER
0
POLYLINE
8
ASSEMBLY
66
1
70
1
10
0
20
0
30
0
0
VERTEX
8
ASSEMBLY
10
165.470249
20
496.838604
30
0
0
VERTEX
8
ASSEMBLY
10
99.888911
20
295
30
0
0
VERTEX
8
ASSEMBLY
10
0
20
295
30
0
0
VERTEX
8
ASSEMBLY
10
84.658422
20
555.551832
30
0
0
SEQEND
8
ASSEMBLY
0
TEXT
8
TEXT
10
986.554508
20
698.081721
30
0
40
15
1
SS - S-ARCH TOP RAIL
72
0
11
986.554508
21
698.081721
31
0
73
0
0
TEXT
8
TEXT
10
986.554508
20
676.081721
30
0
40
15
1
SEMI-CIRCLE W1000 RISE500 H2200 SASH
72
0
11
986.554508
21
676.081721
31
0
73
0
0
TEXT
8
TEXT
10
986.554508
20
654.081721
30
0
40
15
1
FACE 57 OFFSET 89 OUTER L1291.2 INNER L1112.1
72
0
11
986.554508
21
654.081721
31
0
73
0
0
TEXT
8
TEXT
10
986.554508
20
632.081721
30
0
40
15
1
ARC 1 R411 L1291.2 180DEG: 5 x board 95 L274 ROUGH 304
72
0
11
986.554508
21
632.081721
31
0
73
0
0
TEXT
8
TEXT
10
986.554508
20
610.081721
30
0
40
15
1
FINGER 15/16/3.8
72
0
11
986.554508
21
610.081721
31
0
73
0
0
TEXT
8
TEXT
10
986.554508
20
588.081721
30
0
40
15
1
ALLOWANCE 10 PER SIDE  MAX SEGMENT 36 DEG  RULE NARROWEST
72
0
11
986.554508
21
588.081721
31
0
73
0
0
TEXT
8
TEXT
10
986.554508
20
566.081721
30
0
40
15
1
CUT CODES: J = JOINT FROM SQUARE  S = ARCH-START, AXIS TO HORIZONTAL  A = APEX FROM SQUARE
72
0
11
986.554508
21
566.081721
31
0
73
0
0
POLYLINE
8
PIECES
66
1
70
1
10
0
20
0
30
0
0
VERTEX
8
PIECES
10
307.406013
20
916.581721
30
0
0
VERTEX
8
PIECES
10
58.485545
20
916.581721
30
0
0
VERTEX
8
PIECES
10
0
20
1096.581721
30
0
0
VERTEX
8
PIECES
10
365.891558
20
1096.581721
30
0
0
SEQEND
8
PIECES
0
TEXT
8
TEXT
10
182.945779
20
1016.581721
30
0
40
15
1
SS - S-ARCH HEAD P1 L365.9 x180
72
1
11
182.945779
21
1016.581721
31
0
73
2
0
TEXT
8
TEXT
10
182.945779
20
926.581721
30
0
40
10
1
OUT 350.9 IN 233.9 CUT J18/S72 FINGER ONE END
72
1
11
182.945779
21
926.581721
31
0
73
2
0
POLYLINE
8
PIECES
66
1
70
1
10
0
20
0
30
0
0
VERTEX
8
PIECES
10
888.297571
20
916.581721
30
0
0
VERTEX
8
PIECES
10
624.377103
20
916.581721
30
0
0
VERTEX
8
PIECES
10
565.891558
20
1096.581721
30
0
0
VERTEX
8
PIECES
10
946.783116
20
1096.581721
30
0
0
SEQEND
8
PIECES
0
TEXT
8
TEXT
10
756.337337
20
1016.581721
30
0
40
15
1
SS - S-ARCH HEAD P2 L380.9 x180
72
1
11
756.337337
21
1016.581721
31
0
73
2
0
TEXT
8
TEXT
10
756.337337
20
926.581721
30
0
40
10
1
OUT 350.9 IN 233.9 CUT J18/J18 FINGER BOTH ENDS
72
1
11
756.337337
21
926.581721
31
0
73
2
0
POLYLINE
8
PIECES
66
1
70
1
10
0
20
0
30
0
0
VERTEX
8
PIECES
10
1469.189129
20
916.581721
30
0
0
VERTEX
8
PIECES
10
1205.268662
20
916.581721
30
0
0
VERTEX
8
PIECES
10
1146.783116
20
1096.581721
30
0
0
VERTEX
8
PIECES
10
1527.674674
20
1096.581721
30
0
0
SEQEND
8
PIECES
0
TEXT
8
TEXT
10
1337.228895
20
1016.581721
30
0
40
15
1
SS - S-ARCH HEAD P3 L380.9 x180
72
1
11
1337.228895
21
1016.581721
31
0
73
2
0
TEXT
8
TEXT
10
1337.228895
20
926.581721
30
0
40
10
1
OUT 350.9 IN 233.9 CUT J18/J18 FINGER BOTH ENDS
72
1
11
1337.228895
21
926.581721
31
0
73
2
0
POLYLINE
8
PIECES
66
1
70
1
10
0
20
0
30
0
0
VERTEX
8
PIECES
10
2050.080687
20
916.581721
30
0
0
VERTEX
8
PIECES
10
1786.16022
20
916.581721
30
0
0
VERTEX
8
PIECES
10
1727.674674
20
1096.581721
30
0
0
VERTEX
8
PIECES
10
2108.566232
20
1096.581721
30
0
0
SEQEND
8
PIECES
0
TEXT
8
TEXT
10
1918.120453
20
1016.581721
30
0
40
15
1
SS - S-ARCH HEAD P4 L380.9 x180
72
1
11
1918.120453
21
1016.581721
31
0
73
2
0
TEXT
8
TEXT
10
1918.120453
20
926.581721
30
0
40
10
1
OUT 350.9 IN 233.9 CUT J18/J18 FINGER BOTH ENDS
72
1
11
1918.120453
21
926.581721
31
0
73
2
0
POLYLINE
8
PIECES
66
1
70
1
10
0
20
0
30
0
0
VERTEX
8
PIECES
10
2615.972245
20
916.581721
30
0
0
VERTEX
8
PIECES
10
2367.051778
20
916.581721
30
0
0
VERTEX
8
PIECES
10
2308.566232
20
1096.581721
30
0
0
VERTEX
8
PIECES
10
2674.45779
20
1096.581721
30
0
0
SEQEND
8
PIECES
0
TEXT
8
TEXT
10
2491.512011
20
1016.581721
30
0
40
15
1
SS - S-ARCH HEAD P5 L365.9 x180
72
1
11
2491.512011
21
1016.581721
31
0
73
2
0
TEXT
8
TEXT
10
2491.512011
20
926.581721
30
0
40
10
1
OUT 350.9 IN 233.9 CUT S72/J18 FINGER ONE END
72
1
11
2491.512011
21
926.581721
31
0
73
2
0
POLYLINE
8
CONTOUR
66
1
70
1
10
0
20
0
30
0
0
VERTEX
8
CONTOUR
10
1067.754467
20
1296.581721
30
0
42
1
0
VERTEX
8
CONTOUR
10
67.754467
20
1296.581721
30
0
0
VERTEX
8
CONTOUR
10
147.754467
20
1296.581721
30
0
42
-1
0
VERTEX
8
CONTOUR
10
987.754467
20
1296.581721
30
0
0
SEQEND
8
CONTOUR
0
POLYLINE
8
ASSEMBLY
66
1
70
1
10
0
20
0
30
0
0
VERTEX
8
ASSEMBLY
10
946.245734
20
1296.581721
30
0
0
VERTEX
8
ASSEMBLY
10
873.960335
20
1519.053306
30
0
0
VERTEX
8
ASSEMBLY
10
1027.07748
20
1630.299424
30
0
0
VERTEX
8
ASSEMBLY
10
1135.508935
20
1296.581721
30
0
0
SEQEND
8
ASSEMBLY
0
POLYLINE
8
FINGER
66
1
70
0
10
0
20
0
30
0
0
VERTEX
8
FINGER
10
907.541605
20
1543.451527
30
0
0
VERTEX
8
FINGER
10
972.262965
20
1590.474347
30
0
0
SEQEND
8
FINGER
0
POLYLINE
8
ASSEMBLY
66
1
70
1
10
0
20
0
30
0
0
VERTEX
8
ASSEMBLY
10
873.960335
20
1519.053306
30
0
0
VERTEX
8
ASSEMBLY
10
684.714701
20
1656.548307
30
0
0
VERTEX
8
ASSEMBLY
10
743.200246
20
1836.548307
30
0
0
VERTEX
8
ASSEMBLY
10
1027.07748
20
1630.299424
30
0
0
SEQEND
8
ASSEMBLY
0
POLYLINE
8
FINGER
66
1
70
0
10
0
20
0
30
0
0
VERTEX
8
FINGER
10
697.541605
20
1696.025458
30
0
0
VERTEX
8
FINGER
10
722.262965
20
1772.109979
30
0
0
SEQEND
8
FINGER
0
POLYLINE
8
ASSEMBLY
66
1
70
1
10
0
20
0
30
0
0
VERTEX
8
ASSEMBLY
10
684.714701
20
1656.548307
30
0
0
VERTEX
8
ASSEMBLY
10
450.794234
20
1656.548307
30
0
0
VERTEX
8
ASSEMBLY
10
392.308688
20
1836.548307
30
0
0
VERTEX
8
ASSEMBLY
10
743.200246
20
1836.548307
30
0
0
SEQEND
8
ASSEMBLY
0
POLYLINE
8
FINGER
66
1
70
0
10
0
20
0
30
0
0
VERTEX
8
FINGER
10
437.96733
20
1696.025458
30
0
0
VERTEX
8
FINGER
10
413.24597
20
1772.109979
30
0
0
SEQEND
8
FINGER
0
POLYLINE
8
ASSEMBLY
66
1
70
1
10
0
20
0
30
0
0
VERTEX
8
ASSEMBLY
10
450.794234
20
1656.548307
30
0
0
VERTEX
8
ASSEMBLY
10
261.5486
20
1519.053306
30
0
0
VERTEX
8
ASSEMBLY
10
108.431455
20
1630.299424
30
0
0
VERTEX
8
ASSEMBLY
10
392.308688
20
1836.548307
30
0
0
SEQEND
8
ASSEMBLY
0
POLYLINE
8
FINGER
66
1
70
0
10
0
20
0
30
0
0
VERTEX
8
FINGER
10
227.96733
20
1543.451527
30
0
0
VERTEX
8
FINGER
10
163.24597
20
1590.474347
30
0
0
SEQEND
8
FINGER
0
POLYLINE
8
ASSEMBLY
66
1
70
1
10
0
20
0
30
0
0
VERTEX
8
ASSEMBLY
10
261.5486
20
1519.053306
30
0
0
VERTEX
8
ASSEMBLY
10
189.2632
20
1296.581721
30
0
0
VERTEX
8
ASSEMBLY
10
0
20
1296.581721
30
0
0
VERTEX
8
ASSEMBLY
10
108.431455
20
1630.299424
30
0
0
SEQEND
8
ASSEMBLY
0
TEXT
8
TEXT
10
1235.508935
20
1818.048307
30
0
40
15
1
SS - S-ARCH HEAD
72
0
11
1235.508935
21
1818.048307
31
0
73
0
0
TEXT
8
TEXT
10
1235.508935
20
1796.048307
30
0
40
15
1
SEMI-CIRCLE W1000 RISE500 H2200 SASH
72
0
11
1235.508935
21
1796.048307
31
0
73
0
0
TEXT
8
TEXT
10
1235.508935
20
1774.048307
30
0
40
15
1
FACE 80 OFFSET 0 OUTER L1570.8 INNER L1319.5
72
0
11
1235.508935
21
1774.048307
31
0
73
0
0
TEXT
8
TEXT
10
1235.508935
20
1752.048307
30
0
40
15
1
ARC 1 R500 L1570.8 180DEG: 5 x board 180 L350.9 ROUGH 380.9
72
0
11
1235.508935
21
1752.048307
31
0
73
0
0
TEXT
8
TEXT
10
1235.508935
20
1730.048307
30
0
40
15
1
FINGER 15/16/3.8
72
0
11
1235.508935
21
1730.048307
31
0
73
0
0
TEXT
8
TEXT
10
1235.508935
20
1708.048307
30
0
40
15
1
ALLOWANCE 10 PER SIDE  MAX SEGMENT 36 DEG  RULE NARROWEST
72
0
11
1235.508935
21
1708.048307
31
0
73
0
0
TEXT
8
TEXT
10
1235.508935
20
1686.048307
30
0
40
15
1
CUT CODES: J = JOINT FROM SQUARE  S = ARCH-START, AXIS TO HORIZONTAL  A = APEX FROM SQUARE
72
0
11
1235.508935
21
1686.048307
31
0
73
0
0
POLYLINE
8
FIT
66
1
70
1
10
0
20
0
30
0
0
VERTEX
8
FIT
10
1000
20
2036.548307
30
0
42
1
0
VERTEX
8
FIT
10
0
20
2036.548307
30
0
0
VERTEX
8
FIT
10
80
20
2036.548307
30
0
42
-1
0
VERTEX
8
FIT
10
920
20
2036.548307
30
0
0
SEQEND
8
FIT
0
POLYLINE
8
FIT
66
1
70
1
10
0
20
0
30
0
0
VERTEX
8
FIT
10
911
20
2036.548307
30
0
42
1
0
VERTEX
8
FIT
10
89
20
2036.548307
30
0
0
VERTEX
8
FIT
10
146
20
2036.548307
30
0
42
-1
0
VERTEX
8
FIT
10
854
20
2036.548307
30
0
0
SEQEND
8
FIT
0
POLYLINE
8
FIT
66
1
70
1
10
0
20
0
30
0
0
VERTEX
8
FIT
10
866.5
20
2036.548307
30
0
42
1
0
VERTEX
8
FIT
10
133.5
20
2036.548307
30
0
0
SEQEND
8
FIT
0
TEXT
8
TEXT
10
1100
20
2106.048307
30
0
40
15
1
SS - FIT (ASSEMBLY, NOT A TOOLPATH)
72
0
11
1100
21
2106.048307
31
0
73
0
0
TEXT
8
TEXT
10
1100
20
2084.048307
30
0
40
15
1
RUNNING GAP 9 (HEAD 80 FACE, SASH AT THE STILE LINE)
72
0
11
1100
21
2084.048307
31
0
73
0
0
TEXT
8
TEXT
10
1100
20
2062.048307
30
0
40
15
1
HEAD R500 / 420
72
0
11
1100
21
2062.048307
31
0
73
0
0
TEXT
8
TEXT
10
1100
20
2040.048307
30
0
40
15
1
TOP RAIL R411 / 354  GLASS R366.5
72
0
11
1100
21
2040.048307
31
0
73
0
0
ENDSEC
0
EOF
