0
SECTION
2
HEADER
9
$ACADVER
1
AC1009
0
ENDSEC
0
SECTION
2
TABLES
0
TABLE
2
LAYER
70
6
0
LAYER
2
0
70
0
62
7
6
CONTINUOUS
0
LAYER
2
GLASS_CONTOUR
70
0
62
7
6
CONTINUOUS
0
LAYER
2
GLASS_EDGE
70
0
62
8
6
CONTINUOUS
0
LAYER
2
GLASS_BARS
70
0
62
3
6
CONTINUOUS
0
LAYER
2
GLASS_BAR_AXES
70
0
62
4
6
CONTINUOUS
0
LAYER
2
GLASS_TEXT
70
0
62
2
6
CONTINUOUS
0
ENDTAB
0
ENDSEC
0
SECTION
2
ENTITIES
0
POLYLINE
8
GLASS_CONTOUR
66
1
70
1
10
0
20
0
30
0
0
VERTEX
8
GLASS_CONTOUR
10
611
20
305.5
30
0
42
1
0
VERTEX
8
GLASS_CONTOUR
10
0
20
305.5
30
0
42
1
0
SEQEND
8
GLASS_CONTOUR
0
POLYLINE
8
GLASS_EDGE
66
1
70
1
10
0
20
0
30
0
0
VERTEX
8
GLASS_EDGE
10
600
20
305.5
30
0
42
1
0
VERTEX
8
GLASS_EDGE
10
11
20
305.5
30
0
42
1
0
SEQEND
8
GLASS_EDGE
0
POLYLINE
8
GLASS_BAR_AXES
66
1
70
0
10
0
20
0
30
0
0
VERTEX
8
GLASS_BAR_AXES
10
411
20
305.5
30
0
42
1
0
VERTEX
8
GLASS_BAR_AXES
10
200
20
305.5
30
0
0
SEQEND
8
GLASS_BAR_AXES
0
POLYLINE
8
GLASS_BARS
66
1
70
0
10
0
20
0
30
0
0
VERTEX
8
GLASS_BARS
10
420
20
305.5
30
0
42
1
0
VERTEX
8
GLASS_BARS
10
191
20
305.5
30
0
0
SEQEND
8
GLASS_BARS
0
POLYLINE
8
GLASS_BARS
66
1
70
0
10
0
20
0
30
0
0
VERTEX
8
GLASS_BARS
10
402
20
305.5
30
0
42
1
0
VERTEX
8
GLASS_BARS
10
209
20
305.5
30
0
0
SEQEND
8
GLASS_BARS
0
POLYLINE
8
GLASS_BAR_AXES
66
1
70
0
10
0
20
0
30
0
0
VERTEX
8
GLASS_BAR_AXES
10
200
20
305.5
30
0
42
1
0
VERTEX
8
GLASS_BAR_AXES
10
411
20
305.5
30
0
0
SEQEND
8
GLASS_BAR_AXES
0
POLYLINE
8
GLASS_BARS
66
1
70
0
10
0
20
0
30
0
0
VERTEX
8
GLASS_BARS
10
191
20
305.5
30
0
42
1
0
VERTEX
8
GLASS_BARS
10
420
20
305.5
30
0
0
SEQEND
8
GLASS_BARS
0
POLYLINE
8
GLASS_BARS
66
1
70
0
10
0
20
0
30
0
0
VERTEX
8
GLASS_BARS
10
209
20
305.5
30
0
42
1
0
VERTEX
8
GLASS_BARS
10
402
20
305.5
30
0
0
SEQEND
8
GLASS_BARS
0
POLYLINE
8
GLASS_BAR_AXES
66
1
70
0
10
0
20
0
30
0
0
VERTEX
8
GLASS_BAR_AXES
10
411
20
305.5
30
0
0
VERTEX
8
GLASS_BAR_AXES
10
611
20
305.5
30
0
0
SEQEND
8
GLASS_BAR_AXES
0
POLYLINE
8
GLASS_BARS
66
1
70
0
10
0
20
0
30
0
0
VERTEX
8
GLASS_BARS
10
411
20
314.5
30
0
0
VERTEX
8
GLASS_BARS
10
611
20
314.5
30
0
0
SEQEND
8
GLASS_BARS
0
POLYLINE
8
GLASS_BARS
66
1
70
0
10
0
20
0
30
0
0
VERTEX
8
GLASS_BARS
10
411
20
296.5
30
0
0
VERTEX
8
GLASS_BARS
10
611
20
296.5
30
0
0
SEQEND
8
GLASS_BARS
0
POLYLINE
8
GLASS_BAR_AXES
66
1
70
0
10
0
20
0
30
0
0
VERTEX
8
GLASS_BAR_AXES
10
358.25
20
396.86568
30
0
0
VERTEX
8
GLASS_BAR_AXES
10
458.25
20
570.070761
30
0
0
SEQEND
8
GLASS_BAR_AXES
0
POLYLINE
8
GLASS_BARS
66
1
70
0
10
0
20
0
30
0
0
VERTEX
8
GLASS_BARS
10
350.455771
20
401.36568
30
0
0
VERTEX
8
GLASS_BARS
10
450.455771
20
574.570761
30
0
0
SEQEND
8
GLASS_BARS
0
POLYLINE
8
GLASS_BARS
66
1
70
0
10
0
20
0
30
0
0
VERTEX
8
GLASS_BARS
10
366.044229
20
392.36568
30
0
0
VERTEX
8
GLASS_BARS
10
466.044229
20
565.570761
30
0
0
SEQEND
8
GLASS_BARS
0
POLYLINE
8
GLASS_BAR_AXES
66
1
70
0
10
0
20
0
30
0
0
VERTEX
8
GLASS_BAR_AXES
10
252.75
20
396.86568
30
0
0
VERTEX
8
GLASS_BAR_AXES
10
152.75
20
570.070761
30
0
0
SEQEND
8
GLASS_BAR_AXES
0
POLYLINE
8
GLASS_BARS
66
1
70
0
10
0
20
0
30
0
0
VERTEX
8
GLASS_BARS
10
244.955771
20
392.36568
30
0
0
VERTEX
8
GLASS_BARS
10
144.955771
20
565.570761
30
0
0
SEQEND
8
GLASS_BARS
0
POLYLINE
8
GLASS_BARS
66
1
70
0
10
0
20
0
30
0
0
VERTEX
8
GLASS_BARS
10
260.544229
20
401.36568
30
0
0
VERTEX
8
GLASS_BARS
10
160.544229
20
574.570761
30
0
0
SEQEND
8
GLASS_BARS
0
POLYLINE
8
GLASS_BAR_AXES
66
1
70
0
10
0
20
0
30
0
0
VERTEX
8
GLASS_BAR_AXES
10
200
20
305.5
30
0
0
VERTEX
8
GLASS_BAR_AXES
10
0
20
305.5
30
0
0
SEQEND
8
GLASS_BAR_AXES
0
POLYLINE
8
GLASS_BARS
66
1
70
0
10
0
20
0
30
0
0
VERTEX
8
GLASS_BARS
10
200
20
296.5
30
0
0
VERTEX
8
GLASS_BARS
10
0
20
296.5
30
0
0
SEQEND
8
GLASS_BARS
0
POLYLINE
8
GLASS_BARS
66
1
70
0
10
0
20
0
30
0
0
VERTEX
8
GLASS_BARS
10
200
20
314.5
30
0
0
VERTEX
8
GLASS_BARS
10
0
20
314.5
30
0
0
SEQEND
8
GLASS_BARS
0
POLYLINE
8
GLASS_BAR_AXES
66
1
70
0
10
0
20
0
30
0
0
VERTEX
8
GLASS_BAR_AXES
10
252.75
20
214.13432
30
0
0
VERTEX
8
GLASS_BAR_AXES
10
152.75
20
40.929239
30
0
0
SEQEND
8
GLASS_BAR_AXES
0
POLYLINE
8
GLASS_BARS
66
1
70
0
10
0
20
0
30
0
0
VERTEX
8
GLASS_BARS
10
260.544229
20
209.63432
30
0
0
VERTEX
8
GLASS_BARS
10
160.544229
20
36.429239
30
0
0
SEQEND
8
GLASS_BARS
0
POLYLINE
8
GLASS_BARS
66
1
70
0
10
0
20
0
30
0
0
VERTEX
8
GLASS_BARS
10
244.955771
20
218.63432
30
0
0
VERTEX
8
GLASS_BARS
10
144.955771
20
45.429239
30
0
0
SEQEND
8
GLASS_BARS
0
POLYLINE
8
GLASS_BAR_AXES
66
1
70
0
10
0
20
0
30
0
0
VERTEX
8
GLASS_BAR_AXES
10
358.25
20
214.13432
30
0
0
VERTEX
8
GLASS_BAR_AXES
10
458.25
20
40.929239
30
0
0
SEQEND
8
GLASS_BAR_AXES
0
POLYLINE
8
GLASS_BARS
66
1
70
0
10
0
20
0
30
0
0
VERTEX
8
GLASS_BARS
10
366.044229
20
218.63432
30
0
0
VERTEX
8
GLASS_BARS
10
466.044229
20
45.429239
30
0
0
SEQEND
8
GLASS_BARS
0
POLYLINE
8
GLASS_BARS
66
1
70
0
10
0
20
0
30
0
0
VERTEX
8
GLASS_BARS
10
350.455771
20
209.63432
30
0
0
VERTEX
8
GLASS_BARS
10
450.455771
20
36.429239
30
0
0
SEQEND
8
GLASS_BARS
0
TEXT
8
GLASS_TEXT
10
711
20
592.5
30
0
40
15
1
CIR - G1 GLASS CIRCLE
72
0
11
711
21
592.5
31
0
73
0
0
TEXT
8
GLASS_TEXT
10
711
20
570.5
30
0
40
15
1
DIAMETER 611 R 305.5 (CIRCLE)
72
0
11
711
21
570.5
31
0
73
0
0
TEXT
8
GLASS_TEXT
10
711
20
548.5
30
0
40
15
1
DOUBLE 4X16X4 TOUGHENED ARGON CLEAR SPACER SILVER
72
0
11
711
21
548.5
31
0
73
0
0
TEXT
8
GLASS_TEXT
10
711
20
526.5
30
0
40
15
1
BARS 8 PATTERN SUNBURST TOTAL L=1863
72
0
11
711
21
526.5
31
0
73
0
0
TEXT
8
GLASS_TEXT
10
711
20
504.5
30
0
40
15
1
R1 RING C=(305.5,305.5) R=105.5 0-180DEG L=331.5
72
0
11
711
21
504.5
31
0
73
0
0
TEXT
8
GLASS_TEXT
10
711
20
482.5
30
0
40
15
1
R2 RING C=(305.5,305.5) R=105.5 180-360DEG L=331.5
72
0
11
711
21
482.5
31
0
73
0
0
TEXT
8
GLASS_TEXT
10
711
20
460.5
30
0
40
15
1
K1 SPOKE Y=305.5 X=411-611 L=200
72
0
11
711
21
460.5
31
0
73
0
0
TEXT
8
GLASS_TEXT
10
711
20
438.5
30
0
40
15
1
K2 SPOKE (358.3,396.9)-(458.3,570.1) L=200
72
0
11
711
21
438.5
31
0
73
0
0
TEXT
8
GLASS_TEXT
10
711
20
416.5
30
0
40
15
1
K3 SPOKE (252.8,396.9)-(152.8,570.1) L=200
72
0
11
711
21
416.5
31
0
73
0
0
TEXT
8
GLASS_TEXT
10
711
20
394.5
30
0
40
15
1
K4 SPOKE Y=305.5 X=0-200 L=200
72
0
11
711
21
394.5
31
0
73
0
0
TEXT
8
GLASS_TEXT
10
711
20
372.5
30
0
40
15
1
K5 SPOKE (252.7,214.1)-(152.7,40.9) L=200
72
0
11
711
21
372.5
31
0
73
0
0
TEXT
8
GLASS_TEXT
10
711
20
350.5
30
0
40
15
1
K6 SPOKE (358.3,214.1)-(458.3,40.9) L=200
72
0
11
711
21
350.5
31
0
73
0
0
TEXT
8
GLASS_TEXT
10
711
20
328.5
30
0
40
15
1
BAR ENDS (TABLE, 8 BARS): ID  S FROM APEX / POSITION  L  ANGLE / R
72
0
11
711
21
328.5
31
0
73
0
0
TEXT
8
GLASS_TEXT
10
711
20
306.5
30
0
40
15
1
R1  R 105.5  L=331.5  C 305.5 / 305.5
72
0
11
711
21
306.5
31
0
73
0
0
TEXT
8
GLASS_TEXT
10
711
20
284.5
30
0
40
15
1
R2  R 105.5  L=331.5  C 305.5 / 305.5
72
0
11
711
21
284.5
31
0
73
0
0
TEXT
8
GLASS_TEXT
10
711
20
262.5
30
0
40
15
1
K1  Y 305.5  L=200  0DEG
72
0
11
711
21
262.5
31
0
73
0
0
TEXT
8
GLASS_TEXT
10
711
20
240.5
30
0
40
15
1
K2  160 FROM APEX R  L=200  60DEG
72
0
11
711
21
240.5
31
0
73
0
0
TEXT
8
GLASS_TEXT
10
711
20
218.5
30
0
40
15
1
K3  160 FROM APEX L  L=200  120DEG
72
0
11
711
21
218.5
31
0
73
0
0
TEXT
8
GLASS_TEXT
10
711
20
196.5
30
0
40
15
1
K4  Y 305.5  L=200  0DEG
72
0
11
711
21
196.5
31
0
73
0
0
TEXT
8
GLASS_TEXT
10
711
20
174.5
30
0
40
15
1
K5  799.8 FROM APEX L  L=200  -120DEG
72
0
11
711
21
174.5
31
0
73
0
0
TEXT
8
GLASS_TEXT
10
711
20
152.5
30
0
40
15
1
K6  799.8 FROM APEX R  L=200  -60DEG
72
0
11
711
21
152.5
31
0
73
0
0
ENDSEC
0
EOF
