0
SECTION
2
HEADER
9
$ACADVER
1
AC1009
0
ENDSEC
0
SECTION
2
TABLES
0
TABLE
2
LAYER
70
9
0
LAYER
2
0
70
0
62
7
6
CONTINUOUS
0
LAYER
2
ARKA_OUTLINE
70
0
62
7
6
CONTINUOUS
0
LAYER
2
ARKA_PANE
70
0
62
3
6
CONTINUOUS
0
LAYER
2
ARKA_FRONT_HINGES_3MM
70
0
62
50
6
CONTINUOUS
0
LAYER
2
ARKA_MITRE
70
0
62
1
6
CONTINUOUS
0
LAYER
2
ARKA_SECTION
70
0
62
5
6
CONTINUOUS
0
LAYER
2
ARKA_PANE_ZEWN_REF
70
0
62
3
6
CONTINUOUS
0
LAYER
2
ARKA_CENTRE
70
0
62
6
6
CONTINUOUS
0
LAYER
2
ARKA_INFO_NO_CUT
70
0
62
8
6
CONTINUOUS
0
ENDTAB
0
ENDSEC
0
SECTION
2
ENTITIES
0
POLYLINE
8
ARKA_OUTLINE
66
1
70
1
10
0
20
0
30
0
0
VERTEX
8
ARKA_OUTLINE
10
-5.5
20
-5.5
30
0
0
VERTEX
8
ARKA_OUTLINE
10
994.5
20
-5.5
30
0
0
VERTEX
8
ARKA_OUTLINE
10
994.5
20
1098.5
30
0
42
1
0
VERTEX
8
ARKA_OUTLINE
10
-5.5
20
1098.5
30
0
0
SEQEND
8
ARKA_OUTLINE
0
POLYLINE
8
ARKA_PANE_ZEWN_REF
66
1
70
1
10
0
20
0
30
0
0
VERTEX
8
ARKA_PANE_ZEWN_REF
10
-3.5
20
-3.5
30
0
0
VERTEX
8
ARKA_PANE_ZEWN_REF
10
992.5
20
-3.5
30
0
0
VERTEX
8
ARKA_PANE_ZEWN_REF
10
992.5
20
1098.5
30
0
42
1
0
VERTEX
8
ARKA_PANE_ZEWN_REF
10
-3.5
20
1098.5
30
0
0
SEQEND
8
ARKA_PANE_ZEWN_REF
0
POLYLINE
8
ARKA_OUTLINE
66
1
70
1
10
0
20
0
30
0
0
VERTEX
8
ARKA_OUTLINE
10
12.5
20
12.5
30
0
0
VERTEX
8
ARKA_OUTLINE
10
211.525
20
12.5
30
0
0
VERTEX
8
ARKA_OUTLINE
10
211.525
20
1087.5
30
0
0
VERTEX
8
ARKA_OUTLINE
10
12.5
20
1087.5
30
0
0
SEQEND
8
ARKA_OUTLINE
0
POLYLINE
8
ARKA_PANE
66
1
70
1
10
0
20
0
30
0
0
VERTEX
8
ARKA_PANE
10
10.5
20
10.5
30
0
0
VERTEX
8
ARKA_PANE
10
213.525
20
10.5
30
0
0
VERTEX
8
ARKA_PANE
10
213.525
20
1089.5
30
0
0
VERTEX
8
ARKA_PANE
10
10.5
20
1089.5
30
0
0
SEQEND
8
ARKA_PANE
0
POLYLINE
8
ARKA_FRONT_HINGES_3MM
66
1
70
1
10
0
20
0
30
0
0
VERTEX
8
ARKA_FRONT_HINGES_3MM
10
2.5
20
2.5
30
0
0
VERTEX
8
ARKA_FRONT_HINGES_3MM
10
221.525
20
2.5
30
0
0
VERTEX
8
ARKA_FRONT_HINGES_3MM
10
221.525
20
1097.5
30
0
0
VERTEX
8
ARKA_FRONT_HINGES_3MM
10
2.5
20
1097.5
30
0
0
SEQEND
8
ARKA_FRONT_HINGES_3MM
0
POLYLINE
8
ARKA_OUTLINE
66
1
70
1
10
0
20
0
30
0
0
VERTEX
8
ARKA_OUTLINE
10
233.525
20
12.5
30
0
0
VERTEX
8
ARKA_OUTLINE
10
359.875
20
12.5
30
0
0
VERTEX
8
ARKA_OUTLINE
10
359.875
20
1087.5
30
0
0
VERTEX
8
ARKA_OUTLINE
10
233.525
20
1087.5
30
0
0
SEQEND
8
ARKA_OUTLINE
0
POLYLINE
8
ARKA_PANE
66
1
70
1
10
0
20
0
30
0
0
VERTEX
8
ARKA_PANE
10
231.525
20
10.5
30
0
0
VERTEX
8
ARKA_PANE
10
361.875
20
10.5
30
0
0
VERTEX
8
ARKA_PANE
10
361.875
20
1089.5
30
0
0
VERTEX
8
ARKA_PANE
10
231.525
20
1089.5
30
0
0
SEQEND
8
ARKA_PANE
0
POLYLINE
8
ARKA_FRONT_HINGES_3MM
66
1
70
1
10
0
20
0
30
0
0
VERTEX
8
ARKA_FRONT_HINGES_3MM
10
223.525
20
2.5
30
0
0
VERTEX
8
ARKA_FRONT_HINGES_3MM
10
369.875
20
2.5
30
0
0
VERTEX
8
ARKA_FRONT_HINGES_3MM
10
369.875
20
1097.5
30
0
0
VERTEX
8
ARKA_FRONT_HINGES_3MM
10
223.525
20
1097.5
30
0
0
SEQEND
8
ARKA_FRONT_HINGES_3MM
0
POLYLINE
8
ARKA_OUTLINE
66
1
70
1
10
0
20
0
30
0
0
VERTEX
8
ARKA_OUTLINE
10
381.875
20
12.5
30
0
0
VERTEX
8
ARKA_OUTLINE
10
607.125
20
12.5
30
0
0
VERTEX
8
ARKA_OUTLINE
10
607.125
20
1098.5
30
0
42
1
0
VERTEX
8
ARKA_OUTLINE
10
381.875
20
1098.5
30
0
0
SEQEND
8
ARKA_OUTLINE
0
POLYLINE
8
ARKA_PANE
66
1
70
1
10
0
20
0
30
0
0
VERTEX
8
ARKA_PANE
10
379.875
20
10.5
30
0
0
VERTEX
8
ARKA_PANE
10
609.125
20
10.5
30
0
0
VERTEX
8
ARKA_PANE
10
609.125
20
1098.5
30
0
42
1
0
VERTEX
8
ARKA_PANE
10
379.875
20
1098.5
30
0
0
SEQEND
8
ARKA_PANE
0
POLYLINE
8
ARKA_FRONT_HINGES_3MM
66
1
70
1
10
0
20
0
30
0
0
VERTEX
8
ARKA_FRONT_HINGES_3MM
10
371.875
20
2.5
30
0
0
VERTEX
8
ARKA_FRONT_HINGES_3MM
10
617.125
20
2.5
30
0
0
VERTEX
8
ARKA_FRONT_HINGES_3MM
10
617.125
20
1098.5
30
0
42
1
0
VERTEX
8
ARKA_FRONT_HINGES_3MM
10
371.875
20
1098.5
30
0
0
SEQEND
8
ARKA_FRONT_HINGES_3MM
0
POLYLINE
8
ARKA_OUTLINE
66
1
70
1
10
0
20
0
30
0
0
VERTEX
8
ARKA_OUTLINE
10
629.125
20
12.5
30
0
0
VERTEX
8
ARKA_OUTLINE
10
755.475
20
12.5
30
0
0
VERTEX
8
ARKA_OUTLINE
10
755.475
20
1087.5
30
0
0
VERTEX
8
ARKA_OUTLINE
10
629.125
20
1087.5
30
0
0
SEQEND
8
ARKA_OUTLINE
0
POLYLINE
8
ARKA_PANE
66
1
70
1
10
0
20
0
30
0
0
VERTEX
8
ARKA_PANE
10
627.125
20
10.5
30
0
0
VERTEX
8
ARKA_PANE
10
757.475
20
10.5
30
0
0
VERTEX
8
ARKA_PANE
10
757.475
20
1089.5
30
0
0
VERTEX
8
ARKA_PANE
10
627.125
20
1089.5
30
0
0
SEQEND
8
ARKA_PANE
0
POLYLINE
8
ARKA_FRONT_HINGES_3MM
66
1
70
1
10
0
20
0
30
0
0
VERTEX
8
ARKA_FRONT_HINGES_3MM
10
619.125
20
2.5
30
0
0
VERTEX
8
ARKA_FRONT_HINGES_3MM
10
765.475
20
2.5
30
0
0
VERTEX
8
ARKA_FRONT_HINGES_3MM
10
765.475
20
1097.5
30
0
0
VERTEX
8
ARKA_FRONT_HINGES_3MM
10
619.125
20
1097.5
30
0
0
SEQEND
8
ARKA_FRONT_HINGES_3MM
0
POLYLINE
8
ARKA_OUTLINE
66
1
70
1
10
0
20
0
30
0
0
VERTEX
8
ARKA_OUTLINE
10
777.475
20
12.5
30
0
0
VERTEX
8
ARKA_OUTLINE
10
976.5
20
12.5
30
0
0
VERTEX
8
ARKA_OUTLINE
10
976.5
20
1087.5
30
0
0
VERTEX
8
ARKA_OUTLINE
10
777.475
20
1087.5
30
0
0
SEQEND
8
ARKA_OUTLINE
0
POLYLINE
8
ARKA_PANE
66
1
70
1
10
0
20
0
30
0
0
VERTEX
8
ARKA_PANE
10
775.475
20
10.5
30
0
0
VERTEX
8
ARKA_PANE
10
978.5
20
10.5
30
0
0
VERTEX
8
ARKA_PANE
10
978.5
20
1089.5
30
0
0
VERTEX
8
ARKA_PANE
10
775.475
20
1089.5
30
0
0
SEQEND
8
ARKA_PANE
0
POLYLINE
8
ARKA_FRONT_HINGES_3MM
66
1
70
1
10
0
20
0
30
0
0
VERTEX
8
ARKA_FRONT_HINGES_3MM
10
767.475
20
2.5
30
0
0
VERTEX
8
ARKA_FRONT_HINGES_3MM
10
986.5
20
2.5
30
0
0
VERTEX
8
ARKA_FRONT_HINGES_3MM
10
986.5
20
1097.5
30
0
0
VERTEX
8
ARKA_FRONT_HINGES_3MM
10
767.475
20
1097.5
30
0
0
SEQEND
8
ARKA_FRONT_HINGES_3MM
0
POLYLINE
8
ARKA_OUTLINE
66
1
70
1
10
0
20
0
30
0
0
VERTEX
8
ARKA_OUTLINE
10
976.374465
20
1109.5
30
0
42
0.12006
0
VERTEX
8
ARKA_OUTLINE
10
917.315528
20
1329.910953
30
0
0
VERTEX
8
ARKA_OUTLINE
10
744.878313
20
1230.35428
30
0
42
-0.111922
0
VERTEX
8
ARKA_OUTLINE
10
777.261119
20
1109.5
30
0
0
SEQEND
8
ARKA_OUTLINE
0
POLYLINE
8
ARKA_PANE
66
1
70
1
10
0
20
0
30
0
0
VERTEX
8
ARKA_PANE
10
978.416315
20
1107.5
30
0
42
0.122205
0
VERTEX
8
ARKA_PANE
10
918.083822
20
1332.663929
30
0
0
VERTEX
8
ARKA_PANE
10
742.206626
20
1231.121182
30
0
42
-0.115389
0
VERTEX
8
ARKA_PANE
10
775.330822
20
1107.5
30
0
0
SEQEND
8
ARKA_PANE
0
POLYLINE
8
ARKA_FRONT_HINGES_3MM
66
1
70
1
10
0
20
0
30
0
0
VERTEX
8
ARKA_FRONT_HINGES_3MM
10
986.498984
20
1099.5
30
0
42
0.130619
0
VERTEX
8
ARKA_FRONT_HINGES_3MM
10
921.083619
20
1343.633466
30
0
0
VERTEX
8
ARKA_FRONT_HINGES_3MM
10
731.401698
20
1234.120559
30
0
42
-0.12979
0
VERTEX
8
ARKA_FRONT_HINGES_3MM
10
767.473168
20
1099.5
30
0
0
SEQEND
8
ARKA_FRONT_HINGES_3MM
0
POLYLINE
8
ARKA_OUTLINE
66
1
70
1
10
0
20
0
30
0
0
VERTEX
8
ARKA_OUTLINE
10
906.315528
20
1348.963512
30
0
42
0.12006
0
VERTEX
8
ARKA_OUTLINE
10
744.963512
20
1510.315528
30
0
0
VERTEX
8
ARKA_OUTLINE
10
645.406839
20
1337.878313
30
0
42
-0.111922
0
VERTEX
8
ARKA_OUTLINE
10
733.878313
20
1249.406839
30
0
0
SEQEND
8
ARKA_OUTLINE
0
POLYLINE
8
ARKA_PANE
66
1
70
1
10
0
20
0
30
0
0
VERTEX
8
ARKA_PANE
10
909.083822
20
1348.252386
30
0
42
0.122205
0
VERTEX
8
ARKA_PANE
10
744.252386
20
1513.083822
30
0
0
VERTEX
8
ARKA_PANE
10
642.70964
20
1337.206626
30
0
42
-0.115389
0
VERTEX
8
ARKA_PANE
10
733.206626
20
1246.70964
30
0
0
SEQEND
8
ARKA_PANE
0
POLYLINE
8
ARKA_FRONT_HINGES_3MM
66
1
70
1
10
0
20
0
30
0
0
VERTEX
8
ARKA_FRONT_HINGES_3MM
10
920.083619
20
1345.365517
30
0
42
0.130619
0
VERTEX
8
ARKA_FRONT_HINGES_3MM
10
741.365517
20
1524.083619
30
0
0
VERTEX
8
ARKA_FRONT_HINGES_3MM
10
631.85261
20
1334.401698
30
0
42
-0.12979
0
VERTEX
8
ARKA_FRONT_HINGES_3MM
10
730.401698
20
1235.85261
30
0
0
SEQEND
8
ARKA_FRONT_HINGES_3MM
0
POLYLINE
8
ARKA_OUTLINE
66
1
70
1
10
0
20
0
30
0
0
VERTEX
8
ARKA_OUTLINE
10
725.910953
20
1521.315528
30
0
42
0.12006
0
VERTEX
8
ARKA_OUTLINE
10
505.5
20
1580.374465
30
0
0
VERTEX
8
ARKA_OUTLINE
10
505.5
20
1381.261119
30
0
42
-0.111922
0
VERTEX
8
ARKA_OUTLINE
10
626.35428
20
1348.878313
30
0
0
SEQEND
8
ARKA_OUTLINE
0
POLYLINE
8
ARKA_PANE
66
1
70
1
10
0
20
0
30
0
0
VERTEX
8
ARKA_PANE
10
728.663929
20
1522.083822
30
0
42
0.122205
0
VERTEX
8
ARKA_PANE
10
503.5
20
1582.416315
30
0
0
VERTEX
8
ARKA_PANE
10
503.5
20
1379.330822
30
0
42
-0.115389
0
VERTEX
8
ARKA_PANE
10
627.121182
20
1346.206626
30
0
0
SEQEND
8
ARKA_PANE
0
POLYLINE
8
ARKA_FRONT_HINGES_3MM
66
1
70
1
10
0
20
0
30
0
0
VERTEX
8
ARKA_FRONT_HINGES_3MM
10
739.633466
20
1525.083619
30
0
42
0.130619
0
VERTEX
8
ARKA_FRONT_HINGES_3MM
10
495.5
20
1590.498984
30
0
0
VERTEX
8
ARKA_FRONT_HINGES_3MM
10
495.5
20
1371.473168
30
0
42
-0.12979
0
VERTEX
8
ARKA_FRONT_HINGES_3MM
10
630.120559
20
1335.401698
30
0
0
SEQEND
8
ARKA_FRONT_HINGES_3MM
0
POLYLINE
8
ARKA_OUTLINE
66
1
70
1
10
0
20
0
30
0
0
VERTEX
8
ARKA_OUTLINE
10
483.5
20
1580.374465
30
0
42
0.12006
0
VERTEX
8
ARKA_OUTLINE
10
263.089047
20
1521.315528
30
0
0
VERTEX
8
ARKA_OUTLINE
10
362.64572
20
1348.878313
30
0
42
-0.111922
0
VERTEX
8
ARKA_OUTLINE
10
483.5
20
1381.261119
30
0
0
SEQEND
8
ARKA_OUTLINE
0
POLYLINE
8
ARKA_PANE
66
1
70
1
10
0
20
0
30
0
0
VERTEX
8
ARKA_PANE
10
485.5
20
1582.416315
30
0
42
0.122205
0
VERTEX
8
ARKA_PANE
10
260.336071
20
1522.083822
30
0
0
VERTEX
8
ARKA_PANE
10
361.878818
20
1346.206626
30
0
42
-0.115389
0
VERTEX
8
ARKA_PANE
10
485.5
20
1379.330822
30
0
0
SEQEND
8
ARKA_PANE
0
POLYLINE
8
ARKA_FRONT_HINGES_3MM
66
1
70
1
10
0
20
0
30
0
0
VERTEX
8
ARKA_FRONT_HINGES_3MM
10
493.5
20
1590.498984
30
0
42
0.130619
0
VERTEX
8
ARKA_FRONT_HINGES_3MM
10
249.366534
20
1525.083619
30
0
0
VERTEX
8
ARKA_FRONT_HINGES_3MM
10
358.879441
20
1335.401698
30
0
42
-0.12979
0
VERTEX
8
ARKA_FRONT_HINGES_3MM
10
493.5
20
1371.473168
30
0
0
SEQEND
8
ARKA_FRONT_HINGES_3MM
0
POLYLINE
8
ARKA_OUTLINE
66
1
70
1
10
0
20
0
30
0
0
VERTEX
8
ARKA_OUTLINE
10
244.036488
20
1510.315528
30
0
42
0.12006
0
VERTEX
8
ARKA_OUTLINE
10
82.684472
20
1348.963512
30
0
0
VERTEX
8
ARKA_OUTLINE
10
255.121687
20
1249.406839
30
0
42
-0.111922
0
VERTEX
8
ARKA_OUTLINE
10
343.593161
20
1337.878313
30
0
0
SEQEND
8
ARKA_OUTLINE
0
POLYLINE
8
ARKA_PANE
66
1
70
1
10
0
20
0
30
0
0
VERTEX
8
ARKA_PANE
10
244.747614
20
1513.083822
30
0
42
0.122205
0
VERTEX
8
ARKA_PANE
10
79.916178
20
1348.252386
30
0
0
VERTEX
8
ARKA_PANE
10
255.793374
20
1246.70964
30
0
42
-0.115389
0
VERTEX
8
ARKA_PANE
10
346.29036
20
1337.206626
30
0
0
SEQEND
8
ARKA_PANE
0
POLYLINE
8
ARKA_FRONT_HINGES_3MM
66
1
70
1
10
0
20
0
30
0
0
VERTEX
8
ARKA_FRONT_HINGES_3MM
10
247.634483
20
1524.083619
30
0
42
0.130619
0
VERTEX
8
ARKA_FRONT_HINGES_3MM
10
68.916381
20
1345.365517
30
0
0
VERTEX
8
ARKA_FRONT_HINGES_3MM
10
258.598302
20
1235.85261
30
0
42
-0.12979
0
VERTEX
8
ARKA_FRONT_HINGES_3MM
10
357.14739
20
1334.401698
30
0
0
SEQEND
8
ARKA_FRONT_HINGES_3MM
0
POLYLINE
8
ARKA_OUTLINE
66
1
70
1
10
0
20
0
30
0
0
VERTEX
8
ARKA_OUTLINE
10
71.684472
20
1329.910953
30
0
42
0.12006
0
VERTEX
8
ARKA_OUTLINE
10
12.625535
20
1109.5
30
0
0
VERTEX
8
ARKA_OUTLINE
10
211.738881
20
1109.5
30
0
42
-0.111922
0
VERTEX
8
ARKA_OUTLINE
10
244.121687
20
1230.35428
30
0
0
SEQEND
8
ARKA_OUTLINE
0
POLYLINE
8
ARKA_PANE
66
1
70
1
10
0
20
0
30
0
0
VERTEX
8
ARKA_PANE
10
70.916178
20
1332.663929
30
0
42
0.122205
0
VERTEX
8
ARKA_PANE
10
10.583685
20
1107.5
30
0
0
VERTEX
8
ARKA_PANE
10
213.669178
20
1107.5
30
0
42
-0.115389
0
VERTEX
8
ARKA_PANE
10
246.793374
20
1231.121182
30
0
0
SEQEND
8
ARKA_PANE
0
POLYLINE
8
ARKA_FRONT_HINGES_3MM
66
1
70
1
10
0
20
0
30
0
0
VERTEX
8
ARKA_FRONT_HINGES_3MM
10
67.916381
20
1343.633466
30
0
42
0.130619
0
VERTEX
8
ARKA_FRONT_HINGES_3MM
10
2.501016
20
1099.5
30
0
0
VERTEX
8
ARKA_FRONT_HINGES_3MM
10
221.526832
20
1099.5
30
0
42
-0.12979
0
VERTEX
8
ARKA_FRONT_HINGES_3MM
10
257.598302
20
1234.120559
30
0
0
SEQEND
8
ARKA_FRONT_HINGES_3MM
0
POLYLINE
8
ARKA_OUTLINE
66
1
70
1
10
0
20
0
30
0
0
VERTEX
8
ARKA_OUTLINE
10
616.198829
20
1156.061146
30
0
42
-0.090244
0
VERTEX
8
ARKA_OUTLINE
10
628.674851
20
1109.5
30
0
0
VERTEX
8
ARKA_OUTLINE
10
755.243074
20
1109.5
30
0
42
0.110262
0
VERTEX
8
ARKA_OUTLINE
10
725.810126
20
1219.345258
30
0
0
SEQEND
8
ARKA_OUTLINE
0
POLYLINE
8
ARKA_PANE
66
1
70
1
10
0
20
0
30
0
0
VERTEX
8
ARKA_PANE
10
613.591854
20
1156.865409
30
0
42
-0.097248
0
VERTEX
8
ARKA_PANE
10
626.819275
20
1107.5
30
0
0
VERTEX
8
ARKA_PANE
10
757.320948
20
1107.5
30
0
42
0.114278
0
VERTEX
8
ARKA_PANE
10
726.609617
20
1222.116245
30
0
0
SEQEND
8
ARKA_PANE
0
POLYLINE
8
ARKA_FRONT_HINGES_3MM
66
1
70
1
10
0
20
0
30
0
0
VERTEX
8
ARKA_FRONT_HINGES_3MM
10
602.924941
20
1159.944469
30
0
42
-0.127573
0
VERTEX
8
ARKA_FRONT_HINGES_3MM
10
619.120988
20
1099.5
30
0
0
VERTEX
8
ARKA_FRONT_HINGES_3MM
10
765.473155
20
1099.5
30
0
42
0.129776
0
VERTEX
8
ARKA_FRONT_HINGES_3MM
10
729.669636
20
1233.120552
30
0
0
SEQEND
8
ARKA_FRONT_HINGES_3MM
0
POLYLINE
8
ARKA_OUTLINE
66
1
70
1
10
0
20
0
30
0
0
VERTEX
8
ARKA_OUTLINE
10
571.113705
20
1209.198829
30
0
42
-0.090244
0
VERTEX
8
ARKA_OUTLINE
10
605.198829
20
1175.113705
30
0
0
VERTEX
8
ARKA_OUTLINE
10
714.810126
20
1238.397816
30
0
42
0.110262
0
VERTEX
8
ARKA_OUTLINE
10
634.397816
20
1318.810126
30
0
0
SEQEND
8
ARKA_OUTLINE
0
POLYLINE
8
ARKA_PANE
66
1
70
1
10
0
20
0
30
0
0
VERTEX
8
ARKA_PANE
10
568.453866
20
1208.591854
30
0
42
-0.097248
0
VERTEX
8
ARKA_PANE
10
604.591854
20
1172.453866
30
0
0
VERTEX
8
ARKA_PANE
10
717.609617
20
1237.704703
30
0
42
0.114278
0
VERTEX
8
ARKA_PANE
10
633.704703
20
1321.609617
30
0
0
SEQEND
8
ARKA_PANE
0
POLYLINE
8
ARKA_FRONT_HINGES_3MM
66
1
70
1
10
0
20
0
30
0
0
VERTEX
8
ARKA_FRONT_HINGES_3MM
10
557.676519
20
1205.924941
30
0
42
-0.127573
0
VERTEX
8
ARKA_FRONT_HINGES_3MM
10
601.924941
20
1161.676519
30
0
0
VERTEX
8
ARKA_FRONT_HINGES_3MM
10
728.669636
20
1234.852603
30
0
42
0.129776
0
VERTEX
8
ARKA_FRONT_HINGES_3MM
10
630.852603
20
1332.669636
30
0
0
SEQEND
8
ARKA_FRONT_HINGES_3MM
0
POLYLINE
8
ARKA_OUTLINE
66
1
70
1
10
0
20
0
30
0
0
VERTEX
8
ARKA_OUTLINE
10
505.5
20
1232.674851
30
0
42
-0.090244
0
VERTEX
8
ARKA_OUTLINE
10
552.061146
20
1220.198829
30
0
0
VERTEX
8
ARKA_OUTLINE
10
615.345258
20
1329.810126
30
0
42
0.110262
0
VERTEX
8
ARKA_OUTLINE
10
505.5
20
1359.243074
30
0
0
SEQEND
8
ARKA_OUTLINE
0
POLYLINE
8
ARKA_PANE
66
1
70
1
10
0
20
0
30
0
0
VERTEX
8
ARKA_PANE
10
503.5
20
1230.819275
30
0
42
-0.097248
0
VERTEX
8
ARKA_PANE
10
552.865409
20
1217.591854
30
0
0
VERTEX
8
ARKA_PANE
10
618.116245
20
1330.609617
30
0
42
0.114278
0
VERTEX
8
ARKA_PANE
10
503.5
20
1361.320948
30
0
0
SEQEND
8
ARKA_PANE
0
POLYLINE
8
ARKA_FRONT_HINGES_3MM
66
1
70
1
10
0
20
0
30
0
0
VERTEX
8
ARKA_FRONT_HINGES_3MM
10
495.5
20
1223.120988
30
0
42
-0.127573
0
VERTEX
8
ARKA_FRONT_HINGES_3MM
10
555.944469
20
1206.924941
30
0
0
VERTEX
8
ARKA_FRONT_HINGES_3MM
10
629.120552
20
1333.669636
30
0
42
0.129776
0
VERTEX
8
ARKA_FRONT_HINGES_3MM
10
495.5
20
1369.473155
30
0
0
SEQEND
8
ARKA_FRONT_HINGES_3MM
0
POLYLINE
8
ARKA_OUTLINE
66
1
70
1
10
0
20
0
30
0
0
VERTEX
8
ARKA_OUTLINE
10
436.938854
20
1220.198829
30
0
42
-0.090244
0
VERTEX
8
ARKA_OUTLINE
10
483.5
20
1232.674851
30
0
0
VERTEX
8
ARKA_OUTLINE
10
483.5
20
1359.243074
30
0
42
0.110262
0
VERTEX
8
ARKA_OUTLINE
10
373.654742
20
1329.810126
30
0
0
SEQEND
8
ARKA_OUTLINE
0
POLYLINE
8
ARKA_PANE
66
1
70
1
10
0
20
0
30
0
0
VERTEX
8
ARKA_PANE
10
436.134591
20
1217.591854
30
0
42
-0.097248
0
VERTEX
8
ARKA_PANE
10
485.5
20
1230.819275
30
0
0
VERTEX
8
ARKA_PANE
10
485.5
20
1361.320948
30
0
42
0.114278
0
VERTEX
8
ARKA_PANE
10
370.883755
20
1330.609617
30
0
0
SEQEND
8
ARKA_PANE
0
POLYLINE
8
ARKA_FRONT_HINGES_3MM
66
1
70
1
10
0
20
0
30
0
0
VERTEX
8
ARKA_FRONT_HINGES_3MM
10
433.055531
20
1206.924941
30
0
42
-0.127573
0
VERTEX
8
ARKA_FRONT_HINGES_3MM
10
493.5
20
1223.120988
30
0
0
VERTEX
8
ARKA_FRONT_HINGES_3MM
10
493.5
20
1369.473155
30
0
42
0.129776
0
VERTEX
8
ARKA_FRONT_HINGES_3MM
10
359.879448
20
1333.669636
30
0
0
SEQEND
8
ARKA_FRONT_HINGES_3MM
0
POLYLINE
8
ARKA_OUTLINE
66
1
70
1
10
0
20
0
30
0
0
VERTEX
8
ARKA_OUTLINE
10
383.801171
20
1175.113705
30
0
42
-0.090244
0
VERTEX
8
ARKA_OUTLINE
10
417.886295
20
1209.198829
30
0
0
VERTEX
8
ARKA_OUTLINE
10
354.602184
20
1318.810126
30
0
42
0.110262
0
VERTEX
8
ARKA_OUTLINE
10
274.189874
20
1238.397816
30
0
0
SEQEND
8
ARKA_OUTLINE
0
POLYLINE
8
ARKA_PANE
66
1
70
1
10
0
20
0
30
0
0
VERTEX
8
ARKA_PANE
10
384.408146
20
1172.453866
30
0
42
-0.097248
0
VERTEX
8
ARKA_PANE
10
420.546134
20
1208.591854
30
0
0
VERTEX
8
ARKA_PANE
10
355.295297
20
1321.609617
30
0
42
0.114278
0
VERTEX
8
ARKA_PANE
10
271.390383
20
1237.704703
30
0
0
SEQEND
8
ARKA_PANE
0
POLYLINE
8
ARKA_FRONT_HINGES_3MM
66
1
70
1
10
0
20
0
30
0
0
VERTEX
8
ARKA_FRONT_HINGES_3MM
10
387.075059
20
1161.676519
30
0
42
-0.127573
0
VERTEX
8
ARKA_FRONT_HINGES_3MM
10
431.323481
20
1205.924941
30
0
0
VERTEX
8
ARKA_FRONT_HINGES_3MM
10
358.147397
20
1332.669636
30
0
42
0.129776
0
VERTEX
8
ARKA_FRONT_HINGES_3MM
10
260.330364
20
1234.852603
30
0
0
SEQEND
8
ARKA_FRONT_HINGES_3MM
0
POLYLINE
8
ARKA_OUTLINE
66
1
70
1
10
0
20
0
30
0
0
VERTEX
8
ARKA_OUTLINE
10
360.325149
20
1109.5
30
0
42
-0.090244
0
VERTEX
8
ARKA_OUTLINE
10
372.801171
20
1156.061146
30
0
0
VERTEX
8
ARKA_OUTLINE
10
263.189874
20
1219.345258
30
0
42
0.110262
0
VERTEX
8
ARKA_OUTLINE
10
233.756926
20
1109.5
30
0
0
SEQEND
8
ARKA_OUTLINE
0
POLYLINE
8
ARKA_PANE
66
1
70
1
10
0
20
0
30
0
0
VERTEX
8
ARKA_PANE
10
362.180725
20
1107.5
30
0
42
-0.097248
0
VERTEX
8
ARKA_PANE
10
375.408146
20
1156.865409
30
0
0
VERTEX
8
ARKA_PANE
10
262.390383
20
1222.116245
30
0
42
0.114278
0
VERTEX
8
ARKA_PANE
10
231.679052
20
1107.5
30
0
0
SEQEND
8
ARKA_PANE
0
POLYLINE
8
ARKA_FRONT_HINGES_3MM
66
1
70
1
10
0
20
0
30
0
0
VERTEX
8
ARKA_FRONT_HINGES_3MM
10
369.879012
20
1099.5
30
0
42
-0.127573
0
VERTEX
8
ARKA_FRONT_HINGES_3MM
10
386.075059
20
1159.944469
30
0
0
VERTEX
8
ARKA_FRONT_HINGES_3MM
10
259.330364
20
1233.120552
30
0
42
0.129776
0
VERTEX
8
ARKA_FRONT_HINGES_3MM
10
223.526845
20
1099.5
30
0
0
SEQEND
8
ARKA_FRONT_HINGES_3MM
0
POLYLINE
8
ARKA_MITRE
66
1
70
0
10
0
20
0
30
0
0
VERTEX
8
ARKA_MITRE
10
2.5
20
17.5
30
0
0
VERTEX
8
ARKA_MITRE
10
2.5
20
2.5
30
0
0
VERTEX
8
ARKA_MITRE
10
17.5
20
2.5
30
0
0
SEQEND
8
ARKA_MITRE
0
POLYLINE
8
ARKA_MITRE
66
1
70
0
10
0
20
0
30
0
0
VERTEX
8
ARKA_MITRE
10
206.525
20
2.5
30
0
0
VERTEX
8
ARKA_MITRE
10
221.525
20
2.5
30
0
0
VERTEX
8
ARKA_MITRE
10
221.525
20
17.5
30
0
0
SEQEND
8
ARKA_MITRE
0
POLYLINE
8
ARKA_MITRE
66
1
70
0
10
0
20
0
30
0
0
VERTEX
8
ARKA_MITRE
10
221.525
20
1082.5
30
0
0
VERTEX
8
ARKA_MITRE
10
221.525
20
1097.5
30
0
0
VERTEX
8
ARKA_MITRE
10
206.525
20
1097.5
30
0
0
SEQEND
8
ARKA_MITRE
0
POLYLINE
8
ARKA_MITRE
66
1
70
0
10
0
20
0
30
0
0
VERTEX
8
ARKA_MITRE
10
17.5
20
1097.5
30
0
0
VERTEX
8
ARKA_MITRE
10
2.5
20
1097.5
30
0
0
VERTEX
8
ARKA_MITRE
10
2.5
20
1082.5
30
0
0
SEQEND
8
ARKA_MITRE
0
POLYLINE
8
ARKA_MITRE
66
1
70
0
10
0
20
0
30
0
0
VERTEX
8
ARKA_MITRE
10
223.525
20
17.5
30
0
0
VERTEX
8
ARKA_MITRE
10
223.525
20
2.5
30
0
0
VERTEX
8
ARKA_MITRE
10
238.525
20
2.5
30
0
0
SEQEND
8
ARKA_MITRE
0
POLYLINE
8
ARKA_MITRE
66
1
70
0
10
0
20
0
30
0
0
VERTEX
8
ARKA_MITRE
10
354.875
20
2.5
30
0
0
VERTEX
8
ARKA_MITRE
10
369.875
20
2.5
30
0
0
VERTEX
8
ARKA_MITRE
10
369.875
20
17.5
30
0
0
SEQEND
8
ARKA_MITRE
0
POLYLINE
8
ARKA_MITRE
66
1
70
0
10
0
20
0
30
0
0
VERTEX
8
ARKA_MITRE
10
369.875
20
1082.5
30
0
0
VERTEX
8
ARKA_MITRE
10
369.875
20
1097.5
30
0
0
VERTEX
8
ARKA_MITRE
10
354.875
20
1097.5
30
0
0
SEQEND
8
ARKA_MITRE
0
POLYLINE
8
ARKA_MITRE
66
1
70
0
10
0
20
0
30
0
0
VERTEX
8
ARKA_MITRE
10
238.525
20
1097.5
30
0
0
VERTEX
8
ARKA_MITRE
10
223.525
20
1097.5
30
0
0
VERTEX
8
ARKA_MITRE
10
223.525
20
1082.5
30
0
0
SEQEND
8
ARKA_MITRE
0
POLYLINE
8
ARKA_MITRE
66
1
70
0
10
0
20
0
30
0
0
VERTEX
8
ARKA_MITRE
10
371.875
20
17.5
30
0
0
VERTEX
8
ARKA_MITRE
10
371.875
20
2.5
30
0
0
VERTEX
8
ARKA_MITRE
10
386.875
20
2.5
30
0
0
SEQEND
8
ARKA_MITRE
0
POLYLINE
8
ARKA_MITRE
66
1
70
0
10
0
20
0
30
0
0
VERTEX
8
ARKA_MITRE
10
602.125
20
2.5
30
0
0
VERTEX
8
ARKA_MITRE
10
617.125
20
2.5
30
0
0
VERTEX
8
ARKA_MITRE
10
617.125
20
17.5
30
0
0
SEQEND
8
ARKA_MITRE
0
POLYLINE
8
ARKA_MITRE
66
1
70
0
10
0
20
0
30
0
0
VERTEX
8
ARKA_MITRE
10
619.125
20
17.5
30
0
0
VERTEX
8
ARKA_MITRE
10
619.125
20
2.5
30
0
0
VERTEX
8
ARKA_MITRE
10
634.125
20
2.5
30
0
0
SEQEND
8
ARKA_MITRE
0
POLYLINE
8
ARKA_MITRE
66
1
70
0
10
0
20
0
30
0
0
VERTEX
8
ARKA_MITRE
10
750.475
20
2.5
30
0
0
VERTEX
8
ARKA_MITRE
10
765.475
20
2.5
30
0
0
VERTEX
8
ARKA_MITRE
10
765.475
20
17.5
30
0
0
SEQEND
8
ARKA_MITRE
0
POLYLINE
8
ARKA_MITRE
66
1
70
0
10
0
20
0
30
0
0
VERTEX
8
ARKA_MITRE
10
765.475
20
1082.5
30
0
0
VERTEX
8
ARKA_MITRE
10
765.475
20
1097.5
30
0
0
VERTEX
8
ARKA_MITRE
10
750.475
20
1097.5
30
0
0
SEQEND
8
ARKA_MITRE
0
POLYLINE
8
ARKA_MITRE
66
1
70
0
10
0
20
0
30
0
0
VERTEX
8
ARKA_MITRE
10
634.125
20
1097.5
30
0
0
VERTEX
8
ARKA_MITRE
10
619.125
20
1097.5
30
0
0
VERTEX
8
ARKA_MITRE
10
619.125
20
1082.5
30
0
0
SEQEND
8
ARKA_MITRE
0
POLYLINE
8
ARKA_MITRE
66
1
70
0
10
0
20
0
30
0
0
VERTEX
8
ARKA_MITRE
10
767.475
20
17.5
30
0
0
VERTEX
8
ARKA_MITRE
10
767.475
20
2.5
30
0
0
VERTEX
8
ARKA_MITRE
10
782.475
20
2.5
30
0
0
SEQEND
8
ARKA_MITRE
0
POLYLINE
8
ARKA_MITRE
66
1
70
0
10
0
20
0
30
0
0
VERTEX
8
ARKA_MITRE
10
971.5
20
2.5
30
0
0
VERTEX
8
ARKA_MITRE
10
986.5
20
2.5
30
0
0
VERTEX
8
ARKA_MITRE
10
986.5
20
17.5
30
0
0
SEQEND
8
ARKA_MITRE
0
POLYLINE
8
ARKA_MITRE
66
1
70
0
10
0
20
0
30
0
0
VERTEX
8
ARKA_MITRE
10
986.5
20
1082.5
30
0
0
VERTEX
8
ARKA_MITRE
10
986.5
20
1097.5
30
0
0
VERTEX
8
ARKA_MITRE
10
971.5
20
1097.5
30
0
0
SEQEND
8
ARKA_MITRE
0
POLYLINE
8
ARKA_MITRE
66
1
70
0
10
0
20
0
30
0
0
VERTEX
8
ARKA_MITRE
10
782.475
20
1097.5
30
0
0
VERTEX
8
ARKA_MITRE
10
767.475
20
1097.5
30
0
0
VERTEX
8
ARKA_MITRE
10
767.475
20
1082.5
30
0
0
SEQEND
8
ARKA_MITRE
0
POLYLINE
8
ARKA_MITRE
66
1
70
0
10
0
20
0
30
0
0
VERTEX
8
ARKA_MITRE
10
971.498984
20
1099.5
30
0
0
VERTEX
8
ARKA_MITRE
10
986.498984
20
1099.5
30
0
42
0.007622
0
VERTEX
8
ARKA_MITRE
10
986.23986
20
1114.497181
30
0
0
SEQEND
8
ARKA_MITRE
0
POLYLINE
8
ARKA_MITRE
66
1
70
0
10
0
20
0
30
0
0
VERTEX
8
ARKA_MITRE
10
928.357801
20
1330.515965
30
0
42
0.007622
0
VERTEX
8
ARKA_MITRE
10
921.083619
20
1343.633466
30
0
0
VERTEX
8
ARKA_MITRE
10
908.093237
20
1336.133466
30
0
0
SEQEND
8
ARKA_MITRE
0
POLYLINE
8
ARKA_MITRE
66
1
70
0
10
0
20
0
30
0
0
VERTEX
8
ARKA_MITRE
10
744.392079
20
1241.620559
30
0
0
VERTEX
8
ARKA_MITRE
10
731.401698
20
1234.120559
30
0
42
-0.013738
0
VERTEX
8
ARKA_MITRE
10
738.492736
20
1220.904638
30
0
0
SEQEND
8
ARKA_MITRE
0
POLYLINE
8
ARKA_MITRE
66
1
70
0
10
0
20
0
30
0
0
VERTEX
8
ARKA_MITRE
10
767.006227
20
1114.490842
30
0
42
-0.013738
0
VERTEX
8
ARKA_MITRE
10
767.473168
20
1099.5
30
0
0
VERTEX
8
ARKA_MITRE
10
782.473168
20
1099.5
30
0
0
SEQEND
8
ARKA_MITRE
0
POLYLINE
8
ARKA_MITRE
66
1
70
0
10
0
20
0
30
0
0
VERTEX
8
ARKA_MITRE
10
907.093237
20
1337.865517
30
0
0
VERTEX
8
ARKA_MITRE
10
920.083619
20
1345.365517
30
0
42
0.007622
0
VERTEX
8
ARKA_MITRE
10
912.360621
20
1358.223895
30
0
0
SEQEND
8
ARKA_MITRE
0
POLYLINE
8
ARKA_MITRE
66
1
70
0
10
0
20
0
30
0
0
VERTEX
8
ARKA_MITRE
10
754.223895
20
1516.360621
30
0
42
0.007622
0
VERTEX
8
ARKA_MITRE
10
741.365517
20
1524.083619
30
0
0
VERTEX
8
ARKA_MITRE
10
733.865517
20
1511.093237
30
0
0
SEQEND
8
ARKA_MITRE
0
POLYLINE
8
ARKA_MITRE
66
1
70
0
10
0
20
0
30
0
0
VERTEX
8
ARKA_MITRE
10
639.35261
20
1347.392079
30
0
0
VERTEX
8
ARKA_MITRE
10
631.85261
20
1334.401698
30
0
42
-0.013738
0
VERTEX
8
ARKA_MITRE
10
644.601589
20
1326.501894
30
0
0
SEQEND
8
ARKA_MITRE
0
POLYLINE
8
ARKA_MITRE
66
1
70
0
10
0
20
0
30
0
0
VERTEX
8
ARKA_MITRE
10
722.501894
20
1248.601589
30
0
42
-0.013738
0
VERTEX
8
ARKA_MITRE
10
730.401698
20
1235.85261
30
0
0
VERTEX
8
ARKA_MITRE
10
743.392079
20
1243.35261
30
0
0
SEQEND
8
ARKA_MITRE
0
POLYLINE
8
ARKA_MITRE
66
1
70
0
10
0
20
0
30
0
0
VERTEX
8
ARKA_MITRE
10
732.133466
20
1512.093237
30
0
0
VERTEX
8
ARKA_MITRE
10
739.633466
20
1525.083619
30
0
42
0.007622
0
VERTEX
8
ARKA_MITRE
10
726.515965
20
1532.357801
30
0
0
SEQEND
8
ARKA_MITRE
0
POLYLINE
8
ARKA_MITRE
66
1
70
0
10
0
20
0
30
0
0
VERTEX
8
ARKA_MITRE
10
510.497181
20
1590.23986
30
0
42
0.007622
0
VERTEX
8
ARKA_MITRE
10
495.5
20
1590.498984
30
0
0
VERTEX
8
ARKA_MITRE
10
495.5
20
1575.498984
30
0
0
SEQEND
8
ARKA_MITRE
0
POLYLINE
8
ARKA_MITRE
66
1
70
0
10
0
20
0
30
0
0
VERTEX
8
ARKA_MITRE
10
495.5
20
1386.473168
30
0
0
VERTEX
8
ARKA_MITRE
10
495.5
20
1371.473168
30
0
42
-0.013738
0
VERTEX
8
ARKA_MITRE
10
510.490842
20
1371.006227
30
0
0
SEQEND
8
ARKA_MITRE
0
POLYLINE
8
ARKA_MITRE
66
1
70
0
10
0
20
0
30
0
0
VERTEX
8
ARKA_MITRE
10
616.904638
20
1342.492736
30
0
42
-0.013738
0
VERTEX
8
ARKA_MITRE
10
630.120559
20
1335.401698
30
0
0
VERTEX
8
ARKA_MITRE
10
637.620559
20
1348.392079
30
0
0
SEQEND
8
ARKA_MITRE
0
POLYLINE
8
ARKA_MITRE
66
1
70
0
10
0
20
0
30
0
0
VERTEX
8
ARKA_MITRE
10
493.5
20
1575.498984
30
0
0
VERTEX
8
ARKA_MITRE
10
493.5
20
1590.498984
30
0
42
0.007622
0
VERTEX
8
ARKA_MITRE
10
478.502819
20
1590.23986
30
0
0
SEQEND
8
ARKA_MITRE
0
POLYLINE
8
ARKA_MITRE
66
1
70
0
10
0
20
0
30
0
0
VERTEX
8
ARKA_MITRE
10
262.484035
20
1532.357801
30
0
42
0.007622
0
VERTEX
8
ARKA_MITRE
10
249.366534
20
1525.083619
30
0
0
VERTEX
8
ARKA_MITRE
10
256.866534
20
1512.093237
30
0
0
SEQEND
8
ARKA_MITRE
0
POLYLINE
8
ARKA_MITRE
66
1
70
0
10
0
20
0
30
0
0
VERTEX
8
ARKA_MITRE
10
351.379441
20
1348.392079
30
0
0
VERTEX
8
ARKA_MITRE
10
358.879441
20
1335.401698
30
0
42
-0.013738
0
VERTEX
8
ARKA_MITRE
10
372.095362
20
1342.492736
30
0
0
SEQEND
8
ARKA_MITRE
0
POLYLINE
8
ARKA_MITRE
66
1
70
0
10
0
20
0
30
0
0
VERTEX
8
ARKA_MITRE
10
478.509158
20
1371.006227
30
0
42
-0.013738
0
VERTEX
8
ARKA_MITRE
10
493.5
20
1371.473168
30
0
0
VERTEX
8
ARKA_MITRE
10
493.5
20
1386.473168
30
0
0
SEQEND
8
ARKA_MITRE
0
POLYLINE
8
ARKA_MITRE
66
1
70
0
10
0
20
0
30
0
0
VERTEX
8
ARKA_MITRE
10
255.134483
20
1511.093237
30
0
0
VERTEX
8
ARKA_MITRE
10
247.634483
20
1524.083619
30
0
42
0.007622
0
VERTEX
8
ARKA_MITRE
10
234.776105
20
1516.360621
30
0
0
SEQEND
8
ARKA_MITRE
0
POLYLINE
8
ARKA_MITRE
66
1
70
0
10
0
20
0
30
0
0
VERTEX
8
ARKA_MITRE
10
76.639379
20
1358.223895
30
0
42
0.007622
0
VERTEX
8
ARKA_MITRE
10
68.916381
20
1345.365517
30
0
0
VERTEX
8
ARKA_MITRE
10
81.906763
20
1337.865517
30
0
0
SEQEND
8
ARKA_MITRE
0
POLYLINE
8
ARKA_MITRE
66
1
70
0
10
0
20
0
30
0
0
VERTEX
8
ARKA_MITRE
10
245.607921
20
1243.35261
30
0
0
VERTEX
8
ARKA_MITRE
10
258.598302
20
1235.85261
30
0
42
-0.013738
0
VERTEX
8
ARKA_MITRE
10
266.498106
20
1248.601589
30
0
0
SEQEND
8
ARKA_MITRE
0
POLYLINE
8
ARKA_MITRE
66
1
70
0
10
0
20
0
30
0
0
VERTEX
8
ARKA_MITRE
10
344.398411
20
1326.501894
30
0
42
-0.013738
0
VERTEX
8
ARKA_MITRE
10
357.14739
20
1334.401698
30
0
0
VERTEX
8
ARKA_MITRE
10
349.64739
20
1347.392079
30
0
0
SEQEND
8
ARKA_MITRE
0
POLYLINE
8
ARKA_MITRE
66
1
70
0
10
0
20
0
30
0
0
VERTEX
8
ARKA_MITRE
10
80.906763
20
1336.133466
30
0
0
VERTEX
8
ARKA_MITRE
10
67.916381
20
1343.633466
30
0
42
0.007622
0
VERTEX
8
ARKA_MITRE
10
60.642199
20
1330.515965
30
0
0
SEQEND
8
ARKA_MITRE
0
POLYLINE
8
ARKA_MITRE
66
1
70
0
10
0
20
0
30
0
0
VERTEX
8
ARKA_MITRE
10
2.76014
20
1114.497181
30
0
42
0.007622
0
VERTEX
8
ARKA_MITRE
10
2.501016
20
1099.5
30
0
0
VERTEX
8
ARKA_MITRE
10
17.501016
20
1099.5
30
0
0
SEQEND
8
ARKA_MITRE
0
POLYLINE
8
ARKA_MITRE
66
1
70
0
10
0
20
0
30
0
0
VERTEX
8
ARKA_MITRE
10
206.526832
20
1099.5
30
0
0
VERTEX
8
ARKA_MITRE
10
221.526832
20
1099.5
30
0
42
-0.013738
0
VERTEX
8
ARKA_MITRE
10
221.993773
20
1114.490842
30
0
0
SEQEND
8
ARKA_MITRE
0
POLYLINE
8
ARKA_MITRE
66
1
70
0
10
0
20
0
30
0
0
VERTEX
8
ARKA_MITRE
10
250.507264
20
1220.904638
30
0
42
-0.013738
0
VERTEX
8
ARKA_MITRE
10
257.598302
20
1234.120559
30
0
0
VERTEX
8
ARKA_MITRE
10
244.607921
20
1241.620559
30
0
0
SEQEND
8
ARKA_MITRE
0
POLYLINE
8
ARKA_MITRE
66
1
70
0
10
0
20
0
30
0
0
VERTEX
8
ARKA_MITRE
10
615.915322
20
1167.444469
30
0
0
VERTEX
8
ARKA_MITRE
10
602.924941
20
1159.944469
30
0
42
-0.030099
0
VERTEX
8
ARKA_MITRE
10
609.518204
20
1146.481282
30
0
0
SEQEND
8
ARKA_MITRE
0
POLYLINE
8
ARKA_MITRE
66
1
70
0
10
0
20
0
30
0
0
VERTEX
8
ARKA_MITRE
10
618.099327
20
1114.456093
30
0
42
-0.030099
0
VERTEX
8
ARKA_MITRE
10
619.120988
20
1099.5
30
0
0
VERTEX
8
ARKA_MITRE
10
634.120988
20
1099.5
30
0
0
SEQEND
8
ARKA_MITRE
0
POLYLINE
8
ARKA_MITRE
66
1
70
0
10
0
20
0
30
0
0
VERTEX
8
ARKA_MITRE
10
750.473155
20
1099.5
30
0
0
VERTEX
8
ARKA_MITRE
10
765.473155
20
1099.5
30
0
42
0.01384
0
VERTEX
8
ARKA_MITRE
10
765.002769
20
1114.490707
30
0
0
SEQEND
8
ARKA_MITRE
0
POLYLINE
8
ARKA_MITRE
66
1
70
0
10
0
20
0
30
0
0
VERTEX
8
ARKA_MITRE
10
736.757623
20
1219.903026
30
0
42
0.01384
0
VERTEX
8
ARKA_MITRE
10
729.669636
20
1233.120552
30
0
0
VERTEX
8
ARKA_MITRE
10
716.679255
20
1225.620552
30
0
0
SEQEND
8
ARKA_MITRE
0
POLYLINE
8
ARKA_MITRE
66
1
70
0
10
0
20
0
30
0
0
VERTEX
8
ARKA_MITRE
10
565.176519
20
1218.915322
30
0
0
VERTEX
8
ARKA_MITRE
10
557.676519
20
1205.924941
30
0
42
-0.030099
0
VERTEX
8
ARKA_MITRE
10
570.118045
20
1197.562111
30
0
0
SEQEND
8
ARKA_MITRE
0
POLYLINE
8
ARKA_MITRE
66
1
70
0
10
0
20
0
30
0
0
VERTEX
8
ARKA_MITRE
10
593.562111
20
1174.118045
30
0
42
-0.030099
0
VERTEX
8
ARKA_MITRE
10
601.924941
20
1161.676519
30
0
0
VERTEX
8
ARKA_MITRE
10
614.915322
20
1169.176519
30
0
0
SEQEND
8
ARKA_MITRE
0
POLYLINE
8
ARKA_MITRE
66
1
70
0
10
0
20
0
30
0
0
VERTEX
8
ARKA_MITRE
10
715.679255
20
1227.352603
30
0
0
VERTEX
8
ARKA_MITRE
10
728.669636
20
1234.852603
30
0
42
0.01384
0
VERTEX
8
ARKA_MITRE
10
720.766916
20
1247.599743
30
0
0
SEQEND
8
ARKA_MITRE
0
POLYLINE
8
ARKA_MITRE
66
1
70
0
10
0
20
0
30
0
0
VERTEX
8
ARKA_MITRE
10
643.599743
20
1324.766916
30
0
42
0.01384
0
VERTEX
8
ARKA_MITRE
10
630.852603
20
1332.669636
30
0
0
VERTEX
8
ARKA_MITRE
10
623.352603
20
1319.679255
30
0
0
SEQEND
8
ARKA_MITRE
0
POLYLINE
8
ARKA_MITRE
66
1
70
0
10
0
20
0
30
0
0
VERTEX
8
ARKA_MITRE
10
495.5
20
1238.120988
30
0
0
VERTEX
8
ARKA_MITRE
10
495.5
20
1223.120988
30
0
42
-0.030099
0
VERTEX
8
ARKA_MITRE
10
510.456093
20
1222.099327
30
0
0
SEQEND
8
ARKA_MITRE
0
POLYLINE
8
ARKA_MITRE
66
1
70
0
10
0
20
0
30
0
0
VERTEX
8
ARKA_MITRE
10
542.481282
20
1213.518204
30
0
42
-0.030099
0
VERTEX
8
ARKA_MITRE
10
555.944469
20
1206.924941
30
0
0
VERTEX
8
ARKA_MITRE
10
563.444469
20
1219.915322
30
0
0
SEQEND
8
ARKA_MITRE
0
POLYLINE
8
ARKA_MITRE
66
1
70
0
10
0
20
0
30
0
0
VERTEX
8
ARKA_MITRE
10
621.620552
20
1320.679255
30
0
0
VERTEX
8
ARKA_MITRE
10
629.120552
20
1333.669636
30
0
42
0.01384
0
VERTEX
8
ARKA_MITRE
10
615.903026
20
1340.757623
30
0
0
SEQEND
8
ARKA_MITRE
0
POLYLINE
8
ARKA_MITRE
66
1
70
0
10
0
20
0
30
0
0
VERTEX
8
ARKA_MITRE
10
510.490707
20
1369.002769
30
0
42
0.01384
0
VERTEX
8
ARKA_MITRE
10
495.5
20
1369.473155
30
0
0
VERTEX
8
ARKA_MITRE
10
495.5
20
1354.473155
30
0
0
SEQEND
8
ARKA_MITRE
0
POLYLINE
8
ARKA_MITRE
66
1
70
0
10
0
20
0
30
0
0
VERTEX
8
ARKA_MITRE
10
425.555531
20
1219.915322
30
0
0
VERTEX
8
ARKA_MITRE
10
433.055531
20
1206.924941
30
0
42
-0.030099
0
VERTEX
8
ARKA_MITRE
10
446.518718
20
1213.518204
30
0
0
SEQEND
8
ARKA_MITRE
0
POLYLINE
8
ARKA_MITRE
66
1
70
0
10
0
20
0
30
0
0
VERTEX
8
ARKA_MITRE
10
478.543907
20
1222.099327
30
0
42
-0.030099
0
VERTEX
8
ARKA_MITRE
10
493.5
20
1223.120988
30
0
0
VERTEX
8
ARKA_MITRE
10
493.5
20
1238.120988
30
0
0
SEQEND
8
ARKA_MITRE
0
POLYLINE
8
ARKA_MITRE
66
1
70
0
10
0
20
0
30
0
0
VERTEX
8
ARKA_MITRE
10
493.5
20
1354.473155
30
0
0
VERTEX
8
ARKA_MITRE
10
493.5
20
1369.473155
30
0
42
0.01384
0
VERTEX
8
ARKA_MITRE
10
478.509293
20
1369.002769
30
0
0
SEQEND
8
ARKA_MITRE
0
POLYLINE
8
ARKA_MITRE
66
1
70
0
10
0
20
0
30
0
0
VERTEX
8
ARKA_MITRE
10
373.096974
20
1340.757623
30
0
42
0.01384
0
VERTEX
8
ARKA_MITRE
10
359.879448
20
1333.669636
30
0
0
VERTEX
8
ARKA_MITRE
10
367.379448
20
1320.679255
30
0
0
SEQEND
8
ARKA_MITRE
0
POLYLINE
8
ARKA_MITRE
66
1
70
0
10
0
20
0
30
0
0
VERTEX
8
ARKA_MITRE
10
374.084678
20
1169.176519
30
0
0
VERTEX
8
ARKA_MITRE
10
387.075059
20
1161.676519
30
0
42
-0.030099
0
VERTEX
8
ARKA_MITRE
10
395.437889
20
1174.118045
30
0
0
SEQEND
8
ARKA_MITRE
0
POLYLINE
8
ARKA_MITRE
66
1
70
0
10
0
20
0
30
0
0
VERTEX
8
ARKA_MITRE
10
418.881955
20
1197.562111
30
0
42
-0.030099
0
VERTEX
8
ARKA_MITRE
10
431.323481
20
1205.924941
30
0
0
VERTEX
8
ARKA_MITRE
10
423.823481
20
1218.915322
30
0
0
SEQEND
8
ARKA_MITRE
0
POLYLINE
8
ARKA_MITRE
66
1
70
0
10
0
20
0
30
0
0
VERTEX
8
ARKA_MITRE
10
365.647397
20
1319.679255
30
0
0
VERTEX
8
ARKA_MITRE
10
358.147397
20
1332.669636
30
0
42
0.01384
0
VERTEX
8
ARKA_MITRE
10
345.400257
20
1324.766916
30
0
0
SEQEND
8
ARKA_MITRE
0
POLYLINE
8
ARKA_MITRE
66
1
70
0
10
0
20
0
30
0
0
VERTEX
8
ARKA_MITRE
10
268.233084
20
1247.599743
30
0
42
0.01384
0
VERTEX
8
ARKA_MITRE
10
260.330364
20
1234.852603
30
0
0
VERTEX
8
ARKA_MITRE
10
273.320745
20
1227.352603
30
0
0
SEQEND
8
ARKA_MITRE
0
POLYLINE
8
ARKA_MITRE
66
1
70
0
10
0
20
0
30
0
0
VERTEX
8
ARKA_MITRE
10
354.879012
20
1099.5
30
0
0
VERTEX
8
ARKA_MITRE
10
369.879012
20
1099.5
30
0
42
-0.030099
0
VERTEX
8
ARKA_MITRE
10
370.900673
20
1114.456093
30
0
0
SEQEND
8
ARKA_MITRE
0
POLYLINE
8
ARKA_MITRE
66
1
70
0
10
0
20
0
30
0
0
VERTEX
8
ARKA_MITRE
10
379.481796
20
1146.481282
30
0
42
-0.030099
0
VERTEX
8
ARKA_MITRE
10
386.075059
20
1159.944469
30
0
0
VERTEX
8
ARKA_MITRE
10
373.084678
20
1167.444469
30
0
0
SEQEND
8
ARKA_MITRE
0
POLYLINE
8
ARKA_MITRE
66
1
70
0
10
0
20
0
30
0
0
VERTEX
8
ARKA_MITRE
10
272.320745
20
1225.620552
30
0
0
VERTEX
8
ARKA_MITRE
10
259.330364
20
1233.120552
30
0
42
0.01384
0
VERTEX
8
ARKA_MITRE
10
252.242377
20
1219.903026
30
0
0
SEQEND
8
ARKA_MITRE
0
POLYLINE
8
ARKA_MITRE
66
1
70
0
10
0
20
0
30
0
0
VERTEX
8
ARKA_MITRE
10
223.997231
20
1114.490707
30
0
42
0.01384
0
VERTEX
8
ARKA_MITRE
10
223.526845
20
1099.5
30
0
0
VERTEX
8
ARKA_MITRE
10
238.526845
20
1099.5
30
0
0
SEQEND
8
ARKA_MITRE
0
POINT
8
ARKA_CENTRE
10
494.5
20
1098.5
30
0
0
POLYLINE
8
ARKA_SECTION
66
1
70
0
10
0
20
0
30
0
0
VERTEX
8
ARKA_SECTION
10
1094.5
20
-5.5
30
0
42
-0.414214
0
VERTEX
8
ARKA_SECTION
10
1102.5
20
2.5
30
0
0
VERTEX
8
ARKA_SECTION
10
1102.5
20
8.5
30
0
0
SEQEND
8
ARKA_SECTION
0
TEXT
8
ARKA_INFO_NO_CUT
10
1090.5
20
-24.5
30
0
40
15
1
START
72
0
11
1090.5
21
-24.5
31
0
73
0
0
TEXT
8
ARKA_INFO_NO_CUT
10
1114.5
20
-1.5
30
0
40
15
1
SECTION R8 + 6 (VERBATIM)
72
0
11
1114.5
21
-1.5
31
0
73
0
0
TEXT
8
ARKA_INFO_NO_CUT
10
1094.5
20
1576.5
30
0
40
15
1
custom - TRACERY FULL
72
0
11
1094.5
21
1576.5
31
0
73
0
0
TEXT
8
ARKA_INFO_NO_CUT
10
1094.5
20
1554.5
30
0
40
15
1
PATTERN CUSTOM SPOKES 14 RINGS 2 PANES 17
72
0
11
1094.5
21
1554.5
31
0
73
0
0
TEXT
8
ARKA_INFO_NO_CUT
10
1094.5
20
1532.5
30
0
40
15
1
TIMBER BAR 22 EDGE MARGIN 18 PANE +2 LIMIT +10 MITRE LEG 15
72
0
11
1094.5
21
1532.5
31
0
73
0
0
TEXT
8
ARKA_INFO_NO_CUT
10
1094.5
20
1510.5
30
0
40
15
1
ARKA_PANE = MOULDING RAIL (INNER EDGE OF THE BEAD), ARKA_FRONT_HINGES_3MM = BEAD LIMIT (NOT DRILLING)
72
0
11
1094.5
21
1510.5
31
0
73
0
0
TEXT
8
ARKA_INFO_NO_CUT
10
1094.5
20
1488.5
30
0
40
15
1
NOT A TOOLPATH
72
0
11
1094.5
21
1488.5
31
0
73
0
0
ENDSEC
0
EOF
