0
SECTION
2
HEADER
9
$ACADVER
1
AC1009
0
ENDSEC
0
SECTION
2
TABLES
0
TABLE
2
LAYER
70
9
0
LAYER
2
0
70
0
62
7
6
CONTINUOUS
0
LAYER
2
ARKA_OUTLINE
70
0
62
7
6
CONTINUOUS
0
LAYER
2
ARKA_PANE
70
0
62
3
6
CONTINUOUS
0
LAYER
2
ARKA_FRONT_HINGES_3MM
70
0
62
50
6
CONTINUOUS
0
LAYER
2
ARKA_MITRE
70
0
62
1
6
CONTINUOUS
0
LAYER
2
ARKA_SECTION
70
0
62
5
6
CONTINUOUS
0
LAYER
2
ARKA_PANE_ZEWN_REF
70
0
62
3
6
CONTINUOUS
0
LAYER
2
ARKA_CENTRE
70
0
62
6
6
CONTINUOUS
0
LAYER
2
ARKA_INFO_NO_CUT
70
0
62
8
6
CONTINUOUS
0
ENDTAB
0
ENDSEC
0
SECTION
2
ENTITIES
0
POLYLINE
8
ARKA_OUTLINE
66
1
70
1
10
0
20
0
30
0
0
VERTEX
8
ARKA_OUTLINE
10
594.5
20
294.5
30
0
42
1
0
VERTEX
8
ARKA_OUTLINE
10
-5.5
20
294.5
30
0
42
1
0
SEQEND
8
ARKA_OUTLINE
0
POLYLINE
8
ARKA_PANE_ZEWN_REF
66
1
70
1
10
0
20
0
30
0
0
VERTEX
8
ARKA_PANE_ZEWN_REF
10
592.5
20
294.5
30
0
42
1
0
VERTEX
8
ARKA_PANE_ZEWN_REF
10
-3.5
20
294.5
30
0
42
1
0
SEQEND
8
ARKA_PANE_ZEWN_REF
0
POLYLINE
8
ARKA_OUTLINE
66
1
70
1
10
0
20
0
30
0
0
VERTEX
8
ARKA_OUTLINE
10
576.285379
20
305.5
30
0
42
0.247146
0
VERTEX
8
ARKA_OUTLINE
10
444.918969
20
533.033297
30
0
0
VERTEX
8
ARKA_OUTLINE
10
356.488766
20
379.867692
30
0
42
-0.212695
0
VERTEX
8
ARKA_OUTLINE
10
399.424973
20
305.5
30
0
0
SEQEND
8
ARKA_OUTLINE
0
POLYLINE
8
ARKA_PANE
66
1
70
1
10
0
20
0
30
0
0
VERTEX
8
ARKA_PANE
10
578.357359
20
303.5
30
0
42
0.251034
0
VERTEX
8
ARKA_PANE
10
444.222908
20
535.827684
30
0
0
VERTEX
8
ARKA_PANE
10
353.848205
20
379.294107
30
0
42
-0.2218
0
VERTEX
8
ARKA_PANE
10
397.607953
20
303.5
30
0
0
SEQEND
8
ARKA_PANE
0
POLYLINE
8
ARKA_FRONT_HINGES_3MM
66
1
70
1
10
0
20
0
30
0
0
VERTEX
8
ARKA_FRONT_HINGES_3MM
10
586.498288
20
295.5
30
0
42
0.266115
0
VERTEX
8
ARKA_FRONT_HINGES_3MM
10
441.365169
20
546.877935
30
0
0
VERTEX
8
ARKA_FRONT_HINGES_3MM
10
343.113408
20
376.700892
30
0
42
-0.262345
0
VERTEX
8
ARKA_FRONT_HINGES_3MM
10
389.994764
20
295.5
30
0
0
SEQEND
8
ARKA_FRONT_HINGES_3MM
0
POLYLINE
8
ARKA_OUTLINE
66
1
70
1
10
0
20
0
30
0
0
VERTEX
8
ARKA_OUTLINE
10
425.86641
20
544.033297
30
0
42
0.247146
0
VERTEX
8
ARKA_OUTLINE
10
163.13359
20
544.033297
30
0
0
VERTEX
8
ARKA_OUTLINE
10
251.563793
20
390.867692
30
0
42
-0.212695
0
VERTEX
8
ARKA_OUTLINE
10
337.436207
20
390.867692
30
0
0
SEQEND
8
ARKA_OUTLINE
0
POLYLINE
8
ARKA_PANE
66
1
70
1
10
0
20
0
30
0
0
VERTEX
8
ARKA_PANE
10
428.634451
20
544.827684
30
0
42
0.251034
0
VERTEX
8
ARKA_PANE
10
160.365549
20
544.827684
30
0
0
VERTEX
8
ARKA_PANE
10
250.740252
20
388.294107
30
0
42
-0.2218
0
VERTEX
8
ARKA_PANE
10
338.259748
20
388.294107
30
0
0
SEQEND
8
ARKA_PANE
0
POLYLINE
8
ARKA_FRONT_HINGES_3MM
66
1
70
1
10
0
20
0
30
0
0
VERTEX
8
ARKA_FRONT_HINGES_3MM
10
439.633118
20
547.877935
30
0
42
0.266115
0
VERTEX
8
ARKA_FRONT_HINGES_3MM
10
149.366882
20
547.877935
30
0
0
VERTEX
8
ARKA_FRONT_HINGES_3MM
10
247.618643
20
377.700892
30
0
42
-0.262345
0
VERTEX
8
ARKA_FRONT_HINGES_3MM
10
341.381357
20
377.700892
30
0
0
SEQEND
8
ARKA_FRONT_HINGES_3MM
0
POLYLINE
8
ARKA_OUTLINE
66
1
70
1
10
0
20
0
30
0
0
VERTEX
8
ARKA_OUTLINE
10
144.081031
20
533.033297
30
0
42
0.247146
0
VERTEX
8
ARKA_OUTLINE
10
12.714621
20
305.5
30
0
0
VERTEX
8
ARKA_OUTLINE
10
189.575027
20
305.5
30
0
42
-0.212695
0
VERTEX
8
ARKA_OUTLINE
10
232.511234
20
379.867692
30
0
0
SEQEND
8
ARKA_OUTLINE
0
POLYLINE
8
ARKA_PANE
66
1
70
1
10
0
20
0
30
0
0
VERTEX
8
ARKA_PANE
10
144.777092
20
535.827684
30
0
42
0.251034
0
VERTEX
8
ARKA_PANE
10
10.642641
20
303.5
30
0
0
VERTEX
8
ARKA_PANE
10
191.392047
20
303.5
30
0
42
-0.2218
0
VERTEX
8
ARKA_PANE
10
235.151795
20
379.294107
30
0
0
SEQEND
8
ARKA_PANE
0
POLYLINE
8
ARKA_FRONT_HINGES_3MM
66
1
70
1
10
0
20
0
30
0
0
VERTEX
8
ARKA_FRONT_HINGES_3MM
10
147.634831
20
546.877935
30
0
42
0.266115
0
VERTEX
8
ARKA_FRONT_HINGES_3MM
10
2.501712
20
295.5
30
0
0
VERTEX
8
ARKA_FRONT_HINGES_3MM
10
199.005236
20
295.5
30
0
42
-0.262345
0
VERTEX
8
ARKA_FRONT_HINGES_3MM
10
245.886592
20
376.700892
30
0
0
SEQEND
8
ARKA_FRONT_HINGES_3MM
0
POLYLINE
8
ARKA_OUTLINE
66
1
70
1
10
0
20
0
30
0
0
VERTEX
8
ARKA_OUTLINE
10
12.714621
20
283.5
30
0
42
0.247146
0
VERTEX
8
ARKA_OUTLINE
10
144.081031
20
55.966703
30
0
0
VERTEX
8
ARKA_OUTLINE
10
232.511234
20
209.132308
30
0
42
-0.212695
0
VERTEX
8
ARKA_OUTLINE
10
189.575027
20
283.5
30
0
0
SEQEND
8
ARKA_OUTLINE
0
POLYLINE
8
ARKA_PANE
66
1
70
1
10
0
20
0
30
0
0
VERTEX
8
ARKA_PANE
10
10.642641
20
285.5
30
0
42
0.251034
0
VERTEX
8
ARKA_PANE
10
144.777092
20
53.172316
30
0
0
VERTEX
8
ARKA_PANE
10
235.151795
20
209.705893
30
0
42
-0.2218
0
VERTEX
8
ARKA_PANE
10
191.392047
20
285.5
30
0
0
SEQEND
8
ARKA_PANE
0
POLYLINE
8
ARKA_FRONT_HINGES_3MM
66
1
70
1
10
0
20
0
30
0
0
VERTEX
8
ARKA_FRONT_HINGES_3MM
10
2.501712
20
293.5
30
0
42
0.266115
0
VERTEX
8
ARKA_FRONT_HINGES_3MM
10
147.634831
20
42.122065
30
0
0
VERTEX
8
ARKA_FRONT_HINGES_3MM
10
245.886592
20
212.299108
30
0
42
-0.262345
0
VERTEX
8
ARKA_FRONT_HINGES_3MM
10
199.005236
20
293.5
30
0
0
SEQEND
8
ARKA_FRONT_HINGES_3MM
0
POLYLINE
8
ARKA_OUTLINE
66
1
70
1
10
0
20
0
30
0
0
VERTEX
8
ARKA_OUTLINE
10
163.13359
20
44.966703
30
0
42
0.247146
0
VERTEX
8
ARKA_OUTLINE
10
425.86641
20
44.966703
30
0
0
VERTEX
8
ARKA_OUTLINE
10
337.436207
20
198.132308
30
0
42
-0.212695
0
VERTEX
8
ARKA_OUTLINE
10
251.563793
20
198.132308
30
0
0
SEQEND
8
ARKA_OUTLINE
0
POLYLINE
8
ARKA_PANE
66
1
70
1
10
0
20
0
30
0
0
VERTEX
8
ARKA_PANE
10
160.365549
20
44.172316
30
0
42
0.251034
0
VERTEX
8
ARKA_PANE
10
428.634451
20
44.172316
30
0
0
VERTEX
8
ARKA_PANE
10
338.259748
20
200.705893
30
0
42
-0.2218
0
VERTEX
8
ARKA_PANE
10
250.740252
20
200.705893
30
0
0
SEQEND
8
ARKA_PANE
0
POLYLINE
8
ARKA_FRONT_HINGES_3MM
66
1
70
1
10
0
20
0
30
0
0
VERTEX
8
ARKA_FRONT_HINGES_3MM
10
149.366882
20
41.122065
30
0
42
0.266115
0
VERTEX
8
ARKA_FRONT_HINGES_3MM
10
439.633118
20
41.122065
30
0
0
VERTEX
8
ARKA_FRONT_HINGES_3MM
10
341.381357
20
211.299108
30
0
42
-0.262345
0
VERTEX
8
ARKA_FRONT_HINGES_3MM
10
247.618643
20
211.299108
30
0
0
SEQEND
8
ARKA_FRONT_HINGES_3MM
0
POLYLINE
8
ARKA_OUTLINE
66
1
70
1
10
0
20
0
30
0
0
VERTEX
8
ARKA_OUTLINE
10
444.918969
20
55.966703
30
0
42
0.247146
0
VERTEX
8
ARKA_OUTLINE
10
576.285379
20
283.5
30
0
0
VERTEX
8
ARKA_OUTLINE
10
399.424973
20
283.5
30
0
42
-0.212695
0
VERTEX
8
ARKA_OUTLINE
10
356.488766
20
209.132308
30
0
0
SEQEND
8
ARKA_OUTLINE
0
POLYLINE
8
ARKA_PANE
66
1
70
1
10
0
20
0
30
0
0
VERTEX
8
ARKA_PANE
10
444.222908
20
53.172316
30
0
42
0.251034
0
VERTEX
8
ARKA_PANE
10
578.357359
20
285.5
30
0
0
VERTEX
8
ARKA_PANE
10
397.607953
20
285.5
30
0
42
-0.2218
0
VERTEX
8
ARKA_PANE
10
353.848205
20
209.705893
30
0
0
SEQEND
8
ARKA_PANE
0
POLYLINE
8
ARKA_FRONT_HINGES_3MM
66
1
70
1
10
0
20
0
30
0
0
VERTEX
8
ARKA_FRONT_HINGES_3MM
10
441.365169
20
42.122065
30
0
42
0.266115
0
VERTEX
8
ARKA_FRONT_HINGES_3MM
10
586.498288
20
293.5
30
0
0
VERTEX
8
ARKA_FRONT_HINGES_3MM
10
389.994764
20
293.5
30
0
42
-0.262345
0
VERTEX
8
ARKA_FRONT_HINGES_3MM
10
343.113408
20
212.299108
30
0
0
SEQEND
8
ARKA_FRONT_HINGES_3MM
0
POLYLINE
8
ARKA_OUTLINE
66
1
70
1
10
0
20
0
30
0
0
VERTEX
8
ARKA_OUTLINE
10
378
20
294.5
30
0
42
1
0
VERTEX
8
ARKA_OUTLINE
10
211
20
294.5
30
0
42
1
0
SEQEND
8
ARKA_OUTLINE
0
POLYLINE
8
ARKA_PANE
66
1
70
1
10
0
20
0
30
0
0
VERTEX
8
ARKA_PANE
10
380
20
294.5
30
0
42
1
0
VERTEX
8
ARKA_PANE
10
209
20
294.5
30
0
42
1
0
SEQEND
8
ARKA_PANE
0
POLYLINE
8
ARKA_FRONT_HINGES_3MM
66
1
70
1
10
0
20
0
30
0
0
VERTEX
8
ARKA_FRONT_HINGES_3MM
10
388
20
294.5
30
0
42
1
0
VERTEX
8
ARKA_FRONT_HINGES_3MM
10
201
20
294.5
30
0
42
1
0
SEQEND
8
ARKA_FRONT_HINGES_3MM
0
POLYLINE
8
ARKA_MITRE
66
1
70
0
10
0
20
0
30
0
0
VERTEX
8
ARKA_MITRE
10
571.498288
20
295.5
30
0
0
VERTEX
8
ARKA_MITRE
10
586.498288
20
295.5
30
0
42
0.012843
0
VERTEX
8
ARKA_MITRE
10
586.061753
20
310.491997
30
0
0
SEQEND
8
ARKA_MITRE
0
POLYLINE
8
ARKA_MITRE
66
1
70
0
10
0
20
0
30
0
0
VERTEX
8
ARKA_MITRE
10
454.130352
20
539.003887
30
0
42
0.012843
0
VERTEX
8
ARKA_MITRE
10
441.365169
20
546.877935
30
0
0
VERTEX
8
ARKA_MITRE
10
433.865169
20
533.887554
30
0
0
SEQEND
8
ARKA_MITRE
0
POLYLINE
8
ARKA_MITRE
66
1
70
0
10
0
20
0
30
0
0
VERTEX
8
ARKA_MITRE
10
350.613408
20
389.691273
30
0
0
VERTEX
8
ARKA_MITRE
10
343.113408
20
376.700892
30
0
42
-0.039287
0
VERTEX
8
ARKA_MITRE
10
355.373097
20
368.084754
30
0
0
SEQEND
8
ARKA_MITRE
0
POLYLINE
8
ARKA_MITRE
66
1
70
0
10
0
20
0
30
0
0
VERTEX
8
ARKA_MITRE
10
388.662815
20
310.425271
30
0
42
-0.039287
0
VERTEX
8
ARKA_MITRE
10
389.994764
20
295.5
30
0
0
VERTEX
8
ARKA_MITRE
10
404.994764
20
295.5
30
0
0
SEQEND
8
ARKA_MITRE
0
POLYLINE
8
ARKA_MITRE
66
1
70
0
10
0
20
0
30
0
0
VERTEX
8
ARKA_MITRE
10
432.133118
20
534.887554
30
0
0
VERTEX
8
ARKA_MITRE
10
439.633118
20
547.877935
30
0
42
0.012843
0
VERTEX
8
ARKA_MITRE
10
426.431401
20
554.995884
30
0
0
SEQEND
8
ARKA_MITRE
0
POLYLINE
8
ARKA_MITRE
66
1
70
0
10
0
20
0
30
0
0
VERTEX
8
ARKA_MITRE
10
162.568599
20
554.995884
30
0
42
0.012843
0
VERTEX
8
ARKA_MITRE
10
149.366882
20
547.877935
30
0
0
VERTEX
8
ARKA_MITRE
10
156.866882
20
534.887554
30
0
0
SEQEND
8
ARKA_MITRE
0
POLYLINE
8
ARKA_MITRE
66
1
70
0
10
0
20
0
30
0
0
VERTEX
8
ARKA_MITRE
10
240.118643
20
390.691273
30
0
0
VERTEX
8
ARKA_MITRE
10
247.618643
20
377.700892
30
0
42
-0.039287
0
VERTEX
8
ARKA_MITRE
10
261.210282
20
384.010026
30
0
0
SEQEND
8
ARKA_MITRE
0
POLYLINE
8
ARKA_MITRE
66
1
70
0
10
0
20
0
30
0
0
VERTEX
8
ARKA_MITRE
10
327.789718
20
384.010026
30
0
42
-0.039287
0
VERTEX
8
ARKA_MITRE
10
341.381357
20
377.700892
30
0
0
VERTEX
8
ARKA_MITRE
10
348.881357
20
390.691273
30
0
0
SEQEND
8
ARKA_MITRE
0
POLYLINE
8
ARKA_MITRE
66
1
70
0
10
0
20
0
30
0
0
VERTEX
8
ARKA_MITRE
10
155.134831
20
533.887554
30
0
0
VERTEX
8
ARKA_MITRE
10
147.634831
20
546.877935
30
0
42
0.012843
0
VERTEX
8
ARKA_MITRE
10
134.869648
20
539.003887
30
0
0
SEQEND
8
ARKA_MITRE
0
POLYLINE
8
ARKA_MITRE
66
1
70
0
10
0
20
0
30
0
0
VERTEX
8
ARKA_MITRE
10
2.938247
20
310.491997
30
0
42
0.012843
0
VERTEX
8
ARKA_MITRE
10
2.501712
20
295.5
30
0
0
VERTEX
8
ARKA_MITRE
10
17.501712
20
295.5
30
0
0
SEQEND
8
ARKA_MITRE
0
POLYLINE
8
ARKA_MITRE
66
1
70
0
10
0
20
0
30
0
0
VERTEX
8
ARKA_MITRE
10
184.005236
20
295.5
30
0
0
VERTEX
8
ARKA_MITRE
10
199.005236
20
295.5
30
0
42
-0.039287
0
VERTEX
8
ARKA_MITRE
10
200.337185
20
310.425271
30
0
0
SEQEND
8
ARKA_MITRE
0
POLYLINE
8
ARKA_MITRE
66
1
70
0
10
0
20
0
30
0
0
VERTEX
8
ARKA_MITRE
10
233.626903
20
368.084754
30
0
42
-0.039287
0
VERTEX
8
ARKA_MITRE
10
245.886592
20
376.700892
30
0
0
VERTEX
8
ARKA_MITRE
10
238.386592
20
389.691273
30
0
0
SEQEND
8
ARKA_MITRE
0
POLYLINE
8
ARKA_MITRE
66
1
70
0
10
0
20
0
30
0
0
VERTEX
8
ARKA_MITRE
10
17.501712
20
293.5
30
0
0
VERTEX
8
ARKA_MITRE
10
2.501712
20
293.5
30
0
42
0.012843
0
VERTEX
8
ARKA_MITRE
10
2.938247
20
278.508003
30
0
0
SEQEND
8
ARKA_MITRE
0
POLYLINE
8
ARKA_MITRE
66
1
70
0
10
0
20
0
30
0
0
VERTEX
8
ARKA_MITRE
10
134.869648
20
49.996113
30
0
42
0.012843
0
VERTEX
8
ARKA_MITRE
10
147.634831
20
42.122065
30
0
0
VERTEX
8
ARKA_MITRE
10
155.134831
20
55.112446
30
0
0
SEQEND
8
ARKA_MITRE
0
POLYLINE
8
ARKA_MITRE
66
1
70
0
10
0
20
0
30
0
0
VERTEX
8
ARKA_MITRE
10
238.386592
20
199.308727
30
0
0
VERTEX
8
ARKA_MITRE
10
245.886592
20
212.299108
30
0
42
-0.039287
0
VERTEX
8
ARKA_MITRE
10
233.626903
20
220.915246
30
0
0
SEQEND
8
ARKA_MITRE
0
POLYLINE
8
ARKA_MITRE
66
1
70
0
10
0
20
0
30
0
0
VERTEX
8
ARKA_MITRE
10
200.337185
20
278.574729
30
0
42
-0.039287
0
VERTEX
8
ARKA_MITRE
10
199.005236
20
293.5
30
0
0
VERTEX
8
ARKA_MITRE
10
184.005236
20
293.5
30
0
0
SEQEND
8
ARKA_MITRE
0
POLYLINE
8
ARKA_MITRE
66
1
70
0
10
0
20
0
30
0
0
VERTEX
8
ARKA_MITRE
10
156.866882
20
54.112446
30
0
0
VERTEX
8
ARKA_MITRE
10
149.366882
20
41.122065
30
0
42
0.012843
0
VERTEX
8
ARKA_MITRE
10
162.568599
20
34.004116
30
0
0
SEQEND
8
ARKA_MITRE
0
POLYLINE
8
ARKA_MITRE
66
1
70
0
10
0
20
0
30
0
0
VERTEX
8
ARKA_MITRE
10
426.431401
20
34.004116
30
0
42
0.012843
0
VERTEX
8
ARKA_MITRE
10
439.633118
20
41.122065
30
0
0
VERTEX
8
ARKA_MITRE
10
432.133118
20
54.112446
30
0
0
SEQEND
8
ARKA_MITRE
0
POLYLINE
8
ARKA_MITRE
66
1
70
0
10
0
20
0
30
0
0
VERTEX
8
ARKA_MITRE
10
348.881357
20
198.308727
30
0
0
VERTEX
8
ARKA_MITRE
10
341.381357
20
211.299108
30
0
42
-0.039287
0
VERTEX
8
ARKA_MITRE
10
327.789718
20
204.989974
30
0
0
SEQEND
8
ARKA_MITRE
0
POLYLINE
8
ARKA_MITRE
66
1
70
0
10
0
20
0
30
0
0
VERTEX
8
ARKA_MITRE
10
261.210282
20
204.989974
30
0
42
-0.039287
0
VERTEX
8
ARKA_MITRE
10
247.618643
20
211.299108
30
0
0
VERTEX
8
ARKA_MITRE
10
240.118643
20
198.308727
30
0
0
SEQEND
8
ARKA_MITRE
0
POLYLINE
8
ARKA_MITRE
66
1
70
0
10
0
20
0
30
0
0
VERTEX
8
ARKA_MITRE
10
433.865169
20
55.112446
30
0
0
VERTEX
8
ARKA_MITRE
10
441.365169
20
42.122065
30
0
42
0.012843
0
VERTEX
8
ARKA_MITRE
10
454.130352
20
49.996113
30
0
0
SEQEND
8
ARKA_MITRE
0
POLYLINE
8
ARKA_MITRE
66
1
70
0
10
0
20
0
30
0
0
VERTEX
8
ARKA_MITRE
10
586.061753
20
278.508003
30
0
42
0.012843
0
VERTEX
8
ARKA_MITRE
10
586.498288
20
293.5
30
0
0
VERTEX
8
ARKA_MITRE
10
571.498288
20
293.5
30
0
0
SEQEND
8
ARKA_MITRE
0
POLYLINE
8
ARKA_MITRE
66
1
70
0
10
0
20
0
30
0
0
VERTEX
8
ARKA_MITRE
10
404.994764
20
293.5
30
0
0
VERTEX
8
ARKA_MITRE
10
389.994764
20
293.5
30
0
42
-0.039287
0
VERTEX
8
ARKA_MITRE
10
388.662815
20
278.574729
30
0
0
SEQEND
8
ARKA_MITRE
0
POLYLINE
8
ARKA_MITRE
66
1
70
0
10
0
20
0
30
0
0
VERTEX
8
ARKA_MITRE
10
355.373097
20
220.915246
30
0
42
-0.039287
0
VERTEX
8
ARKA_MITRE
10
343.113408
20
212.299108
30
0
0
VERTEX
8
ARKA_MITRE
10
350.613408
20
199.308727
30
0
0
SEQEND
8
ARKA_MITRE
0
POINT
8
ARKA_CENTRE
10
294.5
20
294.5
30
0
0
POINT
8
ARKA_CENTRE
10
294.5
20
294.5
30
0
0
POLYLINE
8
ARKA_SECTION
66
1
70
0
10
0
20
0
30
0
0
VERTEX
8
ARKA_SECTION
10
694.5
20
-5.5
30
0
42
-0.414214
0
VERTEX
8
ARKA_SECTION
10
702.5
20
2.5
30
0
0
VERTEX
8
ARKA_SECTION
10
702.5
20
8.5
30
0
0
SEQEND
8
ARKA_SECTION
0
TEXT
8
ARKA_INFO_NO_CUT
10
690.5
20
-24.5
30
0
40
15
1
START
72
0
11
690.5
21
-24.5
31
0
73
0
0
TEXT
8
ARKA_INFO_NO_CUT
10
714.5
20
-1.5
30
0
40
15
1
SECTION R8 + 6 (VERBATIM)
72
0
11
714.5
21
-1.5
31
0
73
0
0
TEXT
8
ARKA_INFO_NO_CUT
10
694.5
20
572.5
30
0
40
15
1
CIR - TRACERY FULL
72
0
11
694.5
21
572.5
31
0
73
0
0
TEXT
8
ARKA_INFO_NO_CUT
10
694.5
20
550.5
30
0
40
15
1
PATTERN SUNBURST SPOKES 6 RINGS 2 PANES 7
72
0
11
694.5
21
550.5
31
0
73
0
0
TEXT
8
ARKA_INFO_NO_CUT
10
694.5
20
528.5
30
0
40
15
1
TIMBER BAR 22 EDGE MARGIN 18 PANE +2 LIMIT +10 MITRE LEG 15
72
0
11
694.5
21
528.5
31
0
73
0
0
TEXT
8
ARKA_INFO_NO_CUT
10
694.5
20
506.5
30
0
40
15
1
ARKA_PANE = MOULDING RAIL (INNER EDGE OF THE BEAD), ARKA_FRONT_HINGES_3MM = BEAD LIMIT (NOT DRILLING)
72
0
11
694.5
21
506.5
31
0
73
0
0
TEXT
8
ARKA_INFO_NO_CUT
10
694.5
20
484.5
30
0
40
15
1
NOT A TOOLPATH
72
0
11
694.5
21
484.5
31
0
73
0
0
ENDSEC
0
EOF
