0
SECTION
2
HEADER
9
$ACADVER
1
AC1009
0
ENDSEC
0
SECTION
2
TABLES
0
TABLE
2
LAYER
70
7
0
LAYER
2
0
70
0
62
7
6
CONTINUOUS
0
LAYER
2
FIT
70
0
62
4
6
CONTINUOUS
0
LAYER
2
CONTOUR
70
0
62
7
6
CONTINUOUS
0
LAYER
2
ASSEMBLY
70
0
62
8
6
CONTINUOUS
0
LAYER
2
PIECES
70
0
62
5
6
CONTINUOUS
0
LAYER
2
FINGER
70
0
62
1
6
CONTINUOUS
0
LAYER
2
TEXT
70
0
62
94
6
CONTINUOUS
0
ENDTAB
0
ENDSEC
0
SECTION
2
ENTITIES
0
POLYLINE
8
ASSEMBLY
66
1
70
1
10
0
20
0
30
0
0
VERTEX
8
ASSEMBLY
10
0
20
0
30
0
0
VERTEX
8
ASSEMBLY
10
86.066694
20
0
30
0
0
VERTEX
8
ASSEMBLY
10
86.066694
20
95
30
0
0
VERTEX
8
ASSEMBLY
10
0
20
95
30
0
0
SEQEND
8
ASSEMBLY
0
POLYLINE
8
PIECES
66
1
70
1
10
0
20
0
30
0
0
VERTEX
8
PIECES
10
84.030399
20
73.574808
30
0
42
0.102893
0
VERTEX
8
PIECES
10
17.036295
20
73.574808
30
0
0
VERTEX
8
PIECES
10
28.643176
20
17.769071
30
0
42
-0.102893
0
VERTEX
8
PIECES
10
72.423518
20
17.769071
30
0
0
SEQEND
8
PIECES
0
POLYLINE
8
FINGER
66
1
70
0
10
0
20
0
30
0
0
VERTEX
8
FINGER
10
28.643176
20
17.769071
30
0
0
VERTEX
8
FINGER
10
17.036295
20
73.574808
30
0
0
SEQEND
8
FINGER
0
POLYLINE
8
FINGER
66
1
70
0
10
0
20
0
30
0
0
VERTEX
8
FINGER
10
16
20
0
30
0
0
VERTEX
8
FINGER
10
16
20
95
30
0
0
SEQEND
8
FINGER
0
TEXT
8
TEXT
10
43.033347
20
57.5
30
0
40
15
1
ST - S-ARCH TOP RAIL P1 L86.1 x95
72
1
11
43.033347
21
57.5
31
0
73
2
0
TEXT
8
TEXT
10
43.033347
20
10
30
0
40
10
1
OUT 71.1 IN 39.7 CUT J11.7/S78.3 FINGER ONE END
72
1
11
43.033347
21
10
31
0
73
2
0
POLYLINE
8
ASSEMBLY
66
1
70
1
10
0
20
0
30
0
0
VERTEX
8
ASSEMBLY
10
286.066694
20
0
30
0
0
VERTEX
8
ASSEMBLY
10
387.133389
20
0
30
0
0
VERTEX
8
ASSEMBLY
10
387.133389
20
95
30
0
0
VERTEX
8
ASSEMBLY
10
286.066694
20
95
30
0
0
SEQEND
8
ASSEMBLY
0
POLYLINE
8
PIECES
66
1
70
1
10
0
20
0
30
0
0
VERTEX
8
PIECES
10
370.097094
20
73.574808
30
0
42
0.102893
0
VERTEX
8
PIECES
10
303.102989
20
73.574808
30
0
0
VERTEX
8
PIECES
10
314.709871
20
17.769071
30
0
42
-0.102893
0
VERTEX
8
PIECES
10
358.490212
20
17.769071
30
0
0
SEQEND
8
PIECES
0
POLYLINE
8
FINGER
66
1
70
0
10
0
20
0
30
0
0
VERTEX
8
FINGER
10
358.490212
20
17.769071
30
0
0
VERTEX
8
FINGER
10
370.097094
20
73.574808
30
0
0
SEQEND
8
FINGER
0
POLYLINE
8
FINGER
66
1
70
0
10
0
20
0
30
0
0
VERTEX
8
FINGER
10
314.709871
20
17.769071
30
0
0
VERTEX
8
FINGER
10
303.102989
20
73.574808
30
0
0
SEQEND
8
FINGER
0
POLYLINE
8
FINGER
66
1
70
0
10
0
20
0
30
0
0
VERTEX
8
FINGER
10
302.066694
20
0
30
0
0
VERTEX
8
FINGER
10
302.066694
20
95
30
0
0
SEQEND
8
FINGER
0
POLYLINE
8
FINGER
66
1
70
0
10
0
20
0
30
0
0
VERTEX
8
FINGER
10
371.133389
20
0
30
0
0
VERTEX
8
FINGER
10
371.133389
20
95
30
0
0
SEQEND
8
FINGER
0
TEXT
8
TEXT
10
336.600041
20
57.5
30
0
40
15
1
ST - S-ARCH TOP RAIL P2 L101.1 x95
72
1
11
336.600041
21
57.5
31
0
73
2
0
TEXT
8
TEXT
10
336.600041
20
10
30
0
40
10
1
OUT 71.1 IN 39.7 CUT J11.7/J11.7 FINGER BOTH ENDS
72
1
11
336.600041
21
10
31
0
73
2
0
POLYLINE
8
ASSEMBLY
66
1
70
1
10
0
20
0
30
0
0
VERTEX
8
ASSEMBLY
10
587.133389
20
0
30
0
0
VERTEX
8
ASSEMBLY
10
871.769832
20
0
30
0
0
VERTEX
8
ASSEMBLY
10
871.769832
20
95
30
0
0
VERTEX
8
ASSEMBLY
10
587.133389
20
95
30
0
0
SEQEND
8
ASSEMBLY
0
POLYLINE
8
PIECES
66
1
70
1
10
0
20
0
30
0
0
VERTEX
8
PIECES
10
854.904469
20
69.509834
30
0
42
0.094094
0
VERTEX
8
PIECES
10
603.998752
20
69.509834
30
0
0
VERTEX
8
PIECES
10
614.631323
20
13.510294
30
0
42
-0.094094
0
VERTEX
8
PIECES
10
844.271898
20
13.510294
30
0
0
SEQEND
8
PIECES
0
POLYLINE
8
FINGER
66
1
70
0
10
0
20
0
30
0
0
VERTEX
8
FINGER
10
844.271898
20
13.510294
30
0
0
VERTEX
8
FINGER
10
854.904469
20
69.509834
30
0
0
SEQEND
8
FINGER
0
POLYLINE
8
FINGER
66
1
70
0
10
0
20
0
30
0
0
VERTEX
8
FINGER
10
614.631323
20
13.510294
30
0
0
VERTEX
8
FINGER
10
603.998752
20
69.509834
30
0
0
SEQEND
8
FINGER
0
POLYLINE
8
FINGER
66
1
70
0
10
0
20
0
30
0
0
VERTEX
8
FINGER
10
603.133389
20
0
30
0
0
VERTEX
8
FINGER
10
603.133389
20
95
30
0
0
SEQEND
8
FINGER
0
POLYLINE
8
FINGER
66
1
70
0
10
0
20
0
30
0
0
VERTEX
8
FINGER
10
855.769832
20
0
30
0
0
VERTEX
8
FINGER
10
855.769832
20
95
30
0
0
SEQEND
8
FINGER
0
TEXT
8
TEXT
10
729.45161
20
57.5
30
0
40
15
1
ST - S-ARCH TOP RAIL P3 L284.6 x95
72
1
11
729.45161
21
57.5
31
0
73
2
0
TEXT
8
TEXT
10
729.45161
20
10
30
0
40
10
1
OUT 254.6 IN 225.9 CUT J10.8/J10.8 FINGER BOTH ENDS
72
1
11
729.45161
21
10
31
0
73
2
0
POLYLINE
8
ASSEMBLY
66
1
70
1
10
0
20
0
30
0
0
VERTEX
8
ASSEMBLY
10
1071.769832
20
0
30
0
0
VERTEX
8
ASSEMBLY
10
1356.406276
20
0
30
0
0
VERTEX
8
ASSEMBLY
10
1356.406276
20
95
30
0
0
VERTEX
8
ASSEMBLY
10
1071.769832
20
95
30
0
0
SEQEND
8
ASSEMBLY
0
POLYLINE
8
PIECES
66
1
70
1
10
0
20
0
30
0
0
VERTEX
8
PIECES
10
1339.540913
20
69.509834
30
0
42
0.094094
0
VERTEX
8
PIECES
10
1088.635196
20
69.509834
30
0
0
VERTEX
8
PIECES
10
1099.267767
20
13.510294
30
0
42
-0.094094
0
VERTEX
8
PIECES
10
1328.908342
20
13.510294
30
0
0
SEQEND
8
PIECES
0
POLYLINE
8
FINGER
66
1
70
0
10
0
20
0
30
0
0
VERTEX
8
FINGER
10
1328.908342
20
13.510294
30
0
0
VERTEX
8
FINGER
10
1339.540913
20
69.509834
30
0
0
SEQEND
8
FINGER
0
POLYLINE
8
FINGER
66
1
70
0
10
0
20
0
30
0
0
VERTEX
8
FINGER
10
1099.267767
20
13.510294
30
0
0
VERTEX
8
FINGER
10
1088.635196
20
69.509834
30
0
0
SEQEND
8
FINGER
0
POLYLINE
8
FINGER
66
1
70
0
10
0
20
0
30
0
0
VERTEX
8
FINGER
10
1087.769832
20
0
30
0
0
VERTEX
8
FINGER
10
1087.769832
20
95
30
0
0
SEQEND
8
FINGER
0
POLYLINE
8
FINGER
66
1
70
0
10
0
20
0
30
0
0
VERTEX
8
FINGER
10
1340.406276
20
0
30
0
0
VERTEX
8
FINGER
10
1340.406276
20
95
30
0
0
SEQEND
8
FINGER
0
TEXT
8
TEXT
10
1214.088054
20
57.5
30
0
40
15
1
ST - S-ARCH TOP RAIL P4 L284.6 x95
72
1
11
1214.088054
21
57.5
31
0
73
2
0
TEXT
8
TEXT
10
1214.088054
20
10
30
0
40
10
1
OUT 254.6 IN 225.9 CUT J10.8/J10.8 FINGER BOTH ENDS
72
1
11
1214.088054
21
10
31
0
73
2
0
POLYLINE
8
ASSEMBLY
66
1
70
1
10
0
20
0
30
0
0
VERTEX
8
ASSEMBLY
10
1556.406276
20
0
30
0
0
VERTEX
8
ASSEMBLY
10
1841.04272
20
0
30
0
0
VERTEX
8
ASSEMBLY
10
1841.04272
20
95
30
0
0
VERTEX
8
ASSEMBLY
10
1556.406276
20
95
30
0
0
SEQEND
8
ASSEMBLY
0
POLYLINE
8
PIECES
66
1
70
1
10
0
20
0
30
0
0
VERTEX
8
PIECES
10
1824.177356
20
69.509834
30
0
42
0.094094
0
VERTEX
8
PIECES
10
1573.271639
20
69.509834
30
0
0
VERTEX
8
PIECES
10
1583.90421
20
13.510294
30
0
42
-0.094094
0
VERTEX
8
PIECES
10
1813.544785
20
13.510294
30
0
0
SEQEND
8
PIECES
0
POLYLINE
8
FINGER
66
1
70
0
10
0
20
0
30
0
0
VERTEX
8
FINGER
10
1813.544785
20
13.510294
30
0
0
VERTEX
8
FINGER
10
1824.177356
20
69.509834
30
0
0
SEQEND
8
FINGER
0
POLYLINE
8
FINGER
66
1
70
0
10
0
20
0
30
0
0
VERTEX
8
FINGER
10
1583.90421
20
13.510294
30
0
0
VERTEX
8
FINGER
10
1573.271639
20
69.509834
30
0
0
SEQEND
8
FINGER
0
POLYLINE
8
FINGER
66
1
70
0
10
0
20
0
30
0
0
VERTEX
8
FINGER
10
1572.406276
20
0
30
0
0
VERTEX
8
FINGER
10
1572.406276
20
95
30
0
0
SEQEND
8
FINGER
0
POLYLINE
8
FINGER
66
1
70
0
10
0
20
0
30
0
0
VERTEX
8
FINGER
10
1825.04272
20
0
30
0
0
VERTEX
8
FINGER
10
1825.04272
20
95
30
0
0
SEQEND
8
FINGER
0
TEXT
8
TEXT
10
1698.724498
20
57.5
30
0
40
15
1
ST - S-ARCH TOP RAIL P5 L284.6 x95
72
1
11
1698.724498
21
57.5
31
0
73
2
0
TEXT
8
TEXT
10
1698.724498
20
10
30
0
40
10
1
OUT 254.6 IN 225.9 CUT J10.8/J10.8 FINGER BOTH ENDS
72
1
11
1698.724498
21
10
31
0
73
2
0
POLYLINE
8
ASSEMBLY
66
1
70
1
10
0
20
0
30
0
0
VERTEX
8
ASSEMBLY
10
2041.04272
20
0
30
0
0
VERTEX
8
ASSEMBLY
10
2325.679163
20
0
30
0
0
VERTEX
8
ASSEMBLY
10
2325.679163
20
95
30
0
0
VERTEX
8
ASSEMBLY
10
2041.04272
20
95
30
0
0
SEQEND
8
ASSEMBLY
0
POLYLINE
8
PIECES
66
1
70
1
10
0
20
0
30
0
0
VERTEX
8
PIECES
10
2308.8138
20
69.509834
30
0
42
0.094094
0
VERTEX
8
PIECES
10
2057.908083
20
69.509834
30
0
0
VERTEX
8
PIECES
10
2068.540654
20
13.510294
30
0
42
-0.094094
0
VERTEX
8
PIECES
10
2298.181229
20
13.510294
30
0
0
SEQEND
8
PIECES
0
POLYLINE
8
FINGER
66
1
70
0
10
0
20
0
30
0
0
VERTEX
8
FINGER
10
2298.181229
20
13.510294
30
0
0
VERTEX
8
FINGER
10
2308.8138
20
69.509834
30
0
0
SEQEND
8
FINGER
0
POLYLINE
8
FINGER
66
1
70
0
10
0
20
0
30
0
0
VERTEX
8
FINGER
10
2068.540654
20
13.510294
30
0
0
VERTEX
8
FINGER
10
2057.908083
20
69.509834
30
0
0
SEQEND
8
FINGER
0
POLYLINE
8
FINGER
66
1
70
0
10
0
20
0
30
0
0
VERTEX
8
FINGER
10
2057.04272
20
0
30
0
0
VERTEX
8
FINGER
10
2057.04272
20
95
30
0
0
SEQEND
8
FINGER
0
POLYLINE
8
FINGER
66
1
70
0
10
0
20
0
30
0
0
VERTEX
8
FINGER
10
2309.679163
20
0
30
0
0
VERTEX
8
FINGER
10
2309.679163
20
95
30
0
0
SEQEND
8
FINGER
0
TEXT
8
TEXT
10
2183.360942
20
57.5
30
0
40
15
1
ST - S-ARCH TOP RAIL P6 L284.6 x95
72
1
11
2183.360942
21
57.5
31
0
73
2
0
TEXT
8
TEXT
10
2183.360942
20
10
30
0
40
10
1
OUT 254.6 IN 225.9 CUT J10.8/J10.8 FINGER BOTH ENDS
72
1
11
2183.360942
21
10
31
0
73
2
0
POLYLINE
8
ASSEMBLY
66
1
70
1
10
0
20
0
30
0
0
VERTEX
8
ASSEMBLY
10
2525.679163
20
0
30
0
0
VERTEX
8
ASSEMBLY
10
2626.745858
20
0
30
0
0
VERTEX
8
ASSEMBLY
10
2626.745858
20
95
30
0
0
VERTEX
8
ASSEMBLY
10
2525.679163
20
95
30
0
0
SEQEND
8
ASSEMBLY
0
POLYLINE
8
PIECES
66
1
70
1
10
0
20
0
30
0
0
VERTEX
8
PIECES
10
2609.709563
20
73.574808
30
0
42
0.102893
0
VERTEX
8
PIECES
10
2542.715458
20
73.574808
30
0
0
VERTEX
8
PIECES
10
2554.32234
20
17.769071
30
0
42
-0.102893
0
VERTEX
8
PIECES
10
2598.102682
20
17.769071
30
0
0
SEQEND
8
PIECES
0
POLYLINE
8
FINGER
66
1
70
0
10
0
20
0
30
0
0
VERTEX
8
FINGER
10
2598.102682
20
17.769071
30
0
0
VERTEX
8
FINGER
10
2609.709563
20
73.574808
30
0
0
SEQEND
8
FINGER
0
POLYLINE
8
FINGER
66
1
70
0
10
0
20
0
30
0
0
VERTEX
8
FINGER
10
2554.32234
20
17.769071
30
0
0
VERTEX
8
FINGER
10
2542.715458
20
73.574808
30
0
0
SEQEND
8
FINGER
0
POLYLINE
8
FINGER
66
1
70
0
10
0
20
0
30
0
0
VERTEX
8
FINGER
10
2541.679163
20
0
30
0
0
VERTEX
8
FINGER
10
2541.679163
20
95
30
0
0
SEQEND
8
FINGER
0
POLYLINE
8
FINGER
66
1
70
0
10
0
20
0
30
0
0
VERTEX
8
FINGER
10
2610.745858
20
0
30
0
0
VERTEX
8
FINGER
10
2610.745858
20
95
30
0
0
SEQEND
8
FINGER
0
TEXT
8
TEXT
10
2576.212511
20
57.5
30
0
40
15
1
ST - S-ARCH TOP RAIL P7 L101.1 x95
72
1
11
2576.212511
21
57.5
31
0
73
2
0
TEXT
8
TEXT
10
2576.212511
20
10
30
0
40
10
1
OUT 71.1 IN 39.7 CUT J11.7/J11.7 FINGER BOTH ENDS
72
1
11
2576.212511
21
10
31
0
73
2
0
POLYLINE
8
ASSEMBLY
66
1
70
1
10
0
20
0
30
0
0
VERTEX
8
ASSEMBLY
10
2826.745858
20
0
30
0
0
VERTEX
8
ASSEMBLY
10
2912.812552
20
0
30
0
0
VERTEX
8
ASSEMBLY
10
2912.812552
20
95
30
0
0
VERTEX
8
ASSEMBLY
10
2826.745858
20
95
30
0
0
SEQEND
8
ASSEMBLY
0
POLYLINE
8
PIECES
66
1
70
1
10
0
20
0
30
0
0
VERTEX
8
PIECES
10
2895.776257
20
73.574808
30
0
42
0.102893
0
VERTEX
8
PIECES
10
2828.782153
20
73.574808
30
0
0
VERTEX
8
PIECES
10
2840.389034
20
17.769071
30
0
42
-0.102893
0
VERTEX
8
PIECES
10
2884.169376
20
17.769071
30
0
0
SEQEND
8
PIECES
0
POLYLINE
8
FINGER
66
1
70
0
10
0
20
0
30
0
0
VERTEX
8
FINGER
10
2884.169376
20
17.769071
30
0
0
VERTEX
8
FINGER
10
2895.776257
20
73.574808
30
0
0
SEQEND
8
FINGER
0
POLYLINE
8
FINGER
66
1
70
0
10
0
20
0
30
0
0
VERTEX
8
FINGER
10
2896.812552
20
0
30
0
0
VERTEX
8
FINGER
10
2896.812552
20
95
30
0
0
SEQEND
8
FINGER
0
TEXT
8
TEXT
10
2869.779205
20
57.5
30
0
40
15
1
ST - S-ARCH TOP RAIL P8 L86.1 x95
72
1
11
2869.779205
21
57.5
31
0
73
2
0
TEXT
8
TEXT
10
2869.779205
20
10
30
0
40
10
1
OUT 71.1 IN 39.7 CUT S78.3/J11.7 FINGER ONE END
72
1
11
2869.779205
21
10
31
0
73
2
0
POLYLINE
8
CONTOUR
66
1
70
1
10
0
20
0
30
0
0
VERTEX
8
CONTOUR
10
1043.390941
20
311.975632
30
0
42
0.207987
0
VERTEX
8
CONTOUR
10
991.085695
20
432.277699
30
0
42
0.393939
0
VERTEX
8
CONTOUR
10
73.696188
20
432.277699
30
0
42
0.207987
0
VERTEX
8
CONTOUR
10
21.390941
20
311.975632
30
0
0
VERTEX
8
CONTOUR
10
78.390941
20
311.975632
30
0
42
-0.207987
0
VERTEX
8
CONTOUR
10
112.572181
20
390.592484
30
0
42
-0.393939
0
VERTEX
8
CONTOUR
10
952.209701
20
390.592484
30
0
42
-0.207987
0
VERTEX
8
CONTOUR
10
986.390941
20
311.975632
30
0
0
SEQEND
8
CONTOUR
0
POLYLINE
8
ASSEMBLY
66
1
70
1
10
0
20
0
30
0
0
VERTEX
8
ASSEMBLY
10
971.77232
20
295
30
0
0
VERTEX
8
ASSEMBLY
10
957.301045
20
364.577706
30
0
0
VERTEX
8
ASSEMBLY
10
1050.310607
20
383.922509
30
0
0
VERTEX
8
ASSEMBLY
10
1064.781882
20
314.344802
30
0
0
SEQEND
8
ASSEMBLY
0
POLYLINE
8
FINGER
66
1
70
0
10
0
20
0
30
0
0
VERTEX
8
FINGER
10
977.475972
20
354.838689
30
0
0
VERTEX
8
FINGER
10
1029.748965
20
377.566077
30
0
0
SEQEND
8
FINGER
0
POLYLINE
8
ASSEMBLY
66
1
70
1
10
0
20
0
30
0
0
VERTEX
8
ASSEMBLY
10
970.8383
20
333.442019
30
0
0
VERTEX
8
ASSEMBLY
10
929.824679
20
391.479575
30
0
0
VERTEX
8
ASSEMBLY
10
1007.407685
20
446.305455
30
0
0
VERTEX
8
ASSEMBLY
10
1048.421307
20
388.267899
30
0
0
SEQEND
8
ASSEMBLY
0
POLYLINE
8
FINGER
66
1
70
0
10
0
20
0
30
0
0
VERTEX
8
FINGER
10
952.209701
20
390.592484
30
0
0
VERTEX
8
FINGER
10
991.085695
20
432.277699
30
0
0
SEQEND
8
FINGER
0
POLYLINE
8
ASSEMBLY
66
1
70
1
10
0
20
0
30
0
0
VERTEX
8
ASSEMBLY
10
955.569583
20
372.497247
30
0
0
VERTEX
8
ASSEMBLY
10
740.221561
20
508.383036
30
0
0
VERTEX
8
ASSEMBLY
10
790.917957
20
588.725276
30
0
0
VERTEX
8
ASSEMBLY
10
1006.265979
20
452.839486
30
0
0
SEQEND
8
ASSEMBLY
0
POLYLINE
8
FINGER
66
1
70
0
10
0
20
0
30
0
0
VERTEX
8
FINGER
10
758.000879
20
513.139321
30
0
0
VERTEX
8
FINGER
10
778.892777
20
566.172599
30
0
0
SEQEND
8
FINGER
0
POLYLINE
8
ASSEMBLY
66
1
70
1
10
0
20
0
30
0
0
VERTEX
8
ASSEMBLY
10
767.75929
20
497.53484
30
0
0
VERTEX
8
ASSEMBLY
10
517.592209
20
545.033788
30
0
0
VERTEX
8
ASSEMBLY
10
535.313161
20
638.366354
30
0
0
VERTEX
8
ASSEMBLY
10
785.480242
20
590.867406
30
0
0
SEQEND
8
ASSEMBLY
0
POLYLINE
8
FINGER
66
1
70
0
10
0
20
0
30
0
0
VERTEX
8
FINGER
10
532.390941
20
555.975632
30
0
0
VERTEX
8
FINGER
10
532.390941
20
612.975632
30
0
0
SEQEND
8
FINGER
0
POLYLINE
8
ASSEMBLY
66
1
70
1
10
0
20
0
30
0
0
VERTEX
8
ASSEMBLY
10
547.189673
20
545.033788
30
0
0
VERTEX
8
ASSEMBLY
10
297.022592
20
497.53484
30
0
0
VERTEX
8
ASSEMBLY
10
279.301641
20
590.867406
30
0
0
VERTEX
8
ASSEMBLY
10
529.468722
20
638.366354
30
0
0
SEQEND
8
ASSEMBLY
0
POLYLINE
8
FINGER
66
1
70
0
10
0
20
0
30
0
0
VERTEX
8
FINGER
10
306.781003
20
513.139321
30
0
0
VERTEX
8
FINGER
10
285.889105
20
566.172599
30
0
0
SEQEND
8
FINGER
0
POLYLINE
8
ASSEMBLY
66
1
70
1
10
0
20
0
30
0
0
VERTEX
8
ASSEMBLY
10
324.560321
20
508.383036
30
0
0
VERTEX
8
ASSEMBLY
10
109.212299
20
372.497247
30
0
0
VERTEX
8
ASSEMBLY
10
58.515903
20
452.839486
30
0
0
VERTEX
8
ASSEMBLY
10
273.863925
20
588.725276
30
0
0
SEQEND
8
ASSEMBLY
0
POLYLINE
8
FINGER
66
1
70
0
10
0
20
0
30
0
0
VERTEX
8
FINGER
10
112.572181
20
390.592484
30
0
0
VERTEX
8
FINGER
10
73.696188
20
432.277699
30
0
0
SEQEND
8
FINGER
0
POLYLINE
8
ASSEMBLY
66
1
70
1
10
0
20
0
30
0
0
VERTEX
8
ASSEMBLY
10
134.957203
20
391.479575
30
0
0
VERTEX
8
ASSEMBLY
10
93.943582
20
333.442019
30
0
0
VERTEX
8
ASSEMBLY
10
16.360575
20
388.267899
30
0
0
VERTEX
8
ASSEMBLY
10
57.374197
20
446.305455
30
0
0
SEQEND
8
ASSEMBLY
0
POLYLINE
8
FINGER
66
1
70
0
10
0
20
0
30
0
0
VERTEX
8
FINGER
10
87.30591
20
354.838689
30
0
0
VERTEX
8
FINGER
10
35.032917
20
377.566077
30
0
0
SEQEND
8
FINGER
0
POLYLINE
8
ASSEMBLY
66
1
70
1
10
0
20
0
30
0
0
VERTEX
8
ASSEMBLY
10
107.480837
20
364.577706
30
0
0
VERTEX
8
ASSEMBLY
10
93.009562
20
295
30
0
0
VERTEX
8
ASSEMBLY
10
0
20
314.344802
30
0
0
VERTEX
8
ASSEMBLY
10
14.471275
20
383.922509
30
0
0
SEQEND
8
ASSEMBLY
0
TEXT
8
TEXT
10
1164.781882
20
619.866354
30
0
40
15
1
ST - S-ARCH TOP RAIL
72
0
11
1164.781882
21
619.866354
31
0
73
0
0
TEXT
8
TEXT
10
1164.781882
20
597.866354
30
0
40
15
1
THREE-CENTRE W1200 RISE390 H2400 SASH
72
0
11
1164.781882
21
597.866354
31
0
73
0
0
TEXT
8
TEXT
10
1164.781882
20
575.866354
30
0
40
15
1
FACE 57 OFFSET 89 OUTER L1279.4 INNER L1100.3
72
0
11
1164.781882
21
575.866354
31
0
73
0
0
TEXT
8
TEXT
10
1164.781882
20
553.866354
30
0
40
15
1
ARC 1 R164.5 L134.9 47DEG: 2 x board 95 L71.1 ROUGH 101.1
72
0
11
1164.781882
21
553.866354
31
0
73
0
0
TEXT
8
TEXT
10
1164.781882
20
531.866354
30
0
40
15
1
ARC 2 R672.5 L1009.5 86DEG: 4 x board 95 L254.6 ROUGH 284.6 (ALT 3 x board 105)
72
0
11
1164.781882
21
531.866354
31
0
73
0
0
TEXT
8
TEXT
10
1164.781882
20
509.866354
30
0
40
15
1
ARC 3 R164.5 L134.9 47DEG: 2 x board 95 L71.1 ROUGH 101.1
72
0
11
1164.781882
21
509.866354
31
0
73
0
0
TEXT
8
TEXT
10
1164.781882
20
487.866354
30
0
40
15
1
FINGER 15/16/3.8
72
0
11
1164.781882
21
487.866354
31
0
73
0
0
TEXT
8
TEXT
10
1164.781882
20
465.866354
30
0
40
15
1
ALLOWANCE 10 PER SIDE  MAX SEGMENT 36 DEG  RULE NARROWEST
72
0
11
1164.781882
21
465.866354
31
0
73
0
0
TEXT
8
TEXT
10
1164.781882
20
443.866354
30
0
40
15
1
CUT CODES: J = JOINT FROM SQUARE  S = ARCH-START, AXIS TO HORIZONTAL  A = APEX FROM SQUARE
72
0
11
1164.781882
21
443.866354
31
0
73
0
0
POLYLINE
8
ASSEMBLY
66
1
70
1
10
0
20
0
30
0
0
VERTEX
8
ASSEMBLY
10
0
20
838.366354
30
0
0
VERTEX
8
ASSEMBLY
10
122.312745
20
838.366354
30
0
0
VERTEX
8
ASSEMBLY
10
122.312745
20
943.366354
30
0
0
VERTEX
8
ASSEMBLY
10
0
20
943.366354
30
0
0
SEQEND
8
ASSEMBLY
0
POLYLINE
8
PIECES
66
1
70
1
10
0
20
0
30
0
0
VERTEX
8
PIECES
10
120.27645
20
927.267852
30
0
42
0.102893
0
VERTEX
8
PIECES
10
17.036295
20
927.267852
30
0
0
VERTEX
8
PIECES
10
33.326655
20
848.94401
30
0
42
-0.102893
0
VERTEX
8
PIECES
10
103.98609
20
848.94401
30
0
0
SEQEND
8
PIECES
0
POLYLINE
8
FINGER
66
1
70
0
10
0
20
0
30
0
0
VERTEX
8
FINGER
10
33.326655
20
848.94401
30
0
0
VERTEX
8
FINGER
10
17.036295
20
927.267852
30
0
0
SEQEND
8
FINGER
0
POLYLINE
8
FINGER
66
1
70
0
10
0
20
0
30
0
0
VERTEX
8
FINGER
10
16
20
838.366354
30
0
0
VERTEX
8
FINGER
10
16
20
943.366354
30
0
0
SEQEND
8
FINGER
0
TEXT
8
TEXT
10
61.156372
20
900.866354
30
0
40
15
1
ST - S-ARCH HEAD P1 L122.3 x105
72
1
11
61.156372
21
900.866354
31
0
73
2
0
TEXT
8
TEXT
10
61.156372
20
848.366354
30
0
40
10
1
OUT 107.3 IN 66.6 CUT J11.7/S78.3 FINGER ONE END
72
1
11
61.156372
21
848.366354
31
0
73
2
0
POLYLINE
8
ASSEMBLY
66
1
70
1
10
0
20
0
30
0
0
VERTEX
8
ASSEMBLY
10
322.312745
20
838.366354
30
0
0
VERTEX
8
ASSEMBLY
10
459.625489
20
838.366354
30
0
0
VERTEX
8
ASSEMBLY
10
459.625489
20
943.366354
30
0
0
VERTEX
8
ASSEMBLY
10
322.312745
20
943.366354
30
0
0
SEQEND
8
ASSEMBLY
0
POLYLINE
8
PIECES
66
1
70
1
10
0
20
0
30
0
0
VERTEX
8
PIECES
10
442.589194
20
927.267852
30
0
42
0.102893
0
VERTEX
8
PIECES
10
339.34904
20
927.267852
30
0
0
VERTEX
8
PIECES
10
355.639399
20
848.94401
30
0
42
-0.102893
0
VERTEX
8
PIECES
10
426.298835
20
848.94401
30
0
0
SEQEND
8
PIECES
0
POLYLINE
8
FINGER
66
1
70
0
10
0
20
0
30
0
0
VERTEX
8
FINGER
10
426.298835
20
848.94401
30
0
0
VERTEX
8
FINGER
10
442.589194
20
927.267852
30
0
0
SEQEND
8
FINGER
0
POLYLINE
8
FINGER
66
1
70
0
10
0
20
0
30
0
0
VERTEX
8
FINGER
10
355.639399
20
848.94401
30
0
0
VERTEX
8
FINGER
10
339.34904
20
927.267852
30
0
0
SEQEND
8
FINGER
0
POLYLINE
8
FINGER
66
1
70
0
10
0
20
0
30
0
0
VERTEX
8
FINGER
10
338.312745
20
838.366354
30
0
0
VERTEX
8
FINGER
10
338.312745
20
943.366354
30
0
0
SEQEND
8
FINGER
0
POLYLINE
8
FINGER
66
1
70
0
10
0
20
0
30
0
0
VERTEX
8
FINGER
10
443.625489
20
838.366354
30
0
0
VERTEX
8
FINGER
10
443.625489
20
943.366354
30
0
0
SEQEND
8
FINGER
0
TEXT
8
TEXT
10
390.969117
20
900.866354
30
0
40
15
1
ST - S-ARCH HEAD P2 L137.3 x105
72
1
11
390.969117
21
900.866354
31
0
73
2
0
TEXT
8
TEXT
10
390.969117
20
848.366354
30
0
40
10
1
OUT 107.3 IN 66.6 CUT J11.7/J11.7 FINGER BOTH ENDS
72
1
11
390.969117
21
848.366354
31
0
73
2
0
POLYLINE
8
ASSEMBLY
66
1
70
1
10
0
20
0
30
0
0
VERTEX
8
ASSEMBLY
10
659.625489
20
838.366354
30
0
0
VERTEX
8
ASSEMBLY
10
1071.658763
20
838.366354
30
0
0
VERTEX
8
ASSEMBLY
10
1071.658763
20
1018.366354
30
0
0
VERTEX
8
ASSEMBLY
10
659.625489
20
1018.366354
30
0
0
SEQEND
8
ASSEMBLY
0
POLYLINE
8
PIECES
66
1
70
1
10
0
20
0
30
0
0
VERTEX
8
PIECES
10
1054.182974
20
955.111195
30
0
42
0.125747
0
VERTEX
8
PIECES
10
677.101278
20
955.111195
30
0
0
VERTEX
8
PIECES
10
696.90759
20
877.601776
30
0
42
-0.125747
0
VERTEX
8
PIECES
10
1034.376663
20
877.601776
30
0
0
SEQEND
8
PIECES
0
POLYLINE
8
FINGER
66
1
70
0
10
0
20
0
30
0
0
VERTEX
8
FINGER
10
1034.376663
20
877.601776
30
0
0
VERTEX
8
FINGER
10
1054.182974
20
955.111195
30
0
0
SEQEND
8
FINGER
0
POLYLINE
8
FINGER
66
1
70
0
10
0
20
0
30
0
0
VERTEX
8
FINGER
10
696.90759
20
877.601776
30
0
0
VERTEX
8
FINGER
10
677.101278
20
955.111195
30
0
0
SEQEND
8
FINGER
0
POLYLINE
8
FINGER
66
1
70
0
10
0
20
0
30
0
0
VERTEX
8
FINGER
10
675.625489
20
838.366354
30
0
0
VERTEX
8
FINGER
10
675.625489
20
1018.366354
30
0
0
SEQEND
8
FINGER
0
POLYLINE
8
FINGER
66
1
70
0
10
0
20
0
30
0
0
VERTEX
8
FINGER
10
1055.658763
20
838.366354
30
0
0
VERTEX
8
FINGER
10
1055.658763
20
1018.366354
30
0
0
SEQEND
8
FINGER
0
TEXT
8
TEXT
10
865.642126
20
938.366354
30
0
40
15
1
ST - S-ARCH HEAD P3 L412 x180
72
1
11
865.642126
21
938.366354
31
0
73
2
0
TEXT
8
TEXT
10
865.642126
20
848.366354
30
0
40
10
1
OUT 382 IN 332.5 CUT J14.3/J14.3 FINGER BOTH ENDS
72
1
11
865.642126
21
848.366354
31
0
73
2
0
POLYLINE
8
ASSEMBLY
66
1
70
1
10
0
20
0
30
0
0
VERTEX
8
ASSEMBLY
10
1271.658763
20
838.366354
30
0
0
VERTEX
8
ASSEMBLY
10
1683.692036
20
838.366354
30
0
0
VERTEX
8
ASSEMBLY
10
1683.692036
20
1018.366354
30
0
0
VERTEX
8
ASSEMBLY
10
1271.658763
20
1018.366354
30
0
0
SEQEND
8
ASSEMBLY
0
POLYLINE
8
PIECES
66
1
70
1
10
0
20
0
30
0
0
VERTEX
8
PIECES
10
1666.216247
20
955.111195
30
0
42
0.125747
0
VERTEX
8
PIECES
10
1289.134552
20
955.111195
30
0
0
VERTEX
8
PIECES
10
1308.940863
20
877.601776
30
0
42
-0.125747
0
VERTEX
8
PIECES
10
1646.409936
20
877.601776
30
0
0
SEQEND
8
PIECES
0
POLYLINE
8
FINGER
66
1
70
0
10
0
20
0
30
0
0
VERTEX
8
FINGER
10
1646.409936
20
877.601776
30
0
0
VERTEX
8
FINGER
10
1666.216247
20
955.111195
30
0
0
SEQEND
8
FINGER
0
POLYLINE
8
FINGER
66
1
70
0
10
0
20
0
30
0
0
VERTEX
8
FINGER
10
1308.940863
20
877.601776
30
0
0
VERTEX
8
FINGER
10
1289.134552
20
955.111195
30
0
0
SEQEND
8
FINGER
0
POLYLINE
8
FINGER
66
1
70
0
10
0
20
0
30
0
0
VERTEX
8
FINGER
10
1287.658763
20
838.366354
30
0
0
VERTEX
8
FINGER
10
1287.658763
20
1018.366354
30
0
0
SEQEND
8
FINGER
0
POLYLINE
8
FINGER
66
1
70
0
10
0
20
0
30
0
0
VERTEX
8
FINGER
10
1667.692036
20
838.366354
30
0
0
VERTEX
8
FINGER
10
1667.692036
20
1018.366354
30
0
0
SEQEND
8
FINGER
0
TEXT
8
TEXT
10
1477.675399
20
938.366354
30
0
40
15
1
ST - S-ARCH HEAD P4 L412 x180
72
1
11
1477.675399
21
938.366354
31
0
73
2
0
TEXT
8
TEXT
10
1477.675399
20
848.366354
30
0
40
10
1
OUT 382 IN 332.5 CUT J14.3/J14.3 FINGER BOTH ENDS
72
1
11
1477.675399
21
848.366354
31
0
73
2
0
POLYLINE
8
ASSEMBLY
66
1
70
1
10
0
20
0
30
0
0
VERTEX
8
ASSEMBLY
10
1883.692036
20
838.366354
30
0
0
VERTEX
8
ASSEMBLY
10
2295.725309
20
838.366354
30
0
0
VERTEX
8
ASSEMBLY
10
2295.725309
20
1018.366354
30
0
0
VERTEX
8
ASSEMBLY
10
1883.692036
20
1018.366354
30
0
0
SEQEND
8
ASSEMBLY
0
POLYLINE
8
PIECES
66
1
70
1
10
0
20
0
30
0
0
VERTEX
8
PIECES
10
2278.24952
20
955.111195
30
0
42
0.125747
0
VERTEX
8
PIECES
10
1901.167825
20
955.111195
30
0
0
VERTEX
8
PIECES
10
1920.974136
20
877.601776
30
0
42
-0.125747
0
VERTEX
8
PIECES
10
2258.443209
20
877.601776
30
0
0
SEQEND
8
PIECES
0
POLYLINE
8
FINGER
66
1
70
0
10
0
20
0
30
0
0
VERTEX
8
FINGER
10
2258.443209
20
877.601776
30
0
0
VERTEX
8
FINGER
10
2278.24952
20
955.111195
30
0
0
SEQEND
8
FINGER
0
POLYLINE
8
FINGER
66
1
70
0
10
0
20
0
30
0
0
VERTEX
8
FINGER
10
1920.974136
20
877.601776
30
0
0
VERTEX
8
FINGER
10
1901.167825
20
955.111195
30
0
0
SEQEND
8
FINGER
0
POLYLINE
8
FINGER
66
1
70
0
10
0
20
0
30
0
0
VERTEX
8
FINGER
10
1899.692036
20
838.366354
30
0
0
VERTEX
8
FINGER
10
1899.692036
20
1018.366354
30
0
0
SEQEND
8
FINGER
0
POLYLINE
8
FINGER
66
1
70
0
10
0
20
0
30
0
0
VERTEX
8
FINGER
10
2279.725309
20
838.366354
30
0
0
VERTEX
8
FINGER
10
2279.725309
20
1018.366354
30
0
0
SEQEND
8
FINGER
0
TEXT
8
TEXT
10
2089.708673
20
938.366354
30
0
40
15
1
ST - S-ARCH HEAD P5 L412 x180
72
1
11
2089.708673
21
938.366354
31
0
73
2
0
TEXT
8
TEXT
10
2089.708673
20
848.366354
30
0
40
10
1
OUT 382 IN 332.5 CUT J14.3/J14.3 FINGER BOTH ENDS
72
1
11
2089.708673
21
848.366354
31
0
73
2
0
POLYLINE
8
ASSEMBLY
66
1
70
1
10
0
20
0
30
0
0
VERTEX
8
ASSEMBLY
10
2495.725309
20
838.366354
30
0
0
VERTEX
8
ASSEMBLY
10
2633.038054
20
838.366354
30
0
0
VERTEX
8
ASSEMBLY
10
2633.038054
20
943.366354
30
0
0
VERTEX
8
ASSEMBLY
10
2495.725309
20
943.366354
30
0
0
SEQEND
8
ASSEMBLY
0
POLYLINE
8
PIECES
66
1
70
1
10
0
20
0
30
0
0
VERTEX
8
PIECES
10
2616.001759
20
927.267852
30
0
42
0.102893
0
VERTEX
8
PIECES
10
2512.761604
20
927.267852
30
0
0
VERTEX
8
PIECES
10
2529.051964
20
848.94401
30
0
42
-0.102893
0
VERTEX
8
PIECES
10
2599.711399
20
848.94401
30
0
0
SEQEND
8
PIECES
0
POLYLINE
8
FINGER
66
1
70
0
10
0
20
0
30
0
0
VERTEX
8
FINGER
10
2599.711399
20
848.94401
30
0
0
VERTEX
8
FINGER
10
2616.001759
20
927.267852
30
0
0
SEQEND
8
FINGER
0
POLYLINE
8
FINGER
66
1
70
0
10
0
20
0
30
0
0
VERTEX
8
FINGER
10
2529.051964
20
848.94401
30
0
0
VERTEX
8
FINGER
10
2512.761604
20
927.267852
30
0
0
SEQEND
8
FINGER
0
POLYLINE
8
FINGER
66
1
70
0
10
0
20
0
30
0
0
VERTEX
8
FINGER
10
2511.725309
20
838.366354
30
0
0
VERTEX
8
FINGER
10
2511.725309
20
943.366354
30
0
0
SEQEND
8
FINGER
0
POLYLINE
8
FINGER
66
1
70
0
10
0
20
0
30
0
0
VERTEX
8
FINGER
10
2617.038054
20
838.366354
30
0
0
VERTEX
8
FINGER
10
2617.038054
20
943.366354
30
0
0
SEQEND
8
FINGER
0
TEXT
8
TEXT
10
2564.381682
20
900.866354
30
0
40
15
1
ST - S-ARCH HEAD P6 L137.3 x105
72
1
11
2564.381682
21
900.866354
31
0
73
2
0
TEXT
8
TEXT
10
2564.381682
20
848.366354
30
0
40
10
1
OUT 107.3 IN 66.6 CUT J11.7/J11.7 FINGER BOTH ENDS
72
1
11
2564.381682
21
848.366354
31
0
73
2
0
POLYLINE
8
ASSEMBLY
66
1
70
1
10
0
20
0
30
0
0
VERTEX
8
ASSEMBLY
10
2833.038054
20
838.366354
30
0
0
VERTEX
8
ASSEMBLY
10
2955.350799
20
838.366354
30
0
0
VERTEX
8
ASSEMBLY
10
2955.350799
20
943.366354
30
0
0
VERTEX
8
ASSEMBLY
10
2833.038054
20
943.366354
30
0
0
SEQEND
8
ASSEMBLY
0
POLYLINE
8
PIECES
66
1
70
1
10
0
20
0
30
0
0
VERTEX
8
PIECES
10
2938.314504
20
927.267852
30
0
42
0.102893
0
VERTEX
8
PIECES
10
2835.074349
20
927.267852
30
0
0
VERTEX
8
PIECES
10
2851.364709
20
848.94401
30
0
42
-0.102893
0
VERTEX
8
PIECES
10
2922.024144
20
848.94401
30
0
0
SEQEND
8
PIECES
0
POLYLINE
8
FINGER
66
1
70
0
10
0
20
0
30
0
0
VERTEX
8
FINGER
10
2922.024144
20
848.94401
30
0
0
VERTEX
8
FINGER
10
2938.314504
20
927.267852
30
0
0
SEQEND
8
FINGER
0
POLYLINE
8
FINGER
66
1
70
0
10
0
20
0
30
0
0
VERTEX
8
FINGER
10
2939.350799
20
838.366354
30
0
0
VERTEX
8
FINGER
10
2939.350799
20
943.366354
30
0
0
SEQEND
8
FINGER
0
TEXT
8
TEXT
10
2894.194426
20
900.866354
30
0
40
15
1
ST - S-ARCH HEAD P7 L122.3 x105
72
1
11
2894.194426
21
900.866354
31
0
73
2
0
TEXT
8
TEXT
10
2894.194426
20
848.366354
30
0
40
10
1
OUT 107.3 IN 66.6 CUT S78.3/J11.7 FINGER ONE END
72
1
11
2894.194426
21
848.366354
31
0
73
2
0
POLYLINE
8
CONTOUR
66
1
70
1
10
0
20
0
30
0
0
VERTEX
8
CONTOUR
10
1216.175857
20
1238.462952
30
0
42
0.207987
0
VERTEX
8
CONTOUR
10
1135.571723
20
1423.852459
30
0
42
0.393939
0
VERTEX
8
CONTOUR
10
96.77999
20
1423.852459
30
0
42
0.207987
0
VERTEX
8
CONTOUR
10
16.175857
20
1238.462952
30
0
0
VERTEX
8
CONTOUR
10
96.175857
20
1238.462952
30
0
42
-0.207987
0
VERTEX
8
CONTOUR
10
151.342788
20
1365.346895
30
0
42
-0.393939
0
VERTEX
8
CONTOUR
10
1081.008925
20
1365.346895
30
0
42
-0.207987
0
VERTEX
8
CONTOUR
10
1136.175857
20
1238.462952
30
0
0
SEQEND
8
CONTOUR
0
POLYLINE
8
ASSEMBLY
66
1
70
1
10
0
20
0
30
0
0
VERTEX
8
ASSEMBLY
10
1129.551671
20
1218.366354
30
0
0
VERTEX
8
ASSEMBLY
10
1107.699631
20
1323.430685
30
0
0
VERTEX
8
ASSEMBLY
10
1210.499673
20
1344.811782
30
0
0
VERTEX
8
ASSEMBLY
10
1232.351713
20
1239.747451
30
0
0
SEQEND
8
ASSEMBLY
0
POLYLINE
8
FINGER
66
1
70
0
10
0
20
0
30
0
0
VERTEX
8
FINGER
10
1121.787511
20
1307.641932
30
0
0
VERTEX
8
FINGER
10
1195.153116
20
1339.540021
30
0
0
SEQEND
8
FINGER
0
POLYLINE
8
ASSEMBLY
66
1
70
1
10
0
20
0
30
0
0
VERTEX
8
ASSEMBLY
10
1123.725707
20
1286.570709
30
0
0
VERTEX
8
ASSEMBLY
10
1061.793964
20
1374.209081
30
0
0
VERTEX
8
ASSEMBLY
10
1147.543602
20
1434.806106
30
0
0
VERTEX
8
ASSEMBLY
10
1209.475346
20
1347.167734
30
0
0
SEQEND
8
ASSEMBLY
0
POLYLINE
8
FINGER
66
1
70
0
10
0
20
0
30
0
0
VERTEX
8
FINGER
10
1081.008925
20
1365.346895
30
0
0
VERTEX
8
FINGER
10
1135.571723
20
1423.852459
30
0
0
SEQEND
8
FINGER
0
POLYLINE
8
ASSEMBLY
66
1
70
1
10
0
20
0
30
0
0
VERTEX
8
ASSEMBLY
10
1081.736553
20
1320.231699
30
0
0
VERTEX
8
ASSEMBLY
10
746.536974
20
1503.509259
30
0
0
VERTEX
8
ASSEMBLY
10
832.890606
20
1661.442948
30
0
0
VERTEX
8
ASSEMBLY
10
1168.090185
20
1478.165389
30
0
0
SEQEND
8
ASSEMBLY
0
POLYLINE
8
FINGER
66
1
70
0
10
0
20
0
30
0
0
VERTEX
8
FINGER
10
784.910393
20
1527.245118
30
0
0
VERTEX
8
FINGER
10
804.716704
20
1604.754537
30
0
0
SEQEND
8
FINGER
0
POLYLINE
8
ASSEMBLY
66
1
70
1
10
0
20
0
30
0
0
VERTEX
8
ASSEMBLY
10
807.192493
20
1488.009696
30
0
0
VERTEX
8
ASSEMBLY
10
425.15922
20
1488.009696
30
0
0
VERTEX
8
ASSEMBLY
10
425.15922
20
1668.009696
30
0
0
VERTEX
8
ASSEMBLY
10
807.192493
20
1668.009696
30
0
0
SEQEND
8
ASSEMBLY
0
POLYLINE
8
FINGER
66
1
70
0
10
0
20
0
30
0
0
VERTEX
8
FINGER
10
447.44132
20
1527.245118
30
0
0
VERTEX
8
FINGER
10
427.635009
20
1604.754537
30
0
0
SEQEND
8
FINGER
0
POLYLINE
8
ASSEMBLY
66
1
70
1
10
0
20
0
30
0
0
VERTEX
8
ASSEMBLY
10
485.814739
20
1503.509259
30
0
0
VERTEX
8
ASSEMBLY
10
150.61516
20
1320.231699
30
0
0
VERTEX
8
ASSEMBLY
10
64.261528
20
1478.165389
30
0
0
VERTEX
8
ASSEMBLY
10
399.461107
20
1661.442948
30
0
0
SEQEND
8
ASSEMBLY
0
POLYLINE
8
FINGER
66
1
70
0
10
0
20
0
30
0
0
VERTEX
8
FINGER
10
151.342788
20
1365.346895
30
0
0
VERTEX
8
FINGER
10
96.77999
20
1423.852459
30
0
0
SEQEND
8
FINGER
0
POLYLINE
8
ASSEMBLY
66
1
70
1
10
0
20
0
30
0
0
VERTEX
8
ASSEMBLY
10
170.557749
20
1374.209081
30
0
0
VERTEX
8
ASSEMBLY
10
108.626006
20
1286.570709
30
0
0
VERTEX
8
ASSEMBLY
10
22.876367
20
1347.167734
30
0
0
VERTEX
8
ASSEMBLY
10
84.808111
20
1434.806106
30
0
0
SEQEND
8
ASSEMBLY
0
POLYLINE
8
FINGER
66
1
70
0
10
0
20
0
30
0
0
VERTEX
8
FINGER
10
110.564202
20
1307.641932
30
0
0
VERTEX
8
FINGER
10
37.198597
20
1339.540021
30
0
0
SEQEND
8
FINGER
0
POLYLINE
8
ASSEMBLY
66
1
70
1
10
0
20
0
30
0
0
VERTEX
8
ASSEMBLY
10
124.652082
20
1323.430685
30
0
0
VERTEX
8
ASSEMBLY
10
102.800042
20
1218.366354
30
0
0
VERTEX
8
ASSEMBLY
10
0
20
1239.747451
30
0
0
VERTEX
8
ASSEMBLY
10
21.85204
20
1344.811782
30
0
0
SEQEND
8
ASSEMBLY
0
TEXT
8
TEXT
10
1332.351713
20
1649.509696
30
0
40
15
1
ST - S-ARCH HEAD
72
0
11
1332.351713
21
1649.509696
31
0
73
0
0
TEXT
8
TEXT
10
1332.351713
20
1627.509696
30
0
40
15
1
THREE-CENTRE W1200 RISE390 H2400 SASH
72
0
11
1332.351713
21
1627.509696
31
0
73
0
0
TEXT
8
TEXT
10
1332.351713
20
1605.509696
30
0
40
15
1
FACE 80 OFFSET 0 OUTER L1559 INNER L1307.7
72
0
11
1332.351713
21
1605.509696
31
0
73
0
0
TEXT
8
TEXT
10
1332.351713
20
1583.509696
30
0
40
15
1
ARC 1 R253.5 L207.9 47DEG: 2 x board 105 L107.3 ROUGH 137.3
72
0
11
1332.351713
21
1583.509696
31
0
73
0
0
TEXT
8
TEXT
10
1332.351713
20
1561.509696
30
0
40
15
1
ARC 2 R761.5 L1143.1 86DEG: 3 x board 180 L382 ROUGH 412
72
0
11
1332.351713
21
1561.509696
31
0
73
0
0
TEXT
8
TEXT
10
1332.351713
20
1539.509696
30
0
40
15
1
ARC 3 R253.5 L207.9 47DEG: 2 x board 105 L107.3 ROUGH 137.3
72
0
11
1332.351713
21
1539.509696
31
0
73
0
0
TEXT
8
TEXT
10
1332.351713
20
1517.509696
30
0
40
15
1
FINGER 15/16/3.8
72
0
11
1332.351713
21
1517.509696
31
0
73
0
0
TEXT
8
TEXT
10
1332.351713
20
1495.509696
30
0
40
15
1
ALLOWANCE 10 PER SIDE  MAX SEGMENT 36 DEG  RULE NARROWEST
72
0
11
1332.351713
21
1495.509696
31
0
73
0
0
TEXT
8
TEXT
10
1332.351713
20
1473.509696
30
0
40
15
1
CUT CODES: J = JOINT FROM SQUARE  S = ARCH-START, AXIS TO HORIZONTAL  A = APEX FROM SQUARE
72
0
11
1332.351713
21
1473.509696
31
0
73
0
0
POLYLINE
8
FIT
66
1
70
1
10
0
20
0
30
0
0
VERTEX
8
FIT
10
1200
20
1868.009696
30
0
42
0.207987
0
VERTEX
8
FIT
10
1119.395866
20
2053.399203
30
0
42
0.393939
0
VERTEX
8
FIT
10
80.604134
20
2053.399203
30
0
42
0.207987
0
VERTEX
8
FIT
10
0
20
1868.009696
30
0
0
VERTEX
8
FIT
10
80
20
1868.009696
30
0
42
-0.207987
0
VERTEX
8
FIT
10
135.166932
20
1994.893639
30
0
42
-0.393939
0
VERTEX
8
FIT
10
1064.833068
20
1994.893639
30
0
42
-0.207987
0
VERTEX
8
FIT
10
1120
20
1868.009696
30
0
0
SEQEND
8
FIT
0
POLYLINE
8
FIT
66
1
70
1
10
0
20
0
30
0
0
VERTEX
8
FIT
10
1111
20
1868.009696
30
0
42
0.207987
0
VERTEX
8
FIT
10
1058.694754
20
1988.311763
30
0
42
0.393939
0
VERTEX
8
FIT
10
141.305246
20
1988.311763
30
0
42
0.207987
0
VERTEX
8
FIT
10
89
20
1868.009696
30
0
0
VERTEX
8
FIT
10
146
20
1868.009696
30
0
42
-0.207987
0
VERTEX
8
FIT
10
180.18124
20
1946.626548
30
0
42
-0.393939
0
VERTEX
8
FIT
10
1019.81876
20
1946.626548
30
0
42
-0.207987
0
VERTEX
8
FIT
10
1054
20
1868.009696
30
0
0
SEQEND
8
FIT
0
POLYLINE
8
FIT
66
1
70
1
10
0
20
0
30
0
0
VERTEX
8
FIT
10
1066.5
20
1868.009696
30
0
42
0.207987
0
VERTEX
8
FIT
10
1028.344197
20
1955.768043
30
0
42
0.393939
0
VERTEX
8
FIT
10
171.655803
20
1955.768043
30
0
42
0.207987
0
VERTEX
8
FIT
10
133.5
20
1868.009696
30
0
0
SEQEND
8
FIT
0
TEXT
8
TEXT
10
1300
20
2034.899203
30
0
40
15
1
ST - FIT (ASSEMBLY, NOT A TOOLPATH)
72
0
11
1300
21
2034.899203
31
0
73
0
0
TEXT
8
TEXT
10
1300
20
2012.899203
30
0
40
15
1
RUNNING GAP 9 (HEAD 80 FACE, SASH AT THE STILE LINE)
72
0
11
1300
21
2012.899203
31
0
73
0
0
TEXT
8
TEXT
10
1300
20
1990.899203
30
0
40
15
1
HEAD R253.5/761.5/253.5 / 173.5/681.5/173.5
72
0
11
1300
21
1990.899203
31
0
73
0
0
TEXT
8
TEXT
10
1300
20
1968.899203
30
0
40
15
1
TOP RAIL R164.5/672.5/164.5 / 107.5/615.5/107.5  GLASS R120/628/120
72
0
11
1300
21
1968.899203
31
0
73
0
0
ENDSEC
0
EOF
