0
SECTION
2
HEADER
9
$ACADVER
1
AC1009
0
ENDSEC
0
SECTION
2
TABLES
0
TABLE
2
LAYER
70
6
0
LAYER
2
0
70
0
62
7
6
CONTINUOUS
0
LAYER
2
GLASS_CONTOUR
70
0
62
7
6
CONTINUOUS
0
LAYER
2
GLASS_EDGE
70
0
62
8
6
CONTINUOUS
0
LAYER
2
GLASS_BARS
70
0
62
3
6
CONTINUOUS
0
LAYER
2
GLASS_BAR_AXES
70
0
62
4
6
CONTINUOUS
0
LAYER
2
GLASS_TEXT
70
0
62
2
6
CONTINUOUS
0
ENDTAB
0
ENDSEC
0
SECTION
2
ENTITIES
0
POLYLINE
8
GLASS_CONTOUR
66
1
70
1
10
0
20
0
30
0
0
VERTEX
8
GLASS_CONTOUR
10
0
20
0
30
0
0
VERTEX
8
GLASS_CONTOUR
10
811
20
0
30
0
0
VERTEX
8
GLASS_CONTOUR
10
811
20
1198.5
30
0
42
0.333333
0
VERTEX
8
GLASS_CONTOUR
10
771.04
20
1251.78
30
0
42
0.142857
0
VERTEX
8
GLASS_CONTOUR
10
39.96
20
1251.78
30
0
42
0.333333
0
VERTEX
8
GLASS_CONTOUR
10
0
20
1198.5
30
0
0
SEQEND
8
GLASS_CONTOUR
0
POLYLINE
8
GLASS_EDGE
66
1
70
1
10
0
20
0
30
0
0
VERTEX
8
GLASS_EDGE
10
11
20
11
30
0
0
VERTEX
8
GLASS_EDGE
10
800
20
11
30
0
0
VERTEX
8
GLASS_EDGE
10
800
20
1198.5
30
0
42
0.333333
0
VERTEX
8
GLASS_EDGE
10
767.96
20
1241.22
30
0
42
0.142857
0
VERTEX
8
GLASS_EDGE
10
43.04
20
1241.22
30
0
42
0.333333
0
VERTEX
8
GLASS_EDGE
10
11
20
1198.5
30
0
0
SEQEND
8
GLASS_EDGE
0
POLYLINE
8
GLASS_BAR_AXES
66
1
70
0
10
0
20
0
30
0
0
VERTEX
8
GLASS_BAR_AXES
10
0
20
599.25
30
0
0
VERTEX
8
GLASS_BAR_AXES
10
811
20
599.25
30
0
0
SEQEND
8
GLASS_BAR_AXES
0
POLYLINE
8
GLASS_BARS
66
1
70
0
10
0
20
0
30
0
0
VERTEX
8
GLASS_BARS
10
0
20
608.25
30
0
0
VERTEX
8
GLASS_BARS
10
811
20
608.25
30
0
0
SEQEND
8
GLASS_BARS
0
POLYLINE
8
GLASS_BARS
66
1
70
0
10
0
20
0
30
0
0
VERTEX
8
GLASS_BARS
10
0
20
590.25
30
0
0
VERTEX
8
GLASS_BARS
10
811
20
590.25
30
0
0
SEQEND
8
GLASS_BARS
0
POLYLINE
8
GLASS_BAR_AXES
66
1
70
0
10
0
20
0
30
0
0
VERTEX
8
GLASS_BAR_AXES
10
270.333333
20
0
30
0
0
VERTEX
8
GLASS_BAR_AXES
10
270.333333
20
1296.983817
30
0
0
SEQEND
8
GLASS_BAR_AXES
0
POLYLINE
8
GLASS_BARS
66
1
70
0
10
0
20
0
30
0
0
VERTEX
8
GLASS_BARS
10
261.333333
20
0
30
0
0
VERTEX
8
GLASS_BARS
10
261.333333
20
1296.983817
30
0
0
SEQEND
8
GLASS_BARS
0
POLYLINE
8
GLASS_BARS
66
1
70
0
10
0
20
0
30
0
0
VERTEX
8
GLASS_BARS
10
279.333333
20
0
30
0
0
VERTEX
8
GLASS_BARS
10
279.333333
20
1296.983817
30
0
0
SEQEND
8
GLASS_BARS
0
POLYLINE
8
GLASS_BAR_AXES
66
1
70
0
10
0
20
0
30
0
0
VERTEX
8
GLASS_BAR_AXES
10
540.666667
20
0
30
0
0
VERTEX
8
GLASS_BAR_AXES
10
540.666667
20
1296.983817
30
0
0
SEQEND
8
GLASS_BAR_AXES
0
POLYLINE
8
GLASS_BARS
66
1
70
0
10
0
20
0
30
0
0
VERTEX
8
GLASS_BARS
10
531.666667
20
0
30
0
0
VERTEX
8
GLASS_BARS
10
531.666667
20
1296.983817
30
0
0
SEQEND
8
GLASS_BARS
0
POLYLINE
8
GLASS_BARS
66
1
70
0
10
0
20
0
30
0
0
VERTEX
8
GLASS_BARS
10
549.666667
20
0
30
0
0
VERTEX
8
GLASS_BARS
10
549.666667
20
1296.983817
30
0
0
SEQEND
8
GLASS_BARS
0
TEXT
8
GLASS_TEXT
10
911
20
1285.5
30
0
40
15
1
TC1 - G1 GLASS THREE-CENTRE
72
0
11
911
21
1285.5
31
0
73
0
0
TEXT
8
GLASS_TEXT
10
911
20
1263.5
30
0
40
15
1
W811 x H1304 RISE 105.5 SPRINGING 1198.5 R 55.5/1305.5/55.5
72
0
11
911
21
1263.5
31
0
73
0
0
TEXT
8
GLASS_TEXT
10
911
20
1241.5
30
0
40
15
1
DOUBLE 4X16X4 TOUGHENED ARGON CLEAR SPACER SILVER
72
0
11
911
21
1241.5
31
0
73
0
0
TEXT
8
GLASS_TEXT
10
911
20
1219.5
30
0
40
15
1
BARS 3 TOTAL L=3405
72
0
11
911
21
1219.5
31
0
73
0
0
TEXT
8
GLASS_TEXT
10
911
20
1197.5
30
0
40
15
1
H1 H Y=599.3 X=0-811 L=811
72
0
11
911
21
1197.5
31
0
73
0
0
TEXT
8
GLASS_TEXT
10
911
20
1175.5
30
0
40
15
1
V1 V X=270.3 Y=0-1297 L=1297
72
0
11
911
21
1175.5
31
0
73
0
0
TEXT
8
GLASS_TEXT
10
911
20
1153.5
30
0
40
15
1
V2 V X=540.7 Y=0-1297 L=1297
72
0
11
911
21
1153.5
31
0
73
0
0
TEXT
8
GLASS_TEXT
10
911
20
1131.5
30
0
40
15
1
BAR ENDS: ID  S FROM APEX / POSITION  L  ANGLE / R
72
0
11
911
21
1131.5
31
0
73
0
0
TEXT
8
GLASS_TEXT
10
911
20
1109.5
30
0
40
15
1
H1  Y 599.3  L=811  0DEG
72
0
11
911
21
1109.5
31
0
73
0
0
TEXT
8
GLASS_TEXT
10
911
20
1087.5
30
0
40
15
1
V1  135.4 FROM APEX L  L=1297  90DEG
72
0
11
911
21
1087.5
31
0
73
0
0
TEXT
8
GLASS_TEXT
10
911
20
1065.5
30
0
40
15
1
V2  135.4 FROM APEX R  L=1297  90DEG
72
0
11
911
21
1065.5
31
0
73
0
0
ENDSEC
0
EOF
