0
SECTION
2
HEADER
9
$ACADVER
1
AC1009
0
ENDSEC
0
SECTION
2
TABLES
0
TABLE
2
LAYER
70
7
0
LAYER
2
0
70
0
62
7
6
CONTINUOUS
0
LAYER
2
FIT
70
0
62
4
6
CONTINUOUS
0
LAYER
2
CONTOUR
70
0
62
7
6
CONTINUOUS
0
LAYER
2
ASSEMBLY
70
0
62
8
6
CONTINUOUS
0
LAYER
2
PIECES
70
0
62
5
6
CONTINUOUS
0
LAYER
2
FINGER
70
0
62
1
6
CONTINUOUS
0
LAYER
2
TEXT
70
0
62
94
6
CONTINUOUS
0
ENDTAB
0
ENDSEC
0
SECTION
2
ENTITIES
0
POLYLINE
8
PIECES
66
1
70
1
10
0
20
0
30
0
0
VERTEX
8
PIECES
10
71.147649
20
0
30
0
0
VERTEX
8
PIECES
10
19.758788
20
0
30
0
0
VERTEX
8
PIECES
10
0
20
95
30
0
0
VERTEX
8
PIECES
10
90.906437
20
95
30
0
0
SEQEND
8
PIECES
0
TEXT
8
TEXT
10
45.453219
20
57.5
30
0
40
15
1
ST - S-ARCH TOP RAIL P1 L90.9 x95
72
1
11
45.453219
21
57.5
31
0
73
2
0
TEXT
8
TEXT
10
45.453219
20
10
30
0
40
10
1
OUT 75.9 IN 36.4 CUT J11.7/S78.3 FINGER ONE END
72
1
11
45.453219
21
10
31
0
73
2
0
POLYLINE
8
PIECES
66
1
70
1
10
0
20
0
30
0
0
VERTEX
8
PIECES
10
377.054087
20
0
30
0
0
VERTEX
8
PIECES
10
310.665225
20
0
30
0
0
VERTEX
8
PIECES
10
290.906437
20
95
30
0
0
VERTEX
8
PIECES
10
396.812875
20
95
30
0
0
SEQEND
8
PIECES
0
TEXT
8
TEXT
10
343.859656
20
57.5
30
0
40
15
1
ST - S-ARCH TOP RAIL P2 L105.9 x95
72
1
11
343.859656
21
57.5
31
0
73
2
0
TEXT
8
TEXT
10
343.859656
20
10
30
0
40
10
1
OUT 75.9 IN 36.4 CUT J11.7/J11.7 FINGER BOTH ENDS
72
1
11
343.859656
21
10
31
0
73
2
0
POLYLINE
8
PIECES
66
1
70
1
10
0
20
0
30
0
0
VERTEX
8
PIECES
10
869.360626
20
0
30
0
0
VERTEX
8
PIECES
10
614.85042
20
0
30
0
0
VERTEX
8
PIECES
10
596.812875
20
95
30
0
0
VERTEX
8
PIECES
10
887.398171
20
95
30
0
0
SEQEND
8
PIECES
0
TEXT
8
TEXT
10
742.105523
20
57.5
30
0
40
15
1
ST - S-ARCH TOP RAIL P3 L290.6 x95
72
1
11
742.105523
21
57.5
31
0
73
2
0
TEXT
8
TEXT
10
742.105523
20
10
30
0
40
10
1
OUT 260.6 IN 224.5 CUT J10.8/J10.8 FINGER BOTH ENDS
72
1
11
742.105523
21
10
31
0
73
2
0
POLYLINE
8
PIECES
66
1
70
1
10
0
20
0
30
0
0
VERTEX
8
PIECES
10
1359.945923
20
0
30
0
0
VERTEX
8
PIECES
10
1105.435717
20
0
30
0
0
VERTEX
8
PIECES
10
1087.398171
20
95
30
0
0
VERTEX
8
PIECES
10
1377.983468
20
95
30
0
0
SEQEND
8
PIECES
0
TEXT
8
TEXT
10
1232.69082
20
57.5
30
0
40
15
1
ST - S-ARCH TOP RAIL P4 L290.6 x95
72
1
11
1232.69082
21
57.5
31
0
73
2
0
TEXT
8
TEXT
10
1232.69082
20
10
30
0
40
10
1
OUT 260.6 IN 224.5 CUT J10.8/J10.8 FINGER BOTH ENDS
72
1
11
1232.69082
21
10
31
0
73
2
0
POLYLINE
8
PIECES
66
1
70
1
10
0
20
0
30
0
0
VERTEX
8
PIECES
10
1850.531219
20
0
30
0
0
VERTEX
8
PIECES
10
1596.021014
20
0
30
0
0
VERTEX
8
PIECES
10
1577.983468
20
95
30
0
0
VERTEX
8
PIECES
10
1868.568765
20
95
30
0
0
SEQEND
8
PIECES
0
TEXT
8
TEXT
10
1723.276116
20
57.5
30
0
40
15
1
ST - S-ARCH TOP RAIL P5 L290.6 x95
72
1
11
1723.276116
21
57.5
31
0
73
2
0
TEXT
8
TEXT
10
1723.276116
20
10
30
0
40
10
1
OUT 260.6 IN 224.5 CUT J10.8/J10.8 FINGER BOTH ENDS
72
1
11
1723.276116
21
10
31
0
73
2
0
POLYLINE
8
PIECES
66
1
70
1
10
0
20
0
30
0
0
VERTEX
8
PIECES
10
2341.116516
20
0
30
0
0
VERTEX
8
PIECES
10
2086.60631
20
0
30
0
0
VERTEX
8
PIECES
10
2068.568765
20
95
30
0
0
VERTEX
8
PIECES
10
2359.154062
20
95
30
0
0
SEQEND
8
PIECES
0
TEXT
8
TEXT
10
2213.861413
20
57.5
30
0
40
15
1
ST - S-ARCH TOP RAIL P6 L290.6 x95
72
1
11
2213.861413
21
57.5
31
0
73
2
0
TEXT
8
TEXT
10
2213.861413
20
10
30
0
40
10
1
OUT 260.6 IN 224.5 CUT J10.8/J10.8 FINGER BOTH ENDS
72
1
11
2213.861413
21
10
31
0
73
2
0
POLYLINE
8
PIECES
66
1
70
1
10
0
20
0
30
0
0
VERTEX
8
PIECES
10
2645.301711
20
0
30
0
0
VERTEX
8
PIECES
10
2578.912849
20
0
30
0
0
VERTEX
8
PIECES
10
2559.154062
20
95
30
0
0
VERTEX
8
PIECES
10
2665.060499
20
95
30
0
0
SEQEND
8
PIECES
0
TEXT
8
TEXT
10
2612.10728
20
57.5
30
0
40
15
1
ST - S-ARCH TOP RAIL P7 L105.9 x95
72
1
11
2612.10728
21
57.5
31
0
73
2
0
TEXT
8
TEXT
10
2612.10728
20
10
30
0
40
10
1
OUT 75.9 IN 36.4 CUT J11.7/J11.7 FINGER BOTH ENDS
72
1
11
2612.10728
21
10
31
0
73
2
0
POLYLINE
8
PIECES
66
1
70
1
10
0
20
0
30
0
0
VERTEX
8
PIECES
10
2936.208148
20
0
30
0
0
VERTEX
8
PIECES
10
2884.819287
20
0
30
0
0
VERTEX
8
PIECES
10
2865.060499
20
95
30
0
0
VERTEX
8
PIECES
10
2955.966936
20
95
30
0
0
SEQEND
8
PIECES
0
TEXT
8
TEXT
10
2910.513717
20
57.5
30
0
40
15
1
ST - S-ARCH TOP RAIL P8 L90.9 x95
72
1
11
2910.513717
21
57.5
31
0
73
2
0
TEXT
8
TEXT
10
2910.513717
20
10
30
0
40
10
1
OUT 75.9 IN 36.4 CUT S78.3/J11.7 FINGER ONE END
72
1
11
2910.513717
21
10
31
0
73
2
0
POLYLINE
8
CONTOUR
66
1
70
1
10
0
20
0
30
0
0
VERTEX
8
CONTOUR
10
1043.883698
20
295
30
0
42
0.207987
0
VERTEX
8
CONTOUR
10
991.578452
20
415.302067
30
0
42
0.393939
0
VERTEX
8
CONTOUR
10
74.188945
20
415.302067
30
0
42
0.207987
0
VERTEX
8
CONTOUR
10
21.883698
20
295
30
0
0
VERTEX
8
CONTOUR
10
78.883698
20
295
30
0
42
-0.207987
0
VERTEX
8
CONTOUR
10
113.064938
20
373.616852
30
0
42
-0.393939
0
VERTEX
8
CONTOUR
10
952.702458
20
373.616852
30
0
42
-0.207987
0
VERTEX
8
CONTOUR
10
986.883698
20
295
30
0
0
SEQEND
8
CONTOUR
0
POLYLINE
8
ASSEMBLY
66
1
70
1
10
0
20
0
30
0
0
VERTEX
8
ASSEMBLY
10
968.734363
20
295
30
0
0
VERTEX
8
ASSEMBLY
10
961.324517
20
330.626443
30
0
0
VERTEX
8
ASSEMBLY
10
1050.310607
20
369.316047
30
0
0
VERTEX
8
ASSEMBLY
10
1065.767397
20
295
30
0
0
SEQEND
8
ASSEMBLY
0
POLYLINE
8
FINGER
66
1
70
0
10
0
20
0
30
0
0
VERTEX
8
FINGER
10
977.968729
20
337.863057
30
0
0
VERTEX
8
FINGER
10
1030.241723
20
360.590445
30
0
0
SEQEND
8
FINGER
0
POLYLINE
8
ASSEMBLY
66
1
70
1
10
0
20
0
30
0
0
VERTEX
8
ASSEMBLY
10
961.324517
20
330.626443
30
0
0
VERTEX
8
ASSEMBLY
10
940.323976
20
360.343888
30
0
0
VERTEX
8
ASSEMBLY
10
1006.5039
20
431.306043
30
0
0
VERTEX
8
ASSEMBLY
10
1050.310607
20
369.316047
30
0
0
SEQEND
8
ASSEMBLY
0
POLYLINE
8
FINGER
66
1
70
0
10
0
20
0
30
0
0
VERTEX
8
FINGER
10
952.702458
20
373.616852
30
0
0
VERTEX
8
FINGER
10
991.578452
20
415.302067
30
0
0
SEQEND
8
FINGER
0
POLYLINE
8
ASSEMBLY
66
1
70
1
10
0
20
0
30
0
0
VERTEX
8
ASSEMBLY
10
943.323343
20
363.559992
30
0
0
VERTEX
8
ASSEMBLY
10
753.453315
20
483.369027
30
0
0
VERTEX
8
ASSEMBLY
10
788.895218
20
573.336935
30
0
0
VERTEX
8
ASSEMBLY
10
1009.274232
20
434.276563
30
0
0
SEQEND
8
ASSEMBLY
0
POLYLINE
8
FINGER
66
1
70
0
10
0
20
0
30
0
0
VERTEX
8
FINGER
10
758.493636
20
496.163689
30
0
0
VERTEX
8
FINGER
10
779.385534
20
549.196968
30
0
0
SEQEND
8
FINGER
0
POLYLINE
8
ASSEMBLY
66
1
70
1
10
0
20
0
30
0
0
VERTEX
8
ASSEMBLY
10
753.453315
20
483.369027
30
0
0
VERTEX
8
ASSEMBLY
10
532.883698
20
525.248338
30
0
0
VERTEX
8
ASSEMBLY
10
532.883698
20
621.945561
30
0
0
VERTEX
8
ASSEMBLY
10
788.895218
20
573.336935
30
0
0
SEQEND
8
ASSEMBLY
0
POLYLINE
8
FINGER
66
1
70
0
10
0
20
0
30
0
0
VERTEX
8
FINGER
10
532.883698
20
539
30
0
0
VERTEX
8
FINGER
10
532.883698
20
596
30
0
0
SEQEND
8
FINGER
0
POLYLINE
8
ASSEMBLY
66
1
70
1
10
0
20
0
30
0
0
VERTEX
8
ASSEMBLY
10
532.883698
20
525.248338
30
0
0
VERTEX
8
ASSEMBLY
10
312.314082
20
483.369027
30
0
0
VERTEX
8
ASSEMBLY
10
276.872178
20
573.336935
30
0
0
VERTEX
8
ASSEMBLY
10
532.883698
20
621.945561
30
0
0
SEQEND
8
ASSEMBLY
0
POLYLINE
8
FINGER
66
1
70
0
10
0
20
0
30
0
0
VERTEX
8
FINGER
10
307.27376
20
496.163689
30
0
0
VERTEX
8
FINGER
10
286.381863
20
549.196968
30
0
0
SEQEND
8
FINGER
0
POLYLINE
8
ASSEMBLY
66
1
70
1
10
0
20
0
30
0
0
VERTEX
8
ASSEMBLY
10
312.314082
20
483.369027
30
0
0
VERTEX
8
ASSEMBLY
10
122.444053
20
363.559992
30
0
0
VERTEX
8
ASSEMBLY
10
56.493165
20
434.276563
30
0
0
VERTEX
8
ASSEMBLY
10
276.872178
20
573.336935
30
0
0
SEQEND
8
ASSEMBLY
0
POLYLINE
8
FINGER
66
1
70
0
10
0
20
0
30
0
0
VERTEX
8
FINGER
10
113.064938
20
373.616852
30
0
0
VERTEX
8
FINGER
10
74.188945
20
415.302067
30
0
0
SEQEND
8
FINGER
0
POLYLINE
8
ASSEMBLY
66
1
70
1
10
0
20
0
30
0
0
VERTEX
8
ASSEMBLY
10
125.44342
20
360.343888
30
0
0
VERTEX
8
ASSEMBLY
10
104.44288
20
330.626443
30
0
0
VERTEX
8
ASSEMBLY
10
15.45679
20
369.316047
30
0
0
VERTEX
8
ASSEMBLY
10
59.263497
20
431.306043
30
0
0
SEQEND
8
ASSEMBLY
0
POLYLINE
8
FINGER
66
1
70
0
10
0
20
0
30
0
0
VERTEX
8
FINGER
10
87.798667
20
337.863057
30
0
0
VERTEX
8
FINGER
10
35.525674
20
360.590445
30
0
0
SEQEND
8
FINGER
0
POLYLINE
8
ASSEMBLY
66
1
70
1
10
0
20
0
30
0
0
VERTEX
8
ASSEMBLY
10
104.44288
20
330.626443
30
0
0
VERTEX
8
ASSEMBLY
10
97.033034
20
295
30
0
0
VERTEX
8
ASSEMBLY
10
0
20
295
30
0
0
VERTEX
8
ASSEMBLY
10
15.45679
20
369.316047
30
0
0
SEQEND
8
ASSEMBLY
0
TEXT
8
TEXT
10
1165.767397
20
603.445561
30
0
40
15
1
ST - S-ARCH TOP RAIL
72
0
11
1165.767397
21
603.445561
31
0
73
0
0
TEXT
8
TEXT
10
1165.767397
20
581.445561
30
0
40
15
1
THREE-CENTRE W1200 RISE390 H2400 SASH
72
0
11
1165.767397
21
581.445561
31
0
73
0
0
TEXT
8
TEXT
10
1165.767397
20
559.445561
30
0
40
15
1
FACE 57 OFFSET 89 OUTER L1279.4 INNER L1100.3
72
0
11
1165.767397
21
559.445561
31
0
73
0
0
TEXT
8
TEXT
10
1165.767397
20
537.445561
30
0
40
15
1
ARC 1 R164.5 L134.9 47DEG: 2 x board 95 L75.9 ROUGH 105.9
72
0
11
1165.767397
21
537.445561
31
0
73
0
0
TEXT
8
TEXT
10
1165.767397
20
515.445561
30
0
40
15
1
ARC 2 R672.5 L1009.5 86DEG: 4 x board 95 L260.6 ROUGH 290.6 (ALT 3 x board 105)
72
0
11
1165.767397
21
515.445561
31
0
73
0
0
TEXT
8
TEXT
10
1165.767397
20
493.445561
30
0
40
15
1
ARC 3 R164.5 L134.9 47DEG: 2 x board 95 L75.9 ROUGH 105.9
72
0
11
1165.767397
21
493.445561
31
0
73
0
0
TEXT
8
TEXT
10
1165.767397
20
471.445561
30
0
40
15
1
FINGER 15/16/3.8
72
0
11
1165.767397
21
471.445561
31
0
73
0
0
TEXT
8
TEXT
10
1165.767397
20
449.445561
30
0
40
15
1
ALLOWANCE 10 PER SIDE  MAX SEGMENT 36 DEG  RULE NARROWEST
72
0
11
1165.767397
21
449.445561
31
0
73
0
0
TEXT
8
TEXT
10
1165.767397
20
427.445561
30
0
40
15
1
CUT CODES: J = JOINT FROM SQUARE  S = ARCH-START, AXIS TO HORIZONTAL  A = APEX FROM SQUARE
72
0
11
1165.767397
21
427.445561
31
0
73
0
0
POLYLINE
8
PIECES
66
1
70
1
10
0
20
0
30
0
0
VERTEX
8
PIECES
10
103.098061
20
821.945561
30
0
0
VERTEX
8
PIECES
10
21.83866
20
821.945561
30
0
0
VERTEX
8
PIECES
10
0
20
926.945561
30
0
0
VERTEX
8
PIECES
10
124.936721
20
926.945561
30
0
0
SEQEND
8
PIECES
0
TEXT
8
TEXT
10
62.46836
20
884.445561
30
0
40
15
1
ST - S-ARCH HEAD P1 L124.9 x105
72
1
11
62.46836
21
884.445561
31
0
73
2
0
TEXT
8
TEXT
10
62.46836
20
831.945561
30
0
40
10
1
OUT 109.9 IN 66.3 CUT J11.7/S78.3 FINGER ONE END
72
1
11
62.46836
21
831.945561
31
0
73
2
0
POLYLINE
8
PIECES
66
1
70
1
10
0
20
0
30
0
0
VERTEX
8
PIECES
10
443.034782
20
821.945561
30
0
0
VERTEX
8
PIECES
10
346.775381
20
821.945561
30
0
0
VERTEX
8
PIECES
10
324.936721
20
926.945561
30
0
0
VERTEX
8
PIECES
10
464.873442
20
926.945561
30
0
0
SEQEND
8
PIECES
0
TEXT
8
TEXT
10
394.905081
20
884.445561
30
0
40
15
1
ST - S-ARCH HEAD P2 L139.9 x105
72
1
11
394.905081
21
884.445561
31
0
73
2
0
TEXT
8
TEXT
10
394.905081
20
831.945561
30
0
40
10
1
OUT 109.9 IN 66.3 CUT J11.7/J11.7 FINGER BOTH ENDS
72
1
11
394.905081
21
831.945561
31
0
73
2
0
POLYLINE
8
PIECES
66
1
70
1
10
0
20
0
30
0
0
VERTEX
8
PIECES
10
1058.286692
20
821.945561
30
0
0
VERTEX
8
PIECES
10
710.869607
20
821.945561
30
0
0
VERTEX
8
PIECES
10
664.873442
20
1001.945561
30
0
0
VERTEX
8
PIECES
10
1104.282857
20
1001.945561
30
0
0
SEQEND
8
PIECES
0
TEXT
8
TEXT
10
884.578149
20
921.945561
30
0
40
15
1
ST - S-ARCH HEAD P3 L439.4 x180
72
1
11
884.578149
21
921.945561
31
0
73
2
0
TEXT
8
TEXT
10
884.578149
20
831.945561
30
0
40
10
1
OUT 409.4 IN 317.4 CUT J14.3/J14.3 FINGER BOTH ENDS
72
1
11
884.578149
21
831.945561
31
0
73
2
0
POLYLINE
8
PIECES
66
1
70
1
10
0
20
0
30
0
0
VERTEX
8
PIECES
10
1697.696107
20
821.945561
30
0
0
VERTEX
8
PIECES
10
1350.279022
20
821.945561
30
0
0
VERTEX
8
PIECES
10
1304.282857
20
1001.945561
30
0
0
VERTEX
8
PIECES
10
1743.692272
20
1001.945561
30
0
0
SEQEND
8
PIECES
0
TEXT
8
TEXT
10
1523.987564
20
921.945561
30
0
40
15
1
ST - S-ARCH HEAD P4 L439.4 x180
72
1
11
1523.987564
21
921.945561
31
0
73
2
0
TEXT
8
TEXT
10
1523.987564
20
831.945561
30
0
40
10
1
OUT 409.4 IN 317.4 CUT J14.3/J14.3 FINGER BOTH ENDS
72
1
11
1523.987564
21
831.945561
31
0
73
2
0
POLYLINE
8
PIECES
66
1
70
1
10
0
20
0
30
0
0
VERTEX
8
PIECES
10
2337.105522
20
821.945561
30
0
0
VERTEX
8
PIECES
10
1989.688437
20
821.945561
30
0
0
VERTEX
8
PIECES
10
1943.692272
20
1001.945561
30
0
0
VERTEX
8
PIECES
10
2383.101687
20
1001.945561
30
0
0
SEQEND
8
PIECES
0
TEXT
8
TEXT
10
2163.396979
20
921.945561
30
0
40
15
1
ST - S-ARCH HEAD P5 L439.4 x180
72
1
11
2163.396979
21
921.945561
31
0
73
2
0
TEXT
8
TEXT
10
2163.396979
20
831.945561
30
0
40
10
1
OUT 409.4 IN 317.4 CUT J14.3/J14.3 FINGER BOTH ENDS
72
1
11
2163.396979
21
831.945561
31
0
73
2
0
POLYLINE
8
PIECES
66
1
70
1
10
0
20
0
30
0
0
VERTEX
8
PIECES
10
2701.199747
20
821.945561
30
0
0
VERTEX
8
PIECES
10
2604.940347
20
821.945561
30
0
0
VERTEX
8
PIECES
10
2583.101687
20
926.945561
30
0
0
VERTEX
8
PIECES
10
2723.038408
20
926.945561
30
0
0
SEQEND
8
PIECES
0
TEXT
8
TEXT
10
2653.070047
20
884.445561
30
0
40
15
1
ST - S-ARCH HEAD P6 L139.9 x105
72
1
11
2653.070047
21
884.445561
31
0
73
2
0
TEXT
8
TEXT
10
2653.070047
20
831.945561
30
0
40
10
1
OUT 109.9 IN 66.3 CUT J11.7/J11.7 FINGER BOTH ENDS
72
1
11
2653.070047
21
831.945561
31
0
73
2
0
POLYLINE
8
PIECES
66
1
70
1
10
0
20
0
30
0
0
VERTEX
8
PIECES
10
3026.136468
20
821.945561
30
0
0
VERTEX
8
PIECES
10
2944.877068
20
821.945561
30
0
0
VERTEX
8
PIECES
10
2923.038408
20
926.945561
30
0
0
VERTEX
8
PIECES
10
3047.975129
20
926.945561
30
0
0
SEQEND
8
PIECES
0
TEXT
8
TEXT
10
2985.506768
20
884.445561
30
0
40
15
1
ST - S-ARCH HEAD P7 L124.9 x105
72
1
11
2985.506768
21
884.445561
31
0
73
2
0
TEXT
8
TEXT
10
2985.506768
20
831.945561
30
0
40
10
1
OUT 109.9 IN 66.3 CUT S78.3/J11.7 FINGER ONE END
72
1
11
2985.506768
21
831.945561
31
0
73
2
0
POLYLINE
8
CONTOUR
66
1
70
1
10
0
20
0
30
0
0
VERTEX
8
CONTOUR
10
1216.443016
20
1201.945561
30
0
42
0.207987
0
VERTEX
8
CONTOUR
10
1135.838883
20
1387.335068
30
0
42
0.393939
0
VERTEX
8
CONTOUR
10
97.04715
20
1387.335068
30
0
42
0.207987
0
VERTEX
8
CONTOUR
10
16.443016
20
1201.945561
30
0
0
VERTEX
8
CONTOUR
10
96.443016
20
1201.945561
30
0
42
-0.207987
0
VERTEX
8
CONTOUR
10
151.609948
20
1328.829504
30
0
42
-0.393939
0
VERTEX
8
CONTOUR
10
1081.276084
20
1328.829504
30
0
42
-0.207987
0
VERTEX
8
CONTOUR
10
1136.443016
20
1201.945561
30
0
0
SEQEND
8
CONTOUR
0
POLYLINE
8
ASSEMBLY
66
1
70
1
10
0
20
0
30
0
0
VERTEX
8
ASSEMBLY
10
1125.638994
20
1201.945561
30
0
0
VERTEX
8
ASSEMBLY
10
1112.146626
20
1266.816696
30
0
0
VERTEX
8
ASSEMBLY
10
1210.499673
20
1309.57889
30
0
0
VERTEX
8
ASSEMBLY
10
1232.886032
20
1201.945561
30
0
0
SEQEND
8
ASSEMBLY
0
POLYLINE
8
FINGER
66
1
70
0
10
0
20
0
30
0
0
VERTEX
8
FINGER
10
1122.054671
20
1271.124541
30
0
0
VERTEX
8
FINGER
10
1195.420275
20
1303.02263
30
0
0
SEQEND
8
FINGER
0
POLYLINE
8
ASSEMBLY
66
1
70
1
10
0
20
0
30
0
0
VERTEX
8
ASSEMBLY
10
1112.146626
20
1266.816696
30
0
0
VERTEX
8
ASSEMBLY
10
1073.907364
20
1320.928312
30
0
0
VERTEX
8
ASSEMBLY
10
1147.053595
20
1399.360167
30
0
0
VERTEX
8
ASSEMBLY
10
1210.499673
20
1309.57889
30
0
0
SEQEND
8
ASSEMBLY
0
POLYLINE
8
FINGER
66
1
70
0
10
0
20
0
30
0
0
VERTEX
8
FINGER
10
1081.276084
20
1328.829504
30
0
0
VERTEX
8
FINGER
10
1135.838883
20
1387.335068
30
0
0
SEQEND
8
FINGER
0
POLYLINE
8
ASSEMBLY
66
1
70
1
10
0
20
0
30
0
0
VERTEX
8
ASSEMBLY
10
1053.656288
20
1299.213871
30
0
0
VERTEX
8
ASSEMBLY
10
775.151558
20
1451.492305
30
0
0
VERTEX
8
ASSEMBLY
10
821.147724
20
1631.492305
30
0
0
VERTEX
8
ASSEMBLY
10
1180.367387
20
1435.08125
30
0
0
SEQEND
8
ASSEMBLY
0
POLYLINE
8
FINGER
66
1
70
0
10
0
20
0
30
0
0
VERTEX
8
FINGER
10
785.177553
20
1490.727727
30
0
0
VERTEX
8
FINGER
10
804.983864
20
1568.237146
30
0
0
SEQEND
8
FINGER
0
POLYLINE
8
ASSEMBLY
66
1
70
1
10
0
20
0
30
0
0
VERTEX
8
ASSEMBLY
10
775.151558
20
1451.492305
30
0
0
VERTEX
8
ASSEMBLY
10
457.734474
20
1451.492305
30
0
0
VERTEX
8
ASSEMBLY
10
411.738309
20
1631.492305
30
0
0
VERTEX
8
ASSEMBLY
10
821.147724
20
1631.492305
30
0
0
SEQEND
8
ASSEMBLY
0
POLYLINE
8
FINGER
66
1
70
0
10
0
20
0
30
0
0
VERTEX
8
FINGER
10
447.70848
20
1490.727727
30
0
0
VERTEX
8
FINGER
10
427.902168
20
1568.237146
30
0
0
SEQEND
8
FINGER
0
POLYLINE
8
ASSEMBLY
66
1
70
1
10
0
20
0
30
0
0
VERTEX
8
ASSEMBLY
10
457.734474
20
1451.492305
30
0
0
VERTEX
8
ASSEMBLY
10
179.229744
20
1299.213871
30
0
0
VERTEX
8
ASSEMBLY
10
52.518645
20
1435.08125
30
0
0
VERTEX
8
ASSEMBLY
10
411.738309
20
1631.492305
30
0
0
SEQEND
8
ASSEMBLY
0
POLYLINE
8
FINGER
66
1
70
0
10
0
20
0
30
0
0
VERTEX
8
FINGER
10
151.609948
20
1328.829504
30
0
0
VERTEX
8
FINGER
10
97.04715
20
1387.335068
30
0
0
SEQEND
8
FINGER
0
POLYLINE
8
ASSEMBLY
66
1
70
1
10
0
20
0
30
0
0
VERTEX
8
ASSEMBLY
10
158.978668
20
1320.928312
30
0
0
VERTEX
8
ASSEMBLY
10
120.739406
20
1266.816696
30
0
0
VERTEX
8
ASSEMBLY
10
22.386359
20
1309.57889
30
0
0
VERTEX
8
ASSEMBLY
10
85.832438
20
1399.360167
30
0
0
SEQEND
8
ASSEMBLY
0
POLYLINE
8
FINGER
66
1
70
0
10
0
20
0
30
0
0
VERTEX
8
FINGER
10
110.831361
20
1271.124541
30
0
0
VERTEX
8
FINGER
10
37.465757
20
1303.02263
30
0
0
SEQEND
8
FINGER
0
POLYLINE
8
ASSEMBLY
66
1
70
1
10
0
20
0
30
0
0
VERTEX
8
ASSEMBLY
10
120.739406
20
1266.816696
30
0
0
VERTEX
8
ASSEMBLY
10
107.247038
20
1201.945561
30
0
0
VERTEX
8
ASSEMBLY
10
0
20
1201.945561
30
0
0
VERTEX
8
ASSEMBLY
10
22.386359
20
1309.57889
30
0
0
SEQEND
8
ASSEMBLY
0
TEXT
8
TEXT
10
1332.886032
20
1612.992305
30
0
40
15
1
ST - S-ARCH HEAD
72
0
11
1332.886032
21
1612.992305
31
0
73
0
0
TEXT
8
TEXT
10
1332.886032
20
1590.992305
30
0
40
15
1
THREE-CENTRE W1200 RISE390 H2400 SASH
72
0
11
1332.886032
21
1590.992305
31
0
73
0
0
TEXT
8
TEXT
10
1332.886032
20
1568.992305
30
0
40
15
1
FACE 80 OFFSET 0 OUTER L1559 INNER L1307.7
72
0
11
1332.886032
21
1568.992305
31
0
73
0
0
TEXT
8
TEXT
10
1332.886032
20
1546.992305
30
0
40
15
1
ARC 1 R253.5 L207.9 47DEG: 2 x board 105 L109.9 ROUGH 139.9
72
0
11
1332.886032
21
1546.992305
31
0
73
0
0
TEXT
8
TEXT
10
1332.886032
20
1524.992305
30
0
40
15
1
ARC 2 R761.5 L1143.1 86DEG: 3 x board 180 L409.4 ROUGH 439.4
72
0
11
1332.886032
21
1524.992305
31
0
73
0
0
TEXT
8
TEXT
10
1332.886032
20
1502.992305
30
0
40
15
1
ARC 3 R253.5 L207.9 47DEG: 2 x board 105 L109.9 ROUGH 139.9
72
0
11
1332.886032
21
1502.992305
31
0
73
0
0
TEXT
8
TEXT
10
1332.886032
20
1480.992305
30
0
40
15
1
FINGER 15/16/3.8
72
0
11
1332.886032
21
1480.992305
31
0
73
0
0
TEXT
8
TEXT
10
1332.886032
20
1458.992305
30
0
40
15
1
ALLOWANCE 10 PER SIDE  MAX SEGMENT 36 DEG  RULE NARROWEST
72
0
11
1332.886032
21
1458.992305
31
0
73
0
0
TEXT
8
TEXT
10
1332.886032
20
1436.992305
30
0
40
15
1
CUT CODES: J = JOINT FROM SQUARE  S = ARCH-START, AXIS TO HORIZONTAL  A = APEX FROM SQUARE
72
0
11
1332.886032
21
1436.992305
31
0
73
0
0
POLYLINE
8
FIT
66
1
70
1
10
0
20
0
30
0
0
VERTEX
8
FIT
10
1200
20
1831.492305
30
0
42
0.207987
0
VERTEX
8
FIT
10
1119.395866
20
2016.881812
30
0
42
0.393939
0
VERTEX
8
FIT
10
80.604134
20
2016.881812
30
0
42
0.207987
0
VERTEX
8
FIT
10
0
20
1831.492305
30
0
0
VERTEX
8
FIT
10
80
20
1831.492305
30
0
42
-0.207987
0
VERTEX
8
FIT
10
135.166932
20
1958.376248
30
0
42
-0.393939
0
VERTEX
8
FIT
10
1064.833068
20
1958.376248
30
0
42
-0.207987
0
VERTEX
8
FIT
10
1120
20
1831.492305
30
0
0
SEQEND
8
FIT
0
POLYLINE
8
FIT
66
1
70
1
10
0
20
0
30
0
0
VERTEX
8
FIT
10
1111
20
1831.492305
30
0
42
0.207987
0
VERTEX
8
FIT
10
1058.694754
20
1951.794372
30
0
42
0.393939
0
VERTEX
8
FIT
10
141.305246
20
1951.794372
30
0
42
0.207987
0
VERTEX
8
FIT
10
89
20
1831.492305
30
0
0
VERTEX
8
FIT
10
146
20
1831.492305
30
0
42
-0.207987
0
VERTEX
8
FIT
10
180.18124
20
1910.109157
30
0
42
-0.393939
0
VERTEX
8
FIT
10
1019.81876
20
1910.109157
30
0
42
-0.207987
0
VERTEX
8
FIT
10
1054
20
1831.492305
30
0
0
SEQEND
8
FIT
0
POLYLINE
8
FIT
66
1
70
1
10
0
20
0
30
0
0
VERTEX
8
FIT
10
1066.5
20
1831.492305
30
0
42
0.207987
0
VERTEX
8
FIT
10
1028.344197
20
1919.250652
30
0
42
0.393939
0
VERTEX
8
FIT
10
171.655803
20
1919.250652
30
0
42
0.207987
0
VERTEX
8
FIT
10
133.5
20
1831.492305
30
0
0
SEQEND
8
FIT
0
TEXT
8
TEXT
10
1300
20
1998.381812
30
0
40
15
1
ST - FIT (ASSEMBLY, NOT A TOOLPATH)
72
0
11
1300
21
1998.381812
31
0
73
0
0
TEXT
8
TEXT
10
1300
20
1976.381812
30
0
40
15
1
RUNNING GAP 9 (HEAD 80 FACE, SASH AT THE STILE LINE)
72
0
11
1300
21
1976.381812
31
0
73
0
0
TEXT
8
TEXT
10
1300
20
1954.381812
30
0
40
15
1
HEAD R253.5/761.5/253.5 / 173.5/681.5/173.5
72
0
11
1300
21
1954.381812
31
0
73
0
0
TEXT
8
TEXT
10
1300
20
1932.381812
30
0
40
15
1
TOP RAIL R164.5/672.5/164.5 / 107.5/615.5/107.5  GLASS R120/628/120
72
0
11
1300
21
1932.381812
31
0
73
0
0
ENDSEC
0
EOF
