0
SECTION
2
HEADER
9
$ACADVER
1
AC1009
0
ENDSEC
0
SECTION
2
TABLES
0
TABLE
2
LAYER
70
4
0
LAYER
2
0
70
0
62
7
6
CONTINUOUS
0
LAYER
2
GLASS_CONTOUR
70
0
62
7
6
CONTINUOUS
0
LAYER
2
GLASS_BARS
70
0
62
3
6
CONTINUOUS
0
LAYER
2
GLASS_TEXT
70
0
62
2
6
CONTINUOUS
0
ENDTAB
0
ENDSEC
0
SECTION
2
ENTITIES
0
POLYLINE
8
GLASS_CONTOUR
66
1
70
1
10
0
20
0
30
0
0
VERTEX
8
GLASS_CONTOUR
10
0
20
-1304
30
0
0
VERTEX
8
GLASS_CONTOUR
10
811
20
-1304
30
0
0
VERTEX
8
GLASS_CONTOUR
10
811
20
-105.5
30
0
42
0.333333
0
VERTEX
8
GLASS_CONTOUR
10
771.04
20
-52.22
30
0
42
0.142857
0
VERTEX
8
GLASS_CONTOUR
10
39.96
20
-52.22
30
0
42
0.333333
0
VERTEX
8
GLASS_CONTOUR
10
0
20
-105.5
30
0
0
SEQEND
8
GLASS_CONTOUR
0
POLYLINE
8
GLASS_BARS
66
1
70
0
10
0
20
0
30
0
0
VERTEX
8
GLASS_BARS
10
0
20
-704.75
30
0
0
VERTEX
8
GLASS_BARS
10
811
20
-704.75
30
0
0
SEQEND
8
GLASS_BARS
0
POLYLINE
8
GLASS_BARS
66
1
70
0
10
0
20
0
30
0
0
VERTEX
8
GLASS_BARS
10
270.333333
20
-1304
30
0
0
VERTEX
8
GLASS_BARS
10
270.333333
20
-7.016183
30
0
0
SEQEND
8
GLASS_BARS
0
POLYLINE
8
GLASS_BARS
66
1
70
0
10
0
20
0
30
0
0
VERTEX
8
GLASS_BARS
10
540.666667
20
-1304
30
0
0
VERTEX
8
GLASS_BARS
10
540.666667
20
-7.016183
30
0
0
SEQEND
8
GLASS_BARS
0
TEXT
8
GLASS_TEXT
10
911
20
-18.5
30
0
40
15
1
TC1 - G1 GLASS THREE-CENTRE
72
0
11
911
21
-18.5
31
0
73
0
0
TEXT
8
GLASS_TEXT
10
911
20
-40.5
30
0
40
15
1
W811 x H1304 RISE 105.5 SPRINGING 1198.5 R 55.5/1305.5/55.5
72
0
11
911
21
-40.5
31
0
73
0
0
TEXT
8
GLASS_TEXT
10
911
20
-62.5
30
0
40
15
1
DOUBLE 4X16X4 TOUGHENED ARGON CLEAR SPACER SILVER
72
0
11
911
21
-62.5
31
0
73
0
0
TEXT
8
GLASS_TEXT
10
911
20
-84.5
30
0
40
15
1
BARS 3 TOTAL L=3405
72
0
11
911
21
-84.5
31
0
73
0
0
TEXT
8
GLASS_TEXT
10
911
20
-106.5
30
0
40
15
1
H1 H Y=599.3 X=0-811 L=811
72
0
11
911
21
-106.5
31
0
73
0
0
TEXT
8
GLASS_TEXT
10
911
20
-128.5
30
0
40
15
1
V1 V X=270.3 Y=0-1297 L=1297
72
0
11
911
21
-128.5
31
0
73
0
0
TEXT
8
GLASS_TEXT
10
911
20
-150.5
30
0
40
15
1
V2 V X=540.7 Y=0-1297 L=1297
72
0
11
911
21
-150.5
31
0
73
0
0
POLYLINE
8
GLASS_CONTOUR
66
1
70
1
10
0
20
0
30
0
0
VERTEX
8
GLASS_CONTOUR
10
0
20
-2908
30
0
0
VERTEX
8
GLASS_CONTOUR
10
811
20
-2908
30
0
0
VERTEX
8
GLASS_CONTOUR
10
811
20
-2009.5
30
0
42
1
0
VERTEX
8
GLASS_CONTOUR
10
0
20
-2009.5
30
0
0
SEQEND
8
GLASS_CONTOUR
0
POLYLINE
8
GLASS_BARS
66
1
70
0
10
0
20
0
30
0
0
VERTEX
8
GLASS_BARS
10
527.15
20
-2009.5
30
0
42
1
0
VERTEX
8
GLASS_BARS
10
283.85
20
-2009.5
30
0
0
SEQEND
8
GLASS_BARS
0
POLYLINE
8
GLASS_BARS
66
1
70
0
10
0
20
0
30
0
0
VERTEX
8
GLASS_BARS
10
527.15
20
-2009.5
30
0
0
VERTEX
8
GLASS_BARS
10
811
20
-2009.5
30
0
0
SEQEND
8
GLASS_BARS
0
POLYLINE
8
GLASS_BARS
66
1
70
0
10
0
20
0
30
0
0
VERTEX
8
GLASS_BARS
10
466.325
20
-1904.14801
30
0
0
VERTEX
8
GLASS_BARS
10
608.25
20
-1658.326699
30
0
0
SEQEND
8
GLASS_BARS
0
POLYLINE
8
GLASS_BARS
66
1
70
0
10
0
20
0
30
0
0
VERTEX
8
GLASS_BARS
10
344.675
20
-1904.14801
30
0
0
VERTEX
8
GLASS_BARS
10
202.75
20
-1658.326699
30
0
0
SEQEND
8
GLASS_BARS
0
POLYLINE
8
GLASS_BARS
66
1
70
0
10
0
20
0
30
0
0
VERTEX
8
GLASS_BARS
10
283.85
20
-2009.5
30
0
0
VERTEX
8
GLASS_BARS
10
0
20
-2009.5
30
0
0
SEQEND
8
GLASS_BARS
0
POLYLINE
8
GLASS_BARS
66
1
70
0
10
0
20
0
30
0
0
VERTEX
8
GLASS_BARS
10
283.85
20
-2908
30
0
0
VERTEX
8
GLASS_BARS
10
283.85
20
-2009.5
30
0
0
SEQEND
8
GLASS_BARS
0
POLYLINE
8
GLASS_BARS
66
1
70
0
10
0
20
0
30
0
0
VERTEX
8
GLASS_BARS
10
527.15
20
-2908
30
0
0
VERTEX
8
GLASS_BARS
10
527.15
20
-2009.5
30
0
0
SEQEND
8
GLASS_BARS
0
TEXT
8
GLASS_TEXT
10
911
20
-1622.5
30
0
40
15
1
SC1 - G1 GLASS SEMI-CIRCLE
72
0
11
911
21
-1622.5
31
0
73
0
0
TEXT
8
GLASS_TEXT
10
911
20
-1644.5
30
0
40
15
1
W811 x H1304 RISE 405.5 SPRINGING 898.5 R 405.5
72
0
11
911
21
-1644.5
31
0
73
0
0
TEXT
8
GLASS_TEXT
10
911
20
-1666.5
30
0
40
15
1
DOUBLE 4X16X4 TOUGHENED ARGON CLEAR SPACER SILVER
72
0
11
911
21
-1666.5
31
0
73
0
0
TEXT
8
GLASS_TEXT
10
911
20
-1688.5
30
0
40
15
1
BARS 7 PATTERN HUB-SPOKE TOTAL L=3315
72
0
11
911
21
-1688.5
31
0
73
0
0
TEXT
8
GLASS_TEXT
10
911
20
-1710.5
30
0
40
15
1
R1 RING C=(405.5,898.5) R=121.7 0-180DEG L=382
72
0
11
911
21
-1710.5
31
0
73
0
0
TEXT
8
GLASS_TEXT
10
911
20
-1732.5
30
0
40
15
1
S1 SPRINGING Y=898.5 X=527.2-811 L=284
72
0
11
911
21
-1732.5
31
0
73
0
0
TEXT
8
GLASS_TEXT
10
911
20
-1754.5
30
0
40
15
1
K1 SPOKE (466.3,1003.9)-(608.3,1249.7) L=284
72
0
11
911
21
-1754.5
31
0
73
0
0
TEXT
8
GLASS_TEXT
10
911
20
-1776.5
30
0
40
15
1
K2 SPOKE (344.7,1003.9)-(202.8,1249.7) L=284
72
0
11
911
21
-1776.5
31
0
73
0
0
TEXT
8
GLASS_TEXT
10
911
20
-1798.5
30
0
40
15
1
S2 SPRINGING Y=898.5 X=0-283.9 L=284
72
0
11
911
21
-1798.5
31
0
73
0
0
TEXT
8
GLASS_TEXT
10
911
20
-1820.5
30
0
40
15
1
V1 V X=283.9 Y=0-898.5 L=898.5
72
0
11
911
21
-1820.5
31
0
73
0
0
TEXT
8
GLASS_TEXT
10
911
20
-1842.5
30
0
40
15
1
V2 V X=527.2 Y=0-898.5 L=898.5
72
0
11
911
21
-1842.5
31
0
73
0
0
POLYLINE
8
GLASS_CONTOUR
66
1
70
1
10
0
20
0
30
0
0
VERTEX
8
GLASS_CONTOUR
10
0
20
-4795.411845
30
0
0
VERTEX
8
GLASS_CONTOUR
10
811
20
-4795.411845
30
0
0
VERTEX
8
GLASS_CONTOUR
10
811
20
-3962.937249
30
0
42
0.251569
0
VERTEX
8
GLASS_CONTOUR
10
405.5
20
-3208
30
0
42
0.251569
0
VERTEX
8
GLASS_CONTOUR
10
0
20
-3962.937249
30
0
0
SEQEND
8
GLASS_CONTOUR
0
POLYLINE
8
GLASS_BARS
66
1
70
0
10
0
20
0
30
0
0
VERTEX
8
GLASS_BARS
10
0
20
-4379.174547
30
0
0
VERTEX
8
GLASS_BARS
10
811
20
-4379.174547
30
0
0
SEQEND
8
GLASS_BARS
0
POLYLINE
8
GLASS_BARS
66
1
70
0
10
0
20
0
30
0
0
VERTEX
8
GLASS_BARS
10
270.333333
20
-4795.411845
30
0
0
VERTEX
8
GLASS_BARS
10
270.333333
20
-3962.937249
30
0
0
SEQEND
8
GLASS_BARS
0
POLYLINE
8
GLASS_BARS
66
1
70
0
10
0
20
0
30
0
0
VERTEX
8
GLASS_BARS
10
270.333333
20
-3962.937249
30
0
42
0.289501
0
VERTEX
8
GLASS_BARS
10
62.086556
20
-3633.416367
30
0
0
SEQEND
8
GLASS_BARS
0
POLYLINE
8
GLASS_BARS
66
1
70
0
10
0
20
0
30
0
0
VERTEX
8
GLASS_BARS
10
613.746778
20
-3398.741581
30
0
42
0.280409
0
VERTEX
8
GLASS_BARS
10
270.333333
20
-3962.937249
30
0
0
SEQEND
8
GLASS_BARS
0
POLYLINE
8
GLASS_BARS
66
1
70
0
10
0
20
0
30
0
0
VERTEX
8
GLASS_BARS
10
540.666667
20
-4795.411845
30
0
0
VERTEX
8
GLASS_BARS
10
540.666667
20
-3962.937249
30
0
0
SEQEND
8
GLASS_BARS
0
POLYLINE
8
GLASS_BARS
66
1
70
0
10
0
20
0
30
0
0
VERTEX
8
GLASS_BARS
10
540.666667
20
-3962.937249
30
0
42
0.280409
0
VERTEX
8
GLASS_BARS
10
197.253222
20
-3398.741581
30
0
0
SEQEND
8
GLASS_BARS
0
POLYLINE
8
GLASS_BARS
66
1
70
0
10
0
20
0
30
0
0
VERTEX
8
GLASS_BARS
10
748.913444
20
-3633.416367
30
0
42
0.289501
0
VERTEX
8
GLASS_BARS
10
540.666667
20
-3962.937249
30
0
0
SEQEND
8
GLASS_BARS
0
TEXT
8
GLASS_TEXT
10
911
20
-3226.5
30
0
40
15
1
GO1 - G1 GLASS GOTHIC-EQUILATERAL
72
0
11
911
21
-3226.5
31
0
73
0
0
TEXT
8
GLASS_TEXT
10
911
20
-3248.5
30
0
40
15
1
W811 x H1587.4 RISE 754.9 SPRINGING 832.5 R 905.5/905.5
72
0
11
911
21
-3248.5
31
0
73
0
0
TEXT
8
GLASS_TEXT
10
911
20
-3270.5
30
0
40
15
1
DOUBLE 4X16X4 TOUGHENED ARGON CLEAR SPACER SILVER
72
0
11
911
21
-3270.5
31
0
73
0
0
TEXT
8
GLASS_TEXT
10
911
20
-3292.5
30
0
40
15
1
BARS 7 PATTERN INTERSECTING TOTAL L=4687
72
0
11
911
21
-3292.5
31
0
73
0
0
TEXT
8
GLASS_TEXT
10
911
20
-3314.5
30
0
40
15
1
H1 H Y=416.2 X=0-811 L=811
72
0
11
911
21
-3314.5
31
0
73
0
0
TEXT
8
GLASS_TEXT
10
911
20
-3336.5
30
0
40
15
1
V1 V X=270.3 Y=0-832.5 L=832.5
72
0
11
911
21
-3336.5
31
0
73
0
0
TEXT
8
GLASS_TEXT
10
911
20
-3358.5
30
0
40
15
1
T1 TRACERY C=(-94.5,832.5) R=364.8 0-64.6DEG L=411
72
0
11
911
21
-3358.5
31
0
73
0
0
TEXT
8
GLASS_TEXT
10
911
20
-3380.5
30
0
40
15
1
T2 TRACERY C=(905.5,832.5) R=635.2 117.3-180DEG L=694.5
72
0
11
911
21
-3380.5
31
0
73
0
0
TEXT
8
GLASS_TEXT
10
911
20
-3402.5
30
0
40
15
1
V2 V X=540.7 Y=0-832.5 L=832.5
72
0
11
911
21
-3402.5
31
0
73
0
0
TEXT
8
GLASS_TEXT
10
911
20
-3424.5
30
0
40
15
1
T3 TRACERY C=(-94.5,832.5) R=635.2 0-62.7DEG L=694.5
72
0
11
911
21
-3424.5
31
0
73
0
0
TEXT
8
GLASS_TEXT
10
911
20
-3446.5
30
0
40
15
1
T4 TRACERY C=(905.5,832.5) R=364.8 115.4-180DEG L=411
72
0
11
911
21
-3446.5
31
0
73
0
0
ENDSEC
0
EOF
