0
SECTION
2
HEADER
9
$ACADVER
1
AC1009
0
ENDSEC
0
SECTION
2
TABLES
0
TABLE
2
LAYER
70
6
0
LAYER
2
0
70
0
62
7
6
CONTINUOUS
0
LAYER
2
CONTOUR
70
0
62
7
6
CONTINUOUS
0
LAYER
2
ASSEMBLY
70
0
62
8
6
CONTINUOUS
0
LAYER
2
PIECES
70
0
62
5
6
CONTINUOUS
0
LAYER
2
FINGER
70
0
62
1
6
CONTINUOUS
0
LAYER
2
TEXT
70
0
62
94
6
CONTINUOUS
0
ENDTAB
0
ENDSEC
0
SECTION
2
ENTITIES
0
POLYLINE
8
ASSEMBLY
66
1
70
1
10
0
20
0
30
0
0
VERTEX
8
ASSEMBLY
10
0
20
0
30
0
0
VERTEX
8
ASSEMBLY
10
310.053711
20
0
30
0
0
VERTEX
8
ASSEMBLY
10
310.053711
20
105
30
0
0
VERTEX
8
ASSEMBLY
10
0
20
105
30
0
0
SEQEND
8
ASSEMBLY
0
POLYLINE
8
PIECES
66
1
70
1
10
0
20
0
30
0
0
VERTEX
8
PIECES
10
307.465521
20
75.147376
30
0
42
0.131652
0
VERTEX
8
PIECES
10
17.58819
20
75.147376
30
0
0
VERTEX
8
PIECES
10
34.929066
20
10.430345
30
0
42
-0.131652
0
VERTEX
8
PIECES
10
290.124645
20
10.430345
30
0
0
SEQEND
8
PIECES
0
POLYLINE
8
FINGER
66
1
70
0
10
0
20
0
30
0
0
VERTEX
8
FINGER
10
34.929066
20
10.430345
30
0
0
VERTEX
8
FINGER
10
17.58819
20
75.147376
30
0
0
SEQEND
8
FINGER
0
POLYLINE
8
FINGER
66
1
70
0
10
0
20
0
30
0
0
VERTEX
8
FINGER
10
16
20
0
30
0
0
VERTEX
8
FINGER
10
16
20
105
30
0
0
SEQEND
8
FINGER
0
TEXT
8
TEXT
10
155.026856
20
62.5
30
0
40
15
1
T - LEAF TOP P1 L310.1 x105
72
1
11
155.026856
21
62.5
31
0
73
2
0
TEXT
8
TEXT
10
155.026856
20
10
30
0
40
10
1
OUT 295.1 IN 250 CUT J15/S75 FINGER ONE END
72
1
11
155.026856
21
10
31
0
73
2
0
POLYLINE
8
ASSEMBLY
66
1
70
1
10
0
20
0
30
0
0
VERTEX
8
ASSEMBLY
10
510.053711
20
0
30
0
0
VERTEX
8
ASSEMBLY
10
835.107423
20
0
30
0
0
VERTEX
8
ASSEMBLY
10
835.107423
20
105
30
0
0
VERTEX
8
ASSEMBLY
10
510.053711
20
105
30
0
0
SEQEND
8
ASSEMBLY
0
POLYLINE
8
PIECES
66
1
70
1
10
0
20
0
30
0
0
VERTEX
8
PIECES
10
817.519232
20
75.147376
30
0
42
0.131652
0
VERTEX
8
PIECES
10
527.641902
20
75.147376
30
0
0
VERTEX
8
PIECES
10
544.982778
20
10.430345
30
0
42
-0.131652
0
VERTEX
8
PIECES
10
800.178356
20
10.430345
30
0
0
SEQEND
8
PIECES
0
POLYLINE
8
FINGER
66
1
70
0
10
0
20
0
30
0
0
VERTEX
8
FINGER
10
800.178356
20
10.430345
30
0
0
VERTEX
8
FINGER
10
817.519232
20
75.147376
30
0
0
SEQEND
8
FINGER
0
POLYLINE
8
FINGER
66
1
70
0
10
0
20
0
30
0
0
VERTEX
8
FINGER
10
544.982778
20
10.430345
30
0
0
VERTEX
8
FINGER
10
527.641902
20
75.147376
30
0
0
SEQEND
8
FINGER
0
POLYLINE
8
FINGER
66
1
70
0
10
0
20
0
30
0
0
VERTEX
8
FINGER
10
526.053711
20
0
30
0
0
VERTEX
8
FINGER
10
526.053711
20
105
30
0
0
SEQEND
8
FINGER
0
POLYLINE
8
FINGER
66
1
70
0
10
0
20
0
30
0
0
VERTEX
8
FINGER
10
819.107423
20
0
30
0
0
VERTEX
8
FINGER
10
819.107423
20
105
30
0
0
SEQEND
8
FINGER
0
TEXT
8
TEXT
10
672.580567
20
62.5
30
0
40
15
1
T - LEAF TOP P2 L325.1 x105
72
1
11
672.580567
21
62.5
31
0
73
2
0
TEXT
8
TEXT
10
672.580567
20
10
30
0
40
10
1
OUT 295.1 IN 250 CUT J15/J15 FINGER BOTH ENDS
72
1
11
672.580567
21
10
31
0
73
2
0
POLYLINE
8
ASSEMBLY
66
1
70
1
10
0
20
0
30
0
0
VERTEX
8
ASSEMBLY
10
1035.107423
20
0
30
0
0
VERTEX
8
ASSEMBLY
10
1360.161134
20
0
30
0
0
VERTEX
8
ASSEMBLY
10
1360.161134
20
105
30
0
0
VERTEX
8
ASSEMBLY
10
1035.107423
20
105
30
0
0
SEQEND
8
ASSEMBLY
0
POLYLINE
8
PIECES
66
1
70
1
10
0
20
0
30
0
0
VERTEX
8
PIECES
10
1342.572944
20
75.147376
30
0
42
0.131652
0
VERTEX
8
PIECES
10
1052.695613
20
75.147376
30
0
0
VERTEX
8
PIECES
10
1070.036489
20
10.430345
30
0
42
-0.131652
0
VERTEX
8
PIECES
10
1325.232068
20
10.430345
30
0
0
SEQEND
8
PIECES
0
POLYLINE
8
FINGER
66
1
70
0
10
0
20
0
30
0
0
VERTEX
8
FINGER
10
1325.232068
20
10.430345
30
0
0
VERTEX
8
FINGER
10
1342.572944
20
75.147376
30
0
0
SEQEND
8
FINGER
0
POLYLINE
8
FINGER
66
1
70
0
10
0
20
0
30
0
0
VERTEX
8
FINGER
10
1070.036489
20
10.430345
30
0
0
VERTEX
8
FINGER
10
1052.695613
20
75.147376
30
0
0
SEQEND
8
FINGER
0
POLYLINE
8
FINGER
66
1
70
0
10
0
20
0
30
0
0
VERTEX
8
FINGER
10
1051.107423
20
0
30
0
0
VERTEX
8
FINGER
10
1051.107423
20
105
30
0
0
SEQEND
8
FINGER
0
POLYLINE
8
FINGER
66
1
70
0
10
0
20
0
30
0
0
VERTEX
8
FINGER
10
1344.161134
20
0
30
0
0
VERTEX
8
FINGER
10
1344.161134
20
105
30
0
0
SEQEND
8
FINGER
0
TEXT
8
TEXT
10
1197.634279
20
62.5
30
0
40
15
1
T - LEAF TOP P3 L325.1 x105
72
1
11
1197.634279
21
62.5
31
0
73
2
0
TEXT
8
TEXT
10
1197.634279
20
10
30
0
40
10
1
OUT 295.1 IN 250 CUT J15/J15 FINGER BOTH ENDS
72
1
11
1197.634279
21
10
31
0
73
2
0
POLYLINE
8
ASSEMBLY
66
1
70
1
10
0
20
0
30
0
0
VERTEX
8
ASSEMBLY
10
1560.161134
20
0
30
0
0
VERTEX
8
ASSEMBLY
10
1885.214846
20
0
30
0
0
VERTEX
8
ASSEMBLY
10
1885.214846
20
105
30
0
0
VERTEX
8
ASSEMBLY
10
1560.161134
20
105
30
0
0
SEQEND
8
ASSEMBLY
0
POLYLINE
8
PIECES
66
1
70
1
10
0
20
0
30
0
0
VERTEX
8
PIECES
10
1867.626655
20
75.147376
30
0
42
0.131652
0
VERTEX
8
PIECES
10
1577.749325
20
75.147376
30
0
0
VERTEX
8
PIECES
10
1595.090201
20
10.430345
30
0
42
-0.131652
0
VERTEX
8
PIECES
10
1850.285779
20
10.430345
30
0
0
SEQEND
8
PIECES
0
POLYLINE
8
FINGER
66
1
70
0
10
0
20
0
30
0
0
VERTEX
8
FINGER
10
1850.285779
20
10.430345
30
0
0
VERTEX
8
FINGER
10
1867.626655
20
75.147376
30
0
0
SEQEND
8
FINGER
0
POLYLINE
8
FINGER
66
1
70
0
10
0
20
0
30
0
0
VERTEX
8
FINGER
10
1595.090201
20
10.430345
30
0
0
VERTEX
8
FINGER
10
1577.749325
20
75.147376
30
0
0
SEQEND
8
FINGER
0
POLYLINE
8
FINGER
66
1
70
0
10
0
20
0
30
0
0
VERTEX
8
FINGER
10
1576.161134
20
0
30
0
0
VERTEX
8
FINGER
10
1576.161134
20
105
30
0
0
SEQEND
8
FINGER
0
POLYLINE
8
FINGER
66
1
70
0
10
0
20
0
30
0
0
VERTEX
8
FINGER
10
1869.214846
20
0
30
0
0
VERTEX
8
FINGER
10
1869.214846
20
105
30
0
0
SEQEND
8
FINGER
0
TEXT
8
TEXT
10
1722.68799
20
62.5
30
0
40
15
1
T - LEAF TOP P4 L325.1 x105
72
1
11
1722.68799
21
62.5
31
0
73
2
0
TEXT
8
TEXT
10
1722.68799
20
10
30
0
40
10
1
OUT 295.1 IN 250 CUT J15/J15 FINGER BOTH ENDS
72
1
11
1722.68799
21
10
31
0
73
2
0
POLYLINE
8
ASSEMBLY
66
1
70
1
10
0
20
0
30
0
0
VERTEX
8
ASSEMBLY
10
2085.214846
20
0
30
0
0
VERTEX
8
ASSEMBLY
10
2410.268557
20
0
30
0
0
VERTEX
8
ASSEMBLY
10
2410.268557
20
105
30
0
0
VERTEX
8
ASSEMBLY
10
2085.214846
20
105
30
0
0
SEQEND
8
ASSEMBLY
0
POLYLINE
8
PIECES
66
1
70
1
10
0
20
0
30
0
0
VERTEX
8
PIECES
10
2392.680367
20
75.147376
30
0
42
0.131652
0
VERTEX
8
PIECES
10
2102.803036
20
75.147376
30
0
0
VERTEX
8
PIECES
10
2120.143912
20
10.430345
30
0
42
-0.131652
0
VERTEX
8
PIECES
10
2375.339491
20
10.430345
30
0
0
SEQEND
8
PIECES
0
POLYLINE
8
FINGER
66
1
70
0
10
0
20
0
30
0
0
VERTEX
8
FINGER
10
2375.339491
20
10.430345
30
0
0
VERTEX
8
FINGER
10
2392.680367
20
75.147376
30
0
0
SEQEND
8
FINGER
0
POLYLINE
8
FINGER
66
1
70
0
10
0
20
0
30
0
0
VERTEX
8
FINGER
10
2120.143912
20
10.430345
30
0
0
VERTEX
8
FINGER
10
2102.803036
20
75.147376
30
0
0
SEQEND
8
FINGER
0
POLYLINE
8
FINGER
66
1
70
0
10
0
20
0
30
0
0
VERTEX
8
FINGER
10
2101.214846
20
0
30
0
0
VERTEX
8
FINGER
10
2101.214846
20
105
30
0
0
SEQEND
8
FINGER
0
POLYLINE
8
FINGER
66
1
70
0
10
0
20
0
30
0
0
VERTEX
8
FINGER
10
2394.268557
20
0
30
0
0
VERTEX
8
FINGER
10
2394.268557
20
105
30
0
0
SEQEND
8
FINGER
0
TEXT
8
TEXT
10
2247.741701
20
62.5
30
0
40
15
1
T - LEAF TOP P5 L325.1 x105
72
1
11
2247.741701
21
62.5
31
0
73
2
0
TEXT
8
TEXT
10
2247.741701
20
10
30
0
40
10
1
OUT 295.1 IN 250 CUT J15/J15 FINGER BOTH ENDS
72
1
11
2247.741701
21
10
31
0
73
2
0
POLYLINE
8
ASSEMBLY
66
1
70
1
10
0
20
0
30
0
0
VERTEX
8
ASSEMBLY
10
2610.268557
20
0
30
0
0
VERTEX
8
ASSEMBLY
10
2920.322269
20
0
30
0
0
VERTEX
8
ASSEMBLY
10
2920.322269
20
105
30
0
0
VERTEX
8
ASSEMBLY
10
2610.268557
20
105
30
0
0
SEQEND
8
ASSEMBLY
0
POLYLINE
8
PIECES
66
1
70
1
10
0
20
0
30
0
0
VERTEX
8
PIECES
10
2902.734078
20
75.147376
30
0
42
0.131652
0
VERTEX
8
PIECES
10
2612.856748
20
75.147376
30
0
0
VERTEX
8
PIECES
10
2630.197624
20
10.430345
30
0
42
-0.131652
0
VERTEX
8
PIECES
10
2885.393202
20
10.430345
30
0
0
SEQEND
8
PIECES
0
POLYLINE
8
FINGER
66
1
70
0
10
0
20
0
30
0
0
VERTEX
8
FINGER
10
2885.393202
20
10.430345
30
0
0
VERTEX
8
FINGER
10
2902.734078
20
75.147376
30
0
0
SEQEND
8
FINGER
0
POLYLINE
8
FINGER
66
1
70
0
10
0
20
0
30
0
0
VERTEX
8
FINGER
10
2904.322269
20
0
30
0
0
VERTEX
8
FINGER
10
2904.322269
20
105
30
0
0
SEQEND
8
FINGER
0
TEXT
8
TEXT
10
2765.295413
20
62.5
30
0
40
15
1
T - LEAF TOP P6 L310.1 x105
72
1
11
2765.295413
21
62.5
31
0
73
2
0
TEXT
8
TEXT
10
2765.295413
20
10
30
0
40
10
1
OUT 295.1 IN 250 CUT S75/J15 FINGER ONE END
72
1
11
2765.295413
21
10
31
0
73
2
0
POLYLINE
8
CONTOUR
66
1
70
1
10
0
20
0
30
0
0
VERTEX
8
CONTOUR
10
1149.505294
20
326.949572
30
0
42
1
0
VERTEX
8
CONTOUR
10
29.505294
20
326.949572
30
0
0
VERTEX
8
CONTOUR
10
96.505294
20
326.949572
30
0
42
-1
0
VERTEX
8
CONTOUR
10
1082.505294
20
326.949572
30
0
0
SEQEND
8
CONTOUR
0
POLYLINE
8
ASSEMBLY
66
1
70
1
10
0
20
0
30
0
0
VERTEX
8
ASSEMBLY
10
1077.588376
20
305
30
0
0
VERTEX
8
ASSEMBLY
10
1001.222856
20
590
30
0
0
VERTEX
8
ASSEMBLY
10
1102.645068
20
617.176
30
0
0
VERTEX
8
ASSEMBLY
10
1179.010588
20
332.176
30
0
0
SEQEND
8
ASSEMBLY
0
POLYLINE
8
FINGER
66
1
70
0
10
0
20
0
30
0
0
VERTEX
8
FINGER
10
1016.455818
20
573.449572
30
0
0
VERTEX
8
FINGER
10
1074.47952
20
606.949572
30
0
0
SEQEND
8
FINGER
0
POLYLINE
8
ASSEMBLY
66
1
70
1
10
0
20
0
30
0
0
VERTEX
8
ASSEMBLY
10
1023.172428
20
551.982226
30
0
0
VERTEX
8
ASSEMBLY
10
814.537948
20
760.616706
30
0
0
VERTEX
8
ASSEMBLY
10
888.78416
20
834.862918
30
0
0
VERTEX
8
ASSEMBLY
10
1097.41864
20
626.228438
30
0
0
SEQEND
8
ASSEMBLY
0
POLYLINE
8
FINGER
66
1
70
0
10
0
20
0
30
0
0
VERTEX
8
FINGER
10
836.005294
20
753.900096
30
0
0
VERTEX
8
FINGER
10
869.505294
20
811.923798
30
0
0
SEQEND
8
FINGER
0
POLYLINE
8
ASSEMBLY
66
1
70
1
10
0
20
0
30
0
0
VERTEX
8
ASSEMBLY
10
852.555722
20
738.667134
30
0
0
VERTEX
8
ASSEMBLY
10
567.555722
20
815.032654
30
0
0
VERTEX
8
ASSEMBLY
10
594.731722
20
916.454866
30
0
0
VERTEX
8
ASSEMBLY
10
879.731722
20
840.089346
30
0
0
SEQEND
8
ASSEMBLY
0
POLYLINE
8
FINGER
66
1
70
0
10
0
20
0
30
0
0
VERTEX
8
FINGER
10
589.505294
20
819.949572
30
0
0
VERTEX
8
FINGER
10
589.505294
20
886.949572
30
0
0
SEQEND
8
FINGER
0
POLYLINE
8
ASSEMBLY
66
1
70
1
10
0
20
0
30
0
0
VERTEX
8
ASSEMBLY
10
611.454866
20
815.032654
30
0
0
VERTEX
8
ASSEMBLY
10
326.454866
20
738.667134
30
0
0
VERTEX
8
ASSEMBLY
10
299.278866
20
840.089346
30
0
0
VERTEX
8
ASSEMBLY
10
584.278866
20
916.454866
30
0
0
SEQEND
8
ASSEMBLY
0
POLYLINE
8
FINGER
66
1
70
0
10
0
20
0
30
0
0
VERTEX
8
FINGER
10
343.005294
20
753.900096
30
0
0
VERTEX
8
FINGER
10
309.505294
20
811.923798
30
0
0
SEQEND
8
FINGER
0
POLYLINE
8
ASSEMBLY
66
1
70
1
10
0
20
0
30
0
0
VERTEX
8
ASSEMBLY
10
364.47264
20
760.616706
30
0
0
VERTEX
8
ASSEMBLY
10
155.83816
20
551.982226
30
0
0
VERTEX
8
ASSEMBLY
10
81.591948
20
626.228438
30
0
0
VERTEX
8
ASSEMBLY
10
290.226428
20
834.862918
30
0
0
SEQEND
8
ASSEMBLY
0
POLYLINE
8
FINGER
66
1
70
0
10
0
20
0
30
0
0
VERTEX
8
FINGER
10
162.55477
20
573.449572
30
0
0
VERTEX
8
FINGER
10
104.531068
20
606.949572
30
0
0
SEQEND
8
FINGER
0
POLYLINE
8
ASSEMBLY
66
1
70
1
10
0
20
0
30
0
0
VERTEX
8
ASSEMBLY
10
177.787732
20
590
30
0
0
VERTEX
8
ASSEMBLY
10
101.422212
20
305
30
0
0
VERTEX
8
ASSEMBLY
10
0
20
332.176
30
0
0
VERTEX
8
ASSEMBLY
10
76.36552
20
617.176
30
0
0
SEQEND
8
ASSEMBLY
0
TEXT
8
TEXT
10
1279.010588
20
897.954866
30
0
40
15
1
T - LEAF TOP
72
0
11
1279.010588
21
897.954866
31
0
73
0
0
TEXT
8
TEXT
10
1279.010588
20
875.954866
30
0
40
15
1
SEMI-CIRCLE W1200 RISE600 H2000 HINGE R
72
0
11
1279.010588
21
875.954866
31
0
73
0
0
TEXT
8
TEXT
10
1279.010588
20
853.954866
30
0
40
15
1
FACE 67 OFFSET 40 OUTER L1759.3 INNER L1548.8
72
0
11
1279.010588
21
853.954866
31
0
73
0
0
TEXT
8
TEXT
10
1279.010588
20
831.954866
30
0
40
15
1
ARC 1 R560 L1759.3 180DEG: 6 x board 105 L295.1 ROUGH 325.1 (ALT 5 x board 180)
72
0
11
1279.010588
21
831.954866
31
0
73
0
0
TEXT
8
TEXT
10
1279.010588
20
809.954866
30
0
40
15
1
FINGER 15/16/3.8
72
0
11
1279.010588
21
809.954866
31
0
73
0
0
TEXT
8
TEXT
10
1279.010588
20
787.954866
30
0
40
15
1
ALLOWANCE 10 PER SIDE  MAX SEGMENT 36 DEG  RULE NARROWEST
72
0
11
1279.010588
21
787.954866
31
0
73
0
0
TEXT
8
TEXT
10
1279.010588
20
765.954866
30
0
40
15
1
CUT CODES: J = JOINT FROM SQUARE  S = ARCH-START, AXIS TO HORIZONTAL  A = APEX FROM SQUARE
72
0
11
1279.010588
21
765.954866
31
0
73
0
0
POLYLINE
8
ASSEMBLY
66
1
70
1
10
0
20
0
30
0
0
VERTEX
8
ASSEMBLY
10
0
20
1116.454866
30
0
0
VERTEX
8
ASSEMBLY
10
286.475539
20
1116.454866
30
0
0
VERTEX
8
ASSEMBLY
10
286.475539
20
1211.454866
30
0
0
VERTEX
8
ASSEMBLY
10
0
20
1211.454866
30
0
0
SEQEND
8
ASSEMBLY
0
POLYLINE
8
PIECES
66
1
70
1
10
0
20
0
30
0
0
VERTEX
8
PIECES
10
284.25033
20
1184.093325
30
0
42
0.112673
0
VERTEX
8
PIECES
10
17.225209
20
1184.093325
30
0
0
VERTEX
8
PIECES
10
29.908903
20
1128.522434
30
0
42
-0.112673
0
VERTEX
8
PIECES
10
271.566637
20
1128.522434
30
0
0
SEQEND
8
PIECES
0
POLYLINE
8
FINGER
66
1
70
0
10
0
20
0
30
0
0
VERTEX
8
FINGER
10
29.908903
20
1128.522434
30
0
0
VERTEX
8
FINGER
10
17.225209
20
1184.093325
30
0
0
SEQEND
8
FINGER
0
POLYLINE
8
FINGER
66
1
70
0
10
0
20
0
30
0
0
VERTEX
8
FINGER
10
16
20
1116.454866
30
0
0
VERTEX
8
FINGER
10
16
20
1211.454866
30
0
0
SEQEND
8
FINGER
0
TEXT
8
TEXT
10
143.23777
20
1173.954866
30
0
40
15
1
T - FRAME HEAD P1 L286.5 x95
72
1
11
143.23777
21
1173.954866
31
0
73
2
0
TEXT
8
TEXT
10
143.23777
20
1126.454866
30
0
40
10
1
OUT 271.5 IN 237.2 CUT J12.9/S77.1 FINGER ONE END
72
1
11
143.23777
21
1126.454866
31
0
73
2
0
POLYLINE
8
ASSEMBLY
66
1
70
1
10
0
20
0
30
0
0
VERTEX
8
ASSEMBLY
10
486.475539
20
1116.454866
30
0
0
VERTEX
8
ASSEMBLY
10
787.951079
20
1116.454866
30
0
0
VERTEX
8
ASSEMBLY
10
787.951079
20
1211.454866
30
0
0
VERTEX
8
ASSEMBLY
10
486.475539
20
1211.454866
30
0
0
SEQEND
8
ASSEMBLY
0
POLYLINE
8
PIECES
66
1
70
1
10
0
20
0
30
0
0
VERTEX
8
PIECES
10
770.72587
20
1184.093325
30
0
42
0.112673
0
VERTEX
8
PIECES
10
503.700749
20
1184.093325
30
0
0
VERTEX
8
PIECES
10
516.384442
20
1128.522434
30
0
42
-0.112673
0
VERTEX
8
PIECES
10
758.042176
20
1128.522434
30
0
0
SEQEND
8
PIECES
0
POLYLINE
8
FINGER
66
1
70
0
10
0
20
0
30
0
0
VERTEX
8
FINGER
10
758.042176
20
1128.522434
30
0
0
VERTEX
8
FINGER
10
770.72587
20
1184.093325
30
0
0
SEQEND
8
FINGER
0
POLYLINE
8
FINGER
66
1
70
0
10
0
20
0
30
0
0
VERTEX
8
FINGER
10
516.384442
20
1128.522434
30
0
0
VERTEX
8
FINGER
10
503.700749
20
1184.093325
30
0
0
SEQEND
8
FINGER
0
POLYLINE
8
FINGER
66
1
70
0
10
0
20
0
30
0
0
VERTEX
8
FINGER
10
502.475539
20
1116.454866
30
0
0
VERTEX
8
FINGER
10
502.475539
20
1211.454866
30
0
0
SEQEND
8
FINGER
0
POLYLINE
8
FINGER
66
1
70
0
10
0
20
0
30
0
0
VERTEX
8
FINGER
10
771.951079
20
1116.454866
30
0
0
VERTEX
8
FINGER
10
771.951079
20
1211.454866
30
0
0
SEQEND
8
FINGER
0
TEXT
8
TEXT
10
637.213309
20
1173.954866
30
0
40
15
1
T - FRAME HEAD P2 L301.5 x95
72
1
11
637.213309
21
1173.954866
31
0
73
2
0
TEXT
8
TEXT
10
637.213309
20
1126.454866
30
0
40
10
1
OUT 271.5 IN 237.2 CUT J12.9/J12.9 FINGER BOTH ENDS
72
1
11
637.213309
21
1126.454866
31
0
73
2
0
POLYLINE
8
ASSEMBLY
66
1
70
1
10
0
20
0
30
0
0
VERTEX
8
ASSEMBLY
10
987.951079
20
1116.454866
30
0
0
VERTEX
8
ASSEMBLY
10
1289.426618
20
1116.454866
30
0
0
VERTEX
8
ASSEMBLY
10
1289.426618
20
1211.454866
30
0
0
VERTEX
8
ASSEMBLY
10
987.951079
20
1211.454866
30
0
0
SEQEND
8
ASSEMBLY
0
POLYLINE
8
PIECES
66
1
70
1
10
0
20
0
30
0
0
VERTEX
8
PIECES
10
1272.201409
20
1184.093325
30
0
42
0.112673
0
VERTEX
8
PIECES
10
1005.176288
20
1184.093325
30
0
0
VERTEX
8
PIECES
10
1017.859981
20
1128.522434
30
0
42
-0.112673
0
VERTEX
8
PIECES
10
1259.517716
20
1128.522434
30
0
0
SEQEND
8
PIECES
0
POLYLINE
8
FINGER
66
1
70
0
10
0
20
0
30
0
0
VERTEX
8
FINGER
10
1259.517716
20
1128.522434
30
0
0
VERTEX
8
FINGER
10
1272.201409
20
1184.093325
30
0
0
SEQEND
8
FINGER
0
POLYLINE
8
FINGER
66
1
70
0
10
0
20
0
30
0
0
VERTEX
8
FINGER
10
1017.859981
20
1128.522434
30
0
0
VERTEX
8
FINGER
10
1005.176288
20
1184.093325
30
0
0
SEQEND
8
FINGER
0
POLYLINE
8
FINGER
66
1
70
0
10
0
20
0
30
0
0
VERTEX
8
FINGER
10
1003.951079
20
1116.454866
30
0
0
VERTEX
8
FINGER
10
1003.951079
20
1211.454866
30
0
0
SEQEND
8
FINGER
0
POLYLINE
8
FINGER
66
1
70
0
10
0
20
0
30
0
0
VERTEX
8
FINGER
10
1273.426618
20
1116.454866
30
0
0
VERTEX
8
FINGER
10
1273.426618
20
1211.454866
30
0
0
SEQEND
8
FINGER
0
TEXT
8
TEXT
10
1138.688849
20
1173.954866
30
0
40
15
1
T - FRAME HEAD P3 L301.5 x95
72
1
11
1138.688849
21
1173.954866
31
0
73
2
0
TEXT
8
TEXT
10
1138.688849
20
1126.454866
30
0
40
10
1
OUT 271.5 IN 237.2 CUT J12.9/J12.9 FINGER BOTH ENDS
72
1
11
1138.688849
21
1126.454866
31
0
73
2
0
POLYLINE
8
ASSEMBLY
66
1
70
1
10
0
20
0
30
0
0
VERTEX
8
ASSEMBLY
10
1489.426618
20
1116.454866
30
0
0
VERTEX
8
ASSEMBLY
10
1790.902158
20
1116.454866
30
0
0
VERTEX
8
ASSEMBLY
10
1790.902158
20
1211.454866
30
0
0
VERTEX
8
ASSEMBLY
10
1489.426618
20
1211.454866
30
0
0
SEQEND
8
ASSEMBLY
0
POLYLINE
8
PIECES
66
1
70
1
10
0
20
0
30
0
0
VERTEX
8
PIECES
10
1773.676948
20
1184.093325
30
0
42
0.112673
0
VERTEX
8
PIECES
10
1506.651828
20
1184.093325
30
0
0
VERTEX
8
PIECES
10
1519.335521
20
1128.522434
30
0
42
-0.112673
0
VERTEX
8
PIECES
10
1760.993255
20
1128.522434
30
0
0
SEQEND
8
PIECES
0
POLYLINE
8
FINGER
66
1
70
0
10
0
20
0
30
0
0
VERTEX
8
FINGER
10
1760.993255
20
1128.522434
30
0
0
VERTEX
8
FINGER
10
1773.676948
20
1184.093325
30
0
0
SEQEND
8
FINGER
0
POLYLINE
8
FINGER
66
1
70
0
10
0
20
0
30
0
0
VERTEX
8
FINGER
10
1519.335521
20
1128.522434
30
0
0
VERTEX
8
FINGER
10
1506.651828
20
1184.093325
30
0
0
SEQEND
8
FINGER
0
POLYLINE
8
FINGER
66
1
70
0
10
0
20
0
30
0
0
VERTEX
8
FINGER
10
1505.426618
20
1116.454866
30
0
0
VERTEX
8
FINGER
10
1505.426618
20
1211.454866
30
0
0
SEQEND
8
FINGER
0
POLYLINE
8
FINGER
66
1
70
0
10
0
20
0
30
0
0
VERTEX
8
FINGER
10
1774.902158
20
1116.454866
30
0
0
VERTEX
8
FINGER
10
1774.902158
20
1211.454866
30
0
0
SEQEND
8
FINGER
0
TEXT
8
TEXT
10
1640.164388
20
1173.954866
30
0
40
15
1
T - FRAME HEAD P4 L301.5 x95
72
1
11
1640.164388
21
1173.954866
31
0
73
2
0
TEXT
8
TEXT
10
1640.164388
20
1126.454866
30
0
40
10
1
OUT 271.5 IN 237.2 CUT J12.9/J12.9 FINGER BOTH ENDS
72
1
11
1640.164388
21
1126.454866
31
0
73
2
0
POLYLINE
8
ASSEMBLY
66
1
70
1
10
0
20
0
30
0
0
VERTEX
8
ASSEMBLY
10
1990.902158
20
1116.454866
30
0
0
VERTEX
8
ASSEMBLY
10
2292.377697
20
1116.454866
30
0
0
VERTEX
8
ASSEMBLY
10
2292.377697
20
1211.454866
30
0
0
VERTEX
8
ASSEMBLY
10
1990.902158
20
1211.454866
30
0
0
SEQEND
8
ASSEMBLY
0
POLYLINE
8
PIECES
66
1
70
1
10
0
20
0
30
0
0
VERTEX
8
PIECES
10
2275.152488
20
1184.093325
30
0
42
0.112673
0
VERTEX
8
PIECES
10
2008.127367
20
1184.093325
30
0
0
VERTEX
8
PIECES
10
2020.81106
20
1128.522434
30
0
42
-0.112673
0
VERTEX
8
PIECES
10
2262.468795
20
1128.522434
30
0
0
SEQEND
8
PIECES
0
POLYLINE
8
FINGER
66
1
70
0
10
0
20
0
30
0
0
VERTEX
8
FINGER
10
2262.468795
20
1128.522434
30
0
0
VERTEX
8
FINGER
10
2275.152488
20
1184.093325
30
0
0
SEQEND
8
FINGER
0
POLYLINE
8
FINGER
66
1
70
0
10
0
20
0
30
0
0
VERTEX
8
FINGER
10
2020.81106
20
1128.522434
30
0
0
VERTEX
8
FINGER
10
2008.127367
20
1184.093325
30
0
0
SEQEND
8
FINGER
0
POLYLINE
8
FINGER
66
1
70
0
10
0
20
0
30
0
0
VERTEX
8
FINGER
10
2006.902158
20
1116.454866
30
0
0
VERTEX
8
FINGER
10
2006.902158
20
1211.454866
30
0
0
SEQEND
8
FINGER
0
POLYLINE
8
FINGER
66
1
70
0
10
0
20
0
30
0
0
VERTEX
8
FINGER
10
2276.377697
20
1116.454866
30
0
0
VERTEX
8
FINGER
10
2276.377697
20
1211.454866
30
0
0
SEQEND
8
FINGER
0
TEXT
8
TEXT
10
2141.639927
20
1173.954866
30
0
40
15
1
T - FRAME HEAD P5 L301.5 x95
72
1
11
2141.639927
21
1173.954866
31
0
73
2
0
TEXT
8
TEXT
10
2141.639927
20
1126.454866
30
0
40
10
1
OUT 271.5 IN 237.2 CUT J12.9/J12.9 FINGER BOTH ENDS
72
1
11
2141.639927
21
1126.454866
31
0
73
2
0
POLYLINE
8
ASSEMBLY
66
1
70
1
10
0
20
0
30
0
0
VERTEX
8
ASSEMBLY
10
2492.377697
20
1116.454866
30
0
0
VERTEX
8
ASSEMBLY
10
2793.853237
20
1116.454866
30
0
0
VERTEX
8
ASSEMBLY
10
2793.853237
20
1211.454866
30
0
0
VERTEX
8
ASSEMBLY
10
2492.377697
20
1211.454866
30
0
0
SEQEND
8
ASSEMBLY
0
POLYLINE
8
PIECES
66
1
70
1
10
0
20
0
30
0
0
VERTEX
8
PIECES
10
2776.628027
20
1184.093325
30
0
42
0.112673
0
VERTEX
8
PIECES
10
2509.602906
20
1184.093325
30
0
0
VERTEX
8
PIECES
10
2522.2866
20
1128.522434
30
0
42
-0.112673
0
VERTEX
8
PIECES
10
2763.944334
20
1128.522434
30
0
0
SEQEND
8
PIECES
0
POLYLINE
8
FINGER
66
1
70
0
10
0
20
0
30
0
0
VERTEX
8
FINGER
10
2763.944334
20
1128.522434
30
0
0
VERTEX
8
FINGER
10
2776.628027
20
1184.093325
30
0
0
SEQEND
8
FINGER
0
POLYLINE
8
FINGER
66
1
70
0
10
0
20
0
30
0
0
VERTEX
8
FINGER
10
2522.2866
20
1128.522434
30
0
0
VERTEX
8
FINGER
10
2509.602906
20
1184.093325
30
0
0
SEQEND
8
FINGER
0
POLYLINE
8
FINGER
66
1
70
0
10
0
20
0
30
0
0
VERTEX
8
FINGER
10
2508.377697
20
1116.454866
30
0
0
VERTEX
8
FINGER
10
2508.377697
20
1211.454866
30
0
0
SEQEND
8
FINGER
0
POLYLINE
8
FINGER
66
1
70
0
10
0
20
0
30
0
0
VERTEX
8
FINGER
10
2777.853237
20
1116.454866
30
0
0
VERTEX
8
FINGER
10
2777.853237
20
1211.454866
30
0
0
SEQEND
8
FINGER
0
TEXT
8
TEXT
10
2643.115467
20
1173.954866
30
0
40
15
1
T - FRAME HEAD P6 L301.5 x95
72
1
11
2643.115467
21
1173.954866
31
0
73
2
0
TEXT
8
TEXT
10
2643.115467
20
1126.454866
30
0
40
10
1
OUT 271.5 IN 237.2 CUT J12.9/J12.9 FINGER BOTH ENDS
72
1
11
2643.115467
21
1126.454866
31
0
73
2
0
POLYLINE
8
ASSEMBLY
66
1
70
1
10
0
20
0
30
0
0
VERTEX
8
ASSEMBLY
10
2993.853237
20
1116.454866
30
0
0
VERTEX
8
ASSEMBLY
10
3280.328776
20
1116.454866
30
0
0
VERTEX
8
ASSEMBLY
10
3280.328776
20
1211.454866
30
0
0
VERTEX
8
ASSEMBLY
10
2993.853237
20
1211.454866
30
0
0
SEQEND
8
ASSEMBLY
0
POLYLINE
8
PIECES
66
1
70
1
10
0
20
0
30
0
0
VERTEX
8
PIECES
10
3263.103567
20
1184.093325
30
0
42
0.112673
0
VERTEX
8
PIECES
10
2996.078446
20
1184.093325
30
0
0
VERTEX
8
PIECES
10
3008.762139
20
1128.522434
30
0
42
-0.112673
0
VERTEX
8
PIECES
10
3250.419873
20
1128.522434
30
0
0
SEQEND
8
PIECES
0
POLYLINE
8
FINGER
66
1
70
0
10
0
20
0
30
0
0
VERTEX
8
FINGER
10
3250.419873
20
1128.522434
30
0
0
VERTEX
8
FINGER
10
3263.103567
20
1184.093325
30
0
0
SEQEND
8
FINGER
0
POLYLINE
8
FINGER
66
1
70
0
10
0
20
0
30
0
0
VERTEX
8
FINGER
10
3264.328776
20
1116.454866
30
0
0
VERTEX
8
FINGER
10
3264.328776
20
1211.454866
30
0
0
SEQEND
8
FINGER
0
TEXT
8
TEXT
10
3137.091006
20
1173.954866
30
0
40
15
1
T - FRAME HEAD P7 L286.5 x95
72
1
11
3137.091006
21
1173.954866
31
0
73
2
0
TEXT
8
TEXT
10
3137.091006
20
1126.454866
30
0
40
10
1
OUT 271.5 IN 237.2 CUT S77.1/J12.9 FINGER ONE END
72
1
11
3137.091006
21
1126.454866
31
0
73
2
0
POLYLINE
8
CONTOUR
66
1
70
1
10
0
20
0
30
0
0
VERTEX
8
CONTOUR
10
1227.170686
20
1428.675258
30
0
42
1
0
VERTEX
8
CONTOUR
10
27.170686
20
1428.675258
30
0
0
VERTEX
8
CONTOUR
10
84.170686
20
1428.675258
30
0
42
-1
0
VERTEX
8
CONTOUR
10
1170.170686
20
1428.675258
30
0
0
SEQEND
8
CONTOUR
0
POLYLINE
8
ASSEMBLY
66
1
70
1
10
0
20
0
30
0
0
VERTEX
8
ASSEMBLY
10
1161.72322
20
1411.454866
30
0
0
VERTEX
8
ASSEMBLY
10
1101.31423
20
1676.123947
30
0
0
VERTEX
8
ASSEMBLY
10
1193.932381
20
1697.263435
30
0
0
VERTEX
8
ASSEMBLY
10
1254.341372
20
1432.594355
30
0
0
SEQEND
8
ASSEMBLY
0
POLYLINE
8
FINGER
66
1
70
0
10
0
20
0
30
0
0
VERTEX
8
FINGER
10
1116.396781
20
1664.274128
30
0
0
VERTEX
8
FINGER
10
1167.752007
20
1689.005501
30
0
0
SEQEND
8
FINGER
0
POLYLINE
8
ASSEMBLY
66
1
70
1
10
0
20
0
30
0
0
VERTEX
8
ASSEMBLY
10
1116.257526
20
1645.093873
30
0
0
VERTEX
8
ASSEMBLY
10
946.995295
20
1857.341996
30
0
0
VERTEX
8
ASSEMBLY
10
1021.269286
20
1916.573528
30
0
0
VERTEX
8
ASSEMBLY
10
1190.531516
20
1704.325404
30
0
0
SEQEND
8
ASSEMBLY
0
POLYLINE
8
FINGER
66
1
70
0
10
0
20
0
30
0
0
VERTEX
8
FINGER
10
965.725648
20
1853.209752
30
0
0
VERTEX
8
FINGER
10
1001.264567
20
1897.774147
30
0
0
SEQEND
8
FINGER
0
POLYLINE
8
ASSEMBLY
66
1
70
1
10
0
20
0
30
0
0
VERTEX
8
ASSEMBLY
10
973.922184
20
1835.868519
30
0
0
VERTEX
8
ASSEMBLY
10
729.331175
20
1953.657341
30
0
0
VERTEX
8
ASSEMBLY
10
770.55013
20
2039.249384
30
0
0
VERTEX
8
ASSEMBLY
10
1015.141139
20
1921.460562
30
0
0
SEQEND
8
ASSEMBLY
0
POLYLINE
8
FINGER
66
1
70
0
10
0
20
0
30
0
0
VERTEX
8
FINGER
10
747.999553
20
1958.061114
30
0
0
VERTEX
8
FINGER
10
760.683246
20
2013.632005
30
0
0
SEQEND
8
FINGER
0
POLYLINE
8
ASSEMBLY
66
1
70
1
10
0
20
0
30
0
0
VERTEX
8
ASSEMBLY
10
762.908456
20
1945.993546
30
0
0
VERTEX
8
ASSEMBLY
10
491.432916
20
1945.993546
30
0
0
VERTEX
8
ASSEMBLY
10
491.432916
20
2040.993546
30
0
0
VERTEX
8
ASSEMBLY
10
762.908456
20
2040.993546
30
0
0
SEQEND
8
ASSEMBLY
0
POLYLINE
8
FINGER
66
1
70
0
10
0
20
0
30
0
0
VERTEX
8
FINGER
10
506.341819
20
1958.061114
30
0
0
VERTEX
8
FINGER
10
493.658126
20
2013.632005
30
0
0
SEQEND
8
FINGER
0
POLYLINE
8
ASSEMBLY
66
1
70
1
10
0
20
0
30
0
0
VERTEX
8
ASSEMBLY
10
525.010197
20
1953.657341
30
0
0
VERTEX
8
ASSEMBLY
10
280.419188
20
1835.868519
30
0
0
VERTEX
8
ASSEMBLY
10
239.200233
20
1921.460562
30
0
0
VERTEX
8
ASSEMBLY
10
483.791242
20
2039.249384
30
0
0
SEQEND
8
ASSEMBLY
0
POLYLINE
8
FINGER
66
1
70
0
10
0
20
0
30
0
0
VERTEX
8
FINGER
10
288.615724
20
1853.209752
30
0
0
VERTEX
8
FINGER
10
253.076805
20
1897.774147
30
0
0
SEQEND
8
FINGER
0
POLYLINE
8
ASSEMBLY
66
1
70
1
10
0
20
0
30
0
0
VERTEX
8
ASSEMBLY
10
307.346077
20
1857.341996
30
0
0
VERTEX
8
ASSEMBLY
10
138.083846
20
1645.093873
30
0
0
VERTEX
8
ASSEMBLY
10
63.809856
20
1704.325404
30
0
0
VERTEX
8
ASSEMBLY
10
233.072086
20
1916.573528
30
0
0
SEQEND
8
ASSEMBLY
0
POLYLINE
8
FINGER
66
1
70
0
10
0
20
0
30
0
0
VERTEX
8
FINGER
10
137.944591
20
1664.274128
30
0
0
VERTEX
8
FINGER
10
86.589365
20
1689.005501
30
0
0
SEQEND
8
FINGER
0
POLYLINE
8
ASSEMBLY
66
1
70
1
10
0
20
0
30
0
0
VERTEX
8
ASSEMBLY
10
153.027142
20
1676.123947
30
0
0
VERTEX
8
ASSEMBLY
10
92.618152
20
1411.454866
30
0
0
VERTEX
8
ASSEMBLY
10
0
20
1432.594355
30
0
0
VERTEX
8
ASSEMBLY
10
60.408991
20
1697.263435
30
0
0
SEQEND
8
ASSEMBLY
0
TEXT
8
TEXT
10
1354.341372
20
2022.493546
30
0
40
15
1
T - FRAME HEAD
72
0
11
1354.341372
21
2022.493546
31
0
73
0
0
TEXT
8
TEXT
10
1354.341372
20
2000.493546
30
0
40
15
1
SEMI-CIRCLE W1200 RISE600 H2000 HINGE R
72
0
11
1354.341372
21
2000.493546
31
0
73
0
0
TEXT
8
TEXT
10
1354.341372
20
1978.493546
30
0
40
15
1
FACE 57 OFFSET 0 OUTER L1885 INNER L1705.9
72
0
11
1354.341372
21
1978.493546
31
0
73
0
0
TEXT
8
TEXT
10
1354.341372
20
1956.493546
30
0
40
15
1
ARC 1 R600 L1885 180DEG: 7 x board 95 L271.5 ROUGH 301.5 (ALT 5 x board 105)
72
0
11
1354.341372
21
1956.493546
31
0
73
0
0
TEXT
8
TEXT
10
1354.341372
20
1934.493546
30
0
40
15
1
FINGER 15/16/3.8
72
0
11
1354.341372
21
1934.493546
31
0
73
0
0
TEXT
8
TEXT
10
1354.341372
20
1912.493546
30
0
40
15
1
ALLOWANCE 10 PER SIDE  MAX SEGMENT 36 DEG  RULE NARROWEST
72
0
11
1354.341372
21
1912.493546
31
0
73
0
0
TEXT
8
TEXT
10
1354.341372
20
1890.493546
30
0
40
15
1
CUT CODES: J = JOINT FROM SQUARE  S = ARCH-START, AXIS TO HORIZONTAL  A = APEX FROM SQUARE
72
0
11
1354.341372
21
1890.493546
31
0
73
0
0
ENDSEC
0
EOF
