0
SECTION
2
HEADER
9
$ACADVER
1
AC1009
0
ENDSEC
0
SECTION
2
TABLES
0
TABLE
2
LAYER
70
6
0
LAYER
2
0
70
0
62
7
6
CONTINUOUS
0
LAYER
2
GLASS_CONTOUR
70
0
62
7
6
CONTINUOUS
0
LAYER
2
GLASS_EDGE
70
0
62
8
6
CONTINUOUS
0
LAYER
2
GLASS_BARS
70
0
62
3
6
CONTINUOUS
0
LAYER
2
GLASS_BAR_AXES
70
0
62
4
6
CONTINUOUS
0
LAYER
2
GLASS_TEXT
70
0
62
2
6
CONTINUOUS
0
ENDTAB
0
ENDSEC
0
SECTION
2
ENTITIES
0
POLYLINE
8
GLASS_CONTOUR
66
1
70
1
10
0
20
0
30
0
0
VERTEX
8
GLASS_CONTOUR
10
0
20
0
30
0
0
VERTEX
8
GLASS_CONTOUR
10
789
20
0
30
0
0
VERTEX
8
GLASS_CONTOUR
10
789
20
832.474596
30
0
42
0.249399
0
VERTEX
8
GLASS_CONTOUR
10
394.5
20
1574.182254
30
0
42
0.249399
0
VERTEX
8
GLASS_CONTOUR
10
0
20
832.474596
30
0
0
SEQEND
8
GLASS_CONTOUR
0
POLYLINE
8
GLASS_EDGE
66
1
70
1
10
0
20
0
30
0
0
VERTEX
8
GLASS_EDGE
10
11
20
11
30
0
0
VERTEX
8
GLASS_EDGE
10
778
20
11
30
0
0
VERTEX
8
GLASS_EDGE
10
778
20
832.474596
30
0
42
0.247165
0
VERTEX
8
GLASS_EDGE
10
394.5
20
1560.878502
30
0
42
0.247165
0
VERTEX
8
GLASS_EDGE
10
11
20
832.474596
30
0
0
SEQEND
8
GLASS_EDGE
0
POLYLINE
8
GLASS_BAR_AXES
66
1
70
0
10
0
20
0
30
0
0
VERTEX
8
GLASS_BAR_AXES
10
0
20
416.237298
30
0
0
VERTEX
8
GLASS_BAR_AXES
10
789
20
416.237298
30
0
0
SEQEND
8
GLASS_BAR_AXES
0
POLYLINE
8
GLASS_BARS
66
1
70
0
10
0
20
0
30
0
0
VERTEX
8
GLASS_BARS
10
0
20
425.237298
30
0
0
VERTEX
8
GLASS_BARS
10
789
20
425.237298
30
0
0
SEQEND
8
GLASS_BARS
0
POLYLINE
8
GLASS_BARS
66
1
70
0
10
0
20
0
30
0
0
VERTEX
8
GLASS_BARS
10
0
20
407.237298
30
0
0
VERTEX
8
GLASS_BARS
10
789
20
407.237298
30
0
0
SEQEND
8
GLASS_BARS
0
POLYLINE
8
GLASS_BAR_AXES
66
1
70
0
10
0
20
0
30
0
0
VERTEX
8
GLASS_BAR_AXES
10
0
20
832.474596
30
0
0
VERTEX
8
GLASS_BAR_AXES
10
789
20
832.474596
30
0
0
SEQEND
8
GLASS_BAR_AXES
0
POLYLINE
8
GLASS_BARS
66
1
70
0
10
0
20
0
30
0
0
VERTEX
8
GLASS_BARS
10
0
20
841.474596
30
0
0
VERTEX
8
GLASS_BARS
10
789
20
841.474596
30
0
0
SEQEND
8
GLASS_BARS
0
POLYLINE
8
GLASS_BARS
66
1
70
0
10
0
20
0
30
0
0
VERTEX
8
GLASS_BARS
10
0
20
823.474596
30
0
0
VERTEX
8
GLASS_BARS
10
789
20
823.474596
30
0
0
SEQEND
8
GLASS_BARS
0
POLYLINE
8
GLASS_BAR_AXES
66
1
70
0
10
0
20
0
30
0
0
VERTEX
8
GLASS_BAR_AXES
10
157.8
20
0
30
0
0
VERTEX
8
GLASS_BAR_AXES
10
157.8
20
832.474596
30
0
0
SEQEND
8
GLASS_BAR_AXES
0
POLYLINE
8
GLASS_BARS
66
1
70
0
10
0
20
0
30
0
0
VERTEX
8
GLASS_BARS
10
148.8
20
0
30
0
0
VERTEX
8
GLASS_BARS
10
148.8
20
832.474596
30
0
0
SEQEND
8
GLASS_BARS
0
POLYLINE
8
GLASS_BARS
66
1
70
0
10
0
20
0
30
0
0
VERTEX
8
GLASS_BARS
10
166.8
20
0
30
0
0
VERTEX
8
GLASS_BARS
10
166.8
20
832.474596
30
0
0
SEQEND
8
GLASS_BARS
0
POLYLINE
8
GLASS_BAR_AXES
66
1
70
0
10
0
20
0
30
0
0
VERTEX
8
GLASS_BAR_AXES
10
157.8
20
832.474596
30
0
42
0.106187
0
VERTEX
8
GLASS_BAR_AXES
10
78.9
20
1199.798554
30
0
0
SEQEND
8
GLASS_BAR_AXES
0
POLYLINE
8
GLASS_BARS
66
1
70
0
10
0
20
0
30
0
0
VERTEX
8
GLASS_BARS
10
166.8
20
832.474596
30
0
42
0.106187
0
VERTEX
8
GLASS_BARS
10
87.106149
20
1203.494379
30
0
0
SEQEND
8
GLASS_BARS
0
POLYLINE
8
GLASS_BARS
66
1
70
0
10
0
20
0
30
0
0
VERTEX
8
GLASS_BARS
10
148.8
20
832.474596
30
0
42
0.106187
0
VERTEX
8
GLASS_BARS
10
70.693851
20
1196.102729
30
0
0
SEQEND
8
GLASS_BARS
0
POLYLINE
8
GLASS_BAR_AXES
66
1
70
0
10
0
20
0
30
0
0
VERTEX
8
GLASS_BAR_AXES
10
473.4
20
1514.387377
30
0
42
0.220189
0
VERTEX
8
GLASS_BAR_AXES
10
157.8
20
832.474596
30
0
0
SEQEND
8
GLASS_BAR_AXES
0
POLYLINE
8
GLASS_BARS
66
1
70
0
10
0
20
0
30
0
0
VERTEX
8
GLASS_BARS
10
467.575405
20
1521.248433
30
0
42
0.220189
0
VERTEX
8
GLASS_BARS
10
148.8
20
832.474596
30
0
0
SEQEND
8
GLASS_BARS
0
POLYLINE
8
GLASS_BARS
66
1
70
0
10
0
20
0
30
0
0
VERTEX
8
GLASS_BARS
10
479.224595
20
1507.52632
30
0
42
0.220189
0
VERTEX
8
GLASS_BARS
10
166.8
20
832.474596
30
0
0
SEQEND
8
GLASS_BARS
0
POLYLINE
8
GLASS_BAR_AXES
66
1
70
0
10
0
20
0
30
0
0
VERTEX
8
GLASS_BAR_AXES
10
315.6
20
0
30
0
0
VERTEX
8
GLASS_BAR_AXES
10
315.6
20
832.474596
30
0
0
SEQEND
8
GLASS_BAR_AXES
0
POLYLINE
8
GLASS_BARS
66
1
70
0
10
0
20
0
30
0
0
VERTEX
8
GLASS_BARS
10
306.6
20
0
30
0
0
VERTEX
8
GLASS_BARS
10
306.6
20
832.474596
30
0
0
SEQEND
8
GLASS_BARS
0
POLYLINE
8
GLASS_BARS
66
1
70
0
10
0
20
0
30
0
0
VERTEX
8
GLASS_BARS
10
324.6
20
0
30
0
0
VERTEX
8
GLASS_BARS
10
324.6
20
832.474596
30
0
0
SEQEND
8
GLASS_BARS
0
POLYLINE
8
GLASS_BAR_AXES
66
1
70
0
10
0
20
0
30
0
0
VERTEX
8
GLASS_BAR_AXES
10
315.6
20
832.474596
30
0
42
0.151925
0
VERTEX
8
GLASS_BAR_AXES
10
157.8
20
1339.823943
30
0
0
SEQEND
8
GLASS_BAR_AXES
0
POLYLINE
8
GLASS_BARS
66
1
70
0
10
0
20
0
30
0
0
VERTEX
8
GLASS_BARS
10
324.6
20
832.474596
30
0
42
0.151925
0
VERTEX
8
GLASS_BARS
10
165.212297
20
1344.928632
30
0
0
SEQEND
8
GLASS_BARS
0
POLYLINE
8
GLASS_BARS
66
1
70
0
10
0
20
0
30
0
0
VERTEX
8
GLASS_BARS
10
306.6
20
832.474596
30
0
42
0.151925
0
VERTEX
8
GLASS_BARS
10
150.387703
20
1334.719255
30
0
0
SEQEND
8
GLASS_BARS
0
POLYLINE
8
GLASS_BAR_AXES
66
1
70
0
10
0
20
0
30
0
0
VERTEX
8
GLASS_BAR_AXES
10
552.3
20
1438.634154
30
0
42
0.188321
0
VERTEX
8
GLASS_BAR_AXES
10
315.6
20
832.474596
30
0
0
SEQEND
8
GLASS_BAR_AXES
0
POLYLINE
8
GLASS_BARS
66
1
70
0
10
0
20
0
30
0
0
VERTEX
8
GLASS_BARS
10
545.681554
20
1444.733021
30
0
42
0.188321
0
VERTEX
8
GLASS_BARS
10
306.6
20
832.474596
30
0
0
SEQEND
8
GLASS_BARS
0
POLYLINE
8
GLASS_BARS
66
1
70
0
10
0
20
0
30
0
0
VERTEX
8
GLASS_BARS
10
558.918446
20
1432.535288
30
0
42
0.188321
0
VERTEX
8
GLASS_BARS
10
324.6
20
832.474596
30
0
0
SEQEND
8
GLASS_BARS
0
POLYLINE
8
GLASS_BAR_AXES
66
1
70
0
10
0
20
0
30
0
0
VERTEX
8
GLASS_BAR_AXES
10
473.4
20
0
30
0
0
VERTEX
8
GLASS_BAR_AXES
10
473.4
20
832.474596
30
0
0
SEQEND
8
GLASS_BAR_AXES
0
POLYLINE
8
GLASS_BARS
66
1
70
0
10
0
20
0
30
0
0
VERTEX
8
GLASS_BARS
10
464.4
20
0
30
0
0
VERTEX
8
GLASS_BARS
10
464.4
20
832.474596
30
0
0
SEQEND
8
GLASS_BARS
0
POLYLINE
8
GLASS_BARS
66
1
70
0
10
0
20
0
30
0
0
VERTEX
8
GLASS_BARS
10
482.4
20
0
30
0
0
VERTEX
8
GLASS_BARS
10
482.4
20
832.474596
30
0
0
SEQEND
8
GLASS_BARS
0
POLYLINE
8
GLASS_BAR_AXES
66
1
70
0
10
0
20
0
30
0
0
VERTEX
8
GLASS_BAR_AXES
10
473.4
20
832.474596
30
0
42
0.188321
0
VERTEX
8
GLASS_BAR_AXES
10
236.7
20
1438.634154
30
0
0
SEQEND
8
GLASS_BAR_AXES
0
POLYLINE
8
GLASS_BARS
66
1
70
0
10
0
20
0
30
0
0
VERTEX
8
GLASS_BARS
10
482.4
20
832.474596
30
0
42
0.188321
0
VERTEX
8
GLASS_BARS
10
243.318446
20
1444.733021
30
0
0
SEQEND
8
GLASS_BARS
0
POLYLINE
8
GLASS_BARS
66
1
70
0
10
0
20
0
30
0
0
VERTEX
8
GLASS_BARS
10
464.4
20
832.474596
30
0
42
0.188321
0
VERTEX
8
GLASS_BARS
10
230.081554
20
1432.535288
30
0
0
SEQEND
8
GLASS_BARS
0
POLYLINE
8
GLASS_BAR_AXES
66
1
70
0
10
0
20
0
30
0
0
VERTEX
8
GLASS_BAR_AXES
10
631.2
20
1339.823943
30
0
42
0.151925
0
VERTEX
8
GLASS_BAR_AXES
10
473.4
20
832.474596
30
0
0
SEQEND
8
GLASS_BAR_AXES
0
POLYLINE
8
GLASS_BARS
66
1
70
0
10
0
20
0
30
0
0
VERTEX
8
GLASS_BARS
10
623.787703
20
1344.928632
30
0
42
0.151925
0
VERTEX
8
GLASS_BARS
10
464.4
20
832.474596
30
0
0
SEQEND
8
GLASS_BARS
0
POLYLINE
8
GLASS_BARS
66
1
70
0
10
0
20
0
30
0
0
VERTEX
8
GLASS_BARS
10
638.612297
20
1334.719255
30
0
42
0.151925
0
VERTEX
8
GLASS_BARS
10
482.4
20
832.474596
30
0
0
SEQEND
8
GLASS_BARS
0
POLYLINE
8
GLASS_BAR_AXES
66
1
70
0
10
0
20
0
30
0
0
VERTEX
8
GLASS_BAR_AXES
10
631.2
20
0
30
0
0
VERTEX
8
GLASS_BAR_AXES
10
631.2
20
832.474596
30
0
0
SEQEND
8
GLASS_BAR_AXES
0
POLYLINE
8
GLASS_BARS
66
1
70
0
10
0
20
0
30
0
0
VERTEX
8
GLASS_BARS
10
622.2
20
0
30
0
0
VERTEX
8
GLASS_BARS
10
622.2
20
832.474596
30
0
0
SEQEND
8
GLASS_BARS
0
POLYLINE
8
GLASS_BARS
66
1
70
0
10
0
20
0
30
0
0
VERTEX
8
GLASS_BARS
10
640.2
20
0
30
0
0
VERTEX
8
GLASS_BARS
10
640.2
20
832.474596
30
0
0
SEQEND
8
GLASS_BARS
0
POLYLINE
8
GLASS_BAR_AXES
66
1
70
0
10
0
20
0
30
0
0
VERTEX
8
GLASS_BAR_AXES
10
631.2
20
832.474596
30
0
42
0.220189
0
VERTEX
8
GLASS_BAR_AXES
10
315.6
20
1514.387377
30
0
0
SEQEND
8
GLASS_BAR_AXES
0
POLYLINE
8
GLASS_BARS
66
1
70
0
10
0
20
0
30
0
0
VERTEX
8
GLASS_BARS
10
640.2
20
832.474596
30
0
42
0.220189
0
VERTEX
8
GLASS_BARS
10
321.424595
20
1521.248433
30
0
0
SEQEND
8
GLASS_BARS
0
POLYLINE
8
GLASS_BARS
66
1
70
0
10
0
20
0
30
0
0
VERTEX
8
GLASS_BARS
10
622.2
20
832.474596
30
0
42
0.220189
0
VERTEX
8
GLASS_BARS
10
309.775405
20
1507.52632
30
0
0
SEQEND
8
GLASS_BARS
0
POLYLINE
8
GLASS_BAR_AXES
66
1
70
0
10
0
20
0
30
0
0
VERTEX
8
GLASS_BAR_AXES
10
710.1
20
1199.798554
30
0
42
0.106187
0
VERTEX
8
GLASS_BAR_AXES
10
631.2
20
832.474596
30
0
0
SEQEND
8
GLASS_BAR_AXES
0
POLYLINE
8
GLASS_BARS
66
1
70
0
10
0
20
0
30
0
0
VERTEX
8
GLASS_BARS
10
701.893851
20
1203.494379
30
0
42
0.106187
0
VERTEX
8
GLASS_BARS
10
622.2
20
832.474596
30
0
0
SEQEND
8
GLASS_BARS
0
POLYLINE
8
GLASS_BARS
66
1
70
0
10
0
20
0
30
0
0
VERTEX
8
GLASS_BARS
10
718.306149
20
1196.102729
30
0
42
0.106187
0
VERTEX
8
GLASS_BARS
10
640.2
20
832.474596
30
0
0
SEQEND
8
GLASS_BARS
0
TEXT
8
GLASS_TEXT
10
889
20
1555.682254
30
0
40
15
1
GO1 - G1 GLASS GOTHIC-EQUILATERAL
72
0
11
889
21
1555.682254
31
0
73
0
0
TEXT
8
GLASS_TEXT
10
889
20
1533.682254
30
0
40
15
1
W789 x H1574.2 RISE 741.7 SPRINGING 832.5 R 894.5/894.5
72
0
11
889
21
1533.682254
31
0
73
0
0
TEXT
8
GLASS_TEXT
10
889
20
1511.682254
30
0
40
15
1
DOUBLE 4X16X4 TOUGHENED ARGON CLEAR SPACER SILVER
72
0
11
889
21
1511.682254
31
0
73
0
0
TEXT
8
GLASS_TEXT
10
889
20
1489.682254
30
0
40
15
1
BARS 14 PATTERN INTERSECTING TOTAL L=9627
72
0
11
889
21
1489.682254
31
0
73
0
0
TEXT
8
GLASS_TEXT
10
889
20
1467.682254
30
0
40
15
1
H1 H Y=416.2 X=0-789 L=789
72
0
11
889
21
1467.682254
31
0
73
0
0
TEXT
8
GLASS_TEXT
10
889
20
1445.682254
30
0
40
15
1
S1 SPRINGING Y=832.5 X=0-789 L=789
72
0
11
889
21
1445.682254
31
0
73
0
0
TEXT
8
GLASS_TEXT
10
889
20
1423.682254
30
0
40
15
1
V1 V X=157.8 Y=0-832.5 L=832.5
72
0
11
889
21
1423.682254
31
0
73
0
0
TEXT
8
GLASS_TEXT
10
889
20
1401.682254
30
0
40
15
1
T1 TRACERY C=(-736.7,832.5) R=894.5 0-24.2DEG L=378.5
72
0
11
889
21
1401.682254
31
0
73
0
0
TEXT
8
GLASS_TEXT
10
889
20
1379.682254
30
0
40
15
1
T2 TRACERY C=(1052.3,832.5) R=894.5 130.3-180DEG L=775.5
72
0
11
889
21
1379.682254
31
0
73
0
0
TEXT
8
GLASS_TEXT
10
889
20
1357.682254
30
0
40
15
1
V2 V X=315.6 Y=0-832.5 L=832.5
72
0
11
889
21
1357.682254
31
0
73
0
0
TEXT
8
GLASS_TEXT
10
889
20
1335.682254
30
0
40
15
1
T3 TRACERY C=(-578.9,832.5) R=894.5 0-34.6DEG L=539.5
72
0
11
889
21
1335.682254
31
0
73
0
0
TEXT
8
GLASS_TEXT
10
889
20
1313.682254
30
0
40
15
1
T4 TRACERY C=(1210.1,832.5) R=894.5 137.3-180DEG L=666
72
0
11
889
21
1313.682254
31
0
73
0
0
TEXT
8
GLASS_TEXT
10
889
20
1291.682254
30
0
40
15
1
V3 V X=473.4 Y=0-832.5 L=832.5
72
0
11
889
21
1291.682254
31
0
73
0
0
TEXT
8
GLASS_TEXT
10
889
20
1269.682254
30
0
40
15
1
T5 TRACERY C=(-421.1,832.5) R=894.5 0-42.7DEG L=666
72
0
11
889
21
1269.682254
31
0
73
0
0
TEXT
8
GLASS_TEXT
10
889
20
1247.682254
30
0
40
15
1
T6 TRACERY C=(1367.9,832.5) R=894.5 145.4-180DEG L=539.5
72
0
11
889
21
1247.682254
31
0
73
0
0
TEXT
8
GLASS_TEXT
10
889
20
1225.682254
30
0
40
15
1
V4 V X=631.2 Y=0-832.5 L=832.5
72
0
11
889
21
1225.682254
31
0
73
0
0
TEXT
8
GLASS_TEXT
10
889
20
1203.682254
30
0
40
15
1
T7 TRACERY C=(-263.3,832.5) R=894.5 0-49.7DEG L=775.5
72
0
11
889
21
1203.682254
31
0
73
0
0
TEXT
8
GLASS_TEXT
10
889
20
1181.682254
30
0
40
15
1
T8 TRACERY C=(1525.7,832.5) R=894.5 155.8-180DEG L=378.5
72
0
11
889
21
1181.682254
31
0
73
0
0
TEXT
8
GLASS_TEXT
10
889
20
1159.682254
30
0
40
15
1
BAR ENDS (TABLE, 14 BARS): ID  S FROM APEX / POSITION  L  ANGLE / R
72
0
11
889
21
1159.682254
31
0
73
0
0
TEXT
8
GLASS_TEXT
10
889
20
1137.682254
30
0
40
15
1
H1  Y 416.2  L=789  0DEG
72
0
11
889
21
1137.682254
31
0
73
0
0
TEXT
8
GLASS_TEXT
10
889
20
1115.682254
30
0
40
15
1
S1  Y 832.5  L=789  0DEG
72
0
11
889
21
1115.682254
31
0
73
0
0
TEXT
8
GLASS_TEXT
10
889
20
1093.682254
30
0
40
15
1
V1  X 157.8  L=832.5  90DEG
72
0
11
889
21
1093.682254
31
0
73
0
0
TEXT
8
GLASS_TEXT
10
889
20
1071.682254
30
0
40
15
1
T1  496 FROM APEX L  L=378.5  R 894.5
72
0
11
889
21
1071.682254
31
0
73
0
0
TEXT
8
GLASS_TEXT
10
889
20
1049.682254
30
0
40
15
1
T2  99 FROM APEX R  L=775.5  R 894.5
72
0
11
889
21
1049.682254
31
0
73
0
0
TEXT
8
GLASS_TEXT
10
889
20
1027.682254
30
0
40
15
1
V2  X 315.6  L=832.5  90DEG
72
0
11
889
21
1027.682254
31
0
73
0
0
TEXT
8
GLASS_TEXT
10
889
20
1005.682254
30
0
40
15
1
T3  335 FROM APEX L  L=539.5  R 894.5
72
0
11
889
21
1005.682254
31
0
73
0
0
TEXT
8
GLASS_TEXT
10
889
20
983.682254
30
0
40
15
1
T4  208.5 FROM APEX R  L=666  R 894.5
72
0
11
889
21
983.682254
31
0
73
0
0
TEXT
8
GLASS_TEXT
10
889
20
961.682254
30
0
40
15
1
V3  X 473.4  L=832.5  90DEG
72
0
11
889
21
961.682254
31
0
73
0
0
TEXT
8
GLASS_TEXT
10
889
20
939.682254
30
0
40
15
1
T5  208.5 FROM APEX L  L=666  R 894.5
72
0
11
889
21
939.682254
31
0
73
0
0
TEXT
8
GLASS_TEXT
10
889
20
917.682254
30
0
40
15
1
T6  335 FROM APEX R  L=539.5  R 894.5
72
0
11
889
21
917.682254
31
0
73
0
0
TEXT
8
GLASS_TEXT
10
889
20
895.682254
30
0
40
15
1
V4  X 631.2  L=832.5  90DEG
72
0
11
889
21
895.682254
31
0
73
0
0
TEXT
8
GLASS_TEXT
10
889
20
873.682254
30
0
40
15
1
T7  99 FROM APEX L  L=775.5  R 894.5
72
0
11
889
21
873.682254
31
0
73
0
0
TEXT
8
GLASS_TEXT
10
889
20
851.682254
30
0
40
15
1
T8  496 FROM APEX R  L=378.5  R 894.5
72
0
11
889
21
851.682254
31
0
73
0
0
ENDSEC
0
EOF
