0
SECTION
2
HEADER
9
$ACADVER
1
AC1009
0
ENDSEC
0
SECTION
2
TABLES
0
TABLE
2
LAYER
70
8
0
LAYER
2
0
70
0
62
7
6
CONTINUOUS
0
LAYER
2
FIT
70
0
62
4
6
CONTINUOUS
0
LAYER
2
CONTOUR
70
0
62
7
6
CONTINUOUS
0
LAYER
2
ASSEMBLY
70
0
62
8
6
CONTINUOUS
0
LAYER
2
PIECES
70
0
62
5
6
CONTINUOUS
0
LAYER
2
FINGER
70
0
62
1
6
CONTINUOUS
0
LAYER
2
CLAMPS
70
0
62
3
6
CONTINUOUS
0
LAYER
2
TEXT
70
0
62
94
6
CONTINUOUS
0
ENDTAB
0
ENDSEC
0
SECTION
2
ENTITIES
0
POLYLINE
8
PIECES
66
1
70
1
10
0
20
0
30
0
0
VERTEX
8
PIECES
10
580.090546
20
0
30
0
0
VERTEX
8
PIECES
10
30.650459
20
0
30
0
0
VERTEX
8
PIECES
10
0
20
120
30
0
0
VERTEX
8
PIECES
10
580.090546
20
120
30
0
0
SEQEND
8
PIECES
0
POLYLINE
8
CLAMPS
66
1
70
1
10
0
20
0
30
0
0
VERTEX
8
CLAMPS
10
66.927562
20
-5
30
0
0
VERTEX
8
CLAMPS
10
196.927562
20
-5
30
0
0
VERTEX
8
CLAMPS
10
196.927562
20
125
30
0
0
VERTEX
8
CLAMPS
10
66.927562
20
125
30
0
0
SEQEND
8
CLAMPS
0
POLYLINE
8
CLAMPS
66
1
70
1
10
0
20
0
30
0
0
VERTEX
8
CLAMPS
10
430.090546
20
-5
30
0
0
VERTEX
8
CLAMPS
10
560.090546
20
-5
30
0
0
VERTEX
8
CLAMPS
10
560.090546
20
125
30
0
0
VERTEX
8
CLAMPS
10
430.090546
20
125
30
0
0
SEQEND
8
CLAMPS
0
TEXT
8
TEXT
10
290.045273
20
70
30
0
40
15
1
SG - S-ARCH TOP RAIL P1 L580.1 x120
72
1
11
290.045273
21
70
31
0
73
2
0
TEXT
8
TEXT
10
290.045273
20
10
30
0
40
10
1
OUT 565.1 IN 534.4 CUT J14.3/Q FINGER ONE END
72
1
11
290.045273
21
10
31
0
73
2
0
POLYLINE
8
PIECES
66
1
70
1
10
0
20
0
30
0
0
VERTEX
8
PIECES
10
1395.511678
20
0
30
0
0
VERTEX
8
PIECES
10
908.844545
20
0
30
0
0
VERTEX
8
PIECES
10
780.090546
20
120
30
0
0
VERTEX
8
PIECES
10
1426.162137
20
120
30
0
0
SEQEND
8
PIECES
0
POLYLINE
8
CLAMPS
66
1
70
1
10
0
20
0
30
0
0
VERTEX
8
CLAMPS
10
949.209295
20
-5
30
0
0
VERTEX
8
CLAMPS
10
1079.209295
20
-5
30
0
0
VERTEX
8
CLAMPS
10
1079.209295
20
125
30
0
0
VERTEX
8
CLAMPS
10
949.209295
20
125
30
0
0
SEQEND
8
CLAMPS
0
POLYLINE
8
CLAMPS
66
1
70
1
10
0
20
0
30
0
0
VERTEX
8
CLAMPS
10
1229.234575
20
-5
30
0
0
VERTEX
8
CLAMPS
10
1359.234575
20
-5
30
0
0
VERTEX
8
CLAMPS
10
1359.234575
20
125
30
0
0
VERTEX
8
CLAMPS
10
1229.234575
20
125
30
0
0
SEQEND
8
CLAMPS
0
TEXT
8
TEXT
10
1103.126341
20
70
30
0
40
15
1
SG - S-ARCH TOP RAIL P2 L646.1 x120
72
1
11
1103.126341
21
70
31
0
73
2
0
TEXT
8
TEXT
10
1103.126341
20
10
30
0
40
10
1
OUT 616.1 IN 456.7 CUT A47/J14.3 FINGER BOTH ENDS
72
1
11
1103.126341
21
10
31
0
73
2
0
POLYLINE
8
PIECES
66
1
70
1
10
0
20
0
30
0
0
VERTEX
8
PIECES
10
2143.479729
20
0
30
0
0
VERTEX
8
PIECES
10
1656.812596
20
0
30
0
0
VERTEX
8
PIECES
10
1626.162137
20
120
30
0
0
VERTEX
8
PIECES
10
2272.233728
20
120
30
0
0
SEQEND
8
PIECES
0
POLYLINE
8
CLAMPS
66
1
70
1
10
0
20
0
30
0
0
VERTEX
8
CLAMPS
10
1693.089699
20
-5
30
0
0
VERTEX
8
CLAMPS
10
1823.089699
20
-5
30
0
0
VERTEX
8
CLAMPS
10
1823.089699
20
125
30
0
0
VERTEX
8
CLAMPS
10
1693.089699
20
125
30
0
0
SEQEND
8
CLAMPS
0
POLYLINE
8
CLAMPS
66
1
70
1
10
0
20
0
30
0
0
VERTEX
8
CLAMPS
10
1973.114979
20
-5
30
0
0
VERTEX
8
CLAMPS
10
2103.114979
20
-5
30
0
0
VERTEX
8
CLAMPS
10
2103.114979
20
125
30
0
0
VERTEX
8
CLAMPS
10
1973.114979
20
125
30
0
0
SEQEND
8
CLAMPS
0
TEXT
8
TEXT
10
1949.197933
20
70
30
0
40
15
1
SG - S-ARCH TOP RAIL P3 L646.1 x120
72
1
11
1949.197933
21
70
31
0
73
2
0
TEXT
8
TEXT
10
1949.197933
20
10
30
0
40
10
1
OUT 616.1 IN 456.7 CUT J14.3/A47 FINGER BOTH ENDS
72
1
11
1949.197933
21
10
31
0
73
2
0
POLYLINE
8
PIECES
66
1
70
1
10
0
20
0
30
0
0
VERTEX
8
PIECES
10
3021.673815
20
0
30
0
0
VERTEX
8
PIECES
10
2472.233728
20
0
30
0
0
VERTEX
8
PIECES
10
2472.233728
20
120
30
0
0
VERTEX
8
PIECES
10
3052.324274
20
120
30
0
0
SEQEND
8
PIECES
0
POLYLINE
8
CLAMPS
66
1
70
1
10
0
20
0
30
0
0
VERTEX
8
CLAMPS
10
2492.233728
20
-5
30
0
0
VERTEX
8
CLAMPS
10
2622.233728
20
-5
30
0
0
VERTEX
8
CLAMPS
10
2622.233728
20
125
30
0
0
VERTEX
8
CLAMPS
10
2492.233728
20
125
30
0
0
SEQEND
8
CLAMPS
0
POLYLINE
8
CLAMPS
66
1
70
1
10
0
20
0
30
0
0
VERTEX
8
CLAMPS
10
2855.396712
20
-5
30
0
0
VERTEX
8
CLAMPS
10
2985.396712
20
-5
30
0
0
VERTEX
8
CLAMPS
10
2985.396712
20
125
30
0
0
VERTEX
8
CLAMPS
10
2855.396712
20
125
30
0
0
SEQEND
8
CLAMPS
0
TEXT
8
TEXT
10
2762.279001
20
70
30
0
40
15
1
SG - S-ARCH TOP RAIL P4 L580.1 x120
72
1
11
2762.279001
21
70
31
0
73
2
0
TEXT
8
TEXT
10
2762.279001
20
10
30
0
40
10
1
OUT 565.1 IN 534.4 CUT Q/J14.3 FINGER ONE END
72
1
11
2762.279001
21
10
31
0
73
2
0
POLYLINE
8
CONTOUR
66
1
70
1
10
0
20
0
30
0
0
VERTEX
8
CONTOUR
10
1070.884041
20
339.76527
30
0
42
0.25542
0
VERTEX
8
CONTOUR
10
559.884041
20
1274.816606
30
0
42
0.25542
0
VERTEX
8
CONTOUR
10
48.884041
20
339.76527
30
0
0
VERTEX
8
CONTOUR
10
105.884041
20
339.76527
30
0
42
-0.246093
0
VERTEX
8
CONTOUR
10
559.884041
20
1206.319366
30
0
42
-0.246093
0
VERTEX
8
CONTOUR
10
1013.884041
20
339.76527
30
0
0
SEQEND
8
CONTOUR
0
POLYLINE
8
ASSEMBLY
66
1
70
1
10
0
20
0
30
0
0
VERTEX
8
ASSEMBLY
10
1003.500781
20
320
30
0
0
VERTEX
8
ASSEMBLY
10
871.239992
20
837.815884
30
0
0
VERTEX
8
ASSEMBLY
10
979.922057
20
897.209987
30
0
0
VERTEX
8
ASSEMBLY
10
1119.768082
20
349.697051
30
0
0
SEQEND
8
ASSEMBLY
0
POLYLINE
8
FINGER
66
1
70
0
10
0
20
0
30
0
0
VERTEX
8
FINGER
10
884.781504
20
845.21624
30
0
0
VERTEX
8
FINGER
10
934.799678
20
872.550875
30
0
0
SEQEND
8
FINGER
0
POLYLINE
8
ASSEMBLY
66
1
70
1
10
0
20
0
30
0
0
VERTEX
8
ASSEMBLY
10
871.239992
20
837.815884
30
0
0
VERTEX
8
ASSEMBLY
10
559.884041
20
1171.88525
30
0
0
VERTEX
8
ASSEMBLY
10
559.884041
20
1347.889774
30
0
0
VERTEX
8
ASSEMBLY
10
979.922057
20
897.209987
30
0
0
SEQEND
8
ASSEMBLY
0
POLYLINE
8
FINGER
66
1
70
0
10
0
20
0
30
0
0
VERTEX
8
FINGER
10
559.884041
20
1206.319366
30
0
0
VERTEX
8
FINGER
10
559.884041
20
1274.816606
30
0
0
SEQEND
8
FINGER
0
POLYLINE
8
ASSEMBLY
66
1
70
1
10
0
20
0
30
0
0
VERTEX
8
ASSEMBLY
10
559.884041
20
1171.88525
30
0
0
VERTEX
8
ASSEMBLY
10
248.52809
20
837.815884
30
0
0
VERTEX
8
ASSEMBLY
10
139.846025
20
897.209987
30
0
0
VERTEX
8
ASSEMBLY
10
559.884041
20
1347.889774
30
0
0
SEQEND
8
ASSEMBLY
0
POLYLINE
8
FINGER
66
1
70
0
10
0
20
0
30
0
0
VERTEX
8
FINGER
10
559.884041
20
1206.319366
30
0
0
VERTEX
8
FINGER
10
559.884041
20
1274.816606
30
0
0
SEQEND
8
FINGER
0
POLYLINE
8
FINGER
66
1
70
0
10
0
20
0
30
0
0
VERTEX
8
FINGER
10
234.986578
20
845.21624
30
0
0
VERTEX
8
FINGER
10
184.968403
20
872.550875
30
0
0
SEQEND
8
FINGER
0
POLYLINE
8
ASSEMBLY
66
1
70
1
10
0
20
0
30
0
0
VERTEX
8
ASSEMBLY
10
248.52809
20
837.815884
30
0
0
VERTEX
8
ASSEMBLY
10
116.2673
20
320
30
0
0
VERTEX
8
ASSEMBLY
10
0
20
349.697051
30
0
0
VERTEX
8
ASSEMBLY
10
139.846025
20
897.209987
30
0
0
SEQEND
8
ASSEMBLY
0
TEXT
8
TEXT
10
1219.768082
20
1329.389774
30
0
40
15
1
SG - S-ARCH TOP RAIL
72
0
11
1219.768082
21
1329.389774
31
0
73
0
0
TEXT
8
TEXT
10
1219.768082
20
1307.389774
30
0
40
15
1
GOTHIC EQUILATERAL W1200 RISE1039.2 H3400 SASH
72
0
11
1219.768082
21
1307.389774
31
0
73
0
0
TEXT
8
TEXT
10
1219.768082
20
1285.389774
30
0
40
15
1
FACE 57 OFFSET 89 OUTER L2222.7 INNER L2034.6
72
0
11
1219.768082
21
1285.389774
31
0
73
0
0
TEXT
8
TEXT
10
1219.768082
20
1263.389774
30
0
40
15
1
SIDE 1 R1111 L1111.3 57.3DEG: FEWEST 2 x board 120 L616.1 ROUGH 646.1 WASTE 44%
72
0
11
1219.768082
21
1263.389774
31
0
73
0
0
TEXT
8
TEXT
10
1219.768082
20
1241.389774
30
0
40
15
1
  NO ECONOMY ALT WITHIN 5 PIECES -> DEFAULT FEWEST
72
0
11
1219.768082
21
1241.389774
31
0
73
0
0
TEXT
8
TEXT
10
1219.768082
20
1219.389774
30
0
40
15
1
SIDE 2 R1111 L1111.3 57.3DEG: FEWEST 2 x board 120 L616.1 ROUGH 646.1 WASTE 44%
72
0
11
1219.768082
21
1219.389774
31
0
73
0
0
TEXT
8
TEXT
10
1219.768082
20
1197.389774
30
0
40
15
1
  NO ECONOMY ALT WITHIN 5 PIECES -> DEFAULT FEWEST
72
0
11
1219.768082
21
1197.389774
31
0
73
0
0
TEXT
8
TEXT
10
1219.768082
20
1175.389774
30
0
40
15
1
FINGER 15/16/3.8
72
0
11
1219.768082
21
1175.389774
31
0
73
0
0
TEXT
8
TEXT
10
1219.768082
20
1153.389774
30
0
40
15
1
ALLOWANCE 10 PER SIDE  LIMITS: OVERALL >= 450 (CLAMP)  SHORTER EDGE >= 400  STOCK MAX 200
72
0
11
1219.768082
21
1153.389774
31
0
73
0
0
TEXT
8
TEXT
10
1219.768082
20
1131.389774
30
0
40
15
1
CLAMPS (SUGGESTION): UNICLAMP 130 x 130, CLEARANCE 20 FROM THE END CUTS, JAWS 40-98, PIECE THICKNESS 57
72
0
11
1219.768082
21
1131.389774
31
0
73
0
0
TEXT
8
TEXT
10
1219.768082
20
1109.389774
30
0
40
15
1
CUT CODES: J = JOINT FROM SQUARE  Q = SQUARE (SPRINGING FACE ROUTED WITH THE CONTOUR)  A = APEX FROM SQUARE
72
0
11
1219.768082
21
1109.389774
31
0
73
0
0
POLYLINE
8
PIECES
66
1
70
1
10
0
20
0
30
0
0
VERTEX
8
PIECES
10
654.021065
20
1547.889774
30
0
0
VERTEX
8
PIECES
10
40.192379
20
1547.889774
30
0
0
VERTEX
8
PIECES
10
0
20
1697.889774
30
0
0
VERTEX
8
PIECES
10
654.021065
20
1697.889774
30
0
0
SEQEND
8
PIECES
0
POLYLINE
8
CLAMPS
66
1
70
1
10
0
20
0
30
0
0
VERTEX
8
CLAMPS
10
72.512887
20
1557.889774
30
0
0
VERTEX
8
CLAMPS
10
202.512887
20
1557.889774
30
0
0
VERTEX
8
CLAMPS
10
202.512887
20
1687.889774
30
0
0
VERTEX
8
CLAMPS
10
72.512887
20
1687.889774
30
0
0
SEQEND
8
CLAMPS
0
POLYLINE
8
CLAMPS
66
1
70
1
10
0
20
0
30
0
0
VERTEX
8
CLAMPS
10
504.021065
20
1557.889774
30
0
0
VERTEX
8
CLAMPS
10
634.021065
20
1557.889774
30
0
0
VERTEX
8
CLAMPS
10
634.021065
20
1687.889774
30
0
0
VERTEX
8
CLAMPS
10
504.021065
20
1687.889774
30
0
0
SEQEND
8
CLAMPS
0
TEXT
8
TEXT
10
327.010533
20
1632.889774
30
0
40
15
1
SG - S-ARCH HEAD P1 L654 x150
72
1
11
327.010533
21
1632.889774
31
0
73
2
0
TEXT
8
TEXT
10
327.010533
20
1557.889774
30
0
40
10
1
OUT 639 IN 598.8 CUT J15/Q FINGER ONE END
72
1
11
327.010533
21
1557.889774
31
0
73
2
0
POLYLINE
8
PIECES
66
1
70
1
10
0
20
0
30
0
0
VERTEX
8
PIECES
10
1537.239404
20
1547.889774
30
0
0
VERTEX
8
PIECES
10
1004.021065
20
1547.889774
30
0
0
VERTEX
8
PIECES
10
854.021065
20
1697.889774
30
0
0
VERTEX
8
PIECES
10
1577.431783
20
1697.889774
30
0
0
SEQEND
8
PIECES
0
POLYLINE
8
CLAMPS
66
1
70
1
10
0
20
0
30
0
0
VERTEX
8
CLAMPS
10
1029.021065
20
1557.889774
30
0
0
VERTEX
8
CLAMPS
10
1159.021065
20
1557.889774
30
0
0
VERTEX
8
CLAMPS
10
1159.021065
20
1687.889774
30
0
0
VERTEX
8
CLAMPS
10
1029.021065
20
1687.889774
30
0
0
SEQEND
8
CLAMPS
0
POLYLINE
8
CLAMPS
66
1
70
1
10
0
20
0
30
0
0
VERTEX
8
CLAMPS
10
1374.918896
20
1557.889774
30
0
0
VERTEX
8
CLAMPS
10
1504.918896
20
1557.889774
30
0
0
VERTEX
8
CLAMPS
10
1504.918896
20
1687.889774
30
0
0
VERTEX
8
CLAMPS
10
1374.918896
20
1687.889774
30
0
0
SEQEND
8
CLAMPS
0
TEXT
8
TEXT
10
1215.726424
20
1632.889774
30
0
40
15
1
SG - S-ARCH HEAD P2 L723.4 x150
72
1
11
1215.726424
21
1632.889774
31
0
73
2
0
TEXT
8
TEXT
10
1215.726424
20
1557.889774
30
0
40
10
1
OUT 693.4 IN 503.2 CUT A45/J15 FINGER BOTH ENDS
72
1
11
1215.726424
21
1557.889774
31
0
73
2
0
POLYLINE
8
PIECES
66
1
70
1
10
0
20
0
30
0
0
VERTEX
8
PIECES
10
2350.8425
20
1547.889774
30
0
0
VERTEX
8
PIECES
10
1817.624161
20
1547.889774
30
0
0
VERTEX
8
PIECES
10
1777.431783
20
1697.889774
30
0
0
VERTEX
8
PIECES
10
2500.8425
20
1697.889774
30
0
0
SEQEND
8
PIECES
0
POLYLINE
8
CLAMPS
66
1
70
1
10
0
20
0
30
0
0
VERTEX
8
CLAMPS
10
1849.944669
20
1557.889774
30
0
0
VERTEX
8
CLAMPS
10
1979.944669
20
1557.889774
30
0
0
VERTEX
8
CLAMPS
10
1979.944669
20
1687.889774
30
0
0
VERTEX
8
CLAMPS
10
1849.944669
20
1687.889774
30
0
0
SEQEND
8
CLAMPS
0
POLYLINE
8
CLAMPS
66
1
70
1
10
0
20
0
30
0
0
VERTEX
8
CLAMPS
10
2195.8425
20
1557.889774
30
0
0
VERTEX
8
CLAMPS
10
2325.8425
20
1557.889774
30
0
0
VERTEX
8
CLAMPS
10
2325.8425
20
1687.889774
30
0
0
VERTEX
8
CLAMPS
10
2195.8425
20
1687.889774
30
0
0
SEQEND
8
CLAMPS
0
TEXT
8
TEXT
10
2139.137141
20
1632.889774
30
0
40
15
1
SG - S-ARCH HEAD P3 L723.4 x150
72
1
11
2139.137141
21
1632.889774
31
0
73
2
0
TEXT
8
TEXT
10
2139.137141
20
1557.889774
30
0
40
10
1
OUT 693.4 IN 503.2 CUT J15/A45 FINGER BOTH ENDS
72
1
11
2139.137141
21
1557.889774
31
0
73
2
0
POLYLINE
8
PIECES
66
1
70
1
10
0
20
0
30
0
0
VERTEX
8
PIECES
10
3314.671186
20
1547.889774
30
0
0
VERTEX
8
PIECES
10
2700.8425
20
1547.889774
30
0
0
VERTEX
8
PIECES
10
2700.8425
20
1697.889774
30
0
0
VERTEX
8
PIECES
10
3354.863565
20
1697.889774
30
0
0
SEQEND
8
PIECES
0
POLYLINE
8
CLAMPS
66
1
70
1
10
0
20
0
30
0
0
VERTEX
8
CLAMPS
10
2720.8425
20
1557.889774
30
0
0
VERTEX
8
CLAMPS
10
2850.8425
20
1557.889774
30
0
0
VERTEX
8
CLAMPS
10
2850.8425
20
1687.889774
30
0
0
VERTEX
8
CLAMPS
10
2720.8425
20
1687.889774
30
0
0
SEQEND
8
CLAMPS
0
POLYLINE
8
CLAMPS
66
1
70
1
10
0
20
0
30
0
0
VERTEX
8
CLAMPS
10
3152.350678
20
1557.889774
30
0
0
VERTEX
8
CLAMPS
10
3282.350678
20
1557.889774
30
0
0
VERTEX
8
CLAMPS
10
3282.350678
20
1687.889774
30
0
0
VERTEX
8
CLAMPS
10
3152.350678
20
1687.889774
30
0
0
SEQEND
8
CLAMPS
0
TEXT
8
TEXT
10
3027.853032
20
1632.889774
30
0
40
15
1
SG - S-ARCH HEAD P4 L654 x150
72
1
11
3027.853032
21
1632.889774
31
0
73
2
0
TEXT
8
TEXT
10
3027.853032
20
1557.889774
30
0
40
10
1
OUT 639 IN 598.8 CUT Q/J15 FINGER ONE END
72
1
11
3027.853032
21
1557.889774
31
0
73
2
0
POLYLINE
8
CONTOUR
66
1
70
1
10
0
20
0
30
0
0
VERTEX
8
CONTOUR
10
1255.706242
20
1924.46568
30
0
42
0.267949
0
VERTEX
8
CONTOUR
10
655.706242
20
2963.696164
30
0
42
0.267949
0
VERTEX
8
CONTOUR
10
55.706242
20
1924.46568
30
0
0
VERTEX
8
CONTOUR
10
135.706242
20
1924.46568
30
0
42
-0.256792
0
VERTEX
8
CONTOUR
10
655.706242
20
2870.192913
30
0
42
-0.256792
0
VERTEX
8
CONTOUR
10
1175.706242
20
1924.46568
30
0
0
SEQEND
8
CONTOUR
0
POLYLINE
8
ASSEMBLY
66
1
70
1
10
0
20
0
30
0
0
VERTEX
8
ASSEMBLY
10
1166.52361
20
1897.889774
30
0
0
VERTEX
8
ASSEMBLY
10
1011.535341
20
2476.313868
30
0
0
VERTEX
8
ASSEMBLY
10
1146.021662
20
2553.959581
30
0
0
VERTEX
8
ASSEMBLY
10
1311.412484
20
1936.712631
30
0
0
SEQEND
8
ASSEMBLY
0
POLYLINE
8
FINGER
66
1
70
0
10
0
20
0
30
0
0
VERTEX
8
FINGER
10
1025.654694
20
2484.46568
30
0
0
VERTEX
8
FINGER
10
1094.936727
20
2524.46568
30
0
0
SEQEND
8
FINGER
0
POLYLINE
8
ASSEMBLY
66
1
70
1
10
0
20
0
30
0
0
VERTEX
8
ASSEMBLY
10
1011.535341
20
2476.313868
30
0
0
VERTEX
8
ASSEMBLY
10
655.706242
20
2832.142967
30
0
0
VERTEX
8
ASSEMBLY
10
655.706242
20
3044.275001
30
0
0
VERTEX
8
ASSEMBLY
10
1146.021662
20
2553.959581
30
0
0
SEQEND
8
ASSEMBLY
0
POLYLINE
8
FINGER
66
1
70
0
10
0
20
0
30
0
0
VERTEX
8
FINGER
10
655.706242
20
2870.192913
30
0
0
VERTEX
8
FINGER
10
655.706242
20
2963.696164
30
0
0
SEQEND
8
FINGER
0
POLYLINE
8
ASSEMBLY
66
1
70
1
10
0
20
0
30
0
0
VERTEX
8
ASSEMBLY
10
655.706242
20
2832.142967
30
0
0
VERTEX
8
ASSEMBLY
10
299.877143
20
2476.313868
30
0
0
VERTEX
8
ASSEMBLY
10
165.390822
20
2553.959581
30
0
0
VERTEX
8
ASSEMBLY
10
655.706242
20
3044.275001
30
0
0
SEQEND
8
ASSEMBLY
0
POLYLINE
8
FINGER
66
1
70
0
10
0
20
0
30
0
0
VERTEX
8
FINGER
10
655.706242
20
2870.192913
30
0
0
VERTEX
8
FINGER
10
655.706242
20
2963.696164
30
0
0
SEQEND
8
FINGER
0
POLYLINE
8
FINGER
66
1
70
0
10
0
20
0
30
0
0
VERTEX
8
FINGER
10
285.75779
20
2484.46568
30
0
0
VERTEX
8
FINGER
10
216.475758
20
2524.46568
30
0
0
SEQEND
8
FINGER
0
POLYLINE
8
ASSEMBLY
66
1
70
1
10
0
20
0
30
0
0
VERTEX
8
ASSEMBLY
10
299.877143
20
2476.313868
30
0
0
VERTEX
8
ASSEMBLY
10
144.888874
20
1897.889774
30
0
0
VERTEX
8
ASSEMBLY
10
0
20
1936.712631
30
0
0
VERTEX
8
ASSEMBLY
10
165.390822
20
2553.959581
30
0
0
SEQEND
8
ASSEMBLY
0
TEXT
8
TEXT
10
1411.412484
20
3025.775001
30
0
40
15
1
SG - S-ARCH HEAD
72
0
11
1411.412484
21
3025.775001
31
0
73
0
0
TEXT
8
TEXT
10
1411.412484
20
3003.775001
30
0
40
15
1
GOTHIC EQUILATERAL W1200 RISE1039.2 H3400 SASH
72
0
11
1411.412484
21
3003.775001
31
0
73
0
0
TEXT
8
TEXT
10
1411.412484
20
2981.775001
30
0
40
15
1
FACE 80 OFFSET 0 OUTER L2513.3 INNER L2252.2
72
0
11
1411.412484
21
2981.775001
31
0
73
0
0
TEXT
8
TEXT
10
1411.412484
20
2959.775001
30
0
40
15
1
SIDE 1 R1200 L1256.6 60DEG: FEWEST 2 x board 150 L693.4 ROUGH 723.4 WASTE 42%
72
0
11
1411.412484
21
2959.775001
31
0
73
0
0
TEXT
8
TEXT
10
1411.412484
20
2937.775001
30
0
40
15
1
  NO ECONOMY ALT WITHIN 5 PIECES -> DEFAULT FEWEST
72
0
11
1411.412484
21
2937.775001
31
0
73
0
0
TEXT
8
TEXT
10
1411.412484
20
2915.775001
30
0
40
15
1
SIDE 2 R1200 L1256.6 60DEG: FEWEST 2 x board 150 L693.4 ROUGH 723.4 WASTE 42%
72
0
11
1411.412484
21
2915.775001
31
0
73
0
0
TEXT
8
TEXT
10
1411.412484
20
2893.775001
30
0
40
15
1
  NO ECONOMY ALT WITHIN 5 PIECES -> DEFAULT FEWEST
72
0
11
1411.412484
21
2893.775001
31
0
73
0
0
TEXT
8
TEXT
10
1411.412484
20
2871.775001
30
0
40
15
1
FINGER 15/16/3.8
72
0
11
1411.412484
21
2871.775001
31
0
73
0
0
TEXT
8
TEXT
10
1411.412484
20
2849.775001
30
0
40
15
1
ALLOWANCE 10 PER SIDE  LIMITS: OVERALL >= 450 (CLAMP)  SHORTER EDGE >= 400  STOCK MAX 200
72
0
11
1411.412484
21
2849.775001
31
0
73
0
0
TEXT
8
TEXT
10
1411.412484
20
2827.775001
30
0
40
15
1
CLAMPS (SUGGESTION): UNICLAMP 130 x 130, CLEARANCE 20 FROM THE END CUTS, JAWS 40-98, PIECE THICKNESS 164
72
0
11
1411.412484
21
2827.775001
31
0
73
0
0
TEXT
8
TEXT
10
1411.412484
20
2805.775001
30
0
40
15
1
WARNING: PIECE THICKNESS 164 OUTSIDE THE UNICLAMP JAWS 40-98
72
0
11
1411.412484
21
2805.775001
31
0
73
0
0
TEXT
8
TEXT
10
1411.412484
20
2783.775001
30
0
40
15
1
CUT CODES: J = JOINT FROM SQUARE  Q = SQUARE (SPRINGING FACE ROUTED WITH THE CONTOUR)  A = APEX FROM SQUARE
72
0
11
1411.412484
21
2783.775001
31
0
73
0
0
POLYLINE
8
FIT
66
1
70
1
10
0
20
0
30
0
0
VERTEX
8
FIT
10
1200
20
3244.275001
30
0
42
0.267949
0
VERTEX
8
FIT
10
600
20
4283.505486
30
0
42
0.267949
0
VERTEX
8
FIT
10
0
20
3244.275001
30
0
0
VERTEX
8
FIT
10
80
20
3244.275001
30
0
42
-0.256792
0
VERTEX
8
FIT
10
600
20
4190.002235
30
0
42
-0.256792
0
VERTEX
8
FIT
10
1120
20
3244.275001
30
0
0
SEQEND
8
FIT
0
POLYLINE
8
FIT
66
1
70
1
10
0
20
0
30
0
0
VERTEX
8
FIT
10
1111
20
3244.275001
30
0
42
0.25542
0
VERTEX
8
FIT
10
600
20
4179.326337
30
0
42
0.25542
0
VERTEX
8
FIT
10
89
20
3244.275001
30
0
0
VERTEX
8
FIT
10
146
20
3244.275001
30
0
42
-0.246093
0
VERTEX
8
FIT
10
600
20
4110.829097
30
0
42
-0.246093
0
VERTEX
8
FIT
10
1054
20
3244.275001
30
0
0
SEQEND
8
FIT
0
POLYLINE
8
FIT
66
1
70
1
10
0
20
0
30
0
0
VERTEX
8
FIT
10
1066.5
20
3244.275001
30
0
42
0.248239
0
VERTEX
8
FIT
10
600
20
4125.990517
30
0
42
0.248239
0
VERTEX
8
FIT
10
133.5
20
3244.275001
30
0
0
SEQEND
8
FIT
0
TEXT
8
TEXT
10
1300
20
4265.005486
30
0
40
15
1
SG - FIT (ASSEMBLY, NOT A TOOLPATH)
72
0
11
1300
21
4265.005486
31
0
73
0
0
TEXT
8
TEXT
10
1300
20
4243.005486
30
0
40
15
1
RUNNING GAP 9 (HEAD 80 FACE, SASH AT THE STILE LINE)
72
0
11
1300
21
4243.005486
31
0
73
0
0
TEXT
8
TEXT
10
1300
20
4221.005486
30
0
40
15
1
HEAD R1200/1200 / 1120/1120
72
0
11
1300
21
4221.005486
31
0
73
0
0
TEXT
8
TEXT
10
1300
20
4199.005486
30
0
40
15
1
TOP RAIL R1111/1111 / 1054/1054  GLASS R1066.5/1066.5
72
0
11
1300
21
4199.005486
31
0
73
0
0
ENDSEC
0
EOF
