0
SECTION
2
HEADER
9
$ACADVER
1
AC1009
0
ENDSEC
0
SECTION
2
TABLES
0
TABLE
2
LAYER
70
8
0
LAYER
2
0
70
0
62
7
6
CONTINUOUS
0
LAYER
2
FIT
70
0
62
4
6
CONTINUOUS
0
LAYER
2
CONTOUR
70
0
62
7
6
CONTINUOUS
0
LAYER
2
ASSEMBLY
70
0
62
8
6
CONTINUOUS
0
LAYER
2
PIECES
70
0
62
5
6
CONTINUOUS
0
LAYER
2
FINGER
70
0
62
1
6
CONTINUOUS
0
LAYER
2
CLAMPS
70
0
62
3
6
CONTINUOUS
0
LAYER
2
TEXT
70
0
62
94
6
CONTINUOUS
0
ENDTAB
0
ENDSEC
0
SECTION
2
ENTITIES
0
POLYLINE
8
PIECES
66
1
70
1
10
0
20
0
30
0
0
VERTEX
8
PIECES
10
582.139134
20
0
30
0
0
VERTEX
8
PIECES
10
130.777655
20
0
30
0
0
VERTEX
8
PIECES
10
0
20
180
30
0
0
VERTEX
8
PIECES
10
712.916789
20
180
30
0
0
SEQEND
8
PIECES
0
POLYLINE
8
CLAMPS
66
1
70
1
10
0
20
0
30
0
0
VERTEX
8
CLAMPS
10
147.614092
20
25
30
0
0
VERTEX
8
CLAMPS
10
277.614092
20
25
30
0
0
VERTEX
8
CLAMPS
10
277.614092
20
155
30
0
0
VERTEX
8
CLAMPS
10
147.614092
20
155
30
0
0
SEQEND
8
CLAMPS
0
POLYLINE
8
CLAMPS
66
1
70
1
10
0
20
0
30
0
0
VERTEX
8
CLAMPS
10
435.302697
20
25
30
0
0
VERTEX
8
CLAMPS
10
565.302697
20
25
30
0
0
VERTEX
8
CLAMPS
10
565.302697
20
155
30
0
0
VERTEX
8
CLAMPS
10
435.302697
20
155
30
0
0
SEQEND
8
CLAMPS
0
TEXT
8
TEXT
10
356.458395
20
100
30
0
40
15
1
CIR - LEAF RING P1 L712.9 x180
72
1
11
356.458395
21
100
31
0
73
2
0
TEXT
8
TEXT
10
356.458395
20
10
30
0
40
10
1
OUT 682.9 IN 421.4 CUT J36/J36 FINGER BOTH ENDS
72
1
11
356.458395
21
10
31
0
73
2
0
POLYLINE
8
PIECES
66
1
70
1
10
0
20
0
30
0
0
VERTEX
8
PIECES
10
1495.055923
20
0
30
0
0
VERTEX
8
PIECES
10
1043.694444
20
0
30
0
0
VERTEX
8
PIECES
10
912.916789
20
180
30
0
0
VERTEX
8
PIECES
10
1625.833578
20
180
30
0
0
SEQEND
8
PIECES
0
POLYLINE
8
CLAMPS
66
1
70
1
10
0
20
0
30
0
0
VERTEX
8
CLAMPS
10
1060.530881
20
25
30
0
0
VERTEX
8
CLAMPS
10
1190.530881
20
25
30
0
0
VERTEX
8
CLAMPS
10
1190.530881
20
155
30
0
0
VERTEX
8
CLAMPS
10
1060.530881
20
155
30
0
0
SEQEND
8
CLAMPS
0
POLYLINE
8
CLAMPS
66
1
70
1
10
0
20
0
30
0
0
VERTEX
8
CLAMPS
10
1348.219487
20
25
30
0
0
VERTEX
8
CLAMPS
10
1478.219487
20
25
30
0
0
VERTEX
8
CLAMPS
10
1478.219487
20
155
30
0
0
VERTEX
8
CLAMPS
10
1348.219487
20
155
30
0
0
SEQEND
8
CLAMPS
0
TEXT
8
TEXT
10
1269.375184
20
100
30
0
40
15
1
CIR - LEAF RING P2 L712.9 x180
72
1
11
1269.375184
21
100
31
0
73
2
0
TEXT
8
TEXT
10
1269.375184
20
10
30
0
40
10
1
OUT 682.9 IN 421.4 CUT J36/J36 FINGER BOTH ENDS
72
1
11
1269.375184
21
10
31
0
73
2
0
POLYLINE
8
PIECES
66
1
70
1
10
0
20
0
30
0
0
VERTEX
8
PIECES
10
2407.972713
20
0
30
0
0
VERTEX
8
PIECES
10
1956.611234
20
0
30
0
0
VERTEX
8
PIECES
10
1825.833578
20
180
30
0
0
VERTEX
8
PIECES
10
2538.750368
20
180
30
0
0
SEQEND
8
PIECES
0
POLYLINE
8
CLAMPS
66
1
70
1
10
0
20
0
30
0
0
VERTEX
8
CLAMPS
10
1973.44767
20
25
30
0
0
VERTEX
8
CLAMPS
10
2103.44767
20
25
30
0
0
VERTEX
8
CLAMPS
10
2103.44767
20
155
30
0
0
VERTEX
8
CLAMPS
10
1973.44767
20
155
30
0
0
SEQEND
8
CLAMPS
0
POLYLINE
8
CLAMPS
66
1
70
1
10
0
20
0
30
0
0
VERTEX
8
CLAMPS
10
2261.136276
20
25
30
0
0
VERTEX
8
CLAMPS
10
2391.136276
20
25
30
0
0
VERTEX
8
CLAMPS
10
2391.136276
20
155
30
0
0
VERTEX
8
CLAMPS
10
2261.136276
20
155
30
0
0
SEQEND
8
CLAMPS
0
TEXT
8
TEXT
10
2182.291973
20
100
30
0
40
15
1
CIR - LEAF RING P3 L712.9 x180
72
1
11
2182.291973
21
100
31
0
73
2
0
TEXT
8
TEXT
10
2182.291973
20
10
30
0
40
10
1
OUT 682.9 IN 421.4 CUT J36/J36 FINGER BOTH ENDS
72
1
11
2182.291973
21
10
31
0
73
2
0
POLYLINE
8
PIECES
66
1
70
1
10
0
20
0
30
0
0
VERTEX
8
PIECES
10
3320.889502
20
0
30
0
0
VERTEX
8
PIECES
10
2869.528023
20
0
30
0
0
VERTEX
8
PIECES
10
2738.750368
20
180
30
0
0
VERTEX
8
PIECES
10
3451.667157
20
180
30
0
0
SEQEND
8
PIECES
0
POLYLINE
8
CLAMPS
66
1
70
1
10
0
20
0
30
0
0
VERTEX
8
CLAMPS
10
2886.36446
20
25
30
0
0
VERTEX
8
CLAMPS
10
3016.36446
20
25
30
0
0
VERTEX
8
CLAMPS
10
3016.36446
20
155
30
0
0
VERTEX
8
CLAMPS
10
2886.36446
20
155
30
0
0
SEQEND
8
CLAMPS
0
POLYLINE
8
CLAMPS
66
1
70
1
10
0
20
0
30
0
0
VERTEX
8
CLAMPS
10
3174.053065
20
25
30
0
0
VERTEX
8
CLAMPS
10
3304.053065
20
25
30
0
0
VERTEX
8
CLAMPS
10
3304.053065
20
155
30
0
0
VERTEX
8
CLAMPS
10
3174.053065
20
155
30
0
0
SEQEND
8
CLAMPS
0
TEXT
8
TEXT
10
3095.208762
20
100
30
0
40
15
1
CIR - LEAF RING P4 L712.9 x180
72
1
11
3095.208762
21
100
31
0
73
2
0
TEXT
8
TEXT
10
3095.208762
20
10
30
0
40
10
1
OUT 682.9 IN 421.4 CUT J36/J36 FINGER BOTH ENDS
72
1
11
3095.208762
21
10
31
0
73
2
0
POLYLINE
8
PIECES
66
1
70
1
10
0
20
0
30
0
0
VERTEX
8
PIECES
10
4233.806291
20
0
30
0
0
VERTEX
8
PIECES
10
3782.444812
20
0
30
0
0
VERTEX
8
PIECES
10
3651.667157
20
180
30
0
0
VERTEX
8
PIECES
10
4364.583946
20
180
30
0
0
SEQEND
8
PIECES
0
POLYLINE
8
CLAMPS
66
1
70
1
10
0
20
0
30
0
0
VERTEX
8
CLAMPS
10
3799.281249
20
25
30
0
0
VERTEX
8
CLAMPS
10
3929.281249
20
25
30
0
0
VERTEX
8
CLAMPS
10
3929.281249
20
155
30
0
0
VERTEX
8
CLAMPS
10
3799.281249
20
155
30
0
0
SEQEND
8
CLAMPS
0
POLYLINE
8
CLAMPS
66
1
70
1
10
0
20
0
30
0
0
VERTEX
8
CLAMPS
10
4086.969854
20
25
30
0
0
VERTEX
8
CLAMPS
10
4216.969854
20
25
30
0
0
VERTEX
8
CLAMPS
10
4216.969854
20
155
30
0
0
VERTEX
8
CLAMPS
10
4086.969854
20
155
30
0
0
SEQEND
8
CLAMPS
0
TEXT
8
TEXT
10
4008.125552
20
100
30
0
40
15
1
CIR - LEAF RING P5 L712.9 x180
72
1
11
4008.125552
21
100
31
0
73
2
0
TEXT
8
TEXT
10
4008.125552
20
10
30
0
40
10
1
OUT 682.9 IN 421.4 CUT J36/J36 FINGER BOTH ENDS
72
1
11
4008.125552
21
10
31
0
73
2
0
POLYLINE
8
CONTOUR
66
1
70
1
10
0
20
0
30
0
0
VERTEX
8
CONTOUR
10
918.977161
20
932.491288
30
0
42
1
0
VERTEX
8
CONTOUR
10
20.977161
20
932.491288
30
0
42
1
0
VERTEX
8
CONTOUR
10
918.977161
20
932.491288
30
0
0
VERTEX
8
CONTOUR
10
851.977161
20
932.491288
30
0
42
-1
0
VERTEX
8
CONTOUR
10
87.977161
20
932.491288
30
0
42
-1
0
VERTEX
8
CONTOUR
10
851.977161
20
932.491288
30
0
0
SEQEND
8
CONTOUR
0
POLYLINE
8
ASSEMBLY
66
1
70
1
10
0
20
0
30
0
0
VERTEX
8
ASSEMBLY
10
828.408644
20
932.491288
30
0
0
VERTEX
8
ASSEMBLY
10
580.73858
20
1273.379886
30
0
0
VERTEX
8
ASSEMBLY
10
649.492463
20
1484.982576
30
0
0
VERTEX
8
ASSEMBLY
10
1050.90088
20
932.491288
30
0
0
SEQEND
8
ASSEMBLY
0
POLYLINE
8
FINGER
66
1
70
0
10
0
20
0
30
0
0
VERTEX
8
FINGER
10
851.977161
20
932.491288
30
0
0
VERTEX
8
FINGER
10
918.977161
20
932.491288
30
0
0
SEQEND
8
FINGER
0
POLYLINE
8
FINGER
66
1
70
0
10
0
20
0
30
0
0
VERTEX
8
FINGER
10
588.021653
20
1295.794877
30
0
0
VERTEX
8
FINGER
10
608.725791
20
1359.515664
30
0
0
SEQEND
8
FINGER
0
POLYLINE
8
ASSEMBLY
66
1
70
1
10
0
20
0
30
0
0
VERTEX
8
ASSEMBLY
10
580.73858
20
1273.379886
30
0
0
VERTEX
8
ASSEMBLY
10
180
20
1143.172028
30
0
0
VERTEX
8
ASSEMBLY
10
0
20
1273.949683
30
0
0
VERTEX
8
ASSEMBLY
10
649.492463
20
1484.982576
30
0
0
SEQEND
8
ASSEMBLY
0
POLYLINE
8
FINGER
66
1
70
0
10
0
20
0
30
0
0
VERTEX
8
FINGER
10
160.932669
20
1157.025255
30
0
0
VERTEX
8
FINGER
10
106.72853
20
1196.406867
30
0
0
SEQEND
8
FINGER
0
POLYLINE
8
ASSEMBLY
66
1
70
1
10
0
20
0
30
0
0
VERTEX
8
ASSEMBLY
10
180
20
1143.172028
30
0
0
VERTEX
8
ASSEMBLY
10
180
20
721.810549
30
0
0
VERTEX
8
ASSEMBLY
10
0
20
591.032894
30
0
0
VERTEX
8
ASSEMBLY
10
0
20
1273.949683
30
0
0
SEQEND
8
ASSEMBLY
0
POLYLINE
8
FINGER
66
1
70
0
10
0
20
0
30
0
0
VERTEX
8
FINGER
10
160.932669
20
707.957322
30
0
0
VERTEX
8
FINGER
10
106.72853
20
668.57571
30
0
0
SEQEND
8
FINGER
0
POLYLINE
8
ASSEMBLY
66
1
70
1
10
0
20
0
30
0
0
VERTEX
8
ASSEMBLY
10
180
20
721.810549
30
0
0
VERTEX
8
ASSEMBLY
10
580.73858
20
591.602691
30
0
0
VERTEX
8
ASSEMBLY
10
649.492463
20
380
30
0
0
VERTEX
8
ASSEMBLY
10
0
20
591.032894
30
0
0
SEQEND
8
ASSEMBLY
0
POLYLINE
8
FINGER
66
1
70
0
10
0
20
0
30
0
0
VERTEX
8
FINGER
10
588.021653
20
569.187699
30
0
0
VERTEX
8
FINGER
10
608.725791
20
505.466912
30
0
0
SEQEND
8
FINGER
0
POLYLINE
8
ASSEMBLY
66
1
70
1
10
0
20
0
30
0
0
VERTEX
8
ASSEMBLY
10
580.73858
20
591.602691
30
0
0
VERTEX
8
ASSEMBLY
10
828.408644
20
932.491288
30
0
0
VERTEX
8
ASSEMBLY
10
1050.90088
20
932.491288
30
0
0
VERTEX
8
ASSEMBLY
10
649.492463
20
380
30
0
0
SEQEND
8
ASSEMBLY
0
TEXT
8
TEXT
10
1150.90088
20
1466.482576
30
0
40
15
1
CIR - LEAF RING
72
0
11
1150.90088
21
1466.482576
31
0
73
0
0
TEXT
8
TEXT
10
1150.90088
20
1444.482576
30
0
40
15
1
CIRCLE W1000 RISE500 H1000 FIXED LEAF
72
0
11
1150.90088
21
1444.482576
31
0
73
0
0
TEXT
8
TEXT
10
1150.90088
20
1422.482576
30
0
40
15
1
FACE 67 OFFSET 51 OUTER L2821.2 INNER L2400.2
72
0
11
1150.90088
21
1422.482576
31
0
73
0
0
TEXT
8
TEXT
10
1150.90088
20
1400.482576
30
0
40
15
1
RING R449 L2821.2 360DEG: FEWEST 4 x board 200 L922 ROUGH 952 WASTE 70%
72
0
11
1150.90088
21
1400.482576
31
0
73
0
0
TEXT
8
TEXT
10
1150.90088
20
1378.482576
30
0
40
15
1
  ECONOMY ALT 5 x board 180 L682.9 ROUGH 712.9 WASTE 65% -> DEFAULT ECONOMY (THRESHOLD 45%)
72
0
11
1150.90088
21
1378.482576
31
0
73
0
0
TEXT
8
TEXT
10
1150.90088
20
1356.482576
30
0
40
15
1
FINGER 15/16/3.8
72
0
11
1150.90088
21
1356.482576
31
0
73
0
0
TEXT
8
TEXT
10
1150.90088
20
1334.482576
30
0
40
15
1
ALLOWANCE 10 PER SIDE  LIMITS: OVERALL >= 450 (CLAMP)  SHORTER EDGE >= 400  STOCK MAX 200
72
0
11
1150.90088
21
1334.482576
31
0
73
0
0
TEXT
8
TEXT
10
1150.90088
20
1312.482576
30
0
40
15
1
CLAMPS (SUGGESTION): UNICLAMP 130 x 130, CLEARANCE 20 FROM THE END CUTS, JAWS 40-98, PIECE THICKNESS 57
72
0
11
1150.90088
21
1312.482576
31
0
73
0
0
TEXT
8
TEXT
10
1150.90088
20
1290.482576
30
0
40
15
1
CUT CODES: J = JOINT FROM SQUARE  Q = SQUARE (SPRINGING FACE ROUTED WITH THE CONTOUR)  A = APEX FROM SQUARE
72
0
11
1150.90088
21
1290.482576
31
0
73
0
0
POLYLINE
8
PIECES
66
1
70
1
10
0
20
0
30
0
0
VERTEX
8
PIECES
10
535.448637
20
1684.982576
30
0
0
VERTEX
8
PIECES
10
86.60254
20
1684.982576
30
0
0
VERTEX
8
PIECES
10
0
20
1834.982576
30
0
0
VERTEX
8
PIECES
10
622.051178
20
1834.982576
30
0
0
SEQEND
8
PIECES
0
POLYLINE
8
CLAMPS
66
1
70
1
10
0
20
0
30
0
0
VERTEX
8
CLAMPS
10
115.829038
20
1694.982576
30
0
0
VERTEX
8
CLAMPS
10
245.829038
20
1694.982576
30
0
0
VERTEX
8
CLAMPS
10
245.829038
20
1824.982576
30
0
0
VERTEX
8
CLAMPS
10
115.829038
20
1824.982576
30
0
0
SEQEND
8
CLAMPS
0
POLYLINE
8
CLAMPS
66
1
70
1
10
0
20
0
30
0
0
VERTEX
8
CLAMPS
10
376.22214
20
1694.982576
30
0
0
VERTEX
8
CLAMPS
10
506.22214
20
1694.982576
30
0
0
VERTEX
8
CLAMPS
10
506.22214
20
1824.982576
30
0
0
VERTEX
8
CLAMPS
10
376.22214
20
1824.982576
30
0
0
SEQEND
8
CLAMPS
0
TEXT
8
TEXT
10
311.025589
20
1769.982576
30
0
40
15
1
CIR - FRAME RING P1 L622.1 x150
72
1
11
311.025589
21
1769.982576
31
0
73
2
0
TEXT
8
TEXT
10
311.025589
20
1694.982576
30
0
40
10
1
OUT 592.1 IN 418.8 CUT J30/J30 FINGER BOTH ENDS
72
1
11
311.025589
21
1694.982576
31
0
73
2
0
POLYLINE
8
PIECES
66
1
70
1
10
0
20
0
30
0
0
VERTEX
8
PIECES
10
1357.499815
20
1684.982576
30
0
0
VERTEX
8
PIECES
10
908.653718
20
1684.982576
30
0
0
VERTEX
8
PIECES
10
822.051178
20
1834.982576
30
0
0
VERTEX
8
PIECES
10
1444.102355
20
1834.982576
30
0
0
SEQEND
8
PIECES
0
POLYLINE
8
CLAMPS
66
1
70
1
10
0
20
0
30
0
0
VERTEX
8
CLAMPS
10
937.880215
20
1694.982576
30
0
0
VERTEX
8
CLAMPS
10
1067.880215
20
1694.982576
30
0
0
VERTEX
8
CLAMPS
10
1067.880215
20
1824.982576
30
0
0
VERTEX
8
CLAMPS
10
937.880215
20
1824.982576
30
0
0
SEQEND
8
CLAMPS
0
POLYLINE
8
CLAMPS
66
1
70
1
10
0
20
0
30
0
0
VERTEX
8
CLAMPS
10
1198.273318
20
1694.982576
30
0
0
VERTEX
8
CLAMPS
10
1328.273318
20
1694.982576
30
0
0
VERTEX
8
CLAMPS
10
1328.273318
20
1824.982576
30
0
0
VERTEX
8
CLAMPS
10
1198.273318
20
1824.982576
30
0
0
SEQEND
8
CLAMPS
0
TEXT
8
TEXT
10
1133.076766
20
1769.982576
30
0
40
15
1
CIR - FRAME RING P2 L622.1 x150
72
1
11
1133.076766
21
1769.982576
31
0
73
2
0
TEXT
8
TEXT
10
1133.076766
20
1694.982576
30
0
40
10
1
OUT 592.1 IN 418.8 CUT J30/J30 FINGER BOTH ENDS
72
1
11
1133.076766
21
1694.982576
31
0
73
2
0
POLYLINE
8
PIECES
66
1
70
1
10
0
20
0
30
0
0
VERTEX
8
PIECES
10
2179.550993
20
1684.982576
30
0
0
VERTEX
8
PIECES
10
1730.704896
20
1684.982576
30
0
0
VERTEX
8
PIECES
10
1644.102355
20
1834.982576
30
0
0
VERTEX
8
PIECES
10
2266.153533
20
1834.982576
30
0
0
SEQEND
8
PIECES
0
POLYLINE
8
CLAMPS
66
1
70
1
10
0
20
0
30
0
0
VERTEX
8
CLAMPS
10
1759.931393
20
1694.982576
30
0
0
VERTEX
8
CLAMPS
10
1889.931393
20
1694.982576
30
0
0
VERTEX
8
CLAMPS
10
1889.931393
20
1824.982576
30
0
0
VERTEX
8
CLAMPS
10
1759.931393
20
1824.982576
30
0
0
SEQEND
8
CLAMPS
0
POLYLINE
8
CLAMPS
66
1
70
1
10
0
20
0
30
0
0
VERTEX
8
CLAMPS
10
2020.324495
20
1694.982576
30
0
0
VERTEX
8
CLAMPS
10
2150.324495
20
1694.982576
30
0
0
VERTEX
8
CLAMPS
10
2150.324495
20
1824.982576
30
0
0
VERTEX
8
CLAMPS
10
2020.324495
20
1824.982576
30
0
0
SEQEND
8
CLAMPS
0
TEXT
8
TEXT
10
1955.127944
20
1769.982576
30
0
40
15
1
CIR - FRAME RING P3 L622.1 x150
72
1
11
1955.127944
21
1769.982576
31
0
73
2
0
TEXT
8
TEXT
10
1955.127944
20
1694.982576
30
0
40
10
1
OUT 592.1 IN 418.8 CUT J30/J30 FINGER BOTH ENDS
72
1
11
1955.127944
21
1694.982576
31
0
73
2
0
POLYLINE
8
PIECES
66
1
70
1
10
0
20
0
30
0
0
VERTEX
8
PIECES
10
3001.60217
20
1684.982576
30
0
0
VERTEX
8
PIECES
10
2552.756073
20
1684.982576
30
0
0
VERTEX
8
PIECES
10
2466.153533
20
1834.982576
30
0
0
VERTEX
8
PIECES
10
3088.204711
20
1834.982576
30
0
0
SEQEND
8
PIECES
0
POLYLINE
8
CLAMPS
66
1
70
1
10
0
20
0
30
0
0
VERTEX
8
CLAMPS
10
2581.982571
20
1694.982576
30
0
0
VERTEX
8
CLAMPS
10
2711.982571
20
1694.982576
30
0
0
VERTEX
8
CLAMPS
10
2711.982571
20
1824.982576
30
0
0
VERTEX
8
CLAMPS
10
2581.982571
20
1824.982576
30
0
0
SEQEND
8
CLAMPS
0
POLYLINE
8
CLAMPS
66
1
70
1
10
0
20
0
30
0
0
VERTEX
8
CLAMPS
10
2842.375673
20
1694.982576
30
0
0
VERTEX
8
CLAMPS
10
2972.375673
20
1694.982576
30
0
0
VERTEX
8
CLAMPS
10
2972.375673
20
1824.982576
30
0
0
VERTEX
8
CLAMPS
10
2842.375673
20
1824.982576
30
0
0
SEQEND
8
CLAMPS
0
TEXT
8
TEXT
10
2777.179122
20
1769.982576
30
0
40
15
1
CIR - FRAME RING P4 L622.1 x150
72
1
11
2777.179122
21
1769.982576
31
0
73
2
0
TEXT
8
TEXT
10
2777.179122
20
1694.982576
30
0
40
10
1
OUT 592.1 IN 418.8 CUT J30/J30 FINGER BOTH ENDS
72
1
11
2777.179122
21
1694.982576
31
0
73
2
0
POLYLINE
8
PIECES
66
1
70
1
10
0
20
0
30
0
0
VERTEX
8
PIECES
10
3823.653348
20
1684.982576
30
0
0
VERTEX
8
PIECES
10
3374.807251
20
1684.982576
30
0
0
VERTEX
8
PIECES
10
3288.204711
20
1834.982576
30
0
0
VERTEX
8
PIECES
10
3910.255888
20
1834.982576
30
0
0
SEQEND
8
PIECES
0
POLYLINE
8
CLAMPS
66
1
70
1
10
0
20
0
30
0
0
VERTEX
8
CLAMPS
10
3404.033748
20
1694.982576
30
0
0
VERTEX
8
CLAMPS
10
3534.033748
20
1694.982576
30
0
0
VERTEX
8
CLAMPS
10
3534.033748
20
1824.982576
30
0
0
VERTEX
8
CLAMPS
10
3404.033748
20
1824.982576
30
0
0
SEQEND
8
CLAMPS
0
POLYLINE
8
CLAMPS
66
1
70
1
10
0
20
0
30
0
0
VERTEX
8
CLAMPS
10
3664.426851
20
1694.982576
30
0
0
VERTEX
8
CLAMPS
10
3794.426851
20
1694.982576
30
0
0
VERTEX
8
CLAMPS
10
3794.426851
20
1824.982576
30
0
0
VERTEX
8
CLAMPS
10
3664.426851
20
1824.982576
30
0
0
SEQEND
8
CLAMPS
0
TEXT
8
TEXT
10
3599.230299
20
1769.982576
30
0
40
15
1
CIR - FRAME RING P5 L622.1 x150
72
1
11
3599.230299
21
1769.982576
31
0
73
2
0
TEXT
8
TEXT
10
3599.230299
20
1694.982576
30
0
40
10
1
OUT 592.1 IN 418.8 CUT J30/J30 FINGER BOTH ENDS
72
1
11
3599.230299
21
1694.982576
31
0
73
2
0
POLYLINE
8
PIECES
66
1
70
1
10
0
20
0
30
0
0
VERTEX
8
PIECES
10
4645.704526
20
1684.982576
30
0
0
VERTEX
8
PIECES
10
4196.858429
20
1684.982576
30
0
0
VERTEX
8
PIECES
10
4110.255888
20
1834.982576
30
0
0
VERTEX
8
PIECES
10
4732.307066
20
1834.982576
30
0
0
SEQEND
8
PIECES
0
POLYLINE
8
CLAMPS
66
1
70
1
10
0
20
0
30
0
0
VERTEX
8
CLAMPS
10
4226.084926
20
1694.982576
30
0
0
VERTEX
8
CLAMPS
10
4356.084926
20
1694.982576
30
0
0
VERTEX
8
CLAMPS
10
4356.084926
20
1824.982576
30
0
0
VERTEX
8
CLAMPS
10
4226.084926
20
1824.982576
30
0
0
SEQEND
8
CLAMPS
0
POLYLINE
8
CLAMPS
66
1
70
1
10
0
20
0
30
0
0
VERTEX
8
CLAMPS
10
4486.478028
20
1694.982576
30
0
0
VERTEX
8
CLAMPS
10
4616.478028
20
1694.982576
30
0
0
VERTEX
8
CLAMPS
10
4616.478028
20
1824.982576
30
0
0
VERTEX
8
CLAMPS
10
4486.478028
20
1824.982576
30
0
0
SEQEND
8
CLAMPS
0
TEXT
8
TEXT
10
4421.281477
20
1769.982576
30
0
40
15
1
CIR - FRAME RING P6 L622.1 x150
72
1
11
4421.281477
21
1769.982576
31
0
73
2
0
TEXT
8
TEXT
10
4421.281477
20
1694.982576
30
0
40
10
1
OUT 592.1 IN 418.8 CUT J30/J30 FINGER BOTH ENDS
72
1
11
4421.281477
21
1694.982576
31
0
73
2
0
POLYLINE
8
CONTOUR
66
1
70
1
10
0
20
0
30
0
0
VERTEX
8
CONTOUR
10
1092.051178
20
2547.713937
30
0
42
1
0
VERTEX
8
CONTOUR
10
92.051178
20
2547.713937
30
0
42
1
0
VERTEX
8
CONTOUR
10
1092.051178
20
2547.713937
30
0
0
VERTEX
8
CONTOUR
10
1024.051178
20
2547.713937
30
0
42
-1
0
VERTEX
8
CONTOUR
10
160.051178
20
2547.713937
30
0
42
-1
0
VERTEX
8
CONTOUR
10
1024.051178
20
2547.713937
30
0
0
SEQEND
8
CONTOUR
0
POLYLINE
8
ASSEMBLY
66
1
70
1
10
0
20
0
30
0
0
VERTEX
8
ASSEMBLY
10
1010.897275
20
2547.713937
30
0
0
VERTEX
8
ASSEMBLY
10
801.474226
20
2910.445297
30
0
0
VERTEX
8
ASSEMBLY
10
888.076766
20
3060.445297
30
0
0
VERTEX
8
ASSEMBLY
10
1184.102355
20
2547.713937
30
0
0
SEQEND
8
ASSEMBLY
0
POLYLINE
8
FINGER
66
1
70
0
10
0
20
0
30
0
0
VERTEX
8
FINGER
10
1024.051178
20
2547.713937
30
0
0
VERTEX
8
FINGER
10
1092.051178
20
2547.713937
30
0
0
SEQEND
8
FINGER
0
POLYLINE
8
FINGER
66
1
70
0
10
0
20
0
30
0
0
VERTEX
8
FINGER
10
808.051178
20
2921.836911
30
0
0
VERTEX
8
FINGER
10
842.051178
20
2980.726639
30
0
0
SEQEND
8
FINGER
0
POLYLINE
8
ASSEMBLY
66
1
70
1
10
0
20
0
30
0
0
VERTEX
8
ASSEMBLY
10
801.474226
20
2910.445297
30
0
0
VERTEX
8
ASSEMBLY
10
382.628129
20
2910.445297
30
0
0
VERTEX
8
ASSEMBLY
10
296.025589
20
3060.445297
30
0
0
VERTEX
8
ASSEMBLY
10
888.076766
20
3060.445297
30
0
0
SEQEND
8
ASSEMBLY
0
POLYLINE
8
FINGER
66
1
70
0
10
0
20
0
30
0
0
VERTEX
8
FINGER
10
376.051178
20
2921.836911
30
0
0
VERTEX
8
FINGER
10
342.051178
20
2980.726639
30
0
0
SEQEND
8
FINGER
0
POLYLINE
8
ASSEMBLY
66
1
70
1
10
0
20
0
30
0
0
VERTEX
8
ASSEMBLY
10
382.628129
20
2910.445297
30
0
0
VERTEX
8
ASSEMBLY
10
173.205081
20
2547.713937
30
0
0
VERTEX
8
ASSEMBLY
10
0
20
2547.713937
30
0
0
VERTEX
8
ASSEMBLY
10
296.025589
20
3060.445297
30
0
0
SEQEND
8
ASSEMBLY
0
POLYLINE
8
FINGER
66
1
70
0
10
0
20
0
30
0
0
VERTEX
8
FINGER
10
160.051178
20
2547.713937
30
0
0
VERTEX
8
FINGER
10
92.051178
20
2547.713937
30
0
0
SEQEND
8
FINGER
0
POLYLINE
8
ASSEMBLY
66
1
70
1
10
0
20
0
30
0
0
VERTEX
8
ASSEMBLY
10
173.205081
20
2547.713937
30
0
0
VERTEX
8
ASSEMBLY
10
382.628129
20
2184.982576
30
0
0
VERTEX
8
ASSEMBLY
10
296.025589
20
2034.982576
30
0
0
VERTEX
8
ASSEMBLY
10
0
20
2547.713937
30
0
0
SEQEND
8
ASSEMBLY
0
POLYLINE
8
FINGER
66
1
70
0
10
0
20
0
30
0
0
VERTEX
8
FINGER
10
376.051178
20
2173.590962
30
0
0
VERTEX
8
FINGER
10
342.051178
20
2114.701235
30
0
0
SEQEND
8
FINGER
0
POLYLINE
8
ASSEMBLY
66
1
70
1
10
0
20
0
30
0
0
VERTEX
8
ASSEMBLY
10
382.628129
20
2184.982576
30
0
0
VERTEX
8
ASSEMBLY
10
801.474226
20
2184.982576
30
0
0
VERTEX
8
ASSEMBLY
10
888.076766
20
2034.982576
30
0
0
VERTEX
8
ASSEMBLY
10
296.025589
20
2034.982576
30
0
0
SEQEND
8
ASSEMBLY
0
POLYLINE
8
FINGER
66
1
70
0
10
0
20
0
30
0
0
VERTEX
8
FINGER
10
808.051178
20
2173.590962
30
0
0
VERTEX
8
FINGER
10
842.051178
20
2114.701235
30
0
0
SEQEND
8
FINGER
0
POLYLINE
8
ASSEMBLY
66
1
70
1
10
0
20
0
30
0
0
VERTEX
8
ASSEMBLY
10
801.474226
20
2184.982576
30
0
0
VERTEX
8
ASSEMBLY
10
1010.897275
20
2547.713937
30
0
0
VERTEX
8
ASSEMBLY
10
1184.102355
20
2547.713937
30
0
0
VERTEX
8
ASSEMBLY
10
888.076766
20
2034.982576
30
0
0
SEQEND
8
ASSEMBLY
0
TEXT
8
TEXT
10
1284.102355
20
3041.945297
30
0
40
15
1
CIR - FRAME RING
72
0
11
1284.102355
21
3041.945297
31
0
73
0
0
TEXT
8
TEXT
10
1284.102355
20
3019.945297
30
0
40
15
1
CIRCLE W1000 RISE500 H1000 FIXED LEAF
72
0
11
1284.102355
21
3019.945297
31
0
73
0
0
TEXT
8
TEXT
10
1284.102355
20
2997.945297
30
0
40
15
1
FACE 68 OFFSET 0 OUTER L3141.6 INNER L2714.3
72
0
11
1284.102355
21
2997.945297
31
0
73
0
0
TEXT
8
TEXT
10
1284.102355
20
2975.945297
30
0
40
15
1
RING R500 L3141.6 360DEG: FEWEST 5 x board 180 L749.4 ROUGH 779.4 WASTE 63%
72
0
11
1284.102355
21
2975.945297
31
0
73
0
0
TEXT
8
TEXT
10
1284.102355
20
2953.945297
30
0
40
15
1
  ECONOMY ALT 6 x board 150 L592.1 ROUGH 622.1 WASTE 54% -> DEFAULT ECONOMY (THRESHOLD 45%)
72
0
11
1284.102355
21
2953.945297
31
0
73
0
0
TEXT
8
TEXT
10
1284.102355
20
2931.945297
30
0
40
15
1
FINGER 15/16/3.8
72
0
11
1284.102355
21
2931.945297
31
0
73
0
0
TEXT
8
TEXT
10
1284.102355
20
2909.945297
30
0
40
15
1
ALLOWANCE 10 PER SIDE  LIMITS: OVERALL >= 450 (CLAMP)  SHORTER EDGE >= 400  STOCK MAX 200
72
0
11
1284.102355
21
2909.945297
31
0
73
0
0
TEXT
8
TEXT
10
1284.102355
20
2887.945297
30
0
40
15
1
CLAMPS (SUGGESTION): UNICLAMP 130 x 130, CLEARANCE 20 FROM THE END CUTS, JAWS 40-98, PIECE THICKNESS 93
72
0
11
1284.102355
21
2887.945297
31
0
73
0
0
TEXT
8
TEXT
10
1284.102355
20
2865.945297
30
0
40
15
1
CUT CODES: J = JOINT FROM SQUARE  Q = SQUARE (SPRINGING FACE ROUTED WITH THE CONTOUR)  A = APEX FROM SQUARE
72
0
11
1284.102355
21
2865.945297
31
0
73
0
0
POLYLINE
8
FIT
66
1
70
1
10
0
20
0
30
0
0
VERTEX
8
FIT
10
1000
20
3713.442574
30
0
42
1
0
VERTEX
8
FIT
10
0
20
3713.442574
30
0
42
1
0
VERTEX
8
FIT
10
1000
20
3713.442574
30
0
0
VERTEX
8
FIT
10
932
20
3713.442574
30
0
42
-1
0
VERTEX
8
FIT
10
68
20
3713.442574
30
0
42
-1
0
VERTEX
8
FIT
10
932
20
3713.442574
30
0
0
SEQEND
8
FIT
0
POLYLINE
8
FIT
66
1
70
1
10
0
20
0
30
0
0
VERTEX
8
FIT
10
949
20
3713.442574
30
0
42
1
0
VERTEX
8
FIT
10
51
20
3713.442574
30
0
42
1
0
VERTEX
8
FIT
10
949
20
3713.442574
30
0
0
VERTEX
8
FIT
10
882
20
3713.442574
30
0
42
-1
0
VERTEX
8
FIT
10
118
20
3713.442574
30
0
42
-1
0
VERTEX
8
FIT
10
882
20
3713.442574
30
0
0
SEQEND
8
FIT
0
POLYLINE
8
FIT
66
1
70
1
10
0
20
0
30
0
0
VERTEX
8
FIT
10
894.5
20
3713.442574
30
0
42
1
0
VERTEX
8
FIT
10
105.5
20
3713.442574
30
0
42
1
0
VERTEX
8
FIT
10
894.5
20
3713.442574
30
0
0
SEQEND
8
FIT
0
POLYLINE
8
FIT
66
1
70
0
10
0
20
0
30
0
0
VERTEX
8
FIT
10
953
20
3713.442574
30
0
42
0.011038
0
VERTEX
8
FIT
10
952.558571
20
3733.436077
30
0
0
SEQEND
8
FIT
0
POLYLINE
8
FIT
66
1
70
0
10
0
20
0
30
0
0
VERTEX
8
FIT
10
952.006986
20
3743.42065
30
0
42
0.011038
0
VERTEX
8
FIT
10
950.243418
20
3763.341113
30
0
0
SEQEND
8
FIT
0
POLYLINE
8
FIT
66
1
70
0
10
0
20
0
30
0
0
VERTEX
8
FIT
10
949.032296
20
3773.267297
30
0
42
0.011038
0
VERTEX
8
FIT
10
945.954322
20
3793.027385
30
0
0
SEQEND
8
FIT
0
POLYLINE
8
FIT
66
1
70
0
10
0
20
0
30
0
0
VERTEX
8
FIT
10
944.088972
20
3802.851662
30
0
42
0.011038
0
VERTEX
8
FIT
10
939.710087
20
3822.364745
30
0
0
SEQEND
8
FIT
0
POLYLINE
8
FIT
66
1
70
0
10
0
20
0
30
0
0
VERTEX
8
FIT
10
937.198687
20
3832.044042
30
0
42
0.011038
0
VERTEX
8
FIT
10
931.538088
20
3851.22457
30
0
0
SEQEND
8
FIT
0
POLYLINE
8
FIT
66
1
70
0
10
0
20
0
30
0
0
VERTEX
8
FIT
10
928.391648
20
3860.716454
30
0
42
0.011038
0
VERTEX
8
FIT
10
921.474153
20
3879.480337
30
0
0
SEQEND
8
FIT
0
POLYLINE
8
FIT
66
1
70
0
10
0
20
0
30
0
0
VERTEX
8
FIT
10
917.706468
20
3888.743192
30
0
42
0.011038
0
VERTEX
8
FIT
10
909.562403
20
3907.008165
30
0
0
SEQEND
8
FIT
0
POLYLINE
8
FIT
66
1
70
0
10
0
20
0
30
0
0
VERTEX
8
FIT
10
905.189991
20
3916.001382
30
0
42
0.011038
0
VERTEX
8
FIT
10
895.855062
20
3933.687369
30
0
0
SEQEND
8
FIT
0
POLYLINE
8
FIT
66
1
70
0
10
0
20
0
30
0
0
VERTEX
8
FIT
10
890.897093
20
3942.37152
30
0
42
0.011038
0
VERTEX
8
FIT
10
880.412225
20
3959.400982
30
0
0
SEQEND
8
FIT
0
POLYLINE
8
FIT
66
1
70
0
10
0
20
0
30
0
0
VERTEX
8
FIT
10
874.890436
20
3967.737995
30
0
42
0.011038
0
VERTEX
8
FIT
10
863.301597
20
3984.036272
30
0
0
SEQEND
8
FIT
0
POLYLINE
8
FIT
66
1
70
0
10
0
20
0
30
0
0
VERTEX
8
FIT
10
857.240195
20
3991.989595
30
0
42
0.011038
0
VERTEX
8
FIT
10
844.598193
20
4007.485233
30
0
0
SEQEND
8
FIT
0
POLYLINE
8
FIT
66
1
70
0
10
0
20
0
30
0
0
VERTEX
8
FIT
10
838.023753
20
4015.019998
30
0
42
0.011038
0
VERTEX
8
FIT
10
824.384011
20
4029.645061
30
0
0
SEQEND
8
FIT
0
POLYLINE
8
FIT
66
1
70
0
10
0
20
0
30
0
0
VERTEX
8
FIT
10
817.325357
20
4036.728234
30
0
42
0.011038
0
VERTEX
8
FIT
10
802.747675
20
4050.418604
30
0
0
SEQEND
8
FIT
0
POLYLINE
8
FIT
66
1
70
0
10
0
20
0
30
0
0
VERTEX
8
FIT
10
795.235752
20
4057.019131
30
0
42
0.011038
0
VERTEX
8
FIT
10
779.784042
20
4069.714787
30
0
0
SEQEND
8
FIT
0
POLYLINE
8
FIT
66
1
70
0
10
0
20
0
30
0
0
VERTEX
8
FIT
10
771.851784
20
4075.80373
30
0
42
0.011038
0
VERTEX
8
FIT
10
755.593788
20
4087.449012
30
0
0
SEQEND
8
FIT
0
POLYLINE
8
FIT
66
1
70
0
10
0
20
0
30
0
0
VERTEX
8
FIT
10
747.275972
20
4092.999676
30
0
42
0.011038
0
VERTEX
8
FIT
10
730.282967
20
4103.543528
30
0
0
SEQEND
8
FIT
0
POLYLINE
8
FIT
66
1
70
0
10
0
20
0
30
0
0
VERTEX
8
FIT
10
721.61606
20
4108.531579
30
0
42
0.011038
0
VERTEX
8
FIT
10
703.962547
20
4117.927777
30
0
0
SEQEND
8
FIT
0
POLYLINE
8
FIT
66
1
70
0
10
0
20
0
30
0
0
VERTEX
8
FIT
10
694.984545
20
4122.331345
30
0
42
0.011038
0
VERTEX
8
FIT
10
676.74792
20
4130.538693
30
0
0
SEQEND
8
FIT
0
POLYLINE
8
FIT
66
1
70
0
10
0
20
0
30
0
0
VERTEX
8
FIT
10
667.498185
20
4134.338473
30
0
42
0.011038
0
VERTEX
8
FIT
10
648.758401
20
4141.320989
30
0
0
SEQEND
8
FIT
0
POLYLINE
8
FIT
66
1
70
0
10
0
20
0
30
0
0
VERTEX
8
FIT
10
639.277484
20
4144.500322
30
0
42
0.011038
0
VERTEX
8
FIT
10
620.116699
20
4150.227393
30
0
0
SEQEND
8
FIT
0
POLYLINE
8
FIT
66
1
70
0
10
0
20
0
30
0
0
VERTEX
8
FIT
10
610.446168
20
4152.772341
30
0
42
0.011038
0
VERTEX
8
FIT
10
590.948385
20
4157.218859
30
0
0
SEQEND
8
FIT
0
POLYLINE
8
FIT
66
1
70
0
10
0
20
0
30
0
0
VERTEX
8
FIT
10
581.130636
20
4159.118263
30
0
42
0.011038
0
VERTEX
8
FIT
10
561.381339
20
4162.264734
30
0
0
SEQEND
8
FIT
0
POLYLINE
8
FIT
66
1
70
0
10
0
20
0
30
0
0
VERTEX
8
FIT
10
551.459414
20
4163.510267
30
0
42
0.011038
0
VERTEX
8
FIT
10
531.545185
20
4165.342896
30
0
0
SEQEND
8
FIT
0
POLYLINE
8
FIT
66
1
70
0
10
0
20
0
30
0
0
VERTEX
8
FIT
10
521.562585
20
4165.929098
30
0
42
0.011038
0
VERTEX
8
FIT
10
501.570733
20
4166.439851
30
0
0
SEQEND
8
FIT
0
POLYLINE
8
FIT
66
1
70
0
10
0
20
0
30
0
0
VERTEX
8
FIT
10
491.571222
20
4166.364152
30
0
42
0.011038
0
VERTEX
8
FIT
10
471.589394
20
4165.550788
30
0
0
SEQEND
8
FIT
0
POLYLINE
8
FIT
66
1
70
0
10
0
20
0
30
0
0
VERTEX
8
FIT
10
461.616813
20
4164.81352
30
0
42
0.011038
0
VERTEX
8
FIT
10
441.732612
20
4162.679606
30
0
0
SEQEND
8
FIT
0
POLYLINE
8
FIT
66
1
70
0
10
0
20
0
30
0
0
VERTEX
8
FIT
10
431.830682
20
4161.284001
30
0
42
0.011038
0
VERTEX
8
FIT
10
412.131284
20
4157.838893
30
0
0
SEQEND
8
FIT
0
POLYLINE
8
FIT
66
1
70
0
10
0
20
0
30
0
0
VERTEX
8
FIT
10
402.343416
20
4155.791069
30
0
42
0.011038
0
VERTEX
8
FIT
10
382.915188
20
4151.049871
30
0
0
SEQEND
8
FIT
0
POLYLINE
8
FIT
66
1
70
0
10
0
20
0
30
0
0
VERTEX
8
FIT
10
373.284294
20
4148.358807
30
0
42
0.011038
0
VERTEX
8
FIT
10
354.212411
20
4142.342304
30
0
0
SEQEND
8
FIT
0
POLYLINE
8
FIT
66
1
70
0
10
0
20
0
30
0
0
VERTEX
8
FIT
10
344.780715
20
4139.019798
30
0
42
0.011038
0
VERTEX
8
FIT
10
326.148792
20
4131.754368
30
0
0
SEQEND
8
FIT
0
POLYLINE
8
FIT
66
1
70
0
10
0
20
0
30
0
0
VERTEX
8
FIT
10
316.957643
20
4127.814986
30
0
42
0.011038
0
VERTEX
8
FIT
10
298.847366
20
4119.332482
30
0
0
SEQEND
8
FIT
0
POLYLINE
8
FIT
66
1
70
0
10
0
20
0
30
0
0
VERTEX
8
FIT
10
289.937061
20
4114.793494
30
0
42
0.011038
0
VERTEX
8
FIT
10
272.427827
20
4105.131106
30
0
0
SEQEND
8
FIT
0
POLYLINE
8
FIT
66
1
70
0
10
0
20
0
30
0
0
VERTEX
8
FIT
10
263.83743
20
4100.012413
30
0
42
0.011038
0
VERTEX
8
FIT
10
247.006003
20
4089.2125
30
0
0
SEQEND
8
FIT
0
POLYLINE
8
FIT
66
1
70
0
10
0
20
0
30
0
0
VERTEX
8
FIT
10
238.773176
20
4083.536543
30
0
42
0.011038
0
VERTEX
8
FIT
10
222.693348
20
4071.646456
30
0
0
SEQEND
8
FIT
0
POLYLINE
8
FIT
66
1
70
0
10
0
20
0
30
0
0
VERTEX
8
FIT
10
214.854184
20
4065.438119
30
0
42
0.011038
0
VERTEX
8
FIT
10
199.596453
20
4052.509984
30
0
0
SEQEND
8
FIT
0
POLYLINE
8
FIT
66
1
70
0
10
0
20
0
30
0
0
VERTEX
8
FIT
10
192.185321
20
4045.796486
30
0
42
0.011038
0
VERTEX
8
FIT
10
177.816578
20
4031.886984
30
0
0
SEQEND
8
FIT
0
POLYLINE
8
FIT
66
1
70
0
10
0
20
0
30
0
0
VERTEX
8
FIT
10
170.865969
20
4024.697758
30
0
42
0.011038
0
VERTEX
8
FIT
10
157.449209
20
4009.867869
30
0
0
SEQEND
8
FIT
0
POLYLINE
8
FIT
66
1
70
0
10
0
20
0
30
0
0
VERTEX
8
FIT
10
150.989596
20
4002.234433
30
0
42
0.011038
0
VERTEX
8
FIT
10
138.583642
20
3986.549175
30
0
0
SEQEND
8
FIT
0
POLYLINE
8
FIT
66
1
70
0
10
0
20
0
30
0
0
VERTEX
8
FIT
10
132.643345
20
3978.504996
30
0
42
0.011038
0
VERTEX
8
FIT
10
121.302585
20
3962.033136
30
0
0
SEQEND
8
FIT
0
POLYLINE
8
FIT
66
1
70
0
10
0
20
0
30
0
0
VERTEX
8
FIT
10
115.907647
20
3953.613481
30
0
42
0.011038
0
VERTEX
8
FIT
10
105.681802
20
3936.427233
30
0
0
SEQEND
8
FIT
0
POLYLINE
8
FIT
66
1
70
0
10
0
20
0
30
0
0
VERTEX
8
FIT
10
100.855876
20
3927.669015
30
0
42
0.011038
0
VERTEX
8
FIT
10
91.789776
20
3909.843728
30
0
0
SEQEND
8
FIT
0
POLYLINE
8
FIT
66
1
70
0
10
0
20
0
30
0
0
VERTEX
8
FIT
10
87.55402
20
3900.785345
30
0
42
0.011038
0
VERTEX
8
FIT
10
79.687414
20
3882.399167
30
0
0
SEQEND
8
FIT
0
POLYLINE
8
FIT
66
1
70
0
10
0
20
0
30
0
0
VERTEX
8
FIT
10
76.060398
20
3873.080331
30
0
42
0.011038
0
VERTEX
8
FIT
10
69.427774
20
3854.213871
30
0
0
SEQEND
8
FIT
0
POLYLINE
8
FIT
66
1
70
0
10
0
20
0
30
0
0
VERTEX
8
FIT
10
66.425399
20
3844.675439
30
0
42
0.011038
0
VERTEX
8
FIT
10
61.055835
20
3825.41141
30
0
0
SEQEND
8
FIT
0
POLYLINE
8
FIT
66
1
70
0
10
0
20
0
30
0
0
VERTEX
8
FIT
10
58.691264
20
3815.6952
30
0
42
0.011038
0
VERTEX
8
FIT
10
54.608303
20
3796.118059
30
0
0
SEQEND
8
FIT
0
POLYLINE
8
FIT
66
1
70
0
10
0
20
0
30
0
0
VERTEX
8
FIT
10
52.891902
20
3786.266667
30
0
42
0.011038
0
VERTEX
8
FIT
10
50.113443
20
3766.462244
30
0
0
SEQEND
8
FIT
0
POLYLINE
8
FIT
66
1
70
0
10
0
20
0
30
0
0
VERTEX
8
FIT
10
49.052738
20
3756.518862
30
0
42
0.011038
0
VERTEX
8
FIT
10
47.590962
20
3736.573982
30
0
0
SEQEND
8
FIT
0
POLYLINE
8
FIT
66
1
70
0
10
0
20
0
30
0
0
VERTEX
8
FIT
10
47.190603
20
3726.582203
30
0
42
0.007253
0
VERTEX
8
FIT
10
47
20
3713.442574
30
0
0
SEQEND
8
FIT
0
POLYLINE
8
FIT
66
1
70
0
10
0
20
0
30
0
0
VERTEX
8
FIT
10
47
20
3713.442574
30
0
42
0.011038
0
VERTEX
8
FIT
10
47.441429
20
3693.449071
30
0
0
SEQEND
8
FIT
0
POLYLINE
8
FIT
66
1
70
0
10
0
20
0
30
0
0
VERTEX
8
FIT
10
47.993014
20
3683.464498
30
0
42
0.011038
0
VERTEX
8
FIT
10
49.756582
20
3663.544034
30
0
0
SEQEND
8
FIT
0
POLYLINE
8
FIT
66
1
70
0
10
0
20
0
30
0
0
VERTEX
8
FIT
10
50.967704
20
3653.617851
30
0
42
0.011038
0
VERTEX
8
FIT
10
54.045678
20
3633.857762
30
0
0
SEQEND
8
FIT
0
POLYLINE
8
FIT
66
1
70
0
10
0
20
0
30
0
0
VERTEX
8
FIT
10
55.911028
20
3624.033486
30
0
42
0.011038
0
VERTEX
8
FIT
10
60.289913
20
3604.520403
30
0
0
SEQEND
8
FIT
0
POLYLINE
8
FIT
66
1
70
0
10
0
20
0
30
0
0
VERTEX
8
FIT
10
62.801313
20
3594.841105
30
0
42
0.011038
0
VERTEX
8
FIT
10
68.461912
20
3575.660577
30
0
0
SEQEND
8
FIT
0
POLYLINE
8
FIT
66
1
70
0
10
0
20
0
30
0
0
VERTEX
8
FIT
10
71.608352
20
3566.168693
30
0
42
0.011038
0
VERTEX
8
FIT
10
78.525847
20
3547.404811
30
0
0
SEQEND
8
FIT
0
POLYLINE
8
FIT
66
1
70
0
10
0
20
0
30
0
0
VERTEX
8
FIT
10
82.293532
20
3538.141955
30
0
42
0.011038
0
VERTEX
8
FIT
10
90.437597
20
3519.876983
30
0
0
SEQEND
8
FIT
0
POLYLINE
8
FIT
66
1
70
0
10
0
20
0
30
0
0
VERTEX
8
FIT
10
94.810009
20
3510.883765
30
0
42
0.011038
0
VERTEX
8
FIT
10
104.144938
20
3493.197779
30
0
0
SEQEND
8
FIT
0
POLYLINE
8
FIT
66
1
70
0
10
0
20
0
30
0
0
VERTEX
8
FIT
10
109.102907
20
3484.513627
30
0
42
0.011038
0
VERTEX
8
FIT
10
119.587775
20
3467.484165
30
0
0
SEQEND
8
FIT
0
POLYLINE
8
FIT
66
1
70
0
10
0
20
0
30
0
0
VERTEX
8
FIT
10
125.109564
20
3459.147153
30
0
42
0.011038
0
VERTEX
8
FIT
10
136.698403
20
3442.848875
30
0
0
SEQEND
8
FIT
0
POLYLINE
8
FIT
66
1
70
0
10
0
20
0
30
0
0
VERTEX
8
FIT
10
142.759805
20
3434.895552
30
0
42
0.011038
0
VERTEX
8
FIT
10
155.401807
20
3419.399914
30
0
0
SEQEND
8
FIT
0
POLYLINE
8
FIT
66
1
70
0
10
0
20
0
30
0
0
VERTEX
8
FIT
10
161.976247
20
3411.86515
30
0
42
0.011038
0
VERTEX
8
FIT
10
175.615989
20
3397.240086
30
0
0
SEQEND
8
FIT
0
POLYLINE
8
FIT
66
1
70
0
10
0
20
0
30
0
0
VERTEX
8
FIT
10
182.674643
20
3390.156913
30
0
42
0.011038
0
VERTEX
8
FIT
10
197.252325
20
3376.466543
30
0
0
SEQEND
8
FIT
0
POLYLINE
8
FIT
66
1
70
0
10
0
20
0
30
0
0
VERTEX
8
FIT
10
204.764248
20
3369.866017
30
0
42
0.011038
0
VERTEX
8
FIT
10
220.215958
20
3357.170361
30
0
0
SEQEND
8
FIT
0
POLYLINE
8
FIT
66
1
70
0
10
0
20
0
30
0
0
VERTEX
8
FIT
10
228.148216
20
3351.081418
30
0
42
0.011038
0
VERTEX
8
FIT
10
244.406212
20
3339.436136
30
0
0
SEQEND
8
FIT
0
POLYLINE
8
FIT
66
1
70
0
10
0
20
0
30
0
0
VERTEX
8
FIT
10
252.724028
20
3333.885472
30
0
42
0.011038
0
VERTEX
8
FIT
10
269.717033
20
3323.341619
30
0
0
SEQEND
8
FIT
0
POLYLINE
8
FIT
66
1
70
0
10
0
20
0
30
0
0
VERTEX
8
FIT
10
278.38394
20
3318.353568
30
0
42
0.011038
0
VERTEX
8
FIT
10
296.037453
20
3308.957371
30
0
0
SEQEND
8
FIT
0
POLYLINE
8
FIT
66
1
70
0
10
0
20
0
30
0
0
VERTEX
8
FIT
10
305.015455
20
3304.553802
30
0
42
0.011038
0
VERTEX
8
FIT
10
323.25208
20
3296.346455
30
0
0
SEQEND
8
FIT
0
POLYLINE
8
FIT
66
1
70
0
10
0
20
0
30
0
0
VERTEX
8
FIT
10
332.501815
20
3292.546674
30
0
42
0.011038
0
VERTEX
8
FIT
10
351.241599
20
3285.564159
30
0
0
SEQEND
8
FIT
0
POLYLINE
8
FIT
66
1
70
0
10
0
20
0
30
0
0
VERTEX
8
FIT
10
360.722516
20
3282.384825
30
0
42
0.011038
0
VERTEX
8
FIT
10
379.883301
20
3276.657754
30
0
0
SEQEND
8
FIT
0
POLYLINE
8
FIT
66
1
70
0
10
0
20
0
30
0
0
VERTEX
8
FIT
10
389.553832
20
3274.112807
30
0
42
0.011038
0
VERTEX
8
FIT
10
409.051615
20
3269.666289
30
0
0
SEQEND
8
FIT
0
POLYLINE
8
FIT
66
1
70
0
10
0
20
0
30
0
0
VERTEX
8
FIT
10
418.869364
20
3267.766885
30
0
42
0.011038
0
VERTEX
8
FIT
10
438.618661
20
3264.620414
30
0
0
SEQEND
8
FIT
0
POLYLINE
8
FIT
66
1
70
0
10
0
20
0
30
0
0
VERTEX
8
FIT
10
448.540586
20
3263.37488
30
0
42
0.011038
0
VERTEX
8
FIT
10
468.454815
20
3261.542251
30
0
0
SEQEND
8
FIT
0
POLYLINE
8
FIT
66
1
70
0
10
0
20
0
30
0
0
VERTEX
8
FIT
10
478.437415
20
3260.956049
30
0
42
0.011038
0
VERTEX
8
FIT
10
498.429267
20
3260.445297
30
0
0
SEQEND
8
FIT
0
POLYLINE
8
FIT
66
1
70
0
10
0
20
0
30
0
0
VERTEX
8
FIT
10
508.428778
20
3260.520996
30
0
42
0.011038
0
VERTEX
8
FIT
10
528.410606
20
3261.334359
30
0
0
SEQEND
8
FIT
0
POLYLINE
8
FIT
66
1
70
0
10
0
20
0
30
0
0
VERTEX
8
FIT
10
538.383187
20
3262.071628
30
0
42
0.011038
0
VERTEX
8
FIT
10
558.267388
20
3264.205541
30
0
0
SEQEND
8
FIT
0
POLYLINE
8
FIT
66
1
70
0
10
0
20
0
30
0
0
VERTEX
8
FIT
10
568.169318
20
3265.601146
30
0
42
0.011038
0
VERTEX
8
FIT
10
587.868716
20
3269.046254
30
0
0
SEQEND
8
FIT
0
POLYLINE
8
FIT
66
1
70
0
10
0
20
0
30
0
0
VERTEX
8
FIT
10
597.656584
20
3271.094078
30
0
42
0.011038
0
VERTEX
8
FIT
10
617.084812
20
3275.835276
30
0
0
SEQEND
8
FIT
0
POLYLINE
8
FIT
66
1
70
0
10
0
20
0
30
0
0
VERTEX
8
FIT
10
626.715706
20
3278.526341
30
0
42
0.011038
0
VERTEX
8
FIT
10
645.787589
20
3284.542843
30
0
0
SEQEND
8
FIT
0
POLYLINE
8
FIT
66
1
70
0
10
0
20
0
30
0
0
VERTEX
8
FIT
10
655.219285
20
3287.86535
30
0
42
0.011038
0
VERTEX
8
FIT
10
673.851208
20
3295.130779
30
0
0
SEQEND
8
FIT
0
POLYLINE
8
FIT
66
1
70
0
10
0
20
0
30
0
0
VERTEX
8
FIT
10
683.042357
20
3299.070162
30
0
42
0.011038
0
VERTEX
8
FIT
10
701.152634
20
3307.552665
30
0
0
SEQEND
8
FIT
0
POLYLINE
8
FIT
66
1
70
0
10
0
20
0
30
0
0
VERTEX
8
FIT
10
710.062939
20
3312.091653
30
0
42
0.011038
0
VERTEX
8
FIT
10
727.572173
20
3321.754042
30
0
0
SEQEND
8
FIT
0
POLYLINE
8
FIT
66
1
70
0
10
0
20
0
30
0
0
VERTEX
8
FIT
10
736.16257
20
3326.872735
30
0
42
0.011038
0
VERTEX
8
FIT
10
752.993997
20
3337.672647
30
0
0
SEQEND
8
FIT
0
POLYLINE
8
FIT
66
1
70
0
10
0
20
0
30
0
0
VERTEX
8
FIT
10
761.226824
20
3343.348604
30
0
42
0.011038
0
VERTEX
8
FIT
10
777.306652
20
3355.238692
30
0
0
SEQEND
8
FIT
0
POLYLINE
8
FIT
66
1
70
0
10
0
20
0
30
0
0
VERTEX
8
FIT
10
785.145816
20
3361.447029
30
0
42
0.011038
0
VERTEX
8
FIT
10
800.403547
20
3374.375163
30
0
0
SEQEND
8
FIT
0
POLYLINE
8
FIT
66
1
70
0
10
0
20
0
30
0
0
VERTEX
8
FIT
10
807.814679
20
3381.088661
30
0
42
0.011038
0
VERTEX
8
FIT
10
822.183422
20
3394.998164
30
0
0
SEQEND
8
FIT
0
POLYLINE
8
FIT
66
1
70
0
10
0
20
0
30
0
0
VERTEX
8
FIT
10
829.134031
20
3402.18739
30
0
42
0.011038
0
VERTEX
8
FIT
10
842.550791
20
3417.017278
30
0
0
SEQEND
8
FIT
0
POLYLINE
8
FIT
66
1
70
0
10
0
20
0
30
0
0
VERTEX
8
FIT
10
849.010404
20
3424.650714
30
0
42
0.011038
0
VERTEX
8
FIT
10
861.416358
20
3440.335972
30
0
0
SEQEND
8
FIT
0
POLYLINE
8
FIT
66
1
70
0
10
0
20
0
30
0
0
VERTEX
8
FIT
10
867.356655
20
3448.380151
30
0
42
0.011038
0
VERTEX
8
FIT
10
878.697415
20
3464.852011
30
0
0
SEQEND
8
FIT
0
POLYLINE
8
FIT
66
1
70
0
10
0
20
0
30
0
0
VERTEX
8
FIT
10
884.092353
20
3473.271667
30
0
42
0.011038
0
VERTEX
8
FIT
10
894.318198
20
3490.457914
30
0
0
SEQEND
8
FIT
0
POLYLINE
8
FIT
66
1
70
0
10
0
20
0
30
0
0
VERTEX
8
FIT
10
899.144124
20
3499.216132
30
0
42
0.011038
0
VERTEX
8
FIT
10
908.210224
20
3517.041419
30
0
0
SEQEND
8
FIT
0
POLYLINE
8
FIT
66
1
70
0
10
0
20
0
30
0
0
VERTEX
8
FIT
10
912.44598
20
3526.099803
30
0
42
0.011038
0
VERTEX
8
FIT
10
920.312586
20
3544.485981
30
0
0
SEQEND
8
FIT
0
POLYLINE
8
FIT
66
1
70
0
10
0
20
0
30
0
0
VERTEX
8
FIT
10
923.939602
20
3553.804816
30
0
42
0.011038
0
VERTEX
8
FIT
10
930.572226
20
3572.671276
30
0
0
SEQEND
8
FIT
0
POLYLINE
8
FIT
66
1
70
0
10
0
20
0
30
0
0
VERTEX
8
FIT
10
933.574601
20
3582.209708
30
0
42
0.011038
0
VERTEX
8
FIT
10
938.944165
20
3601.473737
30
0
0
SEQEND
8
FIT
0
POLYLINE
8
FIT
66
1
70
0
10
0
20
0
30
0
0
VERTEX
8
FIT
10
941.308736
20
3611.189948
30
0
42
0.011038
0
VERTEX
8
FIT
10
945.391697
20
3630.767089
30
0
0
SEQEND
8
FIT
0
POLYLINE
8
FIT
66
1
70
0
10
0
20
0
30
0
0
VERTEX
8
FIT
10
947.108098
20
3640.61848
30
0
42
0.011038
0
VERTEX
8
FIT
10
949.886557
20
3660.422904
30
0
0
SEQEND
8
FIT
0
POLYLINE
8
FIT
66
1
70
0
10
0
20
0
30
0
0
VERTEX
8
FIT
10
950.947262
20
3670.366286
30
0
42
0.011038
0
VERTEX
8
FIT
10
952.409038
20
3690.311166
30
0
0
SEQEND
8
FIT
0
POLYLINE
8
FIT
66
1
70
0
10
0
20
0
30
0
0
VERTEX
8
FIT
10
952.809397
20
3700.302945
30
0
42
0.007253
0
VERTEX
8
FIT
10
953
20
3713.442574
30
0
0
SEQEND
8
FIT
0
TEXT
8
TEXT
10
1100
20
4147.939851
30
0
40
15
1
CIR - FIT (ASSEMBLY, NOT A TOOLPATH)
72
0
11
1100
21
4147.939851
31
0
73
0
0
TEXT
8
TEXT
10
1100
20
4125.939851
30
0
40
15
1
GAP 4 LAP 17 (REBATE)
72
0
11
1100
21
4125.939851
31
0
73
0
0
TEXT
8
TEXT
10
1100
20
4103.939851
30
0
40
15
1
FRAME R500/500 / 432/432  REBATE WALL R453/453 (LAND 47, DASHED)
72
0
11
1100
21
4103.939851
31
0
73
0
0
TEXT
8
TEXT
10
1100
20
4081.939851
30
0
40
15
1
LEAF R449/449 / 382/382  GLASS R394.5/394.5
72
0
11
1100
21
4081.939851
31
0
73
0
0
ENDSEC
0
EOF
