0
SECTION
2
HEADER
9
$ACADVER
1
AC1009
0
ENDSEC
0
SECTION
2
TABLES
0
TABLE
2
LAYER
70
7
0
LAYER
2
0
70
0
62
7
6
CONTINUOUS
0
LAYER
2
FIT
70
0
62
4
6
CONTINUOUS
0
LAYER
2
CONTOUR
70
0
62
7
6
CONTINUOUS
0
LAYER
2
ASSEMBLY
70
0
62
8
6
CONTINUOUS
0
LAYER
2
PIECES
70
0
62
5
6
CONTINUOUS
0
LAYER
2
FINGER
70
0
62
1
6
CONTINUOUS
0
LAYER
2
TEXT
70
0
62
94
6
CONTINUOUS
0
ENDTAB
0
ENDSEC
0
SECTION
2
ENTITIES
0
POLYLINE
8
ASSEMBLY
66
1
70
1
10
0
20
0
30
0
0
VERTEX
8
ASSEMBLY
10
0
20
0
30
0
0
VERTEX
8
ASSEMBLY
10
413.643103
20
0
30
0
0
VERTEX
8
ASSEMBLY
10
413.643103
20
105
30
0
0
VERTEX
8
ASSEMBLY
10
0
20
105
30
0
0
SEQEND
8
ASSEMBLY
0
POLYLINE
8
PIECES
66
1
70
1
10
0
20
0
30
0
0
VERTEX
8
PIECES
10
411.9395
20
76.958667
30
0
42
0.085807
0
VERTEX
8
PIECES
10
16.703603
20
76.958667
30
0
0
VERTEX
8
PIECES
10
28.117743
20
10.938084
30
0
42
-0.085807
0
VERTEX
8
PIECES
10
400.52536
20
10.938084
30
0
0
SEQEND
8
PIECES
0
POLYLINE
8
FINGER
66
1
70
0
10
0
20
0
30
0
0
VERTEX
8
FINGER
10
28.117743
20
10.938084
30
0
0
VERTEX
8
FINGER
10
16.703603
20
76.958667
30
0
0
SEQEND
8
FINGER
0
POLYLINE
8
FINGER
66
1
70
0
10
0
20
0
30
0
0
VERTEX
8
FINGER
10
16
20
0
30
0
0
VERTEX
8
FINGER
10
16
20
105
30
0
0
SEQEND
8
FINGER
0
TEXT
8
TEXT
10
206.821552
20
62.5
30
0
40
15
1
T - LEAF TOP P1 L413.6 x105
72
1
11
206.821552
21
62.5
31
0
73
2
0
TEXT
8
TEXT
10
206.821552
20
10
30
0
40
10
1
OUT 398.6 IN 369 CUT J9.8/S80.2 FINGER ONE END
72
1
11
206.821552
21
10
31
0
73
2
0
POLYLINE
8
ASSEMBLY
66
1
70
1
10
0
20
0
30
0
0
VERTEX
8
ASSEMBLY
10
613.643103
20
0
30
0
0
VERTEX
8
ASSEMBLY
10
1042.286207
20
0
30
0
0
VERTEX
8
ASSEMBLY
10
1042.286207
20
105
30
0
0
VERTEX
8
ASSEMBLY
10
613.643103
20
105
30
0
0
SEQEND
8
ASSEMBLY
0
POLYLINE
8
PIECES
66
1
70
1
10
0
20
0
30
0
0
VERTEX
8
PIECES
10
1025.582604
20
76.958667
30
0
42
0.085807
0
VERTEX
8
PIECES
10
630.346706
20
76.958667
30
0
0
VERTEX
8
PIECES
10
641.760846
20
10.938084
30
0
42
-0.085807
0
VERTEX
8
PIECES
10
1014.168463
20
10.938084
30
0
0
SEQEND
8
PIECES
0
POLYLINE
8
FINGER
66
1
70
0
10
0
20
0
30
0
0
VERTEX
8
FINGER
10
1014.168463
20
10.938084
30
0
0
VERTEX
8
FINGER
10
1025.582604
20
76.958667
30
0
0
SEQEND
8
FINGER
0
POLYLINE
8
FINGER
66
1
70
0
10
0
20
0
30
0
0
VERTEX
8
FINGER
10
641.760846
20
10.938084
30
0
0
VERTEX
8
FINGER
10
630.346706
20
76.958667
30
0
0
SEQEND
8
FINGER
0
POLYLINE
8
FINGER
66
1
70
0
10
0
20
0
30
0
0
VERTEX
8
FINGER
10
629.643103
20
0
30
0
0
VERTEX
8
FINGER
10
629.643103
20
105
30
0
0
SEQEND
8
FINGER
0
POLYLINE
8
FINGER
66
1
70
0
10
0
20
0
30
0
0
VERTEX
8
FINGER
10
1026.286207
20
0
30
0
0
VERTEX
8
FINGER
10
1026.286207
20
105
30
0
0
SEQEND
8
FINGER
0
TEXT
8
TEXT
10
827.964655
20
62.5
30
0
40
15
1
T - LEAF TOP P2 L428.6 x105
72
1
11
827.964655
21
62.5
31
0
73
2
0
TEXT
8
TEXT
10
827.964655
20
10
30
0
40
10
1
OUT 398.6 IN 369 CUT J9.8/J9.8 FINGER BOTH ENDS
72
1
11
827.964655
21
10
31
0
73
2
0
POLYLINE
8
ASSEMBLY
66
1
70
1
10
0
20
0
30
0
0
VERTEX
8
ASSEMBLY
10
1242.286207
20
0
30
0
0
VERTEX
8
ASSEMBLY
10
1676.872717
20
0
30
0
0
VERTEX
8
ASSEMBLY
10
1676.872717
20
105
30
0
0
VERTEX
8
ASSEMBLY
10
1242.286207
20
105
30
0
0
SEQEND
8
ASSEMBLY
0
POLYLINE
8
PIECES
66
1
70
1
10
0
20
0
30
0
0
VERTEX
8
PIECES
10
1660.169114
20
76.958667
30
0
42
0.085807
0
VERTEX
8
PIECES
10
1264.933216
20
76.958667
30
0
0
VERTEX
8
PIECES
10
1316.835951
20
17.159048
30
0
42
-0.076376
0
VERTEX
8
PIECES
10
1648.754974
20
10.938084
30
0
0
SEQEND
8
PIECES
0
POLYLINE
8
FINGER
66
1
70
0
10
0
20
0
30
0
0
VERTEX
8
FINGER
10
1648.754974
20
10.938084
30
0
0
VERTEX
8
FINGER
10
1660.169114
20
76.958667
30
0
0
SEQEND
8
FINGER
0
POLYLINE
8
FINGER
66
1
70
0
10
0
20
0
30
0
0
VERTEX
8
FINGER
10
1316.835951
20
17.159048
30
0
0
VERTEX
8
FINGER
10
1264.933216
20
76.958667
30
0
0
SEQEND
8
FINGER
0
POLYLINE
8
FINGER
66
1
70
0
10
0
20
0
30
0
0
VERTEX
8
FINGER
10
1258.286207
20
0
30
0
0
VERTEX
8
FINGER
10
1258.286207
20
105
30
0
0
SEQEND
8
FINGER
0
POLYLINE
8
FINGER
66
1
70
0
10
0
20
0
30
0
0
VERTEX
8
FINGER
10
1660.872717
20
0
30
0
0
VERTEX
8
FINGER
10
1660.872717
20
105
30
0
0
SEQEND
8
FINGER
0
TEXT
8
TEXT
10
1459.579462
20
62.5
30
0
40
15
1
T - LEAF TOP P3 L434.6 x105
72
1
11
1459.579462
21
62.5
31
0
73
2
0
TEXT
8
TEXT
10
1459.579462
20
10
30
0
40
10
1
OUT 404.6 IN 322.4 CUT A49/J9.8 FINGER BOTH ENDS
72
1
11
1459.579462
21
10
31
0
73
2
0
POLYLINE
8
ASSEMBLY
66
1
70
1
10
0
20
0
30
0
0
VERTEX
8
ASSEMBLY
10
1876.872717
20
0
30
0
0
VERTEX
8
ASSEMBLY
10
2311.459227
20
0
30
0
0
VERTEX
8
ASSEMBLY
10
2311.459227
20
105
30
0
0
VERTEX
8
ASSEMBLY
10
1876.872717
20
105
30
0
0
SEQEND
8
ASSEMBLY
0
POLYLINE
8
PIECES
66
1
70
1
10
0
20
0
30
0
0
VERTEX
8
PIECES
10
2288.812217
20
76.958667
30
0
42
0.085807
0
VERTEX
8
PIECES
10
1893.57632
20
76.958667
30
0
0
VERTEX
8
PIECES
10
1904.99046
20
10.938084
30
0
42
-0.076376
0
VERTEX
8
PIECES
10
2236.909483
20
17.159048
30
0
0
SEQEND
8
PIECES
0
POLYLINE
8
FINGER
66
1
70
0
10
0
20
0
30
0
0
VERTEX
8
FINGER
10
2236.909483
20
17.159048
30
0
0
VERTEX
8
FINGER
10
2288.812217
20
76.958667
30
0
0
SEQEND
8
FINGER
0
POLYLINE
8
FINGER
66
1
70
0
10
0
20
0
30
0
0
VERTEX
8
FINGER
10
1904.99046
20
10.938084
30
0
0
VERTEX
8
FINGER
10
1893.57632
20
76.958667
30
0
0
SEQEND
8
FINGER
0
POLYLINE
8
FINGER
66
1
70
0
10
0
20
0
30
0
0
VERTEX
8
FINGER
10
1892.872717
20
0
30
0
0
VERTEX
8
FINGER
10
1892.872717
20
105
30
0
0
SEQEND
8
FINGER
0
POLYLINE
8
FINGER
66
1
70
0
10
0
20
0
30
0
0
VERTEX
8
FINGER
10
2295.459227
20
0
30
0
0
VERTEX
8
FINGER
10
2295.459227
20
105
30
0
0
SEQEND
8
FINGER
0
TEXT
8
TEXT
10
2094.165972
20
62.5
30
0
40
15
1
T - LEAF TOP P4 L434.6 x105
72
1
11
2094.165972
21
62.5
31
0
73
2
0
TEXT
8
TEXT
10
2094.165972
20
10
30
0
40
10
1
OUT 404.6 IN 322.4 CUT J9.8/A49 FINGER BOTH ENDS
72
1
11
2094.165972
21
10
31
0
73
2
0
POLYLINE
8
ASSEMBLY
66
1
70
1
10
0
20
0
30
0
0
VERTEX
8
ASSEMBLY
10
2511.459227
20
0
30
0
0
VERTEX
8
ASSEMBLY
10
2940.10233
20
0
30
0
0
VERTEX
8
ASSEMBLY
10
2940.10233
20
105
30
0
0
VERTEX
8
ASSEMBLY
10
2511.459227
20
105
30
0
0
SEQEND
8
ASSEMBLY
0
POLYLINE
8
PIECES
66
1
70
1
10
0
20
0
30
0
0
VERTEX
8
PIECES
10
2923.398727
20
76.958667
30
0
42
0.085807
0
VERTEX
8
PIECES
10
2528.16283
20
76.958667
30
0
0
VERTEX
8
PIECES
10
2539.57697
20
10.938084
30
0
42
-0.085807
0
VERTEX
8
PIECES
10
2911.984587
20
10.938084
30
0
0
SEQEND
8
PIECES
0
POLYLINE
8
FINGER
66
1
70
0
10
0
20
0
30
0
0
VERTEX
8
FINGER
10
2911.984587
20
10.938084
30
0
0
VERTEX
8
FINGER
10
2923.398727
20
76.958667
30
0
0
SEQEND
8
FINGER
0
POLYLINE
8
FINGER
66
1
70
0
10
0
20
0
30
0
0
VERTEX
8
FINGER
10
2539.57697
20
10.938084
30
0
0
VERTEX
8
FINGER
10
2528.16283
20
76.958667
30
0
0
SEQEND
8
FINGER
0
POLYLINE
8
FINGER
66
1
70
0
10
0
20
0
30
0
0
VERTEX
8
FINGER
10
2527.459227
20
0
30
0
0
VERTEX
8
FINGER
10
2527.459227
20
105
30
0
0
SEQEND
8
FINGER
0
POLYLINE
8
FINGER
66
1
70
0
10
0
20
0
30
0
0
VERTEX
8
FINGER
10
2924.10233
20
0
30
0
0
VERTEX
8
FINGER
10
2924.10233
20
105
30
0
0
SEQEND
8
FINGER
0
TEXT
8
TEXT
10
2725.780779
20
62.5
30
0
40
15
1
T - LEAF TOP P5 L428.6 x105
72
1
11
2725.780779
21
62.5
31
0
73
2
0
TEXT
8
TEXT
10
2725.780779
20
10
30
0
40
10
1
OUT 398.6 IN 369 CUT J9.8/J9.8 FINGER BOTH ENDS
72
1
11
2725.780779
21
10
31
0
73
2
0
POLYLINE
8
ASSEMBLY
66
1
70
1
10
0
20
0
30
0
0
VERTEX
8
ASSEMBLY
10
3140.10233
20
0
30
0
0
VERTEX
8
ASSEMBLY
10
3553.745434
20
0
30
0
0
VERTEX
8
ASSEMBLY
10
3553.745434
20
105
30
0
0
VERTEX
8
ASSEMBLY
10
3140.10233
20
105
30
0
0
SEQEND
8
ASSEMBLY
0
POLYLINE
8
PIECES
66
1
70
1
10
0
20
0
30
0
0
VERTEX
8
PIECES
10
3537.041831
20
76.958667
30
0
42
0.085807
0
VERTEX
8
PIECES
10
3141.805933
20
76.958667
30
0
0
VERTEX
8
PIECES
10
3153.220073
20
10.938084
30
0
42
-0.085807
0
VERTEX
8
PIECES
10
3525.62769
20
10.938084
30
0
0
SEQEND
8
PIECES
0
POLYLINE
8
FINGER
66
1
70
0
10
0
20
0
30
0
0
VERTEX
8
FINGER
10
3525.62769
20
10.938084
30
0
0
VERTEX
8
FINGER
10
3537.041831
20
76.958667
30
0
0
SEQEND
8
FINGER
0
POLYLINE
8
FINGER
66
1
70
0
10
0
20
0
30
0
0
VERTEX
8
FINGER
10
3537.745434
20
0
30
0
0
VERTEX
8
FINGER
10
3537.745434
20
105
30
0
0
SEQEND
8
FINGER
0
TEXT
8
TEXT
10
3346.923882
20
62.5
30
0
40
15
1
T - LEAF TOP P6 L413.6 x105
72
1
11
3346.923882
21
62.5
31
0
73
2
0
TEXT
8
TEXT
10
3346.923882
20
10
30
0
40
10
1
OUT 398.6 IN 369 CUT S80.2/J9.8 FINGER ONE END
72
1
11
3346.923882
21
10
31
0
73
2
0
POLYLINE
8
CONTOUR
66
1
70
1
10
0
20
0
30
0
0
VERTEX
8
CONTOUR
10
1147.921646
20
319.789401
30
0
42
0.26259
0
VERTEX
8
CONTOUR
10
587.921646
20
1312.563293
30
0
42
0.26259
0
VERTEX
8
CONTOUR
10
27.921646
20
319.789401
30
0
0
VERTEX
8
CONTOUR
10
94.921646
20
319.789401
30
0
42
-0.252599
0
VERTEX
8
CONTOUR
10
587.921646
20
1233.380666
30
0
42
-0.252599
0
VERTEX
8
CONTOUR
10
1080.921646
20
319.789401
30
0
0
SEQEND
8
CONTOUR
0
POLYLINE
8
ASSEMBLY
66
1
70
1
10
0
20
0
30
0
0
VERTEX
8
ASSEMBLY
10
1072.3782
20
305
30
0
0
VERTEX
8
ASSEMBLY
10
1004.465241
20
697.815674
30
0
0
VERTEX
8
ASSEMBLY
10
1107.930334
20
715.703506
30
0
0
VERTEX
8
ASSEMBLY
10
1175.843293
20
322.887832
30
0
0
SEQEND
8
ASSEMBLY
0
POLYLINE
8
FINGER
66
1
70
0
10
0
20
0
30
0
0
VERTEX
8
FINGER
10
1017.478173
20
686.753104
30
0
0
VERTEX
8
FINGER
10
1080.58914
20
709.247676
30
0
0
SEQEND
8
FINGER
0
POLYLINE
8
ASSEMBLY
66
1
70
1
10
0
20
0
30
0
0
VERTEX
8
ASSEMBLY
10
1014.396025
20
669.953781
30
0
0
VERTEX
8
ASSEMBLY
10
818.541199
20
1017.167276
30
0
0
VERTEX
8
ASSEMBLY
10
909.994975
20
1068.754163
30
0
0
VERTEX
8
ASSEMBLY
10
1105.8498
20
721.540668
30
0
0
SEQEND
8
ASSEMBLY
0
POLYLINE
8
FINGER
66
1
70
0
10
0
20
0
30
0
0
VERTEX
8
FINGER
10
834.512938
20
1011.115796
30
0
0
VERTEX
8
FINGER
10
886.408288
20
1053.493535
30
0
0
SEQEND
8
FINGER
0
POLYLINE
8
ASSEMBLY
66
1
70
1
10
0
20
0
30
0
0
VERTEX
8
ASSEMBLY
10
837.249897
20
994.256795
30
0
0
VERTEX
8
ASSEMBLY
10
531.701567
20
1259.455705
30
0
0
VERTEX
8
ASSEMBLY
10
600.527108
20
1338.752898
30
0
0
VERTEX
8
ASSEMBLY
10
906.075438
20
1073.553988
30
0
0
SEQEND
8
ASSEMBLY
0
POLYLINE
8
FINGER
66
1
70
0
10
0
20
0
30
0
0
VERTEX
8
FINGER
10
587.921646
20
1233.380666
30
0
0
VERTEX
8
FINGER
10
587.921646
20
1312.563293
30
0
0
SEQEND
8
FINGER
0
POLYLINE
8
ASSEMBLY
66
1
70
1
10
0
20
0
30
0
0
VERTEX
8
ASSEMBLY
10
644.141726
20
1259.455705
30
0
0
VERTEX
8
ASSEMBLY
10
338.593396
20
994.256795
30
0
0
VERTEX
8
ASSEMBLY
10
269.767854
20
1073.553988
30
0
0
VERTEX
8
ASSEMBLY
10
575.316185
20
1338.752898
30
0
0
SEQEND
8
ASSEMBLY
0
POLYLINE
8
FINGER
66
1
70
0
10
0
20
0
30
0
0
VERTEX
8
FINGER
10
587.921646
20
1233.380666
30
0
0
VERTEX
8
FINGER
10
587.921646
20
1312.563293
30
0
0
SEQEND
8
FINGER
0
POLYLINE
8
FINGER
66
1
70
0
10
0
20
0
30
0
0
VERTEX
8
FINGER
10
341.330354
20
1011.115796
30
0
0
VERTEX
8
FINGER
10
289.435005
20
1053.493535
30
0
0
SEQEND
8
FINGER
0
POLYLINE
8
ASSEMBLY
66
1
70
1
10
0
20
0
30
0
0
VERTEX
8
ASSEMBLY
10
357.302094
20
1017.167276
30
0
0
VERTEX
8
ASSEMBLY
10
161.447268
20
669.953781
30
0
0
VERTEX
8
ASSEMBLY
10
69.993492
20
721.540668
30
0
0
VERTEX
8
ASSEMBLY
10
265.848318
20
1068.754163
30
0
0
SEQEND
8
ASSEMBLY
0
POLYLINE
8
FINGER
66
1
70
0
10
0
20
0
30
0
0
VERTEX
8
FINGER
10
158.36512
20
686.753104
30
0
0
VERTEX
8
FINGER
10
95.254153
20
709.247676
30
0
0
SEQEND
8
FINGER
0
POLYLINE
8
ASSEMBLY
66
1
70
1
10
0
20
0
30
0
0
VERTEX
8
ASSEMBLY
10
171.378052
20
697.815674
30
0
0
VERTEX
8
ASSEMBLY
10
103.465093
20
305
30
0
0
VERTEX
8
ASSEMBLY
10
0
20
322.887832
30
0
0
VERTEX
8
ASSEMBLY
10
67.912959
20
715.703506
30
0
0
SEQEND
8
ASSEMBLY
0
TEXT
8
TEXT
10
1275.843293
20
1320.252898
30
0
40
15
1
T - LEAF TOP
72
0
11
1275.843293
21
1320.252898
31
0
73
0
0
TEXT
8
TEXT
10
1275.843293
20
1298.252898
30
0
40
15
1
GOTHIC EQUILATERAL W1200 RISE1039.2 H2000 HINGE R
72
0
11
1275.843293
21
1298.252898
31
0
73
0
0
TEXT
8
TEXT
10
1275.843293
20
1276.252898
30
0
40
15
1
FACE 67 OFFSET 40 OUTER L2383 INNER L2163.5
72
0
11
1275.843293
21
1276.252898
31
0
73
0
0
TEXT
8
TEXT
10
1275.843293
20
1254.252898
30
0
40
15
1
ARC 1 R1160 L1191.5 58.9DEG: 3 x board 105 L404.6 ROUGH 434.6 (ALT 2 x board 180)
72
0
11
1275.843293
21
1254.252898
31
0
73
0
0
TEXT
8
TEXT
10
1275.843293
20
1232.252898
30
0
40
15
1
ARC 2 R1160 L1191.5 58.9DEG: 3 x board 105 L404.6 ROUGH 434.6 (ALT 2 x board 180)
72
0
11
1275.843293
21
1232.252898
31
0
73
0
0
TEXT
8
TEXT
10
1275.843293
20
1210.252898
30
0
40
15
1
FINGER 15/16/3.8
72
0
11
1275.843293
21
1210.252898
31
0
73
0
0
TEXT
8
TEXT
10
1275.843293
20
1188.252898
30
0
40
15
1
ALLOWANCE 10 PER SIDE  MAX SEGMENT 36 DEG  RULE NARROWEST
72
0
11
1275.843293
21
1188.252898
31
0
73
0
0
TEXT
8
TEXT
10
1275.843293
20
1166.252898
30
0
40
15
1
CUT CODES: J = JOINT FROM SQUARE  S = ARCH-START, AXIS TO HORIZONTAL  A = APEX FROM SQUARE
72
0
11
1275.843293
21
1166.252898
31
0
73
0
0
POLYLINE
8
ASSEMBLY
66
1
70
1
10
0
20
0
30
0
0
VERTEX
8
ASSEMBLY
10
0
20
1538.752898
30
0
0
VERTEX
8
ASSEMBLY
10
435.22859
20
1538.752898
30
0
0
VERTEX
8
ASSEMBLY
10
435.22859
20
1633.752898
30
0
0
VERTEX
8
ASSEMBLY
10
0
20
1633.752898
30
0
0
SEQEND
8
ASSEMBLY
0
POLYLINE
8
PIECES
66
1
70
1
10
0
20
0
30
0
0
VERTEX
8
PIECES
10
433.492108
20
1605.12861
30
0
42
0.087489
0
VERTEX
8
PIECES
10
16.736482
20
1605.12861
30
0
0
VERTEX
8
PIECES
10
26.634428
20
1548.994568
30
0
42
-0.087489
0
VERTEX
8
PIECES
10
423.594162
20
1548.994568
30
0
0
SEQEND
8
PIECES
0
POLYLINE
8
FINGER
66
1
70
0
10
0
20
0
30
0
0
VERTEX
8
FINGER
10
26.634428
20
1548.994568
30
0
0
VERTEX
8
FINGER
10
16.736482
20
1605.12861
30
0
0
SEQEND
8
FINGER
0
POLYLINE
8
FINGER
66
1
70
0
10
0
20
0
30
0
0
VERTEX
8
FINGER
10
16
20
1538.752898
30
0
0
VERTEX
8
FINGER
10
16
20
1633.752898
30
0
0
SEQEND
8
FINGER
0
TEXT
8
TEXT
10
217.614295
20
1596.252898
30
0
40
15
1
T - FRAME HEAD P1 L435.2 x95
72
1
11
217.614295
21
1596.252898
31
0
73
2
0
TEXT
8
TEXT
10
217.614295
20
1548.752898
30
0
40
10
1
OUT 420.2 IN 393.5 CUT J10/S80 FINGER ONE END
72
1
11
217.614295
21
1548.752898
31
0
73
2
0
POLYLINE
8
ASSEMBLY
66
1
70
1
10
0
20
0
30
0
0
VERTEX
8
ASSEMBLY
10
635.22859
20
1538.752898
30
0
0
VERTEX
8
ASSEMBLY
10
1085.45718
20
1538.752898
30
0
0
VERTEX
8
ASSEMBLY
10
1085.45718
20
1633.752898
30
0
0
VERTEX
8
ASSEMBLY
10
635.22859
20
1633.752898
30
0
0
SEQEND
8
ASSEMBLY
0
POLYLINE
8
PIECES
66
1
70
1
10
0
20
0
30
0
0
VERTEX
8
PIECES
10
1068.720698
20
1605.12861
30
0
42
0.087489
0
VERTEX
8
PIECES
10
651.965072
20
1605.12861
30
0
0
VERTEX
8
PIECES
10
661.863018
20
1548.994568
30
0
42
-0.087489
0
VERTEX
8
PIECES
10
1058.822752
20
1548.994568
30
0
0
SEQEND
8
PIECES
0
POLYLINE
8
FINGER
66
1
70
0
10
0
20
0
30
0
0
VERTEX
8
FINGER
10
1058.822752
20
1548.994568
30
0
0
VERTEX
8
FINGER
10
1068.720698
20
1605.12861
30
0
0
SEQEND
8
FINGER
0
POLYLINE
8
FINGER
66
1
70
0
10
0
20
0
30
0
0
VERTEX
8
FINGER
10
661.863018
20
1548.994568
30
0
0
VERTEX
8
FINGER
10
651.965072
20
1605.12861
30
0
0
SEQEND
8
FINGER
0
POLYLINE
8
FINGER
66
1
70
0
10
0
20
0
30
0
0
VERTEX
8
FINGER
10
651.22859
20
1538.752898
30
0
0
VERTEX
8
FINGER
10
651.22859
20
1633.752898
30
0
0
SEQEND
8
FINGER
0
POLYLINE
8
FINGER
66
1
70
0
10
0
20
0
30
0
0
VERTEX
8
FINGER
10
1069.45718
20
1538.752898
30
0
0
VERTEX
8
FINGER
10
1069.45718
20
1633.752898
30
0
0
SEQEND
8
FINGER
0
TEXT
8
TEXT
10
860.342885
20
1596.252898
30
0
40
15
1
T - FRAME HEAD P2 L450.2 x95
72
1
11
860.342885
21
1596.252898
31
0
73
2
0
TEXT
8
TEXT
10
860.342885
20
1548.752898
30
0
40
10
1
OUT 420.2 IN 393.5 CUT J10/J10 FINGER BOTH ENDS
72
1
11
860.342885
21
1548.752898
31
0
73
2
0
POLYLINE
8
ASSEMBLY
66
1
70
1
10
0
20
0
30
0
0
VERTEX
8
ASSEMBLY
10
1285.45718
20
1538.752898
30
0
0
VERTEX
8
ASSEMBLY
10
1741.361365
20
1538.752898
30
0
0
VERTEX
8
ASSEMBLY
10
1741.361365
20
1633.752898
30
0
0
VERTEX
8
ASSEMBLY
10
1285.45718
20
1633.752898
30
0
0
SEQEND
8
ASSEMBLY
0
POLYLINE
8
PIECES
66
1
70
1
10
0
20
0
30
0
0
VERTEX
8
PIECES
10
1724.624883
20
1605.12861
30
0
42
0.087489
0
VERTEX
8
PIECES
10
1307.869256
20
1605.12861
30
0
0
VERTEX
8
PIECES
10
1350.533886
20
1554.282885
30
0
42
-0.080178
0
VERTEX
8
PIECES
10
1714.726937
20
1548.994568
30
0
0
SEQEND
8
PIECES
0
POLYLINE
8
FINGER
66
1
70
0
10
0
20
0
30
0
0
VERTEX
8
FINGER
10
1714.726937
20
1548.994568
30
0
0
VERTEX
8
FINGER
10
1724.624883
20
1605.12861
30
0
0
SEQEND
8
FINGER
0
POLYLINE
8
FINGER
66
1
70
0
10
0
20
0
30
0
0
VERTEX
8
FINGER
10
1350.533886
20
1554.282885
30
0
0
VERTEX
8
FINGER
10
1307.869256
20
1605.12861
30
0
0
SEQEND
8
FINGER
0
POLYLINE
8
FINGER
66
1
70
0
10
0
20
0
30
0
0
VERTEX
8
FINGER
10
1301.45718
20
1538.752898
30
0
0
VERTEX
8
FINGER
10
1301.45718
20
1633.752898
30
0
0
SEQEND
8
FINGER
0
POLYLINE
8
FINGER
66
1
70
0
10
0
20
0
30
0
0
VERTEX
8
FINGER
10
1725.361365
20
1538.752898
30
0
0
VERTEX
8
FINGER
10
1725.361365
20
1633.752898
30
0
0
SEQEND
8
FINGER
0
TEXT
8
TEXT
10
1513.409272
20
1596.252898
30
0
40
15
1
T - FRAME HEAD P3 L455.9 x95
72
1
11
1513.409272
21
1596.252898
31
0
73
2
0
TEXT
8
TEXT
10
1513.409272
20
1548.752898
30
0
40
10
1
OUT 425.9 IN 354.9 CUT A50/J10 FINGER BOTH ENDS
72
1
11
1513.409272
21
1548.752898
31
0
73
2
0
POLYLINE
8
ASSEMBLY
66
1
70
1
10
0
20
0
30
0
0
VERTEX
8
ASSEMBLY
10
1941.361365
20
1538.752898
30
0
0
VERTEX
8
ASSEMBLY
10
2397.265549
20
1538.752898
30
0
0
VERTEX
8
ASSEMBLY
10
2397.265549
20
1633.752898
30
0
0
VERTEX
8
ASSEMBLY
10
1941.361365
20
1633.752898
30
0
0
SEQEND
8
ASSEMBLY
0
POLYLINE
8
PIECES
66
1
70
1
10
0
20
0
30
0
0
VERTEX
8
PIECES
10
2374.853473
20
1605.12861
30
0
42
0.087489
0
VERTEX
8
PIECES
10
1958.097846
20
1605.12861
30
0
0
VERTEX
8
PIECES
10
1967.995792
20
1548.994568
30
0
42
-0.080178
0
VERTEX
8
PIECES
10
2332.188844
20
1554.282885
30
0
0
SEQEND
8
PIECES
0
POLYLINE
8
FINGER
66
1
70
0
10
0
20
0
30
0
0
VERTEX
8
FINGER
10
2332.188844
20
1554.282885
30
0
0
VERTEX
8
FINGER
10
2374.853473
20
1605.12861
30
0
0
SEQEND
8
FINGER
0
POLYLINE
8
FINGER
66
1
70
0
10
0
20
0
30
0
0
VERTEX
8
FINGER
10
1967.995792
20
1548.994568
30
0
0
VERTEX
8
FINGER
10
1958.097846
20
1605.12861
30
0
0
SEQEND
8
FINGER
0
POLYLINE
8
FINGER
66
1
70
0
10
0
20
0
30
0
0
VERTEX
8
FINGER
10
1957.361365
20
1538.752898
30
0
0
VERTEX
8
FINGER
10
1957.361365
20
1633.752898
30
0
0
SEQEND
8
FINGER
0
POLYLINE
8
FINGER
66
1
70
0
10
0
20
0
30
0
0
VERTEX
8
FINGER
10
2381.265549
20
1538.752898
30
0
0
VERTEX
8
FINGER
10
2381.265549
20
1633.752898
30
0
0
SEQEND
8
FINGER
0
TEXT
8
TEXT
10
2169.313457
20
1596.252898
30
0
40
15
1
T - FRAME HEAD P4 L455.9 x95
72
1
11
2169.313457
21
1596.252898
31
0
73
2
0
TEXT
8
TEXT
10
2169.313457
20
1548.752898
30
0
40
10
1
OUT 425.9 IN 354.9 CUT J10/A50 FINGER BOTH ENDS
72
1
11
2169.313457
21
1548.752898
31
0
73
2
0
POLYLINE
8
ASSEMBLY
66
1
70
1
10
0
20
0
30
0
0
VERTEX
8
ASSEMBLY
10
2597.265549
20
1538.752898
30
0
0
VERTEX
8
ASSEMBLY
10
3047.494139
20
1538.752898
30
0
0
VERTEX
8
ASSEMBLY
10
3047.494139
20
1633.752898
30
0
0
VERTEX
8
ASSEMBLY
10
2597.265549
20
1633.752898
30
0
0
SEQEND
8
ASSEMBLY
0
POLYLINE
8
PIECES
66
1
70
1
10
0
20
0
30
0
0
VERTEX
8
PIECES
10
3030.757657
20
1605.12861
30
0
42
0.087489
0
VERTEX
8
PIECES
10
2614.002031
20
1605.12861
30
0
0
VERTEX
8
PIECES
10
2623.899977
20
1548.994568
30
0
42
-0.087489
0
VERTEX
8
PIECES
10
3020.859711
20
1548.994568
30
0
0
SEQEND
8
PIECES
0
POLYLINE
8
FINGER
66
1
70
0
10
0
20
0
30
0
0
VERTEX
8
FINGER
10
3020.859711
20
1548.994568
30
0
0
VERTEX
8
FINGER
10
3030.757657
20
1605.12861
30
0
0
SEQEND
8
FINGER
0
POLYLINE
8
FINGER
66
1
70
0
10
0
20
0
30
0
0
VERTEX
8
FINGER
10
2623.899977
20
1548.994568
30
0
0
VERTEX
8
FINGER
10
2614.002031
20
1605.12861
30
0
0
SEQEND
8
FINGER
0
POLYLINE
8
FINGER
66
1
70
0
10
0
20
0
30
0
0
VERTEX
8
FINGER
10
2613.265549
20
1538.752898
30
0
0
VERTEX
8
FINGER
10
2613.265549
20
1633.752898
30
0
0
SEQEND
8
FINGER
0
POLYLINE
8
FINGER
66
1
70
0
10
0
20
0
30
0
0
VERTEX
8
FINGER
10
3031.494139
20
1538.752898
30
0
0
VERTEX
8
FINGER
10
3031.494139
20
1633.752898
30
0
0
SEQEND
8
FINGER
0
TEXT
8
TEXT
10
2822.379844
20
1596.252898
30
0
40
15
1
T - FRAME HEAD P5 L450.2 x95
72
1
11
2822.379844
21
1596.252898
31
0
73
2
0
TEXT
8
TEXT
10
2822.379844
20
1548.752898
30
0
40
10
1
OUT 420.2 IN 393.5 CUT J10/J10 FINGER BOTH ENDS
72
1
11
2822.379844
21
1548.752898
31
0
73
2
0
POLYLINE
8
ASSEMBLY
66
1
70
1
10
0
20
0
30
0
0
VERTEX
8
ASSEMBLY
10
3247.494139
20
1538.752898
30
0
0
VERTEX
8
ASSEMBLY
10
3682.722729
20
1538.752898
30
0
0
VERTEX
8
ASSEMBLY
10
3682.722729
20
1633.752898
30
0
0
VERTEX
8
ASSEMBLY
10
3247.494139
20
1633.752898
30
0
0
SEQEND
8
ASSEMBLY
0
POLYLINE
8
PIECES
66
1
70
1
10
0
20
0
30
0
0
VERTEX
8
PIECES
10
3665.986247
20
1605.12861
30
0
42
0.087489
0
VERTEX
8
PIECES
10
3249.230621
20
1605.12861
30
0
0
VERTEX
8
PIECES
10
3259.128567
20
1548.994568
30
0
42
-0.087489
0
VERTEX
8
PIECES
10
3656.088301
20
1548.994568
30
0
0
SEQEND
8
PIECES
0
POLYLINE
8
FINGER
66
1
70
0
10
0
20
0
30
0
0
VERTEX
8
FINGER
10
3656.088301
20
1548.994568
30
0
0
VERTEX
8
FINGER
10
3665.986247
20
1605.12861
30
0
0
SEQEND
8
FINGER
0
POLYLINE
8
FINGER
66
1
70
0
10
0
20
0
30
0
0
VERTEX
8
FINGER
10
3666.722729
20
1538.752898
30
0
0
VERTEX
8
FINGER
10
3666.722729
20
1633.752898
30
0
0
SEQEND
8
FINGER
0
TEXT
8
TEXT
10
3465.108434
20
1596.252898
30
0
40
15
1
T - FRAME HEAD P6 L435.2 x95
72
1
11
3465.108434
21
1596.252898
31
0
73
2
0
TEXT
8
TEXT
10
3465.108434
20
1548.752898
30
0
40
10
1
OUT 420.2 IN 393.5 CUT S80/J10 FINGER ONE END
72
1
11
3465.108434
21
1548.752898
31
0
73
2
0
POLYLINE
8
CONTOUR
66
1
70
1
10
0
20
0
30
0
0
VERTEX
8
CONTOUR
10
1228.490958
20
1846.98902
30
0
42
0.267949
0
VERTEX
8
CONTOUR
10
628.490958
20
2886.219505
30
0
42
0.267949
0
VERTEX
8
CONTOUR
10
28.490958
20
1846.98902
30
0
0
VERTEX
8
CONTOUR
10
85.490958
20
1846.98902
30
0
42
-0.260183
0
VERTEX
8
CONTOUR
10
628.490958
20
2819.845125
30
0
42
-0.260183
0
VERTEX
8
CONTOUR
10
1171.490958
20
1846.98902
30
0
0
SEQEND
8
CONTOUR
0
POLYLINE
8
ASSEMBLY
66
1
70
1
10
0
20
0
30
0
0
VERTEX
8
ASSEMBLY
10
1163.42518
20
1833.752898
30
0
0
VERTEX
8
ASSEMBLY
10
1090.453251
20
2247.597272
30
0
0
VERTEX
8
ASSEMBLY
10
1184.009987
20
2264.093849
30
0
0
VERTEX
8
ASSEMBLY
10
1256.981916
20
1850.249475
30
0
0
SEQEND
8
ASSEMBLY
0
POLYLINE
8
FINGER
66
1
70
0
10
0
20
0
30
0
0
VERTEX
8
FINGER
10
1102.559624
20
2237.918044
30
0
0
VERTEX
8
FINGER
10
1156.122103
20
2257.413192
30
0
0
SEQEND
8
FINGER
0
POLYLINE
8
ASSEMBLY
66
1
70
1
10
0
20
0
30
0
0
VERTEX
8
ASSEMBLY
10
1099.507292
20
2222.721499
30
0
0
VERTEX
8
ASSEMBLY
10
889.392997
20
2586.650134
30
0
0
VERTEX
8
ASSEMBLY
10
971.66541
20
2634.150134
30
0
0
VERTEX
8
ASSEMBLY
10
1181.779705
20
2270.221499
30
0
0
SEQEND
8
ASSEMBLY
0
POLYLINE
8
FINGER
66
1
70
0
10
0
20
0
30
0
0
VERTEX
8
FINGER
10
904.079757
20
2581.695258
30
0
0
VERTEX
8
FINGER
10
947.74429
20
2618.334152
30
0
0
SEQEND
8
FINGER
0
POLYLINE
8
ASSEMBLY
66
1
70
1
10
0
20
0
30
0
0
VERTEX
8
ASSEMBLY
10
906.409027
20
2566.371218
30
0
0
VERTEX
8
ASSEMBLY
10
580.147493
20
2840.137151
30
0
0
VERTEX
8
ASSEMBLY
10
641.212316
20
2912.911373
30
0
0
VERTEX
8
ASSEMBLY
10
967.47385
20
2639.14544
30
0
0
SEQEND
8
ASSEMBLY
0
POLYLINE
8
FINGER
66
1
70
0
10
0
20
0
30
0
0
VERTEX
8
FINGER
10
628.490958
20
2819.845125
30
0
0
VERTEX
8
FINGER
10
628.490958
20
2886.219505
30
0
0
SEQEND
8
FINGER
0
POLYLINE
8
ASSEMBLY
66
1
70
1
10
0
20
0
30
0
0
VERTEX
8
ASSEMBLY
10
676.834423
20
2840.137151
30
0
0
VERTEX
8
ASSEMBLY
10
350.572889
20
2566.371218
30
0
0
VERTEX
8
ASSEMBLY
10
289.508066
20
2639.14544
30
0
0
VERTEX
8
ASSEMBLY
10
615.7696
20
2912.911373
30
0
0
SEQEND
8
ASSEMBLY
0
POLYLINE
8
FINGER
66
1
70
0
10
0
20
0
30
0
0
VERTEX
8
FINGER
10
352.90216
20
2581.695258
30
0
0
VERTEX
8
FINGER
10
309.237626
20
2618.334152
30
0
0
SEQEND
8
FINGER
0
POLYLINE
8
ASSEMBLY
66
1
70
1
10
0
20
0
30
0
0
VERTEX
8
ASSEMBLY
10
367.58892
20
2586.650134
30
0
0
VERTEX
8
ASSEMBLY
10
157.474625
20
2222.721499
30
0
0
VERTEX
8
ASSEMBLY
10
75.202211
20
2270.221499
30
0
0
VERTEX
8
ASSEMBLY
10
285.316506
20
2634.150134
30
0
0
SEQEND
8
ASSEMBLY
0
POLYLINE
8
FINGER
66
1
70
0
10
0
20
0
30
0
0
VERTEX
8
FINGER
10
154.422293
20
2237.918044
30
0
0
VERTEX
8
FINGER
10
100.859813
20
2257.413192
30
0
0
SEQEND
8
FINGER
0
POLYLINE
8
ASSEMBLY
66
1
70
1
10
0
20
0
30
0
0
VERTEX
8
ASSEMBLY
10
166.528665
20
2247.597272
30
0
0
VERTEX
8
ASSEMBLY
10
93.556737
20
1833.752898
30
0
0
VERTEX
8
ASSEMBLY
10
0
20
1850.249475
30
0
0
VERTEX
8
ASSEMBLY
10
72.971929
20
2264.093849
30
0
0
SEQEND
8
ASSEMBLY
0
TEXT
8
TEXT
10
1356.981916
20
2894.411373
30
0
40
15
1
T - FRAME HEAD
72
0
11
1356.981916
21
2894.411373
31
0
73
0
0
TEXT
8
TEXT
10
1356.981916
20
2872.411373
30
0
40
15
1
GOTHIC EQUILATERAL W1200 RISE1039.2 H2000 HINGE R
72
0
11
1356.981916
21
2872.411373
31
0
73
0
0
TEXT
8
TEXT
10
1356.981916
20
2850.411373
30
0
40
15
1
FACE 57 OFFSET 0 OUTER L2513.3 INNER L2327.5
72
0
11
1356.981916
21
2850.411373
31
0
73
0
0
TEXT
8
TEXT
10
1356.981916
20
2828.411373
30
0
40
15
1
ARC 1 R1200 L1256.6 60DEG: 3 x board 95 L425.9 ROUGH 455.9 (ALT 2 x board 180)
72
0
11
1356.981916
21
2828.411373
31
0
73
0
0
TEXT
8
TEXT
10
1356.981916
20
2806.411373
30
0
40
15
1
ARC 2 R1200 L1256.6 60DEG: 3 x board 95 L425.9 ROUGH 455.9 (ALT 2 x board 180)
72
0
11
1356.981916
21
2806.411373
31
0
73
0
0
TEXT
8
TEXT
10
1356.981916
20
2784.411373
30
0
40
15
1
FINGER 15/16/3.8
72
0
11
1356.981916
21
2784.411373
31
0
73
0
0
TEXT
8
TEXT
10
1356.981916
20
2762.411373
30
0
40
15
1
ALLOWANCE 10 PER SIDE  MAX SEGMENT 36 DEG  RULE NARROWEST
72
0
11
1356.981916
21
2762.411373
31
0
73
0
0
TEXT
8
TEXT
10
1356.981916
20
2740.411373
30
0
40
15
1
CUT CODES: J = JOINT FROM SQUARE  S = ARCH-START, AXIS TO HORIZONTAL  A = APEX FROM SQUARE
72
0
11
1356.981916
21
2740.411373
31
0
73
0
0
POLYLINE
8
FIT
66
1
70
1
10
0
20
0
30
0
0
VERTEX
8
FIT
10
1200
20
3112.911373
30
0
42
0.267949
0
VERTEX
8
FIT
10
600
20
4152.141857
30
0
42
0.267949
0
VERTEX
8
FIT
10
0
20
3112.911373
30
0
0
VERTEX
8
FIT
10
57
20
3112.911373
30
0
42
-0.260183
0
VERTEX
8
FIT
10
600
20
4085.767477
30
0
42
-0.260183
0
VERTEX
8
FIT
10
1143
20
3112.911373
30
0
0
SEQEND
8
FIT
0
POLYLINE
8
FIT
66
1
70
1
10
0
20
0
30
0
0
VERTEX
8
FIT
10
1160
20
3112.911373
30
0
42
0.26259
0
VERTEX
8
FIT
10
600
20
4105.685265
30
0
42
0.26259
0
VERTEX
8
FIT
10
40
20
3112.911373
30
0
0
VERTEX
8
FIT
10
107
20
3112.911373
30
0
42
-0.252599
0
VERTEX
8
FIT
10
600
20
4026.502638
30
0
42
-0.252599
0
VERTEX
8
FIT
10
1093
20
3112.911373
30
0
0
SEQEND
8
FIT
0
POLYLINE
8
FIT
66
1
70
1
10
0
20
0
30
0
0
VERTEX
8
FIT
10
1105.5
20
3112.911373
30
0
42
0.25457
0
VERTEX
8
FIT
10
600
20
4041.421066
30
0
42
0.25457
0
VERTEX
8
FIT
10
94.5
20
3112.911373
30
0
0
SEQEND
8
FIT
0
POLYLINE
8
FIT
66
1
70
0
10
0
20
0
30
0
0
VERTEX
8
FIT
10
1164
20
3112.911373
30
0
42
0.004296
0
VERTEX
8
FIT
10
1163.828183
20
3132.910389
30
0
0
SEQEND
8
FIT
0
POLYLINE
8
FIT
66
1
70
0
10
0
20
0
30
0
0
VERTEX
8
FIT
10
1163.613423
20
3142.908052
30
0
42
0.004296
0
VERTEX
8
FIT
10
1162.926282
20
3162.895998
30
0
0
SEQEND
8
FIT
0
POLYLINE
8
FIT
66
1
70
0
10
0
20
0
30
0
0
VERTEX
8
FIT
10
1162.453951
20
3172.884806
30
0
42
0.004296
0
VERTEX
8
FIT
10
1161.251941
20
3192.848406
30
0
0
SEQEND
8
FIT
0
POLYLINE
8
FIT
66
1
70
0
10
0
20
0
30
0
0
VERTEX
8
FIT
10
1160.522352
20
3202.821725
30
0
42
0.004296
0
VERTEX
8
FIT
10
1158.806272
20
3222.747719
30
0
0
SEQEND
8
FIT
0
POLYLINE
8
FIT
66
1
70
0
10
0
20
0
30
0
0
VERTEX
8
FIT
10
1157.819909
20
3232.698923
30
0
42
0.004296
0
VERTEX
8
FIT
10
1155.590901
20
3252.574076
30
0
0
SEQEND
8
FIT
0
POLYLINE
8
FIT
66
1
70
0
10
0
20
0
30
0
0
VERTEX
8
FIT
10
1154.348419
20
3262.496557
30
0
42
0.004296
0
VERTEX
8
FIT
10
1151.607961
20
3282.307666
30
0
0
SEQEND
8
FIT
0
POLYLINE
8
FIT
66
1
70
0
10
0
20
0
30
0
0
VERTEX
8
FIT
10
1150.110187
20
3292.194832
30
0
42
0.004296
0
VERTEX
8
FIT
10
1146.8601
20
3311.928739
30
0
0
SEQEND
8
FIT
0
POLYLINE
8
FIT
66
1
70
0
10
0
20
0
30
0
0
VERTEX
8
FIT
10
1145.108027
20
3321.774024
30
0
42
0.004296
0
VERTEX
8
FIT
10
1141.35047
20
3341.417621
30
0
0
SEQEND
8
FIT
0
POLYLINE
8
FIT
66
1
70
0
10
0
20
0
30
0
0
VERTEX
8
FIT
10
1139.345262
20
3351.214484
30
0
42
0.004296
0
VERTEX
8
FIT
10
1135.082731
20
3370.754725
30
0
0
SEQEND
8
FIT
0
POLYLINE
8
FIT
66
1
70
0
10
0
20
0
30
0
0
VERTEX
8
FIT
10
1132.825721
20
3380.496659
30
0
42
0.004296
0
VERTEX
8
FIT
10
1128.061047
20
3399.920563
30
0
0
SEQEND
8
FIT
0
POLYLINE
8
FIT
66
1
70
0
10
0
20
0
30
0
0
VERTEX
8
FIT
10
1125.553733
20
3409.601098
30
0
42
0.004296
0
VERTEX
8
FIT
10
1120.290081
20
3428.895764
30
0
0
SEQEND
8
FIT
0
POLYLINE
8
FIT
66
1
70
0
10
0
20
0
30
0
0
VERTEX
8
FIT
10
1117.534129
20
3438.50847
30
0
42
0.004296
0
VERTEX
8
FIT
10
1111.774995
20
3457.661081
30
0
0
SEQEND
8
FIT
0
POLYLINE
8
FIT
66
1
70
0
10
0
20
0
30
0
0
VERTEX
8
FIT
10
1108.772236
20
3467.199573
30
0
42
0.004296
0
VERTEX
8
FIT
10
1102.521444
20
3486.197409
30
0
0
SEQEND
8
FIT
0
POLYLINE
8
FIT
66
1
70
0
10
0
20
0
30
0
0
VERTEX
8
FIT
10
1099.273873
20
3495.655351
30
0
42
0.004296
0
VERTEX
8
FIT
10
1092.535576
20
3514.485792
30
0
0
SEQEND
8
FIT
0
POLYLINE
8
FIT
66
1
70
0
10
0
20
0
30
0
0
VERTEX
8
FIT
10
1089.045349
20
3523.856902
30
0
42
0.004296
0
VERTEX
8
FIT
10
1081.824024
20
3542.507441
30
0
0
SEQEND
8
FIT
0
POLYLINE
8
FIT
66
1
70
0
10
0
20
0
30
0
0
VERTEX
8
FIT
10
1078.093459
20
3551.785494
30
0
42
0.004296
0
VERTEX
8
FIT
10
1070.393901
20
3570.243744
30
0
0
SEQEND
8
FIT
0
POLYLINE
8
FIT
66
1
70
0
10
0
20
0
30
0
0
VERTEX
8
FIT
10
1066.425476
20
3579.422578
30
0
42
0.004296
0
VERTEX
8
FIT
10
1058.2528
20
3597.676276
30
0
0
SEQEND
8
FIT
0
POLYLINE
8
FIT
66
1
70
0
10
0
20
0
30
0
0
VERTEX
8
FIT
10
1054.049151
20
3606.749794
30
0
42
0.004296
0
VERTEX
8
FIT
10
1045.408785
20
3624.786818
30
0
0
SEQEND
8
FIT
0
POLYLINE
8
FIT
66
1
70
0
10
0
20
0
30
0
0
VERTEX
8
FIT
10
1040.972705
20
3633.748993
30
0
42
0.004296
0
VERTEX
8
FIT
10
1031.870389
20
3651.557362
30
0
0
SEQEND
8
FIT
0
POLYLINE
8
FIT
66
1
70
0
10
0
20
0
30
0
0
VERTEX
8
FIT
10
1027.204824
20
3660.402241
30
0
42
0.004296
0
VERTEX
8
FIT
10
1017.646602
20
3677.970125
30
0
0
SEQEND
8
FIT
0
POLYLINE
8
FIT
66
1
70
0
10
0
20
0
30
0
0
VERTEX
8
FIT
10
1012.754651
20
3686.691834
30
0
42
0.004296
0
VERTEX
8
FIT
10
1002.746873
20
3704.007565
30
0
0
SEQEND
8
FIT
0
POLYLINE
8
FIT
66
1
70
0
10
0
20
0
30
0
0
VERTEX
8
FIT
10
997.631785
20
3712.600309
30
0
42
0.004296
0
VERTEX
8
FIT
10
987.181099
20
3729.652386
30
0
0
SEQEND
8
FIT
0
POLYLINE
8
FIT
66
1
70
0
10
0
20
0
30
0
0
VERTEX
8
FIT
10
981.846272
20
3738.110459
30
0
42
0.004296
0
VERTEX
8
FIT
10
970.959619
20
3754.887555
30
0
0
SEQEND
8
FIT
0
POLYLINE
8
FIT
66
1
70
0
10
0
20
0
30
0
0
VERTEX
8
FIT
10
965.408596
20
3763.205339
30
0
42
0.004296
0
VERTEX
8
FIT
10
954.093207
20
3779.69631
30
0
0
SEQEND
8
FIT
0
POLYLINE
8
FIT
66
1
70
0
10
0
20
0
30
0
0
VERTEX
8
FIT
10
948.329676
20
3787.86828
30
0
42
0.004296
0
VERTEX
8
FIT
10
936.593066
20
3804.062173
30
0
0
SEQEND
8
FIT
0
POLYLINE
8
FIT
66
1
70
0
10
0
20
0
30
0
0
VERTEX
8
FIT
10
930.620855
20
3812.0829
30
0
42
0.004296
0
VERTEX
8
FIT
10
918.470821
20
3827.968959
30
0
0
SEQEND
8
FIT
0
POLYLINE
8
FIT
66
1
70
0
10
0
20
0
30
0
0
VERTEX
8
FIT
10
912.293896
20
3835.833117
30
0
42
0.004296
0
VERTEX
8
FIT
10
899.738508
20
3851.400788
30
0
0
SEQEND
8
FIT
0
POLYLINE
8
FIT
66
1
70
0
10
0
20
0
30
0
0
VERTEX
8
FIT
10
893.360973
20
3859.103153
30
0
42
0.004296
0
VERTEX
8
FIT
10
880.408571
20
3874.342098
30
0
0
SEQEND
8
FIT
0
POLYLINE
8
FIT
66
1
70
0
10
0
20
0
30
0
0
VERTEX
8
FIT
10
873.83466
20
3881.877553
30
0
42
0.004296
0
VERTEX
8
FIT
10
860.493847
20
3896.777649
30
0
0
SEQEND
8
FIT
0
POLYLINE
8
FIT
66
1
70
0
10
0
20
0
30
0
0
VERTEX
8
FIT
10
853.727929
20
3904.14119
30
0
42
0.004296
0
VERTEX
8
FIT
10
840.007565
20
3918.69254
30
0
0
SEQEND
8
FIT
0
POLYLINE
8
FIT
66
1
70
0
10
0
20
0
30
0
0
VERTEX
8
FIT
10
833.054133
20
3925.879276
30
0
42
0.004296
0
VERTEX
8
FIT
10
818.963333
20
3940.072215
30
0
0
SEQEND
8
FIT
0
POLYLINE
8
FIT
66
1
70
0
10
0
20
0
30
0
0
VERTEX
8
FIT
10
811.827006
20
3947.077371
30
0
42
0.004296
0
VERTEX
8
FIT
10
797.375129
20
3960.902472
30
0
0
SEQEND
8
FIT
0
POLYLINE
8
FIT
66
1
70
0
10
0
20
0
30
0
0
VERTEX
8
FIT
10
790.060646
20
3967.721396
30
0
42
0.004296
0
VERTEX
8
FIT
10
775.257291
20
3981.169475
30
0
0
SEQEND
8
FIT
0
POLYLINE
8
FIT
66
1
70
0
10
0
20
0
30
0
0
VERTEX
8
FIT
10
767.769512
20
3987.797638
30
0
42
0.004296
0
VERTEX
8
FIT
10
752.624511
20
4000.859764
30
0
0
SEQEND
8
FIT
0
POLYLINE
8
FIT
66
1
70
0
10
0
20
0
30
0
0
VERTEX
8
FIT
10
744.968408
20
4007.292763
30
0
42
0.004296
0
VERTEX
8
FIT
10
729.491823
20
4019.960259
30
0
0
SEQEND
8
FIT
0
POLYLINE
8
FIT
66
1
70
0
10
0
20
0
30
0
0
VERTEX
8
FIT
10
721.672482
20
4026.193821
30
0
42
0.004296
0
VERTEX
8
FIT
10
705.87459
20
4038.458272
30
0
0
SEQEND
8
FIT
0
POLYLINE
8
FIT
66
1
70
0
10
0
20
0
30
0
0
VERTEX
8
FIT
10
697.897205
20
4044.488257
30
0
42
0.004296
0
VERTEX
8
FIT
10
681.788501
20
4056.341519
30
0
0
SEQEND
8
FIT
0
POLYLINE
8
FIT
66
1
70
0
10
0
20
0
30
0
0
VERTEX
8
FIT
10
673.658371
20
4062.163921
30
0
42
0.004296
0
VERTEX
8
FIT
10
657.249554
20
4073.598119
30
0
0
SEQEND
8
FIT
0
POLYLINE
8
FIT
66
1
70
0
10
0
20
0
30
0
0
VERTEX
8
FIT
10
648.972078
20
4079.209071
30
0
42
0.004296
0
VERTEX
8
FIT
10
632.274048
20
4090.216611
30
0
0
SEQEND
8
FIT
0
POLYLINE
8
FIT
66
1
70
0
10
0
20
0
30
0
0
VERTEX
8
FIT
10
623.854725
20
4095.612386
30
0
42
0.004296
0
VERTEX
8
FIT
10
606.878572
20
4106.185957
30
0
0
SEQEND
8
FIT
0
POLYLINE
8
FIT
66
1
70
0
10
0
20
0
30
0
0
VERTEX
8
FIT
10
600
20
4110.356108
30
0
42
0.004296
0
VERTEX
8
FIT
10
582.951183
20
4099.900105
30
0
0
SEQEND
8
FIT
0
POLYLINE
8
FIT
66
1
70
0
10
0
20
0
30
0
0
VERTEX
8
FIT
10
574.494774
20
4094.562641
30
0
42
0.004296
0
VERTEX
8
FIT
10
557.721074
20
4083.670756
30
0
0
SEQEND
8
FIT
0
POLYLINE
8
FIT
66
1
70
0
10
0
20
0
30
0
0
VERTEX
8
FIT
10
549.405021
20
4078.11714
30
0
42
0.004296
0
VERTEX
8
FIT
10
532.917579
20
4066.796609
30
0
0
SEQEND
8
FIT
0
POLYLINE
8
FIT
66
1
70
0
10
0
20
0
30
0
0
VERTEX
8
FIT
10
524.747407
20
4061.03053
30
0
42
0.004296
0
VERTEX
8
FIT
10
508.557175
20
4049.288871
30
0
0
SEQEND
8
FIT
0
POLYLINE
8
FIT
66
1
70
0
10
0
20
0
30
0
0
VERTEX
8
FIT
10
500.53831
20
4043.314159
30
0
42
0.004296
0
VERTEX
8
FIT
10
484.656041
20
4031.159172
30
0
0
SEQEND
8
FIT
0
POLYLINE
8
FIT
66
1
70
0
10
0
20
0
30
0
0
VERTEX
8
FIT
10
476.79381
20
4024.979795
30
0
42
0.004296
0
VERTEX
8
FIT
10
461.230054
20
4012.419554
30
0
0
SEQEND
8
FIT
0
POLYLINE
8
FIT
66
1
70
0
10
0
20
0
30
0
0
VERTEX
8
FIT
10
453.529678
20
4006.039616
30
0
42
0.004296
0
VERTEX
8
FIT
10
438.294773
20
3993.082463
30
0
0
SEQEND
8
FIT
0
POLYLINE
8
FIT
66
1
70
0
10
0
20
0
30
0
0
VERTEX
8
FIT
10
430.761368
20
3986.506203
30
0
42
0.004296
0
VERTEX
8
FIT
10
415.865433
20
3973.160744
30
0
0
SEQEND
8
FIT
0
POLYLINE
8
FIT
66
1
70
0
10
0
20
0
30
0
0
VERTEX
8
FIT
10
408.504002
20
3966.39253
30
0
42
0.004296
0
VERTEX
8
FIT
10
393.956931
20
3952.66763
30
0
0
SEQEND
8
FIT
0
POLYLINE
8
FIT
66
1
70
0
10
0
20
0
30
0
0
VERTEX
8
FIT
10
386.772364
20
3945.711957
30
0
42
0.004296
0
VERTEX
8
FIT
10
372.58382
20
3931.616732
30
0
0
SEQEND
8
FIT
0
POLYLINE
8
FIT
66
1
70
0
10
0
20
0
30
0
0
VERTEX
8
FIT
10
365.580889
20
3924.47822
30
0
42
0.004296
0
VERTEX
8
FIT
10
351.760296
20
3910.022033
30
0
0
SEQEND
8
FIT
0
POLYLINE
8
FIT
66
1
70
0
10
0
20
0
30
0
0
VERTEX
8
FIT
10
344.943653
20
3902.705424
30
0
42
0.004296
0
VERTEX
8
FIT
10
331.50019
20
3887.897876
30
0
0
SEQEND
8
FIT
0
POLYLINE
8
FIT
66
1
70
0
10
0
20
0
30
0
0
VERTEX
8
FIT
10
324.874363
20
3880.40803
30
0
42
0.004296
0
VERTEX
8
FIT
10
311.81696
20
3865.258958
30
0
0
SEQEND
8
FIT
0
POLYLINE
8
FIT
66
1
70
0
10
0
20
0
30
0
0
VERTEX
8
FIT
10
305.386349
20
3857.600849
30
0
42
0.004296
0
VERTEX
8
FIT
10
292.72368
20
3842.120314
30
0
0
SEQEND
8
FIT
0
POLYLINE
8
FIT
66
1
70
0
10
0
20
0
30
0
0
VERTEX
8
FIT
10
286.492557
20
3834.29903
30
0
42
0.004296
0
VERTEX
8
FIT
10
274.233032
20
3818.497314
30
0
0
SEQEND
8
FIT
0
POLYLINE
8
FIT
66
1
70
0
10
0
20
0
30
0
0
VERTEX
8
FIT
10
268.205535
20
3810.51805
30
0
42
0.004296
0
VERTEX
8
FIT
10
256.357297
20
3794.40565
30
0
0
SEQEND
8
FIT
0
POLYLINE
8
FIT
66
1
70
0
10
0
20
0
30
0
0
VERTEX
8
FIT
10
250.537431
20
3786.273705
30
0
42
0.004296
0
VERTEX
8
FIT
10
239.10835
20
3769.861323
30
0
0
SEQEND
8
FIT
0
POLYLINE
8
FIT
66
1
70
0
10
0
20
0
30
0
0
VERTEX
8
FIT
10
233.499979
20
3761.582098
30
0
42
0.004296
0
VERTEX
8
FIT
10
222.497647
20
3744.880636
30
0
0
SEQEND
8
FIT
0
POLYLINE
8
FIT
66
1
70
0
10
0
20
0
30
0
0
VERTEX
8
FIT
10
217.104497
20
3736.459631
30
0
42
0.004296
0
VERTEX
8
FIT
10
206.536221
20
3719.480182
30
0
0
SEQEND
8
FIT
0
POLYLINE
8
FIT
66
1
70
0
10
0
20
0
30
0
0
VERTEX
8
FIT
10
201.361875
20
3710.92299
30
0
42
0.004296
0
VERTEX
8
FIT
10
191.234675
20
3693.676832
30
0
0
SEQEND
8
FIT
0
POLYLINE
8
FIT
66
1
70
0
10
0
20
0
30
0
0
VERTEX
8
FIT
10
186.282569
20
3684.989138
30
0
42
0.004296
0
VERTEX
8
FIT
10
176.603171
20
3667.487726
30
0
0
SEQEND
8
FIT
0
POLYLINE
8
FIT
66
1
70
0
10
0
20
0
30
0
0
VERTEX
8
FIT
10
171.876595
20
3658.675299
30
0
42
0.004296
0
VERTEX
8
FIT
10
162.651429
20
3640.930258
30
0
0
SEQEND
8
FIT
0
POLYLINE
8
FIT
66
1
70
0
10
0
20
0
30
0
0
VERTEX
8
FIT
10
158.153522
20
3631.998953
30
0
42
0.004296
0
VERTEX
8
FIT
10
149.388716
20
3614.022069
30
0
0
SEQEND
8
FIT
0
POLYLINE
8
FIT
66
1
70
0
10
0
20
0
30
0
0
VERTEX
8
FIT
10
145.122465
20
3604.977818
30
0
42
0.004296
0
VERTEX
8
FIT
10
136.823841
20
3586.781033
30
0
0
SEQEND
8
FIT
0
POLYLINE
8
FIT
66
1
70
0
10
0
20
0
30
0
0
VERTEX
8
FIT
10
132.79208
20
3577.629842
30
0
42
0.004296
0
VERTEX
8
FIT
10
124.965149
20
3559.225242
30
0
0
SEQEND
8
FIT
0
POLYLINE
8
FIT
66
1
70
0
10
0
20
0
30
0
0
VERTEX
8
FIT
10
121.170557
20
3549.97319
30
0
42
0.004296
0
VERTEX
8
FIT
10
113.820518
20
3531.373
30
0
0
SEQEND
8
FIT
0
POLYLINE
8
FIT
66
1
70
0
10
0
20
0
30
0
0
VERTEX
8
FIT
10
110.265614
20
3522.026233
30
0
42
0.004296
0
VERTEX
8
FIT
10
103.39735
20
3503.242807
30
0
0
SEQEND
8
FIT
0
POLYLINE
8
FIT
66
1
70
0
10
0
20
0
30
0
0
VERTEX
8
FIT
10
100.084496
20
3493.807533
30
0
42
0.004296
0
VERTEX
8
FIT
10
93.702569
20
3474.853348
30
0
0
SEQEND
8
FIT
0
POLYLINE
8
FIT
66
1
70
0
10
0
20
0
30
0
0
VERTEX
8
FIT
10
90.633965
20
3465.335834
30
0
42
0.004296
0
VERTEX
8
FIT
10
84.742613
20
3446.223479
30
0
0
SEQEND
8
FIT
0
POLYLINE
8
FIT
66
1
70
0
10
0
20
0
30
0
0
VERTEX
8
FIT
10
81.920298
20
3436.630048
30
0
42
0.004296
0
VERTEX
8
FIT
10
76.523434
20
3417.372218
30
0
0
SEQEND
8
FIT
0
POLYLINE
8
FIT
66
1
70
0
10
0
20
0
30
0
0
VERTEX
8
FIT
10
73.949283
20
3407.70924
30
0
42
0.004296
0
VERTEX
8
FIT
10
69.050492
20
3388.318727
30
0
0
SEQEND
8
FIT
0
POLYLINE
8
FIT
66
1
70
0
10
0
20
0
30
0
0
VERTEX
8
FIT
10
66.726214
20
3378.592622
30
0
42
0.004296
0
VERTEX
8
FIT
10
62.32875
20
3359.082305
30
0
0
SEQEND
8
FIT
0
POLYLINE
8
FIT
66
1
70
0
10
0
20
0
30
0
0
VERTEX
8
FIT
10
60.255889
20
3349.299533
30
0
42
0.004296
0
VERTEX
8
FIT
10
56.362674
20
3329.682371
30
0
0
SEQEND
8
FIT
0
POLYLINE
8
FIT
66
1
70
0
10
0
20
0
30
0
0
VERTEX
8
FIT
10
54.542606
20
3319.84943
30
0
42
0.004296
0
VERTEX
8
FIT
10
51.156225
20
3300.138454
30
0
0
SEQEND
8
FIT
0
POLYLINE
8
FIT
66
1
70
0
10
0
20
0
30
0
0
VERTEX
8
FIT
10
49.59016
20
3290.261874
30
0
42
0.004296
0
VERTEX
8
FIT
10
46.712862
20
3270.470176
30
0
0
SEQEND
8
FIT
0
POLYLINE
8
FIT
66
1
70
0
10
0
20
0
30
0
0
VERTEX
8
FIT
10
45.40184
20
3260.556518
30
0
42
0.004296
0
VERTEX
8
FIT
10
43.035536
20
3240.697244
30
0
0
SEQEND
8
FIT
0
POLYLINE
8
FIT
66
1
70
0
10
0
20
0
30
0
0
VERTEX
8
FIT
10
41.980428
20
3230.753094
30
0
42
0.004296
0
VERTEX
8
FIT
10
40.12669
20
3210.839435
30
0
0
SEQEND
8
FIT
0
POLYLINE
8
FIT
66
1
70
0
10
0
20
0
30
0
0
VERTEX
8
FIT
10
39.328197
20
3200.871396
30
0
42
0.004296
0
VERTEX
8
FIT
10
37.988257
20
3180.916579
30
0
0
SEQEND
8
FIT
0
POLYLINE
8
FIT
66
1
70
0
10
0
20
0
30
0
0
VERTEX
8
FIT
10
37.446908
20
3170.931273
30
0
42
0.004296
0
VERTEX
8
FIT
10
36.621655
20
3150.948553
30
0
0
SEQEND
8
FIT
0
POLYLINE
8
FIT
66
1
70
0
10
0
20
0
30
0
0
VERTEX
8
FIT
10
36.337812
20
3140.952613
30
0
42
0.004296
0
VERTEX
8
FIT
10
36.027794
20
3120.955262
30
0
0
SEQEND
8
FIT
0
TEXT
8
TEXT
10
1300
20
4133.641857
30
0
40
15
1
T - FIT (ASSEMBLY, NOT A TOOLPATH)
72
0
11
1300
21
4133.641857
31
0
73
0
0
TEXT
8
TEXT
10
1300
20
4111.641857
30
0
40
15
1
GAP 4 LAP 17 (REBATE)
72
0
11
1300
21
4111.641857
31
0
73
0
0
TEXT
8
TEXT
10
1300
20
4089.641857
30
0
40
15
1
FRAME R1200/1200 / 1143/1143  REBATE WALL R1164/1164 (LAND 36, DASHED)
72
0
11
1300
21
4089.641857
31
0
73
0
0
TEXT
8
TEXT
10
1300
20
4067.641857
30
0
40
15
1
LEAF R1160/1160 / 1093/1093  GLASS R1105.5/1105.5
72
0
11
1300
21
4067.641857
31
0
73
0
0
ENDSEC
0
EOF
