0
SECTION
2
HEADER
9
$ACADVER
1
AC1009
0
ENDSEC
0
SECTION
2
TABLES
0
TABLE
2
LAYER
70
7
0
LAYER
2
0
70
0
62
7
6
CONTINUOUS
0
LAYER
2
FIT
70
0
62
4
6
CONTINUOUS
0
LAYER
2
CONTOUR
70
0
62
7
6
CONTINUOUS
0
LAYER
2
ASSEMBLY
70
0
62
8
6
CONTINUOUS
0
LAYER
2
PIECES
70
0
62
5
6
CONTINUOUS
0
LAYER
2
FINGER
70
0
62
1
6
CONTINUOUS
0
LAYER
2
TEXT
70
0
62
94
6
CONTINUOUS
0
ENDTAB
0
ENDSEC
0
SECTION
2
ENTITIES
0
POLYLINE
8
ASSEMBLY
66
1
70
1
10
0
20
0
30
0
0
VERTEX
8
ASSEMBLY
10
0
20
0
30
0
0
VERTEX
8
ASSEMBLY
10
310.053711
20
0
30
0
0
VERTEX
8
ASSEMBLY
10
310.053711
20
105
30
0
0
VERTEX
8
ASSEMBLY
10
0
20
105
30
0
0
SEQEND
8
ASSEMBLY
0
POLYLINE
8
PIECES
66
1
70
1
10
0
20
0
30
0
0
VERTEX
8
PIECES
10
307.465521
20
75.147376
30
0
42
0.131652
0
VERTEX
8
PIECES
10
17.58819
20
75.147376
30
0
0
VERTEX
8
PIECES
10
34.929066
20
10.430345
30
0
42
-0.131652
0
VERTEX
8
PIECES
10
290.124645
20
10.430345
30
0
0
SEQEND
8
PIECES
0
POLYLINE
8
FINGER
66
1
70
0
10
0
20
0
30
0
0
VERTEX
8
FINGER
10
34.929066
20
10.430345
30
0
0
VERTEX
8
FINGER
10
17.58819
20
75.147376
30
0
0
SEQEND
8
FINGER
0
POLYLINE
8
FINGER
66
1
70
0
10
0
20
0
30
0
0
VERTEX
8
FINGER
10
16
20
0
30
0
0
VERTEX
8
FINGER
10
16
20
105
30
0
0
SEQEND
8
FINGER
0
TEXT
8
TEXT
10
155.026856
20
62.5
30
0
40
15
1
T - LEAF TOP P1 L310.1 x105
72
1
11
155.026856
21
62.5
31
0
73
2
0
TEXT
8
TEXT
10
155.026856
20
10
30
0
40
10
1
OUT 295.1 IN 250 CUT J15/S75 FINGER ONE END
72
1
11
155.026856
21
10
31
0
73
2
0
POLYLINE
8
ASSEMBLY
66
1
70
1
10
0
20
0
30
0
0
VERTEX
8
ASSEMBLY
10
510.053711
20
0
30
0
0
VERTEX
8
ASSEMBLY
10
835.107423
20
0
30
0
0
VERTEX
8
ASSEMBLY
10
835.107423
20
105
30
0
0
VERTEX
8
ASSEMBLY
10
510.053711
20
105
30
0
0
SEQEND
8
ASSEMBLY
0
POLYLINE
8
PIECES
66
1
70
1
10
0
20
0
30
0
0
VERTEX
8
PIECES
10
817.519232
20
75.147376
30
0
42
0.131652
0
VERTEX
8
PIECES
10
527.641902
20
75.147376
30
0
0
VERTEX
8
PIECES
10
544.982778
20
10.430345
30
0
42
-0.131652
0
VERTEX
8
PIECES
10
800.178356
20
10.430345
30
0
0
SEQEND
8
PIECES
0
POLYLINE
8
FINGER
66
1
70
0
10
0
20
0
30
0
0
VERTEX
8
FINGER
10
800.178356
20
10.430345
30
0
0
VERTEX
8
FINGER
10
817.519232
20
75.147376
30
0
0
SEQEND
8
FINGER
0
POLYLINE
8
FINGER
66
1
70
0
10
0
20
0
30
0
0
VERTEX
8
FINGER
10
544.982778
20
10.430345
30
0
0
VERTEX
8
FINGER
10
527.641902
20
75.147376
30
0
0
SEQEND
8
FINGER
0
POLYLINE
8
FINGER
66
1
70
0
10
0
20
0
30
0
0
VERTEX
8
FINGER
10
526.053711
20
0
30
0
0
VERTEX
8
FINGER
10
526.053711
20
105
30
0
0
SEQEND
8
FINGER
0
POLYLINE
8
FINGER
66
1
70
0
10
0
20
0
30
0
0
VERTEX
8
FINGER
10
819.107423
20
0
30
0
0
VERTEX
8
FINGER
10
819.107423
20
105
30
0
0
SEQEND
8
FINGER
0
TEXT
8
TEXT
10
672.580567
20
62.5
30
0
40
15
1
T - LEAF TOP P2 L325.1 x105
72
1
11
672.580567
21
62.5
31
0
73
2
0
TEXT
8
TEXT
10
672.580567
20
10
30
0
40
10
1
OUT 295.1 IN 250 CUT J15/J15 FINGER BOTH ENDS
72
1
11
672.580567
21
10
31
0
73
2
0
POLYLINE
8
ASSEMBLY
66
1
70
1
10
0
20
0
30
0
0
VERTEX
8
ASSEMBLY
10
1035.107423
20
0
30
0
0
VERTEX
8
ASSEMBLY
10
1360.161134
20
0
30
0
0
VERTEX
8
ASSEMBLY
10
1360.161134
20
105
30
0
0
VERTEX
8
ASSEMBLY
10
1035.107423
20
105
30
0
0
SEQEND
8
ASSEMBLY
0
POLYLINE
8
PIECES
66
1
70
1
10
0
20
0
30
0
0
VERTEX
8
PIECES
10
1342.572944
20
75.147376
30
0
42
0.131652
0
VERTEX
8
PIECES
10
1052.695613
20
75.147376
30
0
0
VERTEX
8
PIECES
10
1070.036489
20
10.430345
30
0
42
-0.131652
0
VERTEX
8
PIECES
10
1325.232068
20
10.430345
30
0
0
SEQEND
8
PIECES
0
POLYLINE
8
FINGER
66
1
70
0
10
0
20
0
30
0
0
VERTEX
8
FINGER
10
1325.232068
20
10.430345
30
0
0
VERTEX
8
FINGER
10
1342.572944
20
75.147376
30
0
0
SEQEND
8
FINGER
0
POLYLINE
8
FINGER
66
1
70
0
10
0
20
0
30
0
0
VERTEX
8
FINGER
10
1070.036489
20
10.430345
30
0
0
VERTEX
8
FINGER
10
1052.695613
20
75.147376
30
0
0
SEQEND
8
FINGER
0
POLYLINE
8
FINGER
66
1
70
0
10
0
20
0
30
0
0
VERTEX
8
FINGER
10
1051.107423
20
0
30
0
0
VERTEX
8
FINGER
10
1051.107423
20
105
30
0
0
SEQEND
8
FINGER
0
POLYLINE
8
FINGER
66
1
70
0
10
0
20
0
30
0
0
VERTEX
8
FINGER
10
1344.161134
20
0
30
0
0
VERTEX
8
FINGER
10
1344.161134
20
105
30
0
0
SEQEND
8
FINGER
0
TEXT
8
TEXT
10
1197.634279
20
62.5
30
0
40
15
1
T - LEAF TOP P3 L325.1 x105
72
1
11
1197.634279
21
62.5
31
0
73
2
0
TEXT
8
TEXT
10
1197.634279
20
10
30
0
40
10
1
OUT 295.1 IN 250 CUT J15/J15 FINGER BOTH ENDS
72
1
11
1197.634279
21
10
31
0
73
2
0
POLYLINE
8
ASSEMBLY
66
1
70
1
10
0
20
0
30
0
0
VERTEX
8
ASSEMBLY
10
1560.161134
20
0
30
0
0
VERTEX
8
ASSEMBLY
10
1885.214846
20
0
30
0
0
VERTEX
8
ASSEMBLY
10
1885.214846
20
105
30
0
0
VERTEX
8
ASSEMBLY
10
1560.161134
20
105
30
0
0
SEQEND
8
ASSEMBLY
0
POLYLINE
8
PIECES
66
1
70
1
10
0
20
0
30
0
0
VERTEX
8
PIECES
10
1867.626655
20
75.147376
30
0
42
0.131652
0
VERTEX
8
PIECES
10
1577.749325
20
75.147376
30
0
0
VERTEX
8
PIECES
10
1595.090201
20
10.430345
30
0
42
-0.131652
0
VERTEX
8
PIECES
10
1850.285779
20
10.430345
30
0
0
SEQEND
8
PIECES
0
POLYLINE
8
FINGER
66
1
70
0
10
0
20
0
30
0
0
VERTEX
8
FINGER
10
1850.285779
20
10.430345
30
0
0
VERTEX
8
FINGER
10
1867.626655
20
75.147376
30
0
0
SEQEND
8
FINGER
0
POLYLINE
8
FINGER
66
1
70
0
10
0
20
0
30
0
0
VERTEX
8
FINGER
10
1595.090201
20
10.430345
30
0
0
VERTEX
8
FINGER
10
1577.749325
20
75.147376
30
0
0
SEQEND
8
FINGER
0
POLYLINE
8
FINGER
66
1
70
0
10
0
20
0
30
0
0
VERTEX
8
FINGER
10
1576.161134
20
0
30
0
0
VERTEX
8
FINGER
10
1576.161134
20
105
30
0
0
SEQEND
8
FINGER
0
POLYLINE
8
FINGER
66
1
70
0
10
0
20
0
30
0
0
VERTEX
8
FINGER
10
1869.214846
20
0
30
0
0
VERTEX
8
FINGER
10
1869.214846
20
105
30
0
0
SEQEND
8
FINGER
0
TEXT
8
TEXT
10
1722.68799
20
62.5
30
0
40
15
1
T - LEAF TOP P4 L325.1 x105
72
1
11
1722.68799
21
62.5
31
0
73
2
0
TEXT
8
TEXT
10
1722.68799
20
10
30
0
40
10
1
OUT 295.1 IN 250 CUT J15/J15 FINGER BOTH ENDS
72
1
11
1722.68799
21
10
31
0
73
2
0
POLYLINE
8
ASSEMBLY
66
1
70
1
10
0
20
0
30
0
0
VERTEX
8
ASSEMBLY
10
2085.214846
20
0
30
0
0
VERTEX
8
ASSEMBLY
10
2410.268557
20
0
30
0
0
VERTEX
8
ASSEMBLY
10
2410.268557
20
105
30
0
0
VERTEX
8
ASSEMBLY
10
2085.214846
20
105
30
0
0
SEQEND
8
ASSEMBLY
0
POLYLINE
8
PIECES
66
1
70
1
10
0
20
0
30
0
0
VERTEX
8
PIECES
10
2392.680367
20
75.147376
30
0
42
0.131652
0
VERTEX
8
PIECES
10
2102.803036
20
75.147376
30
0
0
VERTEX
8
PIECES
10
2120.143912
20
10.430345
30
0
42
-0.131652
0
VERTEX
8
PIECES
10
2375.339491
20
10.430345
30
0
0
SEQEND
8
PIECES
0
POLYLINE
8
FINGER
66
1
70
0
10
0
20
0
30
0
0
VERTEX
8
FINGER
10
2375.339491
20
10.430345
30
0
0
VERTEX
8
FINGER
10
2392.680367
20
75.147376
30
0
0
SEQEND
8
FINGER
0
POLYLINE
8
FINGER
66
1
70
0
10
0
20
0
30
0
0
VERTEX
8
FINGER
10
2120.143912
20
10.430345
30
0
0
VERTEX
8
FINGER
10
2102.803036
20
75.147376
30
0
0
SEQEND
8
FINGER
0
POLYLINE
8
FINGER
66
1
70
0
10
0
20
0
30
0
0
VERTEX
8
FINGER
10
2101.214846
20
0
30
0
0
VERTEX
8
FINGER
10
2101.214846
20
105
30
0
0
SEQEND
8
FINGER
0
POLYLINE
8
FINGER
66
1
70
0
10
0
20
0
30
0
0
VERTEX
8
FINGER
10
2394.268557
20
0
30
0
0
VERTEX
8
FINGER
10
2394.268557
20
105
30
0
0
SEQEND
8
FINGER
0
TEXT
8
TEXT
10
2247.741701
20
62.5
30
0
40
15
1
T - LEAF TOP P5 L325.1 x105
72
1
11
2247.741701
21
62.5
31
0
73
2
0
TEXT
8
TEXT
10
2247.741701
20
10
30
0
40
10
1
OUT 295.1 IN 250 CUT J15/J15 FINGER BOTH ENDS
72
1
11
2247.741701
21
10
31
0
73
2
0
POLYLINE
8
ASSEMBLY
66
1
70
1
10
0
20
0
30
0
0
VERTEX
8
ASSEMBLY
10
2610.268557
20
0
30
0
0
VERTEX
8
ASSEMBLY
10
2920.322269
20
0
30
0
0
VERTEX
8
ASSEMBLY
10
2920.322269
20
105
30
0
0
VERTEX
8
ASSEMBLY
10
2610.268557
20
105
30
0
0
SEQEND
8
ASSEMBLY
0
POLYLINE
8
PIECES
66
1
70
1
10
0
20
0
30
0
0
VERTEX
8
PIECES
10
2902.734078
20
75.147376
30
0
42
0.131652
0
VERTEX
8
PIECES
10
2612.856748
20
75.147376
30
0
0
VERTEX
8
PIECES
10
2630.197624
20
10.430345
30
0
42
-0.131652
0
VERTEX
8
PIECES
10
2885.393202
20
10.430345
30
0
0
SEQEND
8
PIECES
0
POLYLINE
8
FINGER
66
1
70
0
10
0
20
0
30
0
0
VERTEX
8
FINGER
10
2885.393202
20
10.430345
30
0
0
VERTEX
8
FINGER
10
2902.734078
20
75.147376
30
0
0
SEQEND
8
FINGER
0
POLYLINE
8
FINGER
66
1
70
0
10
0
20
0
30
0
0
VERTEX
8
FINGER
10
2904.322269
20
0
30
0
0
VERTEX
8
FINGER
10
2904.322269
20
105
30
0
0
SEQEND
8
FINGER
0
TEXT
8
TEXT
10
2765.295413
20
62.5
30
0
40
15
1
T - LEAF TOP P6 L310.1 x105
72
1
11
2765.295413
21
62.5
31
0
73
2
0
TEXT
8
TEXT
10
2765.295413
20
10
30
0
40
10
1
OUT 295.1 IN 250 CUT S75/J15 FINGER ONE END
72
1
11
2765.295413
21
10
31
0
73
2
0
POLYLINE
8
CONTOUR
66
1
70
1
10
0
20
0
30
0
0
VERTEX
8
CONTOUR
10
1149.505294
20
326.949572
30
0
42
1
0
VERTEX
8
CONTOUR
10
29.505294
20
326.949572
30
0
0
VERTEX
8
CONTOUR
10
96.505294
20
326.949572
30
0
42
-1
0
VERTEX
8
CONTOUR
10
1082.505294
20
326.949572
30
0
0
SEQEND
8
CONTOUR
0
POLYLINE
8
ASSEMBLY
66
1
70
1
10
0
20
0
30
0
0
VERTEX
8
ASSEMBLY
10
1077.588376
20
305
30
0
0
VERTEX
8
ASSEMBLY
10
1001.222856
20
590
30
0
0
VERTEX
8
ASSEMBLY
10
1102.645068
20
617.176
30
0
0
VERTEX
8
ASSEMBLY
10
1179.010588
20
332.176
30
0
0
SEQEND
8
ASSEMBLY
0
POLYLINE
8
FINGER
66
1
70
0
10
0
20
0
30
0
0
VERTEX
8
FINGER
10
1016.455818
20
573.449572
30
0
0
VERTEX
8
FINGER
10
1074.47952
20
606.949572
30
0
0
SEQEND
8
FINGER
0
POLYLINE
8
ASSEMBLY
66
1
70
1
10
0
20
0
30
0
0
VERTEX
8
ASSEMBLY
10
1023.172428
20
551.982226
30
0
0
VERTEX
8
ASSEMBLY
10
814.537948
20
760.616706
30
0
0
VERTEX
8
ASSEMBLY
10
888.78416
20
834.862918
30
0
0
VERTEX
8
ASSEMBLY
10
1097.41864
20
626.228438
30
0
0
SEQEND
8
ASSEMBLY
0
POLYLINE
8
FINGER
66
1
70
0
10
0
20
0
30
0
0
VERTEX
8
FINGER
10
836.005294
20
753.900096
30
0
0
VERTEX
8
FINGER
10
869.505294
20
811.923798
30
0
0
SEQEND
8
FINGER
0
POLYLINE
8
ASSEMBLY
66
1
70
1
10
0
20
0
30
0
0
VERTEX
8
ASSEMBLY
10
852.555722
20
738.667134
30
0
0
VERTEX
8
ASSEMBLY
10
567.555722
20
815.032654
30
0
0
VERTEX
8
ASSEMBLY
10
594.731722
20
916.454866
30
0
0
VERTEX
8
ASSEMBLY
10
879.731722
20
840.089346
30
0
0
SEQEND
8
ASSEMBLY
0
POLYLINE
8
FINGER
66
1
70
0
10
0
20
0
30
0
0
VERTEX
8
FINGER
10
589.505294
20
819.949572
30
0
0
VERTEX
8
FINGER
10
589.505294
20
886.949572
30
0
0
SEQEND
8
FINGER
0
POLYLINE
8
ASSEMBLY
66
1
70
1
10
0
20
0
30
0
0
VERTEX
8
ASSEMBLY
10
611.454866
20
815.032654
30
0
0
VERTEX
8
ASSEMBLY
10
326.454866
20
738.667134
30
0
0
VERTEX
8
ASSEMBLY
10
299.278866
20
840.089346
30
0
0
VERTEX
8
ASSEMBLY
10
584.278866
20
916.454866
30
0
0
SEQEND
8
ASSEMBLY
0
POLYLINE
8
FINGER
66
1
70
0
10
0
20
0
30
0
0
VERTEX
8
FINGER
10
343.005294
20
753.900096
30
0
0
VERTEX
8
FINGER
10
309.505294
20
811.923798
30
0
0
SEQEND
8
FINGER
0
POLYLINE
8
ASSEMBLY
66
1
70
1
10
0
20
0
30
0
0
VERTEX
8
ASSEMBLY
10
364.47264
20
760.616706
30
0
0
VERTEX
8
ASSEMBLY
10
155.83816
20
551.982226
30
0
0
VERTEX
8
ASSEMBLY
10
81.591948
20
626.228438
30
0
0
VERTEX
8
ASSEMBLY
10
290.226428
20
834.862918
30
0
0
SEQEND
8
ASSEMBLY
0
POLYLINE
8
FINGER
66
1
70
0
10
0
20
0
30
0
0
VERTEX
8
FINGER
10
162.55477
20
573.449572
30
0
0
VERTEX
8
FINGER
10
104.531068
20
606.949572
30
0
0
SEQEND
8
FINGER
0
POLYLINE
8
ASSEMBLY
66
1
70
1
10
0
20
0
30
0
0
VERTEX
8
ASSEMBLY
10
177.787732
20
590
30
0
0
VERTEX
8
ASSEMBLY
10
101.422212
20
305
30
0
0
VERTEX
8
ASSEMBLY
10
0
20
332.176
30
0
0
VERTEX
8
ASSEMBLY
10
76.36552
20
617.176
30
0
0
SEQEND
8
ASSEMBLY
0
TEXT
8
TEXT
10
1279.010588
20
897.954866
30
0
40
15
1
T - LEAF TOP
72
0
11
1279.010588
21
897.954866
31
0
73
0
0
TEXT
8
TEXT
10
1279.010588
20
875.954866
30
0
40
15
1
SEMI-CIRCLE W1200 RISE600 H2000 HINGE R
72
0
11
1279.010588
21
875.954866
31
0
73
0
0
TEXT
8
TEXT
10
1279.010588
20
853.954866
30
0
40
15
1
FACE 67 OFFSET 40 OUTER L1759.3 INNER L1548.8
72
0
11
1279.010588
21
853.954866
31
0
73
0
0
TEXT
8
TEXT
10
1279.010588
20
831.954866
30
0
40
15
1
ARC 1 R560 L1759.3 180DEG: 6 x board 105 L295.1 ROUGH 325.1 (ALT 5 x board 180)
72
0
11
1279.010588
21
831.954866
31
0
73
0
0
TEXT
8
TEXT
10
1279.010588
20
809.954866
30
0
40
15
1
FINGER 15/16/3.8
72
0
11
1279.010588
21
809.954866
31
0
73
0
0
TEXT
8
TEXT
10
1279.010588
20
787.954866
30
0
40
15
1
ALLOWANCE 10 PER SIDE  MAX SEGMENT 36 DEG  RULE NARROWEST
72
0
11
1279.010588
21
787.954866
31
0
73
0
0
TEXT
8
TEXT
10
1279.010588
20
765.954866
30
0
40
15
1
CUT CODES: J = JOINT FROM SQUARE  S = ARCH-START, AXIS TO HORIZONTAL  A = APEX FROM SQUARE
72
0
11
1279.010588
21
765.954866
31
0
73
0
0
POLYLINE
8
ASSEMBLY
66
1
70
1
10
0
20
0
30
0
0
VERTEX
8
ASSEMBLY
10
0
20
1116.454866
30
0
0
VERTEX
8
ASSEMBLY
10
286.475539
20
1116.454866
30
0
0
VERTEX
8
ASSEMBLY
10
286.475539
20
1211.454866
30
0
0
VERTEX
8
ASSEMBLY
10
0
20
1211.454866
30
0
0
SEQEND
8
ASSEMBLY
0
POLYLINE
8
PIECES
66
1
70
1
10
0
20
0
30
0
0
VERTEX
8
PIECES
10
284.25033
20
1184.093325
30
0
42
0.112673
0
VERTEX
8
PIECES
10
17.225209
20
1184.093325
30
0
0
VERTEX
8
PIECES
10
29.908903
20
1128.522434
30
0
42
-0.112673
0
VERTEX
8
PIECES
10
271.566637
20
1128.522434
30
0
0
SEQEND
8
PIECES
0
POLYLINE
8
FINGER
66
1
70
0
10
0
20
0
30
0
0
VERTEX
8
FINGER
10
29.908903
20
1128.522434
30
0
0
VERTEX
8
FINGER
10
17.225209
20
1184.093325
30
0
0
SEQEND
8
FINGER
0
POLYLINE
8
FINGER
66
1
70
0
10
0
20
0
30
0
0
VERTEX
8
FINGER
10
16
20
1116.454866
30
0
0
VERTEX
8
FINGER
10
16
20
1211.454866
30
0
0
SEQEND
8
FINGER
0
TEXT
8
TEXT
10
143.23777
20
1173.954866
30
0
40
15
1
T - FRAME HEAD P1 L286.5 x95
72
1
11
143.23777
21
1173.954866
31
0
73
2
0
TEXT
8
TEXT
10
143.23777
20
1126.454866
30
0
40
10
1
OUT 271.5 IN 237.2 CUT J12.9/S77.1 FINGER ONE END
72
1
11
143.23777
21
1126.454866
31
0
73
2
0
POLYLINE
8
ASSEMBLY
66
1
70
1
10
0
20
0
30
0
0
VERTEX
8
ASSEMBLY
10
486.475539
20
1116.454866
30
0
0
VERTEX
8
ASSEMBLY
10
787.951079
20
1116.454866
30
0
0
VERTEX
8
ASSEMBLY
10
787.951079
20
1211.454866
30
0
0
VERTEX
8
ASSEMBLY
10
486.475539
20
1211.454866
30
0
0
SEQEND
8
ASSEMBLY
0
POLYLINE
8
PIECES
66
1
70
1
10
0
20
0
30
0
0
VERTEX
8
PIECES
10
770.72587
20
1184.093325
30
0
42
0.112673
0
VERTEX
8
PIECES
10
503.700749
20
1184.093325
30
0
0
VERTEX
8
PIECES
10
516.384442
20
1128.522434
30
0
42
-0.112673
0
VERTEX
8
PIECES
10
758.042176
20
1128.522434
30
0
0
SEQEND
8
PIECES
0
POLYLINE
8
FINGER
66
1
70
0
10
0
20
0
30
0
0
VERTEX
8
FINGER
10
758.042176
20
1128.522434
30
0
0
VERTEX
8
FINGER
10
770.72587
20
1184.093325
30
0
0
SEQEND
8
FINGER
0
POLYLINE
8
FINGER
66
1
70
0
10
0
20
0
30
0
0
VERTEX
8
FINGER
10
516.384442
20
1128.522434
30
0
0
VERTEX
8
FINGER
10
503.700749
20
1184.093325
30
0
0
SEQEND
8
FINGER
0
POLYLINE
8
FINGER
66
1
70
0
10
0
20
0
30
0
0
VERTEX
8
FINGER
10
502.475539
20
1116.454866
30
0
0
VERTEX
8
FINGER
10
502.475539
20
1211.454866
30
0
0
SEQEND
8
FINGER
0
POLYLINE
8
FINGER
66
1
70
0
10
0
20
0
30
0
0
VERTEX
8
FINGER
10
771.951079
20
1116.454866
30
0
0
VERTEX
8
FINGER
10
771.951079
20
1211.454866
30
0
0
SEQEND
8
FINGER
0
TEXT
8
TEXT
10
637.213309
20
1173.954866
30
0
40
15
1
T - FRAME HEAD P2 L301.5 x95
72
1
11
637.213309
21
1173.954866
31
0
73
2
0
TEXT
8
TEXT
10
637.213309
20
1126.454866
30
0
40
10
1
OUT 271.5 IN 237.2 CUT J12.9/J12.9 FINGER BOTH ENDS
72
1
11
637.213309
21
1126.454866
31
0
73
2
0
POLYLINE
8
ASSEMBLY
66
1
70
1
10
0
20
0
30
0
0
VERTEX
8
ASSEMBLY
10
987.951079
20
1116.454866
30
0
0
VERTEX
8
ASSEMBLY
10
1289.426618
20
1116.454866
30
0
0
VERTEX
8
ASSEMBLY
10
1289.426618
20
1211.454866
30
0
0
VERTEX
8
ASSEMBLY
10
987.951079
20
1211.454866
30
0
0
SEQEND
8
ASSEMBLY
0
POLYLINE
8
PIECES
66
1
70
1
10
0
20
0
30
0
0
VERTEX
8
PIECES
10
1272.201409
20
1184.093325
30
0
42
0.112673
0
VERTEX
8
PIECES
10
1005.176288
20
1184.093325
30
0
0
VERTEX
8
PIECES
10
1017.859981
20
1128.522434
30
0
42
-0.112673
0
VERTEX
8
PIECES
10
1259.517716
20
1128.522434
30
0
0
SEQEND
8
PIECES
0
POLYLINE
8
FINGER
66
1
70
0
10
0
20
0
30
0
0
VERTEX
8
FINGER
10
1259.517716
20
1128.522434
30
0
0
VERTEX
8
FINGER
10
1272.201409
20
1184.093325
30
0
0
SEQEND
8
FINGER
0
POLYLINE
8
FINGER
66
1
70
0
10
0
20
0
30
0
0
VERTEX
8
FINGER
10
1017.859981
20
1128.522434
30
0
0
VERTEX
8
FINGER
10
1005.176288
20
1184.093325
30
0
0
SEQEND
8
FINGER
0
POLYLINE
8
FINGER
66
1
70
0
10
0
20
0
30
0
0
VERTEX
8
FINGER
10
1003.951079
20
1116.454866
30
0
0
VERTEX
8
FINGER
10
1003.951079
20
1211.454866
30
0
0
SEQEND
8
FINGER
0
POLYLINE
8
FINGER
66
1
70
0
10
0
20
0
30
0
0
VERTEX
8
FINGER
10
1273.426618
20
1116.454866
30
0
0
VERTEX
8
FINGER
10
1273.426618
20
1211.454866
30
0
0
SEQEND
8
FINGER
0
TEXT
8
TEXT
10
1138.688849
20
1173.954866
30
0
40
15
1
T - FRAME HEAD P3 L301.5 x95
72
1
11
1138.688849
21
1173.954866
31
0
73
2
0
TEXT
8
TEXT
10
1138.688849
20
1126.454866
30
0
40
10
1
OUT 271.5 IN 237.2 CUT J12.9/J12.9 FINGER BOTH ENDS
72
1
11
1138.688849
21
1126.454866
31
0
73
2
0
POLYLINE
8
ASSEMBLY
66
1
70
1
10
0
20
0
30
0
0
VERTEX
8
ASSEMBLY
10
1489.426618
20
1116.454866
30
0
0
VERTEX
8
ASSEMBLY
10
1790.902158
20
1116.454866
30
0
0
VERTEX
8
ASSEMBLY
10
1790.902158
20
1211.454866
30
0
0
VERTEX
8
ASSEMBLY
10
1489.426618
20
1211.454866
30
0
0
SEQEND
8
ASSEMBLY
0
POLYLINE
8
PIECES
66
1
70
1
10
0
20
0
30
0
0
VERTEX
8
PIECES
10
1773.676948
20
1184.093325
30
0
42
0.112673
0
VERTEX
8
PIECES
10
1506.651828
20
1184.093325
30
0
0
VERTEX
8
PIECES
10
1519.335521
20
1128.522434
30
0
42
-0.112673
0
VERTEX
8
PIECES
10
1760.993255
20
1128.522434
30
0
0
SEQEND
8
PIECES
0
POLYLINE
8
FINGER
66
1
70
0
10
0
20
0
30
0
0
VERTEX
8
FINGER
10
1760.993255
20
1128.522434
30
0
0
VERTEX
8
FINGER
10
1773.676948
20
1184.093325
30
0
0
SEQEND
8
FINGER
0
POLYLINE
8
FINGER
66
1
70
0
10
0
20
0
30
0
0
VERTEX
8
FINGER
10
1519.335521
20
1128.522434
30
0
0
VERTEX
8
FINGER
10
1506.651828
20
1184.093325
30
0
0
SEQEND
8
FINGER
0
POLYLINE
8
FINGER
66
1
70
0
10
0
20
0
30
0
0
VERTEX
8
FINGER
10
1505.426618
20
1116.454866
30
0
0
VERTEX
8
FINGER
10
1505.426618
20
1211.454866
30
0
0
SEQEND
8
FINGER
0
POLYLINE
8
FINGER
66
1
70
0
10
0
20
0
30
0
0
VERTEX
8
FINGER
10
1774.902158
20
1116.454866
30
0
0
VERTEX
8
FINGER
10
1774.902158
20
1211.454866
30
0
0
SEQEND
8
FINGER
0
TEXT
8
TEXT
10
1640.164388
20
1173.954866
30
0
40
15
1
T - FRAME HEAD P4 L301.5 x95
72
1
11
1640.164388
21
1173.954866
31
0
73
2
0
TEXT
8
TEXT
10
1640.164388
20
1126.454866
30
0
40
10
1
OUT 271.5 IN 237.2 CUT J12.9/J12.9 FINGER BOTH ENDS
72
1
11
1640.164388
21
1126.454866
31
0
73
2
0
POLYLINE
8
ASSEMBLY
66
1
70
1
10
0
20
0
30
0
0
VERTEX
8
ASSEMBLY
10
1990.902158
20
1116.454866
30
0
0
VERTEX
8
ASSEMBLY
10
2292.377697
20
1116.454866
30
0
0
VERTEX
8
ASSEMBLY
10
2292.377697
20
1211.454866
30
0
0
VERTEX
8
ASSEMBLY
10
1990.902158
20
1211.454866
30
0
0
SEQEND
8
ASSEMBLY
0
POLYLINE
8
PIECES
66
1
70
1
10
0
20
0
30
0
0
VERTEX
8
PIECES
10
2275.152488
20
1184.093325
30
0
42
0.112673
0
VERTEX
8
PIECES
10
2008.127367
20
1184.093325
30
0
0
VERTEX
8
PIECES
10
2020.81106
20
1128.522434
30
0
42
-0.112673
0
VERTEX
8
PIECES
10
2262.468795
20
1128.522434
30
0
0
SEQEND
8
PIECES
0
POLYLINE
8
FINGER
66
1
70
0
10
0
20
0
30
0
0
VERTEX
8
FINGER
10
2262.468795
20
1128.522434
30
0
0
VERTEX
8
FINGER
10
2275.152488
20
1184.093325
30
0
0
SEQEND
8
FINGER
0
POLYLINE
8
FINGER
66
1
70
0
10
0
20
0
30
0
0
VERTEX
8
FINGER
10
2020.81106
20
1128.522434
30
0
0
VERTEX
8
FINGER
10
2008.127367
20
1184.093325
30
0
0
SEQEND
8
FINGER
0
POLYLINE
8
FINGER
66
1
70
0
10
0
20
0
30
0
0
VERTEX
8
FINGER
10
2006.902158
20
1116.454866
30
0
0
VERTEX
8
FINGER
10
2006.902158
20
1211.454866
30
0
0
SEQEND
8
FINGER
0
POLYLINE
8
FINGER
66
1
70
0
10
0
20
0
30
0
0
VERTEX
8
FINGER
10
2276.377697
20
1116.454866
30
0
0
VERTEX
8
FINGER
10
2276.377697
20
1211.454866
30
0
0
SEQEND
8
FINGER
0
TEXT
8
TEXT
10
2141.639927
20
1173.954866
30
0
40
15
1
T - FRAME HEAD P5 L301.5 x95
72
1
11
2141.639927
21
1173.954866
31
0
73
2
0
TEXT
8
TEXT
10
2141.639927
20
1126.454866
30
0
40
10
1
OUT 271.5 IN 237.2 CUT J12.9/J12.9 FINGER BOTH ENDS
72
1
11
2141.639927
21
1126.454866
31
0
73
2
0
POLYLINE
8
ASSEMBLY
66
1
70
1
10
0
20
0
30
0
0
VERTEX
8
ASSEMBLY
10
2492.377697
20
1116.454866
30
0
0
VERTEX
8
ASSEMBLY
10
2793.853237
20
1116.454866
30
0
0
VERTEX
8
ASSEMBLY
10
2793.853237
20
1211.454866
30
0
0
VERTEX
8
ASSEMBLY
10
2492.377697
20
1211.454866
30
0
0
SEQEND
8
ASSEMBLY
0
POLYLINE
8
PIECES
66
1
70
1
10
0
20
0
30
0
0
VERTEX
8
PIECES
10
2776.628027
20
1184.093325
30
0
42
0.112673
0
VERTEX
8
PIECES
10
2509.602906
20
1184.093325
30
0
0
VERTEX
8
PIECES
10
2522.2866
20
1128.522434
30
0
42
-0.112673
0
VERTEX
8
PIECES
10
2763.944334
20
1128.522434
30
0
0
SEQEND
8
PIECES
0
POLYLINE
8
FINGER
66
1
70
0
10
0
20
0
30
0
0
VERTEX
8
FINGER
10
2763.944334
20
1128.522434
30
0
0
VERTEX
8
FINGER
10
2776.628027
20
1184.093325
30
0
0
SEQEND
8
FINGER
0
POLYLINE
8
FINGER
66
1
70
0
10
0
20
0
30
0
0
VERTEX
8
FINGER
10
2522.2866
20
1128.522434
30
0
0
VERTEX
8
FINGER
10
2509.602906
20
1184.093325
30
0
0
SEQEND
8
FINGER
0
POLYLINE
8
FINGER
66
1
70
0
10
0
20
0
30
0
0
VERTEX
8
FINGER
10
2508.377697
20
1116.454866
30
0
0
VERTEX
8
FINGER
10
2508.377697
20
1211.454866
30
0
0
SEQEND
8
FINGER
0
POLYLINE
8
FINGER
66
1
70
0
10
0
20
0
30
0
0
VERTEX
8
FINGER
10
2777.853237
20
1116.454866
30
0
0
VERTEX
8
FINGER
10
2777.853237
20
1211.454866
30
0
0
SEQEND
8
FINGER
0
TEXT
8
TEXT
10
2643.115467
20
1173.954866
30
0
40
15
1
T - FRAME HEAD P6 L301.5 x95
72
1
11
2643.115467
21
1173.954866
31
0
73
2
0
TEXT
8
TEXT
10
2643.115467
20
1126.454866
30
0
40
10
1
OUT 271.5 IN 237.2 CUT J12.9/J12.9 FINGER BOTH ENDS
72
1
11
2643.115467
21
1126.454866
31
0
73
2
0
POLYLINE
8
ASSEMBLY
66
1
70
1
10
0
20
0
30
0
0
VERTEX
8
ASSEMBLY
10
2993.853237
20
1116.454866
30
0
0
VERTEX
8
ASSEMBLY
10
3280.328776
20
1116.454866
30
0
0
VERTEX
8
ASSEMBLY
10
3280.328776
20
1211.454866
30
0
0
VERTEX
8
ASSEMBLY
10
2993.853237
20
1211.454866
30
0
0
SEQEND
8
ASSEMBLY
0
POLYLINE
8
PIECES
66
1
70
1
10
0
20
0
30
0
0
VERTEX
8
PIECES
10
3263.103567
20
1184.093325
30
0
42
0.112673
0
VERTEX
8
PIECES
10
2996.078446
20
1184.093325
30
0
0
VERTEX
8
PIECES
10
3008.762139
20
1128.522434
30
0
42
-0.112673
0
VERTEX
8
PIECES
10
3250.419873
20
1128.522434
30
0
0
SEQEND
8
PIECES
0
POLYLINE
8
FINGER
66
1
70
0
10
0
20
0
30
0
0
VERTEX
8
FINGER
10
3250.419873
20
1128.522434
30
0
0
VERTEX
8
FINGER
10
3263.103567
20
1184.093325
30
0
0
SEQEND
8
FINGER
0
POLYLINE
8
FINGER
66
1
70
0
10
0
20
0
30
0
0
VERTEX
8
FINGER
10
3264.328776
20
1116.454866
30
0
0
VERTEX
8
FINGER
10
3264.328776
20
1211.454866
30
0
0
SEQEND
8
FINGER
0
TEXT
8
TEXT
10
3137.091006
20
1173.954866
30
0
40
15
1
T - FRAME HEAD P7 L286.5 x95
72
1
11
3137.091006
21
1173.954866
31
0
73
2
0
TEXT
8
TEXT
10
3137.091006
20
1126.454866
30
0
40
10
1
OUT 271.5 IN 237.2 CUT S77.1/J12.9 FINGER ONE END
72
1
11
3137.091006
21
1126.454866
31
0
73
2
0
POLYLINE
8
CONTOUR
66
1
70
1
10
0
20
0
30
0
0
VERTEX
8
CONTOUR
10
1227.170686
20
1428.675258
30
0
42
1
0
VERTEX
8
CONTOUR
10
27.170686
20
1428.675258
30
0
0
VERTEX
8
CONTOUR
10
84.170686
20
1428.675258
30
0
42
-1
0
VERTEX
8
CONTOUR
10
1170.170686
20
1428.675258
30
0
0
SEQEND
8
CONTOUR
0
POLYLINE
8
ASSEMBLY
66
1
70
1
10
0
20
0
30
0
0
VERTEX
8
ASSEMBLY
10
1161.72322
20
1411.454866
30
0
0
VERTEX
8
ASSEMBLY
10
1101.31423
20
1676.123947
30
0
0
VERTEX
8
ASSEMBLY
10
1193.932381
20
1697.263435
30
0
0
VERTEX
8
ASSEMBLY
10
1254.341372
20
1432.594355
30
0
0
SEQEND
8
ASSEMBLY
0
POLYLINE
8
FINGER
66
1
70
0
10
0
20
0
30
0
0
VERTEX
8
FINGER
10
1116.396781
20
1664.274128
30
0
0
VERTEX
8
FINGER
10
1167.752007
20
1689.005501
30
0
0
SEQEND
8
FINGER
0
POLYLINE
8
ASSEMBLY
66
1
70
1
10
0
20
0
30
0
0
VERTEX
8
ASSEMBLY
10
1116.257526
20
1645.093873
30
0
0
VERTEX
8
ASSEMBLY
10
946.995295
20
1857.341996
30
0
0
VERTEX
8
ASSEMBLY
10
1021.269286
20
1916.573528
30
0
0
VERTEX
8
ASSEMBLY
10
1190.531516
20
1704.325404
30
0
0
SEQEND
8
ASSEMBLY
0
POLYLINE
8
FINGER
66
1
70
0
10
0
20
0
30
0
0
VERTEX
8
FINGER
10
965.725648
20
1853.209752
30
0
0
VERTEX
8
FINGER
10
1001.264567
20
1897.774147
30
0
0
SEQEND
8
FINGER
0
POLYLINE
8
ASSEMBLY
66
1
70
1
10
0
20
0
30
0
0
VERTEX
8
ASSEMBLY
10
973.922184
20
1835.868519
30
0
0
VERTEX
8
ASSEMBLY
10
729.331175
20
1953.657341
30
0
0
VERTEX
8
ASSEMBLY
10
770.55013
20
2039.249384
30
0
0
VERTEX
8
ASSEMBLY
10
1015.141139
20
1921.460562
30
0
0
SEQEND
8
ASSEMBLY
0
POLYLINE
8
FINGER
66
1
70
0
10
0
20
0
30
0
0
VERTEX
8
FINGER
10
747.999553
20
1958.061114
30
0
0
VERTEX
8
FINGER
10
760.683246
20
2013.632005
30
0
0
SEQEND
8
FINGER
0
POLYLINE
8
ASSEMBLY
66
1
70
1
10
0
20
0
30
0
0
VERTEX
8
ASSEMBLY
10
762.908456
20
1945.993546
30
0
0
VERTEX
8
ASSEMBLY
10
491.432916
20
1945.993546
30
0
0
VERTEX
8
ASSEMBLY
10
491.432916
20
2040.993546
30
0
0
VERTEX
8
ASSEMBLY
10
762.908456
20
2040.993546
30
0
0
SEQEND
8
ASSEMBLY
0
POLYLINE
8
FINGER
66
1
70
0
10
0
20
0
30
0
0
VERTEX
8
FINGER
10
506.341819
20
1958.061114
30
0
0
VERTEX
8
FINGER
10
493.658126
20
2013.632005
30
0
0
SEQEND
8
FINGER
0
POLYLINE
8
ASSEMBLY
66
1
70
1
10
0
20
0
30
0
0
VERTEX
8
ASSEMBLY
10
525.010197
20
1953.657341
30
0
0
VERTEX
8
ASSEMBLY
10
280.419188
20
1835.868519
30
0
0
VERTEX
8
ASSEMBLY
10
239.200233
20
1921.460562
30
0
0
VERTEX
8
ASSEMBLY
10
483.791242
20
2039.249384
30
0
0
SEQEND
8
ASSEMBLY
0
POLYLINE
8
FINGER
66
1
70
0
10
0
20
0
30
0
0
VERTEX
8
FINGER
10
288.615724
20
1853.209752
30
0
0
VERTEX
8
FINGER
10
253.076805
20
1897.774147
30
0
0
SEQEND
8
FINGER
0
POLYLINE
8
ASSEMBLY
66
1
70
1
10
0
20
0
30
0
0
VERTEX
8
ASSEMBLY
10
307.346077
20
1857.341996
30
0
0
VERTEX
8
ASSEMBLY
10
138.083846
20
1645.093873
30
0
0
VERTEX
8
ASSEMBLY
10
63.809856
20
1704.325404
30
0
0
VERTEX
8
ASSEMBLY
10
233.072086
20
1916.573528
30
0
0
SEQEND
8
ASSEMBLY
0
POLYLINE
8
FINGER
66
1
70
0
10
0
20
0
30
0
0
VERTEX
8
FINGER
10
137.944591
20
1664.274128
30
0
0
VERTEX
8
FINGER
10
86.589365
20
1689.005501
30
0
0
SEQEND
8
FINGER
0
POLYLINE
8
ASSEMBLY
66
1
70
1
10
0
20
0
30
0
0
VERTEX
8
ASSEMBLY
10
153.027142
20
1676.123947
30
0
0
VERTEX
8
ASSEMBLY
10
92.618152
20
1411.454866
30
0
0
VERTEX
8
ASSEMBLY
10
0
20
1432.594355
30
0
0
VERTEX
8
ASSEMBLY
10
60.408991
20
1697.263435
30
0
0
SEQEND
8
ASSEMBLY
0
TEXT
8
TEXT
10
1354.341372
20
2022.493546
30
0
40
15
1
T - FRAME HEAD
72
0
11
1354.341372
21
2022.493546
31
0
73
0
0
TEXT
8
TEXT
10
1354.341372
20
2000.493546
30
0
40
15
1
SEMI-CIRCLE W1200 RISE600 H2000 HINGE R
72
0
11
1354.341372
21
2000.493546
31
0
73
0
0
TEXT
8
TEXT
10
1354.341372
20
1978.493546
30
0
40
15
1
FACE 57 OFFSET 0 OUTER L1885 INNER L1705.9
72
0
11
1354.341372
21
1978.493546
31
0
73
0
0
TEXT
8
TEXT
10
1354.341372
20
1956.493546
30
0
40
15
1
ARC 1 R600 L1885 180DEG: 7 x board 95 L271.5 ROUGH 301.5 (ALT 5 x board 105)
72
0
11
1354.341372
21
1956.493546
31
0
73
0
0
TEXT
8
TEXT
10
1354.341372
20
1934.493546
30
0
40
15
1
FINGER 15/16/3.8
72
0
11
1354.341372
21
1934.493546
31
0
73
0
0
TEXT
8
TEXT
10
1354.341372
20
1912.493546
30
0
40
15
1
ALLOWANCE 10 PER SIDE  MAX SEGMENT 36 DEG  RULE NARROWEST
72
0
11
1354.341372
21
1912.493546
31
0
73
0
0
TEXT
8
TEXT
10
1354.341372
20
1890.493546
30
0
40
15
1
CUT CODES: J = JOINT FROM SQUARE  S = ARCH-START, AXIS TO HORIZONTAL  A = APEX FROM SQUARE
72
0
11
1354.341372
21
1890.493546
31
0
73
0
0
POLYLINE
8
FIT
66
1
70
1
10
0
20
0
30
0
0
VERTEX
8
FIT
10
1200
20
2240.993546
30
0
42
1
0
VERTEX
8
FIT
10
0
20
2240.993546
30
0
0
VERTEX
8
FIT
10
57
20
2240.993546
30
0
42
-1
0
VERTEX
8
FIT
10
1143
20
2240.993546
30
0
0
SEQEND
8
FIT
0
POLYLINE
8
FIT
66
1
70
1
10
0
20
0
30
0
0
VERTEX
8
FIT
10
1160
20
2240.993546
30
0
42
1
0
VERTEX
8
FIT
10
40
20
2240.993546
30
0
0
VERTEX
8
FIT
10
107
20
2240.993546
30
0
42
-1
0
VERTEX
8
FIT
10
1093
20
2240.993546
30
0
0
SEQEND
8
FIT
0
POLYLINE
8
FIT
66
1
70
1
10
0
20
0
30
0
0
VERTEX
8
FIT
10
1105.5
20
2240.993546
30
0
42
1
0
VERTEX
8
FIT
10
94.5
20
2240.993546
30
0
0
SEQEND
8
FIT
0
POLYLINE
8
FIT
66
1
70
0
10
0
20
0
30
0
0
VERTEX
8
FIT
10
1164
20
2240.993546
30
0
42
0.008865
0
VERTEX
8
FIT
10
1163.645427
20
2260.989355
30
0
0
SEQEND
8
FIT
0
POLYLINE
8
FIT
66
1
70
0
10
0
20
0
30
0
0
VERTEX
8
FIT
10
1163.202316
20
2270.979401
30
0
42
0.008865
0
VERTEX
8
FIT
10
1161.785139
20
2290.928078
30
0
0
SEQEND
8
FIT
0
POLYLINE
8
FIT
66
1
70
0
10
0
20
0
30
0
0
VERTEX
8
FIT
10
1160.811519
20
2300.880437
30
0
42
0.008865
0
VERTEX
8
FIT
10
1158.335748
20
2320.725553
30
0
0
SEQEND
8
FIT
0
POLYLINE
8
FIT
66
1
70
0
10
0
20
0
30
0
0
VERTEX
8
FIT
10
1156.834374
20
2330.612072
30
0
42
0.008865
0
VERTEX
8
FIT
10
1153.30701
20
2350.297493
30
0
0
SEQEND
8
FIT
0
POLYLINE
8
FIT
66
1
70
0
10
0
20
0
30
0
0
VERTEX
8
FIT
10
1151.282129
20
2360.090206
30
0
42
0.008865
0
VERTEX
8
FIT
10
1146.713151
20
2379.560248
30
0
0
SEQEND
8
FIT
0
POLYLINE
8
FIT
66
1
70
0
10
0
20
0
30
0
0
VERTEX
8
FIT
10
1144.17049
20
2389.231456
30
0
42
0.008865
0
VERTEX
8
FIT
10
1138.572822
20
2408.431044
30
0
0
SEQEND
8
FIT
0
POLYLINE
8
FIT
66
1
70
0
10
0
20
0
30
0
0
VERTEX
8
FIT
10
1135.519574
20
2417.953389
30
0
42
0.008865
0
VERTEX
8
FIT
10
1128.909049
20
2436.828215
30
0
0
SEQEND
8
FIT
0
POLYLINE
8
FIT
66
1
70
0
10
0
20
0
30
0
0
VERTEX
8
FIT
10
1125.353851
20
2446.174762
30
0
42
0.008865
0
VERTEX
8
FIT
10
1117.749169
20
2464.671435
30
0
0
SEQEND
8
FIT
0
POLYLINE
8
FIT
66
1
70
0
10
0
20
0
30
0
0
VERTEX
8
FIT
10
1113.702076
20
2473.815746
30
0
42
0.008865
0
VERTEX
8
FIT
10
1105.124749
20
2491.881944
30
0
0
SEQEND
8
FIT
0
POLYLINE
8
FIT
66
1
70
0
10
0
20
0
30
0
0
VERTEX
8
FIT
10
1100.59721
20
2500.798153
30
0
42
0.008865
0
VERTEX
8
FIT
10
1091.071498
20
2518.382774
30
0
0
SEQEND
8
FIT
0
POLYLINE
8
FIT
66
1
70
0
10
0
20
0
30
0
0
VERTEX
8
FIT
10
1086.07632
20
2527.045659
30
0
42
0.008865
0
VERTEX
8
FIT
10
1075.62917
20
2544.098962
30
0
0
SEQEND
8
FIT
0
POLYLINE
8
FIT
66
1
70
0
10
0
20
0
30
0
0
VERTEX
8
FIT
10
1070.180482
20
2552.484019
30
0
42
0.008865
0
VERTEX
8
FIT
10
1058.841444
20
2568.957765
30
0
0
SEQEND
8
FIT
0
POLYLINE
8
FIT
66
1
70
0
10
0
20
0
30
0
0
VERTEX
8
FIT
10
1052.954659
20
2577.041276
30
0
42
0.008865
0
VERTEX
8
FIT
10
1040.755809
20
2592.888867
30
0
0
SEQEND
8
FIT
0
POLYLINE
8
FIT
66
1
70
0
10
0
20
0
30
0
0
VERTEX
8
FIT
10
1034.447579
20
2600.647965
30
0
42
0.008865
0
VERTEX
8
FIT
10
1021.423423
20
2615.824573
30
0
0
SEQEND
8
FIT
0
POLYLINE
8
FIT
66
1
70
0
10
0
20
0
30
0
0
VERTEX
8
FIT
10
1014.711591
20
2623.237312
30
0
42
0.008865
0
VERTEX
8
FIT
10
1000.898969
20
2637.700008
30
0
0
SEQEND
8
FIT
0
POLYLINE
8
FIT
66
1
70
0
10
0
20
0
30
0
0
VERTEX
8
FIT
10
993.802521
20
2644.745418
30
0
42
0.008865
0
VERTEX
8
FIT
10
979.240506
20
2658.453291
30
0
0
SEQEND
8
FIT
0
POLYLINE
8
FIT
66
1
70
0
10
0
20
0
30
0
0
VERTEX
8
FIT
10
971.779515
20
2665.111445
30
0
42
0.008865
0
VERTEX
8
FIT
10
956.509297
20
2678.02572
30
0
0
SEQEND
8
FIT
0
POLYLINE
8
FIT
66
1
70
0
10
0
20
0
30
0
0
VERTEX
8
FIT
10
948.704869
20
2684.277783
30
0
42
0.008865
0
VERTEX
8
FIT
10
932.769642
20
2696.36193
30
0
0
SEQEND
8
FIT
0
POLYLINE
8
FIT
66
1
70
0
10
0
20
0
30
0
0
VERTEX
8
FIT
10
924.643852
20
2702.190217
30
0
42
0.008865
0
VERTEX
8
FIT
10
908.088692
20
2713.410055
30
0
0
SEQEND
8
FIT
0
POLYLINE
8
FIT
66
1
70
0
10
0
20
0
30
0
0
VERTEX
8
FIT
10
899.664526
20
2718.798079
30
0
42
0.008865
0
VERTEX
8
FIT
10
882.536262
20
2729.12187
30
0
0
SEQEND
8
FIT
0
POLYLINE
8
FIT
66
1
70
0
10
0
20
0
30
0
0
VERTEX
8
FIT
10
873.837549
20
2734.054391
30
0
42
0.008865
0
VERTEX
8
FIT
10
856.184631
20
2743.452932
30
0
0
SEQEND
8
FIT
0
POLYLINE
8
FIT
66
1
70
0
10
0
20
0
30
0
0
VERTEX
8
FIT
10
847.235976
20
2747.915998
30
0
42
0.008865
0
VERTEX
8
FIT
10
829.108339
20
2756.362704
30
0
0
SEQEND
8
FIT
0
POLYLINE
8
FIT
66
1
70
0
10
0
20
0
30
0
0
VERTEX
8
FIT
10
819.935055
20
2760.34369
30
0
42
0.008865
0
VERTEX
8
FIT
10
801.383975
20
2767.814668
30
0
0
SEQEND
8
FIT
0
POLYLINE
8
FIT
66
1
70
0
10
0
20
0
30
0
0
VERTEX
8
FIT
10
792.012011
20
2771.302313
30
0
42
0.008865
0
VERTEX
8
FIT
10
773.089963
20
2777.77643
30
0
0
SEQEND
8
FIT
0
POLYLINE
8
FIT
66
1
70
0
10
0
20
0
30
0
0
VERTEX
8
FIT
10
763.545828
20
2780.760868
30
0
42
0.008865
0
VERTEX
8
FIT
10
744.306337
20
2786.219812
30
0
0
SEQEND
8
FIT
0
POLYLINE
8
FIT
66
1
70
0
10
0
20
0
30
0
0
VERTEX
8
FIT
10
734.617029
20
2788.692602
30
0
42
0.008865
0
VERTEX
8
FIT
10
715.114516
20
2793.12093
30
0
0
SEQEND
8
FIT
0
POLYLINE
8
FIT
66
1
70
0
10
0
20
0
30
0
0
VERTEX
8
FIT
10
705.307443
20
2795.075077
30
0
42
0.008865
0
VERTEX
8
FIT
10
685.597075
20
2798.460263
30
0
0
SEQEND
8
FIT
0
POLYLINE
8
FIT
66
1
70
0
10
0
20
0
30
0
0
VERTEX
8
FIT
10
675.699977
20
2799.890239
30
0
42
0.008865
0
VERTEX
8
FIT
10
655.837508
20
2802.222708
30
0
0
SEQEND
8
FIT
0
POLYLINE
8
FIT
66
1
70
0
10
0
20
0
30
0
0
VERTEX
8
FIT
10
645.878381
20
2803.124469
30
0
42
0.008865
0
VERTEX
8
FIT
10
625.919995
20
2804.397623
30
0
0
SEQEND
8
FIT
0
POLYLINE
8
FIT
66
1
70
0
10
0
20
0
30
0
0
VERTEX
8
FIT
10
615.927011
20
2804.768617
30
0
42
0.008865
0
VERTEX
8
FIT
10
595.929164
20
2804.978855
30
0
0
SEQEND
8
FIT
0
POLYLINE
8
FIT
66
1
70
0
10
0
20
0
30
0
0
VERTEX
8
FIT
10
585.930588
20
2804.818033
30
0
42
0.008865
0
VERTEX
8
FIT
10
565.949847
20
2803.964759
30
0
0
SEQEND
8
FIT
0
POLYLINE
8
FIT
66
1
70
0
10
0
20
0
30
0
0
VERTEX
8
FIT
10
555.973963
20
2803.272577
30
0
42
0.008865
0
VERTEX
8
FIT
10
536.066847
20
2801.358206
30
0
0
SEQEND
8
FIT
0
POLYLINE
8
FIT
66
1
70
0
10
0
20
0
30
0
0
VERTEX
8
FIT
10
526.141873
20
2800.13662
30
0
42
0.008865
0
VERTEX
8
FIT
10
506.364692
20
2797.166567
30
0
0
SEQEND
8
FIT
0
POLYLINE
8
FIT
66
1
70
0
10
0
20
0
30
0
0
VERTEX
8
FIT
10
496.518703
20
2795.419034
30
0
42
0.008865
0
VERTEX
8
FIT
10
476.927401
20
2791.4017
30
0
0
SEQEND
8
FIT
0
POLYLINE
8
FIT
66
1
70
0
10
0
20
0
30
0
0
VERTEX
8
FIT
10
467.188247
20
2789.133162
30
0
42
0.008865
0
VERTEX
8
FIT
10
447.838241
20
2784.07991
30
0
0
SEQEND
8
FIT
0
POLYLINE
8
FIT
66
1
70
0
10
0
20
0
30
0
0
VERTEX
8
FIT
10
438.233472
20
2781.296785
30
0
42
0.008865
0
VERTEX
8
FIT
10
419.179496
20
2775.221911
30
0
0
SEQEND
8
FIT
0
POLYLINE
8
FIT
66
1
70
0
10
0
20
0
30
0
0
VERTEX
8
FIT
10
409.73628
20
2771.932071
30
0
42
0.008865
0
VERTEX
8
FIT
10
391.032232
20
2764.852756
30
0
0
SEQEND
8
FIT
0
POLYLINE
8
FIT
66
1
70
0
10
0
20
0
30
0
0
VERTEX
8
FIT
10
381.777281
20
2761.065507
30
0
42
0.008865
0
VERTEX
8
FIT
10
363.476069
20
2753.001778
30
0
0
SEQEND
8
FIT
0
POLYLINE
8
FIT
66
1
70
0
10
0
20
0
30
0
0
VERTEX
8
FIT
10
354.435561
20
2748.727833
30
0
42
0.008865
0
VERTEX
8
FIT
10
336.588953
20
2739.7025
30
0
0
SEQEND
8
FIT
0
POLYLINE
8
FIT
66
1
70
0
10
0
20
0
30
0
0
VERTEX
8
FIT
10
327.788462
20
2734.953948
30
0
42
0.008865
0
VERTEX
8
FIT
10
310.446939
20
2724.992539
30
0
0
SEQEND
8
FIT
0
POLYLINE
8
FIT
66
1
70
0
10
0
20
0
30
0
0
VERTEX
8
FIT
10
301.911359
20
2719.782813
30
0
42
0.008865
0
VERTEX
8
FIT
10
285.123975
20
2708.913506
30
0
0
SEQEND
8
FIT
0
POLYLINE
8
FIT
66
1
70
0
10
0
20
0
30
0
0
VERTEX
8
FIT
10
276.877449
20
2703.257342
30
0
42
0.008865
0
VERTEX
8
FIT
10
260.69169
20
2691.510883
30
0
0
SEQEND
8
FIT
0
POLYLINE
8
FIT
66
1
70
0
10
0
20
0
30
0
0
VERTEX
8
FIT
10
252.757546
20
2685.424281
30
0
42
0.008865
0
VERTEX
8
FIT
10
237.219196
20
2672.833896
30
0
0
SEQEND
8
FIT
0
POLYLINE
8
FIT
66
1
70
0
10
0
20
0
30
0
0
VERTEX
8
FIT
10
229.619876
20
2666.334073
30
0
42
0.008865
0
VERTEX
8
FIT
10
214.772888
20
2652.935377
30
0
0
SEQEND
8
FIT
0
POLYLINE
8
FIT
66
1
70
0
10
0
20
0
30
0
0
VERTEX
8
FIT
10
207.529888
20
2646.040718
30
0
42
0.008865
0
VERTEX
8
FIT
10
193.416259
20
2631.871611
30
0
0
SEQEND
8
FIT
0
POLYLINE
8
FIT
66
1
70
0
10
0
20
0
30
0
0
VERTEX
8
FIT
10
186.550068
20
2624.601619
30
0
42
0.008865
0
VERTEX
8
FIT
10
173.209721
20
2609.702181
30
0
0
SEQEND
8
FIT
0
POLYLINE
8
FIT
66
1
70
0
10
0
20
0
30
0
0
VERTEX
8
FIT
10
166.73976
20
2602.07742
30
0
42
0.008865
0
VERTEX
8
FIT
10
154.21043
20
2586.489797
30
0
0
SEQEND
8
FIT
0
POLYLINE
8
FIT
66
1
70
0
10
0
20
0
30
0
0
VERTEX
8
FIT
10
148.155001
20
2578.531835
30
0
42
0.008865
0
VERTEX
8
FIT
10
136.47213
20
2562.300119
30
0
0
SEQEND
8
FIT
0
POLYLINE
8
FIT
66
1
70
0
10
0
20
0
30
0
0
VERTEX
8
FIT
10
130.848361
20
2554.031467
30
0
42
0.008865
0
VERTEX
8
FIT
10
120.044996
20
2537.201571
30
0
0
SEQEND
8
FIT
0
POLYLINE
8
FIT
66
1
70
0
10
0
20
0
30
0
0
VERTEX
8
FIT
10
114.868796
20
2528.645618
30
0
42
0.008865
0
VERTEX
8
FIT
10
104.975495
20
2511.26515
30
0
0
SEQEND
8
FIT
0
POLYLINE
8
FIT
66
1
70
0
10
0
20
0
30
0
0
VERTEX
8
FIT
10
100.261505
20
2502.446098
30
0
42
0.008865
0
VERTEX
8
FIT
10
91.306254
20
2484.56422
30
0
0
SEQEND
8
FIT
0
POLYLINE
8
FIT
66
1
70
0
10
0
20
0
30
0
0
VERTEX
8
FIT
10
87.067809
20
2475.507015
30
0
42
0.008865
0
VERTEX
8
FIT
10
79.075939
20
2457.174309
30
0
0
SEQEND
8
FIT
0
POLYLINE
8
FIT
66
1
70
0
10
0
20
0
30
0
0
VERTEX
8
FIT
10
75.325027
20
2447.904571
30
0
42
0.008865
0
VERTEX
8
FIT
10
68.319144
20
2429.172895
30
0
0
SEQEND
8
FIT
0
POLYLINE
8
FIT
66
1
70
0
10
0
20
0
30
0
0
VERTEX
8
FIT
10
65.066376
20
2419.716845
30
0
42
0.008865
0
VERTEX
8
FIT
10
59.066298
20
2400.639184
30
0
0
SEQEND
8
FIT
0
POLYLINE
8
FIT
66
1
70
0
10
0
20
0
30
0
0
VERTEX
8
FIT
10
56.320874
20
2391.02357
30
0
42
0.008865
0
VERTEX
8
FIT
10
51.343573
20
2371.653889
30
0
0
SEQEND
8
FIT
0
POLYLINE
8
FIT
66
1
70
0
10
0
20
0
30
0
0
VERTEX
8
FIT
10
49.11326
20
2361.90591
30
0
42
0.008865
0
VERTEX
8
FIT
10
45.172815
20
2342.298999
30
0
0
SEQEND
8
FIT
0
POLYLINE
8
FIT
66
1
70
0
10
0
20
0
30
0
0
VERTEX
8
FIT
10
43.463922
20
2332.44623
30
0
42
0.008865
0
VERTEX
8
FIT
10
40.571479
20
2312.65755
30
0
0
SEQEND
8
FIT
0
POLYLINE
8
FIT
66
1
70
0
10
0
20
0
30
0
0
VERTEX
8
FIT
10
39.388838
20
2302.72786
30
0
42
0.008865
0
VERTEX
8
FIT
10
37.552579
20
2282.813387
30
0
0
SEQEND
8
FIT
0
POLYLINE
8
FIT
66
1
70
0
10
0
20
0
30
0
0
VERTEX
8
FIT
10
36.899538
20
2272.834864
30
0
42
0.008865
0
VERTEX
8
FIT
10
36.124657
20
2252.850929
30
0
0
SEQEND
8
FIT
0
POLYLINE
8
FIT
66
1
70
0
10
0
20
0
30
0
0
VERTEX
8
FIT
10
36.003061
20
2242.851799
30
0
42
0.000824
0
VERTEX
8
FIT
10
36
20
2240.993546
30
0
0
SEQEND
8
FIT
0
TEXT
8
TEXT
10
1300
20
2786.478855
30
0
40
15
1
T - FIT (ASSEMBLY, NOT A TOOLPATH)
72
0
11
1300
21
2786.478855
31
0
73
0
0
TEXT
8
TEXT
10
1300
20
2764.478855
30
0
40
15
1
GAP 4 LAP 17 (REBATE)
72
0
11
1300
21
2764.478855
31
0
73
0
0
TEXT
8
TEXT
10
1300
20
2742.478855
30
0
40
15
1
FRAME R600 / 543  REBATE WALL R564 (LAND 36, DASHED)
72
0
11
1300
21
2742.478855
31
0
73
0
0
TEXT
8
TEXT
10
1300
20
2720.478855
30
0
40
15
1
LEAF R560 / 493  GLASS R505.5
72
0
11
1300
21
2720.478855
31
0
73
0
0
ENDSEC
0
EOF
