0
SECTION
2
HEADER
9
$ACADVER
1
AC1009
0
ENDSEC
0
SECTION
2
TABLES
0
TABLE
2
LAYER
70
6
0
LAYER
2
0
70
0
62
7
6
CONTINUOUS
0
LAYER
2
GLASS_CONTOUR
70
0
62
7
6
CONTINUOUS
0
LAYER
2
GLASS_EDGE
70
0
62
8
6
CONTINUOUS
0
LAYER
2
GLASS_BARS
70
0
62
3
6
CONTINUOUS
0
LAYER
2
GLASS_BAR_AXES
70
0
62
4
6
CONTINUOUS
0
LAYER
2
GLASS_TEXT
70
0
62
2
6
CONTINUOUS
0
ENDTAB
0
ENDSEC
0
SECTION
2
ENTITIES
0
POLYLINE
8
GLASS_CONTOUR
66
1
70
1
10
0
20
0
30
0
0
VERTEX
8
GLASS_CONTOUR
10
0
20
0
30
0
0
VERTEX
8
GLASS_CONTOUR
10
789
20
0
30
0
0
VERTEX
8
GLASS_CONTOUR
10
789
20
898.5
30
0
42
1
0
VERTEX
8
GLASS_CONTOUR
10
0
20
898.5
30
0
0
SEQEND
8
GLASS_CONTOUR
0
POLYLINE
8
GLASS_EDGE
66
1
70
1
10
0
20
0
30
0
0
VERTEX
8
GLASS_EDGE
10
11
20
11
30
0
0
VERTEX
8
GLASS_EDGE
10
778
20
11
30
0
0
VERTEX
8
GLASS_EDGE
10
778
20
898.5
30
0
42
1
0
VERTEX
8
GLASS_EDGE
10
11
20
898.5
30
0
0
SEQEND
8
GLASS_EDGE
0
POLYLINE
8
GLASS_BAR_AXES
66
1
70
0
10
0
20
0
30
0
0
VERTEX
8
GLASS_BAR_AXES
10
512.85
20
898.5
30
0
42
1
0
VERTEX
8
GLASS_BAR_AXES
10
276.15
20
898.5
30
0
0
SEQEND
8
GLASS_BAR_AXES
0
POLYLINE
8
GLASS_BARS
66
1
70
0
10
0
20
0
30
0
0
VERTEX
8
GLASS_BARS
10
521.85
20
898.5
30
0
42
1
0
VERTEX
8
GLASS_BARS
10
267.15
20
898.5
30
0
0
SEQEND
8
GLASS_BARS
0
POLYLINE
8
GLASS_BARS
66
1
70
0
10
0
20
0
30
0
0
VERTEX
8
GLASS_BARS
10
503.85
20
898.5
30
0
42
1
0
VERTEX
8
GLASS_BARS
10
285.15
20
898.5
30
0
0
SEQEND
8
GLASS_BARS
0
POLYLINE
8
GLASS_BAR_AXES
66
1
70
0
10
0
20
0
30
0
0
VERTEX
8
GLASS_BAR_AXES
10
512.85
20
898.5
30
0
0
VERTEX
8
GLASS_BAR_AXES
10
789
20
898.5
30
0
0
SEQEND
8
GLASS_BAR_AXES
0
POLYLINE
8
GLASS_BARS
66
1
70
0
10
0
20
0
30
0
0
VERTEX
8
GLASS_BARS
10
512.85
20
907.5
30
0
0
VERTEX
8
GLASS_BARS
10
789
20
907.5
30
0
0
SEQEND
8
GLASS_BARS
0
POLYLINE
8
GLASS_BARS
66
1
70
0
10
0
20
0
30
0
0
VERTEX
8
GLASS_BARS
10
512.85
20
889.5
30
0
0
VERTEX
8
GLASS_BARS
10
789
20
889.5
30
0
0
SEQEND
8
GLASS_BARS
0
POLYLINE
8
GLASS_BAR_AXES
66
1
70
0
10
0
20
0
30
0
0
VERTEX
8
GLASS_BAR_AXES
10
453.675
20
1000.994107
30
0
0
VERTEX
8
GLASS_BAR_AXES
10
591.75
20
1240.147022
30
0
0
SEQEND
8
GLASS_BAR_AXES
0
POLYLINE
8
GLASS_BARS
66
1
70
0
10
0
20
0
30
0
0
VERTEX
8
GLASS_BARS
10
445.880771
20
1005.494107
30
0
0
VERTEX
8
GLASS_BARS
10
583.955771
20
1244.647022
30
0
0
SEQEND
8
GLASS_BARS
0
POLYLINE
8
GLASS_BARS
66
1
70
0
10
0
20
0
30
0
0
VERTEX
8
GLASS_BARS
10
461.469229
20
996.494107
30
0
0
VERTEX
8
GLASS_BARS
10
599.544229
20
1235.647022
30
0
0
SEQEND
8
GLASS_BARS
0
POLYLINE
8
GLASS_BAR_AXES
66
1
70
0
10
0
20
0
30
0
0
VERTEX
8
GLASS_BAR_AXES
10
335.325
20
1000.994107
30
0
0
VERTEX
8
GLASS_BAR_AXES
10
197.25
20
1240.147022
30
0
0
SEQEND
8
GLASS_BAR_AXES
0
POLYLINE
8
GLASS_BARS
66
1
70
0
10
0
20
0
30
0
0
VERTEX
8
GLASS_BARS
10
327.530771
20
996.494107
30
0
0
VERTEX
8
GLASS_BARS
10
189.455771
20
1235.647022
30
0
0
SEQEND
8
GLASS_BARS
0
POLYLINE
8
GLASS_BARS
66
1
70
0
10
0
20
0
30
0
0
VERTEX
8
GLASS_BARS
10
343.119229
20
1005.494107
30
0
0
VERTEX
8
GLASS_BARS
10
205.044229
20
1244.647022
30
0
0
SEQEND
8
GLASS_BARS
0
POLYLINE
8
GLASS_BAR_AXES
66
1
70
0
10
0
20
0
30
0
0
VERTEX
8
GLASS_BAR_AXES
10
276.15
20
898.5
30
0
0
VERTEX
8
GLASS_BAR_AXES
10
0
20
898.5
30
0
0
SEQEND
8
GLASS_BAR_AXES
0
POLYLINE
8
GLASS_BARS
66
1
70
0
10
0
20
0
30
0
0
VERTEX
8
GLASS_BARS
10
276.15
20
889.5
30
0
0
VERTEX
8
GLASS_BARS
10
0
20
889.5
30
0
0
SEQEND
8
GLASS_BARS
0
POLYLINE
8
GLASS_BARS
66
1
70
0
10
0
20
0
30
0
0
VERTEX
8
GLASS_BARS
10
276.15
20
907.5
30
0
0
VERTEX
8
GLASS_BARS
10
0
20
907.5
30
0
0
SEQEND
8
GLASS_BARS
0
POLYLINE
8
GLASS_BAR_AXES
66
1
70
0
10
0
20
0
30
0
0
VERTEX
8
GLASS_BAR_AXES
10
276.15
20
0
30
0
0
VERTEX
8
GLASS_BAR_AXES
10
276.15
20
898.5
30
0
0
SEQEND
8
GLASS_BAR_AXES
0
POLYLINE
8
GLASS_BARS
66
1
70
0
10
0
20
0
30
0
0
VERTEX
8
GLASS_BARS
10
267.15
20
0
30
0
0
VERTEX
8
GLASS_BARS
10
267.15
20
898.5
30
0
0
SEQEND
8
GLASS_BARS
0
POLYLINE
8
GLASS_BARS
66
1
70
0
10
0
20
0
30
0
0
VERTEX
8
GLASS_BARS
10
285.15
20
0
30
0
0
VERTEX
8
GLASS_BARS
10
285.15
20
898.5
30
0
0
SEQEND
8
GLASS_BARS
0
POLYLINE
8
GLASS_BAR_AXES
66
1
70
0
10
0
20
0
30
0
0
VERTEX
8
GLASS_BAR_AXES
10
512.85
20
0
30
0
0
VERTEX
8
GLASS_BAR_AXES
10
512.85
20
898.5
30
0
0
SEQEND
8
GLASS_BAR_AXES
0
POLYLINE
8
GLASS_BARS
66
1
70
0
10
0
20
0
30
0
0
VERTEX
8
GLASS_BARS
10
503.85
20
0
30
0
0
VERTEX
8
GLASS_BARS
10
503.85
20
898.5
30
0
0
SEQEND
8
GLASS_BARS
0
POLYLINE
8
GLASS_BARS
66
1
70
0
10
0
20
0
30
0
0
VERTEX
8
GLASS_BARS
10
521.85
20
0
30
0
0
VERTEX
8
GLASS_BARS
10
521.85
20
898.5
30
0
0
SEQEND
8
GLASS_BARS
0
TEXT
8
GLASS_TEXT
10
889
20
1274.5
30
0
40
15
1
SC1 - G1 GLASS SEMI-CIRCLE
72
0
11
889
21
1274.5
31
0
73
0
0
TEXT
8
GLASS_TEXT
10
889
20
1252.5
30
0
40
15
1
W789 x H1293 RISE 394.5 SPRINGING 898.5 R 394.5
72
0
11
889
21
1252.5
31
0
73
0
0
TEXT
8
GLASS_TEXT
10
889
20
1230.5
30
0
40
15
1
DOUBLE 4X16X4 TOUGHENED ARGON CLEAR SPACER SILVER
72
0
11
889
21
1230.5
31
0
73
0
0
TEXT
8
GLASS_TEXT
10
889
20
1208.5
30
0
40
15
1
BARS 7 PATTERN HUB-SPOKE TOTAL L=3273
72
0
11
889
21
1208.5
31
0
73
0
0
TEXT
8
GLASS_TEXT
10
889
20
1186.5
30
0
40
15
1
R1 RING C=(394.5,898.5) R=118.4 0-180DEG L=372
72
0
11
889
21
1186.5
31
0
73
0
0
TEXT
8
GLASS_TEXT
10
889
20
1164.5
30
0
40
15
1
S1 SPRINGING Y=898.5 X=512.9-789 L=276
72
0
11
889
21
1164.5
31
0
73
0
0
TEXT
8
GLASS_TEXT
10
889
20
1142.5
30
0
40
15
1
K1 SPOKE (453.7,1001)-(591.8,1240.1) L=276
72
0
11
889
21
1142.5
31
0
73
0
0
TEXT
8
GLASS_TEXT
10
889
20
1120.5
30
0
40
15
1
K2 SPOKE (335.3,1001)-(197.3,1240.1) L=276
72
0
11
889
21
1120.5
31
0
73
0
0
TEXT
8
GLASS_TEXT
10
889
20
1098.5
30
0
40
15
1
S2 SPRINGING Y=898.5 X=0-276.2 L=276
72
0
11
889
21
1098.5
31
0
73
0
0
TEXT
8
GLASS_TEXT
10
889
20
1076.5
30
0
40
15
1
V1 V X=276.2 Y=0-898.5 L=898.5
72
0
11
889
21
1076.5
31
0
73
0
0
TEXT
8
GLASS_TEXT
10
889
20
1054.5
30
0
40
15
1
V2 V X=512.9 Y=0-898.5 L=898.5
72
0
11
889
21
1054.5
31
0
73
0
0
TEXT
8
GLASS_TEXT
10
889
20
1032.5
30
0
40
15
1
BAR ENDS (TABLE, 7 BARS): ID  S FROM APEX / POSITION  L  ANGLE / R
72
0
11
889
21
1032.5
31
0
73
0
0
TEXT
8
GLASS_TEXT
10
889
20
1010.5
30
0
40
15
1
R1  R 118.4  L=372  C 394.5 / 898.5
72
0
11
889
21
1010.5
31
0
73
0
0
TEXT
8
GLASS_TEXT
10
889
20
988.5
30
0
40
15
1
S1  Y 898.5  L=276  0DEG
72
0
11
889
21
988.5
31
0
73
0
0
TEXT
8
GLASS_TEXT
10
889
20
966.5
30
0
40
15
1
K1  206.6 FROM APEX R  L=276  60DEG
72
0
11
889
21
966.5
31
0
73
0
0
TEXT
8
GLASS_TEXT
10
889
20
944.5
30
0
40
15
1
K2  206.6 FROM APEX L  L=276  120DEG
72
0
11
889
21
944.5
31
0
73
0
0
TEXT
8
GLASS_TEXT
10
889
20
922.5
30
0
40
15
1
S2  Y 898.5  L=276  0DEG
72
0
11
889
21
922.5
31
0
73
0
0
TEXT
8
GLASS_TEXT
10
889
20
900.5
30
0
40
15
1
V1  X 276.2  L=898.5  90DEG
72
0
11
889
21
900.5
31
0
73
0
0
TEXT
8
GLASS_TEXT
10
889
20
878.5
30
0
40
15
1
V2  X 512.9  L=898.5  90DEG
72
0
11
889
21
878.5
31
0
73
0
0
ENDSEC
0
EOF
