0
SECTION
2
HEADER
9
$ACADVER
1
AC1009
0
ENDSEC
0
SECTION
2
TABLES
0
TABLE
2
LAYER
70
7
0
LAYER
2
0
70
0
62
7
6
CONTINUOUS
0
LAYER
2
FIT
70
0
62
4
6
CONTINUOUS
0
LAYER
2
CONTOUR
70
0
62
7
6
CONTINUOUS
0
LAYER
2
ASSEMBLY
70
0
62
8
6
CONTINUOUS
0
LAYER
2
PIECES
70
0
62
5
6
CONTINUOUS
0
LAYER
2
FINGER
70
0
62
1
6
CONTINUOUS
0
LAYER
2
TEXT
70
0
62
94
6
CONTINUOUS
0
ENDTAB
0
ENDSEC
0
SECTION
2
ENTITIES
0
POLYLINE
8
PIECES
66
1
70
1
10
0
20
0
30
0
0
VERTEX
8
PIECES
10
348.773671
20
0
30
0
0
VERTEX
8
PIECES
10
21.727291
20
0
30
0
0
VERTEX
8
PIECES
10
0
20
105
30
0
0
VERTEX
8
PIECES
10
370.500962
20
105
30
0
0
SEQEND
8
PIECES
0
TEXT
8
TEXT
10
185.250481
20
62.5
30
0
40
15
1
T - LEAF TOP P1 L370.5 x105
72
1
11
185.250481
21
62.5
31
0
73
2
0
TEXT
8
TEXT
10
185.250481
20
10
30
0
40
10
1
OUT 355.5 IN 312 CUT J11.7/S78.3 FINGER ONE END
72
1
11
185.250481
21
10
31
0
73
2
0
POLYLINE
8
PIECES
66
1
70
1
10
0
20
0
30
0
0
VERTEX
8
PIECES
10
934.274633
20
0
30
0
0
VERTEX
8
PIECES
10
592.228253
20
0
30
0
0
VERTEX
8
PIECES
10
570.500962
20
105
30
0
0
VERTEX
8
PIECES
10
956.001924
20
105
30
0
0
SEQEND
8
PIECES
0
TEXT
8
TEXT
10
763.251443
20
62.5
30
0
40
15
1
T - LEAF TOP P2 L385.5 x105
72
1
11
763.251443
21
62.5
31
0
73
2
0
TEXT
8
TEXT
10
763.251443
20
10
30
0
40
10
1
OUT 355.5 IN 312 CUT J11.7/J11.7 FINGER BOTH ENDS
72
1
11
763.251443
21
10
31
0
73
2
0
POLYLINE
8
PIECES
66
1
70
1
10
0
20
0
30
0
0
VERTEX
8
PIECES
10
1531.412309
20
0
30
0
0
VERTEX
8
PIECES
10
1220.459255
20
0
30
0
0
VERTEX
8
PIECES
10
1156.001924
20
105
30
0
0
VERTEX
8
PIECES
10
1553.1396
20
105
30
0
0
SEQEND
8
PIECES
0
TEXT
8
TEXT
10
1354.570762
20
62.5
30
0
40
15
1
T - LEAF TOP P3 L397.1 x105
72
1
11
1354.570762
21
62.5
31
0
73
2
0
TEXT
8
TEXT
10
1354.570762
20
10
30
0
40
10
1
OUT 367.1 IN 281 CUT A58.5/J11.7 FINGER BOTH ENDS
72
1
11
1354.570762
21
10
31
0
73
2
0
POLYLINE
8
PIECES
66
1
70
1
10
0
20
0
30
0
0
VERTEX
8
PIECES
10
2085.819946
20
0
30
0
0
VERTEX
8
PIECES
10
1774.866891
20
0
30
0
0
VERTEX
8
PIECES
10
1753.1396
20
105
30
0
0
VERTEX
8
PIECES
10
2150.277276
20
105
30
0
0
SEQEND
8
PIECES
0
TEXT
8
TEXT
10
1951.708438
20
62.5
30
0
40
15
1
T - LEAF TOP P4 L397.1 x105
72
1
11
1951.708438
21
62.5
31
0
73
2
0
TEXT
8
TEXT
10
1951.708438
20
10
30
0
40
10
1
OUT 367.1 IN 281 CUT J11.7/A58.5 FINGER BOTH ENDS
72
1
11
1951.708438
21
10
31
0
73
2
0
POLYLINE
8
PIECES
66
1
70
1
10
0
20
0
30
0
0
VERTEX
8
PIECES
10
2714.050947
20
0
30
0
0
VERTEX
8
PIECES
10
2372.004568
20
0
30
0
0
VERTEX
8
PIECES
10
2350.277276
20
105
30
0
0
VERTEX
8
PIECES
10
2735.778238
20
105
30
0
0
SEQEND
8
PIECES
0
TEXT
8
TEXT
10
2543.027757
20
62.5
30
0
40
15
1
T - LEAF TOP P5 L385.5 x105
72
1
11
2543.027757
21
62.5
31
0
73
2
0
TEXT
8
TEXT
10
2543.027757
20
10
30
0
40
10
1
OUT 355.5 IN 312 CUT J11.7/J11.7 FINGER BOTH ENDS
72
1
11
2543.027757
21
10
31
0
73
2
0
POLYLINE
8
PIECES
66
1
70
1
10
0
20
0
30
0
0
VERTEX
8
PIECES
10
3284.551909
20
0
30
0
0
VERTEX
8
PIECES
10
2957.50553
20
0
30
0
0
VERTEX
8
PIECES
10
2935.778238
20
105
30
0
0
VERTEX
8
PIECES
10
3306.2792
20
105
30
0
0
SEQEND
8
PIECES
0
TEXT
8
TEXT
10
3121.028719
20
62.5
30
0
40
15
1
T - LEAF TOP P6 L370.5 x105
72
1
11
3121.028719
21
62.5
31
0
73
2
0
TEXT
8
TEXT
10
3121.028719
20
10
30
0
40
10
1
OUT 355.5 IN 312 CUT S78.3/J11.7 FINGER ONE END
72
1
11
3121.028719
21
10
31
0
73
2
0
POLYLINE
8
CONTOUR
66
1
70
1
10
0
20
0
30
0
0
VERTEX
8
CONTOUR
10
1149.200532
20
305
30
0
42
0.316
0
VERTEX
8
CONTOUR
10
589.200532
20
1102.596389
30
0
42
0.316
0
VERTEX
8
CONTOUR
10
29.200532
20
305
30
0
0
VERTEX
8
CONTOUR
10
96.200532
20
305
30
0
42
-0.307454
0
VERTEX
8
CONTOUR
10
589.200532
20
1030.959365
30
0
42
-0.307454
0
VERTEX
8
CONTOUR
10
1082.200532
20
305
30
0
0
SEQEND
8
CONTOUR
0
POLYLINE
8
ASSEMBLY
66
1
70
1
10
0
20
0
30
0
0
VERTEX
8
ASSEMBLY
10
1071.176649
20
305
30
0
0
VERTEX
8
ASSEMBLY
10
1007.945504
20
610.572848
30
0
0
VERTEX
8
ASSEMBLY
10
1106.364551
20
653.125947
30
0
0
VERTEX
8
ASSEMBLY
10
1178.401064
20
305
30
0
0
SEQEND
8
ASSEMBLY
0
POLYLINE
8
FINGER
66
1
70
0
10
0
20
0
30
0
0
VERTEX
8
FINGER
10
1018.064095
20
614.947788
30
0
0
VERTEX
8
FINGER
10
1079.561994
20
641.537419
30
0
0
SEQEND
8
FINGER
0
POLYLINE
8
ASSEMBLY
66
1
70
1
10
0
20
0
30
0
0
VERTEX
8
ASSEMBLY
10
1007.945504
20
610.572848
30
0
0
VERTEX
8
ASSEMBLY
10
828.637268
20
865.957851
30
0
0
VERTEX
8
ASSEMBLY
10
902.086423
20
944.075049
30
0
0
VERTEX
8
ASSEMBLY
10
1106.364551
20
653.125947
30
0
0
SEQEND
8
ASSEMBLY
0
POLYLINE
8
FINGER
66
1
70
0
10
0
20
0
30
0
0
VERTEX
8
FINGER
10
836.188672
20
873.989183
30
0
0
VERTEX
8
FINGER
10
882.083941
20
922.801315
30
0
0
SEQEND
8
FINGER
0
POLYLINE
8
ASSEMBLY
66
1
70
1
10
0
20
0
30
0
0
VERTEX
8
ASSEMBLY
10
828.637268
20
865.957851
30
0
0
VERTEX
8
ASSEMBLY
10
589.200532
20
1012.943116
30
0
0
VERTEX
8
ASSEMBLY
10
589.200532
20
1136.149234
30
0
0
VERTEX
8
ASSEMBLY
10
902.086423
20
944.075049
30
0
0
SEQEND
8
ASSEMBLY
0
POLYLINE
8
FINGER
66
1
70
0
10
0
20
0
30
0
0
VERTEX
8
FINGER
10
589.200532
20
1030.959365
30
0
0
VERTEX
8
FINGER
10
589.200532
20
1102.596389
30
0
0
SEQEND
8
FINGER
0
POLYLINE
8
ASSEMBLY
66
1
70
1
10
0
20
0
30
0
0
VERTEX
8
ASSEMBLY
10
589.200532
20
1012.943116
30
0
0
VERTEX
8
ASSEMBLY
10
349.763796
20
865.957851
30
0
0
VERTEX
8
ASSEMBLY
10
276.314641
20
944.075049
30
0
0
VERTEX
8
ASSEMBLY
10
589.200532
20
1136.149234
30
0
0
SEQEND
8
ASSEMBLY
0
POLYLINE
8
FINGER
66
1
70
0
10
0
20
0
30
0
0
VERTEX
8
FINGER
10
589.200532
20
1030.959365
30
0
0
VERTEX
8
FINGER
10
589.200532
20
1102.596389
30
0
0
SEQEND
8
FINGER
0
POLYLINE
8
FINGER
66
1
70
0
10
0
20
0
30
0
0
VERTEX
8
FINGER
10
342.212392
20
873.989183
30
0
0
VERTEX
8
FINGER
10
296.317122
20
922.801315
30
0
0
SEQEND
8
FINGER
0
POLYLINE
8
ASSEMBLY
66
1
70
1
10
0
20
0
30
0
0
VERTEX
8
ASSEMBLY
10
349.763796
20
865.957851
30
0
0
VERTEX
8
ASSEMBLY
10
170.45556
20
610.572848
30
0
0
VERTEX
8
ASSEMBLY
10
72.036512
20
653.125947
30
0
0
VERTEX
8
ASSEMBLY
10
276.314641
20
944.075049
30
0
0
SEQEND
8
ASSEMBLY
0
POLYLINE
8
FINGER
66
1
70
0
10
0
20
0
30
0
0
VERTEX
8
FINGER
10
160.336968
20
614.947788
30
0
0
VERTEX
8
FINGER
10
98.83907
20
641.537419
30
0
0
SEQEND
8
FINGER
0
POLYLINE
8
ASSEMBLY
66
1
70
1
10
0
20
0
30
0
0
VERTEX
8
ASSEMBLY
10
170.45556
20
610.572848
30
0
0
VERTEX
8
ASSEMBLY
10
107.224415
20
305
30
0
0
VERTEX
8
ASSEMBLY
10
0
20
305
30
0
0
VERTEX
8
ASSEMBLY
10
72.036512
20
653.125947
30
0
0
SEQEND
8
ASSEMBLY
0
TEXT
8
TEXT
10
1278.401064
20
1117.649234
30
0
40
15
1
T - LEAF TOP
72
0
11
1278.401064
21
1117.649234
31
0
73
0
0
TEXT
8
TEXT
10
1278.401064
20
1095.649234
30
0
40
15
1
GOTHIC DROP W1200 RISE840 H2000 HINGE R
72
0
11
1278.401064
21
1095.649234
31
0
73
0
0
TEXT
8
TEXT
10
1278.401064
20
1073.649234
30
0
40
15
1
FACE 67 OFFSET 40 OUTER L2076.4 INNER L1863.7
72
0
11
1278.401064
21
1073.649234
31
0
73
0
0
TEXT
8
TEXT
10
1278.401064
20
1051.649234
30
0
40
15
1
ARC 1 R848 L1038.2 70.1DEG: 3 x board 105 L367.1 ROUGH 397.1 (ALT 2 x board 180)
72
0
11
1278.401064
21
1051.649234
31
0
73
0
0
TEXT
8
TEXT
10
1278.401064
20
1029.649234
30
0
40
15
1
ARC 2 R848 L1038.2 70.1DEG: 3 x board 105 L367.1 ROUGH 397.1 (ALT 2 x board 180)
72
0
11
1278.401064
21
1029.649234
31
0
73
0
0
TEXT
8
TEXT
10
1278.401064
20
1007.649234
30
0
40
15
1
FINGER 15/16/3.8
72
0
11
1278.401064
21
1007.649234
31
0
73
0
0
TEXT
8
TEXT
10
1278.401064
20
985.649234
30
0
40
15
1
ALLOWANCE 10 PER SIDE  MAX SEGMENT 36 DEG  RULE NARROWEST
72
0
11
1278.401064
21
985.649234
31
0
73
0
0
TEXT
8
TEXT
10
1278.401064
20
963.649234
30
0
40
15
1
CUT CODES: J = JOINT FROM SQUARE  S = ARCH-START, AXIS TO HORIZONTAL  A = APEX FROM SQUARE
72
0
11
1278.401064
21
963.649234
31
0
73
0
0
POLYLINE
8
PIECES
66
1
70
1
10
0
20
0
30
0
0
VERTEX
8
PIECES
10
371.887679
20
1336.149234
30
0
0
VERTEX
8
PIECES
10
19.925961
20
1336.149234
30
0
0
VERTEX
8
PIECES
10
0
20
1431.149234
30
0
0
VERTEX
8
PIECES
10
391.81364
20
1431.149234
30
0
0
SEQEND
8
PIECES
0
TEXT
8
TEXT
10
195.90682
20
1393.649234
30
0
40
15
1
T - FRAME HEAD P1 L391.8 x95
72
1
11
195.90682
21
1393.649234
31
0
73
2
0
TEXT
8
TEXT
10
195.90682
20
1346.149234
30
0
40
10
1
OUT 376.8 IN 337 CUT J11.8/S78.2 FINGER ONE END
72
1
11
195.90682
21
1346.149234
31
0
73
2
0
POLYLINE
8
PIECES
66
1
70
1
10
0
20
0
30
0
0
VERTEX
8
PIECES
10
978.701319
20
1336.149234
30
0
0
VERTEX
8
PIECES
10
611.739601
20
1336.149234
30
0
0
VERTEX
8
PIECES
10
591.81364
20
1431.149234
30
0
0
VERTEX
8
PIECES
10
998.62728
20
1431.149234
30
0
0
SEQEND
8
PIECES
0
TEXT
8
TEXT
10
795.22046
20
1393.649234
30
0
40
15
1
T - FRAME HEAD P2 L406.8 x95
72
1
11
795.22046
21
1393.649234
31
0
73
2
0
TEXT
8
TEXT
10
795.22046
20
1346.149234
30
0
40
10
1
OUT 376.8 IN 337 CUT J11.8/J11.8 FINGER BOTH ENDS
72
1
11
795.22046
21
1346.149234
31
0
73
2
0
POLYLINE
8
PIECES
66
1
70
1
10
0
20
0
30
0
0
VERTEX
8
PIECES
10
1596.764812
20
1336.149234
30
0
0
VERTEX
8
PIECES
10
1255.192455
20
1336.149234
30
0
0
VERTEX
8
PIECES
10
1198.62728
20
1431.149234
30
0
0
VERTEX
8
PIECES
10
1616.690773
20
1431.149234
30
0
0
SEQEND
8
PIECES
0
TEXT
8
TEXT
10
1407.659027
20
1393.649234
30
0
40
15
1
T - FRAME HEAD P3 L418.1 x95
72
1
11
1407.659027
21
1393.649234
31
0
73
2
0
TEXT
8
TEXT
10
1407.659027
20
1346.149234
30
0
40
10
1
OUT 388.1 IN 311.6 CUT A59.2/J11.8 FINGER BOTH ENDS
72
1
11
1407.659027
21
1346.149234
31
0
73
2
0
POLYLINE
8
PIECES
66
1
70
1
10
0
20
0
30
0
0
VERTEX
8
PIECES
10
2178.189091
20
1336.149234
30
0
0
VERTEX
8
PIECES
10
1836.616734
20
1336.149234
30
0
0
VERTEX
8
PIECES
10
1816.690773
20
1431.149234
30
0
0
VERTEX
8
PIECES
10
2234.754266
20
1431.149234
30
0
0
SEQEND
8
PIECES
0
TEXT
8
TEXT
10
2025.722519
20
1393.649234
30
0
40
15
1
T - FRAME HEAD P4 L418.1 x95
72
1
11
2025.722519
21
1393.649234
31
0
73
2
0
TEXT
8
TEXT
10
2025.722519
20
1346.149234
30
0
40
10
1
OUT 388.1 IN 311.6 CUT J11.8/A59.2 FINGER BOTH ENDS
72
1
11
2025.722519
21
1346.149234
31
0
73
2
0
POLYLINE
8
PIECES
66
1
70
1
10
0
20
0
30
0
0
VERTEX
8
PIECES
10
2821.641945
20
1336.149234
30
0
0
VERTEX
8
PIECES
10
2454.680227
20
1336.149234
30
0
0
VERTEX
8
PIECES
10
2434.754266
20
1431.149234
30
0
0
VERTEX
8
PIECES
10
2841.567906
20
1431.149234
30
0
0
SEQEND
8
PIECES
0
TEXT
8
TEXT
10
2638.161086
20
1393.649234
30
0
40
15
1
T - FRAME HEAD P5 L406.8 x95
72
1
11
2638.161086
21
1393.649234
31
0
73
2
0
TEXT
8
TEXT
10
2638.161086
20
1346.149234
30
0
40
10
1
OUT 376.8 IN 337 CUT J11.8/J11.8 FINGER BOTH ENDS
72
1
11
2638.161086
21
1346.149234
31
0
73
2
0
POLYLINE
8
PIECES
66
1
70
1
10
0
20
0
30
0
0
VERTEX
8
PIECES
10
3413.455585
20
1336.149234
30
0
0
VERTEX
8
PIECES
10
3061.493867
20
1336.149234
30
0
0
VERTEX
8
PIECES
10
3041.567906
20
1431.149234
30
0
0
VERTEX
8
PIECES
10
3433.381546
20
1431.149234
30
0
0
SEQEND
8
PIECES
0
TEXT
8
TEXT
10
3237.474726
20
1393.649234
30
0
40
15
1
T - FRAME HEAD P6 L391.8 x95
72
1
11
3237.474726
21
1393.649234
31
0
73
2
0
TEXT
8
TEXT
10
3237.474726
20
1346.149234
30
0
40
10
1
OUT 376.8 IN 337 CUT S78.2/J11.8 FINGER ONE END
72
1
11
3237.474726
21
1346.149234
31
0
73
2
0
POLYLINE
8
CONTOUR
66
1
70
1
10
0
20
0
30
0
0
VERTEX
8
CONTOUR
10
1229.80391
20
1631.149234
30
0
42
0.320465
0
VERTEX
8
CONTOUR
10
629.80391
20
2471.149234
30
0
42
0.320465
0
VERTEX
8
CONTOUR
10
29.80391
20
1631.149234
30
0
0
VERTEX
8
CONTOUR
10
86.80391
20
1631.149234
30
0
42
-0.313967
0
VERTEX
8
CONTOUR
10
629.80391
20
2410.647149
30
0
42
-0.313967
0
VERTEX
8
CONTOUR
10
1172.80391
20
1631.149234
30
0
0
SEQEND
8
CONTOUR
0
POLYLINE
8
ASSEMBLY
66
1
70
1
10
0
20
0
30
0
0
VERTEX
8
ASSEMBLY
10
1162.540607
20
1631.149234
30
0
0
VERTEX
8
ASSEMBLY
10
1093.369093
20
1960.934772
30
0
0
VERTEX
8
ASSEMBLY
10
1182.255503
20
1999.937979
30
0
0
VERTEX
8
ASSEMBLY
10
1259.607821
20
1631.149234
30
0
0
SEQEND
8
ASSEMBLY
0
POLYLINE
8
FINGER
66
1
70
0
10
0
20
0
30
0
0
VERTEX
8
FINGER
10
1102.767408
20
1965.058736
30
0
0
VERTEX
8
FINGER
10
1154.96346
20
1987.962276
30
0
0
SEQEND
8
FINGER
0
POLYLINE
8
ASSEMBLY
66
1
70
1
10
0
20
0
30
0
0
VERTEX
8
ASSEMBLY
10
1093.369093
20
1960.934772
30
0
0
VERTEX
8
ASSEMBLY
10
897.514073
20
2235.1318
30
0
0
VERTEX
8
ASSEMBLY
10
963.237023
20
2306.56385
30
0
0
VERTEX
8
ASSEMBLY
10
1182.255503
20
1999.937979
30
0
0
SEQEND
8
ASSEMBLY
0
POLYLINE
8
FINGER
66
1
70
0
10
0
20
0
30
0
0
VERTEX
8
FINGER
10
904.463222
20
2242.684596
30
0
0
VERTEX
8
FINGER
10
943.057183
20
2284.631064
30
0
0
SEQEND
8
FINGER
0
POLYLINE
8
ASSEMBLY
66
1
70
1
10
0
20
0
30
0
0
VERTEX
8
ASSEMBLY
10
897.514073
20
2235.1318
30
0
0
VERTEX
8
ASSEMBLY
10
629.80391
20
2394.53256
30
0
0
VERTEX
8
ASSEMBLY
10
629.80391
20
2505.097559
30
0
0
VERTEX
8
ASSEMBLY
10
963.237023
20
2306.56385
30
0
0
SEQEND
8
ASSEMBLY
0
POLYLINE
8
FINGER
66
1
70
0
10
0
20
0
30
0
0
VERTEX
8
FINGER
10
629.80391
20
2410.647149
30
0
0
VERTEX
8
FINGER
10
629.80391
20
2471.149234
30
0
0
SEQEND
8
FINGER
0
POLYLINE
8
ASSEMBLY
66
1
70
1
10
0
20
0
30
0
0
VERTEX
8
ASSEMBLY
10
629.80391
20
2394.53256
30
0
0
VERTEX
8
ASSEMBLY
10
362.093747
20
2235.1318
30
0
0
VERTEX
8
ASSEMBLY
10
296.370797
20
2306.56385
30
0
0
VERTEX
8
ASSEMBLY
10
629.80391
20
2505.097559
30
0
0
SEQEND
8
ASSEMBLY
0
POLYLINE
8
FINGER
66
1
70
0
10
0
20
0
30
0
0
VERTEX
8
FINGER
10
629.80391
20
2410.647149
30
0
0
VERTEX
8
FINGER
10
629.80391
20
2471.149234
30
0
0
SEQEND
8
FINGER
0
POLYLINE
8
FINGER
66
1
70
0
10
0
20
0
30
0
0
VERTEX
8
FINGER
10
355.144598
20
2242.684596
30
0
0
VERTEX
8
FINGER
10
316.550638
20
2284.631064
30
0
0
SEQEND
8
FINGER
0
POLYLINE
8
ASSEMBLY
66
1
70
1
10
0
20
0
30
0
0
VERTEX
8
ASSEMBLY
10
362.093747
20
2235.1318
30
0
0
VERTEX
8
ASSEMBLY
10
166.238727
20
1960.934772
30
0
0
VERTEX
8
ASSEMBLY
10
77.352318
20
1999.937979
30
0
0
VERTEX
8
ASSEMBLY
10
296.370797
20
2306.56385
30
0
0
SEQEND
8
ASSEMBLY
0
POLYLINE
8
FINGER
66
1
70
0
10
0
20
0
30
0
0
VERTEX
8
FINGER
10
156.840413
20
1965.058736
30
0
0
VERTEX
8
FINGER
10
104.644361
20
1987.962276
30
0
0
SEQEND
8
FINGER
0
POLYLINE
8
ASSEMBLY
66
1
70
1
10
0
20
0
30
0
0
VERTEX
8
ASSEMBLY
10
166.238727
20
1960.934772
30
0
0
VERTEX
8
ASSEMBLY
10
97.067213
20
1631.149234
30
0
0
VERTEX
8
ASSEMBLY
10
0
20
1631.149234
30
0
0
VERTEX
8
ASSEMBLY
10
77.352318
20
1999.937979
30
0
0
SEQEND
8
ASSEMBLY
0
TEXT
8
TEXT
10
1359.607821
20
2486.597559
30
0
40
15
1
T - FRAME HEAD
72
0
11
1359.607821
21
2486.597559
31
0
73
0
0
TEXT
8
TEXT
10
1359.607821
20
2464.597559
30
0
40
15
1
GOTHIC DROP W1200 RISE840 H2000 HINGE R
72
0
11
1359.607821
21
2464.597559
31
0
73
0
0
TEXT
8
TEXT
10
1359.607821
20
2442.597559
30
0
40
15
1
FACE 57 OFFSET 0 OUTER L2203.1 INNER L2022.5
72
0
11
1359.607821
21
2442.597559
31
0
73
0
0
TEXT
8
TEXT
10
1359.607821
20
2420.597559
30
0
40
15
1
ARC 1 R888 L1101.6 71.1DEG: 3 x board 95 L388.1 ROUGH 418.1 (ALT 2 x board 180)
72
0
11
1359.607821
21
2420.597559
31
0
73
0
0
TEXT
8
TEXT
10
1359.607821
20
2398.597559
30
0
40
15
1
ARC 2 R888 L1101.6 71.1DEG: 3 x board 95 L388.1 ROUGH 418.1 (ALT 2 x board 180)
72
0
11
1359.607821
21
2398.597559
31
0
73
0
0
TEXT
8
TEXT
10
1359.607821
20
2376.597559
30
0
40
15
1
FINGER 15/16/3.8
72
0
11
1359.607821
21
2376.597559
31
0
73
0
0
TEXT
8
TEXT
10
1359.607821
20
2354.597559
30
0
40
15
1
ALLOWANCE 10 PER SIDE  MAX SEGMENT 36 DEG  RULE NARROWEST
72
0
11
1359.607821
21
2354.597559
31
0
73
0
0
TEXT
8
TEXT
10
1359.607821
20
2332.597559
30
0
40
15
1
CUT CODES: J = JOINT FROM SQUARE  S = ARCH-START, AXIS TO HORIZONTAL  A = APEX FROM SQUARE
72
0
11
1359.607821
21
2332.597559
31
0
73
0
0
POLYLINE
8
FIT
66
1
70
1
10
0
20
0
30
0
0
VERTEX
8
FIT
10
1200
20
2705.097559
30
0
42
0.320465
0
VERTEX
8
FIT
10
600
20
3545.097559
30
0
42
0.320465
0
VERTEX
8
FIT
10
0
20
2705.097559
30
0
0
VERTEX
8
FIT
10
57
20
2705.097559
30
0
42
-0.313967
0
VERTEX
8
FIT
10
600
20
3484.595474
30
0
42
-0.313967
0
VERTEX
8
FIT
10
1143
20
2705.097559
30
0
0
SEQEND
8
FIT
0
POLYLINE
8
FIT
66
1
70
1
10
0
20
0
30
0
0
VERTEX
8
FIT
10
1160
20
2705.097559
30
0
42
0.316
0
VERTEX
8
FIT
10
600
20
3502.693948
30
0
42
0.316
0
VERTEX
8
FIT
10
40
20
2705.097559
30
0
0
VERTEX
8
FIT
10
107
20
2705.097559
30
0
42
-0.307454
0
VERTEX
8
FIT
10
600
20
3431.056924
30
0
42
-0.307454
0
VERTEX
8
FIT
10
1093
20
2705.097559
30
0
0
SEQEND
8
FIT
0
POLYLINE
8
FIT
66
1
70
1
10
0
20
0
30
0
0
VERTEX
8
FIT
10
1105.5
20
2705.097559
30
0
42
0.309162
0
VERTEX
8
FIT
10
600
20
3444.488017
30
0
42
0.309162
0
VERTEX
8
FIT
10
94.5
20
2705.097559
30
0
0
SEQEND
8
FIT
0
POLYLINE
8
FIT
66
1
70
0
10
0
20
0
30
0
0
VERTEX
8
FIT
10
1164
20
2705.097559
30
0
42
0.005869
0
VERTEX
8
FIT
10
1163.765269
20
2725.095722
30
0
0
SEQEND
8
FIT
0
POLYLINE
8
FIT
66
1
70
0
10
0
20
0
30
0
0
VERTEX
8
FIT
10
1163.471886
20
2735.09136
30
0
42
0.005869
0
VERTEX
8
FIT
10
1162.533285
20
2755.068864
30
0
0
SEQEND
8
FIT
0
POLYLINE
8
FIT
66
1
70
0
10
0
20
0
30
0
0
VERTEX
8
FIT
10
1161.888197
20
2765.047978
30
0
42
0.005869
0
VERTEX
8
FIT
10
1160.24689
20
2784.980056
30
0
0
SEQEND
8
FIT
0
POLYLINE
8
FIT
66
1
70
0
10
0
20
0
30
0
0
VERTEX
8
FIT
10
1159.250897
20
2794.930275
30
0
42
0.005869
0
VERTEX
8
FIT
10
1156.908919
20
2814.792218
30
0
0
SEQEND
8
FIT
0
POLYLINE
8
FIT
66
1
70
0
10
0
20
0
30
0
0
VERTEX
8
FIT
10
1155.563256
20
2824.701206
30
0
42
0.005869
0
VERTEX
8
FIT
10
1152.52351
20
2844.46839
30
0
0
SEQEND
8
FIT
0
POLYLINE
8
FIT
66
1
70
0
10
0
20
0
30
0
0
VERTEX
8
FIT
10
1150.829846
20
2854.323863
30
0
42
0.005869
0
VERTEX
8
FIT
10
1147.0961
20
2873.971784
30
0
0
SEQEND
8
FIT
0
POLYLINE
8
FIT
66
1
70
0
10
0
20
0
30
0
0
VERTEX
8
FIT
10
1145.056533
20
2883.761524
30
0
42
0.005869
0
VERTEX
8
FIT
10
1140.633417
20
2903.265823
30
0
0
SEQEND
8
FIT
0
POLYLINE
8
FIT
66
1
70
0
10
0
20
0
30
0
0
VERTEX
8
FIT
10
1138.250476
20
2912.977694
30
0
42
0.005869
0
VERTEX
8
FIT
10
1133.143472
20
2932.314192
30
0
0
SEQEND
8
FIT
0
POLYLINE
8
FIT
66
1
70
0
10
0
20
0
30
0
0
VERTEX
8
FIT
10
1130.420112
20
2941.936155
30
0
42
0.005869
0
VERTEX
8
FIT
10
1124.635552
20
2961.080879
30
0
0
SEQEND
8
FIT
0
POLYLINE
8
FIT
66
1
70
0
10
0
20
0
30
0
0
VERTEX
8
FIT
10
1121.575148
20
2970.601005
30
0
42
0.005869
0
VERTEX
8
FIT
10
1115.120203
20
2989.530223
30
0
0
SEQEND
8
FIT
0
POLYLINE
8
FIT
66
1
70
0
10
0
20
0
30
0
0
VERTEX
8
FIT
10
1111.72655
20
2998.936709
30
0
42
0.005869
0
VERTEX
8
FIT
10
1104.609221
20
3017.626954
30
0
0
SEQEND
8
FIT
0
POLYLINE
8
FIT
66
1
70
0
10
0
20
0
30
0
0
VERTEX
8
FIT
10
1100.886526
20
3026.908139
30
0
42
0.005869
0
VERTEX
8
FIT
10
1093.115638
20
3045.33624
30
0
0
SEQEND
8
FIT
0
POLYLINE
8
FIT
66
1
70
0
10
0
20
0
30
0
0
VERTEX
8
FIT
10
1089.068515
20
3054.480619
30
0
42
0.005869
0
VERTEX
8
FIT
10
1080.653701
20
3072.623731
30
0
0
SEQEND
8
FIT
0
POLYLINE
8
FIT
66
1
70
0
10
0
20
0
30
0
0
VERTEX
8
FIT
10
1076.287169
20
3081.619966
30
0
42
0.005869
0
VERTEX
8
FIT
10
1067.238861
20
3099.455598
30
0
0
SEQEND
8
FIT
0
POLYLINE
8
FIT
66
1
70
0
10
0
20
0
30
0
0
VERTEX
8
FIT
10
1062.558332
20
3108.292537
30
0
42
0.005869
0
VERTEX
8
FIT
10
1052.887747
20
3125.798577
30
0
0
SEQEND
8
FIT
0
POLYLINE
8
FIT
66
1
70
0
10
0
20
0
30
0
0
VERTEX
8
FIT
10
1047.899023
20
3134.465265
30
0
42
0.005869
0
VERTEX
8
FIT
10
1037.61815
20
3151.620011
30
0
0
SEQEND
8
FIT
0
POLYLINE
8
FIT
66
1
70
0
10
0
20
0
30
0
0
VERTEX
8
FIT
10
1032.327417
20
3160.105704
30
0
42
0.005869
0
VERTEX
8
FIT
10
1021.449001
20
3176.887888
30
0
0
SEQEND
8
FIT
0
POLYLINE
8
FIT
66
1
70
0
10
0
20
0
30
0
0
VERTEX
8
FIT
10
1015.862817
20
3185.182067
30
0
42
0.005869
0
VERTEX
8
FIT
10
1004.400344
20
3201.570885
30
0
0
SEQEND
8
FIT
0
POLYLINE
8
FIT
66
1
70
0
10
0
20
0
30
0
0
VERTEX
8
FIT
10
998.525635
20
3209.663266
30
0
42
0.005869
0
VERTEX
8
FIT
10
986.493315
20
3225.638401
30
0
0
SEQEND
8
FIT
0
POLYLINE
8
FIT
66
1
70
0
10
0
20
0
30
0
0
VERTEX
8
FIT
10
980.337363
20
3233.518953
30
0
42
0.005869
0
VERTEX
8
FIT
10
967.750113
20
3249.060599
30
0
0
SEQEND
8
FIT
0
POLYLINE
8
FIT
66
1
70
0
10
0
20
0
30
0
0
VERTEX
8
FIT
10
961.32055
20
3256.719553
30
0
42
0.005869
0
VERTEX
8
FIT
10
948.193974
20
3271.808444
30
0
0
SEQEND
8
FIT
0
POLYLINE
8
FIT
66
1
70
0
10
0
20
0
30
0
0
VERTEX
8
FIT
10
941.49877
20
3279.236304
30
0
42
0.005869
0
VERTEX
8
FIT
10
927.849142
20
3293.853734
30
0
0
SEQEND
8
FIT
0
POLYLINE
8
FIT
66
1
70
0
10
0
20
0
30
0
0
VERTEX
8
FIT
10
920.896598
20
3301.041292
30
0
42
0.005869
0
VERTEX
8
FIT
10
906.740839
20
3315.169141
30
0
0
SEQEND
8
FIT
0
POLYLINE
8
FIT
66
1
70
0
10
0
20
0
30
0
0
VERTEX
8
FIT
10
899.539574
20
3322.107486
30
0
42
0.005869
0
VERTEX
8
FIT
10
884.895232
20
3335.728238
30
0
0
SEQEND
8
FIT
0
POLYLINE
8
FIT
66
1
70
0
10
0
20
0
30
0
0
VERTEX
8
FIT
10
877.454173
20
3342.408769
30
0
42
0.005869
0
VERTEX
8
FIT
10
862.339404
20
3355.505539
30
0
0
SEQEND
8
FIT
0
POLYLINE
8
FIT
66
1
70
0
10
0
20
0
30
0
0
VERTEX
8
FIT
10
854.667776
20
3361.919974
30
0
42
0.005869
0
VERTEX
8
FIT
10
839.101317
20
3374.476526
30
0
0
SEQEND
8
FIT
0
POLYLINE
8
FIT
66
1
70
0
10
0
20
0
30
0
0
VERTEX
8
FIT
10
831.208631
20
3380.616913
30
0
42
0.005869
0
VERTEX
8
FIT
10
815.20978
20
3392.61768
30
0
0
SEQEND
8
FIT
0
POLYLINE
8
FIT
66
1
70
0
10
0
20
0
30
0
0
VERTEX
8
FIT
10
807.10582
20
3398.476407
30
0
42
0.005869
0
VERTEX
8
FIT
10
790.694412
20
3409.906512
30
0
0
SEQEND
8
FIT
0
POLYLINE
8
FIT
66
1
70
0
10
0
20
0
30
0
0
VERTEX
8
FIT
10
782.389224
20
3415.476316
30
0
42
0.005869
0
VERTEX
8
FIT
10
765.585603
20
3426.321589
30
0
0
SEQEND
8
FIT
0
POLYLINE
8
FIT
66
1
70
0
10
0
20
0
30
0
0
VERTEX
8
FIT
10
757.089484
20
3431.595564
30
0
42
0.005869
0
VERTEX
8
FIT
10
739.914482
20
3441.84256
30
0
0
SEQEND
8
FIT
0
POLYLINE
8
FIT
66
1
70
0
10
0
20
0
30
0
0
VERTEX
8
FIT
10
731.237964
20
3446.814169
30
0
42
0.005869
0
VERTEX
8
FIT
10
713.712872
20
3456.450185
30
0
0
SEQEND
8
FIT
0
POLYLINE
8
FIT
66
1
70
0
10
0
20
0
30
0
0
VERTEX
8
FIT
10
704.866713
20
3461.113264
30
0
42
0.005869
0
VERTEX
8
FIT
10
687.013258
20
3470.126354
30
0
0
SEQEND
8
FIT
0
POLYLINE
8
FIT
66
1
70
0
10
0
20
0
30
0
0
VERTEX
8
FIT
10
678.008422
20
3474.475122
30
0
42
0.005869
0
VERTEX
8
FIT
10
659.848737
20
3482.854112
30
0
0
SEQEND
8
FIT
0
POLYLINE
8
FIT
66
1
70
0
10
0
20
0
30
0
0
VERTEX
8
FIT
10
650.696389
20
3486.883179
30
0
42
0.005869
0
VERTEX
8
FIT
10
632.252987
20
3494.617682
30
0
0
SEQEND
8
FIT
0
POLYLINE
8
FIT
66
1
70
0
10
0
20
0
30
0
0
VERTEX
8
FIT
10
622.964473
20
3498.322052
30
0
42
0.005869
0
VERTEX
8
FIT
10
604.260217
20
3505.402479
30
0
0
SEQEND
8
FIT
0
POLYLINE
8
FIT
66
1
70
0
10
0
20
0
30
0
0
VERTEX
8
FIT
10
600
20
3506.945425
30
0
42
0.005869
0
VERTEX
8
FIT
10
581.258354
20
3499.964569
30
0
0
SEQEND
8
FIT
0
POLYLINE
8
FIT
66
1
70
0
10
0
20
0
30
0
0
VERTEX
8
FIT
10
571.950272
20
3496.309648
30
0
42
0.005869
0
VERTEX
8
FIT
10
553.465997
20
3488.673338
30
0
0
SEQEND
8
FIT
0
POLYLINE
8
FIT
66
1
70
0
10
0
20
0
30
0
0
VERTEX
8
FIT
10
544.292352
20
3484.693001
30
0
42
0.005869
0
VERTEX
8
FIT
10
526.088364
20
3476.410704
30
0
0
SEQEND
8
FIT
0
POLYLINE
8
FIT
66
1
70
0
10
0
20
0
30
0
0
VERTEX
8
FIT
10
517.060528
20
3472.109885
30
0
42
0.005869
0
VERTEX
8
FIT
10
499.159394
20
3463.191869
30
0
0
SEQEND
8
FIT
0
POLYLINE
8
FIT
66
1
70
0
10
0
20
0
30
0
0
VERTEX
8
FIT
10
490.28856
20
3458.5759
30
0
42
0.005869
0
VERTEX
8
FIT
10
472.712471
20
3449.033221
30
0
0
SEQEND
8
FIT
0
POLYLINE
8
FIT
66
1
70
0
10
0
20
0
30
0
0
VERTEX
8
FIT
10
464.009637
20
3444.107824
30
0
42
0.005869
0
VERTEX
8
FIT
10
446.780383
20
3433.952311
30
0
0
SEQEND
8
FIT
0
POLYLINE
8
FIT
66
1
70
0
10
0
20
0
30
0
0
VERTEX
8
FIT
10
438.256337
20
3428.723594
30
0
42
0.005869
0
VERTEX
8
FIT
10
421.395278
20
3417.967837
30
0
0
SEQEND
8
FIT
0
POLYLINE
8
FIT
66
1
70
0
10
0
20
0
30
0
0
VERTEX
8
FIT
10
413.060587
20
3412.44228
30
0
42
0.005869
0
VERTEX
8
FIT
10
396.588624
20
3401.099613
30
0
0
SEQEND
8
FIT
0
POLYLINE
8
FIT
66
1
70
0
10
0
20
0
30
0
0
VERTEX
8
FIT
10
388.453621
20
3395.284067
30
0
42
0.005869
0
VERTEX
8
FIT
10
372.391176
20
3383.368553
30
0
0
SEQEND
8
FIT
0
POLYLINE
8
FIT
66
1
70
0
10
0
20
0
30
0
0
VERTEX
8
FIT
10
364.465946
20
3377.270226
30
0
42
0.005869
0
VERTEX
8
FIT
10
348.832931
20
3364.796636
30
0
0
SEQEND
8
FIT
0
POLYLINE
8
FIT
66
1
70
0
10
0
20
0
30
0
0
VERTEX
8
FIT
10
341.127299
20
3358.42309
30
0
42
0.005869
0
VERTEX
8
FIT
10
325.943094
20
3345.406886
30
0
0
SEQEND
8
FIT
0
POLYLINE
8
FIT
66
1
70
0
10
0
20
0
30
0
0
VERTEX
8
FIT
10
318.466613
20
3338.766022
30
0
42
0.005869
0
VERTEX
8
FIT
10
303.750042
20
3325.223342
30
0
0
SEQEND
8
FIT
0
POLYLINE
8
FIT
66
1
70
0
10
0
20
0
30
0
0
VERTEX
8
FIT
10
296.51198
20
3318.323392
30
0
42
0.005869
0
VERTEX
8
FIT
10
282.281288
20
3304.271024
30
0
0
SEQEND
8
FIT
0
POLYLINE
8
FIT
66
1
70
0
10
0
20
0
30
0
0
VERTEX
8
FIT
10
275.290618
20
3297.120543
30
0
42
0.005869
0
VERTEX
8
FIT
10
261.563446
20
3282.575908
30
0
0
SEQEND
8
FIT
0
POLYLINE
8
FIT
66
1
70
0
10
0
20
0
30
0
0
VERTEX
8
FIT
10
254.828835
20
3275.18376
30
0
42
0.005869
0
VERTEX
8
FIT
10
241.622201
20
3260.16489
30
0
0
SEQEND
8
FIT
0
POLYLINE
8
FIT
66
1
70
0
10
0
20
0
30
0
0
VERTEX
8
FIT
10
235.151998
20
3252.540237
30
0
42
0.005869
0
VERTEX
8
FIT
10
222.482274
20
3237.065751
30
0
0
SEQEND
8
FIT
0
POLYLINE
8
FIT
66
1
70
0
10
0
20
0
30
0
0
VERTEX
8
FIT
10
216.2845
20
3229.218048
30
0
42
0.005869
0
VERTEX
8
FIT
10
204.167393
20
3213.307128
30
0
0
SEQEND
8
FIT
0
POLYLINE
8
FIT
66
1
70
0
10
0
20
0
30
0
0
VERTEX
8
FIT
10
198.249731
20
3205.246103
30
0
42
0.005869
0
VERTEX
8
FIT
10
186.700263
20
3188.918475
30
0
0
SEQEND
8
FIT
0
POLYLINE
8
FIT
66
1
70
0
10
0
20
0
30
0
0
VERTEX
8
FIT
10
181.070049
20
3180.654122
30
0
42
0.005869
0
VERTEX
8
FIT
10
170.102538
20
3163.930027
30
0
0
SEQEND
8
FIT
0
POLYLINE
8
FIT
66
1
70
0
10
0
20
0
30
0
0
VERTEX
8
FIT
10
164.766752
20
3155.47259
30
0
42
0.005869
0
VERTEX
8
FIT
10
154.394794
20
3138.372762
30
0
0
SEQEND
8
FIT
0
POLYLINE
8
FIT
66
1
70
0
10
0
20
0
30
0
0
VERTEX
8
FIT
10
149.360051
20
3129.732727
30
0
42
0.005869
0
VERTEX
8
FIT
10
139.596504
20
3112.278364
30
0
0
SEQEND
8
FIT
0
POLYLINE
8
FIT
66
1
70
0
10
0
20
0
30
0
0
VERTEX
8
FIT
10
134.869046
20
3103.466441
30
0
42
0.005869
0
VERTEX
8
FIT
10
125.726014
20
3085.679181
30
0
0
SEQEND
8
FIT
0
POLYLINE
8
FIT
66
1
70
0
10
0
20
0
30
0
0
VERTEX
8
FIT
10
121.311701
20
3076.706295
30
0
42
0.005869
0
VERTEX
8
FIT
10
112.80052
20
3058.608189
30
0
0
SEQEND
8
FIT
0
POLYLINE
8
FIT
66
1
70
0
10
0
20
0
30
0
0
VERTEX
8
FIT
10
108.704824
20
3049.485463
30
0
42
0.005869
0
VERTEX
8
FIT
10
100.836044
20
3031.098948
30
0
0
SEQEND
8
FIT
0
POLYLINE
8
FIT
66
1
70
0
10
0
20
0
30
0
0
VERTEX
8
FIT
10
97.064043
20
3021.837692
30
0
42
0.005869
0
VERTEX
8
FIT
10
89.847419
20
3003.185562
30
0
0
SEQEND
8
FIT
0
POLYLINE
8
FIT
66
1
70
0
10
0
20
0
30
0
0
VERTEX
8
FIT
10
86.40379
20
2993.797257
30
0
42
0.005869
0
VERTEX
8
FIT
10
79.848268
20
2974.902634
30
0
0
SEQEND
8
FIT
0
POLYLINE
8
FIT
66
1
70
0
10
0
20
0
30
0
0
VERTEX
8
FIT
10
76.737279
20
2965.398919
30
0
42
0.005869
0
VERTEX
8
FIT
10
70.850988
20
2946.285228
30
0
0
SEQEND
8
FIT
0
POLYLINE
8
FIT
66
1
70
0
10
0
20
0
30
0
0
VERTEX
8
FIT
10
68.076496
20
2936.677884
30
0
42
0.005869
0
VERTEX
8
FIT
10
62.866731
20
2917.368819
30
0
0
SEQEND
8
FIT
0
POLYLINE
8
FIT
66
1
70
0
10
0
20
0
30
0
0
VERTEX
8
FIT
10
60.432175
20
2907.669758
30
0
42
0.005869
0
VERTEX
8
FIT
10
55.905396
20
2888.189257
30
0
0
SEQEND
8
FIT
0
POLYLINE
8
FIT
66
1
70
0
10
0
20
0
30
0
0
VERTEX
8
FIT
10
53.813795
20
2878.410502
30
0
42
0.005869
0
VERTEX
8
FIT
10
49.975613
20
2858.782716
30
0
0
SEQEND
8
FIT
0
POLYLINE
8
FIT
66
1
70
0
10
0
20
0
30
0
0
VERTEX
8
FIT
10
48.229561
20
2848.936389
30
0
42
0.005869
0
VERTEX
8
FIT
10
45.084734
20
2829.18565
30
0
0
SEQEND
8
FIT
0
POLYLINE
8
FIT
66
1
70
0
10
0
20
0
30
0
0
VERTEX
8
FIT
10
43.686393
20
2819.283958
30
0
42
0.005869
0
VERTEX
8
FIT
10
41.238821
20
2799.434751
30
0
0
SEQEND
8
FIT
0
POLYLINE
8
FIT
66
1
70
0
10
0
20
0
30
0
0
VERTEX
8
FIT
10
40.189926
20
2789.48997
30
0
42
0.005869
0
VERTEX
8
FIT
10
38.442642
20
2769.566902
30
0
0
SEQEND
8
FIT
0
POLYLINE
8
FIT
66
1
70
0
10
0
20
0
30
0
0
VERTEX
8
FIT
10
37.744494
20
2759.59136
30
0
42
0.005869
0
VERTEX
8
FIT
10
36.699665
20
2739.61913
30
0
0
SEQEND
8
FIT
0
POLYLINE
8
FIT
66
1
70
0
10
0
20
0
30
0
0
VERTEX
8
FIT
10
36.353128
20
2729.625194
30
0
42
0.005869
0
VERTEX
8
FIT
10
36.012048
20
2709.628562
30
0
0
SEQEND
8
FIT
0
TEXT
8
TEXT
10
1300
20
3526.597559
30
0
40
15
1
T - FIT (ASSEMBLY, NOT A TOOLPATH)
72
0
11
1300
21
3526.597559
31
0
73
0
0
TEXT
8
TEXT
10
1300
20
3504.597559
30
0
40
15
1
GAP 4 LAP 17 (REBATE)
72
0
11
1300
21
3504.597559
31
0
73
0
0
TEXT
8
TEXT
10
1300
20
3482.597559
30
0
40
15
1
FRAME R888/888 / 831/831  REBATE WALL R852/852 (LAND 36, DASHED)
72
0
11
1300
21
3482.597559
31
0
73
0
0
TEXT
8
TEXT
10
1300
20
3460.597559
30
0
40
15
1
LEAF R848/848 / 781/781  GLASS R793.5/793.5
72
0
11
1300
21
3460.597559
31
0
73
0
0
ENDSEC
0
EOF
