0
SECTION
2
HEADER
9
$ACADVER
1
AC1009
0
ENDSEC
0
SECTION
2
TABLES
0
TABLE
2
LAYER
70
9
0
LAYER
2
0
70
0
62
7
6
CONTINUOUS
0
LAYER
2
ARKA_OUTLINE
70
0
62
7
6
CONTINUOUS
0
LAYER
2
ARKA_PANE
70
0
62
3
6
CONTINUOUS
0
LAYER
2
ARKA_FRONT_HINGES_3MM
70
0
62
50
6
CONTINUOUS
0
LAYER
2
ARKA_MITRE
70
0
62
1
6
CONTINUOUS
0
LAYER
2
ARKA_SECTION
70
0
62
5
6
CONTINUOUS
0
LAYER
2
ARKA_PANE_ZEWN_REF
70
0
62
3
6
CONTINUOUS
0
LAYER
2
ARKA_CENTRE
70
0
62
6
6
CONTINUOUS
0
LAYER
2
ARKA_INFO_NO_CUT
70
0
62
8
6
CONTINUOUS
0
ENDTAB
0
ENDSEC
0
SECTION
2
ENTITIES
0
POLYLINE
8
ARKA_OUTLINE
66
1
70
1
10
0
20
0
30
0
0
VERTEX
8
ARKA_OUTLINE
10
-5.5
20
-5.5
30
0
0
VERTEX
8
ARKA_OUTLINE
10
794.5
20
-5.5
30
0
0
VERTEX
8
ARKA_OUTLINE
10
794.5
20
1032.474596
30
0
42
0.250492
0
VERTEX
8
ARKA_OUTLINE
10
394.5
20
1780.806074
30
0
42
0.250492
0
VERTEX
8
ARKA_OUTLINE
10
-5.5
20
1032.474596
30
0
0
SEQEND
8
ARKA_OUTLINE
0
POLYLINE
8
ARKA_PANE_ZEWN_REF
66
1
70
1
10
0
20
0
30
0
0
VERTEX
8
ARKA_PANE_ZEWN_REF
10
-3.5
20
-3.5
30
0
0
VERTEX
8
ARKA_PANE_ZEWN_REF
10
792.5
20
-3.5
30
0
0
VERTEX
8
ARKA_PANE_ZEWN_REF
10
792.5
20
1032.474596
30
0
42
0.250096
0
VERTEX
8
ARKA_PANE_ZEWN_REF
10
394.5
20
1778.399525
30
0
42
0.250096
0
VERTEX
8
ARKA_PANE_ZEWN_REF
10
-3.5
20
1032.474596
30
0
0
SEQEND
8
ARKA_PANE_ZEWN_REF
0
POLYLINE
8
ARKA_OUTLINE
66
1
70
1
10
0
20
0
30
0
0
VERTEX
8
ARKA_OUTLINE
10
12.5
20
12.5
30
0
0
VERTEX
8
ARKA_OUTLINE
10
252
20
12.5
30
0
0
VERTEX
8
ARKA_OUTLINE
10
252
20
505.237298
30
0
0
VERTEX
8
ARKA_OUTLINE
10
12.5
20
505.237298
30
0
0
SEQEND
8
ARKA_OUTLINE
0
POLYLINE
8
ARKA_PANE
66
1
70
1
10
0
20
0
30
0
0
VERTEX
8
ARKA_PANE
10
10.5
20
10.5
30
0
0
VERTEX
8
ARKA_PANE
10
254
20
10.5
30
0
0
VERTEX
8
ARKA_PANE
10
254
20
507.237298
30
0
0
VERTEX
8
ARKA_PANE
10
10.5
20
507.237298
30
0
0
SEQEND
8
ARKA_PANE
0
POLYLINE
8
ARKA_FRONT_HINGES_3MM
66
1
70
1
10
0
20
0
30
0
0
VERTEX
8
ARKA_FRONT_HINGES_3MM
10
2.5
20
2.5
30
0
0
VERTEX
8
ARKA_FRONT_HINGES_3MM
10
262
20
2.5
30
0
0
VERTEX
8
ARKA_FRONT_HINGES_3MM
10
262
20
515.237298
30
0
0
VERTEX
8
ARKA_FRONT_HINGES_3MM
10
2.5
20
515.237298
30
0
0
SEQEND
8
ARKA_FRONT_HINGES_3MM
0
POLYLINE
8
ARKA_OUTLINE
66
1
70
1
10
0
20
0
30
0
0
VERTEX
8
ARKA_OUTLINE
10
274
20
12.5
30
0
0
VERTEX
8
ARKA_OUTLINE
10
515
20
12.5
30
0
0
VERTEX
8
ARKA_OUTLINE
10
515
20
505.237298
30
0
0
VERTEX
8
ARKA_OUTLINE
10
274
20
505.237298
30
0
0
SEQEND
8
ARKA_OUTLINE
0
POLYLINE
8
ARKA_PANE
66
1
70
1
10
0
20
0
30
0
0
VERTEX
8
ARKA_PANE
10
272
20
10.5
30
0
0
VERTEX
8
ARKA_PANE
10
517
20
10.5
30
0
0
VERTEX
8
ARKA_PANE
10
517
20
507.237298
30
0
0
VERTEX
8
ARKA_PANE
10
272
20
507.237298
30
0
0
SEQEND
8
ARKA_PANE
0
POLYLINE
8
ARKA_FRONT_HINGES_3MM
66
1
70
1
10
0
20
0
30
0
0
VERTEX
8
ARKA_FRONT_HINGES_3MM
10
264
20
2.5
30
0
0
VERTEX
8
ARKA_FRONT_HINGES_3MM
10
525
20
2.5
30
0
0
VERTEX
8
ARKA_FRONT_HINGES_3MM
10
525
20
515.237298
30
0
0
VERTEX
8
ARKA_FRONT_HINGES_3MM
10
264
20
515.237298
30
0
0
SEQEND
8
ARKA_FRONT_HINGES_3MM
0
POLYLINE
8
ARKA_OUTLINE
66
1
70
1
10
0
20
0
30
0
0
VERTEX
8
ARKA_OUTLINE
10
537
20
12.5
30
0
0
VERTEX
8
ARKA_OUTLINE
10
776.5
20
12.5
30
0
0
VERTEX
8
ARKA_OUTLINE
10
776.5
20
505.237298
30
0
0
VERTEX
8
ARKA_OUTLINE
10
537
20
505.237298
30
0
0
SEQEND
8
ARKA_OUTLINE
0
POLYLINE
8
ARKA_PANE
66
1
70
1
10
0
20
0
30
0
0
VERTEX
8
ARKA_PANE
10
535
20
10.5
30
0
0
VERTEX
8
ARKA_PANE
10
778.5
20
10.5
30
0
0
VERTEX
8
ARKA_PANE
10
778.5
20
507.237298
30
0
0
VERTEX
8
ARKA_PANE
10
535
20
507.237298
30
0
0
SEQEND
8
ARKA_PANE
0
POLYLINE
8
ARKA_FRONT_HINGES_3MM
66
1
70
1
10
0
20
0
30
0
0
VERTEX
8
ARKA_FRONT_HINGES_3MM
10
527
20
2.5
30
0
0
VERTEX
8
ARKA_FRONT_HINGES_3MM
10
786.5
20
2.5
30
0
0
VERTEX
8
ARKA_FRONT_HINGES_3MM
10
786.5
20
515.237298
30
0
0
VERTEX
8
ARKA_FRONT_HINGES_3MM
10
527
20
515.237298
30
0
0
SEQEND
8
ARKA_FRONT_HINGES_3MM
0
POLYLINE
8
ARKA_OUTLINE
66
1
70
1
10
0
20
0
30
0
0
VERTEX
8
ARKA_OUTLINE
10
776.5
20
527.237298
30
0
0
VERTEX
8
ARKA_OUTLINE
10
776.5
20
1032.474596
30
0
42
0.246855
0
VERTEX
8
ARKA_OUTLINE
10
394.5
20
1759.058384
30
0
42
0.246855
0
VERTEX
8
ARKA_OUTLINE
10
12.5
20
1032.474596
30
0
0
VERTEX
8
ARKA_OUTLINE
10
12.5
20
527.237298
30
0
0
VERTEX
8
ARKA_OUTLINE
10
252
20
527.237298
30
0
0
VERTEX
8
ARKA_OUTLINE
10
252
20
1032.474596
30
0
42
-0.143128
0
VERTEX
8
ARKA_OUTLINE
10
394.5
20
1520.082277
30
0
42
-0.143128
0
VERTEX
8
ARKA_OUTLINE
10
537
20
1032.474596
30
0
0
VERTEX
8
ARKA_OUTLINE
10
537
20
527.237298
30
0
0
SEQEND
8
ARKA_OUTLINE
0
POLYLINE
8
ARKA_PANE
66
1
70
1
10
0
20
0
30
0
0
VERTEX
8
ARKA_PANE
10
778.5
20
525.237298
30
0
0
VERTEX
8
ARKA_PANE
10
778.5
20
1032.474596
30
0
42
0.247268
0
VERTEX
8
ARKA_PANE
10
394.5
20
1761.484884
30
0
42
0.247268
0
VERTEX
8
ARKA_PANE
10
10.5
20
1032.474596
30
0
0
VERTEX
8
ARKA_PANE
10
10.5
20
525.237298
30
0
0
VERTEX
8
ARKA_PANE
10
254
20
525.237298
30
0
0
VERTEX
8
ARKA_PANE
10
254
20
1032.474596
30
0
42
-0.142242
0
VERTEX
8
ARKA_PANE
10
394.5
20
1516.358105
30
0
42
-0.142242
0
VERTEX
8
ARKA_PANE
10
535
20
1032.474596
30
0
0
VERTEX
8
ARKA_PANE
10
535
20
525.237298
30
0
0
SEQEND
8
ARKA_PANE
0
POLYLINE
8
ARKA_FRONT_HINGES_3MM
66
1
70
1
10
0
20
0
30
0
0
VERTEX
8
ARKA_FRONT_HINGES_3MM
10
786.5
20
517.237298
30
0
0
VERTEX
8
ARKA_FRONT_HINGES_3MM
10
786.5
20
1032.474596
30
0
42
0.248897
0
VERTEX
8
ARKA_FRONT_HINGES_3MM
10
394.5
20
1771.16533
30
0
42
0.248897
0
VERTEX
8
ARKA_FRONT_HINGES_3MM
10
2.5
20
1032.474596
30
0
0
VERTEX
8
ARKA_FRONT_HINGES_3MM
10
2.5
20
517.237298
30
0
0
VERTEX
8
ARKA_FRONT_HINGES_3MM
10
262
20
517.237298
30
0
0
VERTEX
8
ARKA_FRONT_HINGES_3MM
10
262
20
1032.474596
30
0
42
-0.13861
0
VERTEX
8
ARKA_FRONT_HINGES_3MM
10
394.5
20
1501.250929
30
0
42
-0.13861
0
VERTEX
8
ARKA_FRONT_HINGES_3MM
10
527
20
1032.474596
30
0
0
VERTEX
8
ARKA_FRONT_HINGES_3MM
10
527
20
517.237298
30
0
0
SEQEND
8
ARKA_FRONT_HINGES_3MM
0
POLYLINE
8
ARKA_OUTLINE
66
1
70
1
10
0
20
0
30
0
0
VERTEX
8
ARKA_OUTLINE
10
274
20
527.237298
30
0
0
VERTEX
8
ARKA_OUTLINE
10
515
20
527.237298
30
0
0
VERTEX
8
ARKA_OUTLINE
10
515
20
1032.474596
30
0
42
0.132876
0
VERTEX
8
ARKA_OUTLINE
10
394.5
20
1477.899393
30
0
42
0.132876
0
VERTEX
8
ARKA_OUTLINE
10
274
20
1032.474596
30
0
0
SEQEND
8
ARKA_OUTLINE
0
POLYLINE
8
ARKA_PANE
66
1
70
1
10
0
20
0
30
0
0
VERTEX
8
ARKA_PANE
10
272
20
525.237298
30
0
0
VERTEX
8
ARKA_PANE
10
517
20
525.237298
30
0
0
VERTEX
8
ARKA_PANE
10
517
20
1032.474596
30
0
42
0.133857
0
VERTEX
8
ARKA_PANE
10
394.5
20
1481.853334
30
0
42
0.133857
0
VERTEX
8
ARKA_PANE
10
272
20
1032.474596
30
0
0
SEQEND
8
ARKA_PANE
0
POLYLINE
8
ARKA_FRONT_HINGES_3MM
66
1
70
1
10
0
20
0
30
0
0
VERTEX
8
ARKA_FRONT_HINGES_3MM
10
264
20
517.237298
30
0
0
VERTEX
8
ARKA_FRONT_HINGES_3MM
10
525
20
517.237298
30
0
0
VERTEX
8
ARKA_FRONT_HINGES_3MM
10
525
20
1032.474596
30
0
42
0.137679
0
VERTEX
8
ARKA_FRONT_HINGES_3MM
10
394.5
20
1497.418948
30
0
42
0.137679
0
VERTEX
8
ARKA_FRONT_HINGES_3MM
10
264
20
1032.474596
30
0
0
SEQEND
8
ARKA_FRONT_HINGES_3MM
0
POLYLINE
8
ARKA_MITRE
66
1
70
0
10
0
20
0
30
0
0
VERTEX
8
ARKA_MITRE
10
2.5
20
17.5
30
0
0
VERTEX
8
ARKA_MITRE
10
2.5
20
2.5
30
0
0
VERTEX
8
ARKA_MITRE
10
17.5
20
2.5
30
0
0
SEQEND
8
ARKA_MITRE
0
POLYLINE
8
ARKA_MITRE
66
1
70
0
10
0
20
0
30
0
0
VERTEX
8
ARKA_MITRE
10
247
20
2.5
30
0
0
VERTEX
8
ARKA_MITRE
10
262
20
2.5
30
0
0
VERTEX
8
ARKA_MITRE
10
262
20
17.5
30
0
0
SEQEND
8
ARKA_MITRE
0
POLYLINE
8
ARKA_MITRE
66
1
70
0
10
0
20
0
30
0
0
VERTEX
8
ARKA_MITRE
10
262
20
500.237298
30
0
0
VERTEX
8
ARKA_MITRE
10
262
20
515.237298
30
0
0
VERTEX
8
ARKA_MITRE
10
247
20
515.237298
30
0
0
SEQEND
8
ARKA_MITRE
0
POLYLINE
8
ARKA_MITRE
66
1
70
0
10
0
20
0
30
0
0
VERTEX
8
ARKA_MITRE
10
17.5
20
515.237298
30
0
0
VERTEX
8
ARKA_MITRE
10
2.5
20
515.237298
30
0
0
VERTEX
8
ARKA_MITRE
10
2.5
20
500.237298
30
0
0
SEQEND
8
ARKA_MITRE
0
POLYLINE
8
ARKA_MITRE
66
1
70
0
10
0
20
0
30
0
0
VERTEX
8
ARKA_MITRE
10
264
20
17.5
30
0
0
VERTEX
8
ARKA_MITRE
10
264
20
2.5
30
0
0
VERTEX
8
ARKA_MITRE
10
279
20
2.5
30
0
0
SEQEND
8
ARKA_MITRE
0
POLYLINE
8
ARKA_MITRE
66
1
70
0
10
0
20
0
30
0
0
VERTEX
8
ARKA_MITRE
10
510
20
2.5
30
0
0
VERTEX
8
ARKA_MITRE
10
525
20
2.5
30
0
0
VERTEX
8
ARKA_MITRE
10
525
20
17.5
30
0
0
SEQEND
8
ARKA_MITRE
0
POLYLINE
8
ARKA_MITRE
66
1
70
0
10
0
20
0
30
0
0
VERTEX
8
ARKA_MITRE
10
525
20
500.237298
30
0
0
VERTEX
8
ARKA_MITRE
10
525
20
515.237298
30
0
0
VERTEX
8
ARKA_MITRE
10
510
20
515.237298
30
0
0
SEQEND
8
ARKA_MITRE
0
POLYLINE
8
ARKA_MITRE
66
1
70
0
10
0
20
0
30
0
0
VERTEX
8
ARKA_MITRE
10
279
20
515.237298
30
0
0
VERTEX
8
ARKA_MITRE
10
264
20
515.237298
30
0
0
VERTEX
8
ARKA_MITRE
10
264
20
500.237298
30
0
0
SEQEND
8
ARKA_MITRE
0
POLYLINE
8
ARKA_MITRE
66
1
70
0
10
0
20
0
30
0
0
VERTEX
8
ARKA_MITRE
10
527
20
17.5
30
0
0
VERTEX
8
ARKA_MITRE
10
527
20
2.5
30
0
0
VERTEX
8
ARKA_MITRE
10
542
20
2.5
30
0
0
SEQEND
8
ARKA_MITRE
0
POLYLINE
8
ARKA_MITRE
66
1
70
0
10
0
20
0
30
0
0
VERTEX
8
ARKA_MITRE
10
771.5
20
2.5
30
0
0
VERTEX
8
ARKA_MITRE
10
786.5
20
2.5
30
0
0
VERTEX
8
ARKA_MITRE
10
786.5
20
17.5
30
0
0
SEQEND
8
ARKA_MITRE
0
POLYLINE
8
ARKA_MITRE
66
1
70
0
10
0
20
0
30
0
0
VERTEX
8
ARKA_MITRE
10
786.5
20
500.237298
30
0
0
VERTEX
8
ARKA_MITRE
10
786.5
20
515.237298
30
0
0
VERTEX
8
ARKA_MITRE
10
771.5
20
515.237298
30
0
0
SEQEND
8
ARKA_MITRE
0
POLYLINE
8
ARKA_MITRE
66
1
70
0
10
0
20
0
30
0
0
VERTEX
8
ARKA_MITRE
10
542
20
515.237298
30
0
0
VERTEX
8
ARKA_MITRE
10
527
20
515.237298
30
0
0
VERTEX
8
ARKA_MITRE
10
527
20
500.237298
30
0
0
SEQEND
8
ARKA_MITRE
0
POLYLINE
8
ARKA_MITRE
66
1
70
0
10
0
20
0
30
0
0
VERTEX
8
ARKA_MITRE
10
771.5
20
517.237298
30
0
0
VERTEX
8
ARKA_MITRE
10
786.5
20
517.237298
30
0
0
VERTEX
8
ARKA_MITRE
10
786.5
20
532.237298
30
0
0
SEQEND
8
ARKA_MITRE
0
POLYLINE
8
ARKA_MITRE
66
1
70
0
10
0
20
0
30
0
0
VERTEX
8
ARKA_MITRE
10
406.85065
20
1762.653212
30
0
42
0.004204
0
VERTEX
8
ARKA_MITRE
10
394.5
20
1771.16533
30
0
42
0.004204
0
VERTEX
8
ARKA_MITRE
10
382.14935
20
1762.653212
30
0
0
SEQEND
8
ARKA_MITRE
0
POLYLINE
8
ARKA_MITRE
66
1
70
0
10
0
20
0
30
0
0
VERTEX
8
ARKA_MITRE
10
2.5
20
532.237298
30
0
0
VERTEX
8
ARKA_MITRE
10
2.5
20
517.237298
30
0
0
VERTEX
8
ARKA_MITRE
10
17.5
20
517.237298
30
0
0
SEQEND
8
ARKA_MITRE
0
POLYLINE
8
ARKA_MITRE
66
1
70
0
10
0
20
0
30
0
0
VERTEX
8
ARKA_MITRE
10
247
20
517.237298
30
0
0
VERTEX
8
ARKA_MITRE
10
262
20
517.237298
30
0
0
VERTEX
8
ARKA_MITRE
10
262
20
532.237298
30
0
0
SEQEND
8
ARKA_MITRE
0
POLYLINE
8
ARKA_MITRE
66
1
70
0
10
0
20
0
30
0
0
VERTEX
8
ARKA_MITRE
10
386.755205
20
1488.405195
30
0
42
-0.004188
0
VERTEX
8
ARKA_MITRE
10
394.5
20
1501.250929
30
0
42
-0.004188
0
VERTEX
8
ARKA_MITRE
10
402.244795
20
1488.405195
30
0
0
SEQEND
8
ARKA_MITRE
0
POLYLINE
8
ARKA_MITRE
66
1
70
0
10
0
20
0
30
0
0
VERTEX
8
ARKA_MITRE
10
527
20
532.237298
30
0
0
VERTEX
8
ARKA_MITRE
10
527
20
517.237298
30
0
0
VERTEX
8
ARKA_MITRE
10
542
20
517.237298
30
0
0
SEQEND
8
ARKA_MITRE
0
POLYLINE
8
ARKA_MITRE
66
1
70
0
10
0
20
0
30
0
0
VERTEX
8
ARKA_MITRE
10
264
20
532.237298
30
0
0
VERTEX
8
ARKA_MITRE
10
264
20
517.237298
30
0
0
VERTEX
8
ARKA_MITRE
10
279
20
517.237298
30
0
0
SEQEND
8
ARKA_MITRE
0
POLYLINE
8
ARKA_MITRE
66
1
70
0
10
0
20
0
30
0
0
VERTEX
8
ARKA_MITRE
10
510
20
517.237298
30
0
0
VERTEX
8
ARKA_MITRE
10
525
20
517.237298
30
0
0
VERTEX
8
ARKA_MITRE
10
525
20
532.237298
30
0
0
SEQEND
8
ARKA_MITRE
0
POLYLINE
8
ARKA_MITRE
66
1
70
0
10
0
20
0
30
0
0
VERTEX
8
ARKA_MITRE
10
402.197561
20
1484.544855
30
0
42
0.004197
0
VERTEX
8
ARKA_MITRE
10
394.5
20
1497.418948
30
0
42
0.004197
0
VERTEX
8
ARKA_MITRE
10
386.802439
20
1484.544855
30
0
0
SEQEND
8
ARKA_MITRE
0
POINT
8
ARKA_CENTRE
10
-105.5
20
1032.474596
30
0
0
POINT
8
ARKA_CENTRE
10
894.5
20
1032.474596
30
0
0
POLYLINE
8
ARKA_SECTION
66
1
70
0
10
0
20
0
30
0
0
VERTEX
8
ARKA_SECTION
10
894.5
20
-5.5
30
0
42
-0.414214
0
VERTEX
8
ARKA_SECTION
10
902.5
20
2.5
30
0
0
VERTEX
8
ARKA_SECTION
10
902.5
20
8.5
30
0
0
SEQEND
8
ARKA_SECTION
0
TEXT
8
ARKA_INFO_NO_CUT
10
890.5
20
-24.5
30
0
40
15
1
START
72
0
11
890.5
21
-24.5
31
0
73
0
0
TEXT
8
ARKA_INFO_NO_CUT
10
914.5
20
-1.5
30
0
40
15
1
SECTION R8 + 6 (VERBATIM)
72
0
11
914.5
21
-1.5
31
0
73
0
0
TEXT
8
ARKA_INFO_NO_CUT
10
894.5
20
1758.806074
30
0
40
15
1
gothic - TRACERY FULL
72
0
11
894.5
21
1758.806074
31
0
73
0
0
TEXT
8
ARKA_INFO_NO_CUT
10
894.5
20
1736.806074
30
0
40
15
1
PATTERN INTERSECTING SPOKES 0 RINGS 0 PANES 5
72
0
11
894.5
21
1736.806074
31
0
73
0
0
TEXT
8
ARKA_INFO_NO_CUT
10
894.5
20
1714.806074
30
0
40
15
1
TIMBER BAR 22 EDGE MARGIN 18 PANE +2 LIMIT +10 MITRE LEG 15
72
0
11
894.5
21
1714.806074
31
0
73
0
0
TEXT
8
ARKA_INFO_NO_CUT
10
894.5
20
1692.806074
30
0
40
15
1
ARKA_PANE = MOULDING RAIL (INNER EDGE OF THE BEAD), ARKA_FRONT_HINGES_3MM = BEAD LIMIT (NOT DRILLING)
72
0
11
894.5
21
1692.806074
31
0
73
0
0
TEXT
8
ARKA_INFO_NO_CUT
10
894.5
20
1670.806074
30
0
40
15
1
NOT A TOOLPATH
72
0
11
894.5
21
1670.806074
31
0
73
0
0
ENDSEC
0
EOF
