0
SECTION
2
HEADER
9
$ACADVER
1
AC1009
0
ENDSEC
0
SECTION
2
TABLES
0
TABLE
2
LAYER
70
9
0
LAYER
2
0
70
0
62
7
6
CONTINUOUS
0
LAYER
2
ARKA_OUTLINE
70
0
62
7
6
CONTINUOUS
0
LAYER
2
ARKA_PANE
70
0
62
3
6
CONTINUOUS
0
LAYER
2
ARKA_FRONT_HINGES_3MM
70
0
62
50
6
CONTINUOUS
0
LAYER
2
ARKA_MITRE
70
0
62
1
6
CONTINUOUS
0
LAYER
2
ARKA_SECTION
70
0
62
5
6
CONTINUOUS
0
LAYER
2
ARKA_PANE_ZEWN_REF
70
0
62
3
6
CONTINUOUS
0
LAYER
2
ARKA_CENTRE
70
0
62
6
6
CONTINUOUS
0
LAYER
2
ARKA_INFO_NO_CUT
70
0
62
8
6
CONTINUOUS
0
ENDTAB
0
ENDSEC
0
SECTION
2
ENTITIES
0
POLYLINE
8
ARKA_OUTLINE
66
1
70
1
10
0
20
0
30
0
0
VERTEX
8
ARKA_OUTLINE
10
-3827.618886
20
1606.590478
30
0
0
VERTEX
8
ARKA_OUTLINE
10
-3220.618886
20
1606.590478
30
0
0
VERTEX
8
ARKA_OUTLINE
10
-3220.618886
20
2206.549644
30
0
42
0.417635
0
SEQEND
8
ARKA_OUTLINE
0
POLYLINE
8
ARKA_PANE_ZEWN_REF
66
1
70
1
10
0
20
0
30
0
0
VERTEX
8
ARKA_PANE_ZEWN_REF
10
-3825.615541
20
1608.590478
30
0
0
VERTEX
8
ARKA_PANE_ZEWN_REF
10
-3222.618886
20
1608.590478
30
0
0
VERTEX
8
ARKA_PANE_ZEWN_REF
10
-3222.618886
20
2204.569575
30
0
42
0.415684
0
SEQEND
8
ARKA_PANE_ZEWN_REF
0
POLYLINE
8
ARKA_OUTLINE
66
1
70
1
10
0
20
0
30
0
0
VERTEX
8
ARKA_OUTLINE
10
-3809.340469
20
1624.590478
30
0
0
VERTEX
8
ARKA_OUTLINE
10
-3638.224536
20
1624.590478
30
0
42
-0.180632
0
VERTEX
8
ARKA_OUTLINE
10
-3525.913841
20
1889.329085
30
0
0
VERTEX
8
ARKA_OUTLINE
10
-3646.859695
20
2010.274939
30
0
42
0.185992
0
SEQEND
8
ARKA_OUTLINE
0
POLYLINE
8
ARKA_PANE
66
1
70
1
10
0
20
0
30
0
0
VERTEX
8
ARKA_PANE
10
-3811.399667
20
1622.590478
30
0
0
VERTEX
8
ARKA_PANE
10
-3636.305808
20
1622.590478
30
0
42
-0.18307
0
VERTEX
8
ARKA_PANE
10
-3523.119493
20
1889.363163
30
0
0
VERTEX
8
ARKA_PANE
10
-3646.884167
20
2013.127837
30
0
42
0.187809
0
SEQEND
8
ARKA_PANE
0
POLYLINE
8
ARKA_FRONT_HINGES_3MM
66
1
70
1
10
0
20
0
30
0
0
VERTEX
8
ARKA_FRONT_HINGES_3MM
10
-3819.564829
20
1614.590478
30
0
0
VERTEX
8
ARKA_FRONT_HINGES_3MM
10
-3628.539077
20
1614.590478
30
0
42
-0.193085
0
VERTEX
8
ARKA_FRONT_HINGES_3MM
10
-3511.87493
20
1889.432309
30
0
0
VERTEX
8
ARKA_FRONT_HINGES_3MM
10
-3646.93261
20
2024.489989
30
0
42
0.194964
0
SEQEND
8
ARKA_FRONT_HINGES_3MM
0
POLYLINE
8
ARKA_OUTLINE
66
1
70
1
10
0
20
0
30
0
0
VERTEX
8
ARKA_OUTLINE
10
-3616.20221
20
1624.590478
30
0
0
VERTEX
8
ARKA_OUTLINE
10
-3437.849711
20
1624.590478
30
0
42
-0.163389
0
VERTEX
8
ARKA_OUTLINE
10
-3384.393705
20
1747.808948
30
0
0
VERTEX
8
ARKA_OUTLINE
10
-3510.351602
20
1873.766845
30
0
42
0.179602
0
SEQEND
8
ARKA_OUTLINE
0
POLYLINE
8
ARKA_PANE
66
1
70
1
10
0
20
0
30
0
0
VERTEX
8
ARKA_PANE
10
-3618.291383
20
1622.590478
30
0
0
VERTEX
8
ARKA_PANE
10
-3436.005546
20
1622.590478
30
0
42
-0.167977
0
VERTEX
8
ARKA_PANE
10
-3381.631077
20
1747.874748
30
0
0
VERTEX
8
ARKA_PANE
10
-3510.388346
20
1876.632017
30
0
42
0.182343
0
SEQEND
8
ARKA_PANE
0
POLYLINE
8
ARKA_FRONT_HINGES_3MM
66
1
70
1
10
0
20
0
30
0
0
VERTEX
8
ARKA_FRONT_HINGES_3MM
10
-3626.538677
20
1614.590478
30
0
0
VERTEX
8
ARKA_FRONT_HINGES_3MM
10
-3428.459619
20
1614.590478
30
0
42
-0.187298
0
VERTEX
8
ARKA_FRONT_HINGES_3MM
10
-3370.452697
20
1748.010076
30
0
0
VERTEX
8
ARKA_FRONT_HINGES_3MM
10
-3510.460712
20
1888.018091
30
0
42
0.193056
0
SEQEND
8
ARKA_FRONT_HINGES_3MM
0
POLYLINE
8
ARKA_OUTLINE
66
1
70
1
10
0
20
0
30
0
0
VERTEX
8
ARKA_OUTLINE
10
-3415.75979
20
1624.590478
30
0
0
VERTEX
8
ARKA_OUTLINE
10
-3238.618886
20
1624.590478
30
0
0
VERTEX
8
ARKA_OUTLINE
10
-3238.618886
20
1795.270101
30
0
42
0.369903
0
SEQEND
8
ARKA_OUTLINE
0
POLYLINE
8
ARKA_PANE
66
1
70
1
10
0
20
0
30
0
0
VERTEX
8
ARKA_PANE
10
-3417.947549
20
1622.590478
30
0
0
VERTEX
8
ARKA_PANE
10
-3236.618886
20
1622.590478
30
0
0
VERTEX
8
ARKA_PANE
10
-3236.618886
20
1797.378319
30
0
42
0.376343
0
SEQEND
8
ARKA_PANE
0
POLYLINE
8
ARKA_FRONT_HINGES_3MM
66
1
70
1
10
0
20
0
30
0
0
VERTEX
8
ARKA_FRONT_HINGES_3MM
10
-3426.458017
20
1614.590478
30
0
0
VERTEX
8
ARKA_FRONT_HINGES_3MM
10
-3228.618886
20
1614.590478
30
0
0
VERTEX
8
ARKA_FRONT_HINGES_3MM
10
-3228.618886
20
1805.587966
30
0
42
0.401025
0
SEQEND
8
ARKA_FRONT_HINGES_3MM
0
POLYLINE
8
ARKA_OUTLINE
66
1
70
1
10
0
20
0
30
0
0
VERTEX
8
ARKA_OUTLINE
10
-3238.618886
20
2188.486517
30
0
42
0.189106
0
VERTEX
8
ARKA_OUTLINE
10
-3631.303346
20
2025.831288
30
0
0
VERTEX
8
ARKA_OUTLINE
10
-3510.357492
20
1904.885434
30
0
42
-0.185035
0
VERTEX
8
ARKA_OUTLINE
10
-3238.618886
20
2017.44325
30
0
0
SEQEND
8
ARKA_OUTLINE
0
POLYLINE
8
ARKA_PANE
66
1
70
1
10
0
20
0
30
0
0
VERTEX
8
ARKA_PANE
10
-3236.618886
20
2190.521125
30
0
42
0.190914
0
VERTEX
8
ARKA_PANE
10
-3634.156245
20
2025.855759
30
0
0
VERTEX
8
ARKA_PANE
10
-3510.391571
20
1902.091085
30
0
42
-0.187498
0
VERTEX
8
ARKA_PANE
10
-3236.618886
20
2015.491444
30
0
0
SEQEND
8
ARKA_PANE
0
POLYLINE
8
ARKA_FRONT_HINGES_3MM
66
1
70
1
10
0
20
0
30
0
0
VERTEX
8
ARKA_FRONT_HINGES_3MM
10
-3228.618886
20
2198.589634
30
0
42
0.198035
0
VERTEX
8
ARKA_FRONT_HINGES_3MM
10
-3645.518396
20
2025.904202
30
0
0
VERTEX
8
ARKA_FRONT_HINGES_3MM
10
-3510.460717
20
1890.846523
30
0
42
-0.197616
0
VERTEX
8
ARKA_FRONT_HINGES_3MM
10
-3228.618886
20
2007.589231
30
0
0
SEQEND
8
ARKA_FRONT_HINGES_3MM
0
POLYLINE
8
ARKA_OUTLINE
66
1
70
1
10
0
20
0
30
0
0
VERTEX
8
ARKA_OUTLINE
10
-3238.618886
20
1817.303553
30
0
0
VERTEX
8
ARKA_OUTLINE
10
-3238.618886
20
1995.43492
30
0
42
0.184252
0
VERTEX
8
ARKA_OUTLINE
10
-3494.795253
20
1889.323195
30
0
0
VERTEX
8
ARKA_OUTLINE
10
-3368.837355
20
1763.365297
30
0
42
-0.171936
0
SEQEND
8
ARKA_OUTLINE
0
POLYLINE
8
ARKA_PANE
66
1
70
1
10
0
20
0
30
0
0
VERTEX
8
ARKA_PANE
10
-3236.618886
20
1815.396609
30
0
0
VERTEX
8
ARKA_PANE
10
-3236.618886
20
1997.486884
30
0
42
0.186974
0
VERTEX
8
ARKA_PANE
10
-3497.660424
20
1889.359939
30
0
0
VERTEX
8
ARKA_PANE
10
-3368.903155
20
1760.60267
30
0
42
-0.176615
0
SEQEND
8
ARKA_PANE
0
POLYLINE
8
ARKA_FRONT_HINGES_3MM
66
1
70
1
10
0
20
0
30
0
0
VERTEX
8
ARKA_FRONT_HINGES_3MM
10
-3228.618886
20
1807.587991
30
0
0
VERTEX
8
ARKA_FRONT_HINGES_3MM
10
-3228.618886
20
2005.589225
30
0
42
0.19761
0
VERTEX
8
ARKA_FRONT_HINGES_3MM
10
-3509.046499
20
1889.432305
30
0
0
VERTEX
8
ARKA_FRONT_HINGES_3MM
10
-3369.038483
20
1749.424289
30
0
42
-0.196328
0
SEQEND
8
ARKA_FRONT_HINGES_3MM
0
POLYLINE
8
ARKA_MITRE
66
1
70
0
10
0
20
0
30
0
0
VERTEX
8
ARKA_MITRE
10
-3819.172142
20
1629.584936
30
0
42
0.006335
0
VERTEX
8
ARKA_MITRE
10
-3819.564829
20
1614.590478
30
0
0
VERTEX
8
ARKA_MITRE
10
-3804.564829
20
1614.590478
30
0
0
SEQEND
8
ARKA_MITRE
0
POLYLINE
8
ARKA_MITRE
66
1
70
0
10
0
20
0
30
0
0
VERTEX
8
ARKA_MITRE
10
-3643.539077
20
1614.590478
30
0
0
VERTEX
8
ARKA_MITRE
10
-3628.539077
20
1614.590478
30
0
42
-0.009352
0
VERTEX
8
ARKA_MITRE
10
-3627.959435
20
1629.5784
30
0
0
SEQEND
8
ARKA_MITRE
0
POLYLINE
8
ARKA_MITRE
66
1
70
0
10
0
20
0
30
0
0
VERTEX
8
ARKA_MITRE
10
-3522.253733
20
1878.60391
30
0
42
-0.009352
0
VERTEX
8
ARKA_MITRE
10
-3511.87493
20
1889.432309
30
0
0
VERTEX
8
ARKA_MITRE
10
-3522.481532
20
1900.038911
30
0
0
SEQEND
8
ARKA_MITRE
0
POLYLINE
8
ARKA_MITRE
66
1
70
0
10
0
20
0
30
0
0
VERTEX
8
ARKA_MITRE
10
-3636.326008
20
2013.883387
30
0
0
VERTEX
8
ARKA_MITRE
10
-3646.93261
20
2024.489989
30
0
42
0.006335
0
VERTEX
8
ARKA_MITRE
10
-3657.385553
20
2013.732483
30
0
0
SEQEND
8
ARKA_MITRE
0
POLYLINE
8
ARKA_MITRE
66
1
70
0
10
0
20
0
30
0
0
VERTEX
8
ARKA_MITRE
10
-3625.956131
20
1629.578278
30
0
42
0.009399
0
VERTEX
8
ARKA_MITRE
10
-3626.538677
20
1614.590478
30
0
0
VERTEX
8
ARKA_MITRE
10
-3611.538677
20
1614.590478
30
0
0
SEQEND
8
ARKA_MITRE
0
POLYLINE
8
ARKA_MITRE
66
1
70
0
10
0
20
0
30
0
0
VERTEX
8
ARKA_MITRE
10
-3443.459619
20
1614.590478
30
0
0
VERTEX
8
ARKA_MITRE
10
-3428.459619
20
1614.590478
30
0
42
-0.018659
0
VERTEX
8
ARKA_MITRE
10
-3427.304159
20
1629.542418
30
0
0
SEQEND
8
ARKA_MITRE
0
POLYLINE
8
ARKA_MITRE
66
1
70
0
10
0
20
0
30
0
0
VERTEX
8
ARKA_MITRE
10
-3380.599056
20
1736.967115
30
0
42
-0.018659
0
VERTEX
8
ARKA_MITRE
10
-3370.452697
20
1748.010076
30
0
0
VERTEX
8
ARKA_MITRE
10
-3381.059298
20
1758.616677
30
0
0
SEQEND
8
ARKA_MITRE
0
POLYLINE
8
ARKA_MITRE
66
1
70
0
10
0
20
0
30
0
0
VERTEX
8
ARKA_MITRE
10
-3499.85411
20
1877.411489
30
0
0
VERTEX
8
ARKA_MITRE
10
-3510.460712
20
1888.018091
30
0
42
0.009399
0
VERTEX
8
ARKA_MITRE
10
-3520.838358
20
1877.188596
30
0
0
SEQEND
8
ARKA_MITRE
0
POLYLINE
8
ARKA_MITRE
66
1
70
0
10
0
20
0
30
0
0
VERTEX
8
ARKA_MITRE
10
-3425.29097
20
1629.541448
30
0
42
0.018846
0
VERTEX
8
ARKA_MITRE
10
-3426.458017
20
1614.590478
30
0
0
VERTEX
8
ARKA_MITRE
10
-3411.458017
20
1614.590478
30
0
0
SEQEND
8
ARKA_MITRE
0
POLYLINE
8
ARKA_MITRE
66
1
70
0
10
0
20
0
30
0
0
VERTEX
8
ARKA_MITRE
10
-3243.618886
20
1614.590478
30
0
0
VERTEX
8
ARKA_MITRE
10
-3228.618886
20
1614.590478
30
0
0
VERTEX
8
ARKA_MITRE
10
-3228.618886
20
1629.590478
30
0
0
SEQEND
8
ARKA_MITRE
0
POLYLINE
8
ARKA_MITRE
66
1
70
0
10
0
20
0
30
0
0
VERTEX
8
ARKA_MITRE
10
-3228.618886
20
1790.587966
30
0
0
VERTEX
8
ARKA_MITRE
10
-3228.618886
20
1805.587966
30
0
42
0.018846
0
VERTEX
8
ARKA_MITRE
10
-3243.601657
20
1804.947608
30
0
0
SEQEND
8
ARKA_MITRE
0
POLYLINE
8
ARKA_MITRE
66
1
70
0
10
0
20
0
30
0
0
VERTEX
8
ARKA_MITRE
10
-3228.618886
20
2183.589634
30
0
0
VERTEX
8
ARKA_MITRE
10
-3228.618886
20
2198.589634
30
0
42
0.006335
0
VERTEX
8
ARKA_MITRE
10
-3243.616938
20
2198.374275
30
0
0
SEQEND
8
ARKA_MITRE
0
POLYLINE
8
ARKA_MITRE
66
1
70
0
10
0
20
0
30
0
0
VERTEX
8
ARKA_MITRE
10
-3634.76089
20
2036.357146
30
0
42
0.006335
0
VERTEX
8
ARKA_MITRE
10
-3645.518396
20
2025.904202
30
0
0
VERTEX
8
ARKA_MITRE
10
-3634.911795
20
2015.297601
30
0
0
SEQEND
8
ARKA_MITRE
0
POLYLINE
8
ARKA_MITRE
66
1
70
0
10
0
20
0
30
0
0
VERTEX
8
ARKA_MITRE
10
-3521.067318
20
1901.453124
30
0
0
VERTEX
8
ARKA_MITRE
10
-3510.460717
20
1890.846523
30
0
42
-0.009352
0
VERTEX
8
ARKA_MITRE
10
-3499.632318
20
1901.225325
30
0
0
SEQEND
8
ARKA_MITRE
0
POLYLINE
8
ARKA_MITRE
66
1
70
0
10
0
20
0
30
0
0
VERTEX
8
ARKA_MITRE
10
-3243.614642
20
2007.271319
30
0
42
-0.009352
0
VERTEX
8
ARKA_MITRE
10
-3228.618886
20
2007.589231
30
0
0
VERTEX
8
ARKA_MITRE
10
-3228.618886
20
2022.589231
30
0
0
SEQEND
8
ARKA_MITRE
0
POLYLINE
8
ARKA_MITRE
66
1
70
0
10
0
20
0
30
0
0
VERTEX
8
ARKA_MITRE
10
-3243.601998
20
1806.953998
30
0
42
-0.018659
0
VERTEX
8
ARKA_MITRE
10
-3228.618886
20
1807.587991
30
0
0
VERTEX
8
ARKA_MITRE
10
-3228.618886
20
1822.587991
30
0
0
SEQEND
8
ARKA_MITRE
0
POLYLINE
8
ARKA_MITRE
66
1
70
0
10
0
20
0
30
0
0
VERTEX
8
ARKA_MITRE
10
-3228.618886
20
1990.589225
30
0
0
VERTEX
8
ARKA_MITRE
10
-3228.618886
20
2005.589225
30
0
42
0.009399
0
VERTEX
8
ARKA_MITRE
10
-3243.614599
20
2005.269719
30
0
0
SEQEND
8
ARKA_MITRE
0
POLYLINE
8
ARKA_MITRE
66
1
70
0
10
0
20
0
30
0
0
VERTEX
8
ARKA_MITRE
10
-3498.217003
20
1899.809951
30
0
42
0.009399
0
VERTEX
8
ARKA_MITRE
10
-3509.046499
20
1889.432305
30
0
0
VERTEX
8
ARKA_MITRE
10
-3498.439897
20
1878.825703
30
0
0
SEQEND
8
ARKA_MITRE
0
POLYLINE
8
ARKA_MITRE
66
1
70
0
10
0
20
0
30
0
0
VERTEX
8
ARKA_MITRE
10
-3379.645085
20
1760.030891
30
0
0
VERTEX
8
ARKA_MITRE
10
-3369.038483
20
1749.424289
30
0
42
-0.018659
0
VERTEX
8
ARKA_MITRE
10
-3357.995522
20
1759.570649
30
0
0
SEQEND
8
ARKA_MITRE
0
POINT
8
ARKA_CENTRE
10
-3227.618886
20
1606.590478
30
0
0
POLYLINE
8
ARKA_SECTION
66
1
70
0
10
0
20
0
30
0
0
VERTEX
8
ARKA_SECTION
10
-3120.618886
20
1606.590478
30
0
42
-0.414214
0
VERTEX
8
ARKA_SECTION
10
-3112.618886
20
1614.590478
30
0
0
VERTEX
8
ARKA_SECTION
10
-3112.618886
20
1620.590478
30
0
0
SEQEND
8
ARKA_SECTION
0
TEXT
8
ARKA_INFO_NO_CUT
10
-3124.618886
20
1587.590478
30
0
40
15
1
START
72
0
11
-3124.618886
21
1587.590478
31
0
73
0
0
TEXT
8
ARKA_INFO_NO_CUT
10
-3100.618886
20
1610.590478
30
0
40
15
1
SECTION R8 + 6 (VERBATIM)
72
0
11
-3100.618886
21
1610.590478
31
0
73
0
0
TEXT
8
ARKA_INFO_NO_CUT
10
-3120.618886
20
2184.590478
30
0
40
15
1
DWG - TRACERY QUADRANT (LEFT HALF - MIRROR FOR THE RIGHT)
72
0
11
-3120.618886
21
2184.590478
31
0
73
0
0
TEXT
8
ARKA_INFO_NO_CUT
10
-3120.618886
20
2162.590478
30
0
40
15
1
PATTERN QUAD-HUB-SPOKE SPOKES 5 RINGS 2 PANES 5
72
0
11
-3120.618886
21
2162.590478
31
0
73
0
0
TEXT
8
ARKA_INFO_NO_CUT
10
-3120.618886
20
2140.590478
30
0
40
15
1
TIMBER BAR 22 EDGE MARGIN 18 PANE +2 LIMIT +10 MITRE LEG 15
72
0
11
-3120.618886
21
2140.590478
31
0
73
0
0
TEXT
8
ARKA_INFO_NO_CUT
10
-3120.618886
20
2118.590478
30
0
40
15
1
ARKA_PANE = MOULDING RAIL (INNER EDGE OF THE BEAD), ARKA_FRONT_HINGES_3MM = BEAD LIMIT (NOT DRILLING)
72
0
11
-3120.618886
21
2118.590478
31
0
73
0
0
TEXT
8
ARKA_INFO_NO_CUT
10
-3120.618886
20
2096.590478
30
0
40
15
1
NOT A TOOLPATH
72
0
11
-3120.618886
21
2096.590478
31
0
73
0
0
ENDSEC
0
EOF
