0
SECTION
2
HEADER
9
$ACADVER
1
AC1009
0
ENDSEC
0
SECTION
2
TABLES
0
TABLE
2
LAYER
70
6
0
LAYER
2
0
70
0
62
7
6
CONTINUOUS
0
LAYER
2
GLASS_CONTOUR
70
0
62
7
6
CONTINUOUS
0
LAYER
2
GLASS_EDGE
70
0
62
8
6
CONTINUOUS
0
LAYER
2
GLASS_BARS
70
0
62
3
6
CONTINUOUS
0
LAYER
2
GLASS_BAR_AXES
70
0
62
4
6
CONTINUOUS
0
LAYER
2
GLASS_TEXT
70
0
62
2
6
CONTINUOUS
0
ENDTAB
0
ENDSEC
0
SECTION
2
ENTITIES
0
POLYLINE
8
GLASS_CONTOUR
66
1
70
1
10
0
20
0
30
0
0
VERTEX
8
GLASS_CONTOUR
10
0
20
0
30
0
0
VERTEX
8
GLASS_CONTOUR
10
811
20
0
30
0
0
VERTEX
8
GLASS_CONTOUR
10
811
20
898.5
30
0
42
1
0
VERTEX
8
GLASS_CONTOUR
10
0
20
898.5
30
0
0
SEQEND
8
GLASS_CONTOUR
0
POLYLINE
8
GLASS_EDGE
66
1
70
1
10
0
20
0
30
0
0
VERTEX
8
GLASS_EDGE
10
11
20
11
30
0
0
VERTEX
8
GLASS_EDGE
10
800
20
11
30
0
0
VERTEX
8
GLASS_EDGE
10
800
20
898.5
30
0
42
1
0
VERTEX
8
GLASS_EDGE
10
11
20
898.5
30
0
0
SEQEND
8
GLASS_EDGE
0
POLYLINE
8
GLASS_BAR_AXES
66
1
70
0
10
0
20
0
30
0
0
VERTEX
8
GLASS_BAR_AXES
10
527.15
20
898.5
30
0
42
1
0
VERTEX
8
GLASS_BAR_AXES
10
283.85
20
898.5
30
0
0
SEQEND
8
GLASS_BAR_AXES
0
POLYLINE
8
GLASS_BARS
66
1
70
0
10
0
20
0
30
0
0
VERTEX
8
GLASS_BARS
10
536.15
20
898.5
30
0
42
1
0
VERTEX
8
GLASS_BARS
10
274.85
20
898.5
30
0
0
SEQEND
8
GLASS_BARS
0
POLYLINE
8
GLASS_BARS
66
1
70
0
10
0
20
0
30
0
0
VERTEX
8
GLASS_BARS
10
518.15
20
898.5
30
0
42
1
0
VERTEX
8
GLASS_BARS
10
292.85
20
898.5
30
0
0
SEQEND
8
GLASS_BARS
0
POLYLINE
8
GLASS_BAR_AXES
66
1
70
0
10
0
20
0
30
0
0
VERTEX
8
GLASS_BAR_AXES
10
527.15
20
898.5
30
0
0
VERTEX
8
GLASS_BAR_AXES
10
811
20
898.5
30
0
0
SEQEND
8
GLASS_BAR_AXES
0
POLYLINE
8
GLASS_BARS
66
1
70
0
10
0
20
0
30
0
0
VERTEX
8
GLASS_BARS
10
527.15
20
907.5
30
0
0
VERTEX
8
GLASS_BARS
10
811
20
907.5
30
0
0
SEQEND
8
GLASS_BARS
0
POLYLINE
8
GLASS_BARS
66
1
70
0
10
0
20
0
30
0
0
VERTEX
8
GLASS_BARS
10
527.15
20
889.5
30
0
0
VERTEX
8
GLASS_BARS
10
811
20
889.5
30
0
0
SEQEND
8
GLASS_BARS
0
POLYLINE
8
GLASS_BAR_AXES
66
1
70
0
10
0
20
0
30
0
0
VERTEX
8
GLASS_BAR_AXES
10
466.325
20
1003.85199
30
0
0
VERTEX
8
GLASS_BAR_AXES
10
608.25
20
1249.673301
30
0
0
SEQEND
8
GLASS_BAR_AXES
0
POLYLINE
8
GLASS_BARS
66
1
70
0
10
0
20
0
30
0
0
VERTEX
8
GLASS_BARS
10
458.530771
20
1008.35199
30
0
0
VERTEX
8
GLASS_BARS
10
600.455771
20
1254.173301
30
0
0
SEQEND
8
GLASS_BARS
0
POLYLINE
8
GLASS_BARS
66
1
70
0
10
0
20
0
30
0
0
VERTEX
8
GLASS_BARS
10
474.119229
20
999.35199
30
0
0
VERTEX
8
GLASS_BARS
10
616.044229
20
1245.173301
30
0
0
SEQEND
8
GLASS_BARS
0
POLYLINE
8
GLASS_BAR_AXES
66
1
70
0
10
0
20
0
30
0
0
VERTEX
8
GLASS_BAR_AXES
10
344.675
20
1003.85199
30
0
0
VERTEX
8
GLASS_BAR_AXES
10
202.75
20
1249.673301
30
0
0
SEQEND
8
GLASS_BAR_AXES
0
POLYLINE
8
GLASS_BARS
66
1
70
0
10
0
20
0
30
0
0
VERTEX
8
GLASS_BARS
10
336.880771
20
999.35199
30
0
0
VERTEX
8
GLASS_BARS
10
194.955771
20
1245.173301
30
0
0
SEQEND
8
GLASS_BARS
0
POLYLINE
8
GLASS_BARS
66
1
70
0
10
0
20
0
30
0
0
VERTEX
8
GLASS_BARS
10
352.469229
20
1008.35199
30
0
0
VERTEX
8
GLASS_BARS
10
210.544229
20
1254.173301
30
0
0
SEQEND
8
GLASS_BARS
0
POLYLINE
8
GLASS_BAR_AXES
66
1
70
0
10
0
20
0
30
0
0
VERTEX
8
GLASS_BAR_AXES
10
283.85
20
898.5
30
0
0
VERTEX
8
GLASS_BAR_AXES
10
0
20
898.5
30
0
0
SEQEND
8
GLASS_BAR_AXES
0
POLYLINE
8
GLASS_BARS
66
1
70
0
10
0
20
0
30
0
0
VERTEX
8
GLASS_BARS
10
283.85
20
889.5
30
0
0
VERTEX
8
GLASS_BARS
10
0
20
889.5
30
0
0
SEQEND
8
GLASS_BARS
0
POLYLINE
8
GLASS_BARS
66
1
70
0
10
0
20
0
30
0
0
VERTEX
8
GLASS_BARS
10
283.85
20
907.5
30
0
0
VERTEX
8
GLASS_BARS
10
0
20
907.5
30
0
0
SEQEND
8
GLASS_BARS
0
POLYLINE
8
GLASS_BAR_AXES
66
1
70
0
10
0
20
0
30
0
0
VERTEX
8
GLASS_BAR_AXES
10
283.85
20
0
30
0
0
VERTEX
8
GLASS_BAR_AXES
10
283.85
20
898.5
30
0
0
SEQEND
8
GLASS_BAR_AXES
0
POLYLINE
8
GLASS_BARS
66
1
70
0
10
0
20
0
30
0
0
VERTEX
8
GLASS_BARS
10
274.85
20
0
30
0
0
VERTEX
8
GLASS_BARS
10
274.85
20
898.5
30
0
0
SEQEND
8
GLASS_BARS
0
POLYLINE
8
GLASS_BARS
66
1
70
0
10
0
20
0
30
0
0
VERTEX
8
GLASS_BARS
10
292.85
20
0
30
0
0
VERTEX
8
GLASS_BARS
10
292.85
20
898.5
30
0
0
SEQEND
8
GLASS_BARS
0
POLYLINE
8
GLASS_BAR_AXES
66
1
70
0
10
0
20
0
30
0
0
VERTEX
8
GLASS_BAR_AXES
10
527.15
20
0
30
0
0
VERTEX
8
GLASS_BAR_AXES
10
527.15
20
898.5
30
0
0
SEQEND
8
GLASS_BAR_AXES
0
POLYLINE
8
GLASS_BARS
66
1
70
0
10
0
20
0
30
0
0
VERTEX
8
GLASS_BARS
10
518.15
20
0
30
0
0
VERTEX
8
GLASS_BARS
10
518.15
20
898.5
30
0
0
SEQEND
8
GLASS_BARS
0
POLYLINE
8
GLASS_BARS
66
1
70
0
10
0
20
0
30
0
0
VERTEX
8
GLASS_BARS
10
536.15
20
0
30
0
0
VERTEX
8
GLASS_BARS
10
536.15
20
898.5
30
0
0
SEQEND
8
GLASS_BARS
0
TEXT
8
GLASS_TEXT
10
911
20
1285.5
30
0
40
15
1
SC1 - G1 GLASS SEMI-CIRCLE
72
0
11
911
21
1285.5
31
0
73
0
0
TEXT
8
GLASS_TEXT
10
911
20
1263.5
30
0
40
15
1
W811 x H1304 RISE 405.5 SPRINGING 898.5 R 405.5
72
0
11
911
21
1263.5
31
0
73
0
0
TEXT
8
GLASS_TEXT
10
911
20
1241.5
30
0
40
15
1
DOUBLE 4X16X4 TOUGHENED ARGON CLEAR SPACER SILVER
72
0
11
911
21
1241.5
31
0
73
0
0
TEXT
8
GLASS_TEXT
10
911
20
1219.5
30
0
40
15
1
BARS 7 PATTERN HUB-SPOKE TOTAL L=3315
72
0
11
911
21
1219.5
31
0
73
0
0
TEXT
8
GLASS_TEXT
10
911
20
1197.5
30
0
40
15
1
R1 RING C=(405.5,898.5) R=121.7 0-180DEG L=382
72
0
11
911
21
1197.5
31
0
73
0
0
TEXT
8
GLASS_TEXT
10
911
20
1175.5
30
0
40
15
1
S1 SPRINGING Y=898.5 X=527.2-811 L=284
72
0
11
911
21
1175.5
31
0
73
0
0
TEXT
8
GLASS_TEXT
10
911
20
1153.5
30
0
40
15
1
K1 SPOKE (466.3,1003.9)-(608.3,1249.7) L=284
72
0
11
911
21
1153.5
31
0
73
0
0
TEXT
8
GLASS_TEXT
10
911
20
1131.5
30
0
40
15
1
K2 SPOKE (344.7,1003.9)-(202.8,1249.7) L=284
72
0
11
911
21
1131.5
31
0
73
0
0
TEXT
8
GLASS_TEXT
10
911
20
1109.5
30
0
40
15
1
S2 SPRINGING Y=898.5 X=0-283.9 L=284
72
0
11
911
21
1109.5
31
0
73
0
0
TEXT
8
GLASS_TEXT
10
911
20
1087.5
30
0
40
15
1
V1 V X=283.9 Y=0-898.5 L=898.5
72
0
11
911
21
1087.5
31
0
73
0
0
TEXT
8
GLASS_TEXT
10
911
20
1065.5
30
0
40
15
1
V2 V X=527.2 Y=0-898.5 L=898.5
72
0
11
911
21
1065.5
31
0
73
0
0
TEXT
8
GLASS_TEXT
10
911
20
1043.5
30
0
40
15
1
BAR ENDS (TABLE, 7 BARS): ID  S FROM APEX / POSITION  L  ANGLE / R
72
0
11
911
21
1043.5
31
0
73
0
0
TEXT
8
GLASS_TEXT
10
911
20
1021.5
30
0
40
15
1
R1  R 121.7  L=382  C 405.5 / 898.5
72
0
11
911
21
1021.5
31
0
73
0
0
TEXT
8
GLASS_TEXT
10
911
20
999.5
30
0
40
15
1
S1  Y 898.5  L=284  0DEG
72
0
11
911
21
999.5
31
0
73
0
0
TEXT
8
GLASS_TEXT
10
911
20
977.5
30
0
40
15
1
K1  212.3 FROM APEX R  L=284  60DEG
72
0
11
911
21
977.5
31
0
73
0
0
TEXT
8
GLASS_TEXT
10
911
20
955.5
30
0
40
15
1
K2  212.3 FROM APEX L  L=284  120DEG
72
0
11
911
21
955.5
31
0
73
0
0
TEXT
8
GLASS_TEXT
10
911
20
933.5
30
0
40
15
1
S2  Y 898.5  L=284  0DEG
72
0
11
911
21
933.5
31
0
73
0
0
TEXT
8
GLASS_TEXT
10
911
20
911.5
30
0
40
15
1
V1  X 283.9  L=898.5  90DEG
72
0
11
911
21
911.5
31
0
73
0
0
TEXT
8
GLASS_TEXT
10
911
20
889.5
30
0
40
15
1
V2  X 527.2  L=898.5  90DEG
72
0
11
911
21
889.5
31
0
73
0
0
ENDSEC
0
EOF
