0
SECTION
2
HEADER
9
$ACADVER
1
AC1009
0
ENDSEC
0
SECTION
2
TABLES
0
TABLE
2
LAYER
70
8
0
LAYER
2
0
70
0
62
7
6
CONTINUOUS
0
LAYER
2
FIT
70
0
62
4
6
CONTINUOUS
0
LAYER
2
CONTOUR
70
0
62
7
6
CONTINUOUS
0
LAYER
2
ASSEMBLY
70
0
62
8
6
CONTINUOUS
0
LAYER
2
PIECES
70
0
62
5
6
CONTINUOUS
0
LAYER
2
FINGER
70
0
62
1
6
CONTINUOUS
0
LAYER
2
CLAMPS
70
0
62
3
6
CONTINUOUS
0
LAYER
2
TEXT
70
0
62
94
6
CONTINUOUS
0
ENDTAB
0
ENDSEC
0
SECTION
2
ENTITIES
0
POLYLINE
8
PIECES
66
1
70
1
10
0
20
0
30
0
0
VERTEX
8
PIECES
10
637.256351
20
0
30
0
0
VERTEX
8
PIECES
10
103.923048
20
0
30
0
0
VERTEX
8
PIECES
10
0
20
180
30
0
0
VERTEX
8
PIECES
10
637.256351
20
180
30
0
0
SEQEND
8
PIECES
0
POLYLINE
8
CLAMPS
66
1
70
1
10
0
20
0
30
0
0
VERTEX
8
CLAMPS
10
124.489292
20
25
30
0
0
VERTEX
8
CLAMPS
10
254.489292
20
25
30
0
0
VERTEX
8
CLAMPS
10
254.489292
20
155
30
0
0
VERTEX
8
CLAMPS
10
124.489292
20
155
30
0
0
SEQEND
8
CLAMPS
0
POLYLINE
8
CLAMPS
66
1
70
1
10
0
20
0
30
0
0
VERTEX
8
CLAMPS
10
487.256351
20
25
30
0
0
VERTEX
8
CLAMPS
10
617.256351
20
25
30
0
0
VERTEX
8
CLAMPS
10
617.256351
20
155
30
0
0
VERTEX
8
CLAMPS
10
487.256351
20
155
30
0
0
SEQEND
8
CLAMPS
0
TEXT
8
TEXT
10
318.628175
20
100
30
0
40
15
1
T - LEAF TOP P1 L637.3 x180
72
1
11
318.628175
21
100
31
0
73
2
0
TEXT
8
TEXT
10
318.628175
20
10
30
0
40
10
1
OUT 622.3 IN 518.3 CUT J30/Q FINGER ONE END
72
1
11
318.628175
21
10
31
0
73
2
0
POLYLINE
8
PIECES
66
1
70
1
10
0
20
0
30
0
0
VERTEX
8
PIECES
10
1437.846004
20
0
30
0
0
VERTEX
8
PIECES
10
941.179399
20
0
30
0
0
VERTEX
8
PIECES
10
837.256351
20
180
30
0
0
VERTEX
8
PIECES
10
1541.769053
20
180
30
0
0
SEQEND
8
PIECES
0
POLYLINE
8
CLAMPS
66
1
70
1
10
0
20
0
30
0
0
VERTEX
8
CLAMPS
10
961.745643
20
25
30
0
0
VERTEX
8
CLAMPS
10
1091.745643
20
25
30
0
0
VERTEX
8
CLAMPS
10
1091.745643
20
155
30
0
0
VERTEX
8
CLAMPS
10
961.745643
20
155
30
0
0
SEQEND
8
CLAMPS
0
POLYLINE
8
CLAMPS
66
1
70
1
10
0
20
0
30
0
0
VERTEX
8
CLAMPS
10
1287.279761
20
25
30
0
0
VERTEX
8
CLAMPS
10
1417.279761
20
25
30
0
0
VERTEX
8
CLAMPS
10
1417.279761
20
155
30
0
0
VERTEX
8
CLAMPS
10
1287.279761
20
155
30
0
0
SEQEND
8
CLAMPS
0
TEXT
8
TEXT
10
1189.512702
20
100
30
0
40
15
1
T - LEAF TOP P2 L704.5 x180
72
1
11
1189.512702
21
100
31
0
73
2
0
TEXT
8
TEXT
10
1189.512702
20
10
30
0
40
10
1
OUT 674.5 IN 466.7 CUT J30/J30 FINGER BOTH ENDS
72
1
11
1189.512702
21
10
31
0
73
2
0
POLYLINE
8
PIECES
66
1
70
1
10
0
20
0
30
0
0
VERTEX
8
PIECES
10
2275.102355
20
0
30
0
0
VERTEX
8
PIECES
10
1741.769053
20
0
30
0
0
VERTEX
8
PIECES
10
1741.769053
20
180
30
0
0
VERTEX
8
PIECES
10
2379.025404
20
180
30
0
0
SEQEND
8
PIECES
0
POLYLINE
8
CLAMPS
66
1
70
1
10
0
20
0
30
0
0
VERTEX
8
CLAMPS
10
1761.769053
20
25
30
0
0
VERTEX
8
CLAMPS
10
1891.769053
20
25
30
0
0
VERTEX
8
CLAMPS
10
1891.769053
20
155
30
0
0
VERTEX
8
CLAMPS
10
1761.769053
20
155
30
0
0
SEQEND
8
CLAMPS
0
POLYLINE
8
CLAMPS
66
1
70
1
10
0
20
0
30
0
0
VERTEX
8
CLAMPS
10
2124.536112
20
25
30
0
0
VERTEX
8
CLAMPS
10
2254.536112
20
25
30
0
0
VERTEX
8
CLAMPS
10
2254.536112
20
155
30
0
0
VERTEX
8
CLAMPS
10
2124.536112
20
155
30
0
0
SEQEND
8
CLAMPS
0
TEXT
8
TEXT
10
2060.397228
20
100
30
0
40
15
1
T - LEAF TOP P3 L637.3 x180
72
1
11
2060.397228
21
100
31
0
73
2
0
TEXT
8
TEXT
10
2060.397228
20
10
30
0
40
10
1
OUT 622.3 IN 518.3 CUT Q/J30 FINGER ONE END
72
1
11
2060.397228
21
10
31
0
73
2
0
POLYLINE
8
CONTOUR
66
1
70
1
10
0
20
0
30
0
0
VERTEX
8
CONTOUR
10
1208.384526
20
424.744673
30
0
42
1
0
VERTEX
8
CONTOUR
10
88.384526
20
424.744673
30
0
0
VERTEX
8
CONTOUR
10
155.384526
20
424.744673
30
0
42
-1
0
VERTEX
8
CONTOUR
10
1141.384526
20
424.744673
30
0
0
SEQEND
8
CONTOUR
0
POLYLINE
8
ASSEMBLY
66
1
70
1
10
0
20
0
30
0
0
VERTEX
8
ASSEMBLY
10
1140.88448
20
380
30
0
0
VERTEX
8
ASSEMBLY
10
881.717829
20
828.889808
30
0
0
VERTEX
8
ASSEMBLY
10
985.640877
20
1008.889808
30
0
0
VERTEX
8
ASSEMBLY
10
1296.769053
20
470
30
0
0
SEQEND
8
ASSEMBLY
0
POLYLINE
8
FINGER
66
1
70
0
10
0
20
0
30
0
0
VERTEX
8
FINGER
10
894.884526
20
851.695197
30
0
0
VERTEX
8
FINGER
10
928.384526
20
909.718899
30
0
0
SEQEND
8
FINGER
0
POLYLINE
8
ASSEMBLY
66
1
70
1
10
0
20
0
30
0
0
VERTEX
8
ASSEMBLY
10
881.717829
20
828.889808
30
0
0
VERTEX
8
ASSEMBLY
10
415.051224
20
828.889808
30
0
0
VERTEX
8
ASSEMBLY
10
311.128175
20
1008.889808
30
0
0
VERTEX
8
ASSEMBLY
10
985.640877
20
1008.889808
30
0
0
SEQEND
8
ASSEMBLY
0
POLYLINE
8
FINGER
66
1
70
0
10
0
20
0
30
0
0
VERTEX
8
FINGER
10
401.884526
20
851.695197
30
0
0
VERTEX
8
FINGER
10
368.384526
20
909.718899
30
0
0
SEQEND
8
FINGER
0
POLYLINE
8
ASSEMBLY
66
1
70
1
10
0
20
0
30
0
0
VERTEX
8
ASSEMBLY
10
415.051224
20
828.889808
30
0
0
VERTEX
8
ASSEMBLY
10
155.884573
20
380
30
0
0
VERTEX
8
ASSEMBLY
10
0
20
470
30
0
0
VERTEX
8
ASSEMBLY
10
311.128175
20
1008.889808
30
0
0
SEQEND
8
ASSEMBLY
0
TEXT
8
TEXT
10
1396.769053
20
990.389808
30
0
40
15
1
T - LEAF TOP
72
0
11
1396.769053
21
990.389808
31
0
73
0
0
TEXT
8
TEXT
10
1396.769053
20
968.389808
30
0
40
15
1
SEMI-CIRCLE W1200 RISE600 H2000 HINGE R
72
0
11
1396.769053
21
968.389808
31
0
73
0
0
TEXT
8
TEXT
10
1396.769053
20
946.389808
30
0
40
15
1
FACE 67 OFFSET 40 OUTER L1759.3 INNER L1548.8
72
0
11
1396.769053
21
946.389808
31
0
73
0
0
TEXT
8
TEXT
10
1396.769053
20
924.389808
30
0
40
15
1
CHAIN R560 L1759.3 180DEG: FEWEST 3 x board 180 L674.5 ROUGH 704.5 WASTE 60%
72
0
11
1396.769053
21
924.389808
31
0
73
0
0
TEXT
8
TEXT
10
1396.769053
20
902.389808
30
0
40
15
1
  NO ECONOMY ALT WITHIN 6 PIECES -> DEFAULT FEWEST
72
0
11
1396.769053
21
902.389808
31
0
73
0
0
TEXT
8
TEXT
10
1396.769053
20
880.389808
30
0
40
15
1
FINGER 15/16/3.8
72
0
11
1396.769053
21
880.389808
31
0
73
0
0
TEXT
8
TEXT
10
1396.769053
20
858.389808
30
0
40
15
1
ALLOWANCE 10 PER SIDE  LIMITS: OVERALL >= 450 (CLAMP)  SHORTER EDGE >= 400  STOCK MAX 200
72
0
11
1396.769053
21
858.389808
31
0
73
0
0
TEXT
8
TEXT
10
1396.769053
20
836.389808
30
0
40
15
1
CLAMPS (SUGGESTION): UNICLAMP 130 x 130, CLEARANCE 20 FROM THE END CUTS, JAWS 40-98, PIECE THICKNESS 57
72
0
11
1396.769053
21
836.389808
31
0
73
0
0
TEXT
8
TEXT
10
1396.769053
20
814.389808
30
0
40
15
1
CUT CODES: J = JOINT FROM SQUARE  Q = SQUARE (SPRINGING FACE ROUTED WITH THE CONTOUR)  A = APEX FROM SQUARE
72
0
11
1396.769053
21
814.389808
31
0
73
0
0
POLYLINE
8
PIECES
66
1
70
1
10
0
20
0
30
0
0
VERTEX
8
PIECES
10
501.609979
20
1208.889808
30
0
0
VERTEX
8
PIECES
10
49.705627
20
1208.889808
30
0
0
VERTEX
8
PIECES
10
0
20
1328.889808
30
0
0
VERTEX
8
PIECES
10
501.609979
20
1328.889808
30
0
0
SEQEND
8
PIECES
0
POLYLINE
8
CLAMPS
66
1
70
1
10
0
20
0
30
0
0
VERTEX
8
CLAMPS
10
86.776695
20
1203.889808
30
0
0
VERTEX
8
CLAMPS
10
216.776695
20
1203.889808
30
0
0
VERTEX
8
CLAMPS
10
216.776695
20
1333.889808
30
0
0
VERTEX
8
CLAMPS
10
86.776695
20
1333.889808
30
0
0
SEQEND
8
CLAMPS
0
POLYLINE
8
CLAMPS
66
1
70
1
10
0
20
0
30
0
0
VERTEX
8
CLAMPS
10
351.609979
20
1203.889808
30
0
0
VERTEX
8
CLAMPS
10
481.609979
20
1203.889808
30
0
0
VERTEX
8
CLAMPS
10
481.609979
20
1333.889808
30
0
0
VERTEX
8
CLAMPS
10
351.609979
20
1333.889808
30
0
0
SEQEND
8
CLAMPS
0
TEXT
8
TEXT
10
250.804989
20
1278.889808
30
0
40
15
1
T - FRAME HEAD P1 L501.6 x120
72
1
11
250.804989
21
1278.889808
31
0
73
2
0
TEXT
8
TEXT
10
250.804989
20
1218.889808
30
0
40
10
1
OUT 486.6 IN 436.9 CUT J22.5/Q FINGER ONE END
72
1
11
250.804989
21
1218.889808
31
0
73
2
0
POLYLINE
8
PIECES
66
1
70
1
10
0
20
0
30
0
0
VERTEX
8
PIECES
10
1188.250521
20
1208.889808
30
0
0
VERTEX
8
PIECES
10
751.315606
20
1208.889808
30
0
0
VERTEX
8
PIECES
10
701.609979
20
1328.889808
30
0
0
VERTEX
8
PIECES
10
1237.956149
20
1328.889808
30
0
0
SEQEND
8
PIECES
0
POLYLINE
8
CLAMPS
66
1
70
1
10
0
20
0
30
0
0
VERTEX
8
CLAMPS
10
788.386674
20
1203.889808
30
0
0
VERTEX
8
CLAMPS
10
918.386674
20
1203.889808
30
0
0
VERTEX
8
CLAMPS
10
918.386674
20
1333.889808
30
0
0
VERTEX
8
CLAMPS
10
788.386674
20
1333.889808
30
0
0
SEQEND
8
CLAMPS
0
POLYLINE
8
CLAMPS
66
1
70
1
10
0
20
0
30
0
0
VERTEX
8
CLAMPS
10
1021.179453
20
1203.889808
30
0
0
VERTEX
8
CLAMPS
10
1151.179453
20
1203.889808
30
0
0
VERTEX
8
CLAMPS
10
1151.179453
20
1333.889808
30
0
0
VERTEX
8
CLAMPS
10
1021.179453
20
1333.889808
30
0
0
SEQEND
8
CLAMPS
0
TEXT
8
TEXT
10
969.783064
20
1278.889808
30
0
40
15
1
T - FRAME HEAD P2 L536.3 x120
72
1
11
969.783064
21
1278.889808
31
0
73
2
0
TEXT
8
TEXT
10
969.783064
20
1218.889808
30
0
40
10
1
OUT 506.3 IN 406.9 CUT J22.5/J22.5 FINGER BOTH ENDS
72
1
11
969.783064
21
1218.889808
31
0
73
2
0
POLYLINE
8
PIECES
66
1
70
1
10
0
20
0
30
0
0
VERTEX
8
PIECES
10
1924.596691
20
1208.889808
30
0
0
VERTEX
8
PIECES
10
1487.661776
20
1208.889808
30
0
0
VERTEX
8
PIECES
10
1437.956149
20
1328.889808
30
0
0
VERTEX
8
PIECES
10
1974.302319
20
1328.889808
30
0
0
SEQEND
8
PIECES
0
POLYLINE
8
CLAMPS
66
1
70
1
10
0
20
0
30
0
0
VERTEX
8
CLAMPS
10
1524.732844
20
1203.889808
30
0
0
VERTEX
8
CLAMPS
10
1654.732844
20
1203.889808
30
0
0
VERTEX
8
CLAMPS
10
1654.732844
20
1333.889808
30
0
0
VERTEX
8
CLAMPS
10
1524.732844
20
1333.889808
30
0
0
SEQEND
8
CLAMPS
0
POLYLINE
8
CLAMPS
66
1
70
1
10
0
20
0
30
0
0
VERTEX
8
CLAMPS
10
1757.525623
20
1203.889808
30
0
0
VERTEX
8
CLAMPS
10
1887.525623
20
1203.889808
30
0
0
VERTEX
8
CLAMPS
10
1887.525623
20
1333.889808
30
0
0
VERTEX
8
CLAMPS
10
1757.525623
20
1333.889808
30
0
0
SEQEND
8
CLAMPS
0
TEXT
8
TEXT
10
1706.129234
20
1278.889808
30
0
40
15
1
T - FRAME HEAD P3 L536.3 x120
72
1
11
1706.129234
21
1278.889808
31
0
73
2
0
TEXT
8
TEXT
10
1706.129234
20
1218.889808
30
0
40
10
1
OUT 506.3 IN 406.9 CUT J22.5/J22.5 FINGER BOTH ENDS
72
1
11
1706.129234
21
1218.889808
31
0
73
2
0
POLYLINE
8
PIECES
66
1
70
1
10
0
20
0
30
0
0
VERTEX
8
PIECES
10
2626.20667
20
1208.889808
30
0
0
VERTEX
8
PIECES
10
2174.302319
20
1208.889808
30
0
0
VERTEX
8
PIECES
10
2174.302319
20
1328.889808
30
0
0
VERTEX
8
PIECES
10
2675.912297
20
1328.889808
30
0
0
SEQEND
8
PIECES
0
POLYLINE
8
CLAMPS
66
1
70
1
10
0
20
0
30
0
0
VERTEX
8
CLAMPS
10
2194.302319
20
1203.889808
30
0
0
VERTEX
8
CLAMPS
10
2324.302319
20
1203.889808
30
0
0
VERTEX
8
CLAMPS
10
2324.302319
20
1333.889808
30
0
0
VERTEX
8
CLAMPS
10
2194.302319
20
1333.889808
30
0
0
SEQEND
8
CLAMPS
0
POLYLINE
8
CLAMPS
66
1
70
1
10
0
20
0
30
0
0
VERTEX
8
CLAMPS
10
2459.135602
20
1203.889808
30
0
0
VERTEX
8
CLAMPS
10
2589.135602
20
1203.889808
30
0
0
VERTEX
8
CLAMPS
10
2589.135602
20
1333.889808
30
0
0
VERTEX
8
CLAMPS
10
2459.135602
20
1333.889808
30
0
0
SEQEND
8
CLAMPS
0
TEXT
8
TEXT
10
2425.107308
20
1278.889808
30
0
40
15
1
T - FRAME HEAD P4 L501.6 x120
72
1
11
2425.107308
21
1278.889808
31
0
73
2
0
TEXT
8
TEXT
10
2425.107308
20
1218.889808
30
0
40
10
1
OUT 486.6 IN 436.9 CUT Q/J22.5 FINGER ONE END
72
1
11
2425.107308
21
1218.889808
31
0
73
2
0
POLYLINE
8
CONTOUR
66
1
70
1
10
0
20
0
30
0
0
VERTEX
8
CONTOUR
10
1254.02044
20
1556.577956
30
0
42
1
0
VERTEX
8
CONTOUR
10
54.02044
20
1556.577956
30
0
0
VERTEX
8
CONTOUR
10
111.02044
20
1556.577956
30
0
42
-1
0
VERTEX
8
CONTOUR
10
1197.02044
20
1556.577956
30
0
0
SEQEND
8
CONTOUR
0
POLYLINE
8
ASSEMBLY
66
1
70
1
10
0
20
0
30
0
0
VERTEX
8
ASSEMBLY
10
1197.175335
20
1528.889808
30
0
0
VERTEX
8
ASSEMBLY
10
1029.979279
20
1932.536795
30
0
0
VERTEX
8
ASSEMBLY
10
1121.823303
20
2024.380819
30
0
0
VERTEX
8
ASSEMBLY
10
1308.040879
20
1574.811819
30
0
0
SEQEND
8
ASSEMBLY
0
POLYLINE
8
FINGER
66
1
70
0
10
0
20
0
30
0
0
VERTEX
8
FINGER
10
1037.979422
20
1940.536939
30
0
0
VERTEX
8
FINGER
10
1078.284508
20
1980.842025
30
0
0
SEQEND
8
FINGER
0
POLYLINE
8
ASSEMBLY
66
1
70
1
10
0
20
0
30
0
0
VERTEX
8
ASSEMBLY
10
1029.979279
20
1932.536795
30
0
0
VERTEX
8
ASSEMBLY
10
654.02044
20
2088.264045
30
0
0
VERTEX
8
ASSEMBLY
10
654.02044
20
2218.151109
30
0
0
VERTEX
8
ASSEMBLY
10
1121.823303
20
2024.380819
30
0
0
SEQEND
8
ASSEMBLY
0
POLYLINE
8
FINGER
66
1
70
0
10
0
20
0
30
0
0
VERTEX
8
FINGER
10
654.02044
20
2099.577956
30
0
0
VERTEX
8
FINGER
10
654.02044
20
2156.577956
30
0
0
SEQEND
8
FINGER
0
POLYLINE
8
ASSEMBLY
66
1
70
1
10
0
20
0
30
0
0
VERTEX
8
ASSEMBLY
10
654.02044
20
2088.264045
30
0
0
VERTEX
8
ASSEMBLY
10
278.061601
20
1932.536795
30
0
0
VERTEX
8
ASSEMBLY
10
186.217577
20
2024.380819
30
0
0
VERTEX
8
ASSEMBLY
10
654.02044
20
2218.151109
30
0
0
SEQEND
8
ASSEMBLY
0
POLYLINE
8
FINGER
66
1
70
0
10
0
20
0
30
0
0
VERTEX
8
FINGER
10
270.061458
20
1940.536939
30
0
0
VERTEX
8
FINGER
10
229.756371
20
1980.842025
30
0
0
SEQEND
8
FINGER
0
POLYLINE
8
ASSEMBLY
66
1
70
1
10
0
20
0
30
0
0
VERTEX
8
ASSEMBLY
10
278.061601
20
1932.536795
30
0
0
VERTEX
8
ASSEMBLY
10
110.865544
20
1528.889808
30
0
0
VERTEX
8
ASSEMBLY
10
0
20
1574.811819
30
0
0
VERTEX
8
ASSEMBLY
10
186.217577
20
2024.380819
30
0
0
SEQEND
8
ASSEMBLY
0
TEXT
8
TEXT
10
1408.040879
20
2199.651109
30
0
40
15
1
T - FRAME HEAD
72
0
11
1408.040879
21
2199.651109
31
0
73
0
0
TEXT
8
TEXT
10
1408.040879
20
2177.651109
30
0
40
15
1
SEMI-CIRCLE W1200 RISE600 H2000 HINGE R
72
0
11
1408.040879
21
2177.651109
31
0
73
0
0
TEXT
8
TEXT
10
1408.040879
20
2155.651109
30
0
40
15
1
FACE 57 OFFSET 0 OUTER L1885 INNER L1705.9
72
0
11
1408.040879
21
2155.651109
31
0
73
0
0
TEXT
8
TEXT
10
1408.040879
20
2133.651109
30
0
40
15
1
CHAIN R600 L1885 180DEG: FEWEST 3 x board 150 L705.3 ROUGH 735.3 WASTE 56%
72
0
11
1408.040879
21
2133.651109
31
0
73
0
0
TEXT
8
TEXT
10
1408.040879
20
2111.651109
30
0
40
15
1
  ECONOMY ALT 4 x board 120 L506.3 ROUGH 536.3 WASTE 45% -> DEFAULT ECONOMY (THRESHOLD 45%)
72
0
11
1408.040879
21
2111.651109
31
0
73
0
0
TEXT
8
TEXT
10
1408.040879
20
2089.651109
30
0
40
15
1
FINGER 15/16/3.8
72
0
11
1408.040879
21
2089.651109
31
0
73
0
0
TEXT
8
TEXT
10
1408.040879
20
2067.651109
30
0
40
15
1
ALLOWANCE 10 PER SIDE  LIMITS: OVERALL >= 450 (CLAMP)  SHORTER EDGE >= 400  STOCK MAX 200
72
0
11
1408.040879
21
2067.651109
31
0
73
0
0
TEXT
8
TEXT
10
1408.040879
20
2045.651109
30
0
40
15
1
CLAMPS (SUGGESTION): UNICLAMP 130 x 130, CLEARANCE 20 FROM THE END CUTS, JAWS 40-98, PIECE THICKNESS 93
72
0
11
1408.040879
21
2045.651109
31
0
73
0
0
TEXT
8
TEXT
10
1408.040879
20
2023.651109
30
0
40
15
1
CUT CODES: J = JOINT FROM SQUARE  Q = SQUARE (SPRINGING FACE ROUTED WITH THE CONTOUR)  A = APEX FROM SQUARE
72
0
11
1408.040879
21
2023.651109
31
0
73
0
0
POLYLINE
8
FIT
66
1
70
1
10
0
20
0
30
0
0
VERTEX
8
FIT
10
1200
20
2418.151109
30
0
42
1
0
VERTEX
8
FIT
10
0
20
2418.151109
30
0
0
VERTEX
8
FIT
10
57
20
2418.151109
30
0
42
-1
0
VERTEX
8
FIT
10
1143
20
2418.151109
30
0
0
SEQEND
8
FIT
0
POLYLINE
8
FIT
66
1
70
1
10
0
20
0
30
0
0
VERTEX
8
FIT
10
1160
20
2418.151109
30
0
42
1
0
VERTEX
8
FIT
10
40
20
2418.151109
30
0
0
VERTEX
8
FIT
10
107
20
2418.151109
30
0
42
-1
0
VERTEX
8
FIT
10
1093
20
2418.151109
30
0
0
SEQEND
8
FIT
0
POLYLINE
8
FIT
66
1
70
1
10
0
20
0
30
0
0
VERTEX
8
FIT
10
1105.5
20
2418.151109
30
0
42
1
0
VERTEX
8
FIT
10
94.5
20
2418.151109
30
0
0
SEQEND
8
FIT
0
POLYLINE
8
FIT
66
1
70
0
10
0
20
0
30
0
0
VERTEX
8
FIT
10
1164
20
2418.151109
30
0
42
0.008865
0
VERTEX
8
FIT
10
1163.645427
20
2438.146918
30
0
0
SEQEND
8
FIT
0
POLYLINE
8
FIT
66
1
70
0
10
0
20
0
30
0
0
VERTEX
8
FIT
10
1163.202316
20
2448.136965
30
0
42
0.008865
0
VERTEX
8
FIT
10
1161.785139
20
2468.085641
30
0
0
SEQEND
8
FIT
0
POLYLINE
8
FIT
66
1
70
0
10
0
20
0
30
0
0
VERTEX
8
FIT
10
1160.811519
20
2478.038
30
0
42
0.008865
0
VERTEX
8
FIT
10
1158.335748
20
2497.883116
30
0
0
SEQEND
8
FIT
0
POLYLINE
8
FIT
66
1
70
0
10
0
20
0
30
0
0
VERTEX
8
FIT
10
1156.834374
20
2507.769635
30
0
42
0.008865
0
VERTEX
8
FIT
10
1153.30701
20
2527.455056
30
0
0
SEQEND
8
FIT
0
POLYLINE
8
FIT
66
1
70
0
10
0
20
0
30
0
0
VERTEX
8
FIT
10
1151.282129
20
2537.247769
30
0
42
0.008865
0
VERTEX
8
FIT
10
1146.713151
20
2556.717811
30
0
0
SEQEND
8
FIT
0
POLYLINE
8
FIT
66
1
70
0
10
0
20
0
30
0
0
VERTEX
8
FIT
10
1144.17049
20
2566.389019
30
0
42
0.008865
0
VERTEX
8
FIT
10
1138.572822
20
2585.588607
30
0
0
SEQEND
8
FIT
0
POLYLINE
8
FIT
66
1
70
0
10
0
20
0
30
0
0
VERTEX
8
FIT
10
1135.519574
20
2595.110952
30
0
42
0.008865
0
VERTEX
8
FIT
10
1128.909049
20
2613.985778
30
0
0
SEQEND
8
FIT
0
POLYLINE
8
FIT
66
1
70
0
10
0
20
0
30
0
0
VERTEX
8
FIT
10
1125.353851
20
2623.332325
30
0
42
0.008865
0
VERTEX
8
FIT
10
1117.749169
20
2641.828998
30
0
0
SEQEND
8
FIT
0
POLYLINE
8
FIT
66
1
70
0
10
0
20
0
30
0
0
VERTEX
8
FIT
10
1113.702076
20
2650.973309
30
0
42
0.008865
0
VERTEX
8
FIT
10
1105.124749
20
2669.039508
30
0
0
SEQEND
8
FIT
0
POLYLINE
8
FIT
66
1
70
0
10
0
20
0
30
0
0
VERTEX
8
FIT
10
1100.59721
20
2677.955716
30
0
42
0.008865
0
VERTEX
8
FIT
10
1091.071498
20
2695.540337
30
0
0
SEQEND
8
FIT
0
POLYLINE
8
FIT
66
1
70
0
10
0
20
0
30
0
0
VERTEX
8
FIT
10
1086.07632
20
2704.203222
30
0
42
0.008865
0
VERTEX
8
FIT
10
1075.62917
20
2721.256525
30
0
0
SEQEND
8
FIT
0
POLYLINE
8
FIT
66
1
70
0
10
0
20
0
30
0
0
VERTEX
8
FIT
10
1070.180482
20
2729.641582
30
0
42
0.008865
0
VERTEX
8
FIT
10
1058.841444
20
2746.115328
30
0
0
SEQEND
8
FIT
0
POLYLINE
8
FIT
66
1
70
0
10
0
20
0
30
0
0
VERTEX
8
FIT
10
1052.954659
20
2754.198839
30
0
42
0.008865
0
VERTEX
8
FIT
10
1040.755809
20
2770.04643
30
0
0
SEQEND
8
FIT
0
POLYLINE
8
FIT
66
1
70
0
10
0
20
0
30
0
0
VERTEX
8
FIT
10
1034.447579
20
2777.805528
30
0
42
0.008865
0
VERTEX
8
FIT
10
1021.423423
20
2792.982137
30
0
0
SEQEND
8
FIT
0
POLYLINE
8
FIT
66
1
70
0
10
0
20
0
30
0
0
VERTEX
8
FIT
10
1014.711591
20
2800.394875
30
0
42
0.008865
0
VERTEX
8
FIT
10
1000.898969
20
2814.857571
30
0
0
SEQEND
8
FIT
0
POLYLINE
8
FIT
66
1
70
0
10
0
20
0
30
0
0
VERTEX
8
FIT
10
993.802521
20
2821.902982
30
0
42
0.008865
0
VERTEX
8
FIT
10
979.240506
20
2835.610855
30
0
0
SEQEND
8
FIT
0
POLYLINE
8
FIT
66
1
70
0
10
0
20
0
30
0
0
VERTEX
8
FIT
10
971.779515
20
2842.269008
30
0
42
0.008865
0
VERTEX
8
FIT
10
956.509297
20
2855.183283
30
0
0
SEQEND
8
FIT
0
POLYLINE
8
FIT
66
1
70
0
10
0
20
0
30
0
0
VERTEX
8
FIT
10
948.704869
20
2861.435346
30
0
42
0.008865
0
VERTEX
8
FIT
10
932.769642
20
2873.519494
30
0
0
SEQEND
8
FIT
0
POLYLINE
8
FIT
66
1
70
0
10
0
20
0
30
0
0
VERTEX
8
FIT
10
924.643852
20
2879.34778
30
0
42
0.008865
0
VERTEX
8
FIT
10
908.088692
20
2890.567618
30
0
0
SEQEND
8
FIT
0
POLYLINE
8
FIT
66
1
70
0
10
0
20
0
30
0
0
VERTEX
8
FIT
10
899.664526
20
2895.955642
30
0
42
0.008865
0
VERTEX
8
FIT
10
882.536262
20
2906.279433
30
0
0
SEQEND
8
FIT
0
POLYLINE
8
FIT
66
1
70
0
10
0
20
0
30
0
0
VERTEX
8
FIT
10
873.837549
20
2911.211954
30
0
42
0.008865
0
VERTEX
8
FIT
10
856.184631
20
2920.610496
30
0
0
SEQEND
8
FIT
0
POLYLINE
8
FIT
66
1
70
0
10
0
20
0
30
0
0
VERTEX
8
FIT
10
847.235976
20
2925.073561
30
0
42
0.008865
0
VERTEX
8
FIT
10
829.108339
20
2933.520268
30
0
0
SEQEND
8
FIT
0
POLYLINE
8
FIT
66
1
70
0
10
0
20
0
30
0
0
VERTEX
8
FIT
10
819.935055
20
2937.501253
30
0
42
0.008865
0
VERTEX
8
FIT
10
801.383975
20
2944.972231
30
0
0
SEQEND
8
FIT
0
POLYLINE
8
FIT
66
1
70
0
10
0
20
0
30
0
0
VERTEX
8
FIT
10
792.012011
20
2948.459876
30
0
42
0.008865
0
VERTEX
8
FIT
10
773.089963
20
2954.933994
30
0
0
SEQEND
8
FIT
0
POLYLINE
8
FIT
66
1
70
0
10
0
20
0
30
0
0
VERTEX
8
FIT
10
763.545828
20
2957.918432
30
0
42
0.008865
0
VERTEX
8
FIT
10
744.306337
20
2963.377375
30
0
0
SEQEND
8
FIT
0
POLYLINE
8
FIT
66
1
70
0
10
0
20
0
30
0
0
VERTEX
8
FIT
10
734.617029
20
2965.850165
30
0
42
0.008865
0
VERTEX
8
FIT
10
715.114516
20
2970.278493
30
0
0
SEQEND
8
FIT
0
POLYLINE
8
FIT
66
1
70
0
10
0
20
0
30
0
0
VERTEX
8
FIT
10
705.307443
20
2972.23264
30
0
42
0.008865
0
VERTEX
8
FIT
10
685.597075
20
2975.617827
30
0
0
SEQEND
8
FIT
0
POLYLINE
8
FIT
66
1
70
0
10
0
20
0
30
0
0
VERTEX
8
FIT
10
675.699977
20
2977.047802
30
0
42
0.008865
0
VERTEX
8
FIT
10
655.837508
20
2979.380272
30
0
0
SEQEND
8
FIT
0
POLYLINE
8
FIT
66
1
70
0
10
0
20
0
30
0
0
VERTEX
8
FIT
10
645.878381
20
2980.282032
30
0
42
0.008865
0
VERTEX
8
FIT
10
625.919995
20
2981.555186
30
0
0
SEQEND
8
FIT
0
POLYLINE
8
FIT
66
1
70
0
10
0
20
0
30
0
0
VERTEX
8
FIT
10
615.927011
20
2981.92618
30
0
42
0.008865
0
VERTEX
8
FIT
10
595.929164
20
2982.136418
30
0
0
SEQEND
8
FIT
0
POLYLINE
8
FIT
66
1
70
0
10
0
20
0
30
0
0
VERTEX
8
FIT
10
585.930588
20
2981.975596
30
0
42
0.008865
0
VERTEX
8
FIT
10
565.949847
20
2981.122323
30
0
0
SEQEND
8
FIT
0
POLYLINE
8
FIT
66
1
70
0
10
0
20
0
30
0
0
VERTEX
8
FIT
10
555.973963
20
2980.43014
30
0
42
0.008865
0
VERTEX
8
FIT
10
536.066847
20
2978.515769
30
0
0
SEQEND
8
FIT
0
POLYLINE
8
FIT
66
1
70
0
10
0
20
0
30
0
0
VERTEX
8
FIT
10
526.141873
20
2977.294183
30
0
42
0.008865
0
VERTEX
8
FIT
10
506.364692
20
2974.32413
30
0
0
SEQEND
8
FIT
0
POLYLINE
8
FIT
66
1
70
0
10
0
20
0
30
0
0
VERTEX
8
FIT
10
496.518703
20
2972.576597
30
0
42
0.008865
0
VERTEX
8
FIT
10
476.927401
20
2968.559263
30
0
0
SEQEND
8
FIT
0
POLYLINE
8
FIT
66
1
70
0
10
0
20
0
30
0
0
VERTEX
8
FIT
10
467.188247
20
2966.290725
30
0
42
0.008865
0
VERTEX
8
FIT
10
447.838241
20
2961.237474
30
0
0
SEQEND
8
FIT
0
POLYLINE
8
FIT
66
1
70
0
10
0
20
0
30
0
0
VERTEX
8
FIT
10
438.233472
20
2958.454349
30
0
42
0.008865
0
VERTEX
8
FIT
10
419.179496
20
2952.379474
30
0
0
SEQEND
8
FIT
0
POLYLINE
8
FIT
66
1
70
0
10
0
20
0
30
0
0
VERTEX
8
FIT
10
409.73628
20
2949.089634
30
0
42
0.008865
0
VERTEX
8
FIT
10
391.032232
20
2942.01032
30
0
0
SEQEND
8
FIT
0
POLYLINE
8
FIT
66
1
70
0
10
0
20
0
30
0
0
VERTEX
8
FIT
10
381.777281
20
2938.223071
30
0
42
0.008865
0
VERTEX
8
FIT
10
363.476069
20
2930.159342
30
0
0
SEQEND
8
FIT
0
POLYLINE
8
FIT
66
1
70
0
10
0
20
0
30
0
0
VERTEX
8
FIT
10
354.435561
20
2925.885397
30
0
42
0.008865
0
VERTEX
8
FIT
10
336.588953
20
2916.860063
30
0
0
SEQEND
8
FIT
0
POLYLINE
8
FIT
66
1
70
0
10
0
20
0
30
0
0
VERTEX
8
FIT
10
327.788462
20
2912.111511
30
0
42
0.008865
0
VERTEX
8
FIT
10
310.446939
20
2902.150102
30
0
0
SEQEND
8
FIT
0
POLYLINE
8
FIT
66
1
70
0
10
0
20
0
30
0
0
VERTEX
8
FIT
10
301.911359
20
2896.940376
30
0
42
0.008865
0
VERTEX
8
FIT
10
285.123975
20
2886.071069
30
0
0
SEQEND
8
FIT
0
POLYLINE
8
FIT
66
1
70
0
10
0
20
0
30
0
0
VERTEX
8
FIT
10
276.877449
20
2880.414905
30
0
42
0.008865
0
VERTEX
8
FIT
10
260.69169
20
2868.668446
30
0
0
SEQEND
8
FIT
0
POLYLINE
8
FIT
66
1
70
0
10
0
20
0
30
0
0
VERTEX
8
FIT
10
252.757546
20
2862.581844
30
0
42
0.008865
0
VERTEX
8
FIT
10
237.219196
20
2849.99146
30
0
0
SEQEND
8
FIT
0
POLYLINE
8
FIT
66
1
70
0
10
0
20
0
30
0
0
VERTEX
8
FIT
10
229.619876
20
2843.491636
30
0
42
0.008865
0
VERTEX
8
FIT
10
214.772888
20
2830.09294
30
0
0
SEQEND
8
FIT
0
POLYLINE
8
FIT
66
1
70
0
10
0
20
0
30
0
0
VERTEX
8
FIT
10
207.529888
20
2823.198281
30
0
42
0.008865
0
VERTEX
8
FIT
10
193.416259
20
2809.029175
30
0
0
SEQEND
8
FIT
0
POLYLINE
8
FIT
66
1
70
0
10
0
20
0
30
0
0
VERTEX
8
FIT
10
186.550068
20
2801.759182
30
0
42
0.008865
0
VERTEX
8
FIT
10
173.209721
20
2786.859745
30
0
0
SEQEND
8
FIT
0
POLYLINE
8
FIT
66
1
70
0
10
0
20
0
30
0
0
VERTEX
8
FIT
10
166.73976
20
2779.234983
30
0
42
0.008865
0
VERTEX
8
FIT
10
154.21043
20
2763.64736
30
0
0
SEQEND
8
FIT
0
POLYLINE
8
FIT
66
1
70
0
10
0
20
0
30
0
0
VERTEX
8
FIT
10
148.155001
20
2755.689399
30
0
42
0.008865
0
VERTEX
8
FIT
10
136.47213
20
2739.457682
30
0
0
SEQEND
8
FIT
0
POLYLINE
8
FIT
66
1
70
0
10
0
20
0
30
0
0
VERTEX
8
FIT
10
130.848361
20
2731.18903
30
0
42
0.008865
0
VERTEX
8
FIT
10
120.044996
20
2714.359135
30
0
0
SEQEND
8
FIT
0
POLYLINE
8
FIT
66
1
70
0
10
0
20
0
30
0
0
VERTEX
8
FIT
10
114.868796
20
2705.803182
30
0
42
0.008865
0
VERTEX
8
FIT
10
104.975495
20
2688.422713
30
0
0
SEQEND
8
FIT
0
POLYLINE
8
FIT
66
1
70
0
10
0
20
0
30
0
0
VERTEX
8
FIT
10
100.261505
20
2679.603661
30
0
42
0.008865
0
VERTEX
8
FIT
10
91.306254
20
2661.721783
30
0
0
SEQEND
8
FIT
0
POLYLINE
8
FIT
66
1
70
0
10
0
20
0
30
0
0
VERTEX
8
FIT
10
87.067809
20
2652.664578
30
0
42
0.008865
0
VERTEX
8
FIT
10
79.075939
20
2634.331872
30
0
0
SEQEND
8
FIT
0
POLYLINE
8
FIT
66
1
70
0
10
0
20
0
30
0
0
VERTEX
8
FIT
10
75.325027
20
2625.062135
30
0
42
0.008865
0
VERTEX
8
FIT
10
68.319144
20
2606.330458
30
0
0
SEQEND
8
FIT
0
POLYLINE
8
FIT
66
1
70
0
10
0
20
0
30
0
0
VERTEX
8
FIT
10
65.066376
20
2596.874409
30
0
42
0.008865
0
VERTEX
8
FIT
10
59.066298
20
2577.796748
30
0
0
SEQEND
8
FIT
0
POLYLINE
8
FIT
66
1
70
0
10
0
20
0
30
0
0
VERTEX
8
FIT
10
56.320874
20
2568.181134
30
0
42
0.008865
0
VERTEX
8
FIT
10
51.343573
20
2548.811452
30
0
0
SEQEND
8
FIT
0
POLYLINE
8
FIT
66
1
70
0
10
0
20
0
30
0
0
VERTEX
8
FIT
10
49.11326
20
2539.063474
30
0
42
0.008865
0
VERTEX
8
FIT
10
45.172815
20
2519.456562
30
0
0
SEQEND
8
FIT
0
POLYLINE
8
FIT
66
1
70
0
10
0
20
0
30
0
0
VERTEX
8
FIT
10
43.463922
20
2509.603793
30
0
42
0.008865
0
VERTEX
8
FIT
10
40.571479
20
2489.815113
30
0
0
SEQEND
8
FIT
0
POLYLINE
8
FIT
66
1
70
0
10
0
20
0
30
0
0
VERTEX
8
FIT
10
39.388838
20
2479.885423
30
0
42
0.008865
0
VERTEX
8
FIT
10
37.552579
20
2459.97095
30
0
0
SEQEND
8
FIT
0
POLYLINE
8
FIT
66
1
70
0
10
0
20
0
30
0
0
VERTEX
8
FIT
10
36.899538
20
2449.992427
30
0
42
0.008865
0
VERTEX
8
FIT
10
36.124657
20
2430.008492
30
0
0
SEQEND
8
FIT
0
POLYLINE
8
FIT
66
1
70
0
10
0
20
0
30
0
0
VERTEX
8
FIT
10
36.003061
20
2420.009363
30
0
42
0.000824
0
VERTEX
8
FIT
10
36
20
2418.151109
30
0
0
SEQEND
8
FIT
0
TEXT
8
TEXT
10
1300
20
2963.636418
30
0
40
15
1
T - FIT (ASSEMBLY, NOT A TOOLPATH)
72
0
11
1300
21
2963.636418
31
0
73
0
0
TEXT
8
TEXT
10
1300
20
2941.636418
30
0
40
15
1
GAP 4 LAP 17 (REBATE)
72
0
11
1300
21
2941.636418
31
0
73
0
0
TEXT
8
TEXT
10
1300
20
2919.636418
30
0
40
15
1
FRAME R600 / 543  REBATE WALL R564 (LAND 36, DASHED)
72
0
11
1300
21
2919.636418
31
0
73
0
0
TEXT
8
TEXT
10
1300
20
2897.636418
30
0
40
15
1
LEAF R560 / 493  GLASS R505.5
72
0
11
1300
21
2897.636418
31
0
73
0
0
ENDSEC
0
EOF
