0
SECTION
2
HEADER
9
$ACADVER
1
AC1009
0
ENDSEC
0
SECTION
2
TABLES
0
TABLE
2
LAYER
70
6
0
LAYER
2
0
70
0
62
7
6
CONTINUOUS
0
LAYER
2
GLASS_CONTOUR
70
0
62
7
6
CONTINUOUS
0
LAYER
2
GLASS_EDGE
70
0
62
8
6
CONTINUOUS
0
LAYER
2
GLASS_BARS
70
0
62
3
6
CONTINUOUS
0
LAYER
2
GLASS_BAR_AXES
70
0
62
4
6
CONTINUOUS
0
LAYER
2
GLASS_TEXT
70
0
62
2
6
CONTINUOUS
0
ENDTAB
0
ENDSEC
0
SECTION
2
ENTITIES
0
POLYLINE
8
GLASS_CONTOUR
66
1
70
1
10
0
20
0
30
0
0
VERTEX
8
GLASS_CONTOUR
10
589
20
294.5
30
0
42
1
0
VERTEX
8
GLASS_CONTOUR
10
0
20
294.5
30
0
42
1
0
SEQEND
8
GLASS_CONTOUR
0
POLYLINE
8
GLASS_EDGE
66
1
70
1
10
0
20
0
30
0
0
VERTEX
8
GLASS_EDGE
10
578
20
294.5
30
0
42
1
0
VERTEX
8
GLASS_EDGE
10
11
20
294.5
30
0
42
1
0
SEQEND
8
GLASS_EDGE
0
POLYLINE
8
GLASS_BAR_AXES
66
1
70
0
10
0
20
0
30
0
0
VERTEX
8
GLASS_BAR_AXES
10
389
20
294.5
30
0
42
1
0
VERTEX
8
GLASS_BAR_AXES
10
200
20
294.5
30
0
0
SEQEND
8
GLASS_BAR_AXES
0
POLYLINE
8
GLASS_BARS
66
1
70
0
10
0
20
0
30
0
0
VERTEX
8
GLASS_BARS
10
398
20
294.5
30
0
42
1
0
VERTEX
8
GLASS_BARS
10
191
20
294.5
30
0
0
SEQEND
8
GLASS_BARS
0
POLYLINE
8
GLASS_BARS
66
1
70
0
10
0
20
0
30
0
0
VERTEX
8
GLASS_BARS
10
380
20
294.5
30
0
42
1
0
VERTEX
8
GLASS_BARS
10
209
20
294.5
30
0
0
SEQEND
8
GLASS_BARS
0
POLYLINE
8
GLASS_BAR_AXES
66
1
70
0
10
0
20
0
30
0
0
VERTEX
8
GLASS_BAR_AXES
10
200
20
294.5
30
0
42
1
0
VERTEX
8
GLASS_BAR_AXES
10
389
20
294.5
30
0
0
SEQEND
8
GLASS_BAR_AXES
0
POLYLINE
8
GLASS_BARS
66
1
70
0
10
0
20
0
30
0
0
VERTEX
8
GLASS_BARS
10
191
20
294.5
30
0
42
1
0
VERTEX
8
GLASS_BARS
10
398
20
294.5
30
0
0
SEQEND
8
GLASS_BARS
0
POLYLINE
8
GLASS_BARS
66
1
70
0
10
0
20
0
30
0
0
VERTEX
8
GLASS_BARS
10
209
20
294.5
30
0
42
1
0
VERTEX
8
GLASS_BARS
10
380
20
294.5
30
0
0
SEQEND
8
GLASS_BARS
0
POLYLINE
8
GLASS_BAR_AXES
66
1
70
0
10
0
20
0
30
0
0
VERTEX
8
GLASS_BAR_AXES
10
389
20
294.5
30
0
0
VERTEX
8
GLASS_BAR_AXES
10
589
20
294.5
30
0
0
SEQEND
8
GLASS_BAR_AXES
0
POLYLINE
8
GLASS_BARS
66
1
70
0
10
0
20
0
30
0
0
VERTEX
8
GLASS_BARS
10
389
20
303.5
30
0
0
VERTEX
8
GLASS_BARS
10
589
20
303.5
30
0
0
SEQEND
8
GLASS_BARS
0
POLYLINE
8
GLASS_BARS
66
1
70
0
10
0
20
0
30
0
0
VERTEX
8
GLASS_BARS
10
389
20
285.5
30
0
0
VERTEX
8
GLASS_BARS
10
589
20
285.5
30
0
0
SEQEND
8
GLASS_BARS
0
POLYLINE
8
GLASS_BAR_AXES
66
1
70
0
10
0
20
0
30
0
0
VERTEX
8
GLASS_BAR_AXES
10
341.75
20
376.339401
30
0
0
VERTEX
8
GLASS_BAR_AXES
10
441.75
20
549.544481
30
0
0
SEQEND
8
GLASS_BAR_AXES
0
POLYLINE
8
GLASS_BARS
66
1
70
0
10
0
20
0
30
0
0
VERTEX
8
GLASS_BARS
10
333.955771
20
380.839401
30
0
0
VERTEX
8
GLASS_BARS
10
433.955771
20
554.044481
30
0
0
SEQEND
8
GLASS_BARS
0
POLYLINE
8
GLASS_BARS
66
1
70
0
10
0
20
0
30
0
0
VERTEX
8
GLASS_BARS
10
349.544229
20
371.839401
30
0
0
VERTEX
8
GLASS_BARS
10
449.544229
20
545.044481
30
0
0
SEQEND
8
GLASS_BARS
0
POLYLINE
8
GLASS_BAR_AXES
66
1
70
0
10
0
20
0
30
0
0
VERTEX
8
GLASS_BAR_AXES
10
247.25
20
376.339401
30
0
0
VERTEX
8
GLASS_BAR_AXES
10
147.25
20
549.544481
30
0
0
SEQEND
8
GLASS_BAR_AXES
0
POLYLINE
8
GLASS_BARS
66
1
70
0
10
0
20
0
30
0
0
VERTEX
8
GLASS_BARS
10
239.455771
20
371.839401
30
0
0
VERTEX
8
GLASS_BARS
10
139.455771
20
545.044481
30
0
0
SEQEND
8
GLASS_BARS
0
POLYLINE
8
GLASS_BARS
66
1
70
0
10
0
20
0
30
0
0
VERTEX
8
GLASS_BARS
10
255.044229
20
380.839401
30
0
0
VERTEX
8
GLASS_BARS
10
155.044229
20
554.044481
30
0
0
SEQEND
8
GLASS_BARS
0
POLYLINE
8
GLASS_BAR_AXES
66
1
70
0
10
0
20
0
30
0
0
VERTEX
8
GLASS_BAR_AXES
10
200
20
294.5
30
0
0
VERTEX
8
GLASS_BAR_AXES
10
0
20
294.5
30
0
0
SEQEND
8
GLASS_BAR_AXES
0
POLYLINE
8
GLASS_BARS
66
1
70
0
10
0
20
0
30
0
0
VERTEX
8
GLASS_BARS
10
200
20
285.5
30
0
0
VERTEX
8
GLASS_BARS
10
0
20
285.5
30
0
0
SEQEND
8
GLASS_BARS
0
POLYLINE
8
GLASS_BARS
66
1
70
0
10
0
20
0
30
0
0
VERTEX
8
GLASS_BARS
10
200
20
303.5
30
0
0
VERTEX
8
GLASS_BARS
10
0
20
303.5
30
0
0
SEQEND
8
GLASS_BARS
0
POLYLINE
8
GLASS_BAR_AXES
66
1
70
0
10
0
20
0
30
0
0
VERTEX
8
GLASS_BAR_AXES
10
247.25
20
212.660599
30
0
0
VERTEX
8
GLASS_BAR_AXES
10
147.25
20
39.455519
30
0
0
SEQEND
8
GLASS_BAR_AXES
0
POLYLINE
8
GLASS_BARS
66
1
70
0
10
0
20
0
30
0
0
VERTEX
8
GLASS_BARS
10
255.044229
20
208.160599
30
0
0
VERTEX
8
GLASS_BARS
10
155.044229
20
34.955519
30
0
0
SEQEND
8
GLASS_BARS
0
POLYLINE
8
GLASS_BARS
66
1
70
0
10
0
20
0
30
0
0
VERTEX
8
GLASS_BARS
10
239.455771
20
217.160599
30
0
0
VERTEX
8
GLASS_BARS
10
139.455771
20
43.955519
30
0
0
SEQEND
8
GLASS_BARS
0
POLYLINE
8
GLASS_BAR_AXES
66
1
70
0
10
0
20
0
30
0
0
VERTEX
8
GLASS_BAR_AXES
10
341.75
20
212.660599
30
0
0
VERTEX
8
GLASS_BAR_AXES
10
441.75
20
39.455519
30
0
0
SEQEND
8
GLASS_BAR_AXES
0
POLYLINE
8
GLASS_BARS
66
1
70
0
10
0
20
0
30
0
0
VERTEX
8
GLASS_BARS
10
349.544229
20
217.160599
30
0
0
VERTEX
8
GLASS_BARS
10
449.544229
20
43.955519
30
0
0
SEQEND
8
GLASS_BARS
0
POLYLINE
8
GLASS_BARS
66
1
70
0
10
0
20
0
30
0
0
VERTEX
8
GLASS_BARS
10
333.955771
20
208.160599
30
0
0
VERTEX
8
GLASS_BARS
10
433.955771
20
34.955519
30
0
0
SEQEND
8
GLASS_BARS
0
TEXT
8
GLASS_TEXT
10
689
20
570.5
30
0
40
15
1
CIR - G1 GLASS CIRCLE
72
0
11
689
21
570.5
31
0
73
0
0
TEXT
8
GLASS_TEXT
10
689
20
548.5
30
0
40
15
1
DIAMETER 589 R 294.5 (CIRCLE)
72
0
11
689
21
548.5
31
0
73
0
0
TEXT
8
GLASS_TEXT
10
689
20
526.5
30
0
40
15
1
DOUBLE 4X16X4 TOUGHENED ARGON CLEAR SPACER SILVER
72
0
11
689
21
526.5
31
0
73
0
0
TEXT
8
GLASS_TEXT
10
689
20
504.5
30
0
40
15
1
BARS 8 PATTERN SUNBURST TOTAL L=1794
72
0
11
689
21
504.5
31
0
73
0
0
TEXT
8
GLASS_TEXT
10
689
20
482.5
30
0
40
15
1
R1 RING C=(294.5,294.5) R=94.5 0-180DEG L=297
72
0
11
689
21
482.5
31
0
73
0
0
TEXT
8
GLASS_TEXT
10
689
20
460.5
30
0
40
15
1
R2 RING C=(294.5,294.5) R=94.5 180-360DEG L=297
72
0
11
689
21
460.5
31
0
73
0
0
TEXT
8
GLASS_TEXT
10
689
20
438.5
30
0
40
15
1
K1 SPOKE Y=294.5 X=389-589 L=200
72
0
11
689
21
438.5
31
0
73
0
0
TEXT
8
GLASS_TEXT
10
689
20
416.5
30
0
40
15
1
K2 SPOKE (341.8,376.3)-(441.8,549.5) L=200
72
0
11
689
21
416.5
31
0
73
0
0
TEXT
8
GLASS_TEXT
10
689
20
394.5
30
0
40
15
1
K3 SPOKE (247.3,376.3)-(147.3,549.5) L=200
72
0
11
689
21
394.5
31
0
73
0
0
TEXT
8
GLASS_TEXT
10
689
20
372.5
30
0
40
15
1
K4 SPOKE Y=294.5 X=0-200 L=200
72
0
11
689
21
372.5
31
0
73
0
0
TEXT
8
GLASS_TEXT
10
689
20
350.5
30
0
40
15
1
K5 SPOKE (247.2,212.7)-(147.2,39.5) L=200
72
0
11
689
21
350.5
31
0
73
0
0
TEXT
8
GLASS_TEXT
10
689
20
328.5
30
0
40
15
1
K6 SPOKE (341.8,212.7)-(441.8,39.5) L=200
72
0
11
689
21
328.5
31
0
73
0
0
TEXT
8
GLASS_TEXT
10
689
20
306.5
30
0
40
15
1
BAR ENDS (TABLE, 8 BARS): ID  S FROM APEX / POSITION  L  ANGLE / R
72
0
11
689
21
306.5
31
0
73
0
0
TEXT
8
GLASS_TEXT
10
689
20
284.5
30
0
40
15
1
R1  R 94.5  L=297  C 294.5 / 294.5
72
0
11
689
21
284.5
31
0
73
0
0
TEXT
8
GLASS_TEXT
10
689
20
262.5
30
0
40
15
1
R2  R 94.5  L=297  C 294.5 / 294.5
72
0
11
689
21
262.5
31
0
73
0
0
TEXT
8
GLASS_TEXT
10
689
20
240.5
30
0
40
15
1
K1  Y 294.5  L=200  0DEG
72
0
11
689
21
240.5
31
0
73
0
0
TEXT
8
GLASS_TEXT
10
689
20
218.5
30
0
40
15
1
K2  154.2 FROM APEX R  L=200  60DEG
72
0
11
689
21
218.5
31
0
73
0
0
TEXT
8
GLASS_TEXT
10
689
20
196.5
30
0
40
15
1
K3  154.2 FROM APEX L  L=200  120DEG
72
0
11
689
21
196.5
31
0
73
0
0
TEXT
8
GLASS_TEXT
10
689
20
174.5
30
0
40
15
1
K4  Y 294.5  L=200  0DEG
72
0
11
689
21
174.5
31
0
73
0
0
TEXT
8
GLASS_TEXT
10
689
20
152.5
30
0
40
15
1
K5  771 FROM APEX L  L=200  -120DEG
72
0
11
689
21
152.5
31
0
73
0
0
TEXT
8
GLASS_TEXT
10
689
20
130.5
30
0
40
15
1
K6  771 FROM APEX R  L=200  -60DEG
72
0
11
689
21
130.5
31
0
73
0
0
ENDSEC
0
EOF
