0
SECTION
2
HEADER
9
$ACADVER
1
AC1009
0
ENDSEC
0
SECTION
2
TABLES
0
TABLE
2
LAYER
70
9
0
LAYER
2
0
70
0
62
7
6
CONTINUOUS
0
LAYER
2
ARKA_OUTLINE
70
0
62
7
6
CONTINUOUS
0
LAYER
2
ARKA_PANE
70
0
62
3
6
CONTINUOUS
0
LAYER
2
ARKA_FRONT_HINGES_3MM
70
0
62
50
6
CONTINUOUS
0
LAYER
2
ARKA_MITRE
70
0
62
1
6
CONTINUOUS
0
LAYER
2
ARKA_SECTION
70
0
62
5
6
CONTINUOUS
0
LAYER
2
ARKA_PANE_ZEWN_REF
70
0
62
3
6
CONTINUOUS
0
LAYER
2
ARKA_CENTRE
70
0
62
6
6
CONTINUOUS
0
LAYER
2
ARKA_INFO_NO_CUT
70
0
62
8
6
CONTINUOUS
0
ENDTAB
0
ENDSEC
0
SECTION
2
ENTITIES
0
POLYLINE
8
ARKA_OUTLINE
66
1
70
1
10
0
20
0
30
0
0
VERTEX
8
ARKA_OUTLINE
10
-5.5
20
-5.5
30
0
0
VERTEX
8
ARKA_OUTLINE
10
794.5
20
-5.5
30
0
0
VERTEX
8
ARKA_OUTLINE
10
794.5
20
898.5
30
0
42
1
0
VERTEX
8
ARKA_OUTLINE
10
-5.5
20
898.5
30
0
0
SEQEND
8
ARKA_OUTLINE
0
POLYLINE
8
ARKA_PANE_ZEWN_REF
66
1
70
1
10
0
20
0
30
0
0
VERTEX
8
ARKA_PANE_ZEWN_REF
10
-3.5
20
-3.5
30
0
0
VERTEX
8
ARKA_PANE_ZEWN_REF
10
792.5
20
-3.5
30
0
0
VERTEX
8
ARKA_PANE_ZEWN_REF
10
792.5
20
898.5
30
0
42
1
0
VERTEX
8
ARKA_PANE_ZEWN_REF
10
-3.5
20
898.5
30
0
0
SEQEND
8
ARKA_PANE_ZEWN_REF
0
POLYLINE
8
ARKA_OUTLINE
66
1
70
1
10
0
20
0
30
0
0
VERTEX
8
ARKA_OUTLINE
10
12.5
20
12.5
30
0
0
VERTEX
8
ARKA_OUTLINE
10
265.15
20
12.5
30
0
0
VERTEX
8
ARKA_OUTLINE
10
265.15
20
887.5
30
0
0
VERTEX
8
ARKA_OUTLINE
10
12.5
20
887.5
30
0
0
SEQEND
8
ARKA_OUTLINE
0
POLYLINE
8
ARKA_PANE
66
1
70
1
10
0
20
0
30
0
0
VERTEX
8
ARKA_PANE
10
10.5
20
10.5
30
0
0
VERTEX
8
ARKA_PANE
10
267.15
20
10.5
30
0
0
VERTEX
8
ARKA_PANE
10
267.15
20
889.5
30
0
0
VERTEX
8
ARKA_PANE
10
10.5
20
889.5
30
0
0
SEQEND
8
ARKA_PANE
0
POLYLINE
8
ARKA_FRONT_HINGES_3MM
66
1
70
1
10
0
20
0
30
0
0
VERTEX
8
ARKA_FRONT_HINGES_3MM
10
2.5
20
2.5
30
0
0
VERTEX
8
ARKA_FRONT_HINGES_3MM
10
275.15
20
2.5
30
0
0
VERTEX
8
ARKA_FRONT_HINGES_3MM
10
275.15
20
897.5
30
0
0
VERTEX
8
ARKA_FRONT_HINGES_3MM
10
2.5
20
897.5
30
0
0
SEQEND
8
ARKA_FRONT_HINGES_3MM
0
POLYLINE
8
ARKA_OUTLINE
66
1
70
1
10
0
20
0
30
0
0
VERTEX
8
ARKA_OUTLINE
10
287.15
20
12.5
30
0
0
VERTEX
8
ARKA_OUTLINE
10
501.85
20
12.5
30
0
0
VERTEX
8
ARKA_OUTLINE
10
501.85
20
898.5
30
0
42
1
0
VERTEX
8
ARKA_OUTLINE
10
287.15
20
898.5
30
0
0
SEQEND
8
ARKA_OUTLINE
0
POLYLINE
8
ARKA_PANE
66
1
70
1
10
0
20
0
30
0
0
VERTEX
8
ARKA_PANE
10
285.15
20
10.5
30
0
0
VERTEX
8
ARKA_PANE
10
503.85
20
10.5
30
0
0
VERTEX
8
ARKA_PANE
10
503.85
20
898.5
30
0
42
1
0
VERTEX
8
ARKA_PANE
10
285.15
20
898.5
30
0
0
SEQEND
8
ARKA_PANE
0
POLYLINE
8
ARKA_FRONT_HINGES_3MM
66
1
70
1
10
0
20
0
30
0
0
VERTEX
8
ARKA_FRONT_HINGES_3MM
10
277.15
20
2.5
30
0
0
VERTEX
8
ARKA_FRONT_HINGES_3MM
10
511.85
20
2.5
30
0
0
VERTEX
8
ARKA_FRONT_HINGES_3MM
10
511.85
20
898.5
30
0
42
1
0
VERTEX
8
ARKA_FRONT_HINGES_3MM
10
277.15
20
898.5
30
0
0
SEQEND
8
ARKA_FRONT_HINGES_3MM
0
POLYLINE
8
ARKA_OUTLINE
66
1
70
1
10
0
20
0
30
0
0
VERTEX
8
ARKA_OUTLINE
10
523.85
20
12.5
30
0
0
VERTEX
8
ARKA_OUTLINE
10
776.5
20
12.5
30
0
0
VERTEX
8
ARKA_OUTLINE
10
776.5
20
887.5
30
0
0
VERTEX
8
ARKA_OUTLINE
10
523.85
20
887.5
30
0
0
SEQEND
8
ARKA_OUTLINE
0
POLYLINE
8
ARKA_PANE
66
1
70
1
10
0
20
0
30
0
0
VERTEX
8
ARKA_PANE
10
521.85
20
10.5
30
0
0
VERTEX
8
ARKA_PANE
10
778.5
20
10.5
30
0
0
VERTEX
8
ARKA_PANE
10
778.5
20
889.5
30
0
0
VERTEX
8
ARKA_PANE
10
521.85
20
889.5
30
0
0
SEQEND
8
ARKA_PANE
0
POLYLINE
8
ARKA_FRONT_HINGES_3MM
66
1
70
1
10
0
20
0
30
0
0
VERTEX
8
ARKA_FRONT_HINGES_3MM
10
513.85
20
2.5
30
0
0
VERTEX
8
ARKA_FRONT_HINGES_3MM
10
786.5
20
2.5
30
0
0
VERTEX
8
ARKA_FRONT_HINGES_3MM
10
786.5
20
897.5
30
0
0
VERTEX
8
ARKA_FRONT_HINGES_3MM
10
513.85
20
897.5
30
0
0
SEQEND
8
ARKA_FRONT_HINGES_3MM
0
POLYLINE
8
ARKA_OUTLINE
66
1
70
1
10
0
20
0
30
0
0
VERTEX
8
ARKA_OUTLINE
10
776.34159
20
909.5
30
0
42
0.252574
0
VERTEX
8
ARKA_OUTLINE
10
594.947075
20
1223.684517
30
0
0
VERTEX
8
ARKA_OUTLINE
10
468.466993
20
1004.614591
30
0
42
-0.222809
0
VERTEX
8
ARKA_OUTLINE
10
523.381428
20
909.5
30
0
0
SEQEND
8
ARKA_OUTLINE
0
POLYLINE
8
ARKA_PANE
66
1
70
1
10
0
20
0
30
0
0
VERTEX
8
ARKA_PANE
10
778.394517
20
907.5
30
0
42
0.255427
0
VERTEX
8
ARKA_PANE
10
594.241487
20
1226.462404
30
0
0
VERTEX
8
ARKA_PANE
10
465.810019
20
1004.012576
30
0
42
-0.230385
0
VERTEX
8
ARKA_PANE
10
521.531581
20
907.5
30
0
0
SEQEND
8
ARKA_PANE
0
POLYLINE
8
ARKA_FRONT_HINGES_3MM
66
1
70
1
10
0
20
0
30
0
0
VERTEX
8
ARKA_FRONT_HINGES_3MM
10
786.498724
20
899.5
30
0
42
0.266583
0
VERTEX
8
ARKA_FRONT_HINGES_3MM
10
591.365388
20
1237.480854
30
0
0
VERTEX
8
ARKA_FRONT_HINGES_3MM
10
455.038931
20
1001.356504
30
0
42
-0.263464
0
VERTEX
8
ARKA_FRONT_HINGES_3MM
10
513.845811
20
899.5
30
0
0
SEQEND
8
ARKA_FRONT_HINGES_3MM
0
POLYLINE
8
ARKA_OUTLINE
66
1
70
1
10
0
20
0
30
0
0
VERTEX
8
ARKA_OUTLINE
10
575.894516
20
1234.684517
30
0
42
0.252574
0
VERTEX
8
ARKA_OUTLINE
10
213.105484
20
1234.684517
30
0
0
VERTEX
8
ARKA_OUTLINE
10
339.585565
20
1015.614591
30
0
42
-0.222809
0
VERTEX
8
ARKA_OUTLINE
10
449.414435
20
1015.614591
30
0
0
SEQEND
8
ARKA_OUTLINE
0
POLYLINE
8
ARKA_PANE
66
1
70
1
10
0
20
0
30
0
0
VERTEX
8
ARKA_PANE
10
578.65303
20
1235.462404
30
0
42
0.255427
0
VERTEX
8
ARKA_PANE
10
210.34697
20
1235.462404
30
0
0
VERTEX
8
ARKA_PANE
10
338.778438
20
1013.012576
30
0
42
-0.230385
0
VERTEX
8
ARKA_PANE
10
450.221562
20
1013.012576
30
0
0
SEQEND
8
ARKA_PANE
0
POLYLINE
8
ARKA_FRONT_HINGES_3MM
66
1
70
1
10
0
20
0
30
0
0
VERTEX
8
ARKA_FRONT_HINGES_3MM
10
589.633337
20
1238.480854
30
0
42
0.266583
0
VERTEX
8
ARKA_FRONT_HINGES_3MM
10
199.366663
20
1238.480854
30
0
0
VERTEX
8
ARKA_FRONT_HINGES_3MM
10
335.69312
20
1002.356504
30
0
42
-0.263464
0
VERTEX
8
ARKA_FRONT_HINGES_3MM
10
453.30688
20
1002.356504
30
0
0
SEQEND
8
ARKA_FRONT_HINGES_3MM
0
POLYLINE
8
ARKA_OUTLINE
66
1
70
1
10
0
20
0
30
0
0
VERTEX
8
ARKA_OUTLINE
10
194.052925
20
1223.684517
30
0
42
0.252574
0
VERTEX
8
ARKA_OUTLINE
10
12.65841
20
909.5
30
0
0
VERTEX
8
ARKA_OUTLINE
10
265.618572
20
909.5
30
0
42
-0.222809
0
VERTEX
8
ARKA_OUTLINE
10
320.533007
20
1004.614591
30
0
0
SEQEND
8
ARKA_OUTLINE
0
POLYLINE
8
ARKA_PANE
66
1
70
1
10
0
20
0
30
0
0
VERTEX
8
ARKA_PANE
10
194.758513
20
1226.462404
30
0
42
0.255427
0
VERTEX
8
ARKA_PANE
10
10.605483
20
907.5
30
0
0
VERTEX
8
ARKA_PANE
10
267.468419
20
907.5
30
0
42
-0.230385
0
VERTEX
8
ARKA_PANE
10
323.189981
20
1004.012576
30
0
0
SEQEND
8
ARKA_PANE
0
POLYLINE
8
ARKA_FRONT_HINGES_3MM
66
1
70
1
10
0
20
0
30
0
0
VERTEX
8
ARKA_FRONT_HINGES_3MM
10
197.634612
20
1237.480854
30
0
42
0.266583
0
VERTEX
8
ARKA_FRONT_HINGES_3MM
10
2.501276
20
899.5
30
0
0
VERTEX
8
ARKA_FRONT_HINGES_3MM
10
275.154189
20
899.5
30
0
42
-0.263464
0
VERTEX
8
ARKA_FRONT_HINGES_3MM
10
333.961069
20
1001.356504
30
0
0
SEQEND
8
ARKA_FRONT_HINGES_3MM
0
POLYLINE
8
ARKA_MITRE
66
1
70
0
10
0
20
0
30
0
0
VERTEX
8
ARKA_MITRE
10
2.5
20
17.5
30
0
0
VERTEX
8
ARKA_MITRE
10
2.5
20
2.5
30
0
0
VERTEX
8
ARKA_MITRE
10
17.5
20
2.5
30
0
0
SEQEND
8
ARKA_MITRE
0
POLYLINE
8
ARKA_MITRE
66
1
70
0
10
0
20
0
30
0
0
VERTEX
8
ARKA_MITRE
10
260.15
20
2.5
30
0
0
VERTEX
8
ARKA_MITRE
10
275.15
20
2.5
30
0
0
VERTEX
8
ARKA_MITRE
10
275.15
20
17.5
30
0
0
SEQEND
8
ARKA_MITRE
0
POLYLINE
8
ARKA_MITRE
66
1
70
0
10
0
20
0
30
0
0
VERTEX
8
ARKA_MITRE
10
275.15
20
882.5
30
0
0
VERTEX
8
ARKA_MITRE
10
275.15
20
897.5
30
0
0
VERTEX
8
ARKA_MITRE
10
260.15
20
897.5
30
0
0
SEQEND
8
ARKA_MITRE
0
POLYLINE
8
ARKA_MITRE
66
1
70
0
10
0
20
0
30
0
0
VERTEX
8
ARKA_MITRE
10
17.5
20
897.5
30
0
0
VERTEX
8
ARKA_MITRE
10
2.5
20
897.5
30
0
0
VERTEX
8
ARKA_MITRE
10
2.5
20
882.5
30
0
0
SEQEND
8
ARKA_MITRE
0
POLYLINE
8
ARKA_MITRE
66
1
70
0
10
0
20
0
30
0
0
VERTEX
8
ARKA_MITRE
10
277.15
20
17.5
30
0
0
VERTEX
8
ARKA_MITRE
10
277.15
20
2.5
30
0
0
VERTEX
8
ARKA_MITRE
10
292.15
20
2.5
30
0
0
SEQEND
8
ARKA_MITRE
0
POLYLINE
8
ARKA_MITRE
66
1
70
0
10
0
20
0
30
0
0
VERTEX
8
ARKA_MITRE
10
496.85
20
2.5
30
0
0
VERTEX
8
ARKA_MITRE
10
511.85
20
2.5
30
0
0
VERTEX
8
ARKA_MITRE
10
511.85
20
17.5
30
0
0
SEQEND
8
ARKA_MITRE
0
POLYLINE
8
ARKA_MITRE
66
1
70
0
10
0
20
0
30
0
0
VERTEX
8
ARKA_MITRE
10
513.85
20
17.5
30
0
0
VERTEX
8
ARKA_MITRE
10
513.85
20
2.5
30
0
0
VERTEX
8
ARKA_MITRE
10
528.85
20
2.5
30
0
0
SEQEND
8
ARKA_MITRE
0
POLYLINE
8
ARKA_MITRE
66
1
70
0
10
0
20
0
30
0
0
VERTEX
8
ARKA_MITRE
10
771.5
20
2.5
30
0
0
VERTEX
8
ARKA_MITRE
10
786.5
20
2.5
30
0
0
VERTEX
8
ARKA_MITRE
10
786.5
20
17.5
30
0
0
SEQEND
8
ARKA_MITRE
0
POLYLINE
8
ARKA_MITRE
66
1
70
0
10
0
20
0
30
0
0
VERTEX
8
ARKA_MITRE
10
786.5
20
882.5
30
0
0
VERTEX
8
ARKA_MITRE
10
786.5
20
897.5
30
0
0
VERTEX
8
ARKA_MITRE
10
771.5
20
897.5
30
0
0
SEQEND
8
ARKA_MITRE
0
POLYLINE
8
ARKA_MITRE
66
1
70
0
10
0
20
0
30
0
0
VERTEX
8
ARKA_MITRE
10
528.85
20
897.5
30
0
0
VERTEX
8
ARKA_MITRE
10
513.85
20
897.5
30
0
0
VERTEX
8
ARKA_MITRE
10
513.85
20
882.5
30
0
0
SEQEND
8
ARKA_MITRE
0
POLYLINE
8
ARKA_MITRE
66
1
70
0
10
0
20
0
30
0
0
VERTEX
8
ARKA_MITRE
10
771.498724
20
899.5
30
0
0
VERTEX
8
ARKA_MITRE
10
786.498724
20
899.5
30
0
42
0.009567
0
VERTEX
8
ARKA_MITRE
10
786.173515
20
914.495559
30
0
0
SEQEND
8
ARKA_MITRE
0
POLYLINE
8
ARKA_MITRE
66
1
70
0
10
0
20
0
30
0
0
VERTEX
8
ARKA_MITRE
10
604.189318
20
1229.701434
30
0
42
0.009567
0
VERTEX
8
ARKA_MITRE
10
591.365388
20
1237.480854
30
0
0
VERTEX
8
ARKA_MITRE
10
583.865388
20
1224.490473
30
0
0
SEQEND
8
ARKA_MITRE
0
POLYLINE
8
ARKA_MITRE
66
1
70
0
10
0
20
0
30
0
0
VERTEX
8
ARKA_MITRE
10
462.538931
20
1014.346885
30
0
0
VERTEX
8
ARKA_MITRE
10
455.038931
20
1001.356504
30
0
42
-0.031431
0
VERTEX
8
ARKA_MITRE
10
467.454513
20
992.956665
30
0
0
SEQEND
8
ARKA_MITRE
0
POLYLINE
8
ARKA_MITRE
66
1
70
0
10
0
20
0
30
0
0
VERTEX
8
ARKA_MITRE
10
512.779128
20
914.452129
30
0
42
-0.031431
0
VERTEX
8
ARKA_MITRE
10
513.845811
20
899.5
30
0
0
VERTEX
8
ARKA_MITRE
10
528.845811
20
899.5
30
0
0
SEQEND
8
ARKA_MITRE
0
POLYLINE
8
ARKA_MITRE
66
1
70
0
10
0
20
0
30
0
0
VERTEX
8
ARKA_MITRE
10
582.133337
20
1225.490473
30
0
0
VERTEX
8
ARKA_MITRE
10
589.633337
20
1238.480854
30
0
42
0.009567
0
VERTEX
8
ARKA_MITRE
10
576.484197
20
1245.696993
30
0
0
SEQEND
8
ARKA_MITRE
0
POLYLINE
8
ARKA_MITRE
66
1
70
0
10
0
20
0
30
0
0
VERTEX
8
ARKA_MITRE
10
212.515803
20
1245.696993
30
0
42
0.009567
0
VERTEX
8
ARKA_MITRE
10
199.366663
20
1238.480854
30
0
0
VERTEX
8
ARKA_MITRE
10
206.866663
20
1225.490473
30
0
0
SEQEND
8
ARKA_MITRE
0
POLYLINE
8
ARKA_MITRE
66
1
70
0
10
0
20
0
30
0
0
VERTEX
8
ARKA_MITRE
10
328.19312
20
1015.346885
30
0
0
VERTEX
8
ARKA_MITRE
10
335.69312
20
1002.356504
30
0
42
-0.031431
0
VERTEX
8
ARKA_MITRE
10
349.175385
20
1008.908794
30
0
0
SEQEND
8
ARKA_MITRE
0
POLYLINE
8
ARKA_MITRE
66
1
70
0
10
0
20
0
30
0
0
VERTEX
8
ARKA_MITRE
10
439.824615
20
1008.908794
30
0
42
-0.031431
0
VERTEX
8
ARKA_MITRE
10
453.30688
20
1002.356504
30
0
0
VERTEX
8
ARKA_MITRE
10
460.80688
20
1015.346885
30
0
0
SEQEND
8
ARKA_MITRE
0
POLYLINE
8
ARKA_MITRE
66
1
70
0
10
0
20
0
30
0
0
VERTEX
8
ARKA_MITRE
10
205.134612
20
1224.490473
30
0
0
VERTEX
8
ARKA_MITRE
10
197.634612
20
1237.480854
30
0
42
0.009567
0
VERTEX
8
ARKA_MITRE
10
184.810682
20
1229.701434
30
0
0
SEQEND
8
ARKA_MITRE
0
POLYLINE
8
ARKA_MITRE
66
1
70
0
10
0
20
0
30
0
0
VERTEX
8
ARKA_MITRE
10
2.826485
20
914.495559
30
0
42
0.009567
0
VERTEX
8
ARKA_MITRE
10
2.501276
20
899.5
30
0
0
VERTEX
8
ARKA_MITRE
10
17.501276
20
899.5
30
0
0
SEQEND
8
ARKA_MITRE
0
POLYLINE
8
ARKA_MITRE
66
1
70
0
10
0
20
0
30
0
0
VERTEX
8
ARKA_MITRE
10
260.154189
20
899.5
30
0
0
VERTEX
8
ARKA_MITRE
10
275.154189
20
899.5
30
0
42
-0.031431
0
VERTEX
8
ARKA_MITRE
10
276.220872
20
914.452129
30
0
0
SEQEND
8
ARKA_MITRE
0
POLYLINE
8
ARKA_MITRE
66
1
70
0
10
0
20
0
30
0
0
VERTEX
8
ARKA_MITRE
10
321.545487
20
992.956665
30
0
42
-0.031431
0
VERTEX
8
ARKA_MITRE
10
333.961069
20
1001.356504
30
0
0
VERTEX
8
ARKA_MITRE
10
326.461069
20
1014.346885
30
0
0
SEQEND
8
ARKA_MITRE
0
POINT
8
ARKA_CENTRE
10
394.5
20
898.5
30
0
0
POLYLINE
8
ARKA_SECTION
66
1
70
0
10
0
20
0
30
0
0
VERTEX
8
ARKA_SECTION
10
894.5
20
-5.5
30
0
42
-0.414214
0
VERTEX
8
ARKA_SECTION
10
902.5
20
2.5
30
0
0
VERTEX
8
ARKA_SECTION
10
902.5
20
8.5
30
0
0
SEQEND
8
ARKA_SECTION
0
TEXT
8
ARKA_INFO_NO_CUT
10
890.5
20
-24.5
30
0
40
15
1
START
72
0
11
890.5
21
-24.5
31
0
73
0
0
TEXT
8
ARKA_INFO_NO_CUT
10
914.5
20
-1.5
30
0
40
15
1
SECTION R8 + 6 (VERBATIM)
72
0
11
914.5
21
-1.5
31
0
73
0
0
TEXT
8
ARKA_INFO_NO_CUT
10
894.5
20
1276.5
30
0
40
15
1
hub - TRACERY FULL
72
0
11
894.5
21
1276.5
31
0
73
0
0
TEXT
8
ARKA_INFO_NO_CUT
10
894.5
20
1254.5
30
0
40
15
1
PATTERN HUB-SPOKE SPOKES 4 RINGS 1 PANES 6
72
0
11
894.5
21
1254.5
31
0
73
0
0
TEXT
8
ARKA_INFO_NO_CUT
10
894.5
20
1232.5
30
0
40
15
1
TIMBER BAR 22 EDGE MARGIN 18 PANE +2 LIMIT +10 MITRE LEG 15
72
0
11
894.5
21
1232.5
31
0
73
0
0
TEXT
8
ARKA_INFO_NO_CUT
10
894.5
20
1210.5
30
0
40
15
1
ARKA_PANE = MOULDING RAIL (INNER EDGE OF THE BEAD), ARKA_FRONT_HINGES_3MM = BEAD LIMIT (NOT DRILLING)
72
0
11
894.5
21
1210.5
31
0
73
0
0
TEXT
8
ARKA_INFO_NO_CUT
10
894.5
20
1188.5
30
0
40
15
1
NOT A TOOLPATH
72
0
11
894.5
21
1188.5
31
0
73
0
0
ENDSEC
0
EOF
