0
SECTION
2
HEADER
9
$ACADVER
1
AC1009
0
ENDSEC
0
SECTION
2
TABLES
0
TABLE
2
LAYER
70
8
0
LAYER
2
0
70
0
62
7
6
CONTINUOUS
0
LAYER
2
FIT
70
0
62
4
6
CONTINUOUS
0
LAYER
2
CONTOUR
70
0
62
7
6
CONTINUOUS
0
LAYER
2
ASSEMBLY
70
0
62
8
6
CONTINUOUS
0
LAYER
2
PIECES
70
0
62
5
6
CONTINUOUS
0
LAYER
2
FINGER
70
0
62
1
6
CONTINUOUS
0
LAYER
2
CLAMPS
70
0
62
3
6
CONTINUOUS
0
LAYER
2
TEXT
70
0
62
94
6
CONTINUOUS
0
ENDTAB
0
ENDSEC
0
SECTION
2
ENTITIES
0
POLYLINE
8
PIECES
66
1
70
1
10
0
20
0
30
0
0
VERTEX
8
PIECES
10
746.064797
20
0
30
0
0
VERTEX
8
PIECES
10
123.497268
20
0
30
0
0
VERTEX
8
PIECES
10
0
20
200
30
0
0
VERTEX
8
PIECES
10
746.064797
20
200
30
0
0
SEQEND
8
PIECES
0
POLYLINE
8
CLAMPS
66
1
70
1
10
0
20
0
30
0
0
VERTEX
8
CLAMPS
10
136.885246
20
35
30
0
0
VERTEX
8
CLAMPS
10
266.885246
20
35
30
0
0
VERTEX
8
CLAMPS
10
266.885246
20
165
30
0
0
VERTEX
8
CLAMPS
10
136.885246
20
165
30
0
0
SEQEND
8
CLAMPS
0
POLYLINE
8
CLAMPS
66
1
70
1
10
0
20
0
30
0
0
VERTEX
8
CLAMPS
10
596.064797
20
35
30
0
0
VERTEX
8
CLAMPS
10
726.064797
20
35
30
0
0
VERTEX
8
CLAMPS
10
726.064797
20
165
30
0
0
VERTEX
8
CLAMPS
10
596.064797
20
165
30
0
0
SEQEND
8
CLAMPS
0
TEXT
8
TEXT
10
373.032399
20
110
30
0
40
15
1
T - LEAF TOP P1 L746.1 x200
72
1
11
373.032399
21
110
31
0
73
2
0
TEXT
8
TEXT
10
373.032399
20
10
30
0
40
10
1
OUT 731.1 IN 607.6 CUT J31.7/Q FINGER ONE END
72
1
11
373.032399
21
10
31
0
73
2
0
POLYLINE
8
PIECES
66
1
70
1
10
0
20
0
30
0
0
VERTEX
8
PIECES
10
1568.632327
20
0
30
0
0
VERTEX
8
PIECES
10
946.064797
20
0
30
0
0
VERTEX
8
PIECES
10
946.064797
20
200
30
0
0
VERTEX
8
PIECES
10
1692.129594
20
200
30
0
0
SEQEND
8
PIECES
0
POLYLINE
8
CLAMPS
66
1
70
1
10
0
20
0
30
0
0
VERTEX
8
CLAMPS
10
966.064797
20
35
30
0
0
VERTEX
8
CLAMPS
10
1096.064797
20
35
30
0
0
VERTEX
8
CLAMPS
10
1096.064797
20
165
30
0
0
VERTEX
8
CLAMPS
10
966.064797
20
165
30
0
0
SEQEND
8
CLAMPS
0
POLYLINE
8
CLAMPS
66
1
70
1
10
0
20
0
30
0
0
VERTEX
8
CLAMPS
10
1425.244348
20
35
30
0
0
VERTEX
8
CLAMPS
10
1555.244348
20
35
30
0
0
VERTEX
8
CLAMPS
10
1555.244348
20
165
30
0
0
VERTEX
8
CLAMPS
10
1425.244348
20
165
30
0
0
SEQEND
8
CLAMPS
0
TEXT
8
TEXT
10
1319.097196
20
110
30
0
40
15
1
T - LEAF TOP P2 L746.1 x200
72
1
11
1319.097196
21
110
31
0
73
2
0
TEXT
8
TEXT
10
1319.097196
20
10
30
0
40
10
1
OUT 731.1 IN 607.6 CUT Q/J31.7 FINGER ONE END
72
1
11
1319.097196
21
10
31
0
73
2
0
POLYLINE
8
CONTOUR
66
1
70
1
10
0
20
0
30
0
0
VERTEX
8
CONTOUR
10
1171.033158
20
468.091579
30
0
42
0.207987
0
VERTEX
8
CONTOUR
10
1106.645241
20
616.183789
30
0
42
0.393939
0
VERTEX
8
CONTOUR
10
137.421075
20
616.183789
30
0
42
0.207987
0
VERTEX
8
CONTOUR
10
73.033158
20
468.091579
30
0
0
VERTEX
8
CONTOUR
10
140.033158
20
468.091579
30
0
42
-0.207987
0
VERTEX
8
CONTOUR
10
183.117419
20
567.185379
30
0
42
-0.393939
0
VERTEX
8
CONTOUR
10
1060.948897
20
567.185379
30
0
42
-0.207987
0
VERTEX
8
CONTOUR
10
1104.033158
20
468.091579
30
0
0
SEQEND
8
CONTOUR
0
POLYLINE
8
ASSEMBLY
66
1
70
1
10
0
20
0
30
0
0
VERTEX
8
ASSEMBLY
10
1138.987538
20
400
30
0
0
VERTEX
8
ASSEMBLY
10
622.033158
20
719.212267
30
0
0
VERTEX
8
ASSEMBLY
10
622.033158
20
954.268804
30
0
0
VERTEX
8
ASSEMBLY
10
1244.066316
20
570.171826
30
0
0
SEQEND
8
ASSEMBLY
0
POLYLINE
8
FINGER
66
1
70
0
10
0
20
0
30
0
0
VERTEX
8
FINGER
10
622.033158
20
740.091579
30
0
0
VERTEX
8
FINGER
10
622.033158
20
807.091579
30
0
0
SEQEND
8
FINGER
0
POLYLINE
8
ASSEMBLY
66
1
70
1
10
0
20
0
30
0
0
VERTEX
8
ASSEMBLY
10
622.033158
20
719.212267
30
0
0
VERTEX
8
ASSEMBLY
10
105.078778
20
400
30
0
0
VERTEX
8
ASSEMBLY
10
0
20
570.171826
30
0
0
VERTEX
8
ASSEMBLY
10
622.033158
20
954.268804
30
0
0
SEQEND
8
ASSEMBLY
0
TEXT
8
TEXT
10
1344.066316
20
935.768804
30
0
40
15
1
T - LEAF TOP
72
0
11
1344.066316
21
935.768804
31
0
73
0
0
TEXT
8
TEXT
10
1344.066316
20
913.768804
30
0
40
15
1
THREE-CENTRE W1200 RISE390 H2000 HINGE R
72
0
11
1344.066316
21
913.768804
31
0
73
0
0
TEXT
8
TEXT
10
1344.066316
20
891.768804
30
0
40
15
1
FACE 67 OFFSET 51 OUTER L1398.8 INNER L1188.3
72
0
11
1344.066316
21
891.768804
31
0
73
0
0
TEXT
8
TEXT
10
1344.066316
20
869.768804
30
0
40
15
1
CHAIN R202.5/710.5/202.5 L1398.8 180DEG: FEWEST 2 x board 200 L731.1 ROUGH 746.1 WASTE 62%
72
0
11
1344.066316
21
869.768804
31
0
73
0
0
TEXT
8
TEXT
10
1344.066316
20
847.768804
30
0
40
15
1
  NO ECONOMY ALT WITHIN 5 PIECES -> DEFAULT FEWEST
72
0
11
1344.066316
21
847.768804
31
0
73
0
0
TEXT
8
TEXT
10
1344.066316
20
825.768804
30
0
40
15
1
FINGER 15/16/3.8
72
0
11
1344.066316
21
825.768804
31
0
73
0
0
TEXT
8
TEXT
10
1344.066316
20
803.768804
30
0
40
15
1
ALLOWANCE 10 PER SIDE  LIMITS: OVERALL >= 450 (CLAMP)  SHORTER EDGE >= 400  STOCK MAX 200
72
0
11
1344.066316
21
803.768804
31
0
73
0
0
TEXT
8
TEXT
10
1344.066316
20
781.768804
30
0
40
15
1
CLAMPS (SUGGESTION): UNICLAMP 130 x 130, CLEARANCE 20 FROM THE END CUTS, JAWS 40-98, PIECE THICKNESS 57
72
0
11
1344.066316
21
781.768804
31
0
73
0
0
TEXT
8
TEXT
10
1344.066316
20
759.768804
30
0
40
15
1
CUT CODES: J = JOINT FROM SQUARE  Q = SQUARE (SPRINGING FACE ROUTED WITH THE CONTOUR)  A = APEX FROM SQUARE
72
0
11
1344.066316
21
759.768804
31
0
73
0
0
POLYLINE
8
PIECES
66
1
70
1
10
0
20
0
30
0
0
VERTEX
8
PIECES
10
557.10446
20
1154.268804
30
0
0
VERTEX
8
PIECES
10
85.961332
20
1154.268804
30
0
0
VERTEX
8
PIECES
10
0
20
1334.268804
30
0
0
VERTEX
8
PIECES
10
557.10446
20
1334.268804
30
0
0
SEQEND
8
PIECES
0
POLYLINE
8
CLAMPS
66
1
70
1
10
0
20
0
30
0
0
VERTEX
8
CLAMPS
10
109.022258
20
1179.268804
30
0
0
VERTEX
8
CLAMPS
10
239.022258
20
1179.268804
30
0
0
VERTEX
8
CLAMPS
10
239.022258
20
1309.268804
30
0
0
VERTEX
8
CLAMPS
10
109.022258
20
1309.268804
30
0
0
SEQEND
8
CLAMPS
0
POLYLINE
8
CLAMPS
66
1
70
1
10
0
20
0
30
0
0
VERTEX
8
CLAMPS
10
407.10446
20
1179.268804
30
0
0
VERTEX
8
CLAMPS
10
537.10446
20
1179.268804
30
0
0
VERTEX
8
CLAMPS
10
537.10446
20
1309.268804
30
0
0
VERTEX
8
CLAMPS
10
407.10446
20
1309.268804
30
0
0
SEQEND
8
CLAMPS
0
TEXT
8
TEXT
10
278.55223
20
1254.268804
30
0
40
15
1
T - FRAME HEAD P1 L557.1 x180
72
1
11
278.55223
21
1254.268804
31
0
73
2
0
TEXT
8
TEXT
10
278.55223
20
1164.268804
30
0
40
10
1
OUT 542.1 IN 456.1 CUT J25.5/Q FINGER ONE END
72
1
11
278.55223
21
1164.268804
31
0
73
2
0
POLYLINE
8
PIECES
66
1
70
1
10
0
20
0
30
0
0
VERTEX
8
PIECES
10
1289.786045
20
1154.268804
30
0
0
VERTEX
8
PIECES
10
821.019353
20
1154.268804
30
0
0
VERTEX
8
PIECES
10
757.10446
20
1334.268804
30
0
0
VERTEX
8
PIECES
10
1353.700939
20
1334.268804
30
0
0
SEQEND
8
PIECES
0
POLYLINE
8
CLAMPS
66
1
70
1
10
0
20
0
30
0
0
VERTEX
8
CLAMPS
10
847.142284
20
1179.268804
30
0
0
VERTEX
8
CLAMPS
10
977.142284
20
1179.268804
30
0
0
VERTEX
8
CLAMPS
10
977.142284
20
1309.268804
30
0
0
VERTEX
8
CLAMPS
10
847.142284
20
1309.268804
30
0
0
SEQEND
8
CLAMPS
0
POLYLINE
8
CLAMPS
66
1
70
1
10
0
20
0
30
0
0
VERTEX
8
CLAMPS
10
1133.663114
20
1179.268804
30
0
0
VERTEX
8
CLAMPS
10
1263.663114
20
1179.268804
30
0
0
VERTEX
8
CLAMPS
10
1263.663114
20
1309.268804
30
0
0
VERTEX
8
CLAMPS
10
1133.663114
20
1309.268804
30
0
0
SEQEND
8
CLAMPS
0
TEXT
8
TEXT
10
1055.402699
20
1254.268804
30
0
40
15
1
T - FRAME HEAD P2 L596.6 x180
72
1
11
1055.402699
21
1254.268804
31
0
73
2
0
TEXT
8
TEXT
10
1055.402699
20
1164.268804
30
0
40
10
1
OUT 566.6 IN 438.8 CUT J19.5/J19.5 FINGER BOTH ENDS
72
1
11
1055.402699
21
1164.268804
31
0
73
2
0
POLYLINE
8
PIECES
66
1
70
1
10
0
20
0
30
0
0
VERTEX
8
PIECES
10
2024.844066
20
1154.268804
30
0
0
VERTEX
8
PIECES
10
1553.700939
20
1154.268804
30
0
0
VERTEX
8
PIECES
10
1553.700939
20
1334.268804
30
0
0
VERTEX
8
PIECES
10
2110.805398
20
1334.268804
30
0
0
SEQEND
8
PIECES
0
POLYLINE
8
CLAMPS
66
1
70
1
10
0
20
0
30
0
0
VERTEX
8
CLAMPS
10
1573.700939
20
1179.268804
30
0
0
VERTEX
8
CLAMPS
10
1703.700939
20
1179.268804
30
0
0
VERTEX
8
CLAMPS
10
1703.700939
20
1309.268804
30
0
0
VERTEX
8
CLAMPS
10
1573.700939
20
1309.268804
30
0
0
SEQEND
8
CLAMPS
0
POLYLINE
8
CLAMPS
66
1
70
1
10
0
20
0
30
0
0
VERTEX
8
CLAMPS
10
1871.78314
20
1179.268804
30
0
0
VERTEX
8
CLAMPS
10
2001.78314
20
1179.268804
30
0
0
VERTEX
8
CLAMPS
10
2001.78314
20
1309.268804
30
0
0
VERTEX
8
CLAMPS
10
1871.78314
20
1309.268804
30
0
0
SEQEND
8
CLAMPS
0
TEXT
8
TEXT
10
1832.253168
20
1254.268804
30
0
40
15
1
T - FRAME HEAD P3 L557.1 x180
72
1
11
1832.253168
21
1254.268804
31
0
73
2
0
TEXT
8
TEXT
10
1832.253168
20
1164.268804
30
0
40
10
1
OUT 542.1 IN 456.1 CUT Q/J25.5 FINGER ONE END
72
1
11
1832.253168
21
1164.268804
31
0
73
2
0
POLYLINE
8
CONTOUR
66
1
70
1
10
0
20
0
30
0
0
VERTEX
8
CONTOUR
10
1273.534298
20
1598.013105
30
0
42
0.207987
0
VERTEX
8
CONTOUR
10
1192.930165
20
1783.402612
30
0
42
0.393939
0
VERTEX
8
CONTOUR
10
154.138432
20
1783.402612
30
0
42
0.207987
0
VERTEX
8
CONTOUR
10
73.534298
20
1598.013105
30
0
0
VERTEX
8
CONTOUR
10
141.534298
20
1598.013105
30
0
42
-0.207987
0
VERTEX
8
CONTOUR
10
200.51681
20
1733.672883
30
0
42
-0.393939
0
VERTEX
8
CONTOUR
10
1146.551786
20
1733.672883
30
0
42
-0.207987
0
VERTEX
8
CONTOUR
10
1205.534298
20
1598.013105
30
0
0
SEQEND
8
CONTOUR
0
POLYLINE
8
ASSEMBLY
66
1
70
1
10
0
20
0
30
0
0
VERTEX
8
ASSEMBLY
10
1219.619583
20
1534.268804
30
0
0
VERTEX
8
ASSEMBLY
10
897.508537
20
1857.24098
30
0
0
VERTEX
8
ASSEMBLY
10
964.254905
20
2045.215108
30
0
0
VERTEX
8
ASSEMBLY
10
1347.068597
20
1661.378004
30
0
0
SEQEND
8
ASSEMBLY
0
POLYLINE
8
FINGER
66
1
70
0
10
0
20
0
30
0
0
VERTEX
8
FINGER
10
905.602035
20
1880.034253
30
0
0
VERTEX
8
FINGER
10
928.355793
20
1944.11441
30
0
0
SEQEND
8
FINGER
0
POLYLINE
8
ASSEMBLY
66
1
70
1
10
0
20
0
30
0
0
VERTEX
8
ASSEMBLY
10
892.917645
20
1844.311903
30
0
0
VERTEX
8
ASSEMBLY
10
454.150952
20
1844.311903
30
0
0
VERTEX
8
ASSEMBLY
10
390.236059
20
2024.311903
30
0
0
VERTEX
8
ASSEMBLY
10
956.832538
20
2024.311903
30
0
0
SEQEND
8
ASSEMBLY
0
POLYLINE
8
FINGER
66
1
70
0
10
0
20
0
30
0
0
VERTEX
8
FINGER
10
441.466562
20
1880.034253
30
0
0
VERTEX
8
FINGER
10
418.712804
20
1944.11441
30
0
0
SEQEND
8
FINGER
0
POLYLINE
8
ASSEMBLY
66
1
70
1
10
0
20
0
30
0
0
VERTEX
8
ASSEMBLY
10
449.56006
20
1857.24098
30
0
0
VERTEX
8
ASSEMBLY
10
127.449014
20
1534.268804
30
0
0
VERTEX
8
ASSEMBLY
10
0
20
1661.378004
30
0
0
VERTEX
8
ASSEMBLY
10
382.813691
20
2045.215108
30
0
0
SEQEND
8
ASSEMBLY
0
TEXT
8
TEXT
10
1447.068597
20
2026.715108
30
0
40
15
1
T - FRAME HEAD
72
0
11
1447.068597
21
2026.715108
31
0
73
0
0
TEXT
8
TEXT
10
1447.068597
20
2004.715108
30
0
40
15
1
THREE-CENTRE W1200 RISE390 H2000 HINGE R
72
0
11
1447.068597
21
2004.715108
31
0
73
0
0
TEXT
8
TEXT
10
1447.068597
20
1982.715108
30
0
40
15
1
FACE 68 OFFSET 0 OUTER L1559 INNER L1345.4
72
0
11
1447.068597
21
1982.715108
31
0
73
0
0
TEXT
8
TEXT
10
1447.068597
20
1960.715108
30
0
40
15
1
CHAIN R253.5/761.5/253.5 L1559 180DEG: FEWEST 2 x board 200 L811 ROUGH 826 WASTE 61%
72
0
11
1447.068597
21
1960.715108
31
0
73
0
0
TEXT
8
TEXT
10
1447.068597
20
1938.715108
30
0
40
15
1
  ECONOMY ALT 3 x board 180 L566.6 ROUGH 596.6 WASTE 59% -> DEFAULT ECONOMY (THRESHOLD 45%)
72
0
11
1447.068597
21
1938.715108
31
0
73
0
0
TEXT
8
TEXT
10
1447.068597
20
1916.715108
30
0
40
15
1
FINGER 15/16/3.8
72
0
11
1447.068597
21
1916.715108
31
0
73
0
0
TEXT
8
TEXT
10
1447.068597
20
1894.715108
30
0
40
15
1
ALLOWANCE 10 PER SIDE  LIMITS: OVERALL >= 450 (CLAMP)  SHORTER EDGE >= 400  STOCK MAX 200
72
0
11
1447.068597
21
1894.715108
31
0
73
0
0
TEXT
8
TEXT
10
1447.068597
20
1872.715108
30
0
40
15
1
CLAMPS (SUGGESTION): UNICLAMP 130 x 130, CLEARANCE 20 FROM THE END CUTS, JAWS 40-98, PIECE THICKNESS 93
72
0
11
1447.068597
21
1872.715108
31
0
73
0
0
TEXT
8
TEXT
10
1447.068597
20
1850.715108
30
0
40
15
1
CUT CODES: J = JOINT FROM SQUARE  Q = SQUARE (SPRINGING FACE ROUTED WITH THE CONTOUR)  A = APEX FROM SQUARE
72
0
11
1447.068597
21
1850.715108
31
0
73
0
0
POLYLINE
8
FIT
66
1
70
1
10
0
20
0
30
0
0
VERTEX
8
FIT
10
1200
20
2245.215108
30
0
42
0.207987
0
VERTEX
8
FIT
10
1119.395866
20
2430.604616
30
0
42
0.393939
0
VERTEX
8
FIT
10
80.604134
20
2430.604616
30
0
42
0.207987
0
VERTEX
8
FIT
10
0
20
2245.215108
30
0
0
VERTEX
8
FIT
10
68
20
2245.215108
30
0
42
-0.207987
0
VERTEX
8
FIT
10
126.982512
20
2380.874886
30
0
42
-0.393939
0
VERTEX
8
FIT
10
1073.017488
20
2380.874886
30
0
42
-0.207987
0
VERTEX
8
FIT
10
1132
20
2245.215108
30
0
0
SEQEND
8
FIT
0
POLYLINE
8
FIT
66
1
70
1
10
0
20
0
30
0
0
VERTEX
8
FIT
10
1149
20
2245.215108
30
0
42
0.207987
0
VERTEX
8
FIT
10
1084.612083
20
2393.307318
30
0
42
0.393939
0
VERTEX
8
FIT
10
115.387917
20
2393.307318
30
0
42
0.207987
0
VERTEX
8
FIT
10
51
20
2245.215108
30
0
0
VERTEX
8
FIT
10
118
20
2245.215108
30
0
42
-0.207987
0
VERTEX
8
FIT
10
161.084261
20
2344.308908
30
0
42
-0.393939
0
VERTEX
8
FIT
10
1038.915739
20
2344.308908
30
0
42
-0.207987
0
VERTEX
8
FIT
10
1082
20
2245.215108
30
0
0
SEQEND
8
FIT
0
POLYLINE
8
FIT
66
1
70
1
10
0
20
0
30
0
0
VERTEX
8
FIT
10
1094.5
20
2245.215108
30
0
42
0.207987
0
VERTEX
8
FIT
10
1047.441176
20
2353.450403
30
0
42
0.393939
0
VERTEX
8
FIT
10
152.558824
20
2353.450403
30
0
42
0.207987
0
VERTEX
8
FIT
10
105.5
20
2245.215108
30
0
0
SEQEND
8
FIT
0
POLYLINE
8
FIT
66
1
70
0
10
0
20
0
30
0
0
VERTEX
8
FIT
10
1153
20
2245.215108
30
0
42
0.024218
0
VERTEX
8
FIT
10
1152.032234
20
2265.183855
30
0
0
SEQEND
8
FIT
0
POLYLINE
8
FIT
66
1
70
0
10
0
20
0
30
0
0
VERTEX
8
FIT
10
1150.824653
20
2275.109691
30
0
42
0.024218
0
VERTEX
8
FIT
10
1146.976247
20
2294.727978
30
0
0
SEQEND
8
FIT
0
POLYLINE
8
FIT
66
1
70
0
10
0
20
0
30
0
0
VERTEX
8
FIT
10
1144.344445
20
2304.374432
30
0
42
0.024218
0
VERTEX
8
FIT
10
1137.69648
20
2323.228927
30
0
0
SEQEND
8
FIT
0
POLYLINE
8
FIT
66
1
70
0
10
0
20
0
30
0
0
VERTEX
8
FIT
10
1133.695905
20
2332.392761
30
0
42
0.024218
0
VERTEX
8
FIT
10
1124.388446
20
2350.086224
30
0
0
SEQEND
8
FIT
0
POLYLINE
8
FIT
66
1
70
0
10
0
20
0
30
0
0
VERTEX
8
FIT
10
1119.103385
20
2358.574368
30
0
42
0.024218
0
VERTEX
8
FIT
10
1107.332527
20
2374.734019
30
0
0
SEQEND
8
FIT
0
POLYLINE
8
FIT
66
1
70
0
10
0
20
0
30
0
0
VERTEX
8
FIT
10
1100.874329
20
2382.367638
30
0
42
0.02347
0
VERTEX
8
FIT
10
1087.340223
20
2396.232597
30
0
0
SEQEND
8
FIT
0
POLYLINE
8
FIT
66
1
70
0
10
0
20
0
30
0
0
VERTEX
8
FIT
10
1087.340223
20
2396.232597
30
0
42
0.006998
0
VERTEX
8
FIT
10
1072.524851
20
2409.666831
30
0
0
SEQEND
8
FIT
0
POLYLINE
8
FIT
66
1
70
0
10
0
20
0
30
0
0
VERTEX
8
FIT
10
1064.977614
20
2416.227134
30
0
42
0.006998
0
VERTEX
8
FIT
10
1049.611426
20
2429.027688
30
0
0
SEQEND
8
FIT
0
POLYLINE
8
FIT
66
1
70
0
10
0
20
0
30
0
0
VERTEX
8
FIT
10
1041.795486
20
2435.265431
30
0
42
0.006998
0
VERTEX
8
FIT
10
1025.905564
20
2447.409741
30
0
0
SEQEND
8
FIT
0
POLYLINE
8
FIT
66
1
70
0
10
0
20
0
30
0
0
VERTEX
8
FIT
10
1017.834696
20
2453.31393
30
0
42
0.006998
0
VERTEX
8
FIT
10
1001.449046
20
2464.780594
30
0
0
SEQEND
8
FIT
0
POLYLINE
8
FIT
66
1
70
0
10
0
20
0
30
0
0
VERTEX
8
FIT
10
993.137475
20
2470.340823
30
0
42
0.006998
0
VERTEX
8
FIT
10
976.284977
20
2481.10963
30
0
0
SEQEND
8
FIT
0
POLYLINE
8
FIT
66
1
70
0
10
0
20
0
30
0
0
VERTEX
8
FIT
10
967.747351
20
2486.316099
30
0
42
0.006998
0
VERTEX
8
FIT
10
950.457708
20
2496.36807
30
0
0
SEQEND
8
FIT
0
POLYLINE
8
FIT
66
1
70
0
10
0
20
0
30
0
0
VERTEX
8
FIT
10
941.709076
20
2501.211602
30
0
42
0.006998
0
VERTEX
8
FIT
10
924.012759
20
2510.52902
30
0
0
SEQEND
8
FIT
0
POLYLINE
8
FIT
66
1
70
0
10
0
20
0
30
0
0
VERTEX
8
FIT
10
915.068541
20
2515.001079
30
0
42
0.006998
0
VERTEX
8
FIT
10
896.996741
20
2523.567522
30
0
0
SEQEND
8
FIT
0
POLYLINE
8
FIT
66
1
70
0
10
0
20
0
30
0
0
VERTEX
8
FIT
10
887.872699
20
2527.660226
30
0
42
0.006998
0
VERTEX
8
FIT
10
869.457267
20
2535.460595
30
0
0
SEQEND
8
FIT
0
POLYLINE
8
FIT
66
1
70
0
10
0
20
0
30
0
0
VERTEX
8
FIT
10
860.169484
20
2539.166732
30
0
42
0.006998
0
VERTEX
8
FIT
10
841.442877
20
2546.187279
30
0
0
SEQEND
8
FIT
0
POLYLINE
8
FIT
66
1
70
0
10
0
20
0
30
0
0
VERTEX
8
FIT
10
832.007721
20
2549.500315
30
0
42
0.006998
0
VERTEX
8
FIT
10
813.002945
20
2555.728667
30
0
0
SEQEND
8
FIT
0
POLYLINE
8
FIT
66
1
70
0
10
0
20
0
30
0
0
VERTEX
8
FIT
10
803.437047
20
2558.642764
30
0
42
0.006998
0
VERTEX
8
FIT
10
784.187597
20
2564.067943
30
0
0
SEQEND
8
FIT
0
POLYLINE
8
FIT
66
1
70
0
10
0
20
0
30
0
0
VERTEX
8
FIT
10
774.507816
20
2566.577964
30
0
42
0.006998
0
VERTEX
8
FIT
10
755.04762
20
2571.190409
30
0
0
SEQEND
8
FIT
0
POLYLINE
8
FIT
66
1
70
0
10
0
20
0
30
0
0
VERTEX
8
FIT
10
745.271017
20
2573.29193
30
0
42
0.006998
0
VERTEX
8
FIT
10
725.634372
20
2577.083512
30
0
0
SEQEND
8
FIT
0
POLYLINE
8
FIT
66
1
70
0
10
0
20
0
30
0
0
VERTEX
8
FIT
10
715.778178
20
2578.772829
30
0
42
0.006998
0
VERTEX
8
FIT
10
695.999695
20
2581.736864
30
0
0
SEQEND
8
FIT
0
POLYLINE
8
FIT
66
1
70
0
10
0
20
0
30
0
0
VERTEX
8
FIT
10
686.081281
20
2583.011001
30
0
42
0.006998
0
VERTEX
8
FIT
10
666.195819
20
2585.142266
30
0
0
SEQEND
8
FIT
0
POLYLINE
8
FIT
66
1
70
0
10
0
20
0
30
0
0
VERTEX
8
FIT
10
656.232666
20
2585.998976
30
0
42
0.006998
0
VERTEX
8
FIT
10
636.275273
20
2587.293713
30
0
0
SEQEND
8
FIT
0
POLYLINE
8
FIT
66
1
70
0
10
0
20
0
30
0
0
VERTEX
8
FIT
10
626.284941
20
2587.731487
30
0
42
0.006998
0
VERTEX
8
FIT
10
606.290792
20
2588.187416
30
0
0
SEQEND
8
FIT
0
POLYLINE
8
FIT
66
1
70
0
10
0
20
0
30
0
0
VERTEX
8
FIT
10
596.29089
20
2588.205482
30
0
42
0.006998
0
VERTEX
8
FIT
10
576.295223
20
2587.821798
30
0
0
SEQEND
8
FIT
0
POLYLINE
8
FIT
66
1
70
0
10
0
20
0
30
0
0
VERTEX
8
FIT
10
566.303375
20
2587.420124
30
0
42
0.006998
0
VERTEX
8
FIT
10
546.341434
20
2586.197504
30
0
0
SEQEND
8
FIT
0
POLYLINE
8
FIT
66
1
70
0
10
0
20
0
30
0
0
VERTEX
8
FIT
10
536.375251
20
2585.376797
30
0
42
0.006998
0
VERTEX
8
FIT
10
516.482218
20
2583.317396
30
0
0
SEQEND
8
FIT
0
POLYLINE
8
FIT
66
1
70
0
10
0
20
0
30
0
0
VERTEX
8
FIT
10
506.559265
20
2582.079105
30
0
42
0.006998
0
VERTEX
8
FIT
10
486.770202
20
2579.186552
30
0
0
SEQEND
8
FIT
0
POLYLINE
8
FIT
66
1
70
0
10
0
20
0
30
0
0
VERTEX
8
FIT
10
476.907968
20
2577.532857
30
0
42
0.006998
0
VERTEX
8
FIT
10
457.257752
20
2573.812251
30
0
0
SEQEND
8
FIT
0
POLYLINE
8
FIT
66
1
70
0
10
0
20
0
30
0
0
VERTEX
8
FIT
10
447.473619
20
2571.746068
30
0
42
0.006998
0
VERTEX
8
FIT
10
427.996884
20
2567.203965
30
0
0
SEQEND
8
FIT
0
POLYLINE
8
FIT
66
1
70
0
10
0
20
0
30
0
0
VERTEX
8
FIT
10
418.308097
20
2564.728935
30
0
42
0.006998
0
VERTEX
8
FIT
10
399.039171
20
2559.373343
30
0
0
SEQEND
8
FIT
0
POLYLINE
8
FIT
66
1
70
0
10
0
20
0
30
0
0
VERTEX
8
FIT
10
389.462806
20
2556.493828
30
0
42
0.006998
0
VERTEX
8
FIT
10
370.43565
20
2550.334184
30
0
0
SEQEND
8
FIT
0
POLYLINE
8
FIT
66
1
70
0
10
0
20
0
30
0
0
VERTEX
8
FIT
10
360.988586
20
2547.05526
30
0
42
0.006998
0
VERTEX
8
FIT
10
342.236735
20
2540.102421
30
0
0
SEQEND
8
FIT
0
POLYLINE
8
FIT
66
1
70
0
10
0
20
0
30
0
0
VERTEX
8
FIT
10
332.935621
20
2536.429867
30
0
42
0.006998
0
VERTEX
8
FIT
10
314.492126
20
2528.696087
30
0
0
SEQEND
8
FIT
0
POLYLINE
8
FIT
66
1
70
0
10
0
20
0
30
0
0
VERTEX
8
FIT
10
305.353356
20
2524.636375
30
0
42
0.006998
0
VERTEX
8
FIT
10
287.250722
20
2516.135285
30
0
0
SEQEND
8
FIT
0
POLYLINE
8
FIT
66
1
70
0
10
0
20
0
30
0
0
VERTEX
8
FIT
10
278.290403
20
2511.695572
30
0
42
0.006998
0
VERTEX
8
FIT
10
260.560537
20
2502.442155
30
0
0
SEQEND
8
FIT
0
POLYLINE
8
FIT
66
1
70
0
10
0
20
0
30
0
0
VERTEX
8
FIT
10
251.794462
20
2497.630264
30
0
42
0.006998
0
VERTEX
8
FIT
10
234.468612
20
2487.640829
30
0
0
SEQEND
8
FIT
0
POLYLINE
8
FIT
66
1
70
0
10
0
20
0
30
0
0
VERTEX
8
FIT
10
225.91223
20
2482.465242
30
0
42
0.006998
0
VERTEX
8
FIT
10
209.020933
20
2471.757396
30
0
0
SEQEND
8
FIT
0
POLYLINE
8
FIT
66
1
70
0
10
0
20
0
30
0
0
VERTEX
8
FIT
10
200.689326
20
2466.227234
30
0
42
0.006998
0
VERTEX
8
FIT
10
184.262353
20
2454.819849
30
0
0
SEQEND
8
FIT
0
POLYLINE
8
FIT
66
1
70
0
10
0
20
0
30
0
0
VERTEX
8
FIT
10
176.170204
20
2448.94486
30
0
42
0.006998
0
VERTEX
8
FIT
10
160.236507
20
2436.858042
30
0
0
SEQEND
8
FIT
0
POLYLINE
8
FIT
66
1
70
0
10
0
20
0
30
0
0
VERTEX
8
FIT
10
152.398079
20
2430.648579
30
0
42
0.006998
0
VERTEX
8
FIT
10
136.985741
20
2417.90363
30
0
0
SEQEND
8
FIT
0
POLYLINE
8
FIT
66
1
70
0
10
0
20
0
30
0
0
VERTEX
8
FIT
10
129.41485
20
2411.370639
30
0
42
0.006998
0
VERTEX
8
FIT
10
114.551036
20
2397.990023
30
0
0
SEQEND
8
FIT
0
POLYLINE
8
FIT
66
1
70
0
10
0
20
0
30
0
0
VERTEX
8
FIT
10
112.659777
20
2396.232597
30
0
42
0.024218
0
VERTEX
8
FIT
10
98.716293
20
2381.905466
30
0
0
SEQEND
8
FIT
0
POLYLINE
8
FIT
66
1
70
0
10
0
20
0
30
0
0
VERTEX
8
FIT
10
92.280947
20
2374.252572
30
0
42
0.024218
0
VERTEX
8
FIT
10
80.558458
20
2358.0578
30
0
0
SEQEND
8
FIT
0
POLYLINE
8
FIT
66
1
70
0
10
0
20
0
30
0
0
VERTEX
8
FIT
10
75.298799
20
2349.553892
30
0
42
0.024218
0
VERTEX
8
FIT
10
66.044282
20
2331.832681
30
0
0
SEQEND
8
FIT
0
POLYLINE
8
FIT
66
1
70
0
10
0
20
0
30
0
0
VERTEX
8
FIT
10
62.071123
20
2322.656926
30
0
42
0.024218
0
VERTEX
8
FIT
10
55.479561
20
2303.782639
30
0
0
SEQEND
8
FIT
0
POLYLINE
8
FIT
66
1
70
0
10
0
20
0
30
0
0
VERTEX
8
FIT
10
52.876612
20
2294.128359
30
0
42
0.024218
0
VERTEX
8
FIT
10
49.086879
20
2274.498654
30
0
0
SEQEND
8
FIT
0
POLYLINE
8
FIT
66
1
70
0
10
0
20
0
30
0
0
VERTEX
8
FIT
10
47.908981
20
2264.569252
30
0
42
0.02347
0
VERTEX
8
FIT
10
47
20
2245.215108
30
0
0
SEQEND
8
FIT
0
TEXT
8
TEXT
10
1300
20
2569.705482
30
0
40
15
1
T - FIT (ASSEMBLY, NOT A TOOLPATH)
72
0
11
1300
21
2569.705482
31
0
73
0
0
TEXT
8
TEXT
10
1300
20
2547.705482
30
0
40
15
1
GAP 4 LAP 17 (REBATE)
72
0
11
1300
21
2547.705482
31
0
73
0
0
TEXT
8
TEXT
10
1300
20
2525.705482
30
0
40
15
1
FRAME R253.5/761.5/253.5 / 185.5/693.5/185.5  REBATE WALL R206.5/714.5/206.5 (LAND 47, DASHED)
72
0
11
1300
21
2525.705482
31
0
73
0
0
TEXT
8
TEXT
10
1300
20
2503.705482
30
0
40
15
1
LEAF R202.5/710.5/202.5 / 135.5/643.5/135.5  GLASS R148/656/148
72
0
11
1300
21
2503.705482
31
0
73
0
0
ENDSEC
0
EOF
