0
SECTION
2
HEADER
9
$ACADVER
1
AC1009
0
ENDSEC
0
SECTION
2
TABLES
0
TABLE
2
LAYER
70
8
0
LAYER
2
0
70
0
62
7
6
CONTINUOUS
0
LAYER
2
FIT
70
0
62
4
6
CONTINUOUS
0
LAYER
2
CONTOUR
70
0
62
7
6
CONTINUOUS
0
LAYER
2
ASSEMBLY
70
0
62
8
6
CONTINUOUS
0
LAYER
2
PIECES
70
0
62
5
6
CONTINUOUS
0
LAYER
2
FINGER
70
0
62
1
6
CONTINUOUS
0
LAYER
2
CLAMPS
70
0
62
3
6
CONTINUOUS
0
LAYER
2
TEXT
70
0
62
94
6
CONTINUOUS
0
ENDTAB
0
ENDSEC
0
SECTION
2
ENTITIES
0
POLYLINE
8
PIECES
66
1
70
1
10
0
20
0
30
0
0
VERTEX
8
PIECES
10
596.59674
20
0
30
0
0
VERTEX
8
PIECES
10
130.777655
20
0
30
0
0
VERTEX
8
PIECES
10
0
20
180
30
0
0
VERTEX
8
PIECES
10
727.374395
20
180
30
0
0
SEQEND
8
PIECES
0
POLYLINE
8
CLAMPS
66
1
70
1
10
0
20
0
30
0
0
VERTEX
8
CLAMPS
10
147.614092
20
25
30
0
0
VERTEX
8
CLAMPS
10
277.614092
20
25
30
0
0
VERTEX
8
CLAMPS
10
277.614092
20
155
30
0
0
VERTEX
8
CLAMPS
10
147.614092
20
155
30
0
0
SEQEND
8
CLAMPS
0
POLYLINE
8
CLAMPS
66
1
70
1
10
0
20
0
30
0
0
VERTEX
8
CLAMPS
10
449.760303
20
25
30
0
0
VERTEX
8
CLAMPS
10
579.760303
20
25
30
0
0
VERTEX
8
CLAMPS
10
579.760303
20
155
30
0
0
VERTEX
8
CLAMPS
10
449.760303
20
155
30
0
0
SEQEND
8
CLAMPS
0
TEXT
8
TEXT
10
363.687197
20
100
30
0
40
15
1
CIR - LEAF RING P1 L727.4 x180
72
1
11
363.687197
21
100
31
0
73
2
0
TEXT
8
TEXT
10
363.687197
20
10
30
0
40
10
1
OUT 697.4 IN 435.8 CUT J36/J36 FINGER BOTH ENDS
72
1
11
363.687197
21
10
31
0
73
2
0
POLYLINE
8
PIECES
66
1
70
1
10
0
20
0
30
0
0
VERTEX
8
PIECES
10
1523.971135
20
0
30
0
0
VERTEX
8
PIECES
10
1058.15205
20
0
30
0
0
VERTEX
8
PIECES
10
927.374395
20
180
30
0
0
VERTEX
8
PIECES
10
1654.74879
20
180
30
0
0
SEQEND
8
PIECES
0
POLYLINE
8
CLAMPS
66
1
70
1
10
0
20
0
30
0
0
VERTEX
8
CLAMPS
10
1074.988487
20
25
30
0
0
VERTEX
8
CLAMPS
10
1204.988487
20
25
30
0
0
VERTEX
8
CLAMPS
10
1204.988487
20
155
30
0
0
VERTEX
8
CLAMPS
10
1074.988487
20
155
30
0
0
SEQEND
8
CLAMPS
0
POLYLINE
8
CLAMPS
66
1
70
1
10
0
20
0
30
0
0
VERTEX
8
CLAMPS
10
1377.134698
20
25
30
0
0
VERTEX
8
CLAMPS
10
1507.134698
20
25
30
0
0
VERTEX
8
CLAMPS
10
1507.134698
20
155
30
0
0
VERTEX
8
CLAMPS
10
1377.134698
20
155
30
0
0
SEQEND
8
CLAMPS
0
TEXT
8
TEXT
10
1291.061592
20
100
30
0
40
15
1
CIR - LEAF RING P2 L727.4 x180
72
1
11
1291.061592
21
100
31
0
73
2
0
TEXT
8
TEXT
10
1291.061592
20
10
30
0
40
10
1
OUT 697.4 IN 435.8 CUT J36/J36 FINGER BOTH ENDS
72
1
11
1291.061592
21
10
31
0
73
2
0
POLYLINE
8
PIECES
66
1
70
1
10
0
20
0
30
0
0
VERTEX
8
PIECES
10
2451.345529
20
0
30
0
0
VERTEX
8
PIECES
10
1985.526445
20
0
30
0
0
VERTEX
8
PIECES
10
1854.74879
20
180
30
0
0
VERTEX
8
PIECES
10
2582.123184
20
180
30
0
0
SEQEND
8
PIECES
0
POLYLINE
8
CLAMPS
66
1
70
1
10
0
20
0
30
0
0
VERTEX
8
CLAMPS
10
2002.362882
20
25
30
0
0
VERTEX
8
CLAMPS
10
2132.362882
20
25
30
0
0
VERTEX
8
CLAMPS
10
2132.362882
20
155
30
0
0
VERTEX
8
CLAMPS
10
2002.362882
20
155
30
0
0
SEQEND
8
CLAMPS
0
POLYLINE
8
CLAMPS
66
1
70
1
10
0
20
0
30
0
0
VERTEX
8
CLAMPS
10
2304.509093
20
25
30
0
0
VERTEX
8
CLAMPS
10
2434.509093
20
25
30
0
0
VERTEX
8
CLAMPS
10
2434.509093
20
155
30
0
0
VERTEX
8
CLAMPS
10
2304.509093
20
155
30
0
0
SEQEND
8
CLAMPS
0
TEXT
8
TEXT
10
2218.435987
20
100
30
0
40
15
1
CIR - LEAF RING P3 L727.4 x180
72
1
11
2218.435987
21
100
31
0
73
2
0
TEXT
8
TEXT
10
2218.435987
20
10
30
0
40
10
1
OUT 697.4 IN 435.8 CUT J36/J36 FINGER BOTH ENDS
72
1
11
2218.435987
21
10
31
0
73
2
0
POLYLINE
8
PIECES
66
1
70
1
10
0
20
0
30
0
0
VERTEX
8
PIECES
10
3378.719924
20
0
30
0
0
VERTEX
8
PIECES
10
2912.90084
20
0
30
0
0
VERTEX
8
PIECES
10
2782.123184
20
180
30
0
0
VERTEX
8
PIECES
10
3509.497579
20
180
30
0
0
SEQEND
8
PIECES
0
POLYLINE
8
CLAMPS
66
1
70
1
10
0
20
0
30
0
0
VERTEX
8
CLAMPS
10
2929.737276
20
25
30
0
0
VERTEX
8
CLAMPS
10
3059.737276
20
25
30
0
0
VERTEX
8
CLAMPS
10
3059.737276
20
155
30
0
0
VERTEX
8
CLAMPS
10
2929.737276
20
155
30
0
0
SEQEND
8
CLAMPS
0
POLYLINE
8
CLAMPS
66
1
70
1
10
0
20
0
30
0
0
VERTEX
8
CLAMPS
10
3231.883487
20
25
30
0
0
VERTEX
8
CLAMPS
10
3361.883487
20
25
30
0
0
VERTEX
8
CLAMPS
10
3361.883487
20
155
30
0
0
VERTEX
8
CLAMPS
10
3231.883487
20
155
30
0
0
SEQEND
8
CLAMPS
0
TEXT
8
TEXT
10
3145.810382
20
100
30
0
40
15
1
CIR - LEAF RING P4 L727.4 x180
72
1
11
3145.810382
21
100
31
0
73
2
0
TEXT
8
TEXT
10
3145.810382
20
10
30
0
40
10
1
OUT 697.4 IN 435.8 CUT J36/J36 FINGER BOTH ENDS
72
1
11
3145.810382
21
10
31
0
73
2
0
POLYLINE
8
PIECES
66
1
70
1
10
0
20
0
30
0
0
VERTEX
8
PIECES
10
4306.094319
20
0
30
0
0
VERTEX
8
PIECES
10
3840.275234
20
0
30
0
0
VERTEX
8
PIECES
10
3709.497579
20
180
30
0
0
VERTEX
8
PIECES
10
4436.871974
20
180
30
0
0
SEQEND
8
PIECES
0
POLYLINE
8
CLAMPS
66
1
70
1
10
0
20
0
30
0
0
VERTEX
8
CLAMPS
10
3857.111671
20
25
30
0
0
VERTEX
8
CLAMPS
10
3987.111671
20
25
30
0
0
VERTEX
8
CLAMPS
10
3987.111671
20
155
30
0
0
VERTEX
8
CLAMPS
10
3857.111671
20
155
30
0
0
SEQEND
8
CLAMPS
0
POLYLINE
8
CLAMPS
66
1
70
1
10
0
20
0
30
0
0
VERTEX
8
CLAMPS
10
4159.257882
20
25
30
0
0
VERTEX
8
CLAMPS
10
4289.257882
20
25
30
0
0
VERTEX
8
CLAMPS
10
4289.257882
20
155
30
0
0
VERTEX
8
CLAMPS
10
4159.257882
20
155
30
0
0
SEQEND
8
CLAMPS
0
TEXT
8
TEXT
10
4073.184777
20
100
30
0
40
15
1
CIR - LEAF RING P5 L727.4 x180
72
1
11
4073.184777
21
100
31
0
73
2
0
TEXT
8
TEXT
10
4073.184777
20
10
30
0
40
10
1
OUT 697.4 IN 435.8 CUT J36/J36 FINGER BOTH ENDS
72
1
11
4073.184777
21
10
31
0
73
2
0
POLYLINE
8
CONTOUR
66
1
70
1
10
0
20
0
30
0
0
VERTEX
8
CONTOUR
10
939.926754
20
944.187737
30
0
42
1
0
VERTEX
8
CONTOUR
10
19.926754
20
944.187737
30
0
42
1
0
VERTEX
8
CONTOUR
10
939.926754
20
944.187737
30
0
0
VERTEX
8
CONTOUR
10
872.926754
20
944.187737
30
0
42
-1
0
VERTEX
8
CONTOUR
10
86.926754
20
944.187737
30
0
42
-1
0
VERTEX
8
CONTOUR
10
872.926754
20
944.187737
30
0
0
SEQEND
8
CONTOUR
0
POLYLINE
8
ASSEMBLY
66
1
70
1
10
0
20
0
30
0
0
VERTEX
8
ASSEMBLY
10
850.656611
20
944.187737
30
0
0
VERTEX
8
ASSEMBLY
10
594.48858
20
1296.772783
30
0
0
VERTEX
8
ASSEMBLY
10
663.242463
20
1508.375474
30
0
0
VERTEX
8
ASSEMBLY
10
1073.148847
20
944.187737
30
0
0
SEQEND
8
ASSEMBLY
0
POLYLINE
8
FINGER
66
1
70
0
10
0
20
0
30
0
0
VERTEX
8
FINGER
10
872.926754
20
944.187737
30
0
0
VERTEX
8
FINGER
10
939.926754
20
944.187737
30
0
0
SEQEND
8
FINGER
0
POLYLINE
8
FINGER
66
1
70
0
10
0
20
0
30
0
0
VERTEX
8
FINGER
10
601.370433
20
1317.952948
30
0
0
VERTEX
8
FINGER
10
622.074572
20
1381.673734
30
0
0
SEQEND
8
FINGER
0
POLYLINE
8
ASSEMBLY
66
1
70
1
10
0
20
0
30
0
0
VERTEX
8
ASSEMBLY
10
594.48858
20
1296.772783
30
0
0
VERTEX
8
ASSEMBLY
10
180
20
1162.097279
30
0
0
VERTEX
8
ASSEMBLY
10
0
20
1292.874934
30
0
0
VERTEX
8
ASSEMBLY
10
663.242463
20
1508.375474
30
0
0
SEQEND
8
ASSEMBLY
0
POLYLINE
8
FINGER
66
1
70
0
10
0
20
0
30
0
0
VERTEX
8
FINGER
10
161.983076
20
1175.187341
30
0
0
VERTEX
8
FINGER
10
107.778937
20
1214.568953
30
0
0
SEQEND
8
FINGER
0
POLYLINE
8
ASSEMBLY
66
1
70
1
10
0
20
0
30
0
0
VERTEX
8
ASSEMBLY
10
180
20
1162.097279
30
0
0
VERTEX
8
ASSEMBLY
10
180
20
726.278194
30
0
0
VERTEX
8
ASSEMBLY
10
0
20
595.500539
30
0
0
VERTEX
8
ASSEMBLY
10
0
20
1292.874934
30
0
0
SEQEND
8
ASSEMBLY
0
POLYLINE
8
FINGER
66
1
70
0
10
0
20
0
30
0
0
VERTEX
8
FINGER
10
161.983076
20
713.188133
30
0
0
VERTEX
8
FINGER
10
107.778937
20
673.806521
30
0
0
SEQEND
8
FINGER
0
POLYLINE
8
ASSEMBLY
66
1
70
1
10
0
20
0
30
0
0
VERTEX
8
ASSEMBLY
10
180
20
726.278194
30
0
0
VERTEX
8
ASSEMBLY
10
594.48858
20
591.602691
30
0
0
VERTEX
8
ASSEMBLY
10
663.242463
20
380
30
0
0
VERTEX
8
ASSEMBLY
10
0
20
595.500539
30
0
0
SEQEND
8
ASSEMBLY
0
POLYLINE
8
FINGER
66
1
70
0
10
0
20
0
30
0
0
VERTEX
8
FINGER
10
601.370433
20
570.422526
30
0
0
VERTEX
8
FINGER
10
622.074572
20
506.701739
30
0
0
SEQEND
8
FINGER
0
POLYLINE
8
ASSEMBLY
66
1
70
1
10
0
20
0
30
0
0
VERTEX
8
ASSEMBLY
10
594.48858
20
591.602691
30
0
0
VERTEX
8
ASSEMBLY
10
850.656611
20
944.187737
30
0
0
VERTEX
8
ASSEMBLY
10
1073.148847
20
944.187737
30
0
0
VERTEX
8
ASSEMBLY
10
663.242463
20
380
30
0
0
SEQEND
8
ASSEMBLY
0
POLYLINE
8
FINGER
66
1
70
0
10
0
20
0
30
0
0
VERTEX
8
FINGER
10
872.926754
20
944.187737
30
0
0
VERTEX
8
FINGER
10
939.926754
20
944.187737
30
0
0
SEQEND
8
FINGER
0
TEXT
8
TEXT
10
1173.148847
20
1489.875474
30
0
40
15
1
CIR - LEAF RING
72
0
11
1173.148847
21
1489.875474
31
0
73
0
0
TEXT
8
TEXT
10
1173.148847
20
1467.875474
30
0
40
15
1
CIRCLE W1000 RISE500 H1000 FIXED LEAF
72
0
11
1173.148847
21
1467.875474
31
0
73
0
0
TEXT
8
TEXT
10
1173.148847
20
1445.875474
30
0
40
15
1
FACE 67 OFFSET 40 OUTER L2890.3 INNER L2469.3
72
0
11
1173.148847
21
1445.875474
31
0
73
0
0
TEXT
8
TEXT
10
1173.148847
20
1423.875474
30
0
40
15
1
RING R460 L2890.3 360DEG: FEWEST 4 x board 200 L940.8 ROUGH 970.8 WASTE 70%
72
0
11
1173.148847
21
1423.875474
31
0
73
0
0
TEXT
8
TEXT
10
1173.148847
20
1401.875474
30
0
40
15
1
  ECONOMY ALT 5 x board 180 L697.4 ROUGH 727.4 WASTE 64% -> DEFAULT ECONOMY (THRESHOLD 45%)
72
0
11
1173.148847
21
1401.875474
31
0
73
0
0
TEXT
8
TEXT
10
1173.148847
20
1379.875474
30
0
40
15
1
FINGER 15/16/3.8
72
0
11
1173.148847
21
1379.875474
31
0
73
0
0
TEXT
8
TEXT
10
1173.148847
20
1357.875474
30
0
40
15
1
ALLOWANCE 10 PER SIDE  LIMITS: OVERALL >= 450 (CLAMP)  SHORTER EDGE >= 400  STOCK MAX 200
72
0
11
1173.148847
21
1357.875474
31
0
73
0
0
TEXT
8
TEXT
10
1173.148847
20
1335.875474
30
0
40
15
1
CLAMPS (SUGGESTION): UNICLAMP 130 x 130, CLEARANCE 20 FROM THE END CUTS, JAWS 40-98, PIECE THICKNESS 57
72
0
11
1173.148847
21
1335.875474
31
0
73
0
0
TEXT
8
TEXT
10
1173.148847
20
1313.875474
30
0
40
15
1
CUT CODES: J = JOINT FROM SQUARE  Q = SQUARE (SPRINGING FACE ROUTED WITH THE CONTOUR)  A = APEX FROM SQUARE
72
0
11
1173.148847
21
1313.875474
31
0
73
0
0
POLYLINE
8
PIECES
66
1
70
1
10
0
20
0
30
0
0
VERTEX
8
PIECES
10
540.948637
20
1708.375474
30
0
0
VERTEX
8
PIECES
10
86.60254
20
1708.375474
30
0
0
VERTEX
8
PIECES
10
0
20
1858.375474
30
0
0
VERTEX
8
PIECES
10
627.551178
20
1858.375474
30
0
0
SEQEND
8
PIECES
0
POLYLINE
8
CLAMPS
66
1
70
1
10
0
20
0
30
0
0
VERTEX
8
CLAMPS
10
115.829038
20
1718.375474
30
0
0
VERTEX
8
CLAMPS
10
245.829038
20
1718.375474
30
0
0
VERTEX
8
CLAMPS
10
245.829038
20
1848.375474
30
0
0
VERTEX
8
CLAMPS
10
115.829038
20
1848.375474
30
0
0
SEQEND
8
CLAMPS
0
POLYLINE
8
CLAMPS
66
1
70
1
10
0
20
0
30
0
0
VERTEX
8
CLAMPS
10
381.72214
20
1718.375474
30
0
0
VERTEX
8
CLAMPS
10
511.72214
20
1718.375474
30
0
0
VERTEX
8
CLAMPS
10
511.72214
20
1848.375474
30
0
0
VERTEX
8
CLAMPS
10
381.72214
20
1848.375474
30
0
0
SEQEND
8
CLAMPS
0
TEXT
8
TEXT
10
313.775589
20
1793.375474
30
0
40
15
1
CIR - FRAME RING P1 L627.6 x150
72
1
11
313.775589
21
1793.375474
31
0
73
2
0
TEXT
8
TEXT
10
313.775589
20
1718.375474
30
0
40
10
1
OUT 597.6 IN 424.3 CUT J30/J30 FINGER BOTH ENDS
72
1
11
313.775589
21
1718.375474
31
0
73
2
0
POLYLINE
8
PIECES
66
1
70
1
10
0
20
0
30
0
0
VERTEX
8
PIECES
10
1368.499815
20
1708.375474
30
0
0
VERTEX
8
PIECES
10
914.153718
20
1708.375474
30
0
0
VERTEX
8
PIECES
10
827.551178
20
1858.375474
30
0
0
VERTEX
8
PIECES
10
1455.102355
20
1858.375474
30
0
0
SEQEND
8
PIECES
0
POLYLINE
8
CLAMPS
66
1
70
1
10
0
20
0
30
0
0
VERTEX
8
CLAMPS
10
943.380215
20
1718.375474
30
0
0
VERTEX
8
CLAMPS
10
1073.380215
20
1718.375474
30
0
0
VERTEX
8
CLAMPS
10
1073.380215
20
1848.375474
30
0
0
VERTEX
8
CLAMPS
10
943.380215
20
1848.375474
30
0
0
SEQEND
8
CLAMPS
0
POLYLINE
8
CLAMPS
66
1
70
1
10
0
20
0
30
0
0
VERTEX
8
CLAMPS
10
1209.273318
20
1718.375474
30
0
0
VERTEX
8
CLAMPS
10
1339.273318
20
1718.375474
30
0
0
VERTEX
8
CLAMPS
10
1339.273318
20
1848.375474
30
0
0
VERTEX
8
CLAMPS
10
1209.273318
20
1848.375474
30
0
0
SEQEND
8
CLAMPS
0
TEXT
8
TEXT
10
1141.326766
20
1793.375474
30
0
40
15
1
CIR - FRAME RING P2 L627.6 x150
72
1
11
1141.326766
21
1793.375474
31
0
73
2
0
TEXT
8
TEXT
10
1141.326766
20
1718.375474
30
0
40
10
1
OUT 597.6 IN 424.3 CUT J30/J30 FINGER BOTH ENDS
72
1
11
1141.326766
21
1718.375474
31
0
73
2
0
POLYLINE
8
PIECES
66
1
70
1
10
0
20
0
30
0
0
VERTEX
8
PIECES
10
2196.050993
20
1708.375474
30
0
0
VERTEX
8
PIECES
10
1741.704896
20
1708.375474
30
0
0
VERTEX
8
PIECES
10
1655.102355
20
1858.375474
30
0
0
VERTEX
8
PIECES
10
2282.653533
20
1858.375474
30
0
0
SEQEND
8
PIECES
0
POLYLINE
8
CLAMPS
66
1
70
1
10
0
20
0
30
0
0
VERTEX
8
CLAMPS
10
1770.931393
20
1718.375474
30
0
0
VERTEX
8
CLAMPS
10
1900.931393
20
1718.375474
30
0
0
VERTEX
8
CLAMPS
10
1900.931393
20
1848.375474
30
0
0
VERTEX
8
CLAMPS
10
1770.931393
20
1848.375474
30
0
0
SEQEND
8
CLAMPS
0
POLYLINE
8
CLAMPS
66
1
70
1
10
0
20
0
30
0
0
VERTEX
8
CLAMPS
10
2036.824495
20
1718.375474
30
0
0
VERTEX
8
CLAMPS
10
2166.824495
20
1718.375474
30
0
0
VERTEX
8
CLAMPS
10
2166.824495
20
1848.375474
30
0
0
VERTEX
8
CLAMPS
10
2036.824495
20
1848.375474
30
0
0
SEQEND
8
CLAMPS
0
TEXT
8
TEXT
10
1968.877944
20
1793.375474
30
0
40
15
1
CIR - FRAME RING P3 L627.6 x150
72
1
11
1968.877944
21
1793.375474
31
0
73
2
0
TEXT
8
TEXT
10
1968.877944
20
1718.375474
30
0
40
10
1
OUT 597.6 IN 424.3 CUT J30/J30 FINGER BOTH ENDS
72
1
11
1968.877944
21
1718.375474
31
0
73
2
0
POLYLINE
8
PIECES
66
1
70
1
10
0
20
0
30
0
0
VERTEX
8
PIECES
10
3023.60217
20
1708.375474
30
0
0
VERTEX
8
PIECES
10
2569.256073
20
1708.375474
30
0
0
VERTEX
8
PIECES
10
2482.653533
20
1858.375474
30
0
0
VERTEX
8
PIECES
10
3110.204711
20
1858.375474
30
0
0
SEQEND
8
PIECES
0
POLYLINE
8
CLAMPS
66
1
70
1
10
0
20
0
30
0
0
VERTEX
8
CLAMPS
10
2598.482571
20
1718.375474
30
0
0
VERTEX
8
CLAMPS
10
2728.482571
20
1718.375474
30
0
0
VERTEX
8
CLAMPS
10
2728.482571
20
1848.375474
30
0
0
VERTEX
8
CLAMPS
10
2598.482571
20
1848.375474
30
0
0
SEQEND
8
CLAMPS
0
POLYLINE
8
CLAMPS
66
1
70
1
10
0
20
0
30
0
0
VERTEX
8
CLAMPS
10
2864.375673
20
1718.375474
30
0
0
VERTEX
8
CLAMPS
10
2994.375673
20
1718.375474
30
0
0
VERTEX
8
CLAMPS
10
2994.375673
20
1848.375474
30
0
0
VERTEX
8
CLAMPS
10
2864.375673
20
1848.375474
30
0
0
SEQEND
8
CLAMPS
0
TEXT
8
TEXT
10
2796.429122
20
1793.375474
30
0
40
15
1
CIR - FRAME RING P4 L627.6 x150
72
1
11
2796.429122
21
1793.375474
31
0
73
2
0
TEXT
8
TEXT
10
2796.429122
20
1718.375474
30
0
40
10
1
OUT 597.6 IN 424.3 CUT J30/J30 FINGER BOTH ENDS
72
1
11
2796.429122
21
1718.375474
31
0
73
2
0
POLYLINE
8
PIECES
66
1
70
1
10
0
20
0
30
0
0
VERTEX
8
PIECES
10
3851.153348
20
1708.375474
30
0
0
VERTEX
8
PIECES
10
3396.807251
20
1708.375474
30
0
0
VERTEX
8
PIECES
10
3310.204711
20
1858.375474
30
0
0
VERTEX
8
PIECES
10
3937.755888
20
1858.375474
30
0
0
SEQEND
8
PIECES
0
POLYLINE
8
CLAMPS
66
1
70
1
10
0
20
0
30
0
0
VERTEX
8
CLAMPS
10
3426.033748
20
1718.375474
30
0
0
VERTEX
8
CLAMPS
10
3556.033748
20
1718.375474
30
0
0
VERTEX
8
CLAMPS
10
3556.033748
20
1848.375474
30
0
0
VERTEX
8
CLAMPS
10
3426.033748
20
1848.375474
30
0
0
SEQEND
8
CLAMPS
0
POLYLINE
8
CLAMPS
66
1
70
1
10
0
20
0
30
0
0
VERTEX
8
CLAMPS
10
3691.926851
20
1718.375474
30
0
0
VERTEX
8
CLAMPS
10
3821.926851
20
1718.375474
30
0
0
VERTEX
8
CLAMPS
10
3821.926851
20
1848.375474
30
0
0
VERTEX
8
CLAMPS
10
3691.926851
20
1848.375474
30
0
0
SEQEND
8
CLAMPS
0
TEXT
8
TEXT
10
3623.980299
20
1793.375474
30
0
40
15
1
CIR - FRAME RING P5 L627.6 x150
72
1
11
3623.980299
21
1793.375474
31
0
73
2
0
TEXT
8
TEXT
10
3623.980299
20
1718.375474
30
0
40
10
1
OUT 597.6 IN 424.3 CUT J30/J30 FINGER BOTH ENDS
72
1
11
3623.980299
21
1718.375474
31
0
73
2
0
POLYLINE
8
PIECES
66
1
70
1
10
0
20
0
30
0
0
VERTEX
8
PIECES
10
4678.704526
20
1708.375474
30
0
0
VERTEX
8
PIECES
10
4224.358429
20
1708.375474
30
0
0
VERTEX
8
PIECES
10
4137.755888
20
1858.375474
30
0
0
VERTEX
8
PIECES
10
4765.307066
20
1858.375474
30
0
0
SEQEND
8
PIECES
0
POLYLINE
8
CLAMPS
66
1
70
1
10
0
20
0
30
0
0
VERTEX
8
CLAMPS
10
4253.584926
20
1718.375474
30
0
0
VERTEX
8
CLAMPS
10
4383.584926
20
1718.375474
30
0
0
VERTEX
8
CLAMPS
10
4383.584926
20
1848.375474
30
0
0
VERTEX
8
CLAMPS
10
4253.584926
20
1848.375474
30
0
0
SEQEND
8
CLAMPS
0
POLYLINE
8
CLAMPS
66
1
70
1
10
0
20
0
30
0
0
VERTEX
8
CLAMPS
10
4519.478028
20
1718.375474
30
0
0
VERTEX
8
CLAMPS
10
4649.478028
20
1718.375474
30
0
0
VERTEX
8
CLAMPS
10
4649.478028
20
1848.375474
30
0
0
VERTEX
8
CLAMPS
10
4519.478028
20
1848.375474
30
0
0
SEQEND
8
CLAMPS
0
TEXT
8
TEXT
10
4451.531477
20
1793.375474
30
0
40
15
1
CIR - FRAME RING P6 L627.6 x150
72
1
11
4451.531477
21
1793.375474
31
0
73
2
0
TEXT
8
TEXT
10
4451.531477
20
1718.375474
30
0
40
10
1
OUT 597.6 IN 424.3 CUT J30/J30 FINGER BOTH ENDS
72
1
11
4451.531477
21
1718.375474
31
0
73
2
0
POLYLINE
8
CONTOUR
66
1
70
1
10
0
20
0
30
0
0
VERTEX
8
CONTOUR
10
1097.551178
20
2575.869974
30
0
42
1
0
VERTEX
8
CONTOUR
10
97.551178
20
2575.869974
30
0
42
1
0
VERTEX
8
CONTOUR
10
1097.551178
20
2575.869974
30
0
0
VERTEX
8
CONTOUR
10
1040.551178
20
2575.869974
30
0
42
-1
0
VERTEX
8
CONTOUR
10
154.551178
20
2575.869974
30
0
42
-1
0
VERTEX
8
CONTOUR
10
1040.551178
20
2575.869974
30
0
0
SEQEND
8
CONTOUR
0
POLYLINE
8
ASSEMBLY
66
1
70
1
10
0
20
0
30
0
0
VERTEX
8
ASSEMBLY
10
1021.897275
20
2575.869974
30
0
0
VERTEX
8
ASSEMBLY
10
809.724226
20
2943.364474
30
0
0
VERTEX
8
ASSEMBLY
10
896.326766
20
3093.364474
30
0
0
VERTEX
8
ASSEMBLY
10
1195.102355
20
2575.869974
30
0
0
SEQEND
8
ASSEMBLY
0
POLYLINE
8
FINGER
66
1
70
0
10
0
20
0
30
0
0
VERTEX
8
FINGER
10
1040.551178
20
2575.869974
30
0
0
VERTEX
8
FINGER
10
1097.551178
20
2575.869974
30
0
0
SEQEND
8
FINGER
0
POLYLINE
8
FINGER
66
1
70
0
10
0
20
0
30
0
0
VERTEX
8
FINGER
10
819.051178
20
2959.519228
30
0
0
VERTEX
8
FINGER
10
847.551178
20
3008.882676
30
0
0
SEQEND
8
FINGER
0
POLYLINE
8
ASSEMBLY
66
1
70
1
10
0
20
0
30
0
0
VERTEX
8
ASSEMBLY
10
809.724226
20
2943.364474
30
0
0
VERTEX
8
ASSEMBLY
10
385.378129
20
2943.364474
30
0
0
VERTEX
8
ASSEMBLY
10
298.775589
20
3093.364474
30
0
0
VERTEX
8
ASSEMBLY
10
896.326766
20
3093.364474
30
0
0
SEQEND
8
ASSEMBLY
0
POLYLINE
8
FINGER
66
1
70
0
10
0
20
0
30
0
0
VERTEX
8
FINGER
10
376.051178
20
2959.519228
30
0
0
VERTEX
8
FINGER
10
347.551178
20
3008.882676
30
0
0
SEQEND
8
FINGER
0
POLYLINE
8
ASSEMBLY
66
1
70
1
10
0
20
0
30
0
0
VERTEX
8
ASSEMBLY
10
385.378129
20
2943.364474
30
0
0
VERTEX
8
ASSEMBLY
10
173.205081
20
2575.869974
30
0
0
VERTEX
8
ASSEMBLY
10
0
20
2575.869974
30
0
0
VERTEX
8
ASSEMBLY
10
298.775589
20
3093.364474
30
0
0
SEQEND
8
ASSEMBLY
0
POLYLINE
8
FINGER
66
1
70
0
10
0
20
0
30
0
0
VERTEX
8
FINGER
10
154.551178
20
2575.869974
30
0
0
VERTEX
8
FINGER
10
97.551178
20
2575.869974
30
0
0
SEQEND
8
FINGER
0
POLYLINE
8
ASSEMBLY
66
1
70
1
10
0
20
0
30
0
0
VERTEX
8
ASSEMBLY
10
173.205081
20
2575.869974
30
0
0
VERTEX
8
ASSEMBLY
10
385.378129
20
2208.375474
30
0
0
VERTEX
8
ASSEMBLY
10
298.775589
20
2058.375474
30
0
0
VERTEX
8
ASSEMBLY
10
0
20
2575.869974
30
0
0
SEQEND
8
ASSEMBLY
0
POLYLINE
8
FINGER
66
1
70
0
10
0
20
0
30
0
0
VERTEX
8
FINGER
10
376.051178
20
2192.22072
30
0
0
VERTEX
8
FINGER
10
347.551178
20
2142.857272
30
0
0
SEQEND
8
FINGER
0
POLYLINE
8
ASSEMBLY
66
1
70
1
10
0
20
0
30
0
0
VERTEX
8
ASSEMBLY
10
385.378129
20
2208.375474
30
0
0
VERTEX
8
ASSEMBLY
10
809.724226
20
2208.375474
30
0
0
VERTEX
8
ASSEMBLY
10
896.326766
20
2058.375474
30
0
0
VERTEX
8
ASSEMBLY
10
298.775589
20
2058.375474
30
0
0
SEQEND
8
ASSEMBLY
0
POLYLINE
8
FINGER
66
1
70
0
10
0
20
0
30
0
0
VERTEX
8
FINGER
10
819.051178
20
2192.22072
30
0
0
VERTEX
8
FINGER
10
847.551178
20
2142.857272
30
0
0
SEQEND
8
FINGER
0
POLYLINE
8
ASSEMBLY
66
1
70
1
10
0
20
0
30
0
0
VERTEX
8
ASSEMBLY
10
809.724226
20
2208.375474
30
0
0
VERTEX
8
ASSEMBLY
10
1021.897275
20
2575.869974
30
0
0
VERTEX
8
ASSEMBLY
10
1195.102355
20
2575.869974
30
0
0
VERTEX
8
ASSEMBLY
10
896.326766
20
2058.375474
30
0
0
SEQEND
8
ASSEMBLY
0
POLYLINE
8
FINGER
66
1
70
0
10
0
20
0
30
0
0
VERTEX
8
FINGER
10
1040.551178
20
2575.869974
30
0
0
VERTEX
8
FINGER
10
1097.551178
20
2575.869974
30
0
0
SEQEND
8
FINGER
0
TEXT
8
TEXT
10
1295.102355
20
3074.864474
30
0
40
15
1
CIR - FRAME RING
72
0
11
1295.102355
21
3074.864474
31
0
73
0
0
TEXT
8
TEXT
10
1295.102355
20
3052.864474
30
0
40
15
1
CIRCLE W1000 RISE500 H1000 FIXED LEAF
72
0
11
1295.102355
21
3052.864474
31
0
73
0
0
TEXT
8
TEXT
10
1295.102355
20
3030.864474
30
0
40
15
1
FACE 57 OFFSET 0 OUTER L3141.6 INNER L2783.5
72
0
11
1295.102355
21
3030.864474
31
0
73
0
0
TEXT
8
TEXT
10
1295.102355
20
3008.864474
30
0
40
15
1
RING R500 L3141.6 360DEG: FEWEST 5 x board 180 L755.8 ROUGH 785.8 WASTE 68%
72
0
11
1295.102355
21
3008.864474
31
0
73
0
0
TEXT
8
TEXT
10
1295.102355
20
2986.864474
30
0
40
15
1
  ECONOMY ALT 6 x board 150 L597.6 ROUGH 627.6 WASTE 60% -> DEFAULT ECONOMY (THRESHOLD 45%)
72
0
11
1295.102355
21
2986.864474
31
0
73
0
0
TEXT
8
TEXT
10
1295.102355
20
2964.864474
30
0
40
15
1
FINGER 15/16/3.8
72
0
11
1295.102355
21
2964.864474
31
0
73
0
0
TEXT
8
TEXT
10
1295.102355
20
2942.864474
30
0
40
15
1
ALLOWANCE 10 PER SIDE  LIMITS: OVERALL >= 450 (CLAMP)  SHORTER EDGE >= 400  STOCK MAX 200
72
0
11
1295.102355
21
2942.864474
31
0
73
0
0
TEXT
8
TEXT
10
1295.102355
20
2920.864474
30
0
40
15
1
CLAMPS (SUGGESTION): UNICLAMP 130 x 130, CLEARANCE 20 FROM THE END CUTS, JAWS 40-98, PIECE THICKNESS 93
72
0
11
1295.102355
21
2920.864474
31
0
73
0
0
TEXT
8
TEXT
10
1295.102355
20
2898.864474
30
0
40
15
1
CUT CODES: J = JOINT FROM SQUARE  Q = SQUARE (SPRINGING FACE ROUTED WITH THE CONTOUR)  A = APEX FROM SQUARE
72
0
11
1295.102355
21
2898.864474
31
0
73
0
0
POLYLINE
8
FIT
66
1
70
1
10
0
20
0
30
0
0
VERTEX
8
FIT
10
1000
20
3757.280086
30
0
42
1
0
VERTEX
8
FIT
10
0
20
3757.280086
30
0
42
1
0
VERTEX
8
FIT
10
1000
20
3757.280086
30
0
0
VERTEX
8
FIT
10
943
20
3757.280086
30
0
42
-1
0
VERTEX
8
FIT
10
57
20
3757.280086
30
0
42
-1
0
VERTEX
8
FIT
10
943
20
3757.280086
30
0
0
SEQEND
8
FIT
0
POLYLINE
8
FIT
66
1
70
1
10
0
20
0
30
0
0
VERTEX
8
FIT
10
960
20
3757.280086
30
0
42
1
0
VERTEX
8
FIT
10
40
20
3757.280086
30
0
42
1
0
VERTEX
8
FIT
10
960
20
3757.280086
30
0
0
VERTEX
8
FIT
10
893
20
3757.280086
30
0
42
-1
0
VERTEX
8
FIT
10
107
20
3757.280086
30
0
42
-1
0
VERTEX
8
FIT
10
893
20
3757.280086
30
0
0
SEQEND
8
FIT
0
POLYLINE
8
FIT
66
1
70
1
10
0
20
0
30
0
0
VERTEX
8
FIT
10
905.5
20
3757.280086
30
0
42
1
0
VERTEX
8
FIT
10
94.5
20
3757.280086
30
0
42
1
0
VERTEX
8
FIT
10
905.5
20
3757.280086
30
0
0
SEQEND
8
FIT
0
POLYLINE
8
FIT
66
1
70
0
10
0
20
0
30
0
0
VERTEX
8
FIT
10
964
20
3757.280086
30
0
42
0.010776
0
VERTEX
8
FIT
10
963.569032
20
3777.273894
30
0
0
SEQEND
8
FIT
0
POLYLINE
8
FIT
66
1
70
0
10
0
20
0
30
0
0
VERTEX
8
FIT
10
963.03051
20
3787.259189
30
0
42
0.010776
0
VERTEX
8
FIT
10
961.30864
20
3807.183377
30
0
0
SEQEND
8
FIT
0
POLYLINE
8
FIT
66
1
70
0
10
0
20
0
30
0
0
VERTEX
8
FIT
10
960.126092
20
3817.113015
30
0
42
0.010776
0
VERTEX
8
FIT
10
957.120516
20
3836.884322
30
0
0
SEQEND
8
FIT
0
POLYLINE
8
FIT
66
1
70
0
10
0
20
0
30
0
0
VERTEX
8
FIT
10
955.298883
20
3846.716808
30
0
42
0.010776
0
VERTEX
8
FIT
10
951.022159
20
3866.252614
30
0
0
SEQEND
8
FIT
0
POLYLINE
8
FIT
66
1
70
0
10
0
20
0
30
0
0
VERTEX
8
FIT
10
948.569055
20
3875.94686
30
0
42
0.010776
0
VERTEX
8
FIT
10
943.039056
20
3895.165527
30
0
0
SEQEND
8
FIT
0
POLYLINE
8
FIT
66
1
70
0
10
0
20
0
30
0
0
VERTEX
8
FIT
10
939.96473
20
3904.681023
30
0
42
0.010776
0
VERTEX
8
FIT
10
933.204565
20
3923.502241
30
0
0
SEQEND
8
FIT
0
POLYLINE
8
FIT
66
1
70
0
10
0
20
0
30
0
0
VERTEX
8
FIT
10
929.521866
20
3932.799221
30
0
42
0.010776
0
VERTEX
8
FIT
10
921.559784
20
3951.144339
30
0
0
SEQEND
8
FIT
0
POLYLINE
8
FIT
66
1
70
0
10
0
20
0
30
0
0
VERTEX
8
FIT
10
917.2841
20
3960.183955
30
0
42
0.010776
0
VERTEX
8
FIT
10
908.153374
20
3977.97631
30
0
0
SEQEND
8
FIT
0
POLYLINE
8
FIT
66
1
70
0
10
0
20
0
30
0
0
VERTEX
8
FIT
10
903.302573
20
3986.720786
30
0
42
0.010776
0
VERTEX
8
FIT
10
893.041358
20
4003.886028
30
0
0
SEQEND
8
FIT
0
POLYLINE
8
FIT
66
1
70
0
10
0
20
0
30
0
0
VERTEX
8
FIT
10
887.635711
20
4012.298823
30
0
42
0.010776
0
VERTEX
8
FIT
10
876.286887
20
4028.765221
30
0
0
SEQEND
8
FIT
0
POLYLINE
8
FIT
66
1
70
0
10
0
20
0
30
0
0
VERTEX
8
FIT
10
870.348983
20
4036.811178
30
0
42
0.010776
0
VERTEX
8
FIT
10
857.959976
20
4052.509922
30
0
0
SEQEND
8
FIT
0
POLYLINE
8
FIT
66
1
70
0
10
0
20
0
30
0
0
VERTEX
8
FIT
10
851.514627
20
4060.155419
30
0
42
0.010776
0
VERTEX
8
FIT
10
838.137208
20
4075.020906
30
0
0
SEQEND
8
FIT
0
POLYLINE
8
FIT
66
1
70
0
10
0
20
0
30
0
0
VERTEX
8
FIT
10
831.21135
20
4082.233993
30
0
42
0.010776
0
VERTEX
8
FIT
10
816.901421
20
4096.204104
30
0
0
SEQEND
8
FIT
0
POLYLINE
8
FIT
66
1
70
0
10
0
20
0
30
0
0
VERTEX
8
FIT
10
809.523995
20
4102.954639
30
0
42
0.010776
0
VERTEX
8
FIT
10
794.341355
20
4115.970994
30
0
0
SEQEND
8
FIT
0
POLYLINE
8
FIT
66
1
70
0
10
0
20
0
30
0
0
VERTEX
8
FIT
10
786.543191
20
4122.230768
30
0
42
0.010776
0
VERTEX
8
FIT
10
770.551284
20
4134.238973
30
0
0
SEQEND
8
FIT
0
POLYLINE
8
FIT
66
1
70
0
10
0
20
0
30
0
0
VERTEX
8
FIT
10
762.364969
20
4139.981828
30
0
42
0.010776
0
VERTEX
8
FIT
10
745.630625
20
4150.931704
30
0
0
SEQEND
8
FIT
0
POLYLINE
8
FIT
66
1
70
0
10
0
20
0
30
0
0
VERTEX
8
FIT
10
737.090368
20
4156.13364
30
0
42
0.010776
0
VERTEX
8
FIT
10
719.683516
20
4165.979429
30
0
0
SEQEND
8
FIT
0
POLYLINE
8
FIT
66
1
70
0
10
0
20
0
30
0
0
VERTEX
8
FIT
10
710.825005
20
4170.618709
30
0
42
0.010776
0
VERTEX
8
FIT
10
692.818385
20
4179.319268
30
0
0
SEQEND
8
FIT
0
POLYLINE
8
FIT
66
1
70
0
10
0
20
0
30
0
0
VERTEX
8
FIT
10
683.678639
20
4183.376505
30
0
42
0.010776
0
VERTEX
8
FIT
10
665.147498
20
4190.895473
30
0
0
SEQEND
8
FIT
0
POLYLINE
8
FIT
66
1
70
0
10
0
20
0
30
0
0
VERTEX
8
FIT
10
655.76471
20
4194.353713
30
0
42
0.010776
0
VERTEX
8
FIT
10
636.786487
20
4200.659672
30
0
0
SEQEND
8
FIT
0
POLYLINE
8
FIT
66
1
70
0
10
0
20
0
30
0
0
VERTEX
8
FIT
10
627.199867
20
4203.504463
30
0
42
0.010776
0
VERTEX
8
FIT
10
607.853868
20
4208.57106
30
0
0
SEQEND
8
FIT
0
POLYLINE
8
FIT
66
1
70
0
10
0
20
0
30
0
0
VERTEX
8
FIT
10
598.103475
20
4210.790514
30
0
42
0.010776
0
VERTEX
8
FIT
10
578.470545
20
4214.596578
30
0
0
SEQEND
8
FIT
0
POLYLINE
8
FIT
66
1
70
0
10
0
20
0
30
0
0
VERTEX
8
FIT
10
568.597126
20
4216.18142
30
0
42
0.010776
0
VERTEX
8
FIT
10
548.759307
20
4218.711046
30
0
0
SEQEND
8
FIT
0
POLYLINE
8
FIT
66
1
70
0
10
0
20
0
30
0
0
VERTEX
8
FIT
10
538.804121
20
4219.654654
30
0
42
0.010776
0
VERTEX
8
FIT
10
518.844311
20
4220.897269
30
0
0
SEQEND
8
FIT
0
POLYLINE
8
FIT
66
1
70
0
10
0
20
0
30
0
0
VERTEX
8
FIT
10
508.848959
20
4221.195699
30
0
42
0.010776
0
VERTEX
8
FIT
10
488.850569
20
4221.146113
30
0
0
SEQEND
8
FIT
0
POLYLINE
8
FIT
66
1
70
0
10
0
20
0
30
0
0
VERTEX
8
FIT
10
478.856819
20
4220.798118
30
0
42
0.010776
0
VERTEX
8
FIT
10
458.903418
20
4219.456536
30
0
0
SEQEND
8
FIT
0
POLYLINE
8
FIT
66
1
70
0
10
0
20
0
30
0
0
VERTEX
8
FIT
10
448.953033
20
4218.463572
30
0
42
0.010776
0
VERTEX
8
FIT
10
429.128003
20
4215.835601
30
0
0
SEQEND
8
FIT
0
POLYLINE
8
FIT
66
1
70
0
10
0
20
0
30
0
0
VERTEX
8
FIT
10
419.262564
20
4214.201816
30
0
42
0.010776
0
VERTEX
8
FIT
10
399.64875
20
4210.298438
30
0
0
SEQEND
8
FIT
0
POLYLINE
8
FIT
66
1
70
0
10
0
20
0
30
0
0
VERTEX
8
FIT
10
389.909484
20
4208.030659
30
0
42
0.010776
0
VERTEX
8
FIT
10
370.588848
20
4202.868185
30
0
0
SEQEND
8
FIT
0
POLYLINE
8
FIT
66
1
70
0
10
0
20
0
30
0
0
VERTEX
8
FIT
10
361.016453
20
4199.975889
30
0
42
0.010776
0
VERTEX
8
FIT
10
342.069735
20
4193.575894
30
0
0
SEQEND
8
FIT
0
POLYLINE
8
FIT
66
1
70
0
10
0
20
0
30
0
0
VERTEX
8
FIT
10
332.704212
20
4190.071167
30
0
42
0.010776
0
VERTEX
8
FIT
10
314.210586
20
4182.460394
30
0
0
SEQEND
8
FIT
0
POLYLINE
8
FIT
66
1
70
0
10
0
20
0
30
0
0
VERTEX
8
FIT
10
305.091072
20
4178.357882
30
0
42
0.010776
0
VERTEX
8
FIT
10
287.12782
20
4169.568135
30
0
0
SEQEND
8
FIT
0
POLYLINE
8
FIT
66
1
70
0
10
0
20
0
30
0
0
VERTEX
8
FIT
10
278.292425
20
4164.884982
30
0
42
0.010776
0
VERTEX
8
FIT
10
260.934612
20
4154.952993
30
0
0
SEQEND
8
FIT
0
POLYLINE
8
FIT
66
1
70
0
10
0
20
0
30
0
0
VERTEX
8
FIT
10
252.420257
20
4149.708769
30
0
42
0.010776
0
VERTEX
8
FIT
10
235.74042
20
4138.676041
30
0
0
SEQEND
8
FIT
0
POLYLINE
8
FIT
66
1
70
0
10
0
20
0
30
0
0
VERTEX
8
FIT
10
227.582684
20
4132.892661
30
0
42
0.010776
0
VERTEX
8
FIT
10
211.650524
20
4120.805298
30
0
0
SEQEND
8
FIT
0
POLYLINE
8
FIT
66
1
70
0
10
0
20
0
30
0
0
VERTEX
8
FIT
10
203.883498
20
4114.50693
30
0
42
0.010776
0
VERTEX
8
FIT
10
188.765593
20
4101.415444
30
0
0
SEQEND
8
FIT
0
POLYLINE
8
FIT
66
1
70
0
10
0
20
0
30
0
0
VERTEX
8
FIT
10
181.421735
20
4094.628406
30
0
42
0.010776
0
VERTEX
8
FIT
10
167.18126
20
4080.587504
30
0
0
SEQEND
8
FIT
0
POLYLINE
8
FIT
66
1
70
0
10
0
20
0
30
0
0
VERTEX
8
FIT
10
160.291257
20
4073.34016
30
0
42
0.010776
0
VERTEX
8
FIT
10
146.987721
20
4058.408516
30
0
0
SEQEND
8
FIT
0
POLYLINE
8
FIT
66
1
70
0
10
0
20
0
30
0
0
VERTEX
8
FIT
10
140.580366
20
4050.73115
30
0
42
0.010776
0
VERTEX
8
FIT
10
128.269362
20
4034.971161
30
0
0
SEQEND
8
FIT
0
POLYLINE
8
FIT
66
1
70
0
10
0
20
0
30
0
0
VERTEX
8
FIT
10
122.371431
20
4026.895857
30
0
42
0.010776
0
VERTEX
8
FIT
10
111.104405
20
4010.373382
30
0
0
SEQEND
8
FIT
0
POLYLINE
8
FIT
66
1
70
0
10
0
20
0
30
0
0
VERTEX
8
FIT
10
105.740543
20
4001.933884
30
0
42
0.010776
0
VERTEX
8
FIT
10
95.564578
20
3984.717967
30
0
0
SEQEND
8
FIT
0
POLYLINE
8
FIT
66
1
70
0
10
0
20
0
30
0
0
VERTEX
8
FIT
10
90.757201
20
3975.949543
30
0
42
0.010776
0
VERTEX
8
FIT
10
81.71482
20
3958.112127
30
0
0
SEQEND
8
FIT
0
POLYLINE
8
FIT
66
1
70
0
10
0
20
0
30
0
0
VERTEX
8
FIT
10
77.484017
20
3949.051419
30
0
42
0.010776
0
VERTEX
8
FIT
10
69.613007
20
3930.667043
30
0
0
SEQEND
8
FIT
0
POLYLINE
8
FIT
66
1
70
0
10
0
20
0
30
0
0
VERTEX
8
FIT
10
65.976457
20
3921.351914
30
0
42
0.010776
0
VERTEX
8
FIT
10
59.309711
20
3902.497403
30
0
0
SEQEND
8
FIT
0
POLYLINE
8
FIT
66
1
70
0
10
0
20
0
30
0
0
VERTEX
8
FIT
10
56.282611
20
3892.966779
30
0
42
0.010776
0
VERTEX
8
FIT
10
50.847986
20
3873.720924
30
0
0
SEQEND
8
FIT
0
POLYLINE
8
FIT
66
1
70
0
10
0
20
0
30
0
0
VERTEX
8
FIT
10
48.442986
20
3864.014632
30
0
42
0.010776
0
VERTEX
8
FIT
10
44.263194
20
3844.457858
30
0
0
SEQEND
8
FIT
0
POLYLINE
8
FIT
66
1
70
0
10
0
20
0
30
0
0
VERTEX
8
FIT
10
42.490344
20
3834.616459
30
0
42
0.010776
0
VERTEX
8
FIT
10
39.582851
20
3814.83049
30
0
0
SEQEND
8
FIT
0
POLYLINE
8
FIT
66
1
70
0
10
0
20
0
30
0
0
VERTEX
8
FIT
10
38.449559
20
3804.89511
30
0
42
0.010776
0
VERTEX
8
FIT
10
36.826515
20
3784.962629
30
0
0
SEQEND
8
FIT
0
POLYLINE
8
FIT
66
1
70
0
10
0
20
0
30
0
0
VERTEX
8
FIT
10
36.337518
20
3774.974786
30
0
42
0.009536
0
VERTEX
8
FIT
10
36
20
3757.280086
30
0
0
SEQEND
8
FIT
0
POLYLINE
8
FIT
66
1
70
0
10
0
20
0
30
0
0
VERTEX
8
FIT
10
36
20
3757.280086
30
0
42
0.010776
0
VERTEX
8
FIT
10
36.430968
20
3737.286279
30
0
0
SEQEND
8
FIT
0
POLYLINE
8
FIT
66
1
70
0
10
0
20
0
30
0
0
VERTEX
8
FIT
10
36.96949
20
3727.300984
30
0
42
0.010776
0
VERTEX
8
FIT
10
38.69136
20
3707.376796
30
0
0
SEQEND
8
FIT
0
POLYLINE
8
FIT
66
1
70
0
10
0
20
0
30
0
0
VERTEX
8
FIT
10
39.873908
20
3697.447158
30
0
42
0.010776
0
VERTEX
8
FIT
10
42.879484
20
3677.675851
30
0
0
SEQEND
8
FIT
0
POLYLINE
8
FIT
66
1
70
0
10
0
20
0
30
0
0
VERTEX
8
FIT
10
44.701117
20
3667.843365
30
0
42
0.010776
0
VERTEX
8
FIT
10
48.977841
20
3648.307559
30
0
0
SEQEND
8
FIT
0
POLYLINE
8
FIT
66
1
70
0
10
0
20
0
30
0
0
VERTEX
8
FIT
10
51.430945
20
3638.613313
30
0
42
0.010776
0
VERTEX
8
FIT
10
56.960944
20
3619.394646
30
0
0
SEQEND
8
FIT
0
POLYLINE
8
FIT
66
1
70
0
10
0
20
0
30
0
0
VERTEX
8
FIT
10
60.03527
20
3609.87915
30
0
42
0.010776
0
VERTEX
8
FIT
10
66.795435
20
3591.057932
30
0
0
SEQEND
8
FIT
0
POLYLINE
8
FIT
66
1
70
0
10
0
20
0
30
0
0
VERTEX
8
FIT
10
70.478134
20
3581.760952
30
0
42
0.010776
0
VERTEX
8
FIT
10
78.440216
20
3563.415834
30
0
0
SEQEND
8
FIT
0
POLYLINE
8
FIT
66
1
70
0
10
0
20
0
30
0
0
VERTEX
8
FIT
10
82.7159
20
3554.376218
30
0
42
0.010776
0
VERTEX
8
FIT
10
91.846626
20
3536.583863
30
0
0
SEQEND
8
FIT
0
POLYLINE
8
FIT
66
1
70
0
10
0
20
0
30
0
0
VERTEX
8
FIT
10
96.697427
20
3527.839387
30
0
42
0.010776
0
VERTEX
8
FIT
10
106.958642
20
3510.674144
30
0
0
SEQEND
8
FIT
0
POLYLINE
8
FIT
66
1
70
0
10
0
20
0
30
0
0
VERTEX
8
FIT
10
112.364289
20
3502.26135
30
0
42
0.010776
0
VERTEX
8
FIT
10
123.713113
20
3485.794952
30
0
0
SEQEND
8
FIT
0
POLYLINE
8
FIT
66
1
70
0
10
0
20
0
30
0
0
VERTEX
8
FIT
10
129.651017
20
3477.748995
30
0
42
0.010776
0
VERTEX
8
FIT
10
142.040024
20
3462.050251
30
0
0
SEQEND
8
FIT
0
POLYLINE
8
FIT
66
1
70
0
10
0
20
0
30
0
0
VERTEX
8
FIT
10
148.485373
20
3454.404754
30
0
42
0.010776
0
VERTEX
8
FIT
10
161.862792
20
3439.539267
30
0
0
SEQEND
8
FIT
0
POLYLINE
8
FIT
66
1
70
0
10
0
20
0
30
0
0
VERTEX
8
FIT
10
168.78865
20
3432.32618
30
0
42
0.010776
0
VERTEX
8
FIT
10
183.098579
20
3418.356069
30
0
0
SEQEND
8
FIT
0
POLYLINE
8
FIT
66
1
70
0
10
0
20
0
30
0
0
VERTEX
8
FIT
10
190.476005
20
3411.605534
30
0
42
0.010776
0
VERTEX
8
FIT
10
205.658645
20
3398.589179
30
0
0
SEQEND
8
FIT
0
POLYLINE
8
FIT
66
1
70
0
10
0
20
0
30
0
0
VERTEX
8
FIT
10
213.456809
20
3392.329405
30
0
42
0.010776
0
VERTEX
8
FIT
10
229.448716
20
3380.321199
30
0
0
SEQEND
8
FIT
0
POLYLINE
8
FIT
66
1
70
0
10
0
20
0
30
0
0
VERTEX
8
FIT
10
237.635031
20
3374.578345
30
0
42
0.010776
0
VERTEX
8
FIT
10
254.369375
20
3363.628469
30
0
0
SEQEND
8
FIT
0
POLYLINE
8
FIT
66
1
70
0
10
0
20
0
30
0
0
VERTEX
8
FIT
10
262.909632
20
3358.426533
30
0
42
0.010776
0
VERTEX
8
FIT
10
280.316484
20
3348.580744
30
0
0
SEQEND
8
FIT
0
POLYLINE
8
FIT
66
1
70
0
10
0
20
0
30
0
0
VERTEX
8
FIT
10
289.174995
20
3343.941464
30
0
42
0.010776
0
VERTEX
8
FIT
10
307.181615
20
3335.240905
30
0
0
SEQEND
8
FIT
0
POLYLINE
8
FIT
66
1
70
0
10
0
20
0
30
0
0
VERTEX
8
FIT
10
316.321361
20
3331.183668
30
0
42
0.010776
0
VERTEX
8
FIT
10
334.852502
20
3323.6647
30
0
0
SEQEND
8
FIT
0
POLYLINE
8
FIT
66
1
70
0
10
0
20
0
30
0
0
VERTEX
8
FIT
10
344.23529
20
3320.20646
30
0
42
0.010776
0
VERTEX
8
FIT
10
363.213513
20
3313.900501
30
0
0
SEQEND
8
FIT
0
POLYLINE
8
FIT
66
1
70
0
10
0
20
0
30
0
0
VERTEX
8
FIT
10
372.800133
20
3311.05571
30
0
42
0.010776
0
VERTEX
8
FIT
10
392.146132
20
3305.989113
30
0
0
SEQEND
8
FIT
0
POLYLINE
8
FIT
66
1
70
0
10
0
20
0
30
0
0
VERTEX
8
FIT
10
401.896525
20
3303.769659
30
0
42
0.010776
0
VERTEX
8
FIT
10
421.529455
20
3299.963595
30
0
0
SEQEND
8
FIT
0
POLYLINE
8
FIT
66
1
70
0
10
0
20
0
30
0
0
VERTEX
8
FIT
10
431.402874
20
3298.378753
30
0
42
0.010776
0
VERTEX
8
FIT
10
451.240693
20
3295.849127
30
0
0
SEQEND
8
FIT
0
POLYLINE
8
FIT
66
1
70
0
10
0
20
0
30
0
0
VERTEX
8
FIT
10
461.195879
20
3294.905519
30
0
42
0.010776
0
VERTEX
8
FIT
10
481.155689
20
3293.662904
30
0
0
SEQEND
8
FIT
0
POLYLINE
8
FIT
66
1
70
0
10
0
20
0
30
0
0
VERTEX
8
FIT
10
491.151041
20
3293.364474
30
0
42
0.010776
0
VERTEX
8
FIT
10
511.149431
20
3293.41406
30
0
0
SEQEND
8
FIT
0
POLYLINE
8
FIT
66
1
70
0
10
0
20
0
30
0
0
VERTEX
8
FIT
10
521.143181
20
3293.762055
30
0
42
0.010776
0
VERTEX
8
FIT
10
541.096582
20
3295.103636
30
0
0
SEQEND
8
FIT
0
POLYLINE
8
FIT
66
1
70
0
10
0
20
0
30
0
0
VERTEX
8
FIT
10
551.046967
20
3296.096601
30
0
42
0.010776
0
VERTEX
8
FIT
10
570.871997
20
3298.724572
30
0
0
SEQEND
8
FIT
0
POLYLINE
8
FIT
66
1
70
0
10
0
20
0
30
0
0
VERTEX
8
FIT
10
580.737436
20
3300.358357
30
0
42
0.010776
0
VERTEX
8
FIT
10
600.35125
20
3304.261735
30
0
0
SEQEND
8
FIT
0
POLYLINE
8
FIT
66
1
70
0
10
0
20
0
30
0
0
VERTEX
8
FIT
10
610.090516
20
3306.529514
30
0
42
0.010776
0
VERTEX
8
FIT
10
629.411152
20
3311.691988
30
0
0
SEQEND
8
FIT
0
POLYLINE
8
FIT
66
1
70
0
10
0
20
0
30
0
0
VERTEX
8
FIT
10
638.983547
20
3314.584284
30
0
42
0.010776
0
VERTEX
8
FIT
10
657.930265
20
3320.984279
30
0
0
SEQEND
8
FIT
0
POLYLINE
8
FIT
66
1
70
0
10
0
20
0
30
0
0
VERTEX
8
FIT
10
667.295788
20
3324.489006
30
0
42
0.010776
0
VERTEX
8
FIT
10
685.789414
20
3332.099779
30
0
0
SEQEND
8
FIT
0
POLYLINE
8
FIT
66
1
70
0
10
0
20
0
30
0
0
VERTEX
8
FIT
10
694.908928
20
3336.202291
30
0
42
0.010776
0
VERTEX
8
FIT
10
712.87218
20
3344.992038
30
0
0
SEQEND
8
FIT
0
POLYLINE
8
FIT
66
1
70
0
10
0
20
0
30
0
0
VERTEX
8
FIT
10
721.707575
20
3349.675191
30
0
42
0.010776
0
VERTEX
8
FIT
10
739.065388
20
3359.60718
30
0
0
SEQEND
8
FIT
0
POLYLINE
8
FIT
66
1
70
0
10
0
20
0
30
0
0
VERTEX
8
FIT
10
747.579743
20
3364.851404
30
0
42
0.010776
0
VERTEX
8
FIT
10
764.25958
20
3375.884132
30
0
0
SEQEND
8
FIT
0
POLYLINE
8
FIT
66
1
70
0
10
0
20
0
30
0
0
VERTEX
8
FIT
10
772.417316
20
3381.667512
30
0
42
0.010776
0
VERTEX
8
FIT
10
788.349476
20
3393.754875
30
0
0
SEQEND
8
FIT
0
POLYLINE
8
FIT
66
1
70
0
10
0
20
0
30
0
0
VERTEX
8
FIT
10
796.116502
20
3400.053243
30
0
42
0.010776
0
VERTEX
8
FIT
10
811.234407
20
3413.144729
30
0
0
SEQEND
8
FIT
0
POLYLINE
8
FIT
66
1
70
0
10
0
20
0
30
0
0
VERTEX
8
FIT
10
818.578265
20
3419.931767
30
0
42
0.010776
0
VERTEX
8
FIT
10
832.81874
20
3433.972669
30
0
0
SEQEND
8
FIT
0
POLYLINE
8
FIT
66
1
70
0
10
0
20
0
30
0
0
VERTEX
8
FIT
10
839.708743
20
3441.220013
30
0
42
0.010776
0
VERTEX
8
FIT
10
853.012279
20
3456.151657
30
0
0
SEQEND
8
FIT
0
POLYLINE
8
FIT
66
1
70
0
10
0
20
0
30
0
0
VERTEX
8
FIT
10
859.419634
20
3463.829023
30
0
42
0.010776
0
VERTEX
8
FIT
10
871.730638
20
3479.589012
30
0
0
SEQEND
8
FIT
0
POLYLINE
8
FIT
66
1
70
0
10
0
20
0
30
0
0
VERTEX
8
FIT
10
877.628569
20
3487.664316
30
0
42
0.010776
0
VERTEX
8
FIT
10
888.895595
20
3504.186791
30
0
0
SEQEND
8
FIT
0
POLYLINE
8
FIT
66
1
70
0
10
0
20
0
30
0
0
VERTEX
8
FIT
10
894.259457
20
3512.626289
30
0
42
0.010776
0
VERTEX
8
FIT
10
904.435422
20
3529.842206
30
0
0
SEQEND
8
FIT
0
POLYLINE
8
FIT
66
1
70
0
10
0
20
0
30
0
0
VERTEX
8
FIT
10
909.242799
20
3538.61063
30
0
42
0.010776
0
VERTEX
8
FIT
10
918.28518
20
3556.448046
30
0
0
SEQEND
8
FIT
0
POLYLINE
8
FIT
66
1
70
0
10
0
20
0
30
0
0
VERTEX
8
FIT
10
922.515983
20
3565.508754
30
0
42
0.010776
0
VERTEX
8
FIT
10
930.386993
20
3583.89313
30
0
0
SEQEND
8
FIT
0
POLYLINE
8
FIT
66
1
70
0
10
0
20
0
30
0
0
VERTEX
8
FIT
10
934.023543
20
3593.208259
30
0
42
0.010776
0
VERTEX
8
FIT
10
940.690289
20
3612.06277
30
0
0
SEQEND
8
FIT
0
POLYLINE
8
FIT
66
1
70
0
10
0
20
0
30
0
0
VERTEX
8
FIT
10
943.717389
20
3621.593394
30
0
42
0.010776
0
VERTEX
8
FIT
10
949.152014
20
3640.839249
30
0
0
SEQEND
8
FIT
0
POLYLINE
8
FIT
66
1
70
0
10
0
20
0
30
0
0
VERTEX
8
FIT
10
951.557014
20
3650.545541
30
0
42
0.010776
0
VERTEX
8
FIT
10
955.736806
20
3670.102315
30
0
0
SEQEND
8
FIT
0
POLYLINE
8
FIT
66
1
70
0
10
0
20
0
30
0
0
VERTEX
8
FIT
10
957.509656
20
3679.943714
30
0
42
0.010776
0
VERTEX
8
FIT
10
960.417149
20
3699.729683
30
0
0
SEQEND
8
FIT
0
POLYLINE
8
FIT
66
1
70
0
10
0
20
0
30
0
0
VERTEX
8
FIT
10
961.550441
20
3709.665063
30
0
42
0.010776
0
VERTEX
8
FIT
10
963.173485
20
3729.597544
30
0
0
SEQEND
8
FIT
0
POLYLINE
8
FIT
66
1
70
0
10
0
20
0
30
0
0
VERTEX
8
FIT
10
963.662482
20
3739.585387
30
0
42
0.009536
0
VERTEX
8
FIT
10
964
20
3757.280086
30
0
0
SEQEND
8
FIT
0
TEXT
8
TEXT
10
1100
20
4202.695699
30
0
40
15
1
CIR - FIT (ASSEMBLY, NOT A TOOLPATH)
72
0
11
1100
21
4202.695699
31
0
73
0
0
TEXT
8
TEXT
10
1100
20
4180.695699
30
0
40
15
1
GAP 4 LAP 17 (REBATE)
72
0
11
1100
21
4180.695699
31
0
73
0
0
TEXT
8
TEXT
10
1100
20
4158.695699
30
0
40
15
1
FRAME R500/500 / 443/443  REBATE WALL R464/464 (LAND 36, DASHED)
72
0
11
1100
21
4158.695699
31
0
73
0
0
TEXT
8
TEXT
10
1100
20
4136.695699
30
0
40
15
1
LEAF R460/460 / 393/393  GLASS R405.5/405.5
72
0
11
1100
21
4136.695699
31
0
73
0
0
ENDSEC
0
EOF
