0
SECTION
2
HEADER
9
$ACADVER
1
AC1009
0
ENDSEC
0
SECTION
2
TABLES
0
TABLE
2
LAYER
70
9
0
LAYER
2
0
70
0
62
7
6
CONTINUOUS
0
LAYER
2
ARKA_OUTLINE
70
0
62
7
6
CONTINUOUS
0
LAYER
2
ARKA_PANE
70
0
62
3
6
CONTINUOUS
0
LAYER
2
ARKA_FRONT_HINGES_3MM
70
0
62
50
6
CONTINUOUS
0
LAYER
2
ARKA_MITRE
70
0
62
1
6
CONTINUOUS
0
LAYER
2
ARKA_SECTION
70
0
62
5
6
CONTINUOUS
0
LAYER
2
ARKA_PANE_ZEWN_REF
70
0
62
3
6
CONTINUOUS
0
LAYER
2
ARKA_CENTRE
70
0
62
6
6
CONTINUOUS
0
LAYER
2
ARKA_INFO_NO_CUT
70
0
62
8
6
CONTINUOUS
0
ENDTAB
0
ENDSEC
0
SECTION
2
ENTITIES
0
POLYLINE
8
ARKA_OUTLINE
66
1
70
1
10
0
20
0
30
0
0
VERTEX
8
ARKA_OUTLINE
10
-5.5
20
-5.5
30
0
0
VERTEX
8
ARKA_OUTLINE
10
738.5
20
-5.5
30
0
0
VERTEX
8
ARKA_OUTLINE
10
738.5
20
591
30
0
42
1
0
VERTEX
8
ARKA_OUTLINE
10
-5.5
20
591
30
0
0
SEQEND
8
ARKA_OUTLINE
0
POLYLINE
8
ARKA_PANE_ZEWN_REF
66
1
70
1
10
0
20
0
30
0
0
VERTEX
8
ARKA_PANE_ZEWN_REF
10
-3.5
20
-3.5
30
0
0
VERTEX
8
ARKA_PANE_ZEWN_REF
10
736.5
20
-3.5
30
0
0
VERTEX
8
ARKA_PANE_ZEWN_REF
10
736.5
20
591
30
0
42
1
0
VERTEX
8
ARKA_PANE_ZEWN_REF
10
-3.5
20
591
30
0
0
SEQEND
8
ARKA_PANE_ZEWN_REF
0
POLYLINE
8
ARKA_OUTLINE
66
1
70
1
10
0
20
0
30
0
0
VERTEX
8
ARKA_OUTLINE
10
12.5
20
12.5
30
0
0
VERTEX
8
ARKA_OUTLINE
10
245.55
20
12.5
30
0
0
VERTEX
8
ARKA_OUTLINE
10
245.55
20
284.5
30
0
0
VERTEX
8
ARKA_OUTLINE
10
12.5
20
284.5
30
0
0
SEQEND
8
ARKA_OUTLINE
0
POLYLINE
8
ARKA_PANE
66
1
70
1
10
0
20
0
30
0
0
VERTEX
8
ARKA_PANE
10
10.5
20
10.5
30
0
0
VERTEX
8
ARKA_PANE
10
247.55
20
10.5
30
0
0
VERTEX
8
ARKA_PANE
10
247.55
20
286.5
30
0
0
VERTEX
8
ARKA_PANE
10
10.5
20
286.5
30
0
0
SEQEND
8
ARKA_PANE
0
POLYLINE
8
ARKA_FRONT_HINGES_3MM
66
1
70
1
10
0
20
0
30
0
0
VERTEX
8
ARKA_FRONT_HINGES_3MM
10
2.5
20
2.5
30
0
0
VERTEX
8
ARKA_FRONT_HINGES_3MM
10
255.55
20
2.5
30
0
0
VERTEX
8
ARKA_FRONT_HINGES_3MM
10
255.55
20
294.5
30
0
0
VERTEX
8
ARKA_FRONT_HINGES_3MM
10
2.5
20
294.5
30
0
0
SEQEND
8
ARKA_FRONT_HINGES_3MM
0
POLYLINE
8
ARKA_OUTLINE
66
1
70
1
10
0
20
0
30
0
0
VERTEX
8
ARKA_OUTLINE
10
267.55
20
12.5
30
0
0
VERTEX
8
ARKA_OUTLINE
10
465.45
20
12.5
30
0
0
VERTEX
8
ARKA_OUTLINE
10
465.45
20
284.5
30
0
0
VERTEX
8
ARKA_OUTLINE
10
267.55
20
284.5
30
0
0
SEQEND
8
ARKA_OUTLINE
0
POLYLINE
8
ARKA_PANE
66
1
70
1
10
0
20
0
30
0
0
VERTEX
8
ARKA_PANE
10
265.55
20
10.5
30
0
0
VERTEX
8
ARKA_PANE
10
467.45
20
10.5
30
0
0
VERTEX
8
ARKA_PANE
10
467.45
20
286.5
30
0
0
VERTEX
8
ARKA_PANE
10
265.55
20
286.5
30
0
0
SEQEND
8
ARKA_PANE
0
POLYLINE
8
ARKA_FRONT_HINGES_3MM
66
1
70
1
10
0
20
0
30
0
0
VERTEX
8
ARKA_FRONT_HINGES_3MM
10
257.55
20
2.5
30
0
0
VERTEX
8
ARKA_FRONT_HINGES_3MM
10
475.45
20
2.5
30
0
0
VERTEX
8
ARKA_FRONT_HINGES_3MM
10
475.45
20
294.5
30
0
0
VERTEX
8
ARKA_FRONT_HINGES_3MM
10
257.55
20
294.5
30
0
0
SEQEND
8
ARKA_FRONT_HINGES_3MM
0
POLYLINE
8
ARKA_OUTLINE
66
1
70
1
10
0
20
0
30
0
0
VERTEX
8
ARKA_OUTLINE
10
487.45
20
12.5
30
0
0
VERTEX
8
ARKA_OUTLINE
10
720.5
20
12.5
30
0
0
VERTEX
8
ARKA_OUTLINE
10
720.5
20
284.5
30
0
0
VERTEX
8
ARKA_OUTLINE
10
487.45
20
284.5
30
0
0
SEQEND
8
ARKA_OUTLINE
0
POLYLINE
8
ARKA_PANE
66
1
70
1
10
0
20
0
30
0
0
VERTEX
8
ARKA_PANE
10
485.45
20
10.5
30
0
0
VERTEX
8
ARKA_PANE
10
722.5
20
10.5
30
0
0
VERTEX
8
ARKA_PANE
10
722.5
20
286.5
30
0
0
VERTEX
8
ARKA_PANE
10
485.45
20
286.5
30
0
0
SEQEND
8
ARKA_PANE
0
POLYLINE
8
ARKA_FRONT_HINGES_3MM
66
1
70
1
10
0
20
0
30
0
0
VERTEX
8
ARKA_FRONT_HINGES_3MM
10
477.45
20
2.5
30
0
0
VERTEX
8
ARKA_FRONT_HINGES_3MM
10
730.5
20
2.5
30
0
0
VERTEX
8
ARKA_FRONT_HINGES_3MM
10
730.5
20
294.5
30
0
0
VERTEX
8
ARKA_FRONT_HINGES_3MM
10
477.45
20
294.5
30
0
0
SEQEND
8
ARKA_FRONT_HINGES_3MM
0
POLYLINE
8
ARKA_OUTLINE
66
1
70
1
10
0
20
0
30
0
0
VERTEX
8
ARKA_OUTLINE
10
720.5
20
306.5
30
0
0
VERTEX
8
ARKA_OUTLINE
10
720.5
20
580
30
0
0
VERTEX
8
ARKA_OUTLINE
10
487.45
20
580
30
0
0
VERTEX
8
ARKA_OUTLINE
10
487.45
20
306.5
30
0
0
SEQEND
8
ARKA_OUTLINE
0
POLYLINE
8
ARKA_PANE
66
1
70
1
10
0
20
0
30
0
0
VERTEX
8
ARKA_PANE
10
722.5
20
304.5
30
0
0
VERTEX
8
ARKA_PANE
10
722.5
20
582
30
0
0
VERTEX
8
ARKA_PANE
10
485.45
20
582
30
0
0
VERTEX
8
ARKA_PANE
10
485.45
20
304.5
30
0
0
SEQEND
8
ARKA_PANE
0
POLYLINE
8
ARKA_FRONT_HINGES_3MM
66
1
70
1
10
0
20
0
30
0
0
VERTEX
8
ARKA_FRONT_HINGES_3MM
10
730.5
20
296.5
30
0
0
VERTEX
8
ARKA_FRONT_HINGES_3MM
10
730.5
20
590
30
0
0
VERTEX
8
ARKA_FRONT_HINGES_3MM
10
477.45
20
590
30
0
0
VERTEX
8
ARKA_FRONT_HINGES_3MM
10
477.45
20
296.5
30
0
0
SEQEND
8
ARKA_FRONT_HINGES_3MM
0
POLYLINE
8
ARKA_OUTLINE
66
1
70
1
10
0
20
0
30
0
0
VERTEX
8
ARKA_OUTLINE
10
720.329055
20
602
30
0
42
0.251362
0
VERTEX
8
ARKA_OUTLINE
10
552.940807
20
891.92495
30
0
0
VERTEX
8
ARKA_OUTLINE
10
436.250657
20
689.811681
30
0
42
-0.219699
0
VERTEX
8
ARKA_OUTLINE
10
486.948755
20
602
30
0
0
SEQEND
8
ARKA_OUTLINE
0
POLYLINE
8
ARKA_PANE
66
1
70
1
10
0
20
0
30
0
0
VERTEX
8
ARKA_PANE
10
722.386218
20
600
30
0
42
0.254445
0
VERTEX
8
ARKA_PANE
10
552.237338
20
894.706505
30
0
0
VERTEX
8
ARKA_PANE
10
433.598745
20
689.218435
30
0
42
-0.227752
0
VERTEX
8
ARKA_PANE
10
485.109032
20
600
30
0
0
SEQEND
8
ARKA_PANE
0
POLYLINE
8
ARKA_FRONT_HINGES_3MM
66
1
70
1
10
0
20
0
30
0
0
VERTEX
8
ARKA_FRONT_HINGES_3MM
10
730.498626
20
592
30
0
42
0.266477
0
VERTEX
8
ARKA_FRONT_HINGES_3MM
10
549.365339
20
905.732057
30
0
0
VERTEX
8
ARKA_FRONT_HINGES_3MM
10
422.838772
20
686.581616
30
0
42
-0.263125
0
VERTEX
8
ARKA_FRONT_HINGES_3MM
10
477.445493
20
592
30
0
0
SEQEND
8
ARKA_FRONT_HINGES_3MM
0
POLYLINE
8
ARKA_OUTLINE
66
1
70
1
10
0
20
0
30
0
0
VERTEX
8
ARKA_OUTLINE
10
533.888248
20
902.92495
30
0
42
0.251362
0
VERTEX
8
ARKA_OUTLINE
10
199.111752
20
902.92495
30
0
0
VERTEX
8
ARKA_OUTLINE
10
315.801902
20
700.811681
30
0
42
-0.219699
0
VERTEX
8
ARKA_OUTLINE
10
417.198098
20
700.811681
30
0
0
SEQEND
8
ARKA_OUTLINE
0
POLYLINE
8
ARKA_PANE
66
1
70
1
10
0
20
0
30
0
0
VERTEX
8
ARKA_PANE
10
536.64888
20
903.706505
30
0
42
0.254445
0
VERTEX
8
ARKA_PANE
10
196.35112
20
903.706505
30
0
0
VERTEX
8
ARKA_PANE
10
314.989713
20
698.218435
30
0
42
-0.227752
0
VERTEX
8
ARKA_PANE
10
418.010287
20
698.218435
30
0
0
SEQEND
8
ARKA_PANE
0
POLYLINE
8
ARKA_FRONT_HINGES_3MM
66
1
70
1
10
0
20
0
30
0
0
VERTEX
8
ARKA_FRONT_HINGES_3MM
10
547.633288
20
906.732057
30
0
42
0.266477
0
VERTEX
8
ARKA_FRONT_HINGES_3MM
10
185.366712
20
906.732057
30
0
0
VERTEX
8
ARKA_FRONT_HINGES_3MM
10
311.893279
20
687.581616
30
0
42
-0.263125
0
VERTEX
8
ARKA_FRONT_HINGES_3MM
10
421.106721
20
687.581616
30
0
0
SEQEND
8
ARKA_FRONT_HINGES_3MM
0
POLYLINE
8
ARKA_OUTLINE
66
1
70
1
10
0
20
0
30
0
0
VERTEX
8
ARKA_OUTLINE
10
180.059193
20
891.92495
30
0
42
0.251362
0
VERTEX
8
ARKA_OUTLINE
10
12.670945
20
602
30
0
0
VERTEX
8
ARKA_OUTLINE
10
246.051245
20
602
30
0
42
-0.219699
0
VERTEX
8
ARKA_OUTLINE
10
296.749343
20
689.811681
30
0
0
SEQEND
8
ARKA_OUTLINE
0
POLYLINE
8
ARKA_PANE
66
1
70
1
10
0
20
0
30
0
0
VERTEX
8
ARKA_PANE
10
180.762662
20
894.706505
30
0
42
0.254445
0
VERTEX
8
ARKA_PANE
10
10.613782
20
600
30
0
0
VERTEX
8
ARKA_PANE
10
247.890968
20
600
30
0
42
-0.227752
0
VERTEX
8
ARKA_PANE
10
299.401255
20
689.218435
30
0
0
SEQEND
8
ARKA_PANE
0
POLYLINE
8
ARKA_FRONT_HINGES_3MM
66
1
70
1
10
0
20
0
30
0
0
VERTEX
8
ARKA_FRONT_HINGES_3MM
10
183.634661
20
905.732057
30
0
42
0.266477
0
VERTEX
8
ARKA_FRONT_HINGES_3MM
10
2.501374
20
592
30
0
0
VERTEX
8
ARKA_FRONT_HINGES_3MM
10
255.554507
20
592
30
0
42
-0.263125
0
VERTEX
8
ARKA_FRONT_HINGES_3MM
10
310.161228
20
686.581616
30
0
0
SEQEND
8
ARKA_FRONT_HINGES_3MM
0
POLYLINE
8
ARKA_OUTLINE
66
1
70
1
10
0
20
0
30
0
0
VERTEX
8
ARKA_OUTLINE
10
12.5
20
580
30
0
0
VERTEX
8
ARKA_OUTLINE
10
12.5
20
306.5
30
0
0
VERTEX
8
ARKA_OUTLINE
10
245.55
20
306.5
30
0
0
VERTEX
8
ARKA_OUTLINE
10
245.55
20
580
30
0
0
SEQEND
8
ARKA_OUTLINE
0
POLYLINE
8
ARKA_PANE
66
1
70
1
10
0
20
0
30
0
0
VERTEX
8
ARKA_PANE
10
10.5
20
582
30
0
0
VERTEX
8
ARKA_PANE
10
10.5
20
304.5
30
0
0
VERTEX
8
ARKA_PANE
10
247.55
20
304.5
30
0
0
VERTEX
8
ARKA_PANE
10
247.55
20
582
30
0
0
SEQEND
8
ARKA_PANE
0
POLYLINE
8
ARKA_FRONT_HINGES_3MM
66
1
70
1
10
0
20
0
30
0
0
VERTEX
8
ARKA_FRONT_HINGES_3MM
10
2.5
20
590
30
0
0
VERTEX
8
ARKA_FRONT_HINGES_3MM
10
2.5
20
296.5
30
0
0
VERTEX
8
ARKA_FRONT_HINGES_3MM
10
255.55
20
296.5
30
0
0
VERTEX
8
ARKA_FRONT_HINGES_3MM
10
255.55
20
590
30
0
0
SEQEND
8
ARKA_FRONT_HINGES_3MM
0
POLYLINE
8
ARKA_OUTLINE
66
1
70
1
10
0
20
0
30
0
0
VERTEX
8
ARKA_OUTLINE
10
267.55
20
306.5
30
0
0
VERTEX
8
ARKA_OUTLINE
10
465.45
20
306.5
30
0
0
VERTEX
8
ARKA_OUTLINE
10
465.45
20
591
30
0
42
1
0
VERTEX
8
ARKA_OUTLINE
10
267.55
20
591.000002
30
0
0
SEQEND
8
ARKA_OUTLINE
0
POLYLINE
8
ARKA_PANE
66
1
70
1
10
0
20
0
30
0
0
VERTEX
8
ARKA_PANE
10
265.55
20
304.5
30
0
0
VERTEX
8
ARKA_PANE
10
467.45
20
304.5
30
0
0
VERTEX
8
ARKA_PANE
10
467.45
20
591
30
0
42
1
0
VERTEX
8
ARKA_PANE
10
265.55
20
591.000001
30
0
0
SEQEND
8
ARKA_PANE
0
POLYLINE
8
ARKA_FRONT_HINGES_3MM
66
1
70
1
10
0
20
0
30
0
0
VERTEX
8
ARKA_FRONT_HINGES_3MM
10
257.55
20
296.5
30
0
0
VERTEX
8
ARKA_FRONT_HINGES_3MM
10
475.45
20
296.5
30
0
0
VERTEX
8
ARKA_FRONT_HINGES_3MM
10
475.45
20
591
30
0
42
1
0
VERTEX
8
ARKA_FRONT_HINGES_3MM
10
257.55
20
591.000002
30
0
0
SEQEND
8
ARKA_FRONT_HINGES_3MM
0
POLYLINE
8
ARKA_MITRE
66
1
70
0
10
0
20
0
30
0
0
VERTEX
8
ARKA_MITRE
10
2.5
20
17.5
30
0
0
VERTEX
8
ARKA_MITRE
10
2.5
20
2.5
30
0
0
VERTEX
8
ARKA_MITRE
10
17.5
20
2.5
30
0
0
SEQEND
8
ARKA_MITRE
0
POLYLINE
8
ARKA_MITRE
66
1
70
0
10
0
20
0
30
0
0
VERTEX
8
ARKA_MITRE
10
240.55
20
2.5
30
0
0
VERTEX
8
ARKA_MITRE
10
255.55
20
2.5
30
0
0
VERTEX
8
ARKA_MITRE
10
255.55
20
17.5
30
0
0
SEQEND
8
ARKA_MITRE
0
POLYLINE
8
ARKA_MITRE
66
1
70
0
10
0
20
0
30
0
0
VERTEX
8
ARKA_MITRE
10
255.55
20
279.5
30
0
0
VERTEX
8
ARKA_MITRE
10
255.55
20
294.5
30
0
0
VERTEX
8
ARKA_MITRE
10
240.55
20
294.5
30
0
0
SEQEND
8
ARKA_MITRE
0
POLYLINE
8
ARKA_MITRE
66
1
70
0
10
0
20
0
30
0
0
VERTEX
8
ARKA_MITRE
10
17.5
20
294.5
30
0
0
VERTEX
8
ARKA_MITRE
10
2.5
20
294.5
30
0
0
VERTEX
8
ARKA_MITRE
10
2.5
20
279.5
30
0
0
SEQEND
8
ARKA_MITRE
0
POLYLINE
8
ARKA_MITRE
66
1
70
0
10
0
20
0
30
0
0
VERTEX
8
ARKA_MITRE
10
257.55
20
17.5
30
0
0
VERTEX
8
ARKA_MITRE
10
257.55
20
2.5
30
0
0
VERTEX
8
ARKA_MITRE
10
272.55
20
2.5
30
0
0
SEQEND
8
ARKA_MITRE
0
POLYLINE
8
ARKA_MITRE
66
1
70
0
10
0
20
0
30
0
0
VERTEX
8
ARKA_MITRE
10
460.45
20
2.5
30
0
0
VERTEX
8
ARKA_MITRE
10
475.45
20
2.5
30
0
0
VERTEX
8
ARKA_MITRE
10
475.45
20
17.5
30
0
0
SEQEND
8
ARKA_MITRE
0
POLYLINE
8
ARKA_MITRE
66
1
70
0
10
0
20
0
30
0
0
VERTEX
8
ARKA_MITRE
10
475.45
20
279.5
30
0
0
VERTEX
8
ARKA_MITRE
10
475.45
20
294.5
30
0
0
VERTEX
8
ARKA_MITRE
10
460.45
20
294.5
30
0
0
SEQEND
8
ARKA_MITRE
0
POLYLINE
8
ARKA_MITRE
66
1
70
0
10
0
20
0
30
0
0
VERTEX
8
ARKA_MITRE
10
272.55
20
294.5
30
0
0
VERTEX
8
ARKA_MITRE
10
257.55
20
294.5
30
0
0
VERTEX
8
ARKA_MITRE
10
257.55
20
279.5
30
0
0
SEQEND
8
ARKA_MITRE
0
POLYLINE
8
ARKA_MITRE
66
1
70
0
10
0
20
0
30
0
0
VERTEX
8
ARKA_MITRE
10
477.45
20
17.5
30
0
0
VERTEX
8
ARKA_MITRE
10
477.45
20
2.5
30
0
0
VERTEX
8
ARKA_MITRE
10
492.45
20
2.5
30
0
0
SEQEND
8
ARKA_MITRE
0
POLYLINE
8
ARKA_MITRE
66
1
70
0
10
0
20
0
30
0
0
VERTEX
8
ARKA_MITRE
10
715.5
20
2.5
30
0
0
VERTEX
8
ARKA_MITRE
10
730.5
20
2.5
30
0
0
VERTEX
8
ARKA_MITRE
10
730.5
20
17.5
30
0
0
SEQEND
8
ARKA_MITRE
0
POLYLINE
8
ARKA_MITRE
66
1
70
0
10
0
20
0
30
0
0
VERTEX
8
ARKA_MITRE
10
730.5
20
279.5
30
0
0
VERTEX
8
ARKA_MITRE
10
730.5
20
294.5
30
0
0
VERTEX
8
ARKA_MITRE
10
715.5
20
294.5
30
0
0
SEQEND
8
ARKA_MITRE
0
POLYLINE
8
ARKA_MITRE
66
1
70
0
10
0
20
0
30
0
0
VERTEX
8
ARKA_MITRE
10
492.45
20
294.5
30
0
0
VERTEX
8
ARKA_MITRE
10
477.45
20
294.5
30
0
0
VERTEX
8
ARKA_MITRE
10
477.45
20
279.5
30
0
0
SEQEND
8
ARKA_MITRE
0
POLYLINE
8
ARKA_MITRE
66
1
70
0
10
0
20
0
30
0
0
VERTEX
8
ARKA_MITRE
10
715.5
20
296.5
30
0
0
VERTEX
8
ARKA_MITRE
10
730.5
20
296.5
30
0
0
VERTEX
8
ARKA_MITRE
10
730.5
20
311.5
30
0
0
SEQEND
8
ARKA_MITRE
0
POLYLINE
8
ARKA_MITRE
66
1
70
0
10
0
20
0
30
0
0
VERTEX
8
ARKA_MITRE
10
730.5
20
575
30
0
0
VERTEX
8
ARKA_MITRE
10
730.5
20
590
30
0
0
VERTEX
8
ARKA_MITRE
10
715.5
20
590
30
0
0
SEQEND
8
ARKA_MITRE
0
POLYLINE
8
ARKA_MITRE
66
1
70
0
10
0
20
0
30
0
0
VERTEX
8
ARKA_MITRE
10
492.45
20
590
30
0
0
VERTEX
8
ARKA_MITRE
10
477.45
20
590
30
0
0
VERTEX
8
ARKA_MITRE
10
477.45
20
575
30
0
0
SEQEND
8
ARKA_MITRE
0
POLYLINE
8
ARKA_MITRE
66
1
70
0
10
0
20
0
30
0
0
VERTEX
8
ARKA_MITRE
10
477.45
20
311.5
30
0
0
VERTEX
8
ARKA_MITRE
10
477.45
20
296.5
30
0
0
VERTEX
8
ARKA_MITRE
10
492.45
20
296.5
30
0
0
SEQEND
8
ARKA_MITRE
0
POLYLINE
8
ARKA_MITRE
66
1
70
0
10
0
20
0
30
0
0
VERTEX
8
ARKA_MITRE
10
715.498626
20
592
30
0
0
VERTEX
8
ARKA_MITRE
10
730.498626
20
592
30
0
42
0.010303
0
VERTEX
8
ARKA_MITRE
10
730.148408
20
606.994849
30
0
0
SEQEND
8
ARKA_MITRE
0
POLYLINE
8
ARKA_MITRE
66
1
70
0
10
0
20
0
30
0
0
VERTEX
8
ARKA_MITRE
10
562.17615
20
897.931335
30
0
42
0.010303
0
VERTEX
8
ARKA_MITRE
10
549.365339
20
905.732057
30
0
0
VERTEX
8
ARKA_MITRE
10
541.865339
20
892.741676
30
0
0
SEQEND
8
ARKA_MITRE
0
POLYLINE
8
ARKA_MITRE
66
1
70
0
10
0
20
0
30
0
0
VERTEX
8
ARKA_MITRE
10
430.338772
20
699.571997
30
0
0
VERTEX
8
ARKA_MITRE
10
422.838772
20
686.581616
30
0
42
-0.033812
0
VERTEX
8
ARKA_MITRE
10
435.207603
20
678.11583
30
0
0
SEQEND
8
ARKA_MITRE
0
POLYLINE
8
ARKA_MITRE
66
1
70
0
10
0
20
0
30
0
0
VERTEX
8
ARKA_MITRE
10
476.298323
20
606.944614
30
0
42
-0.033812
0
VERTEX
8
ARKA_MITRE
10
477.445493
20
592
30
0
0
VERTEX
8
ARKA_MITRE
10
492.445493
20
592
30
0
0
SEQEND
8
ARKA_MITRE
0
POLYLINE
8
ARKA_MITRE
66
1
70
0
10
0
20
0
30
0
0
VERTEX
8
ARKA_MITRE
10
540.133288
20
893.741676
30
0
0
VERTEX
8
ARKA_MITRE
10
547.633288
20
906.732057
30
0
42
0.010303
0
VERTEX
8
ARKA_MITRE
10
534.472258
20
913.926184
30
0
0
SEQEND
8
ARKA_MITRE
0
POLYLINE
8
ARKA_MITRE
66
1
70
0
10
0
20
0
30
0
0
VERTEX
8
ARKA_MITRE
10
198.527742
20
913.926184
30
0
42
0.010303
0
VERTEX
8
ARKA_MITRE
10
185.366712
20
906.732057
30
0
0
VERTEX
8
ARKA_MITRE
10
192.866712
20
893.741676
30
0
0
SEQEND
8
ARKA_MITRE
0
POLYLINE
8
ARKA_MITRE
66
1
70
0
10
0
20
0
30
0
0
VERTEX
8
ARKA_MITRE
10
304.393279
20
700.571997
30
0
0
VERTEX
8
ARKA_MITRE
10
311.893279
20
687.581616
30
0
42
-0.033812
0
VERTEX
8
ARKA_MITRE
10
325.409279
20
694.060444
30
0
0
SEQEND
8
ARKA_MITRE
0
POLYLINE
8
ARKA_MITRE
66
1
70
0
10
0
20
0
30
0
0
VERTEX
8
ARKA_MITRE
10
407.590721
20
694.060444
30
0
42
-0.033812
0
VERTEX
8
ARKA_MITRE
10
421.106721
20
687.581616
30
0
0
VERTEX
8
ARKA_MITRE
10
428.606721
20
700.571997
30
0
0
SEQEND
8
ARKA_MITRE
0
POLYLINE
8
ARKA_MITRE
66
1
70
0
10
0
20
0
30
0
0
VERTEX
8
ARKA_MITRE
10
191.134661
20
892.741676
30
0
0
VERTEX
8
ARKA_MITRE
10
183.634661
20
905.732057
30
0
42
0.010303
0
VERTEX
8
ARKA_MITRE
10
170.82385
20
897.931335
30
0
0
SEQEND
8
ARKA_MITRE
0
POLYLINE
8
ARKA_MITRE
66
1
70
0
10
0
20
0
30
0
0
VERTEX
8
ARKA_MITRE
10
2.851592
20
606.994849
30
0
42
0.010303
0
VERTEX
8
ARKA_MITRE
10
2.501374
20
592
30
0
0
VERTEX
8
ARKA_MITRE
10
17.501374
20
592
30
0
0
SEQEND
8
ARKA_MITRE
0
POLYLINE
8
ARKA_MITRE
66
1
70
0
10
0
20
0
30
0
0
VERTEX
8
ARKA_MITRE
10
240.554507
20
592
30
0
0
VERTEX
8
ARKA_MITRE
10
255.554507
20
592
30
0
42
-0.033812
0
VERTEX
8
ARKA_MITRE
10
256.701677
20
606.944614
30
0
0
SEQEND
8
ARKA_MITRE
0
POLYLINE
8
ARKA_MITRE
66
1
70
0
10
0
20
0
30
0
0
VERTEX
8
ARKA_MITRE
10
297.792397
20
678.11583
30
0
42
-0.033812
0
VERTEX
8
ARKA_MITRE
10
310.161228
20
686.581616
30
0
0
VERTEX
8
ARKA_MITRE
10
302.661228
20
699.571997
30
0
0
SEQEND
8
ARKA_MITRE
0
POLYLINE
8
ARKA_MITRE
66
1
70
0
10
0
20
0
30
0
0
VERTEX
8
ARKA_MITRE
10
17.5
20
590
30
0
0
VERTEX
8
ARKA_MITRE
10
2.5
20
590
30
0
0
VERTEX
8
ARKA_MITRE
10
2.5
20
575
30
0
0
SEQEND
8
ARKA_MITRE
0
POLYLINE
8
ARKA_MITRE
66
1
70
0
10
0
20
0
30
0
0
VERTEX
8
ARKA_MITRE
10
2.5
20
311.5
30
0
0
VERTEX
8
ARKA_MITRE
10
2.5
20
296.5
30
0
0
VERTEX
8
ARKA_MITRE
10
17.5
20
296.5
30
0
0
SEQEND
8
ARKA_MITRE
0
POLYLINE
8
ARKA_MITRE
66
1
70
0
10
0
20
0
30
0
0
VERTEX
8
ARKA_MITRE
10
240.55
20
296.5
30
0
0
VERTEX
8
ARKA_MITRE
10
255.55
20
296.5
30
0
0
VERTEX
8
ARKA_MITRE
10
255.55
20
311.5
30
0
0
SEQEND
8
ARKA_MITRE
0
POLYLINE
8
ARKA_MITRE
66
1
70
0
10
0
20
0
30
0
0
VERTEX
8
ARKA_MITRE
10
255.55
20
575
30
0
0
VERTEX
8
ARKA_MITRE
10
255.55
20
590
30
0
0
VERTEX
8
ARKA_MITRE
10
240.55
20
590
30
0
0
SEQEND
8
ARKA_MITRE
0
POLYLINE
8
ARKA_MITRE
66
1
70
0
10
0
20
0
30
0
0
VERTEX
8
ARKA_MITRE
10
257.55
20
311.5
30
0
0
VERTEX
8
ARKA_MITRE
10
257.55
20
296.5
30
0
0
VERTEX
8
ARKA_MITRE
10
272.55
20
296.5
30
0
0
SEQEND
8
ARKA_MITRE
0
POLYLINE
8
ARKA_MITRE
66
1
70
0
10
0
20
0
30
0
0
VERTEX
8
ARKA_MITRE
10
460.45
20
296.5
30
0
0
VERTEX
8
ARKA_MITRE
10
475.45
20
296.5
30
0
0
VERTEX
8
ARKA_MITRE
10
475.45
20
311.5
30
0
0
SEQEND
8
ARKA_MITRE
0
POINT
8
ARKA_CENTRE
10
366.5
20
591
30
0
0
POLYLINE
8
ARKA_SECTION
66
1
70
0
10
0
20
0
30
0
0
VERTEX
8
ARKA_SECTION
10
838.5
20
-5.5
30
0
42
-0.414214
0
VERTEX
8
ARKA_SECTION
10
846.5
20
2.5
30
0
0
VERTEX
8
ARKA_SECTION
10
846.5
20
8.5
30
0
0
SEQEND
8
ARKA_SECTION
0
TEXT
8
ARKA_INFO_NO_CUT
10
834.5
20
-24.5
30
0
40
15
1
START
72
0
11
834.5
21
-24.5
31
0
73
0
0
TEXT
8
ARKA_INFO_NO_CUT
10
858.5
20
-1.5
30
0
40
15
1
SECTION R8 + 6 (VERBATIM)
72
0
11
858.5
21
-1.5
31
0
73
0
0
TEXT
8
ARKA_INFO_NO_CUT
10
838.5
20
941
30
0
40
15
1
SS - TRACERY FULL
72
0
11
838.5
21
941
31
0
73
0
0
TEXT
8
ARKA_INFO_NO_CUT
10
838.5
20
919
30
0
40
15
1
PATTERN HUB-SPOKE SPOKES 4 RINGS 1 PANES 9
72
0
11
838.5
21
919
31
0
73
0
0
TEXT
8
ARKA_INFO_NO_CUT
10
838.5
20
897
30
0
40
15
1
TIMBER BAR 22 EDGE MARGIN 18 PANE +2 LIMIT +10 MITRE LEG 15
72
0
11
838.5
21
897
31
0
73
0
0
TEXT
8
ARKA_INFO_NO_CUT
10
838.5
20
875
30
0
40
15
1
ARKA_PANE = MOULDING RAIL (INNER EDGE OF THE BEAD), ARKA_FRONT_HINGES_3MM = BEAD LIMIT (NOT DRILLING)
72
0
11
838.5
21
875
31
0
73
0
0
TEXT
8
ARKA_INFO_NO_CUT
10
838.5
20
853
30
0
40
15
1
NOT A TOOLPATH
72
0
11
838.5
21
853
31
0
73
0
0
ENDSEC
0
EOF
