0
SECTION
2
HEADER
9
$ACADVER
1
AC1009
0
ENDSEC
0
SECTION
2
TABLES
0
TABLE
2
LAYER
70
6
0
LAYER
2
0
70
0
62
7
6
CONTINUOUS
0
LAYER
2
CONTOUR
70
0
62
7
6
CONTINUOUS
0
LAYER
2
ASSEMBLY
70
0
62
8
6
CONTINUOUS
0
LAYER
2
PIECES
70
0
62
5
6
CONTINUOUS
0
LAYER
2
FINGER
70
0
62
1
6
CONTINUOUS
0
LAYER
2
TEXT
70
0
62
94
6
CONTINUOUS
0
ENDTAB
0
ENDSEC
0
SECTION
2
ENTITIES
0
POLYLINE
8
ASSEMBLY
66
1
70
1
10
0
20
0
30
0
0
VERTEX
8
ASSEMBLY
10
0
20
0
30
0
0
VERTEX
8
ASSEMBLY
10
362.719608
20
0
30
0
0
VERTEX
8
ASSEMBLY
10
362.719608
20
105
30
0
0
VERTEX
8
ASSEMBLY
10
0
20
105
30
0
0
SEQEND
8
ASSEMBLY
0
POLYLINE
8
PIECES
66
1
70
1
10
0
20
0
30
0
0
VERTEX
8
PIECES
10
360.69327
20
76.405245
30
0
42
0.102379
0
VERTEX
8
PIECES
10
17.026338
20
76.405245
30
0
0
VERTEX
8
PIECES
10
30.602803
20
10.795188
30
0
42
-0.102379
0
VERTEX
8
PIECES
10
347.116805
20
10.795188
30
0
0
SEQEND
8
PIECES
0
POLYLINE
8
FINGER
66
1
70
0
10
0
20
0
30
0
0
VERTEX
8
FINGER
10
30.602803
20
10.795188
30
0
0
VERTEX
8
FINGER
10
17.026338
20
76.405245
30
0
0
SEQEND
8
FINGER
0
POLYLINE
8
FINGER
66
1
70
0
10
0
20
0
30
0
0
VERTEX
8
FINGER
10
16
20
0
30
0
0
VERTEX
8
FINGER
10
16
20
105
30
0
0
SEQEND
8
FINGER
0
TEXT
8
TEXT
10
181.359804
20
62.5
30
0
40
15
1
T - LEAF TOP P1 L362.7 x105
72
1
11
181.359804
21
62.5
31
0
73
2
0
TEXT
8
TEXT
10
181.359804
20
10
30
0
40
10
1
OUT 347.7 IN 312.5 CUT J11.7/S78.3 FINGER ONE END
72
1
11
181.359804
21
10
31
0
73
2
0
POLYLINE
8
ASSEMBLY
66
1
70
1
10
0
20
0
30
0
0
VERTEX
8
ASSEMBLY
10
562.719608
20
0
30
0
0
VERTEX
8
ASSEMBLY
10
940.439217
20
0
30
0
0
VERTEX
8
ASSEMBLY
10
940.439217
20
105
30
0
0
VERTEX
8
ASSEMBLY
10
562.719608
20
105
30
0
0
SEQEND
8
ASSEMBLY
0
POLYLINE
8
PIECES
66
1
70
1
10
0
20
0
30
0
0
VERTEX
8
PIECES
10
923.412879
20
76.405245
30
0
42
0.102379
0
VERTEX
8
PIECES
10
579.745946
20
76.405245
30
0
0
VERTEX
8
PIECES
10
593.322411
20
10.795188
30
0
42
-0.102379
0
VERTEX
8
PIECES
10
909.836414
20
10.795188
30
0
0
SEQEND
8
PIECES
0
POLYLINE
8
FINGER
66
1
70
0
10
0
20
0
30
0
0
VERTEX
8
FINGER
10
909.836414
20
10.795188
30
0
0
VERTEX
8
FINGER
10
923.412879
20
76.405245
30
0
0
SEQEND
8
FINGER
0
POLYLINE
8
FINGER
66
1
70
0
10
0
20
0
30
0
0
VERTEX
8
FINGER
10
593.322411
20
10.795188
30
0
0
VERTEX
8
FINGER
10
579.745946
20
76.405245
30
0
0
SEQEND
8
FINGER
0
POLYLINE
8
FINGER
66
1
70
0
10
0
20
0
30
0
0
VERTEX
8
FINGER
10
578.719608
20
0
30
0
0
VERTEX
8
FINGER
10
578.719608
20
105
30
0
0
SEQEND
8
FINGER
0
POLYLINE
8
FINGER
66
1
70
0
10
0
20
0
30
0
0
VERTEX
8
FINGER
10
924.439217
20
0
30
0
0
VERTEX
8
FINGER
10
924.439217
20
105
30
0
0
SEQEND
8
FINGER
0
TEXT
8
TEXT
10
751.579413
20
62.5
30
0
40
15
1
T - LEAF TOP P2 L377.7 x105
72
1
11
751.579413
21
62.5
31
0
73
2
0
TEXT
8
TEXT
10
751.579413
20
10
30
0
40
10
1
OUT 347.7 IN 312.5 CUT J11.7/J11.7 FINGER BOTH ENDS
72
1
11
751.579413
21
10
31
0
73
2
0
POLYLINE
8
ASSEMBLY
66
1
70
1
10
0
20
0
30
0
0
VERTEX
8
ASSEMBLY
10
1140.439217
20
0
30
0
0
VERTEX
8
ASSEMBLY
10
1521.690546
20
0
30
0
0
VERTEX
8
ASSEMBLY
10
1521.690546
20
105
30
0
0
VERTEX
8
ASSEMBLY
10
1140.439217
20
105
30
0
0
SEQEND
8
ASSEMBLY
0
POLYLINE
8
PIECES
66
1
70
1
10
0
20
0
30
0
0
VERTEX
8
PIECES
10
1504.664207
20
76.405245
30
0
42
0.102379
0
VERTEX
8
PIECES
10
1160.997275
20
76.405245
30
0
0
VERTEX
8
PIECES
10
1198.475376
20
15.353995
30
0
42
-0.094514
0
VERTEX
8
PIECES
10
1491.087743
20
10.795188
30
0
0
SEQEND
8
PIECES
0
POLYLINE
8
FINGER
66
1
70
0
10
0
20
0
30
0
0
VERTEX
8
FINGER
10
1491.087743
20
10.795188
30
0
0
VERTEX
8
FINGER
10
1504.664207
20
76.405245
30
0
0
SEQEND
8
FINGER
0
POLYLINE
8
FINGER
66
1
70
0
10
0
20
0
30
0
0
VERTEX
8
FINGER
10
1198.475376
20
15.353995
30
0
0
VERTEX
8
FINGER
10
1160.997275
20
76.405245
30
0
0
SEQEND
8
FINGER
0
POLYLINE
8
FINGER
66
1
70
0
10
0
20
0
30
0
0
VERTEX
8
FINGER
10
1156.439217
20
0
30
0
0
VERTEX
8
FINGER
10
1156.439217
20
105
30
0
0
SEQEND
8
FINGER
0
POLYLINE
8
FINGER
66
1
70
0
10
0
20
0
30
0
0
VERTEX
8
FINGER
10
1505.690546
20
0
30
0
0
VERTEX
8
FINGER
10
1505.690546
20
105
30
0
0
SEQEND
8
FINGER
0
TEXT
8
TEXT
10
1331.064881
20
62.5
30
0
40
15
1
T - LEAF TOP P3 L381.3 x105
72
1
11
1331.064881
21
62.5
31
0
73
2
0
TEXT
8
TEXT
10
1331.064881
20
10
30
0
40
10
1
OUT 351.3 IN 285 CUT A58.5/J11.7 FINGER BOTH ENDS
72
1
11
1331.064881
21
10
31
0
73
2
0
POLYLINE
8
ASSEMBLY
66
1
70
1
10
0
20
0
30
0
0
VERTEX
8
ASSEMBLY
10
1721.690546
20
0
30
0
0
VERTEX
8
ASSEMBLY
10
2102.941874
20
0
30
0
0
VERTEX
8
ASSEMBLY
10
2102.941874
20
105
30
0
0
VERTEX
8
ASSEMBLY
10
1721.690546
20
105
30
0
0
SEQEND
8
ASSEMBLY
0
POLYLINE
8
PIECES
66
1
70
1
10
0
20
0
30
0
0
VERTEX
8
PIECES
10
2082.383816
20
76.405245
30
0
42
0.102379
0
VERTEX
8
PIECES
10
1738.716884
20
76.405245
30
0
0
VERTEX
8
PIECES
10
1752.293348
20
10.795188
30
0
42
-0.094514
0
VERTEX
8
PIECES
10
2044.905715
20
15.353995
30
0
0
SEQEND
8
PIECES
0
POLYLINE
8
FINGER
66
1
70
0
10
0
20
0
30
0
0
VERTEX
8
FINGER
10
2044.905715
20
15.353995
30
0
0
VERTEX
8
FINGER
10
2082.383816
20
76.405245
30
0
0
SEQEND
8
FINGER
0
POLYLINE
8
FINGER
66
1
70
0
10
0
20
0
30
0
0
VERTEX
8
FINGER
10
1752.293348
20
10.795188
30
0
0
VERTEX
8
FINGER
10
1738.716884
20
76.405245
30
0
0
SEQEND
8
FINGER
0
POLYLINE
8
FINGER
66
1
70
0
10
0
20
0
30
0
0
VERTEX
8
FINGER
10
1737.690546
20
0
30
0
0
VERTEX
8
FINGER
10
1737.690546
20
105
30
0
0
SEQEND
8
FINGER
0
POLYLINE
8
FINGER
66
1
70
0
10
0
20
0
30
0
0
VERTEX
8
FINGER
10
2086.941874
20
0
30
0
0
VERTEX
8
FINGER
10
2086.941874
20
105
30
0
0
SEQEND
8
FINGER
0
TEXT
8
TEXT
10
1912.31621
20
62.5
30
0
40
15
1
T - LEAF TOP P4 L381.3 x105
72
1
11
1912.31621
21
62.5
31
0
73
2
0
TEXT
8
TEXT
10
1912.31621
20
10
30
0
40
10
1
OUT 351.3 IN 285 CUT J11.7/A58.5 FINGER BOTH ENDS
72
1
11
1912.31621
21
10
31
0
73
2
0
POLYLINE
8
ASSEMBLY
66
1
70
1
10
0
20
0
30
0
0
VERTEX
8
ASSEMBLY
10
2302.941874
20
0
30
0
0
VERTEX
8
ASSEMBLY
10
2680.661483
20
0
30
0
0
VERTEX
8
ASSEMBLY
10
2680.661483
20
105
30
0
0
VERTEX
8
ASSEMBLY
10
2302.941874
20
105
30
0
0
SEQEND
8
ASSEMBLY
0
POLYLINE
8
PIECES
66
1
70
1
10
0
20
0
30
0
0
VERTEX
8
PIECES
10
2663.635145
20
76.405245
30
0
42
0.102379
0
VERTEX
8
PIECES
10
2319.968212
20
76.405245
30
0
0
VERTEX
8
PIECES
10
2333.544677
20
10.795188
30
0
42
-0.102379
0
VERTEX
8
PIECES
10
2650.05868
20
10.795188
30
0
0
SEQEND
8
PIECES
0
POLYLINE
8
FINGER
66
1
70
0
10
0
20
0
30
0
0
VERTEX
8
FINGER
10
2650.05868
20
10.795188
30
0
0
VERTEX
8
FINGER
10
2663.635145
20
76.405245
30
0
0
SEQEND
8
FINGER
0
POLYLINE
8
FINGER
66
1
70
0
10
0
20
0
30
0
0
VERTEX
8
FINGER
10
2333.544677
20
10.795188
30
0
0
VERTEX
8
FINGER
10
2319.968212
20
76.405245
30
0
0
SEQEND
8
FINGER
0
POLYLINE
8
FINGER
66
1
70
0
10
0
20
0
30
0
0
VERTEX
8
FINGER
10
2318.941874
20
0
30
0
0
VERTEX
8
FINGER
10
2318.941874
20
105
30
0
0
SEQEND
8
FINGER
0
POLYLINE
8
FINGER
66
1
70
0
10
0
20
0
30
0
0
VERTEX
8
FINGER
10
2664.661483
20
0
30
0
0
VERTEX
8
FINGER
10
2664.661483
20
105
30
0
0
SEQEND
8
FINGER
0
TEXT
8
TEXT
10
2491.801678
20
62.5
30
0
40
15
1
T - LEAF TOP P5 L377.7 x105
72
1
11
2491.801678
21
62.5
31
0
73
2
0
TEXT
8
TEXT
10
2491.801678
20
10
30
0
40
10
1
OUT 347.7 IN 312.5 CUT J11.7/J11.7 FINGER BOTH ENDS
72
1
11
2491.801678
21
10
31
0
73
2
0
POLYLINE
8
ASSEMBLY
66
1
70
1
10
0
20
0
30
0
0
VERTEX
8
ASSEMBLY
10
2880.661483
20
0
30
0
0
VERTEX
8
ASSEMBLY
10
3243.381091
20
0
30
0
0
VERTEX
8
ASSEMBLY
10
3243.381091
20
105
30
0
0
VERTEX
8
ASSEMBLY
10
2880.661483
20
105
30
0
0
SEQEND
8
ASSEMBLY
0
POLYLINE
8
PIECES
66
1
70
1
10
0
20
0
30
0
0
VERTEX
8
PIECES
10
3226.354753
20
76.405245
30
0
42
0.102379
0
VERTEX
8
PIECES
10
2882.687821
20
76.405245
30
0
0
VERTEX
8
PIECES
10
2896.264286
20
10.795188
30
0
42
-0.102379
0
VERTEX
8
PIECES
10
3212.778288
20
10.795188
30
0
0
SEQEND
8
PIECES
0
POLYLINE
8
FINGER
66
1
70
0
10
0
20
0
30
0
0
VERTEX
8
FINGER
10
3212.778288
20
10.795188
30
0
0
VERTEX
8
FINGER
10
3226.354753
20
76.405245
30
0
0
SEQEND
8
FINGER
0
POLYLINE
8
FINGER
66
1
70
0
10
0
20
0
30
0
0
VERTEX
8
FINGER
10
3227.381091
20
0
30
0
0
VERTEX
8
FINGER
10
3227.381091
20
105
30
0
0
SEQEND
8
FINGER
0
TEXT
8
TEXT
10
3062.021287
20
62.5
30
0
40
15
1
T - LEAF TOP P6 L362.7 x105
72
1
11
3062.021287
21
62.5
31
0
73
2
0
TEXT
8
TEXT
10
3062.021287
20
10
30
0
40
10
1
OUT 347.7 IN 312.5 CUT S78.3/J11.7 FINGER ONE END
72
1
11
3062.021287
21
10
31
0
73
2
0
POLYLINE
8
CONTOUR
66
1
70
1
10
0
20
0
30
0
0
VERTEX
8
CONTOUR
10
1148.412149
20
322.466586
30
0
42
0.316
0
VERTEX
8
CONTOUR
10
588.412149
20
1120.062976
30
0
42
0.316
0
VERTEX
8
CONTOUR
10
28.412149
20
322.466586
30
0
0
VERTEX
8
CONTOUR
10
95.412149
20
322.466586
30
0
42
-0.307454
0
VERTEX
8
CONTOUR
10
588.412149
20
1048.425952
30
0
42
-0.307454
0
VERTEX
8
CONTOUR
10
1081.412149
20
322.466586
30
0
0
SEQEND
8
CONTOUR
0
POLYLINE
8
ASSEMBLY
66
1
70
1
10
0
20
0
30
0
0
VERTEX
8
ASSEMBLY
10
1074.002567
20
305
30
0
0
VERTEX
8
ASSEMBLY
10
1003.54282
20
645.506021
30
0
0
VERTEX
8
ASSEMBLY
10
1106.364551
20
666.78257
30
0
0
VERTEX
8
ASSEMBLY
10
1176.824298
20
326.276549
30
0
0
SEQEND
8
ASSEMBLY
0
POLYLINE
8
FINGER
66
1
70
0
10
0
20
0
30
0
0
VERTEX
8
FINGER
10
1017.275713
20
632.414374
30
0
0
VERTEX
8
FINGER
10
1078.773611
20
659.004005
30
0
0
SEQEND
8
FINGER
0
POLYLINE
8
ASSEMBLY
66
1
70
1
10
0
20
0
30
0
0
VERTEX
8
ASSEMBLY
10
1017.406405
20
613.441592
30
0
0
VERTEX
8
ASSEMBLY
10
817.599601
20
898.022279
30
0
0
VERTEX
8
ASSEMBLY
10
903.533703
20
958.357428
30
0
0
VERTEX
8
ASSEMBLY
10
1103.340506
20
673.776741
30
0
0
SEQEND
8
ASSEMBLY
0
POLYLINE
8
FINGER
66
1
70
0
10
0
20
0
30
0
0
VERTEX
8
FINGER
10
835.400289
20
891.455769
30
0
0
VERTEX
8
FINGER
10
881.295559
20
940.267901
30
0
0
SEQEND
8
FINGER
0
POLYLINE
8
ASSEMBLY
66
1
70
1
10
0
20
0
30
0
0
VERTEX
8
ASSEMBLY
10
843.04979
20
874.092915
30
0
0
VERTEX
8
ASSEMBLY
10
543.702727
20
1057.855893
30
0
0
VERTEX
8
ASSEMBLY
10
598.635224
20
1147.340086
30
0
0
VERTEX
8
ASSEMBLY
10
897.982287
20
963.577108
30
0
0
SEQEND
8
ASSEMBLY
0
POLYLINE
8
FINGER
66
1
70
0
10
0
20
0
30
0
0
VERTEX
8
FINGER
10
588.412149
20
1048.425952
30
0
0
VERTEX
8
FINGER
10
588.412149
20
1120.062976
30
0
0
SEQEND
8
FINGER
0
POLYLINE
8
ASSEMBLY
66
1
70
1
10
0
20
0
30
0
0
VERTEX
8
ASSEMBLY
10
633.121571
20
1057.855893
30
0
0
VERTEX
8
ASSEMBLY
10
333.774508
20
874.092915
30
0
0
VERTEX
8
ASSEMBLY
10
278.842011
20
963.577108
30
0
0
VERTEX
8
ASSEMBLY
10
578.189074
20
1147.340086
30
0
0
SEQEND
8
ASSEMBLY
0
POLYLINE
8
FINGER
66
1
70
0
10
0
20
0
30
0
0
VERTEX
8
FINGER
10
588.412149
20
1048.425952
30
0
0
VERTEX
8
FINGER
10
588.412149
20
1120.062976
30
0
0
SEQEND
8
FINGER
0
POLYLINE
8
FINGER
66
1
70
0
10
0
20
0
30
0
0
VERTEX
8
FINGER
10
341.424009
20
891.455769
30
0
0
VERTEX
8
FINGER
10
295.52874
20
940.267901
30
0
0
SEQEND
8
FINGER
0
POLYLINE
8
ASSEMBLY
66
1
70
1
10
0
20
0
30
0
0
VERTEX
8
ASSEMBLY
10
359.224697
20
898.022279
30
0
0
VERTEX
8
ASSEMBLY
10
159.417894
20
613.441592
30
0
0
VERTEX
8
ASSEMBLY
10
73.483792
20
673.776741
30
0
0
VERTEX
8
ASSEMBLY
10
273.290595
20
958.357428
30
0
0
SEQEND
8
ASSEMBLY
0
POLYLINE
8
FINGER
66
1
70
0
10
0
20
0
30
0
0
VERTEX
8
FINGER
10
159.548586
20
632.414374
30
0
0
VERTEX
8
FINGER
10
98.050687
20
659.004005
30
0
0
SEQEND
8
FINGER
0
POLYLINE
8
ASSEMBLY
66
1
70
1
10
0
20
0
30
0
0
VERTEX
8
ASSEMBLY
10
173.281478
20
645.506021
30
0
0
VERTEX
8
ASSEMBLY
10
102.821731
20
305
30
0
0
VERTEX
8
ASSEMBLY
10
0
20
326.276549
30
0
0
VERTEX
8
ASSEMBLY
10
70.459747
20
666.78257
30
0
0
SEQEND
8
ASSEMBLY
0
TEXT
8
TEXT
10
1276.824298
20
1128.840086
30
0
40
15
1
T - LEAF TOP
72
0
11
1276.824298
21
1128.840086
31
0
73
0
0
TEXT
8
TEXT
10
1276.824298
20
1106.840086
30
0
40
15
1
GOTHIC DROP W1200 RISE840 H2000 HINGE R
72
0
11
1276.824298
21
1106.840086
31
0
73
0
0
TEXT
8
TEXT
10
1276.824298
20
1084.840086
30
0
40
15
1
FACE 67 OFFSET 40 OUTER L2076.4 INNER L1863.7
72
0
11
1276.824298
21
1084.840086
31
0
73
0
0
TEXT
8
TEXT
10
1276.824298
20
1062.840086
30
0
40
15
1
ARC 1 R848 L1038.2 70.1DEG: 3 x board 105 L351.3 ROUGH 381.3 (ALT 2 x board 180)
72
0
11
1276.824298
21
1062.840086
31
0
73
0
0
TEXT
8
TEXT
10
1276.824298
20
1040.840086
30
0
40
15
1
ARC 2 R848 L1038.2 70.1DEG: 3 x board 105 L351.3 ROUGH 381.3 (ALT 2 x board 180)
72
0
11
1276.824298
21
1040.840086
31
0
73
0
0
TEXT
8
TEXT
10
1276.824298
20
1018.840086
30
0
40
15
1
FINGER 15/16/3.8
72
0
11
1276.824298
21
1018.840086
31
0
73
0
0
TEXT
8
TEXT
10
1276.824298
20
996.840086
30
0
40
15
1
ALLOWANCE 10 PER SIDE  MAX SEGMENT 36 DEG  RULE NARROWEST
72
0
11
1276.824298
21
996.840086
31
0
73
0
0
TEXT
8
TEXT
10
1276.824298
20
974.840086
30
0
40
15
1
CUT CODES: J = JOINT FROM SQUARE  S = ARCH-START, AXIS TO HORIZONTAL  A = APEX FROM SQUARE
72
0
11
1276.824298
21
974.840086
31
0
73
0
0
POLYLINE
8
ASSEMBLY
66
1
70
1
10
0
20
0
30
0
0
VERTEX
8
ASSEMBLY
10
0
20
1347.340086
30
0
0
VERTEX
8
ASSEMBLY
10
383.682945
20
1347.340086
30
0
0
VERTEX
8
ASSEMBLY
10
383.682945
20
1442.340086
30
0
0
VERTEX
8
ASSEMBLY
10
0
20
1442.340086
30
0
0
SEQEND
8
ASSEMBLY
0
POLYLINE
8
PIECES
66
1
70
1
10
0
20
0
30
0
0
VERTEX
8
PIECES
10
381.630145
20
1413.170901
30
0
42
0.103745
0
VERTEX
8
PIECES
10
17.0528
20
1413.170901
30
0
0
VERTEX
8
PIECES
10
28.753762
20
1357.384814
30
0
42
-0.103745
0
VERTEX
8
PIECES
10
369.929183
20
1357.384814
30
0
0
SEQEND
8
PIECES
0
POLYLINE
8
FINGER
66
1
70
0
10
0
20
0
30
0
0
VERTEX
8
FINGER
10
28.753762
20
1357.384814
30
0
0
VERTEX
8
FINGER
10
17.0528
20
1413.170901
30
0
0
SEQEND
8
FINGER
0
POLYLINE
8
FINGER
66
1
70
0
10
0
20
0
30
0
0
VERTEX
8
FINGER
10
16
20
1347.340086
30
0
0
VERTEX
8
FINGER
10
16
20
1442.340086
30
0
0
SEQEND
8
FINGER
0
TEXT
8
TEXT
10
191.841473
20
1404.840086
30
0
40
15
1
T - FRAME HEAD P1 L383.7 x95
72
1
11
191.841473
21
1404.840086
31
0
73
2
0
TEXT
8
TEXT
10
191.841473
20
1357.340086
30
0
40
10
1
OUT 368.7 IN 337.1 CUT J11.8/S78.2 FINGER ONE END
72
1
11
191.841473
21
1357.340086
31
0
73
2
0
POLYLINE
8
ASSEMBLY
66
1
70
1
10
0
20
0
30
0
0
VERTEX
8
ASSEMBLY
10
583.682945
20
1347.340086
30
0
0
VERTEX
8
ASSEMBLY
10
982.365891
20
1347.340086
30
0
0
VERTEX
8
ASSEMBLY
10
982.365891
20
1442.340086
30
0
0
VERTEX
8
ASSEMBLY
10
583.682945
20
1442.340086
30
0
0
SEQEND
8
ASSEMBLY
0
POLYLINE
8
PIECES
66
1
70
1
10
0
20
0
30
0
0
VERTEX
8
PIECES
10
965.31309
20
1413.170901
30
0
42
0.103745
0
VERTEX
8
PIECES
10
600.735746
20
1413.170901
30
0
0
VERTEX
8
PIECES
10
612.436708
20
1357.384814
30
0
42
-0.103745
0
VERTEX
8
PIECES
10
953.612128
20
1357.384814
30
0
0
SEQEND
8
PIECES
0
POLYLINE
8
FINGER
66
1
70
0
10
0
20
0
30
0
0
VERTEX
8
FINGER
10
953.612128
20
1357.384814
30
0
0
VERTEX
8
FINGER
10
965.31309
20
1413.170901
30
0
0
SEQEND
8
FINGER
0
POLYLINE
8
FINGER
66
1
70
0
10
0
20
0
30
0
0
VERTEX
8
FINGER
10
612.436708
20
1357.384814
30
0
0
VERTEX
8
FINGER
10
600.735746
20
1413.170901
30
0
0
SEQEND
8
FINGER
0
POLYLINE
8
FINGER
66
1
70
0
10
0
20
0
30
0
0
VERTEX
8
FINGER
10
599.682945
20
1347.340086
30
0
0
VERTEX
8
FINGER
10
599.682945
20
1442.340086
30
0
0
SEQEND
8
FINGER
0
POLYLINE
8
FINGER
66
1
70
0
10
0
20
0
30
0
0
VERTEX
8
FINGER
10
966.365891
20
1347.340086
30
0
0
VERTEX
8
FINGER
10
966.365891
20
1442.340086
30
0
0
SEQEND
8
FINGER
0
TEXT
8
TEXT
10
783.024418
20
1404.840086
30
0
40
15
1
T - FRAME HEAD P2 L398.7 x95
72
1
11
783.024418
21
1404.840086
31
0
73
2
0
TEXT
8
TEXT
10
783.024418
20
1357.340086
30
0
40
10
1
OUT 368.7 IN 337.1 CUT J11.8/J11.8 FINGER BOTH ENDS
72
1
11
783.024418
21
1357.340086
31
0
73
2
0
POLYLINE
8
ASSEMBLY
66
1
70
1
10
0
20
0
30
0
0
VERTEX
8
ASSEMBLY
10
1182.365891
20
1347.340086
30
0
0
VERTEX
8
ASSEMBLY
10
1584.400855
20
1347.340086
30
0
0
VERTEX
8
ASSEMBLY
10
1584.400855
20
1442.340086
30
0
0
VERTEX
8
ASSEMBLY
10
1182.365891
20
1442.340086
30
0
0
SEQEND
8
ASSEMBLY
0
POLYLINE
8
PIECES
66
1
70
1
10
0
20
0
30
0
0
VERTEX
8
PIECES
10
1567.348054
20
1413.170901
30
0
42
0.103745
0
VERTEX
8
PIECES
10
1202.77071
20
1413.170901
30
0
0
VERTEX
8
PIECES
10
1233.723643
20
1361.186113
30
0
42
-0.097781
0
VERTEX
8
PIECES
10
1555.647092
20
1357.384814
30
0
0
SEQEND
8
PIECES
0
POLYLINE
8
FINGER
66
1
70
0
10
0
20
0
30
0
0
VERTEX
8
FINGER
10
1555.647092
20
1357.384814
30
0
0
VERTEX
8
FINGER
10
1567.348054
20
1413.170901
30
0
0
SEQEND
8
FINGER
0
POLYLINE
8
FINGER
66
1
70
0
10
0
20
0
30
0
0
VERTEX
8
FINGER
10
1233.723643
20
1361.186113
30
0
0
VERTEX
8
FINGER
10
1202.77071
20
1413.170901
30
0
0
SEQEND
8
FINGER
0
POLYLINE
8
FINGER
66
1
70
0
10
0
20
0
30
0
0
VERTEX
8
FINGER
10
1198.365891
20
1347.340086
30
0
0
VERTEX
8
FINGER
10
1198.365891
20
1442.340086
30
0
0
SEQEND
8
FINGER
0
POLYLINE
8
FINGER
66
1
70
0
10
0
20
0
30
0
0
VERTEX
8
FINGER
10
1568.400855
20
1347.340086
30
0
0
VERTEX
8
FINGER
10
1568.400855
20
1442.340086
30
0
0
SEQEND
8
FINGER
0
TEXT
8
TEXT
10
1383.383373
20
1404.840086
30
0
40
15
1
T - FRAME HEAD P3 L402 x95
72
1
11
1383.383373
21
1404.840086
31
0
73
2
0
TEXT
8
TEXT
10
1383.383373
20
1357.340086
30
0
40
10
1
OUT 372 IN 314.4 CUT A59.2/J11.8 FINGER BOTH ENDS
72
1
11
1383.383373
21
1357.340086
31
0
73
2
0
POLYLINE
8
ASSEMBLY
66
1
70
1
10
0
20
0
30
0
0
VERTEX
8
ASSEMBLY
10
1784.400855
20
1347.340086
30
0
0
VERTEX
8
ASSEMBLY
10
2186.435819
20
1347.340086
30
0
0
VERTEX
8
ASSEMBLY
10
2186.435819
20
1442.340086
30
0
0
VERTEX
8
ASSEMBLY
10
1784.400855
20
1442.340086
30
0
0
SEQEND
8
ASSEMBLY
0
POLYLINE
8
PIECES
66
1
70
1
10
0
20
0
30
0
0
VERTEX
8
PIECES
10
2166.031
20
1413.170901
30
0
42
0.103745
0
VERTEX
8
PIECES
10
1801.453655
20
1413.170901
30
0
0
VERTEX
8
PIECES
10
1813.154617
20
1357.384814
30
0
42
-0.097781
0
VERTEX
8
PIECES
10
2135.078067
20
1361.186113
30
0
0
SEQEND
8
PIECES
0
POLYLINE
8
FINGER
66
1
70
0
10
0
20
0
30
0
0
VERTEX
8
FINGER
10
2135.078067
20
1361.186113
30
0
0
VERTEX
8
FINGER
10
2166.031
20
1413.170901
30
0
0
SEQEND
8
FINGER
0
POLYLINE
8
FINGER
66
1
70
0
10
0
20
0
30
0
0
VERTEX
8
FINGER
10
1813.154617
20
1357.384814
30
0
0
VERTEX
8
FINGER
10
1801.453655
20
1413.170901
30
0
0
SEQEND
8
FINGER
0
POLYLINE
8
FINGER
66
1
70
0
10
0
20
0
30
0
0
VERTEX
8
FINGER
10
1800.400855
20
1347.340086
30
0
0
VERTEX
8
FINGER
10
1800.400855
20
1442.340086
30
0
0
SEQEND
8
FINGER
0
POLYLINE
8
FINGER
66
1
70
0
10
0
20
0
30
0
0
VERTEX
8
FINGER
10
2170.435819
20
1347.340086
30
0
0
VERTEX
8
FINGER
10
2170.435819
20
1442.340086
30
0
0
SEQEND
8
FINGER
0
TEXT
8
TEXT
10
1985.418337
20
1404.840086
30
0
40
15
1
T - FRAME HEAD P4 L402 x95
72
1
11
1985.418337
21
1404.840086
31
0
73
2
0
TEXT
8
TEXT
10
1985.418337
20
1357.340086
30
0
40
10
1
OUT 372 IN 314.4 CUT J11.8/A59.2 FINGER BOTH ENDS
72
1
11
1985.418337
21
1357.340086
31
0
73
2
0
POLYLINE
8
ASSEMBLY
66
1
70
1
10
0
20
0
30
0
0
VERTEX
8
ASSEMBLY
10
2386.435819
20
1347.340086
30
0
0
VERTEX
8
ASSEMBLY
10
2785.118764
20
1347.340086
30
0
0
VERTEX
8
ASSEMBLY
10
2785.118764
20
1442.340086
30
0
0
VERTEX
8
ASSEMBLY
10
2386.435819
20
1442.340086
30
0
0
SEQEND
8
ASSEMBLY
0
POLYLINE
8
PIECES
66
1
70
1
10
0
20
0
30
0
0
VERTEX
8
PIECES
10
2768.065964
20
1413.170901
30
0
42
0.103745
0
VERTEX
8
PIECES
10
2403.488619
20
1413.170901
30
0
0
VERTEX
8
PIECES
10
2415.189581
20
1357.384814
30
0
42
-0.103745
0
VERTEX
8
PIECES
10
2756.365002
20
1357.384814
30
0
0
SEQEND
8
PIECES
0
POLYLINE
8
FINGER
66
1
70
0
10
0
20
0
30
0
0
VERTEX
8
FINGER
10
2756.365002
20
1357.384814
30
0
0
VERTEX
8
FINGER
10
2768.065964
20
1413.170901
30
0
0
SEQEND
8
FINGER
0
POLYLINE
8
FINGER
66
1
70
0
10
0
20
0
30
0
0
VERTEX
8
FINGER
10
2415.189581
20
1357.384814
30
0
0
VERTEX
8
FINGER
10
2403.488619
20
1413.170901
30
0
0
SEQEND
8
FINGER
0
POLYLINE
8
FINGER
66
1
70
0
10
0
20
0
30
0
0
VERTEX
8
FINGER
10
2402.435819
20
1347.340086
30
0
0
VERTEX
8
FINGER
10
2402.435819
20
1442.340086
30
0
0
SEQEND
8
FINGER
0
POLYLINE
8
FINGER
66
1
70
0
10
0
20
0
30
0
0
VERTEX
8
FINGER
10
2769.118764
20
1347.340086
30
0
0
VERTEX
8
FINGER
10
2769.118764
20
1442.340086
30
0
0
SEQEND
8
FINGER
0
TEXT
8
TEXT
10
2585.777292
20
1404.840086
30
0
40
15
1
T - FRAME HEAD P5 L398.7 x95
72
1
11
2585.777292
21
1404.840086
31
0
73
2
0
TEXT
8
TEXT
10
2585.777292
20
1357.340086
30
0
40
10
1
OUT 368.7 IN 337.1 CUT J11.8/J11.8 FINGER BOTH ENDS
72
1
11
2585.777292
21
1357.340086
31
0
73
2
0
POLYLINE
8
ASSEMBLY
66
1
70
1
10
0
20
0
30
0
0
VERTEX
8
ASSEMBLY
10
2985.118764
20
1347.340086
30
0
0
VERTEX
8
ASSEMBLY
10
3368.801709
20
1347.340086
30
0
0
VERTEX
8
ASSEMBLY
10
3368.801709
20
1442.340086
30
0
0
VERTEX
8
ASSEMBLY
10
2985.118764
20
1442.340086
30
0
0
SEQEND
8
ASSEMBLY
0
POLYLINE
8
PIECES
66
1
70
1
10
0
20
0
30
0
0
VERTEX
8
PIECES
10
3351.748909
20
1413.170901
30
0
42
0.103745
0
VERTEX
8
PIECES
10
2987.171565
20
1413.170901
30
0
0
VERTEX
8
PIECES
10
2998.872527
20
1357.384814
30
0
42
-0.103745
0
VERTEX
8
PIECES
10
3340.047947
20
1357.384814
30
0
0
SEQEND
8
PIECES
0
POLYLINE
8
FINGER
66
1
70
0
10
0
20
0
30
0
0
VERTEX
8
FINGER
10
3340.047947
20
1357.384814
30
0
0
VERTEX
8
FINGER
10
3351.748909
20
1413.170901
30
0
0
SEQEND
8
FINGER
0
POLYLINE
8
FINGER
66
1
70
0
10
0
20
0
30
0
0
VERTEX
8
FINGER
10
3352.801709
20
1347.340086
30
0
0
VERTEX
8
FINGER
10
3352.801709
20
1442.340086
30
0
0
SEQEND
8
FINGER
0
TEXT
8
TEXT
10
3176.960237
20
1404.840086
30
0
40
15
1
T - FRAME HEAD P6 L383.7 x95
72
1
11
3176.960237
21
1404.840086
31
0
73
2
0
TEXT
8
TEXT
10
3176.960237
20
1357.340086
30
0
40
10
1
OUT 368.7 IN 337.1 CUT S78.2/J11.8 FINGER ONE END
72
1
11
3176.960237
21
1357.340086
31
0
73
2
0
POLYLINE
8
CONTOUR
66
1
70
1
10
0
20
0
30
0
0
VERTEX
8
CONTOUR
10
1228.969376
20
1657.86292
30
0
42
0.320465
0
VERTEX
8
CONTOUR
10
628.969376
20
2497.86292
30
0
42
0.320465
0
VERTEX
8
CONTOUR
10
28.969376
20
1657.86292
30
0
0
VERTEX
8
CONTOUR
10
85.969376
20
1657.86292
30
0
42
-0.313967
0
VERTEX
8
CONTOUR
10
628.969376
20
2437.360836
30
0
42
-0.313967
0
VERTEX
8
CONTOUR
10
1171.969376
20
1657.86292
30
0
0
SEQEND
8
CONTOUR
0
POLYLINE
8
ASSEMBLY
66
1
70
1
10
0
20
0
30
0
0
VERTEX
8
ASSEMBLY
10
1164.96194
20
1642.340086
30
0
0
VERTEX
8
ASSEMBLY
10
1089.278691
20
2003.171293
30
0
0
VERTEX
8
ASSEMBLY
10
1182.255503
20
2022.672896
30
0
0
VERTEX
8
ASSEMBLY
10
1257.938751
20
1661.841689
30
0
0
SEQEND
8
ASSEMBLY
0
POLYLINE
8
FINGER
66
1
70
0
10
0
20
0
30
0
0
VERTEX
8
FINGER
10
1101.932873
20
1991.772423
30
0
0
VERTEX
8
FINGER
10
1154.128925
20
2014.675963
30
0
0
SEQEND
8
FINGER
0
POLYLINE
8
ASSEMBLY
66
1
70
1
10
0
20
0
30
0
0
VERTEX
8
ASSEMBLY
10
1101.753353
20
1974.742146
30
0
0
VERTEX
8
ASSEMBLY
10
887.460744
20
2274.751799
30
0
0
VERTEX
8
ASSEMBLY
10
964.765424
20
2329.969427
30
0
0
VERTEX
8
ASSEMBLY
10
1179.058033
20
2029.959774
30
0
0
SEQEND
8
ASSEMBLY
0
POLYLINE
8
FINGER
66
1
70
0
10
0
20
0
30
0
0
VERTEX
8
FINGER
10
903.628688
20
2269.398282
30
0
0
VERTEX
8
FINGER
10
942.222648
20
2311.344751
30
0
0
SEQEND
8
FINGER
0
POLYLINE
8
ASSEMBLY
66
1
70
1
10
0
20
0
30
0
0
VERTEX
8
ASSEMBLY
10
910.307344
20
2253.731179
30
0
0
VERTEX
8
ASSEMBLY
10
590.646313
20
2444.064675
30
0
0
VERTEX
8
ASSEMBLY
10
639.248417
20
2525.690869
30
0
0
VERTEX
8
ASSEMBLY
10
958.909448
20
2335.357373
30
0
0
SEQEND
8
ASSEMBLY
0
POLYLINE
8
FINGER
66
1
70
0
10
0
20
0
30
0
0
VERTEX
8
FINGER
10
628.969376
20
2437.360836
30
0
0
VERTEX
8
FINGER
10
628.969376
20
2497.86292
30
0
0
SEQEND
8
FINGER
0
POLYLINE
8
ASSEMBLY
66
1
70
1
10
0
20
0
30
0
0
VERTEX
8
ASSEMBLY
10
667.292438
20
2444.064675
30
0
0
VERTEX
8
ASSEMBLY
10
347.631407
20
2253.731179
30
0
0
VERTEX
8
ASSEMBLY
10
299.029303
20
2335.357373
30
0
0
VERTEX
8
ASSEMBLY
10
618.690334
20
2525.690869
30
0
0
SEQEND
8
ASSEMBLY
0
POLYLINE
8
FINGER
66
1
70
0
10
0
20
0
30
0
0
VERTEX
8
FINGER
10
628.969376
20
2437.360836
30
0
0
VERTEX
8
FINGER
10
628.969376
20
2497.86292
30
0
0
SEQEND
8
FINGER
0
POLYLINE
8
FINGER
66
1
70
0
10
0
20
0
30
0
0
VERTEX
8
FINGER
10
354.310063
20
2269.398282
30
0
0
VERTEX
8
FINGER
10
315.716103
20
2311.344751
30
0
0
SEQEND
8
FINGER
0
POLYLINE
8
ASSEMBLY
66
1
70
1
10
0
20
0
30
0
0
VERTEX
8
ASSEMBLY
10
370.478007
20
2274.751799
30
0
0
VERTEX
8
ASSEMBLY
10
156.185398
20
1974.742146
30
0
0
VERTEX
8
ASSEMBLY
10
78.880718
20
2029.959774
30
0
0
VERTEX
8
ASSEMBLY
10
293.173327
20
2329.969427
30
0
0
SEQEND
8
ASSEMBLY
0
POLYLINE
8
FINGER
66
1
70
0
10
0
20
0
30
0
0
VERTEX
8
FINGER
10
156.005878
20
1991.772423
30
0
0
VERTEX
8
FINGER
10
103.809826
20
2014.675963
30
0
0
SEQEND
8
FINGER
0
POLYLINE
8
ASSEMBLY
66
1
70
1
10
0
20
0
30
0
0
VERTEX
8
ASSEMBLY
10
168.66006
20
2003.171293
30
0
0
VERTEX
8
ASSEMBLY
10
92.976811
20
1642.340086
30
0
0
VERTEX
8
ASSEMBLY
10
0
20
1661.841689
30
0
0
VERTEX
8
ASSEMBLY
10
75.683248
20
2022.672896
30
0
0
SEQEND
8
ASSEMBLY
0
TEXT
8
TEXT
10
1357.938751
20
2507.190869
30
0
40
15
1
T - FRAME HEAD
72
0
11
1357.938751
21
2507.190869
31
0
73
0
0
TEXT
8
TEXT
10
1357.938751
20
2485.190869
30
0
40
15
1
GOTHIC DROP W1200 RISE840 H2000 HINGE R
72
0
11
1357.938751
21
2485.190869
31
0
73
0
0
TEXT
8
TEXT
10
1357.938751
20
2463.190869
30
0
40
15
1
FACE 57 OFFSET 0 OUTER L2203.1 INNER L2022.5
72
0
11
1357.938751
21
2463.190869
31
0
73
0
0
TEXT
8
TEXT
10
1357.938751
20
2441.190869
30
0
40
15
1
ARC 1 R888 L1101.6 71.1DEG: 3 x board 95 L372 ROUGH 402 (ALT 2 x board 180)
72
0
11
1357.938751
21
2441.190869
31
0
73
0
0
TEXT
8
TEXT
10
1357.938751
20
2419.190869
30
0
40
15
1
ARC 2 R888 L1101.6 71.1DEG: 3 x board 95 L372 ROUGH 402 (ALT 2 x board 180)
72
0
11
1357.938751
21
2419.190869
31
0
73
0
0
TEXT
8
TEXT
10
1357.938751
20
2397.190869
30
0
40
15
1
FINGER 15/16/3.8
72
0
11
1357.938751
21
2397.190869
31
0
73
0
0
TEXT
8
TEXT
10
1357.938751
20
2375.190869
30
0
40
15
1
ALLOWANCE 10 PER SIDE  MAX SEGMENT 36 DEG  RULE NARROWEST
72
0
11
1357.938751
21
2375.190869
31
0
73
0
0
TEXT
8
TEXT
10
1357.938751
20
2353.190869
30
0
40
15
1
CUT CODES: J = JOINT FROM SQUARE  S = ARCH-START, AXIS TO HORIZONTAL  A = APEX FROM SQUARE
72
0
11
1357.938751
21
2353.190869
31
0
73
0
0
ENDSEC
0
EOF
