0
SECTION
2
HEADER
9
$ACADVER
1
AC1009
0
ENDSEC
0
SECTION
2
TABLES
0
TABLE
2
LAYER
70
7
0
LAYER
2
0
70
0
62
7
6
CONTINUOUS
0
LAYER
2
FIT
70
0
62
4
6
CONTINUOUS
0
LAYER
2
CONTOUR
70
0
62
7
6
CONTINUOUS
0
LAYER
2
ASSEMBLY
70
0
62
8
6
CONTINUOUS
0
LAYER
2
PIECES
70
0
62
5
6
CONTINUOUS
0
LAYER
2
FINGER
70
0
62
1
6
CONTINUOUS
0
LAYER
2
TEXT
70
0
62
94
6
CONTINUOUS
0
ENDTAB
0
ENDSEC
0
SECTION
2
ENTITIES
0
POLYLINE
8
PIECES
66
1
70
1
10
0
20
0
30
0
0
VERTEX
8
PIECES
10
177.42351
20
0
30
0
0
VERTEX
8
PIECES
10
21.68313
20
0
30
0
0
VERTEX
8
PIECES
10
0
20
95
30
0
0
VERTEX
8
PIECES
10
199.10664
20
95
30
0
0
SEQEND
8
PIECES
0
TEXT
8
TEXT
10
99.55332
20
57.5
30
0
40
15
1
CIR - LEAF RING P1 L199.1 x95
72
1
11
99.55332
21
57.5
31
0
73
2
0
TEXT
8
TEXT
10
99.55332
20
10
30
0
40
10
1
OUT 169.1 IN 125.7 CUT J12.9/J12.9 FINGER BOTH ENDS
72
1
11
99.55332
21
10
31
0
73
2
0
POLYLINE
8
PIECES
66
1
70
1
10
0
20
0
30
0
0
VERTEX
8
PIECES
10
576.53015
20
0
30
0
0
VERTEX
8
PIECES
10
420.78977
20
0
30
0
0
VERTEX
8
PIECES
10
399.10664
20
95
30
0
0
VERTEX
8
PIECES
10
598.21328
20
95
30
0
0
SEQEND
8
PIECES
0
TEXT
8
TEXT
10
498.65996
20
57.5
30
0
40
15
1
CIR - LEAF RING P2 L199.1 x95
72
1
11
498.65996
21
57.5
31
0
73
2
0
TEXT
8
TEXT
10
498.65996
20
10
30
0
40
10
1
OUT 169.1 IN 125.7 CUT J12.9/J12.9 FINGER BOTH ENDS
72
1
11
498.65996
21
10
31
0
73
2
0
POLYLINE
8
PIECES
66
1
70
1
10
0
20
0
30
0
0
VERTEX
8
PIECES
10
975.63679
20
0
30
0
0
VERTEX
8
PIECES
10
819.89641
20
0
30
0
0
VERTEX
8
PIECES
10
798.21328
20
95
30
0
0
VERTEX
8
PIECES
10
997.31992
20
95
30
0
0
SEQEND
8
PIECES
0
TEXT
8
TEXT
10
897.7666
20
57.5
30
0
40
15
1
CIR - LEAF RING P3 L199.1 x95
72
1
11
897.7666
21
57.5
31
0
73
2
0
TEXT
8
TEXT
10
897.7666
20
10
30
0
40
10
1
OUT 169.1 IN 125.7 CUT J12.9/J12.9 FINGER BOTH ENDS
72
1
11
897.7666
21
10
31
0
73
2
0
POLYLINE
8
PIECES
66
1
70
1
10
0
20
0
30
0
0
VERTEX
8
PIECES
10
1374.74343
20
0
30
0
0
VERTEX
8
PIECES
10
1219.00305
20
0
30
0
0
VERTEX
8
PIECES
10
1197.31992
20
95
30
0
0
VERTEX
8
PIECES
10
1396.42656
20
95
30
0
0
SEQEND
8
PIECES
0
TEXT
8
TEXT
10
1296.87324
20
57.5
30
0
40
15
1
CIR - LEAF RING P4 L199.1 x95
72
1
11
1296.87324
21
57.5
31
0
73
2
0
TEXT
8
TEXT
10
1296.87324
20
10
30
0
40
10
1
OUT 169.1 IN 125.7 CUT J12.9/J12.9 FINGER BOTH ENDS
72
1
11
1296.87324
21
10
31
0
73
2
0
POLYLINE
8
PIECES
66
1
70
1
10
0
20
0
30
0
0
VERTEX
8
PIECES
10
1773.850069
20
0
30
0
0
VERTEX
8
PIECES
10
1618.10969
20
0
30
0
0
VERTEX
8
PIECES
10
1596.42656
20
95
30
0
0
VERTEX
8
PIECES
10
1795.5332
20
95
30
0
0
SEQEND
8
PIECES
0
TEXT
8
TEXT
10
1695.97988
20
57.5
30
0
40
15
1
CIR - LEAF RING P5 L199.1 x95
72
1
11
1695.97988
21
57.5
31
0
73
2
0
TEXT
8
TEXT
10
1695.97988
20
10
30
0
40
10
1
OUT 169.1 IN 125.7 CUT J12.9/J12.9 FINGER BOTH ENDS
72
1
11
1695.97988
21
10
31
0
73
2
0
POLYLINE
8
PIECES
66
1
70
1
10
0
20
0
30
0
0
VERTEX
8
PIECES
10
2172.956709
20
0
30
0
0
VERTEX
8
PIECES
10
2017.21633
20
0
30
0
0
VERTEX
8
PIECES
10
1995.5332
20
95
30
0
0
VERTEX
8
PIECES
10
2194.639839
20
95
30
0
0
SEQEND
8
PIECES
0
TEXT
8
TEXT
10
2095.086519
20
57.5
30
0
40
15
1
CIR - LEAF RING P6 L199.1 x95
72
1
11
2095.086519
21
57.5
31
0
73
2
0
TEXT
8
TEXT
10
2095.086519
20
10
30
0
40
10
1
OUT 169.1 IN 125.7 CUT J12.9/J12.9 FINGER BOTH ENDS
72
1
11
2095.086519
21
10
31
0
73
2
0
POLYLINE
8
PIECES
66
1
70
1
10
0
20
0
30
0
0
VERTEX
8
PIECES
10
2572.063349
20
0
30
0
0
VERTEX
8
PIECES
10
2416.322969
20
0
30
0
0
VERTEX
8
PIECES
10
2394.639839
20
95
30
0
0
VERTEX
8
PIECES
10
2593.746479
20
95
30
0
0
SEQEND
8
PIECES
0
TEXT
8
TEXT
10
2494.193159
20
57.5
30
0
40
15
1
CIR - LEAF RING P7 L199.1 x95
72
1
11
2494.193159
21
57.5
31
0
73
2
0
TEXT
8
TEXT
10
2494.193159
20
10
30
0
40
10
1
OUT 169.1 IN 125.7 CUT J12.9/J12.9 FINGER BOTH ENDS
72
1
11
2494.193159
21
10
31
0
73
2
0
POLYLINE
8
PIECES
66
1
70
1
10
0
20
0
30
0
0
VERTEX
8
PIECES
10
2971.169989
20
0
30
0
0
VERTEX
8
PIECES
10
2815.429609
20
0
30
0
0
VERTEX
8
PIECES
10
2793.746479
20
95
30
0
0
VERTEX
8
PIECES
10
2992.853119
20
95
30
0
0
SEQEND
8
PIECES
0
TEXT
8
TEXT
10
2893.299799
20
57.5
30
0
40
15
1
CIR - LEAF RING P8 L199.1 x95
72
1
11
2893.299799
21
57.5
31
0
73
2
0
TEXT
8
TEXT
10
2893.299799
20
10
30
0
40
10
1
OUT 169.1 IN 125.7 CUT J12.9/J12.9 FINGER BOTH ENDS
72
1
11
2893.299799
21
10
31
0
73
2
0
POLYLINE
8
PIECES
66
1
70
1
10
0
20
0
30
0
0
VERTEX
8
PIECES
10
3370.276629
20
0
30
0
0
VERTEX
8
PIECES
10
3214.536249
20
0
30
0
0
VERTEX
8
PIECES
10
3192.853119
20
95
30
0
0
VERTEX
8
PIECES
10
3391.959759
20
95
30
0
0
SEQEND
8
PIECES
0
TEXT
8
TEXT
10
3292.406439
20
57.5
30
0
40
15
1
CIR - LEAF RING P9 L199.1 x95
72
1
11
3292.406439
21
57.5
31
0
73
2
0
TEXT
8
TEXT
10
3292.406439
20
10
30
0
40
10
1
OUT 169.1 IN 125.7 CUT J12.9/J12.9 FINGER BOTH ENDS
72
1
11
3292.406439
21
10
31
0
73
2
0
POLYLINE
8
PIECES
66
1
70
1
10
0
20
0
30
0
0
VERTEX
8
PIECES
10
3769.383269
20
0
30
0
0
VERTEX
8
PIECES
10
3613.642889
20
0
30
0
0
VERTEX
8
PIECES
10
3591.959759
20
95
30
0
0
VERTEX
8
PIECES
10
3791.066399
20
95
30
0
0
SEQEND
8
PIECES
0
TEXT
8
TEXT
10
3691.513079
20
57.5
30
0
40
15
1
CIR - LEAF RING P10 L199.1 x95
72
1
11
3691.513079
21
57.5
31
0
73
2
0
TEXT
8
TEXT
10
3691.513079
20
10
30
0
40
10
1
OUT 169.1 IN 125.7 CUT J12.9/J12.9 FINGER BOTH ENDS
72
1
11
3691.513079
21
10
31
0
73
2
0
POLYLINE
8
PIECES
66
1
70
1
10
0
20
0
30
0
0
VERTEX
8
PIECES
10
4168.489909
20
0
30
0
0
VERTEX
8
PIECES
10
4012.749529
20
0
30
0
0
VERTEX
8
PIECES
10
3991.066399
20
95
30
0
0
VERTEX
8
PIECES
10
4190.173039
20
95
30
0
0
SEQEND
8
PIECES
0
TEXT
8
TEXT
10
4090.619719
20
57.5
30
0
40
15
1
CIR - LEAF RING P11 L199.1 x95
72
1
11
4090.619719
21
57.5
31
0
73
2
0
TEXT
8
TEXT
10
4090.619719
20
10
30
0
40
10
1
OUT 169.1 IN 125.7 CUT J12.9/J12.9 FINGER BOTH ENDS
72
1
11
4090.619719
21
10
31
0
73
2
0
POLYLINE
8
PIECES
66
1
70
1
10
0
20
0
30
0
0
VERTEX
8
PIECES
10
4567.596549
20
0
30
0
0
VERTEX
8
PIECES
10
4411.856169
20
0
30
0
0
VERTEX
8
PIECES
10
4390.173039
20
95
30
0
0
VERTEX
8
PIECES
10
4589.279679
20
95
30
0
0
SEQEND
8
PIECES
0
TEXT
8
TEXT
10
4489.726359
20
57.5
30
0
40
15
1
CIR - LEAF RING P12 L199.1 x95
72
1
11
4489.726359
21
57.5
31
0
73
2
0
TEXT
8
TEXT
10
4489.726359
20
10
30
0
40
10
1
OUT 169.1 IN 125.7 CUT J12.9/J12.9 FINGER BOTH ENDS
72
1
11
4489.726359
21
10
31
0
73
2
0
POLYLINE
8
PIECES
66
1
70
1
10
0
20
0
30
0
0
VERTEX
8
PIECES
10
4966.703189
20
0
30
0
0
VERTEX
8
PIECES
10
4810.962809
20
0
30
0
0
VERTEX
8
PIECES
10
4789.279679
20
95
30
0
0
VERTEX
8
PIECES
10
4988.386319
20
95
30
0
0
SEQEND
8
PIECES
0
TEXT
8
TEXT
10
4888.832999
20
57.5
30
0
40
15
1
CIR - LEAF RING P13 L199.1 x95
72
1
11
4888.832999
21
57.5
31
0
73
2
0
TEXT
8
TEXT
10
4888.832999
20
10
30
0
40
10
1
OUT 169.1 IN 125.7 CUT J12.9/J12.9 FINGER BOTH ENDS
72
1
11
4888.832999
21
10
31
0
73
2
0
POLYLINE
8
PIECES
66
1
70
1
10
0
20
0
30
0
0
VERTEX
8
PIECES
10
5365.809829
20
0
30
0
0
VERTEX
8
PIECES
10
5210.069449
20
0
30
0
0
VERTEX
8
PIECES
10
5188.386319
20
95
30
0
0
VERTEX
8
PIECES
10
5387.492959
20
95
30
0
0
SEQEND
8
PIECES
0
TEXT
8
TEXT
10
5287.939639
20
57.5
30
0
40
15
1
CIR - LEAF RING P14 L199.1 x95
72
1
11
5287.939639
21
57.5
31
0
73
2
0
TEXT
8
TEXT
10
5287.939639
20
10
30
0
40
10
1
OUT 169.1 IN 125.7 CUT J12.9/J12.9 FINGER BOTH ENDS
72
1
11
5287.939639
21
10
31
0
73
2
0
POLYLINE
8
CONTOUR
66
1
70
1
10
0
20
0
30
0
0
VERTEX
8
CONTOUR
10
739.979171
20
665.4523
30
0
42
1
0
VERTEX
8
CONTOUR
10
19.979171
20
665.4523
30
0
42
1
0
VERTEX
8
CONTOUR
10
739.979171
20
665.4523
30
0
0
VERTEX
8
CONTOUR
10
672.979171
20
665.4523
30
0
42
-1
0
VERTEX
8
CONTOUR
10
86.979171
20
665.4523
30
0
42
-1
0
VERTEX
8
CONTOUR
10
672.979171
20
665.4523
30
0
0
SEQEND
8
CONTOUR
0
POLYLINE
8
ASSEMBLY
66
1
70
1
10
0
20
0
30
0
0
VERTEX
8
ASSEMBLY
10
662.515239
20
665.4523
30
0
0
VERTEX
8
ASSEMBLY
10
634.535373
20
788.040105
30
0
0
VERTEX
8
ASSEMBLY
10
722.328574
20
830.319083
30
0
0
VERTEX
8
ASSEMBLY
10
759.958341
20
665.4523
30
0
0
SEQEND
8
ASSEMBLY
0
POLYLINE
8
FINGER
66
1
70
0
10
0
20
0
30
0
0
VERTEX
8
FINGER
10
672.979171
20
665.4523
30
0
0
VERTEX
8
FINGER
10
739.979171
20
665.4523
30
0
0
SEQEND
8
FINGER
0
POLYLINE
8
FINGER
66
1
70
0
10
0
20
0
30
0
0
VERTEX
8
FINGER
10
643.963049
20
792.580235
30
0
0
VERTEX
8
FINGER
10
704.327963
20
821.650446
30
0
0
SEQEND
8
FINGER
0
POLYLINE
8
ASSEMBLY
66
1
70
1
10
0
20
0
30
0
0
VERTEX
8
ASSEMBLY
10
634.535373
20
788.040105
30
0
0
VERTEX
8
ASSEMBLY
10
556.137528
20
886.347893
30
0
0
VERTEX
8
ASSEMBLY
10
616.892309
20
962.531978
30
0
0
VERTEX
8
ASSEMBLY
10
722.328574
20
830.319083
30
0
0
SEQEND
8
ASSEMBLY
0
POLYLINE
8
FINGER
66
1
70
0
10
0
20
0
30
0
0
VERTEX
8
FINGER
10
562.661683
20
894.528924
30
0
0
VERTEX
8
FINGER
10
604.435499
20
946.911633
30
0
0
SEQEND
8
FINGER
0
POLYLINE
8
ASSEMBLY
66
1
70
1
10
0
20
0
30
0
0
VERTEX
8
ASSEMBLY
10
556.137528
20
886.347893
30
0
0
VERTEX
8
ASSEMBLY
10
442.849361
20
940.904599
30
0
0
VERTEX
8
ASSEMBLY
10
464.532491
20
1035.904599
30
0
0
VERTEX
8
ASSEMBLY
10
616.892309
20
962.531978
30
0
0
SEQEND
8
ASSEMBLY
0
POLYLINE
8
FINGER
66
1
70
0
10
0
20
0
30
0
0
VERTEX
8
FINGER
10
445.177804
20
951.106178
30
0
0
VERTEX
8
FINGER
10
460.086707
20
1016.426348
30
0
0
SEQEND
8
FINGER
0
POLYLINE
8
ASSEMBLY
66
1
70
1
10
0
20
0
30
0
0
VERTEX
8
ASSEMBLY
10
442.849361
20
940.904599
30
0
0
VERTEX
8
ASSEMBLY
10
317.108981
20
940.904599
30
0
0
VERTEX
8
ASSEMBLY
10
295.425851
20
1035.904599
30
0
0
VERTEX
8
ASSEMBLY
10
464.532491
20
1035.904599
30
0
0
SEQEND
8
ASSEMBLY
0
POLYLINE
8
FINGER
66
1
70
0
10
0
20
0
30
0
0
VERTEX
8
FINGER
10
314.780537
20
951.106178
30
0
0
VERTEX
8
FINGER
10
299.871634
20
1016.426348
30
0
0
SEQEND
8
FINGER
0
POLYLINE
8
ASSEMBLY
66
1
70
1
10
0
20
0
30
0
0
VERTEX
8
ASSEMBLY
10
317.108981
20
940.904599
30
0
0
VERTEX
8
ASSEMBLY
10
203.820813
20
886.347893
30
0
0
VERTEX
8
ASSEMBLY
10
143.066033
20
962.531978
30
0
0
VERTEX
8
ASSEMBLY
10
295.425851
20
1035.904599
30
0
0
SEQEND
8
ASSEMBLY
0
POLYLINE
8
FINGER
66
1
70
0
10
0
20
0
30
0
0
VERTEX
8
FINGER
10
197.296659
20
894.528924
30
0
0
VERTEX
8
FINGER
10
155.522842
20
946.911633
30
0
0
SEQEND
8
FINGER
0
POLYLINE
8
ASSEMBLY
66
1
70
1
10
0
20
0
30
0
0
VERTEX
8
ASSEMBLY
10
203.820813
20
886.347893
30
0
0
VERTEX
8
ASSEMBLY
10
125.422969
20
788.040105
30
0
0
VERTEX
8
ASSEMBLY
10
37.629767
20
830.319083
30
0
0
VERTEX
8
ASSEMBLY
10
143.066033
20
962.531978
30
0
0
SEQEND
8
ASSEMBLY
0
POLYLINE
8
FINGER
66
1
70
0
10
0
20
0
30
0
0
VERTEX
8
FINGER
10
115.995292
20
792.580235
30
0
0
VERTEX
8
FINGER
10
55.630378
20
821.650446
30
0
0
SEQEND
8
FINGER
0
POLYLINE
8
ASSEMBLY
66
1
70
1
10
0
20
0
30
0
0
VERTEX
8
ASSEMBLY
10
125.422969
20
788.040105
30
0
0
VERTEX
8
ASSEMBLY
10
97.443102
20
665.4523
30
0
0
VERTEX
8
ASSEMBLY
10
0
20
665.4523
30
0
0
VERTEX
8
ASSEMBLY
10
37.629767
20
830.319083
30
0
0
SEQEND
8
ASSEMBLY
0
POLYLINE
8
FINGER
66
1
70
0
10
0
20
0
30
0
0
VERTEX
8
FINGER
10
86.979171
20
665.4523
30
0
0
VERTEX
8
FINGER
10
19.979171
20
665.4523
30
0
0
SEQEND
8
FINGER
0
POLYLINE
8
ASSEMBLY
66
1
70
1
10
0
20
0
30
0
0
VERTEX
8
ASSEMBLY
10
97.443102
20
665.4523
30
0
0
VERTEX
8
ASSEMBLY
10
125.422969
20
542.864494
30
0
0
VERTEX
8
ASSEMBLY
10
37.629767
20
500.585516
30
0
0
VERTEX
8
ASSEMBLY
10
0
20
665.4523
30
0
0
SEQEND
8
ASSEMBLY
0
POLYLINE
8
FINGER
66
1
70
0
10
0
20
0
30
0
0
VERTEX
8
FINGER
10
115.995292
20
538.324364
30
0
0
VERTEX
8
FINGER
10
55.630378
20
509.254153
30
0
0
SEQEND
8
FINGER
0
POLYLINE
8
ASSEMBLY
66
1
70
1
10
0
20
0
30
0
0
VERTEX
8
ASSEMBLY
10
125.422969
20
542.864494
30
0
0
VERTEX
8
ASSEMBLY
10
203.820813
20
444.556706
30
0
0
VERTEX
8
ASSEMBLY
10
143.066033
20
368.372621
30
0
0
VERTEX
8
ASSEMBLY
10
37.629767
20
500.585516
30
0
0
SEQEND
8
ASSEMBLY
0
POLYLINE
8
FINGER
66
1
70
0
10
0
20
0
30
0
0
VERTEX
8
FINGER
10
197.296659
20
436.375675
30
0
0
VERTEX
8
FINGER
10
155.522842
20
383.992966
30
0
0
SEQEND
8
FINGER
0
POLYLINE
8
ASSEMBLY
66
1
70
1
10
0
20
0
30
0
0
VERTEX
8
ASSEMBLY
10
203.820813
20
444.556706
30
0
0
VERTEX
8
ASSEMBLY
10
317.108981
20
390
30
0
0
VERTEX
8
ASSEMBLY
10
295.425851
20
295
30
0
0
VERTEX
8
ASSEMBLY
10
143.066033
20
368.372621
30
0
0
SEQEND
8
ASSEMBLY
0
POLYLINE
8
FINGER
66
1
70
0
10
0
20
0
30
0
0
VERTEX
8
FINGER
10
314.780537
20
379.798421
30
0
0
VERTEX
8
FINGER
10
299.871634
20
314.478251
30
0
0
SEQEND
8
FINGER
0
POLYLINE
8
ASSEMBLY
66
1
70
1
10
0
20
0
30
0
0
VERTEX
8
ASSEMBLY
10
317.108981
20
390
30
0
0
VERTEX
8
ASSEMBLY
10
442.849361
20
390
30
0
0
VERTEX
8
ASSEMBLY
10
464.532491
20
295
30
0
0
VERTEX
8
ASSEMBLY
10
295.425851
20
295
30
0
0
SEQEND
8
ASSEMBLY
0
POLYLINE
8
FINGER
66
1
70
0
10
0
20
0
30
0
0
VERTEX
8
FINGER
10
445.177804
20
379.798421
30
0
0
VERTEX
8
FINGER
10
460.086707
20
314.478251
30
0
0
SEQEND
8
FINGER
0
POLYLINE
8
ASSEMBLY
66
1
70
1
10
0
20
0
30
0
0
VERTEX
8
ASSEMBLY
10
442.849361
20
390
30
0
0
VERTEX
8
ASSEMBLY
10
556.137528
20
444.556706
30
0
0
VERTEX
8
ASSEMBLY
10
616.892309
20
368.372621
30
0
0
VERTEX
8
ASSEMBLY
10
464.532491
20
295
30
0
0
SEQEND
8
ASSEMBLY
0
POLYLINE
8
FINGER
66
1
70
0
10
0
20
0
30
0
0
VERTEX
8
FINGER
10
562.661683
20
436.375675
30
0
0
VERTEX
8
FINGER
10
604.435499
20
383.992966
30
0
0
SEQEND
8
FINGER
0
POLYLINE
8
ASSEMBLY
66
1
70
1
10
0
20
0
30
0
0
VERTEX
8
ASSEMBLY
10
556.137528
20
444.556706
30
0
0
VERTEX
8
ASSEMBLY
10
634.535373
20
542.864494
30
0
0
VERTEX
8
ASSEMBLY
10
722.328574
20
500.585516
30
0
0
VERTEX
8
ASSEMBLY
10
616.892309
20
368.372621
30
0
0
SEQEND
8
ASSEMBLY
0
POLYLINE
8
FINGER
66
1
70
0
10
0
20
0
30
0
0
VERTEX
8
FINGER
10
643.963049
20
538.324364
30
0
0
VERTEX
8
FINGER
10
704.327963
20
509.254153
30
0
0
SEQEND
8
FINGER
0
POLYLINE
8
ASSEMBLY
66
1
70
1
10
0
20
0
30
0
0
VERTEX
8
ASSEMBLY
10
634.535373
20
542.864494
30
0
0
VERTEX
8
ASSEMBLY
10
662.515239
20
665.4523
30
0
0
VERTEX
8
ASSEMBLY
10
759.958341
20
665.4523
30
0
0
VERTEX
8
ASSEMBLY
10
722.328574
20
500.585516
30
0
0
SEQEND
8
ASSEMBLY
0
POLYLINE
8
FINGER
66
1
70
0
10
0
20
0
30
0
0
VERTEX
8
FINGER
10
672.979171
20
665.4523
30
0
0
VERTEX
8
FINGER
10
739.979171
20
665.4523
30
0
0
SEQEND
8
FINGER
0
TEXT
8
TEXT
10
859.958341
20
1017.404599
30
0
40
15
1
CIR - LEAF RING
72
0
11
859.958341
21
1017.404599
31
0
73
0
0
TEXT
8
TEXT
10
859.958341
20
995.404599
30
0
40
15
1
CIRCLE W800 RISE400 H800 FIXED LEAF
72
0
11
859.958341
21
995.404599
31
0
73
0
0
TEXT
8
TEXT
10
859.958341
20
973.404599
30
0
40
15
1
FACE 67 OFFSET 40 OUTER L2261.9 INNER L1841
72
0
11
859.958341
21
973.404599
31
0
73
0
0
TEXT
8
TEXT
10
859.958341
20
951.404599
30
0
40
15
1
ARC 1 R360 L1131 180DEG: 7 x board 95 L169.1 ROUGH 199.1 (ALT 5 x board 105)
72
0
11
859.958341
21
951.404599
31
0
73
0
0
TEXT
8
TEXT
10
859.958341
20
929.404599
30
0
40
15
1
ARC 2 R360 L1131 180DEG: 7 x board 95 L169.1 ROUGH 199.1 (ALT 5 x board 105)
72
0
11
859.958341
21
929.404599
31
0
73
0
0
TEXT
8
TEXT
10
859.958341
20
907.404599
30
0
40
15
1
FINGER 15/16/3.8
72
0
11
859.958341
21
907.404599
31
0
73
0
0
TEXT
8
TEXT
10
859.958341
20
885.404599
30
0
40
15
1
ALLOWANCE 10 PER SIDE  MAX SEGMENT 36 DEG  RULE NARROWEST
72
0
11
859.958341
21
885.404599
31
0
73
0
0
TEXT
8
TEXT
10
859.958341
20
863.404599
30
0
40
15
1
CUT CODES: J = JOINT FROM SQUARE  S = ARCH-START, AXIS TO HORIZONTAL  A = APEX FROM SQUARE
72
0
11
859.958341
21
863.404599
31
0
73
0
0
POLYLINE
8
PIECES
66
1
70
1
10
0
20
0
30
0
0
VERTEX
8
PIECES
10
266.119735
20
1235.904599
30
0
0
VERTEX
8
PIECES
10
30.867371
20
1235.904599
30
0
0
VERTEX
8
PIECES
10
0
20
1330.904599
30
0
0
VERTEX
8
PIECES
10
296.987106
20
1330.904599
30
0
0
SEQEND
8
PIECES
0
TEXT
8
TEXT
10
148.493553
20
1293.404599
30
0
40
15
1
CIR - FRAME RING P1 L297 x95
72
1
11
148.493553
21
1293.404599
31
0
73
2
0
TEXT
8
TEXT
10
148.493553
20
1245.904599
30
0
40
10
1
OUT 267 IN 205.3 CUT J18/J18 FINGER BOTH ENDS
72
1
11
148.493553
21
1245.904599
31
0
73
2
0
POLYLINE
8
PIECES
66
1
70
1
10
0
20
0
30
0
0
VERTEX
8
PIECES
10
763.10684
20
1235.904599
30
0
0
VERTEX
8
PIECES
10
527.854477
20
1235.904599
30
0
0
VERTEX
8
PIECES
10
496.987106
20
1330.904599
30
0
0
VERTEX
8
PIECES
10
793.974211
20
1330.904599
30
0
0
SEQEND
8
PIECES
0
TEXT
8
TEXT
10
645.480659
20
1293.404599
30
0
40
15
1
CIR - FRAME RING P2 L297 x95
72
1
11
645.480659
21
1293.404599
31
0
73
2
0
TEXT
8
TEXT
10
645.480659
20
1245.904599
30
0
40
10
1
OUT 267 IN 205.3 CUT J18/J18 FINGER BOTH ENDS
72
1
11
645.480659
21
1245.904599
31
0
73
2
0
POLYLINE
8
PIECES
66
1
70
1
10
0
20
0
30
0
0
VERTEX
8
PIECES
10
1260.093946
20
1235.904599
30
0
0
VERTEX
8
PIECES
10
1024.841583
20
1235.904599
30
0
0
VERTEX
8
PIECES
10
993.974211
20
1330.904599
30
0
0
VERTEX
8
PIECES
10
1290.961317
20
1330.904599
30
0
0
SEQEND
8
PIECES
0
TEXT
8
TEXT
10
1142.467764
20
1293.404599
30
0
40
15
1
CIR - FRAME RING P3 L297 x95
72
1
11
1142.467764
21
1293.404599
31
0
73
2
0
TEXT
8
TEXT
10
1142.467764
20
1245.904599
30
0
40
10
1
OUT 267 IN 205.3 CUT J18/J18 FINGER BOTH ENDS
72
1
11
1142.467764
21
1245.904599
31
0
73
2
0
POLYLINE
8
PIECES
66
1
70
1
10
0
20
0
30
0
0
VERTEX
8
PIECES
10
1757.081052
20
1235.904599
30
0
0
VERTEX
8
PIECES
10
1521.828688
20
1235.904599
30
0
0
VERTEX
8
PIECES
10
1490.961317
20
1330.904599
30
0
0
VERTEX
8
PIECES
10
1787.948423
20
1330.904599
30
0
0
SEQEND
8
PIECES
0
TEXT
8
TEXT
10
1639.45487
20
1293.404599
30
0
40
15
1
CIR - FRAME RING P4 L297 x95
72
1
11
1639.45487
21
1293.404599
31
0
73
2
0
TEXT
8
TEXT
10
1639.45487
20
1245.904599
30
0
40
10
1
OUT 267 IN 205.3 CUT J18/J18 FINGER BOTH ENDS
72
1
11
1639.45487
21
1245.904599
31
0
73
2
0
POLYLINE
8
PIECES
66
1
70
1
10
0
20
0
30
0
0
VERTEX
8
PIECES
10
2254.068157
20
1235.904599
30
0
0
VERTEX
8
PIECES
10
2018.815794
20
1235.904599
30
0
0
VERTEX
8
PIECES
10
1987.948423
20
1330.904599
30
0
0
VERTEX
8
PIECES
10
2284.935529
20
1330.904599
30
0
0
SEQEND
8
PIECES
0
TEXT
8
TEXT
10
2136.441976
20
1293.404599
30
0
40
15
1
CIR - FRAME RING P5 L297 x95
72
1
11
2136.441976
21
1293.404599
31
0
73
2
0
TEXT
8
TEXT
10
2136.441976
20
1245.904599
30
0
40
10
1
OUT 267 IN 205.3 CUT J18/J18 FINGER BOTH ENDS
72
1
11
2136.441976
21
1245.904599
31
0
73
2
0
POLYLINE
8
PIECES
66
1
70
1
10
0
20
0
30
0
0
VERTEX
8
PIECES
10
2751.055263
20
1235.904599
30
0
0
VERTEX
8
PIECES
10
2515.8029
20
1235.904599
30
0
0
VERTEX
8
PIECES
10
2484.935529
20
1330.904599
30
0
0
VERTEX
8
PIECES
10
2781.922634
20
1330.904599
30
0
0
SEQEND
8
PIECES
0
TEXT
8
TEXT
10
2633.429081
20
1293.404599
30
0
40
15
1
CIR - FRAME RING P6 L297 x95
72
1
11
2633.429081
21
1293.404599
31
0
73
2
0
TEXT
8
TEXT
10
2633.429081
20
1245.904599
30
0
40
10
1
OUT 267 IN 205.3 CUT J18/J18 FINGER BOTH ENDS
72
1
11
2633.429081
21
1245.904599
31
0
73
2
0
POLYLINE
8
PIECES
66
1
70
1
10
0
20
0
30
0
0
VERTEX
8
PIECES
10
3248.042369
20
1235.904599
30
0
0
VERTEX
8
PIECES
10
3012.790005
20
1235.904599
30
0
0
VERTEX
8
PIECES
10
2981.922634
20
1330.904599
30
0
0
VERTEX
8
PIECES
10
3278.90974
20
1330.904599
30
0
0
SEQEND
8
PIECES
0
TEXT
8
TEXT
10
3130.416187
20
1293.404599
30
0
40
15
1
CIR - FRAME RING P7 L297 x95
72
1
11
3130.416187
21
1293.404599
31
0
73
2
0
TEXT
8
TEXT
10
3130.416187
20
1245.904599
30
0
40
10
1
OUT 267 IN 205.3 CUT J18/J18 FINGER BOTH ENDS
72
1
11
3130.416187
21
1245.904599
31
0
73
2
0
POLYLINE
8
PIECES
66
1
70
1
10
0
20
0
30
0
0
VERTEX
8
PIECES
10
3745.029475
20
1235.904599
30
0
0
VERTEX
8
PIECES
10
3509.777111
20
1235.904599
30
0
0
VERTEX
8
PIECES
10
3478.90974
20
1330.904599
30
0
0
VERTEX
8
PIECES
10
3775.896846
20
1330.904599
30
0
0
SEQEND
8
PIECES
0
TEXT
8
TEXT
10
3627.403293
20
1293.404599
30
0
40
15
1
CIR - FRAME RING P8 L297 x95
72
1
11
3627.403293
21
1293.404599
31
0
73
2
0
TEXT
8
TEXT
10
3627.403293
20
1245.904599
30
0
40
10
1
OUT 267 IN 205.3 CUT J18/J18 FINGER BOTH ENDS
72
1
11
3627.403293
21
1245.904599
31
0
73
2
0
POLYLINE
8
PIECES
66
1
70
1
10
0
20
0
30
0
0
VERTEX
8
PIECES
10
4242.01658
20
1235.904599
30
0
0
VERTEX
8
PIECES
10
4006.764217
20
1235.904599
30
0
0
VERTEX
8
PIECES
10
3975.896846
20
1330.904599
30
0
0
VERTEX
8
PIECES
10
4272.883952
20
1330.904599
30
0
0
SEQEND
8
PIECES
0
TEXT
8
TEXT
10
4124.390399
20
1293.404599
30
0
40
15
1
CIR - FRAME RING P9 L297 x95
72
1
11
4124.390399
21
1293.404599
31
0
73
2
0
TEXT
8
TEXT
10
4124.390399
20
1245.904599
30
0
40
10
1
OUT 267 IN 205.3 CUT J18/J18 FINGER BOTH ENDS
72
1
11
4124.390399
21
1245.904599
31
0
73
2
0
POLYLINE
8
PIECES
66
1
70
1
10
0
20
0
30
0
0
VERTEX
8
PIECES
10
4739.003686
20
1235.904599
30
0
0
VERTEX
8
PIECES
10
4503.751323
20
1235.904599
30
0
0
VERTEX
8
PIECES
10
4472.883952
20
1330.904599
30
0
0
VERTEX
8
PIECES
10
4769.871057
20
1330.904599
30
0
0
SEQEND
8
PIECES
0
TEXT
8
TEXT
10
4621.377504
20
1293.404599
30
0
40
15
1
CIR - FRAME RING P10 L297 x95
72
1
11
4621.377504
21
1293.404599
31
0
73
2
0
TEXT
8
TEXT
10
4621.377504
20
1245.904599
30
0
40
10
1
OUT 267 IN 205.3 CUT J18/J18 FINGER BOTH ENDS
72
1
11
4621.377504
21
1245.904599
31
0
73
2
0
POLYLINE
8
CONTOUR
66
1
70
1
10
0
20
0
30
0
0
VERTEX
8
CONTOUR
10
831.994212
20
1941.755509
30
0
42
1
0
VERTEX
8
CONTOUR
10
31.994212
20
1941.755509
30
0
42
1
0
VERTEX
8
CONTOUR
10
831.994212
20
1941.755509
30
0
0
VERTEX
8
CONTOUR
10
774.994212
20
1941.755509
30
0
42
-1
0
VERTEX
8
CONTOUR
10
88.994212
20
1941.755509
30
0
42
-1
0
VERTEX
8
CONTOUR
10
774.994212
20
1941.755509
30
0
0
SEQEND
8
CONTOUR
0
POLYLINE
8
ASSEMBLY
66
1
70
1
10
0
20
0
30
0
0
VERTEX
8
ASSEMBLY
10
764.099512
20
1941.755509
30
0
0
VERTEX
8
ASSEMBLY
10
700.673043
20
2136.962107
30
0
0
VERTEX
8
ASSEMBLY
10
781.48487
20
2195.675336
30
0
0
VERTEX
8
ASSEMBLY
10
863.988423
20
1941.755509
30
0
0
SEQEND
8
ASSEMBLY
0
POLYLINE
8
FINGER
66
1
70
0
10
0
20
0
30
0
0
VERTEX
8
FINGER
10
774.994212
20
1941.755509
30
0
0
VERTEX
8
FINGER
10
831.994212
20
1941.755509
30
0
0
SEQEND
8
FINGER
0
POLYLINE
8
FINGER
66
1
70
0
10
0
20
0
30
0
0
VERTEX
8
FINGER
10
709.487041
20
2143.365851
30
0
0
VERTEX
8
FINGER
10
755.601009
20
2176.86961
30
0
0
SEQEND
8
FINGER
0
POLYLINE
8
ASSEMBLY
66
1
70
1
10
0
20
0
30
0
0
VERTEX
8
ASSEMBLY
10
700.673043
20
2136.962107
30
0
0
VERTEX
8
ASSEMBLY
10
534.620393
20
2257.606419
30
0
0
VERTEX
8
ASSEMBLY
10
565.487764
20
2352.606419
30
0
0
VERTEX
8
ASSEMBLY
10
781.48487
20
2195.675336
30
0
0
SEQEND
8
ASSEMBLY
0
POLYLINE
8
FINGER
66
1
70
0
10
0
20
0
30
0
0
VERTEX
8
FINGER
10
537.987041
20
2267.967894
30
0
0
VERTEX
8
FINGER
10
555.601009
20
2322.178116
30
0
0
SEQEND
8
FINGER
0
POLYLINE
8
ASSEMBLY
66
1
70
1
10
0
20
0
30
0
0
VERTEX
8
ASSEMBLY
10
534.620393
20
2257.606419
30
0
0
VERTEX
8
ASSEMBLY
10
329.36803
20
2257.606419
30
0
0
VERTEX
8
ASSEMBLY
10
298.500659
20
2352.606419
30
0
0
VERTEX
8
ASSEMBLY
10
565.487764
20
2352.606419
30
0
0
SEQEND
8
ASSEMBLY
0
POLYLINE
8
FINGER
66
1
70
0
10
0
20
0
30
0
0
VERTEX
8
FINGER
10
326.001383
20
2267.967894
30
0
0
VERTEX
8
FINGER
10
308.387414
20
2322.178116
30
0
0
SEQEND
8
FINGER
0
POLYLINE
8
ASSEMBLY
66
1
70
1
10
0
20
0
30
0
0
VERTEX
8
ASSEMBLY
10
329.36803
20
2257.606419
30
0
0
VERTEX
8
ASSEMBLY
10
163.31538
20
2136.962107
30
0
0
VERTEX
8
ASSEMBLY
10
82.503553
20
2195.675336
30
0
0
VERTEX
8
ASSEMBLY
10
298.500659
20
2352.606419
30
0
0
SEQEND
8
ASSEMBLY
0
POLYLINE
8
FINGER
66
1
70
0
10
0
20
0
30
0
0
VERTEX
8
FINGER
10
154.501383
20
2143.365851
30
0
0
VERTEX
8
FINGER
10
108.387414
20
2176.86961
30
0
0
SEQEND
8
FINGER
0
POLYLINE
8
ASSEMBLY
66
1
70
1
10
0
20
0
30
0
0
VERTEX
8
ASSEMBLY
10
163.31538
20
2136.962107
30
0
0
VERTEX
8
ASSEMBLY
10
99.888911
20
1941.755509
30
0
0
VERTEX
8
ASSEMBLY
10
0
20
1941.755509
30
0
0
VERTEX
8
ASSEMBLY
10
82.503553
20
2195.675336
30
0
0
SEQEND
8
ASSEMBLY
0
POLYLINE
8
FINGER
66
1
70
0
10
0
20
0
30
0
0
VERTEX
8
FINGER
10
88.994212
20
1941.755509
30
0
0
VERTEX
8
FINGER
10
31.994212
20
1941.755509
30
0
0
SEQEND
8
FINGER
0
POLYLINE
8
ASSEMBLY
66
1
70
1
10
0
20
0
30
0
0
VERTEX
8
ASSEMBLY
10
99.888911
20
1941.755509
30
0
0
VERTEX
8
ASSEMBLY
10
163.31538
20
1746.548911
30
0
0
VERTEX
8
ASSEMBLY
10
82.503553
20
1687.835682
30
0
0
VERTEX
8
ASSEMBLY
10
0
20
1941.755509
30
0
0
SEQEND
8
ASSEMBLY
0
POLYLINE
8
FINGER
66
1
70
0
10
0
20
0
30
0
0
VERTEX
8
FINGER
10
154.501383
20
1740.145168
30
0
0
VERTEX
8
FINGER
10
108.387414
20
1706.641408
30
0
0
SEQEND
8
FINGER
0
POLYLINE
8
ASSEMBLY
66
1
70
1
10
0
20
0
30
0
0
VERTEX
8
ASSEMBLY
10
163.31538
20
1746.548911
30
0
0
VERTEX
8
ASSEMBLY
10
329.36803
20
1625.904599
30
0
0
VERTEX
8
ASSEMBLY
10
298.500659
20
1530.904599
30
0
0
VERTEX
8
ASSEMBLY
10
82.503553
20
1687.835682
30
0
0
SEQEND
8
ASSEMBLY
0
POLYLINE
8
FINGER
66
1
70
0
10
0
20
0
30
0
0
VERTEX
8
FINGER
10
326.001383
20
1615.543124
30
0
0
VERTEX
8
FINGER
10
308.387414
20
1561.332903
30
0
0
SEQEND
8
FINGER
0
POLYLINE
8
ASSEMBLY
66
1
70
1
10
0
20
0
30
0
0
VERTEX
8
ASSEMBLY
10
329.36803
20
1625.904599
30
0
0
VERTEX
8
ASSEMBLY
10
534.620393
20
1625.904599
30
0
0
VERTEX
8
ASSEMBLY
10
565.487764
20
1530.904599
30
0
0
VERTEX
8
ASSEMBLY
10
298.500659
20
1530.904599
30
0
0
SEQEND
8
ASSEMBLY
0
POLYLINE
8
FINGER
66
1
70
0
10
0
20
0
30
0
0
VERTEX
8
FINGER
10
537.987041
20
1615.543124
30
0
0
VERTEX
8
FINGER
10
555.601009
20
1561.332903
30
0
0
SEQEND
8
FINGER
0
POLYLINE
8
ASSEMBLY
66
1
70
1
10
0
20
0
30
0
0
VERTEX
8
ASSEMBLY
10
534.620393
20
1625.904599
30
0
0
VERTEX
8
ASSEMBLY
10
700.673043
20
1746.548911
30
0
0
VERTEX
8
ASSEMBLY
10
781.48487
20
1687.835682
30
0
0
VERTEX
8
ASSEMBLY
10
565.487764
20
1530.904599
30
0
0
SEQEND
8
ASSEMBLY
0
POLYLINE
8
FINGER
66
1
70
0
10
0
20
0
30
0
0
VERTEX
8
FINGER
10
709.487041
20
1740.145168
30
0
0
VERTEX
8
FINGER
10
755.601009
20
1706.641408
30
0
0
SEQEND
8
FINGER
0
POLYLINE
8
ASSEMBLY
66
1
70
1
10
0
20
0
30
0
0
VERTEX
8
ASSEMBLY
10
700.673043
20
1746.548911
30
0
0
VERTEX
8
ASSEMBLY
10
764.099512
20
1941.755509
30
0
0
VERTEX
8
ASSEMBLY
10
863.988423
20
1941.755509
30
0
0
VERTEX
8
ASSEMBLY
10
781.48487
20
1687.835682
30
0
0
SEQEND
8
ASSEMBLY
0
POLYLINE
8
FINGER
66
1
70
0
10
0
20
0
30
0
0
VERTEX
8
FINGER
10
774.994212
20
1941.755509
30
0
0
VERTEX
8
FINGER
10
831.994212
20
1941.755509
30
0
0
SEQEND
8
FINGER
0
TEXT
8
TEXT
10
963.988423
20
2334.106419
30
0
40
15
1
CIR - FRAME RING
72
0
11
963.988423
21
2334.106419
31
0
73
0
0
TEXT
8
TEXT
10
963.988423
20
2312.106419
30
0
40
15
1
CIRCLE W800 RISE400 H800 FIXED LEAF
72
0
11
963.988423
21
2312.106419
31
0
73
0
0
TEXT
8
TEXT
10
963.988423
20
2290.106419
30
0
40
15
1
FACE 57 OFFSET 0 OUTER L2513.3 INNER L2155.1
72
0
11
963.988423
21
2290.106419
31
0
73
0
0
TEXT
8
TEXT
10
963.988423
20
2268.106419
30
0
40
15
1
ARC 1 R400 L1256.6 180DEG: 5 x board 95 L267 ROUGH 297
72
0
11
963.988423
21
2268.106419
31
0
73
0
0
TEXT
8
TEXT
10
963.988423
20
2246.106419
30
0
40
15
1
ARC 2 R400 L1256.6 180DEG: 5 x board 95 L267 ROUGH 297
72
0
11
963.988423
21
2246.106419
31
0
73
0
0
TEXT
8
TEXT
10
963.988423
20
2224.106419
30
0
40
15
1
FINGER 15/16/3.8
72
0
11
963.988423
21
2224.106419
31
0
73
0
0
TEXT
8
TEXT
10
963.988423
20
2202.106419
30
0
40
15
1
ALLOWANCE 10 PER SIDE  MAX SEGMENT 36 DEG  RULE NARROWEST
72
0
11
963.988423
21
2202.106419
31
0
73
0
0
TEXT
8
TEXT
10
963.988423
20
2180.106419
30
0
40
15
1
CUT CODES: J = JOINT FROM SQUARE  S = ARCH-START, AXIS TO HORIZONTAL  A = APEX FROM SQUARE
72
0
11
963.988423
21
2180.106419
31
0
73
0
0
POLYLINE
8
FIT
66
1
70
1
10
0
20
0
30
0
0
VERTEX
8
FIT
10
800
20
2916.602116
30
0
42
1
0
VERTEX
8
FIT
10
0
20
2916.602116
30
0
42
1
0
VERTEX
8
FIT
10
800
20
2916.602116
30
0
0
VERTEX
8
FIT
10
743
20
2916.602116
30
0
42
-1
0
VERTEX
8
FIT
10
57
20
2916.602116
30
0
42
-1
0
VERTEX
8
FIT
10
743
20
2916.602116
30
0
0
SEQEND
8
FIT
0
POLYLINE
8
FIT
66
1
70
1
10
0
20
0
30
0
0
VERTEX
8
FIT
10
760
20
2916.602116
30
0
42
1
0
VERTEX
8
FIT
10
40
20
2916.602116
30
0
42
1
0
VERTEX
8
FIT
10
760
20
2916.602116
30
0
0
VERTEX
8
FIT
10
693
20
2916.602116
30
0
42
-1
0
VERTEX
8
FIT
10
107
20
2916.602116
30
0
42
-1
0
VERTEX
8
FIT
10
693
20
2916.602116
30
0
0
SEQEND
8
FIT
0
POLYLINE
8
FIT
66
1
70
1
10
0
20
0
30
0
0
VERTEX
8
FIT
10
705.5
20
2916.602116
30
0
42
1
0
VERTEX
8
FIT
10
94.5
20
2916.602116
30
0
42
1
0
VERTEX
8
FIT
10
705.5
20
2916.602116
30
0
0
SEQEND
8
FIT
0
POLYLINE
8
FIT
66
1
70
0
10
0
20
0
30
0
0
VERTEX
8
FIT
10
764
20
2916.602116
30
0
42
0.013737
0
VERTEX
8
FIT
10
763.450688
20
2936.592055
30
0
0
SEQEND
8
FIT
0
POLYLINE
8
FIT
66
1
70
0
10
0
20
0
30
0
0
VERTEX
8
FIT
10
762.764436
20
2946.568165
30
0
42
0.013737
0
VERTEX
8
FIT
10
760.57133
20
2966.445027
30
0
0
SEQEND
8
FIT
0
POLYLINE
8
FIT
66
1
70
0
10
0
20
0
30
0
0
VERTEX
8
FIT
10
759.066132
20
2976.330779
30
0
42
0.013737
0
VERTEX
8
FIT
10
755.244121
20
2995.959625
30
0
0
SEQEND
8
FIT
0
POLYLINE
8
FIT
66
1
70
0
10
0
20
0
30
0
0
VERTEX
8
FIT
10
752.930194
20
3005.687906
30
0
42
0.013737
0
VERTEX
8
FIT
10
747.505226
20
3024.93548
30
0
0
SEQEND
8
FIT
0
POLYLINE
8
FIT
66
1
70
0
10
0
20
0
30
0
0
VERTEX
8
FIT
10
744.398279
20
3034.440247
30
0
42
0.013737
0
VERTEX
8
FIT
10
737.407183
20
3053.17588
30
0
0
SEQEND
8
FIT
0
POLYLINE
8
FIT
66
1
70
0
10
0
20
0
30
0
0
VERTEX
8
FIT
10
733.528309
20
3062.392607
30
0
42
0.013737
0
VERTEX
8
FIT
10
725.018545
20
3080.489106
30
0
0
SEQEND
8
FIT
0
POLYLINE
8
FIT
66
1
70
0
10
0
20
0
30
0
0
VERTEX
8
FIT
10
720.394077
20
3089.355222
30
0
42
0.013737
0
VERTEX
8
FIT
10
710.423417
20
3106.689734
30
0
0
SEQEND
8
FIT
0
POLYLINE
8
FIT
66
1
70
0
10
0
20
0
30
0
0
VERTEX
8
FIT
10
705.084749
20
3115.145048
30
0
42
0.013737
0
VERTEX
8
FIT
10
693.720882
20
3131.599892
30
0
0
SEQEND
8
FIT
0
POLYLINE
8
FIT
66
1
70
0
10
0
20
0
30
0
0
VERTEX
8
FIT
10
687.704258
20
3139.587004
30
0
42
0.013737
0
VERTEX
8
FIT
10
675.02433
20
3155.050471
30
0
0
SEQEND
8
FIT
0
POLYLINE
8
FIT
66
1
70
0
10
0
20
0
30
0
0
VERTEX
8
FIT
10
668.370596
20
3162.515156
30
0
42
0.013737
0
VERTEX
8
FIT
10
654.46069
20
3176.882268
30
0
0
SEQEND
8
FIT
0
POLYLINE
8
FIT
66
1
70
0
10
0
20
0
30
0
0
VERTEX
8
FIT
10
647.215016
20
3183.773851
30
0
42
0.013737
0
VERTEX
8
FIT
10
632.169563
20
3196.947071
30
0
0
SEQEND
8
FIT
0
POLYLINE
8
FIT
66
1
70
0
10
0
20
0
30
0
0
VERTEX
8
FIT
10
624.381139
20
3203.218767
30
0
42
0.013737
0
VERTEX
8
FIT
10
608.302281
20
3215.108665
30
0
0
SEQEND
8
FIT
0
POLYLINE
8
FIT
66
1
70
0
10
0
20
0
30
0
0
VERTEX
8
FIT
10
600.023981
20
3220.717895
30
0
42
0.013737
0
VERTEX
8
FIT
10
583.020873
20
3231.243754
30
0
0
SEQEND
8
FIT
0
POLYLINE
8
FIT
66
1
70
0
10
0
20
0
30
0
0
VERTEX
8
FIT
10
574.308897
20
3236.152439
30
0
42
0.013737
0
VERTEX
8
FIT
10
556.49697
20
3245.242799
30
0
0
SEQEND
8
FIT
0
POLYLINE
8
FIT
66
1
70
0
10
0
20
0
30
0
0
VERTEX
8
FIT
10
547.410462
20
3249.417614
30
0
42
0.013737
0
VERTEX
8
FIT
10
528.910639
20
3257.010764
30
0
0
SEQEND
8
FIT
0
POLYLINE
8
FIT
66
1
70
0
10
0
20
0
30
0
0
VERTEX
8
FIT
10
519.511286
20
3260.423367
30
0
42
0.013737
0
VERTEX
8
FIT
10
500.449157
20
3266.467757
30
0
0
SEQEND
8
FIT
0
POLYLINE
8
FIT
66
1
70
0
10
0
20
0
30
0
0
VERTEX
8
FIT
10
490.800769
20
3269.094982
30
0
42
0.013737
0
VERTEX
8
FIT
10
471.305745
20
3273.549578
30
0
0
SEQEND
8
FIT
0
POLYLINE
8
FIT
66
1
70
0
10
0
20
0
30
0
0
VERTEX
8
FIT
10
461.473823
20
3275.373588
30
0
42
0.013737
0
VERTEX
8
FIT
10
441.678252
20
3278.20815
30
0
0
SEQEND
8
FIT
0
POLYLINE
8
FIT
66
1
70
0
10
0
20
0
30
0
0
VERTEX
8
FIT
10
431.729542
20
3279.216562
30
0
42
0.013737
0
VERTEX
8
FIT
10
411.767812
20
3280.411845
30
0
0
SEQEND
8
FIT
0
POLYLINE
8
FIT
66
1
70
0
10
0
20
0
30
0
0
VERTEX
8
FIT
10
401.769856
20
3280.597814
30
0
42
0.013737
0
VERTEX
8
FIT
10
381.777483
20
3280.145704
30
0
0
SEQEND
8
FIT
0
POLYLINE
8
FIT
66
1
70
0
10
0
20
0
30
0
0
VERTEX
8
FIT
10
371.798154
20
3279.507966
30
0
42
0.013737
0
VERTEX
8
FIT
10
351.910863
20
3277.411533
30
0
0
SEQEND
8
FIT
0
POLYLINE
8
FIT
66
1
70
0
10
0
20
0
30
0
0
VERTEX
8
FIT
10
342.01791
20
3275.954419
30
0
42
0.013737
0
VERTEX
8
FIT
10
322.370712
20
3272.227894
30
0
0
SEQEND
8
FIT
0
POLYLINE
8
FIT
66
1
70
0
10
0
20
0
30
0
0
VERTEX
8
FIT
10
312.631295
20
3269.961295
30
0
42
0.013737
0
VERTEX
8
FIT
10
293.357571
20
3264.629978
30
0
0
SEQEND
8
FIT
0
POLYLINE
8
FIT
66
1
70
0
10
0
20
0
30
0
0
VERTEX
8
FIT
10
283.83781
20
3261.569282
30
0
42
0.013737
0
VERTEX
8
FIT
10
265.068406
20
3254.669365
30
0
0
SEQEND
8
FIT
0
POLYLINE
8
FIT
66
1
70
0
10
0
20
0
30
0
0
VERTEX
8
FIT
10
255.832928
20
3250.835351
30
0
42
0.013737
0
VERTEX
8
FIT
10
237.695266
20
3242.413677
30
0
0
SEQEND
8
FIT
0
POLYLINE
8
FIT
66
1
70
0
10
0
20
0
30
0
0
VERTEX
8
FIT
10
228.80677
20
3237.832373
30
0
42
0.013737
0
VERTEX
8
FIT
10
211.423983
20
3227.946115
30
0
0
SEQEND
8
FIT
0
POLYLINE
8
FIT
66
1
70
0
10
0
20
0
30
0
0
VERTEX
8
FIT
10
202.942811
20
3222.648623
30
0
42
0.013737
0
VERTEX
8
FIT
10
186.432907
20
3211.364897
30
0
0
SEQEND
8
FIT
0
POLYLINE
8
FIT
66
1
70
0
10
0
20
0
30
0
0
VERTEX
8
FIT
10
178.416636
20
3205.38718
30
0
42
0.013737
0
VERTEX
8
FIT
10
162.891699
20
3192.782589
30
0
0
SEQEND
8
FIT
0
POLYLINE
8
FIT
66
1
70
0
10
0
20
0
30
0
0
VERTEX
8
FIT
10
155.394749
20
3186.165228
30
0
42
0.013737
0
VERTEX
8
FIT
10
140.960174
20
3172.325343
30
0
0
SEQEND
8
FIT
0
POLYLINE
8
FIT
66
1
70
0
10
0
20
0
30
0
0
VERTEX
8
FIT
10
134.033442
20
3165.113264
30
0
42
0.013737
0
VERTEX
8
FIT
10
120.787223
20
3150.13204
30
0
0
SEQEND
8
FIT
0
POLYLINE
8
FIT
66
1
70
0
10
0
20
0
30
0
0
VERTEX
8
FIT
10
114.477733
20
3142.374203
30
0
42
0.013737
0
VERTEX
8
FIT
10
102.509796
20
3126.353346
30
0
0
SEQEND
8
FIT
0
POLYLINE
8
FIT
66
1
70
0
10
0
20
0
30
0
0
VERTEX
8
FIT
10
96.860381
20
3118.102417
30
0
42
0.013737
0
VERTEX
8
FIT
10
86.251973
20
3101.150689
30
0
0
SEQEND
8
FIT
0
POLYLINE
8
FIT
66
1
70
0
10
0
20
0
30
0
0
VERTEX
8
FIT
10
81.300987
20
3092.462684
30
0
42
0.013737
0
VERTEX
8
FIT
10
72.124128
20
3074.695167
30
0
0
SEQEND
8
FIT
0
POLYLINE
8
FIT
66
1
70
0
10
0
20
0
30
0
0
VERTEX
8
FIT
10
67.905182
20
3065.629066
30
0
42
0.013737
0
VERTEX
8
FIT
10
60.222171
20
3047.166381
30
0
0
SEQEND
8
FIT
0
POLYLINE
8
FIT
66
1
70
0
10
0
20
0
30
0
0
VERTEX
8
FIT
10
56.763906
20
3037.783731
30
0
42
0.013737
0
VERTEX
8
FIT
10
50.626903
20
3018.751218
30
0
0
SEQEND
8
FIT
0
POLYLINE
8
FIT
66
1
70
0
10
0
20
0
30
0
0
VERTEX
8
FIT
10
47.952796
20
3009.115717
30
0
42
0.013737
0
VERTEX
8
FIT
10
43.403463
20
2989.642584
30
0
0
SEQEND
8
FIT
0
POLYLINE
8
FIT
66
1
70
0
10
0
20
0
30
0
0
VERTEX
8
FIT
10
41.53167
20
2979.819646
30
0
42
0.013737
0
VERTEX
8
FIT
10
38.600891
20
2960.038091
30
0
0
SEQEND
8
FIT
0
POLYLINE
8
FIT
66
1
70
0
10
0
20
0
30
0
0
VERTEX
8
FIT
10
37.544118
20
2950.094403
30
0
42
0.013737
0
VERTEX
8
FIT
10
36.25179
20
2930.13872
30
0
0
SEQEND
8
FIT
0
POLYLINE
8
FIT
66
1
70
0
10
0
20
0
30
0
0
VERTEX
8
FIT
10
36.017211
20
2920.141786
30
0
42
0.002431
0
VERTEX
8
FIT
10
36
20
2916.602116
30
0
0
SEQEND
8
FIT
0
POLYLINE
8
FIT
66
1
70
0
10
0
20
0
30
0
0
VERTEX
8
FIT
10
36
20
2916.602116
30
0
42
0.013737
0
VERTEX
8
FIT
10
36.549312
20
2896.612178
30
0
0
SEQEND
8
FIT
0
POLYLINE
8
FIT
66
1
70
0
10
0
20
0
30
0
0
VERTEX
8
FIT
10
37.235564
20
2886.636068
30
0
42
0.013737
0
VERTEX
8
FIT
10
39.42867
20
2866.759205
30
0
0
SEQEND
8
FIT
0
POLYLINE
8
FIT
66
1
70
0
10
0
20
0
30
0
0
VERTEX
8
FIT
10
40.933868
20
2856.873454
30
0
42
0.013737
0
VERTEX
8
FIT
10
44.755879
20
2837.244607
30
0
0
SEQEND
8
FIT
0
POLYLINE
8
FIT
66
1
70
0
10
0
20
0
30
0
0
VERTEX
8
FIT
10
47.069806
20
2827.516326
30
0
42
0.013737
0
VERTEX
8
FIT
10
52.494774
20
2808.268752
30
0
0
SEQEND
8
FIT
0
POLYLINE
8
FIT
66
1
70
0
10
0
20
0
30
0
0
VERTEX
8
FIT
10
55.601721
20
2798.763985
30
0
42
0.013737
0
VERTEX
8
FIT
10
62.592817
20
2780.028352
30
0
0
SEQEND
8
FIT
0
POLYLINE
8
FIT
66
1
70
0
10
0
20
0
30
0
0
VERTEX
8
FIT
10
66.471691
20
2770.811626
30
0
42
0.013737
0
VERTEX
8
FIT
10
74.981455
20
2752.715126
30
0
0
SEQEND
8
FIT
0
POLYLINE
8
FIT
66
1
70
0
10
0
20
0
30
0
0
VERTEX
8
FIT
10
79.605923
20
2743.849011
30
0
42
0.013737
0
VERTEX
8
FIT
10
89.576583
20
2726.514499
30
0
0
SEQEND
8
FIT
0
POLYLINE
8
FIT
66
1
70
0
10
0
20
0
30
0
0
VERTEX
8
FIT
10
94.915251
20
2718.059184
30
0
42
0.013737
0
VERTEX
8
FIT
10
106.279118
20
2701.60434
30
0
0
SEQEND
8
FIT
0
POLYLINE
8
FIT
66
1
70
0
10
0
20
0
30
0
0
VERTEX
8
FIT
10
112.295742
20
2693.617229
30
0
42
0.013737
0
VERTEX
8
FIT
10
124.97567
20
2678.153762
30
0
0
SEQEND
8
FIT
0
POLYLINE
8
FIT
66
1
70
0
10
0
20
0
30
0
0
VERTEX
8
FIT
10
131.629404
20
2670.689076
30
0
42
0.013737
0
VERTEX
8
FIT
10
145.53931
20
2656.321965
30
0
0
SEQEND
8
FIT
0
POLYLINE
8
FIT
66
1
70
0
10
0
20
0
30
0
0
VERTEX
8
FIT
10
152.784984
20
2649.430381
30
0
42
0.013737
0
VERTEX
8
FIT
10
167.830437
20
2636.257161
30
0
0
SEQEND
8
FIT
0
POLYLINE
8
FIT
66
1
70
0
10
0
20
0
30
0
0
VERTEX
8
FIT
10
175.618861
20
2629.985466
30
0
42
0.013737
0
VERTEX
8
FIT
10
191.697719
20
2618.095567
30
0
0
SEQEND
8
FIT
0
POLYLINE
8
FIT
66
1
70
0
10
0
20
0
30
0
0
VERTEX
8
FIT
10
199.976019
20
2612.486337
30
0
42
0.013737
0
VERTEX
8
FIT
10
216.979127
20
2601.960479
30
0
0
SEQEND
8
FIT
0
POLYLINE
8
FIT
66
1
70
0
10
0
20
0
30
0
0
VERTEX
8
FIT
10
225.691103
20
2597.051794
30
0
42
0.013737
0
VERTEX
8
FIT
10
243.50303
20
2587.961434
30
0
0
SEQEND
8
FIT
0
POLYLINE
8
FIT
66
1
70
0
10
0
20
0
30
0
0
VERTEX
8
FIT
10
252.589538
20
2583.786618
30
0
42
0.013737
0
VERTEX
8
FIT
10
271.089361
20
2576.193469
30
0
0
SEQEND
8
FIT
0
POLYLINE
8
FIT
66
1
70
0
10
0
20
0
30
0
0
VERTEX
8
FIT
10
280.488714
20
2572.780865
30
0
42
0.013737
0
VERTEX
8
FIT
10
299.550843
20
2566.736475
30
0
0
SEQEND
8
FIT
0
POLYLINE
8
FIT
66
1
70
0
10
0
20
0
30
0
0
VERTEX
8
FIT
10
309.199231
20
2564.109251
30
0
42
0.013737
0
VERTEX
8
FIT
10
328.694255
20
2559.654654
30
0
0
SEQEND
8
FIT
0
POLYLINE
8
FIT
66
1
70
0
10
0
20
0
30
0
0
VERTEX
8
FIT
10
338.526177
20
2557.830644
30
0
42
0.013737
0
VERTEX
8
FIT
10
358.321748
20
2554.996083
30
0
0
SEQEND
8
FIT
0
POLYLINE
8
FIT
66
1
70
0
10
0
20
0
30
0
0
VERTEX
8
FIT
10
368.270458
20
2553.987671
30
0
42
0.013737
0
VERTEX
8
FIT
10
388.232188
20
2552.792388
30
0
0
SEQEND
8
FIT
0
POLYLINE
8
FIT
66
1
70
0
10
0
20
0
30
0
0
VERTEX
8
FIT
10
398.230144
20
2552.606419
30
0
42
0.013737
0
VERTEX
8
FIT
10
418.222517
20
2553.058529
30
0
0
SEQEND
8
FIT
0
POLYLINE
8
FIT
66
1
70
0
10
0
20
0
30
0
0
VERTEX
8
FIT
10
428.201846
20
2553.696266
30
0
42
0.013737
0
VERTEX
8
FIT
10
448.089137
20
2555.7927
30
0
0
SEQEND
8
FIT
0
POLYLINE
8
FIT
66
1
70
0
10
0
20
0
30
0
0
VERTEX
8
FIT
10
457.98209
20
2557.249814
30
0
42
0.013737
0
VERTEX
8
FIT
10
477.629288
20
2560.976339
30
0
0
SEQEND
8
FIT
0
POLYLINE
8
FIT
66
1
70
0
10
0
20
0
30
0
0
VERTEX
8
FIT
10
487.368705
20
2563.242937
30
0
42
0.013737
0
VERTEX
8
FIT
10
506.642429
20
2568.574255
30
0
0
SEQEND
8
FIT
0
POLYLINE
8
FIT
66
1
70
0
10
0
20
0
30
0
0
VERTEX
8
FIT
10
516.16219
20
2571.63495
30
0
42
0.013737
0
VERTEX
8
FIT
10
534.931594
20
2578.534867
30
0
0
SEQEND
8
FIT
0
POLYLINE
8
FIT
66
1
70
0
10
0
20
0
30
0
0
VERTEX
8
FIT
10
544.167072
20
2582.368881
30
0
42
0.013737
0
VERTEX
8
FIT
10
562.304734
20
2590.790555
30
0
0
SEQEND
8
FIT
0
POLYLINE
8
FIT
66
1
70
0
10
0
20
0
30
0
0
VERTEX
8
FIT
10
571.19323
20
2595.371859
30
0
42
0.013737
0
VERTEX
8
FIT
10
588.576017
20
2605.258117
30
0
0
SEQEND
8
FIT
0
POLYLINE
8
FIT
66
1
70
0
10
0
20
0
30
0
0
VERTEX
8
FIT
10
597.057189
20
2610.55561
30
0
42
0.013737
0
VERTEX
8
FIT
10
613.567093
20
2621.839336
30
0
0
SEQEND
8
FIT
0
POLYLINE
8
FIT
66
1
70
0
10
0
20
0
30
0
0
VERTEX
8
FIT
10
621.583364
20
2627.817053
30
0
42
0.013737
0
VERTEX
8
FIT
10
637.108301
20
2640.421644
30
0
0
SEQEND
8
FIT
0
POLYLINE
8
FIT
66
1
70
0
10
0
20
0
30
0
0
VERTEX
8
FIT
10
644.605251
20
2647.039004
30
0
42
0.013737
0
VERTEX
8
FIT
10
659.039826
20
2660.878889
30
0
0
SEQEND
8
FIT
0
POLYLINE
8
FIT
66
1
70
0
10
0
20
0
30
0
0
VERTEX
8
FIT
10
665.966558
20
2668.090969
30
0
42
0.013737
0
VERTEX
8
FIT
10
679.212777
20
2683.072193
30
0
0
SEQEND
8
FIT
0
POLYLINE
8
FIT
66
1
70
0
10
0
20
0
30
0
0
VERTEX
8
FIT
10
685.522267
20
2690.83003
30
0
42
0.013737
0
VERTEX
8
FIT
10
697.490204
20
2706.850887
30
0
0
SEQEND
8
FIT
0
POLYLINE
8
FIT
66
1
70
0
10
0
20
0
30
0
0
VERTEX
8
FIT
10
703.139619
20
2715.101815
30
0
42
0.013737
0
VERTEX
8
FIT
10
713.748027
20
2732.053543
30
0
0
SEQEND
8
FIT
0
POLYLINE
8
FIT
66
1
70
0
10
0
20
0
30
0
0
VERTEX
8
FIT
10
718.699013
20
2740.741549
30
0
42
0.013737
0
VERTEX
8
FIT
10
727.875872
20
2758.509065
30
0
0
SEQEND
8
FIT
0
POLYLINE
8
FIT
66
1
70
0
10
0
20
0
30
0
0
VERTEX
8
FIT
10
732.094818
20
2767.575167
30
0
42
0.013737
0
VERTEX
8
FIT
10
739.777829
20
2786.037852
30
0
0
SEQEND
8
FIT
0
POLYLINE
8
FIT
66
1
70
0
10
0
20
0
30
0
0
VERTEX
8
FIT
10
743.236094
20
2795.420501
30
0
42
0.013737
0
VERTEX
8
FIT
10
749.373097
20
2814.453015
30
0
0
SEQEND
8
FIT
0
POLYLINE
8
FIT
66
1
70
0
10
0
20
0
30
0
0
VERTEX
8
FIT
10
752.047204
20
2824.088515
30
0
42
0.013737
0
VERTEX
8
FIT
10
756.596537
20
2843.561649
30
0
0
SEQEND
8
FIT
0
POLYLINE
8
FIT
66
1
70
0
10
0
20
0
30
0
0
VERTEX
8
FIT
10
758.46833
20
2853.384587
30
0
42
0.013737
0
VERTEX
8
FIT
10
761.399109
20
2873.166141
30
0
0
SEQEND
8
FIT
0
POLYLINE
8
FIT
66
1
70
0
10
0
20
0
30
0
0
VERTEX
8
FIT
10
762.455882
20
2883.10983
30
0
42
0.013737
0
VERTEX
8
FIT
10
763.74821
20
2903.065512
30
0
0
SEQEND
8
FIT
0
POLYLINE
8
FIT
66
1
70
0
10
0
20
0
30
0
0
VERTEX
8
FIT
10
763.982789
20
2913.062446
30
0
42
0.002431
0
VERTEX
8
FIT
10
764
20
2916.602116
30
0
0
SEQEND
8
FIT
0
TEXT
8
TEXT
10
900
20
3262.097814
30
0
40
15
1
CIR - FIT (ASSEMBLY, NOT A TOOLPATH)
72
0
11
900
21
3262.097814
31
0
73
0
0
TEXT
8
TEXT
10
900
20
3240.097814
30
0
40
15
1
GAP 4 LAP 17 (REBATE)
72
0
11
900
21
3240.097814
31
0
73
0
0
TEXT
8
TEXT
10
900
20
3218.097814
30
0
40
15
1
FRAME R400/400 / 343/343  REBATE WALL R364/364 (LAND 36, DASHED)
72
0
11
900
21
3218.097814
31
0
73
0
0
TEXT
8
TEXT
10
900
20
3196.097814
30
0
40
15
1
LEAF R360/360 / 293/293  GLASS R305.5/305.5
72
0
11
900
21
3196.097814
31
0
73
0
0
ENDSEC
0
EOF
