0
SECTION
2
HEADER
9
$ACADVER
1
AC1009
0
ENDSEC
0
SECTION
2
TABLES
0
TABLE
2
LAYER
70
9
0
LAYER
2
0
70
0
62
7
6
CONTINUOUS
0
LAYER
2
ARKA_OUTLINE
70
0
62
7
6
CONTINUOUS
0
LAYER
2
ARKA_PANE
70
0
62
3
6
CONTINUOUS
0
LAYER
2
ARKA_FRONT_HINGES_3MM
70
0
62
50
6
CONTINUOUS
0
LAYER
2
ARKA_MITRE
70
0
62
1
6
CONTINUOUS
0
LAYER
2
ARKA_SECTION
70
0
62
5
6
CONTINUOUS
0
LAYER
2
ARKA_PANE_ZEWN_REF
70
0
62
3
6
CONTINUOUS
0
LAYER
2
ARKA_CENTRE
70
0
62
6
6
CONTINUOUS
0
LAYER
2
ARKA_INFO_NO_CUT
70
0
62
8
6
CONTINUOUS
0
ENDTAB
0
ENDSEC
0
SECTION
2
ENTITIES
0
POLYLINE
8
ARKA_OUTLINE
66
1
70
1
10
0
20
0
30
0
0
VERTEX
8
ARKA_OUTLINE
10
-5.5
20
-5.5
30
0
0
VERTEX
8
ARKA_OUTLINE
10
816.5
20
-5.5
30
0
0
VERTEX
8
ARKA_OUTLINE
10
816.5
20
1032.474596
30
0
42
0.25263
0
VERTEX
8
ARKA_OUTLINE
10
405.5
20
1794.000039
30
0
42
0.25263
0
VERTEX
8
ARKA_OUTLINE
10
-5.5
20
1032.474596
30
0
0
SEQEND
8
ARKA_OUTLINE
0
POLYLINE
8
ARKA_PANE_ZEWN_REF
66
1
70
1
10
0
20
0
30
0
0
VERTEX
8
ARKA_PANE_ZEWN_REF
10
-3.5
20
-3.5
30
0
0
VERTEX
8
ARKA_PANE_ZEWN_REF
10
814.5
20
-3.5
30
0
0
VERTEX
8
ARKA_PANE_ZEWN_REF
10
814.5
20
1032.474596
30
0
42
0.252246
0
VERTEX
8
ARKA_PANE_ZEWN_REF
10
405.5
20
1791.606337
30
0
42
0.252246
0
VERTEX
8
ARKA_PANE_ZEWN_REF
10
-3.5
20
1032.474596
30
0
0
SEQEND
8
ARKA_PANE_ZEWN_REF
0
POLYLINE
8
ARKA_OUTLINE
66
1
70
1
10
0
20
0
30
0
0
VERTEX
8
ARKA_OUTLINE
10
12.5
20
12.5
30
0
0
VERTEX
8
ARKA_OUTLINE
10
259.333333
20
12.5
30
0
0
VERTEX
8
ARKA_OUTLINE
10
259.333333
20
505.237298
30
0
0
VERTEX
8
ARKA_OUTLINE
10
12.5
20
505.237298
30
0
0
SEQEND
8
ARKA_OUTLINE
0
POLYLINE
8
ARKA_PANE
66
1
70
1
10
0
20
0
30
0
0
VERTEX
8
ARKA_PANE
10
10.5
20
10.5
30
0
0
VERTEX
8
ARKA_PANE
10
261.333333
20
10.5
30
0
0
VERTEX
8
ARKA_PANE
10
261.333333
20
507.237298
30
0
0
VERTEX
8
ARKA_PANE
10
10.5
20
507.237298
30
0
0
SEQEND
8
ARKA_PANE
0
POLYLINE
8
ARKA_FRONT_HINGES_3MM
66
1
70
1
10
0
20
0
30
0
0
VERTEX
8
ARKA_FRONT_HINGES_3MM
10
2.5
20
2.5
30
0
0
VERTEX
8
ARKA_FRONT_HINGES_3MM
10
269.333333
20
2.5
30
0
0
VERTEX
8
ARKA_FRONT_HINGES_3MM
10
269.333333
20
515.237298
30
0
0
VERTEX
8
ARKA_FRONT_HINGES_3MM
10
2.5
20
515.237298
30
0
0
SEQEND
8
ARKA_FRONT_HINGES_3MM
0
POLYLINE
8
ARKA_OUTLINE
66
1
70
1
10
0
20
0
30
0
0
VERTEX
8
ARKA_OUTLINE
10
281.333333
20
12.5
30
0
0
VERTEX
8
ARKA_OUTLINE
10
529.666667
20
12.5
30
0
0
VERTEX
8
ARKA_OUTLINE
10
529.666667
20
505.237298
30
0
0
VERTEX
8
ARKA_OUTLINE
10
281.333333
20
505.237298
30
0
0
SEQEND
8
ARKA_OUTLINE
0
POLYLINE
8
ARKA_PANE
66
1
70
1
10
0
20
0
30
0
0
VERTEX
8
ARKA_PANE
10
279.333333
20
10.5
30
0
0
VERTEX
8
ARKA_PANE
10
531.666667
20
10.5
30
0
0
VERTEX
8
ARKA_PANE
10
531.666667
20
507.237298
30
0
0
VERTEX
8
ARKA_PANE
10
279.333333
20
507.237298
30
0
0
SEQEND
8
ARKA_PANE
0
POLYLINE
8
ARKA_FRONT_HINGES_3MM
66
1
70
1
10
0
20
0
30
0
0
VERTEX
8
ARKA_FRONT_HINGES_3MM
10
271.333333
20
2.5
30
0
0
VERTEX
8
ARKA_FRONT_HINGES_3MM
10
539.666667
20
2.5
30
0
0
VERTEX
8
ARKA_FRONT_HINGES_3MM
10
539.666667
20
515.237298
30
0
0
VERTEX
8
ARKA_FRONT_HINGES_3MM
10
271.333333
20
515.237298
30
0
0
SEQEND
8
ARKA_FRONT_HINGES_3MM
0
POLYLINE
8
ARKA_OUTLINE
66
1
70
1
10
0
20
0
30
0
0
VERTEX
8
ARKA_OUTLINE
10
551.666667
20
12.5
30
0
0
VERTEX
8
ARKA_OUTLINE
10
798.5
20
12.5
30
0
0
VERTEX
8
ARKA_OUTLINE
10
798.5
20
505.237298
30
0
0
VERTEX
8
ARKA_OUTLINE
10
551.666667
20
505.237298
30
0
0
SEQEND
8
ARKA_OUTLINE
0
POLYLINE
8
ARKA_PANE
66
1
70
1
10
0
20
0
30
0
0
VERTEX
8
ARKA_PANE
10
549.666667
20
10.5
30
0
0
VERTEX
8
ARKA_PANE
10
800.5
20
10.5
30
0
0
VERTEX
8
ARKA_PANE
10
800.5
20
507.237298
30
0
0
VERTEX
8
ARKA_PANE
10
549.666667
20
507.237298
30
0
0
SEQEND
8
ARKA_PANE
0
POLYLINE
8
ARKA_FRONT_HINGES_3MM
66
1
70
1
10
0
20
0
30
0
0
VERTEX
8
ARKA_FRONT_HINGES_3MM
10
541.666667
20
2.5
30
0
0
VERTEX
8
ARKA_FRONT_HINGES_3MM
10
808.5
20
2.5
30
0
0
VERTEX
8
ARKA_FRONT_HINGES_3MM
10
808.5
20
515.237298
30
0
0
VERTEX
8
ARKA_FRONT_HINGES_3MM
10
541.666667
20
515.237298
30
0
0
SEQEND
8
ARKA_FRONT_HINGES_3MM
0
POLYLINE
8
ARKA_OUTLINE
66
1
70
1
10
0
20
0
30
0
0
VERTEX
8
ARKA_OUTLINE
10
798.5
20
527.237298
30
0
0
VERTEX
8
ARKA_OUTLINE
10
798.5
20
1032.474596
30
0
42
0.249098
0
VERTEX
8
ARKA_OUTLINE
10
405.5
20
1772.372562
30
0
42
0.249098
0
VERTEX
8
ARKA_OUTLINE
10
12.5
20
1032.474596
30
0
0
VERTEX
8
ARKA_OUTLINE
10
12.5
20
527.237298
30
0
0
VERTEX
8
ARKA_OUTLINE
10
259.333333
20
527.237298
30
0
0
VERTEX
8
ARKA_OUTLINE
10
259.333333
20
1573.153182
30
0
42
-0.076481
0
VERTEX
8
ARKA_OUTLINE
10
405.5
20
1441.780547
30
0
42
-0.076481
0
VERTEX
8
ARKA_OUTLINE
10
551.666667
20
1573.153182
30
0
0
VERTEX
8
ARKA_OUTLINE
10
551.666667
20
527.237298
30
0
0
SEQEND
8
ARKA_OUTLINE
0
POLYLINE
8
ARKA_PANE
66
1
70
1
10
0
20
0
30
0
0
VERTEX
8
ARKA_PANE
10
800.5
20
525.237298
30
0
0
VERTEX
8
ARKA_PANE
10
800.5
20
1032.474596
30
0
42
0.249499
0
VERTEX
8
ARKA_PANE
10
405.5
20
1774.785178
30
0
42
0.249499
0
VERTEX
8
ARKA_PANE
10
10.5
20
1032.474596
30
0
0
VERTEX
8
ARKA_PANE
10
10.5
20
525.237298
30
0
0
VERTEX
8
ARKA_PANE
10
261.333333
20
525.237298
30
0
0
VERTEX
8
ARKA_PANE
10
261.333333
20
1569.441386
30
0
42
-0.07599
0
VERTEX
8
ARKA_PANE
10
405.5
20
1438.615821
30
0
42
-0.07599
0
VERTEX
8
ARKA_PANE
10
549.666667
20
1569.441386
30
0
0
VERTEX
8
ARKA_PANE
10
549.666667
20
525.237298
30
0
0
SEQEND
8
ARKA_PANE
0
POLYLINE
8
ARKA_FRONT_HINGES_3MM
66
1
70
1
10
0
20
0
30
0
0
VERTEX
8
ARKA_FRONT_HINGES_3MM
10
808.5
20
517.237298
30
0
0
VERTEX
8
ARKA_FRONT_HINGES_3MM
10
808.5
20
1032.474596
30
0
42
0.251081
0
VERTEX
8
ARKA_FRONT_HINGES_3MM
10
405.5
20
1784.411429
30
0
42
0.251081
0
VERTEX
8
ARKA_FRONT_HINGES_3MM
10
2.5
20
1032.474596
30
0
0
VERTEX
8
ARKA_FRONT_HINGES_3MM
10
2.5
20
517.237298
30
0
0
VERTEX
8
ARKA_FRONT_HINGES_3MM
10
269.333333
20
517.237298
30
0
0
VERTEX
8
ARKA_FRONT_HINGES_3MM
10
269.333333
20
1554.33026
30
0
42
-0.073986
0
VERTEX
8
ARKA_FRONT_HINGES_3MM
10
405.5
20
1425.80401
30
0
42
-0.073986
0
VERTEX
8
ARKA_FRONT_HINGES_3MM
10
541.666667
20
1554.33026
30
0
0
VERTEX
8
ARKA_FRONT_HINGES_3MM
10
541.666667
20
517.237298
30
0
0
SEQEND
8
ARKA_FRONT_HINGES_3MM
0
POLYLINE
8
ARKA_OUTLINE
66
1
70
1
10
0
20
0
30
0
0
VERTEX
8
ARKA_OUTLINE
10
281.333333
20
527.237298
30
0
0
VERTEX
8
ARKA_OUTLINE
10
529.666667
20
527.237298
30
0
0
VERTEX
8
ARKA_OUTLINE
10
529.666667
20
1032.474596
30
0
42
0.16182
0
VERTEX
8
ARKA_OUTLINE
10
405.5
20
1406.084055
30
0
42
0.16182
0
VERTEX
8
ARKA_OUTLINE
10
281.333333
20
1032.474596
30
0
0
SEQEND
8
ARKA_OUTLINE
0
POLYLINE
8
ARKA_PANE
66
1
70
1
10
0
20
0
30
0
0
VERTEX
8
ARKA_PANE
10
279.333333
20
525.237298
30
0
0
VERTEX
8
ARKA_PANE
10
531.666667
20
525.237298
30
0
0
VERTEX
8
ARKA_PANE
10
531.666667
20
1032.474596
30
0
42
0.162914
0
VERTEX
8
ARKA_PANE
10
405.5
20
1409.415831
30
0
42
0.162914
0
VERTEX
8
ARKA_PANE
10
279.333333
20
1032.474596
30
0
0
SEQEND
8
ARKA_PANE
0
POLYLINE
8
ARKA_FRONT_HINGES_3MM
66
1
70
1
10
0
20
0
30
0
0
VERTEX
8
ARKA_FRONT_HINGES_3MM
10
271.333333
20
517.237298
30
0
0
VERTEX
8
ARKA_FRONT_HINGES_3MM
10
539.666667
20
517.237298
30
0
0
VERTEX
8
ARKA_FRONT_HINGES_3MM
10
539.666667
20
1032.474596
30
0
42
0.167165
0
VERTEX
8
ARKA_FRONT_HINGES_3MM
10
405.5
20
1422.560947
30
0
42
0.167165
0
VERTEX
8
ARKA_FRONT_HINGES_3MM
10
271.333333
20
1032.474596
30
0
0
SEQEND
8
ARKA_FRONT_HINGES_3MM
0
POLYLINE
8
ARKA_OUTLINE
66
1
70
1
10
0
20
0
30
0
0
VERTEX
8
ARKA_OUTLINE
10
281.333333
20
1530.805142
30
0
0
VERTEX
8
ARKA_OUTLINE
10
281.333333
20
1199.649156
30
0
42
-0.097659
0
VERTEX
8
ARKA_OUTLINE
10
391.526333
20
1424.089753
30
0
42
0.061674
0
SEQEND
8
ARKA_OUTLINE
0
POLYLINE
8
ARKA_PANE
66
1
70
1
10
0
20
0
30
0
0
VERTEX
8
ARKA_PANE
10
279.333333
20
1534.80251
30
0
0
VERTEX
8
ARKA_PANE
10
279.333333
20
1183.689675
30
0
42
-0.10452
0
VERTEX
8
ARKA_PANE
10
394.067
20
1424.121096
30
0
42
0.063908
0
SEQEND
8
ARKA_PANE
0
POLYLINE
8
ARKA_FRONT_HINGES_3MM
66
1
70
1
10
0
20
0
30
0
0
VERTEX
8
ARKA_FRONT_HINGES_3MM
10
271.333333
20
1550.483605
30
0
0
VERTEX
8
ARKA_FRONT_HINGES_3MM
10
271.333333
20
1082.879622
30
0
42
-0.147047
0
VERTEX
8
ARKA_FRONT_HINGES_3MM
10
404.229667
20
1424.183775
30
0
42
0.072657
0
SEQEND
8
ARKA_FRONT_HINGES_3MM
0
POLYLINE
8
ARKA_OUTLINE
66
1
70
1
10
0
20
0
30
0
0
VERTEX
8
ARKA_OUTLINE
10
529.666667
20
1199.649156
30
0
0
VERTEX
8
ARKA_OUTLINE
10
529.666667
20
1530.805142
30
0
42
0.061674
0
VERTEX
8
ARKA_OUTLINE
10
419.473667
20
1424.089753
30
0
42
-0.097659
0
SEQEND
8
ARKA_OUTLINE
0
POLYLINE
8
ARKA_PANE
66
1
70
1
10
0
20
0
30
0
0
VERTEX
8
ARKA_PANE
10
531.666667
20
1183.689675
30
0
0
VERTEX
8
ARKA_PANE
10
531.666667
20
1534.80251
30
0
42
0.063908
0
VERTEX
8
ARKA_PANE
10
416.933
20
1424.121096
30
0
42
-0.10452
0
SEQEND
8
ARKA_PANE
0
POLYLINE
8
ARKA_FRONT_HINGES_3MM
66
1
70
1
10
0
20
0
30
0
0
VERTEX
8
ARKA_FRONT_HINGES_3MM
10
539.666667
20
1082.879622
30
0
0
VERTEX
8
ARKA_FRONT_HINGES_3MM
10
539.666667
20
1550.483605
30
0
42
0.072657
0
VERTEX
8
ARKA_FRONT_HINGES_3MM
10
406.770333
20
1424.183775
30
0
42
-0.147047
0
SEQEND
8
ARKA_FRONT_HINGES_3MM
0
POLYLINE
8
ARKA_MITRE
66
1
70
0
10
0
20
0
30
0
0
VERTEX
8
ARKA_MITRE
10
2.5
20
17.5
30
0
0
VERTEX
8
ARKA_MITRE
10
2.5
20
2.5
30
0
0
VERTEX
8
ARKA_MITRE
10
17.5
20
2.5
30
0
0
SEQEND
8
ARKA_MITRE
0
POLYLINE
8
ARKA_MITRE
66
1
70
0
10
0
20
0
30
0
0
VERTEX
8
ARKA_MITRE
10
254.333333
20
2.5
30
0
0
VERTEX
8
ARKA_MITRE
10
269.333333
20
2.5
30
0
0
VERTEX
8
ARKA_MITRE
10
269.333333
20
17.5
30
0
0
SEQEND
8
ARKA_MITRE
0
POLYLINE
8
ARKA_MITRE
66
1
70
0
10
0
20
0
30
0
0
VERTEX
8
ARKA_MITRE
10
269.333333
20
500.237298
30
0
0
VERTEX
8
ARKA_MITRE
10
269.333333
20
515.237298
30
0
0
VERTEX
8
ARKA_MITRE
10
254.333333
20
515.237298
30
0
0
SEQEND
8
ARKA_MITRE
0
POLYLINE
8
ARKA_MITRE
66
1
70
0
10
0
20
0
30
0
0
VERTEX
8
ARKA_MITRE
10
17.5
20
515.237298
30
0
0
VERTEX
8
ARKA_MITRE
10
2.5
20
515.237298
30
0
0
VERTEX
8
ARKA_MITRE
10
2.5
20
500.237298
30
0
0
SEQEND
8
ARKA_MITRE
0
POLYLINE
8
ARKA_MITRE
66
1
70
0
10
0
20
0
30
0
0
VERTEX
8
ARKA_MITRE
10
271.333333
20
17.5
30
0
0
VERTEX
8
ARKA_MITRE
10
271.333333
20
2.5
30
0
0
VERTEX
8
ARKA_MITRE
10
286.333333
20
2.5
30
0
0
SEQEND
8
ARKA_MITRE
0
POLYLINE
8
ARKA_MITRE
66
1
70
0
10
0
20
0
30
0
0
VERTEX
8
ARKA_MITRE
10
524.666667
20
2.5
30
0
0
VERTEX
8
ARKA_MITRE
10
539.666667
20
2.5
30
0
0
VERTEX
8
ARKA_MITRE
10
539.666667
20
17.5
30
0
0
SEQEND
8
ARKA_MITRE
0
POLYLINE
8
ARKA_MITRE
66
1
70
0
10
0
20
0
30
0
0
VERTEX
8
ARKA_MITRE
10
539.666667
20
500.237298
30
0
0
VERTEX
8
ARKA_MITRE
10
539.666667
20
515.237298
30
0
0
VERTEX
8
ARKA_MITRE
10
524.666667
20
515.237298
30
0
0
SEQEND
8
ARKA_MITRE
0
POLYLINE
8
ARKA_MITRE
66
1
70
0
10
0
20
0
30
0
0
VERTEX
8
ARKA_MITRE
10
286.333333
20
515.237298
30
0
0
VERTEX
8
ARKA_MITRE
10
271.333333
20
515.237298
30
0
0
VERTEX
8
ARKA_MITRE
10
271.333333
20
500.237298
30
0
0
SEQEND
8
ARKA_MITRE
0
POLYLINE
8
ARKA_MITRE
66
1
70
0
10
0
20
0
30
0
0
VERTEX
8
ARKA_MITRE
10
541.666667
20
17.5
30
0
0
VERTEX
8
ARKA_MITRE
10
541.666667
20
2.5
30
0
0
VERTEX
8
ARKA_MITRE
10
556.666667
20
2.5
30
0
0
SEQEND
8
ARKA_MITRE
0
POLYLINE
8
ARKA_MITRE
66
1
70
0
10
0
20
0
30
0
0
VERTEX
8
ARKA_MITRE
10
793.5
20
2.5
30
0
0
VERTEX
8
ARKA_MITRE
10
808.5
20
2.5
30
0
0
VERTEX
8
ARKA_MITRE
10
808.5
20
17.5
30
0
0
SEQEND
8
ARKA_MITRE
0
POLYLINE
8
ARKA_MITRE
66
1
70
0
10
0
20
0
30
0
0
VERTEX
8
ARKA_MITRE
10
808.5
20
500.237298
30
0
0
VERTEX
8
ARKA_MITRE
10
808.5
20
515.237298
30
0
0
VERTEX
8
ARKA_MITRE
10
793.5
20
515.237298
30
0
0
SEQEND
8
ARKA_MITRE
0
POLYLINE
8
ARKA_MITRE
66
1
70
0
10
0
20
0
30
0
0
VERTEX
8
ARKA_MITRE
10
556.666667
20
515.237298
30
0
0
VERTEX
8
ARKA_MITRE
10
541.666667
20
515.237298
30
0
0
VERTEX
8
ARKA_MITRE
10
541.666667
20
500.237298
30
0
0
SEQEND
8
ARKA_MITRE
0
POLYLINE
8
ARKA_MITRE
66
1
70
0
10
0
20
0
30
0
0
VERTEX
8
ARKA_MITRE
10
793.5
20
517.237298
30
0
0
VERTEX
8
ARKA_MITRE
10
808.5
20
517.237298
30
0
0
VERTEX
8
ARKA_MITRE
10
808.5
20
532.237298
30
0
0
SEQEND
8
ARKA_MITRE
0
POLYLINE
8
ARKA_MITRE
66
1
70
0
10
0
20
0
30
0
0
VERTEX
8
ARKA_MITRE
10
417.921088
20
1776.002422
30
0
42
0.004153
0
VERTEX
8
ARKA_MITRE
10
405.5
20
1784.411429
30
0
42
0.004153
0
VERTEX
8
ARKA_MITRE
10
393.078912
20
1776.002422
30
0
0
SEQEND
8
ARKA_MITRE
0
POLYLINE
8
ARKA_MITRE
66
1
70
0
10
0
20
0
30
0
0
VERTEX
8
ARKA_MITRE
10
2.5
20
532.237298
30
0
0
VERTEX
8
ARKA_MITRE
10
2.5
20
517.237298
30
0
0
VERTEX
8
ARKA_MITRE
10
17.5
20
517.237298
30
0
0
SEQEND
8
ARKA_MITRE
0
POLYLINE
8
ARKA_MITRE
66
1
70
0
10
0
20
0
30
0
0
VERTEX
8
ARKA_MITRE
10
254.333333
20
517.237298
30
0
0
VERTEX
8
ARKA_MITRE
10
269.333333
20
517.237298
30
0
0
VERTEX
8
ARKA_MITRE
10
269.333333
20
532.237298
30
0
0
SEQEND
8
ARKA_MITRE
0
POLYLINE
8
ARKA_MITRE
66
1
70
0
10
0
20
0
30
0
0
VERTEX
8
ARKA_MITRE
10
269.333333
20
1539.33026
30
0
0
VERTEX
8
ARKA_MITRE
10
269.333333
20
1554.33026
30
0
42
-0.005895
0
VERTEX
8
ARKA_MITRE
10
281.535752
20
1545.60727
30
0
0
SEQEND
8
ARKA_MITRE
0
POLYLINE
8
ARKA_MITRE
66
1
70
0
10
0
20
0
30
0
0
VERTEX
8
ARKA_MITRE
10
396.08767
20
1437.482949
30
0
42
-0.005895
0
VERTEX
8
ARKA_MITRE
10
405.5
20
1425.80401
30
0
42
-0.005895
0
VERTEX
8
ARKA_MITRE
10
414.91233
20
1437.482949
30
0
0
SEQEND
8
ARKA_MITRE
0
POLYLINE
8
ARKA_MITRE
66
1
70
0
10
0
20
0
30
0
0
VERTEX
8
ARKA_MITRE
10
529.464248
20
1545.60727
30
0
42
-0.005895
0
VERTEX
8
ARKA_MITRE
10
541.666667
20
1554.33026
30
0
0
VERTEX
8
ARKA_MITRE
10
541.666667
20
1539.33026
30
0
0
SEQEND
8
ARKA_MITRE
0
POLYLINE
8
ARKA_MITRE
66
1
70
0
10
0
20
0
30
0
0
VERTEX
8
ARKA_MITRE
10
541.666667
20
532.237298
30
0
0
VERTEX
8
ARKA_MITRE
10
541.666667
20
517.237298
30
0
0
VERTEX
8
ARKA_MITRE
10
556.666667
20
517.237298
30
0
0
SEQEND
8
ARKA_MITRE
0
POLYLINE
8
ARKA_MITRE
66
1
70
0
10
0
20
0
30
0
0
VERTEX
8
ARKA_MITRE
10
271.333333
20
532.237298
30
0
0
VERTEX
8
ARKA_MITRE
10
271.333333
20
517.237298
30
0
0
VERTEX
8
ARKA_MITRE
10
286.333333
20
517.237298
30
0
0
SEQEND
8
ARKA_MITRE
0
POLYLINE
8
ARKA_MITRE
66
1
70
0
10
0
20
0
30
0
0
VERTEX
8
ARKA_MITRE
10
524.666667
20
517.237298
30
0
0
VERTEX
8
ARKA_MITRE
10
539.666667
20
517.237298
30
0
0
VERTEX
8
ARKA_MITRE
10
539.666667
20
532.237298
30
0
0
SEQEND
8
ARKA_MITRE
0
POLYLINE
8
ARKA_MITRE
66
1
70
0
10
0
20
0
30
0
0
VERTEX
8
ARKA_MITRE
10
414.586026
20
1410.62639
30
0
42
0.005913
0
VERTEX
8
ARKA_MITRE
10
405.5
20
1422.560947
30
0
42
0.005913
0
VERTEX
8
ARKA_MITRE
10
396.413974
20
1410.62639
30
0
0
SEQEND
8
ARKA_MITRE
0
POLYLINE
8
ARKA_MITRE
66
1
70
0
10
0
20
0
30
0
0
VERTEX
8
ARKA_MITRE
10
283.482372
20
1541.686426
30
0
42
0.005913
0
VERTEX
8
ARKA_MITRE
10
271.333333
20
1550.483605
30
0
0
VERTEX
8
ARKA_MITRE
10
271.333333
20
1535.483605
30
0
0
SEQEND
8
ARKA_MITRE
0
POLYLINE
8
ARKA_MITRE
66
1
70
0
10
0
20
0
30
0
0
VERTEX
8
ARKA_MITRE
10
271.333333
20
1097.879622
30
0
0
VERTEX
8
ARKA_MITRE
10
271.333333
20
1082.879622
30
0
42
-0.005895
0
VERTEX
8
ARKA_MITRE
10
272.697986
20
1097.817069
30
0
0
SEQEND
8
ARKA_MITRE
0
POLYLINE
8
ARKA_MITRE
66
1
70
0
10
0
20
0
30
0
0
VERTEX
8
ARKA_MITRE
10
395.133855
20
1412.256672
30
0
42
-0.005895
0
VERTEX
8
ARKA_MITRE
10
404.229667
20
1424.183775
30
0
42
0.005913
0
VERTEX
8
ARKA_MITRE
10
394.825894
20
1435.869602
30
0
0
SEQEND
8
ARKA_MITRE
0
POLYLINE
8
ARKA_MITRE
66
1
70
0
10
0
20
0
30
0
0
VERTEX
8
ARKA_MITRE
10
538.302014
20
1097.817069
30
0
42
-0.005895
0
VERTEX
8
ARKA_MITRE
10
539.666667
20
1082.879622
30
0
0
VERTEX
8
ARKA_MITRE
10
539.666667
20
1097.879622
30
0
0
SEQEND
8
ARKA_MITRE
0
POLYLINE
8
ARKA_MITRE
66
1
70
0
10
0
20
0
30
0
0
VERTEX
8
ARKA_MITRE
10
539.666667
20
1535.483605
30
0
0
VERTEX
8
ARKA_MITRE
10
539.666667
20
1550.483605
30
0
42
0.005913
0
VERTEX
8
ARKA_MITRE
10
527.517628
20
1541.686426
30
0
0
SEQEND
8
ARKA_MITRE
0
POLYLINE
8
ARKA_MITRE
66
1
70
0
10
0
20
0
30
0
0
VERTEX
8
ARKA_MITRE
10
416.174106
20
1435.869602
30
0
42
0.005913
0
VERTEX
8
ARKA_MITRE
10
406.770333
20
1424.183775
30
0
42
-0.005895
0
VERTEX
8
ARKA_MITRE
10
415.866145
20
1412.256672
30
0
0
SEQEND
8
ARKA_MITRE
0
POINT
8
ARKA_CENTRE
10
-94.5
20
1032.474596
30
0
0
POINT
8
ARKA_CENTRE
10
905.5
20
1032.474596
30
0
0
POLYLINE
8
ARKA_SECTION
66
1
70
0
10
0
20
0
30
0
0
VERTEX
8
ARKA_SECTION
10
916.5
20
-5.5
30
0
42
-0.414214
0
VERTEX
8
ARKA_SECTION
10
924.5
20
2.5
30
0
0
VERTEX
8
ARKA_SECTION
10
924.5
20
8.5
30
0
0
SEQEND
8
ARKA_SECTION
0
TEXT
8
ARKA_INFO_NO_CUT
10
912.5
20
-24.5
30
0
40
15
1
START
72
0
11
912.5
21
-24.5
31
0
73
0
0
TEXT
8
ARKA_INFO_NO_CUT
10
936.5
20
-1.5
30
0
40
15
1
SECTION R8 + 6 (VERBATIM)
72
0
11
936.5
21
-1.5
31
0
73
0
0
TEXT
8
ARKA_INFO_NO_CUT
10
916.5
20
1772.000039
30
0
40
15
1
gothic - TRACERY FULL
72
0
11
916.5
21
1772.000039
31
0
73
0
0
TEXT
8
ARKA_INFO_NO_CUT
10
916.5
20
1750.000039
30
0
40
15
1
PATTERN INTERSECTING SPOKES 0 RINGS 0 PANES 7
72
0
11
916.5
21
1750.000039
31
0
73
0
0
TEXT
8
ARKA_INFO_NO_CUT
10
916.5
20
1728.000039
30
0
40
15
1
TIMBER BAR 22 EDGE MARGIN 18 PANE +2 LIMIT +10 MITRE LEG 15
72
0
11
916.5
21
1728.000039
31
0
73
0
0
TEXT
8
ARKA_INFO_NO_CUT
10
916.5
20
1706.000039
30
0
40
15
1
ARKA_PANE = MOULDING RAIL (INNER EDGE OF THE BEAD), ARKA_FRONT_HINGES_3MM = BEAD LIMIT (NOT DRILLING)
72
0
11
916.5
21
1706.000039
31
0
73
0
0
TEXT
8
ARKA_INFO_NO_CUT
10
916.5
20
1684.000039
30
0
40
15
1
NOT A TOOLPATH
72
0
11
916.5
21
1684.000039
31
0
73
0
0
ENDSEC
0
EOF
