0
SECTION
2
HEADER
9
$ACADVER
1
AC1009
0
ENDSEC
0
SECTION
2
TABLES
0
TABLE
2
LAYER
70
8
0
LAYER
2
0
70
0
62
7
6
CONTINUOUS
0
LAYER
2
FIT
70
0
62
4
6
CONTINUOUS
0
LAYER
2
CONTOUR
70
0
62
7
6
CONTINUOUS
0
LAYER
2
ASSEMBLY
70
0
62
8
6
CONTINUOUS
0
LAYER
2
PIECES
70
0
62
5
6
CONTINUOUS
0
LAYER
2
FINGER
70
0
62
1
6
CONTINUOUS
0
LAYER
2
CLAMPS
70
0
62
3
6
CONTINUOUS
0
LAYER
2
TEXT
70
0
62
94
6
CONTINUOUS
0
ENDTAB
0
ENDSEC
0
SECTION
2
ENTITIES
0
POLYLINE
8
PIECES
66
1
70
1
10
0
20
0
30
0
0
VERTEX
8
PIECES
10
817.751136
20
0
30
0
0
VERTEX
8
PIECES
10
200
20
0
30
0
0
VERTEX
8
PIECES
10
0
20
200
30
0
0
VERTEX
8
PIECES
10
817.751136
20
200
30
0
0
SEQEND
8
PIECES
0
POLYLINE
8
CLAMPS
66
1
70
1
10
0
20
0
30
0
0
VERTEX
8
CLAMPS
10
200
20
35
30
0
0
VERTEX
8
CLAMPS
10
330
20
35
30
0
0
VERTEX
8
CLAMPS
10
330
20
165
30
0
0
VERTEX
8
CLAMPS
10
200
20
165
30
0
0
SEQEND
8
CLAMPS
0
POLYLINE
8
CLAMPS
66
1
70
1
10
0
20
0
30
0
0
VERTEX
8
CLAMPS
10
667.751136
20
35
30
0
0
VERTEX
8
CLAMPS
10
797.751136
20
35
30
0
0
VERTEX
8
CLAMPS
10
797.751136
20
165
30
0
0
VERTEX
8
CLAMPS
10
667.751136
20
165
30
0
0
SEQEND
8
CLAMPS
0
TEXT
8
TEXT
10
408.875568
20
110
30
0
40
15
1
C5 - LEAF TOP P1 L817.8 x200
72
1
11
408.875568
21
110
31
0
73
2
0
TEXT
8
TEXT
10
408.875568
20
10
30
0
40
10
1
OUT 802.8 IN 602.8 CUT J45/Q FINGER ONE END
72
1
11
408.875568
21
10
31
0
73
2
0
POLYLINE
8
PIECES
66
1
70
1
10
0
20
0
30
0
0
VERTEX
8
PIECES
10
1635.502272
20
0
30
0
0
VERTEX
8
PIECES
10
1017.751136
20
0
30
0
0
VERTEX
8
PIECES
10
1017.751136
20
200
30
0
0
VERTEX
8
PIECES
10
1835.502272
20
200
30
0
0
SEQEND
8
PIECES
0
POLYLINE
8
CLAMPS
66
1
70
1
10
0
20
0
30
0
0
VERTEX
8
CLAMPS
10
1037.751136
20
35
30
0
0
VERTEX
8
CLAMPS
10
1167.751136
20
35
30
0
0
VERTEX
8
CLAMPS
10
1167.751136
20
165
30
0
0
VERTEX
8
CLAMPS
10
1037.751136
20
165
30
0
0
SEQEND
8
CLAMPS
0
POLYLINE
8
CLAMPS
66
1
70
1
10
0
20
0
30
0
0
VERTEX
8
CLAMPS
10
1505.502272
20
35
30
0
0
VERTEX
8
CLAMPS
10
1635.502272
20
35
30
0
0
VERTEX
8
CLAMPS
10
1635.502272
20
165
30
0
0
VERTEX
8
CLAMPS
10
1505.502272
20
165
30
0
0
SEQEND
8
CLAMPS
0
TEXT
8
TEXT
10
1426.626704
20
110
30
0
40
15
1
C5 - LEAF TOP P2 L817.8 x200
72
1
11
1426.626704
21
110
31
0
73
2
0
TEXT
8
TEXT
10
1426.626704
20
10
30
0
40
10
1
OUT 802.8 IN 602.8 CUT Q/J45 FINGER ONE END
72
1
11
1426.626704
21
10
31
0
73
2
0
POLYLINE
8
CONTOUR
66
1
70
1
10
0
20
0
30
0
0
VERTEX
8
CONTOUR
10
1027.630772
20
443.790585
30
0
42
1
0
VERTEX
8
CONTOUR
10
107.630772
20
443.790585
30
0
0
VERTEX
8
CONTOUR
10
174.630772
20
443.790585
30
0
42
-1
0
VERTEX
8
CONTOUR
10
960.630772
20
443.790585
30
0
0
SEQEND
8
CONTOUR
0
POLYLINE
8
ASSEMBLY
66
1
70
1
10
0
20
0
30
0
0
VERTEX
8
ASSEMBLY
10
993.840187
20
400
30
0
0
VERTEX
8
ASSEMBLY
10
567.630772
20
826.209415
30
0
0
VERTEX
8
ASSEMBLY
10
567.630772
20
1109.052128
30
0
0
VERTEX
8
ASSEMBLY
10
1135.261543
20
541.421356
30
0
0
SEQEND
8
ASSEMBLY
0
POLYLINE
8
FINGER
66
1
70
0
10
0
20
0
30
0
0
VERTEX
8
FINGER
10
567.630772
20
836.790585
30
0
0
VERTEX
8
FINGER
10
567.630772
20
903.790585
30
0
0
SEQEND
8
FINGER
0
POLYLINE
8
ASSEMBLY
66
1
70
1
10
0
20
0
30
0
0
VERTEX
8
ASSEMBLY
10
567.630772
20
826.209415
30
0
0
VERTEX
8
ASSEMBLY
10
141.421356
20
400
30
0
0
VERTEX
8
ASSEMBLY
10
0
20
541.421356
30
0
0
VERTEX
8
ASSEMBLY
10
567.630772
20
1109.052128
30
0
0
SEQEND
8
ASSEMBLY
0
TEXT
8
TEXT
10
1235.261543
20
1090.552128
30
0
40
15
1
C5 - LEAF TOP
72
0
11
1235.261543
21
1090.552128
31
0
73
0
0
TEXT
8
TEXT
10
1235.261543
20
1068.552128
30
0
40
15
1
SEMI-CIRCLE W1000 RISE500 H1800 HINGE L
72
0
11
1235.261543
21
1068.552128
31
0
73
0
0
TEXT
8
TEXT
10
1235.261543
20
1046.552128
30
0
40
15
1
FACE 67 OFFSET 40 OUTER L1445.1 INNER L1234.6
72
0
11
1235.261543
21
1046.552128
31
0
73
0
0
TEXT
8
TEXT
10
1235.261543
20
1024.552128
30
0
40
15
1
CHAIN R460 L1445.1 180DEG: FEWEST 2 x board 200 L802.8 ROUGH 817.8 WASTE 64%
72
0
11
1235.261543
21
1024.552128
31
0
73
0
0
TEXT
8
TEXT
10
1235.261543
20
1002.552128
30
0
40
15
1
  NO ECONOMY ALT WITHIN 5 PIECES -> DEFAULT FEWEST
72
0
11
1235.261543
21
1002.552128
31
0
73
0
0
TEXT
8
TEXT
10
1235.261543
20
980.552128
30
0
40
15
1
FINGER 15/16/3.8
72
0
11
1235.261543
21
980.552128
31
0
73
0
0
TEXT
8
TEXT
10
1235.261543
20
958.552128
30
0
40
15
1
ALLOWANCE 10 PER SIDE  LIMITS: OVERALL >= 450 (CLAMP)  SHORTER EDGE >= 400  STOCK MAX 200
72
0
11
1235.261543
21
958.552128
31
0
73
0
0
TEXT
8
TEXT
10
1235.261543
20
936.552128
30
0
40
15
1
CLAMPS (SUGGESTION): UNICLAMP 130 x 130, CLEARANCE 20 FROM THE END CUTS, JAWS 40-98, PIECE THICKNESS 57
72
0
11
1235.261543
21
936.552128
31
0
73
0
0
TEXT
8
TEXT
10
1235.261543
20
914.552128
30
0
40
15
1
CUT CODES: J = JOINT FROM SQUARE  Q = SQUARE (SPRINGING FACE ROUTED WITH THE CONTOUR)  A = APEX FROM SQUARE
72
0
11
1235.261543
21
914.552128
31
0
73
0
0
POLYLINE
8
PIECES
66
1
70
1
10
0
20
0
30
0
0
VERTEX
8
PIECES
10
568.775589
20
1309.052128
30
0
0
VERTEX
8
PIECES
10
86.60254
20
1309.052128
30
0
0
VERTEX
8
PIECES
10
0
20
1459.052128
30
0
0
VERTEX
8
PIECES
10
568.775589
20
1459.052128
30
0
0
SEQEND
8
PIECES
0
POLYLINE
8
CLAMPS
66
1
70
1
10
0
20
0
30
0
0
VERTEX
8
CLAMPS
10
115.829038
20
1319.052128
30
0
0
VERTEX
8
CLAMPS
10
245.829038
20
1319.052128
30
0
0
VERTEX
8
CLAMPS
10
245.829038
20
1449.052128
30
0
0
VERTEX
8
CLAMPS
10
115.829038
20
1449.052128
30
0
0
SEQEND
8
CLAMPS
0
POLYLINE
8
CLAMPS
66
1
70
1
10
0
20
0
30
0
0
VERTEX
8
CLAMPS
10
418.775589
20
1319.052128
30
0
0
VERTEX
8
CLAMPS
10
548.775589
20
1319.052128
30
0
0
VERTEX
8
CLAMPS
10
548.775589
20
1449.052128
30
0
0
VERTEX
8
CLAMPS
10
418.775589
20
1449.052128
30
0
0
SEQEND
8
CLAMPS
0
TEXT
8
TEXT
10
284.387794
20
1394.052128
30
0
40
15
1
C5 - FRAME HEAD P1 L568.8 x150
72
1
11
284.387794
21
1394.052128
31
0
73
2
0
TEXT
8
TEXT
10
284.387794
20
1319.052128
30
0
40
10
1
OUT 553.8 IN 467.2 CUT J30/Q FINGER ONE END
72
1
11
284.387794
21
1319.052128
31
0
73
2
0
POLYLINE
8
PIECES
66
1
70
1
10
0
20
0
30
0
0
VERTEX
8
PIECES
10
1309.724226
20
1309.052128
30
0
0
VERTEX
8
PIECES
10
855.378129
20
1309.052128
30
0
0
VERTEX
8
PIECES
10
768.775589
20
1459.052128
30
0
0
VERTEX
8
PIECES
10
1396.326766
20
1459.052128
30
0
0
SEQEND
8
PIECES
0
POLYLINE
8
CLAMPS
66
1
70
1
10
0
20
0
30
0
0
VERTEX
8
CLAMPS
10
884.604627
20
1319.052128
30
0
0
VERTEX
8
CLAMPS
10
1014.604627
20
1319.052128
30
0
0
VERTEX
8
CLAMPS
10
1014.604627
20
1449.052128
30
0
0
VERTEX
8
CLAMPS
10
884.604627
20
1449.052128
30
0
0
SEQEND
8
CLAMPS
0
POLYLINE
8
CLAMPS
66
1
70
1
10
0
20
0
30
0
0
VERTEX
8
CLAMPS
10
1150.497729
20
1319.052128
30
0
0
VERTEX
8
CLAMPS
10
1280.497729
20
1319.052128
30
0
0
VERTEX
8
CLAMPS
10
1280.497729
20
1449.052128
30
0
0
VERTEX
8
CLAMPS
10
1150.497729
20
1449.052128
30
0
0
SEQEND
8
CLAMPS
0
TEXT
8
TEXT
10
1082.551178
20
1394.052128
30
0
40
15
1
C5 - FRAME HEAD P2 L627.6 x150
72
1
11
1082.551178
21
1394.052128
31
0
73
2
0
TEXT
8
TEXT
10
1082.551178
20
1319.052128
30
0
40
10
1
OUT 597.6 IN 424.3 CUT J30/J30 FINGER BOTH ENDS
72
1
11
1082.551178
21
1319.052128
31
0
73
2
0
POLYLINE
8
PIECES
66
1
70
1
10
0
20
0
30
0
0
VERTEX
8
PIECES
10
2078.499815
20
1309.052128
30
0
0
VERTEX
8
PIECES
10
1596.326766
20
1309.052128
30
0
0
VERTEX
8
PIECES
10
1596.326766
20
1459.052128
30
0
0
VERTEX
8
PIECES
10
2165.102355
20
1459.052128
30
0
0
SEQEND
8
PIECES
0
POLYLINE
8
CLAMPS
66
1
70
1
10
0
20
0
30
0
0
VERTEX
8
CLAMPS
10
1616.326766
20
1319.052128
30
0
0
VERTEX
8
CLAMPS
10
1746.326766
20
1319.052128
30
0
0
VERTEX
8
CLAMPS
10
1746.326766
20
1449.052128
30
0
0
VERTEX
8
CLAMPS
10
1616.326766
20
1449.052128
30
0
0
SEQEND
8
CLAMPS
0
POLYLINE
8
CLAMPS
66
1
70
1
10
0
20
0
30
0
0
VERTEX
8
CLAMPS
10
1919.273318
20
1319.052128
30
0
0
VERTEX
8
CLAMPS
10
2049.273318
20
1319.052128
30
0
0
VERTEX
8
CLAMPS
10
2049.273318
20
1449.052128
30
0
0
VERTEX
8
CLAMPS
10
1919.273318
20
1449.052128
30
0
0
SEQEND
8
CLAMPS
0
TEXT
8
TEXT
10
1880.714561
20
1394.052128
30
0
40
15
1
C5 - FRAME HEAD P3 L568.8 x150
72
1
11
1880.714561
21
1394.052128
31
0
73
2
0
TEXT
8
TEXT
10
1880.714561
20
1319.052128
30
0
40
10
1
OUT 553.8 IN 467.2 CUT Q/J30 FINGER ONE END
72
1
11
1880.714561
21
1319.052128
31
0
73
2
0
POLYLINE
8
CONTOUR
66
1
70
1
10
0
20
0
30
0
0
VERTEX
8
CONTOUR
10
1075.663383
20
1696.141356
30
0
42
1
0
VERTEX
8
CONTOUR
10
75.663383
20
1696.141356
30
0
0
VERTEX
8
CONTOUR
10
132.663383
20
1696.141356
30
0
42
-1
0
VERTEX
8
CONTOUR
10
1018.663383
20
1696.141356
30
0
0
SEQEND
8
CONTOUR
0
POLYLINE
8
ASSEMBLY
66
1
70
1
10
0
20
0
30
0
0
VERTEX
8
ASSEMBLY
10
1021.422956
20
1659.052128
30
0
0
VERTEX
8
ASSEMBLY
10
787.836432
20
2063.635856
30
0
0
VERTEX
8
ASSEMBLY
10
874.438972
20
2213.635856
30
0
0
VERTEX
8
ASSEMBLY
10
1151.326766
20
1734.052128
30
0
0
SEQEND
8
ASSEMBLY
0
POLYLINE
8
FINGER
66
1
70
0
10
0
20
0
30
0
0
VERTEX
8
FINGER
10
797.163383
20
2079.79061
30
0
0
VERTEX
8
FINGER
10
825.663383
20
2129.154058
30
0
0
SEQEND
8
FINGER
0
POLYLINE
8
ASSEMBLY
66
1
70
1
10
0
20
0
30
0
0
VERTEX
8
ASSEMBLY
10
787.836432
20
2063.635856
30
0
0
VERTEX
8
ASSEMBLY
10
363.490335
20
2063.635856
30
0
0
VERTEX
8
ASSEMBLY
10
276.887794
20
2213.635856
30
0
0
VERTEX
8
ASSEMBLY
10
874.438972
20
2213.635856
30
0
0
SEQEND
8
ASSEMBLY
0
POLYLINE
8
FINGER
66
1
70
0
10
0
20
0
30
0
0
VERTEX
8
FINGER
10
354.163383
20
2079.79061
30
0
0
VERTEX
8
FINGER
10
325.663383
20
2129.154058
30
0
0
SEQEND
8
FINGER
0
POLYLINE
8
ASSEMBLY
66
1
70
1
10
0
20
0
30
0
0
VERTEX
8
ASSEMBLY
10
363.490335
20
2063.635856
30
0
0
VERTEX
8
ASSEMBLY
10
129.903811
20
1659.052128
30
0
0
VERTEX
8
ASSEMBLY
10
0
20
1734.052128
30
0
0
VERTEX
8
ASSEMBLY
10
276.887794
20
2213.635856
30
0
0
SEQEND
8
ASSEMBLY
0
TEXT
8
TEXT
10
1251.326766
20
2195.135856
30
0
40
15
1
C5 - FRAME HEAD
72
0
11
1251.326766
21
2195.135856
31
0
73
0
0
TEXT
8
TEXT
10
1251.326766
20
2173.135856
30
0
40
15
1
SEMI-CIRCLE W1000 RISE500 H1800 HINGE L
72
0
11
1251.326766
21
2173.135856
31
0
73
0
0
TEXT
8
TEXT
10
1251.326766
20
2151.135856
30
0
40
15
1
FACE 57 OFFSET 0 OUTER L1570.8 INNER L1391.7
72
0
11
1251.326766
21
2151.135856
31
0
73
0
0
TEXT
8
TEXT
10
1251.326766
20
2129.135856
30
0
40
15
1
CHAIN R500 L1570.8 180DEG: FEWEST 3 x board 150 L597.6 ROUGH 627.6 WASTE 57%
72
0
11
1251.326766
21
2129.135856
31
0
73
0
0
TEXT
8
TEXT
10
1251.326766
20
2107.135856
30
0
40
15
1
  NO ECONOMY ALT WITHIN 6 PIECES -> DEFAULT FEWEST
72
0
11
1251.326766
21
2107.135856
31
0
73
0
0
TEXT
8
TEXT
10
1251.326766
20
2085.135856
30
0
40
15
1
FINGER 15/16/3.8
72
0
11
1251.326766
21
2085.135856
31
0
73
0
0
TEXT
8
TEXT
10
1251.326766
20
2063.135856
30
0
40
15
1
ALLOWANCE 10 PER SIDE  LIMITS: OVERALL >= 450 (CLAMP)  SHORTER EDGE >= 400  STOCK MAX 200
72
0
11
1251.326766
21
2063.135856
31
0
73
0
0
TEXT
8
TEXT
10
1251.326766
20
2041.135856
30
0
40
15
1
CLAMPS (SUGGESTION): UNICLAMP 130 x 130, CLEARANCE 20 FROM THE END CUTS, JAWS 40-98, PIECE THICKNESS 93
72
0
11
1251.326766
21
2041.135856
31
0
73
0
0
TEXT
8
TEXT
10
1251.326766
20
2019.135856
30
0
40
15
1
CUT CODES: J = JOINT FROM SQUARE  Q = SQUARE (SPRINGING FACE ROUTED WITH THE CONTOUR)  A = APEX FROM SQUARE
72
0
11
1251.326766
21
2019.135856
31
0
73
0
0
POLYLINE
8
FIT
66
1
70
1
10
0
20
0
30
0
0
VERTEX
8
FIT
10
1000
20
2413.635856
30
0
42
1
0
VERTEX
8
FIT
10
0
20
2413.635856
30
0
0
VERTEX
8
FIT
10
57
20
2413.635856
30
0
42
-1
0
VERTEX
8
FIT
10
943
20
2413.635856
30
0
0
SEQEND
8
FIT
0
POLYLINE
8
FIT
66
1
70
1
10
0
20
0
30
0
0
VERTEX
8
FIT
10
960
20
2413.635856
30
0
42
1
0
VERTEX
8
FIT
10
40
20
2413.635856
30
0
0
VERTEX
8
FIT
10
107
20
2413.635856
30
0
42
-1
0
VERTEX
8
FIT
10
893
20
2413.635856
30
0
0
SEQEND
8
FIT
0
POLYLINE
8
FIT
66
1
70
1
10
0
20
0
30
0
0
VERTEX
8
FIT
10
905.5
20
2413.635856
30
0
42
1
0
VERTEX
8
FIT
10
94.5
20
2413.635856
30
0
0
SEQEND
8
FIT
0
POLYLINE
8
FIT
66
1
70
0
10
0
20
0
30
0
0
VERTEX
8
FIT
10
964
20
2413.635856
30
0
42
0.010776
0
VERTEX
8
FIT
10
963.569032
20
2433.629663
30
0
0
SEQEND
8
FIT
0
POLYLINE
8
FIT
66
1
70
0
10
0
20
0
30
0
0
VERTEX
8
FIT
10
963.03051
20
2443.614959
30
0
42
0.010776
0
VERTEX
8
FIT
10
961.30864
20
2463.539146
30
0
0
SEQEND
8
FIT
0
POLYLINE
8
FIT
66
1
70
0
10
0
20
0
30
0
0
VERTEX
8
FIT
10
960.126092
20
2473.468784
30
0
42
0.010776
0
VERTEX
8
FIT
10
957.120516
20
2493.240091
30
0
0
SEQEND
8
FIT
0
POLYLINE
8
FIT
66
1
70
0
10
0
20
0
30
0
0
VERTEX
8
FIT
10
955.298883
20
2503.072577
30
0
42
0.010776
0
VERTEX
8
FIT
10
951.022159
20
2522.608383
30
0
0
SEQEND
8
FIT
0
POLYLINE
8
FIT
66
1
70
0
10
0
20
0
30
0
0
VERTEX
8
FIT
10
948.569055
20
2532.302629
30
0
42
0.010776
0
VERTEX
8
FIT
10
943.039056
20
2551.521297
30
0
0
SEQEND
8
FIT
0
POLYLINE
8
FIT
66
1
70
0
10
0
20
0
30
0
0
VERTEX
8
FIT
10
939.96473
20
2561.036792
30
0
42
0.010776
0
VERTEX
8
FIT
10
933.204565
20
2579.85801
30
0
0
SEQEND
8
FIT
0
POLYLINE
8
FIT
66
1
70
0
10
0
20
0
30
0
0
VERTEX
8
FIT
10
929.521866
20
2589.154991
30
0
42
0.010776
0
VERTEX
8
FIT
10
921.559784
20
2607.500108
30
0
0
SEQEND
8
FIT
0
POLYLINE
8
FIT
66
1
70
0
10
0
20
0
30
0
0
VERTEX
8
FIT
10
917.2841
20
2616.539724
30
0
42
0.010776
0
VERTEX
8
FIT
10
908.153374
20
2634.33208
30
0
0
SEQEND
8
FIT
0
POLYLINE
8
FIT
66
1
70
0
10
0
20
0
30
0
0
VERTEX
8
FIT
10
903.302573
20
2643.076555
30
0
42
0.010776
0
VERTEX
8
FIT
10
893.041358
20
2660.241798
30
0
0
SEQEND
8
FIT
0
POLYLINE
8
FIT
66
1
70
0
10
0
20
0
30
0
0
VERTEX
8
FIT
10
887.635711
20
2668.654592
30
0
42
0.010776
0
VERTEX
8
FIT
10
876.286887
20
2685.120991
30
0
0
SEQEND
8
FIT
0
POLYLINE
8
FIT
66
1
70
0
10
0
20
0
30
0
0
VERTEX
8
FIT
10
870.348983
20
2693.166947
30
0
42
0.010776
0
VERTEX
8
FIT
10
857.959976
20
2708.865691
30
0
0
SEQEND
8
FIT
0
POLYLINE
8
FIT
66
1
70
0
10
0
20
0
30
0
0
VERTEX
8
FIT
10
851.514627
20
2716.511188
30
0
42
0.010776
0
VERTEX
8
FIT
10
838.137208
20
2731.376676
30
0
0
SEQEND
8
FIT
0
POLYLINE
8
FIT
66
1
70
0
10
0
20
0
30
0
0
VERTEX
8
FIT
10
831.21135
20
2738.589763
30
0
42
0.010776
0
VERTEX
8
FIT
10
816.901421
20
2752.559873
30
0
0
SEQEND
8
FIT
0
POLYLINE
8
FIT
66
1
70
0
10
0
20
0
30
0
0
VERTEX
8
FIT
10
809.523995
20
2759.310408
30
0
42
0.010776
0
VERTEX
8
FIT
10
794.341355
20
2772.326763
30
0
0
SEQEND
8
FIT
0
POLYLINE
8
FIT
66
1
70
0
10
0
20
0
30
0
0
VERTEX
8
FIT
10
786.543191
20
2778.586537
30
0
42
0.010776
0
VERTEX
8
FIT
10
770.551284
20
2790.594743
30
0
0
SEQEND
8
FIT
0
POLYLINE
8
FIT
66
1
70
0
10
0
20
0
30
0
0
VERTEX
8
FIT
10
762.364969
20
2796.337597
30
0
42
0.010776
0
VERTEX
8
FIT
10
745.630625
20
2807.287473
30
0
0
SEQEND
8
FIT
0
POLYLINE
8
FIT
66
1
70
0
10
0
20
0
30
0
0
VERTEX
8
FIT
10
737.090368
20
2812.48941
30
0
42
0.010776
0
VERTEX
8
FIT
10
719.683516
20
2822.335199
30
0
0
SEQEND
8
FIT
0
POLYLINE
8
FIT
66
1
70
0
10
0
20
0
30
0
0
VERTEX
8
FIT
10
710.825005
20
2826.974479
30
0
42
0.010776
0
VERTEX
8
FIT
10
692.818385
20
2835.675037
30
0
0
SEQEND
8
FIT
0
POLYLINE
8
FIT
66
1
70
0
10
0
20
0
30
0
0
VERTEX
8
FIT
10
683.678639
20
2839.732274
30
0
42
0.010776
0
VERTEX
8
FIT
10
665.147498
20
2847.251243
30
0
0
SEQEND
8
FIT
0
POLYLINE
8
FIT
66
1
70
0
10
0
20
0
30
0
0
VERTEX
8
FIT
10
655.76471
20
2850.709482
30
0
42
0.010776
0
VERTEX
8
FIT
10
636.786487
20
2857.015441
30
0
0
SEQEND
8
FIT
0
POLYLINE
8
FIT
66
1
70
0
10
0
20
0
30
0
0
VERTEX
8
FIT
10
627.199867
20
2859.860232
30
0
42
0.010776
0
VERTEX
8
FIT
10
607.853868
20
2864.92683
30
0
0
SEQEND
8
FIT
0
POLYLINE
8
FIT
66
1
70
0
10
0
20
0
30
0
0
VERTEX
8
FIT
10
598.103475
20
2867.146284
30
0
42
0.010776
0
VERTEX
8
FIT
10
578.470545
20
2870.952348
30
0
0
SEQEND
8
FIT
0
POLYLINE
8
FIT
66
1
70
0
10
0
20
0
30
0
0
VERTEX
8
FIT
10
568.597126
20
2872.53719
30
0
42
0.010776
0
VERTEX
8
FIT
10
548.759307
20
2875.066815
30
0
0
SEQEND
8
FIT
0
POLYLINE
8
FIT
66
1
70
0
10
0
20
0
30
0
0
VERTEX
8
FIT
10
538.804121
20
2876.010423
30
0
42
0.010776
0
VERTEX
8
FIT
10
518.844311
20
2877.253038
30
0
0
SEQEND
8
FIT
0
POLYLINE
8
FIT
66
1
70
0
10
0
20
0
30
0
0
VERTEX
8
FIT
10
508.848959
20
2877.551469
30
0
42
0.010776
0
VERTEX
8
FIT
10
488.850569
20
2877.501882
30
0
0
SEQEND
8
FIT
0
POLYLINE
8
FIT
66
1
70
0
10
0
20
0
30
0
0
VERTEX
8
FIT
10
478.856819
20
2877.153888
30
0
42
0.010776
0
VERTEX
8
FIT
10
458.903418
20
2875.812306
30
0
0
SEQEND
8
FIT
0
POLYLINE
8
FIT
66
1
70
0
10
0
20
0
30
0
0
VERTEX
8
FIT
10
448.953033
20
2874.819341
30
0
42
0.010776
0
VERTEX
8
FIT
10
429.128003
20
2872.19137
30
0
0
SEQEND
8
FIT
0
POLYLINE
8
FIT
66
1
70
0
10
0
20
0
30
0
0
VERTEX
8
FIT
10
419.262564
20
2870.557585
30
0
42
0.010776
0
VERTEX
8
FIT
10
399.64875
20
2866.654207
30
0
0
SEQEND
8
FIT
0
POLYLINE
8
FIT
66
1
70
0
10
0
20
0
30
0
0
VERTEX
8
FIT
10
389.909484
20
2864.386428
30
0
42
0.010776
0
VERTEX
8
FIT
10
370.588848
20
2859.223955
30
0
0
SEQEND
8
FIT
0
POLYLINE
8
FIT
66
1
70
0
10
0
20
0
30
0
0
VERTEX
8
FIT
10
361.016453
20
2856.331659
30
0
42
0.010776
0
VERTEX
8
FIT
10
342.069735
20
2849.931663
30
0
0
SEQEND
8
FIT
0
POLYLINE
8
FIT
66
1
70
0
10
0
20
0
30
0
0
VERTEX
8
FIT
10
332.704212
20
2846.426936
30
0
42
0.010776
0
VERTEX
8
FIT
10
314.210586
20
2838.816163
30
0
0
SEQEND
8
FIT
0
POLYLINE
8
FIT
66
1
70
0
10
0
20
0
30
0
0
VERTEX
8
FIT
10
305.091072
20
2834.713651
30
0
42
0.010776
0
VERTEX
8
FIT
10
287.12782
20
2825.923905
30
0
0
SEQEND
8
FIT
0
POLYLINE
8
FIT
66
1
70
0
10
0
20
0
30
0
0
VERTEX
8
FIT
10
278.292425
20
2821.240752
30
0
42
0.010776
0
VERTEX
8
FIT
10
260.934612
20
2811.308762
30
0
0
SEQEND
8
FIT
0
POLYLINE
8
FIT
66
1
70
0
10
0
20
0
30
0
0
VERTEX
8
FIT
10
252.420257
20
2806.064538
30
0
42
0.010776
0
VERTEX
8
FIT
10
235.74042
20
2795.03181
30
0
0
SEQEND
8
FIT
0
POLYLINE
8
FIT
66
1
70
0
10
0
20
0
30
0
0
VERTEX
8
FIT
10
227.582684
20
2789.24843
30
0
42
0.010776
0
VERTEX
8
FIT
10
211.650524
20
2777.161068
30
0
0
SEQEND
8
FIT
0
POLYLINE
8
FIT
66
1
70
0
10
0
20
0
30
0
0
VERTEX
8
FIT
10
203.883498
20
2770.862699
30
0
42
0.010776
0
VERTEX
8
FIT
10
188.765593
20
2757.771213
30
0
0
SEQEND
8
FIT
0
POLYLINE
8
FIT
66
1
70
0
10
0
20
0
30
0
0
VERTEX
8
FIT
10
181.421735
20
2750.984176
30
0
42
0.010776
0
VERTEX
8
FIT
10
167.18126
20
2736.943273
30
0
0
SEQEND
8
FIT
0
POLYLINE
8
FIT
66
1
70
0
10
0
20
0
30
0
0
VERTEX
8
FIT
10
160.291257
20
2729.695929
30
0
42
0.010776
0
VERTEX
8
FIT
10
146.987721
20
2714.764285
30
0
0
SEQEND
8
FIT
0
POLYLINE
8
FIT
66
1
70
0
10
0
20
0
30
0
0
VERTEX
8
FIT
10
140.580366
20
2707.08692
30
0
42
0.010776
0
VERTEX
8
FIT
10
128.269362
20
2691.326931
30
0
0
SEQEND
8
FIT
0
POLYLINE
8
FIT
66
1
70
0
10
0
20
0
30
0
0
VERTEX
8
FIT
10
122.371431
20
2683.251627
30
0
42
0.010776
0
VERTEX
8
FIT
10
111.104405
20
2666.729151
30
0
0
SEQEND
8
FIT
0
POLYLINE
8
FIT
66
1
70
0
10
0
20
0
30
0
0
VERTEX
8
FIT
10
105.740543
20
2658.289654
30
0
42
0.010776
0
VERTEX
8
FIT
10
95.564578
20
2641.073736
30
0
0
SEQEND
8
FIT
0
POLYLINE
8
FIT
66
1
70
0
10
0
20
0
30
0
0
VERTEX
8
FIT
10
90.757201
20
2632.305313
30
0
42
0.010776
0
VERTEX
8
FIT
10
81.71482
20
2614.467896
30
0
0
SEQEND
8
FIT
0
POLYLINE
8
FIT
66
1
70
0
10
0
20
0
30
0
0
VERTEX
8
FIT
10
77.484017
20
2605.407188
30
0
42
0.010776
0
VERTEX
8
FIT
10
69.613007
20
2587.022812
30
0
0
SEQEND
8
FIT
0
POLYLINE
8
FIT
66
1
70
0
10
0
20
0
30
0
0
VERTEX
8
FIT
10
65.976457
20
2577.707683
30
0
42
0.010776
0
VERTEX
8
FIT
10
59.309711
20
2558.853172
30
0
0
SEQEND
8
FIT
0
POLYLINE
8
FIT
66
1
70
0
10
0
20
0
30
0
0
VERTEX
8
FIT
10
56.282611
20
2549.322548
30
0
42
0.010776
0
VERTEX
8
FIT
10
50.847986
20
2530.076693
30
0
0
SEQEND
8
FIT
0
POLYLINE
8
FIT
66
1
70
0
10
0
20
0
30
0
0
VERTEX
8
FIT
10
48.442986
20
2520.370402
30
0
42
0.010776
0
VERTEX
8
FIT
10
44.263194
20
2500.813627
30
0
0
SEQEND
8
FIT
0
POLYLINE
8
FIT
66
1
70
0
10
0
20
0
30
0
0
VERTEX
8
FIT
10
42.490344
20
2490.972229
30
0
42
0.010776
0
VERTEX
8
FIT
10
39.582851
20
2471.18626
30
0
0
SEQEND
8
FIT
0
POLYLINE
8
FIT
66
1
70
0
10
0
20
0
30
0
0
VERTEX
8
FIT
10
38.449559
20
2461.25088
30
0
42
0.010776
0
VERTEX
8
FIT
10
36.826515
20
2441.318399
30
0
0
SEQEND
8
FIT
0
POLYLINE
8
FIT
66
1
70
0
10
0
20
0
30
0
0
VERTEX
8
FIT
10
36.337518
20
2431.330555
30
0
42
0.009536
0
VERTEX
8
FIT
10
36
20
2413.635856
30
0
0
SEQEND
8
FIT
0
TEXT
8
TEXT
10
1100
20
2859.051469
30
0
40
15
1
C5 - FIT (ASSEMBLY, NOT A TOOLPATH)
72
0
11
1100
21
2859.051469
31
0
73
0
0
TEXT
8
TEXT
10
1100
20
2837.051469
30
0
40
15
1
GAP 4 LAP 17 (REBATE)
72
0
11
1100
21
2837.051469
31
0
73
0
0
TEXT
8
TEXT
10
1100
20
2815.051469
30
0
40
15
1
FRAME R500 / 443  REBATE WALL R464 (LAND 36, DASHED)
72
0
11
1100
21
2815.051469
31
0
73
0
0
TEXT
8
TEXT
10
1100
20
2793.051469
30
0
40
15
1
LEAF R460 / 393  GLASS R405.5
72
0
11
1100
21
2793.051469
31
0
73
0
0
ENDSEC
0
EOF
