0
SECTION
2
HEADER
9
$ACADVER
1
AC1009
0
ENDSEC
0
SECTION
2
TABLES
0
TABLE
2
LAYER
70
9
0
LAYER
2
0
70
0
62
7
6
CONTINUOUS
0
LAYER
2
ARKA_OUTLINE
70
0
62
7
6
CONTINUOUS
0
LAYER
2
ARKA_PANE
70
0
62
3
6
CONTINUOUS
0
LAYER
2
ARKA_FRONT_HINGES_3MM
70
0
62
50
6
CONTINUOUS
0
LAYER
2
ARKA_MITRE
70
0
62
1
6
CONTINUOUS
0
LAYER
2
ARKA_SECTION
70
0
62
5
6
CONTINUOUS
0
LAYER
2
ARKA_PANE_ZEWN_REF
70
0
62
3
6
CONTINUOUS
0
LAYER
2
ARKA_CENTRE
70
0
62
6
6
CONTINUOUS
0
LAYER
2
ARKA_INFO_NO_CUT
70
0
62
8
6
CONTINUOUS
0
ENDTAB
0
ENDSEC
0
SECTION
2
ENTITIES
0
POLYLINE
8
ARKA_OUTLINE
66
1
70
1
10
0
20
0
30
0
0
VERTEX
8
ARKA_OUTLINE
10
12.5
20
12.5
30
0
0
VERTEX
8
ARKA_OUTLINE
10
798.5
20
12.5
30
0
0
VERTEX
8
ARKA_OUTLINE
10
798.5
20
1032.474585
30
0
42
0.249098
0
VERTEX
8
ARKA_OUTLINE
10
405.5
20
1772.372562
30
0
42
0.249098
0
VERTEX
8
ARKA_OUTLINE
10
12.5
20
1032.474596
30
0
0
SEQEND
8
ARKA_OUTLINE
0
POLYLINE
8
ARKA_PANE_ZEWN_REF
66
1
70
1
10
0
20
0
30
0
0
VERTEX
8
ARKA_PANE_ZEWN_REF
10
14.5
20
14.5
30
0
0
VERTEX
8
ARKA_PANE_ZEWN_REF
10
796.5
20
14.5
30
0
0
VERTEX
8
ARKA_PANE_ZEWN_REF
10
796.5
20
1032.474585
30
0
42
0.248695
0
VERTEX
8
ARKA_PANE_ZEWN_REF
10
405.5
20
1769.957477
30
0
42
0.248695
0
VERTEX
8
ARKA_PANE_ZEWN_REF
10
14.5
20
1032.474596
30
0
0
SEQEND
8
ARKA_PANE_ZEWN_REF
0
POLYLINE
8
ARKA_OUTLINE
66
1
70
1
10
0
20
0
30
0
0
VERTEX
8
ARKA_OUTLINE
10
30.5
20
30.5
30
0
0
VERTEX
8
ARKA_OUTLINE
10
259.333333
20
30.5
30
0
0
VERTEX
8
ARKA_OUTLINE
10
259.333333
20
505.237298
30
0
0
VERTEX
8
ARKA_OUTLINE
10
30.5
20
505.237298
30
0
0
SEQEND
8
ARKA_OUTLINE
0
POLYLINE
8
ARKA_PANE
66
1
70
1
10
0
20
0
30
0
0
VERTEX
8
ARKA_PANE
10
28.5
20
28.5
30
0
0
VERTEX
8
ARKA_PANE
10
261.333333
20
28.5
30
0
0
VERTEX
8
ARKA_PANE
10
261.333333
20
507.237298
30
0
0
VERTEX
8
ARKA_PANE
10
28.5
20
507.237298
30
0
0
SEQEND
8
ARKA_PANE
0
POLYLINE
8
ARKA_FRONT_HINGES_3MM
66
1
70
1
10
0
20
0
30
0
0
VERTEX
8
ARKA_FRONT_HINGES_3MM
10
20.5
20
20.5
30
0
0
VERTEX
8
ARKA_FRONT_HINGES_3MM
10
269.333333
20
20.5
30
0
0
VERTEX
8
ARKA_FRONT_HINGES_3MM
10
269.333333
20
515.237298
30
0
0
VERTEX
8
ARKA_FRONT_HINGES_3MM
10
20.5
20
515.237298
30
0
0
SEQEND
8
ARKA_FRONT_HINGES_3MM
0
POLYLINE
8
ARKA_OUTLINE
66
1
70
1
10
0
20
0
30
0
0
VERTEX
8
ARKA_OUTLINE
10
281.333333
20
30.5
30
0
0
VERTEX
8
ARKA_OUTLINE
10
529.666667
20
30.5
30
0
0
VERTEX
8
ARKA_OUTLINE
10
529.666667
20
505.237298
30
0
0
VERTEX
8
ARKA_OUTLINE
10
281.333333
20
505.237298
30
0
0
SEQEND
8
ARKA_OUTLINE
0
POLYLINE
8
ARKA_PANE
66
1
70
1
10
0
20
0
30
0
0
VERTEX
8
ARKA_PANE
10
279.333333
20
28.5
30
0
0
VERTEX
8
ARKA_PANE
10
531.666667
20
28.5
30
0
0
VERTEX
8
ARKA_PANE
10
531.666667
20
507.237298
30
0
0
VERTEX
8
ARKA_PANE
10
279.333333
20
507.237298
30
0
0
SEQEND
8
ARKA_PANE
0
POLYLINE
8
ARKA_FRONT_HINGES_3MM
66
1
70
1
10
0
20
0
30
0
0
VERTEX
8
ARKA_FRONT_HINGES_3MM
10
271.333333
20
20.5
30
0
0
VERTEX
8
ARKA_FRONT_HINGES_3MM
10
539.666667
20
20.5
30
0
0
VERTEX
8
ARKA_FRONT_HINGES_3MM
10
539.666667
20
515.237298
30
0
0
VERTEX
8
ARKA_FRONT_HINGES_3MM
10
271.333333
20
515.237298
30
0
0
SEQEND
8
ARKA_FRONT_HINGES_3MM
0
POLYLINE
8
ARKA_OUTLINE
66
1
70
1
10
0
20
0
30
0
0
VERTEX
8
ARKA_OUTLINE
10
551.666667
20
30.5
30
0
0
VERTEX
8
ARKA_OUTLINE
10
780.5
20
30.5
30
0
0
VERTEX
8
ARKA_OUTLINE
10
780.5
20
505.237298
30
0
0
VERTEX
8
ARKA_OUTLINE
10
551.666667
20
505.237298
30
0
0
SEQEND
8
ARKA_OUTLINE
0
POLYLINE
8
ARKA_PANE
66
1
70
1
10
0
20
0
30
0
0
VERTEX
8
ARKA_PANE
10
549.666667
20
28.5
30
0
0
VERTEX
8
ARKA_PANE
10
782.5
20
28.5
30
0
0
VERTEX
8
ARKA_PANE
10
782.5
20
507.237298
30
0
0
VERTEX
8
ARKA_PANE
10
549.666667
20
507.237298
30
0
0
SEQEND
8
ARKA_PANE
0
POLYLINE
8
ARKA_FRONT_HINGES_3MM
66
1
70
1
10
0
20
0
30
0
0
VERTEX
8
ARKA_FRONT_HINGES_3MM
10
541.666667
20
20.5
30
0
0
VERTEX
8
ARKA_FRONT_HINGES_3MM
10
790.5
20
20.5
30
0
0
VERTEX
8
ARKA_FRONT_HINGES_3MM
10
790.5
20
515.237298
30
0
0
VERTEX
8
ARKA_FRONT_HINGES_3MM
10
541.666667
20
515.237298
30
0
0
SEQEND
8
ARKA_FRONT_HINGES_3MM
0
POLYLINE
8
ARKA_OUTLINE
66
1
70
1
10
0
20
0
30
0
0
VERTEX
8
ARKA_OUTLINE
10
780.5
20
527.237298
30
0
0
VERTEX
8
ARKA_OUTLINE
10
780.5
20
1032.474596
30
0
42
0.089172
0
VERTEX
8
ARKA_OUTLINE
10
725.713486
20
1337.228328
30
0
42
0.265434
0
VERTEX
8
ARKA_OUTLINE
10
551.666667
20
1032.474596
30
0
0
VERTEX
8
ARKA_OUTLINE
10
529.666667
20
516.237298
30
0
0
VERTEX
8
ARKA_OUTLINE
10
529.666667
20
1530.805142
30
0
42
0.061674
0
VERTEX
8
ARKA_OUTLINE
10
419.473667
20
1424.089753
30
0
42
-0.123958
0
VERTEX
8
ARKA_OUTLINE
10
543.640333
20
1134.004277
30
0
42
-0.195945
0
VERTEX
8
ARKA_OUTLINE
10
717.687153
20
1358.015729
30
0
42
0.071313
0
VERTEX
8
ARKA_OUTLINE
10
593.520486
20
1573.078713
30
0
42
0.019832
0
VERTEX
8
ARKA_OUTLINE
10
551.666667
20
1546.659388
30
0
0
VERTEX
8
ARKA_OUTLINE
10
551.666667
20
527.237298
30
0
0
SEQEND
8
ARKA_OUTLINE
0
POLYLINE
8
ARKA_PANE
66
1
70
1
10
0
20
0
30
0
0
VERTEX
8
ARKA_PANE
10
782.5
20
525.237298
30
0
0
VERTEX
8
ARKA_PANE
10
782.5
20
1032.474596
30
0
42
0.089856
0
VERTEX
8
ARKA_PANE
10
726.755819
20
1340.156053
30
0
42
0.267229
0
VERTEX
8
ARKA_PANE
10
549.666667
20
1032.474596
30
0
0
VERTEX
8
ARKA_PANE
10
531.666667
20
516.237298
30
0
0
VERTEX
8
ARKA_PANE
10
531.666667
20
1534.80251
30
0
42
0.063908
0
VERTEX
8
ARKA_PANE
10
416.933
20
1424.121096
30
0
42
-0.128351
0
VERTEX
8
ARKA_PANE
10
543.099667
20
1124.220765
30
0
42
-0.203803
0
VERTEX
8
ARKA_PANE
10
720.188819
20
1357.145395
30
0
42
0.072307
0
VERTEX
8
ARKA_PANE
10
594.022153
20
1575.674601
30
0
42
0.020944
0
VERTEX
8
ARKA_PANE
10
549.666667
20
1547.709818
30
0
0
VERTEX
8
ARKA_PANE
10
549.666667
20
525.237298
30
0
0
SEQEND
8
ARKA_PANE
0
POLYLINE
8
ARKA_FRONT_HINGES_3MM
66
1
70
1
10
0
20
0
30
0
0
VERTEX
8
ARKA_FRONT_HINGES_3MM
10
790.5
20
517.237298
30
0
0
VERTEX
8
ARKA_FRONT_HINGES_3MM
10
790.5
20
1032.474596
30
0
42
0.092516
0
VERTEX
8
ARKA_FRONT_HINGES_3MM
10
730.925153
20
1351.689754
30
0
42
0.274161
0
VERTEX
8
ARKA_FRONT_HINGES_3MM
10
541.666667
20
1032.474596
30
0
0
VERTEX
8
ARKA_FRONT_HINGES_3MM
10
539.666667
20
516.237298
30
0
0
VERTEX
8
ARKA_FRONT_HINGES_3MM
10
539.666667
20
1550.483605
30
0
42
0.072657
0
VERTEX
8
ARKA_FRONT_HINGES_3MM
10
406.770333
20
1424.183775
30
0
42
-0.15508
0
VERTEX
8
ARKA_FRONT_HINGES_3MM
10
540.937
20
1062.935174
30
0
42
-0.25207
0
VERTEX
8
ARKA_FRONT_HINGES_3MM
10
730.195486
20
1353.570151
30
0
42
0.076254
0
VERTEX
8
ARKA_FRONT_HINGES_3MM
10
596.028819
20
1586.004134
30
0
42
0.025317
0
VERTEX
8
ARKA_FRONT_HINGES_3MM
10
541.666667
20
1551.890294
30
0
0
VERTEX
8
ARKA_FRONT_HINGES_3MM
10
541.666667
20
517.237298
30
0
0
SEQEND
8
ARKA_FRONT_HINGES_3MM
0
POLYLINE
8
ARKA_OUTLINE
66
1
70
1
10
0
20
0
30
0
0
VERTEX
8
ARKA_OUTLINE
10
579.546819
20
1590.404596
30
0
42
0.012142
0
VERTEX
8
ARKA_OUTLINE
10
551.666667
20
1622.469205
30
0
0
VERTEX
8
ARKA_OUTLINE
10
551.666667
20
1573.153182
30
0
42
-0.012687
0
SEQEND
8
ARKA_OUTLINE
0
POLYLINE
8
ARKA_PANE
66
1
70
1
10
0
20
0
30
0
0
VERTEX
8
ARKA_PANE
10
582.589153
20
1589.860709
30
0
42
0.01428
0
VERTEX
8
ARKA_PANE
10
549.666667
20
1627.60341
30
0
0
VERTEX
8
ARKA_PANE
10
549.666667
20
1569.441386
30
0
42
-0.015039
0
SEQEND
8
ARKA_PANE
0
POLYLINE
8
ARKA_FRONT_HINGES_3MM
66
1
70
1
10
0
20
0
30
0
0
VERTEX
8
ARKA_FRONT_HINGES_3MM
10
594.758486
20
1587.585161
30
0
42
0.02267
0
VERTEX
8
ARKA_FRONT_HINGES_3MM
10
541.666667
20
1647.711926
30
0
0
VERTEX
8
ARKA_FRONT_HINGES_3MM
10
541.666667
20
1554.33026
30
0
42
-0.024634
0
SEQEND
8
ARKA_FRONT_HINGES_3MM
0
POLYLINE
8
ARKA_OUTLINE
66
1
70
1
10
0
20
0
30
0
0
VERTEX
8
ARKA_OUTLINE
10
529.666667
20
1645.696393
30
0
42
0.046533
0
VERTEX
8
ARKA_OUTLINE
10
405.5
20
1750.544927
30
0
42
0.046533
0
VERTEX
8
ARKA_OUTLINE
10
281.333333
20
1645.696393
30
0
0
VERTEX
8
ARKA_OUTLINE
10
281.333333
20
1558.09867
30
0
42
-0.066114
0
VERTEX
8
ARKA_OUTLINE
10
405.5
20
1441.780547
30
0
42
-0.066114
0
VERTEX
8
ARKA_OUTLINE
10
529.666667
20
1558.09867
30
0
0
SEQEND
8
ARKA_OUTLINE
0
POLYLINE
8
ARKA_PANE
66
1
70
1
10
0
20
0
30
0
0
VERTEX
8
ARKA_PANE
10
531.666667
20
1646.513932
30
0
42
0.047164
0
VERTEX
8
ARKA_PANE
10
405.5
20
1752.980668
30
0
42
0.047164
0
VERTEX
8
ARKA_PANE
10
279.333333
20
1646.513932
30
0
0
VERTEX
8
ARKA_PANE
10
279.333333
20
1557.069043
30
0
42
-0.067469
0
VERTEX
8
ARKA_PANE
10
405.5
20
1438.615821
30
0
42
-0.067469
0
VERTEX
8
ARKA_PANE
10
531.666667
20
1557.069043
30
0
0
SEQEND
8
ARKA_PANE
0
POLYLINE
8
ARKA_FRONT_HINGES_3MM
66
1
70
1
10
0
20
0
30
0
0
VERTEX
8
ARKA_FRONT_HINGES_3MM
10
539.666667
20
1649.773259
30
0
42
0.04966
0
VERTEX
8
ARKA_FRONT_HINGES_3MM
10
405.5
20
1762.697165
30
0
42
0.04966
0
VERTEX
8
ARKA_FRONT_HINGES_3MM
10
271.333333
20
1649.773259
30
0
0
VERTEX
8
ARKA_FRONT_HINGES_3MM
10
271.333333
20
1552.930166
30
0
42
-0.073021
0
VERTEX
8
ARKA_FRONT_HINGES_3MM
10
405.5
20
1425.80401
30
0
42
-0.073021
0
VERTEX
8
ARKA_FRONT_HINGES_3MM
10
539.666667
20
1552.930166
30
0
0
SEQEND
8
ARKA_FRONT_HINGES_3MM
0
POLYLINE
8
ARKA_OUTLINE
66
1
70
1
10
0
20
0
30
0
0
VERTEX
8
ARKA_OUTLINE
10
259.333333
20
1622.469205
30
0
42
0.012142
0
VERTEX
8
ARKA_OUTLINE
10
231.453181
20
1590.404596
30
0
42
-0.012687
0
VERTEX
8
ARKA_OUTLINE
10
259.333333
20
1573.153182
30
0
0
SEQEND
8
ARKA_OUTLINE
0
POLYLINE
8
ARKA_PANE
66
1
70
1
10
0
20
0
30
0
0
VERTEX
8
ARKA_PANE
10
261.333333
20
1627.60341
30
0
42
0.01428
0
VERTEX
8
ARKA_PANE
10
228.410847
20
1589.860709
30
0
42
-0.015039
0
VERTEX
8
ARKA_PANE
10
261.333333
20
1569.441386
30
0
0
SEQEND
8
ARKA_PANE
0
POLYLINE
8
ARKA_FRONT_HINGES_3MM
66
1
70
1
10
0
20
0
30
0
0
VERTEX
8
ARKA_FRONT_HINGES_3MM
10
269.333333
20
1647.711926
30
0
42
0.02267
0
VERTEX
8
ARKA_FRONT_HINGES_3MM
10
216.241514
20
1587.585161
30
0
42
-0.024634
0
VERTEX
8
ARKA_FRONT_HINGES_3MM
10
269.333333
20
1554.33026
30
0
0
SEQEND
8
ARKA_FRONT_HINGES_3MM
0
POLYLINE
8
ARKA_OUTLINE
66
1
70
1
10
0
20
0
30
0
0
VERTEX
8
ARKA_OUTLINE
10
217.479514
20
1573.078713
30
0
42
0.071313
0
VERTEX
8
ARKA_OUTLINE
10
93.312847
20
1358.015729
30
0
42
-0.195945
0
VERTEX
8
ARKA_OUTLINE
10
267.359667
20
1134.004277
30
0
42
-0.123958
0
VERTEX
8
ARKA_OUTLINE
10
391.526333
20
1424.089753
30
0
42
0.061674
0
VERTEX
8
ARKA_OUTLINE
10
281.333333
20
1530.805142
30
0
0
VERTEX
8
ARKA_OUTLINE
10
281.333333
20
527.237298
30
0
0
VERTEX
8
ARKA_OUTLINE
10
529.666667
20
527.237298
30
0
0
VERTEX
8
ARKA_OUTLINE
10
529.666667
20
1032.474596
30
0
42
0.16182
0
VERTEX
8
ARKA_OUTLINE
10
405.5
20
1406.084055
30
0
42
0.16182
0
VERTEX
8
ARKA_OUTLINE
10
281.333333
20
1032.474596
30
0
0
VERTEX
8
ARKA_OUTLINE
10
259.333333
20
516.237298
30
0
0
VERTEX
8
ARKA_OUTLINE
10
259.333333
20
1546.659388
30
0
42
0.019832
0
SEQEND
8
ARKA_OUTLINE
0
POLYLINE
8
ARKA_PANE
66
1
70
1
10
0
20
0
30
0
0
VERTEX
8
ARKA_PANE
10
216.977847
20
1575.674601
30
0
42
0.072307
0
VERTEX
8
ARKA_PANE
10
90.811181
20
1357.145395
30
0
42
-0.203803
0
VERTEX
8
ARKA_PANE
10
267.900333
20
1124.220765
30
0
42
-0.128351
0
VERTEX
8
ARKA_PANE
10
394.067
20
1424.121096
30
0
42
0.063908
0
VERTEX
8
ARKA_PANE
10
279.333333
20
1534.80251
30
0
0
VERTEX
8
ARKA_PANE
10
279.333333
20
525.237298
30
0
0
VERTEX
8
ARKA_PANE
10
531.666667
20
525.237298
30
0
0
VERTEX
8
ARKA_PANE
10
531.666667
20
1032.474596
30
0
42
0.162914
0
VERTEX
8
ARKA_PANE
10
405.5
20
1409.415831
30
0
42
0.162914
0
VERTEX
8
ARKA_PANE
10
279.333333
20
1032.474596
30
0
0
VERTEX
8
ARKA_PANE
10
261.333333
20
516.237298
30
0
0
VERTEX
8
ARKA_PANE
10
261.333333
20
1547.709818
30
0
42
0.020944
0
SEQEND
8
ARKA_PANE
0
POLYLINE
8
ARKA_FRONT_HINGES_3MM
66
1
70
1
10
0
20
0
30
0
0
VERTEX
8
ARKA_FRONT_HINGES_3MM
10
214.971181
20
1586.004134
30
0
42
0.076254
0
VERTEX
8
ARKA_FRONT_HINGES_3MM
10
80.804514
20
1353.570151
30
0
42
-0.25207
0
VERTEX
8
ARKA_FRONT_HINGES_3MM
10
270.063
20
1062.935174
30
0
42
-0.15508
0
VERTEX
8
ARKA_FRONT_HINGES_3MM
10
404.229667
20
1424.183775
30
0
42
0.072657
0
VERTEX
8
ARKA_FRONT_HINGES_3MM
10
271.333333
20
1550.483605
30
0
0
VERTEX
8
ARKA_FRONT_HINGES_3MM
10
271.333333
20
517.237298
30
0
0
VERTEX
8
ARKA_FRONT_HINGES_3MM
10
539.666667
20
517.237298
30
0
0
VERTEX
8
ARKA_FRONT_HINGES_3MM
10
539.666667
20
1032.474589
30
0
42
0.167165
0
VERTEX
8
ARKA_FRONT_HINGES_3MM
10
405.5
20
1422.560947
30
0
42
0.167165
0
VERTEX
8
ARKA_FRONT_HINGES_3MM
10
271.333333
20
1032.474596
30
0
0
VERTEX
8
ARKA_FRONT_HINGES_3MM
10
269.333333
20
516.237298
30
0
0
VERTEX
8
ARKA_FRONT_HINGES_3MM
10
269.333333
20
1551.890294
30
0
42
0.025317
0
SEQEND
8
ARKA_FRONT_HINGES_3MM
0
POLYLINE
8
ARKA_OUTLINE
66
1
70
1
10
0
20
0
30
0
0
VERTEX
8
ARKA_OUTLINE
10
85.286514
20
1337.228328
30
0
42
0.089172
0
VERTEX
8
ARKA_OUTLINE
10
30.5
20
1032.474596
30
0
0
VERTEX
8
ARKA_OUTLINE
10
30.5
20
527.237298
30
0
0
VERTEX
8
ARKA_OUTLINE
10
259.333333
20
527.237298
30
0
0
VERTEX
8
ARKA_OUTLINE
10
259.333333
20
1032.474596
30
0
42
0.265434
0
SEQEND
8
ARKA_OUTLINE
0
POLYLINE
8
ARKA_PANE
66
1
70
1
10
0
20
0
30
0
0
VERTEX
8
ARKA_PANE
10
84.244181
20
1340.156053
30
0
42
0.089856
0
VERTEX
8
ARKA_PANE
10
28.5
20
1032.474596
30
0
0
VERTEX
8
ARKA_PANE
10
28.5
20
525.237298
30
0
0
VERTEX
8
ARKA_PANE
10
261.333333
20
525.237298
30
0
0
VERTEX
8
ARKA_PANE
10
261.333333
20
1032.474596
30
0
42
0.267229
0
SEQEND
8
ARKA_PANE
0
POLYLINE
8
ARKA_FRONT_HINGES_3MM
66
1
70
1
10
0
20
0
30
0
0
VERTEX
8
ARKA_FRONT_HINGES_3MM
10
80.074847
20
1351.689754
30
0
42
0.092516
0
VERTEX
8
ARKA_FRONT_HINGES_3MM
10
20.5
20
1032.474596
30
0
0
VERTEX
8
ARKA_FRONT_HINGES_3MM
10
20.5
20
517.237298
30
0
0
VERTEX
8
ARKA_FRONT_HINGES_3MM
10
269.333333
20
517.237298
30
0
0
VERTEX
8
ARKA_FRONT_HINGES_3MM
10
269.333333
20
1032.474596
30
0
42
0.274161
0
SEQEND
8
ARKA_FRONT_HINGES_3MM
0
POLYLINE
8
ARKA_MITRE
66
1
70
0
10
0
20
0
30
0
0
VERTEX
8
ARKA_MITRE
10
20.5
20
35.5
30
0
0
VERTEX
8
ARKA_MITRE
10
20.5
20
20.5
30
0
0
VERTEX
8
ARKA_MITRE
10
35.5
20
20.5
30
0
0
SEQEND
8
ARKA_MITRE
0
POLYLINE
8
ARKA_MITRE
66
1
70
0
10
0
20
0
30
0
0
VERTEX
8
ARKA_MITRE
10
254.333333
20
20.5
30
0
0
VERTEX
8
ARKA_MITRE
10
269.333333
20
20.5
30
0
0
VERTEX
8
ARKA_MITRE
10
269.333333
20
35.5
30
0
0
SEQEND
8
ARKA_MITRE
0
POLYLINE
8
ARKA_MITRE
66
1
70
0
10
0
20
0
30
0
0
VERTEX
8
ARKA_MITRE
10
269.333333
20
500.237298
30
0
0
VERTEX
8
ARKA_MITRE
10
269.333333
20
515.237298
30
0
0
VERTEX
8
ARKA_MITRE
10
254.333333
20
515.237298
30
0
0
SEQEND
8
ARKA_MITRE
0
POLYLINE
8
ARKA_MITRE
66
1
70
0
10
0
20
0
30
0
0
VERTEX
8
ARKA_MITRE
10
35.5
20
515.237298
30
0
0
VERTEX
8
ARKA_MITRE
10
20.5
20
515.237298
30
0
0
VERTEX
8
ARKA_MITRE
10
20.5
20
500.237298
30
0
0
SEQEND
8
ARKA_MITRE
0
POLYLINE
8
ARKA_MITRE
66
1
70
0
10
0
20
0
30
0
0
VERTEX
8
ARKA_MITRE
10
271.333333
20
35.5
30
0
0
VERTEX
8
ARKA_MITRE
10
271.333333
20
20.5
30
0
0
VERTEX
8
ARKA_MITRE
10
286.333333
20
20.5
30
0
0
SEQEND
8
ARKA_MITRE
0
POLYLINE
8
ARKA_MITRE
66
1
70
0
10
0
20
0
30
0
0
VERTEX
8
ARKA_MITRE
10
524.666667
20
20.5
30
0
0
VERTEX
8
ARKA_MITRE
10
539.666667
20
20.5
30
0
0
VERTEX
8
ARKA_MITRE
10
539.666667
20
35.5
30
0
0
SEQEND
8
ARKA_MITRE
0
POLYLINE
8
ARKA_MITRE
66
1
70
0
10
0
20
0
30
0
0
VERTEX
8
ARKA_MITRE
10
539.666667
20
500.237298
30
0
0
VERTEX
8
ARKA_MITRE
10
539.666667
20
515.237298
30
0
0
VERTEX
8
ARKA_MITRE
10
524.666667
20
515.237298
30
0
0
SEQEND
8
ARKA_MITRE
0
POLYLINE
8
ARKA_MITRE
66
1
70
0
10
0
20
0
30
0
0
VERTEX
8
ARKA_MITRE
10
286.333333
20
515.237298
30
0
0
VERTEX
8
ARKA_MITRE
10
271.333333
20
515.237298
30
0
0
VERTEX
8
ARKA_MITRE
10
271.333333
20
500.237298
30
0
0
SEQEND
8
ARKA_MITRE
0
POLYLINE
8
ARKA_MITRE
66
1
70
0
10
0
20
0
30
0
0
VERTEX
8
ARKA_MITRE
10
541.666667
20
35.5
30
0
0
VERTEX
8
ARKA_MITRE
10
541.666667
20
20.5
30
0
0
VERTEX
8
ARKA_MITRE
10
556.666667
20
20.5
30
0
0
SEQEND
8
ARKA_MITRE
0
POLYLINE
8
ARKA_MITRE
66
1
70
0
10
0
20
0
30
0
0
VERTEX
8
ARKA_MITRE
10
775.5
20
20.5
30
0
0
VERTEX
8
ARKA_MITRE
10
790.5
20
20.5
30
0
0
VERTEX
8
ARKA_MITRE
10
790.5
20
35.5
30
0
0
SEQEND
8
ARKA_MITRE
0
POLYLINE
8
ARKA_MITRE
66
1
70
0
10
0
20
0
30
0
0
VERTEX
8
ARKA_MITRE
10
790.5
20
500.237298
30
0
0
VERTEX
8
ARKA_MITRE
10
790.5
20
515.237298
30
0
0
VERTEX
8
ARKA_MITRE
10
775.5
20
515.237298
30
0
0
SEQEND
8
ARKA_MITRE
0
POLYLINE
8
ARKA_MITRE
66
1
70
0
10
0
20
0
30
0
0
VERTEX
8
ARKA_MITRE
10
556.666667
20
515.237298
30
0
0
VERTEX
8
ARKA_MITRE
10
541.666667
20
515.237298
30
0
0
VERTEX
8
ARKA_MITRE
10
541.666667
20
500.237298
30
0
0
SEQEND
8
ARKA_MITRE
0
POLYLINE
8
ARKA_MITRE
66
1
70
0
10
0
20
0
30
0
0
VERTEX
8
ARKA_MITRE
10
775.5
20
517.237298
30
0
0
VERTEX
8
ARKA_MITRE
10
790.5
20
517.237298
30
0
0
VERTEX
8
ARKA_MITRE
10
790.5
20
532.237298
30
0
0
SEQEND
8
ARKA_MITRE
0
POLYLINE
8
ARKA_MITRE
66
1
70
0
10
0
20
0
30
0
0
VERTEX
8
ARKA_MITRE
10
736.216761
20
1337.654317
30
0
42
0.004237
0
VERTEX
8
ARKA_MITRE
10
730.925153
20
1351.689754
30
0
42
0.010307
0
VERTEX
8
ARKA_MITRE
10
717.916727
20
1344.223229
30
0
0
SEQEND
8
ARKA_MITRE
0
POLYLINE
8
ARKA_MITRE
66
1
70
0
10
0
20
0
30
0
0
VERTEX
8
ARKA_MITRE
10
539.724779
20
531.237186
30
0
0
VERTEX
8
ARKA_MITRE
10
539.666667
20
516.237298
30
0
0
VERTEX
8
ARKA_MITRE
10
539.666667
20
531.237298
30
0
0
SEQEND
8
ARKA_MITRE
0
POLYLINE
8
ARKA_MITRE
66
1
70
0
10
0
20
0
30
0
0
VERTEX
8
ARKA_MITRE
10
539.666667
20
1535.483605
30
0
0
VERTEX
8
ARKA_MITRE
10
539.666667
20
1550.483605
30
0
42
0.005913
0
VERTEX
8
ARKA_MITRE
10
527.517628
20
1541.686426
30
0
0
SEQEND
8
ARKA_MITRE
0
POLYLINE
8
ARKA_MITRE
66
1
70
0
10
0
20
0
30
0
0
VERTEX
8
ARKA_MITRE
10
416.174106
20
1435.869602
30
0
42
0.005913
0
VERTEX
8
ARKA_MITRE
10
406.770333
20
1424.183775
30
0
42
-0.005895
0
VERTEX
8
ARKA_MITRE
10
415.866145
20
1412.256672
30
0
0
SEQEND
8
ARKA_MITRE
0
POLYLINE
8
ARKA_MITRE
66
1
70
0
10
0
20
0
30
0
0
VERTEX
8
ARKA_MITRE
10
540.042215
20
1077.908114
30
0
42
-0.005895
0
VERTEX
8
ARKA_MITRE
10
540.937
20
1062.935174
30
0
42
-0.010251
0
VERTEX
8
ARKA_MITRE
10
542.492009
20
1077.853298
30
0
0
SEQEND
8
ARKA_MITRE
0
POLYLINE
8
ARKA_MITRE
66
1
70
0
10
0
20
0
30
0
0
VERTEX
8
ARKA_MITRE
10
717.180865
20
1346.114407
30
0
42
-0.010251
0
VERTEX
8
ARKA_MITRE
10
730.195486
20
1353.570151
30
0
42
0.004237
0
VERTEX
8
ARKA_MITRE
10
724.634995
20
1367.501251
30
0
0
SEQEND
8
ARKA_MITRE
0
POLYLINE
8
ARKA_MITRE
66
1
70
0
10
0
20
0
30
0
0
VERTEX
8
ARKA_MITRE
10
605.311044
20
1574.221311
30
0
42
0.004237
0
VERTEX
8
ARKA_MITRE
10
596.028819
20
1586.004134
30
0
42
0.005913
0
VERTEX
8
ARKA_MITRE
10
583.023923
20
1578.530034
30
0
0
SEQEND
8
ARKA_MITRE
0
POLYLINE
8
ARKA_MITRE
66
1
70
0
10
0
20
0
30
0
0
VERTEX
8
ARKA_MITRE
10
554.053078
20
1560.349981
30
0
42
0.005913
0
VERTEX
8
ARKA_MITRE
10
541.666667
20
1551.890294
30
0
0
VERTEX
8
ARKA_MITRE
10
541.666667
20
1536.890294
30
0
0
SEQEND
8
ARKA_MITRE
0
POLYLINE
8
ARKA_MITRE
66
1
70
0
10
0
20
0
30
0
0
VERTEX
8
ARKA_MITRE
10
541.666667
20
532.237298
30
0
0
VERTEX
8
ARKA_MITRE
10
541.666667
20
517.237298
30
0
0
VERTEX
8
ARKA_MITRE
10
556.666667
20
517.237298
30
0
0
SEQEND
8
ARKA_MITRE
0
POLYLINE
8
ARKA_MITRE
66
1
70
0
10
0
20
0
30
0
0
VERTEX
8
ARKA_MITRE
10
581.757274
20
1580.104649
30
0
42
-0.005895
0
VERTEX
8
ARKA_MITRE
10
594.758486
20
1587.585161
30
0
42
0.004237
0
VERTEX
8
ARKA_MITRE
10
585.251282
20
1599.187217
30
0
0
SEQEND
8
ARKA_MITRE
0
POLYLINE
8
ARKA_MITRE
66
1
70
0
10
0
20
0
30
0
0
VERTEX
8
ARKA_MITRE
10
552.002544
20
1636.841588
30
0
42
0.004237
0
VERTEX
8
ARKA_MITRE
10
541.666667
20
1647.711926
30
0
0
VERTEX
8
ARKA_MITRE
10
541.666667
20
1632.711926
30
0
0
SEQEND
8
ARKA_MITRE
0
POLYLINE
8
ARKA_MITRE
66
1
70
0
10
0
20
0
30
0
0
VERTEX
8
ARKA_MITRE
10
541.666667
20
1569.33026
30
0
0
VERTEX
8
ARKA_MITRE
10
541.666667
20
1554.33026
30
0
42
-0.005895
0
VERTEX
8
ARKA_MITRE
10
554.071352
20
1562.763134
30
0
0
SEQEND
8
ARKA_MITRE
0
POLYLINE
8
ARKA_MITRE
66
1
70
0
10
0
20
0
30
0
0
VERTEX
8
ARKA_MITRE
10
539.666667
20
1634.773259
30
0
0
VERTEX
8
ARKA_MITRE
10
539.666667
20
1649.773259
30
0
42
0.004237
0
VERTEX
8
ARKA_MITRE
10
529.113391
20
1660.432667
30
0
0
SEQEND
8
ARKA_MITRE
0
POLYLINE
8
ARKA_MITRE
66
1
70
0
10
0
20
0
30
0
0
VERTEX
8
ARKA_MITRE
10
417.804244
20
1754.11811
30
0
42
0.004237
0
VERTEX
8
ARKA_MITRE
10
405.5
20
1762.697165
30
0
42
0.004237
0
VERTEX
8
ARKA_MITRE
10
393.195756
20
1754.11811
30
0
0
SEQEND
8
ARKA_MITRE
0
POLYLINE
8
ARKA_MITRE
66
1
70
0
10
0
20
0
30
0
0
VERTEX
8
ARKA_MITRE
10
281.886609
20
1660.432667
30
0
42
0.004237
0
VERTEX
8
ARKA_MITRE
10
271.333333
20
1649.773259
30
0
0
VERTEX
8
ARKA_MITRE
10
271.333333
20
1634.773259
30
0
0
SEQEND
8
ARKA_MITRE
0
POLYLINE
8
ARKA_MITRE
66
1
70
0
10
0
20
0
30
0
0
VERTEX
8
ARKA_MITRE
10
271.333333
20
1567.930166
30
0
0
VERTEX
8
ARKA_MITRE
10
271.333333
20
1552.930166
30
0
42
-0.005895
0
VERTEX
8
ARKA_MITRE
10
283.502187
20
1544.160412
30
0
0
SEQEND
8
ARKA_MITRE
0
POLYLINE
8
ARKA_MITRE
66
1
70
0
10
0
20
0
30
0
0
VERTEX
8
ARKA_MITRE
10
396.08767
20
1437.482949
30
0
42
-0.005895
0
VERTEX
8
ARKA_MITRE
10
405.5
20
1425.80401
30
0
42
-0.005895
0
VERTEX
8
ARKA_MITRE
10
414.91233
20
1437.482949
30
0
0
SEQEND
8
ARKA_MITRE
0
POLYLINE
8
ARKA_MITRE
66
1
70
0
10
0
20
0
30
0
0
VERTEX
8
ARKA_MITRE
10
527.497813
20
1544.160412
30
0
42
-0.005895
0
VERTEX
8
ARKA_MITRE
10
539.666667
20
1552.930166
30
0
0
VERTEX
8
ARKA_MITRE
10
539.666667
20
1567.930166
30
0
0
SEQEND
8
ARKA_MITRE
0
POLYLINE
8
ARKA_MITRE
66
1
70
0
10
0
20
0
30
0
0
VERTEX
8
ARKA_MITRE
10
269.333333
20
1632.711926
30
0
0
VERTEX
8
ARKA_MITRE
10
269.333333
20
1647.711926
30
0
42
0.004237
0
VERTEX
8
ARKA_MITRE
10
258.997456
20
1636.841588
30
0
0
SEQEND
8
ARKA_MITRE
0
POLYLINE
8
ARKA_MITRE
66
1
70
0
10
0
20
0
30
0
0
VERTEX
8
ARKA_MITRE
10
225.748718
20
1599.187217
30
0
42
0.004237
0
VERTEX
8
ARKA_MITRE
10
216.241514
20
1587.585161
30
0
42
-0.005895
0
VERTEX
8
ARKA_MITRE
10
229.242726
20
1580.104649
30
0
0
SEQEND
8
ARKA_MITRE
0
POLYLINE
8
ARKA_MITRE
66
1
70
0
10
0
20
0
30
0
0
VERTEX
8
ARKA_MITRE
10
256.928648
20
1562.763134
30
0
42
-0.005895
0
VERTEX
8
ARKA_MITRE
10
269.333333
20
1554.33026
30
0
0
VERTEX
8
ARKA_MITRE
10
269.333333
20
1569.33026
30
0
0
SEQEND
8
ARKA_MITRE
0
POLYLINE
8
ARKA_MITRE
66
1
70
0
10
0
20
0
30
0
0
VERTEX
8
ARKA_MITRE
10
227.976077
20
1578.530034
30
0
42
0.005913
0
VERTEX
8
ARKA_MITRE
10
214.971181
20
1586.004134
30
0
42
0.004237
0
VERTEX
8
ARKA_MITRE
10
205.688956
20
1574.221311
30
0
0
SEQEND
8
ARKA_MITRE
0
POLYLINE
8
ARKA_MITRE
66
1
70
0
10
0
20
0
30
0
0
VERTEX
8
ARKA_MITRE
10
86.365005
20
1367.501251
30
0
42
0.004237
0
VERTEX
8
ARKA_MITRE
10
80.804514
20
1353.570151
30
0
42
-0.010251
0
VERTEX
8
ARKA_MITRE
10
93.819135
20
1346.114407
30
0
0
SEQEND
8
ARKA_MITRE
0
POLYLINE
8
ARKA_MITRE
66
1
70
0
10
0
20
0
30
0
0
VERTEX
8
ARKA_MITRE
10
268.507991
20
1077.853298
30
0
42
-0.010251
0
VERTEX
8
ARKA_MITRE
10
270.063
20
1062.935174
30
0
42
-0.005895
0
VERTEX
8
ARKA_MITRE
10
270.957785
20
1077.908114
30
0
0
SEQEND
8
ARKA_MITRE
0
POLYLINE
8
ARKA_MITRE
66
1
70
0
10
0
20
0
30
0
0
VERTEX
8
ARKA_MITRE
10
395.133855
20
1412.256672
30
0
42
-0.005895
0
VERTEX
8
ARKA_MITRE
10
404.229667
20
1424.183775
30
0
42
0.005913
0
VERTEX
8
ARKA_MITRE
10
394.825894
20
1435.869602
30
0
0
SEQEND
8
ARKA_MITRE
0
POLYLINE
8
ARKA_MITRE
66
1
70
0
10
0
20
0
30
0
0
VERTEX
8
ARKA_MITRE
10
283.482372
20
1541.686426
30
0
42
0.005913
0
VERTEX
8
ARKA_MITRE
10
271.333333
20
1550.483605
30
0
0
VERTEX
8
ARKA_MITRE
10
271.333333
20
1535.483605
30
0
0
SEQEND
8
ARKA_MITRE
0
POLYLINE
8
ARKA_MITRE
66
1
70
0
10
0
20
0
30
0
0
VERTEX
8
ARKA_MITRE
10
271.333333
20
532.237298
30
0
0
VERTEX
8
ARKA_MITRE
10
271.333333
20
517.237298
30
0
0
VERTEX
8
ARKA_MITRE
10
286.333333
20
517.237298
30
0
0
SEQEND
8
ARKA_MITRE
0
POLYLINE
8
ARKA_MITRE
66
1
70
0
10
0
20
0
30
0
0
VERTEX
8
ARKA_MITRE
10
524.666667
20
517.237298
30
0
0
VERTEX
8
ARKA_MITRE
10
539.666667
20
517.237298
30
0
0
VERTEX
8
ARKA_MITRE
10
539.666667
20
532.237298
30
0
0
SEQEND
8
ARKA_MITRE
0
POLYLINE
8
ARKA_MITRE
66
1
70
0
10
0
20
0
30
0
0
VERTEX
8
ARKA_MITRE
10
414.586026
20
1410.62639
30
0
42
0.005913
0
VERTEX
8
ARKA_MITRE
10
405.5
20
1422.560947
30
0
42
0.005913
0
VERTEX
8
ARKA_MITRE
10
396.413974
20
1410.62639
30
0
0
SEQEND
8
ARKA_MITRE
0
POLYLINE
8
ARKA_MITRE
66
1
70
0
10
0
20
0
30
0
0
VERTEX
8
ARKA_MITRE
10
269.391446
20
531.237186
30
0
0
VERTEX
8
ARKA_MITRE
10
269.333333
20
516.237298
30
0
0
VERTEX
8
ARKA_MITRE
10
269.333333
20
531.237298
30
0
0
SEQEND
8
ARKA_MITRE
0
POLYLINE
8
ARKA_MITRE
66
1
70
0
10
0
20
0
30
0
0
VERTEX
8
ARKA_MITRE
10
269.333333
20
1536.890294
30
0
0
VERTEX
8
ARKA_MITRE
10
269.333333
20
1551.890294
30
0
42
0.005913
0
VERTEX
8
ARKA_MITRE
10
256.946922
20
1560.349981
30
0
0
SEQEND
8
ARKA_MITRE
0
POLYLINE
8
ARKA_MITRE
66
1
70
0
10
0
20
0
30
0
0
VERTEX
8
ARKA_MITRE
10
93.083273
20
1344.223229
30
0
42
0.010307
0
VERTEX
8
ARKA_MITRE
10
80.074847
20
1351.689754
30
0
42
0.004237
0
VERTEX
8
ARKA_MITRE
10
74.783239
20
1337.654317
30
0
0
SEQEND
8
ARKA_MITRE
0
POLYLINE
8
ARKA_MITRE
66
1
70
0
10
0
20
0
30
0
0
VERTEX
8
ARKA_MITRE
10
20.5
20
532.237298
30
0
0
VERTEX
8
ARKA_MITRE
10
20.5
20
517.237298
30
0
0
VERTEX
8
ARKA_MITRE
10
35.5
20
517.237298
30
0
0
SEQEND
8
ARKA_MITRE
0
POLYLINE
8
ARKA_MITRE
66
1
70
0
10
0
20
0
30
0
0
VERTEX
8
ARKA_MITRE
10
254.333333
20
517.237298
30
0
0
VERTEX
8
ARKA_MITRE
10
269.333333
20
517.237298
30
0
0
VERTEX
8
ARKA_MITRE
10
269.333333
20
532.237298
30
0
0
SEQEND
8
ARKA_MITRE
0
POINT
8
ARKA_CENTRE
10
-94.5
20
1032.474596
30
0
0
POINT
8
ARKA_CENTRE
10
905.5
20
1032.474596
30
0
0
POLYLINE
8
ARKA_SECTION
66
1
70
0
10
0
20
0
30
0
0
VERTEX
8
ARKA_SECTION
10
898.5
20
12.5
30
0
42
-0.414214
0
VERTEX
8
ARKA_SECTION
10
906.5
20
20.5
30
0
0
VERTEX
8
ARKA_SECTION
10
906.5
20
26.5
30
0
0
SEQEND
8
ARKA_SECTION
0
TEXT
8
ARKA_INFO_NO_CUT
10
894.5
20
-6.5
30
0
40
15
1
START
72
0
11
894.5
21
-6.5
31
0
73
0
0
TEXT
8
ARKA_INFO_NO_CUT
10
918.5
20
16.5
30
0
40
15
1
SECTION R8 + 6 (VERBATIM)
72
0
11
918.5
21
16.5
31
0
73
0
0
TEXT
8
ARKA_INFO_NO_CUT
10
898.5
20
1750.372562
30
0
40
15
1
gothic - TRACERY FULL
72
0
11
898.5
21
1750.372562
31
0
73
0
0
TEXT
8
ARKA_INFO_NO_CUT
10
898.5
20
1728.372562
30
0
40
15
1
PATTERN INTERSECTING SPOKES 0 RINGS 0 PANES 9
72
0
11
898.5
21
1728.372562
31
0
73
0
0
TEXT
8
ARKA_INFO_NO_CUT
10
898.5
20
1706.372562
30
0
40
15
1
TIMBER BAR 22 EDGE MARGIN 18 PANE +2 LIMIT +10 MITRE LEG 15
72
0
11
898.5
21
1706.372562
31
0
73
0
0
TEXT
8
ARKA_INFO_NO_CUT
10
898.5
20
1684.372562
30
0
40
15
1
ARKA_PANE = MOULDING RAIL (INNER EDGE OF THE BEAD), ARKA_FRONT_HINGES_3MM = BEAD LIMIT (NOT DRILLING)
72
0
11
898.5
21
1684.372562
31
0
73
0
0
TEXT
8
ARKA_INFO_NO_CUT
10
898.5
20
1662.372562
30
0
40
15
1
NOT A TOOLPATH
72
0
11
898.5
21
1662.372562
31
0
73
0
0
ENDSEC
0
EOF
