0
SECTION
2
HEADER
9
$ACADVER
1
AC1009
0
ENDSEC
0
SECTION
2
TABLES
0
TABLE
2
LAYER
70
9
0
LAYER
2
0
70
0
62
7
6
CONTINUOUS
0
LAYER
2
ARKA_OUTLINE
70
0
62
7
6
CONTINUOUS
0
LAYER
2
ARKA_PANE
70
0
62
3
6
CONTINUOUS
0
LAYER
2
ARKA_FRONT_HINGES_3MM
70
0
62
50
6
CONTINUOUS
0
LAYER
2
ARKA_MITRE
70
0
62
1
6
CONTINUOUS
0
LAYER
2
ARKA_SECTION
70
0
62
5
6
CONTINUOUS
0
LAYER
2
ARKA_PANE_ZEWN_REF
70
0
62
3
6
CONTINUOUS
0
LAYER
2
ARKA_CENTRE
70
0
62
6
6
CONTINUOUS
0
LAYER
2
ARKA_INFO_NO_CUT
70
0
62
8
6
CONTINUOUS
0
ENDTAB
0
ENDSEC
0
SECTION
2
ENTITIES
0
POLYLINE
8
ARKA_OUTLINE
66
1
70
1
10
0
20
0
30
0
0
VERTEX
8
ARKA_OUTLINE
10
-5.5
20
-5.5
30
0
0
VERTEX
8
ARKA_OUTLINE
10
816.5
20
-5.5
30
0
0
VERTEX
8
ARKA_OUTLINE
10
816.5
20
1032.474596
30
0
42
0.25263
0
VERTEX
8
ARKA_OUTLINE
10
405.5
20
1794.000039
30
0
42
0.25263
0
VERTEX
8
ARKA_OUTLINE
10
-5.5
20
1032.474596
30
0
0
SEQEND
8
ARKA_OUTLINE
0
POLYLINE
8
ARKA_PANE_ZEWN_REF
66
1
70
1
10
0
20
0
30
0
0
VERTEX
8
ARKA_PANE_ZEWN_REF
10
-3.5
20
-3.5
30
0
0
VERTEX
8
ARKA_PANE_ZEWN_REF
10
814.5
20
-3.5
30
0
0
VERTEX
8
ARKA_PANE_ZEWN_REF
10
814.5
20
1032.474596
30
0
42
0.252246
0
VERTEX
8
ARKA_PANE_ZEWN_REF
10
405.5
20
1791.606337
30
0
42
0.252246
0
VERTEX
8
ARKA_PANE_ZEWN_REF
10
-3.5
20
1032.474596
30
0
0
SEQEND
8
ARKA_PANE_ZEWN_REF
0
POLYLINE
8
ARKA_OUTLINE
66
1
70
1
10
0
20
0
30
0
0
VERTEX
8
ARKA_OUTLINE
10
12.5
20
12.5
30
0
0
VERTEX
8
ARKA_OUTLINE
10
259.333333
20
12.5
30
0
0
VERTEX
8
ARKA_OUTLINE
10
259.333333
20
505.237298
30
0
0
VERTEX
8
ARKA_OUTLINE
10
12.5
20
505.237298
30
0
0
SEQEND
8
ARKA_OUTLINE
0
POLYLINE
8
ARKA_PANE
66
1
70
1
10
0
20
0
30
0
0
VERTEX
8
ARKA_PANE
10
10.5
20
10.5
30
0
0
VERTEX
8
ARKA_PANE
10
261.333333
20
10.5
30
0
0
VERTEX
8
ARKA_PANE
10
261.333333
20
507.237298
30
0
0
VERTEX
8
ARKA_PANE
10
10.5
20
507.237298
30
0
0
SEQEND
8
ARKA_PANE
0
POLYLINE
8
ARKA_FRONT_HINGES_3MM
66
1
70
1
10
0
20
0
30
0
0
VERTEX
8
ARKA_FRONT_HINGES_3MM
10
2.5
20
2.5
30
0
0
VERTEX
8
ARKA_FRONT_HINGES_3MM
10
269.333333
20
2.5
30
0
0
VERTEX
8
ARKA_FRONT_HINGES_3MM
10
269.333333
20
515.237298
30
0
0
VERTEX
8
ARKA_FRONT_HINGES_3MM
10
2.5
20
515.237298
30
0
0
SEQEND
8
ARKA_FRONT_HINGES_3MM
0
POLYLINE
8
ARKA_OUTLINE
66
1
70
1
10
0
20
0
30
0
0
VERTEX
8
ARKA_OUTLINE
10
281.333333
20
12.5
30
0
0
VERTEX
8
ARKA_OUTLINE
10
529.666667
20
12.5
30
0
0
VERTEX
8
ARKA_OUTLINE
10
529.666667
20
505.237298
30
0
0
VERTEX
8
ARKA_OUTLINE
10
281.333333
20
505.237298
30
0
0
SEQEND
8
ARKA_OUTLINE
0
POLYLINE
8
ARKA_PANE
66
1
70
1
10
0
20
0
30
0
0
VERTEX
8
ARKA_PANE
10
279.333333
20
10.5
30
0
0
VERTEX
8
ARKA_PANE
10
531.666667
20
10.5
30
0
0
VERTEX
8
ARKA_PANE
10
531.666667
20
507.237298
30
0
0
VERTEX
8
ARKA_PANE
10
279.333333
20
507.237298
30
0
0
SEQEND
8
ARKA_PANE
0
POLYLINE
8
ARKA_FRONT_HINGES_3MM
66
1
70
1
10
0
20
0
30
0
0
VERTEX
8
ARKA_FRONT_HINGES_3MM
10
271.333333
20
2.5
30
0
0
VERTEX
8
ARKA_FRONT_HINGES_3MM
10
539.666667
20
2.5
30
0
0
VERTEX
8
ARKA_FRONT_HINGES_3MM
10
539.666667
20
515.237298
30
0
0
VERTEX
8
ARKA_FRONT_HINGES_3MM
10
271.333333
20
515.237298
30
0
0
SEQEND
8
ARKA_FRONT_HINGES_3MM
0
POLYLINE
8
ARKA_OUTLINE
66
1
70
1
10
0
20
0
30
0
0
VERTEX
8
ARKA_OUTLINE
10
551.666667
20
12.5
30
0
0
VERTEX
8
ARKA_OUTLINE
10
798.5
20
12.5
30
0
0
VERTEX
8
ARKA_OUTLINE
10
798.5
20
505.237298
30
0
0
VERTEX
8
ARKA_OUTLINE
10
551.666667
20
505.237298
30
0
0
SEQEND
8
ARKA_OUTLINE
0
POLYLINE
8
ARKA_PANE
66
1
70
1
10
0
20
0
30
0
0
VERTEX
8
ARKA_PANE
10
549.666667
20
10.5
30
0
0
VERTEX
8
ARKA_PANE
10
800.5
20
10.5
30
0
0
VERTEX
8
ARKA_PANE
10
800.5
20
507.237298
30
0
0
VERTEX
8
ARKA_PANE
10
549.666667
20
507.237298
30
0
0
SEQEND
8
ARKA_PANE
0
POLYLINE
8
ARKA_FRONT_HINGES_3MM
66
1
70
1
10
0
20
0
30
0
0
VERTEX
8
ARKA_FRONT_HINGES_3MM
10
541.666667
20
2.5
30
0
0
VERTEX
8
ARKA_FRONT_HINGES_3MM
10
808.5
20
2.5
30
0
0
VERTEX
8
ARKA_FRONT_HINGES_3MM
10
808.5
20
515.237298
30
0
0
VERTEX
8
ARKA_FRONT_HINGES_3MM
10
541.666667
20
515.237298
30
0
0
SEQEND
8
ARKA_FRONT_HINGES_3MM
0
POLYLINE
8
ARKA_OUTLINE
66
1
70
1
10
0
20
0
30
0
0
VERTEX
8
ARKA_OUTLINE
10
798.5
20
527.237298
30
0
0
VERTEX
8
ARKA_OUTLINE
10
798.5
20
1032.474596
30
0
42
0.249098
0
VERTEX
8
ARKA_OUTLINE
10
405.5
20
1772.372562
30
0
42
0.249098
0
VERTEX
8
ARKA_OUTLINE
10
12.5
20
1032.474596
30
0
0
VERTEX
8
ARKA_OUTLINE
10
12.5
20
527.237298
30
0
0
VERTEX
8
ARKA_OUTLINE
10
259.333333
20
527.237298
30
0
0
VERTEX
8
ARKA_OUTLINE
10
259.333333
20
1032.474596
30
0
42
-0.144126
0
VERTEX
8
ARKA_OUTLINE
10
405.5
20
1529.021478
30
0
42
-0.144126
0
VERTEX
8
ARKA_OUTLINE
10
551.666667
20
1032.474596
30
0
0
VERTEX
8
ARKA_OUTLINE
10
551.666667
20
527.237298
30
0
0
SEQEND
8
ARKA_OUTLINE
0
POLYLINE
8
ARKA_PANE
66
1
70
1
10
0
20
0
30
0
0
VERTEX
8
ARKA_PANE
10
800.5
20
525.237298
30
0
0
VERTEX
8
ARKA_PANE
10
800.5
20
1032.474596
30
0
42
0.249499
0
VERTEX
8
ARKA_PANE
10
405.5
20
1774.785178
30
0
42
0.249499
0
VERTEX
8
ARKA_PANE
10
10.5
20
1032.474596
30
0
0
VERTEX
8
ARKA_PANE
10
10.5
20
525.237298
30
0
0
VERTEX
8
ARKA_PANE
10
261.333333
20
525.237298
30
0
0
VERTEX
8
ARKA_PANE
10
261.333333
20
1032.474596
30
0
42
-0.143258
0
VERTEX
8
ARKA_PANE
10
405.5
20
1525.320217
30
0
42
-0.143258
0
VERTEX
8
ARKA_PANE
10
549.666667
20
1032.474596
30
0
0
VERTEX
8
ARKA_PANE
10
549.666667
20
525.237298
30
0
0
SEQEND
8
ARKA_PANE
0
POLYLINE
8
ARKA_FRONT_HINGES_3MM
66
1
70
1
10
0
20
0
30
0
0
VERTEX
8
ARKA_FRONT_HINGES_3MM
10
808.5
20
517.237298
30
0
0
VERTEX
8
ARKA_FRONT_HINGES_3MM
10
808.5
20
1032.474596
30
0
42
0.251081
0
VERTEX
8
ARKA_FRONT_HINGES_3MM
10
405.5
20
1784.411429
30
0
42
0.251081
0
VERTEX
8
ARKA_FRONT_HINGES_3MM
10
2.5
20
1032.474596
30
0
0
VERTEX
8
ARKA_FRONT_HINGES_3MM
10
2.5
20
517.237298
30
0
0
VERTEX
8
ARKA_FRONT_HINGES_3MM
10
269.333333
20
517.237298
30
0
0
VERTEX
8
ARKA_FRONT_HINGES_3MM
10
269.333333
20
1032.474596
30
0
42
-0.139701
0
VERTEX
8
ARKA_FRONT_HINGES_3MM
10
405.5
20
1510.312231
30
0
42
-0.139701
0
VERTEX
8
ARKA_FRONT_HINGES_3MM
10
541.666667
20
1032.474596
30
0
0
VERTEX
8
ARKA_FRONT_HINGES_3MM
10
541.666667
20
517.237298
30
0
0
SEQEND
8
ARKA_FRONT_HINGES_3MM
0
POLYLINE
8
ARKA_OUTLINE
66
1
70
1
10
0
20
0
30
0
0
VERTEX
8
ARKA_OUTLINE
10
281.333333
20
527.237298
30
0
0
VERTEX
8
ARKA_OUTLINE
10
529.666667
20
527.237298
30
0
0
VERTEX
8
ARKA_OUTLINE
10
529.666667
20
1032.474596
30
0
42
0.134093
0
VERTEX
8
ARKA_OUTLINE
10
405.5
20
1487.135795
30
0
42
0.134093
0
VERTEX
8
ARKA_OUTLINE
10
281.333333
20
1032.474596
30
0
0
SEQEND
8
ARKA_OUTLINE
0
POLYLINE
8
ARKA_PANE
66
1
70
1
10
0
20
0
30
0
0
VERTEX
8
ARKA_PANE
10
279.333333
20
525.237298
30
0
0
VERTEX
8
ARKA_PANE
10
531.666667
20
525.237298
30
0
0
VERTEX
8
ARKA_PANE
10
531.666667
20
1032.474596
30
0
42
0.135052
0
VERTEX
8
ARKA_PANE
10
405.5
20
1491.058073
30
0
42
0.135052
0
VERTEX
8
ARKA_PANE
10
279.333333
20
1032.474596
30
0
0
SEQEND
8
ARKA_PANE
0
POLYLINE
8
ARKA_FRONT_HINGES_3MM
66
1
70
1
10
0
20
0
30
0
0
VERTEX
8
ARKA_FRONT_HINGES_3MM
10
271.333333
20
517.237298
30
0
0
VERTEX
8
ARKA_FRONT_HINGES_3MM
10
539.666667
20
517.237298
30
0
0
VERTEX
8
ARKA_FRONT_HINGES_3MM
10
539.666667
20
1032.474596
30
0
42
0.13879
0
VERTEX
8
ARKA_FRONT_HINGES_3MM
10
405.5
20
1506.50709
30
0
42
0.13879
0
VERTEX
8
ARKA_FRONT_HINGES_3MM
10
271.333333
20
1032.474596
30
0
0
SEQEND
8
ARKA_FRONT_HINGES_3MM
0
POLYLINE
8
ARKA_MITRE
66
1
70
0
10
0
20
0
30
0
0
VERTEX
8
ARKA_MITRE
10
2.5
20
17.5
30
0
0
VERTEX
8
ARKA_MITRE
10
2.5
20
2.5
30
0
0
VERTEX
8
ARKA_MITRE
10
17.5
20
2.5
30
0
0
SEQEND
8
ARKA_MITRE
0
POLYLINE
8
ARKA_MITRE
66
1
70
0
10
0
20
0
30
0
0
VERTEX
8
ARKA_MITRE
10
254.333333
20
2.5
30
0
0
VERTEX
8
ARKA_MITRE
10
269.333333
20
2.5
30
0
0
VERTEX
8
ARKA_MITRE
10
269.333333
20
17.5
30
0
0
SEQEND
8
ARKA_MITRE
0
POLYLINE
8
ARKA_MITRE
66
1
70
0
10
0
20
0
30
0
0
VERTEX
8
ARKA_MITRE
10
269.333333
20
500.237298
30
0
0
VERTEX
8
ARKA_MITRE
10
269.333333
20
515.237298
30
0
0
VERTEX
8
ARKA_MITRE
10
254.333333
20
515.237298
30
0
0
SEQEND
8
ARKA_MITRE
0
POLYLINE
8
ARKA_MITRE
66
1
70
0
10
0
20
0
30
0
0
VERTEX
8
ARKA_MITRE
10
17.5
20
515.237298
30
0
0
VERTEX
8
ARKA_MITRE
10
2.5
20
515.237298
30
0
0
VERTEX
8
ARKA_MITRE
10
2.5
20
500.237298
30
0
0
SEQEND
8
ARKA_MITRE
0
POLYLINE
8
ARKA_MITRE
66
1
70
0
10
0
20
0
30
0
0
VERTEX
8
ARKA_MITRE
10
271.333333
20
17.5
30
0
0
VERTEX
8
ARKA_MITRE
10
271.333333
20
2.5
30
0
0
VERTEX
8
ARKA_MITRE
10
286.333333
20
2.5
30
0
0
SEQEND
8
ARKA_MITRE
0
POLYLINE
8
ARKA_MITRE
66
1
70
0
10
0
20
0
30
0
0
VERTEX
8
ARKA_MITRE
10
524.666667
20
2.5
30
0
0
VERTEX
8
ARKA_MITRE
10
539.666667
20
2.5
30
0
0
VERTEX
8
ARKA_MITRE
10
539.666667
20
17.5
30
0
0
SEQEND
8
ARKA_MITRE
0
POLYLINE
8
ARKA_MITRE
66
1
70
0
10
0
20
0
30
0
0
VERTEX
8
ARKA_MITRE
10
539.666667
20
500.237298
30
0
0
VERTEX
8
ARKA_MITRE
10
539.666667
20
515.237298
30
0
0
VERTEX
8
ARKA_MITRE
10
524.666667
20
515.237298
30
0
0
SEQEND
8
ARKA_MITRE
0
POLYLINE
8
ARKA_MITRE
66
1
70
0
10
0
20
0
30
0
0
VERTEX
8
ARKA_MITRE
10
286.333333
20
515.237298
30
0
0
VERTEX
8
ARKA_MITRE
10
271.333333
20
515.237298
30
0
0
VERTEX
8
ARKA_MITRE
10
271.333333
20
500.237298
30
0
0
SEQEND
8
ARKA_MITRE
0
POLYLINE
8
ARKA_MITRE
66
1
70
0
10
0
20
0
30
0
0
VERTEX
8
ARKA_MITRE
10
541.666667
20
17.5
30
0
0
VERTEX
8
ARKA_MITRE
10
541.666667
20
2.5
30
0
0
VERTEX
8
ARKA_MITRE
10
556.666667
20
2.5
30
0
0
SEQEND
8
ARKA_MITRE
0
POLYLINE
8
ARKA_MITRE
66
1
70
0
10
0
20
0
30
0
0
VERTEX
8
ARKA_MITRE
10
793.5
20
2.5
30
0
0
VERTEX
8
ARKA_MITRE
10
808.5
20
2.5
30
0
0
VERTEX
8
ARKA_MITRE
10
808.5
20
17.5
30
0
0
SEQEND
8
ARKA_MITRE
0
POLYLINE
8
ARKA_MITRE
66
1
70
0
10
0
20
0
30
0
0
VERTEX
8
ARKA_MITRE
10
808.5
20
500.237298
30
0
0
VERTEX
8
ARKA_MITRE
10
808.5
20
515.237298
30
0
0
VERTEX
8
ARKA_MITRE
10
793.5
20
515.237298
30
0
0
SEQEND
8
ARKA_MITRE
0
POLYLINE
8
ARKA_MITRE
66
1
70
0
10
0
20
0
30
0
0
VERTEX
8
ARKA_MITRE
10
556.666667
20
515.237298
30
0
0
VERTEX
8
ARKA_MITRE
10
541.666667
20
515.237298
30
0
0
VERTEX
8
ARKA_MITRE
10
541.666667
20
500.237298
30
0
0
SEQEND
8
ARKA_MITRE
0
POLYLINE
8
ARKA_MITRE
66
1
70
0
10
0
20
0
30
0
0
VERTEX
8
ARKA_MITRE
10
793.5
20
517.237298
30
0
0
VERTEX
8
ARKA_MITRE
10
808.5
20
517.237298
30
0
0
VERTEX
8
ARKA_MITRE
10
808.5
20
532.237298
30
0
0
SEQEND
8
ARKA_MITRE
0
POLYLINE
8
ARKA_MITRE
66
1
70
0
10
0
20
0
30
0
0
VERTEX
8
ARKA_MITRE
10
417.921088
20
1776.002422
30
0
42
0.004153
0
VERTEX
8
ARKA_MITRE
10
405.5
20
1784.411429
30
0
42
0.004153
0
VERTEX
8
ARKA_MITRE
10
393.078912
20
1776.002422
30
0
0
SEQEND
8
ARKA_MITRE
0
POLYLINE
8
ARKA_MITRE
66
1
70
0
10
0
20
0
30
0
0
VERTEX
8
ARKA_MITRE
10
2.5
20
532.237298
30
0
0
VERTEX
8
ARKA_MITRE
10
2.5
20
517.237298
30
0
0
VERTEX
8
ARKA_MITRE
10
17.5
20
517.237298
30
0
0
SEQEND
8
ARKA_MITRE
0
POLYLINE
8
ARKA_MITRE
66
1
70
0
10
0
20
0
30
0
0
VERTEX
8
ARKA_MITRE
10
254.333333
20
517.237298
30
0
0
VERTEX
8
ARKA_MITRE
10
269.333333
20
517.237298
30
0
0
VERTEX
8
ARKA_MITRE
10
269.333333
20
532.237298
30
0
0
SEQEND
8
ARKA_MITRE
0
POLYLINE
8
ARKA_MITRE
66
1
70
0
10
0
20
0
30
0
0
VERTEX
8
ARKA_MITRE
10
397.698965
20
1497.500568
30
0
42
-0.004137
0
VERTEX
8
ARKA_MITRE
10
405.5
20
1510.312231
30
0
42
-0.004137
0
VERTEX
8
ARKA_MITRE
10
413.301035
20
1497.500568
30
0
0
SEQEND
8
ARKA_MITRE
0
POLYLINE
8
ARKA_MITRE
66
1
70
0
10
0
20
0
30
0
0
VERTEX
8
ARKA_MITRE
10
541.666667
20
532.237298
30
0
0
VERTEX
8
ARKA_MITRE
10
541.666667
20
517.237298
30
0
0
VERTEX
8
ARKA_MITRE
10
556.666667
20
517.237298
30
0
0
SEQEND
8
ARKA_MITRE
0
POLYLINE
8
ARKA_MITRE
66
1
70
0
10
0
20
0
30
0
0
VERTEX
8
ARKA_MITRE
10
271.333333
20
532.237298
30
0
0
VERTEX
8
ARKA_MITRE
10
271.333333
20
517.237298
30
0
0
VERTEX
8
ARKA_MITRE
10
286.333333
20
517.237298
30
0
0
SEQEND
8
ARKA_MITRE
0
POLYLINE
8
ARKA_MITRE
66
1
70
0
10
0
20
0
30
0
0
VERTEX
8
ARKA_MITRE
10
524.666667
20
517.237298
30
0
0
VERTEX
8
ARKA_MITRE
10
539.666667
20
517.237298
30
0
0
VERTEX
8
ARKA_MITRE
10
539.666667
20
532.237298
30
0
0
SEQEND
8
ARKA_MITRE
0
POLYLINE
8
ARKA_MITRE
66
1
70
0
10
0
20
0
30
0
0
VERTEX
8
ARKA_MITRE
10
413.254949
20
1493.667479
30
0
42
0.004146
0
VERTEX
8
ARKA_MITRE
10
405.5
20
1506.50709
30
0
42
0.004146
0
VERTEX
8
ARKA_MITRE
10
397.745051
20
1493.667479
30
0
0
SEQEND
8
ARKA_MITRE
0
POINT
8
ARKA_CENTRE
10
-94.5
20
1032.474596
30
0
0
POINT
8
ARKA_CENTRE
10
905.5
20
1032.474596
30
0
0
POLYLINE
8
ARKA_SECTION
66
1
70
0
10
0
20
0
30
0
0
VERTEX
8
ARKA_SECTION
10
916.5
20
-5.5
30
0
42
-0.414214
0
VERTEX
8
ARKA_SECTION
10
924.5
20
2.5
30
0
0
VERTEX
8
ARKA_SECTION
10
924.5
20
8.5
30
0
0
SEQEND
8
ARKA_SECTION
0
TEXT
8
ARKA_INFO_NO_CUT
10
912.5
20
-24.5
30
0
40
15
1
START
72
0
11
912.5
21
-24.5
31
0
73
0
0
TEXT
8
ARKA_INFO_NO_CUT
10
936.5
20
-1.5
30
0
40
15
1
SECTION R8 + 6 (VERBATIM)
72
0
11
936.5
21
-1.5
31
0
73
0
0
TEXT
8
ARKA_INFO_NO_CUT
10
916.5
20
1772.000039
30
0
40
15
1
gothic - TRACERY FULL
72
0
11
916.5
21
1772.000039
31
0
73
0
0
TEXT
8
ARKA_INFO_NO_CUT
10
916.5
20
1750.000039
30
0
40
15
1
PATTERN INTERSECTING SPOKES 0 RINGS 0 PANES 5
72
0
11
916.5
21
1750.000039
31
0
73
0
0
TEXT
8
ARKA_INFO_NO_CUT
10
916.5
20
1728.000039
30
0
40
15
1
TIMBER BAR 22 EDGE MARGIN 18 PANE +2 LIMIT +10 MITRE LEG 15
72
0
11
916.5
21
1728.000039
31
0
73
0
0
TEXT
8
ARKA_INFO_NO_CUT
10
916.5
20
1706.000039
30
0
40
15
1
ARKA_PANE = MOULDING RAIL (INNER EDGE OF THE BEAD), ARKA_FRONT_HINGES_3MM = BEAD LIMIT (NOT DRILLING)
72
0
11
916.5
21
1706.000039
31
0
73
0
0
TEXT
8
ARKA_INFO_NO_CUT
10
916.5
20
1684.000039
30
0
40
15
1
NOT A TOOLPATH
72
0
11
916.5
21
1684.000039
31
0
73
0
0
ENDSEC
0
EOF
