0
SECTION
2
HEADER
9
$ACADVER
1
AC1009
0
ENDSEC
0
SECTION
2
TABLES
0
TABLE
2
LAYER
70
9
0
LAYER
2
0
70
0
62
7
6
CONTINUOUS
0
LAYER
2
ARKA_OUTLINE
70
0
62
7
6
CONTINUOUS
0
LAYER
2
ARKA_PANE
70
0
62
3
6
CONTINUOUS
0
LAYER
2
ARKA_FRONT_HINGES_3MM
70
0
62
50
6
CONTINUOUS
0
LAYER
2
ARKA_MITRE
70
0
62
1
6
CONTINUOUS
0
LAYER
2
ARKA_SECTION
70
0
62
5
6
CONTINUOUS
0
LAYER
2
ARKA_PANE_ZEWN_REF
70
0
62
3
6
CONTINUOUS
0
LAYER
2
ARKA_CENTRE
70
0
62
6
6
CONTINUOUS
0
LAYER
2
ARKA_INFO_NO_CUT
70
0
62
8
6
CONTINUOUS
0
ENDTAB
0
ENDSEC
0
SECTION
2
ENTITIES
0
POLYLINE
8
ARKA_OUTLINE
66
1
70
1
10
0
20
0
30
0
0
VERTEX
8
ARKA_OUTLINE
10
12.5
20
12.5
30
0
0
VERTEX
8
ARKA_OUTLINE
10
798.5
20
12.5
30
0
0
VERTEX
8
ARKA_OUTLINE
10
798.5
20
898.5
30
0
42
1
0
VERTEX
8
ARKA_OUTLINE
10
12.5
20
898.5
30
0
0
SEQEND
8
ARKA_OUTLINE
0
POLYLINE
8
ARKA_PANE_ZEWN_REF
66
1
70
1
10
0
20
0
30
0
0
VERTEX
8
ARKA_PANE_ZEWN_REF
10
14.5
20
14.5
30
0
0
VERTEX
8
ARKA_PANE_ZEWN_REF
10
796.5
20
14.5
30
0
0
VERTEX
8
ARKA_PANE_ZEWN_REF
10
796.5
20
898.5
30
0
42
1
0
VERTEX
8
ARKA_PANE_ZEWN_REF
10
14.5
20
898.5
30
0
0
SEQEND
8
ARKA_PANE_ZEWN_REF
0
POLYLINE
8
ARKA_OUTLINE
66
1
70
1
10
0
20
0
30
0
0
VERTEX
8
ARKA_OUTLINE
10
30.5
20
30.5
30
0
0
VERTEX
8
ARKA_OUTLINE
10
124.166667
20
30.5
30
0
0
VERTEX
8
ARKA_OUTLINE
10
124.166667
20
887.5
30
0
0
VERTEX
8
ARKA_OUTLINE
10
30.5
20
887.5
30
0
0
SEQEND
8
ARKA_OUTLINE
0
POLYLINE
8
ARKA_PANE
66
1
70
1
10
0
20
0
30
0
0
VERTEX
8
ARKA_PANE
10
28.5
20
28.5
30
0
0
VERTEX
8
ARKA_PANE
10
126.166667
20
28.5
30
0
0
VERTEX
8
ARKA_PANE
10
126.166667
20
889.5
30
0
0
VERTEX
8
ARKA_PANE
10
28.5
20
889.5
30
0
0
SEQEND
8
ARKA_PANE
0
POLYLINE
8
ARKA_FRONT_HINGES_3MM
66
1
70
1
10
0
20
0
30
0
0
VERTEX
8
ARKA_FRONT_HINGES_3MM
10
20.5
20
20.5
30
0
0
VERTEX
8
ARKA_FRONT_HINGES_3MM
10
134.166667
20
20.5
30
0
0
VERTEX
8
ARKA_FRONT_HINGES_3MM
10
134.166667
20
897.5
30
0
0
VERTEX
8
ARKA_FRONT_HINGES_3MM
10
20.5
20
897.5
30
0
0
SEQEND
8
ARKA_FRONT_HINGES_3MM
0
POLYLINE
8
ARKA_OUTLINE
66
1
70
1
10
0
20
0
30
0
0
VERTEX
8
ARKA_OUTLINE
10
146.166667
20
30.5
30
0
0
VERTEX
8
ARKA_OUTLINE
10
259.333333
20
30.5
30
0
0
VERTEX
8
ARKA_OUTLINE
10
259.333333
20
887.5
30
0
0
VERTEX
8
ARKA_OUTLINE
10
146.166667
20
887.5
30
0
0
SEQEND
8
ARKA_OUTLINE
0
POLYLINE
8
ARKA_PANE
66
1
70
1
10
0
20
0
30
0
0
VERTEX
8
ARKA_PANE
10
144.166667
20
28.5
30
0
0
VERTEX
8
ARKA_PANE
10
261.333333
20
28.5
30
0
0
VERTEX
8
ARKA_PANE
10
261.333333
20
889.5
30
0
0
VERTEX
8
ARKA_PANE
10
144.166667
20
889.5
30
0
0
SEQEND
8
ARKA_PANE
0
POLYLINE
8
ARKA_FRONT_HINGES_3MM
66
1
70
1
10
0
20
0
30
0
0
VERTEX
8
ARKA_FRONT_HINGES_3MM
10
136.166667
20
20.5
30
0
0
VERTEX
8
ARKA_FRONT_HINGES_3MM
10
269.333333
20
20.5
30
0
0
VERTEX
8
ARKA_FRONT_HINGES_3MM
10
269.333333
20
897.5
30
0
0
VERTEX
8
ARKA_FRONT_HINGES_3MM
10
136.166667
20
897.5
30
0
0
SEQEND
8
ARKA_FRONT_HINGES_3MM
0
POLYLINE
8
ARKA_OUTLINE
66
1
70
1
10
0
20
0
30
0
0
VERTEX
8
ARKA_OUTLINE
10
281.333333
20
30.5
30
0
0
VERTEX
8
ARKA_OUTLINE
10
529.666667
20
30.5
30
0
0
VERTEX
8
ARKA_OUTLINE
10
529.666667
20
898.5
30
0
42
1
0
VERTEX
8
ARKA_OUTLINE
10
281.333333
20
898.500003
30
0
0
SEQEND
8
ARKA_OUTLINE
0
POLYLINE
8
ARKA_PANE
66
1
70
1
10
0
20
0
30
0
0
VERTEX
8
ARKA_PANE
10
279.333333
20
28.5
30
0
0
VERTEX
8
ARKA_PANE
10
531.666667
20
28.5
30
0
0
VERTEX
8
ARKA_PANE
10
531.666667
20
898.5
30
0
42
1
0
VERTEX
8
ARKA_PANE
10
279.333333
20
898.500003
30
0
0
SEQEND
8
ARKA_PANE
0
POLYLINE
8
ARKA_FRONT_HINGES_3MM
66
1
70
1
10
0
20
0
30
0
0
VERTEX
8
ARKA_FRONT_HINGES_3MM
10
271.333333
20
20.5
30
0
0
VERTEX
8
ARKA_FRONT_HINGES_3MM
10
539.666667
20
20.5
30
0
0
VERTEX
8
ARKA_FRONT_HINGES_3MM
10
539.666667
20
898.499988
30
0
42
1
0
VERTEX
8
ARKA_FRONT_HINGES_3MM
10
271.333333
20
898.500003
30
0
0
SEQEND
8
ARKA_FRONT_HINGES_3MM
0
POLYLINE
8
ARKA_OUTLINE
66
1
70
1
10
0
20
0
30
0
0
VERTEX
8
ARKA_OUTLINE
10
551.666667
20
30.5
30
0
0
VERTEX
8
ARKA_OUTLINE
10
664.833333
20
30.5
30
0
0
VERTEX
8
ARKA_OUTLINE
10
664.833333
20
887.5
30
0
0
VERTEX
8
ARKA_OUTLINE
10
551.666667
20
887.5
30
0
0
SEQEND
8
ARKA_OUTLINE
0
POLYLINE
8
ARKA_PANE
66
1
70
1
10
0
20
0
30
0
0
VERTEX
8
ARKA_PANE
10
549.666667
20
28.5
30
0
0
VERTEX
8
ARKA_PANE
10
666.833333
20
28.5
30
0
0
VERTEX
8
ARKA_PANE
10
666.833333
20
889.5
30
0
0
VERTEX
8
ARKA_PANE
10
549.666667
20
889.5
30
0
0
SEQEND
8
ARKA_PANE
0
POLYLINE
8
ARKA_FRONT_HINGES_3MM
66
1
70
1
10
0
20
0
30
0
0
VERTEX
8
ARKA_FRONT_HINGES_3MM
10
541.666667
20
20.5
30
0
0
VERTEX
8
ARKA_FRONT_HINGES_3MM
10
674.833333
20
20.5
30
0
0
VERTEX
8
ARKA_FRONT_HINGES_3MM
10
674.833333
20
897.5
30
0
0
VERTEX
8
ARKA_FRONT_HINGES_3MM
10
541.666667
20
897.5
30
0
0
SEQEND
8
ARKA_FRONT_HINGES_3MM
0
POLYLINE
8
ARKA_OUTLINE
66
1
70
1
10
0
20
0
30
0
0
VERTEX
8
ARKA_OUTLINE
10
686.833333
20
30.5
30
0
0
VERTEX
8
ARKA_OUTLINE
10
780.5
20
30.5
30
0
0
VERTEX
8
ARKA_OUTLINE
10
780.5
20
887.5
30
0
0
VERTEX
8
ARKA_OUTLINE
10
686.833333
20
887.5
30
0
0
SEQEND
8
ARKA_OUTLINE
0
POLYLINE
8
ARKA_PANE
66
1
70
1
10
0
20
0
30
0
0
VERTEX
8
ARKA_PANE
10
684.833333
20
28.5
30
0
0
VERTEX
8
ARKA_PANE
10
782.5
20
28.5
30
0
0
VERTEX
8
ARKA_PANE
10
782.5
20
889.5
30
0
0
VERTEX
8
ARKA_PANE
10
684.833333
20
889.5
30
0
0
SEQEND
8
ARKA_PANE
0
POLYLINE
8
ARKA_FRONT_HINGES_3MM
66
1
70
1
10
0
20
0
30
0
0
VERTEX
8
ARKA_FRONT_HINGES_3MM
10
676.833333
20
20.5
30
0
0
VERTEX
8
ARKA_FRONT_HINGES_3MM
10
790.5
20
20.5
30
0
0
VERTEX
8
ARKA_FRONT_HINGES_3MM
10
790.5
20
897.5
30
0
0
VERTEX
8
ARKA_FRONT_HINGES_3MM
10
676.833333
20
897.5
30
0
0
SEQEND
8
ARKA_FRONT_HINGES_3MM
0
POLYLINE
8
ARKA_OUTLINE
66
1
70
1
10
0
20
0
30
0
0
VERTEX
8
ARKA_OUTLINE
10
780.338632
20
909.5
30
0
42
0.183706
0
VERTEX
8
ARKA_OUTLINE
10
678.329113
20
1155.772764
30
0
0
VERTEX
8
ARKA_OUTLINE
10
612.058763
20
1089.502414
30
0
42
-0.17866
0
VERTEX
8
ARKA_OUTLINE
10
686.618204
20
909.5
30
0
0
SEQEND
8
ARKA_OUTLINE
0
POLYLINE
8
ARKA_PANE
66
1
70
1
10
0
20
0
30
0
0
VERTEX
8
ARKA_PANE
10
782.392558
20
907.5
30
0
42
0.186531
0
VERTEX
8
ARKA_PANE
10
678.367244
20
1158.639322
30
0
0
VERTEX
8
ARKA_PANE
10
609.279907
20
1089.551985
30
0
42
-0.182214
0
VERTEX
8
ARKA_PANE
10
684.688308
20
907.5
30
0
0
SEQEND
8
ARKA_PANE
0
POLYLINE
8
ARKA_FRONT_HINGES_3MM
66
1
70
1
10
0
20
0
30
0
0
VERTEX
8
ARKA_FRONT_HINGES_3MM
10
790.498701
20
899.5
30
0
42
0.197563
0
VERTEX
8
ARKA_FRONT_HINGES_3MM
10
678.442299
20
1170.028086
30
0
0
VERTEX
8
ARKA_FRONT_HINGES_3MM
10
598.067444
20
1089.65323
30
0
42
-0.196997
0
VERTEX
8
ARKA_FRONT_HINGES_3MM
10
676.831491
20
899.5
30
0
0
SEQEND
8
ARKA_FRONT_HINGES_3MM
0
POLYLINE
8
ARKA_OUTLINE
66
1
70
1
10
0
20
0
30
0
0
VERTEX
8
ARKA_OUTLINE
10
662.772764
20
1171.329113
30
0
42
0.183706
0
VERTEX
8
ARKA_OUTLINE
10
416.5
20
1273.338632
30
0
0
VERTEX
8
ARKA_OUTLINE
10
416.5
20
1179.618204
30
0
42
-0.17866
0
VERTEX
8
ARKA_OUTLINE
10
596.502414
20
1105.058763
30
0
0
SEQEND
8
ARKA_OUTLINE
0
POLYLINE
8
ARKA_PANE
66
1
70
1
10
0
20
0
30
0
0
VERTEX
8
ARKA_PANE
10
665.639322
20
1171.367244
30
0
42
0.186531
0
VERTEX
8
ARKA_PANE
10
414.5
20
1275.392558
30
0
0
VERTEX
8
ARKA_PANE
10
414.5
20
1177.688308
30
0
42
-0.182214
0
VERTEX
8
ARKA_PANE
10
596.551985
20
1102.279907
30
0
0
SEQEND
8
ARKA_PANE
0
POLYLINE
8
ARKA_FRONT_HINGES_3MM
66
1
70
1
10
0
20
0
30
0
0
VERTEX
8
ARKA_FRONT_HINGES_3MM
10
677.028086
20
1171.442299
30
0
42
0.197563
0
VERTEX
8
ARKA_FRONT_HINGES_3MM
10
406.5
20
1283.498701
30
0
0
VERTEX
8
ARKA_FRONT_HINGES_3MM
10
406.5
20
1169.831491
30
0
42
-0.196997
0
VERTEX
8
ARKA_FRONT_HINGES_3MM
10
596.65323
20
1091.067444
30
0
0
SEQEND
8
ARKA_FRONT_HINGES_3MM
0
POLYLINE
8
ARKA_OUTLINE
66
1
70
1
10
0
20
0
30
0
0
VERTEX
8
ARKA_OUTLINE
10
394.5
20
1273.338632
30
0
42
0.183706
0
VERTEX
8
ARKA_OUTLINE
10
148.227236
20
1171.329113
30
0
0
VERTEX
8
ARKA_OUTLINE
10
214.497586
20
1105.058763
30
0
42
-0.17866
0
VERTEX
8
ARKA_OUTLINE
10
394.5
20
1179.618204
30
0
0
SEQEND
8
ARKA_OUTLINE
0
POLYLINE
8
ARKA_PANE
66
1
70
1
10
0
20
0
30
0
0
VERTEX
8
ARKA_PANE
10
396.5
20
1275.392558
30
0
42
0.186531
0
VERTEX
8
ARKA_PANE
10
145.360678
20
1171.367244
30
0
0
VERTEX
8
ARKA_PANE
10
214.448015
20
1102.279907
30
0
42
-0.182214
0
VERTEX
8
ARKA_PANE
10
396.5
20
1177.688308
30
0
0
SEQEND
8
ARKA_PANE
0
POLYLINE
8
ARKA_FRONT_HINGES_3MM
66
1
70
1
10
0
20
0
30
0
0
VERTEX
8
ARKA_FRONT_HINGES_3MM
10
404.5
20
1283.498701
30
0
42
0.197563
0
VERTEX
8
ARKA_FRONT_HINGES_3MM
10
133.971914
20
1171.442299
30
0
0
VERTEX
8
ARKA_FRONT_HINGES_3MM
10
214.34677
20
1091.067444
30
0
42
-0.196997
0
VERTEX
8
ARKA_FRONT_HINGES_3MM
10
404.5
20
1169.831491
30
0
0
SEQEND
8
ARKA_FRONT_HINGES_3MM
0
POLYLINE
8
ARKA_OUTLINE
66
1
70
1
10
0
20
0
30
0
0
VERTEX
8
ARKA_OUTLINE
10
132.670887
20
1155.772764
30
0
42
0.183706
0
VERTEX
8
ARKA_OUTLINE
10
30.661368
20
909.5
30
0
0
VERTEX
8
ARKA_OUTLINE
10
124.381796
20
909.5
30
0
42
-0.17866
0
VERTEX
8
ARKA_OUTLINE
10
198.941237
20
1089.502414
30
0
0
SEQEND
8
ARKA_OUTLINE
0
POLYLINE
8
ARKA_PANE
66
1
70
1
10
0
20
0
30
0
0
VERTEX
8
ARKA_PANE
10
132.632756
20
1158.639322
30
0
42
0.186531
0
VERTEX
8
ARKA_PANE
10
28.607442
20
907.5
30
0
0
VERTEX
8
ARKA_PANE
10
126.311692
20
907.5
30
0
42
-0.182214
0
VERTEX
8
ARKA_PANE
10
201.720093
20
1089.551985
30
0
0
SEQEND
8
ARKA_PANE
0
POLYLINE
8
ARKA_FRONT_HINGES_3MM
66
1
70
1
10
0
20
0
30
0
0
VERTEX
8
ARKA_FRONT_HINGES_3MM
10
132.557701
20
1170.028086
30
0
42
0.197563
0
VERTEX
8
ARKA_FRONT_HINGES_3MM
10
20.501299
20
899.5
30
0
0
VERTEX
8
ARKA_FRONT_HINGES_3MM
10
134.168509
20
899.5
30
0
42
-0.196997
0
VERTEX
8
ARKA_FRONT_HINGES_3MM
10
212.932556
20
1089.65323
30
0
0
SEQEND
8
ARKA_FRONT_HINGES_3MM
0
POLYLINE
8
ARKA_OUTLINE
66
1
70
1
10
0
20
0
30
0
0
VERTEX
8
ARKA_OUTLINE
10
516.340521
20
993.784172
30
0
42
-0.160031
0
VERTEX
8
ARKA_OUTLINE
10
551.252168
20
909.5
30
0
0
VERTEX
8
ARKA_OUTLINE
10
664.599938
20
909.5
30
0
42
0.176948
0
VERTEX
8
ARKA_OUTLINE
10
596.489498
20
1073.933148
30
0
0
SEQEND
8
ARKA_OUTLINE
0
POLYLINE
8
ARKA_PANE
66
1
70
1
10
0
20
0
30
0
0
VERTEX
8
ARKA_PANE
10
513.606351
20
993.878429
30
0
42
-0.166632
0
VERTEX
8
ARKA_PANE
10
549.385468
20
907.5
30
0
0
VERTEX
8
ARKA_PANE
10
666.678313
20
907.5
30
0
42
0.181068
0
VERTEX
8
ARKA_PANE
10
596.544917
20
1076.816995
30
0
0
SEQEND
8
ARKA_PANE
0
POLYLINE
8
ARKA_FRONT_HINGES_3MM
66
1
70
1
10
0
20
0
30
0
0
VERTEX
8
ARKA_FRONT_HINGES_3MM
10
502.488884
20
994.07467
30
0
42
-0.195098
0
VERTEX
8
ARKA_FRONT_HINGES_3MM
10
541.662995
20
899.5
30
0
0
VERTEX
8
ARKA_FRONT_HINGES_3MM
10
674.831477
20
899.5
30
0
42
0.196983
0
VERTEX
8
ARKA_FRONT_HINGES_3MM
10
596.65322
20
1088.239007
30
0
0
SEQEND
8
ARKA_FRONT_HINGES_3MM
0
POLYLINE
8
ARKA_OUTLINE
66
1
70
1
10
0
20
0
30
0
0
VERTEX
8
ARKA_OUTLINE
10
416.5
20
1044.252168
30
0
42
-0.160031
0
VERTEX
8
ARKA_OUTLINE
10
500.784172
20
1009.340521
30
0
0
VERTEX
8
ARKA_OUTLINE
10
580.933148
20
1089.489498
30
0
42
0.176948
0
VERTEX
8
ARKA_OUTLINE
10
416.5
20
1157.599938
30
0
0
SEQEND
8
ARKA_OUTLINE
0
POLYLINE
8
ARKA_PANE
66
1
70
1
10
0
20
0
30
0
0
VERTEX
8
ARKA_PANE
10
414.5
20
1042.385468
30
0
42
-0.166632
0
VERTEX
8
ARKA_PANE
10
500.878429
20
1006.606351
30
0
0
VERTEX
8
ARKA_PANE
10
583.816995
20
1089.544917
30
0
42
0.181068
0
VERTEX
8
ARKA_PANE
10
414.5
20
1159.678313
30
0
0
SEQEND
8
ARKA_PANE
0
POLYLINE
8
ARKA_FRONT_HINGES_3MM
66
1
70
1
10
0
20
0
30
0
0
VERTEX
8
ARKA_FRONT_HINGES_3MM
10
406.5
20
1034.662995
30
0
42
-0.195098
0
VERTEX
8
ARKA_FRONT_HINGES_3MM
10
501.07467
20
995.488884
30
0
0
VERTEX
8
ARKA_FRONT_HINGES_3MM
10
595.239007
20
1089.65322
30
0
42
0.196983
0
VERTEX
8
ARKA_FRONT_HINGES_3MM
10
406.5
20
1167.831477
30
0
0
SEQEND
8
ARKA_FRONT_HINGES_3MM
0
POLYLINE
8
ARKA_OUTLINE
66
1
70
1
10
0
20
0
30
0
0
VERTEX
8
ARKA_OUTLINE
10
310.215828
20
1009.340521
30
0
42
-0.160031
0
VERTEX
8
ARKA_OUTLINE
10
394.5
20
1044.252168
30
0
0
VERTEX
8
ARKA_OUTLINE
10
394.5
20
1157.599938
30
0
42
0.176948
0
VERTEX
8
ARKA_OUTLINE
10
230.066852
20
1089.489498
30
0
0
SEQEND
8
ARKA_OUTLINE
0
POLYLINE
8
ARKA_PANE
66
1
70
1
10
0
20
0
30
0
0
VERTEX
8
ARKA_PANE
10
310.121571
20
1006.606351
30
0
42
-0.166632
0
VERTEX
8
ARKA_PANE
10
396.5
20
1042.385468
30
0
0
VERTEX
8
ARKA_PANE
10
396.5
20
1159.678313
30
0
42
0.181068
0
VERTEX
8
ARKA_PANE
10
227.183005
20
1089.544917
30
0
0
SEQEND
8
ARKA_PANE
0
POLYLINE
8
ARKA_FRONT_HINGES_3MM
66
1
70
1
10
0
20
0
30
0
0
VERTEX
8
ARKA_FRONT_HINGES_3MM
10
309.92533
20
995.488884
30
0
42
-0.195098
0
VERTEX
8
ARKA_FRONT_HINGES_3MM
10
404.5
20
1034.662995
30
0
0
VERTEX
8
ARKA_FRONT_HINGES_3MM
10
404.5
20
1167.831477
30
0
42
0.196983
0
VERTEX
8
ARKA_FRONT_HINGES_3MM
10
215.760993
20
1089.65322
30
0
0
SEQEND
8
ARKA_FRONT_HINGES_3MM
0
POLYLINE
8
ARKA_OUTLINE
66
1
70
1
10
0
20
0
30
0
0
VERTEX
8
ARKA_OUTLINE
10
259.747832
20
909.5
30
0
42
-0.160031
0
VERTEX
8
ARKA_OUTLINE
10
294.659479
20
993.784172
30
0
0
VERTEX
8
ARKA_OUTLINE
10
214.510502
20
1073.933148
30
0
42
0.176948
0
VERTEX
8
ARKA_OUTLINE
10
146.400062
20
909.5
30
0
0
SEQEND
8
ARKA_OUTLINE
0
POLYLINE
8
ARKA_PANE
66
1
70
1
10
0
20
0
30
0
0
VERTEX
8
ARKA_PANE
10
261.614532
20
907.5
30
0
42
-0.166632
0
VERTEX
8
ARKA_PANE
10
297.393649
20
993.878429
30
0
0
VERTEX
8
ARKA_PANE
10
214.455083
20
1076.816995
30
0
42
0.181068
0
VERTEX
8
ARKA_PANE
10
144.321687
20
907.5
30
0
0
SEQEND
8
ARKA_PANE
0
POLYLINE
8
ARKA_FRONT_HINGES_3MM
66
1
70
1
10
0
20
0
30
0
0
VERTEX
8
ARKA_FRONT_HINGES_3MM
10
269.337005
20
899.5
30
0
42
-0.195098
0
VERTEX
8
ARKA_FRONT_HINGES_3MM
10
308.511116
20
994.07467
30
0
0
VERTEX
8
ARKA_FRONT_HINGES_3MM
10
214.34678
20
1088.239007
30
0
42
0.196983
0
VERTEX
8
ARKA_FRONT_HINGES_3MM
10
136.168523
20
899.5
30
0
0
SEQEND
8
ARKA_FRONT_HINGES_3MM
0
POLYLINE
8
ARKA_MITRE
66
1
70
0
10
0
20
0
30
0
0
VERTEX
8
ARKA_MITRE
10
20.5
20
35.5
30
0
0
VERTEX
8
ARKA_MITRE
10
20.5
20
20.5
30
0
0
VERTEX
8
ARKA_MITRE
10
35.5
20
20.5
30
0
0
SEQEND
8
ARKA_MITRE
0
POLYLINE
8
ARKA_MITRE
66
1
70
0
10
0
20
0
30
0
0
VERTEX
8
ARKA_MITRE
10
119.166667
20
20.5
30
0
0
VERTEX
8
ARKA_MITRE
10
134.166667
20
20.5
30
0
0
VERTEX
8
ARKA_MITRE
10
134.166667
20
35.5
30
0
0
SEQEND
8
ARKA_MITRE
0
POLYLINE
8
ARKA_MITRE
66
1
70
0
10
0
20
0
30
0
0
VERTEX
8
ARKA_MITRE
10
134.166667
20
882.5
30
0
0
VERTEX
8
ARKA_MITRE
10
134.166667
20
897.5
30
0
0
VERTEX
8
ARKA_MITRE
10
119.166667
20
897.5
30
0
0
SEQEND
8
ARKA_MITRE
0
POLYLINE
8
ARKA_MITRE
66
1
70
0
10
0
20
0
30
0
0
VERTEX
8
ARKA_MITRE
10
35.5
20
897.5
30
0
0
VERTEX
8
ARKA_MITRE
10
20.5
20
897.5
30
0
0
VERTEX
8
ARKA_MITRE
10
20.5
20
882.5
30
0
0
SEQEND
8
ARKA_MITRE
0
POLYLINE
8
ARKA_MITRE
66
1
70
0
10
0
20
0
30
0
0
VERTEX
8
ARKA_MITRE
10
136.166667
20
35.5
30
0
0
VERTEX
8
ARKA_MITRE
10
136.166667
20
20.5
30
0
0
VERTEX
8
ARKA_MITRE
10
151.166667
20
20.5
30
0
0
SEQEND
8
ARKA_MITRE
0
POLYLINE
8
ARKA_MITRE
66
1
70
0
10
0
20
0
30
0
0
VERTEX
8
ARKA_MITRE
10
254.333333
20
20.5
30
0
0
VERTEX
8
ARKA_MITRE
10
269.333333
20
20.5
30
0
0
VERTEX
8
ARKA_MITRE
10
269.333333
20
35.5
30
0
0
SEQEND
8
ARKA_MITRE
0
POLYLINE
8
ARKA_MITRE
66
1
70
0
10
0
20
0
30
0
0
VERTEX
8
ARKA_MITRE
10
269.333333
20
882.5
30
0
0
VERTEX
8
ARKA_MITRE
10
269.333333
20
897.5
30
0
0
VERTEX
8
ARKA_MITRE
10
254.333333
20
897.5
30
0
0
SEQEND
8
ARKA_MITRE
0
POLYLINE
8
ARKA_MITRE
66
1
70
0
10
0
20
0
30
0
0
VERTEX
8
ARKA_MITRE
10
151.166667
20
897.5
30
0
0
VERTEX
8
ARKA_MITRE
10
136.166667
20
897.5
30
0
0
VERTEX
8
ARKA_MITRE
10
136.166667
20
882.5
30
0
0
SEQEND
8
ARKA_MITRE
0
POLYLINE
8
ARKA_MITRE
66
1
70
0
10
0
20
0
30
0
0
VERTEX
8
ARKA_MITRE
10
271.333333
20
35.5
30
0
0
VERTEX
8
ARKA_MITRE
10
271.333333
20
20.5
30
0
0
VERTEX
8
ARKA_MITRE
10
286.333333
20
20.5
30
0
0
SEQEND
8
ARKA_MITRE
0
POLYLINE
8
ARKA_MITRE
66
1
70
0
10
0
20
0
30
0
0
VERTEX
8
ARKA_MITRE
10
524.666667
20
20.5
30
0
0
VERTEX
8
ARKA_MITRE
10
539.666667
20
20.5
30
0
0
VERTEX
8
ARKA_MITRE
10
539.666667
20
35.5
30
0
0
SEQEND
8
ARKA_MITRE
0
POLYLINE
8
ARKA_MITRE
66
1
70
0
10
0
20
0
30
0
0
VERTEX
8
ARKA_MITRE
10
541.666667
20
35.5
30
0
0
VERTEX
8
ARKA_MITRE
10
541.666667
20
20.5
30
0
0
VERTEX
8
ARKA_MITRE
10
556.666667
20
20.5
30
0
0
SEQEND
8
ARKA_MITRE
0
POLYLINE
8
ARKA_MITRE
66
1
70
0
10
0
20
0
30
0
0
VERTEX
8
ARKA_MITRE
10
659.833333
20
20.5
30
0
0
VERTEX
8
ARKA_MITRE
10
674.833333
20
20.5
30
0
0
VERTEX
8
ARKA_MITRE
10
674.833333
20
35.5
30
0
0
SEQEND
8
ARKA_MITRE
0
POLYLINE
8
ARKA_MITRE
66
1
70
0
10
0
20
0
30
0
0
VERTEX
8
ARKA_MITRE
10
674.833333
20
882.5
30
0
0
VERTEX
8
ARKA_MITRE
10
674.833333
20
897.5
30
0
0
VERTEX
8
ARKA_MITRE
10
659.833333
20
897.5
30
0
0
SEQEND
8
ARKA_MITRE
0
POLYLINE
8
ARKA_MITRE
66
1
70
0
10
0
20
0
30
0
0
VERTEX
8
ARKA_MITRE
10
556.666667
20
897.5
30
0
0
VERTEX
8
ARKA_MITRE
10
541.666667
20
897.5
30
0
0
VERTEX
8
ARKA_MITRE
10
541.666667
20
882.5
30
0
0
SEQEND
8
ARKA_MITRE
0
POLYLINE
8
ARKA_MITRE
66
1
70
0
10
0
20
0
30
0
0
VERTEX
8
ARKA_MITRE
10
676.833333
20
35.5
30
0
0
VERTEX
8
ARKA_MITRE
10
676.833333
20
20.5
30
0
0
VERTEX
8
ARKA_MITRE
10
691.833333
20
20.5
30
0
0
SEQEND
8
ARKA_MITRE
0
POLYLINE
8
ARKA_MITRE
66
1
70
0
10
0
20
0
30
0
0
VERTEX
8
ARKA_MITRE
10
775.5
20
20.5
30
0
0
VERTEX
8
ARKA_MITRE
10
790.5
20
20.5
30
0
0
VERTEX
8
ARKA_MITRE
10
790.5
20
35.5
30
0
0
SEQEND
8
ARKA_MITRE
0
POLYLINE
8
ARKA_MITRE
66
1
70
0
10
0
20
0
30
0
0
VERTEX
8
ARKA_MITRE
10
790.5
20
882.5
30
0
0
VERTEX
8
ARKA_MITRE
10
790.5
20
897.5
30
0
0
VERTEX
8
ARKA_MITRE
10
775.5
20
897.5
30
0
0
SEQEND
8
ARKA_MITRE
0
POLYLINE
8
ARKA_MITRE
66
1
70
0
10
0
20
0
30
0
0
VERTEX
8
ARKA_MITRE
10
691.833333
20
897.5
30
0
0
VERTEX
8
ARKA_MITRE
10
676.833333
20
897.5
30
0
0
VERTEX
8
ARKA_MITRE
10
676.833333
20
882.5
30
0
0
SEQEND
8
ARKA_MITRE
0
POLYLINE
8
ARKA_MITRE
66
1
70
0
10
0
20
0
30
0
0
VERTEX
8
ARKA_MITRE
10
775.498701
20
899.5
30
0
0
VERTEX
8
ARKA_MITRE
10
790.498701
20
899.5
30
0
42
0.009741
0
VERTEX
8
ARKA_MITRE
10
790.16758
20
914.495396
30
0
0
SEQEND
8
ARKA_MITRE
0
POLYLINE
8
ARKA_MITRE
66
1
70
0
10
0
20
0
30
0
0
VERTEX
8
ARKA_MITRE
10
688.811507
20
1159.190602
30
0
42
0.009741
0
VERTEX
8
ARKA_MITRE
10
678.442299
20
1170.028086
30
0
0
VERTEX
8
ARKA_MITRE
10
667.835697
20
1159.421484
30
0
0
SEQEND
8
ARKA_MITRE
0
POLYLINE
8
ARKA_MITRE
66
1
70
0
10
0
20
0
30
0
0
VERTEX
8
ARKA_MITRE
10
608.674045
20
1100.259832
30
0
0
VERTEX
8
ARKA_MITRE
10
598.067444
20
1089.65323
30
0
42
-0.013822
0
VERTEX
8
ARKA_MITRE
10
608.335317
20
1078.721008
30
0
0
SEQEND
8
ARKA_MITRE
0
POLYLINE
8
ARKA_MITRE
66
1
70
0
10
0
20
0
30
0
0
VERTEX
8
ARKA_MITRE
10
676.361725
20
914.490731
30
0
42
-0.013822
0
VERTEX
8
ARKA_MITRE
10
676.831491
20
899.5
30
0
0
VERTEX
8
ARKA_MITRE
10
691.831491
20
899.5
30
0
0
SEQEND
8
ARKA_MITRE
0
POLYLINE
8
ARKA_MITRE
66
1
70
0
10
0
20
0
30
0
0
VERTEX
8
ARKA_MITRE
10
666.421484
20
1160.835697
30
0
0
VERTEX
8
ARKA_MITRE
10
677.028086
20
1171.442299
30
0
42
0.009741
0
VERTEX
8
ARKA_MITRE
10
666.190602
20
1181.811507
30
0
0
SEQEND
8
ARKA_MITRE
0
POLYLINE
8
ARKA_MITRE
66
1
70
0
10
0
20
0
30
0
0
VERTEX
8
ARKA_MITRE
10
421.495396
20
1283.16758
30
0
42
0.009741
0
VERTEX
8
ARKA_MITRE
10
406.5
20
1283.498701
30
0
0
VERTEX
8
ARKA_MITRE
10
406.5
20
1268.498701
30
0
0
SEQEND
8
ARKA_MITRE
0
POLYLINE
8
ARKA_MITRE
66
1
70
0
10
0
20
0
30
0
0
VERTEX
8
ARKA_MITRE
10
406.5
20
1184.831491
30
0
0
VERTEX
8
ARKA_MITRE
10
406.5
20
1169.831491
30
0
42
-0.013822
0
VERTEX
8
ARKA_MITRE
10
421.490731
20
1169.361725
30
0
0
SEQEND
8
ARKA_MITRE
0
POLYLINE
8
ARKA_MITRE
66
1
70
0
10
0
20
0
30
0
0
VERTEX
8
ARKA_MITRE
10
585.721008
20
1101.335317
30
0
42
-0.013822
0
VERTEX
8
ARKA_MITRE
10
596.65323
20
1091.067444
30
0
0
VERTEX
8
ARKA_MITRE
10
607.259832
20
1101.674045
30
0
0
SEQEND
8
ARKA_MITRE
0
POLYLINE
8
ARKA_MITRE
66
1
70
0
10
0
20
0
30
0
0
VERTEX
8
ARKA_MITRE
10
404.5
20
1268.498701
30
0
0
VERTEX
8
ARKA_MITRE
10
404.5
20
1283.498701
30
0
42
0.009741
0
VERTEX
8
ARKA_MITRE
10
389.504604
20
1283.16758
30
0
0
SEQEND
8
ARKA_MITRE
0
POLYLINE
8
ARKA_MITRE
66
1
70
0
10
0
20
0
30
0
0
VERTEX
8
ARKA_MITRE
10
144.809398
20
1181.811507
30
0
42
0.009741
0
VERTEX
8
ARKA_MITRE
10
133.971914
20
1171.442299
30
0
0
VERTEX
8
ARKA_MITRE
10
144.578516
20
1160.835697
30
0
0
SEQEND
8
ARKA_MITRE
0
POLYLINE
8
ARKA_MITRE
66
1
70
0
10
0
20
0
30
0
0
VERTEX
8
ARKA_MITRE
10
203.740168
20
1101.674045
30
0
0
VERTEX
8
ARKA_MITRE
10
214.34677
20
1091.067444
30
0
42
-0.013822
0
VERTEX
8
ARKA_MITRE
10
225.278992
20
1101.335317
30
0
0
SEQEND
8
ARKA_MITRE
0
POLYLINE
8
ARKA_MITRE
66
1
70
0
10
0
20
0
30
0
0
VERTEX
8
ARKA_MITRE
10
389.509269
20
1169.361725
30
0
42
-0.013822
0
VERTEX
8
ARKA_MITRE
10
404.5
20
1169.831491
30
0
0
VERTEX
8
ARKA_MITRE
10
404.5
20
1184.831491
30
0
0
SEQEND
8
ARKA_MITRE
0
POLYLINE
8
ARKA_MITRE
66
1
70
0
10
0
20
0
30
0
0
VERTEX
8
ARKA_MITRE
10
143.164303
20
1159.421484
30
0
0
VERTEX
8
ARKA_MITRE
10
132.557701
20
1170.028086
30
0
42
0.009741
0
VERTEX
8
ARKA_MITRE
10
122.188493
20
1159.190602
30
0
0
SEQEND
8
ARKA_MITRE
0
POLYLINE
8
ARKA_MITRE
66
1
70
0
10
0
20
0
30
0
0
VERTEX
8
ARKA_MITRE
10
20.83242
20
914.495396
30
0
42
0.009741
0
VERTEX
8
ARKA_MITRE
10
20.501299
20
899.5
30
0
0
VERTEX
8
ARKA_MITRE
10
35.501299
20
899.5
30
0
0
SEQEND
8
ARKA_MITRE
0
POLYLINE
8
ARKA_MITRE
66
1
70
0
10
0
20
0
30
0
0
VERTEX
8
ARKA_MITRE
10
119.168509
20
899.5
30
0
0
VERTEX
8
ARKA_MITRE
10
134.168509
20
899.5
30
0
42
-0.013822
0
VERTEX
8
ARKA_MITRE
10
134.638275
20
914.490731
30
0
0
SEQEND
8
ARKA_MITRE
0
POLYLINE
8
ARKA_MITRE
66
1
70
0
10
0
20
0
30
0
0
VERTEX
8
ARKA_MITRE
10
202.664683
20
1078.721008
30
0
42
-0.013822
0
VERTEX
8
ARKA_MITRE
10
212.932556
20
1089.65323
30
0
0
VERTEX
8
ARKA_MITRE
10
202.325955
20
1100.259832
30
0
0
SEQEND
8
ARKA_MITRE
0
POLYLINE
8
ARKA_MITRE
66
1
70
0
10
0
20
0
30
0
0
VERTEX
8
ARKA_MITRE
10
513.095485
20
1004.681272
30
0
0
VERTEX
8
ARKA_MITRE
10
502.488884
20
994.07467
30
0
42
-0.027547
0
VERTEX
8
ARKA_MITRE
10
512.408137
20
982.832741
30
0
0
SEQEND
8
ARKA_MITRE
0
POLYLINE
8
ARKA_MITRE
66
1
70
0
10
0
20
0
30
0
0
VERTEX
8
ARKA_MITRE
10
540.727722
20
914.463216
30
0
42
-0.027547
0
VERTEX
8
ARKA_MITRE
10
541.662995
20
899.5
30
0
0
VERTEX
8
ARKA_MITRE
10
556.662995
20
899.5
30
0
0
SEQEND
8
ARKA_MITRE
0
POLYLINE
8
ARKA_MITRE
66
1
70
0
10
0
20
0
30
0
0
VERTEX
8
ARKA_MITRE
10
659.831477
20
899.5
30
0
0
VERTEX
8
ARKA_MITRE
10
674.831477
20
899.5
30
0
42
0.013924
0
VERTEX
8
ARKA_MITRE
10
674.358225
20
914.490593
30
0
0
SEQEND
8
ARKA_MITRE
0
POLYLINE
8
ARKA_MITRE
66
1
70
0
10
0
20
0
30
0
0
VERTEX
8
ARKA_MITRE
10
606.918531
20
1077.304418
30
0
42
0.013924
0
VERTEX
8
ARKA_MITRE
10
596.65322
20
1088.239007
30
0
0
VERTEX
8
ARKA_MITRE
10
586.046619
20
1077.632405
30
0
0
SEQEND
8
ARKA_MITRE
0
POLYLINE
8
ARKA_MITRE
66
1
70
0
10
0
20
0
30
0
0
VERTEX
8
ARKA_MITRE
10
406.5
20
1049.662995
30
0
0
VERTEX
8
ARKA_MITRE
10
406.5
20
1034.662995
30
0
42
-0.027547
0
VERTEX
8
ARKA_MITRE
10
421.463216
20
1033.727722
30
0
0
SEQEND
8
ARKA_MITRE
0
POLYLINE
8
ARKA_MITRE
66
1
70
0
10
0
20
0
30
0
0
VERTEX
8
ARKA_MITRE
10
489.832741
20
1005.408137
30
0
42
-0.027547
0
VERTEX
8
ARKA_MITRE
10
501.07467
20
995.488884
30
0
0
VERTEX
8
ARKA_MITRE
10
511.681272
20
1006.095485
30
0
0
SEQEND
8
ARKA_MITRE
0
POLYLINE
8
ARKA_MITRE
66
1
70
0
10
0
20
0
30
0
0
VERTEX
8
ARKA_MITRE
10
584.632405
20
1079.046619
30
0
0
VERTEX
8
ARKA_MITRE
10
595.239007
20
1089.65322
30
0
42
0.013924
0
VERTEX
8
ARKA_MITRE
10
584.304418
20
1099.918531
30
0
0
SEQEND
8
ARKA_MITRE
0
POLYLINE
8
ARKA_MITRE
66
1
70
0
10
0
20
0
30
0
0
VERTEX
8
ARKA_MITRE
10
421.490593
20
1167.358225
30
0
42
0.013924
0
VERTEX
8
ARKA_MITRE
10
406.5
20
1167.831477
30
0
0
VERTEX
8
ARKA_MITRE
10
406.5
20
1152.831477
30
0
0
SEQEND
8
ARKA_MITRE
0
POLYLINE
8
ARKA_MITRE
66
1
70
0
10
0
20
0
30
0
0
VERTEX
8
ARKA_MITRE
10
299.318728
20
1006.095485
30
0
0
VERTEX
8
ARKA_MITRE
10
309.92533
20
995.488884
30
0
42
-0.027547
0
VERTEX
8
ARKA_MITRE
10
321.167259
20
1005.408137
30
0
0
SEQEND
8
ARKA_MITRE
0
POLYLINE
8
ARKA_MITRE
66
1
70
0
10
0
20
0
30
0
0
VERTEX
8
ARKA_MITRE
10
389.536784
20
1033.727722
30
0
42
-0.027547
0
VERTEX
8
ARKA_MITRE
10
404.5
20
1034.662995
30
0
0
VERTEX
8
ARKA_MITRE
10
404.5
20
1049.662995
30
0
0
SEQEND
8
ARKA_MITRE
0
POLYLINE
8
ARKA_MITRE
66
1
70
0
10
0
20
0
30
0
0
VERTEX
8
ARKA_MITRE
10
404.5
20
1152.831477
30
0
0
VERTEX
8
ARKA_MITRE
10
404.5
20
1167.831477
30
0
42
0.013924
0
VERTEX
8
ARKA_MITRE
10
389.509407
20
1167.358225
30
0
0
SEQEND
8
ARKA_MITRE
0
POLYLINE
8
ARKA_MITRE
66
1
70
0
10
0
20
0
30
0
0
VERTEX
8
ARKA_MITRE
10
226.695582
20
1099.918531
30
0
42
0.013924
0
VERTEX
8
ARKA_MITRE
10
215.760993
20
1089.65322
30
0
0
VERTEX
8
ARKA_MITRE
10
226.367595
20
1079.046619
30
0
0
SEQEND
8
ARKA_MITRE
0
POLYLINE
8
ARKA_MITRE
66
1
70
0
10
0
20
0
30
0
0
VERTEX
8
ARKA_MITRE
10
254.337005
20
899.5
30
0
0
VERTEX
8
ARKA_MITRE
10
269.337005
20
899.5
30
0
42
-0.027547
0
VERTEX
8
ARKA_MITRE
10
270.272278
20
914.463216
30
0
0
SEQEND
8
ARKA_MITRE
0
POLYLINE
8
ARKA_MITRE
66
1
70
0
10
0
20
0
30
0
0
VERTEX
8
ARKA_MITRE
10
298.591863
20
982.832741
30
0
42
-0.027547
0
VERTEX
8
ARKA_MITRE
10
308.511116
20
994.07467
30
0
0
VERTEX
8
ARKA_MITRE
10
297.904515
20
1004.681272
30
0
0
SEQEND
8
ARKA_MITRE
0
POLYLINE
8
ARKA_MITRE
66
1
70
0
10
0
20
0
30
0
0
VERTEX
8
ARKA_MITRE
10
224.953381
20
1077.632405
30
0
0
VERTEX
8
ARKA_MITRE
10
214.34678
20
1088.239007
30
0
42
0.013924
0
VERTEX
8
ARKA_MITRE
10
204.081469
20
1077.304418
30
0
0
SEQEND
8
ARKA_MITRE
0
POLYLINE
8
ARKA_MITRE
66
1
70
0
10
0
20
0
30
0
0
VERTEX
8
ARKA_MITRE
10
136.641775
20
914.490593
30
0
42
0.013924
0
VERTEX
8
ARKA_MITRE
10
136.168523
20
899.5
30
0
0
VERTEX
8
ARKA_MITRE
10
151.168523
20
899.5
30
0
0
SEQEND
8
ARKA_MITRE
0
POINT
8
ARKA_CENTRE
10
405.5
20
898.5
30
0
0
POLYLINE
8
ARKA_SECTION
66
1
70
0
10
0
20
0
30
0
0
VERTEX
8
ARKA_SECTION
10
898.5
20
12.5
30
0
42
-0.414214
0
VERTEX
8
ARKA_SECTION
10
906.5
20
20.5
30
0
0
VERTEX
8
ARKA_SECTION
10
906.5
20
26.5
30
0
0
SEQEND
8
ARKA_SECTION
0
TEXT
8
ARKA_INFO_NO_CUT
10
894.5
20
-6.5
30
0
40
15
1
START
72
0
11
894.5
21
-6.5
31
0
73
0
0
TEXT
8
ARKA_INFO_NO_CUT
10
918.5
20
16.5
30
0
40
15
1
SECTION R8 + 6 (VERBATIM)
72
0
11
918.5
21
16.5
31
0
73
0
0
TEXT
8
ARKA_INFO_NO_CUT
10
898.5
20
1269.5
30
0
40
15
1
quad - TRACERY FULL
72
0
11
898.5
21
1269.5
31
0
73
0
0
TEXT
8
ARKA_INFO_NO_CUT
10
898.5
20
1247.5
30
0
40
15
1
PATTERN QUAD-HUB-SPOKE SPOKES 11 RINGS 2 PANES 13
72
0
11
898.5
21
1247.5
31
0
73
0
0
TEXT
8
ARKA_INFO_NO_CUT
10
898.5
20
1225.5
30
0
40
15
1
TIMBER BAR 22 EDGE MARGIN 18 PANE +2 LIMIT +10 MITRE LEG 15
72
0
11
898.5
21
1225.5
31
0
73
0
0
TEXT
8
ARKA_INFO_NO_CUT
10
898.5
20
1203.5
30
0
40
15
1
ARKA_PANE = MOULDING RAIL (INNER EDGE OF THE BEAD), ARKA_FRONT_HINGES_3MM = BEAD LIMIT (NOT DRILLING)
72
0
11
898.5
21
1203.5
31
0
73
0
0
TEXT
8
ARKA_INFO_NO_CUT
10
898.5
20
1181.5
30
0
40
15
1
NOT A TOOLPATH
72
0
11
898.5
21
1181.5
31
0
73
0
0
ENDSEC
0
EOF
