0
SECTION
2
HEADER
9
$ACADVER
1
AC1009
0
ENDSEC
0
SECTION
2
TABLES
0
TABLE
2
LAYER
70
6
0
LAYER
2
0
70
0
62
7
6
CONTINUOUS
0
LAYER
2
GLASS_CONTOUR
70
0
62
7
6
CONTINUOUS
0
LAYER
2
GLASS_EDGE
70
0
62
8
6
CONTINUOUS
0
LAYER
2
GLASS_BARS
70
0
62
3
6
CONTINUOUS
0
LAYER
2
GLASS_BAR_AXES
70
0
62
4
6
CONTINUOUS
0
LAYER
2
GLASS_TEXT
70
0
62
2
6
CONTINUOUS
0
ENDTAB
0
ENDSEC
0
SECTION
2
ENTITIES
0
POLYLINE
8
GLASS_CONTOUR
66
1
70
1
10
0
20
0
30
0
0
VERTEX
8
GLASS_CONTOUR
10
0
20
-1293
30
0
0
VERTEX
8
GLASS_CONTOUR
10
789
20
-1293
30
0
0
VERTEX
8
GLASS_CONTOUR
10
789
20
0
30
0
0
VERTEX
8
GLASS_CONTOUR
10
0
20
0
30
0
0
SEQEND
8
GLASS_CONTOUR
0
POLYLINE
8
GLASS_EDGE
66
1
70
1
10
0
20
0
30
0
0
VERTEX
8
GLASS_EDGE
10
11
20
-1282
30
0
0
VERTEX
8
GLASS_EDGE
10
778
20
-1282
30
0
0
VERTEX
8
GLASS_EDGE
10
778
20
-11
30
0
0
VERTEX
8
GLASS_EDGE
10
11
20
-11
30
0
0
SEQEND
8
GLASS_EDGE
0
POLYLINE
8
GLASS_BAR_AXES
66
1
70
0
10
0
20
0
30
0
0
VERTEX
8
GLASS_BAR_AXES
10
394.5
20
-1293
30
0
0
VERTEX
8
GLASS_BAR_AXES
10
394.5
20
0
30
0
0
SEQEND
8
GLASS_BAR_AXES
0
POLYLINE
8
GLASS_BARS
66
1
70
0
10
0
20
0
30
0
0
VERTEX
8
GLASS_BARS
10
385.5
20
-1293
30
0
0
VERTEX
8
GLASS_BARS
10
385.5
20
0
30
0
0
SEQEND
8
GLASS_BARS
0
POLYLINE
8
GLASS_BARS
66
1
70
0
10
0
20
0
30
0
0
VERTEX
8
GLASS_BARS
10
403.5
20
-1293
30
0
0
VERTEX
8
GLASS_BARS
10
403.5
20
0
30
0
0
SEQEND
8
GLASS_BARS
0
POLYLINE
8
GLASS_BAR_AXES
66
1
70
0
10
0
20
0
30
0
0
VERTEX
8
GLASS_BAR_AXES
10
0
20
-646.5
30
0
0
VERTEX
8
GLASS_BAR_AXES
10
789
20
-646.5
30
0
0
SEQEND
8
GLASS_BAR_AXES
0
POLYLINE
8
GLASS_BARS
66
1
70
0
10
0
20
0
30
0
0
VERTEX
8
GLASS_BARS
10
0
20
-637.5
30
0
0
VERTEX
8
GLASS_BARS
10
789
20
-637.5
30
0
0
SEQEND
8
GLASS_BARS
0
POLYLINE
8
GLASS_BARS
66
1
70
0
10
0
20
0
30
0
0
VERTEX
8
GLASS_BARS
10
0
20
-655.5
30
0
0
VERTEX
8
GLASS_BARS
10
789
20
-655.5
30
0
0
SEQEND
8
GLASS_BARS
0
TEXT
8
GLASS_TEXT
10
889
20
-18.5
30
0
40
15
1
R040 - G1 GLASS RECTANGULAR
72
0
11
889
21
-18.5
31
0
73
0
0
TEXT
8
GLASS_TEXT
10
889
20
-40.5
30
0
40
15
1
W789 x H1293 040L P1 RIGHT
72
0
11
889
21
-40.5
31
0
73
0
0
TEXT
8
GLASS_TEXT
10
889
20
-62.5
30
0
40
15
1
DOUBLE 4X16X4 TOUGHENED ARGON CLEAR SPACER SILVER
72
0
11
889
21
-62.5
31
0
73
0
0
TEXT
8
GLASS_TEXT
10
889
20
-84.5
30
0
40
15
1
BARS 2 (1H x 1V) TOTAL L=2082
72
0
11
889
21
-84.5
31
0
73
0
0
TEXT
8
GLASS_TEXT
10
889
20
-106.5
30
0
40
15
1
V1 V X=394.5 Y=0-1293 L=1293
72
0
11
889
21
-106.5
31
0
73
0
0
TEXT
8
GLASS_TEXT
10
889
20
-128.5
30
0
40
15
1
H1 H Y=646.5 X=0-789 L=789
72
0
11
889
21
-128.5
31
0
73
0
0
TEXT
8
GLASS_TEXT
10
889
20
-150.5
30
0
40
15
1
BAR AXES FROM THE BOTTOM CORNERS:
72
0
11
889
21
-150.5
31
0
73
0
0
TEXT
8
GLASS_TEXT
10
889
20
-172.5
30
0
40
15
1
V1  FROM LEFT 394.5  FROM RIGHT 394.5
72
0
11
889
21
-172.5
31
0
73
0
0
TEXT
8
GLASS_TEXT
10
889
20
-194.5
30
0
40
15
1
H1  FROM BOTTOM 646.5  FROM TOP 646.5
72
0
11
889
21
-194.5
31
0
73
0
0
POLYLINE
8
GLASS_CONTOUR
66
1
70
1
10
0
20
0
30
0
0
VERTEX
8
GLASS_CONTOUR
10
0
20
-2886
30
0
0
VERTEX
8
GLASS_CONTOUR
10
789
20
-2886
30
0
0
VERTEX
8
GLASS_CONTOUR
10
789
20
-1687.5
30
0
42
0.333333
0
VERTEX
8
GLASS_CONTOUR
10
756.96
20
-1644.78
30
0
42
0.142857
0
VERTEX
8
GLASS_CONTOUR
10
32.04
20
-1644.78
30
0
42
0.333333
0
VERTEX
8
GLASS_CONTOUR
10
0
20
-1687.5
30
0
0
SEQEND
8
GLASS_CONTOUR
0
POLYLINE
8
GLASS_EDGE
66
1
70
1
10
0
20
0
30
0
0
VERTEX
8
GLASS_EDGE
10
11
20
-2875
30
0
0
VERTEX
8
GLASS_EDGE
10
778
20
-2875
30
0
0
VERTEX
8
GLASS_EDGE
10
778
20
-1687.5
30
0
42
0.333333
0
VERTEX
8
GLASS_EDGE
10
753.88
20
-1655.34
30
0
42
0.142857
0
VERTEX
8
GLASS_EDGE
10
35.12
20
-1655.34
30
0
42
0.333333
0
VERTEX
8
GLASS_EDGE
10
11
20
-1687.5
30
0
0
SEQEND
8
GLASS_EDGE
0
POLYLINE
8
GLASS_BAR_AXES
66
1
70
0
10
0
20
0
30
0
0
VERTEX
8
GLASS_BAR_AXES
10
0
20
-2286.75
30
0
0
VERTEX
8
GLASS_BAR_AXES
10
789
20
-2286.75
30
0
0
SEQEND
8
GLASS_BAR_AXES
0
POLYLINE
8
GLASS_BARS
66
1
70
0
10
0
20
0
30
0
0
VERTEX
8
GLASS_BARS
10
0
20
-2277.75
30
0
0
VERTEX
8
GLASS_BARS
10
789
20
-2277.75
30
0
0
SEQEND
8
GLASS_BARS
0
POLYLINE
8
GLASS_BARS
66
1
70
0
10
0
20
0
30
0
0
VERTEX
8
GLASS_BARS
10
0
20
-2295.75
30
0
0
VERTEX
8
GLASS_BARS
10
789
20
-2295.75
30
0
0
SEQEND
8
GLASS_BARS
0
POLYLINE
8
GLASS_BAR_AXES
66
1
70
0
10
0
20
0
30
0
0
VERTEX
8
GLASS_BAR_AXES
10
263
20
-2886
30
0
0
VERTEX
8
GLASS_BAR_AXES
10
263
20
-1599.696444
30
0
0
SEQEND
8
GLASS_BAR_AXES
0
POLYLINE
8
GLASS_BARS
66
1
70
0
10
0
20
0
30
0
0
VERTEX
8
GLASS_BARS
10
254
20
-2886
30
0
0
VERTEX
8
GLASS_BARS
10
254
20
-1599.696444
30
0
0
SEQEND
8
GLASS_BARS
0
POLYLINE
8
GLASS_BARS
66
1
70
0
10
0
20
0
30
0
0
VERTEX
8
GLASS_BARS
10
272
20
-2886
30
0
0
VERTEX
8
GLASS_BARS
10
272
20
-1599.696444
30
0
0
SEQEND
8
GLASS_BARS
0
POLYLINE
8
GLASS_BAR_AXES
66
1
70
0
10
0
20
0
30
0
0
VERTEX
8
GLASS_BAR_AXES
10
526
20
-2886
30
0
0
VERTEX
8
GLASS_BAR_AXES
10
526
20
-1599.696444
30
0
0
SEQEND
8
GLASS_BAR_AXES
0
POLYLINE
8
GLASS_BARS
66
1
70
0
10
0
20
0
30
0
0
VERTEX
8
GLASS_BARS
10
517
20
-2886
30
0
0
VERTEX
8
GLASS_BARS
10
517
20
-1599.696444
30
0
0
SEQEND
8
GLASS_BARS
0
POLYLINE
8
GLASS_BARS
66
1
70
0
10
0
20
0
30
0
0
VERTEX
8
GLASS_BARS
10
535
20
-2886
30
0
0
VERTEX
8
GLASS_BARS
10
535
20
-1599.696444
30
0
0
SEQEND
8
GLASS_BARS
0
TEXT
8
GLASS_TEXT
10
889
20
-1611.5
30
0
40
15
1
A1 - G1 GLASS THREE-CENTRE
72
0
11
889
21
-1611.5
31
0
73
0
0
TEXT
8
GLASS_TEXT
10
889
20
-1633.5
30
0
40
15
1
W789 x H1293 RISE 94.5 SPRINGING 1198.5 R 44.5/1294.5/44.5
72
0
11
889
21
-1633.5
31
0
73
0
0
TEXT
8
GLASS_TEXT
10
889
20
-1655.5
30
0
40
15
1
DOUBLE 4X16X4 TOUGHENED ARGON CLEAR SPACER SILVER
72
0
11
889
21
-1655.5
31
0
73
0
0
TEXT
8
GLASS_TEXT
10
889
20
-1677.5
30
0
40
15
1
BARS 3 TOTAL L=3362
72
0
11
889
21
-1677.5
31
0
73
0
0
TEXT
8
GLASS_TEXT
10
889
20
-1699.5
30
0
40
15
1
H1 H Y=599.3 X=0-789 L=789
72
0
11
889
21
-1699.5
31
0
73
0
0
TEXT
8
GLASS_TEXT
10
889
20
-1721.5
30
0
40
15
1
V1 V X=263 Y=0-1286.3 L=1286.5
72
0
11
889
21
-1721.5
31
0
73
0
0
TEXT
8
GLASS_TEXT
10
889
20
-1743.5
30
0
40
15
1
V2 V X=526 Y=0-1286.3 L=1286.5
72
0
11
889
21
-1743.5
31
0
73
0
0
TEXT
8
GLASS_TEXT
10
889
20
-1765.5
30
0
40
15
1
BAR ENDS: ID  S FROM APEX / POSITION  L  ANGLE / R
72
0
11
889
21
-1765.5
31
0
73
0
0
TEXT
8
GLASS_TEXT
10
889
20
-1787.5
30
0
40
15
1
H1  Y 599.3  L=789  0DEG
72
0
11
889
21
-1787.5
31
0
73
0
0
TEXT
8
GLASS_TEXT
10
889
20
-1809.5
30
0
40
15
1
V1  131.7 FROM APEX L  L=1286.5  90DEG
72
0
11
889
21
-1809.5
31
0
73
0
0
TEXT
8
GLASS_TEXT
10
889
20
-1831.5
30
0
40
15
1
V2  131.7 FROM APEX R  L=1286.5  90DEG
72
0
11
889
21
-1831.5
31
0
73
0
0
ENDSEC
0
EOF
